999
DXF file: C:\Users\ramon\Desktop\NETRUNNER MICRO GMB\3D_RENDERS\Z2_CASE ORIGINAL\pcb_control_v5rack_230414.dxf
999
Pro/ENGINEER 2013230 by Parametric Technology Corporation
  0
SECTION
  2
HEADER
  9
$ACADVER
  1
AC1021
  9
$DWGCODEPAGE
  3
ANSI_1252
  9
$EXTMAX
 10
11.6929133858
 20
8.2677165354
 30
0.0
  9
$EXTMIN
 10
0.0
 20
-0.0
 30
0.0
  9
$LIMMIN
 10
0.0
 20
-0.0
  9
$LIMMAX
 10
11.6929133858
 20
8.2677165354
  9
$VIEWCTR
 10
5.8464566929
 20
4.1338582677
  9
$VIEWSIZE
 40
8.2677165354
  9
$CLAYER
  8
0
  9
$LTSCALE
 40
0.6431102362
  9
$CELTYPE
  6
BYLAYER
  9
$DIMSCALE
 40
1.0
  9
$DIMASZ
 40
0.1875
  9
$DIMEXO
 40
0.0625
  9
$DIMDLI
 40
0.4443307087
  9
$DIMEXE
 40
0.125
  9
$DIMCEN
 40
0.1052362205
  9
$DIMLFAC
 40
1.0
  9
$DIMBLK
  1
_CLOSED
  9
$DIMTXT
 40
0.15625
  9
$DIMTOL
 70
0
  9
$DIMLIM
 70
0
  9
$DIMTFAC
 40
1.0
  9
$DIMGAP
 40
0.09
  9
$DIMDSEP
 70
46
  9
$PDMODE
 70
3
  9
$PDSIZE
 40
0.3125
  9
$HANDSEED
  5
2C9
  9
$TILEMODE
 70
1
  9
$MEASUREMENT
 70
0
  9
$INSUNITS
 70
1
  0
ENDSEC
  0
SECTION
  2
CLASSES
  0
CLASS
  1
ACDBDICTIONARYWDFLT
  2
AcDbDictionaryWithDefault
  3
AutoCAD 2000
 90
0
 91
1
280
0
281
0
  0
CLASS
  1
ACDBPLACEHOLDER
  2
AcDbPlaceHolder
  3
AutoCAD 2000
 90
0
 91
1
280
0
281
0
  0
CLASS
  1
LAYOUT
  2
AcDbLayout
  3
AutoCAD 2000
 90
0
 91
0
280
0
281
0
  0
ENDSEC
  0
SECTION
  2
TABLES
  0
TABLE
  2
VPORT
  5
8
100
AcDbSymbolTable
 70
2
  0
VPORT
  5
1F4
100
AcDbSymbolTableRecord
100
AcDbViewportTableRecord
  2
*ACTIVE
 70
0
 10
0.0
 20
0.0
 11
1.0
 21
1.0
 12
5.8464566929
 22
4.1338582677
 13
0.0
 23
0.0
 14
1.0
 24
1.0
 15
0.0
 25
0.0
 16
0.0
 26
0.0
 36
1.0
 17
0.0
 27
0.0
 37
0.0
 40
8.2677165354
 41
1.4142857143
 42
50.0
 43
0.0
 44
0.0
 50
0.0
 51
0.0
 71
0
 72
100
 73
1
 74
1
 75
0
 76
0
 77
0
 78
0
  0
ENDTAB
  0
TABLE
  2
LTYPE
  5
5
100
AcDbSymbolTable
 70
6
  0
LTYPE
  5
14
100
AcDbSymbolTableRecord
100
AcDbLinetypeTableRecord
  2
BYBLOCK
 70
0
  3

 72
65
 73
0
 40
0.0
  0
LTYPE
  5
15
100
AcDbSymbolTableRecord
100
AcDbLinetypeTableRecord
  2
BYLAYER
 70
0
  3

 72
65
 73
0
 40
0.0
  0
LTYPE
  5
16
100
AcDbSymbolTableRecord
100
AcDbLinetypeTableRecord
  2
CONTINUOUS
 70
64
  3
Solid line
 72
65
 73
0
 40
0.0
  0
LTYPE
  5
1F5
100
AcDbSymbolTableRecord
100
AcDbLinetypeTableRecord
  2
CENTER
 70
64
  3
____ _ ____ _ ____ _ ____ _ ____ _ ____ _ ____
 72
65
 73
4
 40
0.6
 49
0.375
 74
0
 49
-0.075
 74
0
 49
0.075
 74
0
 49
-0.075
 74
0
  0
LTYPE
  5
1F6
100
AcDbSymbolTableRecord
100
AcDbLinetypeTableRecord
  2
HIDDEN
 70
64
  3
- - - - - - - - - - - - - - - - - - - -
 72
65
 73
2
 40
0.2
 49
0.1
 74
0
 49
-0.1
 74
0
  0
LTYPE
  5
1F7
100
AcDbSymbolTableRecord
100
AcDbLinetypeTableRecord
  2
PHANTOM
 70
64
  3
_____ _ _ _____ _ _ _____ _ _ _____
 72
65
 73
6
 40
0.8
 49
0.45
 74
0
 49
-0.05
 74
0
 49
0.1
 74
0
 49
-0.05
 74
0
 49
0.1
 74
0
 49
-0.05
 74
0
  0
LTYPE
  5
1F8
100
AcDbSymbolTableRecord
100
AcDbLinetypeTableRecord
  2
DOT
 70
64
  3
. . . . . . . . . . . . . . . . . . . .
 72
65
 73
2
 40
0.2
 49
0.1
 74
0
 49
-0.1
 74
0
  0
LTYPE
  5
1F9
100
AcDbSymbolTableRecord
100
AcDbLinetypeTableRecord
  2
DASHED
 70
64
  3
- - - - - - - - - - - - - - - - - - - -
 72
65
 73
2
 40
0.2
 49
0.1
 74
0
 49
-0.1
 74
0
  0
ENDTAB
  0
TABLE
  2
LAYER
  5
2
100
AcDbSymbolTable
 70
36
  0
LAYER
  5
10
100
AcDbSymbolTableRecord
100
AcDbLayerTableRecord
  2
0
 70
0
 62
7
  6
CONTINUOUS
370
-3
390
F
  0
LAYER
  5
1FA
100
AcDbSymbolTableRecord
100
AcDbLayerTableRecord
  2
DEFAULT_1
 70
0
 62
7
  6
CENTER
370
-3
390
F
  0
LAYER
  5
1FB
100
AcDbSymbolTableRecord
100
AcDbLayerTableRecord
  2
DEFAULT_2
 70
0
 62
8
  6
HIDDEN
370
-3
390
F
  0
LAYER
  5
1FC
100
AcDbSymbolTableRecord
100
AcDbLayerTableRecord
  2
DEFAULT_3
 70
0
 62
7
  6
PHANTOM
370
-3
390
F
  0
LAYER
  5
1FD
100
AcDbSymbolTableRecord
100
AcDbLayerTableRecord
  2
01___PRT_ALL_DTM_PLN
 70
0
 62
7
  6
CONTINUOUS
370
-3
390
F
  0
LAYER
  5
1FE
100
AcDbSymbolTableRecord
100
AcDbLayerTableRecord
  2
01___PRT_DEF_DTM_PLN
 70
0
 62
7
  6
CONTINUOUS
370
-3
390
F
  0
LAYER
  5
1FF
100
AcDbSymbolTableRecord
100
AcDbLayerTableRecord
  2
02___PRT_ALL_AXES
 70
0
 62
7
  6
CONTINUOUS
370
-3
390
F
  0
LAYER
  5
200
100
AcDbSymbolTableRecord
100
AcDbLayerTableRecord
  2
03___PRT_ALL_CURVES
 70
0
 62
7
  6
CONTINUOUS
370
-3
390
F
  0
LAYER
  5
201
100
AcDbSymbolTableRecord
100
AcDbLayerTableRecord
  2
04___PRT_ALL_DTM_PNT
 70
0
 62
7
  6
CONTINUOUS
370
-3
390
F
  0
LAYER
  5
202
100
AcDbSymbolTableRecord
100
AcDbLayerTableRecord
  2
05___PRT_ALL_DTM_CSYS
 70
0
 62
7
  6
CONTINUOUS
370
-3
390
F
  0
LAYER
  5
203
100
AcDbSymbolTableRecord
100
AcDbLayerTableRecord
  2
05___PRT_DEF_DTM_CSYS
 70
0
 62
7
  6
CONTINUOUS
370
-3
390
F
  0
LAYER
  5
204
100
AcDbSymbolTableRecord
100
AcDbLayerTableRecord
  2
06___PRT_ALL_SURFS
 70
0
 62
7
  6
CONTINUOUS
370
-3
390
F
  0
LAYER
  5
205
100
AcDbSymbolTableRecord
100
AcDbLayerTableRecord
  2
HIDDEN
 70
0
 62
7
  6
CONTINUOUS
370
-3
390
F
  0
LAYER
  5
206
100
AcDbSymbolTableRecord
100
AcDbLayerTableRecord
  2
INTFCLR_12
 70
0
 62
7
  6
CONTINUOUS
370
-3
390
F
  0
LAYER
  5
207
100
AcDbSymbolTableRecord
100
AcDbLayerTableRecord
  2
INTFCLR_13
 70
0
 62
7
  6
CONTINUOUS
370
-3
390
F
  0
LAYER
  5
208
100
AcDbSymbolTableRecord
100
AcDbLayerTableRecord
  2
INTF_MAGENTA
 70
0
 62
7
  6
CONTINUOUS
370
-3
390
F
  0
LAYER
  5
209
100
AcDbSymbolTableRecord
100
AcDbLayerTableRecord
  2
INTF_RED
 70
0
 62
7
  6
CONTINUOUS
370
-3
390
F
  0
LAYER
  5
20A
100
AcDbSymbolTableRecord
100
AcDbLayerTableRecord
  2
KEEPOUTLAYER
 70
0
 62
7
  6
CONTINUOUS
370
-3
390
F
  0
LAYER
  5
20B
100
AcDbSymbolTableRecord
100
AcDbLayerTableRecord
  2
MECHANICAL1
 70
0
 62
7
  6
CONTINUOUS
370
-3
390
F
  0
LAYER
  5
20C
100
AcDbSymbolTableRecord
100
AcDbLayerTableRecord
  2
MECHANICAL3
 70
0
 62
7
  6
CONTINUOUS
370
-3
390
F
  0
LAYER
  5
20D
100
AcDbSymbolTableRecord
100
AcDbLayerTableRecord
  2
TOPLAYER
 70
0
 62
7
  6
CONTINUOUS
370
-3
390
F
  0
LAYER
  5
20E
100
AcDbSymbolTableRecord
100
AcDbLayerTableRecord
  2
TOPPASTE
 70
0
 62
7
  6
CONTINUOUS
370
-3
390
F
  0
LAYER
  5
20F
100
AcDbSymbolTableRecord
100
AcDbLayerTableRecord
  2
TOPSOLDER
 70
0
 62
7
  6
CONTINUOUS
370
-3
390
F
  0
ENDTAB
  0
TABLE
  2
STYLE
  5
3
100
AcDbSymbolTable
 70
1
  0
STYLE
  5
11
100
AcDbSymbolTableRecord
100
AcDbTextStyleTableRecord
  2
STANDARD
 70
0
 40
0.0
 41
0.8
 50
0.0
 71
0
 42
0.2
  3
txt
  4

  0
STYLE
  5
210
100
AcDbSymbolTableRecord
100
AcDbTextStyleTableRecord
  2
TEXTSTYLE_1
 70
0
 40
0.0
 41
0.8
 50
0.0
 71
0
 42
0.2
  3
gdt
  4

  0
ENDTAB
  0
TABLE
  2
VIEW
  5
6
100
AcDbSymbolTable
 70
0
  0
ENDTAB
  0
TABLE
  2
UCS
  5
7
100
AcDbSymbolTable
 70
0
  0
ENDTAB
  0
TABLE
  2
APPID
  5
9
100
AcDbSymbolTable
 70
1
  0
APPID
  5
211
100
AcDbSymbolTableRecord
100
AcDbRegAppTableRecord
  2
ACAD
 70
0
  0
ENDTAB
  0
TABLE
  2
BLOCK_RECORD
  5
1
100
AcDbSymbolTable
 70
0
  0
BLOCK_RECORD
  5
212
100
AcDbSymbolTableRecord
100
AcDbBlockTableRecord
  2
*Model_Space
  0
BLOCK_RECORD
  5
213
100
AcDbSymbolTableRecord
100
AcDbBlockTableRecord
  2
*Paper_Space
  0
BLOCK_RECORD
  5
214
100
AcDbSymbolTableRecord
100
AcDbBlockTableRecord
  2
_CLOSED
  0
BLOCK_RECORD
  5
215
100
AcDbSymbolTableRecord
100
AcDbBlockTableRecord
  2
*D0
  0
BLOCK_RECORD
  5
216
100
AcDbSymbolTableRecord
100
AcDbBlockTableRecord
  2
*D1
  0
ENDTAB
  0
TABLE
  2
DIMSTYLE
  5
A
100
AcDbSymbolTable
 70
1
100
AcDbDimStyleTable
 71
0
  0
DIMSTYLE
105
217
100
AcDbSymbolTableRecord
100
AcDbDimStyleTableRecord
  2
STANDARD
 70
0
  3

  4

 40
1.0
 41
0.1875
 42
0.0625
 43
0.38
 44
0.125
 45
0.0
 46
0.0
 47
0.01
 48
0.01
140
0.15625
141
0.09
142
0.0
143
25.4
144
1.0
145
0.0
146
1.0
147
0.09
 71
0.0
 72
0.0
 73
1
 74
1
 75
0
 76
0
 77
0
 78
4
170
0
171
2
172
0
173
0
174
0
175
0
176
0
177
0
178
0
270
2
271
2
272
2
273
2
274
2
275
0
280
0
281
0
282
0
283
1
284
4
285
0
286
0
287
3
288
0
340
11
278
46
341
214
342
214
343
214
344
214
  0
DIMSTYLE
105
218
100
AcDbSymbolTableRecord
100
AcDbDimStyleTableRecord
  2
DIMSTYLE_1
 70
0
  3

  4

 40
1.0
 41
0.1875
 42
0.0625
 43
0.38
 44
0.125
 45
0.0
 46
0.0
 47
0.0
 48
0.0
140
0.15625
141
0.09
142
0.0
143
25.4
144
1.0
145
0.0
146
1.0
147
0.078125
 71
0.0
 72
0.0
 73
1
 74
1
 75
0
 76
0
 77
0
 78
4
170
0
171
2
172
0
173
0
174
0
175
0
176
0
177
0
178
0
270
2
271
2
272
2
273
2
274
2
275
0
280
0
281
0
282
0
283
1
284
4
285
0
286
0
287
3
288
0
340
11
278
46
341
214
342
214
343
214
344
214
  0
ENDTAB
  0
ENDSEC
  0
SECTION
  2
BLOCKS
  0
BLOCK
  5
20
100
AcDbEntity
  8
0
100
AcDbBlockBegin
  2
*Model_Space
 70
0
 10
0.0
 20
0.0
 30
0.0
  3
*Model_Space
  1

  0
ENDBLK
  5
21
100
AcDbEntity
  8
0
100
AcDbBlockEnd
  0
BLOCK
  5
1C
100
AcDbEntity
  8
0
100
AcDbBlockBegin
  2
*Paper_Space
 70
0
 10
0.0
 20
0.0
 30
0.0
  3
*Paper_Space
  1

  0
ENDBLK
  5
1D
100
AcDbEntity
  8
0
100
AcDbBlockEnd
  0
BLOCK
  5
219
100
AcDbEntity
  8
0
100
AcDbBlockBegin
  2
_CLOSED
 70
64
 10
0.0
 20
0.0
  3
_CLOSED
  1

  0
LINE
  5
21A
100
AcDbEntity
  8
0
  6
BYBLOCK
 62
0
100
AcDbLine
 10
0.0
 20
0.0
 11
-1.0
 21
0.1666666667
  0
LINE
  5
21B
100
AcDbEntity
  8
0
  6
BYBLOCK
 62
0
100
AcDbLine
 10
-1.0
 20
0.1666666667
 11
-1.0
 21
-0.1666666667
  0
LINE
  5
21C
100
AcDbEntity
  8
0
  6
BYBLOCK
 62
0
100
AcDbLine
 10
-1.0
 20
-0.1666666667
 11
0.0
 21
0.0
  0
LINE
  5
21D
100
AcDbEntity
  8
0
  6
BYBLOCK
 62
0
100
AcDbLine
 10
-1.0
 20
0.0
 11
0.0
 21
0.0
  0
ENDBLK
  5
21E
100
AcDbEntity
  8
0
  6
BYBLOCK
 62
0
100
AcDbBlockEnd
  0
BLOCK
  5
21F
100
AcDbEntity
  8
0
100
AcDbBlockBegin
 62
2
  6
CONTINUOUS
  2
*D0
 70
65
 10
0.0
 20
0.0
  3
*D0
  1

  0
MTEXT
  5
220
100
AcDbEntity
  8
0
100
AcDbMText
 62
2
  6
CONTINUOUS
  7
STANDARD
 71
2
 72
1
 10
5.8801670426
 20
2.5625358585
 30
0.0
 11
1.0
 21
0.0
 31
0.0
 44
0.9
  1
245.6
 40
0.15625
 41
0.625
  0
LINE
  5
221
100
AcDbEntity
  8
0
100
AcDbLine
 62
2
  6
CONTINUOUS
 10
1.0455213733
 20
3.1193352264
 11
1.0455213733
 21
2.3594108585
  0
LINE
  5
222
100
AcDbEntity
  8
0
100
AcDbLine
 62
2
  6
CONTINUOUS
 10
10.7148127119
 20
3.1193352264
 11
10.7148127119
 21
2.3594108585
  0
LINE
  5
223
100
AcDbEntity
  8
0
100
AcDbLine
 62
2
  6
CONTINUOUS
 10
1.0455213733
 20
2.4844108585
 11
5.4895420426
 21
2.4844108585
  0
LINE
  5
224
100
AcDbEntity
  8
0
100
AcDbLine
 62
2
  6
CONTINUOUS
 10
10.7148127119
 20
2.4844108585
 11
6.2707920426
 21
2.4844108585
  0
INSERT
  5
225
100
AcDbEntity
  8
0
100
AcDbBlockReference
 62
2
  6
CONTINUOUS
  2
_CLOSED
 10
1.0455213733
 20
2.4844108585
 41
0.1875
 42
0.1875
 43
0.1875
 50
180.0
  0
INSERT
  5
226
100
AcDbEntity
  8
0
100
AcDbBlockReference
 62
2
  6
CONTINUOUS
  2
_CLOSED
 10
10.7148127119
 20
2.4844108585
 41
0.1875
 42
0.1875
 43
0.1875
  0
ENDBLK
  5
227
100
AcDbEntity
  8
0
  6
BYBLOCK
 62
0
100
AcDbBlockEnd
  0
BLOCK
  5
228
100
AcDbEntity
  8
0
100
AcDbBlockBegin
 62
2
  6
CONTINUOUS
  2
*D1
 70
65
 10
0.0
 20
0.0
  3
*D1
  1

  0
MTEXT
  5
229
100
AcDbEntity
  8
0
100
AcDbMText
 62
2
  6
CONTINUOUS
  7
STANDARD
 71
2
 72
1
 10
0.4952308396
 20
4.8524799114
 30
0.0
 11
1.0
 21
0.0
 31
0.0
 44
0.9
  1
84.9
 40
0.15625
 41
0.5
  0
LINE
  5
22A
100
AcDbEntity
  8
0
100
AcDbLine
 62
2
  6
CONTINUOUS
 10
1.0617615308
 20
3.1030950689
 11
0.3702308396
 21
3.1030950689
  0
LINE
  5
22B
100
AcDbEntity
  8
0
100
AcDbLine
 62
2
  6
CONTINUOUS
 10
1.0617615308
 20
6.4456147539
 11
0.3702308396
 21
6.4456147539
  0
LINE
  5
22C
100
AcDbEntity
  8
0
100
AcDbLine
 62
2
  6
CONTINUOUS
 10
0.4952308396
 20
3.1030950689
 11
0.4952308396
 21
4.6181049114
  0
LINE
  5
22D
100
AcDbEntity
  8
0
100
AcDbLine
 62
2
  6
CONTINUOUS
 10
0.4952308396
 20
6.4456147539
 11
0.4952308396
 21
4.9306049114
  0
INSERT
  5
22E
100
AcDbEntity
  8
0
100
AcDbBlockReference
 62
2
  6
CONTINUOUS
  2
_CLOSED
 10
0.4952308396
 20
3.1030950689
 41
0.1875
 42
0.1875
 43
0.1875
 50
270.0
  0
INSERT
  5
22F
100
AcDbEntity
  8
0
100
AcDbBlockReference
 62
2
  6
CONTINUOUS
  2
_CLOSED
 10
0.4952308396
 20
6.4456147539
 41
0.1875
 42
0.1875
 43
0.1875
 50
90.0
  0
ENDBLK
  5
230
100
AcDbEntity
  8
0
  6
BYBLOCK
 62
0
100
AcDbBlockEnd
  0
ENDSEC
  0
SECTION
  2
ENTITIES
  0
DIMENSION
  5
231
100
AcDbEntity
  8
0
100
AcDbDimension
 62
2
  6
CONTINUOUS
  2
*D0
 10
10.7148127119
 20
2.4844108585
 11
5.8801670426
 21
2.4844108585
 70
160
 71
2
 42
245.6
  3
DIMSTYLE_1
100
AcDbAlignedDimension
 13
1.0455213733
 23
3.1818352264
 14
10.7148127119
 24
3.1818352264
100
AcDbRotatedDimension
  0
DIMENSION
  5
232
100
AcDbEntity
  8
0
100
AcDbDimension
 62
2
  6
CONTINUOUS
  2
*D1
 10
0.4952308396
 20
6.4456147539
 11
0.4952308396
 21
4.7743549114
 70
160
 71
2
 42
84.9
  3
DIMSTYLE_1
100
AcDbAlignedDimension
 13
1.1242615308
 23
3.1030950689
 14
1.1242615308
 24
6.4456147539
 50
90.0
100
AcDbRotatedDimension
  0
MTEXT
  5
233
100
AcDbEntity
  8
0
100
AcDbMText
 62
2
  6
CONTINUOUS
  7
STANDARD
 71
1
 72
1
 10
1.2056652221
 20
1.0319736158
 30
0.0
 11
1.0
 21
0.0
 31
0.0
 44
0.9
  1
PLACA CONTROL V5 RACK\P14/04/2023
 40
0.15625
 41
2.625
  0
MTEXT
  5
234
100
AcDbEntity
  8
0
100
AcDbMText
 62
2
  6
CONTINUOUS
  7
STANDARD
 71
3
 72
1
 10
1.9472929147
 20
7.7758487211
 30
0.0
 11
1.0
 21
0.0
 31
0.0
 44
0.9
  1
ESCALA 1.000
 40
0.15625
 41
1.5
  0
LINE
  5
235
100
AcDbEntity
  8
0
100
AcDbLine
 62
7
  6
CONTINUOUS
 10
0.0
 20
-0.0
 11
0.0
 21
8.2677165354
  0
LINE
  5
236
100
AcDbEntity
  8
0
100
AcDbLine
 62
7
  6
CONTINUOUS
 10
0.0
 20
-0.0
 11
11.6929133858
 21
-0.0
  0
LINE
  5
237
100
AcDbEntity
  8
0
100
AcDbLine
 62
7
  6
CONTINUOUS
 10
0.0
 20
8.2677165354
 11
11.6929133858
 21
8.2677165354
  0
LINE
  5
238
100
AcDbEntity
  8
0
100
AcDbLine
 62
7
  6
CONTINUOUS
 10
11.6929133858
 20
-0.0
 11
11.6929133858
 21
8.2677165354
  0
LINE
  5
239
100
AcDbEntity
  8
0
100
AcDbLine
 62
7
  6
CONTINUOUS
 10
1.0455213733
 20
6.3668745964
 11
1.0455213733
 21
3.1818352264
  0
LINE
  5
23A
100
AcDbEntity
  8
03___PRT_ALL_CURVES
100
AcDbLine
 62
4
  6
CONTINUOUS
 10
1.5140253103
 20
5.038134439
 11
1.5140253103
 21
4.5105753838
  0
LINE
  5
23B
100
AcDbEntity
  8
03___PRT_ALL_CURVES
100
AcDbLine
 62
4
  6
CONTINUOUS
 10
1.5140253103
 20
3.7782919193
 11
1.5140253103
 21
3.2507328642
  0
LINE
  5
23C
100
AcDbEntity
  8
03___PRT_ALL_CURVES
100
AcDbLine
 62
4
  6
CONTINUOUS
 10
1.5140253103
 20
3.880654124
 11
1.5140253103
 21
4.4082131791
  0
LINE
  5
23D
100
AcDbEntity
  8
03___PRT_ALL_CURVES
100
AcDbLine
 62
4
  6
CONTINUOUS
 10
1.5140253103
 20
5.1404966437
 11
1.5140253103
 21
5.6680556988
  0
LINE
  5
23E
100
AcDbEntity
  8
03___PRT_ALL_CURVES
100
AcDbLine
 62
4
  6
CONTINUOUS
 10
1.5140253103
 20
5.7704179035
 11
1.5140253103
 21
6.2979769586
  0
LINE
  5
23F
100
AcDbEntity
  8
03___PRT_ALL_CURVES
100
AcDbLine
 62
4
  6
CONTINUOUS
 10
2.0573323969
 20
6.2979769586
 11
2.0573323969
 21
5.7704179035
  0
LINE
  5
240
100
AcDbEntity
  8
03___PRT_ALL_CURVES
100
AcDbLine
 62
4
  6
CONTINUOUS
 10
2.0573323969
 20
5.6680556988
 11
2.0573323969
 21
5.1404966437
  0
LINE
  5
241
100
AcDbEntity
  8
03___PRT_ALL_CURVES
100
AcDbLine
 62
4
  6
CONTINUOUS
 10
2.0573323969
 20
4.4082131791
 11
2.0573323969
 21
3.880654124
  0
LINE
  5
242
100
AcDbEntity
  8
03___PRT_ALL_CURVES
100
AcDbLine
 62
4
  6
CONTINUOUS
 10
2.0573323969
 20
3.2507328642
 11
2.0573323969
 21
3.7782919193
  0
LINE
  5
243
100
AcDbEntity
  8
03___PRT_ALL_CURVES
100
AcDbLine
 62
4
  6
CONTINUOUS
 10
2.0573323969
 20
4.5105753838
 11
2.0573323969
 21
5.038134439
  0
LINE
  5
244
100
AcDbEntity
  8
03___PRT_ALL_CURVES
100
AcDbLine
 62
4
  6
CONTINUOUS
 10
2.1728179612
 20
5.6680556988
 11
2.1728179612
 21
5.1404966437
  0
LINE
  5
245
100
AcDbEntity
  8
03___PRT_ALL_CURVES
100
AcDbLine
 62
4
  6
CONTINUOUS
 10
2.1728179612
 20
3.2507328642
 11
2.1728179612
 21
3.7782919193
  0
LINE
  5
246
100
AcDbEntity
  8
03___PRT_ALL_CURVES
100
AcDbLine
 62
4
  6
CONTINUOUS
 10
2.1728179612
 20
3.880654124
 11
2.1728179612
 21
4.4082131791
  0
LINE
  5
247
100
AcDbEntity
  8
03___PRT_ALL_CURVES
100
AcDbLine
 62
4
  6
CONTINUOUS
 10
2.1728179612
 20
4.5105753838
 11
2.1728179612
 21
5.038134439
  0
LINE
  5
248
100
AcDbEntity
  8
03___PRT_ALL_CURVES
100
AcDbLine
 62
4
  6
CONTINUOUS
 10
2.1728179612
 20
5.7704179035
 11
2.1728179612
 21
6.2979769586
  0
LINE
  5
249
100
AcDbEntity
  8
03___PRT_ALL_CURVES
100
AcDbLine
 62
4
  6
CONTINUOUS
 10
2.7161250478
 20
6.2979769586
 11
2.7161250478
 21
5.7704179035
  0
LINE
  5
24A
100
AcDbEntity
  8
03___PRT_ALL_CURVES
100
AcDbLine
 62
4
  6
CONTINUOUS
 10
2.7161250478
 20
5.038134439
 11
2.7161250478
 21
4.5105753838
  0
LINE
  5
24B
100
AcDbEntity
  8
03___PRT_ALL_CURVES
100
AcDbLine
 62
4
  6
CONTINUOUS
 10
2.7161250478
 20
4.4082131791
 11
2.7161250478
 21
3.880654124
  0
LINE
  5
24C
100
AcDbEntity
  8
03___PRT_ALL_CURVES
100
AcDbLine
 62
4
  6
CONTINUOUS
 10
2.7161250478
 20
3.7782919193
 11
2.7161250478
 21
3.2507328642
  0
LINE
  5
24D
100
AcDbEntity
  8
03___PRT_ALL_CURVES
100
AcDbLine
 62
4
  6
CONTINUOUS
 10
2.7161250478
 20
5.1404966437
 11
2.7161250478
 21
5.6680556988
  0
LINE
  5
24E
100
AcDbEntity
  8
03___PRT_ALL_CURVES
100
AcDbLine
 62
4
  6
CONTINUOUS
 10
2.8316106121
 20
6.2979769586
 11
2.8316106121
 21
5.7704179035
  0
LINE
  5
24F
100
AcDbEntity
  8
03___PRT_ALL_CURVES
100
AcDbLine
 62
4
  6
CONTINUOUS
 10
2.8316106121
 20
5.6680556988
 11
2.8316106121
 21
5.1404966437
  0
LINE
  5
250
100
AcDbEntity
  8
03___PRT_ALL_CURVES
100
AcDbLine
 62
4
  6
CONTINUOUS
 10
2.8316106121
 20
3.2507328642
 11
2.8316106121
 21
3.7782919193
  0
LINE
  5
251
100
AcDbEntity
  8
03___PRT_ALL_CURVES
100
AcDbLine
 62
4
  6
CONTINUOUS
 10
2.8316106121
 20
3.880654124
 11
2.8316106121
 21
4.4082131791
  0
LINE
  5
252
100
AcDbEntity
  8
03___PRT_ALL_CURVES
100
AcDbLine
 62
4
  6
CONTINUOUS
 10
2.8316106121
 20
4.5105753838
 11
2.8316106121
 21
5.038134439
  0
LINE
  5
253
100
AcDbEntity
  8
03___PRT_ALL_CURVES
100
AcDbLine
 62
4
  6
CONTINUOUS
 10
3.3749176987
 20
5.038134439
 11
3.3749176987
 21
4.5105753838
  0
LINE
  5
254
100
AcDbEntity
  8
03___PRT_ALL_CURVES
100
AcDbLine
 62
4
  6
CONTINUOUS
 10
3.3749176987
 20
4.4082131791
 11
3.3749176987
 21
3.880654124
  0
LINE
  5
255
100
AcDbEntity
  8
03___PRT_ALL_CURVES
100
AcDbLine
 62
4
  6
CONTINUOUS
 10
3.3749176987
 20
3.7782919193
 11
3.3749176987
 21
3.2507328642
  0
LINE
  5
256
100
AcDbEntity
  8
03___PRT_ALL_CURVES
100
AcDbLine
 62
4
  6
CONTINUOUS
 10
3.3749176987
 20
5.1404966437
 11
3.3749176987
 21
5.6680556988
  0
LINE
  5
257
100
AcDbEntity
  8
03___PRT_ALL_CURVES
100
AcDbLine
 62
4
  6
CONTINUOUS
 10
3.3749176987
 20
5.7704179035
 11
3.3749176987
 21
6.2979769586
  0
LINE
  5
258
100
AcDbEntity
  8
03___PRT_ALL_CURVES
100
AcDbLine
 62
4
  6
CONTINUOUS
 10
3.4904032631
 20
6.2979769586
 11
3.4904032631
 21
5.7704179035
  0
LINE
  5
259
100
AcDbEntity
  8
03___PRT_ALL_CURVES
100
AcDbLine
 62
4
  6
CONTINUOUS
 10
3.4904032631
 20
5.6680556988
 11
3.4904032631
 21
5.1404966437
  0
LINE
  5
25A
100
AcDbEntity
  8
03___PRT_ALL_CURVES
100
AcDbLine
 62
4
  6
CONTINUOUS
 10
3.4904032631
 20
3.2507328642
 11
3.4904032631
 21
3.7782919193
  0
LINE
  5
25B
100
AcDbEntity
  8
03___PRT_ALL_CURVES
100
AcDbLine
 62
4
  6
CONTINUOUS
 10
3.4904032631
 20
3.880654124
 11
3.4904032631
 21
4.4082131791
  0
LINE
  5
25C
100
AcDbEntity
  8
03___PRT_ALL_CURVES
100
AcDbLine
 62
4
  6
CONTINUOUS
 10
3.4904032631
 20
4.5105753838
 11
3.4904032631
 21
5.038134439
  0
LINE
  5
25D
100
AcDbEntity
  8
03___PRT_ALL_CURVES
100
AcDbLine
 62
4
  6
CONTINUOUS
 10
4.0337103497
 20
5.038134439
 11
4.0337103497
 21
4.5105753838
  0
LINE
  5
25E
100
AcDbEntity
  8
03___PRT_ALL_CURVES
100
AcDbLine
 62
4
  6
CONTINUOUS
 10
4.0337103497
 20
4.4082131791
 11
4.0337103497
 21
3.880654124
  0
LINE
  5
25F
100
AcDbEntity
  8
03___PRT_ALL_CURVES
100
AcDbLine
 62
4
  6
CONTINUOUS
 10
4.0337103497
 20
3.7782919193
 11
4.0337103497
 21
3.2507328642
  0
LINE
  5
260
100
AcDbEntity
  8
03___PRT_ALL_CURVES
100
AcDbLine
 62
4
  6
CONTINUOUS
 10
4.0337103497
 20
5.1404966437
 11
4.0337103497
 21
5.6680556988
  0
LINE
  5
261
100
AcDbEntity
  8
03___PRT_ALL_CURVES
100
AcDbLine
 62
4
  6
CONTINUOUS
 10
4.0337103497
 20
5.7704179035
 11
4.0337103497
 21
6.2979769586
  0
LINE
  5
262
100
AcDbEntity
  8
0
100
AcDbLine
 62
7
  6
CONTINUOUS
 10
1.1242615308
 20
3.1030950689
 11
8.1281985386
 21
3.1030950689
  0
LINE
  5
263
100
AcDbEntity
  8
0
100
AcDbLine
 62
7
  6
CONTINUOUS
 10
9.6959150741
 20
3.1030950689
 11
10.6360725544
 21
3.1030950689
  0
LINE
  5
264
100
AcDbEntity
  8
03___PRT_ALL_CURVES
100
AcDbLine
 62
4
  6
CONTINUOUS
 10
6.6359072001
 20
3.1188431004
 11
6.0256709796
 21
3.1188431004
  0
LINE
  5
265
100
AcDbEntity
  8
0
100
AcDbLine
 62
7
  6
CONTINUOUS
 10
8.2069386961
 20
3.2015202657
 11
9.6171749166
 21
3.2015202657
  0
LINE
  5
266
100
AcDbEntity
  8
03___PRT_ALL_CURVES
100
AcDbLine
 62
4
  6
CONTINUOUS
 10
4.0337103497
 20
3.2507328642
 11
3.4904032631
 21
3.2507328642
  0
LINE
  5
267
100
AcDbEntity
  8
03___PRT_ALL_CURVES
100
AcDbLine
 62
4
  6
CONTINUOUS
 10
3.3749176987
 20
3.2507328642
 11
2.8316106121
 21
3.2507328642
  0
LINE
  5
268
100
AcDbEntity
  8
03___PRT_ALL_CURVES
100
AcDbLine
 62
4
  6
CONTINUOUS
 10
2.7161250478
 20
3.2507328642
 11
2.1728179612
 21
3.2507328642
  0
LINE
  5
269
100
AcDbEntity
  8
03___PRT_ALL_CURVES
100
AcDbLine
 62
4
  6
CONTINUOUS
 10
1.5140253103
 20
3.2507328642
 11
2.0573323969
 21
3.2507328642
  0
LINE
  5
26A
100
AcDbEntity
  8
03___PRT_ALL_CURVES
100
AcDbLine
 62
4
  6
CONTINUOUS
 10
6.0256709796
 20
3.2841974311
 11
6.6359072001
 21
3.2841974311
  0
LINE
  5
26B
100
AcDbEntity
  8
03___PRT_ALL_CURVES
100
AcDbLine
 62
4
  6
CONTINUOUS
 10
2.0573323969
 20
3.7782919193
 11
1.5140253103
 21
3.7782919193
  0
LINE
  5
26C
100
AcDbEntity
  8
03___PRT_ALL_CURVES
100
AcDbLine
 62
4
  6
CONTINUOUS
 10
2.1728179612
 20
3.7782919193
 11
2.7161250478
 21
3.7782919193
  0
LINE
  5
26D
100
AcDbEntity
  8
03___PRT_ALL_CURVES
100
AcDbLine
 62
4
  6
CONTINUOUS
 10
2.8316106121
 20
3.7782919193
 11
3.3749176987
 21
3.7782919193
  0
LINE
  5
26E
100
AcDbEntity
  8
03___PRT_ALL_CURVES
100
AcDbLine
 62
4
  6
CONTINUOUS
 10
3.4904032631
 20
3.7782919193
 11
4.0337103497
 21
3.7782919193
  0
LINE
  5
26F
100
AcDbEntity
  8
03___PRT_ALL_CURVES
100
AcDbLine
 62
4
  6
CONTINUOUS
 10
4.0337103497
 20
3.880654124
 11
3.4904032631
 21
3.880654124
  0
LINE
  5
270
100
AcDbEntity
  8
03___PRT_ALL_CURVES
100
AcDbLine
 62
4
  6
CONTINUOUS
 10
3.3749176987
 20
3.880654124
 11
2.8316106121
 21
3.880654124
  0
LINE
  5
271
100
AcDbEntity
  8
03___PRT_ALL_CURVES
100
AcDbLine
 62
4
  6
CONTINUOUS
 10
2.7161250478
 20
3.880654124
 11
2.1728179612
 21
3.880654124
  0
LINE
  5
272
100
AcDbEntity
  8
03___PRT_ALL_CURVES
100
AcDbLine
 62
4
  6
CONTINUOUS
 10
2.0573323969
 20
3.880654124
 11
1.5140253103
 21
3.880654124
  0
LINE
  5
273
100
AcDbEntity
  8
0
100
AcDbLine
 62
7
  6
CONTINUOUS
 10
9.6400095623
 20
3.8885281397
 11
9.0100883024
 21
3.8885281397
  0
LINE
  5
274
100
AcDbEntity
  8
03___PRT_ALL_CURVES
100
AcDbLine
 62
4
  6
CONTINUOUS
 10
1.5140253103
 20
4.4082131791
 11
2.0573323969
 21
4.4082131791
  0
LINE
  5
275
100
AcDbEntity
  8
03___PRT_ALL_CURVES
100
AcDbLine
 62
4
  6
CONTINUOUS
 10
2.1728179612
 20
4.4082131791
 11
2.7161250478
 21
4.4082131791
  0
LINE
  5
276
100
AcDbEntity
  8
03___PRT_ALL_CURVES
100
AcDbLine
 62
4
  6
CONTINUOUS
 10
2.8316106121
 20
4.4082131791
 11
3.3749176987
 21
4.4082131791
  0
LINE
  5
277
100
AcDbEntity
  8
03___PRT_ALL_CURVES
100
AcDbLine
 62
4
  6
CONTINUOUS
 10
3.4904032631
 20
4.4082131791
 11
4.0337103497
 21
4.4082131791
  0
LINE
  5
278
100
AcDbEntity
  8
DEFAULT_2
100
AcDbLine
 62
8
  6
HIDDEN
 10
10.710875704
 20
4.4318352264
 11
10.4392221607
 21
4.4318352264
  0
LINE
  5
279
100
AcDbEntity
  8
DEFAULT_2
100
AcDbLine
 62
8
  6
HIDDEN
 10
10.679379641
 20
4.4633312893
 11
10.4707182237
 21
4.4633312893
  0
LINE
  5
27A
100
AcDbEntity
  8
03___PRT_ALL_CURVES
100
AcDbLine
 62
4
  6
CONTINUOUS
 10
4.0337103497
 20
4.5105753838
 11
3.4904032631
 21
4.5105753838
  0
LINE
  5
27B
100
AcDbEntity
  8
03___PRT_ALL_CURVES
100
AcDbLine
 62
4
  6
CONTINUOUS
 10
3.3749176987
 20
4.5105753838
 11
2.8316106121
 21
4.5105753838
  0
LINE
  5
27C
100
AcDbEntity
  8
03___PRT_ALL_CURVES
100
AcDbLine
 62
4
  6
CONTINUOUS
 10
2.7161250478
 20
4.5105753838
 11
2.1728179612
 21
4.5105753838
  0
LINE
  5
27D
100
AcDbEntity
  8
03___PRT_ALL_CURVES
100
AcDbLine
 62
4
  6
CONTINUOUS
 10
1.5140253103
 20
4.5105753838
 11
2.0573323969
 21
4.5105753838
  0
LINE
  5
27E
100
AcDbEntity
  8
03___PRT_ALL_CURVES
100
AcDbLine
 62
4
  6
CONTINUOUS
 10
6.0256709796
 20
3.1188431004
 11
6.0256709796
 21
3.2841974311
  0
LINE
  5
27F
100
AcDbEntity
  8
03___PRT_ALL_CURVES
100
AcDbLine
 62
4
  6
CONTINUOUS
 10
2.0573323969
 20
5.038134439
 11
1.5140253103
 21
5.038134439
  0
LINE
  5
280
100
AcDbEntity
  8
03___PRT_ALL_CURVES
100
AcDbLine
 62
4
  6
CONTINUOUS
 10
2.1728179612
 20
5.038134439
 11
2.7161250478
 21
5.038134439
  0
LINE
  5
281
100
AcDbEntity
  8
03___PRT_ALL_CURVES
100
AcDbLine
 62
4
  6
CONTINUOUS
 10
2.8316106121
 20
5.038134439
 11
3.3749176987
 21
5.038134439
  0
LINE
  5
282
100
AcDbEntity
  8
03___PRT_ALL_CURVES
100
AcDbLine
 62
4
  6
CONTINUOUS
 10
3.4904032631
 20
5.038134439
 11
4.0337103497
 21
5.038134439
  0
LINE
  5
283
100
AcDbEntity
  8
DEFAULT_2
100
AcDbLine
 62
8
  6
HIDDEN
 10
10.4707182237
 20
5.0853785334
 11
10.679379641
 21
5.0853785334
  0
LINE
  5
284
100
AcDbEntity
  8
DEFAULT_2
100
AcDbLine
 62
8
  6
HIDDEN
 10
10.710875704
 20
5.1168745964
 11
10.4392221607
 21
5.1168745964
  0
LINE
  5
285
100
AcDbEntity
  8
03___PRT_ALL_CURVES
100
AcDbLine
 62
4
  6
CONTINUOUS
 10
2.0573323969
 20
5.1404966437
 11
1.5140253103
 21
5.1404966437
  0
LINE
  5
286
100
AcDbEntity
  8
03___PRT_ALL_CURVES
100
AcDbLine
 62
4
  6
CONTINUOUS
 10
2.1728179612
 20
5.1404966437
 11
2.7161250478
 21
5.1404966437
  0
LINE
  5
287
100
AcDbEntity
  8
03___PRT_ALL_CURVES
100
AcDbLine
 62
4
  6
CONTINUOUS
 10
2.8316106121
 20
5.1404966437
 11
3.3749176987
 21
5.1404966437
  0
LINE
  5
288
100
AcDbEntity
  8
03___PRT_ALL_CURVES
100
AcDbLine
 62
4
  6
CONTINUOUS
 10
3.4904032631
 20
5.1404966437
 11
4.0337103497
 21
5.1404966437
  0
LINE
  5
289
100
AcDbEntity
  8
03___PRT_ALL_CURVES
100
AcDbLine
 62
4
  6
CONTINUOUS
 10
6.6359072001
 20
3.2841974311
 11
6.6359072001
 21
3.1188431004
  0
LINE
  5
28A
100
AcDbEntity
  8
0
100
AcDbLine
 62
7
  6
CONTINUOUS
 10
9.0100883024
 20
5.660181683
 11
9.6400095623
 21
5.660181683
  0
LINE
  5
28B
100
AcDbEntity
  8
03___PRT_ALL_CURVES
100
AcDbLine
 62
4
  6
CONTINUOUS
 10
4.0337103497
 20
5.6680556988
 11
3.4904032631
 21
5.6680556988
  0
LINE
  5
28C
100
AcDbEntity
  8
03___PRT_ALL_CURVES
100
AcDbLine
 62
4
  6
CONTINUOUS
 10
3.3749176987
 20
5.6680556988
 11
2.8316106121
 21
5.6680556988
  0
LINE
  5
28D
100
AcDbEntity
  8
03___PRT_ALL_CURVES
100
AcDbLine
 62
4
  6
CONTINUOUS
 10
2.7161250478
 20
5.6680556988
 11
2.1728179612
 21
5.6680556988
  0
LINE
  5
28E
100
AcDbEntity
  8
03___PRT_ALL_CURVES
100
AcDbLine
 62
4
  6
CONTINUOUS
 10
1.5140253103
 20
5.6680556988
 11
2.0573323969
 21
5.6680556988
  0
LINE
  5
28F
100
AcDbEntity
  8
03___PRT_ALL_CURVES
100
AcDbLine
 62
4
  6
CONTINUOUS
 10
2.7161250478
 20
5.7704179035
 11
2.1728179612
 21
5.7704179035
  0
LINE
  5
290
100
AcDbEntity
  8
03___PRT_ALL_CURVES
100
AcDbLine
 62
4
  6
CONTINUOUS
 10
2.0573323969
 20
5.7704179035
 11
1.5140253103
 21
5.7704179035
  0
LINE
  5
291
100
AcDbEntity
  8
03___PRT_ALL_CURVES
100
AcDbLine
 62
4
  6
CONTINUOUS
 10
2.8316106121
 20
5.7704179035
 11
3.3749176987
 21
5.7704179035
  0
LINE
  5
292
100
AcDbEntity
  8
03___PRT_ALL_CURVES
100
AcDbLine
 62
4
  6
CONTINUOUS
 10
3.4904032631
 20
5.7704179035
 11
4.0337103497
 21
5.7704179035
  0
LINE
  5
293
100
AcDbEntity
  8
03___PRT_ALL_CURVES
100
AcDbLine
 62
4
  6
CONTINUOUS
 10
4.0337103497
 20
6.2979769586
 11
3.4904032631
 21
6.2979769586
  0
LINE
  5
294
100
AcDbEntity
  8
03___PRT_ALL_CURVES
100
AcDbLine
 62
4
  6
CONTINUOUS
 10
3.3749176987
 20
6.2979769586
 11
2.8316106121
 21
6.2979769586
  0
LINE
  5
295
100
AcDbEntity
  8
03___PRT_ALL_CURVES
100
AcDbLine
 62
4
  6
CONTINUOUS
 10
1.5140253103
 20
6.2979769586
 11
2.0573323969
 21
6.2979769586
  0
LINE
  5
296
100
AcDbEntity
  8
03___PRT_ALL_CURVES
100
AcDbLine
 62
4
  6
CONTINUOUS
 10
2.1728179612
 20
6.2979769586
 11
2.7161250478
 21
6.2979769586
  0
LINE
  5
297
100
AcDbEntity
  8
0
100
AcDbLine
 62
7
  6
CONTINUOUS
 10
10.6360725544
 20
6.4456147539
 11
1.1242615308
 21
6.4456147539
  0
LINE
  5
298
100
AcDbEntity
  8
0
100
AcDbLine
 62
7
  6
CONTINUOUS
 10
8.1675686174
 20
3.1424651476
 11
8.1675686174
 21
3.162150187
  0
LINE
  5
299
100
AcDbEntity
  8
0
100
AcDbLine
 62
7
  6
CONTINUOUS
 10
8.9313481449
 20
3.9672682972
 11
8.9313481449
 21
5.5814415256
  0
LINE
  5
29A
100
AcDbEntity
  8
0
100
AcDbLine
 62
7
  6
CONTINUOUS
 10
9.6565449953
 20
3.1424651476
 11
9.6565449953
 21
3.162150187
  0
LINE
  5
29B
100
AcDbEntity
  8
0
100
AcDbLine
 62
7
  6
CONTINUOUS
 10
9.7187497197
 20
5.5814415256
 11
9.7187497197
 21
3.9672682972
  0
LINE
  5
29C
100
AcDbEntity
  8
DEFAULT_2
100
AcDbLine
 62
8
  6
HIDDEN
 10
10.4392221607
 20
4.4318352264
 11
10.4392221607
 21
5.1168745964
  0
LINE
  5
29D
100
AcDbEntity
  8
DEFAULT_2
100
AcDbLine
 62
8
  6
HIDDEN
 10
10.4707182237
 20
4.4633312893
 11
10.4707182237
 21
5.0853785334
  0
LINE
  5
29E
100
AcDbEntity
  8
DEFAULT_2
100
AcDbLine
 62
8
  6
HIDDEN
 10
10.679379641
 20
5.0853785334
 11
10.679379641
 21
4.4633312893
  0
LINE
  5
29F
100
AcDbEntity
  8
DEFAULT_2
100
AcDbLine
 62
8
  6
HIDDEN
 10
10.710875704
 20
4.4318352264
 11
10.710875704
 21
5.1168745964
  0
LINE
  5
2A0
100
AcDbEntity
  8
0
100
AcDbLine
 62
7
  6
CONTINUOUS
 10
10.7148127119
 20
3.1818352264
 11
10.7148127119
 21
6.3668745964
  0
ARC
  5
2A1
100
AcDbEntity
  8
0
100
AcDbCircle
 62
7
  6
CONTINUOUS
 10
1.1242615308
 20
3.1818352264
 40
0.0787401575
100
AcDbArc
 50
180.0
 51
270.0
  0
CIRCLE
  5
2A2
100
AcDbEntity
  8
02___PRT_ALL_AXES
100
AcDbCircle
 62
7
  6
CONTINUOUS
 10
1.2030016882
 20
3.2999454626
 40
0.0688976378
  0
CIRCLE
  5
2A3
100
AcDbEntity
  8
02___PRT_ALL_AXES
100
AcDbCircle
 62
7
  6
CONTINUOUS
 10
4.3919780662
 20
3.2999454626
 40
0.0688976378
  0
CIRCLE
  5
2A4
100
AcDbEntity
  8
02___PRT_ALL_AXES
100
AcDbCircle
 62
7
  6
CONTINUOUS
 10
4.866387515
 20
3.4456147539
 40
0.0688976378
  0
CIRCLE
  5
2A5
100
AcDbEntity
  8
02___PRT_ALL_AXES
100
AcDbCircle
 62
7
  6
CONTINUOUS
 10
1.4676859863
 20
3.1999758553
 40
0.0433070866
  0
CIRCLE
  5
2A6
100
AcDbEntity
  8
02___PRT_ALL_AXES
100
AcDbCircle
 62
7
  6
CONTINUOUS
 10
4.0800496736
 20
3.1999758553
 40
0.0433070866
  0
CIRCLE
  5
2A7
100
AcDbEntity
  8
02___PRT_ALL_AXES
100
AcDbCircle
 62
7
  6
CONTINUOUS
 10
3.4326604809
 20
4.4593942815
 40
0.0433070866
  0
CIRCLE
  5
2A8
100
AcDbEntity
  8
02___PRT_ALL_AXES
100
AcDbCircle
 62
7
  6
CONTINUOUS
 10
2.1150751791
 20
4.4593942815
 40
0.0433070866
  0
ARC
  5
2A9
100
AcDbEntity
  8
0
100
AcDbCircle
 62
7
  6
CONTINUOUS
 10
1.1242615308
 20
6.3668745964
 40
0.0787401575
100
AcDbArc
 50
90.0
 51
180.0
  0
CIRCLE
  5
2AA
100
AcDbEntity
  8
02___PRT_ALL_AXES
100
AcDbCircle
 62
7
  6
CONTINUOUS
 10
1.2030016882
 20
6.2487643602
 40
0.0688976378
  0
CIRCLE
  5
2AB
100
AcDbEntity
  8
02___PRT_ALL_AXES
100
AcDbCircle
 62
7
  6
CONTINUOUS
 10
4.3919780662
 20
6.2487643602
 40
0.0688976378
  0
CIRCLE
  5
2AC
100
AcDbEntity
  8
02___PRT_ALL_AXES
100
AcDbCircle
 62
7
  6
CONTINUOUS
 10
4.866387515
 20
6.1030950689
 40
0.0688976378
  0
CIRCLE
  5
2AD
100
AcDbEntity
  8
02___PRT_ALL_AXES
100
AcDbCircle
 62
7
  6
CONTINUOUS
 10
2.1150751791
 20
5.0893155413
 40
0.0433070866
  0
CIRCLE
  5
2AE
100
AcDbEntity
  8
02___PRT_ALL_AXES
100
AcDbCircle
 62
7
  6
CONTINUOUS
 10
3.4326604809
 20
5.0893155413
 40
0.0433070866
  0
CIRCLE
  5
2AF
100
AcDbEntity
  8
02___PRT_ALL_AXES
100
AcDbCircle
 62
7
  6
CONTINUOUS
 10
4.0800496736
 20
6.3487339675
 40
0.0433070866
  0
CIRCLE
  5
2B0
100
AcDbEntity
  8
02___PRT_ALL_AXES
100
AcDbCircle
 62
7
  6
CONTINUOUS
 10
1.4676859863
 20
6.3487339675
 40
0.0433070866
  0
CIRCLE
  5
2B1
100
AcDbEntity
  8
03___PRT_ALL_CURVES
100
AcDbCircle
 62
4
  6
CONTINUOUS
 10
10.0986709796
 20
4.3544074048
 40
0.2460629921
  0
CIRCLE
  5
2B2
100
AcDbEntity
  8
03___PRT_ALL_CURVES
100
AcDbCircle
 62
4
  6
CONTINUOUS
 10
10.0986709796
 20
3.5145123917
 40
0.2460629921
  0
ARC
  5
2B3
100
AcDbEntity
  8
0
100
AcDbCircle
 62
7
  6
CONTINUOUS
 10
10.6360725544
 20
3.1818352264
 40
0.0787401575
100
AcDbArc
 50
270.0
 51
360.0
  0
ARC
  5
2B4
100
AcDbEntity
  8
0
100
AcDbCircle
 62
7
  6
CONTINUOUS
 10
9.6400095623
 20
3.9672682972
 40
0.0787401575
100
AcDbArc
 50
270.0
 51
360.0
  0
ARC
  5
2B5
100
AcDbEntity
  8
0
100
AcDbCircle
 62
7
  6
CONTINUOUS
 10
9.0100883024
 20
3.9672682972
 40
0.0787401575
100
AcDbArc
 50
180.0
 51
270.0
  0
CIRCLE
  5
2B6
100
AcDbEntity
  8
02___PRT_ALL_AXES
100
AcDbCircle
 62
7
  6
CONTINUOUS
 10
10.5179623182
 20
3.2999454626
 40
0.0688976378
  0
CIRCLE
  5
2B7
100
AcDbEntity
  8
02___PRT_ALL_AXES
100
AcDbCircle
 62
7
  6
CONTINUOUS
 10
8.2325292473
 20
3.8373470374
 40
0.0688976378
  0
CIRCLE
  5
2B8
100
AcDbEntity
  8
02___PRT_ALL_AXES
100
AcDbCircle
 62
7
  6
CONTINUOUS
 10
9.3152064127
 20
3.4456147539
 40
0.0688976378
  0
CIRCLE
  5
2B9
100
AcDbEntity
  8
02___PRT_ALL_AXES
100
AcDbCircle
 62
7
  6
CONTINUOUS
 10
5.9490646804
 20
3.8373470374
 40
0.0688976378
  0
ARC
  5
2BA
100
AcDbEntity
  8
0
100
AcDbCircle
 62
7
  6
CONTINUOUS
 10
9.6959150741
 20
3.1424651476
 40
0.0393700787
100
AcDbArc
 50
180.0
 51
270.0
  0
ARC
  5
2BB
100
AcDbEntity
  8
0
100
AcDbCircle
 62
7
  6
CONTINUOUS
 10
8.1281985386
 20
3.1424651476
 40
0.0393700787
100
AcDbArc
 50
270.0
 51
360.0
  0
ARC
  5
2BC
100
AcDbEntity
  8
0
100
AcDbCircle
 62
7
  6
CONTINUOUS
 10
8.2069386961
 20
3.162150187
 40
0.0393700787
100
AcDbArc
 50
90.0
 51
180.0
  0
ARC
  5
2BD
100
AcDbEntity
  8
0
100
AcDbCircle
 62
7
  6
CONTINUOUS
 10
9.6171749166
 20
3.162150187
 40
0.0393700787
100
AcDbArc
 50
0.0
 51
90.0
  0
CIRCLE
  5
2BE
100
AcDbEntity
  8
03___PRT_ALL_CURVES
100
AcDbCircle
 62
4
  6
CONTINUOUS
 10
10.0986709796
 20
5.194302418
 40
0.2460629921
  0
CIRCLE
  5
2BF
100
AcDbEntity
  8
03___PRT_ALL_CURVES
100
AcDbCircle
 62
4
  6
CONTINUOUS
 10
10.0986709796
 20
6.0341974311
 40
0.2460629921
  0
ARC
  5
2C0
100
AcDbEntity
  8
0
100
AcDbCircle
 62
7
  6
CONTINUOUS
 10
10.6360725544
 20
6.3668745964
 40
0.0787401575
100
AcDbArc
 50
0.0
 51
90.0
  0
ARC
  5
2C1
100
AcDbEntity
  8
0
100
AcDbCircle
 62
7
  6
CONTINUOUS
 10
9.0100883024
 20
5.5814415256
 40
0.0787401575
100
AcDbArc
 50
90.0
 51
180.0
  0
ARC
  5
2C2
100
AcDbEntity
  8
0
100
AcDbCircle
 62
7
  6
CONTINUOUS
 10
9.6400095623
 20
5.5814415256
 40
0.0787401575
100
AcDbArc
 50
0.0
 51
90.0
  0
CIRCLE
  5
2C3
100
AcDbEntity
  8
02___PRT_ALL_AXES
100
AcDbCircle
 62
7
  6
CONTINUOUS
 10
10.5179623182
 20
6.2487643602
 40
0.0688976378
  0
CIRCLE
  5
2C4
100
AcDbEntity
  8
02___PRT_ALL_AXES
100
AcDbCircle
 62
7
  6
CONTINUOUS
 10
9.3152064127
 20
6.1030950689
 40
0.0688976378
  0
CIRCLE
  5
2C5
100
AcDbEntity
  8
02___PRT_ALL_AXES
100
AcDbCircle
 62
7
  6
CONTINUOUS
 10
8.2325292473
 20
5.7625438878
 40
0.0688976378
  0
CIRCLE
  5
2C6
100
AcDbEntity
  8
02___PRT_ALL_AXES
100
AcDbCircle
 62
7
  6
CONTINUOUS
 10
5.9490646804
 20
5.7625438878
 40
0.0688976378
  0
ENDSEC
  0
SECTION
  2
OBJECTS
  0
DICTIONARY
  5
C
100
AcDbDictionary
280
0
281
1
  3
ACAD_GROUP
350
D
  3
ACAD_MLINESTYLE
350
17
  3
ACAD_LAYOUT
350
1A
  3
ACAD_PLOTSETTINGS
350
19
  3
ACAD_PLOTSTYLENAME
350
E
  0
DICTIONARY
  5
D
102
{ACAD_REACTORS
330
C
102
}
100
AcDbDictionary
280
0
281
1
  0
ACDBDICTIONARYWDFLT
  5
E
102
{ACAD_REACTORS
330
C
102
}
100
AcDbDictionary
281
1
  3
Normal
350
F
100
AcDbDictionaryWithDefault
340
F
  0
DICTIONARY
  5
17
102
{ACAD_REACTORS
330
C
102
}
100
AcDbDictionary
280
0
281
1
  3
Standard
350
18
  0
DICTIONARY
  5
19
102
{ACAD_REACTORS
330
C
102
}
100
AcDbDictionary
281
1
  0
DICTIONARY
  5
1A
102
{ACAD_REACTORS
330
C
102
}
100
AcDbDictionary
281
1
  3
Model
350
2C7
  3
Layout1
350
2C8
  0
ACDBPLACEHOLDER
  5
F
102
{ACAD_REACTORS
330
E
102
}
  0
MLINESTYLE
  5
18
102
{ACAD_REACTORS
330
17
102
}
100
AcDbMlineStyle
  2
STANDARD
 70
0
  3

 62
256
 51
90.0
 52
90.0
 71
2
 49
0.5
 62
256
  6
BYLAYER
 49
-0.5
 62
256
  6
BYLAYER
  0
LAYOUT
  5
2C7
102
{ACAD_REACTORS
330
1A
102
}
100
AcDbPlotSettings
  1

  2
none_device
  4
ISO_A4_(297.00_x_210.00_MM)
  6

 40
0.0
 41
0.0
 42
0.0
 43
0.0
 44
297.0
 45
210.0
 46
0.0
 47
0.0
 48
0.0
 49
0.0
140
0.0
141
0.0
142
1.0
143
1.0
 70
1024
 72
0
 73
0
 74
0
  7

 75
0
147
1.0
148
0.0
149
0.0
100
AcDbLayout
  1
Model
 70
0
 71
0
 10
0.0
 20
0.0
 11
11.6929133858
 21
8.2677165354
 12
0.0
 22
0.0
 32
0.0
 14
0.0
 24
0.0
 34
0.0
 15
0.0
 25
0.0
 35
0.0
146
0.0
 13
0.0
 23
0.0
 33
0.0
 16
1.0
 26
0.0
 36
0.0
 17
0.0
 27
1.0
 37
0.0
 76
0
330
212
345
0
346
0
  0
LAYOUT
  5
2C8
102
{ACAD_REACTORS
330
1A
102
}
100
AcDbPlotSettings
  1

  2
none_device
  4
ISO_A4_(297.00_x_210.00_MM)
  6

 40
0.0
 41
0.0
 42
0.0
 43
0.0
 44
297.0
 45
210.0
 46
0.0
 47
0.0
 48
0.0
 49
0.0
140
0.0
141
0.0
142
1.0
143
1.0
 70
0
 72
0
 73
0
 74
0
  7

 75
0
147
1.0
148
0.0
149
0.0
100
AcDbLayout
  1
Layout1
 70
0
 71
1
 10
0.0
 20
0.0
 11
11.6929133858
 21
8.2677165354
 12
0.0
 22
0.0
 32
0.0
 14
0.0
 24
0.0
 34
0.0
 15
0.0
 25
0.0
 35
0.0
146
0.0
 13
0.0
 23
0.0
 33
0.0
 16
1.0
 26
0.0
 36
0.0
 17
0.0
 27
1.0
 37
0.0
 76
0
330
213
345
0
346
0
  0
ENDSEC
  0
EOF
