; NON-PLATED HOLES START AT T1
; THROUGH (PLATED) HOLES START AT T100
M48
INCH
T1C0.106299
T100C0.040000
T101C0.042000
T102C0.030000
T103C0.035000
T104C0.038000
%
T1
X002199Y005352
X017735Y001013
T100
X005070Y005807
X003970Y005807
T101
X001734Y000852
X001734Y003832
T102
X006162Y005827
X018564Y005868
X018564Y004866
X007164Y005827
T103
X012246Y003044
X002989Y002953
X005989Y000953
X005989Y002953
X017246Y003044
X016246Y003044
X016246Y006044
X010246Y003044
X005989Y001953
X002989Y003953
X010246Y006044
X000690Y001827
X013246Y003044
X009246Y003044
X011246Y006044
X014246Y003044
X013246Y006044
X002989Y000953
X017246Y006044
X011246Y003044
X002989Y001953
X007206Y001003
X005989Y003953
X009246Y006044
X012246Y006044
X015246Y006044
X007206Y005003
X008060Y001680
X015246Y003044
X008060Y005680
X000690Y005827
X014246Y006044
T104
X014266Y000978
X013266Y000978
X012266Y000978
X019686Y003000
X010266Y000978
X009266Y000978
X015266Y000978
X016266Y000978
X011266Y000978
X019686Y004000
X019686Y002000
X019686Y005000
X019686Y006000
X019686Y001000
T00
M30
