G04 MADE WITH FRITZING*
G04 WWW.FRITZING.ORG*
G04 DOUBLE SIDED*
G04 HOLES PLATED*
G04 CONTOUR ON CENTER OF CONTOUR VECTOR*
%ASAXBY*%
%FSLAX23Y23*%
%MOIN*%
%OFA0B0*%
%SFA1.0B1.0*%
%ADD10C,0.075000*%
%ADD11C,0.078000*%
%ADD12C,0.074000*%
%ADD13C,0.070000*%
%ADD14C,0.082000*%
%ADD15R,0.075000X0.075000*%
%ADD16R,0.082000X0.082000*%
%ADD17C,0.024000*%
%ADD18R,0.001000X0.001000*%
%LNCOPPER0*%
G90*
G70*
G54D10*
X1599Y487D03*
X1856Y349D03*
X505Y222D03*
G54D11*
X927Y98D03*
X1027Y98D03*
X1127Y98D03*
X1227Y98D03*
X1327Y98D03*
X1427Y98D03*
X1527Y98D03*
X1627Y98D03*
X1969Y100D03*
X1969Y200D03*
X1969Y300D03*
X1969Y400D03*
X1969Y500D03*
X1969Y600D03*
G54D10*
X299Y395D03*
X599Y395D03*
X299Y295D03*
X599Y295D03*
X299Y195D03*
X599Y195D03*
X299Y95D03*
X599Y95D03*
X1725Y604D03*
X1625Y604D03*
X1525Y604D03*
X1425Y604D03*
X1325Y604D03*
X1225Y604D03*
X1125Y604D03*
X1025Y604D03*
X925Y604D03*
X925Y304D03*
X1025Y304D03*
X1125Y304D03*
X1225Y304D03*
X1325Y304D03*
X1425Y304D03*
X1525Y304D03*
X1625Y304D03*
X1725Y304D03*
G54D12*
X507Y581D03*
X397Y581D03*
G54D13*
X1856Y487D03*
X1856Y587D03*
X716Y583D03*
X616Y583D03*
G54D10*
X806Y168D03*
X806Y568D03*
X721Y100D03*
X721Y500D03*
G54D14*
X173Y383D03*
X173Y85D03*
G54D10*
X69Y583D03*
X69Y183D03*
G54D15*
X299Y395D03*
X1725Y604D03*
G54D16*
X173Y384D03*
G54D17*
X1572Y537D02*
X1777Y537D01*
D02*
X1777Y537D02*
X1834Y573D01*
D02*
X1541Y581D02*
X1572Y537D01*
D02*
X327Y303D02*
X299Y295D01*
D02*
X299Y295D02*
X200Y365D01*
D02*
X1706Y326D02*
X1639Y406D01*
D02*
X1639Y406D02*
X1263Y466D01*
D02*
X1263Y466D02*
X1232Y577D01*
D02*
X1741Y328D02*
X1841Y465D01*
D02*
X621Y277D02*
X684Y225D01*
X684Y225D02*
X713Y128D01*
D02*
X1939Y496D02*
X1884Y489D01*
X1884Y489D02*
X1882Y489D01*
D02*
X718Y557D02*
X719Y529D01*
D02*
X906Y626D02*
X900Y633D01*
X900Y633D02*
X732Y633D01*
X732Y633D02*
X724Y608D01*
D02*
X1396Y604D02*
X1353Y604D01*
D02*
X572Y105D02*
X493Y133D01*
D02*
X493Y133D02*
X523Y454D01*
D02*
X523Y454D02*
X708Y465D01*
X708Y465D02*
X711Y473D01*
D02*
X1948Y122D02*
X1851Y224D01*
D02*
X1851Y224D02*
X1730Y224D01*
D02*
X1730Y224D02*
X1692Y153D01*
X1692Y153D02*
X1692Y33D01*
X1692Y33D02*
X540Y33D01*
X540Y33D02*
X419Y85D01*
D02*
X419Y85D02*
X459Y503D01*
D02*
X459Y503D02*
X614Y514D01*
D02*
X614Y514D02*
X616Y557D01*
D02*
X1626Y128D02*
X1625Y276D01*
D02*
X1526Y128D02*
X1525Y276D01*
D02*
X1426Y128D02*
X1425Y276D01*
D02*
X1326Y128D02*
X1325Y276D01*
D02*
X1226Y128D02*
X1225Y276D01*
D02*
X1126Y128D02*
X1125Y276D01*
D02*
X1026Y128D02*
X1025Y276D01*
D02*
X926Y128D02*
X925Y276D01*
G36*
X1902Y589D02*
X1902Y581D01*
X1900Y581D01*
X1900Y573D01*
X1898Y573D01*
X1898Y567D01*
X1896Y567D01*
X1896Y563D01*
X1894Y563D01*
X1894Y561D01*
X1892Y561D01*
X1892Y557D01*
X1890Y557D01*
X1890Y555D01*
X1888Y555D01*
X1888Y553D01*
X1886Y553D01*
X1886Y551D01*
X1882Y551D01*
X1882Y549D01*
X1880Y549D01*
X1880Y547D01*
X1876Y547D01*
X1876Y527D01*
X1878Y527D01*
X1878Y525D01*
X1880Y525D01*
X1880Y523D01*
X1884Y523D01*
X1884Y521D01*
X1886Y521D01*
X1886Y519D01*
X1888Y519D01*
X1888Y517D01*
X1890Y517D01*
X1890Y515D01*
X1922Y515D01*
X1922Y517D01*
X1924Y517D01*
X1924Y521D01*
X1926Y521D01*
X1926Y525D01*
X1928Y525D01*
X1928Y529D01*
X1930Y529D01*
X1930Y531D01*
X1932Y531D01*
X1932Y533D01*
X1934Y533D01*
X1934Y535D01*
X1936Y535D01*
X1936Y537D01*
X1938Y537D01*
X1938Y539D01*
X1942Y539D01*
X1942Y559D01*
X1940Y559D01*
X1940Y561D01*
X1938Y561D01*
X1938Y563D01*
X1936Y563D01*
X1936Y565D01*
X1934Y565D01*
X1934Y567D01*
X1932Y567D01*
X1932Y569D01*
X1930Y569D01*
X1930Y571D01*
X1928Y571D01*
X1928Y575D01*
X1926Y575D01*
X1926Y577D01*
X1924Y577D01*
X1924Y583D01*
X1922Y583D01*
X1922Y589D01*
X1902Y589D01*
G37*
D02*
G36*
X1772Y653D02*
X1772Y631D01*
X1868Y631D01*
X1868Y629D01*
X1874Y629D01*
X1874Y627D01*
X1878Y627D01*
X1878Y625D01*
X1882Y625D01*
X1882Y623D01*
X1884Y623D01*
X1884Y621D01*
X1886Y621D01*
X1886Y619D01*
X1888Y619D01*
X1888Y617D01*
X1890Y617D01*
X1890Y615D01*
X1892Y615D01*
X1892Y613D01*
X1894Y613D01*
X1894Y609D01*
X1896Y609D01*
X1896Y605D01*
X1898Y605D01*
X1898Y601D01*
X1900Y601D01*
X1900Y593D01*
X1920Y593D01*
X1920Y611D01*
X1922Y611D01*
X1922Y617D01*
X1924Y617D01*
X1924Y621D01*
X1926Y621D01*
X1926Y625D01*
X1928Y625D01*
X1928Y629D01*
X1930Y629D01*
X1930Y631D01*
X1932Y631D01*
X1932Y633D01*
X1934Y633D01*
X1934Y653D01*
X1772Y653D01*
G37*
D02*
G36*
X1772Y631D02*
X1772Y557D01*
X1822Y557D01*
X1822Y559D01*
X1820Y559D01*
X1820Y561D01*
X1818Y561D01*
X1818Y565D01*
X1816Y565D01*
X1816Y569D01*
X1814Y569D01*
X1814Y575D01*
X1812Y575D01*
X1812Y597D01*
X1814Y597D01*
X1814Y603D01*
X1816Y603D01*
X1816Y607D01*
X1818Y607D01*
X1818Y611D01*
X1820Y611D01*
X1820Y613D01*
X1822Y613D01*
X1822Y617D01*
X1824Y617D01*
X1824Y619D01*
X1826Y619D01*
X1826Y621D01*
X1830Y621D01*
X1830Y623D01*
X1832Y623D01*
X1832Y625D01*
X1836Y625D01*
X1836Y627D01*
X1840Y627D01*
X1840Y629D01*
X1846Y629D01*
X1846Y631D01*
X1772Y631D01*
G37*
D02*
G36*
X1264Y579D02*
X1264Y577D01*
X1262Y577D01*
X1262Y575D01*
X1260Y575D01*
X1260Y557D01*
X1314Y557D01*
X1314Y559D01*
X1308Y559D01*
X1308Y561D01*
X1304Y561D01*
X1304Y563D01*
X1300Y563D01*
X1300Y565D01*
X1296Y565D01*
X1296Y567D01*
X1294Y567D01*
X1294Y569D01*
X1292Y569D01*
X1292Y571D01*
X1290Y571D01*
X1290Y573D01*
X1288Y573D01*
X1288Y575D01*
X1286Y575D01*
X1286Y579D01*
X1264Y579D01*
G37*
D02*
G36*
X1364Y579D02*
X1364Y577D01*
X1362Y577D01*
X1362Y575D01*
X1360Y575D01*
X1360Y571D01*
X1358Y571D01*
X1358Y569D01*
X1356Y569D01*
X1356Y567D01*
X1352Y567D01*
X1352Y565D01*
X1350Y565D01*
X1350Y563D01*
X1346Y563D01*
X1346Y561D01*
X1342Y561D01*
X1342Y559D01*
X1336Y559D01*
X1336Y557D01*
X1414Y557D01*
X1414Y559D01*
X1408Y559D01*
X1408Y561D01*
X1404Y561D01*
X1404Y563D01*
X1400Y563D01*
X1400Y565D01*
X1396Y565D01*
X1396Y567D01*
X1394Y567D01*
X1394Y569D01*
X1392Y569D01*
X1392Y571D01*
X1390Y571D01*
X1390Y573D01*
X1388Y573D01*
X1388Y575D01*
X1386Y575D01*
X1386Y579D01*
X1364Y579D01*
G37*
D02*
G36*
X1464Y579D02*
X1464Y577D01*
X1462Y577D01*
X1462Y575D01*
X1460Y575D01*
X1460Y571D01*
X1458Y571D01*
X1458Y569D01*
X1456Y569D01*
X1456Y567D01*
X1452Y567D01*
X1452Y565D01*
X1450Y565D01*
X1450Y563D01*
X1446Y563D01*
X1446Y561D01*
X1442Y561D01*
X1442Y559D01*
X1436Y559D01*
X1436Y557D01*
X1514Y557D01*
X1514Y559D01*
X1508Y559D01*
X1508Y561D01*
X1504Y561D01*
X1504Y563D01*
X1500Y563D01*
X1500Y565D01*
X1496Y565D01*
X1496Y567D01*
X1494Y567D01*
X1494Y569D01*
X1492Y569D01*
X1492Y571D01*
X1490Y571D01*
X1490Y573D01*
X1488Y573D01*
X1488Y575D01*
X1486Y575D01*
X1486Y579D01*
X1464Y579D01*
G37*
D02*
G36*
X1564Y579D02*
X1564Y577D01*
X1562Y577D01*
X1562Y575D01*
X1560Y575D01*
X1560Y571D01*
X1558Y571D01*
X1558Y569D01*
X1556Y569D01*
X1556Y567D01*
X1552Y567D01*
X1552Y565D01*
X1550Y565D01*
X1550Y563D01*
X1546Y563D01*
X1546Y561D01*
X1542Y561D01*
X1542Y559D01*
X1536Y559D01*
X1536Y557D01*
X1614Y557D01*
X1614Y559D01*
X1608Y559D01*
X1608Y561D01*
X1604Y561D01*
X1604Y563D01*
X1600Y563D01*
X1600Y565D01*
X1596Y565D01*
X1596Y567D01*
X1594Y567D01*
X1594Y569D01*
X1592Y569D01*
X1592Y571D01*
X1590Y571D01*
X1590Y573D01*
X1588Y573D01*
X1588Y575D01*
X1586Y575D01*
X1586Y579D01*
X1564Y579D01*
G37*
D02*
G36*
X1658Y571D02*
X1658Y569D01*
X1656Y569D01*
X1656Y567D01*
X1652Y567D01*
X1652Y565D01*
X1650Y565D01*
X1650Y563D01*
X1646Y563D01*
X1646Y561D01*
X1642Y561D01*
X1642Y559D01*
X1636Y559D01*
X1636Y557D01*
X1678Y557D01*
X1678Y571D01*
X1658Y571D01*
G37*
D02*
G36*
X1260Y557D02*
X1260Y555D01*
X1824Y555D01*
X1824Y557D01*
X1260Y557D01*
G37*
D02*
G36*
X1260Y557D02*
X1260Y555D01*
X1824Y555D01*
X1824Y557D01*
X1260Y557D01*
G37*
D02*
G36*
X1260Y557D02*
X1260Y555D01*
X1824Y555D01*
X1824Y557D01*
X1260Y557D01*
G37*
D02*
G36*
X1260Y557D02*
X1260Y555D01*
X1824Y555D01*
X1824Y557D01*
X1260Y557D01*
G37*
D02*
G36*
X1260Y557D02*
X1260Y555D01*
X1824Y555D01*
X1824Y557D01*
X1260Y557D01*
G37*
D02*
G36*
X1260Y557D02*
X1260Y555D01*
X1824Y555D01*
X1824Y557D01*
X1260Y557D01*
G37*
D02*
G36*
X1262Y555D02*
X1262Y547D01*
X1264Y547D01*
X1264Y541D01*
X1266Y541D01*
X1266Y533D01*
X1268Y533D01*
X1268Y525D01*
X1270Y525D01*
X1270Y519D01*
X1272Y519D01*
X1272Y511D01*
X1274Y511D01*
X1274Y503D01*
X1276Y503D01*
X1276Y497D01*
X1278Y497D01*
X1278Y489D01*
X1280Y489D01*
X1280Y485D01*
X1288Y485D01*
X1288Y483D01*
X1300Y483D01*
X1300Y481D01*
X1314Y481D01*
X1314Y479D01*
X1326Y479D01*
X1326Y477D01*
X1338Y477D01*
X1338Y475D01*
X1352Y475D01*
X1352Y473D01*
X1364Y473D01*
X1364Y471D01*
X1376Y471D01*
X1376Y469D01*
X1388Y469D01*
X1388Y467D01*
X1402Y467D01*
X1402Y465D01*
X1414Y465D01*
X1414Y463D01*
X1426Y463D01*
X1426Y461D01*
X1440Y461D01*
X1440Y459D01*
X1452Y459D01*
X1452Y457D01*
X1464Y457D01*
X1464Y455D01*
X1478Y455D01*
X1478Y453D01*
X1490Y453D01*
X1490Y451D01*
X1502Y451D01*
X1502Y449D01*
X1516Y449D01*
X1516Y447D01*
X1528Y447D01*
X1528Y445D01*
X1540Y445D01*
X1540Y443D01*
X1552Y443D01*
X1552Y441D01*
X1566Y441D01*
X1566Y439D01*
X1578Y439D01*
X1578Y437D01*
X1590Y437D01*
X1590Y435D01*
X1604Y435D01*
X1604Y433D01*
X1616Y433D01*
X1616Y431D01*
X1628Y431D01*
X1628Y429D01*
X1642Y429D01*
X1642Y427D01*
X1648Y427D01*
X1648Y425D01*
X1652Y425D01*
X1652Y423D01*
X1654Y423D01*
X1654Y421D01*
X1656Y421D01*
X1656Y419D01*
X1658Y419D01*
X1658Y417D01*
X1660Y417D01*
X1660Y415D01*
X1662Y415D01*
X1662Y411D01*
X1664Y411D01*
X1664Y409D01*
X1666Y409D01*
X1666Y407D01*
X1668Y407D01*
X1668Y405D01*
X1670Y405D01*
X1670Y403D01*
X1672Y403D01*
X1672Y399D01*
X1674Y399D01*
X1674Y397D01*
X1676Y397D01*
X1676Y395D01*
X1678Y395D01*
X1678Y393D01*
X1680Y393D01*
X1680Y391D01*
X1682Y391D01*
X1682Y387D01*
X1684Y387D01*
X1684Y385D01*
X1686Y385D01*
X1686Y383D01*
X1688Y383D01*
X1688Y381D01*
X1690Y381D01*
X1690Y379D01*
X1692Y379D01*
X1692Y375D01*
X1694Y375D01*
X1694Y373D01*
X1696Y373D01*
X1696Y371D01*
X1698Y371D01*
X1698Y369D01*
X1700Y369D01*
X1700Y367D01*
X1702Y367D01*
X1702Y365D01*
X1704Y365D01*
X1704Y361D01*
X1706Y361D01*
X1706Y359D01*
X1708Y359D01*
X1708Y357D01*
X1710Y357D01*
X1710Y355D01*
X1712Y355D01*
X1712Y353D01*
X1734Y353D01*
X1734Y355D01*
X1736Y355D01*
X1736Y359D01*
X1738Y359D01*
X1738Y361D01*
X1740Y361D01*
X1740Y365D01*
X1742Y365D01*
X1742Y367D01*
X1744Y367D01*
X1744Y369D01*
X1746Y369D01*
X1746Y373D01*
X1748Y373D01*
X1748Y375D01*
X1750Y375D01*
X1750Y379D01*
X1752Y379D01*
X1752Y381D01*
X1754Y381D01*
X1754Y383D01*
X1756Y383D01*
X1756Y387D01*
X1758Y387D01*
X1758Y389D01*
X1760Y389D01*
X1760Y391D01*
X1762Y391D01*
X1762Y395D01*
X1764Y395D01*
X1764Y397D01*
X1766Y397D01*
X1766Y401D01*
X1768Y401D01*
X1768Y403D01*
X1770Y403D01*
X1770Y405D01*
X1772Y405D01*
X1772Y409D01*
X1774Y409D01*
X1774Y411D01*
X1776Y411D01*
X1776Y415D01*
X1778Y415D01*
X1778Y417D01*
X1780Y417D01*
X1780Y419D01*
X1782Y419D01*
X1782Y423D01*
X1784Y423D01*
X1784Y425D01*
X1786Y425D01*
X1786Y427D01*
X1788Y427D01*
X1788Y431D01*
X1790Y431D01*
X1790Y433D01*
X1792Y433D01*
X1792Y437D01*
X1794Y437D01*
X1794Y439D01*
X1796Y439D01*
X1796Y441D01*
X1798Y441D01*
X1798Y445D01*
X1800Y445D01*
X1800Y447D01*
X1802Y447D01*
X1802Y449D01*
X1804Y449D01*
X1804Y453D01*
X1806Y453D01*
X1806Y455D01*
X1808Y455D01*
X1808Y459D01*
X1810Y459D01*
X1810Y461D01*
X1812Y461D01*
X1812Y497D01*
X1814Y497D01*
X1814Y503D01*
X1816Y503D01*
X1816Y507D01*
X1818Y507D01*
X1818Y511D01*
X1820Y511D01*
X1820Y513D01*
X1822Y513D01*
X1822Y517D01*
X1824Y517D01*
X1824Y519D01*
X1828Y519D01*
X1828Y521D01*
X1830Y521D01*
X1830Y523D01*
X1832Y523D01*
X1832Y525D01*
X1836Y525D01*
X1836Y527D01*
X1838Y527D01*
X1838Y547D01*
X1834Y547D01*
X1834Y549D01*
X1830Y549D01*
X1830Y551D01*
X1828Y551D01*
X1828Y553D01*
X1826Y553D01*
X1826Y555D01*
X1262Y555D01*
G37*
D02*
G36*
X1910Y471D02*
X1910Y469D01*
X1898Y469D01*
X1898Y467D01*
X1896Y467D01*
X1896Y463D01*
X1894Y463D01*
X1894Y461D01*
X1892Y461D01*
X1892Y457D01*
X1890Y457D01*
X1890Y455D01*
X1888Y455D01*
X1888Y453D01*
X1886Y453D01*
X1886Y451D01*
X1882Y451D01*
X1882Y449D01*
X1880Y449D01*
X1880Y447D01*
X1876Y447D01*
X1876Y445D01*
X1872Y445D01*
X1872Y443D01*
X1864Y443D01*
X1864Y441D01*
X1850Y441D01*
X1850Y439D01*
X1848Y439D01*
X1848Y435D01*
X1846Y435D01*
X1846Y433D01*
X1844Y433D01*
X1844Y431D01*
X1842Y431D01*
X1842Y427D01*
X1840Y427D01*
X1840Y425D01*
X1838Y425D01*
X1838Y421D01*
X1836Y421D01*
X1836Y419D01*
X1834Y419D01*
X1834Y417D01*
X1832Y417D01*
X1832Y413D01*
X1830Y413D01*
X1830Y411D01*
X1828Y411D01*
X1828Y409D01*
X1826Y409D01*
X1826Y405D01*
X1824Y405D01*
X1824Y403D01*
X1822Y403D01*
X1822Y399D01*
X1820Y399D01*
X1820Y397D01*
X1818Y397D01*
X1818Y395D01*
X1816Y395D01*
X1816Y391D01*
X1814Y391D01*
X1814Y389D01*
X1812Y389D01*
X1812Y385D01*
X1810Y385D01*
X1810Y383D01*
X1808Y383D01*
X1808Y381D01*
X1806Y381D01*
X1806Y377D01*
X1804Y377D01*
X1804Y375D01*
X1802Y375D01*
X1802Y373D01*
X1800Y373D01*
X1800Y369D01*
X1798Y369D01*
X1798Y367D01*
X1796Y367D01*
X1796Y363D01*
X1794Y363D01*
X1794Y361D01*
X1792Y361D01*
X1792Y359D01*
X1790Y359D01*
X1790Y355D01*
X1788Y355D01*
X1788Y353D01*
X1786Y353D01*
X1786Y351D01*
X1784Y351D01*
X1784Y347D01*
X1782Y347D01*
X1782Y345D01*
X1780Y345D01*
X1780Y341D01*
X1778Y341D01*
X1778Y339D01*
X1776Y339D01*
X1776Y337D01*
X1774Y337D01*
X1774Y333D01*
X1772Y333D01*
X1772Y295D01*
X1770Y295D01*
X1770Y287D01*
X1768Y287D01*
X1768Y283D01*
X1766Y283D01*
X1766Y279D01*
X1764Y279D01*
X1764Y277D01*
X1762Y277D01*
X1762Y275D01*
X1760Y275D01*
X1760Y271D01*
X1758Y271D01*
X1758Y269D01*
X1756Y269D01*
X1756Y267D01*
X1752Y267D01*
X1752Y265D01*
X1750Y265D01*
X1750Y245D01*
X1860Y245D01*
X1860Y243D01*
X1864Y243D01*
X1864Y241D01*
X1866Y241D01*
X1866Y239D01*
X1868Y239D01*
X1868Y237D01*
X1870Y237D01*
X1870Y235D01*
X1872Y235D01*
X1872Y233D01*
X1874Y233D01*
X1874Y231D01*
X1876Y231D01*
X1876Y229D01*
X1878Y229D01*
X1878Y227D01*
X1880Y227D01*
X1880Y225D01*
X1882Y225D01*
X1882Y223D01*
X1884Y223D01*
X1884Y221D01*
X1886Y221D01*
X1886Y217D01*
X1888Y217D01*
X1888Y215D01*
X1890Y215D01*
X1890Y213D01*
X1892Y213D01*
X1892Y211D01*
X1894Y211D01*
X1894Y209D01*
X1896Y209D01*
X1896Y207D01*
X1898Y207D01*
X1898Y205D01*
X1900Y205D01*
X1900Y203D01*
X1920Y203D01*
X1920Y211D01*
X1922Y211D01*
X1922Y217D01*
X1924Y217D01*
X1924Y221D01*
X1926Y221D01*
X1926Y225D01*
X1928Y225D01*
X1928Y229D01*
X1930Y229D01*
X1930Y231D01*
X1932Y231D01*
X1932Y233D01*
X1934Y233D01*
X1934Y235D01*
X1936Y235D01*
X1936Y237D01*
X1938Y237D01*
X1938Y239D01*
X1942Y239D01*
X1942Y259D01*
X1940Y259D01*
X1940Y261D01*
X1938Y261D01*
X1938Y263D01*
X1936Y263D01*
X1936Y265D01*
X1934Y265D01*
X1934Y267D01*
X1932Y267D01*
X1932Y269D01*
X1930Y269D01*
X1930Y271D01*
X1928Y271D01*
X1928Y275D01*
X1926Y275D01*
X1926Y277D01*
X1924Y277D01*
X1924Y283D01*
X1922Y283D01*
X1922Y289D01*
X1920Y289D01*
X1920Y311D01*
X1922Y311D01*
X1922Y317D01*
X1924Y317D01*
X1924Y321D01*
X1926Y321D01*
X1926Y325D01*
X1928Y325D01*
X1928Y329D01*
X1930Y329D01*
X1930Y331D01*
X1932Y331D01*
X1932Y333D01*
X1934Y333D01*
X1934Y335D01*
X1936Y335D01*
X1936Y337D01*
X1938Y337D01*
X1938Y339D01*
X1942Y339D01*
X1942Y359D01*
X1940Y359D01*
X1940Y361D01*
X1938Y361D01*
X1938Y363D01*
X1936Y363D01*
X1936Y365D01*
X1934Y365D01*
X1934Y367D01*
X1932Y367D01*
X1932Y369D01*
X1930Y369D01*
X1930Y371D01*
X1928Y371D01*
X1928Y375D01*
X1926Y375D01*
X1926Y377D01*
X1924Y377D01*
X1924Y383D01*
X1922Y383D01*
X1922Y389D01*
X1920Y389D01*
X1920Y411D01*
X1922Y411D01*
X1922Y417D01*
X1924Y417D01*
X1924Y421D01*
X1926Y421D01*
X1926Y425D01*
X1928Y425D01*
X1928Y429D01*
X1930Y429D01*
X1930Y431D01*
X1932Y431D01*
X1932Y433D01*
X1934Y433D01*
X1934Y435D01*
X1936Y435D01*
X1936Y437D01*
X1938Y437D01*
X1938Y439D01*
X1942Y439D01*
X1942Y459D01*
X1940Y459D01*
X1940Y461D01*
X1938Y461D01*
X1938Y463D01*
X1936Y463D01*
X1936Y465D01*
X1934Y465D01*
X1934Y467D01*
X1932Y467D01*
X1932Y469D01*
X1930Y469D01*
X1930Y471D01*
X1910Y471D01*
G37*
D02*
G36*
X964Y279D02*
X964Y277D01*
X962Y277D01*
X962Y275D01*
X960Y275D01*
X960Y271D01*
X958Y271D01*
X958Y269D01*
X956Y269D01*
X956Y267D01*
X952Y267D01*
X952Y265D01*
X950Y265D01*
X950Y263D01*
X948Y263D01*
X948Y141D01*
X950Y141D01*
X950Y139D01*
X954Y139D01*
X954Y137D01*
X956Y137D01*
X956Y135D01*
X960Y135D01*
X960Y133D01*
X962Y133D01*
X962Y131D01*
X964Y131D01*
X964Y127D01*
X966Y127D01*
X966Y125D01*
X988Y125D01*
X988Y129D01*
X990Y129D01*
X990Y131D01*
X992Y131D01*
X992Y133D01*
X994Y133D01*
X994Y135D01*
X996Y135D01*
X996Y137D01*
X1000Y137D01*
X1000Y139D01*
X1002Y139D01*
X1002Y141D01*
X1004Y141D01*
X1004Y263D01*
X1000Y263D01*
X1000Y265D01*
X996Y265D01*
X996Y267D01*
X994Y267D01*
X994Y269D01*
X992Y269D01*
X992Y271D01*
X990Y271D01*
X990Y273D01*
X988Y273D01*
X988Y275D01*
X986Y275D01*
X986Y279D01*
X964Y279D01*
G37*
D02*
G36*
X1064Y279D02*
X1064Y277D01*
X1062Y277D01*
X1062Y275D01*
X1060Y275D01*
X1060Y271D01*
X1058Y271D01*
X1058Y269D01*
X1056Y269D01*
X1056Y267D01*
X1052Y267D01*
X1052Y265D01*
X1050Y265D01*
X1050Y263D01*
X1048Y263D01*
X1048Y141D01*
X1050Y141D01*
X1050Y139D01*
X1054Y139D01*
X1054Y137D01*
X1056Y137D01*
X1056Y135D01*
X1060Y135D01*
X1060Y133D01*
X1062Y133D01*
X1062Y131D01*
X1064Y131D01*
X1064Y127D01*
X1066Y127D01*
X1066Y125D01*
X1088Y125D01*
X1088Y129D01*
X1090Y129D01*
X1090Y131D01*
X1092Y131D01*
X1092Y133D01*
X1094Y133D01*
X1094Y135D01*
X1096Y135D01*
X1096Y137D01*
X1100Y137D01*
X1100Y139D01*
X1102Y139D01*
X1102Y141D01*
X1104Y141D01*
X1104Y261D01*
X1102Y261D01*
X1102Y263D01*
X1100Y263D01*
X1100Y265D01*
X1096Y265D01*
X1096Y267D01*
X1094Y267D01*
X1094Y269D01*
X1092Y269D01*
X1092Y271D01*
X1090Y271D01*
X1090Y273D01*
X1088Y273D01*
X1088Y275D01*
X1086Y275D01*
X1086Y279D01*
X1064Y279D01*
G37*
D02*
G36*
X1164Y279D02*
X1164Y277D01*
X1162Y277D01*
X1162Y275D01*
X1160Y275D01*
X1160Y271D01*
X1158Y271D01*
X1158Y269D01*
X1156Y269D01*
X1156Y267D01*
X1152Y267D01*
X1152Y265D01*
X1150Y265D01*
X1150Y263D01*
X1148Y263D01*
X1148Y141D01*
X1150Y141D01*
X1150Y139D01*
X1154Y139D01*
X1154Y137D01*
X1156Y137D01*
X1156Y135D01*
X1160Y135D01*
X1160Y133D01*
X1162Y133D01*
X1162Y131D01*
X1164Y131D01*
X1164Y127D01*
X1166Y127D01*
X1166Y125D01*
X1188Y125D01*
X1188Y129D01*
X1190Y129D01*
X1190Y131D01*
X1192Y131D01*
X1192Y133D01*
X1194Y133D01*
X1194Y135D01*
X1196Y135D01*
X1196Y137D01*
X1200Y137D01*
X1200Y139D01*
X1202Y139D01*
X1202Y141D01*
X1204Y141D01*
X1204Y261D01*
X1202Y261D01*
X1202Y263D01*
X1200Y263D01*
X1200Y265D01*
X1196Y265D01*
X1196Y267D01*
X1194Y267D01*
X1194Y269D01*
X1192Y269D01*
X1192Y271D01*
X1190Y271D01*
X1190Y273D01*
X1188Y273D01*
X1188Y275D01*
X1186Y275D01*
X1186Y279D01*
X1164Y279D01*
G37*
D02*
G36*
X1264Y279D02*
X1264Y277D01*
X1262Y277D01*
X1262Y275D01*
X1260Y275D01*
X1260Y271D01*
X1258Y271D01*
X1258Y269D01*
X1256Y269D01*
X1256Y267D01*
X1252Y267D01*
X1252Y265D01*
X1250Y265D01*
X1250Y263D01*
X1248Y263D01*
X1248Y141D01*
X1250Y141D01*
X1250Y139D01*
X1254Y139D01*
X1254Y137D01*
X1256Y137D01*
X1256Y135D01*
X1260Y135D01*
X1260Y133D01*
X1262Y133D01*
X1262Y131D01*
X1264Y131D01*
X1264Y127D01*
X1266Y127D01*
X1266Y125D01*
X1288Y125D01*
X1288Y129D01*
X1290Y129D01*
X1290Y131D01*
X1292Y131D01*
X1292Y133D01*
X1294Y133D01*
X1294Y135D01*
X1296Y135D01*
X1296Y137D01*
X1300Y137D01*
X1300Y139D01*
X1302Y139D01*
X1302Y141D01*
X1304Y141D01*
X1304Y261D01*
X1302Y261D01*
X1302Y263D01*
X1300Y263D01*
X1300Y265D01*
X1296Y265D01*
X1296Y267D01*
X1294Y267D01*
X1294Y269D01*
X1292Y269D01*
X1292Y271D01*
X1290Y271D01*
X1290Y273D01*
X1288Y273D01*
X1288Y275D01*
X1286Y275D01*
X1286Y279D01*
X1264Y279D01*
G37*
D02*
G36*
X1364Y279D02*
X1364Y277D01*
X1362Y277D01*
X1362Y275D01*
X1360Y275D01*
X1360Y271D01*
X1358Y271D01*
X1358Y269D01*
X1356Y269D01*
X1356Y267D01*
X1352Y267D01*
X1352Y265D01*
X1350Y265D01*
X1350Y263D01*
X1348Y263D01*
X1348Y141D01*
X1350Y141D01*
X1350Y139D01*
X1354Y139D01*
X1354Y137D01*
X1356Y137D01*
X1356Y135D01*
X1360Y135D01*
X1360Y133D01*
X1362Y133D01*
X1362Y131D01*
X1364Y131D01*
X1364Y127D01*
X1366Y127D01*
X1366Y125D01*
X1388Y125D01*
X1388Y129D01*
X1390Y129D01*
X1390Y131D01*
X1392Y131D01*
X1392Y133D01*
X1394Y133D01*
X1394Y135D01*
X1396Y135D01*
X1396Y137D01*
X1400Y137D01*
X1400Y139D01*
X1402Y139D01*
X1402Y141D01*
X1404Y141D01*
X1404Y261D01*
X1402Y261D01*
X1402Y263D01*
X1400Y263D01*
X1400Y265D01*
X1396Y265D01*
X1396Y267D01*
X1394Y267D01*
X1394Y269D01*
X1392Y269D01*
X1392Y271D01*
X1390Y271D01*
X1390Y273D01*
X1388Y273D01*
X1388Y275D01*
X1386Y275D01*
X1386Y279D01*
X1364Y279D01*
G37*
D02*
G36*
X1464Y279D02*
X1464Y277D01*
X1462Y277D01*
X1462Y275D01*
X1460Y275D01*
X1460Y271D01*
X1458Y271D01*
X1458Y269D01*
X1456Y269D01*
X1456Y267D01*
X1452Y267D01*
X1452Y265D01*
X1450Y265D01*
X1450Y263D01*
X1448Y263D01*
X1448Y141D01*
X1450Y141D01*
X1450Y139D01*
X1454Y139D01*
X1454Y137D01*
X1456Y137D01*
X1456Y135D01*
X1460Y135D01*
X1460Y133D01*
X1462Y133D01*
X1462Y131D01*
X1464Y131D01*
X1464Y127D01*
X1466Y127D01*
X1466Y125D01*
X1488Y125D01*
X1488Y129D01*
X1490Y129D01*
X1490Y131D01*
X1492Y131D01*
X1492Y133D01*
X1494Y133D01*
X1494Y135D01*
X1496Y135D01*
X1496Y137D01*
X1500Y137D01*
X1500Y139D01*
X1502Y139D01*
X1502Y141D01*
X1504Y141D01*
X1504Y261D01*
X1502Y261D01*
X1502Y263D01*
X1500Y263D01*
X1500Y265D01*
X1496Y265D01*
X1496Y267D01*
X1494Y267D01*
X1494Y269D01*
X1492Y269D01*
X1492Y271D01*
X1490Y271D01*
X1490Y273D01*
X1488Y273D01*
X1488Y275D01*
X1486Y275D01*
X1486Y279D01*
X1464Y279D01*
G37*
D02*
G36*
X1564Y279D02*
X1564Y277D01*
X1562Y277D01*
X1562Y275D01*
X1560Y275D01*
X1560Y271D01*
X1558Y271D01*
X1558Y269D01*
X1556Y269D01*
X1556Y267D01*
X1552Y267D01*
X1552Y265D01*
X1550Y265D01*
X1550Y263D01*
X1548Y263D01*
X1548Y141D01*
X1550Y141D01*
X1550Y139D01*
X1554Y139D01*
X1554Y137D01*
X1556Y137D01*
X1556Y135D01*
X1560Y135D01*
X1560Y133D01*
X1562Y133D01*
X1562Y131D01*
X1564Y131D01*
X1564Y127D01*
X1566Y127D01*
X1566Y125D01*
X1588Y125D01*
X1588Y129D01*
X1590Y129D01*
X1590Y131D01*
X1592Y131D01*
X1592Y133D01*
X1594Y133D01*
X1594Y135D01*
X1596Y135D01*
X1596Y137D01*
X1600Y137D01*
X1600Y139D01*
X1602Y139D01*
X1602Y141D01*
X1604Y141D01*
X1604Y261D01*
X1602Y261D01*
X1602Y263D01*
X1600Y263D01*
X1600Y265D01*
X1596Y265D01*
X1596Y267D01*
X1594Y267D01*
X1594Y269D01*
X1592Y269D01*
X1592Y271D01*
X1590Y271D01*
X1590Y273D01*
X1588Y273D01*
X1588Y275D01*
X1586Y275D01*
X1586Y279D01*
X1564Y279D01*
G37*
D02*
G36*
X1664Y279D02*
X1664Y277D01*
X1662Y277D01*
X1662Y275D01*
X1660Y275D01*
X1660Y271D01*
X1658Y271D01*
X1658Y269D01*
X1656Y269D01*
X1656Y267D01*
X1652Y267D01*
X1652Y265D01*
X1650Y265D01*
X1650Y263D01*
X1648Y263D01*
X1648Y141D01*
X1650Y141D01*
X1650Y139D01*
X1670Y139D01*
X1670Y159D01*
X1672Y159D01*
X1672Y165D01*
X1674Y165D01*
X1674Y167D01*
X1676Y167D01*
X1676Y171D01*
X1678Y171D01*
X1678Y175D01*
X1680Y175D01*
X1680Y179D01*
X1682Y179D01*
X1682Y183D01*
X1684Y183D01*
X1684Y187D01*
X1686Y187D01*
X1686Y191D01*
X1688Y191D01*
X1688Y193D01*
X1690Y193D01*
X1690Y197D01*
X1692Y197D01*
X1692Y201D01*
X1694Y201D01*
X1694Y205D01*
X1696Y205D01*
X1696Y209D01*
X1698Y209D01*
X1698Y213D01*
X1700Y213D01*
X1700Y215D01*
X1702Y215D01*
X1702Y219D01*
X1704Y219D01*
X1704Y223D01*
X1706Y223D01*
X1706Y227D01*
X1708Y227D01*
X1708Y231D01*
X1710Y231D01*
X1710Y235D01*
X1712Y235D01*
X1712Y237D01*
X1714Y237D01*
X1714Y259D01*
X1708Y259D01*
X1708Y261D01*
X1704Y261D01*
X1704Y263D01*
X1700Y263D01*
X1700Y265D01*
X1696Y265D01*
X1696Y267D01*
X1694Y267D01*
X1694Y269D01*
X1692Y269D01*
X1692Y271D01*
X1690Y271D01*
X1690Y273D01*
X1688Y273D01*
X1688Y275D01*
X1686Y275D01*
X1686Y279D01*
X1664Y279D01*
G37*
D02*
G36*
X644Y213D02*
X644Y205D01*
X646Y205D01*
X646Y185D01*
X644Y185D01*
X644Y177D01*
X642Y177D01*
X642Y173D01*
X640Y173D01*
X640Y169D01*
X638Y169D01*
X638Y167D01*
X636Y167D01*
X636Y165D01*
X634Y165D01*
X634Y161D01*
X630Y161D01*
X630Y159D01*
X628Y159D01*
X628Y157D01*
X626Y157D01*
X626Y155D01*
X622Y155D01*
X622Y135D01*
X626Y135D01*
X626Y133D01*
X628Y133D01*
X628Y131D01*
X630Y131D01*
X630Y129D01*
X634Y129D01*
X634Y125D01*
X636Y125D01*
X636Y123D01*
X638Y123D01*
X638Y121D01*
X640Y121D01*
X640Y117D01*
X642Y117D01*
X642Y113D01*
X644Y113D01*
X644Y105D01*
X646Y105D01*
X646Y85D01*
X644Y85D01*
X644Y77D01*
X642Y77D01*
X642Y55D01*
X682Y55D01*
X682Y75D01*
X680Y75D01*
X680Y77D01*
X678Y77D01*
X678Y81D01*
X676Y81D01*
X676Y87D01*
X674Y87D01*
X674Y113D01*
X676Y113D01*
X676Y119D01*
X678Y119D01*
X678Y123D01*
X680Y123D01*
X680Y125D01*
X682Y125D01*
X682Y129D01*
X684Y129D01*
X684Y151D01*
X682Y151D01*
X682Y157D01*
X680Y157D01*
X680Y163D01*
X678Y163D01*
X678Y171D01*
X676Y171D01*
X676Y177D01*
X674Y177D01*
X674Y185D01*
X672Y185D01*
X672Y191D01*
X670Y191D01*
X670Y197D01*
X668Y197D01*
X668Y205D01*
X666Y205D01*
X666Y211D01*
X664Y211D01*
X664Y213D01*
X644Y213D01*
G37*
D02*
G36*
X1742Y201D02*
X1742Y197D01*
X1740Y197D01*
X1740Y193D01*
X1738Y193D01*
X1738Y189D01*
X1736Y189D01*
X1736Y187D01*
X1734Y187D01*
X1734Y183D01*
X1732Y183D01*
X1732Y179D01*
X1730Y179D01*
X1730Y175D01*
X1728Y175D01*
X1728Y171D01*
X1726Y171D01*
X1726Y167D01*
X1724Y167D01*
X1724Y165D01*
X1776Y165D01*
X1776Y163D01*
X1790Y163D01*
X1790Y161D01*
X1796Y161D01*
X1796Y159D01*
X1800Y159D01*
X1800Y157D01*
X1804Y157D01*
X1804Y155D01*
X1808Y155D01*
X1808Y153D01*
X1810Y153D01*
X1810Y151D01*
X1814Y151D01*
X1814Y149D01*
X1816Y149D01*
X1816Y147D01*
X1818Y147D01*
X1818Y145D01*
X1820Y145D01*
X1820Y143D01*
X1822Y143D01*
X1822Y141D01*
X1824Y141D01*
X1824Y137D01*
X1826Y137D01*
X1826Y135D01*
X1828Y135D01*
X1828Y131D01*
X1830Y131D01*
X1830Y127D01*
X1832Y127D01*
X1832Y121D01*
X1834Y121D01*
X1834Y115D01*
X1836Y115D01*
X1836Y87D01*
X1834Y87D01*
X1834Y81D01*
X1832Y81D01*
X1832Y75D01*
X1830Y75D01*
X1830Y71D01*
X1828Y71D01*
X1828Y67D01*
X1826Y67D01*
X1826Y65D01*
X1824Y65D01*
X1824Y61D01*
X1822Y61D01*
X1822Y41D01*
X1940Y41D01*
X1940Y61D01*
X1938Y61D01*
X1938Y63D01*
X1936Y63D01*
X1936Y65D01*
X1934Y65D01*
X1934Y67D01*
X1932Y67D01*
X1932Y69D01*
X1930Y69D01*
X1930Y71D01*
X1928Y71D01*
X1928Y75D01*
X1926Y75D01*
X1926Y77D01*
X1924Y77D01*
X1924Y83D01*
X1922Y83D01*
X1922Y89D01*
X1920Y89D01*
X1920Y121D01*
X1918Y121D01*
X1918Y123D01*
X1916Y123D01*
X1916Y125D01*
X1914Y125D01*
X1914Y127D01*
X1912Y127D01*
X1912Y129D01*
X1910Y129D01*
X1910Y131D01*
X1908Y131D01*
X1908Y133D01*
X1906Y133D01*
X1906Y135D01*
X1904Y135D01*
X1904Y137D01*
X1902Y137D01*
X1902Y139D01*
X1900Y139D01*
X1900Y141D01*
X1898Y141D01*
X1898Y143D01*
X1896Y143D01*
X1896Y145D01*
X1894Y145D01*
X1894Y147D01*
X1892Y147D01*
X1892Y149D01*
X1890Y149D01*
X1890Y151D01*
X1888Y151D01*
X1888Y153D01*
X1886Y153D01*
X1886Y155D01*
X1884Y155D01*
X1884Y159D01*
X1882Y159D01*
X1882Y161D01*
X1880Y161D01*
X1880Y163D01*
X1878Y163D01*
X1878Y165D01*
X1876Y165D01*
X1876Y167D01*
X1874Y167D01*
X1874Y169D01*
X1872Y169D01*
X1872Y171D01*
X1870Y171D01*
X1870Y173D01*
X1868Y173D01*
X1868Y175D01*
X1866Y175D01*
X1866Y177D01*
X1864Y177D01*
X1864Y179D01*
X1862Y179D01*
X1862Y181D01*
X1860Y181D01*
X1860Y183D01*
X1858Y183D01*
X1858Y185D01*
X1856Y185D01*
X1856Y187D01*
X1854Y187D01*
X1854Y189D01*
X1852Y189D01*
X1852Y191D01*
X1850Y191D01*
X1850Y195D01*
X1848Y195D01*
X1848Y197D01*
X1846Y197D01*
X1846Y199D01*
X1844Y199D01*
X1844Y201D01*
X1742Y201D01*
G37*
D02*
G36*
X1722Y165D02*
X1722Y161D01*
X1720Y161D01*
X1720Y157D01*
X1718Y157D01*
X1718Y153D01*
X1716Y153D01*
X1716Y151D01*
X1736Y151D01*
X1736Y153D01*
X1740Y153D01*
X1740Y155D01*
X1742Y155D01*
X1742Y157D01*
X1748Y157D01*
X1748Y159D01*
X1752Y159D01*
X1752Y161D01*
X1758Y161D01*
X1758Y163D01*
X1772Y163D01*
X1772Y165D01*
X1722Y165D01*
G37*
D02*
G36*
X40Y653D02*
X40Y629D01*
X82Y629D01*
X82Y627D01*
X726Y627D01*
X726Y625D01*
X734Y625D01*
X734Y623D01*
X738Y623D01*
X738Y621D01*
X740Y621D01*
X740Y619D01*
X744Y619D01*
X744Y617D01*
X746Y617D01*
X746Y615D01*
X816Y615D01*
X816Y613D01*
X822Y613D01*
X822Y611D01*
X828Y611D01*
X828Y609D01*
X830Y609D01*
X830Y607D01*
X834Y607D01*
X834Y605D01*
X836Y605D01*
X836Y603D01*
X838Y603D01*
X838Y601D01*
X840Y601D01*
X840Y599D01*
X842Y599D01*
X842Y597D01*
X844Y597D01*
X844Y595D01*
X846Y595D01*
X846Y591D01*
X848Y591D01*
X848Y587D01*
X850Y587D01*
X850Y583D01*
X852Y583D01*
X852Y573D01*
X854Y573D01*
X854Y561D01*
X852Y561D01*
X852Y557D01*
X914Y557D01*
X914Y559D01*
X908Y559D01*
X908Y561D01*
X904Y561D01*
X904Y563D01*
X900Y563D01*
X900Y565D01*
X896Y565D01*
X896Y567D01*
X894Y567D01*
X894Y569D01*
X892Y569D01*
X892Y571D01*
X890Y571D01*
X890Y573D01*
X888Y573D01*
X888Y575D01*
X886Y575D01*
X886Y579D01*
X884Y579D01*
X884Y581D01*
X882Y581D01*
X882Y585D01*
X880Y585D01*
X880Y591D01*
X878Y591D01*
X878Y617D01*
X880Y617D01*
X880Y623D01*
X882Y623D01*
X882Y627D01*
X884Y627D01*
X884Y631D01*
X886Y631D01*
X886Y633D01*
X888Y633D01*
X888Y653D01*
X40Y653D01*
G37*
D02*
G36*
X88Y627D02*
X88Y625D01*
X92Y625D01*
X92Y623D01*
X94Y623D01*
X94Y621D01*
X98Y621D01*
X98Y619D01*
X100Y619D01*
X100Y617D01*
X102Y617D01*
X102Y615D01*
X104Y615D01*
X104Y613D01*
X106Y613D01*
X106Y611D01*
X108Y611D01*
X108Y607D01*
X110Y607D01*
X110Y605D01*
X112Y605D01*
X112Y601D01*
X114Y601D01*
X114Y597D01*
X236Y597D01*
X236Y595D01*
X242Y595D01*
X242Y593D01*
X246Y593D01*
X246Y591D01*
X250Y591D01*
X250Y589D01*
X254Y589D01*
X254Y587D01*
X256Y587D01*
X256Y585D01*
X260Y585D01*
X260Y583D01*
X262Y583D01*
X262Y581D01*
X264Y581D01*
X264Y579D01*
X266Y579D01*
X266Y577D01*
X268Y577D01*
X268Y575D01*
X270Y575D01*
X270Y571D01*
X272Y571D01*
X272Y569D01*
X274Y569D01*
X274Y565D01*
X276Y565D01*
X276Y561D01*
X278Y561D01*
X278Y557D01*
X280Y557D01*
X280Y551D01*
X282Y551D01*
X282Y537D01*
X284Y537D01*
X284Y533D01*
X390Y533D01*
X390Y535D01*
X382Y535D01*
X382Y537D01*
X378Y537D01*
X378Y539D01*
X374Y539D01*
X374Y541D01*
X370Y541D01*
X370Y543D01*
X368Y543D01*
X368Y545D01*
X366Y545D01*
X366Y547D01*
X364Y547D01*
X364Y549D01*
X362Y549D01*
X362Y551D01*
X360Y551D01*
X360Y553D01*
X358Y553D01*
X358Y557D01*
X356Y557D01*
X356Y559D01*
X354Y559D01*
X354Y565D01*
X352Y565D01*
X352Y571D01*
X350Y571D01*
X350Y589D01*
X352Y589D01*
X352Y597D01*
X354Y597D01*
X354Y601D01*
X356Y601D01*
X356Y605D01*
X358Y605D01*
X358Y607D01*
X360Y607D01*
X360Y611D01*
X362Y611D01*
X362Y613D01*
X364Y613D01*
X364Y615D01*
X366Y615D01*
X366Y617D01*
X370Y617D01*
X370Y619D01*
X372Y619D01*
X372Y621D01*
X376Y621D01*
X376Y623D01*
X380Y623D01*
X380Y625D01*
X386Y625D01*
X386Y627D01*
X88Y627D01*
G37*
D02*
G36*
X408Y627D02*
X408Y625D01*
X414Y625D01*
X414Y623D01*
X418Y623D01*
X418Y621D01*
X422Y621D01*
X422Y619D01*
X424Y619D01*
X424Y617D01*
X428Y617D01*
X428Y615D01*
X430Y615D01*
X430Y613D01*
X432Y613D01*
X432Y611D01*
X434Y611D01*
X434Y607D01*
X436Y607D01*
X436Y605D01*
X438Y605D01*
X438Y601D01*
X440Y601D01*
X440Y597D01*
X460Y597D01*
X460Y627D01*
X408Y627D01*
G37*
D02*
G36*
X554Y627D02*
X554Y595D01*
X574Y595D01*
X574Y601D01*
X576Y601D01*
X576Y603D01*
X578Y603D01*
X578Y607D01*
X580Y607D01*
X580Y609D01*
X582Y609D01*
X582Y613D01*
X584Y613D01*
X584Y615D01*
X586Y615D01*
X586Y617D01*
X590Y617D01*
X590Y619D01*
X592Y619D01*
X592Y621D01*
X596Y621D01*
X596Y623D01*
X600Y623D01*
X600Y625D01*
X606Y625D01*
X606Y627D01*
X554Y627D01*
G37*
D02*
G36*
X626Y627D02*
X626Y625D01*
X634Y625D01*
X634Y623D01*
X638Y623D01*
X638Y621D01*
X640Y621D01*
X640Y619D01*
X644Y619D01*
X644Y617D01*
X646Y617D01*
X646Y615D01*
X648Y615D01*
X648Y613D01*
X650Y613D01*
X650Y611D01*
X652Y611D01*
X652Y609D01*
X654Y609D01*
X654Y605D01*
X656Y605D01*
X656Y601D01*
X676Y601D01*
X676Y603D01*
X678Y603D01*
X678Y607D01*
X680Y607D01*
X680Y609D01*
X682Y609D01*
X682Y613D01*
X684Y613D01*
X684Y615D01*
X686Y615D01*
X686Y617D01*
X690Y617D01*
X690Y619D01*
X692Y619D01*
X692Y621D01*
X696Y621D01*
X696Y623D01*
X700Y623D01*
X700Y625D01*
X706Y625D01*
X706Y627D01*
X626Y627D01*
G37*
D02*
G36*
X748Y615D02*
X748Y613D01*
X750Y613D01*
X750Y611D01*
X752Y611D01*
X752Y609D01*
X754Y609D01*
X754Y605D01*
X756Y605D01*
X756Y603D01*
X776Y603D01*
X776Y605D01*
X778Y605D01*
X778Y607D01*
X782Y607D01*
X782Y609D01*
X784Y609D01*
X784Y611D01*
X790Y611D01*
X790Y613D01*
X796Y613D01*
X796Y615D01*
X748Y615D01*
G37*
D02*
G36*
X114Y597D02*
X114Y593D01*
X116Y593D01*
X116Y571D01*
X114Y571D01*
X114Y565D01*
X112Y565D01*
X112Y561D01*
X110Y561D01*
X110Y557D01*
X108Y557D01*
X108Y555D01*
X106Y555D01*
X106Y551D01*
X104Y551D01*
X104Y549D01*
X102Y549D01*
X102Y547D01*
X100Y547D01*
X100Y545D01*
X96Y545D01*
X96Y543D01*
X94Y543D01*
X94Y541D01*
X90Y541D01*
X90Y539D01*
X86Y539D01*
X86Y537D01*
X78Y537D01*
X78Y535D01*
X156Y535D01*
X156Y539D01*
X158Y539D01*
X158Y551D01*
X160Y551D01*
X160Y557D01*
X162Y557D01*
X162Y561D01*
X164Y561D01*
X164Y565D01*
X166Y565D01*
X166Y569D01*
X168Y569D01*
X168Y573D01*
X170Y573D01*
X170Y575D01*
X172Y575D01*
X172Y577D01*
X174Y577D01*
X174Y579D01*
X176Y579D01*
X176Y581D01*
X178Y581D01*
X178Y583D01*
X180Y583D01*
X180Y585D01*
X184Y585D01*
X184Y587D01*
X186Y587D01*
X186Y589D01*
X190Y589D01*
X190Y591D01*
X194Y591D01*
X194Y593D01*
X198Y593D01*
X198Y595D01*
X204Y595D01*
X204Y597D01*
X114Y597D01*
G37*
D02*
G36*
X964Y579D02*
X964Y577D01*
X962Y577D01*
X962Y575D01*
X960Y575D01*
X960Y571D01*
X958Y571D01*
X958Y569D01*
X956Y569D01*
X956Y567D01*
X952Y567D01*
X952Y565D01*
X950Y565D01*
X950Y563D01*
X946Y563D01*
X946Y561D01*
X942Y561D01*
X942Y559D01*
X936Y559D01*
X936Y557D01*
X1014Y557D01*
X1014Y559D01*
X1008Y559D01*
X1008Y561D01*
X1004Y561D01*
X1004Y563D01*
X1000Y563D01*
X1000Y565D01*
X996Y565D01*
X996Y567D01*
X994Y567D01*
X994Y569D01*
X992Y569D01*
X992Y571D01*
X990Y571D01*
X990Y573D01*
X988Y573D01*
X988Y575D01*
X986Y575D01*
X986Y579D01*
X964Y579D01*
G37*
D02*
G36*
X1064Y579D02*
X1064Y577D01*
X1062Y577D01*
X1062Y575D01*
X1060Y575D01*
X1060Y571D01*
X1058Y571D01*
X1058Y569D01*
X1056Y569D01*
X1056Y567D01*
X1052Y567D01*
X1052Y565D01*
X1050Y565D01*
X1050Y563D01*
X1046Y563D01*
X1046Y561D01*
X1042Y561D01*
X1042Y559D01*
X1036Y559D01*
X1036Y557D01*
X1114Y557D01*
X1114Y559D01*
X1108Y559D01*
X1108Y561D01*
X1104Y561D01*
X1104Y563D01*
X1100Y563D01*
X1100Y565D01*
X1096Y565D01*
X1096Y567D01*
X1094Y567D01*
X1094Y569D01*
X1092Y569D01*
X1092Y571D01*
X1090Y571D01*
X1090Y573D01*
X1088Y573D01*
X1088Y575D01*
X1086Y575D01*
X1086Y579D01*
X1064Y579D01*
G37*
D02*
G36*
X1164Y579D02*
X1164Y577D01*
X1162Y577D01*
X1162Y575D01*
X1160Y575D01*
X1160Y571D01*
X1158Y571D01*
X1158Y569D01*
X1156Y569D01*
X1156Y567D01*
X1152Y567D01*
X1152Y565D01*
X1150Y565D01*
X1150Y563D01*
X1146Y563D01*
X1146Y561D01*
X1142Y561D01*
X1142Y559D01*
X1136Y559D01*
X1136Y557D01*
X1214Y557D01*
X1214Y559D01*
X1208Y559D01*
X1208Y561D01*
X1204Y561D01*
X1204Y563D01*
X1200Y563D01*
X1200Y565D01*
X1196Y565D01*
X1196Y567D01*
X1194Y567D01*
X1194Y569D01*
X1192Y569D01*
X1192Y571D01*
X1190Y571D01*
X1190Y573D01*
X1188Y573D01*
X1188Y575D01*
X1186Y575D01*
X1186Y579D01*
X1164Y579D01*
G37*
D02*
G36*
X440Y565D02*
X440Y559D01*
X438Y559D01*
X438Y555D01*
X436Y555D01*
X436Y553D01*
X434Y553D01*
X434Y551D01*
X432Y551D01*
X432Y547D01*
X428Y547D01*
X428Y545D01*
X426Y545D01*
X426Y543D01*
X424Y543D01*
X424Y541D01*
X420Y541D01*
X420Y539D01*
X418Y539D01*
X418Y537D01*
X412Y537D01*
X412Y535D01*
X404Y535D01*
X404Y533D01*
X460Y533D01*
X460Y565D01*
X440Y565D01*
G37*
D02*
G36*
X656Y563D02*
X656Y561D01*
X654Y561D01*
X654Y557D01*
X652Y557D01*
X652Y555D01*
X650Y555D01*
X650Y551D01*
X648Y551D01*
X648Y549D01*
X644Y549D01*
X644Y547D01*
X642Y547D01*
X642Y545D01*
X640Y545D01*
X640Y543D01*
X638Y543D01*
X638Y535D01*
X636Y535D01*
X636Y507D01*
X634Y507D01*
X634Y503D01*
X632Y503D01*
X632Y499D01*
X630Y499D01*
X630Y497D01*
X628Y497D01*
X628Y495D01*
X624Y495D01*
X624Y493D01*
X616Y493D01*
X616Y491D01*
X590Y491D01*
X590Y489D01*
X564Y489D01*
X564Y487D01*
X538Y487D01*
X538Y485D01*
X510Y485D01*
X510Y483D01*
X484Y483D01*
X484Y481D01*
X478Y481D01*
X478Y463D01*
X476Y463D01*
X476Y453D01*
X710Y453D01*
X710Y455D01*
X702Y455D01*
X702Y457D01*
X700Y457D01*
X700Y459D01*
X696Y459D01*
X696Y461D01*
X692Y461D01*
X692Y463D01*
X690Y463D01*
X690Y465D01*
X688Y465D01*
X688Y467D01*
X686Y467D01*
X686Y469D01*
X684Y469D01*
X684Y471D01*
X682Y471D01*
X682Y475D01*
X680Y475D01*
X680Y477D01*
X678Y477D01*
X678Y481D01*
X676Y481D01*
X676Y487D01*
X674Y487D01*
X674Y513D01*
X676Y513D01*
X676Y519D01*
X678Y519D01*
X678Y523D01*
X680Y523D01*
X680Y525D01*
X682Y525D01*
X682Y529D01*
X684Y529D01*
X684Y531D01*
X686Y531D01*
X686Y551D01*
X684Y551D01*
X684Y553D01*
X682Y553D01*
X682Y555D01*
X680Y555D01*
X680Y557D01*
X678Y557D01*
X678Y561D01*
X676Y561D01*
X676Y563D01*
X656Y563D01*
G37*
D02*
G36*
X852Y557D02*
X852Y555D01*
X1216Y555D01*
X1216Y557D01*
X852Y557D01*
G37*
D02*
G36*
X852Y557D02*
X852Y555D01*
X1216Y555D01*
X1216Y557D01*
X852Y557D01*
G37*
D02*
G36*
X852Y557D02*
X852Y555D01*
X1216Y555D01*
X1216Y557D01*
X852Y557D01*
G37*
D02*
G36*
X852Y557D02*
X852Y555D01*
X1216Y555D01*
X1216Y557D01*
X852Y557D01*
G37*
D02*
G36*
X852Y555D02*
X852Y553D01*
X850Y553D01*
X850Y547D01*
X848Y547D01*
X848Y545D01*
X846Y545D01*
X846Y541D01*
X844Y541D01*
X844Y539D01*
X842Y539D01*
X842Y535D01*
X840Y535D01*
X840Y533D01*
X836Y533D01*
X836Y531D01*
X834Y531D01*
X834Y529D01*
X832Y529D01*
X832Y527D01*
X828Y527D01*
X828Y525D01*
X824Y525D01*
X824Y523D01*
X818Y523D01*
X818Y521D01*
X1224Y521D01*
X1224Y527D01*
X1222Y527D01*
X1222Y535D01*
X1220Y535D01*
X1220Y541D01*
X1218Y541D01*
X1218Y549D01*
X1216Y549D01*
X1216Y555D01*
X852Y555D01*
G37*
D02*
G36*
X40Y537D02*
X40Y535D01*
X60Y535D01*
X60Y537D01*
X40Y537D01*
G37*
D02*
G36*
X40Y535D02*
X40Y533D01*
X156Y533D01*
X156Y535D01*
X40Y535D01*
G37*
D02*
G36*
X40Y535D02*
X40Y533D01*
X156Y533D01*
X156Y535D01*
X40Y535D01*
G37*
D02*
G36*
X40Y533D02*
X40Y471D01*
X216Y471D01*
X216Y473D01*
X204Y473D01*
X204Y475D01*
X198Y475D01*
X198Y477D01*
X194Y477D01*
X194Y479D01*
X190Y479D01*
X190Y481D01*
X186Y481D01*
X186Y483D01*
X182Y483D01*
X182Y485D01*
X180Y485D01*
X180Y487D01*
X178Y487D01*
X178Y489D01*
X176Y489D01*
X176Y491D01*
X174Y491D01*
X174Y493D01*
X172Y493D01*
X172Y495D01*
X170Y495D01*
X170Y497D01*
X168Y497D01*
X168Y501D01*
X166Y501D01*
X166Y505D01*
X164Y505D01*
X164Y509D01*
X162Y509D01*
X162Y513D01*
X160Y513D01*
X160Y519D01*
X158Y519D01*
X158Y531D01*
X156Y531D01*
X156Y533D01*
X40Y533D01*
G37*
D02*
G36*
X282Y533D02*
X282Y531D01*
X460Y531D01*
X460Y533D01*
X282Y533D01*
G37*
D02*
G36*
X282Y533D02*
X282Y531D01*
X460Y531D01*
X460Y533D01*
X282Y533D01*
G37*
D02*
G36*
X756Y533D02*
X756Y531D01*
X758Y531D01*
X758Y527D01*
X760Y527D01*
X760Y525D01*
X762Y525D01*
X762Y521D01*
X794Y521D01*
X794Y523D01*
X788Y523D01*
X788Y525D01*
X784Y525D01*
X784Y527D01*
X780Y527D01*
X780Y529D01*
X778Y529D01*
X778Y531D01*
X776Y531D01*
X776Y533D01*
X756Y533D01*
G37*
D02*
G36*
X282Y531D02*
X282Y519D01*
X280Y519D01*
X280Y513D01*
X278Y513D01*
X278Y509D01*
X276Y509D01*
X276Y505D01*
X274Y505D01*
X274Y501D01*
X272Y501D01*
X272Y497D01*
X270Y497D01*
X270Y495D01*
X268Y495D01*
X268Y493D01*
X266Y493D01*
X266Y491D01*
X264Y491D01*
X264Y489D01*
X262Y489D01*
X262Y487D01*
X260Y487D01*
X260Y485D01*
X258Y485D01*
X258Y483D01*
X254Y483D01*
X254Y481D01*
X250Y481D01*
X250Y479D01*
X246Y479D01*
X246Y477D01*
X242Y477D01*
X242Y475D01*
X236Y475D01*
X236Y473D01*
X224Y473D01*
X224Y471D01*
X434Y471D01*
X434Y487D01*
X436Y487D01*
X436Y507D01*
X438Y507D01*
X438Y513D01*
X440Y513D01*
X440Y515D01*
X442Y515D01*
X442Y517D01*
X444Y517D01*
X444Y519D01*
X446Y519D01*
X446Y521D01*
X450Y521D01*
X450Y523D01*
X456Y523D01*
X456Y525D01*
X460Y525D01*
X460Y531D01*
X282Y531D01*
G37*
D02*
G36*
X764Y521D02*
X764Y519D01*
X1224Y519D01*
X1224Y521D01*
X764Y521D01*
G37*
D02*
G36*
X764Y521D02*
X764Y519D01*
X1224Y519D01*
X1224Y521D01*
X764Y521D01*
G37*
D02*
G36*
X764Y519D02*
X764Y517D01*
X766Y517D01*
X766Y509D01*
X768Y509D01*
X768Y491D01*
X766Y491D01*
X766Y483D01*
X764Y483D01*
X764Y479D01*
X762Y479D01*
X762Y475D01*
X760Y475D01*
X760Y473D01*
X758Y473D01*
X758Y469D01*
X756Y469D01*
X756Y467D01*
X754Y467D01*
X754Y465D01*
X752Y465D01*
X752Y463D01*
X748Y463D01*
X748Y461D01*
X746Y461D01*
X746Y459D01*
X742Y459D01*
X742Y457D01*
X738Y457D01*
X738Y455D01*
X732Y455D01*
X732Y453D01*
X1244Y453D01*
X1244Y455D01*
X1242Y455D01*
X1242Y461D01*
X1240Y461D01*
X1240Y469D01*
X1238Y469D01*
X1238Y477D01*
X1236Y477D01*
X1236Y483D01*
X1234Y483D01*
X1234Y491D01*
X1232Y491D01*
X1232Y497D01*
X1230Y497D01*
X1230Y505D01*
X1228Y505D01*
X1228Y513D01*
X1226Y513D01*
X1226Y519D01*
X764Y519D01*
G37*
D02*
G36*
X40Y471D02*
X40Y469D01*
X434Y469D01*
X434Y471D01*
X40Y471D01*
G37*
D02*
G36*
X40Y471D02*
X40Y469D01*
X434Y469D01*
X434Y471D01*
X40Y471D01*
G37*
D02*
G36*
X40Y469D02*
X40Y443D01*
X346Y443D01*
X346Y347D01*
X334Y347D01*
X334Y325D01*
X336Y325D01*
X336Y323D01*
X338Y323D01*
X338Y321D01*
X340Y321D01*
X340Y317D01*
X342Y317D01*
X342Y313D01*
X344Y313D01*
X344Y305D01*
X346Y305D01*
X346Y285D01*
X344Y285D01*
X344Y277D01*
X342Y277D01*
X342Y273D01*
X340Y273D01*
X340Y269D01*
X338Y269D01*
X338Y267D01*
X336Y267D01*
X336Y265D01*
X334Y265D01*
X334Y261D01*
X330Y261D01*
X330Y259D01*
X328Y259D01*
X328Y257D01*
X326Y257D01*
X326Y255D01*
X322Y255D01*
X322Y235D01*
X326Y235D01*
X326Y233D01*
X328Y233D01*
X328Y231D01*
X330Y231D01*
X330Y229D01*
X334Y229D01*
X334Y225D01*
X336Y225D01*
X336Y223D01*
X338Y223D01*
X338Y221D01*
X340Y221D01*
X340Y217D01*
X342Y217D01*
X342Y213D01*
X344Y213D01*
X344Y205D01*
X346Y205D01*
X346Y185D01*
X344Y185D01*
X344Y177D01*
X342Y177D01*
X342Y173D01*
X340Y173D01*
X340Y169D01*
X338Y169D01*
X338Y167D01*
X336Y167D01*
X336Y165D01*
X334Y165D01*
X334Y161D01*
X330Y161D01*
X330Y159D01*
X328Y159D01*
X328Y157D01*
X326Y157D01*
X326Y155D01*
X322Y155D01*
X322Y135D01*
X326Y135D01*
X326Y133D01*
X328Y133D01*
X328Y131D01*
X330Y131D01*
X330Y129D01*
X334Y129D01*
X334Y125D01*
X336Y125D01*
X336Y123D01*
X338Y123D01*
X338Y121D01*
X340Y121D01*
X340Y117D01*
X342Y117D01*
X342Y113D01*
X344Y113D01*
X344Y105D01*
X346Y105D01*
X346Y85D01*
X344Y85D01*
X344Y77D01*
X342Y77D01*
X342Y73D01*
X340Y73D01*
X340Y69D01*
X338Y69D01*
X338Y67D01*
X336Y67D01*
X336Y65D01*
X334Y65D01*
X334Y61D01*
X330Y61D01*
X330Y41D01*
X420Y41D01*
X420Y61D01*
X416Y61D01*
X416Y63D01*
X410Y63D01*
X410Y65D01*
X406Y65D01*
X406Y67D01*
X404Y67D01*
X404Y69D01*
X402Y69D01*
X402Y71D01*
X400Y71D01*
X400Y75D01*
X398Y75D01*
X398Y81D01*
X396Y81D01*
X396Y87D01*
X398Y87D01*
X398Y109D01*
X400Y109D01*
X400Y129D01*
X402Y129D01*
X402Y151D01*
X404Y151D01*
X404Y171D01*
X406Y171D01*
X406Y193D01*
X408Y193D01*
X408Y213D01*
X410Y213D01*
X410Y235D01*
X412Y235D01*
X412Y255D01*
X414Y255D01*
X414Y277D01*
X416Y277D01*
X416Y297D01*
X418Y297D01*
X418Y319D01*
X420Y319D01*
X420Y339D01*
X422Y339D01*
X422Y361D01*
X424Y361D01*
X424Y381D01*
X426Y381D01*
X426Y403D01*
X428Y403D01*
X428Y423D01*
X430Y423D01*
X430Y445D01*
X432Y445D01*
X432Y465D01*
X434Y465D01*
X434Y469D01*
X40Y469D01*
G37*
D02*
G36*
X476Y453D02*
X476Y451D01*
X1246Y451D01*
X1246Y453D01*
X476Y453D01*
G37*
D02*
G36*
X476Y453D02*
X476Y451D01*
X1246Y451D01*
X1246Y453D01*
X476Y453D01*
G37*
D02*
G36*
X476Y451D02*
X476Y443D01*
X606Y443D01*
X606Y441D01*
X614Y441D01*
X614Y439D01*
X618Y439D01*
X618Y437D01*
X622Y437D01*
X622Y435D01*
X626Y435D01*
X626Y433D01*
X628Y433D01*
X628Y431D01*
X630Y431D01*
X630Y429D01*
X634Y429D01*
X634Y425D01*
X636Y425D01*
X636Y423D01*
X638Y423D01*
X638Y421D01*
X640Y421D01*
X640Y417D01*
X642Y417D01*
X642Y413D01*
X644Y413D01*
X644Y405D01*
X646Y405D01*
X646Y385D01*
X644Y385D01*
X644Y377D01*
X642Y377D01*
X642Y373D01*
X640Y373D01*
X640Y369D01*
X638Y369D01*
X638Y367D01*
X636Y367D01*
X636Y365D01*
X634Y365D01*
X634Y361D01*
X630Y361D01*
X630Y359D01*
X628Y359D01*
X628Y357D01*
X626Y357D01*
X626Y355D01*
X622Y355D01*
X622Y351D01*
X1536Y351D01*
X1536Y349D01*
X1542Y349D01*
X1542Y347D01*
X1546Y347D01*
X1546Y345D01*
X1550Y345D01*
X1550Y343D01*
X1552Y343D01*
X1552Y341D01*
X1556Y341D01*
X1556Y339D01*
X1558Y339D01*
X1558Y337D01*
X1560Y337D01*
X1560Y335D01*
X1562Y335D01*
X1562Y331D01*
X1564Y331D01*
X1564Y329D01*
X1584Y329D01*
X1584Y331D01*
X1586Y331D01*
X1586Y333D01*
X1588Y333D01*
X1588Y335D01*
X1590Y335D01*
X1590Y337D01*
X1592Y337D01*
X1592Y339D01*
X1594Y339D01*
X1594Y341D01*
X1596Y341D01*
X1596Y343D01*
X1600Y343D01*
X1600Y345D01*
X1602Y345D01*
X1602Y347D01*
X1606Y347D01*
X1606Y349D01*
X1614Y349D01*
X1614Y351D01*
X1644Y351D01*
X1644Y367D01*
X1642Y367D01*
X1642Y369D01*
X1640Y369D01*
X1640Y371D01*
X1638Y371D01*
X1638Y375D01*
X1636Y375D01*
X1636Y377D01*
X1634Y377D01*
X1634Y379D01*
X1632Y379D01*
X1632Y381D01*
X1630Y381D01*
X1630Y383D01*
X1628Y383D01*
X1628Y385D01*
X1624Y385D01*
X1624Y387D01*
X1612Y387D01*
X1612Y389D01*
X1600Y389D01*
X1600Y391D01*
X1588Y391D01*
X1588Y393D01*
X1574Y393D01*
X1574Y395D01*
X1562Y395D01*
X1562Y397D01*
X1550Y397D01*
X1550Y399D01*
X1536Y399D01*
X1536Y401D01*
X1524Y401D01*
X1524Y403D01*
X1512Y403D01*
X1512Y405D01*
X1498Y405D01*
X1498Y407D01*
X1486Y407D01*
X1486Y409D01*
X1474Y409D01*
X1474Y411D01*
X1460Y411D01*
X1460Y413D01*
X1448Y413D01*
X1448Y415D01*
X1436Y415D01*
X1436Y417D01*
X1424Y417D01*
X1424Y419D01*
X1410Y419D01*
X1410Y421D01*
X1398Y421D01*
X1398Y423D01*
X1386Y423D01*
X1386Y425D01*
X1372Y425D01*
X1372Y427D01*
X1360Y427D01*
X1360Y429D01*
X1348Y429D01*
X1348Y431D01*
X1334Y431D01*
X1334Y433D01*
X1322Y433D01*
X1322Y435D01*
X1310Y435D01*
X1310Y437D01*
X1298Y437D01*
X1298Y439D01*
X1284Y439D01*
X1284Y441D01*
X1272Y441D01*
X1272Y443D01*
X1260Y443D01*
X1260Y445D01*
X1254Y445D01*
X1254Y447D01*
X1250Y447D01*
X1250Y449D01*
X1248Y449D01*
X1248Y451D01*
X476Y451D01*
G37*
D02*
G36*
X40Y443D02*
X40Y435D01*
X224Y435D01*
X224Y343D01*
X226Y343D01*
X226Y339D01*
X228Y339D01*
X228Y337D01*
X230Y337D01*
X230Y333D01*
X232Y333D01*
X232Y317D01*
X256Y317D01*
X256Y319D01*
X258Y319D01*
X258Y321D01*
X260Y321D01*
X260Y323D01*
X262Y323D01*
X262Y325D01*
X264Y325D01*
X264Y347D01*
X252Y347D01*
X252Y443D01*
X40Y443D01*
G37*
D02*
G36*
X474Y443D02*
X474Y421D01*
X472Y421D01*
X472Y401D01*
X470Y401D01*
X470Y379D01*
X468Y379D01*
X468Y359D01*
X466Y359D01*
X466Y337D01*
X464Y337D01*
X464Y317D01*
X462Y317D01*
X462Y295D01*
X460Y295D01*
X460Y275D01*
X458Y275D01*
X458Y253D01*
X456Y253D01*
X456Y233D01*
X454Y233D01*
X454Y211D01*
X452Y211D01*
X452Y191D01*
X450Y191D01*
X450Y169D01*
X448Y169D01*
X448Y149D01*
X446Y149D01*
X446Y127D01*
X444Y127D01*
X444Y97D01*
X448Y97D01*
X448Y95D01*
X452Y95D01*
X452Y93D01*
X458Y93D01*
X458Y91D01*
X462Y91D01*
X462Y89D01*
X466Y89D01*
X466Y87D01*
X472Y87D01*
X472Y85D01*
X476Y85D01*
X476Y83D01*
X480Y83D01*
X480Y81D01*
X486Y81D01*
X486Y79D01*
X490Y79D01*
X490Y77D01*
X494Y77D01*
X494Y75D01*
X500Y75D01*
X500Y73D01*
X504Y73D01*
X504Y71D01*
X510Y71D01*
X510Y69D01*
X514Y69D01*
X514Y67D01*
X518Y67D01*
X518Y65D01*
X524Y65D01*
X524Y63D01*
X528Y63D01*
X528Y61D01*
X532Y61D01*
X532Y59D01*
X556Y59D01*
X556Y77D01*
X554Y77D01*
X554Y83D01*
X552Y83D01*
X552Y107D01*
X554Y107D01*
X554Y113D01*
X556Y113D01*
X556Y117D01*
X558Y117D01*
X558Y121D01*
X560Y121D01*
X560Y123D01*
X562Y123D01*
X562Y125D01*
X564Y125D01*
X564Y129D01*
X568Y129D01*
X568Y131D01*
X570Y131D01*
X570Y133D01*
X572Y133D01*
X572Y135D01*
X576Y135D01*
X576Y155D01*
X572Y155D01*
X572Y157D01*
X570Y157D01*
X570Y159D01*
X568Y159D01*
X568Y161D01*
X564Y161D01*
X564Y165D01*
X562Y165D01*
X562Y167D01*
X560Y167D01*
X560Y169D01*
X558Y169D01*
X558Y173D01*
X556Y173D01*
X556Y177D01*
X554Y177D01*
X554Y183D01*
X552Y183D01*
X552Y207D01*
X554Y207D01*
X554Y213D01*
X556Y213D01*
X556Y217D01*
X558Y217D01*
X558Y221D01*
X560Y221D01*
X560Y223D01*
X562Y223D01*
X562Y225D01*
X564Y225D01*
X564Y229D01*
X568Y229D01*
X568Y231D01*
X570Y231D01*
X570Y233D01*
X572Y233D01*
X572Y235D01*
X576Y235D01*
X576Y255D01*
X572Y255D01*
X572Y257D01*
X570Y257D01*
X570Y259D01*
X568Y259D01*
X568Y261D01*
X564Y261D01*
X564Y265D01*
X562Y265D01*
X562Y267D01*
X560Y267D01*
X560Y269D01*
X558Y269D01*
X558Y273D01*
X556Y273D01*
X556Y277D01*
X554Y277D01*
X554Y283D01*
X552Y283D01*
X552Y307D01*
X554Y307D01*
X554Y313D01*
X556Y313D01*
X556Y317D01*
X558Y317D01*
X558Y321D01*
X560Y321D01*
X560Y323D01*
X562Y323D01*
X562Y325D01*
X564Y325D01*
X564Y329D01*
X568Y329D01*
X568Y331D01*
X570Y331D01*
X570Y333D01*
X572Y333D01*
X572Y335D01*
X576Y335D01*
X576Y355D01*
X572Y355D01*
X572Y357D01*
X570Y357D01*
X570Y359D01*
X568Y359D01*
X568Y361D01*
X564Y361D01*
X564Y365D01*
X562Y365D01*
X562Y367D01*
X560Y367D01*
X560Y369D01*
X558Y369D01*
X558Y373D01*
X556Y373D01*
X556Y377D01*
X554Y377D01*
X554Y383D01*
X552Y383D01*
X552Y407D01*
X554Y407D01*
X554Y413D01*
X556Y413D01*
X556Y417D01*
X558Y417D01*
X558Y421D01*
X560Y421D01*
X560Y423D01*
X562Y423D01*
X562Y425D01*
X564Y425D01*
X564Y429D01*
X568Y429D01*
X568Y431D01*
X570Y431D01*
X570Y433D01*
X572Y433D01*
X572Y435D01*
X576Y435D01*
X576Y437D01*
X580Y437D01*
X580Y439D01*
X584Y439D01*
X584Y441D01*
X592Y441D01*
X592Y443D01*
X474Y443D01*
G37*
D02*
G36*
X40Y435D02*
X40Y301D01*
X210Y301D01*
X210Y303D01*
X202Y303D01*
X202Y305D01*
X198Y305D01*
X198Y307D01*
X196Y307D01*
X196Y309D01*
X194Y309D01*
X194Y311D01*
X192Y311D01*
X192Y315D01*
X190Y315D01*
X190Y317D01*
X188Y317D01*
X188Y321D01*
X186Y321D01*
X186Y323D01*
X184Y323D01*
X184Y327D01*
X182Y327D01*
X182Y329D01*
X180Y329D01*
X180Y331D01*
X172Y331D01*
X172Y333D01*
X122Y333D01*
X122Y435D01*
X40Y435D01*
G37*
D02*
G36*
X622Y351D02*
X622Y335D01*
X626Y335D01*
X626Y333D01*
X628Y333D01*
X628Y331D01*
X630Y331D01*
X630Y329D01*
X634Y329D01*
X634Y325D01*
X636Y325D01*
X636Y323D01*
X638Y323D01*
X638Y321D01*
X640Y321D01*
X640Y317D01*
X642Y317D01*
X642Y313D01*
X644Y313D01*
X644Y305D01*
X646Y305D01*
X646Y283D01*
X650Y283D01*
X650Y281D01*
X652Y281D01*
X652Y279D01*
X654Y279D01*
X654Y277D01*
X656Y277D01*
X656Y275D01*
X660Y275D01*
X660Y273D01*
X662Y273D01*
X662Y271D01*
X664Y271D01*
X664Y269D01*
X666Y269D01*
X666Y267D01*
X668Y267D01*
X668Y265D01*
X672Y265D01*
X672Y263D01*
X674Y263D01*
X674Y261D01*
X676Y261D01*
X676Y259D01*
X678Y259D01*
X678Y257D01*
X680Y257D01*
X680Y255D01*
X684Y255D01*
X684Y253D01*
X686Y253D01*
X686Y251D01*
X688Y251D01*
X688Y249D01*
X690Y249D01*
X690Y247D01*
X694Y247D01*
X694Y245D01*
X696Y245D01*
X696Y243D01*
X698Y243D01*
X698Y241D01*
X700Y241D01*
X700Y239D01*
X702Y239D01*
X702Y235D01*
X704Y235D01*
X704Y231D01*
X706Y231D01*
X706Y225D01*
X708Y225D01*
X708Y217D01*
X710Y217D01*
X710Y215D01*
X816Y215D01*
X816Y213D01*
X822Y213D01*
X822Y211D01*
X828Y211D01*
X828Y209D01*
X830Y209D01*
X830Y207D01*
X834Y207D01*
X834Y205D01*
X836Y205D01*
X836Y203D01*
X838Y203D01*
X838Y201D01*
X840Y201D01*
X840Y199D01*
X842Y199D01*
X842Y197D01*
X844Y197D01*
X844Y195D01*
X846Y195D01*
X846Y191D01*
X848Y191D01*
X848Y187D01*
X850Y187D01*
X850Y183D01*
X852Y183D01*
X852Y173D01*
X854Y173D01*
X854Y161D01*
X852Y161D01*
X852Y153D01*
X850Y153D01*
X850Y147D01*
X848Y147D01*
X848Y145D01*
X846Y145D01*
X846Y141D01*
X844Y141D01*
X844Y139D01*
X842Y139D01*
X842Y135D01*
X840Y135D01*
X840Y133D01*
X836Y133D01*
X836Y131D01*
X834Y131D01*
X834Y129D01*
X832Y129D01*
X832Y127D01*
X828Y127D01*
X828Y125D01*
X824Y125D01*
X824Y123D01*
X818Y123D01*
X818Y121D01*
X884Y121D01*
X884Y123D01*
X886Y123D01*
X886Y125D01*
X888Y125D01*
X888Y129D01*
X890Y129D01*
X890Y131D01*
X892Y131D01*
X892Y133D01*
X894Y133D01*
X894Y135D01*
X896Y135D01*
X896Y137D01*
X900Y137D01*
X900Y139D01*
X902Y139D01*
X902Y141D01*
X904Y141D01*
X904Y261D01*
X902Y261D01*
X902Y263D01*
X900Y263D01*
X900Y265D01*
X896Y265D01*
X896Y267D01*
X894Y267D01*
X894Y269D01*
X892Y269D01*
X892Y271D01*
X890Y271D01*
X890Y273D01*
X888Y273D01*
X888Y275D01*
X886Y275D01*
X886Y279D01*
X884Y279D01*
X884Y281D01*
X882Y281D01*
X882Y285D01*
X880Y285D01*
X880Y291D01*
X878Y291D01*
X878Y317D01*
X880Y317D01*
X880Y323D01*
X882Y323D01*
X882Y327D01*
X884Y327D01*
X884Y331D01*
X886Y331D01*
X886Y333D01*
X888Y333D01*
X888Y335D01*
X890Y335D01*
X890Y337D01*
X892Y337D01*
X892Y339D01*
X894Y339D01*
X894Y341D01*
X896Y341D01*
X896Y343D01*
X900Y343D01*
X900Y345D01*
X902Y345D01*
X902Y347D01*
X906Y347D01*
X906Y349D01*
X914Y349D01*
X914Y351D01*
X622Y351D01*
G37*
D02*
G36*
X936Y351D02*
X936Y349D01*
X942Y349D01*
X942Y347D01*
X946Y347D01*
X946Y345D01*
X950Y345D01*
X950Y343D01*
X952Y343D01*
X952Y341D01*
X956Y341D01*
X956Y339D01*
X958Y339D01*
X958Y337D01*
X960Y337D01*
X960Y335D01*
X962Y335D01*
X962Y331D01*
X964Y331D01*
X964Y329D01*
X984Y329D01*
X984Y331D01*
X986Y331D01*
X986Y333D01*
X988Y333D01*
X988Y335D01*
X990Y335D01*
X990Y337D01*
X992Y337D01*
X992Y339D01*
X994Y339D01*
X994Y341D01*
X996Y341D01*
X996Y343D01*
X1000Y343D01*
X1000Y345D01*
X1002Y345D01*
X1002Y347D01*
X1006Y347D01*
X1006Y349D01*
X1014Y349D01*
X1014Y351D01*
X936Y351D01*
G37*
D02*
G36*
X1036Y351D02*
X1036Y349D01*
X1042Y349D01*
X1042Y347D01*
X1046Y347D01*
X1046Y345D01*
X1050Y345D01*
X1050Y343D01*
X1052Y343D01*
X1052Y341D01*
X1056Y341D01*
X1056Y339D01*
X1058Y339D01*
X1058Y337D01*
X1060Y337D01*
X1060Y335D01*
X1062Y335D01*
X1062Y331D01*
X1064Y331D01*
X1064Y329D01*
X1084Y329D01*
X1084Y331D01*
X1086Y331D01*
X1086Y333D01*
X1088Y333D01*
X1088Y335D01*
X1090Y335D01*
X1090Y337D01*
X1092Y337D01*
X1092Y339D01*
X1094Y339D01*
X1094Y341D01*
X1096Y341D01*
X1096Y343D01*
X1100Y343D01*
X1100Y345D01*
X1102Y345D01*
X1102Y347D01*
X1106Y347D01*
X1106Y349D01*
X1114Y349D01*
X1114Y351D01*
X1036Y351D01*
G37*
D02*
G36*
X1136Y351D02*
X1136Y349D01*
X1142Y349D01*
X1142Y347D01*
X1146Y347D01*
X1146Y345D01*
X1150Y345D01*
X1150Y343D01*
X1152Y343D01*
X1152Y341D01*
X1156Y341D01*
X1156Y339D01*
X1158Y339D01*
X1158Y337D01*
X1160Y337D01*
X1160Y335D01*
X1162Y335D01*
X1162Y331D01*
X1164Y331D01*
X1164Y329D01*
X1184Y329D01*
X1184Y331D01*
X1186Y331D01*
X1186Y333D01*
X1188Y333D01*
X1188Y335D01*
X1190Y335D01*
X1190Y337D01*
X1192Y337D01*
X1192Y339D01*
X1194Y339D01*
X1194Y341D01*
X1196Y341D01*
X1196Y343D01*
X1200Y343D01*
X1200Y345D01*
X1202Y345D01*
X1202Y347D01*
X1206Y347D01*
X1206Y349D01*
X1214Y349D01*
X1214Y351D01*
X1136Y351D01*
G37*
D02*
G36*
X1236Y351D02*
X1236Y349D01*
X1242Y349D01*
X1242Y347D01*
X1246Y347D01*
X1246Y345D01*
X1250Y345D01*
X1250Y343D01*
X1252Y343D01*
X1252Y341D01*
X1256Y341D01*
X1256Y339D01*
X1258Y339D01*
X1258Y337D01*
X1260Y337D01*
X1260Y335D01*
X1262Y335D01*
X1262Y331D01*
X1264Y331D01*
X1264Y329D01*
X1284Y329D01*
X1284Y331D01*
X1286Y331D01*
X1286Y333D01*
X1288Y333D01*
X1288Y335D01*
X1290Y335D01*
X1290Y337D01*
X1292Y337D01*
X1292Y339D01*
X1294Y339D01*
X1294Y341D01*
X1296Y341D01*
X1296Y343D01*
X1300Y343D01*
X1300Y345D01*
X1302Y345D01*
X1302Y347D01*
X1306Y347D01*
X1306Y349D01*
X1314Y349D01*
X1314Y351D01*
X1236Y351D01*
G37*
D02*
G36*
X1336Y351D02*
X1336Y349D01*
X1342Y349D01*
X1342Y347D01*
X1346Y347D01*
X1346Y345D01*
X1350Y345D01*
X1350Y343D01*
X1352Y343D01*
X1352Y341D01*
X1356Y341D01*
X1356Y339D01*
X1358Y339D01*
X1358Y337D01*
X1360Y337D01*
X1360Y335D01*
X1362Y335D01*
X1362Y331D01*
X1364Y331D01*
X1364Y329D01*
X1384Y329D01*
X1384Y331D01*
X1386Y331D01*
X1386Y333D01*
X1388Y333D01*
X1388Y335D01*
X1390Y335D01*
X1390Y337D01*
X1392Y337D01*
X1392Y339D01*
X1394Y339D01*
X1394Y341D01*
X1396Y341D01*
X1396Y343D01*
X1400Y343D01*
X1400Y345D01*
X1402Y345D01*
X1402Y347D01*
X1406Y347D01*
X1406Y349D01*
X1414Y349D01*
X1414Y351D01*
X1336Y351D01*
G37*
D02*
G36*
X1436Y351D02*
X1436Y349D01*
X1442Y349D01*
X1442Y347D01*
X1446Y347D01*
X1446Y345D01*
X1450Y345D01*
X1450Y343D01*
X1452Y343D01*
X1452Y341D01*
X1456Y341D01*
X1456Y339D01*
X1458Y339D01*
X1458Y337D01*
X1460Y337D01*
X1460Y335D01*
X1462Y335D01*
X1462Y331D01*
X1464Y331D01*
X1464Y329D01*
X1484Y329D01*
X1484Y331D01*
X1486Y331D01*
X1486Y333D01*
X1488Y333D01*
X1488Y335D01*
X1490Y335D01*
X1490Y337D01*
X1492Y337D01*
X1492Y339D01*
X1494Y339D01*
X1494Y341D01*
X1496Y341D01*
X1496Y343D01*
X1500Y343D01*
X1500Y345D01*
X1502Y345D01*
X1502Y347D01*
X1506Y347D01*
X1506Y349D01*
X1514Y349D01*
X1514Y351D01*
X1436Y351D01*
G37*
D02*
G36*
X212Y303D02*
X212Y301D01*
X236Y301D01*
X236Y303D01*
X212Y303D01*
G37*
D02*
G36*
X40Y301D02*
X40Y299D01*
X236Y299D01*
X236Y301D01*
X40Y301D01*
G37*
D02*
G36*
X40Y301D02*
X40Y299D01*
X236Y299D01*
X236Y301D01*
X40Y301D01*
G37*
D02*
G36*
X40Y299D02*
X40Y229D01*
X82Y229D01*
X82Y227D01*
X88Y227D01*
X88Y225D01*
X92Y225D01*
X92Y223D01*
X94Y223D01*
X94Y221D01*
X98Y221D01*
X98Y219D01*
X100Y219D01*
X100Y217D01*
X102Y217D01*
X102Y215D01*
X104Y215D01*
X104Y213D01*
X106Y213D01*
X106Y211D01*
X108Y211D01*
X108Y207D01*
X110Y207D01*
X110Y205D01*
X112Y205D01*
X112Y201D01*
X114Y201D01*
X114Y193D01*
X116Y193D01*
X116Y171D01*
X114Y171D01*
X114Y165D01*
X112Y165D01*
X112Y161D01*
X110Y161D01*
X110Y157D01*
X108Y157D01*
X108Y155D01*
X106Y155D01*
X106Y151D01*
X104Y151D01*
X104Y149D01*
X102Y149D01*
X102Y147D01*
X100Y147D01*
X100Y145D01*
X96Y145D01*
X96Y143D01*
X94Y143D01*
X94Y141D01*
X90Y141D01*
X90Y139D01*
X86Y139D01*
X86Y137D01*
X78Y137D01*
X78Y135D01*
X186Y135D01*
X186Y133D01*
X192Y133D01*
X192Y131D01*
X196Y131D01*
X196Y129D01*
X200Y129D01*
X200Y127D01*
X204Y127D01*
X204Y125D01*
X206Y125D01*
X206Y123D01*
X208Y123D01*
X208Y121D01*
X210Y121D01*
X210Y119D01*
X212Y119D01*
X212Y117D01*
X214Y117D01*
X214Y115D01*
X216Y115D01*
X216Y111D01*
X218Y111D01*
X218Y107D01*
X220Y107D01*
X220Y103D01*
X222Y103D01*
X222Y97D01*
X224Y97D01*
X224Y73D01*
X222Y73D01*
X222Y67D01*
X220Y67D01*
X220Y63D01*
X218Y63D01*
X218Y41D01*
X268Y41D01*
X268Y61D01*
X264Y61D01*
X264Y65D01*
X262Y65D01*
X262Y67D01*
X260Y67D01*
X260Y69D01*
X258Y69D01*
X258Y73D01*
X256Y73D01*
X256Y77D01*
X254Y77D01*
X254Y83D01*
X252Y83D01*
X252Y107D01*
X254Y107D01*
X254Y113D01*
X256Y113D01*
X256Y117D01*
X258Y117D01*
X258Y121D01*
X260Y121D01*
X260Y123D01*
X262Y123D01*
X262Y125D01*
X264Y125D01*
X264Y129D01*
X268Y129D01*
X268Y131D01*
X270Y131D01*
X270Y133D01*
X272Y133D01*
X272Y135D01*
X276Y135D01*
X276Y155D01*
X272Y155D01*
X272Y157D01*
X270Y157D01*
X270Y159D01*
X268Y159D01*
X268Y161D01*
X264Y161D01*
X264Y165D01*
X262Y165D01*
X262Y167D01*
X260Y167D01*
X260Y169D01*
X258Y169D01*
X258Y173D01*
X256Y173D01*
X256Y177D01*
X254Y177D01*
X254Y183D01*
X252Y183D01*
X252Y207D01*
X254Y207D01*
X254Y213D01*
X256Y213D01*
X256Y217D01*
X258Y217D01*
X258Y221D01*
X260Y221D01*
X260Y223D01*
X262Y223D01*
X262Y225D01*
X264Y225D01*
X264Y229D01*
X268Y229D01*
X268Y231D01*
X270Y231D01*
X270Y233D01*
X272Y233D01*
X272Y235D01*
X276Y235D01*
X276Y255D01*
X272Y255D01*
X272Y257D01*
X270Y257D01*
X270Y259D01*
X268Y259D01*
X268Y261D01*
X264Y261D01*
X264Y265D01*
X262Y265D01*
X262Y267D01*
X260Y267D01*
X260Y269D01*
X258Y269D01*
X258Y273D01*
X256Y273D01*
X256Y275D01*
X248Y275D01*
X248Y277D01*
X244Y277D01*
X244Y279D01*
X242Y279D01*
X242Y281D01*
X240Y281D01*
X240Y283D01*
X238Y283D01*
X238Y287D01*
X236Y287D01*
X236Y293D01*
X234Y293D01*
X234Y299D01*
X40Y299D01*
G37*
D02*
G36*
X710Y215D02*
X710Y211D01*
X712Y211D01*
X712Y205D01*
X714Y205D01*
X714Y197D01*
X716Y197D01*
X716Y191D01*
X718Y191D01*
X718Y183D01*
X720Y183D01*
X720Y177D01*
X722Y177D01*
X722Y171D01*
X724Y171D01*
X724Y163D01*
X726Y163D01*
X726Y157D01*
X728Y157D01*
X728Y149D01*
X730Y149D01*
X730Y147D01*
X732Y147D01*
X732Y145D01*
X738Y145D01*
X738Y143D01*
X742Y143D01*
X742Y141D01*
X746Y141D01*
X746Y139D01*
X748Y139D01*
X748Y137D01*
X770Y137D01*
X770Y139D01*
X768Y139D01*
X768Y141D01*
X766Y141D01*
X766Y145D01*
X764Y145D01*
X764Y147D01*
X762Y147D01*
X762Y153D01*
X760Y153D01*
X760Y161D01*
X758Y161D01*
X758Y173D01*
X760Y173D01*
X760Y183D01*
X762Y183D01*
X762Y187D01*
X764Y187D01*
X764Y191D01*
X766Y191D01*
X766Y195D01*
X768Y195D01*
X768Y197D01*
X770Y197D01*
X770Y199D01*
X772Y199D01*
X772Y201D01*
X774Y201D01*
X774Y203D01*
X776Y203D01*
X776Y205D01*
X778Y205D01*
X778Y207D01*
X782Y207D01*
X782Y209D01*
X784Y209D01*
X784Y211D01*
X790Y211D01*
X790Y213D01*
X796Y213D01*
X796Y215D01*
X710Y215D01*
G37*
D02*
G36*
X40Y137D02*
X40Y135D01*
X60Y135D01*
X60Y137D01*
X40Y137D01*
G37*
D02*
G36*
X40Y135D02*
X40Y133D01*
X160Y133D01*
X160Y135D01*
X40Y135D01*
G37*
D02*
G36*
X40Y135D02*
X40Y133D01*
X160Y133D01*
X160Y135D01*
X40Y135D01*
G37*
D02*
G36*
X40Y133D02*
X40Y41D01*
X130Y41D01*
X130Y61D01*
X128Y61D01*
X128Y65D01*
X126Y65D01*
X126Y69D01*
X124Y69D01*
X124Y79D01*
X122Y79D01*
X122Y91D01*
X124Y91D01*
X124Y101D01*
X126Y101D01*
X126Y105D01*
X128Y105D01*
X128Y109D01*
X130Y109D01*
X130Y113D01*
X132Y113D01*
X132Y115D01*
X134Y115D01*
X134Y119D01*
X136Y119D01*
X136Y121D01*
X138Y121D01*
X138Y123D01*
X142Y123D01*
X142Y125D01*
X144Y125D01*
X144Y127D01*
X146Y127D01*
X146Y129D01*
X150Y129D01*
X150Y131D01*
X154Y131D01*
X154Y133D01*
X40Y133D01*
G37*
D02*
G36*
X756Y133D02*
X756Y131D01*
X758Y131D01*
X758Y127D01*
X760Y127D01*
X760Y125D01*
X762Y125D01*
X762Y121D01*
X794Y121D01*
X794Y123D01*
X788Y123D01*
X788Y125D01*
X784Y125D01*
X784Y127D01*
X780Y127D01*
X780Y129D01*
X778Y129D01*
X778Y131D01*
X776Y131D01*
X776Y133D01*
X756Y133D01*
G37*
D02*
G36*
X764Y121D02*
X764Y119D01*
X884Y119D01*
X884Y121D01*
X764Y121D01*
G37*
D02*
G36*
X764Y121D02*
X764Y119D01*
X884Y119D01*
X884Y121D01*
X764Y121D01*
G37*
D02*
G36*
X764Y119D02*
X764Y117D01*
X766Y117D01*
X766Y109D01*
X768Y109D01*
X768Y91D01*
X766Y91D01*
X766Y83D01*
X764Y83D01*
X764Y79D01*
X762Y79D01*
X762Y75D01*
X760Y75D01*
X760Y55D01*
X884Y55D01*
X884Y75D01*
X882Y75D01*
X882Y81D01*
X880Y81D01*
X880Y87D01*
X878Y87D01*
X878Y109D01*
X880Y109D01*
X880Y115D01*
X882Y115D01*
X882Y119D01*
X764Y119D01*
G37*
D02*
G36*
X902Y655D02*
X945Y655D01*
X945Y623D01*
X902Y623D01*
X902Y655D01*
G37*
D02*
G36*
X902Y589D02*
X945Y589D01*
X945Y557D01*
X902Y557D01*
X902Y589D01*
G37*
D02*
G36*
X1300Y655D02*
X1343Y655D01*
X1343Y623D01*
X1300Y623D01*
X1300Y655D01*
G37*
D02*
G36*
X1300Y589D02*
X1343Y589D01*
X1343Y557D01*
X1300Y557D01*
X1300Y589D01*
G37*
D02*
G36*
X1400Y655D02*
X1443Y655D01*
X1443Y623D01*
X1400Y623D01*
X1400Y655D01*
G37*
D02*
G36*
X1400Y589D02*
X1443Y589D01*
X1443Y557D01*
X1400Y557D01*
X1400Y589D01*
G37*
D02*
G36*
X1833Y635D02*
X1874Y635D01*
X1874Y603D01*
X1833Y603D01*
X1833Y635D01*
G37*
D02*
G36*
X1943Y653D02*
X1988Y653D01*
X1988Y621D01*
X1943Y621D01*
X1943Y653D01*
G37*
D02*
G36*
X1984Y624D02*
X2018Y624D01*
X2018Y579D01*
X1984Y579D01*
X1984Y624D01*
G37*
D02*
G36*
X1500Y655D02*
X1543Y655D01*
X1543Y623D01*
X1500Y623D01*
X1500Y655D01*
G37*
D02*
G54D18*
X470Y617D02*
X543Y617D01*
X470Y616D02*
X543Y616D01*
X470Y615D02*
X543Y615D01*
X470Y614D02*
X543Y614D01*
X470Y613D02*
X543Y613D01*
X470Y612D02*
X543Y612D01*
X470Y611D02*
X543Y611D01*
X470Y610D02*
X543Y610D01*
X470Y609D02*
X543Y609D01*
X470Y608D02*
X543Y608D01*
X470Y607D02*
X543Y607D01*
X470Y606D02*
X543Y606D01*
X470Y605D02*
X543Y605D01*
X470Y604D02*
X543Y604D01*
X470Y603D02*
X543Y603D01*
X470Y602D02*
X543Y602D01*
X470Y601D02*
X543Y601D01*
X470Y600D02*
X500Y600D01*
X513Y600D02*
X543Y600D01*
X470Y599D02*
X498Y599D01*
X515Y599D02*
X543Y599D01*
X470Y598D02*
X496Y598D01*
X517Y598D02*
X543Y598D01*
X470Y597D02*
X494Y597D01*
X519Y597D02*
X543Y597D01*
X470Y596D02*
X493Y596D01*
X520Y596D02*
X543Y596D01*
X470Y595D02*
X492Y595D01*
X521Y595D02*
X543Y595D01*
X470Y594D02*
X491Y594D01*
X522Y594D02*
X543Y594D01*
X470Y593D02*
X490Y593D01*
X523Y593D02*
X543Y593D01*
X470Y592D02*
X489Y592D01*
X524Y592D02*
X543Y592D01*
X470Y591D02*
X489Y591D01*
X524Y591D02*
X543Y591D01*
X470Y590D02*
X488Y590D01*
X525Y590D02*
X543Y590D01*
X470Y589D02*
X488Y589D01*
X525Y589D02*
X543Y589D01*
X470Y588D02*
X487Y588D01*
X526Y588D02*
X543Y588D01*
X470Y587D02*
X487Y587D01*
X526Y587D02*
X543Y587D01*
X470Y586D02*
X487Y586D01*
X526Y586D02*
X543Y586D01*
X470Y585D02*
X486Y585D01*
X527Y585D02*
X543Y585D01*
X470Y584D02*
X486Y584D01*
X527Y584D02*
X543Y584D01*
X470Y583D02*
X486Y583D01*
X527Y583D02*
X543Y583D01*
X470Y582D02*
X486Y582D01*
X527Y582D02*
X543Y582D01*
X470Y581D02*
X486Y581D01*
X527Y581D02*
X543Y581D01*
X470Y580D02*
X486Y580D01*
X527Y580D02*
X543Y580D01*
X470Y579D02*
X486Y579D01*
X527Y579D02*
X543Y579D01*
X470Y578D02*
X486Y578D01*
X527Y578D02*
X543Y578D01*
X470Y577D02*
X486Y577D01*
X527Y577D02*
X543Y577D01*
X470Y576D02*
X487Y576D01*
X526Y576D02*
X543Y576D01*
X470Y575D02*
X487Y575D01*
X526Y575D02*
X543Y575D01*
X470Y574D02*
X487Y574D01*
X526Y574D02*
X543Y574D01*
X470Y573D02*
X488Y573D01*
X525Y573D02*
X543Y573D01*
X470Y572D02*
X488Y572D01*
X525Y572D02*
X543Y572D01*
X470Y571D02*
X489Y571D01*
X524Y571D02*
X543Y571D01*
X470Y570D02*
X489Y570D01*
X524Y570D02*
X543Y570D01*
X470Y569D02*
X490Y569D01*
X523Y569D02*
X543Y569D01*
X470Y568D02*
X491Y568D01*
X522Y568D02*
X543Y568D01*
X470Y567D02*
X492Y567D01*
X521Y567D02*
X543Y567D01*
X470Y566D02*
X493Y566D01*
X520Y566D02*
X543Y566D01*
X470Y565D02*
X494Y565D01*
X519Y565D02*
X543Y565D01*
X470Y564D02*
X496Y564D01*
X518Y564D02*
X543Y564D01*
X470Y563D02*
X497Y563D01*
X516Y563D02*
X543Y563D01*
X470Y562D02*
X500Y562D01*
X513Y562D02*
X543Y562D01*
X470Y561D02*
X505Y561D01*
X508Y561D02*
X543Y561D01*
X470Y560D02*
X543Y560D01*
X470Y559D02*
X543Y559D01*
X470Y558D02*
X543Y558D01*
X470Y557D02*
X543Y557D01*
X470Y556D02*
X543Y556D01*
X470Y555D02*
X543Y555D01*
X470Y554D02*
X543Y554D01*
X470Y553D02*
X543Y553D01*
X470Y552D02*
X543Y552D01*
X470Y551D02*
X543Y551D01*
X470Y550D02*
X543Y550D01*
X470Y549D02*
X543Y549D01*
X470Y548D02*
X543Y548D01*
X470Y547D02*
X543Y547D01*
X470Y546D02*
X543Y546D01*
X470Y545D02*
X543Y545D01*
X470Y544D02*
X543Y544D01*
D02*
G04 End of Copper0*
M02*