G04 MADE WITH FRITZING*
G04 WWW.FRITZING.ORG*
G04 DOUBLE SIDED*
G04 HOLES PLATED*
G04 CONTOUR ON CENTER OF CONTOUR VECTOR*
%ASAXBY*%
%FSLAX23Y23*%
%MOIN*%
%OFA0B0*%
%SFA1.0B1.0*%
%ADD10C,0.075000*%
%ADD11C,0.078000*%
%ADD12C,0.074000*%
%ADD13C,0.070000*%
%ADD14C,0.082000*%
%ADD15R,0.075000X0.075000*%
%ADD16R,0.000150X0.000150*%
%ADD17R,0.082000X0.082000*%
%ADD18C,0.024000*%
%ADD19R,0.001000X0.001000*%
%LNCOPPER1*%
G90*
G70*
G54D10*
X469Y368D03*
X146Y262D03*
X1724Y120D03*
G54D11*
X1627Y98D03*
X1527Y98D03*
X1427Y98D03*
X1327Y98D03*
X1227Y98D03*
X1127Y98D03*
X1027Y98D03*
X927Y98D03*
X1969Y100D03*
X1969Y200D03*
X1969Y300D03*
X1969Y400D03*
X1969Y500D03*
X1969Y600D03*
G54D10*
X299Y395D03*
X599Y395D03*
X299Y295D03*
X599Y295D03*
X299Y195D03*
X599Y195D03*
X299Y95D03*
X599Y95D03*
X1725Y604D03*
X1625Y604D03*
X1525Y604D03*
X1425Y604D03*
X1325Y604D03*
X1225Y604D03*
X1125Y604D03*
X1025Y604D03*
X925Y604D03*
X925Y304D03*
X1025Y304D03*
X1125Y304D03*
X1225Y304D03*
X1325Y304D03*
X1425Y304D03*
X1525Y304D03*
X1625Y304D03*
X1725Y304D03*
G54D12*
X507Y581D03*
X397Y581D03*
X507Y581D03*
X397Y581D03*
G54D13*
X1856Y487D03*
X1856Y587D03*
X716Y583D03*
X616Y583D03*
G54D10*
X806Y168D03*
X806Y568D03*
X721Y100D03*
X721Y500D03*
G54D14*
X173Y383D03*
X173Y85D03*
G54D10*
X69Y583D03*
X69Y183D03*
G54D15*
X299Y395D03*
G54D16*
X600Y195D03*
X599Y94D03*
G54D15*
X1725Y604D03*
G54D17*
X173Y384D03*
G54D18*
X1939Y406D02*
X1766Y441D01*
D02*
X882Y193D02*
X833Y177D01*
D02*
X636Y177D02*
X777Y170D01*
D02*
X625Y183D02*
X636Y177D01*
D02*
X1938Y200D02*
X882Y193D01*
D02*
X1766Y441D02*
X1732Y577D01*
D02*
X198Y106D02*
X277Y177D01*
D02*
X660Y657D02*
X629Y605D01*
D02*
X756Y657D02*
X660Y657D01*
D02*
X792Y593D02*
X756Y657D01*
D02*
X372Y225D02*
X325Y206D01*
D02*
X395Y550D02*
X372Y225D01*
D02*
X1941Y312D02*
X1726Y403D01*
D02*
X1882Y490D02*
X1939Y496D01*
D02*
X1726Y403D02*
X1637Y579D01*
D02*
X972Y537D02*
X941Y581D01*
D02*
X1308Y537D02*
X972Y537D01*
D02*
X1318Y577D02*
X1308Y537D01*
D02*
X1396Y604D02*
X1353Y604D01*
D02*
X1496Y604D02*
X1453Y604D01*
D02*
X1939Y597D02*
X1882Y590D01*
D02*
X540Y465D02*
X693Y495D01*
D02*
X540Y129D02*
X540Y465D01*
D02*
X564Y129D02*
X540Y129D01*
D02*
X578Y115D02*
X564Y129D01*
D02*
X68Y323D02*
X146Y367D01*
D02*
X69Y211D02*
X68Y323D01*
D02*
X187Y648D02*
X94Y597D01*
D02*
X432Y648D02*
X187Y648D01*
D02*
X484Y602D02*
X432Y648D01*
G36*
X40Y653D02*
X40Y629D01*
X80Y629D01*
X80Y627D01*
X106Y627D01*
X106Y629D01*
X110Y629D01*
X110Y631D01*
X114Y631D01*
X114Y633D01*
X116Y633D01*
X116Y653D01*
X40Y653D01*
G37*
D02*
G36*
X480Y653D02*
X480Y633D01*
X482Y633D01*
X482Y631D01*
X484Y631D01*
X484Y629D01*
X486Y629D01*
X486Y627D01*
X554Y627D01*
X554Y593D01*
X574Y593D01*
X574Y599D01*
X576Y599D01*
X576Y603D01*
X578Y603D01*
X578Y605D01*
X580Y605D01*
X580Y609D01*
X582Y609D01*
X582Y611D01*
X584Y611D01*
X584Y613D01*
X586Y613D01*
X586Y615D01*
X588Y615D01*
X588Y617D01*
X590Y617D01*
X590Y619D01*
X594Y619D01*
X594Y621D01*
X596Y621D01*
X596Y623D01*
X602Y623D01*
X602Y625D01*
X606Y625D01*
X606Y627D01*
X618Y627D01*
X618Y631D01*
X620Y631D01*
X620Y653D01*
X480Y653D01*
G37*
D02*
G36*
X1772Y653D02*
X1772Y631D01*
X1866Y631D01*
X1866Y629D01*
X1872Y629D01*
X1872Y627D01*
X1876Y627D01*
X1876Y625D01*
X1880Y625D01*
X1880Y623D01*
X1882Y623D01*
X1882Y621D01*
X1884Y621D01*
X1884Y619D01*
X1886Y619D01*
X1886Y617D01*
X1888Y617D01*
X1888Y615D01*
X1890Y615D01*
X1890Y613D01*
X1892Y613D01*
X1892Y611D01*
X1894Y611D01*
X1894Y607D01*
X1896Y607D01*
X1896Y603D01*
X1898Y603D01*
X1898Y599D01*
X1900Y599D01*
X1900Y591D01*
X1920Y591D01*
X1920Y609D01*
X1922Y609D01*
X1922Y615D01*
X1924Y615D01*
X1924Y619D01*
X1926Y619D01*
X1926Y623D01*
X1928Y623D01*
X1928Y627D01*
X1930Y627D01*
X1930Y629D01*
X1932Y629D01*
X1932Y631D01*
X1934Y631D01*
X1934Y633D01*
X1936Y633D01*
X1936Y653D01*
X1772Y653D01*
G37*
D02*
G36*
X1772Y631D02*
X1772Y557D01*
X1764Y557D01*
X1764Y533D01*
X1766Y533D01*
X1766Y525D01*
X1768Y525D01*
X1768Y517D01*
X1770Y517D01*
X1770Y509D01*
X1772Y509D01*
X1772Y501D01*
X1774Y501D01*
X1774Y493D01*
X1776Y493D01*
X1776Y485D01*
X1778Y485D01*
X1778Y477D01*
X1780Y477D01*
X1780Y469D01*
X1782Y469D01*
X1782Y461D01*
X1784Y461D01*
X1784Y459D01*
X1792Y459D01*
X1792Y457D01*
X1814Y457D01*
X1814Y477D01*
X1812Y477D01*
X1812Y497D01*
X1814Y497D01*
X1814Y501D01*
X1816Y501D01*
X1816Y505D01*
X1818Y505D01*
X1818Y509D01*
X1820Y509D01*
X1820Y511D01*
X1822Y511D01*
X1822Y515D01*
X1824Y515D01*
X1824Y517D01*
X1826Y517D01*
X1826Y519D01*
X1828Y519D01*
X1828Y521D01*
X1832Y521D01*
X1832Y523D01*
X1834Y523D01*
X1834Y525D01*
X1838Y525D01*
X1838Y547D01*
X1836Y547D01*
X1836Y549D01*
X1832Y549D01*
X1832Y551D01*
X1830Y551D01*
X1830Y553D01*
X1828Y553D01*
X1828Y555D01*
X1826Y555D01*
X1826Y557D01*
X1824Y557D01*
X1824Y559D01*
X1822Y559D01*
X1822Y561D01*
X1820Y561D01*
X1820Y563D01*
X1818Y563D01*
X1818Y567D01*
X1816Y567D01*
X1816Y571D01*
X1814Y571D01*
X1814Y577D01*
X1812Y577D01*
X1812Y597D01*
X1814Y597D01*
X1814Y601D01*
X1816Y601D01*
X1816Y605D01*
X1818Y605D01*
X1818Y609D01*
X1820Y609D01*
X1820Y611D01*
X1822Y611D01*
X1822Y615D01*
X1824Y615D01*
X1824Y617D01*
X1826Y617D01*
X1826Y619D01*
X1828Y619D01*
X1828Y621D01*
X1832Y621D01*
X1832Y623D01*
X1834Y623D01*
X1834Y625D01*
X1838Y625D01*
X1838Y627D01*
X1842Y627D01*
X1842Y629D01*
X1846Y629D01*
X1846Y631D01*
X1772Y631D01*
G37*
D02*
G36*
X1902Y589D02*
X1902Y581D01*
X1900Y581D01*
X1900Y573D01*
X1898Y573D01*
X1898Y569D01*
X1896Y569D01*
X1896Y565D01*
X1894Y565D01*
X1894Y563D01*
X1892Y563D01*
X1892Y559D01*
X1890Y559D01*
X1890Y557D01*
X1888Y557D01*
X1888Y555D01*
X1886Y555D01*
X1886Y553D01*
X1884Y553D01*
X1884Y551D01*
X1880Y551D01*
X1880Y549D01*
X1878Y549D01*
X1878Y547D01*
X1874Y547D01*
X1874Y527D01*
X1876Y527D01*
X1876Y525D01*
X1878Y525D01*
X1878Y523D01*
X1882Y523D01*
X1882Y521D01*
X1884Y521D01*
X1884Y519D01*
X1886Y519D01*
X1886Y517D01*
X1888Y517D01*
X1888Y515D01*
X1920Y515D01*
X1920Y517D01*
X1924Y517D01*
X1924Y519D01*
X1926Y519D01*
X1926Y523D01*
X1928Y523D01*
X1928Y527D01*
X1930Y527D01*
X1930Y529D01*
X1932Y529D01*
X1932Y531D01*
X1934Y531D01*
X1934Y533D01*
X1936Y533D01*
X1936Y535D01*
X1938Y535D01*
X1938Y537D01*
X1940Y537D01*
X1940Y539D01*
X1942Y539D01*
X1942Y561D01*
X1940Y561D01*
X1940Y563D01*
X1938Y563D01*
X1938Y565D01*
X1936Y565D01*
X1936Y567D01*
X1934Y567D01*
X1934Y569D01*
X1932Y569D01*
X1932Y571D01*
X1930Y571D01*
X1930Y573D01*
X1928Y573D01*
X1928Y577D01*
X1926Y577D01*
X1926Y579D01*
X1924Y579D01*
X1924Y583D01*
X1922Y583D01*
X1922Y589D01*
X1902Y589D01*
G37*
D02*
G36*
X794Y653D02*
X794Y633D01*
X796Y633D01*
X796Y629D01*
X798Y629D01*
X798Y625D01*
X800Y625D01*
X800Y621D01*
X802Y621D01*
X802Y619D01*
X804Y619D01*
X804Y615D01*
X816Y615D01*
X816Y613D01*
X822Y613D01*
X822Y611D01*
X826Y611D01*
X826Y609D01*
X828Y609D01*
X828Y607D01*
X832Y607D01*
X832Y605D01*
X834Y605D01*
X834Y603D01*
X836Y603D01*
X836Y601D01*
X838Y601D01*
X838Y599D01*
X840Y599D01*
X840Y597D01*
X842Y597D01*
X842Y595D01*
X844Y595D01*
X844Y593D01*
X846Y593D01*
X846Y589D01*
X848Y589D01*
X848Y585D01*
X850Y585D01*
X850Y581D01*
X852Y581D01*
X852Y573D01*
X854Y573D01*
X854Y561D01*
X852Y561D01*
X852Y557D01*
X914Y557D01*
X914Y559D01*
X908Y559D01*
X908Y561D01*
X904Y561D01*
X904Y563D01*
X902Y563D01*
X902Y565D01*
X898Y565D01*
X898Y567D01*
X896Y567D01*
X896Y569D01*
X894Y569D01*
X894Y571D01*
X892Y571D01*
X892Y573D01*
X890Y573D01*
X890Y575D01*
X888Y575D01*
X888Y577D01*
X886Y577D01*
X886Y581D01*
X884Y581D01*
X884Y583D01*
X882Y583D01*
X882Y587D01*
X880Y587D01*
X880Y593D01*
X878Y593D01*
X878Y615D01*
X880Y615D01*
X880Y621D01*
X882Y621D01*
X882Y625D01*
X884Y625D01*
X884Y629D01*
X886Y629D01*
X886Y631D01*
X888Y631D01*
X888Y633D01*
X890Y633D01*
X890Y653D01*
X794Y653D01*
G37*
D02*
G36*
X964Y581D02*
X964Y579D01*
X962Y579D01*
X962Y575D01*
X960Y575D01*
X960Y573D01*
X958Y573D01*
X958Y571D01*
X956Y571D01*
X956Y569D01*
X954Y569D01*
X954Y567D01*
X950Y567D01*
X950Y565D01*
X948Y565D01*
X948Y563D01*
X944Y563D01*
X944Y561D01*
X940Y561D01*
X940Y559D01*
X934Y559D01*
X934Y557D01*
X1014Y557D01*
X1014Y559D01*
X1008Y559D01*
X1008Y561D01*
X1004Y561D01*
X1004Y563D01*
X1002Y563D01*
X1002Y565D01*
X998Y565D01*
X998Y567D01*
X996Y567D01*
X996Y569D01*
X994Y569D01*
X994Y571D01*
X992Y571D01*
X992Y573D01*
X990Y573D01*
X990Y575D01*
X988Y575D01*
X988Y577D01*
X986Y577D01*
X986Y581D01*
X964Y581D01*
G37*
D02*
G36*
X1064Y581D02*
X1064Y579D01*
X1062Y579D01*
X1062Y575D01*
X1060Y575D01*
X1060Y573D01*
X1058Y573D01*
X1058Y571D01*
X1056Y571D01*
X1056Y569D01*
X1054Y569D01*
X1054Y567D01*
X1050Y567D01*
X1050Y565D01*
X1048Y565D01*
X1048Y563D01*
X1044Y563D01*
X1044Y561D01*
X1040Y561D01*
X1040Y559D01*
X1034Y559D01*
X1034Y557D01*
X1114Y557D01*
X1114Y559D01*
X1108Y559D01*
X1108Y561D01*
X1104Y561D01*
X1104Y563D01*
X1102Y563D01*
X1102Y565D01*
X1098Y565D01*
X1098Y567D01*
X1096Y567D01*
X1096Y569D01*
X1094Y569D01*
X1094Y571D01*
X1092Y571D01*
X1092Y573D01*
X1090Y573D01*
X1090Y575D01*
X1088Y575D01*
X1088Y577D01*
X1086Y577D01*
X1086Y581D01*
X1064Y581D01*
G37*
D02*
G36*
X1164Y581D02*
X1164Y579D01*
X1162Y579D01*
X1162Y575D01*
X1160Y575D01*
X1160Y573D01*
X1158Y573D01*
X1158Y571D01*
X1156Y571D01*
X1156Y569D01*
X1154Y569D01*
X1154Y567D01*
X1150Y567D01*
X1150Y565D01*
X1148Y565D01*
X1148Y563D01*
X1144Y563D01*
X1144Y561D01*
X1140Y561D01*
X1140Y559D01*
X1134Y559D01*
X1134Y557D01*
X1214Y557D01*
X1214Y559D01*
X1208Y559D01*
X1208Y561D01*
X1204Y561D01*
X1204Y563D01*
X1202Y563D01*
X1202Y565D01*
X1198Y565D01*
X1198Y567D01*
X1196Y567D01*
X1196Y569D01*
X1194Y569D01*
X1194Y571D01*
X1192Y571D01*
X1192Y573D01*
X1190Y573D01*
X1190Y575D01*
X1188Y575D01*
X1188Y577D01*
X1186Y577D01*
X1186Y581D01*
X1164Y581D01*
G37*
D02*
G36*
X1264Y581D02*
X1264Y579D01*
X1262Y579D01*
X1262Y575D01*
X1260Y575D01*
X1260Y573D01*
X1258Y573D01*
X1258Y571D01*
X1256Y571D01*
X1256Y569D01*
X1254Y569D01*
X1254Y567D01*
X1250Y567D01*
X1250Y565D01*
X1248Y565D01*
X1248Y563D01*
X1244Y563D01*
X1244Y561D01*
X1240Y561D01*
X1240Y559D01*
X1234Y559D01*
X1234Y557D01*
X1314Y557D01*
X1314Y559D01*
X1308Y559D01*
X1308Y561D01*
X1304Y561D01*
X1304Y563D01*
X1302Y563D01*
X1302Y565D01*
X1298Y565D01*
X1298Y567D01*
X1296Y567D01*
X1296Y569D01*
X1294Y569D01*
X1294Y571D01*
X1292Y571D01*
X1292Y573D01*
X1290Y573D01*
X1290Y575D01*
X1288Y575D01*
X1288Y577D01*
X1286Y577D01*
X1286Y581D01*
X1264Y581D01*
G37*
D02*
G36*
X1364Y581D02*
X1364Y579D01*
X1362Y579D01*
X1362Y575D01*
X1360Y575D01*
X1360Y573D01*
X1358Y573D01*
X1358Y571D01*
X1356Y571D01*
X1356Y569D01*
X1354Y569D01*
X1354Y567D01*
X1350Y567D01*
X1350Y565D01*
X1348Y565D01*
X1348Y563D01*
X1344Y563D01*
X1344Y561D01*
X1340Y561D01*
X1340Y559D01*
X1334Y559D01*
X1334Y557D01*
X1414Y557D01*
X1414Y559D01*
X1408Y559D01*
X1408Y561D01*
X1404Y561D01*
X1404Y563D01*
X1402Y563D01*
X1402Y565D01*
X1398Y565D01*
X1398Y567D01*
X1396Y567D01*
X1396Y569D01*
X1394Y569D01*
X1394Y571D01*
X1392Y571D01*
X1392Y573D01*
X1390Y573D01*
X1390Y575D01*
X1388Y575D01*
X1388Y577D01*
X1386Y577D01*
X1386Y581D01*
X1364Y581D01*
G37*
D02*
G36*
X1464Y581D02*
X1464Y579D01*
X1462Y579D01*
X1462Y575D01*
X1460Y575D01*
X1460Y573D01*
X1458Y573D01*
X1458Y571D01*
X1456Y571D01*
X1456Y569D01*
X1454Y569D01*
X1454Y567D01*
X1450Y567D01*
X1450Y565D01*
X1448Y565D01*
X1448Y563D01*
X1444Y563D01*
X1444Y561D01*
X1440Y561D01*
X1440Y559D01*
X1434Y559D01*
X1434Y557D01*
X1514Y557D01*
X1514Y559D01*
X1508Y559D01*
X1508Y561D01*
X1504Y561D01*
X1504Y563D01*
X1502Y563D01*
X1502Y565D01*
X1498Y565D01*
X1498Y567D01*
X1496Y567D01*
X1496Y569D01*
X1494Y569D01*
X1494Y571D01*
X1492Y571D01*
X1492Y573D01*
X1490Y573D01*
X1490Y575D01*
X1488Y575D01*
X1488Y577D01*
X1486Y577D01*
X1486Y581D01*
X1464Y581D01*
G37*
D02*
G36*
X1564Y581D02*
X1564Y579D01*
X1562Y579D01*
X1562Y575D01*
X1560Y575D01*
X1560Y573D01*
X1558Y573D01*
X1558Y571D01*
X1556Y571D01*
X1556Y569D01*
X1554Y569D01*
X1554Y567D01*
X1550Y567D01*
X1550Y565D01*
X1548Y565D01*
X1548Y563D01*
X1544Y563D01*
X1544Y561D01*
X1540Y561D01*
X1540Y559D01*
X1534Y559D01*
X1534Y557D01*
X1614Y557D01*
X1614Y559D01*
X1608Y559D01*
X1608Y561D01*
X1604Y561D01*
X1604Y563D01*
X1602Y563D01*
X1602Y565D01*
X1598Y565D01*
X1598Y567D01*
X1596Y567D01*
X1596Y569D01*
X1594Y569D01*
X1594Y571D01*
X1592Y571D01*
X1592Y573D01*
X1590Y573D01*
X1590Y575D01*
X1588Y575D01*
X1588Y577D01*
X1586Y577D01*
X1586Y581D01*
X1564Y581D01*
G37*
D02*
G36*
X554Y571D02*
X554Y537D01*
X610Y537D01*
X610Y539D01*
X602Y539D01*
X602Y541D01*
X598Y541D01*
X598Y543D01*
X594Y543D01*
X594Y545D01*
X592Y545D01*
X592Y547D01*
X590Y547D01*
X590Y549D01*
X588Y549D01*
X588Y551D01*
X586Y551D01*
X586Y553D01*
X584Y553D01*
X584Y555D01*
X582Y555D01*
X582Y557D01*
X580Y557D01*
X580Y559D01*
X578Y559D01*
X578Y563D01*
X576Y563D01*
X576Y567D01*
X574Y567D01*
X574Y571D01*
X554Y571D01*
G37*
D02*
G36*
X440Y565D02*
X440Y561D01*
X438Y561D01*
X438Y557D01*
X436Y557D01*
X436Y555D01*
X434Y555D01*
X434Y553D01*
X432Y553D01*
X432Y549D01*
X430Y549D01*
X430Y547D01*
X428Y547D01*
X428Y545D01*
X424Y545D01*
X424Y543D01*
X422Y543D01*
X422Y541D01*
X420Y541D01*
X420Y539D01*
X416Y539D01*
X416Y533D01*
X460Y533D01*
X460Y565D01*
X440Y565D01*
G37*
D02*
G36*
X656Y565D02*
X656Y561D01*
X654Y561D01*
X654Y559D01*
X652Y559D01*
X652Y557D01*
X650Y557D01*
X650Y553D01*
X648Y553D01*
X648Y551D01*
X646Y551D01*
X646Y549D01*
X642Y549D01*
X642Y547D01*
X640Y547D01*
X640Y545D01*
X638Y545D01*
X638Y543D01*
X634Y543D01*
X634Y541D01*
X630Y541D01*
X630Y539D01*
X622Y539D01*
X622Y537D01*
X688Y537D01*
X688Y551D01*
X686Y551D01*
X686Y553D01*
X684Y553D01*
X684Y555D01*
X682Y555D01*
X682Y557D01*
X680Y557D01*
X680Y559D01*
X678Y559D01*
X678Y563D01*
X676Y563D01*
X676Y565D01*
X656Y565D01*
G37*
D02*
G36*
X852Y557D02*
X852Y555D01*
X1624Y555D01*
X1624Y557D01*
X852Y557D01*
G37*
D02*
G36*
X852Y557D02*
X852Y555D01*
X1624Y555D01*
X1624Y557D01*
X852Y557D01*
G37*
D02*
G36*
X852Y557D02*
X852Y555D01*
X1624Y555D01*
X1624Y557D01*
X852Y557D01*
G37*
D02*
G36*
X852Y557D02*
X852Y555D01*
X1624Y555D01*
X1624Y557D01*
X852Y557D01*
G37*
D02*
G36*
X852Y557D02*
X852Y555D01*
X1624Y555D01*
X1624Y557D01*
X852Y557D01*
G37*
D02*
G36*
X852Y557D02*
X852Y555D01*
X1624Y555D01*
X1624Y557D01*
X852Y557D01*
G37*
D02*
G36*
X852Y557D02*
X852Y555D01*
X1624Y555D01*
X1624Y557D01*
X852Y557D01*
G37*
D02*
G36*
X852Y557D02*
X852Y555D01*
X1624Y555D01*
X1624Y557D01*
X852Y557D01*
G37*
D02*
G36*
X850Y555D02*
X850Y549D01*
X848Y549D01*
X848Y547D01*
X846Y547D01*
X846Y543D01*
X844Y543D01*
X844Y541D01*
X842Y541D01*
X842Y537D01*
X840Y537D01*
X840Y535D01*
X838Y535D01*
X838Y533D01*
X836Y533D01*
X836Y531D01*
X832Y531D01*
X832Y529D01*
X830Y529D01*
X830Y527D01*
X826Y527D01*
X826Y525D01*
X822Y525D01*
X822Y523D01*
X818Y523D01*
X818Y521D01*
X1642Y521D01*
X1642Y523D01*
X1640Y523D01*
X1640Y527D01*
X1638Y527D01*
X1638Y531D01*
X1636Y531D01*
X1636Y535D01*
X1634Y535D01*
X1634Y539D01*
X1632Y539D01*
X1632Y543D01*
X1630Y543D01*
X1630Y547D01*
X1628Y547D01*
X1628Y551D01*
X1626Y551D01*
X1626Y555D01*
X850Y555D01*
G37*
D02*
G36*
X750Y541D02*
X750Y535D01*
X752Y535D01*
X752Y533D01*
X754Y533D01*
X754Y531D01*
X756Y531D01*
X756Y529D01*
X758Y529D01*
X758Y525D01*
X760Y525D01*
X760Y523D01*
X762Y523D01*
X762Y521D01*
X794Y521D01*
X794Y523D01*
X790Y523D01*
X790Y525D01*
X786Y525D01*
X786Y527D01*
X782Y527D01*
X782Y529D01*
X780Y529D01*
X780Y531D01*
X776Y531D01*
X776Y533D01*
X774Y533D01*
X774Y535D01*
X772Y535D01*
X772Y537D01*
X770Y537D01*
X770Y541D01*
X750Y541D01*
G37*
D02*
G36*
X554Y537D02*
X554Y535D01*
X688Y535D01*
X688Y537D01*
X554Y537D01*
G37*
D02*
G36*
X554Y537D02*
X554Y535D01*
X688Y535D01*
X688Y537D01*
X554Y537D01*
G37*
D02*
G36*
X554Y535D02*
X554Y533D01*
X688Y533D01*
X688Y535D01*
X554Y535D01*
G37*
D02*
G36*
X416Y533D02*
X416Y531D01*
X688Y531D01*
X688Y533D01*
X416Y533D01*
G37*
D02*
G36*
X416Y533D02*
X416Y531D01*
X688Y531D01*
X688Y533D01*
X416Y533D01*
G37*
D02*
G36*
X416Y531D02*
X416Y523D01*
X414Y523D01*
X414Y493D01*
X412Y493D01*
X412Y465D01*
X410Y465D01*
X410Y453D01*
X710Y453D01*
X710Y455D01*
X704Y455D01*
X704Y457D01*
X700Y457D01*
X700Y459D01*
X698Y459D01*
X698Y461D01*
X694Y461D01*
X694Y463D01*
X692Y463D01*
X692Y465D01*
X690Y465D01*
X690Y467D01*
X688Y467D01*
X688Y469D01*
X686Y469D01*
X686Y471D01*
X684Y471D01*
X684Y473D01*
X682Y473D01*
X682Y477D01*
X680Y477D01*
X680Y479D01*
X678Y479D01*
X678Y483D01*
X676Y483D01*
X676Y489D01*
X674Y489D01*
X674Y511D01*
X676Y511D01*
X676Y517D01*
X678Y517D01*
X678Y521D01*
X680Y521D01*
X680Y525D01*
X682Y525D01*
X682Y527D01*
X684Y527D01*
X684Y529D01*
X686Y529D01*
X686Y531D01*
X416Y531D01*
G37*
D02*
G36*
X762Y521D02*
X762Y519D01*
X1642Y519D01*
X1642Y521D01*
X762Y521D01*
G37*
D02*
G36*
X762Y521D02*
X762Y519D01*
X1642Y519D01*
X1642Y521D01*
X762Y521D01*
G37*
D02*
G36*
X764Y519D02*
X764Y515D01*
X766Y515D01*
X766Y509D01*
X768Y509D01*
X768Y491D01*
X766Y491D01*
X766Y485D01*
X764Y485D01*
X764Y481D01*
X762Y481D01*
X762Y477D01*
X760Y477D01*
X760Y475D01*
X758Y475D01*
X758Y471D01*
X756Y471D01*
X756Y469D01*
X754Y469D01*
X754Y467D01*
X752Y467D01*
X752Y465D01*
X750Y465D01*
X750Y463D01*
X746Y463D01*
X746Y461D01*
X744Y461D01*
X744Y459D01*
X740Y459D01*
X740Y457D01*
X736Y457D01*
X736Y455D01*
X730Y455D01*
X730Y453D01*
X1676Y453D01*
X1676Y455D01*
X1674Y455D01*
X1674Y459D01*
X1672Y459D01*
X1672Y463D01*
X1670Y463D01*
X1670Y467D01*
X1668Y467D01*
X1668Y471D01*
X1666Y471D01*
X1666Y475D01*
X1664Y475D01*
X1664Y479D01*
X1662Y479D01*
X1662Y483D01*
X1660Y483D01*
X1660Y487D01*
X1658Y487D01*
X1658Y491D01*
X1656Y491D01*
X1656Y495D01*
X1654Y495D01*
X1654Y499D01*
X1652Y499D01*
X1652Y503D01*
X1650Y503D01*
X1650Y507D01*
X1648Y507D01*
X1648Y511D01*
X1646Y511D01*
X1646Y515D01*
X1644Y515D01*
X1644Y519D01*
X764Y519D01*
G37*
D02*
G36*
X410Y453D02*
X410Y451D01*
X1676Y451D01*
X1676Y453D01*
X410Y453D01*
G37*
D02*
G36*
X410Y453D02*
X410Y451D01*
X1676Y451D01*
X1676Y453D01*
X410Y453D01*
G37*
D02*
G36*
X410Y451D02*
X410Y443D01*
X604Y443D01*
X604Y441D01*
X612Y441D01*
X612Y439D01*
X618Y439D01*
X618Y437D01*
X620Y437D01*
X620Y435D01*
X624Y435D01*
X624Y433D01*
X626Y433D01*
X626Y431D01*
X628Y431D01*
X628Y429D01*
X632Y429D01*
X632Y425D01*
X634Y425D01*
X634Y423D01*
X636Y423D01*
X636Y421D01*
X638Y421D01*
X638Y419D01*
X640Y419D01*
X640Y415D01*
X642Y415D01*
X642Y411D01*
X644Y411D01*
X644Y405D01*
X646Y405D01*
X646Y385D01*
X644Y385D01*
X644Y379D01*
X642Y379D01*
X642Y375D01*
X640Y375D01*
X640Y371D01*
X638Y371D01*
X638Y369D01*
X636Y369D01*
X636Y367D01*
X634Y367D01*
X634Y365D01*
X632Y365D01*
X632Y361D01*
X628Y361D01*
X628Y359D01*
X626Y359D01*
X626Y357D01*
X624Y357D01*
X624Y355D01*
X620Y355D01*
X620Y351D01*
X1736Y351D01*
X1736Y349D01*
X1740Y349D01*
X1740Y347D01*
X1744Y347D01*
X1744Y345D01*
X1748Y345D01*
X1748Y343D01*
X1752Y343D01*
X1752Y341D01*
X1754Y341D01*
X1754Y339D01*
X1756Y339D01*
X1756Y337D01*
X1758Y337D01*
X1758Y335D01*
X1760Y335D01*
X1760Y333D01*
X1762Y333D01*
X1762Y329D01*
X1764Y329D01*
X1764Y327D01*
X1766Y327D01*
X1766Y323D01*
X1768Y323D01*
X1768Y319D01*
X1770Y319D01*
X1770Y313D01*
X1772Y313D01*
X1772Y295D01*
X1770Y295D01*
X1770Y289D01*
X1768Y289D01*
X1768Y285D01*
X1766Y285D01*
X1766Y281D01*
X1764Y281D01*
X1764Y279D01*
X1762Y279D01*
X1762Y275D01*
X1760Y275D01*
X1760Y273D01*
X1758Y273D01*
X1758Y271D01*
X1756Y271D01*
X1756Y269D01*
X1754Y269D01*
X1754Y267D01*
X1750Y267D01*
X1750Y265D01*
X1748Y265D01*
X1748Y263D01*
X1744Y263D01*
X1744Y261D01*
X1740Y261D01*
X1740Y259D01*
X1734Y259D01*
X1734Y257D01*
X1942Y257D01*
X1942Y261D01*
X1940Y261D01*
X1940Y263D01*
X1938Y263D01*
X1938Y265D01*
X1936Y265D01*
X1936Y267D01*
X1934Y267D01*
X1934Y269D01*
X1932Y269D01*
X1932Y271D01*
X1930Y271D01*
X1930Y273D01*
X1928Y273D01*
X1928Y277D01*
X1926Y277D01*
X1926Y279D01*
X1924Y279D01*
X1924Y283D01*
X1922Y283D01*
X1922Y289D01*
X1920Y289D01*
X1920Y297D01*
X1916Y297D01*
X1916Y299D01*
X1912Y299D01*
X1912Y301D01*
X1906Y301D01*
X1906Y303D01*
X1902Y303D01*
X1902Y305D01*
X1898Y305D01*
X1898Y307D01*
X1892Y307D01*
X1892Y309D01*
X1888Y309D01*
X1888Y311D01*
X1884Y311D01*
X1884Y313D01*
X1878Y313D01*
X1878Y315D01*
X1874Y315D01*
X1874Y317D01*
X1870Y317D01*
X1870Y319D01*
X1864Y319D01*
X1864Y321D01*
X1860Y321D01*
X1860Y323D01*
X1856Y323D01*
X1856Y325D01*
X1850Y325D01*
X1850Y327D01*
X1846Y327D01*
X1846Y329D01*
X1840Y329D01*
X1840Y331D01*
X1836Y331D01*
X1836Y333D01*
X1832Y333D01*
X1832Y335D01*
X1826Y335D01*
X1826Y337D01*
X1822Y337D01*
X1822Y339D01*
X1818Y339D01*
X1818Y341D01*
X1812Y341D01*
X1812Y343D01*
X1808Y343D01*
X1808Y345D01*
X1804Y345D01*
X1804Y347D01*
X1798Y347D01*
X1798Y349D01*
X1794Y349D01*
X1794Y351D01*
X1790Y351D01*
X1790Y353D01*
X1784Y353D01*
X1784Y355D01*
X1780Y355D01*
X1780Y357D01*
X1776Y357D01*
X1776Y359D01*
X1770Y359D01*
X1770Y361D01*
X1766Y361D01*
X1766Y363D01*
X1760Y363D01*
X1760Y365D01*
X1756Y365D01*
X1756Y367D01*
X1752Y367D01*
X1752Y369D01*
X1746Y369D01*
X1746Y371D01*
X1742Y371D01*
X1742Y373D01*
X1738Y373D01*
X1738Y375D01*
X1732Y375D01*
X1732Y377D01*
X1728Y377D01*
X1728Y379D01*
X1724Y379D01*
X1724Y381D01*
X1718Y381D01*
X1718Y383D01*
X1714Y383D01*
X1714Y385D01*
X1712Y385D01*
X1712Y387D01*
X1710Y387D01*
X1710Y389D01*
X1708Y389D01*
X1708Y391D01*
X1706Y391D01*
X1706Y395D01*
X1704Y395D01*
X1704Y399D01*
X1702Y399D01*
X1702Y403D01*
X1700Y403D01*
X1700Y407D01*
X1698Y407D01*
X1698Y411D01*
X1696Y411D01*
X1696Y415D01*
X1694Y415D01*
X1694Y419D01*
X1692Y419D01*
X1692Y423D01*
X1690Y423D01*
X1690Y427D01*
X1688Y427D01*
X1688Y431D01*
X1686Y431D01*
X1686Y435D01*
X1684Y435D01*
X1684Y439D01*
X1682Y439D01*
X1682Y443D01*
X1680Y443D01*
X1680Y447D01*
X1678Y447D01*
X1678Y451D01*
X410Y451D01*
G37*
D02*
G36*
X410Y443D02*
X410Y437D01*
X408Y437D01*
X408Y409D01*
X406Y409D01*
X406Y381D01*
X404Y381D01*
X404Y351D01*
X402Y351D01*
X402Y323D01*
X400Y323D01*
X400Y295D01*
X398Y295D01*
X398Y267D01*
X396Y267D01*
X396Y239D01*
X394Y239D01*
X394Y219D01*
X392Y219D01*
X392Y213D01*
X390Y213D01*
X390Y211D01*
X388Y211D01*
X388Y209D01*
X386Y209D01*
X386Y207D01*
X384Y207D01*
X384Y205D01*
X378Y205D01*
X378Y203D01*
X374Y203D01*
X374Y201D01*
X370Y201D01*
X370Y199D01*
X364Y199D01*
X364Y197D01*
X360Y197D01*
X360Y195D01*
X354Y195D01*
X354Y193D01*
X350Y193D01*
X350Y191D01*
X346Y191D01*
X346Y185D01*
X344Y185D01*
X344Y179D01*
X342Y179D01*
X342Y175D01*
X340Y175D01*
X340Y171D01*
X338Y171D01*
X338Y169D01*
X336Y169D01*
X336Y167D01*
X334Y167D01*
X334Y165D01*
X332Y165D01*
X332Y161D01*
X328Y161D01*
X328Y159D01*
X326Y159D01*
X326Y157D01*
X324Y157D01*
X324Y155D01*
X320Y155D01*
X320Y135D01*
X324Y135D01*
X324Y133D01*
X326Y133D01*
X326Y131D01*
X328Y131D01*
X328Y129D01*
X332Y129D01*
X332Y125D01*
X334Y125D01*
X334Y123D01*
X336Y123D01*
X336Y121D01*
X338Y121D01*
X338Y119D01*
X340Y119D01*
X340Y115D01*
X342Y115D01*
X342Y111D01*
X344Y111D01*
X344Y105D01*
X346Y105D01*
X346Y85D01*
X344Y85D01*
X344Y79D01*
X342Y79D01*
X342Y75D01*
X340Y75D01*
X340Y71D01*
X338Y71D01*
X338Y69D01*
X336Y69D01*
X336Y67D01*
X334Y67D01*
X334Y65D01*
X332Y65D01*
X332Y61D01*
X328Y61D01*
X328Y41D01*
X570Y41D01*
X570Y61D01*
X566Y61D01*
X566Y63D01*
X564Y63D01*
X564Y67D01*
X562Y67D01*
X562Y69D01*
X560Y69D01*
X560Y71D01*
X558Y71D01*
X558Y75D01*
X556Y75D01*
X556Y79D01*
X554Y79D01*
X554Y85D01*
X552Y85D01*
X552Y105D01*
X554Y105D01*
X554Y111D01*
X556Y111D01*
X556Y115D01*
X558Y115D01*
X558Y119D01*
X560Y119D01*
X560Y121D01*
X562Y121D01*
X562Y123D01*
X564Y123D01*
X564Y127D01*
X566Y127D01*
X566Y129D01*
X570Y129D01*
X570Y131D01*
X572Y131D01*
X572Y133D01*
X574Y133D01*
X574Y135D01*
X578Y135D01*
X578Y155D01*
X574Y155D01*
X574Y157D01*
X572Y157D01*
X572Y159D01*
X570Y159D01*
X570Y161D01*
X566Y161D01*
X566Y163D01*
X564Y163D01*
X564Y167D01*
X562Y167D01*
X562Y169D01*
X560Y169D01*
X560Y171D01*
X558Y171D01*
X558Y175D01*
X556Y175D01*
X556Y179D01*
X554Y179D01*
X554Y185D01*
X552Y185D01*
X552Y205D01*
X554Y205D01*
X554Y211D01*
X556Y211D01*
X556Y215D01*
X558Y215D01*
X558Y219D01*
X560Y219D01*
X560Y221D01*
X562Y221D01*
X562Y223D01*
X564Y223D01*
X564Y227D01*
X566Y227D01*
X566Y229D01*
X570Y229D01*
X570Y231D01*
X572Y231D01*
X572Y233D01*
X574Y233D01*
X574Y235D01*
X578Y235D01*
X578Y255D01*
X574Y255D01*
X574Y257D01*
X572Y257D01*
X572Y259D01*
X570Y259D01*
X570Y261D01*
X566Y261D01*
X566Y263D01*
X564Y263D01*
X564Y267D01*
X562Y267D01*
X562Y269D01*
X560Y269D01*
X560Y271D01*
X558Y271D01*
X558Y275D01*
X556Y275D01*
X556Y279D01*
X554Y279D01*
X554Y285D01*
X552Y285D01*
X552Y305D01*
X554Y305D01*
X554Y311D01*
X556Y311D01*
X556Y315D01*
X558Y315D01*
X558Y319D01*
X560Y319D01*
X560Y321D01*
X562Y321D01*
X562Y323D01*
X564Y323D01*
X564Y327D01*
X566Y327D01*
X566Y329D01*
X570Y329D01*
X570Y331D01*
X572Y331D01*
X572Y333D01*
X574Y333D01*
X574Y335D01*
X578Y335D01*
X578Y355D01*
X574Y355D01*
X574Y357D01*
X572Y357D01*
X572Y359D01*
X570Y359D01*
X570Y361D01*
X566Y361D01*
X566Y363D01*
X564Y363D01*
X564Y367D01*
X562Y367D01*
X562Y369D01*
X560Y369D01*
X560Y371D01*
X558Y371D01*
X558Y375D01*
X556Y375D01*
X556Y379D01*
X554Y379D01*
X554Y385D01*
X552Y385D01*
X552Y405D01*
X554Y405D01*
X554Y411D01*
X556Y411D01*
X556Y415D01*
X558Y415D01*
X558Y419D01*
X560Y419D01*
X560Y421D01*
X562Y421D01*
X562Y423D01*
X564Y423D01*
X564Y427D01*
X566Y427D01*
X566Y429D01*
X570Y429D01*
X570Y431D01*
X572Y431D01*
X572Y433D01*
X574Y433D01*
X574Y435D01*
X578Y435D01*
X578Y437D01*
X580Y437D01*
X580Y439D01*
X586Y439D01*
X586Y441D01*
X592Y441D01*
X592Y443D01*
X410Y443D01*
G37*
D02*
G36*
X620Y351D02*
X620Y335D01*
X624Y335D01*
X624Y333D01*
X626Y333D01*
X626Y331D01*
X628Y331D01*
X628Y329D01*
X632Y329D01*
X632Y325D01*
X634Y325D01*
X634Y323D01*
X636Y323D01*
X636Y321D01*
X638Y321D01*
X638Y319D01*
X640Y319D01*
X640Y315D01*
X642Y315D01*
X642Y311D01*
X644Y311D01*
X644Y305D01*
X646Y305D01*
X646Y285D01*
X644Y285D01*
X644Y279D01*
X642Y279D01*
X642Y275D01*
X640Y275D01*
X640Y271D01*
X638Y271D01*
X638Y269D01*
X636Y269D01*
X636Y267D01*
X634Y267D01*
X634Y265D01*
X632Y265D01*
X632Y261D01*
X628Y261D01*
X628Y259D01*
X626Y259D01*
X626Y257D01*
X914Y257D01*
X914Y259D01*
X908Y259D01*
X908Y261D01*
X904Y261D01*
X904Y263D01*
X902Y263D01*
X902Y265D01*
X898Y265D01*
X898Y267D01*
X896Y267D01*
X896Y269D01*
X894Y269D01*
X894Y271D01*
X892Y271D01*
X892Y273D01*
X890Y273D01*
X890Y275D01*
X888Y275D01*
X888Y277D01*
X886Y277D01*
X886Y281D01*
X884Y281D01*
X884Y283D01*
X882Y283D01*
X882Y287D01*
X880Y287D01*
X880Y293D01*
X878Y293D01*
X878Y315D01*
X880Y315D01*
X880Y321D01*
X882Y321D01*
X882Y325D01*
X884Y325D01*
X884Y329D01*
X886Y329D01*
X886Y331D01*
X888Y331D01*
X888Y333D01*
X890Y333D01*
X890Y335D01*
X892Y335D01*
X892Y337D01*
X894Y337D01*
X894Y339D01*
X896Y339D01*
X896Y341D01*
X898Y341D01*
X898Y343D01*
X902Y343D01*
X902Y345D01*
X904Y345D01*
X904Y347D01*
X908Y347D01*
X908Y349D01*
X914Y349D01*
X914Y351D01*
X620Y351D01*
G37*
D02*
G36*
X936Y351D02*
X936Y349D01*
X940Y349D01*
X940Y347D01*
X944Y347D01*
X944Y345D01*
X948Y345D01*
X948Y343D01*
X952Y343D01*
X952Y341D01*
X954Y341D01*
X954Y339D01*
X956Y339D01*
X956Y337D01*
X958Y337D01*
X958Y335D01*
X960Y335D01*
X960Y333D01*
X962Y333D01*
X962Y329D01*
X964Y329D01*
X964Y327D01*
X984Y327D01*
X984Y329D01*
X986Y329D01*
X986Y331D01*
X988Y331D01*
X988Y333D01*
X990Y333D01*
X990Y335D01*
X992Y335D01*
X992Y337D01*
X994Y337D01*
X994Y339D01*
X996Y339D01*
X996Y341D01*
X998Y341D01*
X998Y343D01*
X1002Y343D01*
X1002Y345D01*
X1004Y345D01*
X1004Y347D01*
X1008Y347D01*
X1008Y349D01*
X1014Y349D01*
X1014Y351D01*
X936Y351D01*
G37*
D02*
G36*
X1036Y351D02*
X1036Y349D01*
X1040Y349D01*
X1040Y347D01*
X1044Y347D01*
X1044Y345D01*
X1048Y345D01*
X1048Y343D01*
X1052Y343D01*
X1052Y341D01*
X1054Y341D01*
X1054Y339D01*
X1056Y339D01*
X1056Y337D01*
X1058Y337D01*
X1058Y335D01*
X1060Y335D01*
X1060Y333D01*
X1062Y333D01*
X1062Y329D01*
X1064Y329D01*
X1064Y327D01*
X1084Y327D01*
X1084Y329D01*
X1086Y329D01*
X1086Y331D01*
X1088Y331D01*
X1088Y333D01*
X1090Y333D01*
X1090Y335D01*
X1092Y335D01*
X1092Y337D01*
X1094Y337D01*
X1094Y339D01*
X1096Y339D01*
X1096Y341D01*
X1098Y341D01*
X1098Y343D01*
X1102Y343D01*
X1102Y345D01*
X1104Y345D01*
X1104Y347D01*
X1108Y347D01*
X1108Y349D01*
X1114Y349D01*
X1114Y351D01*
X1036Y351D01*
G37*
D02*
G36*
X1136Y351D02*
X1136Y349D01*
X1140Y349D01*
X1140Y347D01*
X1144Y347D01*
X1144Y345D01*
X1148Y345D01*
X1148Y343D01*
X1152Y343D01*
X1152Y341D01*
X1154Y341D01*
X1154Y339D01*
X1156Y339D01*
X1156Y337D01*
X1158Y337D01*
X1158Y335D01*
X1160Y335D01*
X1160Y333D01*
X1162Y333D01*
X1162Y329D01*
X1164Y329D01*
X1164Y327D01*
X1184Y327D01*
X1184Y329D01*
X1186Y329D01*
X1186Y331D01*
X1188Y331D01*
X1188Y333D01*
X1190Y333D01*
X1190Y335D01*
X1192Y335D01*
X1192Y337D01*
X1194Y337D01*
X1194Y339D01*
X1196Y339D01*
X1196Y341D01*
X1198Y341D01*
X1198Y343D01*
X1202Y343D01*
X1202Y345D01*
X1204Y345D01*
X1204Y347D01*
X1208Y347D01*
X1208Y349D01*
X1214Y349D01*
X1214Y351D01*
X1136Y351D01*
G37*
D02*
G36*
X1236Y351D02*
X1236Y349D01*
X1240Y349D01*
X1240Y347D01*
X1244Y347D01*
X1244Y345D01*
X1248Y345D01*
X1248Y343D01*
X1252Y343D01*
X1252Y341D01*
X1254Y341D01*
X1254Y339D01*
X1256Y339D01*
X1256Y337D01*
X1258Y337D01*
X1258Y335D01*
X1260Y335D01*
X1260Y333D01*
X1262Y333D01*
X1262Y329D01*
X1264Y329D01*
X1264Y327D01*
X1284Y327D01*
X1284Y329D01*
X1286Y329D01*
X1286Y331D01*
X1288Y331D01*
X1288Y333D01*
X1290Y333D01*
X1290Y335D01*
X1292Y335D01*
X1292Y337D01*
X1294Y337D01*
X1294Y339D01*
X1296Y339D01*
X1296Y341D01*
X1298Y341D01*
X1298Y343D01*
X1302Y343D01*
X1302Y345D01*
X1304Y345D01*
X1304Y347D01*
X1308Y347D01*
X1308Y349D01*
X1314Y349D01*
X1314Y351D01*
X1236Y351D01*
G37*
D02*
G36*
X1336Y351D02*
X1336Y349D01*
X1340Y349D01*
X1340Y347D01*
X1344Y347D01*
X1344Y345D01*
X1348Y345D01*
X1348Y343D01*
X1352Y343D01*
X1352Y341D01*
X1354Y341D01*
X1354Y339D01*
X1356Y339D01*
X1356Y337D01*
X1358Y337D01*
X1358Y335D01*
X1360Y335D01*
X1360Y333D01*
X1362Y333D01*
X1362Y329D01*
X1364Y329D01*
X1364Y327D01*
X1384Y327D01*
X1384Y329D01*
X1386Y329D01*
X1386Y331D01*
X1388Y331D01*
X1388Y333D01*
X1390Y333D01*
X1390Y335D01*
X1392Y335D01*
X1392Y337D01*
X1394Y337D01*
X1394Y339D01*
X1396Y339D01*
X1396Y341D01*
X1398Y341D01*
X1398Y343D01*
X1402Y343D01*
X1402Y345D01*
X1404Y345D01*
X1404Y347D01*
X1408Y347D01*
X1408Y349D01*
X1414Y349D01*
X1414Y351D01*
X1336Y351D01*
G37*
D02*
G36*
X1436Y351D02*
X1436Y349D01*
X1440Y349D01*
X1440Y347D01*
X1444Y347D01*
X1444Y345D01*
X1448Y345D01*
X1448Y343D01*
X1452Y343D01*
X1452Y341D01*
X1454Y341D01*
X1454Y339D01*
X1456Y339D01*
X1456Y337D01*
X1458Y337D01*
X1458Y335D01*
X1460Y335D01*
X1460Y333D01*
X1462Y333D01*
X1462Y329D01*
X1464Y329D01*
X1464Y327D01*
X1484Y327D01*
X1484Y329D01*
X1486Y329D01*
X1486Y331D01*
X1488Y331D01*
X1488Y333D01*
X1490Y333D01*
X1490Y335D01*
X1492Y335D01*
X1492Y337D01*
X1494Y337D01*
X1494Y339D01*
X1496Y339D01*
X1496Y341D01*
X1498Y341D01*
X1498Y343D01*
X1502Y343D01*
X1502Y345D01*
X1504Y345D01*
X1504Y347D01*
X1508Y347D01*
X1508Y349D01*
X1514Y349D01*
X1514Y351D01*
X1436Y351D01*
G37*
D02*
G36*
X1536Y351D02*
X1536Y349D01*
X1540Y349D01*
X1540Y347D01*
X1544Y347D01*
X1544Y345D01*
X1548Y345D01*
X1548Y343D01*
X1552Y343D01*
X1552Y341D01*
X1554Y341D01*
X1554Y339D01*
X1556Y339D01*
X1556Y337D01*
X1558Y337D01*
X1558Y335D01*
X1560Y335D01*
X1560Y333D01*
X1562Y333D01*
X1562Y329D01*
X1564Y329D01*
X1564Y327D01*
X1584Y327D01*
X1584Y329D01*
X1586Y329D01*
X1586Y331D01*
X1588Y331D01*
X1588Y333D01*
X1590Y333D01*
X1590Y335D01*
X1592Y335D01*
X1592Y337D01*
X1594Y337D01*
X1594Y339D01*
X1596Y339D01*
X1596Y341D01*
X1598Y341D01*
X1598Y343D01*
X1602Y343D01*
X1602Y345D01*
X1604Y345D01*
X1604Y347D01*
X1608Y347D01*
X1608Y349D01*
X1614Y349D01*
X1614Y351D01*
X1536Y351D01*
G37*
D02*
G36*
X1636Y351D02*
X1636Y349D01*
X1640Y349D01*
X1640Y347D01*
X1644Y347D01*
X1644Y345D01*
X1648Y345D01*
X1648Y343D01*
X1652Y343D01*
X1652Y341D01*
X1654Y341D01*
X1654Y339D01*
X1656Y339D01*
X1656Y337D01*
X1658Y337D01*
X1658Y335D01*
X1660Y335D01*
X1660Y333D01*
X1662Y333D01*
X1662Y329D01*
X1664Y329D01*
X1664Y327D01*
X1684Y327D01*
X1684Y329D01*
X1686Y329D01*
X1686Y331D01*
X1688Y331D01*
X1688Y333D01*
X1690Y333D01*
X1690Y335D01*
X1692Y335D01*
X1692Y337D01*
X1694Y337D01*
X1694Y339D01*
X1696Y339D01*
X1696Y341D01*
X1698Y341D01*
X1698Y343D01*
X1702Y343D01*
X1702Y345D01*
X1704Y345D01*
X1704Y347D01*
X1708Y347D01*
X1708Y349D01*
X1714Y349D01*
X1714Y351D01*
X1636Y351D01*
G37*
D02*
G36*
X964Y281D02*
X964Y279D01*
X962Y279D01*
X962Y275D01*
X960Y275D01*
X960Y273D01*
X958Y273D01*
X958Y271D01*
X956Y271D01*
X956Y269D01*
X954Y269D01*
X954Y267D01*
X950Y267D01*
X950Y265D01*
X948Y265D01*
X948Y263D01*
X944Y263D01*
X944Y261D01*
X940Y261D01*
X940Y259D01*
X934Y259D01*
X934Y257D01*
X1014Y257D01*
X1014Y259D01*
X1008Y259D01*
X1008Y261D01*
X1004Y261D01*
X1004Y263D01*
X1002Y263D01*
X1002Y265D01*
X998Y265D01*
X998Y267D01*
X996Y267D01*
X996Y269D01*
X994Y269D01*
X994Y271D01*
X992Y271D01*
X992Y273D01*
X990Y273D01*
X990Y275D01*
X988Y275D01*
X988Y277D01*
X986Y277D01*
X986Y281D01*
X964Y281D01*
G37*
D02*
G36*
X1064Y281D02*
X1064Y279D01*
X1062Y279D01*
X1062Y275D01*
X1060Y275D01*
X1060Y273D01*
X1058Y273D01*
X1058Y271D01*
X1056Y271D01*
X1056Y269D01*
X1054Y269D01*
X1054Y267D01*
X1050Y267D01*
X1050Y265D01*
X1048Y265D01*
X1048Y263D01*
X1044Y263D01*
X1044Y261D01*
X1040Y261D01*
X1040Y259D01*
X1034Y259D01*
X1034Y257D01*
X1114Y257D01*
X1114Y259D01*
X1108Y259D01*
X1108Y261D01*
X1104Y261D01*
X1104Y263D01*
X1102Y263D01*
X1102Y265D01*
X1098Y265D01*
X1098Y267D01*
X1096Y267D01*
X1096Y269D01*
X1094Y269D01*
X1094Y271D01*
X1092Y271D01*
X1092Y273D01*
X1090Y273D01*
X1090Y275D01*
X1088Y275D01*
X1088Y277D01*
X1086Y277D01*
X1086Y281D01*
X1064Y281D01*
G37*
D02*
G36*
X1164Y281D02*
X1164Y279D01*
X1162Y279D01*
X1162Y275D01*
X1160Y275D01*
X1160Y273D01*
X1158Y273D01*
X1158Y271D01*
X1156Y271D01*
X1156Y269D01*
X1154Y269D01*
X1154Y267D01*
X1150Y267D01*
X1150Y265D01*
X1148Y265D01*
X1148Y263D01*
X1144Y263D01*
X1144Y261D01*
X1140Y261D01*
X1140Y259D01*
X1134Y259D01*
X1134Y257D01*
X1214Y257D01*
X1214Y259D01*
X1208Y259D01*
X1208Y261D01*
X1204Y261D01*
X1204Y263D01*
X1202Y263D01*
X1202Y265D01*
X1198Y265D01*
X1198Y267D01*
X1196Y267D01*
X1196Y269D01*
X1194Y269D01*
X1194Y271D01*
X1192Y271D01*
X1192Y273D01*
X1190Y273D01*
X1190Y275D01*
X1188Y275D01*
X1188Y277D01*
X1186Y277D01*
X1186Y281D01*
X1164Y281D01*
G37*
D02*
G36*
X1264Y281D02*
X1264Y279D01*
X1262Y279D01*
X1262Y275D01*
X1260Y275D01*
X1260Y273D01*
X1258Y273D01*
X1258Y271D01*
X1256Y271D01*
X1256Y269D01*
X1254Y269D01*
X1254Y267D01*
X1250Y267D01*
X1250Y265D01*
X1248Y265D01*
X1248Y263D01*
X1244Y263D01*
X1244Y261D01*
X1240Y261D01*
X1240Y259D01*
X1234Y259D01*
X1234Y257D01*
X1314Y257D01*
X1314Y259D01*
X1308Y259D01*
X1308Y261D01*
X1304Y261D01*
X1304Y263D01*
X1302Y263D01*
X1302Y265D01*
X1298Y265D01*
X1298Y267D01*
X1296Y267D01*
X1296Y269D01*
X1294Y269D01*
X1294Y271D01*
X1292Y271D01*
X1292Y273D01*
X1290Y273D01*
X1290Y275D01*
X1288Y275D01*
X1288Y277D01*
X1286Y277D01*
X1286Y281D01*
X1264Y281D01*
G37*
D02*
G36*
X1364Y281D02*
X1364Y279D01*
X1362Y279D01*
X1362Y275D01*
X1360Y275D01*
X1360Y273D01*
X1358Y273D01*
X1358Y271D01*
X1356Y271D01*
X1356Y269D01*
X1354Y269D01*
X1354Y267D01*
X1350Y267D01*
X1350Y265D01*
X1348Y265D01*
X1348Y263D01*
X1344Y263D01*
X1344Y261D01*
X1340Y261D01*
X1340Y259D01*
X1334Y259D01*
X1334Y257D01*
X1414Y257D01*
X1414Y259D01*
X1408Y259D01*
X1408Y261D01*
X1404Y261D01*
X1404Y263D01*
X1402Y263D01*
X1402Y265D01*
X1398Y265D01*
X1398Y267D01*
X1396Y267D01*
X1396Y269D01*
X1394Y269D01*
X1394Y271D01*
X1392Y271D01*
X1392Y273D01*
X1390Y273D01*
X1390Y275D01*
X1388Y275D01*
X1388Y277D01*
X1386Y277D01*
X1386Y281D01*
X1364Y281D01*
G37*
D02*
G36*
X1464Y281D02*
X1464Y279D01*
X1462Y279D01*
X1462Y275D01*
X1460Y275D01*
X1460Y273D01*
X1458Y273D01*
X1458Y271D01*
X1456Y271D01*
X1456Y269D01*
X1454Y269D01*
X1454Y267D01*
X1450Y267D01*
X1450Y265D01*
X1448Y265D01*
X1448Y263D01*
X1444Y263D01*
X1444Y261D01*
X1440Y261D01*
X1440Y259D01*
X1434Y259D01*
X1434Y257D01*
X1514Y257D01*
X1514Y259D01*
X1508Y259D01*
X1508Y261D01*
X1504Y261D01*
X1504Y263D01*
X1502Y263D01*
X1502Y265D01*
X1498Y265D01*
X1498Y267D01*
X1496Y267D01*
X1496Y269D01*
X1494Y269D01*
X1494Y271D01*
X1492Y271D01*
X1492Y273D01*
X1490Y273D01*
X1490Y275D01*
X1488Y275D01*
X1488Y277D01*
X1486Y277D01*
X1486Y281D01*
X1464Y281D01*
G37*
D02*
G36*
X1564Y281D02*
X1564Y279D01*
X1562Y279D01*
X1562Y275D01*
X1560Y275D01*
X1560Y273D01*
X1558Y273D01*
X1558Y271D01*
X1556Y271D01*
X1556Y269D01*
X1554Y269D01*
X1554Y267D01*
X1550Y267D01*
X1550Y265D01*
X1548Y265D01*
X1548Y263D01*
X1544Y263D01*
X1544Y261D01*
X1540Y261D01*
X1540Y259D01*
X1534Y259D01*
X1534Y257D01*
X1614Y257D01*
X1614Y259D01*
X1608Y259D01*
X1608Y261D01*
X1604Y261D01*
X1604Y263D01*
X1602Y263D01*
X1602Y265D01*
X1598Y265D01*
X1598Y267D01*
X1596Y267D01*
X1596Y269D01*
X1594Y269D01*
X1594Y271D01*
X1592Y271D01*
X1592Y273D01*
X1590Y273D01*
X1590Y275D01*
X1588Y275D01*
X1588Y277D01*
X1586Y277D01*
X1586Y281D01*
X1564Y281D01*
G37*
D02*
G36*
X1664Y281D02*
X1664Y279D01*
X1662Y279D01*
X1662Y275D01*
X1660Y275D01*
X1660Y273D01*
X1658Y273D01*
X1658Y271D01*
X1656Y271D01*
X1656Y269D01*
X1654Y269D01*
X1654Y267D01*
X1650Y267D01*
X1650Y265D01*
X1648Y265D01*
X1648Y263D01*
X1644Y263D01*
X1644Y261D01*
X1640Y261D01*
X1640Y259D01*
X1634Y259D01*
X1634Y257D01*
X1714Y257D01*
X1714Y259D01*
X1708Y259D01*
X1708Y261D01*
X1704Y261D01*
X1704Y263D01*
X1702Y263D01*
X1702Y265D01*
X1698Y265D01*
X1698Y267D01*
X1696Y267D01*
X1696Y269D01*
X1694Y269D01*
X1694Y271D01*
X1692Y271D01*
X1692Y273D01*
X1690Y273D01*
X1690Y275D01*
X1688Y275D01*
X1688Y277D01*
X1686Y277D01*
X1686Y281D01*
X1664Y281D01*
G37*
D02*
G36*
X624Y257D02*
X624Y255D01*
X1942Y255D01*
X1942Y257D01*
X624Y257D01*
G37*
D02*
G36*
X624Y257D02*
X624Y255D01*
X1942Y255D01*
X1942Y257D01*
X624Y257D01*
G37*
D02*
G36*
X624Y257D02*
X624Y255D01*
X1942Y255D01*
X1942Y257D01*
X624Y257D01*
G37*
D02*
G36*
X624Y257D02*
X624Y255D01*
X1942Y255D01*
X1942Y257D01*
X624Y257D01*
G37*
D02*
G36*
X624Y257D02*
X624Y255D01*
X1942Y255D01*
X1942Y257D01*
X624Y257D01*
G37*
D02*
G36*
X624Y257D02*
X624Y255D01*
X1942Y255D01*
X1942Y257D01*
X624Y257D01*
G37*
D02*
G36*
X624Y257D02*
X624Y255D01*
X1942Y255D01*
X1942Y257D01*
X624Y257D01*
G37*
D02*
G36*
X624Y257D02*
X624Y255D01*
X1942Y255D01*
X1942Y257D01*
X624Y257D01*
G37*
D02*
G36*
X624Y257D02*
X624Y255D01*
X1942Y255D01*
X1942Y257D01*
X624Y257D01*
G37*
D02*
G36*
X624Y257D02*
X624Y255D01*
X1942Y255D01*
X1942Y257D01*
X624Y257D01*
G37*
D02*
G36*
X620Y255D02*
X620Y235D01*
X624Y235D01*
X624Y233D01*
X626Y233D01*
X626Y231D01*
X628Y231D01*
X628Y229D01*
X632Y229D01*
X632Y225D01*
X634Y225D01*
X634Y223D01*
X636Y223D01*
X636Y221D01*
X638Y221D01*
X638Y219D01*
X640Y219D01*
X640Y215D01*
X816Y215D01*
X816Y213D01*
X822Y213D01*
X822Y211D01*
X826Y211D01*
X826Y209D01*
X828Y209D01*
X828Y207D01*
X832Y207D01*
X832Y205D01*
X852Y205D01*
X852Y207D01*
X858Y207D01*
X858Y209D01*
X864Y209D01*
X864Y211D01*
X870Y211D01*
X870Y213D01*
X876Y213D01*
X876Y215D01*
X1046Y215D01*
X1046Y217D01*
X1370Y217D01*
X1370Y219D01*
X1694Y219D01*
X1694Y221D01*
X1926Y221D01*
X1926Y223D01*
X1928Y223D01*
X1928Y227D01*
X1930Y227D01*
X1930Y229D01*
X1932Y229D01*
X1932Y231D01*
X1934Y231D01*
X1934Y233D01*
X1936Y233D01*
X1936Y235D01*
X1938Y235D01*
X1938Y237D01*
X1940Y237D01*
X1940Y239D01*
X1942Y239D01*
X1942Y255D01*
X620Y255D01*
G37*
D02*
G36*
X642Y215D02*
X642Y211D01*
X644Y211D01*
X644Y205D01*
X646Y205D01*
X646Y199D01*
X656Y199D01*
X656Y197D01*
X692Y197D01*
X692Y195D01*
X728Y195D01*
X728Y193D01*
X768Y193D01*
X768Y195D01*
X770Y195D01*
X770Y197D01*
X772Y197D01*
X772Y199D01*
X774Y199D01*
X774Y201D01*
X776Y201D01*
X776Y203D01*
X778Y203D01*
X778Y205D01*
X780Y205D01*
X780Y207D01*
X784Y207D01*
X784Y209D01*
X786Y209D01*
X786Y211D01*
X790Y211D01*
X790Y213D01*
X796Y213D01*
X796Y215D01*
X642Y215D01*
G37*
D02*
G36*
X1682Y557D02*
X1682Y537D01*
X1684Y537D01*
X1684Y533D01*
X1686Y533D01*
X1686Y529D01*
X1688Y529D01*
X1688Y525D01*
X1690Y525D01*
X1690Y521D01*
X1692Y521D01*
X1692Y517D01*
X1694Y517D01*
X1694Y513D01*
X1696Y513D01*
X1696Y509D01*
X1698Y509D01*
X1698Y505D01*
X1700Y505D01*
X1700Y501D01*
X1702Y501D01*
X1702Y497D01*
X1704Y497D01*
X1704Y493D01*
X1706Y493D01*
X1706Y489D01*
X1708Y489D01*
X1708Y485D01*
X1710Y485D01*
X1710Y481D01*
X1712Y481D01*
X1712Y477D01*
X1714Y477D01*
X1714Y473D01*
X1716Y473D01*
X1716Y469D01*
X1736Y469D01*
X1736Y473D01*
X1734Y473D01*
X1734Y481D01*
X1732Y481D01*
X1732Y489D01*
X1730Y489D01*
X1730Y497D01*
X1728Y497D01*
X1728Y505D01*
X1726Y505D01*
X1726Y513D01*
X1724Y513D01*
X1724Y521D01*
X1722Y521D01*
X1722Y529D01*
X1720Y529D01*
X1720Y537D01*
X1718Y537D01*
X1718Y545D01*
X1716Y545D01*
X1716Y551D01*
X1714Y551D01*
X1714Y557D01*
X1682Y557D01*
G37*
D02*
G36*
X1906Y471D02*
X1906Y469D01*
X1896Y469D01*
X1896Y465D01*
X1894Y465D01*
X1894Y463D01*
X1892Y463D01*
X1892Y459D01*
X1890Y459D01*
X1890Y437D01*
X1900Y437D01*
X1900Y435D01*
X1910Y435D01*
X1910Y433D01*
X1936Y433D01*
X1936Y435D01*
X1938Y435D01*
X1938Y437D01*
X1940Y437D01*
X1940Y439D01*
X1942Y439D01*
X1942Y461D01*
X1940Y461D01*
X1940Y463D01*
X1938Y463D01*
X1938Y465D01*
X1936Y465D01*
X1936Y467D01*
X1934Y467D01*
X1934Y469D01*
X1932Y469D01*
X1932Y471D01*
X1906Y471D01*
G37*
D02*
G36*
X1812Y405D02*
X1812Y389D01*
X1818Y389D01*
X1818Y387D01*
X1822Y387D01*
X1822Y385D01*
X1826Y385D01*
X1826Y383D01*
X1832Y383D01*
X1832Y381D01*
X1836Y381D01*
X1836Y379D01*
X1840Y379D01*
X1840Y377D01*
X1846Y377D01*
X1846Y375D01*
X1850Y375D01*
X1850Y373D01*
X1854Y373D01*
X1854Y371D01*
X1860Y371D01*
X1860Y369D01*
X1864Y369D01*
X1864Y367D01*
X1868Y367D01*
X1868Y365D01*
X1874Y365D01*
X1874Y363D01*
X1878Y363D01*
X1878Y361D01*
X1882Y361D01*
X1882Y359D01*
X1888Y359D01*
X1888Y357D01*
X1892Y357D01*
X1892Y355D01*
X1898Y355D01*
X1898Y353D01*
X1902Y353D01*
X1902Y351D01*
X1906Y351D01*
X1906Y349D01*
X1912Y349D01*
X1912Y347D01*
X1916Y347D01*
X1916Y345D01*
X1920Y345D01*
X1920Y343D01*
X1942Y343D01*
X1942Y361D01*
X1940Y361D01*
X1940Y363D01*
X1938Y363D01*
X1938Y365D01*
X1936Y365D01*
X1936Y367D01*
X1934Y367D01*
X1934Y369D01*
X1932Y369D01*
X1932Y371D01*
X1930Y371D01*
X1930Y373D01*
X1928Y373D01*
X1928Y377D01*
X1926Y377D01*
X1926Y379D01*
X1924Y379D01*
X1924Y383D01*
X1922Y383D01*
X1922Y387D01*
X1916Y387D01*
X1916Y389D01*
X1906Y389D01*
X1906Y391D01*
X1896Y391D01*
X1896Y393D01*
X1886Y393D01*
X1886Y395D01*
X1876Y395D01*
X1876Y397D01*
X1866Y397D01*
X1866Y399D01*
X1856Y399D01*
X1856Y401D01*
X1846Y401D01*
X1846Y403D01*
X1836Y403D01*
X1836Y405D01*
X1812Y405D01*
G37*
D02*
G36*
X620Y155D02*
X620Y135D01*
X624Y135D01*
X624Y133D01*
X626Y133D01*
X626Y131D01*
X628Y131D01*
X628Y129D01*
X632Y129D01*
X632Y125D01*
X634Y125D01*
X634Y123D01*
X636Y123D01*
X636Y121D01*
X638Y121D01*
X638Y119D01*
X640Y119D01*
X640Y115D01*
X642Y115D01*
X642Y111D01*
X644Y111D01*
X644Y105D01*
X646Y105D01*
X646Y85D01*
X644Y85D01*
X644Y79D01*
X642Y79D01*
X642Y75D01*
X640Y75D01*
X640Y71D01*
X638Y71D01*
X638Y69D01*
X636Y69D01*
X636Y67D01*
X634Y67D01*
X634Y65D01*
X632Y65D01*
X632Y61D01*
X628Y61D01*
X628Y41D01*
X698Y41D01*
X698Y61D01*
X694Y61D01*
X694Y63D01*
X692Y63D01*
X692Y65D01*
X690Y65D01*
X690Y67D01*
X688Y67D01*
X688Y69D01*
X686Y69D01*
X686Y71D01*
X684Y71D01*
X684Y73D01*
X682Y73D01*
X682Y77D01*
X680Y77D01*
X680Y79D01*
X678Y79D01*
X678Y83D01*
X676Y83D01*
X676Y89D01*
X674Y89D01*
X674Y111D01*
X676Y111D01*
X676Y117D01*
X678Y117D01*
X678Y121D01*
X680Y121D01*
X680Y125D01*
X682Y125D01*
X682Y127D01*
X684Y127D01*
X684Y129D01*
X686Y129D01*
X686Y131D01*
X688Y131D01*
X688Y133D01*
X690Y133D01*
X690Y153D01*
X654Y153D01*
X654Y155D01*
X620Y155D01*
G37*
D02*
G36*
X190Y625D02*
X190Y623D01*
X186Y623D01*
X186Y621D01*
X182Y621D01*
X182Y619D01*
X178Y619D01*
X178Y617D01*
X176Y617D01*
X176Y615D01*
X172Y615D01*
X172Y613D01*
X168Y613D01*
X168Y611D01*
X164Y611D01*
X164Y609D01*
X160Y609D01*
X160Y607D01*
X158Y607D01*
X158Y605D01*
X154Y605D01*
X154Y603D01*
X150Y603D01*
X150Y601D01*
X146Y601D01*
X146Y599D01*
X142Y599D01*
X142Y597D01*
X140Y597D01*
X140Y595D01*
X136Y595D01*
X136Y593D01*
X132Y593D01*
X132Y591D01*
X128Y591D01*
X128Y589D01*
X124Y589D01*
X124Y587D01*
X122Y587D01*
X122Y585D01*
X118Y585D01*
X118Y583D01*
X116Y583D01*
X116Y573D01*
X114Y573D01*
X114Y567D01*
X112Y567D01*
X112Y563D01*
X110Y563D01*
X110Y559D01*
X108Y559D01*
X108Y557D01*
X106Y557D01*
X106Y553D01*
X104Y553D01*
X104Y551D01*
X102Y551D01*
X102Y549D01*
X100Y549D01*
X100Y547D01*
X98Y547D01*
X98Y545D01*
X94Y545D01*
X94Y543D01*
X92Y543D01*
X92Y541D01*
X88Y541D01*
X88Y539D01*
X84Y539D01*
X84Y537D01*
X78Y537D01*
X78Y535D01*
X372Y535D01*
X372Y543D01*
X370Y543D01*
X370Y545D01*
X368Y545D01*
X368Y547D01*
X364Y547D01*
X364Y549D01*
X362Y549D01*
X362Y553D01*
X360Y553D01*
X360Y555D01*
X358Y555D01*
X358Y557D01*
X356Y557D01*
X356Y561D01*
X354Y561D01*
X354Y565D01*
X352Y565D01*
X352Y573D01*
X350Y573D01*
X350Y589D01*
X352Y589D01*
X352Y595D01*
X354Y595D01*
X354Y599D01*
X356Y599D01*
X356Y603D01*
X358Y603D01*
X358Y605D01*
X360Y605D01*
X360Y625D01*
X190Y625D01*
G37*
D02*
G36*
X40Y537D02*
X40Y535D01*
X60Y535D01*
X60Y537D01*
X40Y537D01*
G37*
D02*
G36*
X40Y535D02*
X40Y533D01*
X372Y533D01*
X372Y535D01*
X40Y535D01*
G37*
D02*
G36*
X40Y535D02*
X40Y533D01*
X372Y533D01*
X372Y535D01*
X40Y535D01*
G37*
D02*
G36*
X40Y533D02*
X40Y443D01*
X346Y443D01*
X346Y439D01*
X366Y439D01*
X366Y467D01*
X368Y467D01*
X368Y495D01*
X370Y495D01*
X370Y523D01*
X372Y523D01*
X372Y533D01*
X40Y533D01*
G37*
D02*
G36*
X40Y443D02*
X40Y435D01*
X224Y435D01*
X224Y333D01*
X176Y333D01*
X176Y331D01*
X266Y331D01*
X266Y347D01*
X252Y347D01*
X252Y443D01*
X40Y443D01*
G37*
D02*
G36*
X40Y435D02*
X40Y343D01*
X62Y343D01*
X62Y345D01*
X64Y345D01*
X64Y347D01*
X68Y347D01*
X68Y349D01*
X72Y349D01*
X72Y351D01*
X76Y351D01*
X76Y353D01*
X78Y353D01*
X78Y355D01*
X82Y355D01*
X82Y357D01*
X86Y357D01*
X86Y359D01*
X90Y359D01*
X90Y361D01*
X92Y361D01*
X92Y363D01*
X96Y363D01*
X96Y365D01*
X100Y365D01*
X100Y367D01*
X104Y367D01*
X104Y369D01*
X106Y369D01*
X106Y371D01*
X110Y371D01*
X110Y373D01*
X114Y373D01*
X114Y375D01*
X118Y375D01*
X118Y377D01*
X120Y377D01*
X120Y379D01*
X122Y379D01*
X122Y435D01*
X40Y435D01*
G37*
D02*
G36*
X128Y333D02*
X128Y331D01*
X170Y331D01*
X170Y333D01*
X128Y333D01*
G37*
D02*
G36*
X126Y331D02*
X126Y329D01*
X266Y329D01*
X266Y331D01*
X126Y331D01*
G37*
D02*
G36*
X126Y331D02*
X126Y329D01*
X266Y329D01*
X266Y331D01*
X126Y331D01*
G37*
D02*
G36*
X122Y329D02*
X122Y327D01*
X118Y327D01*
X118Y325D01*
X114Y325D01*
X114Y323D01*
X112Y323D01*
X112Y321D01*
X108Y321D01*
X108Y319D01*
X104Y319D01*
X104Y317D01*
X100Y317D01*
X100Y315D01*
X98Y315D01*
X98Y313D01*
X94Y313D01*
X94Y311D01*
X90Y311D01*
X90Y223D01*
X92Y223D01*
X92Y221D01*
X96Y221D01*
X96Y219D01*
X98Y219D01*
X98Y217D01*
X100Y217D01*
X100Y215D01*
X102Y215D01*
X102Y213D01*
X104Y213D01*
X104Y211D01*
X106Y211D01*
X106Y209D01*
X108Y209D01*
X108Y205D01*
X110Y205D01*
X110Y203D01*
X112Y203D01*
X112Y199D01*
X114Y199D01*
X114Y193D01*
X116Y193D01*
X116Y171D01*
X114Y171D01*
X114Y167D01*
X112Y167D01*
X112Y163D01*
X110Y163D01*
X110Y159D01*
X108Y159D01*
X108Y157D01*
X106Y157D01*
X106Y153D01*
X104Y153D01*
X104Y151D01*
X102Y151D01*
X102Y149D01*
X100Y149D01*
X100Y147D01*
X98Y147D01*
X98Y145D01*
X94Y145D01*
X94Y143D01*
X92Y143D01*
X92Y141D01*
X88Y141D01*
X88Y139D01*
X84Y139D01*
X84Y137D01*
X78Y137D01*
X78Y135D01*
X198Y135D01*
X198Y137D01*
X200Y137D01*
X200Y139D01*
X202Y139D01*
X202Y141D01*
X206Y141D01*
X206Y143D01*
X208Y143D01*
X208Y145D01*
X210Y145D01*
X210Y147D01*
X212Y147D01*
X212Y149D01*
X214Y149D01*
X214Y151D01*
X216Y151D01*
X216Y153D01*
X218Y153D01*
X218Y155D01*
X222Y155D01*
X222Y157D01*
X224Y157D01*
X224Y159D01*
X226Y159D01*
X226Y161D01*
X228Y161D01*
X228Y163D01*
X230Y163D01*
X230Y165D01*
X232Y165D01*
X232Y167D01*
X234Y167D01*
X234Y169D01*
X238Y169D01*
X238Y171D01*
X240Y171D01*
X240Y173D01*
X242Y173D01*
X242Y175D01*
X244Y175D01*
X244Y177D01*
X246Y177D01*
X246Y179D01*
X248Y179D01*
X248Y181D01*
X250Y181D01*
X250Y183D01*
X252Y183D01*
X252Y205D01*
X254Y205D01*
X254Y211D01*
X256Y211D01*
X256Y215D01*
X258Y215D01*
X258Y219D01*
X260Y219D01*
X260Y221D01*
X262Y221D01*
X262Y223D01*
X264Y223D01*
X264Y227D01*
X266Y227D01*
X266Y229D01*
X270Y229D01*
X270Y231D01*
X272Y231D01*
X272Y233D01*
X274Y233D01*
X274Y235D01*
X278Y235D01*
X278Y255D01*
X274Y255D01*
X274Y257D01*
X272Y257D01*
X272Y259D01*
X270Y259D01*
X270Y261D01*
X266Y261D01*
X266Y263D01*
X264Y263D01*
X264Y267D01*
X262Y267D01*
X262Y269D01*
X260Y269D01*
X260Y271D01*
X258Y271D01*
X258Y275D01*
X256Y275D01*
X256Y279D01*
X254Y279D01*
X254Y285D01*
X252Y285D01*
X252Y305D01*
X254Y305D01*
X254Y311D01*
X256Y311D01*
X256Y315D01*
X258Y315D01*
X258Y319D01*
X260Y319D01*
X260Y321D01*
X262Y321D01*
X262Y323D01*
X264Y323D01*
X264Y327D01*
X266Y327D01*
X266Y329D01*
X122Y329D01*
G37*
D02*
G36*
X40Y137D02*
X40Y135D01*
X60Y135D01*
X60Y137D01*
X40Y137D01*
G37*
D02*
G36*
X40Y135D02*
X40Y133D01*
X162Y133D01*
X162Y135D01*
X40Y135D01*
G37*
D02*
G36*
X40Y135D02*
X40Y133D01*
X162Y133D01*
X162Y135D01*
X40Y135D01*
G37*
D02*
G36*
X40Y133D02*
X40Y41D01*
X130Y41D01*
X130Y63D01*
X128Y63D01*
X128Y65D01*
X126Y65D01*
X126Y71D01*
X124Y71D01*
X124Y79D01*
X122Y79D01*
X122Y91D01*
X124Y91D01*
X124Y99D01*
X126Y99D01*
X126Y105D01*
X128Y105D01*
X128Y107D01*
X130Y107D01*
X130Y111D01*
X132Y111D01*
X132Y113D01*
X134Y113D01*
X134Y117D01*
X136Y117D01*
X136Y119D01*
X138Y119D01*
X138Y121D01*
X140Y121D01*
X140Y123D01*
X142Y123D01*
X142Y125D01*
X146Y125D01*
X146Y127D01*
X148Y127D01*
X148Y129D01*
X152Y129D01*
X152Y131D01*
X156Y131D01*
X156Y133D01*
X40Y133D01*
G37*
D02*
G36*
X1696Y177D02*
X1696Y175D01*
X1372Y175D01*
X1372Y173D01*
X1050Y173D01*
X1050Y171D01*
X882Y171D01*
X882Y169D01*
X876Y169D01*
X876Y167D01*
X870Y167D01*
X870Y165D01*
X864Y165D01*
X864Y163D01*
X858Y163D01*
X858Y161D01*
X852Y161D01*
X852Y155D01*
X850Y155D01*
X850Y149D01*
X848Y149D01*
X848Y147D01*
X1632Y147D01*
X1632Y145D01*
X1640Y145D01*
X1640Y143D01*
X1646Y143D01*
X1646Y141D01*
X1648Y141D01*
X1648Y139D01*
X1652Y139D01*
X1652Y137D01*
X1654Y137D01*
X1654Y135D01*
X1658Y135D01*
X1658Y133D01*
X1660Y133D01*
X1660Y131D01*
X1662Y131D01*
X1662Y129D01*
X1664Y129D01*
X1664Y125D01*
X1666Y125D01*
X1666Y123D01*
X1668Y123D01*
X1668Y119D01*
X1670Y119D01*
X1670Y117D01*
X1672Y117D01*
X1672Y111D01*
X1674Y111D01*
X1674Y105D01*
X1676Y105D01*
X1676Y91D01*
X1674Y91D01*
X1674Y83D01*
X1672Y83D01*
X1672Y79D01*
X1670Y79D01*
X1670Y75D01*
X1668Y75D01*
X1668Y71D01*
X1666Y71D01*
X1666Y69D01*
X1664Y69D01*
X1664Y67D01*
X1662Y67D01*
X1662Y65D01*
X1660Y65D01*
X1660Y63D01*
X1658Y63D01*
X1658Y61D01*
X1656Y61D01*
X1656Y41D01*
X1942Y41D01*
X1942Y61D01*
X1940Y61D01*
X1940Y63D01*
X1938Y63D01*
X1938Y65D01*
X1936Y65D01*
X1936Y67D01*
X1934Y67D01*
X1934Y69D01*
X1932Y69D01*
X1932Y71D01*
X1930Y71D01*
X1930Y73D01*
X1928Y73D01*
X1928Y77D01*
X1926Y77D01*
X1926Y79D01*
X1924Y79D01*
X1924Y83D01*
X1922Y83D01*
X1922Y89D01*
X1920Y89D01*
X1920Y109D01*
X1922Y109D01*
X1922Y115D01*
X1924Y115D01*
X1924Y119D01*
X1926Y119D01*
X1926Y123D01*
X1928Y123D01*
X1928Y127D01*
X1930Y127D01*
X1930Y129D01*
X1932Y129D01*
X1932Y131D01*
X1934Y131D01*
X1934Y133D01*
X1936Y133D01*
X1936Y135D01*
X1938Y135D01*
X1938Y137D01*
X1940Y137D01*
X1940Y139D01*
X1942Y139D01*
X1942Y161D01*
X1940Y161D01*
X1940Y163D01*
X1938Y163D01*
X1938Y165D01*
X1936Y165D01*
X1936Y167D01*
X1934Y167D01*
X1934Y169D01*
X1932Y169D01*
X1932Y171D01*
X1930Y171D01*
X1930Y173D01*
X1928Y173D01*
X1928Y177D01*
X1696Y177D01*
G37*
D02*
G36*
X846Y147D02*
X846Y143D01*
X844Y143D01*
X844Y141D01*
X842Y141D01*
X842Y137D01*
X840Y137D01*
X840Y135D01*
X838Y135D01*
X838Y133D01*
X836Y133D01*
X836Y131D01*
X832Y131D01*
X832Y129D01*
X830Y129D01*
X830Y127D01*
X826Y127D01*
X826Y125D01*
X822Y125D01*
X822Y123D01*
X818Y123D01*
X818Y121D01*
X886Y121D01*
X886Y125D01*
X888Y125D01*
X888Y127D01*
X890Y127D01*
X890Y129D01*
X892Y129D01*
X892Y131D01*
X894Y131D01*
X894Y133D01*
X896Y133D01*
X896Y135D01*
X898Y135D01*
X898Y137D01*
X902Y137D01*
X902Y139D01*
X904Y139D01*
X904Y141D01*
X908Y141D01*
X908Y143D01*
X912Y143D01*
X912Y145D01*
X920Y145D01*
X920Y147D01*
X846Y147D01*
G37*
D02*
G36*
X932Y147D02*
X932Y145D01*
X940Y145D01*
X940Y143D01*
X946Y143D01*
X946Y141D01*
X948Y141D01*
X948Y139D01*
X952Y139D01*
X952Y137D01*
X954Y137D01*
X954Y135D01*
X958Y135D01*
X958Y133D01*
X960Y133D01*
X960Y131D01*
X962Y131D01*
X962Y129D01*
X964Y129D01*
X964Y125D01*
X966Y125D01*
X966Y123D01*
X986Y123D01*
X986Y125D01*
X988Y125D01*
X988Y127D01*
X990Y127D01*
X990Y129D01*
X992Y129D01*
X992Y131D01*
X994Y131D01*
X994Y133D01*
X996Y133D01*
X996Y135D01*
X998Y135D01*
X998Y137D01*
X1002Y137D01*
X1002Y139D01*
X1004Y139D01*
X1004Y141D01*
X1008Y141D01*
X1008Y143D01*
X1012Y143D01*
X1012Y145D01*
X1020Y145D01*
X1020Y147D01*
X932Y147D01*
G37*
D02*
G36*
X1032Y147D02*
X1032Y145D01*
X1040Y145D01*
X1040Y143D01*
X1046Y143D01*
X1046Y141D01*
X1048Y141D01*
X1048Y139D01*
X1052Y139D01*
X1052Y137D01*
X1054Y137D01*
X1054Y135D01*
X1058Y135D01*
X1058Y133D01*
X1060Y133D01*
X1060Y131D01*
X1062Y131D01*
X1062Y129D01*
X1064Y129D01*
X1064Y125D01*
X1066Y125D01*
X1066Y123D01*
X1086Y123D01*
X1086Y125D01*
X1088Y125D01*
X1088Y127D01*
X1090Y127D01*
X1090Y129D01*
X1092Y129D01*
X1092Y131D01*
X1094Y131D01*
X1094Y133D01*
X1096Y133D01*
X1096Y135D01*
X1098Y135D01*
X1098Y137D01*
X1102Y137D01*
X1102Y139D01*
X1104Y139D01*
X1104Y141D01*
X1108Y141D01*
X1108Y143D01*
X1112Y143D01*
X1112Y145D01*
X1120Y145D01*
X1120Y147D01*
X1032Y147D01*
G37*
D02*
G36*
X1132Y147D02*
X1132Y145D01*
X1140Y145D01*
X1140Y143D01*
X1146Y143D01*
X1146Y141D01*
X1148Y141D01*
X1148Y139D01*
X1152Y139D01*
X1152Y137D01*
X1154Y137D01*
X1154Y135D01*
X1158Y135D01*
X1158Y133D01*
X1160Y133D01*
X1160Y131D01*
X1162Y131D01*
X1162Y129D01*
X1164Y129D01*
X1164Y125D01*
X1166Y125D01*
X1166Y123D01*
X1186Y123D01*
X1186Y125D01*
X1188Y125D01*
X1188Y127D01*
X1190Y127D01*
X1190Y129D01*
X1192Y129D01*
X1192Y131D01*
X1194Y131D01*
X1194Y133D01*
X1196Y133D01*
X1196Y135D01*
X1198Y135D01*
X1198Y137D01*
X1202Y137D01*
X1202Y139D01*
X1204Y139D01*
X1204Y141D01*
X1208Y141D01*
X1208Y143D01*
X1212Y143D01*
X1212Y145D01*
X1220Y145D01*
X1220Y147D01*
X1132Y147D01*
G37*
D02*
G36*
X1232Y147D02*
X1232Y145D01*
X1240Y145D01*
X1240Y143D01*
X1246Y143D01*
X1246Y141D01*
X1248Y141D01*
X1248Y139D01*
X1252Y139D01*
X1252Y137D01*
X1254Y137D01*
X1254Y135D01*
X1258Y135D01*
X1258Y133D01*
X1260Y133D01*
X1260Y131D01*
X1262Y131D01*
X1262Y129D01*
X1264Y129D01*
X1264Y125D01*
X1266Y125D01*
X1266Y123D01*
X1286Y123D01*
X1286Y125D01*
X1288Y125D01*
X1288Y127D01*
X1290Y127D01*
X1290Y129D01*
X1292Y129D01*
X1292Y131D01*
X1294Y131D01*
X1294Y133D01*
X1296Y133D01*
X1296Y135D01*
X1298Y135D01*
X1298Y137D01*
X1302Y137D01*
X1302Y139D01*
X1304Y139D01*
X1304Y141D01*
X1308Y141D01*
X1308Y143D01*
X1312Y143D01*
X1312Y145D01*
X1320Y145D01*
X1320Y147D01*
X1232Y147D01*
G37*
D02*
G36*
X1332Y147D02*
X1332Y145D01*
X1340Y145D01*
X1340Y143D01*
X1346Y143D01*
X1346Y141D01*
X1348Y141D01*
X1348Y139D01*
X1352Y139D01*
X1352Y137D01*
X1354Y137D01*
X1354Y135D01*
X1358Y135D01*
X1358Y133D01*
X1360Y133D01*
X1360Y131D01*
X1362Y131D01*
X1362Y129D01*
X1364Y129D01*
X1364Y125D01*
X1366Y125D01*
X1366Y123D01*
X1386Y123D01*
X1386Y125D01*
X1388Y125D01*
X1388Y127D01*
X1390Y127D01*
X1390Y129D01*
X1392Y129D01*
X1392Y131D01*
X1394Y131D01*
X1394Y133D01*
X1396Y133D01*
X1396Y135D01*
X1398Y135D01*
X1398Y137D01*
X1402Y137D01*
X1402Y139D01*
X1404Y139D01*
X1404Y141D01*
X1408Y141D01*
X1408Y143D01*
X1412Y143D01*
X1412Y145D01*
X1420Y145D01*
X1420Y147D01*
X1332Y147D01*
G37*
D02*
G36*
X1432Y147D02*
X1432Y145D01*
X1440Y145D01*
X1440Y143D01*
X1446Y143D01*
X1446Y141D01*
X1448Y141D01*
X1448Y139D01*
X1452Y139D01*
X1452Y137D01*
X1454Y137D01*
X1454Y135D01*
X1458Y135D01*
X1458Y133D01*
X1460Y133D01*
X1460Y131D01*
X1462Y131D01*
X1462Y129D01*
X1464Y129D01*
X1464Y125D01*
X1466Y125D01*
X1466Y123D01*
X1486Y123D01*
X1486Y125D01*
X1488Y125D01*
X1488Y127D01*
X1490Y127D01*
X1490Y129D01*
X1492Y129D01*
X1492Y131D01*
X1494Y131D01*
X1494Y133D01*
X1496Y133D01*
X1496Y135D01*
X1498Y135D01*
X1498Y137D01*
X1502Y137D01*
X1502Y139D01*
X1504Y139D01*
X1504Y141D01*
X1508Y141D01*
X1508Y143D01*
X1512Y143D01*
X1512Y145D01*
X1520Y145D01*
X1520Y147D01*
X1432Y147D01*
G37*
D02*
G36*
X1532Y147D02*
X1532Y145D01*
X1540Y145D01*
X1540Y143D01*
X1546Y143D01*
X1546Y141D01*
X1548Y141D01*
X1548Y139D01*
X1552Y139D01*
X1552Y137D01*
X1554Y137D01*
X1554Y135D01*
X1558Y135D01*
X1558Y133D01*
X1560Y133D01*
X1560Y131D01*
X1562Y131D01*
X1562Y129D01*
X1564Y129D01*
X1564Y125D01*
X1566Y125D01*
X1566Y123D01*
X1586Y123D01*
X1586Y125D01*
X1588Y125D01*
X1588Y127D01*
X1590Y127D01*
X1590Y129D01*
X1592Y129D01*
X1592Y131D01*
X1594Y131D01*
X1594Y133D01*
X1596Y133D01*
X1596Y135D01*
X1598Y135D01*
X1598Y137D01*
X1602Y137D01*
X1602Y139D01*
X1604Y139D01*
X1604Y141D01*
X1608Y141D01*
X1608Y143D01*
X1612Y143D01*
X1612Y145D01*
X1620Y145D01*
X1620Y147D01*
X1532Y147D01*
G37*
D02*
G36*
X756Y133D02*
X756Y129D01*
X758Y129D01*
X758Y125D01*
X760Y125D01*
X760Y123D01*
X762Y123D01*
X762Y121D01*
X794Y121D01*
X794Y123D01*
X790Y123D01*
X790Y125D01*
X786Y125D01*
X786Y127D01*
X782Y127D01*
X782Y129D01*
X780Y129D01*
X780Y131D01*
X776Y131D01*
X776Y133D01*
X756Y133D01*
G37*
D02*
G36*
X762Y121D02*
X762Y119D01*
X884Y119D01*
X884Y121D01*
X762Y121D01*
G37*
D02*
G36*
X762Y121D02*
X762Y119D01*
X884Y119D01*
X884Y121D01*
X762Y121D01*
G37*
D02*
G36*
X764Y119D02*
X764Y115D01*
X766Y115D01*
X766Y109D01*
X768Y109D01*
X768Y91D01*
X766Y91D01*
X766Y85D01*
X764Y85D01*
X764Y81D01*
X762Y81D01*
X762Y77D01*
X760Y77D01*
X760Y75D01*
X758Y75D01*
X758Y71D01*
X756Y71D01*
X756Y69D01*
X754Y69D01*
X754Y67D01*
X752Y67D01*
X752Y65D01*
X750Y65D01*
X750Y63D01*
X746Y63D01*
X746Y61D01*
X744Y61D01*
X744Y41D01*
X898Y41D01*
X898Y61D01*
X896Y61D01*
X896Y63D01*
X892Y63D01*
X892Y67D01*
X890Y67D01*
X890Y69D01*
X888Y69D01*
X888Y71D01*
X886Y71D01*
X886Y73D01*
X884Y73D01*
X884Y77D01*
X882Y77D01*
X882Y81D01*
X880Y81D01*
X880Y87D01*
X878Y87D01*
X878Y107D01*
X880Y107D01*
X880Y113D01*
X882Y113D01*
X882Y117D01*
X884Y117D01*
X884Y119D01*
X764Y119D01*
G37*
D02*
G36*
X234Y109D02*
X234Y107D01*
X230Y107D01*
X230Y105D01*
X228Y105D01*
X228Y103D01*
X226Y103D01*
X226Y101D01*
X224Y101D01*
X224Y75D01*
X222Y75D01*
X222Y69D01*
X220Y69D01*
X220Y65D01*
X218Y65D01*
X218Y61D01*
X216Y61D01*
X216Y41D01*
X270Y41D01*
X270Y61D01*
X266Y61D01*
X266Y63D01*
X264Y63D01*
X264Y67D01*
X262Y67D01*
X262Y69D01*
X260Y69D01*
X260Y71D01*
X258Y71D01*
X258Y75D01*
X256Y75D01*
X256Y79D01*
X254Y79D01*
X254Y85D01*
X252Y85D01*
X252Y105D01*
X254Y105D01*
X254Y109D01*
X234Y109D01*
G37*
D02*
G36*
X579Y81D02*
X616Y81D01*
X616Y47D01*
X579Y47D01*
X579Y81D01*
G37*
D02*
G36*
X701Y485D02*
X738Y485D01*
X738Y453D01*
X701Y453D01*
X701Y485D01*
G37*
D02*
G36*
X905Y655D02*
X942Y655D01*
X942Y623D01*
X905Y623D01*
X905Y655D01*
G37*
D02*
G36*
X1946Y653D02*
X1985Y653D01*
X1985Y621D01*
X1946Y621D01*
X1946Y653D01*
G37*
D02*
G36*
X1984Y621D02*
X2018Y621D01*
X2018Y582D01*
X1984Y582D01*
X1984Y621D01*
G37*
D02*
G36*
X1836Y635D02*
X1871Y635D01*
X1871Y603D01*
X1836Y603D01*
X1836Y635D01*
G37*
D02*
G36*
X1503Y655D02*
X1540Y655D01*
X1540Y623D01*
X1503Y623D01*
X1503Y655D01*
G37*
D02*
G36*
X1503Y589D02*
X1540Y589D01*
X1540Y557D01*
X1503Y557D01*
X1503Y589D01*
G37*
D02*
G36*
X1403Y655D02*
X1440Y655D01*
X1440Y623D01*
X1403Y623D01*
X1403Y655D01*
G37*
D02*
G36*
X1403Y589D02*
X1440Y589D01*
X1440Y557D01*
X1403Y557D01*
X1403Y589D01*
G37*
D02*
G36*
X1303Y655D02*
X1340Y655D01*
X1340Y623D01*
X1303Y623D01*
X1303Y655D01*
G37*
D02*
G54D19*
X470Y617D02*
X543Y617D01*
X470Y616D02*
X543Y616D01*
X470Y615D02*
X543Y615D01*
X470Y614D02*
X543Y614D01*
X470Y613D02*
X543Y613D01*
X470Y612D02*
X543Y612D01*
X470Y611D02*
X543Y611D01*
X470Y610D02*
X543Y610D01*
X470Y609D02*
X543Y609D01*
X470Y608D02*
X543Y608D01*
X470Y607D02*
X543Y607D01*
X470Y606D02*
X543Y606D01*
X470Y605D02*
X543Y605D01*
X470Y604D02*
X543Y604D01*
X470Y603D02*
X543Y603D01*
X470Y602D02*
X543Y602D01*
X470Y601D02*
X543Y601D01*
X470Y600D02*
X500Y600D01*
X513Y600D02*
X543Y600D01*
X470Y599D02*
X497Y599D01*
X516Y599D02*
X543Y599D01*
X470Y598D02*
X496Y598D01*
X517Y598D02*
X543Y598D01*
X470Y597D02*
X494Y597D01*
X519Y597D02*
X543Y597D01*
X470Y596D02*
X493Y596D01*
X520Y596D02*
X543Y596D01*
X470Y595D02*
X492Y595D01*
X521Y595D02*
X543Y595D01*
X470Y594D02*
X491Y594D01*
X522Y594D02*
X543Y594D01*
X470Y593D02*
X490Y593D01*
X523Y593D02*
X543Y593D01*
X470Y592D02*
X489Y592D01*
X524Y592D02*
X543Y592D01*
X470Y591D02*
X489Y591D01*
X524Y591D02*
X543Y591D01*
X470Y590D02*
X488Y590D01*
X525Y590D02*
X543Y590D01*
X470Y589D02*
X488Y589D01*
X525Y589D02*
X543Y589D01*
X470Y588D02*
X487Y588D01*
X526Y588D02*
X543Y588D01*
X470Y587D02*
X487Y587D01*
X526Y587D02*
X543Y587D01*
X470Y586D02*
X487Y586D01*
X526Y586D02*
X543Y586D01*
X470Y585D02*
X486Y585D01*
X527Y585D02*
X543Y585D01*
X470Y584D02*
X486Y584D01*
X527Y584D02*
X543Y584D01*
X470Y583D02*
X486Y583D01*
X527Y583D02*
X543Y583D01*
X470Y582D02*
X486Y582D01*
X527Y582D02*
X543Y582D01*
X470Y581D02*
X486Y581D01*
X527Y581D02*
X543Y581D01*
X470Y580D02*
X486Y580D01*
X527Y580D02*
X543Y580D01*
X470Y579D02*
X486Y579D01*
X527Y579D02*
X543Y579D01*
X470Y578D02*
X486Y578D01*
X527Y578D02*
X543Y578D01*
X470Y577D02*
X486Y577D01*
X527Y577D02*
X543Y577D01*
X470Y576D02*
X487Y576D01*
X526Y576D02*
X543Y576D01*
X470Y575D02*
X487Y575D01*
X526Y575D02*
X543Y575D01*
X470Y574D02*
X487Y574D01*
X526Y574D02*
X543Y574D01*
X470Y573D02*
X488Y573D01*
X525Y573D02*
X543Y573D01*
X470Y572D02*
X488Y572D01*
X525Y572D02*
X543Y572D01*
X470Y571D02*
X489Y571D01*
X524Y571D02*
X543Y571D01*
X470Y570D02*
X489Y570D01*
X524Y570D02*
X543Y570D01*
X470Y569D02*
X490Y569D01*
X523Y569D02*
X543Y569D01*
X470Y568D02*
X491Y568D01*
X522Y568D02*
X543Y568D01*
X470Y567D02*
X492Y567D01*
X521Y567D02*
X543Y567D01*
X470Y566D02*
X493Y566D01*
X520Y566D02*
X543Y566D01*
X470Y565D02*
X494Y565D01*
X519Y565D02*
X543Y565D01*
X470Y564D02*
X495Y564D01*
X518Y564D02*
X543Y564D01*
X470Y563D02*
X497Y563D01*
X516Y563D02*
X543Y563D01*
X470Y562D02*
X500Y562D01*
X513Y562D02*
X543Y562D01*
X470Y561D02*
X505Y561D01*
X508Y561D02*
X543Y561D01*
X470Y560D02*
X543Y560D01*
X470Y559D02*
X543Y559D01*
X470Y558D02*
X543Y558D01*
X470Y557D02*
X543Y557D01*
X470Y556D02*
X543Y556D01*
X470Y555D02*
X543Y555D01*
X470Y554D02*
X543Y554D01*
X470Y553D02*
X543Y553D01*
X470Y552D02*
X543Y552D01*
X470Y551D02*
X543Y551D01*
X470Y550D02*
X543Y550D01*
X470Y549D02*
X543Y549D01*
X470Y548D02*
X543Y548D01*
X470Y547D02*
X543Y547D01*
X470Y546D02*
X543Y546D01*
X470Y545D02*
X543Y545D01*
X470Y544D02*
X543Y544D01*
D02*
G04 End of Copper1*
M02*