; NON-PLATED HOLES START AT T1
; THROUGH (PLATED) HOLES START AT T100
M48
INCH
T1C0.106299
T100C0.030000
T101C0.035000
T102C0.040000
T103C0.042000
T104C0.038000
%
T1
X002199Y005352
X017736Y001013
T100
X006162Y005827
X007164Y005827
X018564Y004866
X018564Y005868
T101
X008060Y005680
X005989Y000953
X015246Y006044
X011246Y003044
X017246Y003044
X005989Y001953
X010246Y003044
X016246Y003044
X013246Y006044
X005989Y002953
X002989Y000953
X012246Y006044
X000690Y001827
X009246Y003044
X014246Y003044
X008060Y001680
X005989Y003953
X002989Y001953
X007206Y001003
X015246Y003044
X002989Y002953
X011246Y006044
X017246Y006044
X013246Y003044
X002989Y003953
X010246Y006044
X016246Y006044
X012246Y003044
X000690Y005827
X007206Y005003
X009246Y006044
X014246Y006044
T102
X005070Y005807
X003970Y005807
T103
X001734Y000852
X001734Y003832
T104
X019686Y001000
X011266Y000978
X015266Y000978
X019686Y004000
X014266Y000978
X019686Y006000
X012266Y000978
X010266Y000978
X019686Y003000
X016266Y000978
X019686Y002000
X009266Y000978
X019686Y005000
X013266Y000978
T00
M30
