G04 MADE WITH FRITZING*
G04 WWW.FRITZING.ORG*
G04 DOUBLE SIDED*
G04 HOLES PLATED*
G04 CONTOUR ON CENTER OF CONTOUR VECTOR*
%ASAXBY*%
%FSLAX23Y23*%
%MOIN*%
%OFA0B0*%
%SFA1.0B1.0*%
%ADD10C,0.075000*%
%ADD11C,0.078000*%
%ADD12C,0.074000*%
%ADD13C,0.070000*%
%ADD14C,0.082000*%
%ADD15R,0.075000X0.075000*%
%ADD16R,0.082000X0.082000*%
%ADD17C,0.024000*%
%ADD18R,0.001000X0.001000*%
%LNCOPPER0*%
G90*
G70*
G54D10*
X1571Y486D03*
X1858Y350D03*
X392Y454D03*
G54D11*
X1627Y98D03*
X1527Y98D03*
X1427Y98D03*
X1327Y98D03*
X1227Y98D03*
X1127Y98D03*
X1027Y98D03*
X927Y98D03*
X1969Y100D03*
X1969Y200D03*
X1969Y300D03*
X1969Y400D03*
X1969Y500D03*
X1969Y600D03*
G54D10*
X299Y395D03*
X599Y395D03*
X299Y295D03*
X599Y295D03*
X299Y195D03*
X599Y195D03*
X299Y95D03*
X599Y95D03*
X1725Y604D03*
X1625Y604D03*
X1525Y604D03*
X1425Y604D03*
X1325Y604D03*
X1225Y604D03*
X1125Y604D03*
X1025Y604D03*
X925Y604D03*
X925Y304D03*
X1025Y304D03*
X1125Y304D03*
X1225Y304D03*
X1325Y304D03*
X1425Y304D03*
X1525Y304D03*
X1625Y304D03*
X1725Y304D03*
G54D12*
X507Y581D03*
X397Y581D03*
G54D13*
X1856Y487D03*
X1856Y587D03*
X716Y583D03*
X616Y583D03*
G54D10*
X806Y168D03*
X806Y568D03*
X721Y100D03*
X721Y500D03*
G54D14*
X173Y383D03*
X173Y85D03*
G54D10*
X69Y583D03*
X69Y183D03*
G54D15*
X299Y395D03*
X1725Y604D03*
G54D16*
X173Y384D03*
G54D17*
X1225Y276D02*
X1226Y128D01*
D02*
X1425Y276D02*
X1426Y128D01*
D02*
X1625Y276D02*
X1626Y128D01*
D02*
X1125Y276D02*
X1126Y128D01*
D02*
X1525Y276D02*
X1526Y128D01*
D02*
X1025Y276D02*
X1026Y128D01*
D02*
X925Y276D02*
X926Y128D01*
D02*
X1325Y276D02*
X1326Y128D01*
D02*
X621Y277D02*
X690Y221D01*
D02*
X690Y221D02*
X714Y128D01*
D02*
X614Y557D02*
X602Y424D01*
D02*
X718Y557D02*
X719Y529D01*
D02*
X906Y626D02*
X900Y633D01*
X900Y633D02*
X732Y633D01*
X732Y633D02*
X724Y608D01*
D02*
X1792Y539D02*
X1572Y537D01*
D02*
X1835Y571D02*
X1792Y539D01*
D02*
X1572Y537D02*
X1541Y581D01*
D02*
X228Y297D02*
X270Y296D01*
D02*
X191Y356D02*
X228Y297D01*
D02*
X1274Y499D02*
X1660Y375D01*
D02*
X1660Y375D02*
X1705Y326D01*
D02*
X1237Y579D02*
X1274Y499D01*
D02*
X1841Y465D02*
X1741Y328D01*
G36*
X1902Y589D02*
X1902Y581D01*
X1900Y581D01*
X1900Y573D01*
X1898Y573D01*
X1898Y569D01*
X1896Y569D01*
X1896Y565D01*
X1894Y565D01*
X1894Y563D01*
X1892Y563D01*
X1892Y559D01*
X1890Y559D01*
X1890Y557D01*
X1888Y557D01*
X1888Y555D01*
X1886Y555D01*
X1886Y553D01*
X1884Y553D01*
X1884Y551D01*
X1880Y551D01*
X1880Y549D01*
X1878Y549D01*
X1878Y547D01*
X1874Y547D01*
X1874Y527D01*
X1876Y527D01*
X1876Y525D01*
X1878Y525D01*
X1878Y523D01*
X1882Y523D01*
X1882Y521D01*
X1884Y521D01*
X1884Y519D01*
X1886Y519D01*
X1886Y517D01*
X1888Y517D01*
X1888Y515D01*
X1890Y515D01*
X1890Y513D01*
X1892Y513D01*
X1892Y511D01*
X1894Y511D01*
X1894Y507D01*
X1896Y507D01*
X1896Y503D01*
X1898Y503D01*
X1898Y499D01*
X1900Y499D01*
X1900Y491D01*
X1920Y491D01*
X1920Y509D01*
X1922Y509D01*
X1922Y515D01*
X1924Y515D01*
X1924Y519D01*
X1926Y519D01*
X1926Y523D01*
X1928Y523D01*
X1928Y527D01*
X1930Y527D01*
X1930Y529D01*
X1932Y529D01*
X1932Y531D01*
X1934Y531D01*
X1934Y533D01*
X1936Y533D01*
X1936Y535D01*
X1938Y535D01*
X1938Y537D01*
X1940Y537D01*
X1940Y539D01*
X1942Y539D01*
X1942Y561D01*
X1940Y561D01*
X1940Y563D01*
X1938Y563D01*
X1938Y565D01*
X1936Y565D01*
X1936Y567D01*
X1934Y567D01*
X1934Y569D01*
X1932Y569D01*
X1932Y571D01*
X1930Y571D01*
X1930Y573D01*
X1928Y573D01*
X1928Y577D01*
X1926Y577D01*
X1926Y579D01*
X1924Y579D01*
X1924Y583D01*
X1922Y583D01*
X1922Y589D01*
X1902Y589D01*
G37*
D02*
G36*
X1772Y653D02*
X1772Y631D01*
X1866Y631D01*
X1866Y629D01*
X1872Y629D01*
X1872Y627D01*
X1876Y627D01*
X1876Y625D01*
X1880Y625D01*
X1880Y623D01*
X1882Y623D01*
X1882Y621D01*
X1884Y621D01*
X1884Y619D01*
X1886Y619D01*
X1886Y617D01*
X1888Y617D01*
X1888Y615D01*
X1890Y615D01*
X1890Y613D01*
X1892Y613D01*
X1892Y611D01*
X1894Y611D01*
X1894Y607D01*
X1896Y607D01*
X1896Y603D01*
X1898Y603D01*
X1898Y599D01*
X1900Y599D01*
X1900Y591D01*
X1920Y591D01*
X1920Y609D01*
X1922Y609D01*
X1922Y615D01*
X1924Y615D01*
X1924Y619D01*
X1926Y619D01*
X1926Y623D01*
X1928Y623D01*
X1928Y627D01*
X1930Y627D01*
X1930Y629D01*
X1932Y629D01*
X1932Y631D01*
X1934Y631D01*
X1934Y633D01*
X1936Y633D01*
X1936Y653D01*
X1772Y653D01*
G37*
D02*
G36*
X1772Y631D02*
X1772Y557D01*
X1824Y557D01*
X1824Y559D01*
X1822Y559D01*
X1822Y561D01*
X1820Y561D01*
X1820Y563D01*
X1818Y563D01*
X1818Y567D01*
X1816Y567D01*
X1816Y571D01*
X1814Y571D01*
X1814Y577D01*
X1812Y577D01*
X1812Y597D01*
X1814Y597D01*
X1814Y601D01*
X1816Y601D01*
X1816Y605D01*
X1818Y605D01*
X1818Y609D01*
X1820Y609D01*
X1820Y611D01*
X1822Y611D01*
X1822Y615D01*
X1824Y615D01*
X1824Y617D01*
X1826Y617D01*
X1826Y619D01*
X1828Y619D01*
X1828Y621D01*
X1832Y621D01*
X1832Y623D01*
X1834Y623D01*
X1834Y625D01*
X1838Y625D01*
X1838Y627D01*
X1842Y627D01*
X1842Y629D01*
X1846Y629D01*
X1846Y631D01*
X1772Y631D01*
G37*
D02*
G36*
X1266Y581D02*
X1266Y565D01*
X1268Y565D01*
X1268Y561D01*
X1270Y561D01*
X1270Y557D01*
X1314Y557D01*
X1314Y559D01*
X1308Y559D01*
X1308Y561D01*
X1304Y561D01*
X1304Y563D01*
X1302Y563D01*
X1302Y565D01*
X1298Y565D01*
X1298Y567D01*
X1296Y567D01*
X1296Y569D01*
X1294Y569D01*
X1294Y571D01*
X1292Y571D01*
X1292Y573D01*
X1290Y573D01*
X1290Y575D01*
X1288Y575D01*
X1288Y577D01*
X1286Y577D01*
X1286Y581D01*
X1266Y581D01*
G37*
D02*
G36*
X1364Y581D02*
X1364Y579D01*
X1362Y579D01*
X1362Y575D01*
X1360Y575D01*
X1360Y573D01*
X1358Y573D01*
X1358Y571D01*
X1356Y571D01*
X1356Y569D01*
X1354Y569D01*
X1354Y567D01*
X1350Y567D01*
X1350Y565D01*
X1348Y565D01*
X1348Y563D01*
X1344Y563D01*
X1344Y561D01*
X1340Y561D01*
X1340Y559D01*
X1334Y559D01*
X1334Y557D01*
X1414Y557D01*
X1414Y559D01*
X1408Y559D01*
X1408Y561D01*
X1404Y561D01*
X1404Y563D01*
X1402Y563D01*
X1402Y565D01*
X1398Y565D01*
X1398Y567D01*
X1396Y567D01*
X1396Y569D01*
X1394Y569D01*
X1394Y571D01*
X1392Y571D01*
X1392Y573D01*
X1390Y573D01*
X1390Y575D01*
X1388Y575D01*
X1388Y577D01*
X1386Y577D01*
X1386Y581D01*
X1364Y581D01*
G37*
D02*
G36*
X1464Y581D02*
X1464Y579D01*
X1462Y579D01*
X1462Y575D01*
X1460Y575D01*
X1460Y573D01*
X1458Y573D01*
X1458Y571D01*
X1456Y571D01*
X1456Y569D01*
X1454Y569D01*
X1454Y567D01*
X1450Y567D01*
X1450Y565D01*
X1448Y565D01*
X1448Y563D01*
X1444Y563D01*
X1444Y561D01*
X1440Y561D01*
X1440Y559D01*
X1434Y559D01*
X1434Y557D01*
X1514Y557D01*
X1514Y559D01*
X1508Y559D01*
X1508Y561D01*
X1504Y561D01*
X1504Y563D01*
X1502Y563D01*
X1502Y565D01*
X1498Y565D01*
X1498Y567D01*
X1496Y567D01*
X1496Y569D01*
X1494Y569D01*
X1494Y571D01*
X1492Y571D01*
X1492Y573D01*
X1490Y573D01*
X1490Y575D01*
X1488Y575D01*
X1488Y577D01*
X1486Y577D01*
X1486Y581D01*
X1464Y581D01*
G37*
D02*
G36*
X1564Y581D02*
X1564Y579D01*
X1562Y579D01*
X1562Y575D01*
X1560Y575D01*
X1560Y573D01*
X1558Y573D01*
X1558Y571D01*
X1556Y571D01*
X1556Y569D01*
X1554Y569D01*
X1554Y567D01*
X1550Y567D01*
X1550Y565D01*
X1548Y565D01*
X1548Y563D01*
X1544Y563D01*
X1544Y561D01*
X1540Y561D01*
X1540Y559D01*
X1534Y559D01*
X1534Y557D01*
X1614Y557D01*
X1614Y559D01*
X1608Y559D01*
X1608Y561D01*
X1604Y561D01*
X1604Y563D01*
X1602Y563D01*
X1602Y565D01*
X1598Y565D01*
X1598Y567D01*
X1596Y567D01*
X1596Y569D01*
X1594Y569D01*
X1594Y571D01*
X1592Y571D01*
X1592Y573D01*
X1590Y573D01*
X1590Y575D01*
X1588Y575D01*
X1588Y577D01*
X1586Y577D01*
X1586Y581D01*
X1564Y581D01*
G37*
D02*
G36*
X1658Y573D02*
X1658Y571D01*
X1656Y571D01*
X1656Y569D01*
X1654Y569D01*
X1654Y567D01*
X1650Y567D01*
X1650Y565D01*
X1648Y565D01*
X1648Y563D01*
X1644Y563D01*
X1644Y561D01*
X1640Y561D01*
X1640Y559D01*
X1634Y559D01*
X1634Y557D01*
X1678Y557D01*
X1678Y573D01*
X1658Y573D01*
G37*
D02*
G36*
X1272Y557D02*
X1272Y555D01*
X1826Y555D01*
X1826Y557D01*
X1272Y557D01*
G37*
D02*
G36*
X1272Y557D02*
X1272Y555D01*
X1826Y555D01*
X1826Y557D01*
X1272Y557D01*
G37*
D02*
G36*
X1272Y557D02*
X1272Y555D01*
X1826Y555D01*
X1826Y557D01*
X1272Y557D01*
G37*
D02*
G36*
X1272Y557D02*
X1272Y555D01*
X1826Y555D01*
X1826Y557D01*
X1272Y557D01*
G37*
D02*
G36*
X1272Y557D02*
X1272Y555D01*
X1826Y555D01*
X1826Y557D01*
X1272Y557D01*
G37*
D02*
G36*
X1272Y557D02*
X1272Y555D01*
X1826Y555D01*
X1826Y557D01*
X1272Y557D01*
G37*
D02*
G36*
X1272Y555D02*
X1272Y553D01*
X1274Y553D01*
X1274Y549D01*
X1276Y549D01*
X1276Y543D01*
X1278Y543D01*
X1278Y539D01*
X1280Y539D01*
X1280Y535D01*
X1282Y535D01*
X1282Y531D01*
X1284Y531D01*
X1284Y527D01*
X1286Y527D01*
X1286Y523D01*
X1288Y523D01*
X1288Y519D01*
X1290Y519D01*
X1290Y517D01*
X1292Y517D01*
X1292Y515D01*
X1298Y515D01*
X1298Y513D01*
X1304Y513D01*
X1304Y511D01*
X1312Y511D01*
X1312Y509D01*
X1318Y509D01*
X1318Y507D01*
X1324Y507D01*
X1324Y505D01*
X1330Y505D01*
X1330Y503D01*
X1336Y503D01*
X1336Y501D01*
X1342Y501D01*
X1342Y499D01*
X1348Y499D01*
X1348Y497D01*
X1354Y497D01*
X1354Y495D01*
X1360Y495D01*
X1360Y493D01*
X1368Y493D01*
X1368Y491D01*
X1374Y491D01*
X1374Y489D01*
X1380Y489D01*
X1380Y487D01*
X1386Y487D01*
X1386Y485D01*
X1392Y485D01*
X1392Y483D01*
X1398Y483D01*
X1398Y481D01*
X1404Y481D01*
X1404Y479D01*
X1410Y479D01*
X1410Y477D01*
X1418Y477D01*
X1418Y475D01*
X1424Y475D01*
X1424Y473D01*
X1430Y473D01*
X1430Y471D01*
X1436Y471D01*
X1436Y469D01*
X1442Y469D01*
X1442Y467D01*
X1448Y467D01*
X1448Y465D01*
X1454Y465D01*
X1454Y463D01*
X1460Y463D01*
X1460Y461D01*
X1466Y461D01*
X1466Y459D01*
X1474Y459D01*
X1474Y457D01*
X1480Y457D01*
X1480Y455D01*
X1486Y455D01*
X1486Y453D01*
X1492Y453D01*
X1492Y451D01*
X1498Y451D01*
X1498Y449D01*
X1504Y449D01*
X1504Y447D01*
X1510Y447D01*
X1510Y445D01*
X1516Y445D01*
X1516Y443D01*
X1522Y443D01*
X1522Y441D01*
X1530Y441D01*
X1530Y439D01*
X1536Y439D01*
X1536Y437D01*
X1542Y437D01*
X1542Y435D01*
X1548Y435D01*
X1548Y433D01*
X1554Y433D01*
X1554Y431D01*
X1560Y431D01*
X1560Y429D01*
X1566Y429D01*
X1566Y427D01*
X1572Y427D01*
X1572Y425D01*
X1578Y425D01*
X1578Y423D01*
X1586Y423D01*
X1586Y421D01*
X1592Y421D01*
X1592Y419D01*
X1598Y419D01*
X1598Y417D01*
X1604Y417D01*
X1604Y415D01*
X1610Y415D01*
X1610Y413D01*
X1616Y413D01*
X1616Y411D01*
X1622Y411D01*
X1622Y409D01*
X1628Y409D01*
X1628Y407D01*
X1634Y407D01*
X1634Y405D01*
X1642Y405D01*
X1642Y403D01*
X1648Y403D01*
X1648Y401D01*
X1654Y401D01*
X1654Y399D01*
X1660Y399D01*
X1660Y397D01*
X1666Y397D01*
X1666Y395D01*
X1670Y395D01*
X1670Y393D01*
X1674Y393D01*
X1674Y391D01*
X1676Y391D01*
X1676Y389D01*
X1678Y389D01*
X1678Y387D01*
X1680Y387D01*
X1680Y385D01*
X1682Y385D01*
X1682Y381D01*
X1684Y381D01*
X1684Y379D01*
X1686Y379D01*
X1686Y377D01*
X1688Y377D01*
X1688Y375D01*
X1690Y375D01*
X1690Y373D01*
X1692Y373D01*
X1692Y371D01*
X1694Y371D01*
X1694Y369D01*
X1696Y369D01*
X1696Y367D01*
X1698Y367D01*
X1698Y365D01*
X1700Y365D01*
X1700Y363D01*
X1702Y363D01*
X1702Y361D01*
X1704Y361D01*
X1704Y359D01*
X1706Y359D01*
X1706Y355D01*
X1708Y355D01*
X1708Y353D01*
X1710Y353D01*
X1710Y351D01*
X1732Y351D01*
X1732Y353D01*
X1734Y353D01*
X1734Y357D01*
X1736Y357D01*
X1736Y359D01*
X1738Y359D01*
X1738Y361D01*
X1740Y361D01*
X1740Y365D01*
X1742Y365D01*
X1742Y367D01*
X1744Y367D01*
X1744Y369D01*
X1746Y369D01*
X1746Y373D01*
X1748Y373D01*
X1748Y375D01*
X1750Y375D01*
X1750Y379D01*
X1752Y379D01*
X1752Y381D01*
X1754Y381D01*
X1754Y383D01*
X1756Y383D01*
X1756Y387D01*
X1758Y387D01*
X1758Y389D01*
X1760Y389D01*
X1760Y391D01*
X1762Y391D01*
X1762Y395D01*
X1764Y395D01*
X1764Y397D01*
X1766Y397D01*
X1766Y401D01*
X1768Y401D01*
X1768Y403D01*
X1770Y403D01*
X1770Y405D01*
X1772Y405D01*
X1772Y409D01*
X1774Y409D01*
X1774Y411D01*
X1776Y411D01*
X1776Y415D01*
X1778Y415D01*
X1778Y417D01*
X1780Y417D01*
X1780Y419D01*
X1782Y419D01*
X1782Y423D01*
X1784Y423D01*
X1784Y425D01*
X1786Y425D01*
X1786Y427D01*
X1788Y427D01*
X1788Y431D01*
X1790Y431D01*
X1790Y433D01*
X1792Y433D01*
X1792Y437D01*
X1794Y437D01*
X1794Y439D01*
X1796Y439D01*
X1796Y441D01*
X1798Y441D01*
X1798Y445D01*
X1800Y445D01*
X1800Y447D01*
X1802Y447D01*
X1802Y449D01*
X1804Y449D01*
X1804Y453D01*
X1806Y453D01*
X1806Y455D01*
X1808Y455D01*
X1808Y459D01*
X1810Y459D01*
X1810Y461D01*
X1812Y461D01*
X1812Y497D01*
X1814Y497D01*
X1814Y501D01*
X1816Y501D01*
X1816Y505D01*
X1818Y505D01*
X1818Y509D01*
X1820Y509D01*
X1820Y511D01*
X1822Y511D01*
X1822Y515D01*
X1824Y515D01*
X1824Y517D01*
X1826Y517D01*
X1826Y519D01*
X1828Y519D01*
X1828Y521D01*
X1832Y521D01*
X1832Y523D01*
X1834Y523D01*
X1834Y525D01*
X1838Y525D01*
X1838Y547D01*
X1836Y547D01*
X1836Y549D01*
X1832Y549D01*
X1832Y551D01*
X1830Y551D01*
X1830Y553D01*
X1828Y553D01*
X1828Y555D01*
X1272Y555D01*
G37*
D02*
G36*
X964Y281D02*
X964Y279D01*
X962Y279D01*
X962Y275D01*
X960Y275D01*
X960Y273D01*
X958Y273D01*
X958Y271D01*
X956Y271D01*
X956Y269D01*
X954Y269D01*
X954Y267D01*
X950Y267D01*
X950Y265D01*
X948Y265D01*
X948Y139D01*
X952Y139D01*
X952Y137D01*
X954Y137D01*
X954Y135D01*
X958Y135D01*
X958Y133D01*
X960Y133D01*
X960Y131D01*
X962Y131D01*
X962Y129D01*
X964Y129D01*
X964Y125D01*
X966Y125D01*
X966Y123D01*
X986Y123D01*
X986Y125D01*
X988Y125D01*
X988Y127D01*
X990Y127D01*
X990Y129D01*
X992Y129D01*
X992Y131D01*
X994Y131D01*
X994Y133D01*
X996Y133D01*
X996Y135D01*
X998Y135D01*
X998Y137D01*
X1002Y137D01*
X1002Y139D01*
X1004Y139D01*
X1004Y261D01*
X1002Y261D01*
X1002Y265D01*
X998Y265D01*
X998Y267D01*
X996Y267D01*
X996Y269D01*
X994Y269D01*
X994Y271D01*
X992Y271D01*
X992Y273D01*
X990Y273D01*
X990Y275D01*
X988Y275D01*
X988Y277D01*
X986Y277D01*
X986Y281D01*
X964Y281D01*
G37*
D02*
G36*
X1064Y281D02*
X1064Y279D01*
X1062Y279D01*
X1062Y275D01*
X1060Y275D01*
X1060Y273D01*
X1058Y273D01*
X1058Y271D01*
X1056Y271D01*
X1056Y269D01*
X1054Y269D01*
X1054Y267D01*
X1050Y267D01*
X1050Y265D01*
X1048Y265D01*
X1048Y139D01*
X1052Y139D01*
X1052Y137D01*
X1054Y137D01*
X1054Y135D01*
X1058Y135D01*
X1058Y133D01*
X1060Y133D01*
X1060Y131D01*
X1062Y131D01*
X1062Y129D01*
X1064Y129D01*
X1064Y125D01*
X1066Y125D01*
X1066Y123D01*
X1086Y123D01*
X1086Y125D01*
X1088Y125D01*
X1088Y127D01*
X1090Y127D01*
X1090Y129D01*
X1092Y129D01*
X1092Y131D01*
X1094Y131D01*
X1094Y133D01*
X1096Y133D01*
X1096Y135D01*
X1098Y135D01*
X1098Y137D01*
X1102Y137D01*
X1102Y139D01*
X1104Y139D01*
X1104Y261D01*
X1102Y261D01*
X1102Y265D01*
X1098Y265D01*
X1098Y267D01*
X1096Y267D01*
X1096Y269D01*
X1094Y269D01*
X1094Y271D01*
X1092Y271D01*
X1092Y273D01*
X1090Y273D01*
X1090Y275D01*
X1088Y275D01*
X1088Y277D01*
X1086Y277D01*
X1086Y281D01*
X1064Y281D01*
G37*
D02*
G36*
X1164Y281D02*
X1164Y279D01*
X1162Y279D01*
X1162Y275D01*
X1160Y275D01*
X1160Y273D01*
X1158Y273D01*
X1158Y271D01*
X1156Y271D01*
X1156Y269D01*
X1154Y269D01*
X1154Y267D01*
X1150Y267D01*
X1150Y265D01*
X1148Y265D01*
X1148Y139D01*
X1152Y139D01*
X1152Y137D01*
X1154Y137D01*
X1154Y135D01*
X1158Y135D01*
X1158Y133D01*
X1160Y133D01*
X1160Y131D01*
X1162Y131D01*
X1162Y129D01*
X1164Y129D01*
X1164Y125D01*
X1166Y125D01*
X1166Y123D01*
X1186Y123D01*
X1186Y125D01*
X1188Y125D01*
X1188Y127D01*
X1190Y127D01*
X1190Y129D01*
X1192Y129D01*
X1192Y131D01*
X1194Y131D01*
X1194Y133D01*
X1196Y133D01*
X1196Y135D01*
X1198Y135D01*
X1198Y137D01*
X1202Y137D01*
X1202Y139D01*
X1204Y139D01*
X1204Y261D01*
X1202Y261D01*
X1202Y265D01*
X1198Y265D01*
X1198Y267D01*
X1196Y267D01*
X1196Y269D01*
X1194Y269D01*
X1194Y271D01*
X1192Y271D01*
X1192Y273D01*
X1190Y273D01*
X1190Y275D01*
X1188Y275D01*
X1188Y277D01*
X1186Y277D01*
X1186Y281D01*
X1164Y281D01*
G37*
D02*
G36*
X1264Y281D02*
X1264Y279D01*
X1262Y279D01*
X1262Y275D01*
X1260Y275D01*
X1260Y273D01*
X1258Y273D01*
X1258Y271D01*
X1256Y271D01*
X1256Y269D01*
X1254Y269D01*
X1254Y267D01*
X1250Y267D01*
X1250Y265D01*
X1248Y265D01*
X1248Y139D01*
X1252Y139D01*
X1252Y137D01*
X1254Y137D01*
X1254Y135D01*
X1258Y135D01*
X1258Y133D01*
X1260Y133D01*
X1260Y131D01*
X1262Y131D01*
X1262Y129D01*
X1264Y129D01*
X1264Y125D01*
X1266Y125D01*
X1266Y123D01*
X1286Y123D01*
X1286Y125D01*
X1288Y125D01*
X1288Y127D01*
X1290Y127D01*
X1290Y129D01*
X1292Y129D01*
X1292Y131D01*
X1294Y131D01*
X1294Y133D01*
X1296Y133D01*
X1296Y135D01*
X1298Y135D01*
X1298Y137D01*
X1302Y137D01*
X1302Y139D01*
X1304Y139D01*
X1304Y261D01*
X1302Y261D01*
X1302Y265D01*
X1298Y265D01*
X1298Y267D01*
X1296Y267D01*
X1296Y269D01*
X1294Y269D01*
X1294Y271D01*
X1292Y271D01*
X1292Y273D01*
X1290Y273D01*
X1290Y275D01*
X1288Y275D01*
X1288Y277D01*
X1286Y277D01*
X1286Y281D01*
X1264Y281D01*
G37*
D02*
G36*
X1364Y281D02*
X1364Y279D01*
X1362Y279D01*
X1362Y275D01*
X1360Y275D01*
X1360Y273D01*
X1358Y273D01*
X1358Y271D01*
X1356Y271D01*
X1356Y269D01*
X1354Y269D01*
X1354Y267D01*
X1350Y267D01*
X1350Y265D01*
X1348Y265D01*
X1348Y139D01*
X1352Y139D01*
X1352Y137D01*
X1354Y137D01*
X1354Y135D01*
X1358Y135D01*
X1358Y133D01*
X1360Y133D01*
X1360Y131D01*
X1362Y131D01*
X1362Y129D01*
X1364Y129D01*
X1364Y125D01*
X1366Y125D01*
X1366Y123D01*
X1386Y123D01*
X1386Y125D01*
X1388Y125D01*
X1388Y127D01*
X1390Y127D01*
X1390Y129D01*
X1392Y129D01*
X1392Y131D01*
X1394Y131D01*
X1394Y133D01*
X1396Y133D01*
X1396Y135D01*
X1398Y135D01*
X1398Y137D01*
X1402Y137D01*
X1402Y139D01*
X1404Y139D01*
X1404Y261D01*
X1402Y261D01*
X1402Y265D01*
X1398Y265D01*
X1398Y267D01*
X1396Y267D01*
X1396Y269D01*
X1394Y269D01*
X1394Y271D01*
X1392Y271D01*
X1392Y273D01*
X1390Y273D01*
X1390Y275D01*
X1388Y275D01*
X1388Y277D01*
X1386Y277D01*
X1386Y281D01*
X1364Y281D01*
G37*
D02*
G36*
X1464Y281D02*
X1464Y279D01*
X1462Y279D01*
X1462Y275D01*
X1460Y275D01*
X1460Y273D01*
X1458Y273D01*
X1458Y271D01*
X1456Y271D01*
X1456Y269D01*
X1454Y269D01*
X1454Y267D01*
X1450Y267D01*
X1450Y265D01*
X1448Y265D01*
X1448Y139D01*
X1452Y139D01*
X1452Y137D01*
X1454Y137D01*
X1454Y135D01*
X1458Y135D01*
X1458Y133D01*
X1460Y133D01*
X1460Y131D01*
X1462Y131D01*
X1462Y129D01*
X1464Y129D01*
X1464Y125D01*
X1466Y125D01*
X1466Y123D01*
X1486Y123D01*
X1486Y125D01*
X1488Y125D01*
X1488Y127D01*
X1490Y127D01*
X1490Y129D01*
X1492Y129D01*
X1492Y131D01*
X1494Y131D01*
X1494Y133D01*
X1496Y133D01*
X1496Y135D01*
X1498Y135D01*
X1498Y137D01*
X1502Y137D01*
X1502Y139D01*
X1504Y139D01*
X1504Y261D01*
X1502Y261D01*
X1502Y265D01*
X1498Y265D01*
X1498Y267D01*
X1496Y267D01*
X1496Y269D01*
X1494Y269D01*
X1494Y271D01*
X1492Y271D01*
X1492Y273D01*
X1490Y273D01*
X1490Y275D01*
X1488Y275D01*
X1488Y277D01*
X1486Y277D01*
X1486Y281D01*
X1464Y281D01*
G37*
D02*
G36*
X1564Y281D02*
X1564Y279D01*
X1562Y279D01*
X1562Y275D01*
X1560Y275D01*
X1560Y273D01*
X1558Y273D01*
X1558Y271D01*
X1556Y271D01*
X1556Y269D01*
X1554Y269D01*
X1554Y267D01*
X1550Y267D01*
X1550Y265D01*
X1548Y265D01*
X1548Y139D01*
X1552Y139D01*
X1552Y137D01*
X1554Y137D01*
X1554Y135D01*
X1558Y135D01*
X1558Y133D01*
X1560Y133D01*
X1560Y131D01*
X1562Y131D01*
X1562Y129D01*
X1564Y129D01*
X1564Y125D01*
X1566Y125D01*
X1566Y123D01*
X1586Y123D01*
X1586Y125D01*
X1588Y125D01*
X1588Y127D01*
X1590Y127D01*
X1590Y129D01*
X1592Y129D01*
X1592Y131D01*
X1594Y131D01*
X1594Y133D01*
X1596Y133D01*
X1596Y135D01*
X1598Y135D01*
X1598Y137D01*
X1602Y137D01*
X1602Y139D01*
X1604Y139D01*
X1604Y261D01*
X1602Y261D01*
X1602Y265D01*
X1598Y265D01*
X1598Y267D01*
X1596Y267D01*
X1596Y269D01*
X1594Y269D01*
X1594Y271D01*
X1592Y271D01*
X1592Y273D01*
X1590Y273D01*
X1590Y275D01*
X1588Y275D01*
X1588Y277D01*
X1586Y277D01*
X1586Y281D01*
X1564Y281D01*
G37*
D02*
G36*
X1902Y489D02*
X1902Y481D01*
X1900Y481D01*
X1900Y473D01*
X1898Y473D01*
X1898Y469D01*
X1896Y469D01*
X1896Y465D01*
X1894Y465D01*
X1894Y463D01*
X1892Y463D01*
X1892Y459D01*
X1890Y459D01*
X1890Y457D01*
X1888Y457D01*
X1888Y455D01*
X1886Y455D01*
X1886Y453D01*
X1884Y453D01*
X1884Y451D01*
X1880Y451D01*
X1880Y449D01*
X1878Y449D01*
X1878Y447D01*
X1874Y447D01*
X1874Y445D01*
X1870Y445D01*
X1870Y443D01*
X1864Y443D01*
X1864Y441D01*
X1850Y441D01*
X1850Y439D01*
X1848Y439D01*
X1848Y435D01*
X1846Y435D01*
X1846Y433D01*
X1844Y433D01*
X1844Y431D01*
X1842Y431D01*
X1842Y427D01*
X1840Y427D01*
X1840Y425D01*
X1838Y425D01*
X1838Y421D01*
X1836Y421D01*
X1836Y419D01*
X1834Y419D01*
X1834Y417D01*
X1832Y417D01*
X1832Y413D01*
X1830Y413D01*
X1830Y411D01*
X1828Y411D01*
X1828Y409D01*
X1826Y409D01*
X1826Y405D01*
X1824Y405D01*
X1824Y403D01*
X1822Y403D01*
X1822Y399D01*
X1820Y399D01*
X1820Y397D01*
X1818Y397D01*
X1818Y395D01*
X1816Y395D01*
X1816Y391D01*
X1814Y391D01*
X1814Y389D01*
X1812Y389D01*
X1812Y385D01*
X1810Y385D01*
X1810Y383D01*
X1808Y383D01*
X1808Y381D01*
X1806Y381D01*
X1806Y377D01*
X1804Y377D01*
X1804Y375D01*
X1802Y375D01*
X1802Y373D01*
X1800Y373D01*
X1800Y369D01*
X1798Y369D01*
X1798Y367D01*
X1796Y367D01*
X1796Y363D01*
X1794Y363D01*
X1794Y361D01*
X1792Y361D01*
X1792Y359D01*
X1790Y359D01*
X1790Y355D01*
X1788Y355D01*
X1788Y353D01*
X1786Y353D01*
X1786Y351D01*
X1784Y351D01*
X1784Y347D01*
X1782Y347D01*
X1782Y345D01*
X1780Y345D01*
X1780Y341D01*
X1778Y341D01*
X1778Y339D01*
X1776Y339D01*
X1776Y337D01*
X1774Y337D01*
X1774Y333D01*
X1772Y333D01*
X1772Y295D01*
X1770Y295D01*
X1770Y289D01*
X1768Y289D01*
X1768Y285D01*
X1766Y285D01*
X1766Y281D01*
X1764Y281D01*
X1764Y279D01*
X1762Y279D01*
X1762Y275D01*
X1760Y275D01*
X1760Y273D01*
X1758Y273D01*
X1758Y271D01*
X1756Y271D01*
X1756Y269D01*
X1754Y269D01*
X1754Y267D01*
X1750Y267D01*
X1750Y265D01*
X1748Y265D01*
X1748Y263D01*
X1744Y263D01*
X1744Y261D01*
X1740Y261D01*
X1740Y259D01*
X1734Y259D01*
X1734Y257D01*
X1942Y257D01*
X1942Y261D01*
X1940Y261D01*
X1940Y263D01*
X1938Y263D01*
X1938Y265D01*
X1936Y265D01*
X1936Y267D01*
X1934Y267D01*
X1934Y269D01*
X1932Y269D01*
X1932Y271D01*
X1930Y271D01*
X1930Y273D01*
X1928Y273D01*
X1928Y277D01*
X1926Y277D01*
X1926Y279D01*
X1924Y279D01*
X1924Y283D01*
X1922Y283D01*
X1922Y289D01*
X1920Y289D01*
X1920Y309D01*
X1922Y309D01*
X1922Y315D01*
X1924Y315D01*
X1924Y319D01*
X1926Y319D01*
X1926Y323D01*
X1928Y323D01*
X1928Y327D01*
X1930Y327D01*
X1930Y329D01*
X1932Y329D01*
X1932Y331D01*
X1934Y331D01*
X1934Y333D01*
X1936Y333D01*
X1936Y335D01*
X1938Y335D01*
X1938Y337D01*
X1940Y337D01*
X1940Y339D01*
X1942Y339D01*
X1942Y361D01*
X1940Y361D01*
X1940Y363D01*
X1938Y363D01*
X1938Y365D01*
X1936Y365D01*
X1936Y367D01*
X1934Y367D01*
X1934Y369D01*
X1932Y369D01*
X1932Y371D01*
X1930Y371D01*
X1930Y373D01*
X1928Y373D01*
X1928Y377D01*
X1926Y377D01*
X1926Y379D01*
X1924Y379D01*
X1924Y383D01*
X1922Y383D01*
X1922Y389D01*
X1920Y389D01*
X1920Y409D01*
X1922Y409D01*
X1922Y415D01*
X1924Y415D01*
X1924Y419D01*
X1926Y419D01*
X1926Y423D01*
X1928Y423D01*
X1928Y427D01*
X1930Y427D01*
X1930Y429D01*
X1932Y429D01*
X1932Y431D01*
X1934Y431D01*
X1934Y433D01*
X1936Y433D01*
X1936Y435D01*
X1938Y435D01*
X1938Y437D01*
X1940Y437D01*
X1940Y439D01*
X1942Y439D01*
X1942Y461D01*
X1940Y461D01*
X1940Y463D01*
X1938Y463D01*
X1938Y465D01*
X1936Y465D01*
X1936Y467D01*
X1934Y467D01*
X1934Y469D01*
X1932Y469D01*
X1932Y471D01*
X1930Y471D01*
X1930Y473D01*
X1928Y473D01*
X1928Y477D01*
X1926Y477D01*
X1926Y479D01*
X1924Y479D01*
X1924Y483D01*
X1922Y483D01*
X1922Y489D01*
X1902Y489D01*
G37*
D02*
G36*
X1664Y281D02*
X1664Y279D01*
X1662Y279D01*
X1662Y275D01*
X1660Y275D01*
X1660Y273D01*
X1658Y273D01*
X1658Y271D01*
X1656Y271D01*
X1656Y269D01*
X1654Y269D01*
X1654Y267D01*
X1650Y267D01*
X1650Y265D01*
X1648Y265D01*
X1648Y257D01*
X1714Y257D01*
X1714Y259D01*
X1708Y259D01*
X1708Y261D01*
X1704Y261D01*
X1704Y263D01*
X1702Y263D01*
X1702Y265D01*
X1698Y265D01*
X1698Y267D01*
X1696Y267D01*
X1696Y269D01*
X1694Y269D01*
X1694Y271D01*
X1692Y271D01*
X1692Y273D01*
X1690Y273D01*
X1690Y275D01*
X1688Y275D01*
X1688Y277D01*
X1686Y277D01*
X1686Y281D01*
X1664Y281D01*
G37*
D02*
G36*
X1648Y257D02*
X1648Y255D01*
X1942Y255D01*
X1942Y257D01*
X1648Y257D01*
G37*
D02*
G36*
X1648Y257D02*
X1648Y255D01*
X1942Y255D01*
X1942Y257D01*
X1648Y257D01*
G37*
D02*
G36*
X1648Y255D02*
X1648Y139D01*
X1652Y139D01*
X1652Y137D01*
X1654Y137D01*
X1654Y135D01*
X1658Y135D01*
X1658Y133D01*
X1660Y133D01*
X1660Y131D01*
X1662Y131D01*
X1662Y129D01*
X1664Y129D01*
X1664Y125D01*
X1666Y125D01*
X1666Y123D01*
X1668Y123D01*
X1668Y119D01*
X1670Y119D01*
X1670Y117D01*
X1672Y117D01*
X1672Y111D01*
X1674Y111D01*
X1674Y105D01*
X1676Y105D01*
X1676Y91D01*
X1674Y91D01*
X1674Y83D01*
X1672Y83D01*
X1672Y79D01*
X1670Y79D01*
X1670Y75D01*
X1668Y75D01*
X1668Y71D01*
X1666Y71D01*
X1666Y69D01*
X1664Y69D01*
X1664Y67D01*
X1662Y67D01*
X1662Y65D01*
X1660Y65D01*
X1660Y63D01*
X1658Y63D01*
X1658Y61D01*
X1656Y61D01*
X1656Y41D01*
X1942Y41D01*
X1942Y61D01*
X1940Y61D01*
X1940Y63D01*
X1938Y63D01*
X1938Y65D01*
X1936Y65D01*
X1936Y67D01*
X1934Y67D01*
X1934Y69D01*
X1932Y69D01*
X1932Y71D01*
X1930Y71D01*
X1930Y73D01*
X1928Y73D01*
X1928Y77D01*
X1926Y77D01*
X1926Y79D01*
X1924Y79D01*
X1924Y83D01*
X1922Y83D01*
X1922Y89D01*
X1920Y89D01*
X1920Y109D01*
X1922Y109D01*
X1922Y115D01*
X1924Y115D01*
X1924Y119D01*
X1926Y119D01*
X1926Y123D01*
X1928Y123D01*
X1928Y127D01*
X1930Y127D01*
X1930Y129D01*
X1932Y129D01*
X1932Y131D01*
X1934Y131D01*
X1934Y133D01*
X1936Y133D01*
X1936Y135D01*
X1938Y135D01*
X1938Y137D01*
X1940Y137D01*
X1940Y139D01*
X1942Y139D01*
X1942Y161D01*
X1940Y161D01*
X1940Y163D01*
X1938Y163D01*
X1938Y165D01*
X1936Y165D01*
X1936Y167D01*
X1934Y167D01*
X1934Y169D01*
X1932Y169D01*
X1932Y171D01*
X1930Y171D01*
X1930Y173D01*
X1928Y173D01*
X1928Y177D01*
X1926Y177D01*
X1926Y179D01*
X1924Y179D01*
X1924Y183D01*
X1922Y183D01*
X1922Y189D01*
X1920Y189D01*
X1920Y209D01*
X1922Y209D01*
X1922Y215D01*
X1924Y215D01*
X1924Y219D01*
X1926Y219D01*
X1926Y223D01*
X1928Y223D01*
X1928Y227D01*
X1930Y227D01*
X1930Y229D01*
X1932Y229D01*
X1932Y231D01*
X1934Y231D01*
X1934Y233D01*
X1936Y233D01*
X1936Y235D01*
X1938Y235D01*
X1938Y237D01*
X1940Y237D01*
X1940Y239D01*
X1942Y239D01*
X1942Y255D01*
X1648Y255D01*
G37*
D02*
G36*
X642Y217D02*
X642Y211D01*
X644Y211D01*
X644Y205D01*
X646Y205D01*
X646Y185D01*
X644Y185D01*
X644Y179D01*
X642Y179D01*
X642Y175D01*
X640Y175D01*
X640Y171D01*
X638Y171D01*
X638Y169D01*
X636Y169D01*
X636Y167D01*
X634Y167D01*
X634Y165D01*
X632Y165D01*
X632Y161D01*
X628Y161D01*
X628Y159D01*
X626Y159D01*
X626Y157D01*
X624Y157D01*
X624Y155D01*
X620Y155D01*
X620Y135D01*
X624Y135D01*
X624Y133D01*
X626Y133D01*
X626Y131D01*
X628Y131D01*
X628Y129D01*
X632Y129D01*
X632Y125D01*
X634Y125D01*
X634Y123D01*
X636Y123D01*
X636Y121D01*
X638Y121D01*
X638Y119D01*
X640Y119D01*
X640Y115D01*
X642Y115D01*
X642Y111D01*
X644Y111D01*
X644Y105D01*
X646Y105D01*
X646Y85D01*
X644Y85D01*
X644Y79D01*
X642Y79D01*
X642Y75D01*
X640Y75D01*
X640Y71D01*
X638Y71D01*
X638Y69D01*
X636Y69D01*
X636Y67D01*
X634Y67D01*
X634Y65D01*
X632Y65D01*
X632Y61D01*
X628Y61D01*
X628Y41D01*
X698Y41D01*
X698Y61D01*
X694Y61D01*
X694Y63D01*
X692Y63D01*
X692Y65D01*
X690Y65D01*
X690Y67D01*
X688Y67D01*
X688Y69D01*
X686Y69D01*
X686Y71D01*
X684Y71D01*
X684Y73D01*
X682Y73D01*
X682Y77D01*
X680Y77D01*
X680Y79D01*
X678Y79D01*
X678Y83D01*
X676Y83D01*
X676Y89D01*
X674Y89D01*
X674Y111D01*
X676Y111D01*
X676Y117D01*
X678Y117D01*
X678Y121D01*
X680Y121D01*
X680Y125D01*
X682Y125D01*
X682Y127D01*
X684Y127D01*
X684Y129D01*
X686Y129D01*
X686Y151D01*
X684Y151D01*
X684Y159D01*
X682Y159D01*
X682Y167D01*
X680Y167D01*
X680Y175D01*
X678Y175D01*
X678Y183D01*
X676Y183D01*
X676Y189D01*
X674Y189D01*
X674Y197D01*
X672Y197D01*
X672Y205D01*
X670Y205D01*
X670Y209D01*
X668Y209D01*
X668Y211D01*
X666Y211D01*
X666Y213D01*
X664Y213D01*
X664Y215D01*
X662Y215D01*
X662Y217D01*
X642Y217D01*
G37*
D02*
G36*
X40Y653D02*
X40Y629D01*
X80Y629D01*
X80Y627D01*
X726Y627D01*
X726Y625D01*
X732Y625D01*
X732Y623D01*
X736Y623D01*
X736Y621D01*
X738Y621D01*
X738Y619D01*
X742Y619D01*
X742Y617D01*
X744Y617D01*
X744Y615D01*
X816Y615D01*
X816Y613D01*
X822Y613D01*
X822Y611D01*
X826Y611D01*
X826Y609D01*
X828Y609D01*
X828Y607D01*
X832Y607D01*
X832Y605D01*
X834Y605D01*
X834Y603D01*
X836Y603D01*
X836Y601D01*
X838Y601D01*
X838Y599D01*
X840Y599D01*
X840Y597D01*
X842Y597D01*
X842Y595D01*
X844Y595D01*
X844Y593D01*
X846Y593D01*
X846Y589D01*
X848Y589D01*
X848Y585D01*
X850Y585D01*
X850Y581D01*
X852Y581D01*
X852Y573D01*
X854Y573D01*
X854Y561D01*
X852Y561D01*
X852Y557D01*
X914Y557D01*
X914Y559D01*
X908Y559D01*
X908Y561D01*
X904Y561D01*
X904Y563D01*
X902Y563D01*
X902Y565D01*
X898Y565D01*
X898Y567D01*
X896Y567D01*
X896Y569D01*
X894Y569D01*
X894Y571D01*
X892Y571D01*
X892Y573D01*
X890Y573D01*
X890Y575D01*
X888Y575D01*
X888Y577D01*
X886Y577D01*
X886Y581D01*
X884Y581D01*
X884Y583D01*
X882Y583D01*
X882Y587D01*
X880Y587D01*
X880Y593D01*
X878Y593D01*
X878Y615D01*
X880Y615D01*
X880Y621D01*
X882Y621D01*
X882Y625D01*
X884Y625D01*
X884Y629D01*
X886Y629D01*
X886Y631D01*
X888Y631D01*
X888Y633D01*
X890Y633D01*
X890Y653D01*
X40Y653D01*
G37*
D02*
G36*
X86Y627D02*
X86Y625D01*
X90Y625D01*
X90Y623D01*
X92Y623D01*
X92Y621D01*
X96Y621D01*
X96Y619D01*
X98Y619D01*
X98Y617D01*
X100Y617D01*
X100Y615D01*
X102Y615D01*
X102Y613D01*
X104Y613D01*
X104Y611D01*
X106Y611D01*
X106Y609D01*
X108Y609D01*
X108Y605D01*
X110Y605D01*
X110Y603D01*
X112Y603D01*
X112Y599D01*
X114Y599D01*
X114Y593D01*
X116Y593D01*
X116Y573D01*
X114Y573D01*
X114Y567D01*
X112Y567D01*
X112Y563D01*
X110Y563D01*
X110Y559D01*
X108Y559D01*
X108Y557D01*
X106Y557D01*
X106Y553D01*
X104Y553D01*
X104Y551D01*
X102Y551D01*
X102Y549D01*
X100Y549D01*
X100Y547D01*
X98Y547D01*
X98Y545D01*
X94Y545D01*
X94Y543D01*
X92Y543D01*
X92Y541D01*
X88Y541D01*
X88Y539D01*
X84Y539D01*
X84Y537D01*
X78Y537D01*
X78Y535D01*
X384Y535D01*
X384Y537D01*
X378Y537D01*
X378Y539D01*
X376Y539D01*
X376Y541D01*
X372Y541D01*
X372Y543D01*
X370Y543D01*
X370Y545D01*
X368Y545D01*
X368Y547D01*
X364Y547D01*
X364Y549D01*
X362Y549D01*
X362Y553D01*
X360Y553D01*
X360Y555D01*
X358Y555D01*
X358Y557D01*
X356Y557D01*
X356Y561D01*
X354Y561D01*
X354Y565D01*
X352Y565D01*
X352Y573D01*
X350Y573D01*
X350Y589D01*
X352Y589D01*
X352Y595D01*
X354Y595D01*
X354Y599D01*
X356Y599D01*
X356Y603D01*
X358Y603D01*
X358Y605D01*
X360Y605D01*
X360Y609D01*
X362Y609D01*
X362Y611D01*
X364Y611D01*
X364Y613D01*
X366Y613D01*
X366Y615D01*
X368Y615D01*
X368Y617D01*
X370Y617D01*
X370Y619D01*
X374Y619D01*
X374Y621D01*
X378Y621D01*
X378Y623D01*
X382Y623D01*
X382Y625D01*
X388Y625D01*
X388Y627D01*
X86Y627D01*
G37*
D02*
G36*
X408Y627D02*
X408Y625D01*
X412Y625D01*
X412Y623D01*
X416Y623D01*
X416Y621D01*
X420Y621D01*
X420Y619D01*
X424Y619D01*
X424Y617D01*
X426Y617D01*
X426Y615D01*
X428Y615D01*
X428Y613D01*
X430Y613D01*
X430Y611D01*
X432Y611D01*
X432Y609D01*
X434Y609D01*
X434Y607D01*
X436Y607D01*
X436Y603D01*
X438Y603D01*
X438Y599D01*
X440Y599D01*
X440Y595D01*
X460Y595D01*
X460Y627D01*
X408Y627D01*
G37*
D02*
G36*
X554Y627D02*
X554Y593D01*
X574Y593D01*
X574Y599D01*
X576Y599D01*
X576Y603D01*
X578Y603D01*
X578Y605D01*
X580Y605D01*
X580Y609D01*
X582Y609D01*
X582Y611D01*
X584Y611D01*
X584Y613D01*
X586Y613D01*
X586Y615D01*
X588Y615D01*
X588Y617D01*
X590Y617D01*
X590Y619D01*
X594Y619D01*
X594Y621D01*
X596Y621D01*
X596Y623D01*
X602Y623D01*
X602Y625D01*
X606Y625D01*
X606Y627D01*
X554Y627D01*
G37*
D02*
G36*
X626Y627D02*
X626Y625D01*
X632Y625D01*
X632Y623D01*
X636Y623D01*
X636Y621D01*
X638Y621D01*
X638Y619D01*
X642Y619D01*
X642Y617D01*
X644Y617D01*
X644Y615D01*
X646Y615D01*
X646Y613D01*
X648Y613D01*
X648Y611D01*
X650Y611D01*
X650Y609D01*
X652Y609D01*
X652Y605D01*
X654Y605D01*
X654Y603D01*
X656Y603D01*
X656Y599D01*
X676Y599D01*
X676Y603D01*
X678Y603D01*
X678Y605D01*
X680Y605D01*
X680Y607D01*
X682Y607D01*
X682Y611D01*
X684Y611D01*
X684Y613D01*
X686Y613D01*
X686Y615D01*
X688Y615D01*
X688Y617D01*
X692Y617D01*
X692Y619D01*
X694Y619D01*
X694Y621D01*
X698Y621D01*
X698Y623D01*
X702Y623D01*
X702Y625D01*
X706Y625D01*
X706Y627D01*
X626Y627D01*
G37*
D02*
G36*
X746Y615D02*
X746Y613D01*
X748Y613D01*
X748Y611D01*
X750Y611D01*
X750Y609D01*
X752Y609D01*
X752Y607D01*
X754Y607D01*
X754Y603D01*
X756Y603D01*
X756Y601D01*
X776Y601D01*
X776Y603D01*
X778Y603D01*
X778Y605D01*
X780Y605D01*
X780Y607D01*
X784Y607D01*
X784Y609D01*
X786Y609D01*
X786Y611D01*
X790Y611D01*
X790Y613D01*
X796Y613D01*
X796Y615D01*
X746Y615D01*
G37*
D02*
G36*
X964Y581D02*
X964Y579D01*
X962Y579D01*
X962Y575D01*
X960Y575D01*
X960Y573D01*
X958Y573D01*
X958Y571D01*
X956Y571D01*
X956Y569D01*
X954Y569D01*
X954Y567D01*
X950Y567D01*
X950Y565D01*
X948Y565D01*
X948Y563D01*
X944Y563D01*
X944Y561D01*
X940Y561D01*
X940Y559D01*
X934Y559D01*
X934Y557D01*
X1014Y557D01*
X1014Y559D01*
X1008Y559D01*
X1008Y561D01*
X1004Y561D01*
X1004Y563D01*
X1002Y563D01*
X1002Y565D01*
X998Y565D01*
X998Y567D01*
X996Y567D01*
X996Y569D01*
X994Y569D01*
X994Y571D01*
X992Y571D01*
X992Y573D01*
X990Y573D01*
X990Y575D01*
X988Y575D01*
X988Y577D01*
X986Y577D01*
X986Y581D01*
X964Y581D01*
G37*
D02*
G36*
X1064Y581D02*
X1064Y579D01*
X1062Y579D01*
X1062Y575D01*
X1060Y575D01*
X1060Y573D01*
X1058Y573D01*
X1058Y571D01*
X1056Y571D01*
X1056Y569D01*
X1054Y569D01*
X1054Y567D01*
X1050Y567D01*
X1050Y565D01*
X1048Y565D01*
X1048Y563D01*
X1044Y563D01*
X1044Y561D01*
X1040Y561D01*
X1040Y559D01*
X1034Y559D01*
X1034Y557D01*
X1114Y557D01*
X1114Y559D01*
X1108Y559D01*
X1108Y561D01*
X1104Y561D01*
X1104Y563D01*
X1102Y563D01*
X1102Y565D01*
X1098Y565D01*
X1098Y567D01*
X1096Y567D01*
X1096Y569D01*
X1094Y569D01*
X1094Y571D01*
X1092Y571D01*
X1092Y573D01*
X1090Y573D01*
X1090Y575D01*
X1088Y575D01*
X1088Y577D01*
X1086Y577D01*
X1086Y581D01*
X1064Y581D01*
G37*
D02*
G36*
X1164Y581D02*
X1164Y579D01*
X1162Y579D01*
X1162Y575D01*
X1160Y575D01*
X1160Y573D01*
X1158Y573D01*
X1158Y571D01*
X1156Y571D01*
X1156Y569D01*
X1154Y569D01*
X1154Y567D01*
X1150Y567D01*
X1150Y565D01*
X1148Y565D01*
X1148Y563D01*
X1144Y563D01*
X1144Y561D01*
X1140Y561D01*
X1140Y559D01*
X1134Y559D01*
X1134Y557D01*
X1214Y557D01*
X1214Y559D01*
X1208Y559D01*
X1208Y561D01*
X1204Y561D01*
X1204Y563D01*
X1202Y563D01*
X1202Y565D01*
X1198Y565D01*
X1198Y567D01*
X1196Y567D01*
X1196Y569D01*
X1194Y569D01*
X1194Y571D01*
X1192Y571D01*
X1192Y573D01*
X1190Y573D01*
X1190Y575D01*
X1188Y575D01*
X1188Y577D01*
X1186Y577D01*
X1186Y581D01*
X1164Y581D01*
G37*
D02*
G36*
X554Y571D02*
X554Y533D01*
X590Y533D01*
X590Y549D01*
X588Y549D01*
X588Y551D01*
X586Y551D01*
X586Y553D01*
X584Y553D01*
X584Y555D01*
X582Y555D01*
X582Y557D01*
X580Y557D01*
X580Y559D01*
X578Y559D01*
X578Y563D01*
X576Y563D01*
X576Y567D01*
X574Y567D01*
X574Y571D01*
X554Y571D01*
G37*
D02*
G36*
X440Y565D02*
X440Y561D01*
X438Y561D01*
X438Y557D01*
X436Y557D01*
X436Y555D01*
X434Y555D01*
X434Y553D01*
X432Y553D01*
X432Y549D01*
X430Y549D01*
X430Y547D01*
X428Y547D01*
X428Y545D01*
X424Y545D01*
X424Y543D01*
X422Y543D01*
X422Y541D01*
X420Y541D01*
X420Y539D01*
X416Y539D01*
X416Y537D01*
X410Y537D01*
X410Y535D01*
X404Y535D01*
X404Y533D01*
X460Y533D01*
X460Y565D01*
X440Y565D01*
G37*
D02*
G36*
X656Y565D02*
X656Y561D01*
X654Y561D01*
X654Y559D01*
X652Y559D01*
X652Y557D01*
X650Y557D01*
X650Y553D01*
X648Y553D01*
X648Y551D01*
X646Y551D01*
X646Y549D01*
X642Y549D01*
X642Y547D01*
X640Y547D01*
X640Y545D01*
X638Y545D01*
X638Y543D01*
X634Y543D01*
X634Y525D01*
X632Y525D01*
X632Y503D01*
X630Y503D01*
X630Y481D01*
X628Y481D01*
X628Y459D01*
X626Y459D01*
X626Y453D01*
X710Y453D01*
X710Y455D01*
X704Y455D01*
X704Y457D01*
X700Y457D01*
X700Y459D01*
X698Y459D01*
X698Y461D01*
X694Y461D01*
X694Y463D01*
X692Y463D01*
X692Y465D01*
X690Y465D01*
X690Y467D01*
X688Y467D01*
X688Y469D01*
X686Y469D01*
X686Y471D01*
X684Y471D01*
X684Y473D01*
X682Y473D01*
X682Y477D01*
X680Y477D01*
X680Y479D01*
X678Y479D01*
X678Y483D01*
X676Y483D01*
X676Y489D01*
X674Y489D01*
X674Y511D01*
X676Y511D01*
X676Y517D01*
X678Y517D01*
X678Y521D01*
X680Y521D01*
X680Y525D01*
X682Y525D01*
X682Y527D01*
X684Y527D01*
X684Y529D01*
X686Y529D01*
X686Y531D01*
X688Y531D01*
X688Y551D01*
X686Y551D01*
X686Y553D01*
X684Y553D01*
X684Y555D01*
X682Y555D01*
X682Y557D01*
X680Y557D01*
X680Y559D01*
X678Y559D01*
X678Y563D01*
X676Y563D01*
X676Y565D01*
X656Y565D01*
G37*
D02*
G36*
X852Y557D02*
X852Y555D01*
X1222Y555D01*
X1222Y557D01*
X852Y557D01*
G37*
D02*
G36*
X852Y557D02*
X852Y555D01*
X1222Y555D01*
X1222Y557D01*
X852Y557D01*
G37*
D02*
G36*
X852Y557D02*
X852Y555D01*
X1222Y555D01*
X1222Y557D01*
X852Y557D01*
G37*
D02*
G36*
X852Y557D02*
X852Y555D01*
X1222Y555D01*
X1222Y557D01*
X852Y557D01*
G37*
D02*
G36*
X850Y555D02*
X850Y549D01*
X848Y549D01*
X848Y547D01*
X846Y547D01*
X846Y543D01*
X844Y543D01*
X844Y541D01*
X842Y541D01*
X842Y537D01*
X840Y537D01*
X840Y535D01*
X838Y535D01*
X838Y533D01*
X836Y533D01*
X836Y531D01*
X832Y531D01*
X832Y529D01*
X830Y529D01*
X830Y527D01*
X826Y527D01*
X826Y525D01*
X822Y525D01*
X822Y523D01*
X818Y523D01*
X818Y521D01*
X1238Y521D01*
X1238Y525D01*
X1236Y525D01*
X1236Y529D01*
X1234Y529D01*
X1234Y535D01*
X1232Y535D01*
X1232Y539D01*
X1230Y539D01*
X1230Y543D01*
X1228Y543D01*
X1228Y547D01*
X1226Y547D01*
X1226Y551D01*
X1224Y551D01*
X1224Y555D01*
X850Y555D01*
G37*
D02*
G36*
X750Y541D02*
X750Y535D01*
X752Y535D01*
X752Y533D01*
X754Y533D01*
X754Y531D01*
X756Y531D01*
X756Y529D01*
X758Y529D01*
X758Y525D01*
X760Y525D01*
X760Y523D01*
X762Y523D01*
X762Y521D01*
X794Y521D01*
X794Y523D01*
X790Y523D01*
X790Y525D01*
X786Y525D01*
X786Y527D01*
X782Y527D01*
X782Y529D01*
X780Y529D01*
X780Y531D01*
X776Y531D01*
X776Y533D01*
X774Y533D01*
X774Y535D01*
X772Y535D01*
X772Y537D01*
X770Y537D01*
X770Y541D01*
X750Y541D01*
G37*
D02*
G36*
X40Y537D02*
X40Y535D01*
X60Y535D01*
X60Y537D01*
X40Y537D01*
G37*
D02*
G36*
X40Y535D02*
X40Y533D01*
X390Y533D01*
X390Y535D01*
X40Y535D01*
G37*
D02*
G36*
X40Y535D02*
X40Y533D01*
X390Y533D01*
X390Y535D01*
X40Y535D01*
G37*
D02*
G36*
X40Y533D02*
X40Y531D01*
X590Y531D01*
X590Y533D01*
X40Y533D01*
G37*
D02*
G36*
X40Y533D02*
X40Y531D01*
X590Y531D01*
X590Y533D01*
X40Y533D01*
G37*
D02*
G36*
X40Y533D02*
X40Y531D01*
X590Y531D01*
X590Y533D01*
X40Y533D01*
G37*
D02*
G36*
X40Y531D02*
X40Y443D01*
X346Y443D01*
X346Y347D01*
X332Y347D01*
X332Y325D01*
X334Y325D01*
X334Y323D01*
X336Y323D01*
X336Y321D01*
X338Y321D01*
X338Y319D01*
X340Y319D01*
X340Y315D01*
X342Y315D01*
X342Y311D01*
X344Y311D01*
X344Y305D01*
X346Y305D01*
X346Y285D01*
X344Y285D01*
X344Y279D01*
X342Y279D01*
X342Y275D01*
X340Y275D01*
X340Y271D01*
X338Y271D01*
X338Y269D01*
X336Y269D01*
X336Y267D01*
X334Y267D01*
X334Y265D01*
X332Y265D01*
X332Y261D01*
X328Y261D01*
X328Y259D01*
X326Y259D01*
X326Y257D01*
X324Y257D01*
X324Y255D01*
X320Y255D01*
X320Y235D01*
X324Y235D01*
X324Y233D01*
X326Y233D01*
X326Y231D01*
X328Y231D01*
X328Y229D01*
X332Y229D01*
X332Y225D01*
X334Y225D01*
X334Y223D01*
X336Y223D01*
X336Y221D01*
X338Y221D01*
X338Y219D01*
X340Y219D01*
X340Y215D01*
X342Y215D01*
X342Y211D01*
X344Y211D01*
X344Y205D01*
X346Y205D01*
X346Y185D01*
X344Y185D01*
X344Y179D01*
X342Y179D01*
X342Y175D01*
X340Y175D01*
X340Y171D01*
X338Y171D01*
X338Y169D01*
X336Y169D01*
X336Y167D01*
X334Y167D01*
X334Y165D01*
X332Y165D01*
X332Y161D01*
X328Y161D01*
X328Y159D01*
X326Y159D01*
X326Y157D01*
X324Y157D01*
X324Y155D01*
X320Y155D01*
X320Y135D01*
X324Y135D01*
X324Y133D01*
X326Y133D01*
X326Y131D01*
X328Y131D01*
X328Y129D01*
X332Y129D01*
X332Y125D01*
X334Y125D01*
X334Y123D01*
X336Y123D01*
X336Y121D01*
X338Y121D01*
X338Y119D01*
X340Y119D01*
X340Y115D01*
X342Y115D01*
X342Y111D01*
X344Y111D01*
X344Y105D01*
X346Y105D01*
X346Y85D01*
X344Y85D01*
X344Y79D01*
X342Y79D01*
X342Y75D01*
X340Y75D01*
X340Y71D01*
X338Y71D01*
X338Y69D01*
X336Y69D01*
X336Y67D01*
X334Y67D01*
X334Y65D01*
X332Y65D01*
X332Y61D01*
X328Y61D01*
X328Y41D01*
X570Y41D01*
X570Y61D01*
X566Y61D01*
X566Y63D01*
X564Y63D01*
X564Y67D01*
X562Y67D01*
X562Y69D01*
X560Y69D01*
X560Y71D01*
X558Y71D01*
X558Y75D01*
X556Y75D01*
X556Y79D01*
X554Y79D01*
X554Y85D01*
X552Y85D01*
X552Y105D01*
X554Y105D01*
X554Y111D01*
X556Y111D01*
X556Y115D01*
X558Y115D01*
X558Y119D01*
X560Y119D01*
X560Y121D01*
X562Y121D01*
X562Y123D01*
X564Y123D01*
X564Y127D01*
X566Y127D01*
X566Y129D01*
X570Y129D01*
X570Y131D01*
X572Y131D01*
X572Y133D01*
X574Y133D01*
X574Y135D01*
X578Y135D01*
X578Y155D01*
X574Y155D01*
X574Y157D01*
X572Y157D01*
X572Y159D01*
X570Y159D01*
X570Y161D01*
X566Y161D01*
X566Y163D01*
X564Y163D01*
X564Y167D01*
X562Y167D01*
X562Y169D01*
X560Y169D01*
X560Y171D01*
X558Y171D01*
X558Y175D01*
X556Y175D01*
X556Y179D01*
X554Y179D01*
X554Y185D01*
X552Y185D01*
X552Y205D01*
X554Y205D01*
X554Y211D01*
X556Y211D01*
X556Y215D01*
X558Y215D01*
X558Y219D01*
X560Y219D01*
X560Y221D01*
X562Y221D01*
X562Y223D01*
X564Y223D01*
X564Y227D01*
X566Y227D01*
X566Y229D01*
X570Y229D01*
X570Y231D01*
X572Y231D01*
X572Y233D01*
X574Y233D01*
X574Y235D01*
X578Y235D01*
X578Y255D01*
X574Y255D01*
X574Y257D01*
X572Y257D01*
X572Y259D01*
X570Y259D01*
X570Y261D01*
X566Y261D01*
X566Y263D01*
X564Y263D01*
X564Y267D01*
X562Y267D01*
X562Y269D01*
X560Y269D01*
X560Y271D01*
X558Y271D01*
X558Y275D01*
X556Y275D01*
X556Y279D01*
X554Y279D01*
X554Y285D01*
X552Y285D01*
X552Y305D01*
X554Y305D01*
X554Y311D01*
X556Y311D01*
X556Y315D01*
X558Y315D01*
X558Y319D01*
X560Y319D01*
X560Y321D01*
X562Y321D01*
X562Y323D01*
X564Y323D01*
X564Y327D01*
X566Y327D01*
X566Y329D01*
X570Y329D01*
X570Y331D01*
X572Y331D01*
X572Y333D01*
X574Y333D01*
X574Y335D01*
X578Y335D01*
X578Y355D01*
X574Y355D01*
X574Y357D01*
X572Y357D01*
X572Y359D01*
X570Y359D01*
X570Y361D01*
X566Y361D01*
X566Y363D01*
X564Y363D01*
X564Y367D01*
X562Y367D01*
X562Y369D01*
X560Y369D01*
X560Y371D01*
X558Y371D01*
X558Y375D01*
X556Y375D01*
X556Y379D01*
X554Y379D01*
X554Y385D01*
X552Y385D01*
X552Y405D01*
X554Y405D01*
X554Y411D01*
X556Y411D01*
X556Y415D01*
X558Y415D01*
X558Y419D01*
X560Y419D01*
X560Y421D01*
X562Y421D01*
X562Y423D01*
X564Y423D01*
X564Y427D01*
X566Y427D01*
X566Y429D01*
X570Y429D01*
X570Y431D01*
X572Y431D01*
X572Y433D01*
X574Y433D01*
X574Y435D01*
X578Y435D01*
X578Y437D01*
X580Y437D01*
X580Y439D01*
X582Y439D01*
X582Y461D01*
X584Y461D01*
X584Y483D01*
X586Y483D01*
X586Y505D01*
X588Y505D01*
X588Y527D01*
X590Y527D01*
X590Y531D01*
X40Y531D01*
G37*
D02*
G36*
X762Y521D02*
X762Y519D01*
X1240Y519D01*
X1240Y521D01*
X762Y521D01*
G37*
D02*
G36*
X762Y521D02*
X762Y519D01*
X1240Y519D01*
X1240Y521D01*
X762Y521D01*
G37*
D02*
G36*
X764Y519D02*
X764Y515D01*
X766Y515D01*
X766Y509D01*
X768Y509D01*
X768Y491D01*
X766Y491D01*
X766Y485D01*
X764Y485D01*
X764Y481D01*
X762Y481D01*
X762Y477D01*
X760Y477D01*
X760Y475D01*
X758Y475D01*
X758Y471D01*
X756Y471D01*
X756Y469D01*
X754Y469D01*
X754Y467D01*
X752Y467D01*
X752Y465D01*
X750Y465D01*
X750Y463D01*
X746Y463D01*
X746Y461D01*
X744Y461D01*
X744Y459D01*
X740Y459D01*
X740Y457D01*
X736Y457D01*
X736Y455D01*
X730Y455D01*
X730Y453D01*
X1342Y453D01*
X1342Y455D01*
X1336Y455D01*
X1336Y457D01*
X1330Y457D01*
X1330Y459D01*
X1322Y459D01*
X1322Y461D01*
X1316Y461D01*
X1316Y463D01*
X1310Y463D01*
X1310Y465D01*
X1304Y465D01*
X1304Y467D01*
X1298Y467D01*
X1298Y469D01*
X1292Y469D01*
X1292Y471D01*
X1286Y471D01*
X1286Y473D01*
X1280Y473D01*
X1280Y475D01*
X1274Y475D01*
X1274Y477D01*
X1266Y477D01*
X1266Y479D01*
X1262Y479D01*
X1262Y481D01*
X1260Y481D01*
X1260Y483D01*
X1258Y483D01*
X1258Y485D01*
X1256Y485D01*
X1256Y487D01*
X1254Y487D01*
X1254Y491D01*
X1252Y491D01*
X1252Y495D01*
X1250Y495D01*
X1250Y499D01*
X1248Y499D01*
X1248Y505D01*
X1246Y505D01*
X1246Y509D01*
X1244Y509D01*
X1244Y513D01*
X1242Y513D01*
X1242Y517D01*
X1240Y517D01*
X1240Y519D01*
X764Y519D01*
G37*
D02*
G36*
X626Y453D02*
X626Y451D01*
X1348Y451D01*
X1348Y453D01*
X626Y453D01*
G37*
D02*
G36*
X626Y453D02*
X626Y451D01*
X1348Y451D01*
X1348Y453D01*
X626Y453D01*
G37*
D02*
G36*
X626Y451D02*
X626Y431D01*
X628Y431D01*
X628Y429D01*
X632Y429D01*
X632Y425D01*
X634Y425D01*
X634Y423D01*
X636Y423D01*
X636Y421D01*
X638Y421D01*
X638Y419D01*
X640Y419D01*
X640Y415D01*
X642Y415D01*
X642Y411D01*
X644Y411D01*
X644Y405D01*
X646Y405D01*
X646Y385D01*
X644Y385D01*
X644Y379D01*
X642Y379D01*
X642Y375D01*
X640Y375D01*
X640Y371D01*
X638Y371D01*
X638Y369D01*
X636Y369D01*
X636Y367D01*
X634Y367D01*
X634Y365D01*
X632Y365D01*
X632Y361D01*
X628Y361D01*
X628Y359D01*
X626Y359D01*
X626Y357D01*
X624Y357D01*
X624Y355D01*
X620Y355D01*
X620Y351D01*
X1536Y351D01*
X1536Y349D01*
X1540Y349D01*
X1540Y347D01*
X1544Y347D01*
X1544Y345D01*
X1548Y345D01*
X1548Y343D01*
X1552Y343D01*
X1552Y341D01*
X1554Y341D01*
X1554Y339D01*
X1556Y339D01*
X1556Y337D01*
X1558Y337D01*
X1558Y335D01*
X1560Y335D01*
X1560Y333D01*
X1562Y333D01*
X1562Y329D01*
X1564Y329D01*
X1564Y327D01*
X1584Y327D01*
X1584Y329D01*
X1586Y329D01*
X1586Y331D01*
X1588Y331D01*
X1588Y333D01*
X1590Y333D01*
X1590Y335D01*
X1592Y335D01*
X1592Y337D01*
X1594Y337D01*
X1594Y339D01*
X1596Y339D01*
X1596Y341D01*
X1598Y341D01*
X1598Y343D01*
X1602Y343D01*
X1602Y345D01*
X1604Y345D01*
X1604Y347D01*
X1608Y347D01*
X1608Y349D01*
X1610Y349D01*
X1610Y369D01*
X1604Y369D01*
X1604Y371D01*
X1596Y371D01*
X1596Y373D01*
X1590Y373D01*
X1590Y375D01*
X1584Y375D01*
X1584Y377D01*
X1578Y377D01*
X1578Y379D01*
X1572Y379D01*
X1572Y381D01*
X1566Y381D01*
X1566Y383D01*
X1560Y383D01*
X1560Y385D01*
X1554Y385D01*
X1554Y387D01*
X1548Y387D01*
X1548Y389D01*
X1540Y389D01*
X1540Y391D01*
X1534Y391D01*
X1534Y393D01*
X1528Y393D01*
X1528Y395D01*
X1522Y395D01*
X1522Y397D01*
X1516Y397D01*
X1516Y399D01*
X1510Y399D01*
X1510Y401D01*
X1504Y401D01*
X1504Y403D01*
X1498Y403D01*
X1498Y405D01*
X1490Y405D01*
X1490Y407D01*
X1484Y407D01*
X1484Y409D01*
X1478Y409D01*
X1478Y411D01*
X1472Y411D01*
X1472Y413D01*
X1466Y413D01*
X1466Y415D01*
X1460Y415D01*
X1460Y417D01*
X1454Y417D01*
X1454Y419D01*
X1448Y419D01*
X1448Y421D01*
X1442Y421D01*
X1442Y423D01*
X1434Y423D01*
X1434Y425D01*
X1428Y425D01*
X1428Y427D01*
X1422Y427D01*
X1422Y429D01*
X1416Y429D01*
X1416Y431D01*
X1410Y431D01*
X1410Y433D01*
X1404Y433D01*
X1404Y435D01*
X1398Y435D01*
X1398Y437D01*
X1392Y437D01*
X1392Y439D01*
X1386Y439D01*
X1386Y441D01*
X1378Y441D01*
X1378Y443D01*
X1372Y443D01*
X1372Y445D01*
X1366Y445D01*
X1366Y447D01*
X1360Y447D01*
X1360Y449D01*
X1354Y449D01*
X1354Y451D01*
X626Y451D01*
G37*
D02*
G36*
X40Y443D02*
X40Y435D01*
X224Y435D01*
X224Y343D01*
X226Y343D01*
X226Y339D01*
X228Y339D01*
X228Y337D01*
X230Y337D01*
X230Y333D01*
X232Y333D01*
X232Y331D01*
X234Y331D01*
X234Y327D01*
X236Y327D01*
X236Y323D01*
X238Y323D01*
X238Y321D01*
X240Y321D01*
X240Y319D01*
X260Y319D01*
X260Y321D01*
X262Y321D01*
X262Y323D01*
X264Y323D01*
X264Y327D01*
X266Y327D01*
X266Y347D01*
X252Y347D01*
X252Y443D01*
X40Y443D01*
G37*
D02*
G36*
X40Y435D02*
X40Y229D01*
X80Y229D01*
X80Y227D01*
X86Y227D01*
X86Y225D01*
X90Y225D01*
X90Y223D01*
X92Y223D01*
X92Y221D01*
X96Y221D01*
X96Y219D01*
X98Y219D01*
X98Y217D01*
X100Y217D01*
X100Y215D01*
X102Y215D01*
X102Y213D01*
X104Y213D01*
X104Y211D01*
X106Y211D01*
X106Y209D01*
X108Y209D01*
X108Y205D01*
X110Y205D01*
X110Y203D01*
X112Y203D01*
X112Y199D01*
X114Y199D01*
X114Y193D01*
X116Y193D01*
X116Y171D01*
X114Y171D01*
X114Y167D01*
X112Y167D01*
X112Y163D01*
X110Y163D01*
X110Y159D01*
X108Y159D01*
X108Y157D01*
X106Y157D01*
X106Y153D01*
X104Y153D01*
X104Y151D01*
X102Y151D01*
X102Y149D01*
X100Y149D01*
X100Y147D01*
X98Y147D01*
X98Y145D01*
X94Y145D01*
X94Y143D01*
X92Y143D01*
X92Y141D01*
X88Y141D01*
X88Y139D01*
X84Y139D01*
X84Y137D01*
X78Y137D01*
X78Y135D01*
X186Y135D01*
X186Y133D01*
X192Y133D01*
X192Y131D01*
X196Y131D01*
X196Y129D01*
X198Y129D01*
X198Y127D01*
X202Y127D01*
X202Y125D01*
X204Y125D01*
X204Y123D01*
X206Y123D01*
X206Y121D01*
X208Y121D01*
X208Y119D01*
X210Y119D01*
X210Y117D01*
X212Y117D01*
X212Y115D01*
X214Y115D01*
X214Y113D01*
X216Y113D01*
X216Y109D01*
X218Y109D01*
X218Y105D01*
X220Y105D01*
X220Y101D01*
X222Y101D01*
X222Y95D01*
X224Y95D01*
X224Y75D01*
X222Y75D01*
X222Y69D01*
X220Y69D01*
X220Y65D01*
X218Y65D01*
X218Y61D01*
X216Y61D01*
X216Y41D01*
X270Y41D01*
X270Y61D01*
X266Y61D01*
X266Y63D01*
X264Y63D01*
X264Y67D01*
X262Y67D01*
X262Y69D01*
X260Y69D01*
X260Y71D01*
X258Y71D01*
X258Y75D01*
X256Y75D01*
X256Y79D01*
X254Y79D01*
X254Y85D01*
X252Y85D01*
X252Y105D01*
X254Y105D01*
X254Y111D01*
X256Y111D01*
X256Y115D01*
X258Y115D01*
X258Y119D01*
X260Y119D01*
X260Y121D01*
X262Y121D01*
X262Y123D01*
X264Y123D01*
X264Y127D01*
X266Y127D01*
X266Y129D01*
X270Y129D01*
X270Y131D01*
X272Y131D01*
X272Y133D01*
X274Y133D01*
X274Y135D01*
X278Y135D01*
X278Y155D01*
X274Y155D01*
X274Y157D01*
X272Y157D01*
X272Y159D01*
X270Y159D01*
X270Y161D01*
X266Y161D01*
X266Y163D01*
X264Y163D01*
X264Y167D01*
X262Y167D01*
X262Y169D01*
X260Y169D01*
X260Y171D01*
X258Y171D01*
X258Y175D01*
X256Y175D01*
X256Y179D01*
X254Y179D01*
X254Y185D01*
X252Y185D01*
X252Y205D01*
X254Y205D01*
X254Y211D01*
X256Y211D01*
X256Y215D01*
X258Y215D01*
X258Y219D01*
X260Y219D01*
X260Y221D01*
X262Y221D01*
X262Y223D01*
X264Y223D01*
X264Y227D01*
X266Y227D01*
X266Y229D01*
X270Y229D01*
X270Y231D01*
X272Y231D01*
X272Y233D01*
X274Y233D01*
X274Y235D01*
X278Y235D01*
X278Y255D01*
X274Y255D01*
X274Y257D01*
X272Y257D01*
X272Y259D01*
X270Y259D01*
X270Y261D01*
X266Y261D01*
X266Y263D01*
X264Y263D01*
X264Y267D01*
X262Y267D01*
X262Y269D01*
X260Y269D01*
X260Y271D01*
X258Y271D01*
X258Y275D01*
X222Y275D01*
X222Y277D01*
X216Y277D01*
X216Y279D01*
X214Y279D01*
X214Y281D01*
X212Y281D01*
X212Y283D01*
X210Y283D01*
X210Y285D01*
X208Y285D01*
X208Y289D01*
X206Y289D01*
X206Y293D01*
X204Y293D01*
X204Y295D01*
X202Y295D01*
X202Y299D01*
X200Y299D01*
X200Y301D01*
X198Y301D01*
X198Y305D01*
X196Y305D01*
X196Y307D01*
X194Y307D01*
X194Y311D01*
X192Y311D01*
X192Y315D01*
X190Y315D01*
X190Y317D01*
X188Y317D01*
X188Y321D01*
X186Y321D01*
X186Y323D01*
X184Y323D01*
X184Y327D01*
X182Y327D01*
X182Y329D01*
X180Y329D01*
X180Y331D01*
X170Y331D01*
X170Y333D01*
X122Y333D01*
X122Y435D01*
X40Y435D01*
G37*
D02*
G36*
X620Y351D02*
X620Y335D01*
X624Y335D01*
X624Y333D01*
X626Y333D01*
X626Y331D01*
X628Y331D01*
X628Y329D01*
X632Y329D01*
X632Y325D01*
X634Y325D01*
X634Y323D01*
X636Y323D01*
X636Y321D01*
X638Y321D01*
X638Y319D01*
X640Y319D01*
X640Y315D01*
X642Y315D01*
X642Y311D01*
X644Y311D01*
X644Y305D01*
X646Y305D01*
X646Y285D01*
X648Y285D01*
X648Y283D01*
X650Y283D01*
X650Y281D01*
X652Y281D01*
X652Y279D01*
X654Y279D01*
X654Y277D01*
X658Y277D01*
X658Y275D01*
X660Y275D01*
X660Y273D01*
X662Y273D01*
X662Y271D01*
X664Y271D01*
X664Y269D01*
X666Y269D01*
X666Y267D01*
X670Y267D01*
X670Y265D01*
X672Y265D01*
X672Y263D01*
X674Y263D01*
X674Y261D01*
X676Y261D01*
X676Y259D01*
X680Y259D01*
X680Y257D01*
X682Y257D01*
X682Y255D01*
X684Y255D01*
X684Y253D01*
X686Y253D01*
X686Y251D01*
X690Y251D01*
X690Y249D01*
X692Y249D01*
X692Y247D01*
X694Y247D01*
X694Y245D01*
X696Y245D01*
X696Y243D01*
X698Y243D01*
X698Y241D01*
X702Y241D01*
X702Y239D01*
X704Y239D01*
X704Y237D01*
X706Y237D01*
X706Y235D01*
X708Y235D01*
X708Y231D01*
X710Y231D01*
X710Y227D01*
X712Y227D01*
X712Y219D01*
X714Y219D01*
X714Y215D01*
X816Y215D01*
X816Y213D01*
X822Y213D01*
X822Y211D01*
X826Y211D01*
X826Y209D01*
X828Y209D01*
X828Y207D01*
X832Y207D01*
X832Y205D01*
X834Y205D01*
X834Y203D01*
X836Y203D01*
X836Y201D01*
X838Y201D01*
X838Y199D01*
X840Y199D01*
X840Y197D01*
X842Y197D01*
X842Y195D01*
X844Y195D01*
X844Y193D01*
X846Y193D01*
X846Y189D01*
X848Y189D01*
X848Y185D01*
X850Y185D01*
X850Y181D01*
X852Y181D01*
X852Y173D01*
X854Y173D01*
X854Y161D01*
X852Y161D01*
X852Y155D01*
X850Y155D01*
X850Y149D01*
X848Y149D01*
X848Y147D01*
X846Y147D01*
X846Y143D01*
X844Y143D01*
X844Y141D01*
X842Y141D01*
X842Y137D01*
X840Y137D01*
X840Y135D01*
X838Y135D01*
X838Y133D01*
X836Y133D01*
X836Y131D01*
X832Y131D01*
X832Y129D01*
X830Y129D01*
X830Y127D01*
X826Y127D01*
X826Y125D01*
X822Y125D01*
X822Y123D01*
X818Y123D01*
X818Y121D01*
X886Y121D01*
X886Y125D01*
X888Y125D01*
X888Y127D01*
X890Y127D01*
X890Y129D01*
X892Y129D01*
X892Y131D01*
X894Y131D01*
X894Y133D01*
X896Y133D01*
X896Y135D01*
X898Y135D01*
X898Y137D01*
X902Y137D01*
X902Y139D01*
X904Y139D01*
X904Y261D01*
X902Y261D01*
X902Y265D01*
X898Y265D01*
X898Y267D01*
X896Y267D01*
X896Y269D01*
X894Y269D01*
X894Y271D01*
X892Y271D01*
X892Y273D01*
X890Y273D01*
X890Y275D01*
X888Y275D01*
X888Y277D01*
X886Y277D01*
X886Y281D01*
X884Y281D01*
X884Y283D01*
X882Y283D01*
X882Y287D01*
X880Y287D01*
X880Y293D01*
X878Y293D01*
X878Y315D01*
X880Y315D01*
X880Y321D01*
X882Y321D01*
X882Y325D01*
X884Y325D01*
X884Y329D01*
X886Y329D01*
X886Y331D01*
X888Y331D01*
X888Y333D01*
X890Y333D01*
X890Y335D01*
X892Y335D01*
X892Y337D01*
X894Y337D01*
X894Y339D01*
X896Y339D01*
X896Y341D01*
X898Y341D01*
X898Y343D01*
X902Y343D01*
X902Y345D01*
X904Y345D01*
X904Y347D01*
X908Y347D01*
X908Y349D01*
X914Y349D01*
X914Y351D01*
X620Y351D01*
G37*
D02*
G36*
X936Y351D02*
X936Y349D01*
X940Y349D01*
X940Y347D01*
X944Y347D01*
X944Y345D01*
X948Y345D01*
X948Y343D01*
X952Y343D01*
X952Y341D01*
X954Y341D01*
X954Y339D01*
X956Y339D01*
X956Y337D01*
X958Y337D01*
X958Y335D01*
X960Y335D01*
X960Y333D01*
X962Y333D01*
X962Y329D01*
X964Y329D01*
X964Y327D01*
X984Y327D01*
X984Y329D01*
X986Y329D01*
X986Y331D01*
X988Y331D01*
X988Y333D01*
X990Y333D01*
X990Y335D01*
X992Y335D01*
X992Y337D01*
X994Y337D01*
X994Y339D01*
X996Y339D01*
X996Y341D01*
X998Y341D01*
X998Y343D01*
X1002Y343D01*
X1002Y345D01*
X1004Y345D01*
X1004Y347D01*
X1008Y347D01*
X1008Y349D01*
X1014Y349D01*
X1014Y351D01*
X936Y351D01*
G37*
D02*
G36*
X1036Y351D02*
X1036Y349D01*
X1040Y349D01*
X1040Y347D01*
X1044Y347D01*
X1044Y345D01*
X1048Y345D01*
X1048Y343D01*
X1052Y343D01*
X1052Y341D01*
X1054Y341D01*
X1054Y339D01*
X1056Y339D01*
X1056Y337D01*
X1058Y337D01*
X1058Y335D01*
X1060Y335D01*
X1060Y333D01*
X1062Y333D01*
X1062Y329D01*
X1064Y329D01*
X1064Y327D01*
X1084Y327D01*
X1084Y329D01*
X1086Y329D01*
X1086Y331D01*
X1088Y331D01*
X1088Y333D01*
X1090Y333D01*
X1090Y335D01*
X1092Y335D01*
X1092Y337D01*
X1094Y337D01*
X1094Y339D01*
X1096Y339D01*
X1096Y341D01*
X1098Y341D01*
X1098Y343D01*
X1102Y343D01*
X1102Y345D01*
X1104Y345D01*
X1104Y347D01*
X1108Y347D01*
X1108Y349D01*
X1114Y349D01*
X1114Y351D01*
X1036Y351D01*
G37*
D02*
G36*
X1136Y351D02*
X1136Y349D01*
X1140Y349D01*
X1140Y347D01*
X1144Y347D01*
X1144Y345D01*
X1148Y345D01*
X1148Y343D01*
X1152Y343D01*
X1152Y341D01*
X1154Y341D01*
X1154Y339D01*
X1156Y339D01*
X1156Y337D01*
X1158Y337D01*
X1158Y335D01*
X1160Y335D01*
X1160Y333D01*
X1162Y333D01*
X1162Y329D01*
X1164Y329D01*
X1164Y327D01*
X1184Y327D01*
X1184Y329D01*
X1186Y329D01*
X1186Y331D01*
X1188Y331D01*
X1188Y333D01*
X1190Y333D01*
X1190Y335D01*
X1192Y335D01*
X1192Y337D01*
X1194Y337D01*
X1194Y339D01*
X1196Y339D01*
X1196Y341D01*
X1198Y341D01*
X1198Y343D01*
X1202Y343D01*
X1202Y345D01*
X1204Y345D01*
X1204Y347D01*
X1208Y347D01*
X1208Y349D01*
X1214Y349D01*
X1214Y351D01*
X1136Y351D01*
G37*
D02*
G36*
X1236Y351D02*
X1236Y349D01*
X1240Y349D01*
X1240Y347D01*
X1244Y347D01*
X1244Y345D01*
X1248Y345D01*
X1248Y343D01*
X1252Y343D01*
X1252Y341D01*
X1254Y341D01*
X1254Y339D01*
X1256Y339D01*
X1256Y337D01*
X1258Y337D01*
X1258Y335D01*
X1260Y335D01*
X1260Y333D01*
X1262Y333D01*
X1262Y329D01*
X1264Y329D01*
X1264Y327D01*
X1284Y327D01*
X1284Y329D01*
X1286Y329D01*
X1286Y331D01*
X1288Y331D01*
X1288Y333D01*
X1290Y333D01*
X1290Y335D01*
X1292Y335D01*
X1292Y337D01*
X1294Y337D01*
X1294Y339D01*
X1296Y339D01*
X1296Y341D01*
X1298Y341D01*
X1298Y343D01*
X1302Y343D01*
X1302Y345D01*
X1304Y345D01*
X1304Y347D01*
X1308Y347D01*
X1308Y349D01*
X1314Y349D01*
X1314Y351D01*
X1236Y351D01*
G37*
D02*
G36*
X1336Y351D02*
X1336Y349D01*
X1340Y349D01*
X1340Y347D01*
X1344Y347D01*
X1344Y345D01*
X1348Y345D01*
X1348Y343D01*
X1352Y343D01*
X1352Y341D01*
X1354Y341D01*
X1354Y339D01*
X1356Y339D01*
X1356Y337D01*
X1358Y337D01*
X1358Y335D01*
X1360Y335D01*
X1360Y333D01*
X1362Y333D01*
X1362Y329D01*
X1364Y329D01*
X1364Y327D01*
X1384Y327D01*
X1384Y329D01*
X1386Y329D01*
X1386Y331D01*
X1388Y331D01*
X1388Y333D01*
X1390Y333D01*
X1390Y335D01*
X1392Y335D01*
X1392Y337D01*
X1394Y337D01*
X1394Y339D01*
X1396Y339D01*
X1396Y341D01*
X1398Y341D01*
X1398Y343D01*
X1402Y343D01*
X1402Y345D01*
X1404Y345D01*
X1404Y347D01*
X1408Y347D01*
X1408Y349D01*
X1414Y349D01*
X1414Y351D01*
X1336Y351D01*
G37*
D02*
G36*
X1436Y351D02*
X1436Y349D01*
X1440Y349D01*
X1440Y347D01*
X1444Y347D01*
X1444Y345D01*
X1448Y345D01*
X1448Y343D01*
X1452Y343D01*
X1452Y341D01*
X1454Y341D01*
X1454Y339D01*
X1456Y339D01*
X1456Y337D01*
X1458Y337D01*
X1458Y335D01*
X1460Y335D01*
X1460Y333D01*
X1462Y333D01*
X1462Y329D01*
X1464Y329D01*
X1464Y327D01*
X1484Y327D01*
X1484Y329D01*
X1486Y329D01*
X1486Y331D01*
X1488Y331D01*
X1488Y333D01*
X1490Y333D01*
X1490Y335D01*
X1492Y335D01*
X1492Y337D01*
X1494Y337D01*
X1494Y339D01*
X1496Y339D01*
X1496Y341D01*
X1498Y341D01*
X1498Y343D01*
X1502Y343D01*
X1502Y345D01*
X1504Y345D01*
X1504Y347D01*
X1508Y347D01*
X1508Y349D01*
X1514Y349D01*
X1514Y351D01*
X1436Y351D01*
G37*
D02*
G36*
X714Y215D02*
X714Y211D01*
X716Y211D01*
X716Y203D01*
X718Y203D01*
X718Y195D01*
X720Y195D01*
X720Y187D01*
X722Y187D01*
X722Y179D01*
X724Y179D01*
X724Y173D01*
X726Y173D01*
X726Y165D01*
X728Y165D01*
X728Y157D01*
X730Y157D01*
X730Y149D01*
X732Y149D01*
X732Y145D01*
X736Y145D01*
X736Y143D01*
X740Y143D01*
X740Y141D01*
X744Y141D01*
X744Y139D01*
X746Y139D01*
X746Y137D01*
X750Y137D01*
X750Y135D01*
X752Y135D01*
X752Y133D01*
X754Y133D01*
X754Y131D01*
X756Y131D01*
X756Y129D01*
X758Y129D01*
X758Y125D01*
X760Y125D01*
X760Y123D01*
X762Y123D01*
X762Y121D01*
X794Y121D01*
X794Y123D01*
X790Y123D01*
X790Y125D01*
X786Y125D01*
X786Y127D01*
X782Y127D01*
X782Y129D01*
X780Y129D01*
X780Y131D01*
X776Y131D01*
X776Y133D01*
X774Y133D01*
X774Y135D01*
X772Y135D01*
X772Y137D01*
X770Y137D01*
X770Y141D01*
X768Y141D01*
X768Y143D01*
X766Y143D01*
X766Y145D01*
X764Y145D01*
X764Y149D01*
X762Y149D01*
X762Y155D01*
X760Y155D01*
X760Y161D01*
X758Y161D01*
X758Y173D01*
X760Y173D01*
X760Y181D01*
X762Y181D01*
X762Y185D01*
X764Y185D01*
X764Y189D01*
X766Y189D01*
X766Y193D01*
X768Y193D01*
X768Y195D01*
X770Y195D01*
X770Y197D01*
X772Y197D01*
X772Y199D01*
X774Y199D01*
X774Y201D01*
X776Y201D01*
X776Y203D01*
X778Y203D01*
X778Y205D01*
X780Y205D01*
X780Y207D01*
X784Y207D01*
X784Y209D01*
X786Y209D01*
X786Y211D01*
X790Y211D01*
X790Y213D01*
X796Y213D01*
X796Y215D01*
X714Y215D01*
G37*
D02*
G36*
X40Y137D02*
X40Y135D01*
X60Y135D01*
X60Y137D01*
X40Y137D01*
G37*
D02*
G36*
X40Y135D02*
X40Y133D01*
X162Y133D01*
X162Y135D01*
X40Y135D01*
G37*
D02*
G36*
X40Y135D02*
X40Y133D01*
X162Y133D01*
X162Y135D01*
X40Y135D01*
G37*
D02*
G36*
X40Y133D02*
X40Y41D01*
X130Y41D01*
X130Y63D01*
X128Y63D01*
X128Y65D01*
X126Y65D01*
X126Y71D01*
X124Y71D01*
X124Y79D01*
X122Y79D01*
X122Y91D01*
X124Y91D01*
X124Y99D01*
X126Y99D01*
X126Y105D01*
X128Y105D01*
X128Y107D01*
X130Y107D01*
X130Y111D01*
X132Y111D01*
X132Y113D01*
X134Y113D01*
X134Y117D01*
X136Y117D01*
X136Y119D01*
X138Y119D01*
X138Y121D01*
X140Y121D01*
X140Y123D01*
X142Y123D01*
X142Y125D01*
X146Y125D01*
X146Y127D01*
X148Y127D01*
X148Y129D01*
X152Y129D01*
X152Y131D01*
X156Y131D01*
X156Y133D01*
X40Y133D01*
G37*
D02*
G36*
X762Y121D02*
X762Y119D01*
X884Y119D01*
X884Y121D01*
X762Y121D01*
G37*
D02*
G36*
X762Y121D02*
X762Y119D01*
X884Y119D01*
X884Y121D01*
X762Y121D01*
G37*
D02*
G36*
X764Y119D02*
X764Y115D01*
X766Y115D01*
X766Y109D01*
X768Y109D01*
X768Y91D01*
X766Y91D01*
X766Y85D01*
X764Y85D01*
X764Y81D01*
X762Y81D01*
X762Y77D01*
X760Y77D01*
X760Y75D01*
X758Y75D01*
X758Y71D01*
X756Y71D01*
X756Y69D01*
X754Y69D01*
X754Y67D01*
X752Y67D01*
X752Y65D01*
X750Y65D01*
X750Y63D01*
X746Y63D01*
X746Y61D01*
X744Y61D01*
X744Y41D01*
X898Y41D01*
X898Y61D01*
X896Y61D01*
X896Y63D01*
X892Y63D01*
X892Y67D01*
X890Y67D01*
X890Y69D01*
X888Y69D01*
X888Y71D01*
X886Y71D01*
X886Y73D01*
X884Y73D01*
X884Y77D01*
X882Y77D01*
X882Y81D01*
X880Y81D01*
X880Y87D01*
X878Y87D01*
X878Y107D01*
X880Y107D01*
X880Y113D01*
X882Y113D01*
X882Y117D01*
X884Y117D01*
X884Y119D01*
X764Y119D01*
G37*
D02*
G36*
X579Y81D02*
X616Y81D01*
X616Y47D01*
X579Y47D01*
X579Y81D01*
G37*
D02*
G36*
X548Y116D02*
X580Y116D01*
X580Y79D01*
X548Y79D01*
X548Y116D01*
G37*
D02*
G36*
X701Y485D02*
X738Y485D01*
X738Y453D01*
X701Y453D01*
X701Y485D01*
G37*
D02*
G36*
X905Y589D02*
X942Y589D01*
X942Y557D01*
X905Y557D01*
X905Y589D01*
G37*
D02*
G36*
X1946Y653D02*
X1985Y653D01*
X1985Y621D01*
X1946Y621D01*
X1946Y653D01*
G37*
D02*
G36*
X1984Y621D02*
X2018Y621D01*
X2018Y582D01*
X1984Y582D01*
X1984Y621D01*
G37*
D02*
G36*
X1836Y635D02*
X1871Y635D01*
X1871Y603D01*
X1836Y603D01*
X1836Y635D01*
G37*
D02*
G36*
X1503Y655D02*
X1540Y655D01*
X1540Y623D01*
X1503Y623D01*
X1503Y655D01*
G37*
D02*
G36*
X1403Y655D02*
X1440Y655D01*
X1440Y623D01*
X1403Y623D01*
X1403Y655D01*
G37*
D02*
G36*
X1403Y589D02*
X1440Y589D01*
X1440Y557D01*
X1403Y557D01*
X1403Y589D01*
G37*
D02*
G36*
X1303Y655D02*
X1340Y655D01*
X1340Y623D01*
X1303Y623D01*
X1303Y655D01*
G37*
D02*
G54D18*
X470Y617D02*
X543Y617D01*
X470Y616D02*
X543Y616D01*
X470Y615D02*
X543Y615D01*
X470Y614D02*
X543Y614D01*
X470Y613D02*
X543Y613D01*
X470Y612D02*
X543Y612D01*
X470Y611D02*
X543Y611D01*
X470Y610D02*
X543Y610D01*
X470Y609D02*
X543Y609D01*
X470Y608D02*
X543Y608D01*
X470Y607D02*
X543Y607D01*
X470Y606D02*
X543Y606D01*
X470Y605D02*
X543Y605D01*
X470Y604D02*
X543Y604D01*
X470Y603D02*
X543Y603D01*
X470Y602D02*
X543Y602D01*
X470Y601D02*
X543Y601D01*
X470Y600D02*
X500Y600D01*
X513Y600D02*
X543Y600D01*
X470Y599D02*
X497Y599D01*
X516Y599D02*
X543Y599D01*
X470Y598D02*
X496Y598D01*
X517Y598D02*
X543Y598D01*
X470Y597D02*
X494Y597D01*
X519Y597D02*
X543Y597D01*
X470Y596D02*
X493Y596D01*
X520Y596D02*
X543Y596D01*
X470Y595D02*
X492Y595D01*
X521Y595D02*
X543Y595D01*
X470Y594D02*
X491Y594D01*
X522Y594D02*
X543Y594D01*
X470Y593D02*
X490Y593D01*
X523Y593D02*
X543Y593D01*
X470Y592D02*
X489Y592D01*
X524Y592D02*
X543Y592D01*
X470Y591D02*
X489Y591D01*
X524Y591D02*
X543Y591D01*
X470Y590D02*
X488Y590D01*
X525Y590D02*
X543Y590D01*
X470Y589D02*
X488Y589D01*
X525Y589D02*
X543Y589D01*
X470Y588D02*
X487Y588D01*
X526Y588D02*
X543Y588D01*
X470Y587D02*
X487Y587D01*
X526Y587D02*
X543Y587D01*
X470Y586D02*
X487Y586D01*
X526Y586D02*
X543Y586D01*
X470Y585D02*
X486Y585D01*
X527Y585D02*
X543Y585D01*
X470Y584D02*
X486Y584D01*
X527Y584D02*
X543Y584D01*
X470Y583D02*
X486Y583D01*
X527Y583D02*
X543Y583D01*
X470Y582D02*
X486Y582D01*
X527Y582D02*
X543Y582D01*
X470Y581D02*
X486Y581D01*
X527Y581D02*
X543Y581D01*
X470Y580D02*
X486Y580D01*
X527Y580D02*
X543Y580D01*
X470Y579D02*
X486Y579D01*
X527Y579D02*
X543Y579D01*
X470Y578D02*
X486Y578D01*
X527Y578D02*
X543Y578D01*
X470Y577D02*
X486Y577D01*
X527Y577D02*
X543Y577D01*
X470Y576D02*
X487Y576D01*
X526Y576D02*
X543Y576D01*
X470Y575D02*
X487Y575D01*
X526Y575D02*
X543Y575D01*
X470Y574D02*
X487Y574D01*
X526Y574D02*
X543Y574D01*
X470Y573D02*
X488Y573D01*
X525Y573D02*
X543Y573D01*
X470Y572D02*
X488Y572D01*
X525Y572D02*
X543Y572D01*
X470Y571D02*
X489Y571D01*
X524Y571D02*
X543Y571D01*
X470Y570D02*
X489Y570D01*
X524Y570D02*
X543Y570D01*
X470Y569D02*
X490Y569D01*
X523Y569D02*
X543Y569D01*
X470Y568D02*
X491Y568D01*
X522Y568D02*
X543Y568D01*
X470Y567D02*
X492Y567D01*
X521Y567D02*
X543Y567D01*
X470Y566D02*
X493Y566D01*
X520Y566D02*
X543Y566D01*
X470Y565D02*
X494Y565D01*
X519Y565D02*
X543Y565D01*
X470Y564D02*
X495Y564D01*
X518Y564D02*
X543Y564D01*
X470Y563D02*
X497Y563D01*
X516Y563D02*
X543Y563D01*
X470Y562D02*
X500Y562D01*
X513Y562D02*
X543Y562D01*
X470Y561D02*
X505Y561D01*
X508Y561D02*
X543Y561D01*
X470Y560D02*
X543Y560D01*
X470Y559D02*
X543Y559D01*
X470Y558D02*
X543Y558D01*
X470Y557D02*
X543Y557D01*
X470Y556D02*
X543Y556D01*
X470Y555D02*
X543Y555D01*
X470Y554D02*
X543Y554D01*
X470Y553D02*
X543Y553D01*
X470Y552D02*
X543Y552D01*
X470Y551D02*
X543Y551D01*
X470Y550D02*
X543Y550D01*
X470Y549D02*
X543Y549D01*
X470Y548D02*
X543Y548D01*
X470Y547D02*
X543Y547D01*
X470Y546D02*
X543Y546D01*
X470Y545D02*
X543Y545D01*
X470Y544D02*
X543Y544D01*
D02*
G04 End of Copper0*
M02*