; NON-PLATED HOLES START AT T1
; THROUGH (PLATED) HOLES START AT T100
M48
INCH
T100C0.030000
T101C0.040000
T102C0.038889
%
T100
X003743Y011701
X002741Y011701
X006083Y013423
X005081Y013423
T101
X004900Y001547
X002900Y001547
X000900Y001547
X002717Y014001
X002717Y012901
X003900Y001447
X001900Y001447
X005900Y001447
T102
X003314Y017473
X004314Y009447
X002314Y009447
X004314Y003447
X002314Y003447
X002314Y017473
X004314Y017473
X002314Y023473
X004314Y023473
X003314Y003447
T00
M30
