G04 MADE WITH FRITZING*
G04 WWW.FRITZING.ORG*
G04 DOUBLE SIDED*
G04 HOLES PLATED*
G04 CONTOUR ON CENTER OF CONTOUR VECTOR*
%ASAXBY*%
%FSLAX23Y23*%
%MOIN*%
%OFA0B0*%
%SFA1.0B1.0*%
%ADD10C,0.075000*%
%ADD11C,0.070000*%
%ADD12C,0.078889*%
%ADD13C,0.074000*%
%ADD14C,0.024000*%
%ADD15R,0.001000X0.001000*%
%LNCOPPER1*%
G90*
G70*
G54D10*
X361Y981D03*
X118Y952D03*
G54D11*
X519Y242D03*
X619Y242D03*
G54D12*
X261Y379D03*
X361Y379D03*
X461Y379D03*
X261Y979D03*
X461Y979D03*
G54D13*
X514Y64D03*
X414Y74D03*
X314Y64D03*
X214Y74D03*
X514Y64D03*
X414Y74D03*
X314Y64D03*
X214Y74D03*
G54D11*
X120Y243D03*
X221Y243D03*
X422Y243D03*
X321Y243D03*
G54D14*
X199Y102D02*
X133Y220D01*
D02*
X239Y358D02*
X139Y261D01*
D02*
X373Y351D02*
X411Y267D01*
D02*
X609Y266D02*
X588Y316D01*
D02*
X588Y316D02*
X493Y316D01*
D02*
X493Y316D02*
X440Y262D01*
D02*
X226Y218D02*
X233Y179D01*
D02*
X233Y179D02*
X401Y179D01*
D02*
X401Y179D02*
X414Y218D01*
D02*
X500Y92D02*
X434Y220D01*
D02*
X277Y953D02*
X689Y288D01*
D02*
X689Y288D02*
X689Y168D01*
D02*
X689Y168D02*
X569Y168D01*
D02*
X569Y168D02*
X533Y221D01*
G36*
X298Y1031D02*
X298Y1009D01*
X300Y1009D01*
X300Y1007D01*
X302Y1007D01*
X302Y1003D01*
X304Y1003D01*
X304Y1001D01*
X306Y1001D01*
X306Y995D01*
X308Y995D01*
X308Y989D01*
X310Y989D01*
X310Y969D01*
X308Y969D01*
X308Y943D01*
X310Y943D01*
X310Y939D01*
X312Y939D01*
X312Y937D01*
X314Y937D01*
X314Y933D01*
X316Y933D01*
X316Y929D01*
X454Y929D01*
X454Y931D01*
X446Y931D01*
X446Y933D01*
X440Y933D01*
X440Y935D01*
X436Y935D01*
X436Y937D01*
X432Y937D01*
X432Y939D01*
X430Y939D01*
X430Y941D01*
X428Y941D01*
X428Y943D01*
X426Y943D01*
X426Y945D01*
X424Y945D01*
X424Y947D01*
X422Y947D01*
X422Y949D01*
X420Y949D01*
X420Y953D01*
X418Y953D01*
X418Y957D01*
X416Y957D01*
X416Y961D01*
X414Y961D01*
X414Y967D01*
X412Y967D01*
X412Y991D01*
X414Y991D01*
X414Y997D01*
X416Y997D01*
X416Y1001D01*
X418Y1001D01*
X418Y1005D01*
X420Y1005D01*
X420Y1007D01*
X422Y1007D01*
X422Y1011D01*
X424Y1011D01*
X424Y1031D01*
X298Y1031D01*
G37*
D02*
G36*
X498Y1031D02*
X498Y1009D01*
X500Y1009D01*
X500Y1007D01*
X502Y1007D01*
X502Y1003D01*
X504Y1003D01*
X504Y1001D01*
X506Y1001D01*
X506Y995D01*
X508Y995D01*
X508Y989D01*
X510Y989D01*
X510Y969D01*
X508Y969D01*
X508Y961D01*
X506Y961D01*
X506Y957D01*
X504Y957D01*
X504Y953D01*
X502Y953D01*
X502Y951D01*
X500Y951D01*
X500Y947D01*
X498Y947D01*
X498Y945D01*
X496Y945D01*
X496Y943D01*
X494Y943D01*
X494Y941D01*
X490Y941D01*
X490Y939D01*
X488Y939D01*
X488Y937D01*
X484Y937D01*
X484Y935D01*
X482Y935D01*
X482Y933D01*
X476Y933D01*
X476Y931D01*
X468Y931D01*
X468Y929D01*
X684Y929D01*
X684Y1031D01*
X498Y1031D01*
G37*
D02*
G36*
X318Y929D02*
X318Y927D01*
X684Y927D01*
X684Y929D01*
X318Y929D01*
G37*
D02*
G36*
X318Y929D02*
X318Y927D01*
X684Y927D01*
X684Y929D01*
X318Y929D01*
G37*
D02*
G36*
X320Y927D02*
X320Y923D01*
X322Y923D01*
X322Y921D01*
X324Y921D01*
X324Y917D01*
X326Y917D01*
X326Y913D01*
X328Y913D01*
X328Y911D01*
X330Y911D01*
X330Y907D01*
X332Y907D01*
X332Y903D01*
X334Y903D01*
X334Y901D01*
X336Y901D01*
X336Y897D01*
X338Y897D01*
X338Y895D01*
X340Y895D01*
X340Y891D01*
X342Y891D01*
X342Y887D01*
X344Y887D01*
X344Y885D01*
X346Y885D01*
X346Y881D01*
X348Y881D01*
X348Y879D01*
X350Y879D01*
X350Y875D01*
X352Y875D01*
X352Y871D01*
X354Y871D01*
X354Y869D01*
X356Y869D01*
X356Y865D01*
X358Y865D01*
X358Y863D01*
X360Y863D01*
X360Y859D01*
X362Y859D01*
X362Y855D01*
X364Y855D01*
X364Y853D01*
X366Y853D01*
X366Y849D01*
X368Y849D01*
X368Y845D01*
X370Y845D01*
X370Y843D01*
X372Y843D01*
X372Y839D01*
X374Y839D01*
X374Y837D01*
X376Y837D01*
X376Y833D01*
X378Y833D01*
X378Y829D01*
X380Y829D01*
X380Y827D01*
X382Y827D01*
X382Y823D01*
X384Y823D01*
X384Y821D01*
X386Y821D01*
X386Y817D01*
X388Y817D01*
X388Y813D01*
X390Y813D01*
X390Y811D01*
X392Y811D01*
X392Y807D01*
X394Y807D01*
X394Y805D01*
X396Y805D01*
X396Y801D01*
X398Y801D01*
X398Y797D01*
X400Y797D01*
X400Y795D01*
X402Y795D01*
X402Y791D01*
X404Y791D01*
X404Y787D01*
X406Y787D01*
X406Y785D01*
X408Y785D01*
X408Y781D01*
X410Y781D01*
X410Y779D01*
X412Y779D01*
X412Y775D01*
X414Y775D01*
X414Y771D01*
X416Y771D01*
X416Y769D01*
X418Y769D01*
X418Y765D01*
X420Y765D01*
X420Y763D01*
X422Y763D01*
X422Y759D01*
X424Y759D01*
X424Y755D01*
X426Y755D01*
X426Y753D01*
X428Y753D01*
X428Y749D01*
X430Y749D01*
X430Y745D01*
X432Y745D01*
X432Y743D01*
X434Y743D01*
X434Y739D01*
X436Y739D01*
X436Y737D01*
X438Y737D01*
X438Y733D01*
X440Y733D01*
X440Y729D01*
X442Y729D01*
X442Y727D01*
X444Y727D01*
X444Y723D01*
X446Y723D01*
X446Y721D01*
X448Y721D01*
X448Y717D01*
X450Y717D01*
X450Y713D01*
X452Y713D01*
X452Y711D01*
X454Y711D01*
X454Y707D01*
X456Y707D01*
X456Y705D01*
X458Y705D01*
X458Y701D01*
X460Y701D01*
X460Y697D01*
X462Y697D01*
X462Y695D01*
X464Y695D01*
X464Y691D01*
X466Y691D01*
X466Y687D01*
X468Y687D01*
X468Y685D01*
X470Y685D01*
X470Y681D01*
X472Y681D01*
X472Y679D01*
X474Y679D01*
X474Y675D01*
X476Y675D01*
X476Y671D01*
X478Y671D01*
X478Y669D01*
X480Y669D01*
X480Y665D01*
X482Y665D01*
X482Y663D01*
X484Y663D01*
X484Y659D01*
X486Y659D01*
X486Y655D01*
X488Y655D01*
X488Y653D01*
X490Y653D01*
X490Y649D01*
X492Y649D01*
X492Y645D01*
X494Y645D01*
X494Y643D01*
X496Y643D01*
X496Y639D01*
X498Y639D01*
X498Y637D01*
X500Y637D01*
X500Y633D01*
X502Y633D01*
X502Y629D01*
X504Y629D01*
X504Y627D01*
X506Y627D01*
X506Y623D01*
X508Y623D01*
X508Y621D01*
X510Y621D01*
X510Y617D01*
X512Y617D01*
X512Y613D01*
X514Y613D01*
X514Y611D01*
X516Y611D01*
X516Y607D01*
X518Y607D01*
X518Y605D01*
X520Y605D01*
X520Y601D01*
X522Y601D01*
X522Y597D01*
X524Y597D01*
X524Y595D01*
X526Y595D01*
X526Y591D01*
X528Y591D01*
X528Y587D01*
X530Y587D01*
X530Y585D01*
X532Y585D01*
X532Y581D01*
X534Y581D01*
X534Y579D01*
X536Y579D01*
X536Y575D01*
X538Y575D01*
X538Y571D01*
X540Y571D01*
X540Y569D01*
X542Y569D01*
X542Y565D01*
X544Y565D01*
X544Y563D01*
X546Y563D01*
X546Y559D01*
X548Y559D01*
X548Y555D01*
X550Y555D01*
X550Y553D01*
X552Y553D01*
X552Y549D01*
X554Y549D01*
X554Y545D01*
X556Y545D01*
X556Y543D01*
X558Y543D01*
X558Y539D01*
X560Y539D01*
X560Y537D01*
X562Y537D01*
X562Y533D01*
X564Y533D01*
X564Y529D01*
X566Y529D01*
X566Y527D01*
X568Y527D01*
X568Y523D01*
X570Y523D01*
X570Y521D01*
X572Y521D01*
X572Y517D01*
X574Y517D01*
X574Y513D01*
X576Y513D01*
X576Y511D01*
X578Y511D01*
X578Y507D01*
X580Y507D01*
X580Y505D01*
X582Y505D01*
X582Y501D01*
X584Y501D01*
X584Y497D01*
X586Y497D01*
X586Y495D01*
X588Y495D01*
X588Y491D01*
X590Y491D01*
X590Y487D01*
X592Y487D01*
X592Y485D01*
X594Y485D01*
X594Y481D01*
X596Y481D01*
X596Y479D01*
X598Y479D01*
X598Y475D01*
X600Y475D01*
X600Y471D01*
X602Y471D01*
X602Y469D01*
X604Y469D01*
X604Y465D01*
X606Y465D01*
X606Y463D01*
X608Y463D01*
X608Y459D01*
X610Y459D01*
X610Y455D01*
X612Y455D01*
X612Y453D01*
X614Y453D01*
X614Y449D01*
X616Y449D01*
X616Y445D01*
X618Y445D01*
X618Y443D01*
X620Y443D01*
X620Y439D01*
X622Y439D01*
X622Y437D01*
X624Y437D01*
X624Y433D01*
X626Y433D01*
X626Y429D01*
X628Y429D01*
X628Y427D01*
X630Y427D01*
X630Y423D01*
X632Y423D01*
X632Y421D01*
X634Y421D01*
X634Y417D01*
X636Y417D01*
X636Y413D01*
X638Y413D01*
X638Y411D01*
X640Y411D01*
X640Y407D01*
X642Y407D01*
X642Y405D01*
X644Y405D01*
X644Y401D01*
X646Y401D01*
X646Y397D01*
X648Y397D01*
X648Y395D01*
X650Y395D01*
X650Y391D01*
X652Y391D01*
X652Y387D01*
X654Y387D01*
X654Y385D01*
X656Y385D01*
X656Y381D01*
X658Y381D01*
X658Y379D01*
X660Y379D01*
X660Y375D01*
X662Y375D01*
X662Y371D01*
X664Y371D01*
X664Y369D01*
X684Y369D01*
X684Y927D01*
X320Y927D01*
G37*
D02*
G36*
X40Y1031D02*
X40Y429D01*
X466Y429D01*
X466Y427D01*
X474Y427D01*
X474Y425D01*
X480Y425D01*
X480Y423D01*
X484Y423D01*
X484Y421D01*
X488Y421D01*
X488Y419D01*
X490Y419D01*
X490Y417D01*
X492Y417D01*
X492Y415D01*
X496Y415D01*
X496Y413D01*
X498Y413D01*
X498Y409D01*
X500Y409D01*
X500Y407D01*
X502Y407D01*
X502Y403D01*
X504Y403D01*
X504Y401D01*
X506Y401D01*
X506Y395D01*
X508Y395D01*
X508Y389D01*
X510Y389D01*
X510Y369D01*
X508Y369D01*
X508Y361D01*
X506Y361D01*
X506Y357D01*
X504Y357D01*
X504Y353D01*
X502Y353D01*
X502Y351D01*
X500Y351D01*
X500Y347D01*
X498Y347D01*
X498Y345D01*
X496Y345D01*
X496Y343D01*
X494Y343D01*
X494Y341D01*
X490Y341D01*
X490Y339D01*
X488Y339D01*
X488Y337D01*
X484Y337D01*
X484Y335D01*
X482Y335D01*
X482Y333D01*
X476Y333D01*
X476Y331D01*
X468Y331D01*
X468Y329D01*
X638Y329D01*
X638Y331D01*
X636Y331D01*
X636Y333D01*
X634Y333D01*
X634Y337D01*
X632Y337D01*
X632Y339D01*
X630Y339D01*
X630Y343D01*
X628Y343D01*
X628Y347D01*
X626Y347D01*
X626Y349D01*
X624Y349D01*
X624Y353D01*
X622Y353D01*
X622Y357D01*
X620Y357D01*
X620Y359D01*
X618Y359D01*
X618Y363D01*
X616Y363D01*
X616Y365D01*
X614Y365D01*
X614Y369D01*
X612Y369D01*
X612Y373D01*
X610Y373D01*
X610Y375D01*
X608Y375D01*
X608Y379D01*
X606Y379D01*
X606Y381D01*
X604Y381D01*
X604Y385D01*
X602Y385D01*
X602Y389D01*
X600Y389D01*
X600Y391D01*
X598Y391D01*
X598Y395D01*
X596Y395D01*
X596Y397D01*
X594Y397D01*
X594Y401D01*
X592Y401D01*
X592Y405D01*
X590Y405D01*
X590Y407D01*
X588Y407D01*
X588Y411D01*
X586Y411D01*
X586Y415D01*
X584Y415D01*
X584Y417D01*
X582Y417D01*
X582Y421D01*
X580Y421D01*
X580Y423D01*
X578Y423D01*
X578Y427D01*
X576Y427D01*
X576Y431D01*
X574Y431D01*
X574Y433D01*
X572Y433D01*
X572Y437D01*
X570Y437D01*
X570Y439D01*
X568Y439D01*
X568Y443D01*
X566Y443D01*
X566Y447D01*
X564Y447D01*
X564Y449D01*
X562Y449D01*
X562Y453D01*
X560Y453D01*
X560Y455D01*
X558Y455D01*
X558Y459D01*
X556Y459D01*
X556Y463D01*
X554Y463D01*
X554Y465D01*
X552Y465D01*
X552Y469D01*
X550Y469D01*
X550Y473D01*
X548Y473D01*
X548Y475D01*
X546Y475D01*
X546Y479D01*
X544Y479D01*
X544Y481D01*
X542Y481D01*
X542Y485D01*
X540Y485D01*
X540Y489D01*
X538Y489D01*
X538Y491D01*
X536Y491D01*
X536Y495D01*
X534Y495D01*
X534Y497D01*
X532Y497D01*
X532Y501D01*
X530Y501D01*
X530Y505D01*
X528Y505D01*
X528Y507D01*
X526Y507D01*
X526Y511D01*
X524Y511D01*
X524Y515D01*
X522Y515D01*
X522Y517D01*
X520Y517D01*
X520Y521D01*
X518Y521D01*
X518Y523D01*
X516Y523D01*
X516Y527D01*
X514Y527D01*
X514Y531D01*
X512Y531D01*
X512Y533D01*
X510Y533D01*
X510Y537D01*
X508Y537D01*
X508Y539D01*
X506Y539D01*
X506Y543D01*
X504Y543D01*
X504Y547D01*
X502Y547D01*
X502Y549D01*
X500Y549D01*
X500Y553D01*
X498Y553D01*
X498Y555D01*
X496Y555D01*
X496Y559D01*
X494Y559D01*
X494Y563D01*
X492Y563D01*
X492Y565D01*
X490Y565D01*
X490Y569D01*
X488Y569D01*
X488Y573D01*
X486Y573D01*
X486Y575D01*
X484Y575D01*
X484Y579D01*
X482Y579D01*
X482Y581D01*
X480Y581D01*
X480Y585D01*
X478Y585D01*
X478Y589D01*
X476Y589D01*
X476Y591D01*
X474Y591D01*
X474Y595D01*
X472Y595D01*
X472Y597D01*
X470Y597D01*
X470Y601D01*
X468Y601D01*
X468Y605D01*
X466Y605D01*
X466Y607D01*
X464Y607D01*
X464Y611D01*
X462Y611D01*
X462Y615D01*
X460Y615D01*
X460Y617D01*
X458Y617D01*
X458Y621D01*
X456Y621D01*
X456Y623D01*
X454Y623D01*
X454Y627D01*
X452Y627D01*
X452Y631D01*
X450Y631D01*
X450Y633D01*
X448Y633D01*
X448Y637D01*
X446Y637D01*
X446Y639D01*
X444Y639D01*
X444Y643D01*
X442Y643D01*
X442Y647D01*
X440Y647D01*
X440Y649D01*
X438Y649D01*
X438Y653D01*
X436Y653D01*
X436Y655D01*
X434Y655D01*
X434Y659D01*
X432Y659D01*
X432Y663D01*
X430Y663D01*
X430Y665D01*
X428Y665D01*
X428Y669D01*
X426Y669D01*
X426Y673D01*
X424Y673D01*
X424Y675D01*
X422Y675D01*
X422Y679D01*
X420Y679D01*
X420Y681D01*
X418Y681D01*
X418Y685D01*
X416Y685D01*
X416Y689D01*
X414Y689D01*
X414Y691D01*
X412Y691D01*
X412Y695D01*
X410Y695D01*
X410Y697D01*
X408Y697D01*
X408Y701D01*
X406Y701D01*
X406Y705D01*
X404Y705D01*
X404Y707D01*
X402Y707D01*
X402Y711D01*
X400Y711D01*
X400Y715D01*
X398Y715D01*
X398Y717D01*
X396Y717D01*
X396Y721D01*
X394Y721D01*
X394Y723D01*
X392Y723D01*
X392Y727D01*
X390Y727D01*
X390Y731D01*
X388Y731D01*
X388Y733D01*
X386Y733D01*
X386Y737D01*
X384Y737D01*
X384Y739D01*
X382Y739D01*
X382Y743D01*
X380Y743D01*
X380Y747D01*
X378Y747D01*
X378Y749D01*
X376Y749D01*
X376Y753D01*
X374Y753D01*
X374Y755D01*
X372Y755D01*
X372Y759D01*
X370Y759D01*
X370Y763D01*
X368Y763D01*
X368Y765D01*
X366Y765D01*
X366Y769D01*
X364Y769D01*
X364Y773D01*
X362Y773D01*
X362Y775D01*
X360Y775D01*
X360Y779D01*
X358Y779D01*
X358Y781D01*
X356Y781D01*
X356Y785D01*
X354Y785D01*
X354Y789D01*
X352Y789D01*
X352Y791D01*
X350Y791D01*
X350Y795D01*
X348Y795D01*
X348Y797D01*
X346Y797D01*
X346Y801D01*
X344Y801D01*
X344Y805D01*
X342Y805D01*
X342Y807D01*
X340Y807D01*
X340Y811D01*
X338Y811D01*
X338Y815D01*
X336Y815D01*
X336Y817D01*
X334Y817D01*
X334Y821D01*
X332Y821D01*
X332Y823D01*
X330Y823D01*
X330Y827D01*
X328Y827D01*
X328Y831D01*
X326Y831D01*
X326Y833D01*
X324Y833D01*
X324Y837D01*
X322Y837D01*
X322Y839D01*
X320Y839D01*
X320Y843D01*
X318Y843D01*
X318Y847D01*
X316Y847D01*
X316Y849D01*
X314Y849D01*
X314Y853D01*
X312Y853D01*
X312Y855D01*
X310Y855D01*
X310Y859D01*
X308Y859D01*
X308Y863D01*
X306Y863D01*
X306Y865D01*
X304Y865D01*
X304Y869D01*
X302Y869D01*
X302Y873D01*
X300Y873D01*
X300Y875D01*
X298Y875D01*
X298Y879D01*
X296Y879D01*
X296Y881D01*
X294Y881D01*
X294Y885D01*
X292Y885D01*
X292Y889D01*
X290Y889D01*
X290Y891D01*
X288Y891D01*
X288Y895D01*
X286Y895D01*
X286Y897D01*
X284Y897D01*
X284Y901D01*
X282Y901D01*
X282Y905D01*
X280Y905D01*
X280Y907D01*
X278Y907D01*
X278Y911D01*
X276Y911D01*
X276Y913D01*
X274Y913D01*
X274Y917D01*
X272Y917D01*
X272Y921D01*
X270Y921D01*
X270Y923D01*
X268Y923D01*
X268Y927D01*
X266Y927D01*
X266Y929D01*
X254Y929D01*
X254Y931D01*
X246Y931D01*
X246Y933D01*
X240Y933D01*
X240Y935D01*
X236Y935D01*
X236Y937D01*
X232Y937D01*
X232Y939D01*
X230Y939D01*
X230Y941D01*
X228Y941D01*
X228Y943D01*
X226Y943D01*
X226Y945D01*
X224Y945D01*
X224Y947D01*
X222Y947D01*
X222Y949D01*
X220Y949D01*
X220Y953D01*
X218Y953D01*
X218Y957D01*
X216Y957D01*
X216Y961D01*
X214Y961D01*
X214Y967D01*
X212Y967D01*
X212Y991D01*
X214Y991D01*
X214Y997D01*
X216Y997D01*
X216Y1001D01*
X218Y1001D01*
X218Y1005D01*
X220Y1005D01*
X220Y1007D01*
X222Y1007D01*
X222Y1011D01*
X224Y1011D01*
X224Y1031D01*
X40Y1031D01*
G37*
D02*
G36*
X40Y429D02*
X40Y41D01*
X170Y41D01*
X170Y61D01*
X168Y61D01*
X168Y87D01*
X170Y87D01*
X170Y109D01*
X168Y109D01*
X168Y113D01*
X166Y113D01*
X166Y117D01*
X164Y117D01*
X164Y121D01*
X162Y121D01*
X162Y125D01*
X160Y125D01*
X160Y127D01*
X158Y127D01*
X158Y131D01*
X156Y131D01*
X156Y135D01*
X154Y135D01*
X154Y139D01*
X152Y139D01*
X152Y143D01*
X150Y143D01*
X150Y145D01*
X148Y145D01*
X148Y149D01*
X146Y149D01*
X146Y153D01*
X144Y153D01*
X144Y157D01*
X142Y157D01*
X142Y161D01*
X140Y161D01*
X140Y163D01*
X138Y163D01*
X138Y167D01*
X136Y167D01*
X136Y171D01*
X134Y171D01*
X134Y175D01*
X132Y175D01*
X132Y179D01*
X130Y179D01*
X130Y181D01*
X128Y181D01*
X128Y185D01*
X126Y185D01*
X126Y189D01*
X124Y189D01*
X124Y193D01*
X122Y193D01*
X122Y197D01*
X118Y197D01*
X118Y199D01*
X108Y199D01*
X108Y201D01*
X102Y201D01*
X102Y203D01*
X98Y203D01*
X98Y205D01*
X94Y205D01*
X94Y207D01*
X92Y207D01*
X92Y209D01*
X90Y209D01*
X90Y211D01*
X88Y211D01*
X88Y213D01*
X86Y213D01*
X86Y215D01*
X84Y215D01*
X84Y219D01*
X82Y219D01*
X82Y221D01*
X80Y221D01*
X80Y225D01*
X78Y225D01*
X78Y231D01*
X76Y231D01*
X76Y253D01*
X78Y253D01*
X78Y261D01*
X80Y261D01*
X80Y265D01*
X82Y265D01*
X82Y267D01*
X84Y267D01*
X84Y271D01*
X86Y271D01*
X86Y273D01*
X88Y273D01*
X88Y275D01*
X90Y275D01*
X90Y277D01*
X92Y277D01*
X92Y279D01*
X96Y279D01*
X96Y281D01*
X98Y281D01*
X98Y283D01*
X102Y283D01*
X102Y285D01*
X108Y285D01*
X108Y287D01*
X136Y287D01*
X136Y289D01*
X138Y289D01*
X138Y291D01*
X140Y291D01*
X140Y293D01*
X142Y293D01*
X142Y295D01*
X144Y295D01*
X144Y297D01*
X146Y297D01*
X146Y299D01*
X148Y299D01*
X148Y301D01*
X150Y301D01*
X150Y303D01*
X152Y303D01*
X152Y305D01*
X154Y305D01*
X154Y307D01*
X156Y307D01*
X156Y309D01*
X158Y309D01*
X158Y311D01*
X160Y311D01*
X160Y313D01*
X162Y313D01*
X162Y315D01*
X164Y315D01*
X164Y317D01*
X166Y317D01*
X166Y319D01*
X168Y319D01*
X168Y321D01*
X170Y321D01*
X170Y323D01*
X172Y323D01*
X172Y325D01*
X174Y325D01*
X174Y327D01*
X176Y327D01*
X176Y329D01*
X178Y329D01*
X178Y331D01*
X180Y331D01*
X180Y333D01*
X182Y333D01*
X182Y335D01*
X184Y335D01*
X184Y337D01*
X186Y337D01*
X186Y339D01*
X188Y339D01*
X188Y341D01*
X192Y341D01*
X192Y343D01*
X194Y343D01*
X194Y345D01*
X196Y345D01*
X196Y347D01*
X198Y347D01*
X198Y349D01*
X200Y349D01*
X200Y351D01*
X202Y351D01*
X202Y353D01*
X204Y353D01*
X204Y355D01*
X206Y355D01*
X206Y357D01*
X208Y357D01*
X208Y359D01*
X210Y359D01*
X210Y361D01*
X212Y361D01*
X212Y391D01*
X214Y391D01*
X214Y397D01*
X216Y397D01*
X216Y401D01*
X218Y401D01*
X218Y405D01*
X220Y405D01*
X220Y407D01*
X222Y407D01*
X222Y411D01*
X224Y411D01*
X224Y413D01*
X226Y413D01*
X226Y415D01*
X228Y415D01*
X228Y417D01*
X230Y417D01*
X230Y419D01*
X234Y419D01*
X234Y421D01*
X238Y421D01*
X238Y423D01*
X240Y423D01*
X240Y425D01*
X246Y425D01*
X246Y427D01*
X256Y427D01*
X256Y429D01*
X40Y429D01*
G37*
D02*
G36*
X266Y429D02*
X266Y427D01*
X274Y427D01*
X274Y425D01*
X280Y425D01*
X280Y423D01*
X284Y423D01*
X284Y421D01*
X288Y421D01*
X288Y419D01*
X290Y419D01*
X290Y417D01*
X292Y417D01*
X292Y415D01*
X296Y415D01*
X296Y413D01*
X298Y413D01*
X298Y409D01*
X300Y409D01*
X300Y407D01*
X322Y407D01*
X322Y411D01*
X324Y411D01*
X324Y413D01*
X326Y413D01*
X326Y415D01*
X328Y415D01*
X328Y417D01*
X330Y417D01*
X330Y419D01*
X334Y419D01*
X334Y421D01*
X338Y421D01*
X338Y423D01*
X340Y423D01*
X340Y425D01*
X346Y425D01*
X346Y427D01*
X356Y427D01*
X356Y429D01*
X266Y429D01*
G37*
D02*
G36*
X366Y429D02*
X366Y427D01*
X374Y427D01*
X374Y425D01*
X380Y425D01*
X380Y423D01*
X384Y423D01*
X384Y421D01*
X388Y421D01*
X388Y419D01*
X390Y419D01*
X390Y417D01*
X392Y417D01*
X392Y415D01*
X396Y415D01*
X396Y413D01*
X398Y413D01*
X398Y409D01*
X400Y409D01*
X400Y407D01*
X422Y407D01*
X422Y411D01*
X424Y411D01*
X424Y413D01*
X426Y413D01*
X426Y415D01*
X428Y415D01*
X428Y417D01*
X430Y417D01*
X430Y419D01*
X434Y419D01*
X434Y421D01*
X438Y421D01*
X438Y423D01*
X440Y423D01*
X440Y425D01*
X446Y425D01*
X446Y427D01*
X456Y427D01*
X456Y429D01*
X366Y429D01*
G37*
D02*
G36*
X300Y351D02*
X300Y347D01*
X298Y347D01*
X298Y345D01*
X296Y345D01*
X296Y343D01*
X294Y343D01*
X294Y341D01*
X290Y341D01*
X290Y339D01*
X288Y339D01*
X288Y337D01*
X284Y337D01*
X284Y335D01*
X282Y335D01*
X282Y333D01*
X276Y333D01*
X276Y331D01*
X268Y331D01*
X268Y329D01*
X354Y329D01*
X354Y331D01*
X346Y331D01*
X346Y333D01*
X340Y333D01*
X340Y335D01*
X336Y335D01*
X336Y337D01*
X334Y337D01*
X334Y339D01*
X330Y339D01*
X330Y341D01*
X328Y341D01*
X328Y343D01*
X326Y343D01*
X326Y345D01*
X324Y345D01*
X324Y347D01*
X322Y347D01*
X322Y349D01*
X320Y349D01*
X320Y351D01*
X300Y351D01*
G37*
D02*
G36*
X400Y351D02*
X400Y347D01*
X398Y347D01*
X398Y345D01*
X396Y345D01*
X396Y343D01*
X394Y343D01*
X394Y341D01*
X390Y341D01*
X390Y339D01*
X388Y339D01*
X388Y337D01*
X384Y337D01*
X384Y335D01*
X382Y335D01*
X382Y333D01*
X376Y333D01*
X376Y331D01*
X368Y331D01*
X368Y329D01*
X454Y329D01*
X454Y331D01*
X446Y331D01*
X446Y333D01*
X440Y333D01*
X440Y335D01*
X436Y335D01*
X436Y337D01*
X434Y337D01*
X434Y339D01*
X430Y339D01*
X430Y341D01*
X428Y341D01*
X428Y343D01*
X426Y343D01*
X426Y345D01*
X424Y345D01*
X424Y347D01*
X422Y347D01*
X422Y349D01*
X420Y349D01*
X420Y351D01*
X400Y351D01*
G37*
D02*
G36*
X240Y329D02*
X240Y327D01*
X638Y327D01*
X638Y329D01*
X240Y329D01*
G37*
D02*
G36*
X240Y329D02*
X240Y327D01*
X638Y327D01*
X638Y329D01*
X240Y329D01*
G37*
D02*
G36*
X240Y329D02*
X240Y327D01*
X638Y327D01*
X638Y329D01*
X240Y329D01*
G37*
D02*
G36*
X238Y327D02*
X238Y325D01*
X236Y325D01*
X236Y323D01*
X234Y323D01*
X234Y321D01*
X232Y321D01*
X232Y319D01*
X230Y319D01*
X230Y317D01*
X228Y317D01*
X228Y315D01*
X226Y315D01*
X226Y313D01*
X224Y313D01*
X224Y311D01*
X222Y311D01*
X222Y309D01*
X220Y309D01*
X220Y307D01*
X218Y307D01*
X218Y287D01*
X628Y287D01*
X628Y285D01*
X634Y285D01*
X634Y283D01*
X638Y283D01*
X638Y281D01*
X642Y281D01*
X642Y279D01*
X646Y279D01*
X646Y277D01*
X666Y277D01*
X666Y285D01*
X664Y285D01*
X664Y289D01*
X662Y289D01*
X662Y291D01*
X660Y291D01*
X660Y295D01*
X658Y295D01*
X658Y297D01*
X656Y297D01*
X656Y301D01*
X654Y301D01*
X654Y305D01*
X652Y305D01*
X652Y307D01*
X650Y307D01*
X650Y311D01*
X648Y311D01*
X648Y315D01*
X646Y315D01*
X646Y317D01*
X644Y317D01*
X644Y321D01*
X642Y321D01*
X642Y323D01*
X640Y323D01*
X640Y327D01*
X238Y327D01*
G37*
D02*
G36*
X232Y287D02*
X232Y285D01*
X238Y285D01*
X238Y283D01*
X242Y283D01*
X242Y281D01*
X246Y281D01*
X246Y279D01*
X248Y279D01*
X248Y277D01*
X250Y277D01*
X250Y275D01*
X252Y275D01*
X252Y273D01*
X254Y273D01*
X254Y271D01*
X256Y271D01*
X256Y269D01*
X258Y269D01*
X258Y265D01*
X260Y265D01*
X260Y263D01*
X282Y263D01*
X282Y265D01*
X284Y265D01*
X284Y269D01*
X286Y269D01*
X286Y271D01*
X288Y271D01*
X288Y273D01*
X290Y273D01*
X290Y275D01*
X292Y275D01*
X292Y277D01*
X294Y277D01*
X294Y279D01*
X296Y279D01*
X296Y281D01*
X300Y281D01*
X300Y283D01*
X304Y283D01*
X304Y285D01*
X310Y285D01*
X310Y287D01*
X232Y287D01*
G37*
D02*
G36*
X334Y287D02*
X334Y285D01*
X340Y285D01*
X340Y283D01*
X344Y283D01*
X344Y281D01*
X346Y281D01*
X346Y279D01*
X350Y279D01*
X350Y277D01*
X352Y277D01*
X352Y275D01*
X354Y275D01*
X354Y273D01*
X356Y273D01*
X356Y271D01*
X358Y271D01*
X358Y267D01*
X360Y267D01*
X360Y263D01*
X362Y263D01*
X362Y261D01*
X382Y261D01*
X382Y265D01*
X384Y265D01*
X384Y269D01*
X386Y269D01*
X386Y271D01*
X388Y271D01*
X388Y273D01*
X390Y273D01*
X390Y275D01*
X392Y275D01*
X392Y277D01*
X394Y277D01*
X394Y279D01*
X396Y279D01*
X396Y281D01*
X400Y281D01*
X400Y283D01*
X404Y283D01*
X404Y285D01*
X410Y285D01*
X410Y287D01*
X334Y287D01*
G37*
D02*
G36*
X434Y287D02*
X434Y285D01*
X440Y285D01*
X440Y283D01*
X444Y283D01*
X444Y281D01*
X446Y281D01*
X446Y279D01*
X450Y279D01*
X450Y277D01*
X452Y277D01*
X452Y275D01*
X454Y275D01*
X454Y273D01*
X456Y273D01*
X456Y271D01*
X458Y271D01*
X458Y267D01*
X460Y267D01*
X460Y265D01*
X480Y265D01*
X480Y267D01*
X482Y267D01*
X482Y269D01*
X484Y269D01*
X484Y271D01*
X486Y271D01*
X486Y273D01*
X488Y273D01*
X488Y275D01*
X490Y275D01*
X490Y277D01*
X492Y277D01*
X492Y279D01*
X496Y279D01*
X496Y281D01*
X498Y281D01*
X498Y283D01*
X504Y283D01*
X504Y285D01*
X510Y285D01*
X510Y287D01*
X434Y287D01*
G37*
D02*
G36*
X528Y287D02*
X528Y285D01*
X534Y285D01*
X534Y283D01*
X538Y283D01*
X538Y281D01*
X542Y281D01*
X542Y279D01*
X546Y279D01*
X546Y277D01*
X548Y277D01*
X548Y275D01*
X550Y275D01*
X550Y273D01*
X552Y273D01*
X552Y271D01*
X554Y271D01*
X554Y269D01*
X556Y269D01*
X556Y265D01*
X558Y265D01*
X558Y261D01*
X578Y261D01*
X578Y263D01*
X580Y263D01*
X580Y265D01*
X582Y265D01*
X582Y269D01*
X584Y269D01*
X584Y271D01*
X586Y271D01*
X586Y273D01*
X588Y273D01*
X588Y275D01*
X590Y275D01*
X590Y277D01*
X592Y277D01*
X592Y279D01*
X596Y279D01*
X596Y281D01*
X598Y281D01*
X598Y283D01*
X604Y283D01*
X604Y285D01*
X610Y285D01*
X610Y287D01*
X528Y287D01*
G37*
D02*
G36*
X260Y223D02*
X260Y221D01*
X282Y221D01*
X282Y223D01*
X260Y223D01*
G37*
D02*
G36*
X362Y223D02*
X362Y221D01*
X360Y221D01*
X360Y219D01*
X358Y219D01*
X358Y215D01*
X356Y215D01*
X356Y213D01*
X354Y213D01*
X354Y211D01*
X352Y211D01*
X352Y209D01*
X350Y209D01*
X350Y207D01*
X346Y207D01*
X346Y205D01*
X344Y205D01*
X344Y203D01*
X340Y203D01*
X340Y201D01*
X334Y201D01*
X334Y199D01*
X324Y199D01*
X324Y197D01*
X420Y197D01*
X420Y199D01*
X408Y199D01*
X408Y201D01*
X404Y201D01*
X404Y203D01*
X400Y203D01*
X400Y205D01*
X396Y205D01*
X396Y207D01*
X394Y207D01*
X394Y209D01*
X392Y209D01*
X392Y211D01*
X390Y211D01*
X390Y213D01*
X388Y213D01*
X388Y215D01*
X386Y215D01*
X386Y217D01*
X384Y217D01*
X384Y221D01*
X382Y221D01*
X382Y223D01*
X362Y223D01*
G37*
D02*
G36*
X260Y221D02*
X260Y219D01*
X258Y219D01*
X258Y217D01*
X256Y217D01*
X256Y215D01*
X254Y215D01*
X254Y211D01*
X252Y211D01*
X252Y209D01*
X248Y209D01*
X248Y207D01*
X246Y207D01*
X246Y205D01*
X242Y205D01*
X242Y203D01*
X240Y203D01*
X240Y201D01*
X234Y201D01*
X234Y199D01*
X222Y199D01*
X222Y197D01*
X320Y197D01*
X320Y199D01*
X308Y199D01*
X308Y201D01*
X302Y201D01*
X302Y203D01*
X300Y203D01*
X300Y205D01*
X296Y205D01*
X296Y207D01*
X294Y207D01*
X294Y209D01*
X290Y209D01*
X290Y211D01*
X288Y211D01*
X288Y215D01*
X286Y215D01*
X286Y217D01*
X284Y217D01*
X284Y219D01*
X282Y219D01*
X282Y221D01*
X260Y221D01*
G37*
D02*
G36*
X460Y221D02*
X460Y219D01*
X458Y219D01*
X458Y215D01*
X456Y215D01*
X456Y213D01*
X454Y213D01*
X454Y211D01*
X452Y211D01*
X452Y209D01*
X450Y209D01*
X450Y207D01*
X448Y207D01*
X448Y205D01*
X444Y205D01*
X444Y203D01*
X440Y203D01*
X440Y201D01*
X434Y201D01*
X434Y199D01*
X424Y199D01*
X424Y197D01*
X510Y197D01*
X510Y199D01*
X502Y199D01*
X502Y201D01*
X498Y201D01*
X498Y203D01*
X494Y203D01*
X494Y205D01*
X492Y205D01*
X492Y207D01*
X490Y207D01*
X490Y209D01*
X488Y209D01*
X488Y211D01*
X486Y211D01*
X486Y213D01*
X484Y213D01*
X484Y215D01*
X482Y215D01*
X482Y217D01*
X480Y217D01*
X480Y221D01*
X460Y221D01*
G37*
D02*
G36*
X164Y219D02*
X164Y207D01*
X166Y207D01*
X166Y205D01*
X168Y205D01*
X168Y201D01*
X170Y201D01*
X170Y197D01*
X218Y197D01*
X218Y199D01*
X208Y199D01*
X208Y201D01*
X202Y201D01*
X202Y203D01*
X198Y203D01*
X198Y205D01*
X196Y205D01*
X196Y207D01*
X192Y207D01*
X192Y209D01*
X190Y209D01*
X190Y211D01*
X188Y211D01*
X188Y213D01*
X186Y213D01*
X186Y215D01*
X184Y215D01*
X184Y219D01*
X164Y219D01*
G37*
D02*
G36*
X172Y197D02*
X172Y195D01*
X524Y195D01*
X524Y197D01*
X172Y197D01*
G37*
D02*
G36*
X172Y197D02*
X172Y195D01*
X524Y195D01*
X524Y197D01*
X172Y197D01*
G37*
D02*
G36*
X172Y197D02*
X172Y195D01*
X524Y195D01*
X524Y197D01*
X172Y197D01*
G37*
D02*
G36*
X172Y197D02*
X172Y195D01*
X524Y195D01*
X524Y197D01*
X172Y197D01*
G37*
D02*
G36*
X172Y195D02*
X172Y193D01*
X174Y193D01*
X174Y189D01*
X176Y189D01*
X176Y187D01*
X178Y187D01*
X178Y183D01*
X180Y183D01*
X180Y179D01*
X182Y179D01*
X182Y175D01*
X184Y175D01*
X184Y171D01*
X186Y171D01*
X186Y169D01*
X188Y169D01*
X188Y165D01*
X190Y165D01*
X190Y161D01*
X192Y161D01*
X192Y157D01*
X194Y157D01*
X194Y153D01*
X196Y153D01*
X196Y151D01*
X198Y151D01*
X198Y147D01*
X200Y147D01*
X200Y143D01*
X202Y143D01*
X202Y139D01*
X204Y139D01*
X204Y135D01*
X206Y135D01*
X206Y133D01*
X208Y133D01*
X208Y129D01*
X210Y129D01*
X210Y125D01*
X212Y125D01*
X212Y121D01*
X424Y121D01*
X424Y119D01*
X430Y119D01*
X430Y117D01*
X434Y117D01*
X434Y115D01*
X438Y115D01*
X438Y113D01*
X442Y113D01*
X442Y111D01*
X562Y111D01*
X562Y41D01*
X684Y41D01*
X684Y147D01*
X560Y147D01*
X560Y149D01*
X556Y149D01*
X556Y151D01*
X554Y151D01*
X554Y153D01*
X552Y153D01*
X552Y155D01*
X550Y155D01*
X550Y159D01*
X548Y159D01*
X548Y161D01*
X546Y161D01*
X546Y165D01*
X544Y165D01*
X544Y167D01*
X542Y167D01*
X542Y171D01*
X540Y171D01*
X540Y173D01*
X538Y173D01*
X538Y177D01*
X536Y177D01*
X536Y179D01*
X534Y179D01*
X534Y181D01*
X532Y181D01*
X532Y185D01*
X530Y185D01*
X530Y187D01*
X528Y187D01*
X528Y191D01*
X526Y191D01*
X526Y193D01*
X524Y193D01*
X524Y195D01*
X172Y195D01*
G37*
D02*
G36*
X224Y121D02*
X224Y119D01*
X230Y119D01*
X230Y117D01*
X234Y117D01*
X234Y115D01*
X238Y115D01*
X238Y113D01*
X242Y113D01*
X242Y111D01*
X324Y111D01*
X324Y109D01*
X330Y109D01*
X330Y107D01*
X334Y107D01*
X334Y105D01*
X338Y105D01*
X338Y103D01*
X342Y103D01*
X342Y101D01*
X344Y101D01*
X344Y99D01*
X346Y99D01*
X346Y97D01*
X348Y97D01*
X348Y95D01*
X350Y95D01*
X350Y93D01*
X372Y93D01*
X372Y97D01*
X374Y97D01*
X374Y99D01*
X376Y99D01*
X376Y103D01*
X378Y103D01*
X378Y105D01*
X380Y105D01*
X380Y107D01*
X382Y107D01*
X382Y109D01*
X384Y109D01*
X384Y111D01*
X386Y111D01*
X386Y113D01*
X390Y113D01*
X390Y115D01*
X394Y115D01*
X394Y117D01*
X398Y117D01*
X398Y119D01*
X404Y119D01*
X404Y121D01*
X224Y121D01*
G37*
D02*
G36*
X244Y111D02*
X244Y109D01*
X246Y109D01*
X246Y107D01*
X248Y107D01*
X248Y105D01*
X250Y105D01*
X250Y103D01*
X252Y103D01*
X252Y101D01*
X254Y101D01*
X254Y97D01*
X256Y97D01*
X256Y93D01*
X278Y93D01*
X278Y95D01*
X280Y95D01*
X280Y97D01*
X282Y97D01*
X282Y99D01*
X284Y99D01*
X284Y101D01*
X286Y101D01*
X286Y103D01*
X290Y103D01*
X290Y105D01*
X294Y105D01*
X294Y107D01*
X298Y107D01*
X298Y109D01*
X304Y109D01*
X304Y111D01*
X244Y111D01*
G37*
D02*
G36*
X444Y111D02*
X444Y109D01*
X446Y109D01*
X446Y107D01*
X448Y107D01*
X448Y105D01*
X468Y105D01*
X468Y111D01*
X444Y111D01*
G37*
D02*
G36*
X490Y49D02*
X533Y49D01*
X533Y23D01*
X490Y23D01*
X490Y49D01*
G37*
D02*
G36*
X530Y89D02*
X562Y89D01*
X562Y46D01*
X530Y46D01*
X530Y89D01*
G37*
D02*
G36*
X337Y433D02*
X382Y433D01*
X382Y401D01*
X337Y401D01*
X337Y433D01*
G37*
D02*
G36*
X437Y1033D02*
X482Y1033D01*
X482Y999D01*
X437Y999D01*
X437Y1033D01*
G37*
D02*
G36*
X437Y961D02*
X482Y961D01*
X482Y929D01*
X437Y929D01*
X437Y961D01*
G37*
D02*
G36*
X408Y1002D02*
X440Y1002D01*
X440Y957D01*
X408Y957D01*
X408Y1002D01*
G37*
D02*
G36*
X478Y1002D02*
X510Y1002D01*
X510Y957D01*
X478Y957D01*
X478Y1002D01*
G37*
D02*
G54D15*
X254Y1018D02*
X267Y1018D01*
X453Y1018D02*
X467Y1018D01*
X250Y1017D02*
X271Y1017D01*
X449Y1017D02*
X471Y1017D01*
X247Y1016D02*
X273Y1016D01*
X447Y1016D02*
X473Y1016D01*
X244Y1015D02*
X276Y1015D01*
X444Y1015D02*
X476Y1015D01*
X242Y1014D02*
X278Y1014D01*
X442Y1014D02*
X478Y1014D01*
X240Y1013D02*
X280Y1013D01*
X440Y1013D02*
X480Y1013D01*
X239Y1012D02*
X281Y1012D01*
X439Y1012D02*
X481Y1012D01*
X237Y1011D02*
X283Y1011D01*
X437Y1011D02*
X483Y1011D01*
X236Y1010D02*
X284Y1010D01*
X436Y1010D02*
X484Y1010D01*
X235Y1009D02*
X285Y1009D01*
X435Y1009D02*
X485Y1009D01*
X234Y1008D02*
X287Y1008D01*
X433Y1008D02*
X486Y1008D01*
X233Y1007D02*
X288Y1007D01*
X432Y1007D02*
X488Y1007D01*
X232Y1006D02*
X289Y1006D01*
X432Y1006D02*
X488Y1006D01*
X231Y1005D02*
X289Y1005D01*
X431Y1005D02*
X489Y1005D01*
X230Y1004D02*
X290Y1004D01*
X430Y1004D02*
X490Y1004D01*
X229Y1003D02*
X291Y1003D01*
X429Y1003D02*
X491Y1003D01*
X228Y1002D02*
X292Y1002D01*
X428Y1002D02*
X492Y1002D01*
X228Y1001D02*
X292Y1001D01*
X428Y1001D02*
X492Y1001D01*
X227Y1000D02*
X293Y1000D01*
X427Y1000D02*
X493Y1000D01*
X227Y999D02*
X294Y999D01*
X427Y999D02*
X493Y999D01*
X226Y998D02*
X254Y998D01*
X266Y998D02*
X294Y998D01*
X426Y998D02*
X454Y998D01*
X466Y998D02*
X494Y998D01*
X226Y997D02*
X251Y997D01*
X269Y997D02*
X295Y997D01*
X425Y997D02*
X451Y997D01*
X469Y997D02*
X494Y997D01*
X225Y996D02*
X249Y996D01*
X271Y996D02*
X295Y996D01*
X425Y996D02*
X449Y996D01*
X471Y996D02*
X495Y996D01*
X225Y995D02*
X248Y995D01*
X272Y995D02*
X296Y995D01*
X425Y995D02*
X448Y995D01*
X472Y995D02*
X495Y995D01*
X224Y994D02*
X247Y994D01*
X273Y994D02*
X296Y994D01*
X424Y994D02*
X447Y994D01*
X473Y994D02*
X496Y994D01*
X224Y993D02*
X246Y993D01*
X274Y993D02*
X296Y993D01*
X424Y993D02*
X446Y993D01*
X474Y993D02*
X496Y993D01*
X223Y992D02*
X245Y992D01*
X275Y992D02*
X297Y992D01*
X423Y992D02*
X445Y992D01*
X475Y992D02*
X497Y992D01*
X223Y991D02*
X244Y991D01*
X276Y991D02*
X297Y991D01*
X423Y991D02*
X444Y991D01*
X476Y991D02*
X497Y991D01*
X223Y990D02*
X243Y990D01*
X277Y990D02*
X297Y990D01*
X423Y990D02*
X443Y990D01*
X477Y990D02*
X497Y990D01*
X223Y989D02*
X243Y989D01*
X278Y989D02*
X298Y989D01*
X422Y989D02*
X443Y989D01*
X477Y989D02*
X498Y989D01*
X222Y988D02*
X242Y988D01*
X278Y988D02*
X298Y988D01*
X422Y988D02*
X442Y988D01*
X478Y988D02*
X498Y988D01*
X222Y987D02*
X242Y987D01*
X279Y987D02*
X298Y987D01*
X422Y987D02*
X441Y987D01*
X479Y987D02*
X498Y987D01*
X222Y986D02*
X241Y986D01*
X279Y986D02*
X298Y986D01*
X422Y986D02*
X441Y986D01*
X479Y986D02*
X498Y986D01*
X222Y985D02*
X241Y985D01*
X279Y985D02*
X298Y985D01*
X422Y985D02*
X441Y985D01*
X479Y985D02*
X498Y985D01*
X222Y984D02*
X241Y984D01*
X280Y984D02*
X299Y984D01*
X421Y984D02*
X441Y984D01*
X479Y984D02*
X499Y984D01*
X221Y983D02*
X240Y983D01*
X280Y983D02*
X299Y983D01*
X421Y983D02*
X440Y983D01*
X480Y983D02*
X499Y983D01*
X221Y982D02*
X240Y982D01*
X280Y982D02*
X299Y982D01*
X421Y982D02*
X440Y982D01*
X480Y982D02*
X499Y982D01*
X221Y981D02*
X240Y981D01*
X280Y981D02*
X299Y981D01*
X421Y981D02*
X440Y981D01*
X480Y981D02*
X499Y981D01*
X221Y980D02*
X240Y980D01*
X280Y980D02*
X299Y980D01*
X421Y980D02*
X440Y980D01*
X480Y980D02*
X499Y980D01*
X221Y979D02*
X240Y979D01*
X280Y979D02*
X299Y979D01*
X421Y979D02*
X440Y979D01*
X480Y979D02*
X499Y979D01*
X221Y978D02*
X240Y978D01*
X280Y978D02*
X299Y978D01*
X421Y978D02*
X440Y978D01*
X480Y978D02*
X499Y978D01*
X221Y977D02*
X240Y977D01*
X280Y977D02*
X299Y977D01*
X421Y977D02*
X440Y977D01*
X480Y977D02*
X499Y977D01*
X221Y976D02*
X240Y976D01*
X280Y976D02*
X299Y976D01*
X421Y976D02*
X440Y976D01*
X480Y976D02*
X499Y976D01*
X221Y975D02*
X241Y975D01*
X280Y975D02*
X299Y975D01*
X421Y975D02*
X440Y975D01*
X480Y975D02*
X499Y975D01*
X222Y974D02*
X241Y974D01*
X279Y974D02*
X299Y974D01*
X422Y974D02*
X441Y974D01*
X479Y974D02*
X498Y974D01*
X222Y973D02*
X241Y973D01*
X279Y973D02*
X298Y973D01*
X422Y973D02*
X441Y973D01*
X479Y973D02*
X498Y973D01*
X222Y972D02*
X241Y972D01*
X279Y972D02*
X298Y972D01*
X422Y972D02*
X441Y972D01*
X479Y972D02*
X498Y972D01*
X222Y971D02*
X242Y971D01*
X278Y971D02*
X298Y971D01*
X422Y971D02*
X442Y971D01*
X478Y971D02*
X498Y971D01*
X222Y970D02*
X242Y970D01*
X278Y970D02*
X298Y970D01*
X422Y970D02*
X442Y970D01*
X478Y970D02*
X498Y970D01*
X223Y969D02*
X243Y969D01*
X277Y969D02*
X297Y969D01*
X423Y969D02*
X443Y969D01*
X477Y969D02*
X497Y969D01*
X223Y968D02*
X244Y968D01*
X276Y968D02*
X297Y968D01*
X423Y968D02*
X444Y968D01*
X476Y968D02*
X497Y968D01*
X223Y967D02*
X245Y967D01*
X276Y967D02*
X297Y967D01*
X423Y967D02*
X445Y967D01*
X475Y967D02*
X497Y967D01*
X224Y966D02*
X245Y966D01*
X275Y966D02*
X296Y966D01*
X424Y966D02*
X445Y966D01*
X475Y966D02*
X496Y966D01*
X224Y965D02*
X247Y965D01*
X274Y965D02*
X296Y965D01*
X424Y965D02*
X446Y965D01*
X474Y965D02*
X496Y965D01*
X224Y964D02*
X248Y964D01*
X272Y964D02*
X296Y964D01*
X424Y964D02*
X448Y964D01*
X472Y964D02*
X496Y964D01*
X225Y963D02*
X249Y963D01*
X271Y963D02*
X295Y963D01*
X425Y963D02*
X449Y963D01*
X471Y963D02*
X495Y963D01*
X225Y962D02*
X251Y962D01*
X270Y962D02*
X295Y962D01*
X425Y962D02*
X451Y962D01*
X469Y962D02*
X495Y962D01*
X226Y961D02*
X253Y961D01*
X267Y961D02*
X294Y961D01*
X426Y961D02*
X453Y961D01*
X467Y961D02*
X494Y961D01*
X226Y960D02*
X258Y960D01*
X262Y960D02*
X294Y960D01*
X426Y960D02*
X458Y960D01*
X462Y960D02*
X494Y960D01*
X227Y959D02*
X293Y959D01*
X427Y959D02*
X493Y959D01*
X228Y958D02*
X293Y958D01*
X428Y958D02*
X492Y958D01*
X228Y957D02*
X292Y957D01*
X428Y957D02*
X492Y957D01*
X229Y956D02*
X291Y956D01*
X429Y956D02*
X491Y956D01*
X230Y955D02*
X291Y955D01*
X430Y955D02*
X490Y955D01*
X230Y954D02*
X290Y954D01*
X430Y954D02*
X490Y954D01*
X231Y953D02*
X289Y953D01*
X431Y953D02*
X489Y953D01*
X232Y952D02*
X288Y952D01*
X432Y952D02*
X488Y952D01*
X233Y951D02*
X287Y951D01*
X433Y951D02*
X487Y951D01*
X234Y950D02*
X286Y950D01*
X434Y950D02*
X486Y950D01*
X235Y949D02*
X285Y949D01*
X435Y949D02*
X485Y949D01*
X237Y948D02*
X283Y948D01*
X437Y948D02*
X483Y948D01*
X238Y947D02*
X282Y947D01*
X438Y947D02*
X482Y947D01*
X240Y946D02*
X280Y946D01*
X440Y946D02*
X480Y946D01*
X242Y945D02*
X279Y945D01*
X441Y945D02*
X479Y945D01*
X244Y944D02*
X277Y944D01*
X443Y944D02*
X477Y944D01*
X246Y943D02*
X274Y943D01*
X446Y943D02*
X474Y943D01*
X248Y942D02*
X272Y942D01*
X448Y942D02*
X472Y942D01*
X252Y941D02*
X268Y941D01*
X452Y941D02*
X468Y941D01*
X259Y940D02*
X262Y940D01*
X459Y940D02*
X461Y940D01*
X252Y418D02*
X268Y418D01*
X352Y418D02*
X368Y418D01*
X452Y418D02*
X468Y418D01*
X249Y417D02*
X271Y417D01*
X349Y417D02*
X371Y417D01*
X449Y417D02*
X471Y417D01*
X246Y416D02*
X274Y416D01*
X346Y416D02*
X374Y416D01*
X446Y416D02*
X474Y416D01*
X244Y415D02*
X276Y415D01*
X344Y415D02*
X376Y415D01*
X444Y415D02*
X476Y415D01*
X242Y414D02*
X278Y414D01*
X342Y414D02*
X378Y414D01*
X442Y414D02*
X478Y414D01*
X240Y413D02*
X280Y413D01*
X340Y413D02*
X380Y413D01*
X440Y413D02*
X480Y413D01*
X238Y412D02*
X282Y412D01*
X338Y412D02*
X382Y412D01*
X438Y412D02*
X482Y412D01*
X237Y411D02*
X283Y411D01*
X337Y411D02*
X383Y411D01*
X437Y411D02*
X483Y411D01*
X236Y410D02*
X285Y410D01*
X336Y410D02*
X385Y410D01*
X436Y410D02*
X484Y410D01*
X234Y409D02*
X286Y409D01*
X334Y409D02*
X386Y409D01*
X434Y409D02*
X486Y409D01*
X233Y408D02*
X287Y408D01*
X333Y408D02*
X387Y408D01*
X433Y408D02*
X487Y408D01*
X232Y407D02*
X288Y407D01*
X332Y407D02*
X388Y407D01*
X432Y407D02*
X488Y407D01*
X231Y406D02*
X289Y406D01*
X331Y406D02*
X389Y406D01*
X431Y406D02*
X489Y406D01*
X231Y405D02*
X290Y405D01*
X330Y405D02*
X390Y405D01*
X430Y405D02*
X490Y405D01*
X230Y404D02*
X290Y404D01*
X330Y404D02*
X390Y404D01*
X430Y404D02*
X490Y404D01*
X229Y403D02*
X291Y403D01*
X329Y403D02*
X391Y403D01*
X429Y403D02*
X491Y403D01*
X228Y402D02*
X292Y402D01*
X328Y402D02*
X392Y402D01*
X428Y402D02*
X492Y402D01*
X228Y401D02*
X292Y401D01*
X328Y401D02*
X392Y401D01*
X428Y401D02*
X492Y401D01*
X227Y400D02*
X293Y400D01*
X327Y400D02*
X393Y400D01*
X427Y400D02*
X493Y400D01*
X226Y399D02*
X294Y399D01*
X326Y399D02*
X394Y399D01*
X426Y399D02*
X494Y399D01*
X226Y398D02*
X253Y398D01*
X267Y398D02*
X294Y398D01*
X326Y398D02*
X353Y398D01*
X367Y398D02*
X394Y398D01*
X426Y398D02*
X453Y398D01*
X467Y398D02*
X494Y398D01*
X225Y397D02*
X251Y397D01*
X269Y397D02*
X295Y397D01*
X325Y397D02*
X351Y397D01*
X369Y397D02*
X395Y397D01*
X425Y397D02*
X451Y397D01*
X469Y397D02*
X495Y397D01*
X225Y396D02*
X249Y396D01*
X271Y396D02*
X295Y396D01*
X325Y396D02*
X349Y396D01*
X371Y396D02*
X395Y396D01*
X425Y396D02*
X449Y396D01*
X471Y396D02*
X495Y396D01*
X225Y395D02*
X248Y395D01*
X272Y395D02*
X296Y395D01*
X324Y395D02*
X348Y395D01*
X372Y395D02*
X396Y395D01*
X424Y395D02*
X448Y395D01*
X472Y395D02*
X496Y395D01*
X224Y394D02*
X247Y394D01*
X274Y394D02*
X296Y394D01*
X324Y394D02*
X347Y394D01*
X373Y394D02*
X396Y394D01*
X424Y394D02*
X447Y394D01*
X473Y394D02*
X496Y394D01*
X224Y393D02*
X246Y393D01*
X275Y393D02*
X296Y393D01*
X324Y393D02*
X346Y393D01*
X375Y393D02*
X396Y393D01*
X424Y393D02*
X445Y393D01*
X474Y393D02*
X496Y393D01*
X223Y392D02*
X245Y392D01*
X275Y392D02*
X297Y392D01*
X323Y392D02*
X345Y392D01*
X375Y392D02*
X397Y392D01*
X423Y392D02*
X445Y392D01*
X475Y392D02*
X497Y392D01*
X223Y391D02*
X244Y391D01*
X276Y391D02*
X297Y391D01*
X323Y391D02*
X344Y391D01*
X376Y391D02*
X397Y391D01*
X423Y391D02*
X444Y391D01*
X476Y391D02*
X497Y391D01*
X223Y390D02*
X243Y390D01*
X277Y390D02*
X297Y390D01*
X323Y390D02*
X343Y390D01*
X377Y390D02*
X397Y390D01*
X423Y390D02*
X443Y390D01*
X477Y390D02*
X497Y390D01*
X222Y389D02*
X243Y389D01*
X278Y389D02*
X298Y389D01*
X322Y389D02*
X342Y389D01*
X378Y389D02*
X398Y389D01*
X422Y389D02*
X442Y389D01*
X478Y389D02*
X498Y389D01*
X222Y388D02*
X242Y388D01*
X278Y388D02*
X298Y388D01*
X322Y388D02*
X342Y388D01*
X378Y388D02*
X398Y388D01*
X422Y388D02*
X442Y388D01*
X478Y388D02*
X498Y388D01*
X222Y387D02*
X241Y387D01*
X279Y387D02*
X298Y387D01*
X322Y387D02*
X341Y387D01*
X379Y387D02*
X398Y387D01*
X422Y387D02*
X441Y387D01*
X479Y387D02*
X498Y387D01*
X222Y386D02*
X241Y386D01*
X279Y386D02*
X298Y386D01*
X322Y386D02*
X341Y386D01*
X379Y386D02*
X398Y386D01*
X422Y386D02*
X441Y386D01*
X479Y386D02*
X498Y386D01*
X222Y385D02*
X241Y385D01*
X279Y385D02*
X299Y385D01*
X322Y385D02*
X341Y385D01*
X379Y385D02*
X398Y385D01*
X422Y385D02*
X441Y385D01*
X479Y385D02*
X498Y385D01*
X221Y384D02*
X241Y384D01*
X280Y384D02*
X299Y384D01*
X321Y384D02*
X341Y384D01*
X380Y384D02*
X399Y384D01*
X421Y384D02*
X440Y384D01*
X480Y384D02*
X499Y384D01*
X221Y383D02*
X240Y383D01*
X280Y383D02*
X299Y383D01*
X321Y383D02*
X340Y383D01*
X380Y383D02*
X399Y383D01*
X421Y383D02*
X440Y383D01*
X480Y383D02*
X499Y383D01*
X221Y382D02*
X240Y382D01*
X280Y382D02*
X299Y382D01*
X321Y382D02*
X340Y382D01*
X380Y382D02*
X399Y382D01*
X421Y382D02*
X440Y382D01*
X480Y382D02*
X499Y382D01*
X221Y381D02*
X240Y381D01*
X280Y381D02*
X299Y381D01*
X321Y381D02*
X340Y381D01*
X380Y381D02*
X399Y381D01*
X421Y381D02*
X440Y381D01*
X480Y381D02*
X499Y381D01*
X221Y380D02*
X240Y380D01*
X280Y380D02*
X299Y380D01*
X321Y380D02*
X340Y380D01*
X380Y380D02*
X399Y380D01*
X421Y380D02*
X440Y380D01*
X480Y380D02*
X499Y380D01*
X221Y379D02*
X240Y379D01*
X280Y379D02*
X299Y379D01*
X321Y379D02*
X340Y379D01*
X380Y379D02*
X399Y379D01*
X421Y379D02*
X440Y379D01*
X480Y379D02*
X499Y379D01*
X221Y378D02*
X240Y378D01*
X280Y378D02*
X299Y378D01*
X321Y378D02*
X340Y378D01*
X380Y378D02*
X399Y378D01*
X421Y378D02*
X440Y378D01*
X480Y378D02*
X499Y378D01*
X221Y377D02*
X240Y377D01*
X280Y377D02*
X299Y377D01*
X321Y377D02*
X340Y377D01*
X380Y377D02*
X399Y377D01*
X421Y377D02*
X440Y377D01*
X480Y377D02*
X499Y377D01*
X221Y376D02*
X240Y376D01*
X280Y376D02*
X299Y376D01*
X321Y376D02*
X340Y376D01*
X380Y376D02*
X399Y376D01*
X421Y376D02*
X440Y376D01*
X480Y376D02*
X499Y376D01*
X221Y375D02*
X241Y375D01*
X280Y375D02*
X299Y375D01*
X321Y375D02*
X341Y375D01*
X380Y375D02*
X399Y375D01*
X421Y375D02*
X441Y375D01*
X479Y375D02*
X499Y375D01*
X222Y374D02*
X241Y374D01*
X279Y374D02*
X299Y374D01*
X322Y374D02*
X341Y374D01*
X379Y374D02*
X398Y374D01*
X422Y374D02*
X441Y374D01*
X479Y374D02*
X498Y374D01*
X222Y373D02*
X241Y373D01*
X279Y373D02*
X298Y373D01*
X322Y373D02*
X341Y373D01*
X379Y373D02*
X398Y373D01*
X422Y373D02*
X441Y373D01*
X479Y373D02*
X498Y373D01*
X222Y372D02*
X242Y372D01*
X279Y372D02*
X298Y372D01*
X322Y372D02*
X341Y372D01*
X379Y372D02*
X398Y372D01*
X422Y372D02*
X441Y372D01*
X479Y372D02*
X498Y372D01*
X222Y371D02*
X242Y371D01*
X278Y371D02*
X298Y371D01*
X322Y371D02*
X342Y371D01*
X378Y371D02*
X398Y371D01*
X422Y371D02*
X442Y371D01*
X478Y371D02*
X498Y371D01*
X223Y370D02*
X243Y370D01*
X278Y370D02*
X298Y370D01*
X322Y370D02*
X343Y370D01*
X378Y370D02*
X398Y370D01*
X422Y370D02*
X443Y370D01*
X477Y370D02*
X498Y370D01*
X223Y369D02*
X243Y369D01*
X277Y369D02*
X297Y369D01*
X323Y369D02*
X343Y369D01*
X377Y369D02*
X397Y369D01*
X423Y369D02*
X443Y369D01*
X477Y369D02*
X497Y369D01*
X223Y368D02*
X244Y368D01*
X276Y368D02*
X297Y368D01*
X323Y368D02*
X344Y368D01*
X376Y368D02*
X397Y368D01*
X423Y368D02*
X444Y368D01*
X476Y368D02*
X497Y368D01*
X223Y367D02*
X245Y367D01*
X275Y367D02*
X297Y367D01*
X323Y367D02*
X345Y367D01*
X375Y367D02*
X397Y367D01*
X423Y367D02*
X445Y367D01*
X475Y367D02*
X497Y367D01*
X224Y366D02*
X246Y366D01*
X274Y366D02*
X296Y366D01*
X324Y366D02*
X346Y366D01*
X374Y366D02*
X396Y366D01*
X424Y366D02*
X446Y366D01*
X474Y366D02*
X496Y366D01*
X224Y365D02*
X247Y365D01*
X273Y365D02*
X296Y365D01*
X324Y365D02*
X347Y365D01*
X373Y365D02*
X396Y365D01*
X424Y365D02*
X447Y365D01*
X473Y365D02*
X496Y365D01*
X225Y364D02*
X248Y364D01*
X272Y364D02*
X296Y364D01*
X325Y364D02*
X348Y364D01*
X372Y364D02*
X396Y364D01*
X424Y364D02*
X448Y364D01*
X472Y364D02*
X495Y364D01*
X225Y363D02*
X249Y363D01*
X271Y363D02*
X295Y363D01*
X325Y363D02*
X349Y363D01*
X371Y363D02*
X395Y363D01*
X425Y363D02*
X449Y363D01*
X471Y363D02*
X495Y363D01*
X226Y362D02*
X251Y362D01*
X269Y362D02*
X295Y362D01*
X325Y362D02*
X351Y362D01*
X369Y362D02*
X395Y362D01*
X425Y362D02*
X451Y362D01*
X469Y362D02*
X495Y362D01*
X226Y361D02*
X254Y361D01*
X267Y361D02*
X294Y361D01*
X326Y361D02*
X354Y361D01*
X367Y361D02*
X394Y361D01*
X426Y361D02*
X454Y361D01*
X466Y361D02*
X494Y361D01*
X227Y360D02*
X294Y360D01*
X327Y360D02*
X394Y360D01*
X426Y360D02*
X494Y360D01*
X227Y359D02*
X293Y359D01*
X327Y359D02*
X393Y359D01*
X427Y359D02*
X493Y359D01*
X228Y358D02*
X292Y358D01*
X328Y358D02*
X392Y358D01*
X428Y358D02*
X492Y358D01*
X228Y357D02*
X292Y357D01*
X328Y357D02*
X392Y357D01*
X428Y357D02*
X492Y357D01*
X229Y356D02*
X291Y356D01*
X329Y356D02*
X391Y356D01*
X429Y356D02*
X491Y356D01*
X230Y355D02*
X290Y355D01*
X330Y355D02*
X390Y355D01*
X430Y355D02*
X490Y355D01*
X231Y354D02*
X290Y354D01*
X331Y354D02*
X390Y354D01*
X431Y354D02*
X489Y354D01*
X232Y353D02*
X289Y353D01*
X331Y353D02*
X389Y353D01*
X431Y353D02*
X489Y353D01*
X232Y352D02*
X288Y352D01*
X332Y352D02*
X388Y352D01*
X432Y352D02*
X488Y352D01*
X233Y351D02*
X287Y351D01*
X333Y351D02*
X387Y351D01*
X433Y351D02*
X487Y351D01*
X235Y350D02*
X286Y350D01*
X335Y350D02*
X386Y350D01*
X434Y350D02*
X485Y350D01*
X236Y349D02*
X284Y349D01*
X336Y349D02*
X384Y349D01*
X436Y349D02*
X484Y349D01*
X237Y348D02*
X283Y348D01*
X337Y348D02*
X383Y348D01*
X437Y348D02*
X483Y348D01*
X239Y347D02*
X282Y347D01*
X339Y347D02*
X382Y347D01*
X438Y347D02*
X482Y347D01*
X240Y346D02*
X280Y346D01*
X340Y346D02*
X380Y346D01*
X440Y346D02*
X480Y346D01*
X242Y345D02*
X278Y345D01*
X342Y345D02*
X378Y345D01*
X442Y345D02*
X478Y345D01*
X244Y344D02*
X276Y344D01*
X344Y344D02*
X376Y344D01*
X444Y344D02*
X476Y344D01*
X246Y343D02*
X274Y343D01*
X346Y343D02*
X374Y343D01*
X446Y343D02*
X474Y343D01*
X249Y342D02*
X271Y342D01*
X349Y342D02*
X371Y342D01*
X449Y342D02*
X471Y342D01*
X253Y341D02*
X267Y341D01*
X353Y341D02*
X367Y341D01*
X453Y341D02*
X467Y341D01*
X477Y101D02*
X550Y101D01*
X477Y100D02*
X550Y100D01*
X477Y99D02*
X550Y99D01*
X477Y98D02*
X550Y98D01*
X477Y97D02*
X550Y97D01*
X477Y96D02*
X550Y96D01*
X477Y95D02*
X550Y95D01*
X477Y94D02*
X550Y94D01*
X477Y93D02*
X550Y93D01*
X477Y92D02*
X550Y92D01*
X477Y91D02*
X550Y91D01*
X477Y90D02*
X550Y90D01*
X477Y89D02*
X550Y89D01*
X477Y88D02*
X550Y88D01*
X477Y87D02*
X550Y87D01*
X477Y86D02*
X550Y86D01*
X477Y85D02*
X550Y85D01*
X477Y84D02*
X507Y84D01*
X519Y84D02*
X550Y84D01*
X477Y83D02*
X505Y83D01*
X522Y83D02*
X550Y83D01*
X477Y82D02*
X503Y82D01*
X524Y82D02*
X550Y82D01*
X477Y81D02*
X501Y81D01*
X525Y81D02*
X550Y81D01*
X477Y80D02*
X500Y80D01*
X527Y80D02*
X550Y80D01*
X477Y79D02*
X499Y79D01*
X528Y79D02*
X550Y79D01*
X477Y78D02*
X498Y78D01*
X529Y78D02*
X550Y78D01*
X477Y77D02*
X497Y77D01*
X530Y77D02*
X550Y77D01*
X477Y76D02*
X496Y76D01*
X530Y76D02*
X550Y76D01*
X477Y75D02*
X496Y75D01*
X531Y75D02*
X550Y75D01*
X477Y74D02*
X495Y74D01*
X531Y74D02*
X550Y74D01*
X477Y73D02*
X495Y73D01*
X532Y73D02*
X550Y73D01*
X477Y72D02*
X494Y72D01*
X532Y72D02*
X550Y72D01*
X477Y71D02*
X494Y71D01*
X533Y71D02*
X550Y71D01*
X477Y70D02*
X494Y70D01*
X533Y70D02*
X550Y70D01*
X477Y69D02*
X493Y69D01*
X533Y69D02*
X550Y69D01*
X477Y68D02*
X493Y68D01*
X533Y68D02*
X550Y68D01*
X477Y67D02*
X493Y67D01*
X534Y67D02*
X550Y67D01*
X477Y66D02*
X493Y66D01*
X534Y66D02*
X550Y66D01*
X477Y65D02*
X493Y65D01*
X534Y65D02*
X550Y65D01*
X477Y64D02*
X493Y64D01*
X534Y64D02*
X550Y64D01*
X477Y63D02*
X493Y63D01*
X534Y63D02*
X550Y63D01*
X477Y62D02*
X493Y62D01*
X533Y62D02*
X550Y62D01*
X477Y61D02*
X493Y61D01*
X533Y61D02*
X550Y61D01*
X477Y60D02*
X493Y60D01*
X533Y60D02*
X550Y60D01*
X477Y59D02*
X494Y59D01*
X533Y59D02*
X550Y59D01*
X477Y58D02*
X494Y58D01*
X532Y58D02*
X550Y58D01*
X477Y57D02*
X494Y57D01*
X532Y57D02*
X550Y57D01*
X477Y56D02*
X495Y56D01*
X532Y56D02*
X550Y56D01*
X477Y55D02*
X495Y55D01*
X531Y55D02*
X550Y55D01*
X477Y54D02*
X496Y54D01*
X531Y54D02*
X550Y54D01*
X477Y53D02*
X497Y53D01*
X530Y53D02*
X550Y53D01*
X477Y52D02*
X498Y52D01*
X529Y52D02*
X550Y52D01*
X477Y51D02*
X498Y51D01*
X528Y51D02*
X550Y51D01*
X477Y50D02*
X499Y50D01*
X527Y50D02*
X550Y50D01*
X477Y49D02*
X501Y49D01*
X526Y49D02*
X550Y49D01*
X477Y48D02*
X502Y48D01*
X524Y48D02*
X550Y48D01*
X477Y47D02*
X504Y47D01*
X523Y47D02*
X550Y47D01*
X477Y46D02*
X506Y46D01*
X520Y46D02*
X550Y46D01*
X477Y45D02*
X511Y45D01*
X515Y45D02*
X550Y45D01*
X477Y44D02*
X550Y44D01*
X477Y43D02*
X550Y43D01*
X477Y42D02*
X550Y42D01*
X477Y41D02*
X550Y41D01*
X477Y40D02*
X550Y40D01*
X477Y39D02*
X550Y39D01*
X477Y38D02*
X550Y38D01*
X477Y37D02*
X550Y37D01*
X477Y36D02*
X550Y36D01*
X477Y35D02*
X550Y35D01*
X477Y34D02*
X550Y34D01*
X477Y33D02*
X550Y33D01*
X477Y32D02*
X550Y32D01*
X477Y31D02*
X550Y31D01*
X477Y30D02*
X550Y30D01*
X477Y29D02*
X550Y29D01*
X477Y28D02*
X550Y28D01*
D02*
G04 End of Copper1*
M02*