<?xml version="1.0" standalone="no"?>
 <!DOCTYPE svg PUBLIC "-//W3C//DTD SVG 1.1//EN" 
 "http://www.w3.org/Graphics/SVG/1.1/DTD/svg11.dtd"> 
<svg xmlns="http://www.w3.org/2000/svg" version="1.1" 
    width="29.7002cm" height="21.0007cm" viewBox="0 0 116930 82680 ">
<title>SVG Picture created as zynthian_controller_single2_smd.svg date 2019/09/05 17:25:34 </title>
  <desc>Picture generated by Eeschema-SVG </desc>
<g style="fill:#000000; fill-opacity:1;stroke:#000000; stroke-opacity:1;
stroke-linecap:round; stroke-linejoin:round; "
 transform="translate(0 0) scale(1 1)">
</g>
<g style="fill:#000000; fill-opacity:0.0; 
stroke:#000000; stroke-width:-10; stroke-opacity:1; 
stroke-linecap:round; stroke-linejoin:round;">
</g>
<g style="fill:#840000; fill-opacity:0.0; 
stroke:#840000; stroke-width:-10; stroke-opacity:1; 
stroke-linecap:round; stroke-linejoin:round;">
</g>
<g style="fill:#840000; fill-opacity:0.0; 
stroke:#840000; stroke-width:100; stroke-opacity:1; 
stroke-linecap:round; stroke-linejoin:round;">
</g>
<g style="fill:#840000; fill-opacity:0.0; 
stroke:#840000; stroke-width:60; stroke-opacity:1; 
stroke-linecap:round; stroke-linejoin:round;">
<rect x="69690" y="65360" width="42520" height="12600" rx="0" />
</g>
<g style="fill:#840000; fill-opacity:0.0; 
stroke:#840000; stroke-width:100; stroke-opacity:1; 
stroke-linecap:round; stroke-linejoin:round;">
</g>
<g style="fill:#840000; fill-opacity:0.0; 
stroke:#840000; stroke-width:60; stroke-opacity:1; 
stroke-linecap:round; stroke-linejoin:round;">
<rect x="3940" y="3940" width="109050" height="74800" rx="0" />
</g>
<g style="fill:#840000; fill-opacity:0.0; 
stroke:#840000; stroke-width:100; stroke-opacity:1; 
stroke-linecap:round; stroke-linejoin:round;">
</g>
<g style="fill:#840000; fill-opacity:0.0; 
stroke:#840000; stroke-width:60; stroke-opacity:1; 
stroke-linecap:round; stroke-linejoin:round;">
<rect x="4720" y="4720" width="107490" height="73240" rx="0" />
</g>
<g style="fill:#840000; fill-opacity:0.0; 
stroke:#840000; stroke-width:100; stroke-opacity:1; 
stroke-linecap:round; stroke-linejoin:round;">
</g>
<g style="fill:#840000; fill-opacity:0.0; 
stroke:#840000; stroke-width:60; stroke-opacity:1; 
stroke-linecap:round; stroke-linejoin:round;">
<path d="M23620 4720
L23620 3940
" />
</g>
<g style="fill:#840000; fill-opacity:0.0; 
stroke:#840000; stroke-width:100; stroke-opacity:1; 
stroke-linecap:round; stroke-linejoin:round;">
</g>
<g style="fill:#840000; fill-opacity:0.0; 
stroke:#840000; stroke-width:60; stroke-opacity:1; 
stroke-linecap:round; stroke-linejoin:round;">
<path d="M43310 4720
L43310 3940
" />
</g>
<g style="fill:#840000; fill-opacity:0.0; 
stroke:#840000; stroke-width:100; stroke-opacity:1; 
stroke-linecap:round; stroke-linejoin:round;">
</g>
<g style="fill:#840000; fill-opacity:0.0; 
stroke:#840000; stroke-width:60; stroke-opacity:1; 
stroke-linecap:round; stroke-linejoin:round;">
<path d="M62990 4720
L62990 3940
" />
</g>
<g style="fill:#840000; fill-opacity:0.0; 
stroke:#840000; stroke-width:100; stroke-opacity:1; 
stroke-linecap:round; stroke-linejoin:round;">
</g>
<g style="fill:#840000; fill-opacity:0.0; 
stroke:#840000; stroke-width:60; stroke-opacity:1; 
stroke-linecap:round; stroke-linejoin:round;">
<path d="M82680 4720
L82680 3940
" />
</g>
<g style="fill:#840000; fill-opacity:0.0; 
stroke:#840000; stroke-width:100; stroke-opacity:1; 
stroke-linecap:round; stroke-linejoin:round;">
</g>
<g style="fill:#840000; fill-opacity:0.0; 
stroke:#840000; stroke-width:60; stroke-opacity:1; 
stroke-linecap:round; stroke-linejoin:round;">
<path d="M102360 4720
L102360 3940
" />
</g>
<g style="fill:#840000; fill-opacity:0.0; 
stroke:#840000; stroke-width:100; stroke-opacity:1; 
stroke-linecap:round; stroke-linejoin:round;">
</g>
<g style="fill:#840000; fill-opacity:0.0; 
stroke:#840000; stroke-width:60; stroke-opacity:1; 
stroke-linecap:round; stroke-linejoin:round;">
<path d="M14190 4560
L13900 4560
" />
<path d="M14050 4560
L14050 4050
L14000 4120
L13950 4170
L13900 4190
" />
</g>
<g style="fill:#840000; fill-opacity:0.0; 
stroke:#840000; stroke-width:100; stroke-opacity:1; 
stroke-linecap:round; stroke-linejoin:round;">
</g>
<g style="fill:#840000; fill-opacity:0.0; 
stroke:#840000; stroke-width:60; stroke-opacity:1; 
stroke-linecap:round; stroke-linejoin:round;">
<path d="M33580 4090
L33610 4070
L33660 4050
L33780 4050
L33830 4070
L33850 4090
L33870 4140
L33870 4190
L33850 4260
L33560 4560
L33870 4560
" />
</g>
<g style="fill:#840000; fill-opacity:0.0; 
stroke:#840000; stroke-width:100; stroke-opacity:1; 
stroke-linecap:round; stroke-linejoin:round;">
</g>
<g style="fill:#840000; fill-opacity:0.0; 
stroke:#840000; stroke-width:60; stroke-opacity:1; 
stroke-linecap:round; stroke-linejoin:round;">
<path d="M53250 4050
L53560 4050
L53390 4240
L53470 4240
L53520 4260
L53540 4290
L53560 4340
L53560 4460
L53540 4510
L53520 4530
L53470 4560
L53320 4560
L53270 4530
L53250 4510
" />
</g>
<g style="fill:#840000; fill-opacity:0.0; 
stroke:#840000; stroke-width:100; stroke-opacity:1; 
stroke-linecap:round; stroke-linejoin:round;">
</g>
<g style="fill:#840000; fill-opacity:0.0; 
stroke:#840000; stroke-width:60; stroke-opacity:1; 
stroke-linecap:round; stroke-linejoin:round;">
<path d="M73200 4220
L73200 4560
" />
<path d="M73070 4020
L72950 4390
L73270 4390
" />
</g>
<g style="fill:#840000; fill-opacity:0.0; 
stroke:#840000; stroke-width:100; stroke-opacity:1; 
stroke-linecap:round; stroke-linejoin:round;">
</g>
<g style="fill:#840000; fill-opacity:0.0; 
stroke:#840000; stroke-width:60; stroke-opacity:1; 
stroke-linecap:round; stroke-linejoin:round;">
<path d="M92910 4050
L92670 4050
L92640 4290
L92670 4260
L92720 4240
L92840 4240
L92890 4260
L92910 4290
L92930 4340
L92930 4460
L92910 4510
L92890 4530
L92840 4560
L92720 4560
L92670 4530
L92640 4510
" />
</g>
<g style="fill:#840000; fill-opacity:0.0; 
stroke:#840000; stroke-width:100; stroke-opacity:1; 
stroke-linecap:round; stroke-linejoin:round;">
</g>
<g style="fill:#840000; fill-opacity:0.0; 
stroke:#840000; stroke-width:60; stroke-opacity:1; 
stroke-linecap:round; stroke-linejoin:round;">
<path d="M112570 4050
L112470 4050
L112420 4070
L112400 4090
L112350 4170
L112320 4260
L112320 4460
L112350 4510
L112370 4530
L112420 4560
L112520 4560
L112570 4530
L112590 4510
L112610 4460
L112610 4340
L112590 4290
L112570 4260
L112520 4240
L112420 4240
L112370 4260
L112350 4290
L112320 4340
" />
</g>
<g style="fill:#840000; fill-opacity:0.0; 
stroke:#840000; stroke-width:100; stroke-opacity:1; 
stroke-linecap:round; stroke-linejoin:round;">
</g>
<g style="fill:#840000; fill-opacity:0.0; 
stroke:#840000; stroke-width:60; stroke-opacity:1; 
stroke-linecap:round; stroke-linejoin:round;">
<path d="M23620 77960
L23620 78740
" />
</g>
<g style="fill:#840000; fill-opacity:0.0; 
stroke:#840000; stroke-width:100; stroke-opacity:1; 
stroke-linecap:round; stroke-linejoin:round;">
</g>
<g style="fill:#840000; fill-opacity:0.0; 
stroke:#840000; stroke-width:60; stroke-opacity:1; 
stroke-linecap:round; stroke-linejoin:round;">
<path d="M43310 77960
L43310 78740
" />
</g>
<g style="fill:#840000; fill-opacity:0.0; 
stroke:#840000; stroke-width:100; stroke-opacity:1; 
stroke-linecap:round; stroke-linejoin:round;">
</g>
<g style="fill:#840000; fill-opacity:0.0; 
stroke:#840000; stroke-width:60; stroke-opacity:1; 
stroke-linecap:round; stroke-linejoin:round;">
<path d="M62990 77960
L62990 78740
" />
</g>
<g style="fill:#840000; fill-opacity:0.0; 
stroke:#840000; stroke-width:100; stroke-opacity:1; 
stroke-linecap:round; stroke-linejoin:round;">
</g>
<g style="fill:#840000; fill-opacity:0.0; 
stroke:#840000; stroke-width:60; stroke-opacity:1; 
stroke-linecap:round; stroke-linejoin:round;">
<path d="M82680 77960
L82680 78740
" />
</g>
<g style="fill:#840000; fill-opacity:0.0; 
stroke:#840000; stroke-width:100; stroke-opacity:1; 
stroke-linecap:round; stroke-linejoin:round;">
</g>
<g style="fill:#840000; fill-opacity:0.0; 
stroke:#840000; stroke-width:60; stroke-opacity:1; 
stroke-linecap:round; stroke-linejoin:round;">
<path d="M102360 77960
L102360 78740
" />
</g>
<g style="fill:#840000; fill-opacity:0.0; 
stroke:#840000; stroke-width:100; stroke-opacity:1; 
stroke-linecap:round; stroke-linejoin:round;">
</g>
<g style="fill:#840000; fill-opacity:0.0; 
stroke:#840000; stroke-width:60; stroke-opacity:1; 
stroke-linecap:round; stroke-linejoin:round;">
<path d="M14190 78580
L13900 78580
" />
<path d="M14050 78580
L14050 78070
L14000 78140
L13950 78190
L13900 78210
" />
</g>
<g style="fill:#840000; fill-opacity:0.0; 
stroke:#840000; stroke-width:100; stroke-opacity:1; 
stroke-linecap:round; stroke-linejoin:round;">
</g>
<g style="fill:#840000; fill-opacity:0.0; 
stroke:#840000; stroke-width:60; stroke-opacity:1; 
stroke-linecap:round; stroke-linejoin:round;">
<path d="M33580 78110
L33610 78090
L33660 78070
L33780 78070
L33830 78090
L33850 78110
L33870 78160
L33870 78210
L33850 78280
L33560 78580
L33870 78580
" />
</g>
<g style="fill:#840000; fill-opacity:0.0; 
stroke:#840000; stroke-width:100; stroke-opacity:1; 
stroke-linecap:round; stroke-linejoin:round;">
</g>
<g style="fill:#840000; fill-opacity:0.0; 
stroke:#840000; stroke-width:60; stroke-opacity:1; 
stroke-linecap:round; stroke-linejoin:round;">
<path d="M53250 78070
L53560 78070
L53390 78260
L53470 78260
L53520 78280
L53540 78310
L53560 78360
L53560 78480
L53540 78530
L53520 78550
L53470 78580
L53320 78580
L53270 78550
L53250 78530
" />
</g>
<g style="fill:#840000; fill-opacity:0.0; 
stroke:#840000; stroke-width:100; stroke-opacity:1; 
stroke-linecap:round; stroke-linejoin:round;">
</g>
<g style="fill:#840000; fill-opacity:0.0; 
stroke:#840000; stroke-width:60; stroke-opacity:1; 
stroke-linecap:round; stroke-linejoin:round;">
<path d="M73200 78240
L73200 78580
" />
<path d="M73070 78040
L72950 78410
L73270 78410
" />
</g>
<g style="fill:#840000; fill-opacity:0.0; 
stroke:#840000; stroke-width:100; stroke-opacity:1; 
stroke-linecap:round; stroke-linejoin:round;">
</g>
<g style="fill:#840000; fill-opacity:0.0; 
stroke:#840000; stroke-width:60; stroke-opacity:1; 
stroke-linecap:round; stroke-linejoin:round;">
<path d="M92910 78070
L92670 78070
L92640 78310
L92670 78280
L92720 78260
L92840 78260
L92890 78280
L92910 78310
L92930 78360
L92930 78480
L92910 78530
L92890 78550
L92840 78580
L92720 78580
L92670 78550
L92640 78530
" />
</g>
<g style="fill:#840000; fill-opacity:0.0; 
stroke:#840000; stroke-width:100; stroke-opacity:1; 
stroke-linecap:round; stroke-linejoin:round;">
</g>
<g style="fill:#840000; fill-opacity:0.0; 
stroke:#840000; stroke-width:60; stroke-opacity:1; 
stroke-linecap:round; stroke-linejoin:round;">
<path d="M112570 78070
L112470 78070
L112420 78090
L112400 78110
L112350 78190
L112320 78280
L112320 78480
L112350 78530
L112370 78550
L112420 78580
L112520 78580
L112570 78550
L112590 78530
L112610 78480
L112610 78360
L112590 78310
L112570 78280
L112520 78260
L112420 78260
L112370 78280
L112350 78310
L112320 78360
" />
</g>
<g style="fill:#840000; fill-opacity:0.0; 
stroke:#840000; stroke-width:100; stroke-opacity:1; 
stroke-linecap:round; stroke-linejoin:round;">
</g>
<g style="fill:#840000; fill-opacity:0.0; 
stroke:#840000; stroke-width:60; stroke-opacity:1; 
stroke-linecap:round; stroke-linejoin:round;">
<path d="M3940 23620
L4720 23620
" />
</g>
<g style="fill:#840000; fill-opacity:0.0; 
stroke:#840000; stroke-width:100; stroke-opacity:1; 
stroke-linecap:round; stroke-linejoin:round;">
</g>
<g style="fill:#840000; fill-opacity:0.0; 
stroke:#840000; stroke-width:60; stroke-opacity:1; 
stroke-linecap:round; stroke-linejoin:round;">
<path d="M3940 43310
L4720 43310
" />
</g>
<g style="fill:#840000; fill-opacity:0.0; 
stroke:#840000; stroke-width:100; stroke-opacity:1; 
stroke-linecap:round; stroke-linejoin:round;">
</g>
<g style="fill:#840000; fill-opacity:0.0; 
stroke:#840000; stroke-width:60; stroke-opacity:1; 
stroke-linecap:round; stroke-linejoin:round;">
<path d="M3940 62990
L4720 62990
" />
</g>
<g style="fill:#840000; fill-opacity:0.0; 
stroke:#840000; stroke-width:100; stroke-opacity:1; 
stroke-linecap:round; stroke-linejoin:round;">
</g>
<g style="fill:#840000; fill-opacity:0.0; 
stroke:#840000; stroke-width:60; stroke-opacity:1; 
stroke-linecap:round; stroke-linejoin:round;">
<path d="M4200 13860
L4450 13860
" />
<path d="M4160 14010
L4330 13500
L4500 14010
" />
</g>
<g style="fill:#840000; fill-opacity:0.0; 
stroke:#840000; stroke-width:100; stroke-opacity:1; 
stroke-linecap:round; stroke-linejoin:round;">
</g>
<g style="fill:#840000; fill-opacity:0.0; 
stroke:#840000; stroke-width:60; stroke-opacity:1; 
stroke-linecap:round; stroke-linejoin:round;">
<path d="M4360 33420
L4430 33440
L4460 33470
L4480 33520
L4480 33590
L4460 33640
L4430 33660
L4390 33690
L4190 33690
L4190 33180
L4360 33180
L4410 33200
L4430 33220
L4460 33270
L4460 33320
L4430 33370
L4410 33390
L4360 33420
L4190 33420
" />
</g>
<g style="fill:#840000; fill-opacity:0.0; 
stroke:#840000; stroke-width:100; stroke-opacity:1; 
stroke-linecap:round; stroke-linejoin:round;">
</g>
<g style="fill:#840000; fill-opacity:0.0; 
stroke:#840000; stroke-width:60; stroke-opacity:1; 
stroke-linecap:round; stroke-linejoin:round;">
<path d="M4480 53330
L4460 53350
L4390 53380
L4340 53380
L4260 53350
L4220 53300
L4190 53250
L4170 53160
L4170 53080
L4190 52990
L4220 52940
L4260 52890
L4340 52870
L4390 52870
L4460 52890
L4480 52910
" />
</g>
<g style="fill:#840000; fill-opacity:0.0; 
stroke:#840000; stroke-width:100; stroke-opacity:1; 
stroke-linecap:round; stroke-linejoin:round;">
</g>
<g style="fill:#840000; fill-opacity:0.0; 
stroke:#840000; stroke-width:60; stroke-opacity:1; 
stroke-linecap:round; stroke-linejoin:round;">
<path d="M4190 73060
L4190 72550
L4310 72550
L4390 72570
L4430 72620
L4460 72670
L4480 72760
L4480 72840
L4460 72930
L4430 72980
L4390 73030
L4310 73060
L4190 73060
" />
</g>
<g style="fill:#840000; fill-opacity:0.0; 
stroke:#840000; stroke-width:100; stroke-opacity:1; 
stroke-linecap:round; stroke-linejoin:round;">
</g>
<g style="fill:#840000; fill-opacity:0.0; 
stroke:#840000; stroke-width:60; stroke-opacity:1; 
stroke-linecap:round; stroke-linejoin:round;">
<path d="M112990 23620
L112210 23620
" />
</g>
<g style="fill:#840000; fill-opacity:0.0; 
stroke:#840000; stroke-width:100; stroke-opacity:1; 
stroke-linecap:round; stroke-linejoin:round;">
</g>
<g style="fill:#840000; fill-opacity:0.0; 
stroke:#840000; stroke-width:60; stroke-opacity:1; 
stroke-linecap:round; stroke-linejoin:round;">
<path d="M112990 43310
L112210 43310
" />
</g>
<g style="fill:#840000; fill-opacity:0.0; 
stroke:#840000; stroke-width:100; stroke-opacity:1; 
stroke-linecap:round; stroke-linejoin:round;">
</g>
<g style="fill:#840000; fill-opacity:0.0; 
stroke:#840000; stroke-width:60; stroke-opacity:1; 
stroke-linecap:round; stroke-linejoin:round;">
<path d="M112990 62990
L112210 62990
" />
</g>
<g style="fill:#840000; fill-opacity:0.0; 
stroke:#840000; stroke-width:100; stroke-opacity:1; 
stroke-linecap:round; stroke-linejoin:round;">
</g>
<g style="fill:#840000; fill-opacity:0.0; 
stroke:#840000; stroke-width:60; stroke-opacity:1; 
stroke-linecap:round; stroke-linejoin:round;">
<path d="M112470 13860
L112720 13860
" />
<path d="M112430 14010
L112600 13500
L112770 14010
" />
</g>
<g style="fill:#840000; fill-opacity:0.0; 
stroke:#840000; stroke-width:100; stroke-opacity:1; 
stroke-linecap:round; stroke-linejoin:round;">
</g>
<g style="fill:#840000; fill-opacity:0.0; 
stroke:#840000; stroke-width:60; stroke-opacity:1; 
stroke-linecap:round; stroke-linejoin:round;">
<path d="M112630 33420
L112700 33440
L112730 33470
L112750 33520
L112750 33590
L112730 33640
L112700 33660
L112660 33690
L112460 33690
L112460 33180
L112630 33180
L112680 33200
L112700 33220
L112730 33270
L112730 33320
L112700 33370
L112680 33390
L112630 33420
L112460 33420
" />
</g>
<g style="fill:#840000; fill-opacity:0.0; 
stroke:#840000; stroke-width:100; stroke-opacity:1; 
stroke-linecap:round; stroke-linejoin:round;">
</g>
<g style="fill:#840000; fill-opacity:0.0; 
stroke:#840000; stroke-width:60; stroke-opacity:1; 
stroke-linecap:round; stroke-linejoin:round;">
<path d="M112750 53330
L112730 53350
L112660 53380
L112610 53380
L112530 53350
L112490 53300
L112460 53250
L112440 53160
L112440 53080
L112460 52990
L112490 52940
L112530 52890
L112610 52870
L112660 52870
L112730 52890
L112750 52910
" />
</g>
<g style="fill:#840000; fill-opacity:0.0; 
stroke:#840000; stroke-width:100; stroke-opacity:1; 
stroke-linecap:round; stroke-linejoin:round;">
</g>
<g style="fill:#840000; fill-opacity:0.0; 
stroke:#840000; stroke-width:60; stroke-opacity:1; 
stroke-linecap:round; stroke-linejoin:round;">
<path d="M112460 73060
L112460 72550
L112580 72550
L112660 72570
L112700 72620
L112730 72670
L112750 72760
L112750 72840
L112730 72930
L112700 72980
L112660 73030
L112580 73060
L112460 73060
" />
</g>
<g style="fill:#840000; fill-opacity:0.0; 
stroke:#840000; stroke-width:100; stroke-opacity:1; 
stroke-linecap:round; stroke-linejoin:round;">
</g>
<g style="fill:#840000; fill-opacity:0.0; 
stroke:#840000; stroke-width:60; stroke-opacity:1; 
stroke-linecap:round; stroke-linejoin:round;">
<path d="M78910 76290
L78910 75700
L79050 75700
L79130 75730
L79190 75790
L79210 75840
L79240 75950
L79240 76040
L79210 76150
L79190 76210
L79130 76260
L79050 76290
L78910 76290
" />
<path d="M79750 76290
L79750 75980
L79720 75930
L79660 75900
L79550 75900
L79500 75930
" />
<path d="M79750 76260
L79690 76290
L79550 76290
L79500 76260
L79470 76210
L79470 76150
L79500 76100
L79550 76070
L79690 76070
L79750 76040
" />
<path d="M79950 75900
L80170 75900
" />
<path d="M80030 75700
L80030 76210
L80060 76260
L80110 76290
L80170 76290
" />
<path d="M80590 76260
L80540 76290
L80420 76290
L80370 76260
L80340 76210
L80340 75980
L80370 75930
L80420 75900
L80540 75900
L80590 75930
L80620 75980
L80620 76040
L80340 76100
" />
<path d="M80870 76240
L80900 76260
L80870 76290
L80840 76260
L80870 76240
L80870 76290
" />
<path d="M80870 75930
L80900 75950
L80870 75980
L80840 75950
L80870 75930
L80870 75980
" />
</g>
<g style="fill:#840000; fill-opacity:0.0; 
stroke:#840000; stroke-width:100; stroke-opacity:1; 
stroke-linecap:round; stroke-linejoin:round;">
</g>
<g style="fill:#840000; fill-opacity:0.0; 
stroke:#840000; stroke-width:60; stroke-opacity:1; 
stroke-linecap:round; stroke-linejoin:round;">
<path d="M69690 76580
L112210 76580
" />
</g>
<g style="fill:#840000; fill-opacity:0.0; 
stroke:#840000; stroke-width:100; stroke-opacity:1; 
stroke-linecap:round; stroke-linejoin:round;">
</g>
<g style="fill:#840000; fill-opacity:0.0; 
stroke:#840000; stroke-width:60; stroke-opacity:1; 
stroke-linecap:round; stroke-linejoin:round;">
<path d="M70250 77390
L70250 76800
" />
<path d="M70580 77390
L70330 77050
" />
<path d="M70580 76800
L70250 77140
" />
<path d="M70840 77390
L70840 77000
" />
<path d="M70840 76800
L70810 76830
L70840 76860
L70860 76830
L70840 76800
L70840 76860
" />
<path d="M71450 77340
L71430 77360
L71340 77390
L71290 77390
L71200 77360
L71140 77310
L71120 77250
L71090 77140
L71090 77050
L71120 76940
L71140 76890
L71200 76830
L71290 76800
L71340 76800
L71430 76830
L71450 76860
" />
<path d="M71960 77390
L71960 77080
L71930 77030
L71880 77000
L71760 77000
L71710 77030
" />
<path d="M71960 77360
L71900 77390
L71760 77390
L71710 77360
L71680 77310
L71680 77250
L71710 77200
L71760 77170
L71900 77170
L71960 77140
" />
<path d="M72490 77390
L72490 76800
" />
<path d="M72490 77360
L72440 77390
L72320 77390
L72270 77360
L72240 77340
L72210 77280
L72210 77110
L72240 77050
L72270 77030
L72320 77000
L72440 77000
L72490 77030
" />
<path d="M73220 77080
L73420 77080
" />
<path d="M73500 77390
L73220 77390
L73220 76800
L73500 76800
" />
<path d="M73760 77340
L73790 77360
L73760 77390
L73730 77360
L73760 77340
L73760 77390
" />
<path d="M74040 77390
L74040 76800
L74180 76800
L74260 76830
L74320 76890
L74350 76940
L74380 77050
L74380 77140
L74350 77250
L74320 77310
L74260 77360
L74180 77390
L74040 77390
" />
<path d="M74630 77340
L74660 77360
L74630 77390
L74600 77360
L74630 77340
L74630 77390
" />
<path d="M74880 77220
L75160 77220
" />
<path d="M74830 77390
L75020 76800
L75220 77390
" />
<path d="M75420 77340
L75440 77360
L75420 77390
L75390 77360
L75420 77340
L75420 77390
" />
<path d="M76600 77390
L76600 76800
" />
<path d="M76650 77170
L76820 77390
" />
<path d="M76820 77000
L76600 77220
" />
<path d="M77070 77390
L77070 77000
" />
<path d="M77070 76800
L77040 76830
L77070 76860
L77100 76830
L77070 76800
L77070 76860
" />
<path d="M77610 77360
L77550 77390
L77440 77390
L77380 77360
L77350 77340
L77330 77280
L77330 77110
L77350 77050
L77380 77030
L77440 77000
L77550 77000
L77610 77030
" />
<path d="M78110 77390
L78110 77080
L78080 77030
L78030 77000
L77920 77000
L77860 77030
" />
<path d="M78110 77360
L78060 77390
L77920 77390
L77860 77360
L77830 77310
L77830 77250
L77860 77200
L77920 77170
L78060 77170
L78110 77140
" />
<path d="M78650 77390
L78650 76800
" />
<path d="M78650 77360
L78590 77390
L78480 77390
L78420 77360
L78390 77340
L78370 77280
L78370 77110
L78390 77050
L78420 77030
L78480 77000
L78590 77000
L78650 77030
" />
<path d="M79660 76800
L79380 76800
L79350 77080
L79380 77050
L79430 77030
L79570 77030
L79630 77050
L79660 77080
L79690 77140
L79690 77280
L79660 77340
L79630 77360
L79570 77390
L79430 77390
L79380 77360
L79350 77340
" />
<path d="M79940 77340
L79970 77360
L79940 77390
L79910 77360
L79940 77340
L79940 77390
" />
<path d="M80330 76800
L80390 76800
L80440 76830
L80470 76860
L80500 76910
L80530 77030
L80530 77170
L80500 77280
L80470 77340
L80440 77360
L80390 77390
L80330 77390
L80280 77360
L80250 77340
L80220 77280
L80190 77170
L80190 77030
L80220 76910
L80250 76860
L80280 76830
L80330 76800
" />
<path d="M80780 77340
L80810 77360
L80780 77390
L80750 77360
L80780 77340
L80780 77390
" />
<path d="M81030 76860
L81060 76830
L81120 76800
L81260 76800
L81320 76830
L81340 76860
L81370 76910
L81370 76970
L81340 77050
L81010 77390
L81370 77390
" />
<path d="M81620 77170
L82070 77170
" />
<path d="M82640 76800
L82350 76800
L82330 77080
L82350 77050
L82410 77030
L82550 77030
L82610 77050
L82640 77080
L82660 77140
L82660 77280
L82640 77340
L82610 77360
L82550 77390
L82410 77390
L82350 77360
L82330 77340
" />
<path d="M82920 77340
L82940 77360
L82920 77390
L82890 77360
L82920 77340
L82920 77390
" />
<path d="M83110 77000
L83340 77000
" />
<path d="M83200 77390
L83200 76890
L83230 76830
L83280 76800
L83340 76800
" />
<path d="M83790 77360
L83730 77390
L83620 77390
L83560 77360
L83530 77340
L83510 77280
L83510 77110
L83530 77050
L83560 77030
L83620 77000
L83730 77000
L83790 77030
" />
<path d="M84010 76860
L84040 76830
L84100 76800
L84240 76800
L84290 76830
L84320 76860
L84350 76910
L84350 76970
L84320 77050
L83980 77390
L84350 77390
" />
<path d="M84630 77390
L84740 77390
L84800 77360
L84830 77340
L84880 77250
L84910 77140
L84910 76910
L84880 76860
L84860 76830
L84800 76800
L84690 76800
L84630 76830
L84600 76860
L84570 76910
L84570 77050
L84600 77110
L84630 77140
L84690 77170
L84800 77170
L84860 77140
L84880 77110
L84910 77050
" />
</g>
<g style="fill:#840000; fill-opacity:0.0; 
stroke:#840000; stroke-width:100; stroke-opacity:1; 
stroke-linecap:round; stroke-linejoin:round;">
</g>
<g style="fill:#840000; fill-opacity:0.0; 
stroke:#840000; stroke-width:60; stroke-opacity:1; 
stroke-linecap:round; stroke-linejoin:round;">
<path d="M69690 75400
L112210 75400
" />
</g>
<g style="fill:#840000; fill-opacity:0.0; 
stroke:#840000; stroke-width:100; stroke-opacity:1; 
stroke-linecap:round; stroke-linejoin:round;">
</g>
<g style="fill:#840000; fill-opacity:0.0; 
stroke:#840000; stroke-width:120; stroke-opacity:1; 
stroke-linecap:round; stroke-linejoin:round;">
<path d="M104090 76290
L103890 76010
" />
<path d="M103750 76290
L103750 75700
L103980 75700
L104030 75730
L104060 75760
L104090 75810
L104090 75900
L104060 75950
L104030 75980
L103980 76010
L103750 76010
" />
<path d="M104570 76260
L104510 76290
L104400 76290
L104340 76260
L104320 76210
L104320 75980
L104340 75930
L104400 75900
L104510 75900
L104570 75930
L104600 75980
L104600 76040
L104320 76100
" />
<path d="M104790 75900
L104930 76290
L105070 75900
" />
<path d="M105300 76240
L105330 76260
L105300 76290
L105270 76260
L105300 76240
L105300 76290
" />
<path d="M105300 75930
L105330 75950
L105300 75980
L105270 75950
L105300 75930
L105300 75980
" />
</g>
<g style="fill:#840000; fill-opacity:0.0; 
stroke:#840000; stroke-width:100; stroke-opacity:1; 
stroke-linecap:round; stroke-linejoin:round;">
</g>
<g style="fill:#840000; fill-opacity:0.0; 
stroke:#840000; stroke-width:60; stroke-opacity:1; 
stroke-linecap:round; stroke-linejoin:round;">
<path d="M70220 76260
L70300 76290
L70440 76290
L70500 76260
L70530 76240
L70550 76180
L70550 76120
L70530 76070
L70500 76040
L70440 76010
L70330 75980
L70270 75950
L70250 75930
L70220 75870
L70220 75810
L70250 75760
L70270 75730
L70330 75700
L70470 75700
L70550 75730
" />
<path d="M70810 76290
L70810 75900
" />
<path d="M70810 75700
L70780 75730
L70810 75760
L70840 75730
L70810 75700
L70810 75760
" />
<path d="M71030 75900
L71340 75900
L71030 76290
L71340 76290
" />
<path d="M71790 76260
L71730 76290
L71620 76290
L71570 76260
L71540 76210
L71540 75980
L71570 75930
L71620 75900
L71730 75900
L71790 75930
L71820 75980
L71820 76040
L71540 76100
" />
<path d="M72070 76240
L72100 76260
L72070 76290
L72040 76260
L72070 76240
L72070 76290
" />
<path d="M72070 75930
L72100 75950
L72070 75980
L72040 75950
L72070 75930
L72070 75980
" />
<path d="M72770 76120
L73060 76120
" />
<path d="M72720 76290
L72910 75700
L73110 76290
" />
<path d="M73560 75900
L73560 76290
" />
<path d="M73420 75670
L73280 76100
L73650 76100
" />
</g>
<g style="fill:#840000; fill-opacity:0.0; 
stroke:#840000; stroke-width:100; stroke-opacity:1; 
stroke-linecap:round; stroke-linejoin:round;">
</g>
<g style="fill:#840000; fill-opacity:0.0; 
stroke:#840000; stroke-width:60; stroke-opacity:1; 
stroke-linecap:round; stroke-linejoin:round;">
<path d="M103710 77390
L103710 76800
" />
<path d="M104240 77390
L104240 76800
" />
<path d="M104240 77360
L104180 77390
L104070 77390
L104010 77360
L103990 77340
L103960 77280
L103960 77110
L103990 77050
L104010 77030
L104070 77000
L104180 77000
L104240 77030
" />
<path d="M104520 77340
L104550 77360
L104520 77390
L104490 77360
L104520 77340
L104520 77390
" />
<path d="M104520 77030
L104550 77050
L104520 77080
L104490 77050
L104520 77030
L104520 77080
" />
<path d="M105560 77390
L105220 77390
" />
<path d="M105390 77390
L105390 76800
L105340 76890
L105280 76940
L105220 76970
" />
<path d="M106230 76770
L105730 77530
" />
<path d="M106740 77390
L106400 77390
" />
<path d="M106570 77390
L106570 76800
L106520 76890
L106460 76940
L106400 76970
" />
</g>
<g style="fill:#840000; fill-opacity:0.0; 
stroke:#840000; stroke-width:100; stroke-opacity:1; 
stroke-linecap:round; stroke-linejoin:round;">
</g>
<g style="fill:#840000; fill-opacity:0.0; 
stroke:#840000; stroke-width:60; stroke-opacity:1; 
stroke-linecap:round; stroke-linejoin:round;">
<path d="M69690 73820
L112210 73820
" />
</g>
<g style="fill:#840000; fill-opacity:0.0; 
stroke:#840000; stroke-width:100; stroke-opacity:1; 
stroke-linecap:round; stroke-linejoin:round;">
</g>
<g style="fill:#840000; fill-opacity:0.0; 
stroke:#840000; stroke-width:160; stroke-opacity:1; 
stroke-linecap:round; stroke-linejoin:round;">
<path d="M70360 74090
L70810 74090
" />
<path d="M70480 74880
L70580 74090
" />
<path d="M70970 74880
L71040 74360
" />
<path d="M71070 74090
L71030 74130
L71060 74170
L71110 74130
L71070 74090
L71060 74170
" />
<path d="M71300 74360
L71600 74360
" />
<path d="M71450 74090
L71360 74770
L71390 74840
L71460 74880
L71540 74880
" />
<path d="M71910 74880
L71840 74840
L71820 74770
L71900 74090
" />
<path d="M72520 74840
L72440 74880
L72290 74880
L72220 74840
L72190 74770
L72230 74470
L72280 74390
L72360 74360
L72510 74360
L72580 74390
L72610 74470
L72600 74540
L72210 74620
" />
<path d="M72900 74810
L72930 74840
L72890 74880
L72860 74840
L72900 74810
L72890 74880
" />
<path d="M72950 74390
L72990 74430
L72940 74470
L72910 74430
L72950 74390
L72940 74470
" />
</g>
<g style="fill:#840000; fill-opacity:0.0; 
stroke:#840000; stroke-width:100; stroke-opacity:1; 
stroke-linecap:round; stroke-linejoin:round;">
</g>
<g style="fill:#840000; fill-opacity:0.0; 
stroke:#840000; stroke-width:60; stroke-opacity:1; 
stroke-linecap:round; stroke-linejoin:round;">
<path d="M70440 73060
L70250 73060
" />
<path d="M70250 73370
L70250 72780
L70530 72780
" />
<path d="M70750 73370
L70750 72980
" />
<path d="M70750 72780
L70720 72810
L70750 72840
L70780 72810
L70750 72780
L70750 72840
" />
<path d="M71120 73370
L71060 73340
L71030 73290
L71030 72780
" />
<path d="M71570 73340
L71510 73370
L71400 73370
L71340 73340
L71310 73290
L71310 73060
L71340 73010
L71400 72980
L71510 72980
L71570 73010
L71590 73060
L71590 73120
L71310 73180
" />
<path d="M71850 73320
L71880 73340
L71850 73370
L71820 73340
L71850 73320
L71850 73370
" />
<path d="M71850 73010
L71880 73030
L71850 73060
L71820 73030
L71850 73010
L71850 73060
" />
<path d="M72520 72980
L72830 72980
L72520 73370
L72830 73370
" />
<path d="M73000 72980
L73140 73370
" />
<path d="M73280 72980
L73140 73370
L73080 73510
L73060 73540
L73000 73570
" />
<path d="M73500 72980
L73500 73370
" />
<path d="M73500 73030
L73530 73010
L73590 72980
L73670 72980
L73730 73010
L73760 73060
L73760 73370
" />
<path d="M73950 72980
L74180 72980
" />
<path d="M74040 72780
L74040 73290
L74070 73340
L74120 73370
L74180 73370
" />
<path d="M74380 73370
L74380 72780
" />
<path d="M74630 73370
L74630 73060
L74600 73010
L74540 72980
L74460 72980
L74400 73010
L74380 73030
" />
<path d="M74910 73370
L74910 72980
" />
<path d="M74910 72780
L74880 72810
L74910 72840
L74940 72810
L74910 72780
L74910 72840
" />
<path d="M75440 73370
L75440 73060
L75420 73010
L75360 72980
L75250 72980
L75190 73010
" />
<path d="M75440 73340
L75390 73370
L75250 73370
L75190 73340
L75160 73290
L75160 73230
L75190 73180
L75250 73150
L75390 73150
L75440 73120
" />
<path d="M75720 72980
L75720 73370
" />
<path d="M75720 73030
L75750 73010
L75810 72980
L75890 72980
L75950 73010
L75980 73060
L75980 73370
" />
<path d="M76120 73430
L76570 73430
" />
<path d="M76960 73340
L76900 73370
L76790 73370
L76740 73340
L76710 73320
L76680 73260
L76680 73090
L76710 73030
L76740 73010
L76790 72980
L76900 72980
L76960 73010
" />
<path d="M77300 73370
L77240 73340
L77210 73320
L77190 73260
L77190 73090
L77210 73030
L77240 73010
L77300 72980
L77380 72980
L77440 73010
L77470 73030
L77490 73090
L77490 73260
L77470 73320
L77440 73340
L77380 73370
L77300 73370
" />
<path d="M77750 72980
L77750 73370
" />
<path d="M77750 73030
L77780 73010
L77830 72980
L77920 72980
L77970 73010
L78000 73060
L78000 73370
" />
<path d="M78200 72980
L78420 72980
" />
<path d="M78280 72780
L78280 73290
L78310 73340
L78370 73370
L78420 73370
" />
<path d="M78620 73370
L78620 72980
" />
<path d="M78620 73090
L78650 73030
L78670 73010
L78730 72980
L78790 72980
" />
<path d="M79070 73370
L79010 73340
L78980 73320
L78960 73260
L78960 73090
L78980 73030
L79010 73010
L79070 72980
L79150 72980
L79210 73010
L79240 73030
L79260 73090
L79260 73260
L79240 73320
L79210 73340
L79150 73370
L79070 73370
" />
<path d="M79600 73370
L79550 73340
L79520 73290
L79520 72780
" />
<path d="M79910 73370
L79850 73340
L79830 73290
L79830 72780
" />
<path d="M80360 73340
L80300 73370
L80190 73370
L80140 73340
L80110 73290
L80110 73060
L80140 73010
L80190 72980
L80300 72980
L80360 73010
L80390 73060
L80390 73120
L80110 73180
" />
<path d="M80640 73370
L80640 72980
" />
<path d="M80640 73090
L80670 73030
L80700 73010
L80750 72980
L80810 72980
" />
<path d="M80870 73430
L81320 73430
" />
<path d="M81430 73340
L81480 73370
L81600 73370
L81650 73340
L81680 73290
L81680 73260
L81650 73200
L81600 73180
L81510 73180
L81460 73150
L81430 73090
L81430 73060
L81460 73010
L81510 72980
L81600 72980
L81650 73010
" />
<path d="M81930 73370
L81930 72980
" />
<path d="M81930 72780
L81910 72810
L81930 72840
L81960 72810
L81930 72780
L81930 72840
" />
<path d="M82210 72980
L82210 73370
" />
<path d="M82210 73030
L82240 73010
L82300 72980
L82380 72980
L82440 73010
L82470 73060
L82470 73370
" />
<path d="M83000 72980
L83000 73460
L82970 73510
L82940 73540
L82890 73570
L82800 73570
L82750 73540
" />
<path d="M83000 73340
L82940 73370
L82830 73370
L82780 73340
L82750 73320
L82720 73260
L82720 73090
L82750 73030
L82780 73010
L82830 72980
L82940 72980
L83000 73010
" />
<path d="M83370 73370
L83310 73340
L83280 73290
L83280 72780
" />
<path d="M83820 73340
L83760 73370
L83650 73370
L83590 73340
L83560 73290
L83560 73060
L83590 73010
L83650 72980
L83760 72980
L83820 73010
L83840 73060
L83840 73120
L83560 73180
" />
<path d="M84070 72840
L84100 72810
L84150 72780
L84290 72780
L84350 72810
L84380 72840
L84410 72890
L84410 72950
L84380 73030
L84040 73370
L84410 73370
" />
<path d="M84520 73430
L84970 73430
" />
<path d="M85080 73340
L85140 73370
L85250 73370
L85300 73340
L85330 73290
L85330 73260
L85300 73200
L85250 73180
L85160 73180
L85110 73150
L85080 73090
L85080 73060
L85110 73010
L85160 72980
L85250 72980
L85300 73010
" />
<path d="M85590 73370
L85590 72980
" />
<path d="M85590 73030
L85610 73010
L85670 72980
L85750 72980
L85810 73010
L85840 73060
L85840 73370
" />
<path d="M85840 73060
L85870 73010
L85920 72980
L86010 72980
L86060 73010
L86090 73060
L86090 73370
" />
<path d="M86630 73370
L86630 72780
" />
<path d="M86630 73340
L86570 73370
L86460 73370
L86400 73340
L86370 73320
L86340 73260
L86340 73090
L86370 73030
L86400 73010
L86460 72980
L86570 72980
L86630 73010
" />
<path d="M86910 73320
L86930 73340
L86910 73370
L86880 73340
L86910 73320
L86910 73370
" />
<path d="M87160 73340
L87220 73370
L87330 73370
L87380 73340
L87410 73290
L87410 73260
L87380 73200
L87330 73180
L87240 73180
L87190 73150
L87160 73090
L87160 73060
L87190 73010
L87240 72980
L87330 72980
L87380 73010
" />
<path d="M87920 73340
L87860 73370
L87750 73370
L87690 73340
L87660 73320
L87640 73260
L87640 73090
L87660 73030
L87690 73010
L87750 72980
L87860 72980
L87920 73010
" />
<path d="M88170 73370
L88170 72780
" />
<path d="M88420 73370
L88420 73060
L88400 73010
L88340 72980
L88250 72980
L88200 73010
L88170 73030
" />
</g>
<g style="fill:#840000; fill-opacity:0.0; 
stroke:#840000; stroke-width:100; stroke-opacity:1; 
stroke-linecap:round; stroke-linejoin:round;">
</g>
<g style="fill:#840000; fill-opacity:0.0; 
stroke:#840000; stroke-width:60; stroke-opacity:1; 
stroke-linecap:round; stroke-linejoin:round;">
<path d="M69690 71460
L112210 71460
" />
</g>
<g style="fill:#840000; fill-opacity:0.0; 
stroke:#840000; stroke-width:100; stroke-opacity:1; 
stroke-linecap:round; stroke-linejoin:round;">
</g>
<g style="fill:#840000; fill-opacity:0.0; 
stroke:#840000; stroke-width:60; stroke-opacity:1; 
stroke-linecap:round; stroke-linejoin:round;">
<path d="M70220 72280
L70300 72310
L70440 72310
L70500 72280
L70530 72260
L70550 72200
L70550 72140
L70530 72090
L70500 72060
L70440 72030
L70330 72000
L70270 71970
L70250 71950
L70220 71890
L70220 71830
L70250 71780
L70270 71750
L70330 71720
L70470 71720
L70550 71750
" />
<path d="M70810 72310
L70810 71720
" />
<path d="M71060 72310
L71060 72000
L71030 71950
L70980 71920
L70890 71920
L70840 71950
L70810 71970
" />
<path d="M71570 72280
L71510 72310
L71400 72310
L71340 72280
L71310 72230
L71310 72000
L71340 71950
L71400 71920
L71510 71920
L71570 71950
L71590 72000
L71590 72060
L71310 72120
" />
<path d="M72070 72280
L72020 72310
L71900 72310
L71850 72280
L71820 72230
L71820 72000
L71850 71950
L71900 71920
L72020 71920
L72070 71950
L72100 72000
L72100 72060
L71820 72120
" />
<path d="M72270 71920
L72490 71920
" />
<path d="M72350 71720
L72350 72230
L72380 72280
L72440 72310
L72490 72310
" />
<path d="M72690 72260
L72720 72280
L72690 72310
L72660 72280
L72690 72260
L72690 72310
" />
<path d="M72690 71950
L72720 71970
L72690 72000
L72660 71970
L72690 71950
L72690 72000
" />
<path d="M73840 71690
L73340 72450
" />
</g>
<g style="fill:#840000; fill-opacity:0.0; 
stroke:#840000; stroke-width:100; stroke-opacity:1; 
stroke-linecap:round; stroke-linejoin:round;">
</g>
<g style="fill:#840000; fill-opacity:0.0; 
stroke:#840000; stroke-width:60; stroke-opacity:1; 
stroke-linecap:round; stroke-linejoin:round;">
<path d="M77560 75400
L77560 76580
" />
</g>
<g style="fill:#840000; fill-opacity:0.0; 
stroke:#840000; stroke-width:100; stroke-opacity:1; 
stroke-linecap:round; stroke-linejoin:round;">
</g>
<g style="fill:#840000; fill-opacity:0.0; 
stroke:#840000; stroke-width:60; stroke-opacity:1; 
stroke-linecap:round; stroke-linejoin:round;">
<path d="M102760 75400
L102760 77960
" />
</g>
<g style="fill:#840000; fill-opacity:0.0; 
stroke:#840000; stroke-width:0; stroke-opacity:1; 
stroke-linecap:round; stroke-linejoin:round;">
</g>
<g style="fill:#FFFFC2; fill-opacity:0.0; 
stroke:#FFFFC2; stroke-width:0; stroke-opacity:1; 
stroke-linecap:round; stroke-linejoin:round;">
</g>
<g style="fill:#FFFFC2; fill-opacity:0.6; 
stroke:#FFFFC2; stroke-width:0; stroke-opacity:1; 
stroke-linecap:round; stroke-linejoin:round;">
<rect x="44000" y="19000" width="4000" height="4000" rx="0" />
</g>
<g style="fill:#840000; fill-opacity:0.6; 
stroke:#840000; stroke-width:0; stroke-opacity:1; 
stroke-linecap:round; stroke-linejoin:round;">
</g>
<g style="fill:#840000; fill-opacity:0.0; 
stroke:#840000; stroke-width:100; stroke-opacity:1; 
stroke-linecap:round; stroke-linejoin:round;">
<rect x="44000" y="19000" width="4000" height="4000" rx="0" />
<path d="M46002.1 22200 A1200 1200 0.0 0 0 46002.1 19800 " />
<circle cx="46000" cy="21000" r="750" /> 
<circle cx="47600" cy="20600" r="50" /> 
<polyline fill="none;"
points="45900,21700
45900,20300
" /> 
<polyline fill="none;"
points="46000,22200
46200,22400
" /> 
<polyline fill="none;"
points="46000,22200
46200,22000
" /> 
<polyline fill="none;"
points="46000,21700
46000,20300
" /> 
<polyline fill="none;"
points="46000,19800
46200,20000
" /> 
<polyline fill="none;"
points="46100,20300
46100,21700
" /> 
<polyline fill="none;"
points="46200,19600
46000,19800
" /> 
<polyline fill="none;"
points="47600,20600
47800,21350
" /> 
<polyline fill="none;"
points="48000,22000
47600,22000
47600,21400
" /> 
<polyline fill="none;"
points="48000,20000
47600,20000
47600,20600
" /> 
</g>
<g style="fill:#840000; fill-opacity:0.0; 
stroke:#840000; stroke-width:60; stroke-opacity:1; 
stroke-linecap:round; stroke-linejoin:round;">
<path d="M44000 20000
L43000 20000
" />
</g>
<g style="fill:#008484; fill-opacity:0.0; 
stroke:#008484; stroke-width:60; stroke-opacity:1; 
stroke-linecap:round; stroke-linejoin:round;">
<path d="M44520 20080
L44760 20080
" />
<path d="M44470 20220
L44640 19720
L44810 20220
" />
</g>
<g style="fill:#840000; fill-opacity:0.0; 
stroke:#840000; stroke-width:60; stroke-opacity:1; 
stroke-linecap:round; stroke-linejoin:round;">
<path d="M43640 19870
L43350 19870
" />
<path d="M43500 19870
L43500 19370
L43450 19440
L43400 19490
L43350 19510
" />
<path d="M44000 21000
L43000 21000
" />
</g>
<g style="fill:#008484; fill-opacity:0.0; 
stroke:#008484; stroke-width:60; stroke-opacity:1; 
stroke-linecap:round; stroke-linejoin:round;">
<path d="M44830 21170
L44810 21200
L44730 21220
L44690 21220
L44620 21200
L44570 21150
L44540 21100
L44520 21010
L44520 20940
L44540 20840
L44570 20790
L44620 20750
L44690 20720
L44730 20720
L44810 20750
L44830 20770
" />
</g>
<g style="fill:#840000; fill-opacity:0.0; 
stroke:#840000; stroke-width:60; stroke-opacity:1; 
stroke-linecap:round; stroke-linejoin:round;">
<path d="M43350 20420
L43380 20400
L43420 20370
L43540 20370
L43590 20400
L43610 20420
L43640 20470
L43640 20510
L43610 20590
L43330 20870
L43640 20870
" />
<path d="M44000 22000
L43000 22000
" />
</g>
<g style="fill:#008484; fill-opacity:0.0; 
stroke:#008484; stroke-width:60; stroke-opacity:1; 
stroke-linecap:round; stroke-linejoin:round;">
<path d="M44710 21960
L44780 21980
L44810 22010
L44830 22050
L44830 22130
L44810 22170
L44780 22200
L44730 22220
L44540 22220
L44540 21720
L44710 21720
L44760 21750
L44780 21770
L44810 21820
L44810 21860
L44780 21910
L44760 21940
L44710 21960
L44540 21960
" />
</g>
<g style="fill:#840000; fill-opacity:0.0; 
stroke:#840000; stroke-width:60; stroke-opacity:1; 
stroke-linecap:round; stroke-linejoin:round;">
<path d="M43330 21370
L43640 21370
L43470 21560
L43540 21560
L43590 21590
L43610 21610
L43640 21660
L43640 21780
L43610 21820
L43590 21850
L43540 21870
L43400 21870
L43350 21850
L43330 21820
" />
<path d="M48000 20000
L49000 20000
" />
<path d="M48590 19540
L48590 19870
" />
<path d="M48470 19350
L48350 19700
L48660 19700
" />
<path d="M48000 22000
L49000 22000
" />
<path d="M48610 21370
L48380 21370
L48350 21610
L48380 21590
L48420 21560
L48540 21560
L48590 21590
L48610 21610
L48640 21660
L48640 21780
L48610 21820
L48590 21850
L48540 21870
L48420 21870
L48380 21850
L48350 21820
" />
</g>
<g style="fill:#008484; fill-opacity:0.0; 
stroke:#008484; stroke-width:60; stroke-opacity:1; 
stroke-linecap:round; stroke-linejoin:round;">
<path d="M45330 18620
L45400 18640
L45520 18640
L45570 18620
L45590 18590
L45610 18550
L45610 18500
L45590 18450
L45570 18430
L45520 18400
L45420 18380
L45380 18360
L45350 18330
L45330 18280
L45330 18240
L45350 18190
L45380 18170
L45420 18140
L45540 18140
L45610 18170
" />
<path d="M45780 18140
L45900 18640
L46000 18280
L46090 18640
L46210 18140
" />
<path d="M46660 18640
L46380 18640
" />
<path d="M46520 18640
L46520 18140
L46470 18210
L46420 18260
L46380 18280
" />
<path d="M44640 24240
L44470 24000
" />
<path d="M44350 24240
L44350 23740
L44540 23740
L44590 23770
L44610 23790
L44640 23840
L44640 23910
L44610 23960
L44590 23980
L44540 24000
L44350 24000
" />
<path d="M44920 24240
L44880 24220
L44850 24190
L44830 24150
L44830 24000
L44850 23960
L44880 23930
L44920 23910
L45000 23910
L45040 23930
L45070 23960
L45090 24000
L45090 24150
L45070 24190
L45040 24220
L45000 24240
L44920 24240
" />
<path d="M45230 23910
L45420 23910
" />
<path d="M45300 23740
L45300 24170
L45330 24220
L45380 24240
L45420 24240
" />
<path d="M45800 24240
L45800 23980
L45780 23930
L45730 23910
L45640 23910
L45590 23930
" />
<path d="M45800 24220
L45760 24240
L45640 24240
L45590 24220
L45570 24170
L45570 24120
L45590 24070
L45640 24050
L45760 24050
L45800 24030
" />
<path d="M46040 24240
L46040 23910
" />
<path d="M46040 24000
L46070 23960
L46090 23930
L46140 23910
L46190 23910
" />
<path d="M46300 23910
L46420 24240
" />
<path d="M46540 23910
L46420 24240
L46380 24360
L46350 24380
L46300 24410
" />
<path d="M46610 24290
L47000 24290
" />
<path d="M47110 23980
L47280 23980
" />
<path d="M47350 24240
L47110 24240
L47110 23740
L47350 23740
" />
<path d="M47570 23910
L47570 24240
" />
<path d="M47570 23960
L47590 23930
L47640 23910
L47710 23910
L47760 23930
L47780 23980
L47780 24240
" />
<path d="M48230 24220
L48190 24240
L48090 24240
L48040 24220
L48020 24190
L48000 24150
L48000 24000
L48020 23960
L48040 23930
L48090 23910
L48190 23910
L48230 23930
" />
<path d="M48520 24240
L48470 24220
L48450 24190
L48420 24150
L48420 24000
L48450 23960
L48470 23930
L48520 23910
L48590 23910
L48640 23930
L48660 23960
L48690 24000
L48690 24150
L48660 24190
L48640 24220
L48590 24240
L48520 24240
" />
<path d="M49110 24240
L49110 23740
" />
<path d="M49110 24220
L49070 24240
L48970 24240
L48920 24220
L48900 24190
L48880 24150
L48880 24000
L48900 23960
L48920 23930
L48970 23910
L49070 23910
L49110 23930
" />
<path d="M49540 24220
L49500 24240
L49400 24240
L49350 24220
L49330 24170
L49330 23980
L49350 23930
L49400 23910
L49500 23910
L49540 23930
L49570 23980
L49570 24030
L49330 24070
" />
<path d="M49780 24240
L49780 23910
" />
<path d="M49780 24000
L49800 23960
L49830 23930
L49880 23910
L49920 23910
" />
<path d="M49970 24290
L50350 24290
" />
<path d="M50450 24220
L50520 24240
L50640 24240
L50690 24220
L50710 24190
L50730 24150
L50730 24100
L50710 24050
L50690 24030
L50640 24000
L50540 23980
L50500 23960
L50470 23930
L50450 23880
L50450 23840
L50470 23790
L50500 23770
L50540 23740
L50660 23740
L50730 23770
" />
<path d="M50900 23910
L51000 24240
L51090 24000
L51190 24240
L51280 23910
" />
<path d="M51470 24240
L51470 23910
" />
<path d="M51470 23740
L51450 23770
L51470 23790
L51500 23770
L51470 23740
L51470 23790
" />
<path d="M51640 23910
L51830 23910
" />
<path d="M51710 23740
L51710 24170
L51730 24220
L51780 24240
L51830 24240
" />
<path d="M52210 24220
L52160 24240
L52070 24240
L52020 24220
L52000 24190
L51970 24150
L51970 24000
L52000 23960
L52020 23930
L52070 23910
L52160 23910
L52210 23930
" />
<path d="M52420 24240
L52420 23740
" />
<path d="M52640 24240
L52640 23980
L52610 23930
L52570 23910
L52500 23910
L52450 23930
L52420 23960
" />
</g>
<g style="fill:#008484; fill-opacity:0.0; 
stroke:#008484; stroke-width:0; stroke-opacity:1; 
stroke-linecap:round; stroke-linejoin:round;">
</g>
<g style="fill:#840000; fill-opacity:0.0; 
stroke:#840000; stroke-width:0; stroke-opacity:1; 
stroke-linecap:round; stroke-linejoin:round;">
</g>
<g style="fill:#840000; fill-opacity:0.0; 
stroke:#840000; stroke-width:130; stroke-opacity:1; 
stroke-linecap:round; stroke-linejoin:round;">
<polyline fill="none;"
points="53900,32200
55100,32200
" /> 
</g>
<g style="fill:#840000; fill-opacity:0.0; 
stroke:#840000; stroke-width:120; stroke-opacity:1; 
stroke-linecap:round; stroke-linejoin:round;">
<polyline fill="none;"
points="53900,31800
55100,31800
" /> 
</g>
<g style="fill:#840000; fill-opacity:0.0; 
stroke:#840000; stroke-width:60; stroke-opacity:1; 
stroke-linecap:round; stroke-linejoin:round;">
<path d="M54500 31800
L54500 31000
" />
<path d="M54500 32200
L54500 33000
" />
</g>
<g style="fill:#008484; fill-opacity:0.0; 
stroke:#008484; stroke-width:60; stroke-opacity:1; 
stroke-linecap:round; stroke-linejoin:round;">
<path d="M55030 31490
L55010 31520
L54940 31540
L54890 31540
L54820 31520
L54770 31470
L54750 31420
L54720 31330
L54720 31260
L54750 31160
L54770 31110
L54820 31070
L54890 31040
L54940 31040
L55010 31070
L55030 31090
" />
<path d="M55220 31090
L55250 31070
L55290 31040
L55410 31040
L55460 31070
L55480 31090
L55510 31140
L55510 31180
L55480 31260
L55200 31540
L55510 31540
" />
<path d="M55000 33040
L54710 33040
" />
<path d="M54860 33040
L54860 32540
L54810 32610
L54760 32660
L54710 32680
" />
<path d="M55310 32540
L55360 32540
L55400 32570
L55430 32590
L55450 32640
L55480 32730
L55480 32850
L55450 32950
L55430 32990
L55400 33020
L55360 33040
L55310 33040
L55260 33020
L55240 32990
L55210 32950
L55190 32850
L55190 32730
L55210 32640
L55240 32590
L55260 32570
L55310 32540
" />
<path d="M55690 32710
L55690 33040
" />
<path d="M55690 32760
L55710 32730
L55760 32710
L55830 32710
L55880 32730
L55900 32780
L55900 33040
" />
<path d="M56310 32780
L56140 32780
" />
<path d="M56140 33040
L56140 32540
L56380 32540
" />
</g>
<g style="fill:#008484; fill-opacity:0.0; 
stroke:#008484; stroke-width:0; stroke-opacity:1; 
stroke-linecap:round; stroke-linejoin:round;">
</g>
<g style="fill:#840000; fill-opacity:0.0; 
stroke:#840000; stroke-width:0; stroke-opacity:1; 
stroke-linecap:round; stroke-linejoin:round;">
</g>
<g style="fill:#840000; fill-opacity:0.0; 
stroke:#840000; stroke-width:60; stroke-opacity:1; 
stroke-linecap:round; stroke-linejoin:round;">
<rect x="60500" y="29950" width="600" height="100" rx="0" />
<rect x="60500" y="28950" width="600" height="100" rx="0" />
<rect x="60500" y="27950" width="600" height="100" rx="0" />
<rect x="60500" y="26950" width="600" height="100" rx="0" />
<rect x="60500" y="26500" width="1000" height="4000" rx="0" />
<path d="M60500 27000
L59000 27000
" />
<path d="M59890 26870
L59600 26870
" />
<path d="M59750 26870
L59750 26370
L59700 26440
L59650 26490
L59600 26510
" />
<path d="M60500 28000
L59000 28000
" />
<path d="M59600 27420
L59630 27400
L59670 27370
L59790 27370
L59840 27400
L59860 27420
L59890 27470
L59890 27510
L59860 27590
L59580 27870
L59890 27870
" />
<path d="M60500 29000
L59000 29000
" />
<path d="M59580 28370
L59890 28370
L59720 28560
L59790 28560
L59840 28590
L59860 28610
L59890 28660
L59890 28780
L59860 28820
L59840 28850
L59790 28870
L59650 28870
L59600 28850
L59580 28820
" />
<path d="M60500 30000
L59000 30000
" />
<path d="M59840 29540
L59840 29870
" />
<path d="M59720 29350
L59600 29700
L59910 29700
" />
</g>
<g style="fill:#008484; fill-opacity:0.0; 
stroke:#008484; stroke-width:60; stroke-opacity:1; 
stroke-linecap:round; stroke-linejoin:round;">
<path d="M60830 25740
L60830 26100
L60800 26170
L60760 26220
L60690 26240
L60640 26240
" />
<path d="M61330 26240
L61040 26240
" />
<path d="M61190 26240
L61190 25740
L61140 25810
L61090 25860
L61040 25880
" />
<path d="M62190 30500
L62220 30520
L62240 30590
L62240 30640
L62220 30710
L62170 30760
L62120 30780
L62030 30810
L61960 30810
L61860 30780
L61810 30760
L61770 30710
L61740 30640
L61740 30590
L61770 30520
L61790 30500
" />
<path d="M61740 30190
L61740 30090
L61770 30040
L61810 30000
L61910 29970
L62070 29970
L62170 30000
L62220 30040
L62240 30090
L62240 30190
L62220 30240
L62170 30280
L62070 30310
L61910 30310
L61810 30280
L61770 30240
L61740 30190
" />
<path d="M62240 29760
L61740 29760
L62240 29470
L61740 29470
" />
<path d="M62240 29240
L61740 29240
L62240 28950
L61740 28950
" />
<path d="M62290 28830
L62290 28450
" />
<path d="M61740 28240
L61740 28190
L61770 28140
L61790 28120
L61840 28090
L61930 28070
L62050 28070
L62150 28090
L62190 28120
L62220 28140
L62240 28190
L62240 28240
L62220 28280
L62190 28310
L62150 28330
L62050 28350
L61930 28350
L61840 28330
L61790 28310
L61770 28280
L61740 28240
" />
<path d="M62240 27590
L62240 27880
" />
<path d="M62240 27740
L61740 27740
L61810 27780
L61860 27830
L61880 27880
" />
<path d="M61740 27430
L62240 27090
" />
<path d="M61740 27090
L62240 27430
" />
<path d="M61740 26810
L61740 26760
L61770 26710
L61790 26690
L61840 26660
L61930 26640
L62050 26640
L62150 26660
L62190 26690
L62220 26710
L62240 26760
L62240 26810
L62220 26850
L62190 26880
L62150 26900
L62050 26930
L61930 26930
L61840 26900
L61790 26880
L61770 26850
L61740 26810
" />
<path d="M61910 26210
L62240 26210
" />
<path d="M61720 26330
L62070 26450
L62070 26140
" />
</g>
<g style="fill:#840000; fill-opacity:0.0; 
stroke:#840000; stroke-width:60; stroke-opacity:1; 
stroke-linecap:round; stroke-linejoin:round;">
<path d="M44920 28210
L44890 28240
L44810 28270
L44750 28270
L44660 28240
L44610 28180
L44580 28120
L44550 28010
L44550 27920
L44580 27810
L44610 27750
L44660 27700
L44750 27670
L44810 27670
L44890 27700
L44920 27720
" />
<path d="M45290 27670
L45410 27670
L45460 27700
L45520 27750
L45550 27870
L45550 28070
L45520 28180
L45460 28240
L45410 28270
L45290 28270
L45230 28240
L45180 28180
L45150 28070
L45150 27870
L45180 27750
L45230 27700
L45290 27670
" />
<path d="M45810 28270
L45810 27670
L46150 28270
L46150 27670
" />
<path d="M46430 28040
L46890 28040
" />
<path d="M47150 27720
L47180 27700
L47230 27670
L47380 27670
L47430 27700
L47460 27720
L47490 27780
L47490 27840
L47460 27920
L47120 28270
L47490 28270
" />
</g>
<g style="fill:#840000; fill-opacity:0.0; 
stroke:#840000; stroke-width:100; stroke-opacity:1; 
stroke-linecap:round; stroke-linejoin:round;">
<polyline fill="none;"
points="48000,28000
47700,27490
44300,27490
44300,28000
44300,28510
47700,28510
48000,28000
" /> 
</g>
<g style="fill:#840000; fill-opacity:0.0; 
stroke:#840000; stroke-width:60; stroke-opacity:1; 
stroke-linecap:round; stroke-linejoin:round;">
<path d="M44920 29210
L44890 29240
L44810 29270
L44750 29270
L44660 29240
L44610 29180
L44580 29120
L44550 29010
L44550 28920
L44580 28810
L44610 28750
L44660 28700
L44750 28670
L44810 28670
L44890 28700
L44920 28720
" />
<path d="M45290 28670
L45410 28670
L45460 28700
L45520 28750
L45550 28870
L45550 29070
L45520 29180
L45460 29240
L45410 29270
L45290 29270
L45230 29240
L45180 29180
L45150 29070
L45150 28870
L45180 28750
L45230 28700
L45290 28670
" />
<path d="M45810 29270
L45810 28670
L46150 29270
L46150 28670
" />
<path d="M46430 29040
L46890 29040
" />
<path d="M47120 28670
L47490 28670
L47290 28900
L47380 28900
L47430 28920
L47460 28950
L47490 29010
L47490 29150
L47460 29210
L47430 29240
L47380 29270
L47210 29270
L47150 29240
L47120 29210
" />
</g>
<g style="fill:#840000; fill-opacity:0.0; 
stroke:#840000; stroke-width:100; stroke-opacity:1; 
stroke-linecap:round; stroke-linejoin:round;">
<polyline fill="none;"
points="48000,29000
47700,28490
44300,28490
44300,29000
44300,29510
47700,29510
48000,29000
" /> 
</g>
<g style="fill:#840000; fill-opacity:0.0; 
stroke:#840000; stroke-width:60; stroke-opacity:1; 
stroke-linecap:round; stroke-linejoin:round;">
<path d="M44920 30210
L44890 30240
L44810 30270
L44750 30270
L44660 30240
L44610 30180
L44580 30120
L44550 30010
L44550 29920
L44580 29810
L44610 29750
L44660 29700
L44750 29670
L44810 29670
L44890 29700
L44920 29720
" />
<path d="M45290 29670
L45410 29670
L45460 29700
L45520 29750
L45550 29870
L45550 30070
L45520 30180
L45460 30240
L45410 30270
L45290 30270
L45230 30240
L45180 30180
L45150 30070
L45150 29870
L45180 29750
L45230 29700
L45290 29670
" />
<path d="M45810 30270
L45810 29670
L46150 30270
L46150 29670
" />
<path d="M46430 30040
L46890 30040
" />
<path d="M47430 29870
L47430 30270
" />
<path d="M47290 29640
L47150 30070
L47520 30070
" />
</g>
<g style="fill:#840000; fill-opacity:0.0; 
stroke:#840000; stroke-width:100; stroke-opacity:1; 
stroke-linecap:round; stroke-linejoin:round;">
<polyline fill="none;"
points="48000,30000
47700,29490
44300,29490
44300,30000
44300,30510
47700,30510
48000,30000
" /> 
</g>
<g style="fill:#840000; fill-opacity:0.0; 
stroke:#840000; stroke-width:0; stroke-opacity:1; 
stroke-linecap:round; stroke-linejoin:round;">
</g>
<g style="fill:#840000; fill-opacity:0.0; 
stroke:#840000; stroke-width:60; stroke-opacity:1; 
stroke-linecap:round; stroke-linejoin:round;">
<polyline fill="none;"
points="54500,33000
54500,33500
55000,33500
54500,34000
54000,33500
54500,33500
" /> 
</g>
<g style="fill:#008484; fill-opacity:0.0; 
stroke:#008484; stroke-width:60; stroke-opacity:1; 
stroke-linecap:round; stroke-linejoin:round;">
<path d="M54110 34270
L54070 34240
L54000 34240
L53920 34270
L53880 34310
L53850 34360
L53830 34460
L53830 34530
L53850 34620
L53880 34670
L53920 34720
L54000 34740
L54040 34740
L54110 34720
L54140 34690
L54140 34530
L54040 34530
" />
<path d="M54350 34740
L54350 34240
L54640 34740
L54640 34240
" />
<path d="M54880 34740
L54880 34240
L55000 34240
L55070 34270
L55110 34310
L55140 34360
L55160 34460
L55160 34530
L55140 34620
L55110 34670
L55070 34720
L55000 34740
L54880 34740
" />
</g>
<g style="fill:#008484; fill-opacity:0.0; 
stroke:#008484; stroke-width:0; stroke-opacity:1; 
stroke-linecap:round; stroke-linejoin:round;">
</g>
<g style="fill:#840000; fill-opacity:0.0; 
stroke:#840000; stroke-width:0; stroke-opacity:1; 
stroke-linecap:round; stroke-linejoin:round;">
</g>
<g style="fill:#840000; fill-opacity:0.0; 
stroke:#840000; stroke-width:130; stroke-opacity:1; 
stroke-linecap:round; stroke-linejoin:round;">
<polyline fill="none;"
points="57400,32200
58600,32200
" /> 
</g>
<g style="fill:#840000; fill-opacity:0.0; 
stroke:#840000; stroke-width:120; stroke-opacity:1; 
stroke-linecap:round; stroke-linejoin:round;">
<polyline fill="none;"
points="57400,31800
58600,31800
" /> 
</g>
<g style="fill:#840000; fill-opacity:0.0; 
stroke:#840000; stroke-width:60; stroke-opacity:1; 
stroke-linecap:round; stroke-linejoin:round;">
<path d="M58000 31800
L58000 31000
" />
<path d="M58000 32200
L58000 33000
" />
</g>
<g style="fill:#008484; fill-opacity:0.0; 
stroke:#008484; stroke-width:60; stroke-opacity:1; 
stroke-linecap:round; stroke-linejoin:round;">
<path d="M58530 31490
L58510 31520
L58440 31540
L58390 31540
L58320 31520
L58270 31470
L58250 31420
L58220 31330
L58220 31260
L58250 31160
L58270 31110
L58320 31070
L58390 31040
L58440 31040
L58510 31070
L58530 31090
" />
<path d="M58700 31040
L59010 31040
L58840 31230
L58910 31230
L58960 31260
L58980 31280
L59010 31330
L59010 31450
L58980 31490
L58960 31520
L58910 31540
L58770 31540
L58720 31520
L58700 31490
" />
<path d="M58500 33040
L58210 33040
" />
<path d="M58360 33040
L58360 32540
L58310 32610
L58260 32660
L58210 32680
" />
<path d="M58810 32540
L58860 32540
L58900 32570
L58930 32590
L58950 32640
L58980 32730
L58980 32850
L58950 32950
L58930 32990
L58900 33020
L58860 33040
L58810 33040
L58760 33020
L58740 32990
L58710 32950
L58690 32850
L58690 32730
L58710 32640
L58740 32590
L58760 32570
L58810 32540
" />
<path d="M59190 32710
L59190 33040
" />
<path d="M59190 32760
L59210 32730
L59260 32710
L59330 32710
L59380 32730
L59400 32780
L59400 33040
" />
<path d="M59810 32780
L59640 32780
" />
<path d="M59640 33040
L59640 32540
L59880 32540
" />
</g>
<g style="fill:#008484; fill-opacity:0.0; 
stroke:#008484; stroke-width:0; stroke-opacity:1; 
stroke-linecap:round; stroke-linejoin:round;">
</g>
<g style="fill:#840000; fill-opacity:0.0; 
stroke:#840000; stroke-width:0; stroke-opacity:1; 
stroke-linecap:round; stroke-linejoin:round;">
</g>
<g style="fill:#840000; fill-opacity:0.0; 
stroke:#840000; stroke-width:130; stroke-opacity:1; 
stroke-linecap:round; stroke-linejoin:round;">
<polyline fill="none;"
points="50400,32200
51600,32200
" /> 
</g>
<g style="fill:#840000; fill-opacity:0.0; 
stroke:#840000; stroke-width:120; stroke-opacity:1; 
stroke-linecap:round; stroke-linejoin:round;">
<polyline fill="none;"
points="50400,31800
51600,31800
" /> 
</g>
<g style="fill:#840000; fill-opacity:0.0; 
stroke:#840000; stroke-width:60; stroke-opacity:1; 
stroke-linecap:round; stroke-linejoin:round;">
<path d="M51000 31800
L51000 31000
" />
<path d="M51000 32200
L51000 33000
" />
</g>
<g style="fill:#008484; fill-opacity:0.0; 
stroke:#008484; stroke-width:60; stroke-opacity:1; 
stroke-linecap:round; stroke-linejoin:round;">
<path d="M51530 31490
L51510 31520
L51440 31540
L51390 31540
L51320 31520
L51270 31470
L51250 31420
L51220 31330
L51220 31260
L51250 31160
L51270 31110
L51320 31070
L51390 31040
L51440 31040
L51510 31070
L51530 31090
" />
<path d="M52010 31540
L51720 31540
" />
<path d="M51870 31540
L51870 31040
L51820 31110
L51770 31160
L51720 31180
" />
<path d="M51500 33040
L51220 33040
" />
<path d="M51360 33040
L51360 32540
L51310 32610
L51260 32660
L51220 32680
" />
<path d="M51810 32540
L51860 32540
L51910 32570
L51930 32590
L51950 32640
L51980 32730
L51980 32850
L51950 32950
L51930 32990
L51910 33020
L51860 33040
L51810 33040
L51760 33020
L51740 32990
L51720 32950
L51690 32850
L51690 32730
L51720 32640
L51740 32590
L51760 32570
L51810 32540
" />
<path d="M52290 32540
L52330 32540
L52380 32570
L52410 32590
L52430 32640
L52450 32730
L52450 32850
L52430 32950
L52410 32990
L52380 33020
L52330 33040
L52290 33040
L52240 33020
L52220 32990
L52190 32950
L52170 32850
L52170 32730
L52190 32640
L52220 32590
L52240 32570
L52290 32540
" />
<path d="M52670 32710
L52670 33040
" />
<path d="M52670 32760
L52690 32730
L52740 32710
L52810 32710
L52860 32730
L52880 32780
L52880 33040
" />
<path d="M53290 32780
L53120 32780
" />
<path d="M53120 33040
L53120 32540
L53360 32540
" />
</g>
<g style="fill:#008484; fill-opacity:0.0; 
stroke:#008484; stroke-width:0; stroke-opacity:1; 
stroke-linecap:round; stroke-linejoin:round;">
</g>
<g style="fill:#840000; fill-opacity:0.0; 
stroke:#840000; stroke-width:0; stroke-opacity:1; 
stroke-linecap:round; stroke-linejoin:round;">
</g>
<g style="fill:#840000; fill-opacity:0.0; 
stroke:#840000; stroke-width:60; stroke-opacity:1; 
stroke-linecap:round; stroke-linejoin:round;">
<polyline fill="none;"
points="51000,33000
51000,33500
51500,33500
51000,34000
50500,33500
51000,33500
" /> 
</g>
<g style="fill:#008484; fill-opacity:0.0; 
stroke:#008484; stroke-width:60; stroke-opacity:1; 
stroke-linecap:round; stroke-linejoin:round;">
<path d="M50610 34270
L50570 34240
L50500 34240
L50420 34270
L50380 34310
L50350 34360
L50330 34460
L50330 34530
L50350 34620
L50380 34670
L50420 34720
L50500 34740
L50540 34740
L50610 34720
L50640 34690
L50640 34530
L50540 34530
" />
<path d="M50850 34740
L50850 34240
L51140 34740
L51140 34240
" />
<path d="M51380 34740
L51380 34240
L51500 34240
L51570 34270
L51610 34310
L51640 34360
L51660 34460
L51660 34530
L51640 34620
L51610 34670
L51570 34720
L51500 34740
L51380 34740
" />
</g>
<g style="fill:#008484; fill-opacity:0.0; 
stroke:#008484; stroke-width:0; stroke-opacity:1; 
stroke-linecap:round; stroke-linejoin:round;">
</g>
<g style="fill:#840000; fill-opacity:0.0; 
stroke:#840000; stroke-width:0; stroke-opacity:1; 
stroke-linecap:round; stroke-linejoin:round;">
</g>
<g style="fill:#840000; fill-opacity:0.0; 
stroke:#840000; stroke-width:60; stroke-opacity:1; 
stroke-linecap:round; stroke-linejoin:round;">
<polyline fill="none;"
points="58000,33000
58000,33500
58500,33500
58000,34000
57500,33500
58000,33500
" /> 
</g>
<g style="fill:#008484; fill-opacity:0.0; 
stroke:#008484; stroke-width:60; stroke-opacity:1; 
stroke-linecap:round; stroke-linejoin:round;">
<path d="M57610 34270
L57570 34240
L57500 34240
L57420 34270
L57380 34310
L57350 34360
L57330 34460
L57330 34530
L57350 34620
L57380 34670
L57420 34720
L57500 34740
L57540 34740
L57610 34720
L57640 34690
L57640 34530
L57540 34530
" />
<path d="M57850 34740
L57850 34240
L58140 34740
L58140 34240
" />
<path d="M58380 34740
L58380 34240
L58500 34240
L58570 34270
L58610 34310
L58640 34360
L58660 34460
L58660 34530
L58640 34620
L58610 34670
L58570 34720
L58500 34740
L58380 34740
" />
</g>
<g style="fill:#008484; fill-opacity:0.0; 
stroke:#008484; stroke-width:0; stroke-opacity:1; 
stroke-linecap:round; stroke-linejoin:round;">
</g>
<g style="fill:#840000; fill-opacity:0.0; 
stroke:#840000; stroke-width:0; stroke-opacity:1; 
stroke-linecap:round; stroke-linejoin:round;">
</g>
<g style="fill:#840000; fill-opacity:0.0; 
stroke:#840000; stroke-width:60; stroke-opacity:1; 
stroke-linecap:round; stroke-linejoin:round;">
<polyline fill="none;"
points="37000,21000
37000,21500
37500,21500
37000,22000
36500,21500
37000,21500
" /> 
</g>
<g style="fill:#008484; fill-opacity:0.0; 
stroke:#008484; stroke-width:60; stroke-opacity:1; 
stroke-linecap:round; stroke-linejoin:round;">
<path d="M36610 22270
L36570 22240
L36500 22240
L36420 22270
L36380 22310
L36350 22360
L36330 22460
L36330 22530
L36350 22620
L36380 22670
L36420 22720
L36500 22740
L36540 22740
L36610 22720
L36640 22690
L36640 22530
L36540 22530
" />
<path d="M36850 22740
L36850 22240
L37140 22740
L37140 22240
" />
<path d="M37380 22740
L37380 22240
L37500 22240
L37570 22270
L37610 22310
L37640 22360
L37660 22460
L37660 22530
L37640 22620
L37610 22670
L37570 22720
L37500 22740
L37380 22740
" />
</g>
<g style="fill:#008484; fill-opacity:0.0; 
stroke:#008484; stroke-width:0; stroke-opacity:1; 
stroke-linecap:round; stroke-linejoin:round;">
</g>
<g style="fill:#840000; fill-opacity:0.0; 
stroke:#840000; stroke-width:0; stroke-opacity:1; 
stroke-linecap:round; stroke-linejoin:round;">
</g>
<g style="fill:#840000; fill-opacity:0.0; 
stroke:#840000; stroke-width:60; stroke-opacity:1; 
stroke-linecap:round; stroke-linejoin:round;">
<polyline fill="none;"
points="55000,22000
55000,22500
55500,22500
55000,23000
54500,22500
55000,22500
" /> 
</g>
<g style="fill:#008484; fill-opacity:0.0; 
stroke:#008484; stroke-width:60; stroke-opacity:1; 
stroke-linecap:round; stroke-linejoin:round;">
<path d="M54610 23270
L54570 23240
L54500 23240
L54420 23270
L54380 23310
L54350 23360
L54330 23460
L54330 23530
L54350 23620
L54380 23670
L54420 23720
L54500 23740
L54540 23740
L54610 23720
L54640 23690
L54640 23530
L54540 23530
" />
<path d="M54850 23740
L54850 23240
L55140 23740
L55140 23240
" />
<path d="M55380 23740
L55380 23240
L55500 23240
L55570 23270
L55610 23310
L55640 23360
L55660 23460
L55660 23530
L55640 23620
L55610 23670
L55570 23720
L55500 23740
L55380 23740
" />
</g>
<g style="fill:#840000; fill-opacity:0.0; 
stroke:#840000; stroke-width:60; stroke-opacity:1; 
stroke-linecap:round; stroke-linejoin:round;">
<path d="M44920 27210
L44890 27240
L44810 27270
L44750 27270
L44660 27240
L44610 27180
L44580 27120
L44550 27010
L44550 26920
L44580 26810
L44610 26750
L44660 26700
L44750 26670
L44810 26670
L44890 26700
L44920 26720
" />
<path d="M45290 26670
L45410 26670
L45460 26700
L45520 26750
L45550 26870
L45550 27070
L45520 27180
L45460 27240
L45410 27270
L45290 27270
L45230 27240
L45180 27180
L45150 27070
L45150 26870
L45180 26750
L45230 26700
L45290 26670
" />
<path d="M45810 27270
L45810 26670
L46150 27270
L46150 26670
" />
<path d="M46430 27040
L46890 27040
" />
<path d="M47490 27270
L47150 27270
" />
<path d="M47320 27270
L47320 26670
L47260 26750
L47210 26810
L47150 26840
" />
</g>
<g style="fill:#840000; fill-opacity:0.0; 
stroke:#840000; stroke-width:100; stroke-opacity:1; 
stroke-linecap:round; stroke-linejoin:round;">
<polyline fill="none;"
points="48000,27000
47700,26490
44300,26490
44300,27000
44300,27510
47700,27510
48000,27000
" /> 
</g>
<g style="fill:#840000; fill-opacity:0.0; 
stroke:#840000; stroke-width:60; stroke-opacity:1; 
stroke-linecap:round; stroke-linejoin:round;">
<path d="M38920 18710
L38890 18740
L38810 18770
L38750 18770
L38660 18740
L38610 18680
L38580 18620
L38550 18510
L38550 18420
L38580 18310
L38610 18250
L38660 18200
L38750 18170
L38810 18170
L38890 18200
L38920 18220
" />
<path d="M39290 18170
L39410 18170
L39460 18200
L39520 18250
L39550 18370
L39550 18570
L39520 18680
L39460 18740
L39410 18770
L39290 18770
L39230 18740
L39180 18680
L39150 18570
L39150 18370
L39180 18250
L39230 18200
L39290 18170
" />
<path d="M39810 18770
L39810 18170
L40150 18770
L40150 18170
" />
<path d="M40430 18540
L40890 18540
" />
<path d="M41490 18770
L41150 18770
" />
<path d="M41320 18770
L41320 18170
L41260 18250
L41210 18310
L41150 18340
" />
</g>
<g style="fill:#840000; fill-opacity:0.0; 
stroke:#840000; stroke-width:100; stroke-opacity:1; 
stroke-linecap:round; stroke-linejoin:round;">
<polyline fill="none;"
points="42000,18500
41700,17990
38300,17990
38300,18500
38300,19010
41700,19010
42000,18500
" /> 
</g>
<g style="fill:#840000; fill-opacity:0.0; 
stroke:#840000; stroke-width:60; stroke-opacity:1; 
stroke-linecap:round; stroke-linejoin:round;">
<path d="M38920 23210
L38890 23240
L38810 23270
L38750 23270
L38660 23240
L38610 23180
L38580 23120
L38550 23010
L38550 22920
L38580 22810
L38610 22750
L38660 22700
L38750 22670
L38810 22670
L38890 22700
L38920 22720
" />
<path d="M39290 22670
L39410 22670
L39460 22700
L39520 22750
L39550 22870
L39550 23070
L39520 23180
L39460 23240
L39410 23270
L39290 23270
L39230 23240
L39180 23180
L39150 23070
L39150 22870
L39180 22750
L39230 22700
L39290 22670
" />
<path d="M39810 23270
L39810 22670
L40150 23270
L40150 22670
" />
<path d="M40430 23040
L40890 23040
" />
<path d="M41150 22720
L41180 22700
L41230 22670
L41380 22670
L41430 22700
L41460 22720
L41490 22780
L41490 22840
L41460 22920
L41120 23270
L41490 23270
" />
</g>
<g style="fill:#840000; fill-opacity:0.0; 
stroke:#840000; stroke-width:100; stroke-opacity:1; 
stroke-linecap:round; stroke-linejoin:round;">
<polyline fill="none;"
points="42000,23000
41700,22490
38300,22490
38300,23000
38300,23510
41700,23510
42000,23000
" /> 
</g>
<g style="fill:#840000; fill-opacity:0.0; 
stroke:#840000; stroke-width:60; stroke-opacity:1; 
stroke-linecap:round; stroke-linejoin:round;">
<path d="M49870 20210
L49840 20240
L49760 20270
L49700 20270
L49610 20240
L49560 20180
L49530 20120
L49500 20010
L49500 19920
L49530 19810
L49560 19750
L49610 19700
L49700 19670
L49760 19670
L49840 19700
L49870 19720
" />
<path d="M50240 19670
L50360 19670
L50410 19700
L50470 19750
L50500 19870
L50500 20070
L50470 20180
L50410 20240
L50360 20270
L50240 20270
L50190 20240
L50130 20180
L50100 20070
L50100 19870
L50130 19750
L50190 19700
L50240 19670
" />
<path d="M50760 20270
L50760 19670
L51100 20270
L51100 19670
" />
<path d="M51390 20040
L51840 20040
" />
<path d="M52070 19670
L52440 19670
L52240 19900
L52330 19900
L52390 19920
L52410 19950
L52440 20010
L52440 20150
L52410 20210
L52390 20240
L52330 20270
L52160 20270
L52100 20240
L52070 20210
" />
</g>
<g style="fill:#840000; fill-opacity:0.0; 
stroke:#840000; stroke-width:100; stroke-opacity:1; 
stroke-linecap:round; stroke-linejoin:round;">
<polyline fill="none;"
points="49000,20000
49300,20510
52700,20510
52700,20000
52700,19490
49300,19490
49000,20000
" /> 
</g>
<g style="fill:#840000; fill-opacity:0.0; 
stroke:#840000; stroke-width:60; stroke-opacity:1; 
stroke-linecap:round; stroke-linejoin:round;">
<path d="M57370 22210
L57340 22240
L57260 22270
L57200 22270
L57110 22240
L57060 22180
L57030 22120
L57000 22010
L57000 21920
L57030 21810
L57060 21750
L57110 21700
L57200 21670
L57260 21670
L57340 21700
L57370 21720
" />
<path d="M57740 21670
L57860 21670
L57910 21700
L57970 21750
L58000 21870
L58000 22070
L57970 22180
L57910 22240
L57860 22270
L57740 22270
L57690 22240
L57630 22180
L57600 22070
L57600 21870
L57630 21750
L57690 21700
L57740 21670
" />
<path d="M58260 22270
L58260 21670
L58600 22270
L58600 21670
" />
<path d="M58890 22040
L59340 22040
" />
<path d="M59890 21870
L59890 22270
" />
<path d="M59740 21640
L59600 22070
L59970 22070
" />
</g>
<g style="fill:#840000; fill-opacity:0.0; 
stroke:#840000; stroke-width:100; stroke-opacity:1; 
stroke-linecap:round; stroke-linejoin:round;">
<polyline fill="none;"
points="56500,22000
56800,22510
60200,22510
60200,22000
60200,21490
56800,21490
56500,22000
" /> 
</g>
<g style="fill:#840000; fill-opacity:0.0; 
stroke:#840000; stroke-width:0; stroke-opacity:1; 
stroke-linecap:round; stroke-linejoin:round;">
</g>
<g style="fill:#840000; fill-opacity:0.0; 
stroke:#840000; stroke-width:60; stroke-opacity:1; 
stroke-linecap:round; stroke-linejoin:round;">
<polyline fill="none;"
points="44000,12000
44000,12500
44500,12500
44000,13000
43500,12500
44000,12500
" /> 
</g>
<g style="fill:#008484; fill-opacity:0.0; 
stroke:#008484; stroke-width:60; stroke-opacity:1; 
stroke-linecap:round; stroke-linejoin:round;">
<path d="M43610 13270
L43570 13240
L43500 13240
L43420 13270
L43380 13310
L43350 13360
L43330 13460
L43330 13530
L43350 13620
L43380 13670
L43420 13720
L43500 13740
L43540 13740
L43610 13720
L43640 13690
L43640 13530
L43540 13530
" />
<path d="M43850 13740
L43850 13240
L44140 13740
L44140 13240
" />
<path d="M44380 13740
L44380 13240
L44500 13240
L44570 13270
L44610 13310
L44640 13360
L44660 13460
L44660 13530
L44640 13620
L44610 13670
L44570 13720
L44500 13740
L44380 13740
" />
</g>
<g style="fill:#008484; fill-opacity:0.0; 
stroke:#008484; stroke-width:0; stroke-opacity:1; 
stroke-linecap:round; stroke-linejoin:round;">
</g>
<g style="fill:#840000; fill-opacity:0.0; 
stroke:#840000; stroke-width:0; stroke-opacity:1; 
stroke-linecap:round; stroke-linejoin:round;">
</g>
<g style="fill:#840000; fill-opacity:0.0; 
stroke:#840000; stroke-width:60; stroke-opacity:1; 
stroke-linecap:round; stroke-linejoin:round;">
<polyline fill="none;"
points="44000,12000
44000,11500
43600,11250
44000,11000
44400,11250
44000,11500
" /> 
<path d="M44000 12000
L44000 12000
" />
</g>
<g style="fill:#008484; fill-opacity:0.0; 
stroke:#008484; stroke-width:60; stroke-opacity:1; 
stroke-linecap:round; stroke-linejoin:round;">
<path d="M42260 10740
L42260 10240
L42450 10240
L42500 10270
L42520 10290
L42540 10340
L42540 10410
L42520 10460
L42500 10480
L42450 10500
L42260 10500
" />
<path d="M42710 10240
L42830 10740
L42920 10380
L43020 10740
L43140 10240
" />
<path d="M43610 10740
L43450 10500
" />
<path d="M43330 10740
L43330 10240
L43520 10240
L43570 10270
L43590 10290
L43610 10340
L43610 10410
L43590 10460
L43570 10480
L43520 10500
L43330 10500
" />
<path d="M43710 10790
L44090 10790
" />
<path d="M44380 10480
L44210 10480
" />
<path d="M44210 10740
L44210 10240
L44450 10240
" />
<path d="M44880 10740
L44640 10740
L44640 10240
" />
<path d="M45020 10600
L45260 10600
" />
<path d="M44970 10740
L45140 10240
L45300 10740
" />
<path d="M45730 10270
L45690 10240
L45610 10240
L45540 10270
L45500 10310
L45470 10360
L45450 10460
L45450 10530
L45470 10620
L45500 10670
L45540 10720
L45610 10740
L45660 10740
L45730 10720
L45760 10690
L45760 10530
L45660 10530
" />
</g>
<g style="fill:#008400; fill-opacity:0.0; 
stroke:#008400; stroke-width:60; stroke-opacity:1; 
stroke-linecap:round; stroke-linejoin:round;">
<path d="M48000 27000
L58000 27000
" />
<path d="M48000 28000
L54500 28000
" />
<path d="M48000 29000
L51000 29000
" />
<path d="M48000 30000
L59000 30000
" />
<path d="M37000 21000
L43000 21000
" />
<path d="M42000 23000
L43000 23000
" />
<path d="M43000 23000
L43000 22000
" />
<path d="M42000 18500
L43000 18500
" />
<path d="M43000 18500
L43000 20000
" />
<path d="M58000 31000
L58000 27000
" />
</g>
<g style="fill:#008400; fill-opacity:0.0; 
stroke:#008400; stroke-width:0; stroke-opacity:1; 
stroke-linecap:round; stroke-linejoin:round;">
</g>
<g style="fill:#008400; fill-opacity:1.0; 
stroke:#008400; stroke-width:100; stroke-opacity:1; 
stroke-linecap:round; stroke-linejoin:round;">
<circle cx="58000" cy="27000" r="200" /> 
</g>
<g style="fill:#008400; fill-opacity:1.0; 
stroke:#008400; stroke-width:60; stroke-opacity:1; 
stroke-linecap:round; stroke-linejoin:round;">
</g>
<g style="fill:#008400; fill-opacity:0.0; 
stroke:#008400; stroke-width:60; stroke-opacity:1; 
stroke-linecap:round; stroke-linejoin:round;">
<path d="M54500 31000
L54500 28000
" />
</g>
<g style="fill:#008400; fill-opacity:0.0; 
stroke:#008400; stroke-width:0; stroke-opacity:1; 
stroke-linecap:round; stroke-linejoin:round;">
</g>
<g style="fill:#008400; fill-opacity:1.0; 
stroke:#008400; stroke-width:100; stroke-opacity:1; 
stroke-linecap:round; stroke-linejoin:round;">
<circle cx="54500" cy="28000" r="200" /> 
</g>
<g style="fill:#008400; fill-opacity:1.0; 
stroke:#008400; stroke-width:60; stroke-opacity:1; 
stroke-linecap:round; stroke-linejoin:round;">
</g>
<g style="fill:#008400; fill-opacity:0.0; 
stroke:#008400; stroke-width:60; stroke-opacity:1; 
stroke-linecap:round; stroke-linejoin:round;">
<path d="M51000 31000
L51000 29000
" />
</g>
<g style="fill:#008400; fill-opacity:0.0; 
stroke:#008400; stroke-width:0; stroke-opacity:1; 
stroke-linecap:round; stroke-linejoin:round;">
</g>
<g style="fill:#008400; fill-opacity:1.0; 
stroke:#008400; stroke-width:100; stroke-opacity:1; 
stroke-linecap:round; stroke-linejoin:round;">
<circle cx="51000" cy="29000" r="200" /> 
</g>
<g style="fill:#008400; fill-opacity:1.0; 
stroke:#008400; stroke-width:0; stroke-opacity:1; 
stroke-linecap:round; stroke-linejoin:round;">
</g>
<g style="fill:#008400; fill-opacity:1.0; 
stroke:#008400; stroke-width:100; stroke-opacity:1; 
stroke-linecap:round; stroke-linejoin:round;">
<circle cx="55000" cy="22000" r="200" /> 
</g>
<g style="fill:#008400; fill-opacity:1.0; 
stroke:#008400; stroke-width:60; stroke-opacity:1; 
stroke-linecap:round; stroke-linejoin:round;">
</g>
<g style="fill:#008400; fill-opacity:0.0; 
stroke:#008400; stroke-width:60; stroke-opacity:1; 
stroke-linecap:round; stroke-linejoin:round;">
<path d="M49000 22000
L55000 22000
" />
<path d="M58000 27000
L59000 27000
" />
<path d="M54500 28000
L59000 28000
" />
<path d="M51000 29000
L59000 29000
" />
<path d="M55000 22000
L56500 22000
" />
</g> 
</svg>
