G04 MADE WITH FRITZING*
G04 WWW.FRITZING.ORG*
G04 DOUBLE SIDED*
G04 HOLES PLATED*
G04 CONTOUR ON CENTER OF CONTOUR VECTOR*
%ASAXBY*%
%FSLAX23Y23*%
%MOIN*%
%OFA0B0*%
%SFA1.0B1.0*%
%ADD10C,0.075000*%
%ADD11C,0.074000*%
%ADD12C,0.070000*%
%ADD13C,0.082000*%
%ADD14R,0.055118X0.051181*%
%ADD15R,0.000110X0.000102*%
%ADD16R,0.082000X0.082000*%
%ADD17C,0.024000*%
%LNCOPPER0*%
G90*
G70*
G54D10*
X1293Y547D03*
G54D11*
X488Y141D03*
X588Y131D03*
X688Y141D03*
X788Y131D03*
X888Y141D03*
X988Y131D03*
G54D10*
X1088Y331D03*
X1488Y331D03*
X1088Y231D03*
X1488Y231D03*
G54D12*
X1088Y531D03*
X1188Y531D03*
G54D13*
X188Y331D03*
X486Y331D03*
G54D10*
X88Y431D03*
X488Y431D03*
G54D14*
X988Y531D03*
X988Y431D03*
X988Y331D03*
G54D15*
X988Y330D03*
G54D14*
X988Y231D03*
X613Y529D03*
X613Y429D03*
X613Y329D03*
X613Y229D03*
G54D16*
X187Y331D03*
G54D17*
X189Y435D02*
X460Y432D01*
D02*
X188Y363D02*
X189Y435D01*
D02*
X788Y162D02*
X788Y478D01*
D02*
X463Y529D02*
X87Y529D01*
D02*
X547Y480D02*
X463Y529D01*
D02*
X87Y529D02*
X88Y460D01*
D02*
X788Y478D02*
X547Y480D01*
D02*
X1188Y505D02*
X1187Y287D01*
D02*
X1187Y287D02*
X1113Y245D01*
D02*
X889Y332D02*
X966Y331D01*
D02*
X888Y172D02*
X889Y332D01*
G36*
X40Y600D02*
X40Y576D01*
X1196Y576D01*
X1196Y574D01*
X1202Y574D01*
X1202Y572D01*
X1206Y572D01*
X1206Y570D01*
X1210Y570D01*
X1210Y568D01*
X1212Y568D01*
X1212Y566D01*
X1216Y566D01*
X1216Y564D01*
X1218Y564D01*
X1218Y562D01*
X1220Y562D01*
X1220Y560D01*
X1222Y560D01*
X1222Y558D01*
X1224Y558D01*
X1224Y554D01*
X1226Y554D01*
X1226Y552D01*
X1228Y552D01*
X1228Y548D01*
X1230Y548D01*
X1230Y544D01*
X1232Y544D01*
X1232Y536D01*
X1234Y536D01*
X1234Y526D01*
X1232Y526D01*
X1232Y518D01*
X1230Y518D01*
X1230Y514D01*
X1228Y514D01*
X1228Y510D01*
X1226Y510D01*
X1226Y508D01*
X1224Y508D01*
X1224Y504D01*
X1222Y504D01*
X1222Y502D01*
X1220Y502D01*
X1220Y500D01*
X1218Y500D01*
X1218Y498D01*
X1216Y498D01*
X1216Y496D01*
X1214Y496D01*
X1214Y494D01*
X1210Y494D01*
X1210Y492D01*
X1208Y492D01*
X1208Y490D01*
X1202Y490D01*
X1202Y488D01*
X1196Y488D01*
X1196Y486D01*
X1552Y486D01*
X1552Y600D01*
X40Y600D01*
G37*
D02*
G36*
X40Y576D02*
X40Y566D01*
X1026Y566D01*
X1026Y542D01*
X1046Y542D01*
X1046Y546D01*
X1048Y546D01*
X1048Y550D01*
X1050Y550D01*
X1050Y554D01*
X1052Y554D01*
X1052Y556D01*
X1054Y556D01*
X1054Y560D01*
X1056Y560D01*
X1056Y562D01*
X1058Y562D01*
X1058Y564D01*
X1062Y564D01*
X1062Y566D01*
X1064Y566D01*
X1064Y568D01*
X1066Y568D01*
X1066Y570D01*
X1070Y570D01*
X1070Y572D01*
X1074Y572D01*
X1074Y574D01*
X1080Y574D01*
X1080Y576D01*
X40Y576D01*
G37*
D02*
G36*
X1096Y576D02*
X1096Y574D01*
X1102Y574D01*
X1102Y572D01*
X1106Y572D01*
X1106Y570D01*
X1110Y570D01*
X1110Y568D01*
X1112Y568D01*
X1112Y566D01*
X1116Y566D01*
X1116Y564D01*
X1118Y564D01*
X1118Y562D01*
X1120Y562D01*
X1120Y560D01*
X1122Y560D01*
X1122Y558D01*
X1124Y558D01*
X1124Y554D01*
X1126Y554D01*
X1126Y552D01*
X1128Y552D01*
X1128Y548D01*
X1148Y548D01*
X1148Y550D01*
X1150Y550D01*
X1150Y554D01*
X1152Y554D01*
X1152Y556D01*
X1154Y556D01*
X1154Y558D01*
X1156Y558D01*
X1156Y562D01*
X1158Y562D01*
X1158Y564D01*
X1162Y564D01*
X1162Y566D01*
X1164Y566D01*
X1164Y568D01*
X1166Y568D01*
X1166Y570D01*
X1170Y570D01*
X1170Y572D01*
X1174Y572D01*
X1174Y574D01*
X1180Y574D01*
X1180Y576D01*
X1096Y576D01*
G37*
D02*
G36*
X40Y566D02*
X40Y564D01*
X650Y564D01*
X650Y500D01*
X792Y500D01*
X792Y498D01*
X798Y498D01*
X798Y496D01*
X950Y496D01*
X950Y566D01*
X40Y566D01*
G37*
D02*
G36*
X40Y564D02*
X40Y550D01*
X472Y550D01*
X472Y548D01*
X476Y548D01*
X476Y546D01*
X480Y546D01*
X480Y544D01*
X482Y544D01*
X482Y542D01*
X486Y542D01*
X486Y540D01*
X490Y540D01*
X490Y538D01*
X492Y538D01*
X492Y536D01*
X496Y536D01*
X496Y534D01*
X500Y534D01*
X500Y532D01*
X502Y532D01*
X502Y530D01*
X506Y530D01*
X506Y528D01*
X510Y528D01*
X510Y526D01*
X514Y526D01*
X514Y524D01*
X516Y524D01*
X516Y522D01*
X520Y522D01*
X520Y520D01*
X524Y520D01*
X524Y518D01*
X526Y518D01*
X526Y516D01*
X530Y516D01*
X530Y514D01*
X534Y514D01*
X534Y512D01*
X536Y512D01*
X536Y510D01*
X540Y510D01*
X540Y508D01*
X544Y508D01*
X544Y506D01*
X546Y506D01*
X546Y504D01*
X550Y504D01*
X550Y502D01*
X576Y502D01*
X576Y564D01*
X40Y564D01*
G37*
D02*
G36*
X40Y550D02*
X40Y466D01*
X60Y466D01*
X60Y468D01*
X62Y468D01*
X62Y470D01*
X66Y470D01*
X66Y520D01*
X64Y520D01*
X64Y530D01*
X66Y530D01*
X66Y538D01*
X68Y538D01*
X68Y542D01*
X70Y542D01*
X70Y544D01*
X72Y544D01*
X72Y546D01*
X74Y546D01*
X74Y548D01*
X78Y548D01*
X78Y550D01*
X40Y550D01*
G37*
D02*
G36*
X1026Y520D02*
X1026Y496D01*
X1060Y496D01*
X1060Y498D01*
X1058Y498D01*
X1058Y500D01*
X1056Y500D01*
X1056Y502D01*
X1054Y502D01*
X1054Y506D01*
X1052Y506D01*
X1052Y508D01*
X1050Y508D01*
X1050Y510D01*
X1048Y510D01*
X1048Y514D01*
X1046Y514D01*
X1046Y520D01*
X1026Y520D01*
G37*
D02*
G36*
X1128Y514D02*
X1128Y510D01*
X1126Y510D01*
X1126Y508D01*
X1124Y508D01*
X1124Y504D01*
X1122Y504D01*
X1122Y502D01*
X1120Y502D01*
X1120Y500D01*
X1118Y500D01*
X1118Y498D01*
X1116Y498D01*
X1116Y496D01*
X1114Y496D01*
X1114Y494D01*
X1110Y494D01*
X1110Y492D01*
X1106Y492D01*
X1106Y490D01*
X1102Y490D01*
X1102Y488D01*
X1096Y488D01*
X1096Y486D01*
X1180Y486D01*
X1180Y488D01*
X1174Y488D01*
X1174Y490D01*
X1170Y490D01*
X1170Y492D01*
X1166Y492D01*
X1166Y494D01*
X1164Y494D01*
X1164Y496D01*
X1160Y496D01*
X1160Y498D01*
X1158Y498D01*
X1158Y500D01*
X1156Y500D01*
X1156Y502D01*
X1154Y502D01*
X1154Y506D01*
X1152Y506D01*
X1152Y508D01*
X1150Y508D01*
X1150Y512D01*
X1148Y512D01*
X1148Y514D01*
X1128Y514D01*
G37*
D02*
G36*
X110Y506D02*
X110Y472D01*
X112Y472D01*
X112Y470D01*
X114Y470D01*
X114Y468D01*
X116Y468D01*
X116Y466D01*
X120Y466D01*
X120Y464D01*
X122Y464D01*
X122Y460D01*
X124Y460D01*
X124Y458D01*
X126Y458D01*
X126Y456D01*
X326Y456D01*
X326Y454D01*
X448Y454D01*
X448Y456D01*
X450Y456D01*
X450Y458D01*
X452Y458D01*
X452Y460D01*
X454Y460D01*
X454Y462D01*
X456Y462D01*
X456Y464D01*
X458Y464D01*
X458Y466D01*
X460Y466D01*
X460Y468D01*
X462Y468D01*
X462Y470D01*
X464Y470D01*
X464Y472D01*
X468Y472D01*
X468Y474D01*
X472Y474D01*
X472Y476D01*
X478Y476D01*
X478Y496D01*
X474Y496D01*
X474Y498D01*
X470Y498D01*
X470Y500D01*
X468Y500D01*
X468Y502D01*
X464Y502D01*
X464Y504D01*
X460Y504D01*
X460Y506D01*
X110Y506D01*
G37*
D02*
G36*
X802Y496D02*
X802Y494D01*
X1064Y494D01*
X1064Y496D01*
X802Y496D01*
G37*
D02*
G36*
X802Y496D02*
X802Y494D01*
X1064Y494D01*
X1064Y496D01*
X802Y496D01*
G37*
D02*
G36*
X804Y494D02*
X804Y492D01*
X806Y492D01*
X806Y490D01*
X808Y490D01*
X808Y486D01*
X1080Y486D01*
X1080Y488D01*
X1074Y488D01*
X1074Y490D01*
X1070Y490D01*
X1070Y492D01*
X1066Y492D01*
X1066Y494D01*
X804Y494D01*
G37*
D02*
G36*
X810Y486D02*
X810Y484D01*
X1552Y484D01*
X1552Y486D01*
X810Y486D01*
G37*
D02*
G36*
X810Y486D02*
X810Y484D01*
X1552Y484D01*
X1552Y486D01*
X810Y486D01*
G37*
D02*
G36*
X810Y486D02*
X810Y484D01*
X1552Y484D01*
X1552Y486D01*
X810Y486D01*
G37*
D02*
G36*
X810Y484D02*
X810Y466D01*
X1026Y466D01*
X1026Y396D01*
X1552Y396D01*
X1552Y484D01*
X810Y484D01*
G37*
D02*
G36*
X810Y466D02*
X810Y396D01*
X950Y396D01*
X950Y466D01*
X810Y466D01*
G37*
D02*
G36*
X534Y458D02*
X534Y438D01*
X536Y438D01*
X536Y424D01*
X534Y424D01*
X534Y416D01*
X532Y416D01*
X532Y412D01*
X530Y412D01*
X530Y408D01*
X528Y408D01*
X528Y406D01*
X526Y406D01*
X526Y404D01*
X524Y404D01*
X524Y400D01*
X522Y400D01*
X522Y398D01*
X520Y398D01*
X520Y396D01*
X518Y396D01*
X518Y394D01*
X514Y394D01*
X514Y392D01*
X576Y392D01*
X576Y458D01*
X534Y458D01*
G37*
D02*
G36*
X128Y456D02*
X128Y452D01*
X130Y452D01*
X130Y450D01*
X132Y450D01*
X132Y444D01*
X134Y444D01*
X134Y438D01*
X136Y438D01*
X136Y424D01*
X134Y424D01*
X134Y418D01*
X132Y418D01*
X132Y412D01*
X130Y412D01*
X130Y408D01*
X128Y408D01*
X128Y406D01*
X126Y406D01*
X126Y404D01*
X124Y404D01*
X124Y400D01*
X122Y400D01*
X122Y398D01*
X120Y398D01*
X120Y396D01*
X118Y396D01*
X118Y394D01*
X114Y394D01*
X114Y392D01*
X112Y392D01*
X112Y390D01*
X108Y390D01*
X108Y388D01*
X104Y388D01*
X104Y386D01*
X98Y386D01*
X98Y384D01*
X166Y384D01*
X166Y438D01*
X168Y438D01*
X168Y444D01*
X170Y444D01*
X170Y448D01*
X172Y448D01*
X172Y450D01*
X174Y450D01*
X174Y452D01*
X176Y452D01*
X176Y454D01*
X180Y454D01*
X180Y456D01*
X128Y456D01*
G37*
D02*
G36*
X650Y456D02*
X650Y392D01*
X766Y392D01*
X766Y456D01*
X650Y456D01*
G37*
D02*
G36*
X210Y412D02*
X210Y382D01*
X238Y382D01*
X238Y334D01*
X240Y334D01*
X240Y328D01*
X238Y328D01*
X238Y280D01*
X476Y280D01*
X476Y282D01*
X470Y282D01*
X470Y284D01*
X466Y284D01*
X466Y286D01*
X462Y286D01*
X462Y288D01*
X460Y288D01*
X460Y290D01*
X456Y290D01*
X456Y292D01*
X454Y292D01*
X454Y294D01*
X452Y294D01*
X452Y296D01*
X450Y296D01*
X450Y298D01*
X448Y298D01*
X448Y300D01*
X446Y300D01*
X446Y304D01*
X444Y304D01*
X444Y306D01*
X442Y306D01*
X442Y310D01*
X440Y310D01*
X440Y314D01*
X438Y314D01*
X438Y318D01*
X436Y318D01*
X436Y342D01*
X438Y342D01*
X438Y348D01*
X440Y348D01*
X440Y352D01*
X442Y352D01*
X442Y356D01*
X444Y356D01*
X444Y358D01*
X446Y358D01*
X446Y362D01*
X448Y362D01*
X448Y364D01*
X450Y364D01*
X450Y366D01*
X452Y366D01*
X452Y368D01*
X454Y368D01*
X454Y370D01*
X456Y370D01*
X456Y372D01*
X460Y372D01*
X460Y374D01*
X462Y374D01*
X462Y394D01*
X460Y394D01*
X460Y396D01*
X458Y396D01*
X458Y398D01*
X454Y398D01*
X454Y402D01*
X452Y402D01*
X452Y404D01*
X450Y404D01*
X450Y406D01*
X448Y406D01*
X448Y410D01*
X324Y410D01*
X324Y412D01*
X210Y412D01*
G37*
D02*
G36*
X40Y396D02*
X40Y384D01*
X78Y384D01*
X78Y386D01*
X72Y386D01*
X72Y388D01*
X68Y388D01*
X68Y390D01*
X64Y390D01*
X64Y392D01*
X62Y392D01*
X62Y394D01*
X60Y394D01*
X60Y396D01*
X40Y396D01*
G37*
D02*
G36*
X810Y396D02*
X810Y394D01*
X1552Y394D01*
X1552Y396D01*
X810Y396D01*
G37*
D02*
G36*
X810Y396D02*
X810Y394D01*
X1552Y394D01*
X1552Y396D01*
X810Y396D01*
G37*
D02*
G36*
X810Y394D02*
X810Y378D01*
X1498Y378D01*
X1498Y376D01*
X1504Y376D01*
X1504Y374D01*
X1508Y374D01*
X1508Y372D01*
X1512Y372D01*
X1512Y370D01*
X1514Y370D01*
X1514Y368D01*
X1516Y368D01*
X1516Y366D01*
X1520Y366D01*
X1520Y364D01*
X1522Y364D01*
X1522Y362D01*
X1524Y362D01*
X1524Y358D01*
X1526Y358D01*
X1526Y356D01*
X1528Y356D01*
X1528Y352D01*
X1530Y352D01*
X1530Y350D01*
X1532Y350D01*
X1532Y344D01*
X1552Y344D01*
X1552Y394D01*
X810Y394D01*
G37*
D02*
G36*
X512Y392D02*
X512Y390D01*
X766Y390D01*
X766Y392D01*
X512Y392D01*
G37*
D02*
G36*
X512Y392D02*
X512Y390D01*
X766Y390D01*
X766Y392D01*
X512Y392D01*
G37*
D02*
G36*
X512Y390D02*
X512Y372D01*
X516Y372D01*
X516Y370D01*
X518Y370D01*
X518Y368D01*
X520Y368D01*
X520Y366D01*
X522Y366D01*
X522Y364D01*
X650Y364D01*
X650Y292D01*
X766Y292D01*
X766Y390D01*
X512Y390D01*
G37*
D02*
G36*
X40Y384D02*
X40Y382D01*
X166Y382D01*
X166Y384D01*
X40Y384D01*
G37*
D02*
G36*
X40Y384D02*
X40Y382D01*
X166Y382D01*
X166Y384D01*
X40Y384D01*
G37*
D02*
G36*
X40Y382D02*
X40Y280D01*
X136Y280D01*
X136Y382D01*
X40Y382D01*
G37*
D02*
G36*
X810Y378D02*
X810Y366D01*
X1026Y366D01*
X1026Y348D01*
X1046Y348D01*
X1046Y352D01*
X1048Y352D01*
X1048Y356D01*
X1050Y356D01*
X1050Y358D01*
X1052Y358D01*
X1052Y360D01*
X1054Y360D01*
X1054Y362D01*
X1056Y362D01*
X1056Y364D01*
X1058Y364D01*
X1058Y366D01*
X1060Y366D01*
X1060Y368D01*
X1062Y368D01*
X1062Y370D01*
X1064Y370D01*
X1064Y372D01*
X1068Y372D01*
X1068Y374D01*
X1072Y374D01*
X1072Y376D01*
X1078Y376D01*
X1078Y378D01*
X810Y378D01*
G37*
D02*
G36*
X1098Y378D02*
X1098Y376D01*
X1104Y376D01*
X1104Y374D01*
X1108Y374D01*
X1108Y372D01*
X1112Y372D01*
X1112Y370D01*
X1114Y370D01*
X1114Y368D01*
X1116Y368D01*
X1116Y366D01*
X1120Y366D01*
X1120Y364D01*
X1122Y364D01*
X1122Y362D01*
X1124Y362D01*
X1124Y358D01*
X1126Y358D01*
X1126Y356D01*
X1128Y356D01*
X1128Y352D01*
X1130Y352D01*
X1130Y350D01*
X1132Y350D01*
X1132Y344D01*
X1134Y344D01*
X1134Y338D01*
X1136Y338D01*
X1136Y324D01*
X1134Y324D01*
X1134Y316D01*
X1132Y316D01*
X1132Y312D01*
X1130Y312D01*
X1130Y308D01*
X1128Y308D01*
X1128Y306D01*
X1126Y306D01*
X1126Y304D01*
X1124Y304D01*
X1124Y300D01*
X1122Y300D01*
X1122Y298D01*
X1120Y298D01*
X1120Y296D01*
X1118Y296D01*
X1118Y294D01*
X1114Y294D01*
X1114Y292D01*
X1112Y292D01*
X1112Y270D01*
X1114Y270D01*
X1114Y268D01*
X1116Y268D01*
X1116Y266D01*
X1120Y266D01*
X1120Y264D01*
X1122Y264D01*
X1122Y262D01*
X1124Y262D01*
X1124Y258D01*
X1126Y258D01*
X1126Y256D01*
X1128Y256D01*
X1128Y252D01*
X1130Y252D01*
X1130Y250D01*
X1132Y250D01*
X1132Y244D01*
X1134Y244D01*
X1134Y238D01*
X1136Y238D01*
X1136Y224D01*
X1134Y224D01*
X1134Y216D01*
X1132Y216D01*
X1132Y212D01*
X1130Y212D01*
X1130Y208D01*
X1128Y208D01*
X1128Y206D01*
X1126Y206D01*
X1126Y204D01*
X1124Y204D01*
X1124Y200D01*
X1122Y200D01*
X1122Y198D01*
X1120Y198D01*
X1120Y196D01*
X1118Y196D01*
X1118Y194D01*
X1114Y194D01*
X1114Y192D01*
X1112Y192D01*
X1112Y190D01*
X1108Y190D01*
X1108Y188D01*
X1104Y188D01*
X1104Y186D01*
X1098Y186D01*
X1098Y184D01*
X1478Y184D01*
X1478Y186D01*
X1472Y186D01*
X1472Y188D01*
X1468Y188D01*
X1468Y190D01*
X1464Y190D01*
X1464Y192D01*
X1462Y192D01*
X1462Y194D01*
X1460Y194D01*
X1460Y196D01*
X1458Y196D01*
X1458Y198D01*
X1456Y198D01*
X1456Y200D01*
X1454Y200D01*
X1454Y202D01*
X1452Y202D01*
X1452Y204D01*
X1450Y204D01*
X1450Y206D01*
X1448Y206D01*
X1448Y210D01*
X1446Y210D01*
X1446Y214D01*
X1444Y214D01*
X1444Y218D01*
X1442Y218D01*
X1442Y226D01*
X1440Y226D01*
X1440Y236D01*
X1442Y236D01*
X1442Y244D01*
X1444Y244D01*
X1444Y248D01*
X1446Y248D01*
X1446Y252D01*
X1448Y252D01*
X1448Y256D01*
X1450Y256D01*
X1450Y258D01*
X1452Y258D01*
X1452Y260D01*
X1454Y260D01*
X1454Y262D01*
X1456Y262D01*
X1456Y264D01*
X1458Y264D01*
X1458Y266D01*
X1460Y266D01*
X1460Y268D01*
X1462Y268D01*
X1462Y270D01*
X1464Y270D01*
X1464Y292D01*
X1462Y292D01*
X1462Y294D01*
X1460Y294D01*
X1460Y296D01*
X1458Y296D01*
X1458Y298D01*
X1456Y298D01*
X1456Y300D01*
X1454Y300D01*
X1454Y302D01*
X1452Y302D01*
X1452Y304D01*
X1450Y304D01*
X1450Y306D01*
X1448Y306D01*
X1448Y310D01*
X1446Y310D01*
X1446Y314D01*
X1444Y314D01*
X1444Y318D01*
X1442Y318D01*
X1442Y326D01*
X1440Y326D01*
X1440Y336D01*
X1442Y336D01*
X1442Y344D01*
X1444Y344D01*
X1444Y348D01*
X1446Y348D01*
X1446Y352D01*
X1448Y352D01*
X1448Y356D01*
X1450Y356D01*
X1450Y358D01*
X1452Y358D01*
X1452Y360D01*
X1454Y360D01*
X1454Y362D01*
X1456Y362D01*
X1456Y364D01*
X1458Y364D01*
X1458Y366D01*
X1460Y366D01*
X1460Y368D01*
X1462Y368D01*
X1462Y370D01*
X1464Y370D01*
X1464Y372D01*
X1468Y372D01*
X1468Y374D01*
X1472Y374D01*
X1472Y376D01*
X1478Y376D01*
X1478Y378D01*
X1098Y378D01*
G37*
D02*
G36*
X810Y366D02*
X810Y170D01*
X814Y170D01*
X814Y168D01*
X816Y168D01*
X816Y166D01*
X818Y166D01*
X818Y164D01*
X820Y164D01*
X820Y162D01*
X822Y162D01*
X822Y160D01*
X824Y160D01*
X824Y158D01*
X846Y158D01*
X846Y162D01*
X848Y162D01*
X848Y164D01*
X850Y164D01*
X850Y168D01*
X852Y168D01*
X852Y170D01*
X854Y170D01*
X854Y172D01*
X856Y172D01*
X856Y174D01*
X858Y174D01*
X858Y176D01*
X860Y176D01*
X860Y178D01*
X862Y178D01*
X862Y180D01*
X866Y180D01*
X866Y308D01*
X868Y308D01*
X868Y340D01*
X870Y340D01*
X870Y344D01*
X872Y344D01*
X872Y346D01*
X874Y346D01*
X874Y348D01*
X876Y348D01*
X876Y350D01*
X878Y350D01*
X878Y352D01*
X884Y352D01*
X884Y354D01*
X950Y354D01*
X950Y366D01*
X810Y366D01*
G37*
D02*
G36*
X524Y364D02*
X524Y362D01*
X526Y362D01*
X526Y360D01*
X528Y360D01*
X528Y356D01*
X530Y356D01*
X530Y354D01*
X532Y354D01*
X532Y350D01*
X534Y350D01*
X534Y344D01*
X536Y344D01*
X536Y334D01*
X538Y334D01*
X538Y328D01*
X536Y328D01*
X536Y318D01*
X534Y318D01*
X534Y312D01*
X532Y312D01*
X532Y308D01*
X530Y308D01*
X530Y306D01*
X528Y306D01*
X528Y302D01*
X526Y302D01*
X526Y300D01*
X524Y300D01*
X524Y298D01*
X522Y298D01*
X522Y296D01*
X520Y296D01*
X520Y294D01*
X518Y294D01*
X518Y292D01*
X576Y292D01*
X576Y364D01*
X524Y364D01*
G37*
D02*
G36*
X516Y292D02*
X516Y290D01*
X766Y290D01*
X766Y292D01*
X516Y292D01*
G37*
D02*
G36*
X516Y292D02*
X516Y290D01*
X766Y290D01*
X766Y292D01*
X516Y292D01*
G37*
D02*
G36*
X514Y290D02*
X514Y288D01*
X510Y288D01*
X510Y286D01*
X506Y286D01*
X506Y284D01*
X502Y284D01*
X502Y282D01*
X496Y282D01*
X496Y280D01*
X766Y280D01*
X766Y290D01*
X514Y290D01*
G37*
D02*
G36*
X40Y280D02*
X40Y278D01*
X766Y278D01*
X766Y280D01*
X40Y280D01*
G37*
D02*
G36*
X40Y280D02*
X40Y278D01*
X766Y278D01*
X766Y280D01*
X40Y280D01*
G37*
D02*
G36*
X40Y280D02*
X40Y278D01*
X766Y278D01*
X766Y280D01*
X40Y280D01*
G37*
D02*
G36*
X40Y278D02*
X40Y264D01*
X650Y264D01*
X650Y192D01*
X608Y192D01*
X608Y188D01*
X696Y188D01*
X696Y186D01*
X702Y186D01*
X702Y184D01*
X708Y184D01*
X708Y182D01*
X710Y182D01*
X710Y180D01*
X714Y180D01*
X714Y178D01*
X716Y178D01*
X716Y176D01*
X718Y176D01*
X718Y174D01*
X720Y174D01*
X720Y172D01*
X722Y172D01*
X722Y170D01*
X724Y170D01*
X724Y168D01*
X726Y168D01*
X726Y166D01*
X728Y166D01*
X728Y162D01*
X730Y162D01*
X730Y158D01*
X752Y158D01*
X752Y160D01*
X754Y160D01*
X754Y162D01*
X756Y162D01*
X756Y164D01*
X758Y164D01*
X758Y166D01*
X760Y166D01*
X760Y168D01*
X762Y168D01*
X762Y170D01*
X766Y170D01*
X766Y278D01*
X40Y278D01*
G37*
D02*
G36*
X40Y264D02*
X40Y188D01*
X496Y188D01*
X496Y186D01*
X502Y186D01*
X502Y184D01*
X508Y184D01*
X508Y182D01*
X510Y182D01*
X510Y180D01*
X514Y180D01*
X514Y178D01*
X516Y178D01*
X516Y176D01*
X518Y176D01*
X518Y174D01*
X520Y174D01*
X520Y172D01*
X522Y172D01*
X522Y170D01*
X524Y170D01*
X524Y168D01*
X526Y168D01*
X526Y166D01*
X528Y166D01*
X528Y162D01*
X530Y162D01*
X530Y158D01*
X552Y158D01*
X552Y160D01*
X554Y160D01*
X554Y162D01*
X556Y162D01*
X556Y164D01*
X558Y164D01*
X558Y166D01*
X560Y166D01*
X560Y168D01*
X562Y168D01*
X562Y170D01*
X566Y170D01*
X566Y172D01*
X570Y172D01*
X570Y174D01*
X574Y174D01*
X574Y176D01*
X576Y176D01*
X576Y264D01*
X40Y264D01*
G37*
D02*
G36*
X1532Y216D02*
X1532Y212D01*
X1530Y212D01*
X1530Y208D01*
X1528Y208D01*
X1528Y206D01*
X1526Y206D01*
X1526Y204D01*
X1524Y204D01*
X1524Y200D01*
X1522Y200D01*
X1522Y198D01*
X1520Y198D01*
X1520Y196D01*
X1518Y196D01*
X1518Y194D01*
X1514Y194D01*
X1514Y192D01*
X1512Y192D01*
X1512Y190D01*
X1508Y190D01*
X1508Y188D01*
X1504Y188D01*
X1504Y186D01*
X1498Y186D01*
X1498Y184D01*
X1552Y184D01*
X1552Y216D01*
X1532Y216D01*
G37*
D02*
G36*
X1026Y214D02*
X1026Y196D01*
X996Y196D01*
X996Y184D01*
X1078Y184D01*
X1078Y186D01*
X1072Y186D01*
X1072Y188D01*
X1068Y188D01*
X1068Y190D01*
X1064Y190D01*
X1064Y192D01*
X1062Y192D01*
X1062Y194D01*
X1060Y194D01*
X1060Y196D01*
X1058Y196D01*
X1058Y198D01*
X1056Y198D01*
X1056Y200D01*
X1054Y200D01*
X1054Y202D01*
X1052Y202D01*
X1052Y204D01*
X1050Y204D01*
X1050Y206D01*
X1048Y206D01*
X1048Y210D01*
X1046Y210D01*
X1046Y214D01*
X1026Y214D01*
G37*
D02*
G36*
X40Y188D02*
X40Y94D01*
X480Y94D01*
X480Y96D01*
X474Y96D01*
X474Y98D01*
X468Y98D01*
X468Y100D01*
X466Y100D01*
X466Y102D01*
X462Y102D01*
X462Y104D01*
X460Y104D01*
X460Y106D01*
X458Y106D01*
X458Y108D01*
X456Y108D01*
X456Y110D01*
X454Y110D01*
X454Y112D01*
X452Y112D01*
X452Y114D01*
X450Y114D01*
X450Y118D01*
X448Y118D01*
X448Y120D01*
X446Y120D01*
X446Y124D01*
X444Y124D01*
X444Y130D01*
X442Y130D01*
X442Y152D01*
X444Y152D01*
X444Y158D01*
X446Y158D01*
X446Y162D01*
X448Y162D01*
X448Y164D01*
X450Y164D01*
X450Y168D01*
X452Y168D01*
X452Y170D01*
X454Y170D01*
X454Y172D01*
X456Y172D01*
X456Y174D01*
X458Y174D01*
X458Y176D01*
X460Y176D01*
X460Y178D01*
X462Y178D01*
X462Y180D01*
X466Y180D01*
X466Y182D01*
X470Y182D01*
X470Y184D01*
X474Y184D01*
X474Y186D01*
X480Y186D01*
X480Y188D01*
X40Y188D01*
G37*
D02*
G36*
X608Y188D02*
X608Y172D01*
X610Y172D01*
X610Y170D01*
X614Y170D01*
X614Y168D01*
X616Y168D01*
X616Y166D01*
X618Y166D01*
X618Y164D01*
X620Y164D01*
X620Y162D01*
X622Y162D01*
X622Y160D01*
X624Y160D01*
X624Y158D01*
X646Y158D01*
X646Y162D01*
X648Y162D01*
X648Y164D01*
X650Y164D01*
X650Y168D01*
X652Y168D01*
X652Y170D01*
X654Y170D01*
X654Y172D01*
X656Y172D01*
X656Y174D01*
X658Y174D01*
X658Y176D01*
X660Y176D01*
X660Y178D01*
X662Y178D01*
X662Y180D01*
X666Y180D01*
X666Y182D01*
X670Y182D01*
X670Y184D01*
X674Y184D01*
X674Y186D01*
X680Y186D01*
X680Y188D01*
X608Y188D01*
G37*
D02*
G36*
X996Y184D02*
X996Y182D01*
X1552Y182D01*
X1552Y184D01*
X996Y184D01*
G37*
D02*
G36*
X996Y184D02*
X996Y182D01*
X1552Y182D01*
X1552Y184D01*
X996Y184D01*
G37*
D02*
G36*
X996Y184D02*
X996Y182D01*
X1552Y182D01*
X1552Y184D01*
X996Y184D01*
G37*
D02*
G36*
X996Y182D02*
X996Y176D01*
X1002Y176D01*
X1002Y174D01*
X1008Y174D01*
X1008Y172D01*
X1010Y172D01*
X1010Y170D01*
X1014Y170D01*
X1014Y168D01*
X1016Y168D01*
X1016Y166D01*
X1018Y166D01*
X1018Y164D01*
X1020Y164D01*
X1020Y162D01*
X1022Y162D01*
X1022Y160D01*
X1024Y160D01*
X1024Y158D01*
X1026Y158D01*
X1026Y156D01*
X1028Y156D01*
X1028Y152D01*
X1030Y152D01*
X1030Y148D01*
X1032Y148D01*
X1032Y144D01*
X1034Y144D01*
X1034Y134D01*
X1036Y134D01*
X1036Y128D01*
X1034Y128D01*
X1034Y118D01*
X1032Y118D01*
X1032Y114D01*
X1030Y114D01*
X1030Y110D01*
X1028Y110D01*
X1028Y106D01*
X1026Y106D01*
X1026Y104D01*
X1024Y104D01*
X1024Y102D01*
X1022Y102D01*
X1022Y100D01*
X1020Y100D01*
X1020Y98D01*
X1018Y98D01*
X1018Y96D01*
X1016Y96D01*
X1016Y94D01*
X1014Y94D01*
X1014Y92D01*
X1010Y92D01*
X1010Y90D01*
X1008Y90D01*
X1008Y88D01*
X1004Y88D01*
X1004Y86D01*
X998Y86D01*
X998Y84D01*
X1552Y84D01*
X1552Y182D01*
X996Y182D01*
G37*
D02*
G36*
X524Y114D02*
X524Y112D01*
X522Y112D01*
X522Y110D01*
X520Y110D01*
X520Y108D01*
X518Y108D01*
X518Y106D01*
X516Y106D01*
X516Y104D01*
X514Y104D01*
X514Y102D01*
X510Y102D01*
X510Y100D01*
X508Y100D01*
X508Y98D01*
X504Y98D01*
X504Y96D01*
X498Y96D01*
X498Y94D01*
X560Y94D01*
X560Y96D01*
X558Y96D01*
X558Y98D01*
X556Y98D01*
X556Y100D01*
X554Y100D01*
X554Y102D01*
X552Y102D01*
X552Y104D01*
X550Y104D01*
X550Y108D01*
X548Y108D01*
X548Y110D01*
X546Y110D01*
X546Y114D01*
X524Y114D01*
G37*
D02*
G36*
X630Y114D02*
X630Y110D01*
X628Y110D01*
X628Y106D01*
X626Y106D01*
X626Y104D01*
X624Y104D01*
X624Y102D01*
X622Y102D01*
X622Y100D01*
X620Y100D01*
X620Y98D01*
X618Y98D01*
X618Y96D01*
X616Y96D01*
X616Y94D01*
X680Y94D01*
X680Y96D01*
X674Y96D01*
X674Y98D01*
X668Y98D01*
X668Y100D01*
X666Y100D01*
X666Y102D01*
X662Y102D01*
X662Y104D01*
X660Y104D01*
X660Y106D01*
X658Y106D01*
X658Y108D01*
X656Y108D01*
X656Y110D01*
X654Y110D01*
X654Y112D01*
X652Y112D01*
X652Y114D01*
X630Y114D01*
G37*
D02*
G36*
X724Y114D02*
X724Y112D01*
X722Y112D01*
X722Y110D01*
X720Y110D01*
X720Y108D01*
X718Y108D01*
X718Y106D01*
X716Y106D01*
X716Y104D01*
X714Y104D01*
X714Y102D01*
X710Y102D01*
X710Y100D01*
X708Y100D01*
X708Y98D01*
X704Y98D01*
X704Y96D01*
X698Y96D01*
X698Y94D01*
X760Y94D01*
X760Y96D01*
X758Y96D01*
X758Y98D01*
X756Y98D01*
X756Y100D01*
X754Y100D01*
X754Y102D01*
X752Y102D01*
X752Y104D01*
X750Y104D01*
X750Y108D01*
X748Y108D01*
X748Y110D01*
X746Y110D01*
X746Y114D01*
X724Y114D01*
G37*
D02*
G36*
X830Y114D02*
X830Y110D01*
X828Y110D01*
X828Y106D01*
X826Y106D01*
X826Y104D01*
X824Y104D01*
X824Y102D01*
X822Y102D01*
X822Y100D01*
X820Y100D01*
X820Y98D01*
X818Y98D01*
X818Y96D01*
X816Y96D01*
X816Y94D01*
X880Y94D01*
X880Y96D01*
X874Y96D01*
X874Y98D01*
X868Y98D01*
X868Y100D01*
X866Y100D01*
X866Y102D01*
X862Y102D01*
X862Y104D01*
X860Y104D01*
X860Y106D01*
X858Y106D01*
X858Y108D01*
X856Y108D01*
X856Y110D01*
X854Y110D01*
X854Y112D01*
X852Y112D01*
X852Y114D01*
X830Y114D01*
G37*
D02*
G36*
X924Y114D02*
X924Y112D01*
X922Y112D01*
X922Y110D01*
X920Y110D01*
X920Y108D01*
X918Y108D01*
X918Y106D01*
X916Y106D01*
X916Y104D01*
X914Y104D01*
X914Y102D01*
X910Y102D01*
X910Y100D01*
X908Y100D01*
X908Y98D01*
X904Y98D01*
X904Y96D01*
X898Y96D01*
X898Y94D01*
X960Y94D01*
X960Y96D01*
X958Y96D01*
X958Y98D01*
X956Y98D01*
X956Y100D01*
X954Y100D01*
X954Y102D01*
X952Y102D01*
X952Y104D01*
X950Y104D01*
X950Y108D01*
X948Y108D01*
X948Y110D01*
X946Y110D01*
X946Y114D01*
X924Y114D01*
G37*
D02*
G36*
X40Y94D02*
X40Y92D01*
X562Y92D01*
X562Y94D01*
X40Y94D01*
G37*
D02*
G36*
X40Y94D02*
X40Y92D01*
X562Y92D01*
X562Y94D01*
X40Y94D01*
G37*
D02*
G36*
X614Y94D02*
X614Y92D01*
X762Y92D01*
X762Y94D01*
X614Y94D01*
G37*
D02*
G36*
X614Y94D02*
X614Y92D01*
X762Y92D01*
X762Y94D01*
X614Y94D01*
G37*
D02*
G36*
X814Y94D02*
X814Y92D01*
X962Y92D01*
X962Y94D01*
X814Y94D01*
G37*
D02*
G36*
X814Y94D02*
X814Y92D01*
X962Y92D01*
X962Y94D01*
X814Y94D01*
G37*
D02*
G36*
X40Y92D02*
X40Y84D01*
X580Y84D01*
X580Y86D01*
X574Y86D01*
X574Y88D01*
X568Y88D01*
X568Y90D01*
X566Y90D01*
X566Y92D01*
X40Y92D01*
G37*
D02*
G36*
X610Y92D02*
X610Y90D01*
X608Y90D01*
X608Y88D01*
X604Y88D01*
X604Y86D01*
X598Y86D01*
X598Y84D01*
X780Y84D01*
X780Y86D01*
X774Y86D01*
X774Y88D01*
X768Y88D01*
X768Y90D01*
X766Y90D01*
X766Y92D01*
X610Y92D01*
G37*
D02*
G36*
X810Y92D02*
X810Y90D01*
X808Y90D01*
X808Y88D01*
X804Y88D01*
X804Y86D01*
X798Y86D01*
X798Y84D01*
X980Y84D01*
X980Y86D01*
X974Y86D01*
X974Y88D01*
X968Y88D01*
X968Y90D01*
X966Y90D01*
X966Y92D01*
X810Y92D01*
G37*
D02*
G36*
X40Y84D02*
X40Y82D01*
X1552Y82D01*
X1552Y84D01*
X40Y84D01*
G37*
D02*
G36*
X40Y84D02*
X40Y82D01*
X1552Y82D01*
X1552Y84D01*
X40Y84D01*
G37*
D02*
G36*
X40Y84D02*
X40Y82D01*
X1552Y82D01*
X1552Y84D01*
X40Y84D01*
G37*
D02*
G36*
X40Y84D02*
X40Y82D01*
X1552Y82D01*
X1552Y84D01*
X40Y84D01*
G37*
D02*
G36*
X40Y82D02*
X40Y40D01*
X1552Y40D01*
X1552Y82D01*
X40Y82D01*
G37*
D02*
G36*
X1532Y316D02*
X1532Y312D01*
X1530Y312D01*
X1530Y308D01*
X1528Y308D01*
X1528Y306D01*
X1526Y306D01*
X1526Y304D01*
X1524Y304D01*
X1524Y300D01*
X1522Y300D01*
X1522Y298D01*
X1520Y298D01*
X1520Y296D01*
X1518Y296D01*
X1518Y294D01*
X1514Y294D01*
X1514Y292D01*
X1512Y292D01*
X1512Y270D01*
X1514Y270D01*
X1514Y268D01*
X1516Y268D01*
X1516Y266D01*
X1520Y266D01*
X1520Y264D01*
X1522Y264D01*
X1522Y262D01*
X1524Y262D01*
X1524Y258D01*
X1526Y258D01*
X1526Y256D01*
X1528Y256D01*
X1528Y252D01*
X1530Y252D01*
X1530Y250D01*
X1532Y250D01*
X1532Y244D01*
X1552Y244D01*
X1552Y316D01*
X1532Y316D01*
G37*
D02*
G36*
X1026Y314D02*
X1026Y296D01*
X1058Y296D01*
X1058Y298D01*
X1056Y298D01*
X1056Y300D01*
X1054Y300D01*
X1054Y302D01*
X1052Y302D01*
X1052Y304D01*
X1050Y304D01*
X1050Y306D01*
X1048Y306D01*
X1048Y310D01*
X1046Y310D01*
X1046Y314D01*
X1026Y314D01*
G37*
D02*
G36*
X912Y310D02*
X912Y306D01*
X910Y306D01*
X910Y296D01*
X950Y296D01*
X950Y310D01*
X912Y310D01*
G37*
D02*
G36*
X910Y296D02*
X910Y294D01*
X1060Y294D01*
X1060Y296D01*
X910Y296D01*
G37*
D02*
G36*
X910Y296D02*
X910Y294D01*
X1060Y294D01*
X1060Y296D01*
X910Y296D01*
G37*
D02*
G36*
X910Y294D02*
X910Y266D01*
X1026Y266D01*
X1026Y248D01*
X1046Y248D01*
X1046Y252D01*
X1048Y252D01*
X1048Y256D01*
X1050Y256D01*
X1050Y258D01*
X1052Y258D01*
X1052Y260D01*
X1054Y260D01*
X1054Y262D01*
X1056Y262D01*
X1056Y264D01*
X1058Y264D01*
X1058Y266D01*
X1060Y266D01*
X1060Y268D01*
X1062Y268D01*
X1062Y270D01*
X1064Y270D01*
X1064Y292D01*
X1062Y292D01*
X1062Y294D01*
X910Y294D01*
G37*
D02*
G36*
X910Y266D02*
X910Y180D01*
X914Y180D01*
X914Y178D01*
X916Y178D01*
X916Y176D01*
X918Y176D01*
X918Y174D01*
X920Y174D01*
X920Y172D01*
X922Y172D01*
X922Y170D01*
X924Y170D01*
X924Y168D01*
X926Y168D01*
X926Y166D01*
X928Y166D01*
X928Y162D01*
X930Y162D01*
X930Y158D01*
X952Y158D01*
X952Y160D01*
X954Y160D01*
X954Y162D01*
X956Y162D01*
X956Y164D01*
X958Y164D01*
X958Y166D01*
X960Y166D01*
X960Y168D01*
X962Y168D01*
X962Y170D01*
X966Y170D01*
X966Y172D01*
X970Y172D01*
X970Y174D01*
X974Y174D01*
X974Y176D01*
X980Y176D01*
X980Y196D01*
X950Y196D01*
X950Y266D01*
X910Y266D01*
G37*
D02*
G36*
X946Y245D02*
X986Y245D01*
X986Y220D01*
X946Y220D01*
X946Y245D01*
G37*
D02*
G36*
X1069Y216D02*
X1106Y216D01*
X1106Y184D01*
X1069Y184D01*
X1069Y216D01*
G37*
D02*
G36*
X1170Y580D02*
X1205Y580D01*
X1205Y548D01*
X1170Y548D01*
X1170Y580D01*
G37*
D02*
G36*
X1202Y550D02*
X1234Y550D01*
X1234Y515D01*
X1202Y515D01*
X1202Y550D01*
G37*
D02*
G36*
X569Y182D02*
X606Y182D01*
X606Y152D01*
X569Y152D01*
X569Y182D01*
G37*
D02*
G36*
X569Y114D02*
X606Y114D01*
X606Y84D01*
X569Y84D01*
X569Y114D01*
G37*
D02*
G04 End of Copper0*
M02*