G04 #@! TF.GenerationSoftware,KiCad,Pcbnew,(5.1.5)-3*
G04 #@! TF.CreationDate,2020-02-23T12:43:37-05:00*
G04 #@! TF.ProjectId,Zynth-encoder_power_display_fan,5a796e74-682d-4656-9e63-6f6465725f70,rev?*
G04 #@! TF.SameCoordinates,Original*
G04 #@! TF.FileFunction,Legend,Top*
G04 #@! TF.FilePolarity,Positive*
%FSLAX46Y46*%
G04 Gerber Fmt 4.6, Leading zero omitted, Abs format (unit mm)*
G04 Created by KiCad (PCBNEW (5.1.5)-3) date 2020-02-23 12:43:37*
%MOMM*%
%LPD*%
G04 APERTURE LIST*
%ADD10C,0.150000*%
%ADD11C,0.090000*%
%ADD12C,0.187500*%
%ADD13C,0.125000*%
%ADD14C,0.300000*%
%ADD15C,0.120000*%
G04 APERTURE END LIST*
D10*
X131678571Y-73581071D02*
X131678571Y-73914404D01*
X132202380Y-73914404D02*
X131202380Y-73914404D01*
X131202380Y-73438214D01*
X132202380Y-72628690D02*
X131678571Y-72628690D01*
X131583333Y-72676309D01*
X131535714Y-72771547D01*
X131535714Y-72962023D01*
X131583333Y-73057261D01*
X132154761Y-72628690D02*
X132202380Y-72723928D01*
X132202380Y-72962023D01*
X132154761Y-73057261D01*
X132059523Y-73104880D01*
X131964285Y-73104880D01*
X131869047Y-73057261D01*
X131821428Y-72962023D01*
X131821428Y-72723928D01*
X131773809Y-72628690D01*
X131535714Y-72152500D02*
X132202380Y-72152500D01*
X131630952Y-72152500D02*
X131583333Y-72104880D01*
X131535714Y-72009642D01*
X131535714Y-71866785D01*
X131583333Y-71771547D01*
X131678571Y-71723928D01*
X132202380Y-71723928D01*
X131250000Y-69962023D02*
X131202380Y-70057261D01*
X131202380Y-70200119D01*
X131250000Y-70342976D01*
X131345238Y-70438214D01*
X131440476Y-70485833D01*
X131630952Y-70533452D01*
X131773809Y-70533452D01*
X131964285Y-70485833D01*
X132059523Y-70438214D01*
X132154761Y-70342976D01*
X132202380Y-70200119D01*
X132202380Y-70104880D01*
X132154761Y-69962023D01*
X132107142Y-69914404D01*
X131773809Y-69914404D01*
X131773809Y-70104880D01*
X132202380Y-69485833D02*
X131202380Y-69485833D01*
X131202380Y-69104880D01*
X131250000Y-69009642D01*
X131297619Y-68962023D01*
X131392857Y-68914404D01*
X131535714Y-68914404D01*
X131630952Y-68962023D01*
X131678571Y-69009642D01*
X131726190Y-69104880D01*
X131726190Y-69485833D01*
X132202380Y-68485833D02*
X131202380Y-68485833D01*
X131202380Y-67819166D02*
X131202380Y-67628690D01*
X131250000Y-67533452D01*
X131345238Y-67438214D01*
X131535714Y-67390595D01*
X131869047Y-67390595D01*
X132059523Y-67438214D01*
X132154761Y-67533452D01*
X132202380Y-67628690D01*
X132202380Y-67819166D01*
X132154761Y-67914404D01*
X132059523Y-68009642D01*
X131869047Y-68057261D01*
X131535714Y-68057261D01*
X131345238Y-68009642D01*
X131250000Y-67914404D01*
X131202380Y-67819166D01*
D11*
X101042857Y-99771428D02*
X101042857Y-99314285D01*
X101271428Y-99542857D02*
X100814285Y-99542857D01*
X100671428Y-98742857D02*
X100671428Y-99028571D01*
X100957142Y-99057142D01*
X100928571Y-99028571D01*
X100900000Y-98971428D01*
X100900000Y-98828571D01*
X100928571Y-98771428D01*
X100957142Y-98742857D01*
X101014285Y-98714285D01*
X101157142Y-98714285D01*
X101214285Y-98742857D01*
X101242857Y-98771428D01*
X101271428Y-98828571D01*
X101271428Y-98971428D01*
X101242857Y-99028571D01*
X101214285Y-99057142D01*
X100671428Y-98542857D02*
X101271428Y-98342857D01*
X100671428Y-98142857D01*
X80433857Y-100466428D02*
X80433857Y-100009285D01*
X80662428Y-100237857D02*
X80205285Y-100237857D01*
X80062428Y-99437857D02*
X80062428Y-99723571D01*
X80348142Y-99752142D01*
X80319571Y-99723571D01*
X80291000Y-99666428D01*
X80291000Y-99523571D01*
X80319571Y-99466428D01*
X80348142Y-99437857D01*
X80405285Y-99409285D01*
X80548142Y-99409285D01*
X80605285Y-99437857D01*
X80633857Y-99466428D01*
X80662428Y-99523571D01*
X80662428Y-99666428D01*
X80633857Y-99723571D01*
X80605285Y-99752142D01*
X80062428Y-99237857D02*
X80662428Y-99037857D01*
X80062428Y-98837857D01*
D12*
X139371178Y-79328553D02*
X139371178Y-79078553D01*
X139764035Y-78971410D02*
X139764035Y-79328553D01*
X139014035Y-79328553D01*
X139014035Y-78971410D01*
X139264035Y-78649982D02*
X139764035Y-78649982D01*
X139335464Y-78649982D02*
X139299750Y-78614267D01*
X139264035Y-78542839D01*
X139264035Y-78435696D01*
X139299750Y-78364267D01*
X139371178Y-78328553D01*
X139764035Y-78328553D01*
X139728321Y-77649982D02*
X139764035Y-77721410D01*
X139764035Y-77864267D01*
X139728321Y-77935696D01*
X139692607Y-77971410D01*
X139621178Y-78007125D01*
X139406892Y-78007125D01*
X139335464Y-77971410D01*
X139299750Y-77935696D01*
X139264035Y-77864267D01*
X139264035Y-77721410D01*
X139299750Y-77649982D01*
X139764035Y-77221410D02*
X139728321Y-77292839D01*
X139692607Y-77328553D01*
X139621178Y-77364267D01*
X139406892Y-77364267D01*
X139335464Y-77328553D01*
X139299750Y-77292839D01*
X139264035Y-77221410D01*
X139264035Y-77114267D01*
X139299750Y-77042839D01*
X139335464Y-77007125D01*
X139406892Y-76971410D01*
X139621178Y-76971410D01*
X139692607Y-77007125D01*
X139728321Y-77042839D01*
X139764035Y-77114267D01*
X139764035Y-77221410D01*
X139764035Y-76328553D02*
X139014035Y-76328553D01*
X139728321Y-76328553D02*
X139764035Y-76399982D01*
X139764035Y-76542839D01*
X139728321Y-76614267D01*
X139692607Y-76649982D01*
X139621178Y-76685696D01*
X139406892Y-76685696D01*
X139335464Y-76649982D01*
X139299750Y-76614267D01*
X139264035Y-76542839D01*
X139264035Y-76399982D01*
X139299750Y-76328553D01*
X139728321Y-75685696D02*
X139764035Y-75757125D01*
X139764035Y-75899982D01*
X139728321Y-75971410D01*
X139656892Y-76007125D01*
X139371178Y-76007125D01*
X139299750Y-75971410D01*
X139264035Y-75899982D01*
X139264035Y-75757125D01*
X139299750Y-75685696D01*
X139371178Y-75649982D01*
X139442607Y-75649982D01*
X139514035Y-76007125D01*
X139764035Y-75328553D02*
X139264035Y-75328553D01*
X139406892Y-75328553D02*
X139335464Y-75292839D01*
X139299750Y-75257125D01*
X139264035Y-75185696D01*
X139264035Y-75114267D01*
X139764035Y-74292839D02*
X139014035Y-74292839D01*
X139014035Y-74007125D01*
X139049750Y-73935696D01*
X139085464Y-73899982D01*
X139156892Y-73864267D01*
X139264035Y-73864267D01*
X139335464Y-73899982D01*
X139371178Y-73935696D01*
X139406892Y-74007125D01*
X139406892Y-74292839D01*
X139764035Y-73435696D02*
X139728321Y-73507125D01*
X139692607Y-73542839D01*
X139621178Y-73578553D01*
X139406892Y-73578553D01*
X139335464Y-73542839D01*
X139299750Y-73507125D01*
X139264035Y-73435696D01*
X139264035Y-73328553D01*
X139299750Y-73257125D01*
X139335464Y-73221410D01*
X139406892Y-73185696D01*
X139621178Y-73185696D01*
X139692607Y-73221410D01*
X139728321Y-73257125D01*
X139764035Y-73328553D01*
X139764035Y-73435696D01*
X139264035Y-72935696D02*
X139764035Y-72792839D01*
X139406892Y-72649982D01*
X139764035Y-72507125D01*
X139264035Y-72364267D01*
X139728321Y-71792839D02*
X139764035Y-71864267D01*
X139764035Y-72007125D01*
X139728321Y-72078553D01*
X139656892Y-72114267D01*
X139371178Y-72114267D01*
X139299750Y-72078553D01*
X139264035Y-72007125D01*
X139264035Y-71864267D01*
X139299750Y-71792839D01*
X139371178Y-71757125D01*
X139442607Y-71757125D01*
X139514035Y-72114267D01*
X139764035Y-71435696D02*
X139264035Y-71435696D01*
X139406892Y-71435696D02*
X139335464Y-71399982D01*
X139299750Y-71364267D01*
X139264035Y-71292839D01*
X139264035Y-71221410D01*
X141076535Y-79328553D02*
X140326535Y-79328553D01*
X140326535Y-79149982D01*
X140362250Y-79042839D01*
X140433678Y-78971410D01*
X140505107Y-78935696D01*
X140647964Y-78899982D01*
X140755107Y-78899982D01*
X140897964Y-78935696D01*
X140969392Y-78971410D01*
X141040821Y-79042839D01*
X141076535Y-79149982D01*
X141076535Y-79328553D01*
X141076535Y-78578553D02*
X140576535Y-78578553D01*
X140326535Y-78578553D02*
X140362250Y-78614267D01*
X140397964Y-78578553D01*
X140362250Y-78542839D01*
X140326535Y-78578553D01*
X140397964Y-78578553D01*
X141040821Y-78257125D02*
X141076535Y-78185696D01*
X141076535Y-78042839D01*
X141040821Y-77971410D01*
X140969392Y-77935696D01*
X140933678Y-77935696D01*
X140862250Y-77971410D01*
X140826535Y-78042839D01*
X140826535Y-78149982D01*
X140790821Y-78221410D01*
X140719392Y-78257125D01*
X140683678Y-78257125D01*
X140612250Y-78221410D01*
X140576535Y-78149982D01*
X140576535Y-78042839D01*
X140612250Y-77971410D01*
X140576535Y-77614267D02*
X141326535Y-77614267D01*
X140612250Y-77614267D02*
X140576535Y-77542839D01*
X140576535Y-77399982D01*
X140612250Y-77328553D01*
X140647964Y-77292839D01*
X140719392Y-77257125D01*
X140933678Y-77257125D01*
X141005107Y-77292839D01*
X141040821Y-77328553D01*
X141076535Y-77399982D01*
X141076535Y-77542839D01*
X141040821Y-77614267D01*
X141076535Y-76828553D02*
X141040821Y-76899982D01*
X140969392Y-76935696D01*
X140326535Y-76935696D01*
X141076535Y-76221410D02*
X140683678Y-76221410D01*
X140612250Y-76257125D01*
X140576535Y-76328553D01*
X140576535Y-76471410D01*
X140612250Y-76542839D01*
X141040821Y-76221410D02*
X141076535Y-76292839D01*
X141076535Y-76471410D01*
X141040821Y-76542839D01*
X140969392Y-76578553D01*
X140897964Y-76578553D01*
X140826535Y-76542839D01*
X140790821Y-76471410D01*
X140790821Y-76292839D01*
X140755107Y-76221410D01*
X140576535Y-75935696D02*
X141076535Y-75757125D01*
X140576535Y-75578553D02*
X141076535Y-75757125D01*
X141255107Y-75828553D01*
X141290821Y-75864267D01*
X141326535Y-75935696D01*
X140683678Y-74471410D02*
X140683678Y-74721410D01*
X141076535Y-74721410D02*
X140326535Y-74721410D01*
X140326535Y-74364267D01*
X141076535Y-73757125D02*
X140683678Y-73757125D01*
X140612250Y-73792839D01*
X140576535Y-73864267D01*
X140576535Y-74007125D01*
X140612250Y-74078553D01*
X141040821Y-73757125D02*
X141076535Y-73828553D01*
X141076535Y-74007125D01*
X141040821Y-74078553D01*
X140969392Y-74114267D01*
X140897964Y-74114267D01*
X140826535Y-74078553D01*
X140790821Y-74007125D01*
X140790821Y-73828553D01*
X140755107Y-73757125D01*
X140576535Y-73399982D02*
X141076535Y-73399982D01*
X140647964Y-73399982D02*
X140612250Y-73364267D01*
X140576535Y-73292839D01*
X140576535Y-73185696D01*
X140612250Y-73114267D01*
X140683678Y-73078553D01*
X141076535Y-73078553D01*
X140326535Y-72257125D02*
X141076535Y-72007125D01*
X140326535Y-71757125D01*
X141076535Y-71114267D02*
X141076535Y-71542839D01*
X141076535Y-71328553D02*
X140326535Y-71328553D01*
X140433678Y-71399982D01*
X140505107Y-71471410D01*
X140540821Y-71542839D01*
X141005107Y-70792839D02*
X141040821Y-70757125D01*
X141076535Y-70792839D01*
X141040821Y-70828553D01*
X141005107Y-70792839D01*
X141076535Y-70792839D01*
X140326535Y-70292839D02*
X140326535Y-70221410D01*
X140362250Y-70149982D01*
X140397964Y-70114267D01*
X140469392Y-70078553D01*
X140612250Y-70042839D01*
X140790821Y-70042839D01*
X140933678Y-70078553D01*
X141005107Y-70114267D01*
X141040821Y-70149982D01*
X141076535Y-70221410D01*
X141076535Y-70292839D01*
X141040821Y-70364267D01*
X141005107Y-70399982D01*
X140933678Y-70435696D01*
X140790821Y-70471410D01*
X140612250Y-70471410D01*
X140469392Y-70435696D01*
X140397964Y-70399982D01*
X140362250Y-70364267D01*
X140326535Y-70292839D01*
D13*
X142738000Y-79154892D02*
X142702285Y-79190607D01*
X142595142Y-79262035D01*
X142523714Y-79297750D01*
X142416571Y-79333464D01*
X142238000Y-79369178D01*
X142095142Y-79369178D01*
X141916571Y-79333464D01*
X141809428Y-79297750D01*
X141738000Y-79262035D01*
X141630857Y-79190607D01*
X141595142Y-79154892D01*
X142380857Y-78440607D02*
X142416571Y-78476321D01*
X142452285Y-78583464D01*
X142452285Y-78654892D01*
X142416571Y-78762035D01*
X142345142Y-78833464D01*
X142273714Y-78869178D01*
X142130857Y-78904892D01*
X142023714Y-78904892D01*
X141880857Y-78869178D01*
X141809428Y-78833464D01*
X141738000Y-78762035D01*
X141702285Y-78654892D01*
X141702285Y-78583464D01*
X141738000Y-78476321D01*
X141773714Y-78440607D01*
X142738000Y-78190607D02*
X142702285Y-78154892D01*
X142595142Y-78083464D01*
X142523714Y-78047750D01*
X142416571Y-78012035D01*
X142238000Y-77976321D01*
X142095142Y-77976321D01*
X141916571Y-78012035D01*
X141809428Y-78047750D01*
X141738000Y-78083464D01*
X141630857Y-78154892D01*
X141595142Y-78190607D01*
X141773714Y-77654892D02*
X141738000Y-77619178D01*
X141702285Y-77547750D01*
X141702285Y-77369178D01*
X141738000Y-77297750D01*
X141773714Y-77262035D01*
X141845142Y-77226321D01*
X141916571Y-77226321D01*
X142023714Y-77262035D01*
X142452285Y-77690607D01*
X142452285Y-77226321D01*
X141702285Y-76762035D02*
X141702285Y-76690607D01*
X141738000Y-76619178D01*
X141773714Y-76583464D01*
X141845142Y-76547750D01*
X141988000Y-76512035D01*
X142166571Y-76512035D01*
X142309428Y-76547750D01*
X142380857Y-76583464D01*
X142416571Y-76619178D01*
X142452285Y-76690607D01*
X142452285Y-76762035D01*
X142416571Y-76833464D01*
X142380857Y-76869178D01*
X142309428Y-76904892D01*
X142166571Y-76940607D01*
X141988000Y-76940607D01*
X141845142Y-76904892D01*
X141773714Y-76869178D01*
X141738000Y-76833464D01*
X141702285Y-76762035D01*
X141773714Y-76226321D02*
X141738000Y-76190607D01*
X141702285Y-76119178D01*
X141702285Y-75940607D01*
X141738000Y-75869178D01*
X141773714Y-75833464D01*
X141845142Y-75797750D01*
X141916571Y-75797750D01*
X142023714Y-75833464D01*
X142452285Y-76262035D01*
X142452285Y-75797750D01*
X141702285Y-75333464D02*
X141702285Y-75262035D01*
X141738000Y-75190607D01*
X141773714Y-75154892D01*
X141845142Y-75119178D01*
X141988000Y-75083464D01*
X142166571Y-75083464D01*
X142309428Y-75119178D01*
X142380857Y-75154892D01*
X142416571Y-75190607D01*
X142452285Y-75262035D01*
X142452285Y-75333464D01*
X142416571Y-75404892D01*
X142380857Y-75440607D01*
X142309428Y-75476321D01*
X142166571Y-75512035D01*
X141988000Y-75512035D01*
X141845142Y-75476321D01*
X141773714Y-75440607D01*
X141738000Y-75404892D01*
X141702285Y-75333464D01*
X142416571Y-74226321D02*
X142452285Y-74119178D01*
X142452285Y-73940607D01*
X142416571Y-73869178D01*
X142380857Y-73833464D01*
X142309428Y-73797750D01*
X142238000Y-73797750D01*
X142166571Y-73833464D01*
X142130857Y-73869178D01*
X142095142Y-73940607D01*
X142059428Y-74083464D01*
X142023714Y-74154892D01*
X141988000Y-74190607D01*
X141916571Y-74226321D01*
X141845142Y-74226321D01*
X141773714Y-74190607D01*
X141738000Y-74154892D01*
X141702285Y-74083464D01*
X141702285Y-73904892D01*
X141738000Y-73797750D01*
X141702285Y-73547750D02*
X141702285Y-73047750D01*
X142452285Y-73369178D01*
X141702285Y-72833464D02*
X141702285Y-72369178D01*
X141988000Y-72619178D01*
X141988000Y-72512035D01*
X142023714Y-72440607D01*
X142059428Y-72404892D01*
X142130857Y-72369178D01*
X142309428Y-72369178D01*
X142380857Y-72404892D01*
X142416571Y-72440607D01*
X142452285Y-72512035D01*
X142452285Y-72726321D01*
X142416571Y-72797750D01*
X142380857Y-72833464D01*
X141702285Y-72154892D02*
X142452285Y-71904892D01*
X141702285Y-71654892D01*
X141702285Y-71476321D02*
X141702285Y-71012035D01*
X141988000Y-71262035D01*
X141988000Y-71154892D01*
X142023714Y-71083464D01*
X142059428Y-71047750D01*
X142130857Y-71012035D01*
X142309428Y-71012035D01*
X142380857Y-71047750D01*
X142416571Y-71083464D01*
X142452285Y-71154892D01*
X142452285Y-71369178D01*
X142416571Y-71440607D01*
X142380857Y-71476321D01*
D14*
X136719571Y-79219714D02*
X136719571Y-78219714D01*
X138219571Y-79219714D01*
X138219571Y-78219714D01*
X137219571Y-77791142D02*
X138219571Y-77434000D01*
X137219571Y-77076857D02*
X138219571Y-77434000D01*
X138576714Y-77576857D01*
X138648142Y-77648285D01*
X138719571Y-77791142D01*
X137219571Y-76505428D02*
X138219571Y-76505428D01*
X137362428Y-76505428D02*
X137291000Y-76434000D01*
X137219571Y-76291142D01*
X137219571Y-76076857D01*
X137291000Y-75934000D01*
X137433857Y-75862571D01*
X138219571Y-75862571D01*
X137219571Y-75362571D02*
X137219571Y-74791142D01*
X136719571Y-75148285D02*
X138005285Y-75148285D01*
X138148142Y-75076857D01*
X138219571Y-74934000D01*
X138219571Y-74791142D01*
X138219571Y-74291142D02*
X136719571Y-74291142D01*
X138219571Y-73648285D02*
X137433857Y-73648285D01*
X137291000Y-73719714D01*
X137219571Y-73862571D01*
X137219571Y-74076857D01*
X137291000Y-74219714D01*
X137362428Y-74291142D01*
X138219571Y-72934000D02*
X137219571Y-72934000D01*
X136719571Y-72934000D02*
X136791000Y-73005428D01*
X136862428Y-72934000D01*
X136791000Y-72862571D01*
X136719571Y-72934000D01*
X136862428Y-72934000D01*
X138219571Y-71576857D02*
X137433857Y-71576857D01*
X137291000Y-71648285D01*
X137219571Y-71791142D01*
X137219571Y-72076857D01*
X137291000Y-72219714D01*
X138148142Y-71576857D02*
X138219571Y-71719714D01*
X138219571Y-72076857D01*
X138148142Y-72219714D01*
X138005285Y-72291142D01*
X137862428Y-72291142D01*
X137719571Y-72219714D01*
X137648142Y-72076857D01*
X137648142Y-71719714D01*
X137576714Y-71576857D01*
X137219571Y-70862571D02*
X138219571Y-70862571D01*
X137362428Y-70862571D02*
X137291000Y-70791142D01*
X137219571Y-70648285D01*
X137219571Y-70434000D01*
X137291000Y-70291142D01*
X137433857Y-70219714D01*
X138219571Y-70219714D01*
X129099571Y-73985285D02*
X129099571Y-73056714D01*
X129671000Y-73556714D01*
X129671000Y-73342428D01*
X129742428Y-73199571D01*
X129813857Y-73128142D01*
X129956714Y-73056714D01*
X130313857Y-73056714D01*
X130456714Y-73128142D01*
X130528142Y-73199571D01*
X130599571Y-73342428D01*
X130599571Y-73771000D01*
X130528142Y-73913857D01*
X130456714Y-73985285D01*
X129242428Y-72485285D02*
X129171000Y-72413857D01*
X129099571Y-72271000D01*
X129099571Y-71913857D01*
X129171000Y-71771000D01*
X129242428Y-71699571D01*
X129385285Y-71628142D01*
X129528142Y-71628142D01*
X129742428Y-71699571D01*
X130599571Y-72556714D01*
X130599571Y-71628142D01*
X124225000Y-84269285D02*
X124225000Y-83555000D01*
X124653571Y-84412142D02*
X123153571Y-83912142D01*
X124653571Y-83412142D01*
X124653571Y-82912142D02*
X123153571Y-82912142D01*
X123153571Y-82555000D01*
X123225000Y-82340714D01*
X123367857Y-82197857D01*
X123510714Y-82126428D01*
X123796428Y-82055000D01*
X124010714Y-82055000D01*
X124296428Y-82126428D01*
X124439285Y-82197857D01*
X124582142Y-82340714D01*
X124653571Y-82555000D01*
X124653571Y-82912142D01*
X124653571Y-81412142D02*
X123153571Y-81412142D01*
X123153571Y-81055000D01*
X123225000Y-80840714D01*
X123367857Y-80697857D01*
X123510714Y-80626428D01*
X123796428Y-80555000D01*
X124010714Y-80555000D01*
X124296428Y-80626428D01*
X124439285Y-80697857D01*
X124582142Y-80840714D01*
X124653571Y-81055000D01*
X124653571Y-81412142D01*
X124653571Y-79055000D02*
X123939285Y-79555000D01*
X124653571Y-79912142D02*
X123153571Y-79912142D01*
X123153571Y-79340714D01*
X123225000Y-79197857D01*
X123296428Y-79126428D01*
X123439285Y-79055000D01*
X123653571Y-79055000D01*
X123796428Y-79126428D01*
X123867857Y-79197857D01*
X123939285Y-79340714D01*
X123939285Y-79912142D01*
X125703571Y-83912142D02*
X125703571Y-83769285D01*
X125775000Y-83626428D01*
X125846428Y-83555000D01*
X125989285Y-83483571D01*
X126275000Y-83412142D01*
X126632142Y-83412142D01*
X126917857Y-83483571D01*
X127060714Y-83555000D01*
X127132142Y-83626428D01*
X127203571Y-83769285D01*
X127203571Y-83912142D01*
X127132142Y-84055000D01*
X127060714Y-84126428D01*
X126917857Y-84197857D01*
X126632142Y-84269285D01*
X126275000Y-84269285D01*
X125989285Y-84197857D01*
X125846428Y-84126428D01*
X125775000Y-84055000D01*
X125703571Y-83912142D01*
X127203571Y-82912142D02*
X126203571Y-82126428D01*
X126203571Y-82912142D02*
X127203571Y-82126428D01*
X125846428Y-81626428D02*
X125775000Y-81555000D01*
X125703571Y-81412142D01*
X125703571Y-81055000D01*
X125775000Y-80912142D01*
X125846428Y-80840714D01*
X125989285Y-80769285D01*
X126132142Y-80769285D01*
X126346428Y-80840714D01*
X127203571Y-81697857D01*
X127203571Y-80769285D01*
X125703571Y-79840714D02*
X125703571Y-79697857D01*
X125775000Y-79555000D01*
X125846428Y-79483571D01*
X125989285Y-79412142D01*
X126275000Y-79340714D01*
X126632142Y-79340714D01*
X126917857Y-79412142D01*
X127060714Y-79483571D01*
X127132142Y-79555000D01*
X127203571Y-79697857D01*
X127203571Y-79840714D01*
X127132142Y-79983571D01*
X127060714Y-80055000D01*
X126917857Y-80126428D01*
X126632142Y-80197857D01*
X126275000Y-80197857D01*
X125989285Y-80126428D01*
X125846428Y-80055000D01*
X125775000Y-79983571D01*
X125703571Y-79840714D01*
X129226571Y-69921285D02*
X129226571Y-68992714D01*
X129798000Y-69492714D01*
X129798000Y-69278428D01*
X129869428Y-69135571D01*
X129940857Y-69064142D01*
X130083714Y-68992714D01*
X130440857Y-68992714D01*
X130583714Y-69064142D01*
X130655142Y-69135571D01*
X130726571Y-69278428D01*
X130726571Y-69707000D01*
X130655142Y-69849857D01*
X130583714Y-69921285D01*
X129226571Y-68492714D02*
X129226571Y-67564142D01*
X129798000Y-68064142D01*
X129798000Y-67849857D01*
X129869428Y-67707000D01*
X129940857Y-67635571D01*
X130083714Y-67564142D01*
X130440857Y-67564142D01*
X130583714Y-67635571D01*
X130655142Y-67707000D01*
X130726571Y-67849857D01*
X130726571Y-68278428D01*
X130655142Y-68421285D01*
X130583714Y-68492714D01*
D15*
G04 #@! TO.C,PWR1*
X86650000Y-90750000D02*
X86650000Y-92000000D01*
X87900000Y-90750000D02*
X86650000Y-90750000D01*
X98800000Y-96250000D02*
X93250000Y-96250000D01*
X98800000Y-93300000D02*
X98800000Y-96250000D01*
X99550000Y-93300000D02*
X98800000Y-93300000D01*
X87700000Y-96250000D02*
X93250000Y-96250000D01*
X87700000Y-93300000D02*
X87700000Y-96250000D01*
X86950000Y-93300000D02*
X87700000Y-93300000D01*
X99550000Y-91050000D02*
X97750000Y-91050000D01*
X99550000Y-91800000D02*
X99550000Y-91050000D01*
X97750000Y-91800000D02*
X99550000Y-91800000D01*
X97750000Y-91050000D02*
X97750000Y-91800000D01*
X88750000Y-91050000D02*
X86950000Y-91050000D01*
X88750000Y-91800000D02*
X88750000Y-91050000D01*
X86950000Y-91800000D02*
X88750000Y-91800000D01*
X86950000Y-91050000D02*
X86950000Y-91800000D01*
X96250000Y-91050000D02*
X90250000Y-91050000D01*
X96250000Y-91800000D02*
X96250000Y-91050000D01*
X90250000Y-91800000D02*
X96250000Y-91800000D01*
X90250000Y-91050000D02*
X90250000Y-91800000D01*
X99560000Y-91040000D02*
X86940000Y-91040000D01*
X99560000Y-97010000D02*
X99560000Y-91040000D01*
X86940000Y-97010000D02*
X99560000Y-97010000D01*
X86940000Y-91040000D02*
X86940000Y-97010000D01*
G04 #@! TO.C,R19*
X96260000Y-87662779D02*
X96260000Y-87337221D01*
X95240000Y-87662779D02*
X95240000Y-87337221D01*
G04 #@! TO.C,U3*
X115137000Y-96316000D02*
X115137000Y-98131000D01*
X114892000Y-96316000D02*
X115137000Y-96316000D01*
X114892000Y-92456000D02*
X114892000Y-96316000D01*
X114892000Y-88596000D02*
X115137000Y-88596000D01*
X114892000Y-92456000D02*
X114892000Y-88596000D01*
X133012000Y-96316000D02*
X132767000Y-96316000D01*
X133012000Y-92456000D02*
X133012000Y-96316000D01*
X133012000Y-88596000D02*
X132767000Y-88596000D01*
X133012000Y-92456000D02*
X133012000Y-88596000D01*
G04 #@! TO.C,E5*
X143049000Y-93492000D02*
X137079000Y-93492000D01*
X137079000Y-93492000D02*
X137079000Y-108612000D01*
X137079000Y-108612000D02*
X143049000Y-108612000D01*
X143049000Y-108612000D02*
X143049000Y-93492000D01*
X143039000Y-96802000D02*
X142289000Y-96802000D01*
X142289000Y-96802000D02*
X142289000Y-105302000D01*
X142289000Y-105302000D02*
X143039000Y-105302000D01*
X143039000Y-105302000D02*
X143039000Y-96802000D01*
X143039000Y-93502000D02*
X142289000Y-93502000D01*
X142289000Y-93502000D02*
X142289000Y-95302000D01*
X142289000Y-95302000D02*
X143039000Y-95302000D01*
X143039000Y-95302000D02*
X143039000Y-93502000D01*
X143039000Y-106802000D02*
X142289000Y-106802000D01*
X142289000Y-106802000D02*
X142289000Y-108602000D01*
X142289000Y-108602000D02*
X143039000Y-108602000D01*
X143039000Y-108602000D02*
X143039000Y-106802000D01*
X140789000Y-93502000D02*
X140789000Y-94252000D01*
X140789000Y-94252000D02*
X137839000Y-94252000D01*
X137839000Y-94252000D02*
X137839000Y-101052000D01*
X140789000Y-108602000D02*
X140789000Y-107852000D01*
X140789000Y-107852000D02*
X137839000Y-107852000D01*
X137839000Y-107852000D02*
X137839000Y-101052000D01*
X143339000Y-94452000D02*
X143339000Y-93202000D01*
X143339000Y-93202000D02*
X142089000Y-93202000D01*
G04 #@! TO.C,PWR3*
X109450000Y-100950000D02*
X109450000Y-99700000D01*
X108200000Y-100950000D02*
X109450000Y-100950000D01*
X102300000Y-95450000D02*
X105350000Y-95450000D01*
X102300000Y-98400000D02*
X102300000Y-95450000D01*
X101550000Y-98400000D02*
X102300000Y-98400000D01*
X108400000Y-95450000D02*
X105350000Y-95450000D01*
X108400000Y-98400000D02*
X108400000Y-95450000D01*
X109150000Y-98400000D02*
X108400000Y-98400000D01*
X101550000Y-100650000D02*
X103350000Y-100650000D01*
X101550000Y-99900000D02*
X101550000Y-100650000D01*
X103350000Y-99900000D02*
X101550000Y-99900000D01*
X103350000Y-100650000D02*
X103350000Y-99900000D01*
X107350000Y-100650000D02*
X109150000Y-100650000D01*
X107350000Y-99900000D02*
X107350000Y-100650000D01*
X109150000Y-99900000D02*
X107350000Y-99900000D01*
X109150000Y-100650000D02*
X109150000Y-99900000D01*
X104850000Y-100650000D02*
X105850000Y-100650000D01*
X104850000Y-99900000D02*
X104850000Y-100650000D01*
X105850000Y-99900000D02*
X104850000Y-99900000D01*
X105850000Y-100650000D02*
X105850000Y-99900000D01*
X101540000Y-100660000D02*
X109160000Y-100660000D01*
X101540000Y-94690000D02*
X101540000Y-100660000D01*
X109160000Y-94690000D02*
X101540000Y-94690000D01*
X109160000Y-100660000D02*
X109160000Y-94690000D01*
G04 #@! TO.C,E4*
X120340000Y-102279000D02*
X120340000Y-103529000D01*
X121590000Y-102279000D02*
X120340000Y-102279000D01*
X134990000Y-107779000D02*
X128190000Y-107779000D01*
X134990000Y-104829000D02*
X134990000Y-107779000D01*
X135740000Y-104829000D02*
X134990000Y-104829000D01*
X121390000Y-107779000D02*
X128190000Y-107779000D01*
X121390000Y-104829000D02*
X121390000Y-107779000D01*
X120640000Y-104829000D02*
X121390000Y-104829000D01*
X135740000Y-102579000D02*
X133940000Y-102579000D01*
X135740000Y-103329000D02*
X135740000Y-102579000D01*
X133940000Y-103329000D02*
X135740000Y-103329000D01*
X133940000Y-102579000D02*
X133940000Y-103329000D01*
X122440000Y-102579000D02*
X120640000Y-102579000D01*
X122440000Y-103329000D02*
X122440000Y-102579000D01*
X120640000Y-103329000D02*
X122440000Y-103329000D01*
X120640000Y-102579000D02*
X120640000Y-103329000D01*
X132440000Y-102579000D02*
X123940000Y-102579000D01*
X132440000Y-103329000D02*
X132440000Y-102579000D01*
X123940000Y-103329000D02*
X132440000Y-103329000D01*
X123940000Y-102579000D02*
X123940000Y-103329000D01*
X135750000Y-102569000D02*
X120630000Y-102569000D01*
X135750000Y-108539000D02*
X135750000Y-102569000D01*
X120630000Y-108539000D02*
X135750000Y-108539000D01*
X120630000Y-102569000D02*
X120630000Y-108539000D01*
G04 #@! TO.C,E3*
X103449000Y-102279000D02*
X103449000Y-103529000D01*
X104699000Y-102279000D02*
X103449000Y-102279000D01*
X118099000Y-107779000D02*
X111299000Y-107779000D01*
X118099000Y-104829000D02*
X118099000Y-107779000D01*
X118849000Y-104829000D02*
X118099000Y-104829000D01*
X104499000Y-107779000D02*
X111299000Y-107779000D01*
X104499000Y-104829000D02*
X104499000Y-107779000D01*
X103749000Y-104829000D02*
X104499000Y-104829000D01*
X118849000Y-102579000D02*
X117049000Y-102579000D01*
X118849000Y-103329000D02*
X118849000Y-102579000D01*
X117049000Y-103329000D02*
X118849000Y-103329000D01*
X117049000Y-102579000D02*
X117049000Y-103329000D01*
X105549000Y-102579000D02*
X103749000Y-102579000D01*
X105549000Y-103329000D02*
X105549000Y-102579000D01*
X103749000Y-103329000D02*
X105549000Y-103329000D01*
X103749000Y-102579000D02*
X103749000Y-103329000D01*
X115549000Y-102579000D02*
X107049000Y-102579000D01*
X115549000Y-103329000D02*
X115549000Y-102579000D01*
X107049000Y-103329000D02*
X115549000Y-103329000D01*
X107049000Y-102579000D02*
X107049000Y-103329000D01*
X118859000Y-102569000D02*
X103739000Y-102569000D01*
X118859000Y-108539000D02*
X118859000Y-102569000D01*
X103739000Y-108539000D02*
X118859000Y-108539000D01*
X103739000Y-102569000D02*
X103739000Y-108539000D01*
G04 #@! TO.C,E2*
X135819000Y-116669000D02*
X135819000Y-115419000D01*
X134569000Y-116669000D02*
X135819000Y-116669000D01*
X121169000Y-111169000D02*
X127969000Y-111169000D01*
X121169000Y-114119000D02*
X121169000Y-111169000D01*
X120419000Y-114119000D02*
X121169000Y-114119000D01*
X134769000Y-111169000D02*
X127969000Y-111169000D01*
X134769000Y-114119000D02*
X134769000Y-111169000D01*
X135519000Y-114119000D02*
X134769000Y-114119000D01*
X120419000Y-116369000D02*
X122219000Y-116369000D01*
X120419000Y-115619000D02*
X120419000Y-116369000D01*
X122219000Y-115619000D02*
X120419000Y-115619000D01*
X122219000Y-116369000D02*
X122219000Y-115619000D01*
X133719000Y-116369000D02*
X135519000Y-116369000D01*
X133719000Y-115619000D02*
X133719000Y-116369000D01*
X135519000Y-115619000D02*
X133719000Y-115619000D01*
X135519000Y-116369000D02*
X135519000Y-115619000D01*
X123719000Y-116369000D02*
X132219000Y-116369000D01*
X123719000Y-115619000D02*
X123719000Y-116369000D01*
X132219000Y-115619000D02*
X123719000Y-115619000D01*
X132219000Y-116369000D02*
X132219000Y-115619000D01*
X120409000Y-116379000D02*
X135529000Y-116379000D01*
X120409000Y-110409000D02*
X120409000Y-116379000D01*
X135529000Y-110409000D02*
X120409000Y-110409000D01*
X135529000Y-116379000D02*
X135529000Y-110409000D01*
G04 #@! TO.C,E1*
X118928000Y-116669000D02*
X118928000Y-115419000D01*
X117678000Y-116669000D02*
X118928000Y-116669000D01*
X104278000Y-111169000D02*
X111078000Y-111169000D01*
X104278000Y-114119000D02*
X104278000Y-111169000D01*
X103528000Y-114119000D02*
X104278000Y-114119000D01*
X117878000Y-111169000D02*
X111078000Y-111169000D01*
X117878000Y-114119000D02*
X117878000Y-111169000D01*
X118628000Y-114119000D02*
X117878000Y-114119000D01*
X103528000Y-116369000D02*
X105328000Y-116369000D01*
X103528000Y-115619000D02*
X103528000Y-116369000D01*
X105328000Y-115619000D02*
X103528000Y-115619000D01*
X105328000Y-116369000D02*
X105328000Y-115619000D01*
X116828000Y-116369000D02*
X118628000Y-116369000D01*
X116828000Y-115619000D02*
X116828000Y-116369000D01*
X118628000Y-115619000D02*
X116828000Y-115619000D01*
X118628000Y-116369000D02*
X118628000Y-115619000D01*
X106828000Y-116369000D02*
X115328000Y-116369000D01*
X106828000Y-115619000D02*
X106828000Y-116369000D01*
X115328000Y-115619000D02*
X106828000Y-115619000D01*
X115328000Y-116369000D02*
X115328000Y-115619000D01*
X103518000Y-116379000D02*
X118638000Y-116379000D01*
X103518000Y-110409000D02*
X103518000Y-116379000D01*
X118638000Y-110409000D02*
X103518000Y-110409000D01*
X118638000Y-116379000D02*
X118638000Y-110409000D01*
G04 #@! TO.C,PWR2*
X85300000Y-90749000D02*
X84050000Y-90749000D01*
X85300000Y-91999000D02*
X85300000Y-90749000D01*
X79800000Y-97899000D02*
X79800000Y-94849000D01*
X82750000Y-97899000D02*
X79800000Y-97899000D01*
X82750000Y-98649000D02*
X82750000Y-97899000D01*
X79800000Y-91799000D02*
X79800000Y-94849000D01*
X82750000Y-91799000D02*
X79800000Y-91799000D01*
X82750000Y-91049000D02*
X82750000Y-91799000D01*
X85000000Y-98649000D02*
X85000000Y-96849000D01*
X84250000Y-98649000D02*
X85000000Y-98649000D01*
X84250000Y-96849000D02*
X84250000Y-98649000D01*
X85000000Y-96849000D02*
X84250000Y-96849000D01*
X85000000Y-92849000D02*
X85000000Y-91049000D01*
X84250000Y-92849000D02*
X85000000Y-92849000D01*
X84250000Y-91049000D02*
X84250000Y-92849000D01*
X85000000Y-91049000D02*
X84250000Y-91049000D01*
X85000000Y-95349000D02*
X85000000Y-94349000D01*
X84250000Y-95349000D02*
X85000000Y-95349000D01*
X84250000Y-94349000D02*
X84250000Y-95349000D01*
X85000000Y-94349000D02*
X84250000Y-94349000D01*
X85010000Y-98659000D02*
X85010000Y-91039000D01*
X79040000Y-98659000D02*
X85010000Y-98659000D01*
X79040000Y-91039000D02*
X79040000Y-98659000D01*
X85010000Y-91039000D02*
X79040000Y-91039000D01*
G04 #@! TO.C,JP1*
X99298000Y-73610000D02*
X99298000Y-75010000D01*
X98598000Y-75710000D02*
X97998000Y-75710000D01*
X97298000Y-75010000D02*
X97298000Y-73610000D01*
X97998000Y-72910000D02*
X98598000Y-72910000D01*
X98598000Y-72910000D02*
G75*
G02X99298000Y-73610000I0J-700000D01*
G01*
X97298000Y-73610000D02*
G75*
G02X97998000Y-72910000I700000J0D01*
G01*
X97998000Y-75710000D02*
G75*
G02X97298000Y-75010000I0J700000D01*
G01*
X99298000Y-75010000D02*
G75*
G02X98598000Y-75710000I-700000J0D01*
G01*
G04 #@! TO.C,R16*
X114121000Y-80649578D02*
X114121000Y-80132422D01*
X112701000Y-80649578D02*
X112701000Y-80132422D01*
G04 #@! TO.C,C2*
X101064500Y-94060000D02*
X109124500Y-94060000D01*
X101064500Y-89540000D02*
X101064500Y-94060000D01*
X109124500Y-89540000D02*
X101064500Y-89540000D01*
G04 #@! TO.C,R12*
X96395000Y-101889779D02*
X96395000Y-101564221D01*
X95375000Y-101889779D02*
X95375000Y-101564221D01*
G04 #@! TO.C,R18*
X128145000Y-100238779D02*
X128145000Y-99913221D01*
X127125000Y-100238779D02*
X127125000Y-99913221D01*
G04 #@! TO.C,R15*
X116558000Y-69152221D02*
X116558000Y-69477779D01*
X117578000Y-69152221D02*
X117578000Y-69477779D01*
G04 #@! TO.C,R10*
X86240000Y-101587221D02*
X86240000Y-101912779D01*
X87260000Y-101587221D02*
X87260000Y-101912779D01*
G04 #@! TO.C,R14*
X118258000Y-69152221D02*
X118258000Y-69477779D01*
X119278000Y-69152221D02*
X119278000Y-69477779D01*
G04 #@! TO.C,R13*
X119858000Y-69152221D02*
X119858000Y-69477779D01*
X120878000Y-69152221D02*
X120878000Y-69477779D01*
G04 #@! TO.C,D5*
X95150000Y-103417000D02*
X95150000Y-105702000D01*
X96620000Y-103417000D02*
X95150000Y-103417000D01*
X96620000Y-105702000D02*
X96620000Y-103417000D01*
G04 #@! TO.C,A2*
X129459000Y-79865000D02*
G75*
G02X130159000Y-80565000I0J-700000D01*
G01*
X128159000Y-80565000D02*
G75*
G02X128859000Y-79865000I700000J0D01*
G01*
X128859000Y-83965000D02*
G75*
G02X128159000Y-83265000I0J700000D01*
G01*
X130159000Y-83265000D02*
G75*
G02X129459000Y-83965000I-700000J0D01*
G01*
X130159000Y-80515000D02*
X130159000Y-83315000D01*
X129459000Y-83965000D02*
X128859000Y-83965000D01*
X128159000Y-83315000D02*
X128159000Y-80515000D01*
X128859000Y-79865000D02*
X129459000Y-79865000D01*
G04 #@! TO.C,A1*
X132507000Y-79865000D02*
G75*
G02X133207000Y-80565000I0J-700000D01*
G01*
X131207000Y-80565000D02*
G75*
G02X131907000Y-79865000I700000J0D01*
G01*
X131907000Y-83965000D02*
G75*
G02X131207000Y-83265000I0J700000D01*
G01*
X133207000Y-83265000D02*
G75*
G02X132507000Y-83965000I-700000J0D01*
G01*
X133207000Y-80515000D02*
X133207000Y-83315000D01*
X132507000Y-83965000D02*
X131907000Y-83965000D01*
X131207000Y-83315000D02*
X131207000Y-80515000D01*
X131907000Y-79865000D02*
X132507000Y-79865000D01*
G04 #@! TO.C,A0*
X135428000Y-79865000D02*
G75*
G02X136128000Y-80565000I0J-700000D01*
G01*
X134128000Y-80565000D02*
G75*
G02X134828000Y-79865000I700000J0D01*
G01*
X134828000Y-83965000D02*
G75*
G02X134128000Y-83265000I0J700000D01*
G01*
X136128000Y-83265000D02*
G75*
G02X135428000Y-83965000I-700000J0D01*
G01*
X136128000Y-80515000D02*
X136128000Y-83315000D01*
X135428000Y-83965000D02*
X134828000Y-83965000D01*
X134128000Y-83315000D02*
X134128000Y-80515000D01*
X134828000Y-79865000D02*
X135428000Y-79865000D01*
G04 #@! TO.C,FAN1*
X127808000Y-68562000D02*
G75*
G02X128508000Y-69262000I0J-700000D01*
G01*
X126508000Y-69262000D02*
G75*
G02X127208000Y-68562000I700000J0D01*
G01*
X127208000Y-72662000D02*
G75*
G02X126508000Y-71962000I0J700000D01*
G01*
X128508000Y-71962000D02*
G75*
G02X127808000Y-72662000I-700000J0D01*
G01*
X128508000Y-69212000D02*
X128508000Y-72012000D01*
X127808000Y-72662000D02*
X127208000Y-72662000D01*
X126508000Y-72012000D02*
X126508000Y-69212000D01*
X127208000Y-68562000D02*
X127808000Y-68562000D01*
G04 #@! TO.C,SJ1*
X110887000Y-75249000D02*
X110887000Y-73849000D01*
X111587000Y-73149000D02*
X112187000Y-73149000D01*
X112887000Y-73849000D02*
X112887000Y-75249000D01*
X112187000Y-75949000D02*
X111587000Y-75949000D01*
X111587000Y-75949000D02*
G75*
G02X110887000Y-75249000I0J700000D01*
G01*
X112887000Y-75249000D02*
G75*
G02X112187000Y-75949000I-700000J0D01*
G01*
X112187000Y-73149000D02*
G75*
G02X112887000Y-73849000I0J-700000D01*
G01*
X110887000Y-73849000D02*
G75*
G02X111587000Y-73149000I700000J0D01*
G01*
G04 #@! TO.C,C1*
X126367000Y-100238779D02*
X126367000Y-99913221D01*
X125347000Y-100238779D02*
X125347000Y-99913221D01*
G04 #@! TO.C,R17*
X110488000Y-80101221D02*
X110488000Y-80426779D01*
X111508000Y-80101221D02*
X111508000Y-80426779D01*
G04 #@! TO.C,Q3*
X103157600Y-81178400D02*
X103157600Y-80078400D01*
X102887600Y-81178400D02*
X103157600Y-81178400D01*
X102887600Y-82678400D02*
X102887600Y-81178400D01*
X109517600Y-81178400D02*
X109517600Y-78348400D01*
X109787600Y-81178400D02*
X109517600Y-81178400D01*
X109787600Y-82678400D02*
X109787600Y-81178400D01*
D10*
G04 #@! TO.C,U2*
X115027000Y-76878000D02*
X115077000Y-76878000D01*
X115027000Y-72728000D02*
X115172000Y-72728000D01*
X120177000Y-72728000D02*
X120032000Y-72728000D01*
X120177000Y-76878000D02*
X120032000Y-76878000D01*
X115027000Y-76878000D02*
X115027000Y-72728000D01*
X120177000Y-76878000D02*
X120177000Y-72728000D01*
X115077000Y-76878000D02*
X115077000Y-78278000D01*
D15*
G04 #@! TO.C,Q1*
X90749000Y-105408000D02*
X91679000Y-105408000D01*
X93909000Y-105408000D02*
X92979000Y-105408000D01*
X93909000Y-105408000D02*
X93909000Y-103248000D01*
X90749000Y-105408000D02*
X90749000Y-103948000D01*
G04 #@! TO.C,Q2*
X89703000Y-99176000D02*
X89703000Y-100976000D01*
X92923000Y-100976000D02*
X92923000Y-98526000D01*
G04 #@! TD*
G04 #@! TO.C,PWR1*
D10*
X90702380Y-90559523D02*
X89702380Y-90559523D01*
X89702380Y-90178571D01*
X89750000Y-90083333D01*
X89797619Y-90035714D01*
X89892857Y-89988095D01*
X90035714Y-89988095D01*
X90130952Y-90035714D01*
X90178571Y-90083333D01*
X90226190Y-90178571D01*
X90226190Y-90559523D01*
X89702380Y-89654761D02*
X90702380Y-89416666D01*
X89988095Y-89226190D01*
X90702380Y-89035714D01*
X89702380Y-88797619D01*
X90702380Y-87845238D02*
X90226190Y-88178571D01*
X90702380Y-88416666D02*
X89702380Y-88416666D01*
X89702380Y-88035714D01*
X89750000Y-87940476D01*
X89797619Y-87892857D01*
X89892857Y-87845238D01*
X90035714Y-87845238D01*
X90130952Y-87892857D01*
X90178571Y-87940476D01*
X90226190Y-88035714D01*
X90226190Y-88416666D01*
X90702380Y-86892857D02*
X90702380Y-87464285D01*
X90702380Y-87178571D02*
X89702380Y-87178571D01*
X89845238Y-87273809D01*
X89940476Y-87369047D01*
X89988095Y-87464285D01*
G04 #@! TO.C,R19*
X94772380Y-88142857D02*
X94296190Y-88476190D01*
X94772380Y-88714285D02*
X93772380Y-88714285D01*
X93772380Y-88333333D01*
X93820000Y-88238095D01*
X93867619Y-88190476D01*
X93962857Y-88142857D01*
X94105714Y-88142857D01*
X94200952Y-88190476D01*
X94248571Y-88238095D01*
X94296190Y-88333333D01*
X94296190Y-88714285D01*
X94772380Y-87190476D02*
X94772380Y-87761904D01*
X94772380Y-87476190D02*
X93772380Y-87476190D01*
X93915238Y-87571428D01*
X94010476Y-87666666D01*
X94058095Y-87761904D01*
X94772380Y-86714285D02*
X94772380Y-86523809D01*
X94724761Y-86428571D01*
X94677142Y-86380952D01*
X94534285Y-86285714D01*
X94343809Y-86238095D01*
X93962857Y-86238095D01*
X93867619Y-86285714D01*
X93820000Y-86333333D01*
X93772380Y-86428571D01*
X93772380Y-86619047D01*
X93820000Y-86714285D01*
X93867619Y-86761904D01*
X93962857Y-86809523D01*
X94200952Y-86809523D01*
X94296190Y-86761904D01*
X94343809Y-86714285D01*
X94391428Y-86619047D01*
X94391428Y-86428571D01*
X94343809Y-86333333D01*
X94296190Y-86285714D01*
X94200952Y-86238095D01*
G04 #@! TO.C,U3*
X113371380Y-93217904D02*
X114180904Y-93217904D01*
X114276142Y-93170285D01*
X114323761Y-93122666D01*
X114371380Y-93027428D01*
X114371380Y-92836952D01*
X114323761Y-92741714D01*
X114276142Y-92694095D01*
X114180904Y-92646476D01*
X113371380Y-92646476D01*
X113371380Y-92265523D02*
X113371380Y-91646476D01*
X113752333Y-91979809D01*
X113752333Y-91836952D01*
X113799952Y-91741714D01*
X113847571Y-91694095D01*
X113942809Y-91646476D01*
X114180904Y-91646476D01*
X114276142Y-91694095D01*
X114323761Y-91741714D01*
X114371380Y-91836952D01*
X114371380Y-92122666D01*
X114323761Y-92217904D01*
X114276142Y-92265523D01*
X134564380Y-96170285D02*
X133564380Y-96170285D01*
X134278666Y-95836952D01*
X133564380Y-95503619D01*
X134564380Y-95503619D01*
X134469142Y-94456000D02*
X134516761Y-94503619D01*
X134564380Y-94646476D01*
X134564380Y-94741714D01*
X134516761Y-94884571D01*
X134421523Y-94979809D01*
X134326285Y-95027428D01*
X134135809Y-95075047D01*
X133992952Y-95075047D01*
X133802476Y-95027428D01*
X133707238Y-94979809D01*
X133612000Y-94884571D01*
X133564380Y-94741714D01*
X133564380Y-94646476D01*
X133612000Y-94503619D01*
X133659619Y-94456000D01*
X134564380Y-94027428D02*
X133564380Y-94027428D01*
X133564380Y-93646476D01*
X133612000Y-93551238D01*
X133659619Y-93503619D01*
X133754857Y-93456000D01*
X133897714Y-93456000D01*
X133992952Y-93503619D01*
X134040571Y-93551238D01*
X134088190Y-93646476D01*
X134088190Y-94027428D01*
X133659619Y-93075047D02*
X133612000Y-93027428D01*
X133564380Y-92932190D01*
X133564380Y-92694095D01*
X133612000Y-92598857D01*
X133659619Y-92551238D01*
X133754857Y-92503619D01*
X133850095Y-92503619D01*
X133992952Y-92551238D01*
X134564380Y-93122666D01*
X134564380Y-92503619D01*
X133564380Y-92170285D02*
X133564380Y-91551238D01*
X133945333Y-91884571D01*
X133945333Y-91741714D01*
X133992952Y-91646476D01*
X134040571Y-91598857D01*
X134135809Y-91551238D01*
X134373904Y-91551238D01*
X134469142Y-91598857D01*
X134516761Y-91646476D01*
X134564380Y-91741714D01*
X134564380Y-92027428D01*
X134516761Y-92122666D01*
X134469142Y-92170285D01*
X133564380Y-90932190D02*
X133564380Y-90836952D01*
X133612000Y-90741714D01*
X133659619Y-90694095D01*
X133754857Y-90646476D01*
X133945333Y-90598857D01*
X134183428Y-90598857D01*
X134373904Y-90646476D01*
X134469142Y-90694095D01*
X134516761Y-90741714D01*
X134564380Y-90836952D01*
X134564380Y-90932190D01*
X134516761Y-91027428D01*
X134469142Y-91075047D01*
X134373904Y-91122666D01*
X134183428Y-91170285D01*
X133945333Y-91170285D01*
X133754857Y-91122666D01*
X133659619Y-91075047D01*
X133612000Y-91027428D01*
X133564380Y-90932190D01*
X134564380Y-89646476D02*
X134564380Y-90217904D01*
X134564380Y-89932190D02*
X133564380Y-89932190D01*
X133707238Y-90027428D01*
X133802476Y-90122666D01*
X133850095Y-90217904D01*
X133564380Y-89313142D02*
X133564380Y-88646476D01*
X134564380Y-89075047D01*
G04 #@! TO.C,E5*
X137428571Y-110440476D02*
X137428571Y-110107142D01*
X137952380Y-109964285D02*
X137952380Y-110440476D01*
X136952380Y-110440476D01*
X136952380Y-109964285D01*
X136952380Y-109059523D02*
X136952380Y-109535714D01*
X137428571Y-109583333D01*
X137380952Y-109535714D01*
X137333333Y-109440476D01*
X137333333Y-109202380D01*
X137380952Y-109107142D01*
X137428571Y-109059523D01*
X137523809Y-109011904D01*
X137761904Y-109011904D01*
X137857142Y-109059523D01*
X137904761Y-109107142D01*
X137952380Y-109202380D01*
X137952380Y-109440476D01*
X137904761Y-109535714D01*
X137857142Y-109583333D01*
G04 #@! TO.C,PWR3*
X110785380Y-100342523D02*
X109785380Y-100342523D01*
X109785380Y-99961571D01*
X109833000Y-99866333D01*
X109880619Y-99818714D01*
X109975857Y-99771095D01*
X110118714Y-99771095D01*
X110213952Y-99818714D01*
X110261571Y-99866333D01*
X110309190Y-99961571D01*
X110309190Y-100342523D01*
X109785380Y-99437761D02*
X110785380Y-99199666D01*
X110071095Y-99009190D01*
X110785380Y-98818714D01*
X109785380Y-98580619D01*
X110785380Y-97628238D02*
X110309190Y-97961571D01*
X110785380Y-98199666D02*
X109785380Y-98199666D01*
X109785380Y-97818714D01*
X109833000Y-97723476D01*
X109880619Y-97675857D01*
X109975857Y-97628238D01*
X110118714Y-97628238D01*
X110213952Y-97675857D01*
X110261571Y-97723476D01*
X110309190Y-97818714D01*
X110309190Y-98199666D01*
X109785380Y-97294904D02*
X109785380Y-96675857D01*
X110166333Y-97009190D01*
X110166333Y-96866333D01*
X110213952Y-96771095D01*
X110261571Y-96723476D01*
X110356809Y-96675857D01*
X110594904Y-96675857D01*
X110690142Y-96723476D01*
X110737761Y-96771095D01*
X110785380Y-96866333D01*
X110785380Y-97152047D01*
X110737761Y-97247285D01*
X110690142Y-97294904D01*
G04 #@! TO.C,E4*
X119928571Y-108440476D02*
X119928571Y-108107142D01*
X120452380Y-107964285D02*
X120452380Y-108440476D01*
X119452380Y-108440476D01*
X119452380Y-107964285D01*
X119785714Y-107107142D02*
X120452380Y-107107142D01*
X119404761Y-107345238D02*
X120119047Y-107583333D01*
X120119047Y-106964285D01*
G04 #@! TO.C,E3*
X102678571Y-108440476D02*
X102678571Y-108107142D01*
X103202380Y-107964285D02*
X103202380Y-108440476D01*
X102202380Y-108440476D01*
X102202380Y-107964285D01*
X102202380Y-107630952D02*
X102202380Y-107011904D01*
X102583333Y-107345238D01*
X102583333Y-107202380D01*
X102630952Y-107107142D01*
X102678571Y-107059523D01*
X102773809Y-107011904D01*
X103011904Y-107011904D01*
X103107142Y-107059523D01*
X103154761Y-107107142D01*
X103202380Y-107202380D01*
X103202380Y-107488095D01*
X103154761Y-107583333D01*
X103107142Y-107630952D01*
G04 #@! TO.C,E2*
X119678571Y-111940476D02*
X119678571Y-111607142D01*
X120202380Y-111464285D02*
X120202380Y-111940476D01*
X119202380Y-111940476D01*
X119202380Y-111464285D01*
X119297619Y-111083333D02*
X119250000Y-111035714D01*
X119202380Y-110940476D01*
X119202380Y-110702380D01*
X119250000Y-110607142D01*
X119297619Y-110559523D01*
X119392857Y-110511904D01*
X119488095Y-110511904D01*
X119630952Y-110559523D01*
X120202380Y-111130952D01*
X120202380Y-110511904D01*
G04 #@! TO.C,E1*
X102678571Y-111690476D02*
X102678571Y-111357142D01*
X103202380Y-111214285D02*
X103202380Y-111690476D01*
X102202380Y-111690476D01*
X102202380Y-111214285D01*
X103202380Y-110261904D02*
X103202380Y-110833333D01*
X103202380Y-110547619D02*
X102202380Y-110547619D01*
X102345238Y-110642857D01*
X102440476Y-110738095D01*
X102488095Y-110833333D01*
G04 #@! TO.C,PWR2*
X84702380Y-102809523D02*
X83702380Y-102809523D01*
X83702380Y-102428571D01*
X83750000Y-102333333D01*
X83797619Y-102285714D01*
X83892857Y-102238095D01*
X84035714Y-102238095D01*
X84130952Y-102285714D01*
X84178571Y-102333333D01*
X84226190Y-102428571D01*
X84226190Y-102809523D01*
X83702380Y-101904761D02*
X84702380Y-101666666D01*
X83988095Y-101476190D01*
X84702380Y-101285714D01*
X83702380Y-101047619D01*
X84702380Y-100095238D02*
X84226190Y-100428571D01*
X84702380Y-100666666D02*
X83702380Y-100666666D01*
X83702380Y-100285714D01*
X83750000Y-100190476D01*
X83797619Y-100142857D01*
X83892857Y-100095238D01*
X84035714Y-100095238D01*
X84130952Y-100142857D01*
X84178571Y-100190476D01*
X84226190Y-100285714D01*
X84226190Y-100666666D01*
X83797619Y-99714285D02*
X83750000Y-99666666D01*
X83702380Y-99571428D01*
X83702380Y-99333333D01*
X83750000Y-99238095D01*
X83797619Y-99190476D01*
X83892857Y-99142857D01*
X83988095Y-99142857D01*
X84130952Y-99190476D01*
X84702380Y-99761904D01*
X84702380Y-99142857D01*
G04 #@! TO.C,JP1*
X99550380Y-75143333D02*
X100264666Y-75143333D01*
X100407523Y-75190952D01*
X100502761Y-75286190D01*
X100550380Y-75429047D01*
X100550380Y-75524285D01*
X100550380Y-74667142D02*
X99550380Y-74667142D01*
X99550380Y-74286190D01*
X99598000Y-74190952D01*
X99645619Y-74143333D01*
X99740857Y-74095714D01*
X99883714Y-74095714D01*
X99978952Y-74143333D01*
X100026571Y-74190952D01*
X100074190Y-74286190D01*
X100074190Y-74667142D01*
X100550380Y-73143333D02*
X100550380Y-73714761D01*
X100550380Y-73429047D02*
X99550380Y-73429047D01*
X99693238Y-73524285D01*
X99788476Y-73619523D01*
X99836095Y-73714761D01*
G04 #@! TO.C,H6*
X139338095Y-87872380D02*
X139338095Y-86872380D01*
X139338095Y-87348571D02*
X139909523Y-87348571D01*
X139909523Y-87872380D02*
X139909523Y-86872380D01*
X140814285Y-86872380D02*
X140623809Y-86872380D01*
X140528571Y-86920000D01*
X140480952Y-86967619D01*
X140385714Y-87110476D01*
X140338095Y-87300952D01*
X140338095Y-87681904D01*
X140385714Y-87777142D01*
X140433333Y-87824761D01*
X140528571Y-87872380D01*
X140719047Y-87872380D01*
X140814285Y-87824761D01*
X140861904Y-87777142D01*
X140909523Y-87681904D01*
X140909523Y-87443809D01*
X140861904Y-87348571D01*
X140814285Y-87300952D01*
X140719047Y-87253333D01*
X140528571Y-87253333D01*
X140433333Y-87300952D01*
X140385714Y-87348571D01*
X140338095Y-87443809D01*
G04 #@! TO.C,H5*
X81338095Y-87852380D02*
X81338095Y-86852380D01*
X81338095Y-87328571D02*
X81909523Y-87328571D01*
X81909523Y-87852380D02*
X81909523Y-86852380D01*
X82861904Y-86852380D02*
X82385714Y-86852380D01*
X82338095Y-87328571D01*
X82385714Y-87280952D01*
X82480952Y-87233333D01*
X82719047Y-87233333D01*
X82814285Y-87280952D01*
X82861904Y-87328571D01*
X82909523Y-87423809D01*
X82909523Y-87661904D01*
X82861904Y-87757142D01*
X82814285Y-87804761D01*
X82719047Y-87852380D01*
X82480952Y-87852380D01*
X82385714Y-87804761D01*
X82338095Y-87757142D01*
G04 #@! TO.C,R11*
X94686380Y-99321857D02*
X94210190Y-99655190D01*
X94686380Y-99893285D02*
X93686380Y-99893285D01*
X93686380Y-99512333D01*
X93734000Y-99417095D01*
X93781619Y-99369476D01*
X93876857Y-99321857D01*
X94019714Y-99321857D01*
X94114952Y-99369476D01*
X94162571Y-99417095D01*
X94210190Y-99512333D01*
X94210190Y-99893285D01*
X94686380Y-98369476D02*
X94686380Y-98940904D01*
X94686380Y-98655190D02*
X93686380Y-98655190D01*
X93829238Y-98750428D01*
X93924476Y-98845666D01*
X93972095Y-98940904D01*
X94686380Y-97417095D02*
X94686380Y-97988523D01*
X94686380Y-97702809D02*
X93686380Y-97702809D01*
X93829238Y-97798047D01*
X93924476Y-97893285D01*
X93972095Y-97988523D01*
G04 #@! TO.C,R16*
X113952380Y-84142857D02*
X113476190Y-84476190D01*
X113952380Y-84714285D02*
X112952380Y-84714285D01*
X112952380Y-84333333D01*
X113000000Y-84238095D01*
X113047619Y-84190476D01*
X113142857Y-84142857D01*
X113285714Y-84142857D01*
X113380952Y-84190476D01*
X113428571Y-84238095D01*
X113476190Y-84333333D01*
X113476190Y-84714285D01*
X113952380Y-83190476D02*
X113952380Y-83761904D01*
X113952380Y-83476190D02*
X112952380Y-83476190D01*
X113095238Y-83571428D01*
X113190476Y-83666666D01*
X113238095Y-83761904D01*
X112952380Y-82333333D02*
X112952380Y-82523809D01*
X113000000Y-82619047D01*
X113047619Y-82666666D01*
X113190476Y-82761904D01*
X113380952Y-82809523D01*
X113761904Y-82809523D01*
X113857142Y-82761904D01*
X113904761Y-82714285D01*
X113952380Y-82619047D01*
X113952380Y-82428571D01*
X113904761Y-82333333D01*
X113857142Y-82285714D01*
X113761904Y-82238095D01*
X113523809Y-82238095D01*
X113428571Y-82285714D01*
X113380952Y-82333333D01*
X113333333Y-82428571D01*
X113333333Y-82619047D01*
X113380952Y-82714285D01*
X113428571Y-82761904D01*
X113523809Y-82809523D01*
G04 #@! TO.C,C2*
X111357142Y-92018666D02*
X111404761Y-92066285D01*
X111452380Y-92209142D01*
X111452380Y-92304380D01*
X111404761Y-92447238D01*
X111309523Y-92542476D01*
X111214285Y-92590095D01*
X111023809Y-92637714D01*
X110880952Y-92637714D01*
X110690476Y-92590095D01*
X110595238Y-92542476D01*
X110500000Y-92447238D01*
X110452380Y-92304380D01*
X110452380Y-92209142D01*
X110500000Y-92066285D01*
X110547619Y-92018666D01*
X110547619Y-91637714D02*
X110500000Y-91590095D01*
X110452380Y-91494857D01*
X110452380Y-91256761D01*
X110500000Y-91161523D01*
X110547619Y-91113904D01*
X110642857Y-91066285D01*
X110738095Y-91066285D01*
X110880952Y-91113904D01*
X111452380Y-91685333D01*
X111452380Y-91066285D01*
G04 #@! TO.C,R12*
X97988380Y-102369857D02*
X97512190Y-102703190D01*
X97988380Y-102941285D02*
X96988380Y-102941285D01*
X96988380Y-102560333D01*
X97036000Y-102465095D01*
X97083619Y-102417476D01*
X97178857Y-102369857D01*
X97321714Y-102369857D01*
X97416952Y-102417476D01*
X97464571Y-102465095D01*
X97512190Y-102560333D01*
X97512190Y-102941285D01*
X97988380Y-101417476D02*
X97988380Y-101988904D01*
X97988380Y-101703190D02*
X96988380Y-101703190D01*
X97131238Y-101798428D01*
X97226476Y-101893666D01*
X97274095Y-101988904D01*
X97083619Y-101036523D02*
X97036000Y-100988904D01*
X96988380Y-100893666D01*
X96988380Y-100655571D01*
X97036000Y-100560333D01*
X97083619Y-100512714D01*
X97178857Y-100465095D01*
X97274095Y-100465095D01*
X97416952Y-100512714D01*
X97988380Y-101084142D01*
X97988380Y-100465095D01*
G04 #@! TO.C,R18*
X129611380Y-100718857D02*
X129135190Y-101052190D01*
X129611380Y-101290285D02*
X128611380Y-101290285D01*
X128611380Y-100909333D01*
X128659000Y-100814095D01*
X128706619Y-100766476D01*
X128801857Y-100718857D01*
X128944714Y-100718857D01*
X129039952Y-100766476D01*
X129087571Y-100814095D01*
X129135190Y-100909333D01*
X129135190Y-101290285D01*
X129611380Y-99766476D02*
X129611380Y-100337904D01*
X129611380Y-100052190D02*
X128611380Y-100052190D01*
X128754238Y-100147428D01*
X128849476Y-100242666D01*
X128897095Y-100337904D01*
X129039952Y-99195047D02*
X128992333Y-99290285D01*
X128944714Y-99337904D01*
X128849476Y-99385523D01*
X128801857Y-99385523D01*
X128706619Y-99337904D01*
X128659000Y-99290285D01*
X128611380Y-99195047D01*
X128611380Y-99004571D01*
X128659000Y-98909333D01*
X128706619Y-98861714D01*
X128801857Y-98814095D01*
X128849476Y-98814095D01*
X128944714Y-98861714D01*
X128992333Y-98909333D01*
X129039952Y-99004571D01*
X129039952Y-99195047D01*
X129087571Y-99290285D01*
X129135190Y-99337904D01*
X129230428Y-99385523D01*
X129420904Y-99385523D01*
X129516142Y-99337904D01*
X129563761Y-99290285D01*
X129611380Y-99195047D01*
X129611380Y-99004571D01*
X129563761Y-98909333D01*
X129516142Y-98861714D01*
X129420904Y-98814095D01*
X129230428Y-98814095D01*
X129135190Y-98861714D01*
X129087571Y-98909333D01*
X129039952Y-99004571D01*
G04 #@! TO.C,R15*
X114498380Y-69984857D02*
X114022190Y-70318190D01*
X114498380Y-70556285D02*
X113498380Y-70556285D01*
X113498380Y-70175333D01*
X113546000Y-70080095D01*
X113593619Y-70032476D01*
X113688857Y-69984857D01*
X113831714Y-69984857D01*
X113926952Y-70032476D01*
X113974571Y-70080095D01*
X114022190Y-70175333D01*
X114022190Y-70556285D01*
X114498380Y-69032476D02*
X114498380Y-69603904D01*
X114498380Y-69318190D02*
X113498380Y-69318190D01*
X113641238Y-69413428D01*
X113736476Y-69508666D01*
X113784095Y-69603904D01*
X113498380Y-68127714D02*
X113498380Y-68603904D01*
X113974571Y-68651523D01*
X113926952Y-68603904D01*
X113879333Y-68508666D01*
X113879333Y-68270571D01*
X113926952Y-68175333D01*
X113974571Y-68127714D01*
X114069809Y-68080095D01*
X114307904Y-68080095D01*
X114403142Y-68127714D01*
X114450761Y-68175333D01*
X114498380Y-68270571D01*
X114498380Y-68508666D01*
X114450761Y-68603904D01*
X114403142Y-68651523D01*
G04 #@! TO.C,R10*
X87202380Y-105355357D02*
X86726190Y-105688690D01*
X87202380Y-105926785D02*
X86202380Y-105926785D01*
X86202380Y-105545833D01*
X86250000Y-105450595D01*
X86297619Y-105402976D01*
X86392857Y-105355357D01*
X86535714Y-105355357D01*
X86630952Y-105402976D01*
X86678571Y-105450595D01*
X86726190Y-105545833D01*
X86726190Y-105926785D01*
X87202380Y-104402976D02*
X87202380Y-104974404D01*
X87202380Y-104688690D02*
X86202380Y-104688690D01*
X86345238Y-104783928D01*
X86440476Y-104879166D01*
X86488095Y-104974404D01*
X86202380Y-103783928D02*
X86202380Y-103688690D01*
X86250000Y-103593452D01*
X86297619Y-103545833D01*
X86392857Y-103498214D01*
X86583333Y-103450595D01*
X86821428Y-103450595D01*
X87011904Y-103498214D01*
X87107142Y-103545833D01*
X87154761Y-103593452D01*
X87202380Y-103688690D01*
X87202380Y-103783928D01*
X87154761Y-103879166D01*
X87107142Y-103926785D01*
X87011904Y-103974404D01*
X86821428Y-104022023D01*
X86583333Y-104022023D01*
X86392857Y-103974404D01*
X86297619Y-103926785D01*
X86250000Y-103879166D01*
X86202380Y-103783928D01*
G04 #@! TO.C,R14*
X116022380Y-69984857D02*
X115546190Y-70318190D01*
X116022380Y-70556285D02*
X115022380Y-70556285D01*
X115022380Y-70175333D01*
X115070000Y-70080095D01*
X115117619Y-70032476D01*
X115212857Y-69984857D01*
X115355714Y-69984857D01*
X115450952Y-70032476D01*
X115498571Y-70080095D01*
X115546190Y-70175333D01*
X115546190Y-70556285D01*
X116022380Y-69032476D02*
X116022380Y-69603904D01*
X116022380Y-69318190D02*
X115022380Y-69318190D01*
X115165238Y-69413428D01*
X115260476Y-69508666D01*
X115308095Y-69603904D01*
X115355714Y-68175333D02*
X116022380Y-68175333D01*
X114974761Y-68413428D02*
X115689047Y-68651523D01*
X115689047Y-68032476D01*
G04 #@! TO.C,R13*
X122372380Y-69984857D02*
X121896190Y-70318190D01*
X122372380Y-70556285D02*
X121372380Y-70556285D01*
X121372380Y-70175333D01*
X121420000Y-70080095D01*
X121467619Y-70032476D01*
X121562857Y-69984857D01*
X121705714Y-69984857D01*
X121800952Y-70032476D01*
X121848571Y-70080095D01*
X121896190Y-70175333D01*
X121896190Y-70556285D01*
X122372380Y-69032476D02*
X122372380Y-69603904D01*
X122372380Y-69318190D02*
X121372380Y-69318190D01*
X121515238Y-69413428D01*
X121610476Y-69508666D01*
X121658095Y-69603904D01*
X121372380Y-68699142D02*
X121372380Y-68080095D01*
X121753333Y-68413428D01*
X121753333Y-68270571D01*
X121800952Y-68175333D01*
X121848571Y-68127714D01*
X121943809Y-68080095D01*
X122181904Y-68080095D01*
X122277142Y-68127714D01*
X122324761Y-68175333D01*
X122372380Y-68270571D01*
X122372380Y-68556285D01*
X122324761Y-68651523D01*
X122277142Y-68699142D01*
G04 #@! TO.C,D5*
X96210380Y-108154595D02*
X95210380Y-108154595D01*
X95210380Y-107916500D01*
X95258000Y-107773642D01*
X95353238Y-107678404D01*
X95448476Y-107630785D01*
X95638952Y-107583166D01*
X95781809Y-107583166D01*
X95972285Y-107630785D01*
X96067523Y-107678404D01*
X96162761Y-107773642D01*
X96210380Y-107916500D01*
X96210380Y-108154595D01*
X95210380Y-106678404D02*
X95210380Y-107154595D01*
X95686571Y-107202214D01*
X95638952Y-107154595D01*
X95591333Y-107059357D01*
X95591333Y-106821261D01*
X95638952Y-106726023D01*
X95686571Y-106678404D01*
X95781809Y-106630785D01*
X96019904Y-106630785D01*
X96115142Y-106678404D01*
X96162761Y-106726023D01*
X96210380Y-106821261D01*
X96210380Y-107059357D01*
X96162761Y-107154595D01*
X96115142Y-107202214D01*
X98115380Y-106362333D02*
X97115380Y-106362333D01*
X97115380Y-105981380D01*
X97163000Y-105886142D01*
X97210619Y-105838523D01*
X97305857Y-105790904D01*
X97448714Y-105790904D01*
X97543952Y-105838523D01*
X97591571Y-105886142D01*
X97639190Y-105981380D01*
X97639190Y-106362333D01*
X97115380Y-105457571D02*
X98115380Y-105219476D01*
X97401095Y-105029000D01*
X98115380Y-104838523D01*
X97115380Y-104600428D01*
X98115380Y-103648047D02*
X97639190Y-103981380D01*
X98115380Y-104219476D02*
X97115380Y-104219476D01*
X97115380Y-103838523D01*
X97163000Y-103743285D01*
X97210619Y-103695666D01*
X97305857Y-103648047D01*
X97448714Y-103648047D01*
X97543952Y-103695666D01*
X97591571Y-103743285D01*
X97639190Y-103838523D01*
X97639190Y-104219476D01*
G04 #@! TO.C,A2*
X129325666Y-78184285D02*
X129325666Y-77708095D01*
X129611380Y-78279523D02*
X128611380Y-77946190D01*
X129611380Y-77612857D01*
X128706619Y-77327142D02*
X128659000Y-77279523D01*
X128611380Y-77184285D01*
X128611380Y-76946190D01*
X128659000Y-76850952D01*
X128706619Y-76803333D01*
X128801857Y-76755714D01*
X128897095Y-76755714D01*
X129039952Y-76803333D01*
X129611380Y-77374761D01*
X129611380Y-76755714D01*
X129611380Y-79029285D02*
X129611380Y-79600714D01*
X129611380Y-79315000D02*
X128611380Y-79315000D01*
X128754238Y-79410238D01*
X128849476Y-79505476D01*
X128897095Y-79600714D01*
X128611380Y-84848333D02*
X128611380Y-84229285D01*
X128992333Y-84562619D01*
X128992333Y-84419761D01*
X129039952Y-84324523D01*
X129087571Y-84276904D01*
X129182809Y-84229285D01*
X129420904Y-84229285D01*
X129516142Y-84276904D01*
X129563761Y-84324523D01*
X129611380Y-84419761D01*
X129611380Y-84705476D01*
X129563761Y-84800714D01*
X129516142Y-84848333D01*
G04 #@! TO.C,A1*
X132246666Y-78057285D02*
X132246666Y-77581095D01*
X132532380Y-78152523D02*
X131532380Y-77819190D01*
X132532380Y-77485857D01*
X132532380Y-76628714D02*
X132532380Y-77200142D01*
X132532380Y-76914428D02*
X131532380Y-76914428D01*
X131675238Y-77009666D01*
X131770476Y-77104904D01*
X131818095Y-77200142D01*
X132659380Y-79029285D02*
X132659380Y-79600714D01*
X132659380Y-79315000D02*
X131659380Y-79315000D01*
X131802238Y-79410238D01*
X131897476Y-79505476D01*
X131945095Y-79600714D01*
X131659380Y-84848333D02*
X131659380Y-84229285D01*
X132040333Y-84562619D01*
X132040333Y-84419761D01*
X132087952Y-84324523D01*
X132135571Y-84276904D01*
X132230809Y-84229285D01*
X132468904Y-84229285D01*
X132564142Y-84276904D01*
X132611761Y-84324523D01*
X132659380Y-84419761D01*
X132659380Y-84705476D01*
X132611761Y-84800714D01*
X132564142Y-84848333D01*
G04 #@! TO.C,A0*
X135294666Y-78057285D02*
X135294666Y-77581095D01*
X135580380Y-78152523D02*
X134580380Y-77819190D01*
X135580380Y-77485857D01*
X134580380Y-76962047D02*
X134580380Y-76866809D01*
X134628000Y-76771571D01*
X134675619Y-76723952D01*
X134770857Y-76676333D01*
X134961333Y-76628714D01*
X135199428Y-76628714D01*
X135389904Y-76676333D01*
X135485142Y-76723952D01*
X135532761Y-76771571D01*
X135580380Y-76866809D01*
X135580380Y-76962047D01*
X135532761Y-77057285D01*
X135485142Y-77104904D01*
X135389904Y-77152523D01*
X135199428Y-77200142D01*
X134961333Y-77200142D01*
X134770857Y-77152523D01*
X134675619Y-77104904D01*
X134628000Y-77057285D01*
X134580380Y-76962047D01*
X135580380Y-79029285D02*
X135580380Y-79600714D01*
X135580380Y-79315000D02*
X134580380Y-79315000D01*
X134723238Y-79410238D01*
X134818476Y-79505476D01*
X134866095Y-79600714D01*
X134580380Y-84848333D02*
X134580380Y-84229285D01*
X134961333Y-84562619D01*
X134961333Y-84419761D01*
X135008952Y-84324523D01*
X135056571Y-84276904D01*
X135151809Y-84229285D01*
X135389904Y-84229285D01*
X135485142Y-84276904D01*
X135532761Y-84324523D01*
X135580380Y-84419761D01*
X135580380Y-84705476D01*
X135532761Y-84800714D01*
X135485142Y-84848333D01*
G04 #@! TO.C,SJ1*
X110654761Y-75642857D02*
X110702380Y-75500000D01*
X110702380Y-75261904D01*
X110654761Y-75166666D01*
X110607142Y-75119047D01*
X110511904Y-75071428D01*
X110416666Y-75071428D01*
X110321428Y-75119047D01*
X110273809Y-75166666D01*
X110226190Y-75261904D01*
X110178571Y-75452380D01*
X110130952Y-75547619D01*
X110083333Y-75595238D01*
X109988095Y-75642857D01*
X109892857Y-75642857D01*
X109797619Y-75595238D01*
X109750000Y-75547619D01*
X109702380Y-75452380D01*
X109702380Y-75214285D01*
X109750000Y-75071428D01*
X109702380Y-74357142D02*
X110416666Y-74357142D01*
X110559523Y-74404761D01*
X110654761Y-74500000D01*
X110702380Y-74642857D01*
X110702380Y-74738095D01*
X110702380Y-73357142D02*
X110702380Y-73928571D01*
X110702380Y-73642857D02*
X109702380Y-73642857D01*
X109845238Y-73738095D01*
X109940476Y-73833333D01*
X109988095Y-73928571D01*
G04 #@! TO.C,C1*
X124690142Y-100242666D02*
X124737761Y-100290285D01*
X124785380Y-100433142D01*
X124785380Y-100528380D01*
X124737761Y-100671238D01*
X124642523Y-100766476D01*
X124547285Y-100814095D01*
X124356809Y-100861714D01*
X124213952Y-100861714D01*
X124023476Y-100814095D01*
X123928238Y-100766476D01*
X123833000Y-100671238D01*
X123785380Y-100528380D01*
X123785380Y-100433142D01*
X123833000Y-100290285D01*
X123880619Y-100242666D01*
X124785380Y-99290285D02*
X124785380Y-99861714D01*
X124785380Y-99576000D02*
X123785380Y-99576000D01*
X123928238Y-99671238D01*
X124023476Y-99766476D01*
X124071095Y-99861714D01*
G04 #@! TO.C,R17*
X111452380Y-83892857D02*
X110976190Y-84226190D01*
X111452380Y-84464285D02*
X110452380Y-84464285D01*
X110452380Y-84083333D01*
X110500000Y-83988095D01*
X110547619Y-83940476D01*
X110642857Y-83892857D01*
X110785714Y-83892857D01*
X110880952Y-83940476D01*
X110928571Y-83988095D01*
X110976190Y-84083333D01*
X110976190Y-84464285D01*
X111452380Y-82940476D02*
X111452380Y-83511904D01*
X111452380Y-83226190D02*
X110452380Y-83226190D01*
X110595238Y-83321428D01*
X110690476Y-83416666D01*
X110738095Y-83511904D01*
X110452380Y-82607142D02*
X110452380Y-81940476D01*
X111452380Y-82369047D01*
G04 #@! TO.C,Q3*
X102401619Y-83788238D02*
X102354000Y-83883476D01*
X102258761Y-83978714D01*
X102115904Y-84121571D01*
X102068285Y-84216809D01*
X102068285Y-84312047D01*
X102306380Y-84264428D02*
X102258761Y-84359666D01*
X102163523Y-84454904D01*
X101973047Y-84502523D01*
X101639714Y-84502523D01*
X101449238Y-84454904D01*
X101354000Y-84359666D01*
X101306380Y-84264428D01*
X101306380Y-84073952D01*
X101354000Y-83978714D01*
X101449238Y-83883476D01*
X101639714Y-83835857D01*
X101973047Y-83835857D01*
X102163523Y-83883476D01*
X102258761Y-83978714D01*
X102306380Y-84073952D01*
X102306380Y-84264428D01*
X101306380Y-83502523D02*
X101306380Y-82883476D01*
X101687333Y-83216809D01*
X101687333Y-83073952D01*
X101734952Y-82978714D01*
X101782571Y-82931095D01*
X101877809Y-82883476D01*
X102115904Y-82883476D01*
X102211142Y-82931095D01*
X102258761Y-82978714D01*
X102306380Y-83073952D01*
X102306380Y-83359666D01*
X102258761Y-83454904D01*
X102211142Y-83502523D01*
G04 #@! TO.C,+5V_in1*
X95464380Y-114291904D02*
X95464380Y-114768095D01*
X95940571Y-114815714D01*
X95892952Y-114768095D01*
X95845333Y-114672857D01*
X95845333Y-114434761D01*
X95892952Y-114339523D01*
X95940571Y-114291904D01*
X96035809Y-114244285D01*
X96273904Y-114244285D01*
X96369142Y-114291904D01*
X96416761Y-114339523D01*
X96464380Y-114434761D01*
X96464380Y-114672857D01*
X96416761Y-114768095D01*
X96369142Y-114815714D01*
X95464380Y-113958571D02*
X96464380Y-113625238D01*
X95464380Y-113291904D01*
X96559619Y-113196666D02*
X96559619Y-112434761D01*
X96464380Y-112196666D02*
X95797714Y-112196666D01*
X95464380Y-112196666D02*
X95512000Y-112244285D01*
X95559619Y-112196666D01*
X95512000Y-112149047D01*
X95464380Y-112196666D01*
X95559619Y-112196666D01*
X95797714Y-111720476D02*
X96464380Y-111720476D01*
X95892952Y-111720476D02*
X95845333Y-111672857D01*
X95797714Y-111577619D01*
X95797714Y-111434761D01*
X95845333Y-111339523D01*
X95940571Y-111291904D01*
X96464380Y-111291904D01*
G04 #@! TO.C,GND_in1*
X84500000Y-115011904D02*
X84452380Y-115107142D01*
X84452380Y-115250000D01*
X84500000Y-115392857D01*
X84595238Y-115488095D01*
X84690476Y-115535714D01*
X84880952Y-115583333D01*
X85023809Y-115583333D01*
X85214285Y-115535714D01*
X85309523Y-115488095D01*
X85404761Y-115392857D01*
X85452380Y-115250000D01*
X85452380Y-115154761D01*
X85404761Y-115011904D01*
X85357142Y-114964285D01*
X85023809Y-114964285D01*
X85023809Y-115154761D01*
X85452380Y-114535714D02*
X84452380Y-114535714D01*
X85452380Y-113964285D01*
X84452380Y-113964285D01*
X85452380Y-113488095D02*
X84452380Y-113488095D01*
X84452380Y-113250000D01*
X84500000Y-113107142D01*
X84595238Y-113011904D01*
X84690476Y-112964285D01*
X84880952Y-112916666D01*
X85023809Y-112916666D01*
X85214285Y-112964285D01*
X85309523Y-113011904D01*
X85404761Y-113107142D01*
X85452380Y-113250000D01*
X85452380Y-113488095D01*
G04 #@! TO.C,U2*
X113625380Y-75437904D02*
X114434904Y-75437904D01*
X114530142Y-75390285D01*
X114577761Y-75342666D01*
X114625380Y-75247428D01*
X114625380Y-75056952D01*
X114577761Y-74961714D01*
X114530142Y-74914095D01*
X114434904Y-74866476D01*
X113625380Y-74866476D01*
X113720619Y-74437904D02*
X113673000Y-74390285D01*
X113625380Y-74295047D01*
X113625380Y-74056952D01*
X113673000Y-73961714D01*
X113720619Y-73914095D01*
X113815857Y-73866476D01*
X113911095Y-73866476D01*
X114053952Y-73914095D01*
X114625380Y-74485523D01*
X114625380Y-73866476D01*
G04 #@! TO.C,Q1*
X89955619Y-104362238D02*
X89908000Y-104457476D01*
X89812761Y-104552714D01*
X89669904Y-104695571D01*
X89622285Y-104790809D01*
X89622285Y-104886047D01*
X89860380Y-104838428D02*
X89812761Y-104933666D01*
X89717523Y-105028904D01*
X89527047Y-105076523D01*
X89193714Y-105076523D01*
X89003238Y-105028904D01*
X88908000Y-104933666D01*
X88860380Y-104838428D01*
X88860380Y-104647952D01*
X88908000Y-104552714D01*
X89003238Y-104457476D01*
X89193714Y-104409857D01*
X89527047Y-104409857D01*
X89717523Y-104457476D01*
X89812761Y-104552714D01*
X89860380Y-104647952D01*
X89860380Y-104838428D01*
X89860380Y-103457476D02*
X89860380Y-104028904D01*
X89860380Y-103743190D02*
X88860380Y-103743190D01*
X89003238Y-103838428D01*
X89098476Y-103933666D01*
X89146095Y-104028904D01*
G04 #@! TO.C,Q2*
X88939619Y-101314238D02*
X88892000Y-101409476D01*
X88796761Y-101504714D01*
X88653904Y-101647571D01*
X88606285Y-101742809D01*
X88606285Y-101838047D01*
X88844380Y-101790428D02*
X88796761Y-101885666D01*
X88701523Y-101980904D01*
X88511047Y-102028523D01*
X88177714Y-102028523D01*
X87987238Y-101980904D01*
X87892000Y-101885666D01*
X87844380Y-101790428D01*
X87844380Y-101599952D01*
X87892000Y-101504714D01*
X87987238Y-101409476D01*
X88177714Y-101361857D01*
X88511047Y-101361857D01*
X88701523Y-101409476D01*
X88796761Y-101504714D01*
X88844380Y-101599952D01*
X88844380Y-101790428D01*
X87939619Y-100980904D02*
X87892000Y-100933285D01*
X87844380Y-100838047D01*
X87844380Y-100599952D01*
X87892000Y-100504714D01*
X87939619Y-100457095D01*
X88034857Y-100409476D01*
X88130095Y-100409476D01*
X88272952Y-100457095D01*
X88844380Y-101028523D01*
X88844380Y-100409476D01*
G04 #@! TO.C,H1*
X81338095Y-64852380D02*
X81338095Y-63852380D01*
X81338095Y-64328571D02*
X81909523Y-64328571D01*
X81909523Y-64852380D02*
X81909523Y-63852380D01*
X82909523Y-64852380D02*
X82338095Y-64852380D01*
X82623809Y-64852380D02*
X82623809Y-63852380D01*
X82528571Y-63995238D01*
X82433333Y-64090476D01*
X82338095Y-64138095D01*
G04 #@! TO.C,H2*
X139338095Y-64872380D02*
X139338095Y-63872380D01*
X139338095Y-64348571D02*
X139909523Y-64348571D01*
X139909523Y-64872380D02*
X139909523Y-63872380D01*
X140338095Y-63967619D02*
X140385714Y-63920000D01*
X140480952Y-63872380D01*
X140719047Y-63872380D01*
X140814285Y-63920000D01*
X140861904Y-63967619D01*
X140909523Y-64062857D01*
X140909523Y-64158095D01*
X140861904Y-64300952D01*
X140290476Y-64872380D01*
X140909523Y-64872380D01*
G04 #@! TO.C,H3*
X81338095Y-113862380D02*
X81338095Y-112862380D01*
X81338095Y-113338571D02*
X81909523Y-113338571D01*
X81909523Y-113862380D02*
X81909523Y-112862380D01*
X82290476Y-112862380D02*
X82909523Y-112862380D01*
X82576190Y-113243333D01*
X82719047Y-113243333D01*
X82814285Y-113290952D01*
X82861904Y-113338571D01*
X82909523Y-113433809D01*
X82909523Y-113671904D01*
X82861904Y-113767142D01*
X82814285Y-113814761D01*
X82719047Y-113862380D01*
X82433333Y-113862380D01*
X82338095Y-113814761D01*
X82290476Y-113767142D01*
G04 #@! TO.C,H4*
X139328095Y-113852380D02*
X139328095Y-112852380D01*
X139328095Y-113328571D02*
X139899523Y-113328571D01*
X139899523Y-113852380D02*
X139899523Y-112852380D01*
X140804285Y-113185714D02*
X140804285Y-113852380D01*
X140566190Y-112804761D02*
X140328095Y-113519047D01*
X140947142Y-113519047D01*
G04 #@! TD*
M02*
