G04 #@! TF.GenerationSoftware,KiCad,Pcbnew,(5.1.5)-3*
G04 #@! TF.CreationDate,2020-02-23T12:43:37-05:00*
G04 #@! TF.ProjectId,Zynth-encoder_power_display_fan,5a796e74-682d-4656-9e63-6f6465725f70,rev?*
G04 #@! TF.SameCoordinates,Original*
G04 #@! TF.FileFunction,Copper,L2,Bot*
G04 #@! TF.FilePolarity,Positive*
%FSLAX46Y46*%
G04 Gerber Fmt 4.6, Leading zero omitted, Abs format (unit mm)*
G04 Created by KiCad (PCBNEW (5.1.5)-3) date 2020-02-23 12:43:37*
%MOMM*%
%LPD*%
G04 APERTURE LIST*
G04 #@! TA.AperFunction,ComponentPad*
%ADD10O,1.700000X1.950000*%
G04 #@! TD*
G04 #@! TA.AperFunction,ComponentPad*
%ADD11C,0.150000*%
G04 #@! TD*
G04 #@! TA.AperFunction,ComponentPad*
%ADD12O,1.950000X1.700000*%
G04 #@! TD*
G04 #@! TA.AperFunction,ComponentPad*
%ADD13O,1.700000X2.000000*%
G04 #@! TD*
G04 #@! TA.AperFunction,ComponentPad*
%ADD14O,2.000000X1.700000*%
G04 #@! TD*
G04 #@! TA.AperFunction,WasherPad*
%ADD15C,3.000000*%
G04 #@! TD*
G04 #@! TA.AperFunction,ComponentPad*
%ADD16C,3.500120*%
G04 #@! TD*
G04 #@! TA.AperFunction,ComponentPad*
%ADD17R,3.500120X3.500120*%
G04 #@! TD*
G04 #@! TA.AperFunction,ComponentPad*
%ADD18R,1.700000X1.700000*%
G04 #@! TD*
G04 #@! TA.AperFunction,ComponentPad*
%ADD19O,1.700000X1.700000*%
G04 #@! TD*
G04 #@! TA.AperFunction,ViaPad*
%ADD20C,0.400000*%
G04 #@! TD*
G04 #@! TA.AperFunction,Conductor*
%ADD21C,0.150000*%
G04 #@! TD*
G04 #@! TA.AperFunction,Conductor*
%ADD22C,0.500000*%
G04 #@! TD*
G04 #@! TA.AperFunction,Conductor*
%ADD23C,0.254000*%
G04 #@! TD*
G04 APERTURE END LIST*
D10*
G04 #@! TO.P,PWR1,4*
G04 #@! TO.N,Net-(JP1-Pad2)*
X97000000Y-93500000D03*
G04 #@! TO.P,PWR1,3*
G04 #@! TO.N,Net-(PWR1-Pad3)*
X94500000Y-93500000D03*
G04 #@! TO.P,PWR1,2*
G04 #@! TO.N,/P5V_HAT*
X92000000Y-93500000D03*
G04 #@! TA.AperFunction,ComponentPad*
D11*
G04 #@! TO.P,PWR1,1*
G04 #@! TO.N,GND*
G36*
X90124504Y-92526204D02*
G01*
X90148773Y-92529804D01*
X90172571Y-92535765D01*
X90195671Y-92544030D01*
X90217849Y-92554520D01*
X90238893Y-92567133D01*
X90258598Y-92581747D01*
X90276777Y-92598223D01*
X90293253Y-92616402D01*
X90307867Y-92636107D01*
X90320480Y-92657151D01*
X90330970Y-92679329D01*
X90339235Y-92702429D01*
X90345196Y-92726227D01*
X90348796Y-92750496D01*
X90350000Y-92775000D01*
X90350000Y-94225000D01*
X90348796Y-94249504D01*
X90345196Y-94273773D01*
X90339235Y-94297571D01*
X90330970Y-94320671D01*
X90320480Y-94342849D01*
X90307867Y-94363893D01*
X90293253Y-94383598D01*
X90276777Y-94401777D01*
X90258598Y-94418253D01*
X90238893Y-94432867D01*
X90217849Y-94445480D01*
X90195671Y-94455970D01*
X90172571Y-94464235D01*
X90148773Y-94470196D01*
X90124504Y-94473796D01*
X90100000Y-94475000D01*
X88900000Y-94475000D01*
X88875496Y-94473796D01*
X88851227Y-94470196D01*
X88827429Y-94464235D01*
X88804329Y-94455970D01*
X88782151Y-94445480D01*
X88761107Y-94432867D01*
X88741402Y-94418253D01*
X88723223Y-94401777D01*
X88706747Y-94383598D01*
X88692133Y-94363893D01*
X88679520Y-94342849D01*
X88669030Y-94320671D01*
X88660765Y-94297571D01*
X88654804Y-94273773D01*
X88651204Y-94249504D01*
X88650000Y-94225000D01*
X88650000Y-92775000D01*
X88651204Y-92750496D01*
X88654804Y-92726227D01*
X88660765Y-92702429D01*
X88669030Y-92679329D01*
X88679520Y-92657151D01*
X88692133Y-92636107D01*
X88706747Y-92616402D01*
X88723223Y-92598223D01*
X88741402Y-92581747D01*
X88761107Y-92567133D01*
X88782151Y-92554520D01*
X88804329Y-92544030D01*
X88827429Y-92535765D01*
X88851227Y-92529804D01*
X88875496Y-92526204D01*
X88900000Y-92525000D01*
X90100000Y-92525000D01*
X90124504Y-92526204D01*
G37*
G04 #@! TD.AperFunction*
G04 #@! TD*
G04 #@! TA.AperFunction,ComponentPad*
G04 #@! TO.P,E5,1*
G04 #@! TO.N,GND*
G36*
X141338504Y-95203204D02*
G01*
X141362773Y-95206804D01*
X141386571Y-95212765D01*
X141409671Y-95221030D01*
X141431849Y-95231520D01*
X141452893Y-95244133D01*
X141472598Y-95258747D01*
X141490777Y-95275223D01*
X141507253Y-95293402D01*
X141521867Y-95313107D01*
X141534480Y-95334151D01*
X141544970Y-95356329D01*
X141553235Y-95379429D01*
X141559196Y-95403227D01*
X141562796Y-95427496D01*
X141564000Y-95452000D01*
X141564000Y-96652000D01*
X141562796Y-96676504D01*
X141559196Y-96700773D01*
X141553235Y-96724571D01*
X141544970Y-96747671D01*
X141534480Y-96769849D01*
X141521867Y-96790893D01*
X141507253Y-96810598D01*
X141490777Y-96828777D01*
X141472598Y-96845253D01*
X141452893Y-96859867D01*
X141431849Y-96872480D01*
X141409671Y-96882970D01*
X141386571Y-96891235D01*
X141362773Y-96897196D01*
X141338504Y-96900796D01*
X141314000Y-96902000D01*
X139864000Y-96902000D01*
X139839496Y-96900796D01*
X139815227Y-96897196D01*
X139791429Y-96891235D01*
X139768329Y-96882970D01*
X139746151Y-96872480D01*
X139725107Y-96859867D01*
X139705402Y-96845253D01*
X139687223Y-96828777D01*
X139670747Y-96810598D01*
X139656133Y-96790893D01*
X139643520Y-96769849D01*
X139633030Y-96747671D01*
X139624765Y-96724571D01*
X139618804Y-96700773D01*
X139615204Y-96676504D01*
X139614000Y-96652000D01*
X139614000Y-95452000D01*
X139615204Y-95427496D01*
X139618804Y-95403227D01*
X139624765Y-95379429D01*
X139633030Y-95356329D01*
X139643520Y-95334151D01*
X139656133Y-95313107D01*
X139670747Y-95293402D01*
X139687223Y-95275223D01*
X139705402Y-95258747D01*
X139725107Y-95244133D01*
X139746151Y-95231520D01*
X139768329Y-95221030D01*
X139791429Y-95212765D01*
X139815227Y-95206804D01*
X139839496Y-95203204D01*
X139864000Y-95202000D01*
X141314000Y-95202000D01*
X141338504Y-95203204D01*
G37*
G04 #@! TD.AperFunction*
D12*
G04 #@! TO.P,E5,2*
G04 #@! TO.N,/E1+*
X140589000Y-98552000D03*
G04 #@! TO.P,E5,3*
G04 #@! TO.N,/GSW3*
X140589000Y-101052000D03*
G04 #@! TO.P,E5,4*
G04 #@! TO.N,/GSW2*
X140589000Y-103552000D03*
G04 #@! TO.P,E5,5*
G04 #@! TO.N,/GSW1*
X140589000Y-106052000D03*
G04 #@! TD*
D13*
G04 #@! TO.P,PWR3,2*
G04 #@! TO.N,/P5V_HAT*
X104100000Y-98200000D03*
G04 #@! TA.AperFunction,ComponentPad*
D11*
G04 #@! TO.P,PWR3,1*
G04 #@! TO.N,/FAN_GND*
G36*
X107224504Y-97201204D02*
G01*
X107248773Y-97204804D01*
X107272571Y-97210765D01*
X107295671Y-97219030D01*
X107317849Y-97229520D01*
X107338893Y-97242133D01*
X107358598Y-97256747D01*
X107376777Y-97273223D01*
X107393253Y-97291402D01*
X107407867Y-97311107D01*
X107420480Y-97332151D01*
X107430970Y-97354329D01*
X107439235Y-97377429D01*
X107445196Y-97401227D01*
X107448796Y-97425496D01*
X107450000Y-97450000D01*
X107450000Y-98950000D01*
X107448796Y-98974504D01*
X107445196Y-98998773D01*
X107439235Y-99022571D01*
X107430970Y-99045671D01*
X107420480Y-99067849D01*
X107407867Y-99088893D01*
X107393253Y-99108598D01*
X107376777Y-99126777D01*
X107358598Y-99143253D01*
X107338893Y-99157867D01*
X107317849Y-99170480D01*
X107295671Y-99180970D01*
X107272571Y-99189235D01*
X107248773Y-99195196D01*
X107224504Y-99198796D01*
X107200000Y-99200000D01*
X106000000Y-99200000D01*
X105975496Y-99198796D01*
X105951227Y-99195196D01*
X105927429Y-99189235D01*
X105904329Y-99180970D01*
X105882151Y-99170480D01*
X105861107Y-99157867D01*
X105841402Y-99143253D01*
X105823223Y-99126777D01*
X105806747Y-99108598D01*
X105792133Y-99088893D01*
X105779520Y-99067849D01*
X105769030Y-99045671D01*
X105760765Y-99022571D01*
X105754804Y-98998773D01*
X105751204Y-98974504D01*
X105750000Y-98950000D01*
X105750000Y-97450000D01*
X105751204Y-97425496D01*
X105754804Y-97401227D01*
X105760765Y-97377429D01*
X105769030Y-97354329D01*
X105779520Y-97332151D01*
X105792133Y-97311107D01*
X105806747Y-97291402D01*
X105823223Y-97273223D01*
X105841402Y-97256747D01*
X105861107Y-97242133D01*
X105882151Y-97229520D01*
X105904329Y-97219030D01*
X105927429Y-97210765D01*
X105951227Y-97204804D01*
X105975496Y-97201204D01*
X106000000Y-97200000D01*
X107200000Y-97200000D01*
X107224504Y-97201204D01*
G37*
G04 #@! TD.AperFunction*
G04 #@! TD*
D10*
G04 #@! TO.P,E4,5*
G04 #@! TO.N,/E4D*
X133190000Y-105029000D03*
G04 #@! TO.P,E4,4*
G04 #@! TO.N,/E4C*
X130690000Y-105029000D03*
G04 #@! TO.P,E4,3*
G04 #@! TO.N,/E4S*
X128190000Y-105029000D03*
G04 #@! TO.P,E4,2*
G04 #@! TO.N,/E1+*
X125690000Y-105029000D03*
G04 #@! TA.AperFunction,ComponentPad*
D11*
G04 #@! TO.P,E4,1*
G04 #@! TO.N,GND*
G36*
X123814504Y-104055204D02*
G01*
X123838773Y-104058804D01*
X123862571Y-104064765D01*
X123885671Y-104073030D01*
X123907849Y-104083520D01*
X123928893Y-104096133D01*
X123948598Y-104110747D01*
X123966777Y-104127223D01*
X123983253Y-104145402D01*
X123997867Y-104165107D01*
X124010480Y-104186151D01*
X124020970Y-104208329D01*
X124029235Y-104231429D01*
X124035196Y-104255227D01*
X124038796Y-104279496D01*
X124040000Y-104304000D01*
X124040000Y-105754000D01*
X124038796Y-105778504D01*
X124035196Y-105802773D01*
X124029235Y-105826571D01*
X124020970Y-105849671D01*
X124010480Y-105871849D01*
X123997867Y-105892893D01*
X123983253Y-105912598D01*
X123966777Y-105930777D01*
X123948598Y-105947253D01*
X123928893Y-105961867D01*
X123907849Y-105974480D01*
X123885671Y-105984970D01*
X123862571Y-105993235D01*
X123838773Y-105999196D01*
X123814504Y-106002796D01*
X123790000Y-106004000D01*
X122590000Y-106004000D01*
X122565496Y-106002796D01*
X122541227Y-105999196D01*
X122517429Y-105993235D01*
X122494329Y-105984970D01*
X122472151Y-105974480D01*
X122451107Y-105961867D01*
X122431402Y-105947253D01*
X122413223Y-105930777D01*
X122396747Y-105912598D01*
X122382133Y-105892893D01*
X122369520Y-105871849D01*
X122359030Y-105849671D01*
X122350765Y-105826571D01*
X122344804Y-105802773D01*
X122341204Y-105778504D01*
X122340000Y-105754000D01*
X122340000Y-104304000D01*
X122341204Y-104279496D01*
X122344804Y-104255227D01*
X122350765Y-104231429D01*
X122359030Y-104208329D01*
X122369520Y-104186151D01*
X122382133Y-104165107D01*
X122396747Y-104145402D01*
X122413223Y-104127223D01*
X122431402Y-104110747D01*
X122451107Y-104096133D01*
X122472151Y-104083520D01*
X122494329Y-104073030D01*
X122517429Y-104064765D01*
X122541227Y-104058804D01*
X122565496Y-104055204D01*
X122590000Y-104054000D01*
X123790000Y-104054000D01*
X123814504Y-104055204D01*
G37*
G04 #@! TD.AperFunction*
G04 #@! TD*
D10*
G04 #@! TO.P,E3,5*
G04 #@! TO.N,/E3D*
X116299000Y-105029000D03*
G04 #@! TO.P,E3,4*
G04 #@! TO.N,/E3C*
X113799000Y-105029000D03*
G04 #@! TO.P,E3,3*
G04 #@! TO.N,/E3S*
X111299000Y-105029000D03*
G04 #@! TO.P,E3,2*
G04 #@! TO.N,/E1+*
X108799000Y-105029000D03*
G04 #@! TA.AperFunction,ComponentPad*
D11*
G04 #@! TO.P,E3,1*
G04 #@! TO.N,GND*
G36*
X106923504Y-104055204D02*
G01*
X106947773Y-104058804D01*
X106971571Y-104064765D01*
X106994671Y-104073030D01*
X107016849Y-104083520D01*
X107037893Y-104096133D01*
X107057598Y-104110747D01*
X107075777Y-104127223D01*
X107092253Y-104145402D01*
X107106867Y-104165107D01*
X107119480Y-104186151D01*
X107129970Y-104208329D01*
X107138235Y-104231429D01*
X107144196Y-104255227D01*
X107147796Y-104279496D01*
X107149000Y-104304000D01*
X107149000Y-105754000D01*
X107147796Y-105778504D01*
X107144196Y-105802773D01*
X107138235Y-105826571D01*
X107129970Y-105849671D01*
X107119480Y-105871849D01*
X107106867Y-105892893D01*
X107092253Y-105912598D01*
X107075777Y-105930777D01*
X107057598Y-105947253D01*
X107037893Y-105961867D01*
X107016849Y-105974480D01*
X106994671Y-105984970D01*
X106971571Y-105993235D01*
X106947773Y-105999196D01*
X106923504Y-106002796D01*
X106899000Y-106004000D01*
X105699000Y-106004000D01*
X105674496Y-106002796D01*
X105650227Y-105999196D01*
X105626429Y-105993235D01*
X105603329Y-105984970D01*
X105581151Y-105974480D01*
X105560107Y-105961867D01*
X105540402Y-105947253D01*
X105522223Y-105930777D01*
X105505747Y-105912598D01*
X105491133Y-105892893D01*
X105478520Y-105871849D01*
X105468030Y-105849671D01*
X105459765Y-105826571D01*
X105453804Y-105802773D01*
X105450204Y-105778504D01*
X105449000Y-105754000D01*
X105449000Y-104304000D01*
X105450204Y-104279496D01*
X105453804Y-104255227D01*
X105459765Y-104231429D01*
X105468030Y-104208329D01*
X105478520Y-104186151D01*
X105491133Y-104165107D01*
X105505747Y-104145402D01*
X105522223Y-104127223D01*
X105540402Y-104110747D01*
X105560107Y-104096133D01*
X105581151Y-104083520D01*
X105603329Y-104073030D01*
X105626429Y-104064765D01*
X105650227Y-104058804D01*
X105674496Y-104055204D01*
X105699000Y-104054000D01*
X106899000Y-104054000D01*
X106923504Y-104055204D01*
G37*
G04 #@! TD.AperFunction*
G04 #@! TD*
D10*
G04 #@! TO.P,E2,5*
G04 #@! TO.N,/E2D*
X122969000Y-113919000D03*
G04 #@! TO.P,E2,4*
G04 #@! TO.N,/E2C*
X125469000Y-113919000D03*
G04 #@! TO.P,E2,3*
G04 #@! TO.N,/E2S*
X127969000Y-113919000D03*
G04 #@! TO.P,E2,2*
G04 #@! TO.N,/E1+*
X130469000Y-113919000D03*
G04 #@! TA.AperFunction,ComponentPad*
D11*
G04 #@! TO.P,E2,1*
G04 #@! TO.N,GND*
G36*
X133593504Y-112945204D02*
G01*
X133617773Y-112948804D01*
X133641571Y-112954765D01*
X133664671Y-112963030D01*
X133686849Y-112973520D01*
X133707893Y-112986133D01*
X133727598Y-113000747D01*
X133745777Y-113017223D01*
X133762253Y-113035402D01*
X133776867Y-113055107D01*
X133789480Y-113076151D01*
X133799970Y-113098329D01*
X133808235Y-113121429D01*
X133814196Y-113145227D01*
X133817796Y-113169496D01*
X133819000Y-113194000D01*
X133819000Y-114644000D01*
X133817796Y-114668504D01*
X133814196Y-114692773D01*
X133808235Y-114716571D01*
X133799970Y-114739671D01*
X133789480Y-114761849D01*
X133776867Y-114782893D01*
X133762253Y-114802598D01*
X133745777Y-114820777D01*
X133727598Y-114837253D01*
X133707893Y-114851867D01*
X133686849Y-114864480D01*
X133664671Y-114874970D01*
X133641571Y-114883235D01*
X133617773Y-114889196D01*
X133593504Y-114892796D01*
X133569000Y-114894000D01*
X132369000Y-114894000D01*
X132344496Y-114892796D01*
X132320227Y-114889196D01*
X132296429Y-114883235D01*
X132273329Y-114874970D01*
X132251151Y-114864480D01*
X132230107Y-114851867D01*
X132210402Y-114837253D01*
X132192223Y-114820777D01*
X132175747Y-114802598D01*
X132161133Y-114782893D01*
X132148520Y-114761849D01*
X132138030Y-114739671D01*
X132129765Y-114716571D01*
X132123804Y-114692773D01*
X132120204Y-114668504D01*
X132119000Y-114644000D01*
X132119000Y-113194000D01*
X132120204Y-113169496D01*
X132123804Y-113145227D01*
X132129765Y-113121429D01*
X132138030Y-113098329D01*
X132148520Y-113076151D01*
X132161133Y-113055107D01*
X132175747Y-113035402D01*
X132192223Y-113017223D01*
X132210402Y-113000747D01*
X132230107Y-112986133D01*
X132251151Y-112973520D01*
X132273329Y-112963030D01*
X132296429Y-112954765D01*
X132320227Y-112948804D01*
X132344496Y-112945204D01*
X132369000Y-112944000D01*
X133569000Y-112944000D01*
X133593504Y-112945204D01*
G37*
G04 #@! TD.AperFunction*
G04 #@! TD*
D10*
G04 #@! TO.P,E1,5*
G04 #@! TO.N,/E1D*
X106078000Y-113919000D03*
G04 #@! TO.P,E1,4*
G04 #@! TO.N,/E1C*
X108578000Y-113919000D03*
G04 #@! TO.P,E1,3*
G04 #@! TO.N,/E1S*
X111078000Y-113919000D03*
G04 #@! TO.P,E1,2*
G04 #@! TO.N,/E1+*
X113578000Y-113919000D03*
G04 #@! TA.AperFunction,ComponentPad*
D11*
G04 #@! TO.P,E1,1*
G04 #@! TO.N,GND*
G36*
X116702504Y-112945204D02*
G01*
X116726773Y-112948804D01*
X116750571Y-112954765D01*
X116773671Y-112963030D01*
X116795849Y-112973520D01*
X116816893Y-112986133D01*
X116836598Y-113000747D01*
X116854777Y-113017223D01*
X116871253Y-113035402D01*
X116885867Y-113055107D01*
X116898480Y-113076151D01*
X116908970Y-113098329D01*
X116917235Y-113121429D01*
X116923196Y-113145227D01*
X116926796Y-113169496D01*
X116928000Y-113194000D01*
X116928000Y-114644000D01*
X116926796Y-114668504D01*
X116923196Y-114692773D01*
X116917235Y-114716571D01*
X116908970Y-114739671D01*
X116898480Y-114761849D01*
X116885867Y-114782893D01*
X116871253Y-114802598D01*
X116854777Y-114820777D01*
X116836598Y-114837253D01*
X116816893Y-114851867D01*
X116795849Y-114864480D01*
X116773671Y-114874970D01*
X116750571Y-114883235D01*
X116726773Y-114889196D01*
X116702504Y-114892796D01*
X116678000Y-114894000D01*
X115478000Y-114894000D01*
X115453496Y-114892796D01*
X115429227Y-114889196D01*
X115405429Y-114883235D01*
X115382329Y-114874970D01*
X115360151Y-114864480D01*
X115339107Y-114851867D01*
X115319402Y-114837253D01*
X115301223Y-114820777D01*
X115284747Y-114802598D01*
X115270133Y-114782893D01*
X115257520Y-114761849D01*
X115247030Y-114739671D01*
X115238765Y-114716571D01*
X115232804Y-114692773D01*
X115229204Y-114668504D01*
X115228000Y-114644000D01*
X115228000Y-113194000D01*
X115229204Y-113169496D01*
X115232804Y-113145227D01*
X115238765Y-113121429D01*
X115247030Y-113098329D01*
X115257520Y-113076151D01*
X115270133Y-113055107D01*
X115284747Y-113035402D01*
X115301223Y-113017223D01*
X115319402Y-113000747D01*
X115339107Y-112986133D01*
X115360151Y-112973520D01*
X115382329Y-112963030D01*
X115405429Y-112954765D01*
X115429227Y-112948804D01*
X115453496Y-112945204D01*
X115478000Y-112944000D01*
X116678000Y-112944000D01*
X116702504Y-112945204D01*
G37*
G04 #@! TD.AperFunction*
G04 #@! TD*
D14*
G04 #@! TO.P,PWR2,2*
G04 #@! TO.N,/P5V_HAT*
X82550000Y-96099000D03*
G04 #@! TA.AperFunction,ComponentPad*
D11*
G04 #@! TO.P,PWR2,1*
G04 #@! TO.N,GND*
G36*
X83324504Y-92750204D02*
G01*
X83348773Y-92753804D01*
X83372571Y-92759765D01*
X83395671Y-92768030D01*
X83417849Y-92778520D01*
X83438893Y-92791133D01*
X83458598Y-92805747D01*
X83476777Y-92822223D01*
X83493253Y-92840402D01*
X83507867Y-92860107D01*
X83520480Y-92881151D01*
X83530970Y-92903329D01*
X83539235Y-92926429D01*
X83545196Y-92950227D01*
X83548796Y-92974496D01*
X83550000Y-92999000D01*
X83550000Y-94199000D01*
X83548796Y-94223504D01*
X83545196Y-94247773D01*
X83539235Y-94271571D01*
X83530970Y-94294671D01*
X83520480Y-94316849D01*
X83507867Y-94337893D01*
X83493253Y-94357598D01*
X83476777Y-94375777D01*
X83458598Y-94392253D01*
X83438893Y-94406867D01*
X83417849Y-94419480D01*
X83395671Y-94429970D01*
X83372571Y-94438235D01*
X83348773Y-94444196D01*
X83324504Y-94447796D01*
X83300000Y-94449000D01*
X81800000Y-94449000D01*
X81775496Y-94447796D01*
X81751227Y-94444196D01*
X81727429Y-94438235D01*
X81704329Y-94429970D01*
X81682151Y-94419480D01*
X81661107Y-94406867D01*
X81641402Y-94392253D01*
X81623223Y-94375777D01*
X81606747Y-94357598D01*
X81592133Y-94337893D01*
X81579520Y-94316849D01*
X81569030Y-94294671D01*
X81560765Y-94271571D01*
X81554804Y-94247773D01*
X81551204Y-94223504D01*
X81550000Y-94199000D01*
X81550000Y-92999000D01*
X81551204Y-92974496D01*
X81554804Y-92950227D01*
X81560765Y-92926429D01*
X81569030Y-92903329D01*
X81579520Y-92881151D01*
X81592133Y-92860107D01*
X81606747Y-92840402D01*
X81623223Y-92822223D01*
X81641402Y-92805747D01*
X81661107Y-92791133D01*
X81682151Y-92778520D01*
X81704329Y-92768030D01*
X81727429Y-92759765D01*
X81751227Y-92753804D01*
X81775496Y-92750204D01*
X81800000Y-92749000D01*
X83300000Y-92749000D01*
X83324504Y-92750204D01*
G37*
G04 #@! TD.AperFunction*
G04 #@! TD*
D15*
G04 #@! TO.P,H6,*
G04 #@! TO.N,*
X140040000Y-87330000D03*
G04 #@! TD*
G04 #@! TO.P,H5,*
G04 #@! TO.N,*
X82040000Y-87310000D03*
G04 #@! TD*
D16*
G04 #@! TO.P,+5V_in1,2*
G04 #@! TO.N,/P5V*
X92837000Y-108839000D03*
D17*
G04 #@! TO.P,+5V_in1,1*
X92837000Y-113919000D03*
G04 #@! TD*
D16*
G04 #@! TO.P,GND_in1,2*
G04 #@! TO.N,GND*
X87757000Y-108839000D03*
D17*
G04 #@! TO.P,GND_in1,1*
X87757000Y-113919000D03*
G04 #@! TD*
D18*
G04 #@! TO.P,J3,1*
G04 #@! TO.N,/P3V3*
X86920000Y-65590000D03*
D19*
G04 #@! TO.P,J3,2*
G04 #@! TO.N,/P5V_HAT*
X86920000Y-63050000D03*
G04 #@! TO.P,J3,3*
G04 #@! TO.N,/SDA*
X89460000Y-65590000D03*
G04 #@! TO.P,J3,4*
G04 #@! TO.N,/P5V_HAT*
X89460000Y-63050000D03*
G04 #@! TO.P,J3,5*
G04 #@! TO.N,/SCK*
X92000000Y-65590000D03*
G04 #@! TO.P,J3,6*
G04 #@! TO.N,GND*
X92000000Y-63050000D03*
G04 #@! TO.P,J3,7*
G04 #@! TO.N,N/C*
X94540000Y-65590000D03*
G04 #@! TO.P,J3,8*
X94540000Y-63050000D03*
G04 #@! TO.P,J3,9*
G04 #@! TO.N,GND*
X97080000Y-65590000D03*
G04 #@! TO.P,J3,10*
G04 #@! TO.N,N/C*
X97080000Y-63050000D03*
G04 #@! TO.P,J3,11*
G04 #@! TO.N,/ACT_LED*
X99620000Y-65590000D03*
G04 #@! TO.P,J3,12*
G04 #@! TO.N,N/C*
X99620000Y-63050000D03*
G04 #@! TO.P,J3,13*
X102160000Y-65590000D03*
G04 #@! TO.P,J3,14*
G04 #@! TO.N,GND*
X102160000Y-63050000D03*
G04 #@! TO.P,J3,15*
G04 #@! TO.N,N/C*
X104700000Y-65590000D03*
G04 #@! TO.P,J3,16*
X104700000Y-63050000D03*
G04 #@! TO.P,J3,17*
X107240000Y-65590000D03*
G04 #@! TO.P,J3,18*
X107240000Y-63050000D03*
G04 #@! TO.P,J3,19*
X109780000Y-65590000D03*
G04 #@! TO.P,J3,20*
G04 #@! TO.N,GND*
X109780000Y-63050000D03*
G04 #@! TO.P,J3,21*
G04 #@! TO.N,N/C*
X112320000Y-65590000D03*
G04 #@! TO.P,J3,22*
X112320000Y-63050000D03*
G04 #@! TO.P,J3,23*
X114860000Y-65590000D03*
G04 #@! TO.P,J3,24*
X114860000Y-63050000D03*
G04 #@! TO.P,J3,25*
G04 #@! TO.N,GND*
X117400000Y-65590000D03*
G04 #@! TO.P,J3,26*
G04 #@! TO.N,N/C*
X117400000Y-63050000D03*
G04 #@! TO.P,J3,27*
G04 #@! TO.N,/ID_SD_EEPROM*
X119940000Y-65590000D03*
G04 #@! TO.P,J3,28*
G04 #@! TO.N,/ID_SC_EEPROM*
X119940000Y-63050000D03*
G04 #@! TO.P,J3,29*
G04 #@! TO.N,N/C*
X122480000Y-65590000D03*
G04 #@! TO.P,J3,30*
G04 #@! TO.N,GND*
X122480000Y-63050000D03*
G04 #@! TO.P,J3,31*
G04 #@! TO.N,N/C*
X125020000Y-65590000D03*
G04 #@! TO.P,J3,32*
G04 #@! TO.N,/PWM_FAN_2*
X125020000Y-63050000D03*
G04 #@! TO.P,J3,33*
G04 #@! TO.N,/PWM_FAN_1*
X127560000Y-65590000D03*
G04 #@! TO.P,J3,34*
G04 #@! TO.N,GND*
X127560000Y-63050000D03*
G04 #@! TO.P,J3,35*
G04 #@! TO.N,N/C*
X130100000Y-65590000D03*
G04 #@! TO.P,J3,36*
G04 #@! TO.N,/INTA*
X130100000Y-63050000D03*
G04 #@! TO.P,J3,37*
G04 #@! TO.N,/INTB*
X132640000Y-65590000D03*
G04 #@! TO.P,J3,38*
G04 #@! TO.N,N/C*
X132640000Y-63050000D03*
G04 #@! TO.P,J3,39*
G04 #@! TO.N,GND*
X135180000Y-65590000D03*
G04 #@! TO.P,J3,40*
G04 #@! TO.N,N/C*
X135180000Y-63050000D03*
G04 #@! TD*
D15*
G04 #@! TO.P,H1,*
G04 #@! TO.N,*
X82040000Y-64310000D03*
G04 #@! TD*
G04 #@! TO.P,H2,*
G04 #@! TO.N,*
X140040000Y-64330000D03*
G04 #@! TD*
G04 #@! TO.P,H3,*
G04 #@! TO.N,*
X82040000Y-113320000D03*
G04 #@! TD*
G04 #@! TO.P,H4,*
G04 #@! TO.N,*
X140030000Y-113310000D03*
G04 #@! TD*
D20*
G04 #@! TO.N,/ID_SD_EEPROM*
X121667500Y-70102500D03*
G04 #@! TO.N,Net-(Q1-Pad1)*
X93279000Y-102677000D03*
X90297000Y-102677000D03*
G04 #@! TO.N,Net-(Q2-Pad1)*
X89274000Y-98976000D03*
X89274000Y-100976000D03*
G04 #@! TO.N,/P5V_HAT*
X128397000Y-84500000D03*
X135128000Y-84500000D03*
X132207000Y-84500000D03*
G04 #@! TO.N,/SDA*
X127254000Y-94106998D03*
G04 #@! TO.N,/E3D*
X120000000Y-94000000D03*
G04 #@! TO.N,/E3C*
X118750016Y-94000000D03*
G04 #@! TO.N,/E3S*
X117500000Y-94000000D03*
G04 #@! TO.N,/E4D*
X120777000Y-89535000D03*
G04 #@! TO.N,/E4C*
X119507000Y-90170000D03*
G04 #@! TO.N,/E4S*
X119250000Y-91000004D03*
G04 #@! TO.N,/GSW3*
X116967000Y-86106000D03*
G04 #@! TO.N,/SCK*
X128905000Y-95123000D03*
X98295000Y-71885000D03*
G04 #@! TO.N,/E1+*
X136525000Y-100965000D03*
G04 #@! TO.N,/PWM_FAN_2*
X127508000Y-74295000D03*
G04 #@! TO.N,/ACT_LED*
X99620000Y-70500000D03*
G04 #@! TD*
D21*
G04 #@! TO.N,/ID_SD_EEPROM*
X120789999Y-66439999D02*
X120795999Y-66439999D01*
X119940000Y-65590000D02*
X120789999Y-66439999D01*
X120795999Y-66439999D02*
X122174000Y-67818000D01*
X122174000Y-69596000D02*
X121667500Y-70102500D01*
X122174000Y-67818000D02*
X122174000Y-69596000D01*
G04 #@! TO.N,Net-(Q1-Pad1)*
X93279000Y-102677000D02*
X90297000Y-102677000D01*
G04 #@! TO.N,Net-(Q2-Pad1)*
X89274000Y-98976000D02*
X89274000Y-100976000D01*
X89274000Y-100976000D02*
X89274000Y-100976000D01*
D22*
G04 #@! TO.N,/P5V_HAT*
X92000000Y-94975000D02*
X92000000Y-93500000D01*
X90876000Y-96099000D02*
X92000000Y-94975000D01*
X82550000Y-96099000D02*
X90876000Y-96099000D01*
X86360000Y-92640000D02*
X83373999Y-95626001D01*
X85390001Y-64579999D02*
X85390001Y-66882999D01*
X86360000Y-67945000D02*
X86360000Y-92640000D01*
X86920000Y-63050000D02*
X85390001Y-64579999D01*
X85344000Y-66929000D02*
X86360000Y-67945000D01*
X85390001Y-66882999D02*
X85344000Y-66929000D01*
D21*
X128397000Y-84500000D02*
X135128000Y-84500000D01*
G04 #@! TO.N,/SDA*
X127054001Y-93906999D02*
X127254000Y-94106998D01*
X126147002Y-93000000D02*
X127054001Y-93906999D01*
X89460000Y-65590000D02*
X116870000Y-93000000D01*
X116870000Y-93000000D02*
X126147002Y-93000000D01*
G04 #@! TO.N,/E3D*
X116299000Y-105029000D02*
X116299000Y-97701000D01*
X116299000Y-97701000D02*
X120000000Y-94000000D01*
G04 #@! TO.N,/E3C*
X113799000Y-105029000D02*
X113799000Y-98951016D01*
X113799000Y-98951016D02*
X118750016Y-94000000D01*
G04 #@! TO.N,/E3S*
X111299000Y-100201000D02*
X117500000Y-94000000D01*
X111299000Y-105029000D02*
X111299000Y-100201000D01*
G04 #@! TO.N,/E4D*
X120777000Y-89535000D02*
X120777000Y-89535000D01*
X121062000Y-89250000D02*
X120777000Y-89535000D01*
X133190000Y-105029000D02*
X133190000Y-102810000D01*
X133190000Y-102810000D02*
X135763000Y-100237000D01*
X135763000Y-100237000D02*
X135763000Y-92075000D01*
X135763000Y-92075000D02*
X132938000Y-89250000D01*
X132938000Y-89250000D02*
X121062000Y-89250000D01*
G04 #@! TO.N,/E4C*
X119507000Y-90170000D02*
X119507000Y-90170000D01*
X132461000Y-90170000D02*
X119507000Y-90170000D01*
X134750000Y-92459000D02*
X132461000Y-90170000D01*
X134750000Y-99250000D02*
X134750000Y-92459000D01*
X130690000Y-105029000D02*
X130690000Y-103310000D01*
X130690000Y-103310000D02*
X134750000Y-99250000D01*
G04 #@! TO.N,/E4S*
X133750000Y-93500000D02*
X131250004Y-91000004D01*
X133750000Y-97750000D02*
X133750000Y-93500000D01*
X131250004Y-91000004D02*
X119532842Y-91000004D01*
X128190000Y-103310000D02*
X133750000Y-97750000D01*
X119532842Y-91000004D02*
X119250000Y-91000004D01*
X128190000Y-105029000D02*
X128190000Y-103310000D01*
G04 #@! TO.N,/GSW3*
X141714000Y-101052000D02*
X142367000Y-100399000D01*
X140589000Y-101052000D02*
X141714000Y-101052000D01*
X142367000Y-95762520D02*
X132710480Y-86106000D01*
X142367000Y-100399000D02*
X142367000Y-95762520D01*
X132710480Y-86106000D02*
X116967000Y-86106000D01*
X116967000Y-86106000D02*
X116967000Y-86106000D01*
G04 #@! TO.N,/SCK*
X92000000Y-65590000D02*
X98295000Y-71885000D01*
X128872002Y-95123000D02*
X128905000Y-95123000D01*
X128872002Y-94005998D02*
X128872002Y-95123000D01*
X126866004Y-92000000D02*
X128872002Y-94005998D01*
X98295000Y-71885000D02*
X118410000Y-92000000D01*
X118410000Y-92000000D02*
X126866004Y-92000000D01*
G04 #@! TO.N,/E1+*
X113578000Y-112794000D02*
X113578000Y-113919000D01*
X115120000Y-111252000D02*
X113578000Y-112794000D01*
X128927000Y-111252000D02*
X115120000Y-111252000D01*
X108799000Y-106154000D02*
X108799000Y-105029000D01*
X113897000Y-111252000D02*
X108799000Y-106154000D01*
X115120000Y-111252000D02*
X113897000Y-111252000D01*
X130469000Y-113919000D02*
X130469000Y-112741500D01*
X125690000Y-107962500D02*
X125690000Y-105029000D01*
X130469000Y-112741500D02*
X125690000Y-107962500D01*
X140589000Y-98552000D02*
X138938000Y-98552000D01*
X138938000Y-98552000D02*
X136525000Y-100965000D01*
G04 #@! TO.N,/PWM_FAN_2*
X125020000Y-63050000D02*
X126365000Y-64395000D01*
X126365000Y-73152000D02*
X127508000Y-74295000D01*
X126365000Y-64395000D02*
X126365000Y-73152000D01*
G04 #@! TO.N,/ACT_LED*
X99620000Y-65590000D02*
X99620000Y-70500000D01*
G04 #@! TD*
D23*
G04 #@! TO.N,/P5V*
G36*
X97823000Y-115823000D02*
G01*
X90727000Y-115823000D01*
X90727000Y-105027000D01*
X97823000Y-105027000D01*
X97823000Y-115823000D01*
G37*
X97823000Y-115823000D02*
X90727000Y-115823000D01*
X90727000Y-105027000D01*
X97823000Y-105027000D01*
X97823000Y-115823000D01*
G04 #@! TO.N,/P5V_HAT*
G36*
X90424000Y-64135000D02*
G01*
X85677000Y-64135000D01*
X85677000Y-61468000D01*
X90424000Y-61468000D01*
X90424000Y-64135000D01*
G37*
X90424000Y-64135000D02*
X85677000Y-64135000D01*
X85677000Y-61468000D01*
X90424000Y-61468000D01*
X90424000Y-64135000D01*
G04 #@! TO.N,GND*
G36*
X139098719Y-61227012D02*
G01*
X138511442Y-61470270D01*
X137982907Y-61823425D01*
X137533425Y-62272907D01*
X137180270Y-62801442D01*
X136937012Y-63388719D01*
X136813000Y-64012168D01*
X136813000Y-64647832D01*
X136937012Y-65271281D01*
X137180270Y-65858558D01*
X137533425Y-66387093D01*
X137982907Y-66836575D01*
X138511442Y-67189730D01*
X139098719Y-67432988D01*
X139722168Y-67557000D01*
X140357832Y-67557000D01*
X140981281Y-67432988D01*
X141568558Y-67189730D01*
X142097093Y-66836575D01*
X142546575Y-66387093D01*
X142899730Y-65858558D01*
X143142988Y-65271281D01*
X143169357Y-65138716D01*
X143169354Y-86521271D01*
X143142988Y-86388719D01*
X142899730Y-85801442D01*
X142546575Y-85272907D01*
X142097093Y-84823425D01*
X141568558Y-84470270D01*
X140981281Y-84227012D01*
X140357832Y-84103000D01*
X139722168Y-84103000D01*
X139098719Y-84227012D01*
X138511442Y-84470270D01*
X137982907Y-84823425D01*
X137533425Y-85272907D01*
X137180270Y-85801442D01*
X136937012Y-86388719D01*
X136813000Y-87012168D01*
X136813000Y-87647832D01*
X136937012Y-88271281D01*
X137180270Y-88858558D01*
X137533425Y-89387093D01*
X137982907Y-89836575D01*
X138511442Y-90189730D01*
X139098719Y-90432988D01*
X139722168Y-90557000D01*
X140357832Y-90557000D01*
X140981281Y-90432988D01*
X141568558Y-90189730D01*
X142097093Y-89836575D01*
X142546575Y-89387093D01*
X142899730Y-88858558D01*
X143142988Y-88271281D01*
X143169354Y-88138730D01*
X143169351Y-112551529D01*
X143132988Y-112368719D01*
X142889730Y-111781442D01*
X142536575Y-111252907D01*
X142087093Y-110803425D01*
X141558558Y-110450270D01*
X140971281Y-110207012D01*
X140347832Y-110083000D01*
X139712168Y-110083000D01*
X139088719Y-110207012D01*
X138501442Y-110450270D01*
X137972907Y-110803425D01*
X137523425Y-111252907D01*
X137170270Y-111781442D01*
X136927012Y-112368719D01*
X136803000Y-112992168D01*
X136803000Y-113627832D01*
X136927012Y-114251281D01*
X137170270Y-114838558D01*
X137523425Y-115367093D01*
X137972907Y-115816575D01*
X138501442Y-116169730D01*
X139088719Y-116412988D01*
X139227589Y-116440611D01*
X82892684Y-116440611D01*
X82981281Y-116422988D01*
X83568558Y-116179730D01*
X84097093Y-115826575D01*
X84546575Y-115377093D01*
X84899730Y-114848558D01*
X85142988Y-114261281D01*
X85267000Y-113637832D01*
X85267000Y-113002168D01*
X85142988Y-112378719D01*
X84899730Y-111791442D01*
X84546575Y-111262907D01*
X84097093Y-110813425D01*
X83568558Y-110460270D01*
X82981281Y-110217012D01*
X82357832Y-110093000D01*
X81722168Y-110093000D01*
X81098719Y-110217012D01*
X80511442Y-110460270D01*
X79982907Y-110813425D01*
X79533425Y-111262907D01*
X79180270Y-111791442D01*
X78937012Y-112378719D01*
X78923356Y-112447372D01*
X78923356Y-104600000D01*
X90273000Y-104600000D01*
X90273000Y-116200000D01*
X90275440Y-116224776D01*
X90282667Y-116248601D01*
X90294403Y-116270557D01*
X90310197Y-116289803D01*
X90329443Y-116305597D01*
X90351399Y-116317333D01*
X90375224Y-116324560D01*
X90400000Y-116327000D01*
X98300000Y-116327000D01*
X98324776Y-116324560D01*
X98348601Y-116317333D01*
X98370557Y-116305597D01*
X98389803Y-116289803D01*
X98405597Y-116270557D01*
X98417333Y-116248601D01*
X98424560Y-116224776D01*
X98427000Y-116200000D01*
X98427000Y-113736188D01*
X104901000Y-113736188D01*
X104901000Y-114101811D01*
X104918031Y-114274731D01*
X104985333Y-114496596D01*
X105094626Y-114701069D01*
X105241709Y-114880291D01*
X105420930Y-115027374D01*
X105625403Y-115136667D01*
X105847268Y-115203969D01*
X106078000Y-115226694D01*
X106308731Y-115203969D01*
X106530596Y-115136667D01*
X106735069Y-115027374D01*
X106914291Y-114880291D01*
X107061374Y-114701070D01*
X107170667Y-114496597D01*
X107237969Y-114274732D01*
X107255000Y-114101812D01*
X107255000Y-113736189D01*
X107255000Y-113736188D01*
X107401000Y-113736188D01*
X107401000Y-114101811D01*
X107418031Y-114274731D01*
X107485333Y-114496596D01*
X107594626Y-114701069D01*
X107741709Y-114880291D01*
X107920930Y-115027374D01*
X108125403Y-115136667D01*
X108347268Y-115203969D01*
X108578000Y-115226694D01*
X108808731Y-115203969D01*
X109030596Y-115136667D01*
X109235069Y-115027374D01*
X109414291Y-114880291D01*
X109561374Y-114701070D01*
X109670667Y-114496597D01*
X109737969Y-114274732D01*
X109755000Y-114101812D01*
X109755000Y-113736189D01*
X109755000Y-113736188D01*
X109901000Y-113736188D01*
X109901000Y-114101811D01*
X109918031Y-114274731D01*
X109985333Y-114496596D01*
X110094626Y-114701069D01*
X110241709Y-114880291D01*
X110420930Y-115027374D01*
X110625403Y-115136667D01*
X110847268Y-115203969D01*
X111078000Y-115226694D01*
X111308731Y-115203969D01*
X111530596Y-115136667D01*
X111735069Y-115027374D01*
X111914291Y-114880291D01*
X112061374Y-114701070D01*
X112170667Y-114496597D01*
X112237969Y-114274732D01*
X112255000Y-114101812D01*
X112255000Y-113736189D01*
X112237969Y-113563269D01*
X112170667Y-113341404D01*
X112061374Y-113136931D01*
X111914291Y-112957709D01*
X111735070Y-112810626D01*
X111530597Y-112701333D01*
X111308732Y-112634031D01*
X111078000Y-112611306D01*
X110847269Y-112634031D01*
X110625404Y-112701333D01*
X110420931Y-112810626D01*
X110241710Y-112957709D01*
X110094626Y-113136930D01*
X109985333Y-113341403D01*
X109918031Y-113563268D01*
X109901000Y-113736188D01*
X109755000Y-113736188D01*
X109737969Y-113563269D01*
X109670667Y-113341404D01*
X109561374Y-113136931D01*
X109414291Y-112957709D01*
X109235070Y-112810626D01*
X109030597Y-112701333D01*
X108808732Y-112634031D01*
X108578000Y-112611306D01*
X108347269Y-112634031D01*
X108125404Y-112701333D01*
X107920931Y-112810626D01*
X107741710Y-112957709D01*
X107594626Y-113136930D01*
X107485333Y-113341403D01*
X107418031Y-113563268D01*
X107401000Y-113736188D01*
X107255000Y-113736188D01*
X107237969Y-113563269D01*
X107170667Y-113341404D01*
X107061374Y-113136931D01*
X106914291Y-112957709D01*
X106735070Y-112810626D01*
X106530597Y-112701333D01*
X106308732Y-112634031D01*
X106078000Y-112611306D01*
X105847269Y-112634031D01*
X105625404Y-112701333D01*
X105420931Y-112810626D01*
X105241710Y-112957709D01*
X105094626Y-113136930D01*
X104985333Y-113341403D01*
X104918031Y-113563268D01*
X104901000Y-113736188D01*
X98427000Y-113736188D01*
X98427000Y-104846189D01*
X107622000Y-104846189D01*
X107622000Y-105211812D01*
X107639031Y-105384732D01*
X107706333Y-105606597D01*
X107815626Y-105811070D01*
X107962710Y-105990291D01*
X108141931Y-106137374D01*
X108346404Y-106246667D01*
X108413165Y-106266919D01*
X108425803Y-106308582D01*
X108463132Y-106378419D01*
X108513368Y-106439632D01*
X108528710Y-106452223D01*
X113598780Y-111522294D01*
X113611368Y-111537632D01*
X113626704Y-111550218D01*
X113626706Y-111550220D01*
X113672580Y-111587868D01*
X113742416Y-111625197D01*
X113818194Y-111648183D01*
X113877253Y-111654000D01*
X113877260Y-111654000D01*
X113897000Y-111655944D01*
X113916739Y-111654000D01*
X114149487Y-111654000D01*
X113307710Y-112495777D01*
X113292368Y-112508368D01*
X113242132Y-112569581D01*
X113204803Y-112639418D01*
X113192165Y-112681081D01*
X113125404Y-112701333D01*
X112920931Y-112810626D01*
X112741710Y-112957709D01*
X112594626Y-113136930D01*
X112485333Y-113341403D01*
X112418031Y-113563268D01*
X112401000Y-113736188D01*
X112401000Y-114101811D01*
X112418031Y-114274731D01*
X112485333Y-114496596D01*
X112594626Y-114701069D01*
X112741709Y-114880291D01*
X112920930Y-115027374D01*
X113125403Y-115136667D01*
X113347268Y-115203969D01*
X113578000Y-115226694D01*
X113808731Y-115203969D01*
X114030596Y-115136667D01*
X114235069Y-115027374D01*
X114414291Y-114880291D01*
X114561374Y-114701070D01*
X114670667Y-114496597D01*
X114737969Y-114274732D01*
X114755000Y-114101812D01*
X114755000Y-113736189D01*
X114755000Y-113736188D01*
X121792000Y-113736188D01*
X121792000Y-114101811D01*
X121809031Y-114274731D01*
X121876333Y-114496596D01*
X121985626Y-114701069D01*
X122132709Y-114880291D01*
X122311930Y-115027374D01*
X122516403Y-115136667D01*
X122738268Y-115203969D01*
X122969000Y-115226694D01*
X123199731Y-115203969D01*
X123421596Y-115136667D01*
X123626069Y-115027374D01*
X123805291Y-114880291D01*
X123952374Y-114701070D01*
X124061667Y-114496597D01*
X124128969Y-114274732D01*
X124146000Y-114101812D01*
X124146000Y-113736189D01*
X124146000Y-113736188D01*
X124292000Y-113736188D01*
X124292000Y-114101811D01*
X124309031Y-114274731D01*
X124376333Y-114496596D01*
X124485626Y-114701069D01*
X124632709Y-114880291D01*
X124811930Y-115027374D01*
X125016403Y-115136667D01*
X125238268Y-115203969D01*
X125469000Y-115226694D01*
X125699731Y-115203969D01*
X125921596Y-115136667D01*
X126126069Y-115027374D01*
X126305291Y-114880291D01*
X126452374Y-114701070D01*
X126561667Y-114496597D01*
X126628969Y-114274732D01*
X126646000Y-114101812D01*
X126646000Y-113736189D01*
X126646000Y-113736188D01*
X126792000Y-113736188D01*
X126792000Y-114101811D01*
X126809031Y-114274731D01*
X126876333Y-114496596D01*
X126985626Y-114701069D01*
X127132709Y-114880291D01*
X127311930Y-115027374D01*
X127516403Y-115136667D01*
X127738268Y-115203969D01*
X127969000Y-115226694D01*
X128199731Y-115203969D01*
X128421596Y-115136667D01*
X128626069Y-115027374D01*
X128805291Y-114880291D01*
X128952374Y-114701070D01*
X129061667Y-114496597D01*
X129128969Y-114274732D01*
X129146000Y-114101812D01*
X129146000Y-113736189D01*
X129128969Y-113563269D01*
X129061667Y-113341404D01*
X128952374Y-113136931D01*
X128805291Y-112957709D01*
X128626070Y-112810626D01*
X128421597Y-112701333D01*
X128199732Y-112634031D01*
X127969000Y-112611306D01*
X127738269Y-112634031D01*
X127516404Y-112701333D01*
X127311931Y-112810626D01*
X127132710Y-112957709D01*
X126985626Y-113136930D01*
X126876333Y-113341403D01*
X126809031Y-113563268D01*
X126792000Y-113736188D01*
X126646000Y-113736188D01*
X126628969Y-113563269D01*
X126561667Y-113341404D01*
X126452374Y-113136931D01*
X126305291Y-112957709D01*
X126126070Y-112810626D01*
X125921597Y-112701333D01*
X125699732Y-112634031D01*
X125469000Y-112611306D01*
X125238269Y-112634031D01*
X125016404Y-112701333D01*
X124811931Y-112810626D01*
X124632710Y-112957709D01*
X124485626Y-113136930D01*
X124376333Y-113341403D01*
X124309031Y-113563268D01*
X124292000Y-113736188D01*
X124146000Y-113736188D01*
X124128969Y-113563269D01*
X124061667Y-113341404D01*
X123952374Y-113136931D01*
X123805291Y-112957709D01*
X123626070Y-112810626D01*
X123421597Y-112701333D01*
X123199732Y-112634031D01*
X122969000Y-112611306D01*
X122738269Y-112634031D01*
X122516404Y-112701333D01*
X122311931Y-112810626D01*
X122132710Y-112957709D01*
X121985626Y-113136930D01*
X121876333Y-113341403D01*
X121809031Y-113563268D01*
X121792000Y-113736188D01*
X114755000Y-113736188D01*
X114737969Y-113563269D01*
X114670667Y-113341404D01*
X114561374Y-113136931D01*
X114414291Y-112957709D01*
X114235070Y-112810626D01*
X114166525Y-112773988D01*
X115286513Y-111654000D01*
X128812986Y-111654000D01*
X129914688Y-112755702D01*
X129811931Y-112810626D01*
X129632710Y-112957709D01*
X129485626Y-113136930D01*
X129376333Y-113341403D01*
X129309031Y-113563268D01*
X129292000Y-113736188D01*
X129292000Y-114101811D01*
X129309031Y-114274731D01*
X129376333Y-114496596D01*
X129485626Y-114701069D01*
X129632709Y-114880291D01*
X129811930Y-115027374D01*
X130016403Y-115136667D01*
X130238268Y-115203969D01*
X130469000Y-115226694D01*
X130699731Y-115203969D01*
X130921596Y-115136667D01*
X131126069Y-115027374D01*
X131305291Y-114880291D01*
X131452374Y-114701070D01*
X131561667Y-114496597D01*
X131628969Y-114274732D01*
X131646000Y-114101812D01*
X131646000Y-113736189D01*
X131628969Y-113563269D01*
X131561667Y-113341404D01*
X131452374Y-113136931D01*
X131305291Y-112957709D01*
X131126070Y-112810626D01*
X130921597Y-112701333D01*
X130867368Y-112684883D01*
X130865183Y-112662694D01*
X130858122Y-112639417D01*
X130842197Y-112586916D01*
X130804868Y-112517080D01*
X130767220Y-112471206D01*
X130767218Y-112471204D01*
X130754632Y-112455868D01*
X130739296Y-112443282D01*
X126092000Y-107795987D01*
X126092000Y-106262015D01*
X126142597Y-106246667D01*
X126347070Y-106137374D01*
X126526291Y-105990291D01*
X126673374Y-105811069D01*
X126782667Y-105606596D01*
X126849969Y-105384731D01*
X126867000Y-105211811D01*
X126867000Y-104846188D01*
X126849969Y-104673268D01*
X126782667Y-104451403D01*
X126673374Y-104246930D01*
X126526291Y-104067709D01*
X126347069Y-103920626D01*
X126142596Y-103811333D01*
X125920731Y-103744031D01*
X125690000Y-103721306D01*
X125459268Y-103744031D01*
X125237403Y-103811333D01*
X125032930Y-103920626D01*
X124853709Y-104067709D01*
X124706626Y-104246931D01*
X124597333Y-104451404D01*
X124530031Y-104673269D01*
X124513000Y-104846189D01*
X124513000Y-105211812D01*
X124530031Y-105384732D01*
X124597333Y-105606597D01*
X124706626Y-105811070D01*
X124853710Y-105990291D01*
X125032931Y-106137374D01*
X125237404Y-106246667D01*
X125288001Y-106262015D01*
X125288000Y-107942761D01*
X125286056Y-107962500D01*
X125288000Y-107982239D01*
X125288000Y-107982246D01*
X125293817Y-108041305D01*
X125316803Y-108117082D01*
X125354132Y-108186919D01*
X125404368Y-108248132D01*
X125419710Y-108260723D01*
X128008986Y-110850000D01*
X115139739Y-110850000D01*
X115119999Y-110848056D01*
X115100260Y-110850000D01*
X114063514Y-110850000D01*
X109387525Y-106174012D01*
X109456070Y-106137374D01*
X109635291Y-105990291D01*
X109782374Y-105811069D01*
X109891667Y-105606596D01*
X109958969Y-105384731D01*
X109976000Y-105211811D01*
X109976000Y-104846189D01*
X110122000Y-104846189D01*
X110122000Y-105211812D01*
X110139031Y-105384732D01*
X110206333Y-105606597D01*
X110315626Y-105811070D01*
X110462710Y-105990291D01*
X110641931Y-106137374D01*
X110846404Y-106246667D01*
X111068269Y-106313969D01*
X111299000Y-106336694D01*
X111529732Y-106313969D01*
X111751597Y-106246667D01*
X111956070Y-106137374D01*
X112135291Y-105990291D01*
X112282374Y-105811069D01*
X112391667Y-105606596D01*
X112458969Y-105384731D01*
X112476000Y-105211811D01*
X112476000Y-104846188D01*
X112458969Y-104673268D01*
X112391667Y-104451403D01*
X112282374Y-104246930D01*
X112135291Y-104067709D01*
X111956069Y-103920626D01*
X111751596Y-103811333D01*
X111701000Y-103795985D01*
X111701000Y-100367513D01*
X117541513Y-94527000D01*
X117551905Y-94527000D01*
X117653720Y-94506748D01*
X117689628Y-94491874D01*
X113528705Y-98652798D01*
X113513369Y-98665384D01*
X113463133Y-98726596D01*
X113425804Y-98796433D01*
X113402817Y-98872211D01*
X113395056Y-98951016D01*
X113397001Y-98970765D01*
X113397000Y-103795985D01*
X113346403Y-103811333D01*
X113141930Y-103920626D01*
X112962709Y-104067709D01*
X112815626Y-104246931D01*
X112706333Y-104451404D01*
X112639031Y-104673269D01*
X112622000Y-104846189D01*
X112622000Y-105211812D01*
X112639031Y-105384732D01*
X112706333Y-105606597D01*
X112815626Y-105811070D01*
X112962710Y-105990291D01*
X113141931Y-106137374D01*
X113346404Y-106246667D01*
X113568269Y-106313969D01*
X113799000Y-106336694D01*
X114029732Y-106313969D01*
X114251597Y-106246667D01*
X114456070Y-106137374D01*
X114635291Y-105990291D01*
X114782374Y-105811069D01*
X114891667Y-105606596D01*
X114958969Y-105384731D01*
X114976000Y-105211811D01*
X114976000Y-104846188D01*
X114958969Y-104673268D01*
X114891667Y-104451403D01*
X114782374Y-104246930D01*
X114635291Y-104067709D01*
X114456069Y-103920626D01*
X114251596Y-103811333D01*
X114201000Y-103795985D01*
X114201000Y-99117529D01*
X118791530Y-94527000D01*
X118801921Y-94527000D01*
X118903736Y-94506748D01*
X118939591Y-94491896D01*
X116028705Y-97402782D01*
X116013369Y-97415368D01*
X115963133Y-97476580D01*
X115936941Y-97525581D01*
X115925804Y-97546417D01*
X115902817Y-97622195D01*
X115895056Y-97701000D01*
X115897001Y-97720749D01*
X115897000Y-103795985D01*
X115846403Y-103811333D01*
X115641930Y-103920626D01*
X115462709Y-104067709D01*
X115315626Y-104246931D01*
X115206333Y-104451404D01*
X115139031Y-104673269D01*
X115122000Y-104846189D01*
X115122000Y-105211812D01*
X115139031Y-105384732D01*
X115206333Y-105606597D01*
X115315626Y-105811070D01*
X115462710Y-105990291D01*
X115641931Y-106137374D01*
X115846404Y-106246667D01*
X116068269Y-106313969D01*
X116299000Y-106336694D01*
X116529732Y-106313969D01*
X116751597Y-106246667D01*
X116956070Y-106137374D01*
X117135291Y-105990291D01*
X117282374Y-105811069D01*
X117391667Y-105606596D01*
X117458969Y-105384731D01*
X117476000Y-105211811D01*
X117476000Y-104846188D01*
X117458969Y-104673268D01*
X117391667Y-104451403D01*
X117282374Y-104246930D01*
X117135291Y-104067709D01*
X116956069Y-103920626D01*
X116751596Y-103811333D01*
X116701000Y-103795985D01*
X116701000Y-97867513D01*
X120041513Y-94527000D01*
X120051905Y-94527000D01*
X120153720Y-94506748D01*
X120249628Y-94467021D01*
X120335943Y-94409348D01*
X120409348Y-94335943D01*
X120467021Y-94249628D01*
X120506748Y-94153720D01*
X120527000Y-94051905D01*
X120527000Y-93948095D01*
X120506748Y-93846280D01*
X120467021Y-93750372D01*
X120409348Y-93664057D01*
X120335943Y-93590652D01*
X120249628Y-93532979D01*
X120153720Y-93493252D01*
X120051905Y-93473000D01*
X119948095Y-93473000D01*
X119846280Y-93493252D01*
X119750372Y-93532979D01*
X119664057Y-93590652D01*
X119590652Y-93664057D01*
X119532979Y-93750372D01*
X119493252Y-93846280D01*
X119473000Y-93948095D01*
X119473000Y-93958487D01*
X119241912Y-94189575D01*
X119256764Y-94153720D01*
X119277016Y-94051905D01*
X119277016Y-93948095D01*
X119256764Y-93846280D01*
X119217037Y-93750372D01*
X119159364Y-93664057D01*
X119085959Y-93590652D01*
X118999644Y-93532979D01*
X118903736Y-93493252D01*
X118801921Y-93473000D01*
X118698111Y-93473000D01*
X118596296Y-93493252D01*
X118500388Y-93532979D01*
X118414073Y-93590652D01*
X118340668Y-93664057D01*
X118282995Y-93750372D01*
X118243268Y-93846280D01*
X118223016Y-93948095D01*
X118223016Y-93958486D01*
X117991874Y-94189628D01*
X118006748Y-94153720D01*
X118027000Y-94051905D01*
X118027000Y-93948095D01*
X118006748Y-93846280D01*
X117967021Y-93750372D01*
X117909348Y-93664057D01*
X117835943Y-93590652D01*
X117749628Y-93532979D01*
X117653720Y-93493252D01*
X117551905Y-93473000D01*
X117448095Y-93473000D01*
X117346280Y-93493252D01*
X117250372Y-93532979D01*
X117164057Y-93590652D01*
X117090652Y-93664057D01*
X117032979Y-93750372D01*
X116993252Y-93846280D01*
X116973000Y-93948095D01*
X116973000Y-93958487D01*
X111028705Y-99902782D01*
X111013369Y-99915368D01*
X110963133Y-99976580D01*
X110949109Y-100002817D01*
X110925804Y-100046417D01*
X110902817Y-100122195D01*
X110895056Y-100201000D01*
X110897001Y-100220749D01*
X110897000Y-103795984D01*
X110846403Y-103811333D01*
X110641930Y-103920626D01*
X110462709Y-104067709D01*
X110315626Y-104246931D01*
X110206333Y-104451404D01*
X110139031Y-104673269D01*
X110122000Y-104846189D01*
X109976000Y-104846189D01*
X109976000Y-104846188D01*
X109958969Y-104673268D01*
X109891667Y-104451403D01*
X109782374Y-104246930D01*
X109635291Y-104067709D01*
X109456069Y-103920626D01*
X109251596Y-103811333D01*
X109029731Y-103744031D01*
X108799000Y-103721306D01*
X108568268Y-103744031D01*
X108346403Y-103811333D01*
X108141930Y-103920626D01*
X107962709Y-104067709D01*
X107815626Y-104246931D01*
X107706333Y-104451404D01*
X107639031Y-104673269D01*
X107622000Y-104846189D01*
X98427000Y-104846189D01*
X98427000Y-104600000D01*
X98424560Y-104575224D01*
X98417333Y-104551399D01*
X98405597Y-104529443D01*
X98389803Y-104510197D01*
X98370557Y-104494403D01*
X98348601Y-104482667D01*
X98324776Y-104475440D01*
X98300000Y-104473000D01*
X90400000Y-104473000D01*
X90375224Y-104475440D01*
X90351399Y-104482667D01*
X90329443Y-104494403D01*
X90310197Y-104510197D01*
X90294403Y-104529443D01*
X90282667Y-104551399D01*
X90275440Y-104575224D01*
X90273000Y-104600000D01*
X78923356Y-104600000D01*
X78923356Y-102625095D01*
X89770000Y-102625095D01*
X89770000Y-102728905D01*
X89790252Y-102830720D01*
X89829979Y-102926628D01*
X89887652Y-103012943D01*
X89961057Y-103086348D01*
X90047372Y-103144021D01*
X90143280Y-103183748D01*
X90245095Y-103204000D01*
X90348905Y-103204000D01*
X90450720Y-103183748D01*
X90546628Y-103144021D01*
X90632943Y-103086348D01*
X90640291Y-103079000D01*
X92935709Y-103079000D01*
X92943057Y-103086348D01*
X93029372Y-103144021D01*
X93125280Y-103183748D01*
X93227095Y-103204000D01*
X93330905Y-103204000D01*
X93432720Y-103183748D01*
X93528628Y-103144021D01*
X93614943Y-103086348D01*
X93688348Y-103012943D01*
X93746021Y-102926628D01*
X93785748Y-102830720D01*
X93806000Y-102728905D01*
X93806000Y-102625095D01*
X93785748Y-102523280D01*
X93746021Y-102427372D01*
X93688348Y-102341057D01*
X93614943Y-102267652D01*
X93528628Y-102209979D01*
X93432720Y-102170252D01*
X93330905Y-102150000D01*
X93227095Y-102150000D01*
X93125280Y-102170252D01*
X93029372Y-102209979D01*
X92943057Y-102267652D01*
X92935709Y-102275000D01*
X90640291Y-102275000D01*
X90632943Y-102267652D01*
X90546628Y-102209979D01*
X90450720Y-102170252D01*
X90348905Y-102150000D01*
X90245095Y-102150000D01*
X90143280Y-102170252D01*
X90047372Y-102209979D01*
X89961057Y-102267652D01*
X89887652Y-102341057D01*
X89829979Y-102427372D01*
X89790252Y-102523280D01*
X89770000Y-102625095D01*
X78923356Y-102625095D01*
X78923356Y-98924095D01*
X88747000Y-98924095D01*
X88747000Y-99027905D01*
X88767252Y-99129720D01*
X88806979Y-99225628D01*
X88864652Y-99311943D01*
X88872000Y-99319291D01*
X88872001Y-100632708D01*
X88864652Y-100640057D01*
X88806979Y-100726372D01*
X88767252Y-100822280D01*
X88747000Y-100924095D01*
X88747000Y-101027905D01*
X88767252Y-101129720D01*
X88806979Y-101225628D01*
X88864652Y-101311943D01*
X88938057Y-101385348D01*
X89024372Y-101443021D01*
X89120280Y-101482748D01*
X89222095Y-101503000D01*
X89325905Y-101503000D01*
X89427720Y-101482748D01*
X89523628Y-101443021D01*
X89609943Y-101385348D01*
X89683348Y-101311943D01*
X89741021Y-101225628D01*
X89780748Y-101129720D01*
X89801000Y-101027905D01*
X89801000Y-100924095D01*
X89780748Y-100822280D01*
X89741021Y-100726372D01*
X89683348Y-100640057D01*
X89676000Y-100632709D01*
X89676000Y-99319291D01*
X89683348Y-99311943D01*
X89741021Y-99225628D01*
X89780748Y-99129720D01*
X89801000Y-99027905D01*
X89801000Y-98924095D01*
X89780748Y-98822280D01*
X89741021Y-98726372D01*
X89683348Y-98640057D01*
X89609943Y-98566652D01*
X89523628Y-98508979D01*
X89427720Y-98469252D01*
X89325905Y-98449000D01*
X89222095Y-98449000D01*
X89120280Y-98469252D01*
X89024372Y-98508979D01*
X88938057Y-98566652D01*
X88864652Y-98640057D01*
X88806979Y-98726372D01*
X88767252Y-98822280D01*
X88747000Y-98924095D01*
X78923356Y-98924095D01*
X78923356Y-97992188D01*
X102923000Y-97992188D01*
X102923000Y-98407811D01*
X102940031Y-98580731D01*
X103007333Y-98802596D01*
X103116626Y-99007069D01*
X103263709Y-99186291D01*
X103442930Y-99333374D01*
X103647403Y-99442667D01*
X103869268Y-99509969D01*
X104100000Y-99532694D01*
X104330731Y-99509969D01*
X104552596Y-99442667D01*
X104757069Y-99333374D01*
X104936291Y-99186291D01*
X105083374Y-99007070D01*
X105192667Y-98802597D01*
X105259969Y-98580732D01*
X105277000Y-98407812D01*
X105277000Y-97992189D01*
X105259969Y-97819269D01*
X105192667Y-97597404D01*
X105113878Y-97450000D01*
X105421418Y-97450000D01*
X105421418Y-98950000D01*
X105432535Y-99062876D01*
X105465460Y-99171414D01*
X105518927Y-99271443D01*
X105590881Y-99359119D01*
X105678557Y-99431073D01*
X105778586Y-99484540D01*
X105887124Y-99517465D01*
X106000000Y-99528582D01*
X107200000Y-99528582D01*
X107312876Y-99517465D01*
X107421414Y-99484540D01*
X107521443Y-99431073D01*
X107609119Y-99359119D01*
X107681073Y-99271443D01*
X107734540Y-99171414D01*
X107767465Y-99062876D01*
X107778582Y-98950000D01*
X107778582Y-97450000D01*
X107767465Y-97337124D01*
X107734540Y-97228586D01*
X107681073Y-97128557D01*
X107609119Y-97040881D01*
X107521443Y-96968927D01*
X107421414Y-96915460D01*
X107312876Y-96882535D01*
X107200000Y-96871418D01*
X106000000Y-96871418D01*
X105887124Y-96882535D01*
X105778586Y-96915460D01*
X105678557Y-96968927D01*
X105590881Y-97040881D01*
X105518927Y-97128557D01*
X105465460Y-97228586D01*
X105432535Y-97337124D01*
X105421418Y-97450000D01*
X105113878Y-97450000D01*
X105083374Y-97392931D01*
X104936291Y-97213709D01*
X104757070Y-97066626D01*
X104552597Y-96957333D01*
X104330732Y-96890031D01*
X104100000Y-96867306D01*
X103869269Y-96890031D01*
X103647404Y-96957333D01*
X103442931Y-97066626D01*
X103263710Y-97213709D01*
X103116627Y-97392930D01*
X103007333Y-97597403D01*
X102940031Y-97819268D01*
X102923000Y-97992188D01*
X78923356Y-97992188D01*
X78923356Y-88182628D01*
X78937012Y-88251281D01*
X79180270Y-88838558D01*
X79533425Y-89367093D01*
X79982907Y-89816575D01*
X80511442Y-90169730D01*
X81098719Y-90412988D01*
X81722168Y-90537000D01*
X82357832Y-90537000D01*
X82981281Y-90412988D01*
X83568558Y-90169730D01*
X84097093Y-89816575D01*
X84546575Y-89367093D01*
X84899730Y-88838558D01*
X85142988Y-88251281D01*
X85267000Y-87627832D01*
X85267000Y-86992168D01*
X85142988Y-86368719D01*
X84899730Y-85781442D01*
X84546575Y-85252907D01*
X84097093Y-84803425D01*
X83568558Y-84450270D01*
X82981281Y-84207012D01*
X82357832Y-84083000D01*
X81722168Y-84083000D01*
X81098719Y-84207012D01*
X80511442Y-84450270D01*
X79982907Y-84803425D01*
X79533425Y-85252907D01*
X79180270Y-85781442D01*
X78937012Y-86368719D01*
X78923356Y-86437372D01*
X78923356Y-65182628D01*
X78937012Y-65251281D01*
X79180270Y-65838558D01*
X79533425Y-66367093D01*
X79982907Y-66816575D01*
X80511442Y-67169730D01*
X81098719Y-67412988D01*
X81722168Y-67537000D01*
X82357832Y-67537000D01*
X82981281Y-67412988D01*
X83568558Y-67169730D01*
X84097093Y-66816575D01*
X84546575Y-66367093D01*
X84813002Y-65968357D01*
X84813002Y-66698410D01*
X84808344Y-66707124D01*
X84775349Y-66815889D01*
X84764210Y-66929000D01*
X84775349Y-67042111D01*
X84808344Y-67150876D01*
X84861922Y-67251114D01*
X84934026Y-67338974D01*
X84956035Y-67357036D01*
X85783000Y-68184002D01*
X85783001Y-92400997D01*
X83168934Y-95015065D01*
X83152597Y-95006333D01*
X82930732Y-94939031D01*
X82757812Y-94922000D01*
X82342188Y-94922000D01*
X82169268Y-94939031D01*
X81947403Y-95006333D01*
X81742930Y-95115626D01*
X81563709Y-95262709D01*
X81416626Y-95441930D01*
X81307333Y-95646403D01*
X81240031Y-95868268D01*
X81217306Y-96099000D01*
X81240031Y-96329732D01*
X81307333Y-96551597D01*
X81416626Y-96756070D01*
X81563709Y-96935291D01*
X81742930Y-97082374D01*
X81947403Y-97191667D01*
X82169268Y-97258969D01*
X82342188Y-97276000D01*
X82757812Y-97276000D01*
X82930732Y-97258969D01*
X83152597Y-97191667D01*
X83357070Y-97082374D01*
X83536291Y-96935291D01*
X83683374Y-96756070D01*
X83726172Y-96676000D01*
X90847669Y-96676000D01*
X90876000Y-96678790D01*
X90904331Y-96676000D01*
X90904336Y-96676000D01*
X90934045Y-96673074D01*
X90989111Y-96667651D01*
X91033770Y-96654103D01*
X91097876Y-96634657D01*
X91198115Y-96581079D01*
X91285974Y-96508974D01*
X91304039Y-96486962D01*
X92387968Y-95403034D01*
X92409974Y-95384974D01*
X92431640Y-95358575D01*
X92444405Y-95343020D01*
X92482079Y-95297115D01*
X92535657Y-95196876D01*
X92568650Y-95088112D01*
X92577000Y-95003336D01*
X92577000Y-95003330D01*
X92579790Y-94975001D01*
X92577000Y-94946672D01*
X92577000Y-94651172D01*
X92657070Y-94608374D01*
X92836291Y-94461291D01*
X92983374Y-94282069D01*
X93092667Y-94077596D01*
X93159969Y-93855731D01*
X93177000Y-93682811D01*
X93177000Y-93317189D01*
X93323000Y-93317189D01*
X93323000Y-93682812D01*
X93340031Y-93855732D01*
X93407333Y-94077597D01*
X93516626Y-94282070D01*
X93663710Y-94461291D01*
X93842931Y-94608374D01*
X94047404Y-94717667D01*
X94269269Y-94784969D01*
X94500000Y-94807694D01*
X94730732Y-94784969D01*
X94952597Y-94717667D01*
X95157070Y-94608374D01*
X95336291Y-94461291D01*
X95483374Y-94282069D01*
X95592667Y-94077596D01*
X95659969Y-93855731D01*
X95677000Y-93682811D01*
X95677000Y-93317189D01*
X95823000Y-93317189D01*
X95823000Y-93682812D01*
X95840031Y-93855732D01*
X95907333Y-94077597D01*
X96016626Y-94282070D01*
X96163710Y-94461291D01*
X96342931Y-94608374D01*
X96547404Y-94717667D01*
X96769269Y-94784969D01*
X97000000Y-94807694D01*
X97230732Y-94784969D01*
X97452597Y-94717667D01*
X97657070Y-94608374D01*
X97836291Y-94461291D01*
X97983374Y-94282069D01*
X98092667Y-94077596D01*
X98159969Y-93855731D01*
X98177000Y-93682811D01*
X98177000Y-93317188D01*
X98159969Y-93144268D01*
X98092667Y-92922403D01*
X97983374Y-92717930D01*
X97836291Y-92538709D01*
X97657069Y-92391626D01*
X97452596Y-92282333D01*
X97230731Y-92215031D01*
X97000000Y-92192306D01*
X96769268Y-92215031D01*
X96547403Y-92282333D01*
X96342930Y-92391626D01*
X96163709Y-92538709D01*
X96016626Y-92717931D01*
X95907333Y-92922404D01*
X95840031Y-93144269D01*
X95823000Y-93317189D01*
X95677000Y-93317189D01*
X95677000Y-93317188D01*
X95659969Y-93144268D01*
X95592667Y-92922403D01*
X95483374Y-92717930D01*
X95336291Y-92538709D01*
X95157069Y-92391626D01*
X94952596Y-92282333D01*
X94730731Y-92215031D01*
X94500000Y-92192306D01*
X94269268Y-92215031D01*
X94047403Y-92282333D01*
X93842930Y-92391626D01*
X93663709Y-92538709D01*
X93516626Y-92717931D01*
X93407333Y-92922404D01*
X93340031Y-93144269D01*
X93323000Y-93317189D01*
X93177000Y-93317189D01*
X93177000Y-93317188D01*
X93159969Y-93144268D01*
X93092667Y-92922403D01*
X92983374Y-92717930D01*
X92836291Y-92538709D01*
X92657069Y-92391626D01*
X92452596Y-92282333D01*
X92230731Y-92215031D01*
X92000000Y-92192306D01*
X91769268Y-92215031D01*
X91547403Y-92282333D01*
X91342930Y-92391626D01*
X91163709Y-92538709D01*
X91016626Y-92717931D01*
X90907333Y-92922404D01*
X90840031Y-93144269D01*
X90823000Y-93317189D01*
X90823000Y-93682812D01*
X90840031Y-93855732D01*
X90907333Y-94077597D01*
X91016626Y-94282070D01*
X91163710Y-94461291D01*
X91342931Y-94608374D01*
X91423000Y-94651172D01*
X91423000Y-94735998D01*
X90636999Y-95522000D01*
X84294001Y-95522000D01*
X86747967Y-93068035D01*
X86769974Y-93049974D01*
X86842079Y-92962115D01*
X86895657Y-92861876D01*
X86928650Y-92753112D01*
X86937000Y-92668336D01*
X86937000Y-92668330D01*
X86939790Y-92640001D01*
X86937000Y-92611672D01*
X86937000Y-67973331D01*
X86939790Y-67945000D01*
X86928651Y-67831888D01*
X86900532Y-67739195D01*
X86895657Y-67723124D01*
X86842079Y-67622885D01*
X86769974Y-67535026D01*
X86747968Y-67516966D01*
X85987771Y-66756770D01*
X86005897Y-66762268D01*
X86070000Y-66768582D01*
X87770000Y-66768582D01*
X87834103Y-66762268D01*
X87895743Y-66743570D01*
X87952550Y-66713206D01*
X88002343Y-66672343D01*
X88043206Y-66622550D01*
X88073570Y-66565743D01*
X88092268Y-66504103D01*
X88098582Y-66440000D01*
X88098582Y-64777000D01*
X88608470Y-64777000D01*
X88545764Y-64839706D01*
X88416956Y-65032481D01*
X88328231Y-65246682D01*
X88283000Y-65474076D01*
X88283000Y-65705924D01*
X88328231Y-65933318D01*
X88416956Y-66147519D01*
X88545764Y-66340294D01*
X88709706Y-66504236D01*
X88902481Y-66633044D01*
X89116682Y-66721769D01*
X89344076Y-66767000D01*
X89575924Y-66767000D01*
X89803318Y-66721769D01*
X89958838Y-66657351D01*
X116571779Y-93270293D01*
X116584368Y-93285632D01*
X116599704Y-93298218D01*
X116599706Y-93298220D01*
X116622820Y-93317189D01*
X116645580Y-93335868D01*
X116715417Y-93373197D01*
X116791194Y-93396183D01*
X116850253Y-93402000D01*
X116850260Y-93402000D01*
X116870000Y-93403944D01*
X116889739Y-93402000D01*
X125980489Y-93402000D01*
X126727000Y-94148511D01*
X126727000Y-94158903D01*
X126747252Y-94260718D01*
X126786979Y-94356626D01*
X126844652Y-94442941D01*
X126918057Y-94516346D01*
X127004372Y-94574019D01*
X127100280Y-94613746D01*
X127202095Y-94633998D01*
X127305905Y-94633998D01*
X127407720Y-94613746D01*
X127503628Y-94574019D01*
X127589943Y-94516346D01*
X127663348Y-94442941D01*
X127721021Y-94356626D01*
X127760748Y-94260718D01*
X127781000Y-94158903D01*
X127781000Y-94055093D01*
X127760748Y-93953278D01*
X127721021Y-93857370D01*
X127663348Y-93771055D01*
X127589943Y-93697650D01*
X127503628Y-93639977D01*
X127407720Y-93600250D01*
X127305905Y-93579998D01*
X127295513Y-93579998D01*
X126445225Y-92729710D01*
X126432634Y-92714368D01*
X126371422Y-92664132D01*
X126301585Y-92626803D01*
X126225808Y-92603817D01*
X126166749Y-92598000D01*
X126166741Y-92598000D01*
X126147002Y-92596056D01*
X126127263Y-92598000D01*
X117036514Y-92598000D01*
X90527351Y-66088838D01*
X90591769Y-65933318D01*
X90637000Y-65705924D01*
X90637000Y-65474076D01*
X90823000Y-65474076D01*
X90823000Y-65705924D01*
X90868231Y-65933318D01*
X90956956Y-66147519D01*
X91085764Y-66340294D01*
X91249706Y-66504236D01*
X91442481Y-66633044D01*
X91656682Y-66721769D01*
X91884076Y-66767000D01*
X92115924Y-66767000D01*
X92343318Y-66721769D01*
X92498838Y-66657351D01*
X97768000Y-71926513D01*
X97768000Y-71936905D01*
X97788252Y-72038720D01*
X97827979Y-72134628D01*
X97885652Y-72220943D01*
X97959057Y-72294348D01*
X98045372Y-72352021D01*
X98141280Y-72391748D01*
X98243095Y-72412000D01*
X98253487Y-72412000D01*
X118111779Y-92270293D01*
X118124368Y-92285632D01*
X118185580Y-92335868D01*
X118255417Y-92373197D01*
X118331194Y-92396183D01*
X118390253Y-92402000D01*
X118390260Y-92402000D01*
X118410000Y-92403944D01*
X118429739Y-92402000D01*
X126699491Y-92402000D01*
X128470002Y-94172512D01*
X128470003Y-94825444D01*
X128437979Y-94873372D01*
X128398252Y-94969280D01*
X128378000Y-95071095D01*
X128378000Y-95174905D01*
X128398252Y-95276720D01*
X128437979Y-95372628D01*
X128495652Y-95458943D01*
X128569057Y-95532348D01*
X128655372Y-95590021D01*
X128751280Y-95629748D01*
X128853095Y-95650000D01*
X128956905Y-95650000D01*
X129058720Y-95629748D01*
X129154628Y-95590021D01*
X129240943Y-95532348D01*
X129314348Y-95458943D01*
X129372021Y-95372628D01*
X129411748Y-95276720D01*
X129432000Y-95174905D01*
X129432000Y-95071095D01*
X129411748Y-94969280D01*
X129372021Y-94873372D01*
X129314348Y-94787057D01*
X129274002Y-94746711D01*
X129274002Y-94025737D01*
X129275946Y-94005998D01*
X129274002Y-93986258D01*
X129274002Y-93986251D01*
X129268185Y-93927192D01*
X129251806Y-93873196D01*
X129245199Y-93851414D01*
X129207870Y-93781578D01*
X129170222Y-93735704D01*
X129170220Y-93735702D01*
X129157634Y-93720366D01*
X129142299Y-93707781D01*
X127164227Y-91729710D01*
X127151636Y-91714368D01*
X127090424Y-91664132D01*
X127020587Y-91626803D01*
X126944810Y-91603817D01*
X126885751Y-91598000D01*
X126885743Y-91598000D01*
X126866004Y-91596056D01*
X126846265Y-91598000D01*
X118576514Y-91598000D01*
X117926613Y-90948099D01*
X118723000Y-90948099D01*
X118723000Y-91051909D01*
X118743252Y-91153724D01*
X118782979Y-91249632D01*
X118840652Y-91335947D01*
X118914057Y-91409352D01*
X119000372Y-91467025D01*
X119096280Y-91506752D01*
X119198095Y-91527004D01*
X119301905Y-91527004D01*
X119403720Y-91506752D01*
X119499628Y-91467025D01*
X119585943Y-91409352D01*
X119593291Y-91402004D01*
X131083491Y-91402004D01*
X133348001Y-93666514D01*
X133348000Y-97583487D01*
X127919705Y-103011782D01*
X127904369Y-103024368D01*
X127854133Y-103085580D01*
X127842032Y-103108220D01*
X127816804Y-103155417D01*
X127793817Y-103231195D01*
X127786056Y-103310000D01*
X127788001Y-103329749D01*
X127788001Y-103795984D01*
X127737403Y-103811333D01*
X127532930Y-103920626D01*
X127353709Y-104067709D01*
X127206626Y-104246931D01*
X127097333Y-104451404D01*
X127030031Y-104673269D01*
X127013000Y-104846189D01*
X127013000Y-105211812D01*
X127030031Y-105384732D01*
X127097333Y-105606597D01*
X127206626Y-105811070D01*
X127353710Y-105990291D01*
X127532931Y-106137374D01*
X127737404Y-106246667D01*
X127959269Y-106313969D01*
X128190000Y-106336694D01*
X128420732Y-106313969D01*
X128642597Y-106246667D01*
X128847070Y-106137374D01*
X129026291Y-105990291D01*
X129173374Y-105811069D01*
X129282667Y-105606596D01*
X129349969Y-105384731D01*
X129367000Y-105211811D01*
X129367000Y-104846188D01*
X129349969Y-104673268D01*
X129282667Y-104451403D01*
X129173374Y-104246930D01*
X129026291Y-104067709D01*
X128847069Y-103920626D01*
X128642596Y-103811333D01*
X128592000Y-103795985D01*
X128592000Y-103476513D01*
X134020291Y-98048222D01*
X134035632Y-98035632D01*
X134085868Y-97974420D01*
X134123197Y-97904583D01*
X134146183Y-97828806D01*
X134152000Y-97769747D01*
X134152000Y-97769740D01*
X134153944Y-97750001D01*
X134152000Y-97730261D01*
X134152000Y-93519739D01*
X134153944Y-93499999D01*
X134152000Y-93480260D01*
X134152000Y-93480253D01*
X134146183Y-93421194D01*
X134123197Y-93345417D01*
X134085868Y-93275580D01*
X134035632Y-93214368D01*
X134020290Y-93201777D01*
X131548227Y-90729714D01*
X131535636Y-90714372D01*
X131474424Y-90664136D01*
X131404587Y-90626807D01*
X131328810Y-90603821D01*
X131269751Y-90598004D01*
X131269743Y-90598004D01*
X131250004Y-90596060D01*
X131230265Y-90598004D01*
X119815022Y-90598004D01*
X119842943Y-90579348D01*
X119850291Y-90572000D01*
X132294487Y-90572000D01*
X134348001Y-92625515D01*
X134348000Y-99083486D01*
X130419705Y-103011782D01*
X130404369Y-103024368D01*
X130354133Y-103085580D01*
X130342032Y-103108220D01*
X130316804Y-103155417D01*
X130293817Y-103231195D01*
X130286056Y-103310000D01*
X130288001Y-103329749D01*
X130288001Y-103795984D01*
X130237403Y-103811333D01*
X130032930Y-103920626D01*
X129853709Y-104067709D01*
X129706626Y-104246931D01*
X129597333Y-104451404D01*
X129530031Y-104673269D01*
X129513000Y-104846189D01*
X129513000Y-105211812D01*
X129530031Y-105384732D01*
X129597333Y-105606597D01*
X129706626Y-105811070D01*
X129853710Y-105990291D01*
X130032931Y-106137374D01*
X130237404Y-106246667D01*
X130459269Y-106313969D01*
X130690000Y-106336694D01*
X130920732Y-106313969D01*
X131142597Y-106246667D01*
X131347070Y-106137374D01*
X131526291Y-105990291D01*
X131673374Y-105811069D01*
X131782667Y-105606596D01*
X131849969Y-105384731D01*
X131867000Y-105211811D01*
X131867000Y-104846188D01*
X131849969Y-104673268D01*
X131782667Y-104451403D01*
X131673374Y-104246930D01*
X131526291Y-104067709D01*
X131347069Y-103920626D01*
X131142596Y-103811333D01*
X131092000Y-103795985D01*
X131092000Y-103476513D01*
X135020297Y-99548217D01*
X135035632Y-99535632D01*
X135050542Y-99517465D01*
X135062413Y-99503000D01*
X135085868Y-99474420D01*
X135123197Y-99404583D01*
X135146183Y-99328806D01*
X135152000Y-99269747D01*
X135152000Y-99269740D01*
X135153944Y-99250001D01*
X135152000Y-99230261D01*
X135152000Y-92478739D01*
X135153944Y-92459000D01*
X135152000Y-92439260D01*
X135152000Y-92439253D01*
X135146183Y-92380194D01*
X135123197Y-92304417D01*
X135085868Y-92234580D01*
X135069824Y-92215031D01*
X135048220Y-92188706D01*
X135048218Y-92188704D01*
X135035632Y-92173368D01*
X135020295Y-92160781D01*
X132759223Y-89899710D01*
X132746632Y-89884368D01*
X132685420Y-89834132D01*
X132615583Y-89796803D01*
X132539806Y-89773817D01*
X132480747Y-89768000D01*
X132480739Y-89768000D01*
X132461000Y-89766056D01*
X132441261Y-89768000D01*
X121250909Y-89768000D01*
X121283748Y-89688720D01*
X121291052Y-89652000D01*
X132771487Y-89652000D01*
X135361001Y-92241514D01*
X135361000Y-100070486D01*
X132919705Y-102511782D01*
X132904369Y-102524368D01*
X132854133Y-102585580D01*
X132847391Y-102598194D01*
X132816804Y-102655417D01*
X132793817Y-102731195D01*
X132786056Y-102810000D01*
X132788001Y-102829749D01*
X132788001Y-103795984D01*
X132737403Y-103811333D01*
X132532930Y-103920626D01*
X132353709Y-104067709D01*
X132206626Y-104246931D01*
X132097333Y-104451404D01*
X132030031Y-104673269D01*
X132013000Y-104846189D01*
X132013000Y-105211812D01*
X132030031Y-105384732D01*
X132097333Y-105606597D01*
X132206626Y-105811070D01*
X132353710Y-105990291D01*
X132532931Y-106137374D01*
X132737404Y-106246667D01*
X132959269Y-106313969D01*
X133190000Y-106336694D01*
X133420732Y-106313969D01*
X133642597Y-106246667D01*
X133847070Y-106137374D01*
X133951098Y-106052000D01*
X139281306Y-106052000D01*
X139304031Y-106282732D01*
X139371333Y-106504597D01*
X139480626Y-106709070D01*
X139627709Y-106888291D01*
X139806930Y-107035374D01*
X140011403Y-107144667D01*
X140233268Y-107211969D01*
X140406188Y-107229000D01*
X140771812Y-107229000D01*
X140944732Y-107211969D01*
X141166597Y-107144667D01*
X141371070Y-107035374D01*
X141550291Y-106888291D01*
X141697374Y-106709070D01*
X141806667Y-106504597D01*
X141873969Y-106282732D01*
X141896694Y-106052000D01*
X141873969Y-105821268D01*
X141806667Y-105599403D01*
X141697374Y-105394930D01*
X141550291Y-105215709D01*
X141371070Y-105068626D01*
X141166597Y-104959333D01*
X140944732Y-104892031D01*
X140771812Y-104875000D01*
X140406188Y-104875000D01*
X140233268Y-104892031D01*
X140011403Y-104959333D01*
X139806930Y-105068626D01*
X139627709Y-105215709D01*
X139480626Y-105394930D01*
X139371333Y-105599403D01*
X139304031Y-105821268D01*
X139281306Y-106052000D01*
X133951098Y-106052000D01*
X134026291Y-105990291D01*
X134173374Y-105811069D01*
X134282667Y-105606596D01*
X134349969Y-105384731D01*
X134367000Y-105211811D01*
X134367000Y-104846188D01*
X134349969Y-104673268D01*
X134282667Y-104451403D01*
X134173374Y-104246930D01*
X134026291Y-104067709D01*
X133847069Y-103920626D01*
X133642596Y-103811333D01*
X133592000Y-103795985D01*
X133592000Y-103552000D01*
X139281306Y-103552000D01*
X139304031Y-103782732D01*
X139371333Y-104004597D01*
X139480626Y-104209070D01*
X139627709Y-104388291D01*
X139806930Y-104535374D01*
X140011403Y-104644667D01*
X140233268Y-104711969D01*
X140406188Y-104729000D01*
X140771812Y-104729000D01*
X140944732Y-104711969D01*
X141166597Y-104644667D01*
X141371070Y-104535374D01*
X141550291Y-104388291D01*
X141697374Y-104209070D01*
X141806667Y-104004597D01*
X141873969Y-103782732D01*
X141896694Y-103552000D01*
X141873969Y-103321268D01*
X141806667Y-103099403D01*
X141697374Y-102894930D01*
X141550291Y-102715709D01*
X141371070Y-102568626D01*
X141166597Y-102459333D01*
X140944732Y-102392031D01*
X140771812Y-102375000D01*
X140406188Y-102375000D01*
X140233268Y-102392031D01*
X140011403Y-102459333D01*
X139806930Y-102568626D01*
X139627709Y-102715709D01*
X139480626Y-102894930D01*
X139371333Y-103099403D01*
X139304031Y-103321268D01*
X139281306Y-103552000D01*
X133592000Y-103552000D01*
X133592000Y-102976513D01*
X135655418Y-100913095D01*
X135998000Y-100913095D01*
X135998000Y-101016905D01*
X136018252Y-101118720D01*
X136057979Y-101214628D01*
X136115652Y-101300943D01*
X136189057Y-101374348D01*
X136275372Y-101432021D01*
X136371280Y-101471748D01*
X136473095Y-101492000D01*
X136576905Y-101492000D01*
X136678720Y-101471748D01*
X136774628Y-101432021D01*
X136860943Y-101374348D01*
X136934348Y-101300943D01*
X136992021Y-101214628D01*
X137031748Y-101118720D01*
X137052000Y-101016905D01*
X137052000Y-101006513D01*
X139104513Y-98954000D01*
X139355985Y-98954000D01*
X139371333Y-99004597D01*
X139480626Y-99209070D01*
X139627709Y-99388291D01*
X139806930Y-99535374D01*
X140011403Y-99644667D01*
X140233268Y-99711969D01*
X140406188Y-99729000D01*
X140771812Y-99729000D01*
X140944732Y-99711969D01*
X141166597Y-99644667D01*
X141371070Y-99535374D01*
X141550291Y-99388291D01*
X141697374Y-99209070D01*
X141806667Y-99004597D01*
X141873969Y-98782732D01*
X141896694Y-98552000D01*
X141873969Y-98321268D01*
X141806667Y-98099403D01*
X141697374Y-97894930D01*
X141550291Y-97715709D01*
X141371070Y-97568626D01*
X141166597Y-97459333D01*
X140944732Y-97392031D01*
X140771812Y-97375000D01*
X140406188Y-97375000D01*
X140233268Y-97392031D01*
X140011403Y-97459333D01*
X139806930Y-97568626D01*
X139627709Y-97715709D01*
X139480626Y-97894930D01*
X139371333Y-98099403D01*
X139355985Y-98150000D01*
X138957739Y-98150000D01*
X138937999Y-98148056D01*
X138918260Y-98150000D01*
X138918253Y-98150000D01*
X138859194Y-98155817D01*
X138783417Y-98178803D01*
X138713580Y-98216132D01*
X138652368Y-98266368D01*
X138639777Y-98281710D01*
X136483487Y-100438000D01*
X136473095Y-100438000D01*
X136371280Y-100458252D01*
X136275372Y-100497979D01*
X136189057Y-100555652D01*
X136115652Y-100629057D01*
X136057979Y-100715372D01*
X136018252Y-100811280D01*
X135998000Y-100913095D01*
X135655418Y-100913095D01*
X136033297Y-100535217D01*
X136048632Y-100522632D01*
X136098868Y-100461420D01*
X136136197Y-100391583D01*
X136159183Y-100315806D01*
X136165000Y-100256747D01*
X136165000Y-100256740D01*
X136166944Y-100237001D01*
X136165000Y-100217261D01*
X136165000Y-92094739D01*
X136166944Y-92074999D01*
X136165000Y-92055260D01*
X136165000Y-92055253D01*
X136159183Y-91996194D01*
X136136197Y-91920417D01*
X136098868Y-91850580D01*
X136048632Y-91789368D01*
X136033290Y-91776777D01*
X133236223Y-88979710D01*
X133223632Y-88964368D01*
X133162420Y-88914132D01*
X133092583Y-88876803D01*
X133016806Y-88853817D01*
X132957747Y-88848000D01*
X132957739Y-88848000D01*
X132938000Y-88846056D01*
X132918261Y-88848000D01*
X121081739Y-88848000D01*
X121062000Y-88846056D01*
X121042260Y-88848000D01*
X121042253Y-88848000D01*
X120983194Y-88853817D01*
X120907417Y-88876803D01*
X120837580Y-88914132D01*
X120776368Y-88964368D01*
X120763781Y-88979705D01*
X120735486Y-89008000D01*
X120725095Y-89008000D01*
X120623280Y-89028252D01*
X120527372Y-89067979D01*
X120441057Y-89125652D01*
X120367652Y-89199057D01*
X120309979Y-89285372D01*
X120270252Y-89381280D01*
X120250000Y-89483095D01*
X120250000Y-89586905D01*
X120270252Y-89688720D01*
X120303091Y-89768000D01*
X119850291Y-89768000D01*
X119842943Y-89760652D01*
X119756628Y-89702979D01*
X119660720Y-89663252D01*
X119558905Y-89643000D01*
X119455095Y-89643000D01*
X119353280Y-89663252D01*
X119257372Y-89702979D01*
X119171057Y-89760652D01*
X119097652Y-89834057D01*
X119039979Y-89920372D01*
X119000252Y-90016280D01*
X118980000Y-90118095D01*
X118980000Y-90221905D01*
X119000252Y-90323720D01*
X119039979Y-90419628D01*
X119090715Y-90495561D01*
X119000372Y-90532983D01*
X118914057Y-90590656D01*
X118840652Y-90664061D01*
X118782979Y-90750376D01*
X118743252Y-90846284D01*
X118723000Y-90948099D01*
X117926613Y-90948099D01*
X113032609Y-86054095D01*
X116440000Y-86054095D01*
X116440000Y-86157905D01*
X116460252Y-86259720D01*
X116499979Y-86355628D01*
X116557652Y-86441943D01*
X116631057Y-86515348D01*
X116717372Y-86573021D01*
X116813280Y-86612748D01*
X116915095Y-86633000D01*
X117018905Y-86633000D01*
X117120720Y-86612748D01*
X117216628Y-86573021D01*
X117302943Y-86515348D01*
X117310291Y-86508000D01*
X132543967Y-86508000D01*
X141965001Y-95929035D01*
X141965000Y-100232486D01*
X141734012Y-100463475D01*
X141697374Y-100394930D01*
X141550291Y-100215709D01*
X141371070Y-100068626D01*
X141166597Y-99959333D01*
X140944732Y-99892031D01*
X140771812Y-99875000D01*
X140406188Y-99875000D01*
X140233268Y-99892031D01*
X140011403Y-99959333D01*
X139806930Y-100068626D01*
X139627709Y-100215709D01*
X139480626Y-100394930D01*
X139371333Y-100599403D01*
X139304031Y-100821268D01*
X139281306Y-101052000D01*
X139304031Y-101282732D01*
X139371333Y-101504597D01*
X139480626Y-101709070D01*
X139627709Y-101888291D01*
X139806930Y-102035374D01*
X140011403Y-102144667D01*
X140233268Y-102211969D01*
X140406188Y-102229000D01*
X140771812Y-102229000D01*
X140944732Y-102211969D01*
X141166597Y-102144667D01*
X141371070Y-102035374D01*
X141550291Y-101888291D01*
X141697374Y-101709070D01*
X141806667Y-101504597D01*
X141826919Y-101437835D01*
X141868583Y-101425197D01*
X141938420Y-101387868D01*
X141999632Y-101337632D01*
X142012223Y-101322290D01*
X142637296Y-100697218D01*
X142652632Y-100684632D01*
X142702868Y-100623420D01*
X142740197Y-100553583D01*
X142763183Y-100477806D01*
X142769000Y-100418747D01*
X142769000Y-100418740D01*
X142770944Y-100399001D01*
X142769000Y-100379261D01*
X142769000Y-95782259D01*
X142770944Y-95762520D01*
X142769000Y-95742780D01*
X142769000Y-95742773D01*
X142763183Y-95683714D01*
X142746813Y-95629748D01*
X142740197Y-95607936D01*
X142702868Y-95538100D01*
X142665220Y-95492226D01*
X142665218Y-95492224D01*
X142652632Y-95476888D01*
X142637296Y-95464302D01*
X133008703Y-85835710D01*
X132996112Y-85820368D01*
X132934900Y-85770132D01*
X132865063Y-85732803D01*
X132789286Y-85709817D01*
X132730227Y-85704000D01*
X132730219Y-85704000D01*
X132710480Y-85702056D01*
X132690741Y-85704000D01*
X117310291Y-85704000D01*
X117302943Y-85696652D01*
X117216628Y-85638979D01*
X117120720Y-85599252D01*
X117018905Y-85579000D01*
X116915095Y-85579000D01*
X116813280Y-85599252D01*
X116717372Y-85638979D01*
X116631057Y-85696652D01*
X116557652Y-85770057D01*
X116499979Y-85856372D01*
X116460252Y-85952280D01*
X116440000Y-86054095D01*
X113032609Y-86054095D01*
X111426609Y-84448095D01*
X127870000Y-84448095D01*
X127870000Y-84551905D01*
X127890252Y-84653720D01*
X127929979Y-84749628D01*
X127987652Y-84835943D01*
X128061057Y-84909348D01*
X128147372Y-84967021D01*
X128243280Y-85006748D01*
X128345095Y-85027000D01*
X128448905Y-85027000D01*
X128550720Y-85006748D01*
X128646628Y-84967021D01*
X128732943Y-84909348D01*
X128740291Y-84902000D01*
X131863709Y-84902000D01*
X131871057Y-84909348D01*
X131957372Y-84967021D01*
X132053280Y-85006748D01*
X132155095Y-85027000D01*
X132258905Y-85027000D01*
X132360720Y-85006748D01*
X132456628Y-84967021D01*
X132542943Y-84909348D01*
X132550291Y-84902000D01*
X134784709Y-84902000D01*
X134792057Y-84909348D01*
X134878372Y-84967021D01*
X134974280Y-85006748D01*
X135076095Y-85027000D01*
X135179905Y-85027000D01*
X135281720Y-85006748D01*
X135377628Y-84967021D01*
X135463943Y-84909348D01*
X135537348Y-84835943D01*
X135595021Y-84749628D01*
X135634748Y-84653720D01*
X135655000Y-84551905D01*
X135655000Y-84448095D01*
X135634748Y-84346280D01*
X135595021Y-84250372D01*
X135537348Y-84164057D01*
X135463943Y-84090652D01*
X135377628Y-84032979D01*
X135281720Y-83993252D01*
X135179905Y-83973000D01*
X135076095Y-83973000D01*
X134974280Y-83993252D01*
X134878372Y-84032979D01*
X134792057Y-84090652D01*
X134784709Y-84098000D01*
X132550291Y-84098000D01*
X132542943Y-84090652D01*
X132456628Y-84032979D01*
X132360720Y-83993252D01*
X132258905Y-83973000D01*
X132155095Y-83973000D01*
X132053280Y-83993252D01*
X131957372Y-84032979D01*
X131871057Y-84090652D01*
X131863709Y-84098000D01*
X128740291Y-84098000D01*
X128732943Y-84090652D01*
X128646628Y-84032979D01*
X128550720Y-83993252D01*
X128448905Y-83973000D01*
X128345095Y-83973000D01*
X128243280Y-83993252D01*
X128147372Y-84032979D01*
X128061057Y-84090652D01*
X127987652Y-84164057D01*
X127929979Y-84250372D01*
X127890252Y-84346280D01*
X127870000Y-84448095D01*
X111426609Y-84448095D01*
X98822000Y-71843487D01*
X98822000Y-71833095D01*
X98801748Y-71731280D01*
X98762021Y-71635372D01*
X98704348Y-71549057D01*
X98630943Y-71475652D01*
X98544628Y-71417979D01*
X98448720Y-71378252D01*
X98346905Y-71358000D01*
X98336513Y-71358000D01*
X93067351Y-66088838D01*
X93131769Y-65933318D01*
X93177000Y-65705924D01*
X93177000Y-65474076D01*
X93363000Y-65474076D01*
X93363000Y-65705924D01*
X93408231Y-65933318D01*
X93496956Y-66147519D01*
X93625764Y-66340294D01*
X93789706Y-66504236D01*
X93982481Y-66633044D01*
X94196682Y-66721769D01*
X94424076Y-66767000D01*
X94655924Y-66767000D01*
X94883318Y-66721769D01*
X95097519Y-66633044D01*
X95290294Y-66504236D01*
X95454236Y-66340294D01*
X95583044Y-66147519D01*
X95671769Y-65933318D01*
X95717000Y-65705924D01*
X95717000Y-65474076D01*
X98443000Y-65474076D01*
X98443000Y-65705924D01*
X98488231Y-65933318D01*
X98576956Y-66147519D01*
X98705764Y-66340294D01*
X98869706Y-66504236D01*
X99062481Y-66633044D01*
X99218000Y-66697462D01*
X99218001Y-70156708D01*
X99210652Y-70164057D01*
X99152979Y-70250372D01*
X99113252Y-70346280D01*
X99093000Y-70448095D01*
X99093000Y-70551905D01*
X99113252Y-70653720D01*
X99152979Y-70749628D01*
X99210652Y-70835943D01*
X99284057Y-70909348D01*
X99370372Y-70967021D01*
X99466280Y-71006748D01*
X99568095Y-71027000D01*
X99671905Y-71027000D01*
X99773720Y-71006748D01*
X99869628Y-70967021D01*
X99955943Y-70909348D01*
X100029348Y-70835943D01*
X100087021Y-70749628D01*
X100126748Y-70653720D01*
X100147000Y-70551905D01*
X100147000Y-70448095D01*
X100126748Y-70346280D01*
X100087021Y-70250372D01*
X100029348Y-70164057D01*
X100022000Y-70156709D01*
X100022000Y-66697462D01*
X100177519Y-66633044D01*
X100370294Y-66504236D01*
X100534236Y-66340294D01*
X100663044Y-66147519D01*
X100751769Y-65933318D01*
X100797000Y-65705924D01*
X100797000Y-65474076D01*
X100983000Y-65474076D01*
X100983000Y-65705924D01*
X101028231Y-65933318D01*
X101116956Y-66147519D01*
X101245764Y-66340294D01*
X101409706Y-66504236D01*
X101602481Y-66633044D01*
X101816682Y-66721769D01*
X102044076Y-66767000D01*
X102275924Y-66767000D01*
X102503318Y-66721769D01*
X102717519Y-66633044D01*
X102910294Y-66504236D01*
X103074236Y-66340294D01*
X103203044Y-66147519D01*
X103291769Y-65933318D01*
X103337000Y-65705924D01*
X103337000Y-65474076D01*
X103523000Y-65474076D01*
X103523000Y-65705924D01*
X103568231Y-65933318D01*
X103656956Y-66147519D01*
X103785764Y-66340294D01*
X103949706Y-66504236D01*
X104142481Y-66633044D01*
X104356682Y-66721769D01*
X104584076Y-66767000D01*
X104815924Y-66767000D01*
X105043318Y-66721769D01*
X105257519Y-66633044D01*
X105450294Y-66504236D01*
X105614236Y-66340294D01*
X105743044Y-66147519D01*
X105831769Y-65933318D01*
X105877000Y-65705924D01*
X105877000Y-65474076D01*
X106063000Y-65474076D01*
X106063000Y-65705924D01*
X106108231Y-65933318D01*
X106196956Y-66147519D01*
X106325764Y-66340294D01*
X106489706Y-66504236D01*
X106682481Y-66633044D01*
X106896682Y-66721769D01*
X107124076Y-66767000D01*
X107355924Y-66767000D01*
X107583318Y-66721769D01*
X107797519Y-66633044D01*
X107990294Y-66504236D01*
X108154236Y-66340294D01*
X108283044Y-66147519D01*
X108371769Y-65933318D01*
X108417000Y-65705924D01*
X108417000Y-65474076D01*
X108603000Y-65474076D01*
X108603000Y-65705924D01*
X108648231Y-65933318D01*
X108736956Y-66147519D01*
X108865764Y-66340294D01*
X109029706Y-66504236D01*
X109222481Y-66633044D01*
X109436682Y-66721769D01*
X109664076Y-66767000D01*
X109895924Y-66767000D01*
X110123318Y-66721769D01*
X110337519Y-66633044D01*
X110530294Y-66504236D01*
X110694236Y-66340294D01*
X110823044Y-66147519D01*
X110911769Y-65933318D01*
X110957000Y-65705924D01*
X110957000Y-65474076D01*
X111143000Y-65474076D01*
X111143000Y-65705924D01*
X111188231Y-65933318D01*
X111276956Y-66147519D01*
X111405764Y-66340294D01*
X111569706Y-66504236D01*
X111762481Y-66633044D01*
X111976682Y-66721769D01*
X112204076Y-66767000D01*
X112435924Y-66767000D01*
X112663318Y-66721769D01*
X112877519Y-66633044D01*
X113070294Y-66504236D01*
X113234236Y-66340294D01*
X113363044Y-66147519D01*
X113451769Y-65933318D01*
X113497000Y-65705924D01*
X113497000Y-65474076D01*
X113683000Y-65474076D01*
X113683000Y-65705924D01*
X113728231Y-65933318D01*
X113816956Y-66147519D01*
X113945764Y-66340294D01*
X114109706Y-66504236D01*
X114302481Y-66633044D01*
X114516682Y-66721769D01*
X114744076Y-66767000D01*
X114975924Y-66767000D01*
X115203318Y-66721769D01*
X115417519Y-66633044D01*
X115610294Y-66504236D01*
X115774236Y-66340294D01*
X115903044Y-66147519D01*
X115991769Y-65933318D01*
X116037000Y-65705924D01*
X116037000Y-65474076D01*
X118763000Y-65474076D01*
X118763000Y-65705924D01*
X118808231Y-65933318D01*
X118896956Y-66147519D01*
X119025764Y-66340294D01*
X119189706Y-66504236D01*
X119382481Y-66633044D01*
X119596682Y-66721769D01*
X119824076Y-66767000D01*
X120055924Y-66767000D01*
X120283318Y-66721769D01*
X120438837Y-66657351D01*
X120491778Y-66710292D01*
X120504367Y-66725631D01*
X120553170Y-66765683D01*
X121772000Y-67984514D01*
X121772001Y-69429485D01*
X121625987Y-69575500D01*
X121615595Y-69575500D01*
X121513780Y-69595752D01*
X121417872Y-69635479D01*
X121331557Y-69693152D01*
X121258152Y-69766557D01*
X121200479Y-69852872D01*
X121160752Y-69948780D01*
X121140500Y-70050595D01*
X121140500Y-70154405D01*
X121160752Y-70256220D01*
X121200479Y-70352128D01*
X121258152Y-70438443D01*
X121331557Y-70511848D01*
X121417872Y-70569521D01*
X121513780Y-70609248D01*
X121615595Y-70629500D01*
X121719405Y-70629500D01*
X121821220Y-70609248D01*
X121917128Y-70569521D01*
X122003443Y-70511848D01*
X122076848Y-70438443D01*
X122134521Y-70352128D01*
X122174248Y-70256220D01*
X122194500Y-70154405D01*
X122194500Y-70144013D01*
X122444295Y-69894219D01*
X122459632Y-69881632D01*
X122509868Y-69820420D01*
X122547197Y-69750583D01*
X122570183Y-69674806D01*
X122576000Y-69615747D01*
X122576000Y-69615740D01*
X122577944Y-69596001D01*
X122576000Y-69576261D01*
X122576000Y-67837739D01*
X122577944Y-67818000D01*
X122576000Y-67798260D01*
X122576000Y-67798253D01*
X122570183Y-67739194D01*
X122565308Y-67723123D01*
X122547197Y-67663416D01*
X122509868Y-67593580D01*
X122472220Y-67547706D01*
X122472218Y-67547704D01*
X122459632Y-67532368D01*
X122444297Y-67519783D01*
X121094222Y-66169709D01*
X121081631Y-66154367D01*
X121032833Y-66114319D01*
X121007351Y-66088837D01*
X121071769Y-65933318D01*
X121117000Y-65705924D01*
X121117000Y-65474076D01*
X121303000Y-65474076D01*
X121303000Y-65705924D01*
X121348231Y-65933318D01*
X121436956Y-66147519D01*
X121565764Y-66340294D01*
X121729706Y-66504236D01*
X121922481Y-66633044D01*
X122136682Y-66721769D01*
X122364076Y-66767000D01*
X122595924Y-66767000D01*
X122823318Y-66721769D01*
X123037519Y-66633044D01*
X123230294Y-66504236D01*
X123394236Y-66340294D01*
X123523044Y-66147519D01*
X123611769Y-65933318D01*
X123657000Y-65705924D01*
X123657000Y-65474076D01*
X123611769Y-65246682D01*
X123523044Y-65032481D01*
X123394236Y-64839706D01*
X123230294Y-64675764D01*
X123037519Y-64546956D01*
X122823318Y-64458231D01*
X122595924Y-64413000D01*
X122364076Y-64413000D01*
X122136682Y-64458231D01*
X121922481Y-64546956D01*
X121729706Y-64675764D01*
X121565764Y-64839706D01*
X121436956Y-65032481D01*
X121348231Y-65246682D01*
X121303000Y-65474076D01*
X121117000Y-65474076D01*
X121071769Y-65246682D01*
X120983044Y-65032481D01*
X120854236Y-64839706D01*
X120690294Y-64675764D01*
X120497519Y-64546956D01*
X120283318Y-64458231D01*
X120055924Y-64413000D01*
X119824076Y-64413000D01*
X119596682Y-64458231D01*
X119382481Y-64546956D01*
X119189706Y-64675764D01*
X119025764Y-64839706D01*
X118896956Y-65032481D01*
X118808231Y-65246682D01*
X118763000Y-65474076D01*
X116037000Y-65474076D01*
X115991769Y-65246682D01*
X115903044Y-65032481D01*
X115774236Y-64839706D01*
X115610294Y-64675764D01*
X115417519Y-64546956D01*
X115203318Y-64458231D01*
X114975924Y-64413000D01*
X114744076Y-64413000D01*
X114516682Y-64458231D01*
X114302481Y-64546956D01*
X114109706Y-64675764D01*
X113945764Y-64839706D01*
X113816956Y-65032481D01*
X113728231Y-65246682D01*
X113683000Y-65474076D01*
X113497000Y-65474076D01*
X113451769Y-65246682D01*
X113363044Y-65032481D01*
X113234236Y-64839706D01*
X113070294Y-64675764D01*
X112877519Y-64546956D01*
X112663318Y-64458231D01*
X112435924Y-64413000D01*
X112204076Y-64413000D01*
X111976682Y-64458231D01*
X111762481Y-64546956D01*
X111569706Y-64675764D01*
X111405764Y-64839706D01*
X111276956Y-65032481D01*
X111188231Y-65246682D01*
X111143000Y-65474076D01*
X110957000Y-65474076D01*
X110911769Y-65246682D01*
X110823044Y-65032481D01*
X110694236Y-64839706D01*
X110530294Y-64675764D01*
X110337519Y-64546956D01*
X110123318Y-64458231D01*
X109895924Y-64413000D01*
X109664076Y-64413000D01*
X109436682Y-64458231D01*
X109222481Y-64546956D01*
X109029706Y-64675764D01*
X108865764Y-64839706D01*
X108736956Y-65032481D01*
X108648231Y-65246682D01*
X108603000Y-65474076D01*
X108417000Y-65474076D01*
X108371769Y-65246682D01*
X108283044Y-65032481D01*
X108154236Y-64839706D01*
X107990294Y-64675764D01*
X107797519Y-64546956D01*
X107583318Y-64458231D01*
X107355924Y-64413000D01*
X107124076Y-64413000D01*
X106896682Y-64458231D01*
X106682481Y-64546956D01*
X106489706Y-64675764D01*
X106325764Y-64839706D01*
X106196956Y-65032481D01*
X106108231Y-65246682D01*
X106063000Y-65474076D01*
X105877000Y-65474076D01*
X105831769Y-65246682D01*
X105743044Y-65032481D01*
X105614236Y-64839706D01*
X105450294Y-64675764D01*
X105257519Y-64546956D01*
X105043318Y-64458231D01*
X104815924Y-64413000D01*
X104584076Y-64413000D01*
X104356682Y-64458231D01*
X104142481Y-64546956D01*
X103949706Y-64675764D01*
X103785764Y-64839706D01*
X103656956Y-65032481D01*
X103568231Y-65246682D01*
X103523000Y-65474076D01*
X103337000Y-65474076D01*
X103291769Y-65246682D01*
X103203044Y-65032481D01*
X103074236Y-64839706D01*
X102910294Y-64675764D01*
X102717519Y-64546956D01*
X102503318Y-64458231D01*
X102275924Y-64413000D01*
X102044076Y-64413000D01*
X101816682Y-64458231D01*
X101602481Y-64546956D01*
X101409706Y-64675764D01*
X101245764Y-64839706D01*
X101116956Y-65032481D01*
X101028231Y-65246682D01*
X100983000Y-65474076D01*
X100797000Y-65474076D01*
X100751769Y-65246682D01*
X100663044Y-65032481D01*
X100534236Y-64839706D01*
X100370294Y-64675764D01*
X100177519Y-64546956D01*
X99963318Y-64458231D01*
X99735924Y-64413000D01*
X99504076Y-64413000D01*
X99276682Y-64458231D01*
X99062481Y-64546956D01*
X98869706Y-64675764D01*
X98705764Y-64839706D01*
X98576956Y-65032481D01*
X98488231Y-65246682D01*
X98443000Y-65474076D01*
X95717000Y-65474076D01*
X95671769Y-65246682D01*
X95583044Y-65032481D01*
X95454236Y-64839706D01*
X95290294Y-64675764D01*
X95097519Y-64546956D01*
X94883318Y-64458231D01*
X94655924Y-64413000D01*
X94424076Y-64413000D01*
X94196682Y-64458231D01*
X93982481Y-64546956D01*
X93789706Y-64675764D01*
X93625764Y-64839706D01*
X93496956Y-65032481D01*
X93408231Y-65246682D01*
X93363000Y-65474076D01*
X93177000Y-65474076D01*
X93131769Y-65246682D01*
X93043044Y-65032481D01*
X92914236Y-64839706D01*
X92750294Y-64675764D01*
X92557519Y-64546956D01*
X92343318Y-64458231D01*
X92115924Y-64413000D01*
X91884076Y-64413000D01*
X91656682Y-64458231D01*
X91442481Y-64546956D01*
X91249706Y-64675764D01*
X91085764Y-64839706D01*
X90956956Y-65032481D01*
X90868231Y-65246682D01*
X90823000Y-65474076D01*
X90637000Y-65474076D01*
X90591769Y-65246682D01*
X90503044Y-65032481D01*
X90374236Y-64839706D01*
X90311530Y-64777000D01*
X90900000Y-64777000D01*
X90924776Y-64774560D01*
X90948601Y-64767333D01*
X90970557Y-64755597D01*
X90989803Y-64739803D01*
X91005597Y-64720557D01*
X91017333Y-64698601D01*
X91024560Y-64674776D01*
X91027000Y-64650000D01*
X91027000Y-62934076D01*
X93363000Y-62934076D01*
X93363000Y-63165924D01*
X93408231Y-63393318D01*
X93496956Y-63607519D01*
X93625764Y-63800294D01*
X93789706Y-63964236D01*
X93982481Y-64093044D01*
X94196682Y-64181769D01*
X94424076Y-64227000D01*
X94655924Y-64227000D01*
X94883318Y-64181769D01*
X95097519Y-64093044D01*
X95290294Y-63964236D01*
X95454236Y-63800294D01*
X95583044Y-63607519D01*
X95671769Y-63393318D01*
X95717000Y-63165924D01*
X95717000Y-62934076D01*
X95903000Y-62934076D01*
X95903000Y-63165924D01*
X95948231Y-63393318D01*
X96036956Y-63607519D01*
X96165764Y-63800294D01*
X96329706Y-63964236D01*
X96522481Y-64093044D01*
X96736682Y-64181769D01*
X96964076Y-64227000D01*
X97195924Y-64227000D01*
X97423318Y-64181769D01*
X97637519Y-64093044D01*
X97830294Y-63964236D01*
X97994236Y-63800294D01*
X98123044Y-63607519D01*
X98211769Y-63393318D01*
X98257000Y-63165924D01*
X98257000Y-62934076D01*
X98443000Y-62934076D01*
X98443000Y-63165924D01*
X98488231Y-63393318D01*
X98576956Y-63607519D01*
X98705764Y-63800294D01*
X98869706Y-63964236D01*
X99062481Y-64093044D01*
X99276682Y-64181769D01*
X99504076Y-64227000D01*
X99735924Y-64227000D01*
X99963318Y-64181769D01*
X100177519Y-64093044D01*
X100370294Y-63964236D01*
X100534236Y-63800294D01*
X100663044Y-63607519D01*
X100751769Y-63393318D01*
X100797000Y-63165924D01*
X100797000Y-62934076D01*
X103523000Y-62934076D01*
X103523000Y-63165924D01*
X103568231Y-63393318D01*
X103656956Y-63607519D01*
X103785764Y-63800294D01*
X103949706Y-63964236D01*
X104142481Y-64093044D01*
X104356682Y-64181769D01*
X104584076Y-64227000D01*
X104815924Y-64227000D01*
X105043318Y-64181769D01*
X105257519Y-64093044D01*
X105450294Y-63964236D01*
X105614236Y-63800294D01*
X105743044Y-63607519D01*
X105831769Y-63393318D01*
X105877000Y-63165924D01*
X105877000Y-62934076D01*
X106063000Y-62934076D01*
X106063000Y-63165924D01*
X106108231Y-63393318D01*
X106196956Y-63607519D01*
X106325764Y-63800294D01*
X106489706Y-63964236D01*
X106682481Y-64093044D01*
X106896682Y-64181769D01*
X107124076Y-64227000D01*
X107355924Y-64227000D01*
X107583318Y-64181769D01*
X107797519Y-64093044D01*
X107990294Y-63964236D01*
X108154236Y-63800294D01*
X108283044Y-63607519D01*
X108371769Y-63393318D01*
X108417000Y-63165924D01*
X108417000Y-62934076D01*
X111143000Y-62934076D01*
X111143000Y-63165924D01*
X111188231Y-63393318D01*
X111276956Y-63607519D01*
X111405764Y-63800294D01*
X111569706Y-63964236D01*
X111762481Y-64093044D01*
X111976682Y-64181769D01*
X112204076Y-64227000D01*
X112435924Y-64227000D01*
X112663318Y-64181769D01*
X112877519Y-64093044D01*
X113070294Y-63964236D01*
X113234236Y-63800294D01*
X113363044Y-63607519D01*
X113451769Y-63393318D01*
X113497000Y-63165924D01*
X113497000Y-62934076D01*
X113683000Y-62934076D01*
X113683000Y-63165924D01*
X113728231Y-63393318D01*
X113816956Y-63607519D01*
X113945764Y-63800294D01*
X114109706Y-63964236D01*
X114302481Y-64093044D01*
X114516682Y-64181769D01*
X114744076Y-64227000D01*
X114975924Y-64227000D01*
X115203318Y-64181769D01*
X115417519Y-64093044D01*
X115610294Y-63964236D01*
X115774236Y-63800294D01*
X115903044Y-63607519D01*
X115991769Y-63393318D01*
X116037000Y-63165924D01*
X116037000Y-62934076D01*
X116223000Y-62934076D01*
X116223000Y-63165924D01*
X116268231Y-63393318D01*
X116356956Y-63607519D01*
X116485764Y-63800294D01*
X116649706Y-63964236D01*
X116842481Y-64093044D01*
X117056682Y-64181769D01*
X117284076Y-64227000D01*
X117515924Y-64227000D01*
X117743318Y-64181769D01*
X117957519Y-64093044D01*
X118150294Y-63964236D01*
X118314236Y-63800294D01*
X118443044Y-63607519D01*
X118531769Y-63393318D01*
X118577000Y-63165924D01*
X118577000Y-62934076D01*
X118763000Y-62934076D01*
X118763000Y-63165924D01*
X118808231Y-63393318D01*
X118896956Y-63607519D01*
X119025764Y-63800294D01*
X119189706Y-63964236D01*
X119382481Y-64093044D01*
X119596682Y-64181769D01*
X119824076Y-64227000D01*
X120055924Y-64227000D01*
X120283318Y-64181769D01*
X120497519Y-64093044D01*
X120690294Y-63964236D01*
X120854236Y-63800294D01*
X120983044Y-63607519D01*
X121071769Y-63393318D01*
X121117000Y-63165924D01*
X121117000Y-62934076D01*
X123843000Y-62934076D01*
X123843000Y-63165924D01*
X123888231Y-63393318D01*
X123976956Y-63607519D01*
X124105764Y-63800294D01*
X124269706Y-63964236D01*
X124462481Y-64093044D01*
X124676682Y-64181769D01*
X124904076Y-64227000D01*
X125135924Y-64227000D01*
X125363318Y-64181769D01*
X125518838Y-64117351D01*
X125963000Y-64561513D01*
X125963000Y-64882755D01*
X125934236Y-64839706D01*
X125770294Y-64675764D01*
X125577519Y-64546956D01*
X125363318Y-64458231D01*
X125135924Y-64413000D01*
X124904076Y-64413000D01*
X124676682Y-64458231D01*
X124462481Y-64546956D01*
X124269706Y-64675764D01*
X124105764Y-64839706D01*
X123976956Y-65032481D01*
X123888231Y-65246682D01*
X123843000Y-65474076D01*
X123843000Y-65705924D01*
X123888231Y-65933318D01*
X123976956Y-66147519D01*
X124105764Y-66340294D01*
X124269706Y-66504236D01*
X124462481Y-66633044D01*
X124676682Y-66721769D01*
X124904076Y-66767000D01*
X125135924Y-66767000D01*
X125363318Y-66721769D01*
X125577519Y-66633044D01*
X125770294Y-66504236D01*
X125934236Y-66340294D01*
X125963000Y-66297245D01*
X125963001Y-73132251D01*
X125961056Y-73152000D01*
X125968817Y-73230805D01*
X125991804Y-73306583D01*
X126029133Y-73376420D01*
X126079369Y-73437632D01*
X126094705Y-73450218D01*
X126981000Y-74336514D01*
X126981000Y-74346905D01*
X127001252Y-74448720D01*
X127040979Y-74544628D01*
X127098652Y-74630943D01*
X127172057Y-74704348D01*
X127258372Y-74762021D01*
X127354280Y-74801748D01*
X127456095Y-74822000D01*
X127559905Y-74822000D01*
X127661720Y-74801748D01*
X127757628Y-74762021D01*
X127843943Y-74704348D01*
X127917348Y-74630943D01*
X127975021Y-74544628D01*
X128014748Y-74448720D01*
X128035000Y-74346905D01*
X128035000Y-74243095D01*
X128014748Y-74141280D01*
X127975021Y-74045372D01*
X127917348Y-73959057D01*
X127843943Y-73885652D01*
X127757628Y-73827979D01*
X127661720Y-73788252D01*
X127559905Y-73768000D01*
X127549514Y-73768000D01*
X126767000Y-72985487D01*
X126767000Y-66461530D01*
X126809706Y-66504236D01*
X127002481Y-66633044D01*
X127216682Y-66721769D01*
X127444076Y-66767000D01*
X127675924Y-66767000D01*
X127903318Y-66721769D01*
X128117519Y-66633044D01*
X128310294Y-66504236D01*
X128474236Y-66340294D01*
X128603044Y-66147519D01*
X128691769Y-65933318D01*
X128737000Y-65705924D01*
X128737000Y-65474076D01*
X128923000Y-65474076D01*
X128923000Y-65705924D01*
X128968231Y-65933318D01*
X129056956Y-66147519D01*
X129185764Y-66340294D01*
X129349706Y-66504236D01*
X129542481Y-66633044D01*
X129756682Y-66721769D01*
X129984076Y-66767000D01*
X130215924Y-66767000D01*
X130443318Y-66721769D01*
X130657519Y-66633044D01*
X130850294Y-66504236D01*
X131014236Y-66340294D01*
X131143044Y-66147519D01*
X131231769Y-65933318D01*
X131277000Y-65705924D01*
X131277000Y-65474076D01*
X131463000Y-65474076D01*
X131463000Y-65705924D01*
X131508231Y-65933318D01*
X131596956Y-66147519D01*
X131725764Y-66340294D01*
X131889706Y-66504236D01*
X132082481Y-66633044D01*
X132296682Y-66721769D01*
X132524076Y-66767000D01*
X132755924Y-66767000D01*
X132983318Y-66721769D01*
X133197519Y-66633044D01*
X133390294Y-66504236D01*
X133554236Y-66340294D01*
X133683044Y-66147519D01*
X133771769Y-65933318D01*
X133817000Y-65705924D01*
X133817000Y-65474076D01*
X133771769Y-65246682D01*
X133683044Y-65032481D01*
X133554236Y-64839706D01*
X133390294Y-64675764D01*
X133197519Y-64546956D01*
X132983318Y-64458231D01*
X132755924Y-64413000D01*
X132524076Y-64413000D01*
X132296682Y-64458231D01*
X132082481Y-64546956D01*
X131889706Y-64675764D01*
X131725764Y-64839706D01*
X131596956Y-65032481D01*
X131508231Y-65246682D01*
X131463000Y-65474076D01*
X131277000Y-65474076D01*
X131231769Y-65246682D01*
X131143044Y-65032481D01*
X131014236Y-64839706D01*
X130850294Y-64675764D01*
X130657519Y-64546956D01*
X130443318Y-64458231D01*
X130215924Y-64413000D01*
X129984076Y-64413000D01*
X129756682Y-64458231D01*
X129542481Y-64546956D01*
X129349706Y-64675764D01*
X129185764Y-64839706D01*
X129056956Y-65032481D01*
X128968231Y-65246682D01*
X128923000Y-65474076D01*
X128737000Y-65474076D01*
X128691769Y-65246682D01*
X128603044Y-65032481D01*
X128474236Y-64839706D01*
X128310294Y-64675764D01*
X128117519Y-64546956D01*
X127903318Y-64458231D01*
X127675924Y-64413000D01*
X127444076Y-64413000D01*
X127216682Y-64458231D01*
X127002481Y-64546956D01*
X126809706Y-64675764D01*
X126767000Y-64718470D01*
X126767000Y-64414739D01*
X126768944Y-64394999D01*
X126767000Y-64375260D01*
X126767000Y-64375253D01*
X126761183Y-64316194D01*
X126738197Y-64240417D01*
X126700868Y-64170580D01*
X126650632Y-64109368D01*
X126635291Y-64096778D01*
X126087351Y-63548838D01*
X126151769Y-63393318D01*
X126197000Y-63165924D01*
X126197000Y-62934076D01*
X128923000Y-62934076D01*
X128923000Y-63165924D01*
X128968231Y-63393318D01*
X129056956Y-63607519D01*
X129185764Y-63800294D01*
X129349706Y-63964236D01*
X129542481Y-64093044D01*
X129756682Y-64181769D01*
X129984076Y-64227000D01*
X130215924Y-64227000D01*
X130443318Y-64181769D01*
X130657519Y-64093044D01*
X130850294Y-63964236D01*
X131014236Y-63800294D01*
X131143044Y-63607519D01*
X131231769Y-63393318D01*
X131277000Y-63165924D01*
X131277000Y-62934076D01*
X131463000Y-62934076D01*
X131463000Y-63165924D01*
X131508231Y-63393318D01*
X131596956Y-63607519D01*
X131725764Y-63800294D01*
X131889706Y-63964236D01*
X132082481Y-64093044D01*
X132296682Y-64181769D01*
X132524076Y-64227000D01*
X132755924Y-64227000D01*
X132983318Y-64181769D01*
X133197519Y-64093044D01*
X133390294Y-63964236D01*
X133554236Y-63800294D01*
X133683044Y-63607519D01*
X133771769Y-63393318D01*
X133817000Y-63165924D01*
X133817000Y-62934076D01*
X134003000Y-62934076D01*
X134003000Y-63165924D01*
X134048231Y-63393318D01*
X134136956Y-63607519D01*
X134265764Y-63800294D01*
X134429706Y-63964236D01*
X134622481Y-64093044D01*
X134836682Y-64181769D01*
X135064076Y-64227000D01*
X135295924Y-64227000D01*
X135523318Y-64181769D01*
X135737519Y-64093044D01*
X135930294Y-63964236D01*
X136094236Y-63800294D01*
X136223044Y-63607519D01*
X136311769Y-63393318D01*
X136357000Y-63165924D01*
X136357000Y-62934076D01*
X136311769Y-62706682D01*
X136223044Y-62492481D01*
X136094236Y-62299706D01*
X135930294Y-62135764D01*
X135737519Y-62006956D01*
X135523318Y-61918231D01*
X135295924Y-61873000D01*
X135064076Y-61873000D01*
X134836682Y-61918231D01*
X134622481Y-62006956D01*
X134429706Y-62135764D01*
X134265764Y-62299706D01*
X134136956Y-62492481D01*
X134048231Y-62706682D01*
X134003000Y-62934076D01*
X133817000Y-62934076D01*
X133771769Y-62706682D01*
X133683044Y-62492481D01*
X133554236Y-62299706D01*
X133390294Y-62135764D01*
X133197519Y-62006956D01*
X132983318Y-61918231D01*
X132755924Y-61873000D01*
X132524076Y-61873000D01*
X132296682Y-61918231D01*
X132082481Y-62006956D01*
X131889706Y-62135764D01*
X131725764Y-62299706D01*
X131596956Y-62492481D01*
X131508231Y-62706682D01*
X131463000Y-62934076D01*
X131277000Y-62934076D01*
X131231769Y-62706682D01*
X131143044Y-62492481D01*
X131014236Y-62299706D01*
X130850294Y-62135764D01*
X130657519Y-62006956D01*
X130443318Y-61918231D01*
X130215924Y-61873000D01*
X129984076Y-61873000D01*
X129756682Y-61918231D01*
X129542481Y-62006956D01*
X129349706Y-62135764D01*
X129185764Y-62299706D01*
X129056956Y-62492481D01*
X128968231Y-62706682D01*
X128923000Y-62934076D01*
X126197000Y-62934076D01*
X126151769Y-62706682D01*
X126063044Y-62492481D01*
X125934236Y-62299706D01*
X125770294Y-62135764D01*
X125577519Y-62006956D01*
X125363318Y-61918231D01*
X125135924Y-61873000D01*
X124904076Y-61873000D01*
X124676682Y-61918231D01*
X124462481Y-62006956D01*
X124269706Y-62135764D01*
X124105764Y-62299706D01*
X123976956Y-62492481D01*
X123888231Y-62706682D01*
X123843000Y-62934076D01*
X121117000Y-62934076D01*
X121071769Y-62706682D01*
X120983044Y-62492481D01*
X120854236Y-62299706D01*
X120690294Y-62135764D01*
X120497519Y-62006956D01*
X120283318Y-61918231D01*
X120055924Y-61873000D01*
X119824076Y-61873000D01*
X119596682Y-61918231D01*
X119382481Y-62006956D01*
X119189706Y-62135764D01*
X119025764Y-62299706D01*
X118896956Y-62492481D01*
X118808231Y-62706682D01*
X118763000Y-62934076D01*
X118577000Y-62934076D01*
X118531769Y-62706682D01*
X118443044Y-62492481D01*
X118314236Y-62299706D01*
X118150294Y-62135764D01*
X117957519Y-62006956D01*
X117743318Y-61918231D01*
X117515924Y-61873000D01*
X117284076Y-61873000D01*
X117056682Y-61918231D01*
X116842481Y-62006956D01*
X116649706Y-62135764D01*
X116485764Y-62299706D01*
X116356956Y-62492481D01*
X116268231Y-62706682D01*
X116223000Y-62934076D01*
X116037000Y-62934076D01*
X115991769Y-62706682D01*
X115903044Y-62492481D01*
X115774236Y-62299706D01*
X115610294Y-62135764D01*
X115417519Y-62006956D01*
X115203318Y-61918231D01*
X114975924Y-61873000D01*
X114744076Y-61873000D01*
X114516682Y-61918231D01*
X114302481Y-62006956D01*
X114109706Y-62135764D01*
X113945764Y-62299706D01*
X113816956Y-62492481D01*
X113728231Y-62706682D01*
X113683000Y-62934076D01*
X113497000Y-62934076D01*
X113451769Y-62706682D01*
X113363044Y-62492481D01*
X113234236Y-62299706D01*
X113070294Y-62135764D01*
X112877519Y-62006956D01*
X112663318Y-61918231D01*
X112435924Y-61873000D01*
X112204076Y-61873000D01*
X111976682Y-61918231D01*
X111762481Y-62006956D01*
X111569706Y-62135764D01*
X111405764Y-62299706D01*
X111276956Y-62492481D01*
X111188231Y-62706682D01*
X111143000Y-62934076D01*
X108417000Y-62934076D01*
X108371769Y-62706682D01*
X108283044Y-62492481D01*
X108154236Y-62299706D01*
X107990294Y-62135764D01*
X107797519Y-62006956D01*
X107583318Y-61918231D01*
X107355924Y-61873000D01*
X107124076Y-61873000D01*
X106896682Y-61918231D01*
X106682481Y-62006956D01*
X106489706Y-62135764D01*
X106325764Y-62299706D01*
X106196956Y-62492481D01*
X106108231Y-62706682D01*
X106063000Y-62934076D01*
X105877000Y-62934076D01*
X105831769Y-62706682D01*
X105743044Y-62492481D01*
X105614236Y-62299706D01*
X105450294Y-62135764D01*
X105257519Y-62006956D01*
X105043318Y-61918231D01*
X104815924Y-61873000D01*
X104584076Y-61873000D01*
X104356682Y-61918231D01*
X104142481Y-62006956D01*
X103949706Y-62135764D01*
X103785764Y-62299706D01*
X103656956Y-62492481D01*
X103568231Y-62706682D01*
X103523000Y-62934076D01*
X100797000Y-62934076D01*
X100751769Y-62706682D01*
X100663044Y-62492481D01*
X100534236Y-62299706D01*
X100370294Y-62135764D01*
X100177519Y-62006956D01*
X99963318Y-61918231D01*
X99735924Y-61873000D01*
X99504076Y-61873000D01*
X99276682Y-61918231D01*
X99062481Y-62006956D01*
X98869706Y-62135764D01*
X98705764Y-62299706D01*
X98576956Y-62492481D01*
X98488231Y-62706682D01*
X98443000Y-62934076D01*
X98257000Y-62934076D01*
X98211769Y-62706682D01*
X98123044Y-62492481D01*
X97994236Y-62299706D01*
X97830294Y-62135764D01*
X97637519Y-62006956D01*
X97423318Y-61918231D01*
X97195924Y-61873000D01*
X96964076Y-61873000D01*
X96736682Y-61918231D01*
X96522481Y-62006956D01*
X96329706Y-62135764D01*
X96165764Y-62299706D01*
X96036956Y-62492481D01*
X95948231Y-62706682D01*
X95903000Y-62934076D01*
X95717000Y-62934076D01*
X95671769Y-62706682D01*
X95583044Y-62492481D01*
X95454236Y-62299706D01*
X95290294Y-62135764D01*
X95097519Y-62006956D01*
X94883318Y-61918231D01*
X94655924Y-61873000D01*
X94424076Y-61873000D01*
X94196682Y-61918231D01*
X93982481Y-62006956D01*
X93789706Y-62135764D01*
X93625764Y-62299706D01*
X93496956Y-62492481D01*
X93408231Y-62706682D01*
X93363000Y-62934076D01*
X91027000Y-62934076D01*
X91027000Y-61194611D01*
X139261609Y-61194611D01*
X139098719Y-61227012D01*
G37*
X139098719Y-61227012D02*
X138511442Y-61470270D01*
X137982907Y-61823425D01*
X137533425Y-62272907D01*
X137180270Y-62801442D01*
X136937012Y-63388719D01*
X136813000Y-64012168D01*
X136813000Y-64647832D01*
X136937012Y-65271281D01*
X137180270Y-65858558D01*
X137533425Y-66387093D01*
X137982907Y-66836575D01*
X138511442Y-67189730D01*
X139098719Y-67432988D01*
X139722168Y-67557000D01*
X140357832Y-67557000D01*
X140981281Y-67432988D01*
X141568558Y-67189730D01*
X142097093Y-66836575D01*
X142546575Y-66387093D01*
X142899730Y-65858558D01*
X143142988Y-65271281D01*
X143169357Y-65138716D01*
X143169354Y-86521271D01*
X143142988Y-86388719D01*
X142899730Y-85801442D01*
X142546575Y-85272907D01*
X142097093Y-84823425D01*
X141568558Y-84470270D01*
X140981281Y-84227012D01*
X140357832Y-84103000D01*
X139722168Y-84103000D01*
X139098719Y-84227012D01*
X138511442Y-84470270D01*
X137982907Y-84823425D01*
X137533425Y-85272907D01*
X137180270Y-85801442D01*
X136937012Y-86388719D01*
X136813000Y-87012168D01*
X136813000Y-87647832D01*
X136937012Y-88271281D01*
X137180270Y-88858558D01*
X137533425Y-89387093D01*
X137982907Y-89836575D01*
X138511442Y-90189730D01*
X139098719Y-90432988D01*
X139722168Y-90557000D01*
X140357832Y-90557000D01*
X140981281Y-90432988D01*
X141568558Y-90189730D01*
X142097093Y-89836575D01*
X142546575Y-89387093D01*
X142899730Y-88858558D01*
X143142988Y-88271281D01*
X143169354Y-88138730D01*
X143169351Y-112551529D01*
X143132988Y-112368719D01*
X142889730Y-111781442D01*
X142536575Y-111252907D01*
X142087093Y-110803425D01*
X141558558Y-110450270D01*
X140971281Y-110207012D01*
X140347832Y-110083000D01*
X139712168Y-110083000D01*
X139088719Y-110207012D01*
X138501442Y-110450270D01*
X137972907Y-110803425D01*
X137523425Y-111252907D01*
X137170270Y-111781442D01*
X136927012Y-112368719D01*
X136803000Y-112992168D01*
X136803000Y-113627832D01*
X136927012Y-114251281D01*
X137170270Y-114838558D01*
X137523425Y-115367093D01*
X137972907Y-115816575D01*
X138501442Y-116169730D01*
X139088719Y-116412988D01*
X139227589Y-116440611D01*
X82892684Y-116440611D01*
X82981281Y-116422988D01*
X83568558Y-116179730D01*
X84097093Y-115826575D01*
X84546575Y-115377093D01*
X84899730Y-114848558D01*
X85142988Y-114261281D01*
X85267000Y-113637832D01*
X85267000Y-113002168D01*
X85142988Y-112378719D01*
X84899730Y-111791442D01*
X84546575Y-111262907D01*
X84097093Y-110813425D01*
X83568558Y-110460270D01*
X82981281Y-110217012D01*
X82357832Y-110093000D01*
X81722168Y-110093000D01*
X81098719Y-110217012D01*
X80511442Y-110460270D01*
X79982907Y-110813425D01*
X79533425Y-111262907D01*
X79180270Y-111791442D01*
X78937012Y-112378719D01*
X78923356Y-112447372D01*
X78923356Y-104600000D01*
X90273000Y-104600000D01*
X90273000Y-116200000D01*
X90275440Y-116224776D01*
X90282667Y-116248601D01*
X90294403Y-116270557D01*
X90310197Y-116289803D01*
X90329443Y-116305597D01*
X90351399Y-116317333D01*
X90375224Y-116324560D01*
X90400000Y-116327000D01*
X98300000Y-116327000D01*
X98324776Y-116324560D01*
X98348601Y-116317333D01*
X98370557Y-116305597D01*
X98389803Y-116289803D01*
X98405597Y-116270557D01*
X98417333Y-116248601D01*
X98424560Y-116224776D01*
X98427000Y-116200000D01*
X98427000Y-113736188D01*
X104901000Y-113736188D01*
X104901000Y-114101811D01*
X104918031Y-114274731D01*
X104985333Y-114496596D01*
X105094626Y-114701069D01*
X105241709Y-114880291D01*
X105420930Y-115027374D01*
X105625403Y-115136667D01*
X105847268Y-115203969D01*
X106078000Y-115226694D01*
X106308731Y-115203969D01*
X106530596Y-115136667D01*
X106735069Y-115027374D01*
X106914291Y-114880291D01*
X107061374Y-114701070D01*
X107170667Y-114496597D01*
X107237969Y-114274732D01*
X107255000Y-114101812D01*
X107255000Y-113736189D01*
X107255000Y-113736188D01*
X107401000Y-113736188D01*
X107401000Y-114101811D01*
X107418031Y-114274731D01*
X107485333Y-114496596D01*
X107594626Y-114701069D01*
X107741709Y-114880291D01*
X107920930Y-115027374D01*
X108125403Y-115136667D01*
X108347268Y-115203969D01*
X108578000Y-115226694D01*
X108808731Y-115203969D01*
X109030596Y-115136667D01*
X109235069Y-115027374D01*
X109414291Y-114880291D01*
X109561374Y-114701070D01*
X109670667Y-114496597D01*
X109737969Y-114274732D01*
X109755000Y-114101812D01*
X109755000Y-113736189D01*
X109755000Y-113736188D01*
X109901000Y-113736188D01*
X109901000Y-114101811D01*
X109918031Y-114274731D01*
X109985333Y-114496596D01*
X110094626Y-114701069D01*
X110241709Y-114880291D01*
X110420930Y-115027374D01*
X110625403Y-115136667D01*
X110847268Y-115203969D01*
X111078000Y-115226694D01*
X111308731Y-115203969D01*
X111530596Y-115136667D01*
X111735069Y-115027374D01*
X111914291Y-114880291D01*
X112061374Y-114701070D01*
X112170667Y-114496597D01*
X112237969Y-114274732D01*
X112255000Y-114101812D01*
X112255000Y-113736189D01*
X112237969Y-113563269D01*
X112170667Y-113341404D01*
X112061374Y-113136931D01*
X111914291Y-112957709D01*
X111735070Y-112810626D01*
X111530597Y-112701333D01*
X111308732Y-112634031D01*
X111078000Y-112611306D01*
X110847269Y-112634031D01*
X110625404Y-112701333D01*
X110420931Y-112810626D01*
X110241710Y-112957709D01*
X110094626Y-113136930D01*
X109985333Y-113341403D01*
X109918031Y-113563268D01*
X109901000Y-113736188D01*
X109755000Y-113736188D01*
X109737969Y-113563269D01*
X109670667Y-113341404D01*
X109561374Y-113136931D01*
X109414291Y-112957709D01*
X109235070Y-112810626D01*
X109030597Y-112701333D01*
X108808732Y-112634031D01*
X108578000Y-112611306D01*
X108347269Y-112634031D01*
X108125404Y-112701333D01*
X107920931Y-112810626D01*
X107741710Y-112957709D01*
X107594626Y-113136930D01*
X107485333Y-113341403D01*
X107418031Y-113563268D01*
X107401000Y-113736188D01*
X107255000Y-113736188D01*
X107237969Y-113563269D01*
X107170667Y-113341404D01*
X107061374Y-113136931D01*
X106914291Y-112957709D01*
X106735070Y-112810626D01*
X106530597Y-112701333D01*
X106308732Y-112634031D01*
X106078000Y-112611306D01*
X105847269Y-112634031D01*
X105625404Y-112701333D01*
X105420931Y-112810626D01*
X105241710Y-112957709D01*
X105094626Y-113136930D01*
X104985333Y-113341403D01*
X104918031Y-113563268D01*
X104901000Y-113736188D01*
X98427000Y-113736188D01*
X98427000Y-104846189D01*
X107622000Y-104846189D01*
X107622000Y-105211812D01*
X107639031Y-105384732D01*
X107706333Y-105606597D01*
X107815626Y-105811070D01*
X107962710Y-105990291D01*
X108141931Y-106137374D01*
X108346404Y-106246667D01*
X108413165Y-106266919D01*
X108425803Y-106308582D01*
X108463132Y-106378419D01*
X108513368Y-106439632D01*
X108528710Y-106452223D01*
X113598780Y-111522294D01*
X113611368Y-111537632D01*
X113626704Y-111550218D01*
X113626706Y-111550220D01*
X113672580Y-111587868D01*
X113742416Y-111625197D01*
X113818194Y-111648183D01*
X113877253Y-111654000D01*
X113877260Y-111654000D01*
X113897000Y-111655944D01*
X113916739Y-111654000D01*
X114149487Y-111654000D01*
X113307710Y-112495777D01*
X113292368Y-112508368D01*
X113242132Y-112569581D01*
X113204803Y-112639418D01*
X113192165Y-112681081D01*
X113125404Y-112701333D01*
X112920931Y-112810626D01*
X112741710Y-112957709D01*
X112594626Y-113136930D01*
X112485333Y-113341403D01*
X112418031Y-113563268D01*
X112401000Y-113736188D01*
X112401000Y-114101811D01*
X112418031Y-114274731D01*
X112485333Y-114496596D01*
X112594626Y-114701069D01*
X112741709Y-114880291D01*
X112920930Y-115027374D01*
X113125403Y-115136667D01*
X113347268Y-115203969D01*
X113578000Y-115226694D01*
X113808731Y-115203969D01*
X114030596Y-115136667D01*
X114235069Y-115027374D01*
X114414291Y-114880291D01*
X114561374Y-114701070D01*
X114670667Y-114496597D01*
X114737969Y-114274732D01*
X114755000Y-114101812D01*
X114755000Y-113736189D01*
X114755000Y-113736188D01*
X121792000Y-113736188D01*
X121792000Y-114101811D01*
X121809031Y-114274731D01*
X121876333Y-114496596D01*
X121985626Y-114701069D01*
X122132709Y-114880291D01*
X122311930Y-115027374D01*
X122516403Y-115136667D01*
X122738268Y-115203969D01*
X122969000Y-115226694D01*
X123199731Y-115203969D01*
X123421596Y-115136667D01*
X123626069Y-115027374D01*
X123805291Y-114880291D01*
X123952374Y-114701070D01*
X124061667Y-114496597D01*
X124128969Y-114274732D01*
X124146000Y-114101812D01*
X124146000Y-113736189D01*
X124146000Y-113736188D01*
X124292000Y-113736188D01*
X124292000Y-114101811D01*
X124309031Y-114274731D01*
X124376333Y-114496596D01*
X124485626Y-114701069D01*
X124632709Y-114880291D01*
X124811930Y-115027374D01*
X125016403Y-115136667D01*
X125238268Y-115203969D01*
X125469000Y-115226694D01*
X125699731Y-115203969D01*
X125921596Y-115136667D01*
X126126069Y-115027374D01*
X126305291Y-114880291D01*
X126452374Y-114701070D01*
X126561667Y-114496597D01*
X126628969Y-114274732D01*
X126646000Y-114101812D01*
X126646000Y-113736189D01*
X126646000Y-113736188D01*
X126792000Y-113736188D01*
X126792000Y-114101811D01*
X126809031Y-114274731D01*
X126876333Y-114496596D01*
X126985626Y-114701069D01*
X127132709Y-114880291D01*
X127311930Y-115027374D01*
X127516403Y-115136667D01*
X127738268Y-115203969D01*
X127969000Y-115226694D01*
X128199731Y-115203969D01*
X128421596Y-115136667D01*
X128626069Y-115027374D01*
X128805291Y-114880291D01*
X128952374Y-114701070D01*
X129061667Y-114496597D01*
X129128969Y-114274732D01*
X129146000Y-114101812D01*
X129146000Y-113736189D01*
X129128969Y-113563269D01*
X129061667Y-113341404D01*
X128952374Y-113136931D01*
X128805291Y-112957709D01*
X128626070Y-112810626D01*
X128421597Y-112701333D01*
X128199732Y-112634031D01*
X127969000Y-112611306D01*
X127738269Y-112634031D01*
X127516404Y-112701333D01*
X127311931Y-112810626D01*
X127132710Y-112957709D01*
X126985626Y-113136930D01*
X126876333Y-113341403D01*
X126809031Y-113563268D01*
X126792000Y-113736188D01*
X126646000Y-113736188D01*
X126628969Y-113563269D01*
X126561667Y-113341404D01*
X126452374Y-113136931D01*
X126305291Y-112957709D01*
X126126070Y-112810626D01*
X125921597Y-112701333D01*
X125699732Y-112634031D01*
X125469000Y-112611306D01*
X125238269Y-112634031D01*
X125016404Y-112701333D01*
X124811931Y-112810626D01*
X124632710Y-112957709D01*
X124485626Y-113136930D01*
X124376333Y-113341403D01*
X124309031Y-113563268D01*
X124292000Y-113736188D01*
X124146000Y-113736188D01*
X124128969Y-113563269D01*
X124061667Y-113341404D01*
X123952374Y-113136931D01*
X123805291Y-112957709D01*
X123626070Y-112810626D01*
X123421597Y-112701333D01*
X123199732Y-112634031D01*
X122969000Y-112611306D01*
X122738269Y-112634031D01*
X122516404Y-112701333D01*
X122311931Y-112810626D01*
X122132710Y-112957709D01*
X121985626Y-113136930D01*
X121876333Y-113341403D01*
X121809031Y-113563268D01*
X121792000Y-113736188D01*
X114755000Y-113736188D01*
X114737969Y-113563269D01*
X114670667Y-113341404D01*
X114561374Y-113136931D01*
X114414291Y-112957709D01*
X114235070Y-112810626D01*
X114166525Y-112773988D01*
X115286513Y-111654000D01*
X128812986Y-111654000D01*
X129914688Y-112755702D01*
X129811931Y-112810626D01*
X129632710Y-112957709D01*
X129485626Y-113136930D01*
X129376333Y-113341403D01*
X129309031Y-113563268D01*
X129292000Y-113736188D01*
X129292000Y-114101811D01*
X129309031Y-114274731D01*
X129376333Y-114496596D01*
X129485626Y-114701069D01*
X129632709Y-114880291D01*
X129811930Y-115027374D01*
X130016403Y-115136667D01*
X130238268Y-115203969D01*
X130469000Y-115226694D01*
X130699731Y-115203969D01*
X130921596Y-115136667D01*
X131126069Y-115027374D01*
X131305291Y-114880291D01*
X131452374Y-114701070D01*
X131561667Y-114496597D01*
X131628969Y-114274732D01*
X131646000Y-114101812D01*
X131646000Y-113736189D01*
X131628969Y-113563269D01*
X131561667Y-113341404D01*
X131452374Y-113136931D01*
X131305291Y-112957709D01*
X131126070Y-112810626D01*
X130921597Y-112701333D01*
X130867368Y-112684883D01*
X130865183Y-112662694D01*
X130858122Y-112639417D01*
X130842197Y-112586916D01*
X130804868Y-112517080D01*
X130767220Y-112471206D01*
X130767218Y-112471204D01*
X130754632Y-112455868D01*
X130739296Y-112443282D01*
X126092000Y-107795987D01*
X126092000Y-106262015D01*
X126142597Y-106246667D01*
X126347070Y-106137374D01*
X126526291Y-105990291D01*
X126673374Y-105811069D01*
X126782667Y-105606596D01*
X126849969Y-105384731D01*
X126867000Y-105211811D01*
X126867000Y-104846188D01*
X126849969Y-104673268D01*
X126782667Y-104451403D01*
X126673374Y-104246930D01*
X126526291Y-104067709D01*
X126347069Y-103920626D01*
X126142596Y-103811333D01*
X125920731Y-103744031D01*
X125690000Y-103721306D01*
X125459268Y-103744031D01*
X125237403Y-103811333D01*
X125032930Y-103920626D01*
X124853709Y-104067709D01*
X124706626Y-104246931D01*
X124597333Y-104451404D01*
X124530031Y-104673269D01*
X124513000Y-104846189D01*
X124513000Y-105211812D01*
X124530031Y-105384732D01*
X124597333Y-105606597D01*
X124706626Y-105811070D01*
X124853710Y-105990291D01*
X125032931Y-106137374D01*
X125237404Y-106246667D01*
X125288001Y-106262015D01*
X125288000Y-107942761D01*
X125286056Y-107962500D01*
X125288000Y-107982239D01*
X125288000Y-107982246D01*
X125293817Y-108041305D01*
X125316803Y-108117082D01*
X125354132Y-108186919D01*
X125404368Y-108248132D01*
X125419710Y-108260723D01*
X128008986Y-110850000D01*
X115139739Y-110850000D01*
X115119999Y-110848056D01*
X115100260Y-110850000D01*
X114063514Y-110850000D01*
X109387525Y-106174012D01*
X109456070Y-106137374D01*
X109635291Y-105990291D01*
X109782374Y-105811069D01*
X109891667Y-105606596D01*
X109958969Y-105384731D01*
X109976000Y-105211811D01*
X109976000Y-104846189D01*
X110122000Y-104846189D01*
X110122000Y-105211812D01*
X110139031Y-105384732D01*
X110206333Y-105606597D01*
X110315626Y-105811070D01*
X110462710Y-105990291D01*
X110641931Y-106137374D01*
X110846404Y-106246667D01*
X111068269Y-106313969D01*
X111299000Y-106336694D01*
X111529732Y-106313969D01*
X111751597Y-106246667D01*
X111956070Y-106137374D01*
X112135291Y-105990291D01*
X112282374Y-105811069D01*
X112391667Y-105606596D01*
X112458969Y-105384731D01*
X112476000Y-105211811D01*
X112476000Y-104846188D01*
X112458969Y-104673268D01*
X112391667Y-104451403D01*
X112282374Y-104246930D01*
X112135291Y-104067709D01*
X111956069Y-103920626D01*
X111751596Y-103811333D01*
X111701000Y-103795985D01*
X111701000Y-100367513D01*
X117541513Y-94527000D01*
X117551905Y-94527000D01*
X117653720Y-94506748D01*
X117689628Y-94491874D01*
X113528705Y-98652798D01*
X113513369Y-98665384D01*
X113463133Y-98726596D01*
X113425804Y-98796433D01*
X113402817Y-98872211D01*
X113395056Y-98951016D01*
X113397001Y-98970765D01*
X113397000Y-103795985D01*
X113346403Y-103811333D01*
X113141930Y-103920626D01*
X112962709Y-104067709D01*
X112815626Y-104246931D01*
X112706333Y-104451404D01*
X112639031Y-104673269D01*
X112622000Y-104846189D01*
X112622000Y-105211812D01*
X112639031Y-105384732D01*
X112706333Y-105606597D01*
X112815626Y-105811070D01*
X112962710Y-105990291D01*
X113141931Y-106137374D01*
X113346404Y-106246667D01*
X113568269Y-106313969D01*
X113799000Y-106336694D01*
X114029732Y-106313969D01*
X114251597Y-106246667D01*
X114456070Y-106137374D01*
X114635291Y-105990291D01*
X114782374Y-105811069D01*
X114891667Y-105606596D01*
X114958969Y-105384731D01*
X114976000Y-105211811D01*
X114976000Y-104846188D01*
X114958969Y-104673268D01*
X114891667Y-104451403D01*
X114782374Y-104246930D01*
X114635291Y-104067709D01*
X114456069Y-103920626D01*
X114251596Y-103811333D01*
X114201000Y-103795985D01*
X114201000Y-99117529D01*
X118791530Y-94527000D01*
X118801921Y-94527000D01*
X118903736Y-94506748D01*
X118939591Y-94491896D01*
X116028705Y-97402782D01*
X116013369Y-97415368D01*
X115963133Y-97476580D01*
X115936941Y-97525581D01*
X115925804Y-97546417D01*
X115902817Y-97622195D01*
X115895056Y-97701000D01*
X115897001Y-97720749D01*
X115897000Y-103795985D01*
X115846403Y-103811333D01*
X115641930Y-103920626D01*
X115462709Y-104067709D01*
X115315626Y-104246931D01*
X115206333Y-104451404D01*
X115139031Y-104673269D01*
X115122000Y-104846189D01*
X115122000Y-105211812D01*
X115139031Y-105384732D01*
X115206333Y-105606597D01*
X115315626Y-105811070D01*
X115462710Y-105990291D01*
X115641931Y-106137374D01*
X115846404Y-106246667D01*
X116068269Y-106313969D01*
X116299000Y-106336694D01*
X116529732Y-106313969D01*
X116751597Y-106246667D01*
X116956070Y-106137374D01*
X117135291Y-105990291D01*
X117282374Y-105811069D01*
X117391667Y-105606596D01*
X117458969Y-105384731D01*
X117476000Y-105211811D01*
X117476000Y-104846188D01*
X117458969Y-104673268D01*
X117391667Y-104451403D01*
X117282374Y-104246930D01*
X117135291Y-104067709D01*
X116956069Y-103920626D01*
X116751596Y-103811333D01*
X116701000Y-103795985D01*
X116701000Y-97867513D01*
X120041513Y-94527000D01*
X120051905Y-94527000D01*
X120153720Y-94506748D01*
X120249628Y-94467021D01*
X120335943Y-94409348D01*
X120409348Y-94335943D01*
X120467021Y-94249628D01*
X120506748Y-94153720D01*
X120527000Y-94051905D01*
X120527000Y-93948095D01*
X120506748Y-93846280D01*
X120467021Y-93750372D01*
X120409348Y-93664057D01*
X120335943Y-93590652D01*
X120249628Y-93532979D01*
X120153720Y-93493252D01*
X120051905Y-93473000D01*
X119948095Y-93473000D01*
X119846280Y-93493252D01*
X119750372Y-93532979D01*
X119664057Y-93590652D01*
X119590652Y-93664057D01*
X119532979Y-93750372D01*
X119493252Y-93846280D01*
X119473000Y-93948095D01*
X119473000Y-93958487D01*
X119241912Y-94189575D01*
X119256764Y-94153720D01*
X119277016Y-94051905D01*
X119277016Y-93948095D01*
X119256764Y-93846280D01*
X119217037Y-93750372D01*
X119159364Y-93664057D01*
X119085959Y-93590652D01*
X118999644Y-93532979D01*
X118903736Y-93493252D01*
X118801921Y-93473000D01*
X118698111Y-93473000D01*
X118596296Y-93493252D01*
X118500388Y-93532979D01*
X118414073Y-93590652D01*
X118340668Y-93664057D01*
X118282995Y-93750372D01*
X118243268Y-93846280D01*
X118223016Y-93948095D01*
X118223016Y-93958486D01*
X117991874Y-94189628D01*
X118006748Y-94153720D01*
X118027000Y-94051905D01*
X118027000Y-93948095D01*
X118006748Y-93846280D01*
X117967021Y-93750372D01*
X117909348Y-93664057D01*
X117835943Y-93590652D01*
X117749628Y-93532979D01*
X117653720Y-93493252D01*
X117551905Y-93473000D01*
X117448095Y-93473000D01*
X117346280Y-93493252D01*
X117250372Y-93532979D01*
X117164057Y-93590652D01*
X117090652Y-93664057D01*
X117032979Y-93750372D01*
X116993252Y-93846280D01*
X116973000Y-93948095D01*
X116973000Y-93958487D01*
X111028705Y-99902782D01*
X111013369Y-99915368D01*
X110963133Y-99976580D01*
X110949109Y-100002817D01*
X110925804Y-100046417D01*
X110902817Y-100122195D01*
X110895056Y-100201000D01*
X110897001Y-100220749D01*
X110897000Y-103795984D01*
X110846403Y-103811333D01*
X110641930Y-103920626D01*
X110462709Y-104067709D01*
X110315626Y-104246931D01*
X110206333Y-104451404D01*
X110139031Y-104673269D01*
X110122000Y-104846189D01*
X109976000Y-104846189D01*
X109976000Y-104846188D01*
X109958969Y-104673268D01*
X109891667Y-104451403D01*
X109782374Y-104246930D01*
X109635291Y-104067709D01*
X109456069Y-103920626D01*
X109251596Y-103811333D01*
X109029731Y-103744031D01*
X108799000Y-103721306D01*
X108568268Y-103744031D01*
X108346403Y-103811333D01*
X108141930Y-103920626D01*
X107962709Y-104067709D01*
X107815626Y-104246931D01*
X107706333Y-104451404D01*
X107639031Y-104673269D01*
X107622000Y-104846189D01*
X98427000Y-104846189D01*
X98427000Y-104600000D01*
X98424560Y-104575224D01*
X98417333Y-104551399D01*
X98405597Y-104529443D01*
X98389803Y-104510197D01*
X98370557Y-104494403D01*
X98348601Y-104482667D01*
X98324776Y-104475440D01*
X98300000Y-104473000D01*
X90400000Y-104473000D01*
X90375224Y-104475440D01*
X90351399Y-104482667D01*
X90329443Y-104494403D01*
X90310197Y-104510197D01*
X90294403Y-104529443D01*
X90282667Y-104551399D01*
X90275440Y-104575224D01*
X90273000Y-104600000D01*
X78923356Y-104600000D01*
X78923356Y-102625095D01*
X89770000Y-102625095D01*
X89770000Y-102728905D01*
X89790252Y-102830720D01*
X89829979Y-102926628D01*
X89887652Y-103012943D01*
X89961057Y-103086348D01*
X90047372Y-103144021D01*
X90143280Y-103183748D01*
X90245095Y-103204000D01*
X90348905Y-103204000D01*
X90450720Y-103183748D01*
X90546628Y-103144021D01*
X90632943Y-103086348D01*
X90640291Y-103079000D01*
X92935709Y-103079000D01*
X92943057Y-103086348D01*
X93029372Y-103144021D01*
X93125280Y-103183748D01*
X93227095Y-103204000D01*
X93330905Y-103204000D01*
X93432720Y-103183748D01*
X93528628Y-103144021D01*
X93614943Y-103086348D01*
X93688348Y-103012943D01*
X93746021Y-102926628D01*
X93785748Y-102830720D01*
X93806000Y-102728905D01*
X93806000Y-102625095D01*
X93785748Y-102523280D01*
X93746021Y-102427372D01*
X93688348Y-102341057D01*
X93614943Y-102267652D01*
X93528628Y-102209979D01*
X93432720Y-102170252D01*
X93330905Y-102150000D01*
X93227095Y-102150000D01*
X93125280Y-102170252D01*
X93029372Y-102209979D01*
X92943057Y-102267652D01*
X92935709Y-102275000D01*
X90640291Y-102275000D01*
X90632943Y-102267652D01*
X90546628Y-102209979D01*
X90450720Y-102170252D01*
X90348905Y-102150000D01*
X90245095Y-102150000D01*
X90143280Y-102170252D01*
X90047372Y-102209979D01*
X89961057Y-102267652D01*
X89887652Y-102341057D01*
X89829979Y-102427372D01*
X89790252Y-102523280D01*
X89770000Y-102625095D01*
X78923356Y-102625095D01*
X78923356Y-98924095D01*
X88747000Y-98924095D01*
X88747000Y-99027905D01*
X88767252Y-99129720D01*
X88806979Y-99225628D01*
X88864652Y-99311943D01*
X88872000Y-99319291D01*
X88872001Y-100632708D01*
X88864652Y-100640057D01*
X88806979Y-100726372D01*
X88767252Y-100822280D01*
X88747000Y-100924095D01*
X88747000Y-101027905D01*
X88767252Y-101129720D01*
X88806979Y-101225628D01*
X88864652Y-101311943D01*
X88938057Y-101385348D01*
X89024372Y-101443021D01*
X89120280Y-101482748D01*
X89222095Y-101503000D01*
X89325905Y-101503000D01*
X89427720Y-101482748D01*
X89523628Y-101443021D01*
X89609943Y-101385348D01*
X89683348Y-101311943D01*
X89741021Y-101225628D01*
X89780748Y-101129720D01*
X89801000Y-101027905D01*
X89801000Y-100924095D01*
X89780748Y-100822280D01*
X89741021Y-100726372D01*
X89683348Y-100640057D01*
X89676000Y-100632709D01*
X89676000Y-99319291D01*
X89683348Y-99311943D01*
X89741021Y-99225628D01*
X89780748Y-99129720D01*
X89801000Y-99027905D01*
X89801000Y-98924095D01*
X89780748Y-98822280D01*
X89741021Y-98726372D01*
X89683348Y-98640057D01*
X89609943Y-98566652D01*
X89523628Y-98508979D01*
X89427720Y-98469252D01*
X89325905Y-98449000D01*
X89222095Y-98449000D01*
X89120280Y-98469252D01*
X89024372Y-98508979D01*
X88938057Y-98566652D01*
X88864652Y-98640057D01*
X88806979Y-98726372D01*
X88767252Y-98822280D01*
X88747000Y-98924095D01*
X78923356Y-98924095D01*
X78923356Y-97992188D01*
X102923000Y-97992188D01*
X102923000Y-98407811D01*
X102940031Y-98580731D01*
X103007333Y-98802596D01*
X103116626Y-99007069D01*
X103263709Y-99186291D01*
X103442930Y-99333374D01*
X103647403Y-99442667D01*
X103869268Y-99509969D01*
X104100000Y-99532694D01*
X104330731Y-99509969D01*
X104552596Y-99442667D01*
X104757069Y-99333374D01*
X104936291Y-99186291D01*
X105083374Y-99007070D01*
X105192667Y-98802597D01*
X105259969Y-98580732D01*
X105277000Y-98407812D01*
X105277000Y-97992189D01*
X105259969Y-97819269D01*
X105192667Y-97597404D01*
X105113878Y-97450000D01*
X105421418Y-97450000D01*
X105421418Y-98950000D01*
X105432535Y-99062876D01*
X105465460Y-99171414D01*
X105518927Y-99271443D01*
X105590881Y-99359119D01*
X105678557Y-99431073D01*
X105778586Y-99484540D01*
X105887124Y-99517465D01*
X106000000Y-99528582D01*
X107200000Y-99528582D01*
X107312876Y-99517465D01*
X107421414Y-99484540D01*
X107521443Y-99431073D01*
X107609119Y-99359119D01*
X107681073Y-99271443D01*
X107734540Y-99171414D01*
X107767465Y-99062876D01*
X107778582Y-98950000D01*
X107778582Y-97450000D01*
X107767465Y-97337124D01*
X107734540Y-97228586D01*
X107681073Y-97128557D01*
X107609119Y-97040881D01*
X107521443Y-96968927D01*
X107421414Y-96915460D01*
X107312876Y-96882535D01*
X107200000Y-96871418D01*
X106000000Y-96871418D01*
X105887124Y-96882535D01*
X105778586Y-96915460D01*
X105678557Y-96968927D01*
X105590881Y-97040881D01*
X105518927Y-97128557D01*
X105465460Y-97228586D01*
X105432535Y-97337124D01*
X105421418Y-97450000D01*
X105113878Y-97450000D01*
X105083374Y-97392931D01*
X104936291Y-97213709D01*
X104757070Y-97066626D01*
X104552597Y-96957333D01*
X104330732Y-96890031D01*
X104100000Y-96867306D01*
X103869269Y-96890031D01*
X103647404Y-96957333D01*
X103442931Y-97066626D01*
X103263710Y-97213709D01*
X103116627Y-97392930D01*
X103007333Y-97597403D01*
X102940031Y-97819268D01*
X102923000Y-97992188D01*
X78923356Y-97992188D01*
X78923356Y-88182628D01*
X78937012Y-88251281D01*
X79180270Y-88838558D01*
X79533425Y-89367093D01*
X79982907Y-89816575D01*
X80511442Y-90169730D01*
X81098719Y-90412988D01*
X81722168Y-90537000D01*
X82357832Y-90537000D01*
X82981281Y-90412988D01*
X83568558Y-90169730D01*
X84097093Y-89816575D01*
X84546575Y-89367093D01*
X84899730Y-88838558D01*
X85142988Y-88251281D01*
X85267000Y-87627832D01*
X85267000Y-86992168D01*
X85142988Y-86368719D01*
X84899730Y-85781442D01*
X84546575Y-85252907D01*
X84097093Y-84803425D01*
X83568558Y-84450270D01*
X82981281Y-84207012D01*
X82357832Y-84083000D01*
X81722168Y-84083000D01*
X81098719Y-84207012D01*
X80511442Y-84450270D01*
X79982907Y-84803425D01*
X79533425Y-85252907D01*
X79180270Y-85781442D01*
X78937012Y-86368719D01*
X78923356Y-86437372D01*
X78923356Y-65182628D01*
X78937012Y-65251281D01*
X79180270Y-65838558D01*
X79533425Y-66367093D01*
X79982907Y-66816575D01*
X80511442Y-67169730D01*
X81098719Y-67412988D01*
X81722168Y-67537000D01*
X82357832Y-67537000D01*
X82981281Y-67412988D01*
X83568558Y-67169730D01*
X84097093Y-66816575D01*
X84546575Y-66367093D01*
X84813002Y-65968357D01*
X84813002Y-66698410D01*
X84808344Y-66707124D01*
X84775349Y-66815889D01*
X84764210Y-66929000D01*
X84775349Y-67042111D01*
X84808344Y-67150876D01*
X84861922Y-67251114D01*
X84934026Y-67338974D01*
X84956035Y-67357036D01*
X85783000Y-68184002D01*
X85783001Y-92400997D01*
X83168934Y-95015065D01*
X83152597Y-95006333D01*
X82930732Y-94939031D01*
X82757812Y-94922000D01*
X82342188Y-94922000D01*
X82169268Y-94939031D01*
X81947403Y-95006333D01*
X81742930Y-95115626D01*
X81563709Y-95262709D01*
X81416626Y-95441930D01*
X81307333Y-95646403D01*
X81240031Y-95868268D01*
X81217306Y-96099000D01*
X81240031Y-96329732D01*
X81307333Y-96551597D01*
X81416626Y-96756070D01*
X81563709Y-96935291D01*
X81742930Y-97082374D01*
X81947403Y-97191667D01*
X82169268Y-97258969D01*
X82342188Y-97276000D01*
X82757812Y-97276000D01*
X82930732Y-97258969D01*
X83152597Y-97191667D01*
X83357070Y-97082374D01*
X83536291Y-96935291D01*
X83683374Y-96756070D01*
X83726172Y-96676000D01*
X90847669Y-96676000D01*
X90876000Y-96678790D01*
X90904331Y-96676000D01*
X90904336Y-96676000D01*
X90934045Y-96673074D01*
X90989111Y-96667651D01*
X91033770Y-96654103D01*
X91097876Y-96634657D01*
X91198115Y-96581079D01*
X91285974Y-96508974D01*
X91304039Y-96486962D01*
X92387968Y-95403034D01*
X92409974Y-95384974D01*
X92431640Y-95358575D01*
X92444405Y-95343020D01*
X92482079Y-95297115D01*
X92535657Y-95196876D01*
X92568650Y-95088112D01*
X92577000Y-95003336D01*
X92577000Y-95003330D01*
X92579790Y-94975001D01*
X92577000Y-94946672D01*
X92577000Y-94651172D01*
X92657070Y-94608374D01*
X92836291Y-94461291D01*
X92983374Y-94282069D01*
X93092667Y-94077596D01*
X93159969Y-93855731D01*
X93177000Y-93682811D01*
X93177000Y-93317189D01*
X93323000Y-93317189D01*
X93323000Y-93682812D01*
X93340031Y-93855732D01*
X93407333Y-94077597D01*
X93516626Y-94282070D01*
X93663710Y-94461291D01*
X93842931Y-94608374D01*
X94047404Y-94717667D01*
X94269269Y-94784969D01*
X94500000Y-94807694D01*
X94730732Y-94784969D01*
X94952597Y-94717667D01*
X95157070Y-94608374D01*
X95336291Y-94461291D01*
X95483374Y-94282069D01*
X95592667Y-94077596D01*
X95659969Y-93855731D01*
X95677000Y-93682811D01*
X95677000Y-93317189D01*
X95823000Y-93317189D01*
X95823000Y-93682812D01*
X95840031Y-93855732D01*
X95907333Y-94077597D01*
X96016626Y-94282070D01*
X96163710Y-94461291D01*
X96342931Y-94608374D01*
X96547404Y-94717667D01*
X96769269Y-94784969D01*
X97000000Y-94807694D01*
X97230732Y-94784969D01*
X97452597Y-94717667D01*
X97657070Y-94608374D01*
X97836291Y-94461291D01*
X97983374Y-94282069D01*
X98092667Y-94077596D01*
X98159969Y-93855731D01*
X98177000Y-93682811D01*
X98177000Y-93317188D01*
X98159969Y-93144268D01*
X98092667Y-92922403D01*
X97983374Y-92717930D01*
X97836291Y-92538709D01*
X97657069Y-92391626D01*
X97452596Y-92282333D01*
X97230731Y-92215031D01*
X97000000Y-92192306D01*
X96769268Y-92215031D01*
X96547403Y-92282333D01*
X96342930Y-92391626D01*
X96163709Y-92538709D01*
X96016626Y-92717931D01*
X95907333Y-92922404D01*
X95840031Y-93144269D01*
X95823000Y-93317189D01*
X95677000Y-93317189D01*
X95677000Y-93317188D01*
X95659969Y-93144268D01*
X95592667Y-92922403D01*
X95483374Y-92717930D01*
X95336291Y-92538709D01*
X95157069Y-92391626D01*
X94952596Y-92282333D01*
X94730731Y-92215031D01*
X94500000Y-92192306D01*
X94269268Y-92215031D01*
X94047403Y-92282333D01*
X93842930Y-92391626D01*
X93663709Y-92538709D01*
X93516626Y-92717931D01*
X93407333Y-92922404D01*
X93340031Y-93144269D01*
X93323000Y-93317189D01*
X93177000Y-93317189D01*
X93177000Y-93317188D01*
X93159969Y-93144268D01*
X93092667Y-92922403D01*
X92983374Y-92717930D01*
X92836291Y-92538709D01*
X92657069Y-92391626D01*
X92452596Y-92282333D01*
X92230731Y-92215031D01*
X92000000Y-92192306D01*
X91769268Y-92215031D01*
X91547403Y-92282333D01*
X91342930Y-92391626D01*
X91163709Y-92538709D01*
X91016626Y-92717931D01*
X90907333Y-92922404D01*
X90840031Y-93144269D01*
X90823000Y-93317189D01*
X90823000Y-93682812D01*
X90840031Y-93855732D01*
X90907333Y-94077597D01*
X91016626Y-94282070D01*
X91163710Y-94461291D01*
X91342931Y-94608374D01*
X91423000Y-94651172D01*
X91423000Y-94735998D01*
X90636999Y-95522000D01*
X84294001Y-95522000D01*
X86747967Y-93068035D01*
X86769974Y-93049974D01*
X86842079Y-92962115D01*
X86895657Y-92861876D01*
X86928650Y-92753112D01*
X86937000Y-92668336D01*
X86937000Y-92668330D01*
X86939790Y-92640001D01*
X86937000Y-92611672D01*
X86937000Y-67973331D01*
X86939790Y-67945000D01*
X86928651Y-67831888D01*
X86900532Y-67739195D01*
X86895657Y-67723124D01*
X86842079Y-67622885D01*
X86769974Y-67535026D01*
X86747968Y-67516966D01*
X85987771Y-66756770D01*
X86005897Y-66762268D01*
X86070000Y-66768582D01*
X87770000Y-66768582D01*
X87834103Y-66762268D01*
X87895743Y-66743570D01*
X87952550Y-66713206D01*
X88002343Y-66672343D01*
X88043206Y-66622550D01*
X88073570Y-66565743D01*
X88092268Y-66504103D01*
X88098582Y-66440000D01*
X88098582Y-64777000D01*
X88608470Y-64777000D01*
X88545764Y-64839706D01*
X88416956Y-65032481D01*
X88328231Y-65246682D01*
X88283000Y-65474076D01*
X88283000Y-65705924D01*
X88328231Y-65933318D01*
X88416956Y-66147519D01*
X88545764Y-66340294D01*
X88709706Y-66504236D01*
X88902481Y-66633044D01*
X89116682Y-66721769D01*
X89344076Y-66767000D01*
X89575924Y-66767000D01*
X89803318Y-66721769D01*
X89958838Y-66657351D01*
X116571779Y-93270293D01*
X116584368Y-93285632D01*
X116599704Y-93298218D01*
X116599706Y-93298220D01*
X116622820Y-93317189D01*
X116645580Y-93335868D01*
X116715417Y-93373197D01*
X116791194Y-93396183D01*
X116850253Y-93402000D01*
X116850260Y-93402000D01*
X116870000Y-93403944D01*
X116889739Y-93402000D01*
X125980489Y-93402000D01*
X126727000Y-94148511D01*
X126727000Y-94158903D01*
X126747252Y-94260718D01*
X126786979Y-94356626D01*
X126844652Y-94442941D01*
X126918057Y-94516346D01*
X127004372Y-94574019D01*
X127100280Y-94613746D01*
X127202095Y-94633998D01*
X127305905Y-94633998D01*
X127407720Y-94613746D01*
X127503628Y-94574019D01*
X127589943Y-94516346D01*
X127663348Y-94442941D01*
X127721021Y-94356626D01*
X127760748Y-94260718D01*
X127781000Y-94158903D01*
X127781000Y-94055093D01*
X127760748Y-93953278D01*
X127721021Y-93857370D01*
X127663348Y-93771055D01*
X127589943Y-93697650D01*
X127503628Y-93639977D01*
X127407720Y-93600250D01*
X127305905Y-93579998D01*
X127295513Y-93579998D01*
X126445225Y-92729710D01*
X126432634Y-92714368D01*
X126371422Y-92664132D01*
X126301585Y-92626803D01*
X126225808Y-92603817D01*
X126166749Y-92598000D01*
X126166741Y-92598000D01*
X126147002Y-92596056D01*
X126127263Y-92598000D01*
X117036514Y-92598000D01*
X90527351Y-66088838D01*
X90591769Y-65933318D01*
X90637000Y-65705924D01*
X90637000Y-65474076D01*
X90823000Y-65474076D01*
X90823000Y-65705924D01*
X90868231Y-65933318D01*
X90956956Y-66147519D01*
X91085764Y-66340294D01*
X91249706Y-66504236D01*
X91442481Y-66633044D01*
X91656682Y-66721769D01*
X91884076Y-66767000D01*
X92115924Y-66767000D01*
X92343318Y-66721769D01*
X92498838Y-66657351D01*
X97768000Y-71926513D01*
X97768000Y-71936905D01*
X97788252Y-72038720D01*
X97827979Y-72134628D01*
X97885652Y-72220943D01*
X97959057Y-72294348D01*
X98045372Y-72352021D01*
X98141280Y-72391748D01*
X98243095Y-72412000D01*
X98253487Y-72412000D01*
X118111779Y-92270293D01*
X118124368Y-92285632D01*
X118185580Y-92335868D01*
X118255417Y-92373197D01*
X118331194Y-92396183D01*
X118390253Y-92402000D01*
X118390260Y-92402000D01*
X118410000Y-92403944D01*
X118429739Y-92402000D01*
X126699491Y-92402000D01*
X128470002Y-94172512D01*
X128470003Y-94825444D01*
X128437979Y-94873372D01*
X128398252Y-94969280D01*
X128378000Y-95071095D01*
X128378000Y-95174905D01*
X128398252Y-95276720D01*
X128437979Y-95372628D01*
X128495652Y-95458943D01*
X128569057Y-95532348D01*
X128655372Y-95590021D01*
X128751280Y-95629748D01*
X128853095Y-95650000D01*
X128956905Y-95650000D01*
X129058720Y-95629748D01*
X129154628Y-95590021D01*
X129240943Y-95532348D01*
X129314348Y-95458943D01*
X129372021Y-95372628D01*
X129411748Y-95276720D01*
X129432000Y-95174905D01*
X129432000Y-95071095D01*
X129411748Y-94969280D01*
X129372021Y-94873372D01*
X129314348Y-94787057D01*
X129274002Y-94746711D01*
X129274002Y-94025737D01*
X129275946Y-94005998D01*
X129274002Y-93986258D01*
X129274002Y-93986251D01*
X129268185Y-93927192D01*
X129251806Y-93873196D01*
X129245199Y-93851414D01*
X129207870Y-93781578D01*
X129170222Y-93735704D01*
X129170220Y-93735702D01*
X129157634Y-93720366D01*
X129142299Y-93707781D01*
X127164227Y-91729710D01*
X127151636Y-91714368D01*
X127090424Y-91664132D01*
X127020587Y-91626803D01*
X126944810Y-91603817D01*
X126885751Y-91598000D01*
X126885743Y-91598000D01*
X126866004Y-91596056D01*
X126846265Y-91598000D01*
X118576514Y-91598000D01*
X117926613Y-90948099D01*
X118723000Y-90948099D01*
X118723000Y-91051909D01*
X118743252Y-91153724D01*
X118782979Y-91249632D01*
X118840652Y-91335947D01*
X118914057Y-91409352D01*
X119000372Y-91467025D01*
X119096280Y-91506752D01*
X119198095Y-91527004D01*
X119301905Y-91527004D01*
X119403720Y-91506752D01*
X119499628Y-91467025D01*
X119585943Y-91409352D01*
X119593291Y-91402004D01*
X131083491Y-91402004D01*
X133348001Y-93666514D01*
X133348000Y-97583487D01*
X127919705Y-103011782D01*
X127904369Y-103024368D01*
X127854133Y-103085580D01*
X127842032Y-103108220D01*
X127816804Y-103155417D01*
X127793817Y-103231195D01*
X127786056Y-103310000D01*
X127788001Y-103329749D01*
X127788001Y-103795984D01*
X127737403Y-103811333D01*
X127532930Y-103920626D01*
X127353709Y-104067709D01*
X127206626Y-104246931D01*
X127097333Y-104451404D01*
X127030031Y-104673269D01*
X127013000Y-104846189D01*
X127013000Y-105211812D01*
X127030031Y-105384732D01*
X127097333Y-105606597D01*
X127206626Y-105811070D01*
X127353710Y-105990291D01*
X127532931Y-106137374D01*
X127737404Y-106246667D01*
X127959269Y-106313969D01*
X128190000Y-106336694D01*
X128420732Y-106313969D01*
X128642597Y-106246667D01*
X128847070Y-106137374D01*
X129026291Y-105990291D01*
X129173374Y-105811069D01*
X129282667Y-105606596D01*
X129349969Y-105384731D01*
X129367000Y-105211811D01*
X129367000Y-104846188D01*
X129349969Y-104673268D01*
X129282667Y-104451403D01*
X129173374Y-104246930D01*
X129026291Y-104067709D01*
X128847069Y-103920626D01*
X128642596Y-103811333D01*
X128592000Y-103795985D01*
X128592000Y-103476513D01*
X134020291Y-98048222D01*
X134035632Y-98035632D01*
X134085868Y-97974420D01*
X134123197Y-97904583D01*
X134146183Y-97828806D01*
X134152000Y-97769747D01*
X134152000Y-97769740D01*
X134153944Y-97750001D01*
X134152000Y-97730261D01*
X134152000Y-93519739D01*
X134153944Y-93499999D01*
X134152000Y-93480260D01*
X134152000Y-93480253D01*
X134146183Y-93421194D01*
X134123197Y-93345417D01*
X134085868Y-93275580D01*
X134035632Y-93214368D01*
X134020290Y-93201777D01*
X131548227Y-90729714D01*
X131535636Y-90714372D01*
X131474424Y-90664136D01*
X131404587Y-90626807D01*
X131328810Y-90603821D01*
X131269751Y-90598004D01*
X131269743Y-90598004D01*
X131250004Y-90596060D01*
X131230265Y-90598004D01*
X119815022Y-90598004D01*
X119842943Y-90579348D01*
X119850291Y-90572000D01*
X132294487Y-90572000D01*
X134348001Y-92625515D01*
X134348000Y-99083486D01*
X130419705Y-103011782D01*
X130404369Y-103024368D01*
X130354133Y-103085580D01*
X130342032Y-103108220D01*
X130316804Y-103155417D01*
X130293817Y-103231195D01*
X130286056Y-103310000D01*
X130288001Y-103329749D01*
X130288001Y-103795984D01*
X130237403Y-103811333D01*
X130032930Y-103920626D01*
X129853709Y-104067709D01*
X129706626Y-104246931D01*
X129597333Y-104451404D01*
X129530031Y-104673269D01*
X129513000Y-104846189D01*
X129513000Y-105211812D01*
X129530031Y-105384732D01*
X129597333Y-105606597D01*
X129706626Y-105811070D01*
X129853710Y-105990291D01*
X130032931Y-106137374D01*
X130237404Y-106246667D01*
X130459269Y-106313969D01*
X130690000Y-106336694D01*
X130920732Y-106313969D01*
X131142597Y-106246667D01*
X131347070Y-106137374D01*
X131526291Y-105990291D01*
X131673374Y-105811069D01*
X131782667Y-105606596D01*
X131849969Y-105384731D01*
X131867000Y-105211811D01*
X131867000Y-104846188D01*
X131849969Y-104673268D01*
X131782667Y-104451403D01*
X131673374Y-104246930D01*
X131526291Y-104067709D01*
X131347069Y-103920626D01*
X131142596Y-103811333D01*
X131092000Y-103795985D01*
X131092000Y-103476513D01*
X135020297Y-99548217D01*
X135035632Y-99535632D01*
X135050542Y-99517465D01*
X135062413Y-99503000D01*
X135085868Y-99474420D01*
X135123197Y-99404583D01*
X135146183Y-99328806D01*
X135152000Y-99269747D01*
X135152000Y-99269740D01*
X135153944Y-99250001D01*
X135152000Y-99230261D01*
X135152000Y-92478739D01*
X135153944Y-92459000D01*
X135152000Y-92439260D01*
X135152000Y-92439253D01*
X135146183Y-92380194D01*
X135123197Y-92304417D01*
X135085868Y-92234580D01*
X135069824Y-92215031D01*
X135048220Y-92188706D01*
X135048218Y-92188704D01*
X135035632Y-92173368D01*
X135020295Y-92160781D01*
X132759223Y-89899710D01*
X132746632Y-89884368D01*
X132685420Y-89834132D01*
X132615583Y-89796803D01*
X132539806Y-89773817D01*
X132480747Y-89768000D01*
X132480739Y-89768000D01*
X132461000Y-89766056D01*
X132441261Y-89768000D01*
X121250909Y-89768000D01*
X121283748Y-89688720D01*
X121291052Y-89652000D01*
X132771487Y-89652000D01*
X135361001Y-92241514D01*
X135361000Y-100070486D01*
X132919705Y-102511782D01*
X132904369Y-102524368D01*
X132854133Y-102585580D01*
X132847391Y-102598194D01*
X132816804Y-102655417D01*
X132793817Y-102731195D01*
X132786056Y-102810000D01*
X132788001Y-102829749D01*
X132788001Y-103795984D01*
X132737403Y-103811333D01*
X132532930Y-103920626D01*
X132353709Y-104067709D01*
X132206626Y-104246931D01*
X132097333Y-104451404D01*
X132030031Y-104673269D01*
X132013000Y-104846189D01*
X132013000Y-105211812D01*
X132030031Y-105384732D01*
X132097333Y-105606597D01*
X132206626Y-105811070D01*
X132353710Y-105990291D01*
X132532931Y-106137374D01*
X132737404Y-106246667D01*
X132959269Y-106313969D01*
X133190000Y-106336694D01*
X133420732Y-106313969D01*
X133642597Y-106246667D01*
X133847070Y-106137374D01*
X133951098Y-106052000D01*
X139281306Y-106052000D01*
X139304031Y-106282732D01*
X139371333Y-106504597D01*
X139480626Y-106709070D01*
X139627709Y-106888291D01*
X139806930Y-107035374D01*
X140011403Y-107144667D01*
X140233268Y-107211969D01*
X140406188Y-107229000D01*
X140771812Y-107229000D01*
X140944732Y-107211969D01*
X141166597Y-107144667D01*
X141371070Y-107035374D01*
X141550291Y-106888291D01*
X141697374Y-106709070D01*
X141806667Y-106504597D01*
X141873969Y-106282732D01*
X141896694Y-106052000D01*
X141873969Y-105821268D01*
X141806667Y-105599403D01*
X141697374Y-105394930D01*
X141550291Y-105215709D01*
X141371070Y-105068626D01*
X141166597Y-104959333D01*
X140944732Y-104892031D01*
X140771812Y-104875000D01*
X140406188Y-104875000D01*
X140233268Y-104892031D01*
X140011403Y-104959333D01*
X139806930Y-105068626D01*
X139627709Y-105215709D01*
X139480626Y-105394930D01*
X139371333Y-105599403D01*
X139304031Y-105821268D01*
X139281306Y-106052000D01*
X133951098Y-106052000D01*
X134026291Y-105990291D01*
X134173374Y-105811069D01*
X134282667Y-105606596D01*
X134349969Y-105384731D01*
X134367000Y-105211811D01*
X134367000Y-104846188D01*
X134349969Y-104673268D01*
X134282667Y-104451403D01*
X134173374Y-104246930D01*
X134026291Y-104067709D01*
X133847069Y-103920626D01*
X133642596Y-103811333D01*
X133592000Y-103795985D01*
X133592000Y-103552000D01*
X139281306Y-103552000D01*
X139304031Y-103782732D01*
X139371333Y-104004597D01*
X139480626Y-104209070D01*
X139627709Y-104388291D01*
X139806930Y-104535374D01*
X140011403Y-104644667D01*
X140233268Y-104711969D01*
X140406188Y-104729000D01*
X140771812Y-104729000D01*
X140944732Y-104711969D01*
X141166597Y-104644667D01*
X141371070Y-104535374D01*
X141550291Y-104388291D01*
X141697374Y-104209070D01*
X141806667Y-104004597D01*
X141873969Y-103782732D01*
X141896694Y-103552000D01*
X141873969Y-103321268D01*
X141806667Y-103099403D01*
X141697374Y-102894930D01*
X141550291Y-102715709D01*
X141371070Y-102568626D01*
X141166597Y-102459333D01*
X140944732Y-102392031D01*
X140771812Y-102375000D01*
X140406188Y-102375000D01*
X140233268Y-102392031D01*
X140011403Y-102459333D01*
X139806930Y-102568626D01*
X139627709Y-102715709D01*
X139480626Y-102894930D01*
X139371333Y-103099403D01*
X139304031Y-103321268D01*
X139281306Y-103552000D01*
X133592000Y-103552000D01*
X133592000Y-102976513D01*
X135655418Y-100913095D01*
X135998000Y-100913095D01*
X135998000Y-101016905D01*
X136018252Y-101118720D01*
X136057979Y-101214628D01*
X136115652Y-101300943D01*
X136189057Y-101374348D01*
X136275372Y-101432021D01*
X136371280Y-101471748D01*
X136473095Y-101492000D01*
X136576905Y-101492000D01*
X136678720Y-101471748D01*
X136774628Y-101432021D01*
X136860943Y-101374348D01*
X136934348Y-101300943D01*
X136992021Y-101214628D01*
X137031748Y-101118720D01*
X137052000Y-101016905D01*
X137052000Y-101006513D01*
X139104513Y-98954000D01*
X139355985Y-98954000D01*
X139371333Y-99004597D01*
X139480626Y-99209070D01*
X139627709Y-99388291D01*
X139806930Y-99535374D01*
X140011403Y-99644667D01*
X140233268Y-99711969D01*
X140406188Y-99729000D01*
X140771812Y-99729000D01*
X140944732Y-99711969D01*
X141166597Y-99644667D01*
X141371070Y-99535374D01*
X141550291Y-99388291D01*
X141697374Y-99209070D01*
X141806667Y-99004597D01*
X141873969Y-98782732D01*
X141896694Y-98552000D01*
X141873969Y-98321268D01*
X141806667Y-98099403D01*
X141697374Y-97894930D01*
X141550291Y-97715709D01*
X141371070Y-97568626D01*
X141166597Y-97459333D01*
X140944732Y-97392031D01*
X140771812Y-97375000D01*
X140406188Y-97375000D01*
X140233268Y-97392031D01*
X140011403Y-97459333D01*
X139806930Y-97568626D01*
X139627709Y-97715709D01*
X139480626Y-97894930D01*
X139371333Y-98099403D01*
X139355985Y-98150000D01*
X138957739Y-98150000D01*
X138937999Y-98148056D01*
X138918260Y-98150000D01*
X138918253Y-98150000D01*
X138859194Y-98155817D01*
X138783417Y-98178803D01*
X138713580Y-98216132D01*
X138652368Y-98266368D01*
X138639777Y-98281710D01*
X136483487Y-100438000D01*
X136473095Y-100438000D01*
X136371280Y-100458252D01*
X136275372Y-100497979D01*
X136189057Y-100555652D01*
X136115652Y-100629057D01*
X136057979Y-100715372D01*
X136018252Y-100811280D01*
X135998000Y-100913095D01*
X135655418Y-100913095D01*
X136033297Y-100535217D01*
X136048632Y-100522632D01*
X136098868Y-100461420D01*
X136136197Y-100391583D01*
X136159183Y-100315806D01*
X136165000Y-100256747D01*
X136165000Y-100256740D01*
X136166944Y-100237001D01*
X136165000Y-100217261D01*
X136165000Y-92094739D01*
X136166944Y-92074999D01*
X136165000Y-92055260D01*
X136165000Y-92055253D01*
X136159183Y-91996194D01*
X136136197Y-91920417D01*
X136098868Y-91850580D01*
X136048632Y-91789368D01*
X136033290Y-91776777D01*
X133236223Y-88979710D01*
X133223632Y-88964368D01*
X133162420Y-88914132D01*
X133092583Y-88876803D01*
X133016806Y-88853817D01*
X132957747Y-88848000D01*
X132957739Y-88848000D01*
X132938000Y-88846056D01*
X132918261Y-88848000D01*
X121081739Y-88848000D01*
X121062000Y-88846056D01*
X121042260Y-88848000D01*
X121042253Y-88848000D01*
X120983194Y-88853817D01*
X120907417Y-88876803D01*
X120837580Y-88914132D01*
X120776368Y-88964368D01*
X120763781Y-88979705D01*
X120735486Y-89008000D01*
X120725095Y-89008000D01*
X120623280Y-89028252D01*
X120527372Y-89067979D01*
X120441057Y-89125652D01*
X120367652Y-89199057D01*
X120309979Y-89285372D01*
X120270252Y-89381280D01*
X120250000Y-89483095D01*
X120250000Y-89586905D01*
X120270252Y-89688720D01*
X120303091Y-89768000D01*
X119850291Y-89768000D01*
X119842943Y-89760652D01*
X119756628Y-89702979D01*
X119660720Y-89663252D01*
X119558905Y-89643000D01*
X119455095Y-89643000D01*
X119353280Y-89663252D01*
X119257372Y-89702979D01*
X119171057Y-89760652D01*
X119097652Y-89834057D01*
X119039979Y-89920372D01*
X119000252Y-90016280D01*
X118980000Y-90118095D01*
X118980000Y-90221905D01*
X119000252Y-90323720D01*
X119039979Y-90419628D01*
X119090715Y-90495561D01*
X119000372Y-90532983D01*
X118914057Y-90590656D01*
X118840652Y-90664061D01*
X118782979Y-90750376D01*
X118743252Y-90846284D01*
X118723000Y-90948099D01*
X117926613Y-90948099D01*
X113032609Y-86054095D01*
X116440000Y-86054095D01*
X116440000Y-86157905D01*
X116460252Y-86259720D01*
X116499979Y-86355628D01*
X116557652Y-86441943D01*
X116631057Y-86515348D01*
X116717372Y-86573021D01*
X116813280Y-86612748D01*
X116915095Y-86633000D01*
X117018905Y-86633000D01*
X117120720Y-86612748D01*
X117216628Y-86573021D01*
X117302943Y-86515348D01*
X117310291Y-86508000D01*
X132543967Y-86508000D01*
X141965001Y-95929035D01*
X141965000Y-100232486D01*
X141734012Y-100463475D01*
X141697374Y-100394930D01*
X141550291Y-100215709D01*
X141371070Y-100068626D01*
X141166597Y-99959333D01*
X140944732Y-99892031D01*
X140771812Y-99875000D01*
X140406188Y-99875000D01*
X140233268Y-99892031D01*
X140011403Y-99959333D01*
X139806930Y-100068626D01*
X139627709Y-100215709D01*
X139480626Y-100394930D01*
X139371333Y-100599403D01*
X139304031Y-100821268D01*
X139281306Y-101052000D01*
X139304031Y-101282732D01*
X139371333Y-101504597D01*
X139480626Y-101709070D01*
X139627709Y-101888291D01*
X139806930Y-102035374D01*
X140011403Y-102144667D01*
X140233268Y-102211969D01*
X140406188Y-102229000D01*
X140771812Y-102229000D01*
X140944732Y-102211969D01*
X141166597Y-102144667D01*
X141371070Y-102035374D01*
X141550291Y-101888291D01*
X141697374Y-101709070D01*
X141806667Y-101504597D01*
X141826919Y-101437835D01*
X141868583Y-101425197D01*
X141938420Y-101387868D01*
X141999632Y-101337632D01*
X142012223Y-101322290D01*
X142637296Y-100697218D01*
X142652632Y-100684632D01*
X142702868Y-100623420D01*
X142740197Y-100553583D01*
X142763183Y-100477806D01*
X142769000Y-100418747D01*
X142769000Y-100418740D01*
X142770944Y-100399001D01*
X142769000Y-100379261D01*
X142769000Y-95782259D01*
X142770944Y-95762520D01*
X142769000Y-95742780D01*
X142769000Y-95742773D01*
X142763183Y-95683714D01*
X142746813Y-95629748D01*
X142740197Y-95607936D01*
X142702868Y-95538100D01*
X142665220Y-95492226D01*
X142665218Y-95492224D01*
X142652632Y-95476888D01*
X142637296Y-95464302D01*
X133008703Y-85835710D01*
X132996112Y-85820368D01*
X132934900Y-85770132D01*
X132865063Y-85732803D01*
X132789286Y-85709817D01*
X132730227Y-85704000D01*
X132730219Y-85704000D01*
X132710480Y-85702056D01*
X132690741Y-85704000D01*
X117310291Y-85704000D01*
X117302943Y-85696652D01*
X117216628Y-85638979D01*
X117120720Y-85599252D01*
X117018905Y-85579000D01*
X116915095Y-85579000D01*
X116813280Y-85599252D01*
X116717372Y-85638979D01*
X116631057Y-85696652D01*
X116557652Y-85770057D01*
X116499979Y-85856372D01*
X116460252Y-85952280D01*
X116440000Y-86054095D01*
X113032609Y-86054095D01*
X111426609Y-84448095D01*
X127870000Y-84448095D01*
X127870000Y-84551905D01*
X127890252Y-84653720D01*
X127929979Y-84749628D01*
X127987652Y-84835943D01*
X128061057Y-84909348D01*
X128147372Y-84967021D01*
X128243280Y-85006748D01*
X128345095Y-85027000D01*
X128448905Y-85027000D01*
X128550720Y-85006748D01*
X128646628Y-84967021D01*
X128732943Y-84909348D01*
X128740291Y-84902000D01*
X131863709Y-84902000D01*
X131871057Y-84909348D01*
X131957372Y-84967021D01*
X132053280Y-85006748D01*
X132155095Y-85027000D01*
X132258905Y-85027000D01*
X132360720Y-85006748D01*
X132456628Y-84967021D01*
X132542943Y-84909348D01*
X132550291Y-84902000D01*
X134784709Y-84902000D01*
X134792057Y-84909348D01*
X134878372Y-84967021D01*
X134974280Y-85006748D01*
X135076095Y-85027000D01*
X135179905Y-85027000D01*
X135281720Y-85006748D01*
X135377628Y-84967021D01*
X135463943Y-84909348D01*
X135537348Y-84835943D01*
X135595021Y-84749628D01*
X135634748Y-84653720D01*
X135655000Y-84551905D01*
X135655000Y-84448095D01*
X135634748Y-84346280D01*
X135595021Y-84250372D01*
X135537348Y-84164057D01*
X135463943Y-84090652D01*
X135377628Y-84032979D01*
X135281720Y-83993252D01*
X135179905Y-83973000D01*
X135076095Y-83973000D01*
X134974280Y-83993252D01*
X134878372Y-84032979D01*
X134792057Y-84090652D01*
X134784709Y-84098000D01*
X132550291Y-84098000D01*
X132542943Y-84090652D01*
X132456628Y-84032979D01*
X132360720Y-83993252D01*
X132258905Y-83973000D01*
X132155095Y-83973000D01*
X132053280Y-83993252D01*
X131957372Y-84032979D01*
X131871057Y-84090652D01*
X131863709Y-84098000D01*
X128740291Y-84098000D01*
X128732943Y-84090652D01*
X128646628Y-84032979D01*
X128550720Y-83993252D01*
X128448905Y-83973000D01*
X128345095Y-83973000D01*
X128243280Y-83993252D01*
X128147372Y-84032979D01*
X128061057Y-84090652D01*
X127987652Y-84164057D01*
X127929979Y-84250372D01*
X127890252Y-84346280D01*
X127870000Y-84448095D01*
X111426609Y-84448095D01*
X98822000Y-71843487D01*
X98822000Y-71833095D01*
X98801748Y-71731280D01*
X98762021Y-71635372D01*
X98704348Y-71549057D01*
X98630943Y-71475652D01*
X98544628Y-71417979D01*
X98448720Y-71378252D01*
X98346905Y-71358000D01*
X98336513Y-71358000D01*
X93067351Y-66088838D01*
X93131769Y-65933318D01*
X93177000Y-65705924D01*
X93177000Y-65474076D01*
X93363000Y-65474076D01*
X93363000Y-65705924D01*
X93408231Y-65933318D01*
X93496956Y-66147519D01*
X93625764Y-66340294D01*
X93789706Y-66504236D01*
X93982481Y-66633044D01*
X94196682Y-66721769D01*
X94424076Y-66767000D01*
X94655924Y-66767000D01*
X94883318Y-66721769D01*
X95097519Y-66633044D01*
X95290294Y-66504236D01*
X95454236Y-66340294D01*
X95583044Y-66147519D01*
X95671769Y-65933318D01*
X95717000Y-65705924D01*
X95717000Y-65474076D01*
X98443000Y-65474076D01*
X98443000Y-65705924D01*
X98488231Y-65933318D01*
X98576956Y-66147519D01*
X98705764Y-66340294D01*
X98869706Y-66504236D01*
X99062481Y-66633044D01*
X99218000Y-66697462D01*
X99218001Y-70156708D01*
X99210652Y-70164057D01*
X99152979Y-70250372D01*
X99113252Y-70346280D01*
X99093000Y-70448095D01*
X99093000Y-70551905D01*
X99113252Y-70653720D01*
X99152979Y-70749628D01*
X99210652Y-70835943D01*
X99284057Y-70909348D01*
X99370372Y-70967021D01*
X99466280Y-71006748D01*
X99568095Y-71027000D01*
X99671905Y-71027000D01*
X99773720Y-71006748D01*
X99869628Y-70967021D01*
X99955943Y-70909348D01*
X100029348Y-70835943D01*
X100087021Y-70749628D01*
X100126748Y-70653720D01*
X100147000Y-70551905D01*
X100147000Y-70448095D01*
X100126748Y-70346280D01*
X100087021Y-70250372D01*
X100029348Y-70164057D01*
X100022000Y-70156709D01*
X100022000Y-66697462D01*
X100177519Y-66633044D01*
X100370294Y-66504236D01*
X100534236Y-66340294D01*
X100663044Y-66147519D01*
X100751769Y-65933318D01*
X100797000Y-65705924D01*
X100797000Y-65474076D01*
X100983000Y-65474076D01*
X100983000Y-65705924D01*
X101028231Y-65933318D01*
X101116956Y-66147519D01*
X101245764Y-66340294D01*
X101409706Y-66504236D01*
X101602481Y-66633044D01*
X101816682Y-66721769D01*
X102044076Y-66767000D01*
X102275924Y-66767000D01*
X102503318Y-66721769D01*
X102717519Y-66633044D01*
X102910294Y-66504236D01*
X103074236Y-66340294D01*
X103203044Y-66147519D01*
X103291769Y-65933318D01*
X103337000Y-65705924D01*
X103337000Y-65474076D01*
X103523000Y-65474076D01*
X103523000Y-65705924D01*
X103568231Y-65933318D01*
X103656956Y-66147519D01*
X103785764Y-66340294D01*
X103949706Y-66504236D01*
X104142481Y-66633044D01*
X104356682Y-66721769D01*
X104584076Y-66767000D01*
X104815924Y-66767000D01*
X105043318Y-66721769D01*
X105257519Y-66633044D01*
X105450294Y-66504236D01*
X105614236Y-66340294D01*
X105743044Y-66147519D01*
X105831769Y-65933318D01*
X105877000Y-65705924D01*
X105877000Y-65474076D01*
X106063000Y-65474076D01*
X106063000Y-65705924D01*
X106108231Y-65933318D01*
X106196956Y-66147519D01*
X106325764Y-66340294D01*
X106489706Y-66504236D01*
X106682481Y-66633044D01*
X106896682Y-66721769D01*
X107124076Y-66767000D01*
X107355924Y-66767000D01*
X107583318Y-66721769D01*
X107797519Y-66633044D01*
X107990294Y-66504236D01*
X108154236Y-66340294D01*
X108283044Y-66147519D01*
X108371769Y-65933318D01*
X108417000Y-65705924D01*
X108417000Y-65474076D01*
X108603000Y-65474076D01*
X108603000Y-65705924D01*
X108648231Y-65933318D01*
X108736956Y-66147519D01*
X108865764Y-66340294D01*
X109029706Y-66504236D01*
X109222481Y-66633044D01*
X109436682Y-66721769D01*
X109664076Y-66767000D01*
X109895924Y-66767000D01*
X110123318Y-66721769D01*
X110337519Y-66633044D01*
X110530294Y-66504236D01*
X110694236Y-66340294D01*
X110823044Y-66147519D01*
X110911769Y-65933318D01*
X110957000Y-65705924D01*
X110957000Y-65474076D01*
X111143000Y-65474076D01*
X111143000Y-65705924D01*
X111188231Y-65933318D01*
X111276956Y-66147519D01*
X111405764Y-66340294D01*
X111569706Y-66504236D01*
X111762481Y-66633044D01*
X111976682Y-66721769D01*
X112204076Y-66767000D01*
X112435924Y-66767000D01*
X112663318Y-66721769D01*
X112877519Y-66633044D01*
X113070294Y-66504236D01*
X113234236Y-66340294D01*
X113363044Y-66147519D01*
X113451769Y-65933318D01*
X113497000Y-65705924D01*
X113497000Y-65474076D01*
X113683000Y-65474076D01*
X113683000Y-65705924D01*
X113728231Y-65933318D01*
X113816956Y-66147519D01*
X113945764Y-66340294D01*
X114109706Y-66504236D01*
X114302481Y-66633044D01*
X114516682Y-66721769D01*
X114744076Y-66767000D01*
X114975924Y-66767000D01*
X115203318Y-66721769D01*
X115417519Y-66633044D01*
X115610294Y-66504236D01*
X115774236Y-66340294D01*
X115903044Y-66147519D01*
X115991769Y-65933318D01*
X116037000Y-65705924D01*
X116037000Y-65474076D01*
X118763000Y-65474076D01*
X118763000Y-65705924D01*
X118808231Y-65933318D01*
X118896956Y-66147519D01*
X119025764Y-66340294D01*
X119189706Y-66504236D01*
X119382481Y-66633044D01*
X119596682Y-66721769D01*
X119824076Y-66767000D01*
X120055924Y-66767000D01*
X120283318Y-66721769D01*
X120438837Y-66657351D01*
X120491778Y-66710292D01*
X120504367Y-66725631D01*
X120553170Y-66765683D01*
X121772000Y-67984514D01*
X121772001Y-69429485D01*
X121625987Y-69575500D01*
X121615595Y-69575500D01*
X121513780Y-69595752D01*
X121417872Y-69635479D01*
X121331557Y-69693152D01*
X121258152Y-69766557D01*
X121200479Y-69852872D01*
X121160752Y-69948780D01*
X121140500Y-70050595D01*
X121140500Y-70154405D01*
X121160752Y-70256220D01*
X121200479Y-70352128D01*
X121258152Y-70438443D01*
X121331557Y-70511848D01*
X121417872Y-70569521D01*
X121513780Y-70609248D01*
X121615595Y-70629500D01*
X121719405Y-70629500D01*
X121821220Y-70609248D01*
X121917128Y-70569521D01*
X122003443Y-70511848D01*
X122076848Y-70438443D01*
X122134521Y-70352128D01*
X122174248Y-70256220D01*
X122194500Y-70154405D01*
X122194500Y-70144013D01*
X122444295Y-69894219D01*
X122459632Y-69881632D01*
X122509868Y-69820420D01*
X122547197Y-69750583D01*
X122570183Y-69674806D01*
X122576000Y-69615747D01*
X122576000Y-69615740D01*
X122577944Y-69596001D01*
X122576000Y-69576261D01*
X122576000Y-67837739D01*
X122577944Y-67818000D01*
X122576000Y-67798260D01*
X122576000Y-67798253D01*
X122570183Y-67739194D01*
X122565308Y-67723123D01*
X122547197Y-67663416D01*
X122509868Y-67593580D01*
X122472220Y-67547706D01*
X122472218Y-67547704D01*
X122459632Y-67532368D01*
X122444297Y-67519783D01*
X121094222Y-66169709D01*
X121081631Y-66154367D01*
X121032833Y-66114319D01*
X121007351Y-66088837D01*
X121071769Y-65933318D01*
X121117000Y-65705924D01*
X121117000Y-65474076D01*
X121303000Y-65474076D01*
X121303000Y-65705924D01*
X121348231Y-65933318D01*
X121436956Y-66147519D01*
X121565764Y-66340294D01*
X121729706Y-66504236D01*
X121922481Y-66633044D01*
X122136682Y-66721769D01*
X122364076Y-66767000D01*
X122595924Y-66767000D01*
X122823318Y-66721769D01*
X123037519Y-66633044D01*
X123230294Y-66504236D01*
X123394236Y-66340294D01*
X123523044Y-66147519D01*
X123611769Y-65933318D01*
X123657000Y-65705924D01*
X123657000Y-65474076D01*
X123611769Y-65246682D01*
X123523044Y-65032481D01*
X123394236Y-64839706D01*
X123230294Y-64675764D01*
X123037519Y-64546956D01*
X122823318Y-64458231D01*
X122595924Y-64413000D01*
X122364076Y-64413000D01*
X122136682Y-64458231D01*
X121922481Y-64546956D01*
X121729706Y-64675764D01*
X121565764Y-64839706D01*
X121436956Y-65032481D01*
X121348231Y-65246682D01*
X121303000Y-65474076D01*
X121117000Y-65474076D01*
X121071769Y-65246682D01*
X120983044Y-65032481D01*
X120854236Y-64839706D01*
X120690294Y-64675764D01*
X120497519Y-64546956D01*
X120283318Y-64458231D01*
X120055924Y-64413000D01*
X119824076Y-64413000D01*
X119596682Y-64458231D01*
X119382481Y-64546956D01*
X119189706Y-64675764D01*
X119025764Y-64839706D01*
X118896956Y-65032481D01*
X118808231Y-65246682D01*
X118763000Y-65474076D01*
X116037000Y-65474076D01*
X115991769Y-65246682D01*
X115903044Y-65032481D01*
X115774236Y-64839706D01*
X115610294Y-64675764D01*
X115417519Y-64546956D01*
X115203318Y-64458231D01*
X114975924Y-64413000D01*
X114744076Y-64413000D01*
X114516682Y-64458231D01*
X114302481Y-64546956D01*
X114109706Y-64675764D01*
X113945764Y-64839706D01*
X113816956Y-65032481D01*
X113728231Y-65246682D01*
X113683000Y-65474076D01*
X113497000Y-65474076D01*
X113451769Y-65246682D01*
X113363044Y-65032481D01*
X113234236Y-64839706D01*
X113070294Y-64675764D01*
X112877519Y-64546956D01*
X112663318Y-64458231D01*
X112435924Y-64413000D01*
X112204076Y-64413000D01*
X111976682Y-64458231D01*
X111762481Y-64546956D01*
X111569706Y-64675764D01*
X111405764Y-64839706D01*
X111276956Y-65032481D01*
X111188231Y-65246682D01*
X111143000Y-65474076D01*
X110957000Y-65474076D01*
X110911769Y-65246682D01*
X110823044Y-65032481D01*
X110694236Y-64839706D01*
X110530294Y-64675764D01*
X110337519Y-64546956D01*
X110123318Y-64458231D01*
X109895924Y-64413000D01*
X109664076Y-64413000D01*
X109436682Y-64458231D01*
X109222481Y-64546956D01*
X109029706Y-64675764D01*
X108865764Y-64839706D01*
X108736956Y-65032481D01*
X108648231Y-65246682D01*
X108603000Y-65474076D01*
X108417000Y-65474076D01*
X108371769Y-65246682D01*
X108283044Y-65032481D01*
X108154236Y-64839706D01*
X107990294Y-64675764D01*
X107797519Y-64546956D01*
X107583318Y-64458231D01*
X107355924Y-64413000D01*
X107124076Y-64413000D01*
X106896682Y-64458231D01*
X106682481Y-64546956D01*
X106489706Y-64675764D01*
X106325764Y-64839706D01*
X106196956Y-65032481D01*
X106108231Y-65246682D01*
X106063000Y-65474076D01*
X105877000Y-65474076D01*
X105831769Y-65246682D01*
X105743044Y-65032481D01*
X105614236Y-64839706D01*
X105450294Y-64675764D01*
X105257519Y-64546956D01*
X105043318Y-64458231D01*
X104815924Y-64413000D01*
X104584076Y-64413000D01*
X104356682Y-64458231D01*
X104142481Y-64546956D01*
X103949706Y-64675764D01*
X103785764Y-64839706D01*
X103656956Y-65032481D01*
X103568231Y-65246682D01*
X103523000Y-65474076D01*
X103337000Y-65474076D01*
X103291769Y-65246682D01*
X103203044Y-65032481D01*
X103074236Y-64839706D01*
X102910294Y-64675764D01*
X102717519Y-64546956D01*
X102503318Y-64458231D01*
X102275924Y-64413000D01*
X102044076Y-64413000D01*
X101816682Y-64458231D01*
X101602481Y-64546956D01*
X101409706Y-64675764D01*
X101245764Y-64839706D01*
X101116956Y-65032481D01*
X101028231Y-65246682D01*
X100983000Y-65474076D01*
X100797000Y-65474076D01*
X100751769Y-65246682D01*
X100663044Y-65032481D01*
X100534236Y-64839706D01*
X100370294Y-64675764D01*
X100177519Y-64546956D01*
X99963318Y-64458231D01*
X99735924Y-64413000D01*
X99504076Y-64413000D01*
X99276682Y-64458231D01*
X99062481Y-64546956D01*
X98869706Y-64675764D01*
X98705764Y-64839706D01*
X98576956Y-65032481D01*
X98488231Y-65246682D01*
X98443000Y-65474076D01*
X95717000Y-65474076D01*
X95671769Y-65246682D01*
X95583044Y-65032481D01*
X95454236Y-64839706D01*
X95290294Y-64675764D01*
X95097519Y-64546956D01*
X94883318Y-64458231D01*
X94655924Y-64413000D01*
X94424076Y-64413000D01*
X94196682Y-64458231D01*
X93982481Y-64546956D01*
X93789706Y-64675764D01*
X93625764Y-64839706D01*
X93496956Y-65032481D01*
X93408231Y-65246682D01*
X93363000Y-65474076D01*
X93177000Y-65474076D01*
X93131769Y-65246682D01*
X93043044Y-65032481D01*
X92914236Y-64839706D01*
X92750294Y-64675764D01*
X92557519Y-64546956D01*
X92343318Y-64458231D01*
X92115924Y-64413000D01*
X91884076Y-64413000D01*
X91656682Y-64458231D01*
X91442481Y-64546956D01*
X91249706Y-64675764D01*
X91085764Y-64839706D01*
X90956956Y-65032481D01*
X90868231Y-65246682D01*
X90823000Y-65474076D01*
X90637000Y-65474076D01*
X90591769Y-65246682D01*
X90503044Y-65032481D01*
X90374236Y-64839706D01*
X90311530Y-64777000D01*
X90900000Y-64777000D01*
X90924776Y-64774560D01*
X90948601Y-64767333D01*
X90970557Y-64755597D01*
X90989803Y-64739803D01*
X91005597Y-64720557D01*
X91017333Y-64698601D01*
X91024560Y-64674776D01*
X91027000Y-64650000D01*
X91027000Y-62934076D01*
X93363000Y-62934076D01*
X93363000Y-63165924D01*
X93408231Y-63393318D01*
X93496956Y-63607519D01*
X93625764Y-63800294D01*
X93789706Y-63964236D01*
X93982481Y-64093044D01*
X94196682Y-64181769D01*
X94424076Y-64227000D01*
X94655924Y-64227000D01*
X94883318Y-64181769D01*
X95097519Y-64093044D01*
X95290294Y-63964236D01*
X95454236Y-63800294D01*
X95583044Y-63607519D01*
X95671769Y-63393318D01*
X95717000Y-63165924D01*
X95717000Y-62934076D01*
X95903000Y-62934076D01*
X95903000Y-63165924D01*
X95948231Y-63393318D01*
X96036956Y-63607519D01*
X96165764Y-63800294D01*
X96329706Y-63964236D01*
X96522481Y-64093044D01*
X96736682Y-64181769D01*
X96964076Y-64227000D01*
X97195924Y-64227000D01*
X97423318Y-64181769D01*
X97637519Y-64093044D01*
X97830294Y-63964236D01*
X97994236Y-63800294D01*
X98123044Y-63607519D01*
X98211769Y-63393318D01*
X98257000Y-63165924D01*
X98257000Y-62934076D01*
X98443000Y-62934076D01*
X98443000Y-63165924D01*
X98488231Y-63393318D01*
X98576956Y-63607519D01*
X98705764Y-63800294D01*
X98869706Y-63964236D01*
X99062481Y-64093044D01*
X99276682Y-64181769D01*
X99504076Y-64227000D01*
X99735924Y-64227000D01*
X99963318Y-64181769D01*
X100177519Y-64093044D01*
X100370294Y-63964236D01*
X100534236Y-63800294D01*
X100663044Y-63607519D01*
X100751769Y-63393318D01*
X100797000Y-63165924D01*
X100797000Y-62934076D01*
X103523000Y-62934076D01*
X103523000Y-63165924D01*
X103568231Y-63393318D01*
X103656956Y-63607519D01*
X103785764Y-63800294D01*
X103949706Y-63964236D01*
X104142481Y-64093044D01*
X104356682Y-64181769D01*
X104584076Y-64227000D01*
X104815924Y-64227000D01*
X105043318Y-64181769D01*
X105257519Y-64093044D01*
X105450294Y-63964236D01*
X105614236Y-63800294D01*
X105743044Y-63607519D01*
X105831769Y-63393318D01*
X105877000Y-63165924D01*
X105877000Y-62934076D01*
X106063000Y-62934076D01*
X106063000Y-63165924D01*
X106108231Y-63393318D01*
X106196956Y-63607519D01*
X106325764Y-63800294D01*
X106489706Y-63964236D01*
X106682481Y-64093044D01*
X106896682Y-64181769D01*
X107124076Y-64227000D01*
X107355924Y-64227000D01*
X107583318Y-64181769D01*
X107797519Y-64093044D01*
X107990294Y-63964236D01*
X108154236Y-63800294D01*
X108283044Y-63607519D01*
X108371769Y-63393318D01*
X108417000Y-63165924D01*
X108417000Y-62934076D01*
X111143000Y-62934076D01*
X111143000Y-63165924D01*
X111188231Y-63393318D01*
X111276956Y-63607519D01*
X111405764Y-63800294D01*
X111569706Y-63964236D01*
X111762481Y-64093044D01*
X111976682Y-64181769D01*
X112204076Y-64227000D01*
X112435924Y-64227000D01*
X112663318Y-64181769D01*
X112877519Y-64093044D01*
X113070294Y-63964236D01*
X113234236Y-63800294D01*
X113363044Y-63607519D01*
X113451769Y-63393318D01*
X113497000Y-63165924D01*
X113497000Y-62934076D01*
X113683000Y-62934076D01*
X113683000Y-63165924D01*
X113728231Y-63393318D01*
X113816956Y-63607519D01*
X113945764Y-63800294D01*
X114109706Y-63964236D01*
X114302481Y-64093044D01*
X114516682Y-64181769D01*
X114744076Y-64227000D01*
X114975924Y-64227000D01*
X115203318Y-64181769D01*
X115417519Y-64093044D01*
X115610294Y-63964236D01*
X115774236Y-63800294D01*
X115903044Y-63607519D01*
X115991769Y-63393318D01*
X116037000Y-63165924D01*
X116037000Y-62934076D01*
X116223000Y-62934076D01*
X116223000Y-63165924D01*
X116268231Y-63393318D01*
X116356956Y-63607519D01*
X116485764Y-63800294D01*
X116649706Y-63964236D01*
X116842481Y-64093044D01*
X117056682Y-64181769D01*
X117284076Y-64227000D01*
X117515924Y-64227000D01*
X117743318Y-64181769D01*
X117957519Y-64093044D01*
X118150294Y-63964236D01*
X118314236Y-63800294D01*
X118443044Y-63607519D01*
X118531769Y-63393318D01*
X118577000Y-63165924D01*
X118577000Y-62934076D01*
X118763000Y-62934076D01*
X118763000Y-63165924D01*
X118808231Y-63393318D01*
X118896956Y-63607519D01*
X119025764Y-63800294D01*
X119189706Y-63964236D01*
X119382481Y-64093044D01*
X119596682Y-64181769D01*
X119824076Y-64227000D01*
X120055924Y-64227000D01*
X120283318Y-64181769D01*
X120497519Y-64093044D01*
X120690294Y-63964236D01*
X120854236Y-63800294D01*
X120983044Y-63607519D01*
X121071769Y-63393318D01*
X121117000Y-63165924D01*
X121117000Y-62934076D01*
X123843000Y-62934076D01*
X123843000Y-63165924D01*
X123888231Y-63393318D01*
X123976956Y-63607519D01*
X124105764Y-63800294D01*
X124269706Y-63964236D01*
X124462481Y-64093044D01*
X124676682Y-64181769D01*
X124904076Y-64227000D01*
X125135924Y-64227000D01*
X125363318Y-64181769D01*
X125518838Y-64117351D01*
X125963000Y-64561513D01*
X125963000Y-64882755D01*
X125934236Y-64839706D01*
X125770294Y-64675764D01*
X125577519Y-64546956D01*
X125363318Y-64458231D01*
X125135924Y-64413000D01*
X124904076Y-64413000D01*
X124676682Y-64458231D01*
X124462481Y-64546956D01*
X124269706Y-64675764D01*
X124105764Y-64839706D01*
X123976956Y-65032481D01*
X123888231Y-65246682D01*
X123843000Y-65474076D01*
X123843000Y-65705924D01*
X123888231Y-65933318D01*
X123976956Y-66147519D01*
X124105764Y-66340294D01*
X124269706Y-66504236D01*
X124462481Y-66633044D01*
X124676682Y-66721769D01*
X124904076Y-66767000D01*
X125135924Y-66767000D01*
X125363318Y-66721769D01*
X125577519Y-66633044D01*
X125770294Y-66504236D01*
X125934236Y-66340294D01*
X125963000Y-66297245D01*
X125963001Y-73132251D01*
X125961056Y-73152000D01*
X125968817Y-73230805D01*
X125991804Y-73306583D01*
X126029133Y-73376420D01*
X126079369Y-73437632D01*
X126094705Y-73450218D01*
X126981000Y-74336514D01*
X126981000Y-74346905D01*
X127001252Y-74448720D01*
X127040979Y-74544628D01*
X127098652Y-74630943D01*
X127172057Y-74704348D01*
X127258372Y-74762021D01*
X127354280Y-74801748D01*
X127456095Y-74822000D01*
X127559905Y-74822000D01*
X127661720Y-74801748D01*
X127757628Y-74762021D01*
X127843943Y-74704348D01*
X127917348Y-74630943D01*
X127975021Y-74544628D01*
X128014748Y-74448720D01*
X128035000Y-74346905D01*
X128035000Y-74243095D01*
X128014748Y-74141280D01*
X127975021Y-74045372D01*
X127917348Y-73959057D01*
X127843943Y-73885652D01*
X127757628Y-73827979D01*
X127661720Y-73788252D01*
X127559905Y-73768000D01*
X127549514Y-73768000D01*
X126767000Y-72985487D01*
X126767000Y-66461530D01*
X126809706Y-66504236D01*
X127002481Y-66633044D01*
X127216682Y-66721769D01*
X127444076Y-66767000D01*
X127675924Y-66767000D01*
X127903318Y-66721769D01*
X128117519Y-66633044D01*
X128310294Y-66504236D01*
X128474236Y-66340294D01*
X128603044Y-66147519D01*
X128691769Y-65933318D01*
X128737000Y-65705924D01*
X128737000Y-65474076D01*
X128923000Y-65474076D01*
X128923000Y-65705924D01*
X128968231Y-65933318D01*
X129056956Y-66147519D01*
X129185764Y-66340294D01*
X129349706Y-66504236D01*
X129542481Y-66633044D01*
X129756682Y-66721769D01*
X129984076Y-66767000D01*
X130215924Y-66767000D01*
X130443318Y-66721769D01*
X130657519Y-66633044D01*
X130850294Y-66504236D01*
X131014236Y-66340294D01*
X131143044Y-66147519D01*
X131231769Y-65933318D01*
X131277000Y-65705924D01*
X131277000Y-65474076D01*
X131463000Y-65474076D01*
X131463000Y-65705924D01*
X131508231Y-65933318D01*
X131596956Y-66147519D01*
X131725764Y-66340294D01*
X131889706Y-66504236D01*
X132082481Y-66633044D01*
X132296682Y-66721769D01*
X132524076Y-66767000D01*
X132755924Y-66767000D01*
X132983318Y-66721769D01*
X133197519Y-66633044D01*
X133390294Y-66504236D01*
X133554236Y-66340294D01*
X133683044Y-66147519D01*
X133771769Y-65933318D01*
X133817000Y-65705924D01*
X133817000Y-65474076D01*
X133771769Y-65246682D01*
X133683044Y-65032481D01*
X133554236Y-64839706D01*
X133390294Y-64675764D01*
X133197519Y-64546956D01*
X132983318Y-64458231D01*
X132755924Y-64413000D01*
X132524076Y-64413000D01*
X132296682Y-64458231D01*
X132082481Y-64546956D01*
X131889706Y-64675764D01*
X131725764Y-64839706D01*
X131596956Y-65032481D01*
X131508231Y-65246682D01*
X131463000Y-65474076D01*
X131277000Y-65474076D01*
X131231769Y-65246682D01*
X131143044Y-65032481D01*
X131014236Y-64839706D01*
X130850294Y-64675764D01*
X130657519Y-64546956D01*
X130443318Y-64458231D01*
X130215924Y-64413000D01*
X129984076Y-64413000D01*
X129756682Y-64458231D01*
X129542481Y-64546956D01*
X129349706Y-64675764D01*
X129185764Y-64839706D01*
X129056956Y-65032481D01*
X128968231Y-65246682D01*
X128923000Y-65474076D01*
X128737000Y-65474076D01*
X128691769Y-65246682D01*
X128603044Y-65032481D01*
X128474236Y-64839706D01*
X128310294Y-64675764D01*
X128117519Y-64546956D01*
X127903318Y-64458231D01*
X127675924Y-64413000D01*
X127444076Y-64413000D01*
X127216682Y-64458231D01*
X127002481Y-64546956D01*
X126809706Y-64675764D01*
X126767000Y-64718470D01*
X126767000Y-64414739D01*
X126768944Y-64394999D01*
X126767000Y-64375260D01*
X126767000Y-64375253D01*
X126761183Y-64316194D01*
X126738197Y-64240417D01*
X126700868Y-64170580D01*
X126650632Y-64109368D01*
X126635291Y-64096778D01*
X126087351Y-63548838D01*
X126151769Y-63393318D01*
X126197000Y-63165924D01*
X126197000Y-62934076D01*
X128923000Y-62934076D01*
X128923000Y-63165924D01*
X128968231Y-63393318D01*
X129056956Y-63607519D01*
X129185764Y-63800294D01*
X129349706Y-63964236D01*
X129542481Y-64093044D01*
X129756682Y-64181769D01*
X129984076Y-64227000D01*
X130215924Y-64227000D01*
X130443318Y-64181769D01*
X130657519Y-64093044D01*
X130850294Y-63964236D01*
X131014236Y-63800294D01*
X131143044Y-63607519D01*
X131231769Y-63393318D01*
X131277000Y-63165924D01*
X131277000Y-62934076D01*
X131463000Y-62934076D01*
X131463000Y-63165924D01*
X131508231Y-63393318D01*
X131596956Y-63607519D01*
X131725764Y-63800294D01*
X131889706Y-63964236D01*
X132082481Y-64093044D01*
X132296682Y-64181769D01*
X132524076Y-64227000D01*
X132755924Y-64227000D01*
X132983318Y-64181769D01*
X133197519Y-64093044D01*
X133390294Y-63964236D01*
X133554236Y-63800294D01*
X133683044Y-63607519D01*
X133771769Y-63393318D01*
X133817000Y-63165924D01*
X133817000Y-62934076D01*
X134003000Y-62934076D01*
X134003000Y-63165924D01*
X134048231Y-63393318D01*
X134136956Y-63607519D01*
X134265764Y-63800294D01*
X134429706Y-63964236D01*
X134622481Y-64093044D01*
X134836682Y-64181769D01*
X135064076Y-64227000D01*
X135295924Y-64227000D01*
X135523318Y-64181769D01*
X135737519Y-64093044D01*
X135930294Y-63964236D01*
X136094236Y-63800294D01*
X136223044Y-63607519D01*
X136311769Y-63393318D01*
X136357000Y-63165924D01*
X136357000Y-62934076D01*
X136311769Y-62706682D01*
X136223044Y-62492481D01*
X136094236Y-62299706D01*
X135930294Y-62135764D01*
X135737519Y-62006956D01*
X135523318Y-61918231D01*
X135295924Y-61873000D01*
X135064076Y-61873000D01*
X134836682Y-61918231D01*
X134622481Y-62006956D01*
X134429706Y-62135764D01*
X134265764Y-62299706D01*
X134136956Y-62492481D01*
X134048231Y-62706682D01*
X134003000Y-62934076D01*
X133817000Y-62934076D01*
X133771769Y-62706682D01*
X133683044Y-62492481D01*
X133554236Y-62299706D01*
X133390294Y-62135764D01*
X133197519Y-62006956D01*
X132983318Y-61918231D01*
X132755924Y-61873000D01*
X132524076Y-61873000D01*
X132296682Y-61918231D01*
X132082481Y-62006956D01*
X131889706Y-62135764D01*
X131725764Y-62299706D01*
X131596956Y-62492481D01*
X131508231Y-62706682D01*
X131463000Y-62934076D01*
X131277000Y-62934076D01*
X131231769Y-62706682D01*
X131143044Y-62492481D01*
X131014236Y-62299706D01*
X130850294Y-62135764D01*
X130657519Y-62006956D01*
X130443318Y-61918231D01*
X130215924Y-61873000D01*
X129984076Y-61873000D01*
X129756682Y-61918231D01*
X129542481Y-62006956D01*
X129349706Y-62135764D01*
X129185764Y-62299706D01*
X129056956Y-62492481D01*
X128968231Y-62706682D01*
X128923000Y-62934076D01*
X126197000Y-62934076D01*
X126151769Y-62706682D01*
X126063044Y-62492481D01*
X125934236Y-62299706D01*
X125770294Y-62135764D01*
X125577519Y-62006956D01*
X125363318Y-61918231D01*
X125135924Y-61873000D01*
X124904076Y-61873000D01*
X124676682Y-61918231D01*
X124462481Y-62006956D01*
X124269706Y-62135764D01*
X124105764Y-62299706D01*
X123976956Y-62492481D01*
X123888231Y-62706682D01*
X123843000Y-62934076D01*
X121117000Y-62934076D01*
X121071769Y-62706682D01*
X120983044Y-62492481D01*
X120854236Y-62299706D01*
X120690294Y-62135764D01*
X120497519Y-62006956D01*
X120283318Y-61918231D01*
X120055924Y-61873000D01*
X119824076Y-61873000D01*
X119596682Y-61918231D01*
X119382481Y-62006956D01*
X119189706Y-62135764D01*
X119025764Y-62299706D01*
X118896956Y-62492481D01*
X118808231Y-62706682D01*
X118763000Y-62934076D01*
X118577000Y-62934076D01*
X118531769Y-62706682D01*
X118443044Y-62492481D01*
X118314236Y-62299706D01*
X118150294Y-62135764D01*
X117957519Y-62006956D01*
X117743318Y-61918231D01*
X117515924Y-61873000D01*
X117284076Y-61873000D01*
X117056682Y-61918231D01*
X116842481Y-62006956D01*
X116649706Y-62135764D01*
X116485764Y-62299706D01*
X116356956Y-62492481D01*
X116268231Y-62706682D01*
X116223000Y-62934076D01*
X116037000Y-62934076D01*
X115991769Y-62706682D01*
X115903044Y-62492481D01*
X115774236Y-62299706D01*
X115610294Y-62135764D01*
X115417519Y-62006956D01*
X115203318Y-61918231D01*
X114975924Y-61873000D01*
X114744076Y-61873000D01*
X114516682Y-61918231D01*
X114302481Y-62006956D01*
X114109706Y-62135764D01*
X113945764Y-62299706D01*
X113816956Y-62492481D01*
X113728231Y-62706682D01*
X113683000Y-62934076D01*
X113497000Y-62934076D01*
X113451769Y-62706682D01*
X113363044Y-62492481D01*
X113234236Y-62299706D01*
X113070294Y-62135764D01*
X112877519Y-62006956D01*
X112663318Y-61918231D01*
X112435924Y-61873000D01*
X112204076Y-61873000D01*
X111976682Y-61918231D01*
X111762481Y-62006956D01*
X111569706Y-62135764D01*
X111405764Y-62299706D01*
X111276956Y-62492481D01*
X111188231Y-62706682D01*
X111143000Y-62934076D01*
X108417000Y-62934076D01*
X108371769Y-62706682D01*
X108283044Y-62492481D01*
X108154236Y-62299706D01*
X107990294Y-62135764D01*
X107797519Y-62006956D01*
X107583318Y-61918231D01*
X107355924Y-61873000D01*
X107124076Y-61873000D01*
X106896682Y-61918231D01*
X106682481Y-62006956D01*
X106489706Y-62135764D01*
X106325764Y-62299706D01*
X106196956Y-62492481D01*
X106108231Y-62706682D01*
X106063000Y-62934076D01*
X105877000Y-62934076D01*
X105831769Y-62706682D01*
X105743044Y-62492481D01*
X105614236Y-62299706D01*
X105450294Y-62135764D01*
X105257519Y-62006956D01*
X105043318Y-61918231D01*
X104815924Y-61873000D01*
X104584076Y-61873000D01*
X104356682Y-61918231D01*
X104142481Y-62006956D01*
X103949706Y-62135764D01*
X103785764Y-62299706D01*
X103656956Y-62492481D01*
X103568231Y-62706682D01*
X103523000Y-62934076D01*
X100797000Y-62934076D01*
X100751769Y-62706682D01*
X100663044Y-62492481D01*
X100534236Y-62299706D01*
X100370294Y-62135764D01*
X100177519Y-62006956D01*
X99963318Y-61918231D01*
X99735924Y-61873000D01*
X99504076Y-61873000D01*
X99276682Y-61918231D01*
X99062481Y-62006956D01*
X98869706Y-62135764D01*
X98705764Y-62299706D01*
X98576956Y-62492481D01*
X98488231Y-62706682D01*
X98443000Y-62934076D01*
X98257000Y-62934076D01*
X98211769Y-62706682D01*
X98123044Y-62492481D01*
X97994236Y-62299706D01*
X97830294Y-62135764D01*
X97637519Y-62006956D01*
X97423318Y-61918231D01*
X97195924Y-61873000D01*
X96964076Y-61873000D01*
X96736682Y-61918231D01*
X96522481Y-62006956D01*
X96329706Y-62135764D01*
X96165764Y-62299706D01*
X96036956Y-62492481D01*
X95948231Y-62706682D01*
X95903000Y-62934076D01*
X95717000Y-62934076D01*
X95671769Y-62706682D01*
X95583044Y-62492481D01*
X95454236Y-62299706D01*
X95290294Y-62135764D01*
X95097519Y-62006956D01*
X94883318Y-61918231D01*
X94655924Y-61873000D01*
X94424076Y-61873000D01*
X94196682Y-61918231D01*
X93982481Y-62006956D01*
X93789706Y-62135764D01*
X93625764Y-62299706D01*
X93496956Y-62492481D01*
X93408231Y-62706682D01*
X93363000Y-62934076D01*
X91027000Y-62934076D01*
X91027000Y-61194611D01*
X139261609Y-61194611D01*
X139098719Y-61227012D01*
G04 #@! TD*
M02*
