G04 #@! TF.GenerationSoftware,KiCad,Pcbnew,(5.1.5)-3*
G04 #@! TF.CreationDate,2020-03-07T12:15:18-05:00*
G04 #@! TF.ProjectId,Zynth-encoder_power_display_fan,5a796e74-682d-4656-9e63-6f6465725f70,rev?*
G04 #@! TF.SameCoordinates,Original*
G04 #@! TF.FileFunction,Paste,Top*
G04 #@! TF.FilePolarity,Positive*
%FSLAX46Y46*%
G04 Gerber Fmt 4.6, Leading zero omitted, Abs format (unit mm)*
G04 Created by KiCad (PCBNEW (5.1.5)-3) date 2020-03-07 12:15:18*
%MOMM*%
%LPD*%
G04 APERTURE LIST*
%ADD10C,0.150000*%
%ADD11R,2.750000X3.050000*%
%ADD12R,1.200000X2.200000*%
%ADD13R,0.600000X1.550000*%
%ADD14R,0.800000X0.900000*%
%ADD15R,0.650000X1.060000*%
G04 APERTURE END LIST*
D10*
G04 #@! TO.C,R20*
G36*
X131214691Y-98877553D02*
G01*
X131235926Y-98880703D01*
X131256750Y-98885919D01*
X131276962Y-98893151D01*
X131296368Y-98902330D01*
X131314781Y-98913366D01*
X131332024Y-98926154D01*
X131347930Y-98940570D01*
X131362346Y-98956476D01*
X131375134Y-98973719D01*
X131386170Y-98992132D01*
X131395349Y-99011538D01*
X131402581Y-99031750D01*
X131407797Y-99052574D01*
X131410947Y-99073809D01*
X131412000Y-99095250D01*
X131412000Y-99532750D01*
X131410947Y-99554191D01*
X131407797Y-99575426D01*
X131402581Y-99596250D01*
X131395349Y-99616462D01*
X131386170Y-99635868D01*
X131375134Y-99654281D01*
X131362346Y-99671524D01*
X131347930Y-99687430D01*
X131332024Y-99701846D01*
X131314781Y-99714634D01*
X131296368Y-99725670D01*
X131276962Y-99734849D01*
X131256750Y-99742081D01*
X131235926Y-99747297D01*
X131214691Y-99750447D01*
X131193250Y-99751500D01*
X130680750Y-99751500D01*
X130659309Y-99750447D01*
X130638074Y-99747297D01*
X130617250Y-99742081D01*
X130597038Y-99734849D01*
X130577632Y-99725670D01*
X130559219Y-99714634D01*
X130541976Y-99701846D01*
X130526070Y-99687430D01*
X130511654Y-99671524D01*
X130498866Y-99654281D01*
X130487830Y-99635868D01*
X130478651Y-99616462D01*
X130471419Y-99596250D01*
X130466203Y-99575426D01*
X130463053Y-99554191D01*
X130462000Y-99532750D01*
X130462000Y-99095250D01*
X130463053Y-99073809D01*
X130466203Y-99052574D01*
X130471419Y-99031750D01*
X130478651Y-99011538D01*
X130487830Y-98992132D01*
X130498866Y-98973719D01*
X130511654Y-98956476D01*
X130526070Y-98940570D01*
X130541976Y-98926154D01*
X130559219Y-98913366D01*
X130577632Y-98902330D01*
X130597038Y-98893151D01*
X130617250Y-98885919D01*
X130638074Y-98880703D01*
X130659309Y-98877553D01*
X130680750Y-98876500D01*
X131193250Y-98876500D01*
X131214691Y-98877553D01*
G37*
G36*
X131214691Y-100452553D02*
G01*
X131235926Y-100455703D01*
X131256750Y-100460919D01*
X131276962Y-100468151D01*
X131296368Y-100477330D01*
X131314781Y-100488366D01*
X131332024Y-100501154D01*
X131347930Y-100515570D01*
X131362346Y-100531476D01*
X131375134Y-100548719D01*
X131386170Y-100567132D01*
X131395349Y-100586538D01*
X131402581Y-100606750D01*
X131407797Y-100627574D01*
X131410947Y-100648809D01*
X131412000Y-100670250D01*
X131412000Y-101107750D01*
X131410947Y-101129191D01*
X131407797Y-101150426D01*
X131402581Y-101171250D01*
X131395349Y-101191462D01*
X131386170Y-101210868D01*
X131375134Y-101229281D01*
X131362346Y-101246524D01*
X131347930Y-101262430D01*
X131332024Y-101276846D01*
X131314781Y-101289634D01*
X131296368Y-101300670D01*
X131276962Y-101309849D01*
X131256750Y-101317081D01*
X131235926Y-101322297D01*
X131214691Y-101325447D01*
X131193250Y-101326500D01*
X130680750Y-101326500D01*
X130659309Y-101325447D01*
X130638074Y-101322297D01*
X130617250Y-101317081D01*
X130597038Y-101309849D01*
X130577632Y-101300670D01*
X130559219Y-101289634D01*
X130541976Y-101276846D01*
X130526070Y-101262430D01*
X130511654Y-101246524D01*
X130498866Y-101229281D01*
X130487830Y-101210868D01*
X130478651Y-101191462D01*
X130471419Y-101171250D01*
X130466203Y-101150426D01*
X130463053Y-101129191D01*
X130462000Y-101107750D01*
X130462000Y-100670250D01*
X130463053Y-100648809D01*
X130466203Y-100627574D01*
X130471419Y-100606750D01*
X130478651Y-100586538D01*
X130487830Y-100567132D01*
X130498866Y-100548719D01*
X130511654Y-100531476D01*
X130526070Y-100515570D01*
X130541976Y-100501154D01*
X130559219Y-100488366D01*
X130577632Y-100477330D01*
X130597038Y-100468151D01*
X130617250Y-100460919D01*
X130638074Y-100455703D01*
X130659309Y-100452553D01*
X130680750Y-100451500D01*
X131193250Y-100451500D01*
X131214691Y-100452553D01*
G37*
G04 #@! TD*
G04 #@! TO.C,R16*
G36*
X113891142Y-78967174D02*
G01*
X113914803Y-78970684D01*
X113938007Y-78976496D01*
X113960529Y-78984554D01*
X113982153Y-78994782D01*
X114002670Y-79007079D01*
X114021883Y-79021329D01*
X114039607Y-79037393D01*
X114055671Y-79055117D01*
X114069921Y-79074330D01*
X114082218Y-79094847D01*
X114092446Y-79116471D01*
X114100504Y-79138993D01*
X114106316Y-79162197D01*
X114109826Y-79185858D01*
X114111000Y-79209750D01*
X114111000Y-79697250D01*
X114109826Y-79721142D01*
X114106316Y-79744803D01*
X114100504Y-79768007D01*
X114092446Y-79790529D01*
X114082218Y-79812153D01*
X114069921Y-79832670D01*
X114055671Y-79851883D01*
X114039607Y-79869607D01*
X114021883Y-79885671D01*
X114002670Y-79899921D01*
X113982153Y-79912218D01*
X113960529Y-79922446D01*
X113938007Y-79930504D01*
X113914803Y-79936316D01*
X113891142Y-79939826D01*
X113867250Y-79941000D01*
X112954750Y-79941000D01*
X112930858Y-79939826D01*
X112907197Y-79936316D01*
X112883993Y-79930504D01*
X112861471Y-79922446D01*
X112839847Y-79912218D01*
X112819330Y-79899921D01*
X112800117Y-79885671D01*
X112782393Y-79869607D01*
X112766329Y-79851883D01*
X112752079Y-79832670D01*
X112739782Y-79812153D01*
X112729554Y-79790529D01*
X112721496Y-79768007D01*
X112715684Y-79744803D01*
X112712174Y-79721142D01*
X112711000Y-79697250D01*
X112711000Y-79209750D01*
X112712174Y-79185858D01*
X112715684Y-79162197D01*
X112721496Y-79138993D01*
X112729554Y-79116471D01*
X112739782Y-79094847D01*
X112752079Y-79074330D01*
X112766329Y-79055117D01*
X112782393Y-79037393D01*
X112800117Y-79021329D01*
X112819330Y-79007079D01*
X112839847Y-78994782D01*
X112861471Y-78984554D01*
X112883993Y-78976496D01*
X112907197Y-78970684D01*
X112930858Y-78967174D01*
X112954750Y-78966000D01*
X113867250Y-78966000D01*
X113891142Y-78967174D01*
G37*
G36*
X113891142Y-80842174D02*
G01*
X113914803Y-80845684D01*
X113938007Y-80851496D01*
X113960529Y-80859554D01*
X113982153Y-80869782D01*
X114002670Y-80882079D01*
X114021883Y-80896329D01*
X114039607Y-80912393D01*
X114055671Y-80930117D01*
X114069921Y-80949330D01*
X114082218Y-80969847D01*
X114092446Y-80991471D01*
X114100504Y-81013993D01*
X114106316Y-81037197D01*
X114109826Y-81060858D01*
X114111000Y-81084750D01*
X114111000Y-81572250D01*
X114109826Y-81596142D01*
X114106316Y-81619803D01*
X114100504Y-81643007D01*
X114092446Y-81665529D01*
X114082218Y-81687153D01*
X114069921Y-81707670D01*
X114055671Y-81726883D01*
X114039607Y-81744607D01*
X114021883Y-81760671D01*
X114002670Y-81774921D01*
X113982153Y-81787218D01*
X113960529Y-81797446D01*
X113938007Y-81805504D01*
X113914803Y-81811316D01*
X113891142Y-81814826D01*
X113867250Y-81816000D01*
X112954750Y-81816000D01*
X112930858Y-81814826D01*
X112907197Y-81811316D01*
X112883993Y-81805504D01*
X112861471Y-81797446D01*
X112839847Y-81787218D01*
X112819330Y-81774921D01*
X112800117Y-81760671D01*
X112782393Y-81744607D01*
X112766329Y-81726883D01*
X112752079Y-81707670D01*
X112739782Y-81687153D01*
X112729554Y-81665529D01*
X112721496Y-81643007D01*
X112715684Y-81619803D01*
X112712174Y-81596142D01*
X112711000Y-81572250D01*
X112711000Y-81084750D01*
X112712174Y-81060858D01*
X112715684Y-81037197D01*
X112721496Y-81013993D01*
X112729554Y-80991471D01*
X112739782Y-80969847D01*
X112752079Y-80949330D01*
X112766329Y-80930117D01*
X112782393Y-80912393D01*
X112800117Y-80896329D01*
X112819330Y-80882079D01*
X112839847Y-80869782D01*
X112861471Y-80859554D01*
X112883993Y-80851496D01*
X112907197Y-80845684D01*
X112930858Y-80842174D01*
X112954750Y-80841000D01*
X113867250Y-80841000D01*
X113891142Y-80842174D01*
G37*
G04 #@! TD*
G04 #@! TO.C,R11*
G36*
X94511691Y-99969553D02*
G01*
X94532926Y-99972703D01*
X94553750Y-99977919D01*
X94573962Y-99985151D01*
X94593368Y-99994330D01*
X94611781Y-100005366D01*
X94629024Y-100018154D01*
X94644930Y-100032570D01*
X94659346Y-100048476D01*
X94672134Y-100065719D01*
X94683170Y-100084132D01*
X94692349Y-100103538D01*
X94699581Y-100123750D01*
X94704797Y-100144574D01*
X94707947Y-100165809D01*
X94709000Y-100187250D01*
X94709000Y-100624750D01*
X94707947Y-100646191D01*
X94704797Y-100667426D01*
X94699581Y-100688250D01*
X94692349Y-100708462D01*
X94683170Y-100727868D01*
X94672134Y-100746281D01*
X94659346Y-100763524D01*
X94644930Y-100779430D01*
X94629024Y-100793846D01*
X94611781Y-100806634D01*
X94593368Y-100817670D01*
X94573962Y-100826849D01*
X94553750Y-100834081D01*
X94532926Y-100839297D01*
X94511691Y-100842447D01*
X94490250Y-100843500D01*
X93977750Y-100843500D01*
X93956309Y-100842447D01*
X93935074Y-100839297D01*
X93914250Y-100834081D01*
X93894038Y-100826849D01*
X93874632Y-100817670D01*
X93856219Y-100806634D01*
X93838976Y-100793846D01*
X93823070Y-100779430D01*
X93808654Y-100763524D01*
X93795866Y-100746281D01*
X93784830Y-100727868D01*
X93775651Y-100708462D01*
X93768419Y-100688250D01*
X93763203Y-100667426D01*
X93760053Y-100646191D01*
X93759000Y-100624750D01*
X93759000Y-100187250D01*
X93760053Y-100165809D01*
X93763203Y-100144574D01*
X93768419Y-100123750D01*
X93775651Y-100103538D01*
X93784830Y-100084132D01*
X93795866Y-100065719D01*
X93808654Y-100048476D01*
X93823070Y-100032570D01*
X93838976Y-100018154D01*
X93856219Y-100005366D01*
X93874632Y-99994330D01*
X93894038Y-99985151D01*
X93914250Y-99977919D01*
X93935074Y-99972703D01*
X93956309Y-99969553D01*
X93977750Y-99968500D01*
X94490250Y-99968500D01*
X94511691Y-99969553D01*
G37*
G36*
X94511691Y-101544553D02*
G01*
X94532926Y-101547703D01*
X94553750Y-101552919D01*
X94573962Y-101560151D01*
X94593368Y-101569330D01*
X94611781Y-101580366D01*
X94629024Y-101593154D01*
X94644930Y-101607570D01*
X94659346Y-101623476D01*
X94672134Y-101640719D01*
X94683170Y-101659132D01*
X94692349Y-101678538D01*
X94699581Y-101698750D01*
X94704797Y-101719574D01*
X94707947Y-101740809D01*
X94709000Y-101762250D01*
X94709000Y-102199750D01*
X94707947Y-102221191D01*
X94704797Y-102242426D01*
X94699581Y-102263250D01*
X94692349Y-102283462D01*
X94683170Y-102302868D01*
X94672134Y-102321281D01*
X94659346Y-102338524D01*
X94644930Y-102354430D01*
X94629024Y-102368846D01*
X94611781Y-102381634D01*
X94593368Y-102392670D01*
X94573962Y-102401849D01*
X94553750Y-102409081D01*
X94532926Y-102414297D01*
X94511691Y-102417447D01*
X94490250Y-102418500D01*
X93977750Y-102418500D01*
X93956309Y-102417447D01*
X93935074Y-102414297D01*
X93914250Y-102409081D01*
X93894038Y-102401849D01*
X93874632Y-102392670D01*
X93856219Y-102381634D01*
X93838976Y-102368846D01*
X93823070Y-102354430D01*
X93808654Y-102338524D01*
X93795866Y-102321281D01*
X93784830Y-102302868D01*
X93775651Y-102283462D01*
X93768419Y-102263250D01*
X93763203Y-102242426D01*
X93760053Y-102221191D01*
X93759000Y-102199750D01*
X93759000Y-101762250D01*
X93760053Y-101740809D01*
X93763203Y-101719574D01*
X93768419Y-101698750D01*
X93775651Y-101678538D01*
X93784830Y-101659132D01*
X93795866Y-101640719D01*
X93808654Y-101623476D01*
X93823070Y-101607570D01*
X93838976Y-101593154D01*
X93856219Y-101580366D01*
X93874632Y-101569330D01*
X93894038Y-101560151D01*
X93914250Y-101552919D01*
X93935074Y-101547703D01*
X93956309Y-101544553D01*
X93977750Y-101543500D01*
X94490250Y-101543500D01*
X94511691Y-101544553D01*
G37*
G04 #@! TD*
G04 #@! TO.C,C2*
G36*
X107320005Y-90626204D02*
G01*
X107344273Y-90629804D01*
X107368072Y-90635765D01*
X107391171Y-90644030D01*
X107413350Y-90654520D01*
X107434393Y-90667132D01*
X107454099Y-90681747D01*
X107472277Y-90698223D01*
X107488753Y-90716401D01*
X107503368Y-90736107D01*
X107515980Y-90757150D01*
X107526470Y-90779329D01*
X107534735Y-90802428D01*
X107540696Y-90826227D01*
X107544296Y-90850495D01*
X107545500Y-90874999D01*
X107545500Y-92725001D01*
X107544296Y-92749505D01*
X107540696Y-92773773D01*
X107534735Y-92797572D01*
X107526470Y-92820671D01*
X107515980Y-92842850D01*
X107503368Y-92863893D01*
X107488753Y-92883599D01*
X107472277Y-92901777D01*
X107454099Y-92918253D01*
X107434393Y-92932868D01*
X107413350Y-92945480D01*
X107391171Y-92955970D01*
X107368072Y-92964235D01*
X107344273Y-92970196D01*
X107320005Y-92973796D01*
X107295501Y-92975000D01*
X106470499Y-92975000D01*
X106445995Y-92973796D01*
X106421727Y-92970196D01*
X106397928Y-92964235D01*
X106374829Y-92955970D01*
X106352650Y-92945480D01*
X106331607Y-92932868D01*
X106311901Y-92918253D01*
X106293723Y-92901777D01*
X106277247Y-92883599D01*
X106262632Y-92863893D01*
X106250020Y-92842850D01*
X106239530Y-92820671D01*
X106231265Y-92797572D01*
X106225304Y-92773773D01*
X106221704Y-92749505D01*
X106220500Y-92725001D01*
X106220500Y-90874999D01*
X106221704Y-90850495D01*
X106225304Y-90826227D01*
X106231265Y-90802428D01*
X106239530Y-90779329D01*
X106250020Y-90757150D01*
X106262632Y-90736107D01*
X106277247Y-90716401D01*
X106293723Y-90698223D01*
X106311901Y-90681747D01*
X106331607Y-90667132D01*
X106352650Y-90654520D01*
X106374829Y-90644030D01*
X106397928Y-90635765D01*
X106421727Y-90629804D01*
X106445995Y-90626204D01*
X106470499Y-90625000D01*
X107295501Y-90625000D01*
X107320005Y-90626204D01*
G37*
G36*
X104245005Y-90626204D02*
G01*
X104269273Y-90629804D01*
X104293072Y-90635765D01*
X104316171Y-90644030D01*
X104338350Y-90654520D01*
X104359393Y-90667132D01*
X104379099Y-90681747D01*
X104397277Y-90698223D01*
X104413753Y-90716401D01*
X104428368Y-90736107D01*
X104440980Y-90757150D01*
X104451470Y-90779329D01*
X104459735Y-90802428D01*
X104465696Y-90826227D01*
X104469296Y-90850495D01*
X104470500Y-90874999D01*
X104470500Y-92725001D01*
X104469296Y-92749505D01*
X104465696Y-92773773D01*
X104459735Y-92797572D01*
X104451470Y-92820671D01*
X104440980Y-92842850D01*
X104428368Y-92863893D01*
X104413753Y-92883599D01*
X104397277Y-92901777D01*
X104379099Y-92918253D01*
X104359393Y-92932868D01*
X104338350Y-92945480D01*
X104316171Y-92955970D01*
X104293072Y-92964235D01*
X104269273Y-92970196D01*
X104245005Y-92973796D01*
X104220501Y-92975000D01*
X103395499Y-92975000D01*
X103370995Y-92973796D01*
X103346727Y-92970196D01*
X103322928Y-92964235D01*
X103299829Y-92955970D01*
X103277650Y-92945480D01*
X103256607Y-92932868D01*
X103236901Y-92918253D01*
X103218723Y-92901777D01*
X103202247Y-92883599D01*
X103187632Y-92863893D01*
X103175020Y-92842850D01*
X103164530Y-92820671D01*
X103156265Y-92797572D01*
X103150304Y-92773773D01*
X103146704Y-92749505D01*
X103145500Y-92725001D01*
X103145500Y-90874999D01*
X103146704Y-90850495D01*
X103150304Y-90826227D01*
X103156265Y-90802428D01*
X103164530Y-90779329D01*
X103175020Y-90757150D01*
X103187632Y-90736107D01*
X103202247Y-90716401D01*
X103218723Y-90698223D01*
X103236901Y-90681747D01*
X103256607Y-90667132D01*
X103277650Y-90654520D01*
X103299829Y-90644030D01*
X103322928Y-90635765D01*
X103346727Y-90629804D01*
X103370995Y-90626204D01*
X103395499Y-90625000D01*
X104220501Y-90625000D01*
X104245005Y-90626204D01*
G37*
G04 #@! TD*
D11*
G04 #@! TO.C,Q3*
X104900000Y-83820000D03*
X107950000Y-87170000D03*
X107950000Y-83820000D03*
X104900000Y-87170000D03*
D12*
X104145000Y-79195000D03*
X108705000Y-79195000D03*
G04 #@! TD*
D10*
G04 #@! TO.C,R19*
G36*
X96027691Y-86276053D02*
G01*
X96048926Y-86279203D01*
X96069750Y-86284419D01*
X96089962Y-86291651D01*
X96109368Y-86300830D01*
X96127781Y-86311866D01*
X96145024Y-86324654D01*
X96160930Y-86339070D01*
X96175346Y-86354976D01*
X96188134Y-86372219D01*
X96199170Y-86390632D01*
X96208349Y-86410038D01*
X96215581Y-86430250D01*
X96220797Y-86451074D01*
X96223947Y-86472309D01*
X96225000Y-86493750D01*
X96225000Y-86931250D01*
X96223947Y-86952691D01*
X96220797Y-86973926D01*
X96215581Y-86994750D01*
X96208349Y-87014962D01*
X96199170Y-87034368D01*
X96188134Y-87052781D01*
X96175346Y-87070024D01*
X96160930Y-87085930D01*
X96145024Y-87100346D01*
X96127781Y-87113134D01*
X96109368Y-87124170D01*
X96089962Y-87133349D01*
X96069750Y-87140581D01*
X96048926Y-87145797D01*
X96027691Y-87148947D01*
X96006250Y-87150000D01*
X95493750Y-87150000D01*
X95472309Y-87148947D01*
X95451074Y-87145797D01*
X95430250Y-87140581D01*
X95410038Y-87133349D01*
X95390632Y-87124170D01*
X95372219Y-87113134D01*
X95354976Y-87100346D01*
X95339070Y-87085930D01*
X95324654Y-87070024D01*
X95311866Y-87052781D01*
X95300830Y-87034368D01*
X95291651Y-87014962D01*
X95284419Y-86994750D01*
X95279203Y-86973926D01*
X95276053Y-86952691D01*
X95275000Y-86931250D01*
X95275000Y-86493750D01*
X95276053Y-86472309D01*
X95279203Y-86451074D01*
X95284419Y-86430250D01*
X95291651Y-86410038D01*
X95300830Y-86390632D01*
X95311866Y-86372219D01*
X95324654Y-86354976D01*
X95339070Y-86339070D01*
X95354976Y-86324654D01*
X95372219Y-86311866D01*
X95390632Y-86300830D01*
X95410038Y-86291651D01*
X95430250Y-86284419D01*
X95451074Y-86279203D01*
X95472309Y-86276053D01*
X95493750Y-86275000D01*
X96006250Y-86275000D01*
X96027691Y-86276053D01*
G37*
G36*
X96027691Y-87851053D02*
G01*
X96048926Y-87854203D01*
X96069750Y-87859419D01*
X96089962Y-87866651D01*
X96109368Y-87875830D01*
X96127781Y-87886866D01*
X96145024Y-87899654D01*
X96160930Y-87914070D01*
X96175346Y-87929976D01*
X96188134Y-87947219D01*
X96199170Y-87965632D01*
X96208349Y-87985038D01*
X96215581Y-88005250D01*
X96220797Y-88026074D01*
X96223947Y-88047309D01*
X96225000Y-88068750D01*
X96225000Y-88506250D01*
X96223947Y-88527691D01*
X96220797Y-88548926D01*
X96215581Y-88569750D01*
X96208349Y-88589962D01*
X96199170Y-88609368D01*
X96188134Y-88627781D01*
X96175346Y-88645024D01*
X96160930Y-88660930D01*
X96145024Y-88675346D01*
X96127781Y-88688134D01*
X96109368Y-88699170D01*
X96089962Y-88708349D01*
X96069750Y-88715581D01*
X96048926Y-88720797D01*
X96027691Y-88723947D01*
X96006250Y-88725000D01*
X95493750Y-88725000D01*
X95472309Y-88723947D01*
X95451074Y-88720797D01*
X95430250Y-88715581D01*
X95410038Y-88708349D01*
X95390632Y-88699170D01*
X95372219Y-88688134D01*
X95354976Y-88675346D01*
X95339070Y-88660930D01*
X95324654Y-88645024D01*
X95311866Y-88627781D01*
X95300830Y-88609368D01*
X95291651Y-88589962D01*
X95284419Y-88569750D01*
X95279203Y-88548926D01*
X95276053Y-88527691D01*
X95275000Y-88506250D01*
X95275000Y-88068750D01*
X95276053Y-88047309D01*
X95279203Y-88026074D01*
X95284419Y-88005250D01*
X95291651Y-87985038D01*
X95300830Y-87965632D01*
X95311866Y-87947219D01*
X95324654Y-87929976D01*
X95339070Y-87914070D01*
X95354976Y-87899654D01*
X95372219Y-87886866D01*
X95390632Y-87875830D01*
X95410038Y-87866651D01*
X95430250Y-87859419D01*
X95451074Y-87854203D01*
X95472309Y-87851053D01*
X95493750Y-87850000D01*
X96006250Y-87850000D01*
X96027691Y-87851053D01*
G37*
G04 #@! TD*
G04 #@! TO.C,U3*
G36*
X115861703Y-86781722D02*
G01*
X115876264Y-86783882D01*
X115890543Y-86787459D01*
X115904403Y-86792418D01*
X115917710Y-86798712D01*
X115930336Y-86806280D01*
X115942159Y-86815048D01*
X115953066Y-86824934D01*
X115962952Y-86835841D01*
X115971720Y-86847664D01*
X115979288Y-86860290D01*
X115985582Y-86873597D01*
X115990541Y-86887457D01*
X115994118Y-86901736D01*
X115996278Y-86916297D01*
X115997000Y-86931000D01*
X115997000Y-88681000D01*
X115996278Y-88695703D01*
X115994118Y-88710264D01*
X115990541Y-88724543D01*
X115985582Y-88738403D01*
X115979288Y-88751710D01*
X115971720Y-88764336D01*
X115962952Y-88776159D01*
X115953066Y-88787066D01*
X115942159Y-88796952D01*
X115930336Y-88805720D01*
X115917710Y-88813288D01*
X115904403Y-88819582D01*
X115890543Y-88824541D01*
X115876264Y-88828118D01*
X115861703Y-88830278D01*
X115847000Y-88831000D01*
X115547000Y-88831000D01*
X115532297Y-88830278D01*
X115517736Y-88828118D01*
X115503457Y-88824541D01*
X115489597Y-88819582D01*
X115476290Y-88813288D01*
X115463664Y-88805720D01*
X115451841Y-88796952D01*
X115440934Y-88787066D01*
X115431048Y-88776159D01*
X115422280Y-88764336D01*
X115414712Y-88751710D01*
X115408418Y-88738403D01*
X115403459Y-88724543D01*
X115399882Y-88710264D01*
X115397722Y-88695703D01*
X115397000Y-88681000D01*
X115397000Y-86931000D01*
X115397722Y-86916297D01*
X115399882Y-86901736D01*
X115403459Y-86887457D01*
X115408418Y-86873597D01*
X115414712Y-86860290D01*
X115422280Y-86847664D01*
X115431048Y-86835841D01*
X115440934Y-86824934D01*
X115451841Y-86815048D01*
X115463664Y-86806280D01*
X115476290Y-86798712D01*
X115489597Y-86792418D01*
X115503457Y-86787459D01*
X115517736Y-86783882D01*
X115532297Y-86781722D01*
X115547000Y-86781000D01*
X115847000Y-86781000D01*
X115861703Y-86781722D01*
G37*
G36*
X117131703Y-86781722D02*
G01*
X117146264Y-86783882D01*
X117160543Y-86787459D01*
X117174403Y-86792418D01*
X117187710Y-86798712D01*
X117200336Y-86806280D01*
X117212159Y-86815048D01*
X117223066Y-86824934D01*
X117232952Y-86835841D01*
X117241720Y-86847664D01*
X117249288Y-86860290D01*
X117255582Y-86873597D01*
X117260541Y-86887457D01*
X117264118Y-86901736D01*
X117266278Y-86916297D01*
X117267000Y-86931000D01*
X117267000Y-88681000D01*
X117266278Y-88695703D01*
X117264118Y-88710264D01*
X117260541Y-88724543D01*
X117255582Y-88738403D01*
X117249288Y-88751710D01*
X117241720Y-88764336D01*
X117232952Y-88776159D01*
X117223066Y-88787066D01*
X117212159Y-88796952D01*
X117200336Y-88805720D01*
X117187710Y-88813288D01*
X117174403Y-88819582D01*
X117160543Y-88824541D01*
X117146264Y-88828118D01*
X117131703Y-88830278D01*
X117117000Y-88831000D01*
X116817000Y-88831000D01*
X116802297Y-88830278D01*
X116787736Y-88828118D01*
X116773457Y-88824541D01*
X116759597Y-88819582D01*
X116746290Y-88813288D01*
X116733664Y-88805720D01*
X116721841Y-88796952D01*
X116710934Y-88787066D01*
X116701048Y-88776159D01*
X116692280Y-88764336D01*
X116684712Y-88751710D01*
X116678418Y-88738403D01*
X116673459Y-88724543D01*
X116669882Y-88710264D01*
X116667722Y-88695703D01*
X116667000Y-88681000D01*
X116667000Y-86931000D01*
X116667722Y-86916297D01*
X116669882Y-86901736D01*
X116673459Y-86887457D01*
X116678418Y-86873597D01*
X116684712Y-86860290D01*
X116692280Y-86847664D01*
X116701048Y-86835841D01*
X116710934Y-86824934D01*
X116721841Y-86815048D01*
X116733664Y-86806280D01*
X116746290Y-86798712D01*
X116759597Y-86792418D01*
X116773457Y-86787459D01*
X116787736Y-86783882D01*
X116802297Y-86781722D01*
X116817000Y-86781000D01*
X117117000Y-86781000D01*
X117131703Y-86781722D01*
G37*
G36*
X118401703Y-86781722D02*
G01*
X118416264Y-86783882D01*
X118430543Y-86787459D01*
X118444403Y-86792418D01*
X118457710Y-86798712D01*
X118470336Y-86806280D01*
X118482159Y-86815048D01*
X118493066Y-86824934D01*
X118502952Y-86835841D01*
X118511720Y-86847664D01*
X118519288Y-86860290D01*
X118525582Y-86873597D01*
X118530541Y-86887457D01*
X118534118Y-86901736D01*
X118536278Y-86916297D01*
X118537000Y-86931000D01*
X118537000Y-88681000D01*
X118536278Y-88695703D01*
X118534118Y-88710264D01*
X118530541Y-88724543D01*
X118525582Y-88738403D01*
X118519288Y-88751710D01*
X118511720Y-88764336D01*
X118502952Y-88776159D01*
X118493066Y-88787066D01*
X118482159Y-88796952D01*
X118470336Y-88805720D01*
X118457710Y-88813288D01*
X118444403Y-88819582D01*
X118430543Y-88824541D01*
X118416264Y-88828118D01*
X118401703Y-88830278D01*
X118387000Y-88831000D01*
X118087000Y-88831000D01*
X118072297Y-88830278D01*
X118057736Y-88828118D01*
X118043457Y-88824541D01*
X118029597Y-88819582D01*
X118016290Y-88813288D01*
X118003664Y-88805720D01*
X117991841Y-88796952D01*
X117980934Y-88787066D01*
X117971048Y-88776159D01*
X117962280Y-88764336D01*
X117954712Y-88751710D01*
X117948418Y-88738403D01*
X117943459Y-88724543D01*
X117939882Y-88710264D01*
X117937722Y-88695703D01*
X117937000Y-88681000D01*
X117937000Y-86931000D01*
X117937722Y-86916297D01*
X117939882Y-86901736D01*
X117943459Y-86887457D01*
X117948418Y-86873597D01*
X117954712Y-86860290D01*
X117962280Y-86847664D01*
X117971048Y-86835841D01*
X117980934Y-86824934D01*
X117991841Y-86815048D01*
X118003664Y-86806280D01*
X118016290Y-86798712D01*
X118029597Y-86792418D01*
X118043457Y-86787459D01*
X118057736Y-86783882D01*
X118072297Y-86781722D01*
X118087000Y-86781000D01*
X118387000Y-86781000D01*
X118401703Y-86781722D01*
G37*
G36*
X119671703Y-86781722D02*
G01*
X119686264Y-86783882D01*
X119700543Y-86787459D01*
X119714403Y-86792418D01*
X119727710Y-86798712D01*
X119740336Y-86806280D01*
X119752159Y-86815048D01*
X119763066Y-86824934D01*
X119772952Y-86835841D01*
X119781720Y-86847664D01*
X119789288Y-86860290D01*
X119795582Y-86873597D01*
X119800541Y-86887457D01*
X119804118Y-86901736D01*
X119806278Y-86916297D01*
X119807000Y-86931000D01*
X119807000Y-88681000D01*
X119806278Y-88695703D01*
X119804118Y-88710264D01*
X119800541Y-88724543D01*
X119795582Y-88738403D01*
X119789288Y-88751710D01*
X119781720Y-88764336D01*
X119772952Y-88776159D01*
X119763066Y-88787066D01*
X119752159Y-88796952D01*
X119740336Y-88805720D01*
X119727710Y-88813288D01*
X119714403Y-88819582D01*
X119700543Y-88824541D01*
X119686264Y-88828118D01*
X119671703Y-88830278D01*
X119657000Y-88831000D01*
X119357000Y-88831000D01*
X119342297Y-88830278D01*
X119327736Y-88828118D01*
X119313457Y-88824541D01*
X119299597Y-88819582D01*
X119286290Y-88813288D01*
X119273664Y-88805720D01*
X119261841Y-88796952D01*
X119250934Y-88787066D01*
X119241048Y-88776159D01*
X119232280Y-88764336D01*
X119224712Y-88751710D01*
X119218418Y-88738403D01*
X119213459Y-88724543D01*
X119209882Y-88710264D01*
X119207722Y-88695703D01*
X119207000Y-88681000D01*
X119207000Y-86931000D01*
X119207722Y-86916297D01*
X119209882Y-86901736D01*
X119213459Y-86887457D01*
X119218418Y-86873597D01*
X119224712Y-86860290D01*
X119232280Y-86847664D01*
X119241048Y-86835841D01*
X119250934Y-86824934D01*
X119261841Y-86815048D01*
X119273664Y-86806280D01*
X119286290Y-86798712D01*
X119299597Y-86792418D01*
X119313457Y-86787459D01*
X119327736Y-86783882D01*
X119342297Y-86781722D01*
X119357000Y-86781000D01*
X119657000Y-86781000D01*
X119671703Y-86781722D01*
G37*
G36*
X120941703Y-86781722D02*
G01*
X120956264Y-86783882D01*
X120970543Y-86787459D01*
X120984403Y-86792418D01*
X120997710Y-86798712D01*
X121010336Y-86806280D01*
X121022159Y-86815048D01*
X121033066Y-86824934D01*
X121042952Y-86835841D01*
X121051720Y-86847664D01*
X121059288Y-86860290D01*
X121065582Y-86873597D01*
X121070541Y-86887457D01*
X121074118Y-86901736D01*
X121076278Y-86916297D01*
X121077000Y-86931000D01*
X121077000Y-88681000D01*
X121076278Y-88695703D01*
X121074118Y-88710264D01*
X121070541Y-88724543D01*
X121065582Y-88738403D01*
X121059288Y-88751710D01*
X121051720Y-88764336D01*
X121042952Y-88776159D01*
X121033066Y-88787066D01*
X121022159Y-88796952D01*
X121010336Y-88805720D01*
X120997710Y-88813288D01*
X120984403Y-88819582D01*
X120970543Y-88824541D01*
X120956264Y-88828118D01*
X120941703Y-88830278D01*
X120927000Y-88831000D01*
X120627000Y-88831000D01*
X120612297Y-88830278D01*
X120597736Y-88828118D01*
X120583457Y-88824541D01*
X120569597Y-88819582D01*
X120556290Y-88813288D01*
X120543664Y-88805720D01*
X120531841Y-88796952D01*
X120520934Y-88787066D01*
X120511048Y-88776159D01*
X120502280Y-88764336D01*
X120494712Y-88751710D01*
X120488418Y-88738403D01*
X120483459Y-88724543D01*
X120479882Y-88710264D01*
X120477722Y-88695703D01*
X120477000Y-88681000D01*
X120477000Y-86931000D01*
X120477722Y-86916297D01*
X120479882Y-86901736D01*
X120483459Y-86887457D01*
X120488418Y-86873597D01*
X120494712Y-86860290D01*
X120502280Y-86847664D01*
X120511048Y-86835841D01*
X120520934Y-86824934D01*
X120531841Y-86815048D01*
X120543664Y-86806280D01*
X120556290Y-86798712D01*
X120569597Y-86792418D01*
X120583457Y-86787459D01*
X120597736Y-86783882D01*
X120612297Y-86781722D01*
X120627000Y-86781000D01*
X120927000Y-86781000D01*
X120941703Y-86781722D01*
G37*
G36*
X122211703Y-86781722D02*
G01*
X122226264Y-86783882D01*
X122240543Y-86787459D01*
X122254403Y-86792418D01*
X122267710Y-86798712D01*
X122280336Y-86806280D01*
X122292159Y-86815048D01*
X122303066Y-86824934D01*
X122312952Y-86835841D01*
X122321720Y-86847664D01*
X122329288Y-86860290D01*
X122335582Y-86873597D01*
X122340541Y-86887457D01*
X122344118Y-86901736D01*
X122346278Y-86916297D01*
X122347000Y-86931000D01*
X122347000Y-88681000D01*
X122346278Y-88695703D01*
X122344118Y-88710264D01*
X122340541Y-88724543D01*
X122335582Y-88738403D01*
X122329288Y-88751710D01*
X122321720Y-88764336D01*
X122312952Y-88776159D01*
X122303066Y-88787066D01*
X122292159Y-88796952D01*
X122280336Y-88805720D01*
X122267710Y-88813288D01*
X122254403Y-88819582D01*
X122240543Y-88824541D01*
X122226264Y-88828118D01*
X122211703Y-88830278D01*
X122197000Y-88831000D01*
X121897000Y-88831000D01*
X121882297Y-88830278D01*
X121867736Y-88828118D01*
X121853457Y-88824541D01*
X121839597Y-88819582D01*
X121826290Y-88813288D01*
X121813664Y-88805720D01*
X121801841Y-88796952D01*
X121790934Y-88787066D01*
X121781048Y-88776159D01*
X121772280Y-88764336D01*
X121764712Y-88751710D01*
X121758418Y-88738403D01*
X121753459Y-88724543D01*
X121749882Y-88710264D01*
X121747722Y-88695703D01*
X121747000Y-88681000D01*
X121747000Y-86931000D01*
X121747722Y-86916297D01*
X121749882Y-86901736D01*
X121753459Y-86887457D01*
X121758418Y-86873597D01*
X121764712Y-86860290D01*
X121772280Y-86847664D01*
X121781048Y-86835841D01*
X121790934Y-86824934D01*
X121801841Y-86815048D01*
X121813664Y-86806280D01*
X121826290Y-86798712D01*
X121839597Y-86792418D01*
X121853457Y-86787459D01*
X121867736Y-86783882D01*
X121882297Y-86781722D01*
X121897000Y-86781000D01*
X122197000Y-86781000D01*
X122211703Y-86781722D01*
G37*
G36*
X123481703Y-86781722D02*
G01*
X123496264Y-86783882D01*
X123510543Y-86787459D01*
X123524403Y-86792418D01*
X123537710Y-86798712D01*
X123550336Y-86806280D01*
X123562159Y-86815048D01*
X123573066Y-86824934D01*
X123582952Y-86835841D01*
X123591720Y-86847664D01*
X123599288Y-86860290D01*
X123605582Y-86873597D01*
X123610541Y-86887457D01*
X123614118Y-86901736D01*
X123616278Y-86916297D01*
X123617000Y-86931000D01*
X123617000Y-88681000D01*
X123616278Y-88695703D01*
X123614118Y-88710264D01*
X123610541Y-88724543D01*
X123605582Y-88738403D01*
X123599288Y-88751710D01*
X123591720Y-88764336D01*
X123582952Y-88776159D01*
X123573066Y-88787066D01*
X123562159Y-88796952D01*
X123550336Y-88805720D01*
X123537710Y-88813288D01*
X123524403Y-88819582D01*
X123510543Y-88824541D01*
X123496264Y-88828118D01*
X123481703Y-88830278D01*
X123467000Y-88831000D01*
X123167000Y-88831000D01*
X123152297Y-88830278D01*
X123137736Y-88828118D01*
X123123457Y-88824541D01*
X123109597Y-88819582D01*
X123096290Y-88813288D01*
X123083664Y-88805720D01*
X123071841Y-88796952D01*
X123060934Y-88787066D01*
X123051048Y-88776159D01*
X123042280Y-88764336D01*
X123034712Y-88751710D01*
X123028418Y-88738403D01*
X123023459Y-88724543D01*
X123019882Y-88710264D01*
X123017722Y-88695703D01*
X123017000Y-88681000D01*
X123017000Y-86931000D01*
X123017722Y-86916297D01*
X123019882Y-86901736D01*
X123023459Y-86887457D01*
X123028418Y-86873597D01*
X123034712Y-86860290D01*
X123042280Y-86847664D01*
X123051048Y-86835841D01*
X123060934Y-86824934D01*
X123071841Y-86815048D01*
X123083664Y-86806280D01*
X123096290Y-86798712D01*
X123109597Y-86792418D01*
X123123457Y-86787459D01*
X123137736Y-86783882D01*
X123152297Y-86781722D01*
X123167000Y-86781000D01*
X123467000Y-86781000D01*
X123481703Y-86781722D01*
G37*
G36*
X124751703Y-86781722D02*
G01*
X124766264Y-86783882D01*
X124780543Y-86787459D01*
X124794403Y-86792418D01*
X124807710Y-86798712D01*
X124820336Y-86806280D01*
X124832159Y-86815048D01*
X124843066Y-86824934D01*
X124852952Y-86835841D01*
X124861720Y-86847664D01*
X124869288Y-86860290D01*
X124875582Y-86873597D01*
X124880541Y-86887457D01*
X124884118Y-86901736D01*
X124886278Y-86916297D01*
X124887000Y-86931000D01*
X124887000Y-88681000D01*
X124886278Y-88695703D01*
X124884118Y-88710264D01*
X124880541Y-88724543D01*
X124875582Y-88738403D01*
X124869288Y-88751710D01*
X124861720Y-88764336D01*
X124852952Y-88776159D01*
X124843066Y-88787066D01*
X124832159Y-88796952D01*
X124820336Y-88805720D01*
X124807710Y-88813288D01*
X124794403Y-88819582D01*
X124780543Y-88824541D01*
X124766264Y-88828118D01*
X124751703Y-88830278D01*
X124737000Y-88831000D01*
X124437000Y-88831000D01*
X124422297Y-88830278D01*
X124407736Y-88828118D01*
X124393457Y-88824541D01*
X124379597Y-88819582D01*
X124366290Y-88813288D01*
X124353664Y-88805720D01*
X124341841Y-88796952D01*
X124330934Y-88787066D01*
X124321048Y-88776159D01*
X124312280Y-88764336D01*
X124304712Y-88751710D01*
X124298418Y-88738403D01*
X124293459Y-88724543D01*
X124289882Y-88710264D01*
X124287722Y-88695703D01*
X124287000Y-88681000D01*
X124287000Y-86931000D01*
X124287722Y-86916297D01*
X124289882Y-86901736D01*
X124293459Y-86887457D01*
X124298418Y-86873597D01*
X124304712Y-86860290D01*
X124312280Y-86847664D01*
X124321048Y-86835841D01*
X124330934Y-86824934D01*
X124341841Y-86815048D01*
X124353664Y-86806280D01*
X124366290Y-86798712D01*
X124379597Y-86792418D01*
X124393457Y-86787459D01*
X124407736Y-86783882D01*
X124422297Y-86781722D01*
X124437000Y-86781000D01*
X124737000Y-86781000D01*
X124751703Y-86781722D01*
G37*
G36*
X126021703Y-86781722D02*
G01*
X126036264Y-86783882D01*
X126050543Y-86787459D01*
X126064403Y-86792418D01*
X126077710Y-86798712D01*
X126090336Y-86806280D01*
X126102159Y-86815048D01*
X126113066Y-86824934D01*
X126122952Y-86835841D01*
X126131720Y-86847664D01*
X126139288Y-86860290D01*
X126145582Y-86873597D01*
X126150541Y-86887457D01*
X126154118Y-86901736D01*
X126156278Y-86916297D01*
X126157000Y-86931000D01*
X126157000Y-88681000D01*
X126156278Y-88695703D01*
X126154118Y-88710264D01*
X126150541Y-88724543D01*
X126145582Y-88738403D01*
X126139288Y-88751710D01*
X126131720Y-88764336D01*
X126122952Y-88776159D01*
X126113066Y-88787066D01*
X126102159Y-88796952D01*
X126090336Y-88805720D01*
X126077710Y-88813288D01*
X126064403Y-88819582D01*
X126050543Y-88824541D01*
X126036264Y-88828118D01*
X126021703Y-88830278D01*
X126007000Y-88831000D01*
X125707000Y-88831000D01*
X125692297Y-88830278D01*
X125677736Y-88828118D01*
X125663457Y-88824541D01*
X125649597Y-88819582D01*
X125636290Y-88813288D01*
X125623664Y-88805720D01*
X125611841Y-88796952D01*
X125600934Y-88787066D01*
X125591048Y-88776159D01*
X125582280Y-88764336D01*
X125574712Y-88751710D01*
X125568418Y-88738403D01*
X125563459Y-88724543D01*
X125559882Y-88710264D01*
X125557722Y-88695703D01*
X125557000Y-88681000D01*
X125557000Y-86931000D01*
X125557722Y-86916297D01*
X125559882Y-86901736D01*
X125563459Y-86887457D01*
X125568418Y-86873597D01*
X125574712Y-86860290D01*
X125582280Y-86847664D01*
X125591048Y-86835841D01*
X125600934Y-86824934D01*
X125611841Y-86815048D01*
X125623664Y-86806280D01*
X125636290Y-86798712D01*
X125649597Y-86792418D01*
X125663457Y-86787459D01*
X125677736Y-86783882D01*
X125692297Y-86781722D01*
X125707000Y-86781000D01*
X126007000Y-86781000D01*
X126021703Y-86781722D01*
G37*
G36*
X127291703Y-86781722D02*
G01*
X127306264Y-86783882D01*
X127320543Y-86787459D01*
X127334403Y-86792418D01*
X127347710Y-86798712D01*
X127360336Y-86806280D01*
X127372159Y-86815048D01*
X127383066Y-86824934D01*
X127392952Y-86835841D01*
X127401720Y-86847664D01*
X127409288Y-86860290D01*
X127415582Y-86873597D01*
X127420541Y-86887457D01*
X127424118Y-86901736D01*
X127426278Y-86916297D01*
X127427000Y-86931000D01*
X127427000Y-88681000D01*
X127426278Y-88695703D01*
X127424118Y-88710264D01*
X127420541Y-88724543D01*
X127415582Y-88738403D01*
X127409288Y-88751710D01*
X127401720Y-88764336D01*
X127392952Y-88776159D01*
X127383066Y-88787066D01*
X127372159Y-88796952D01*
X127360336Y-88805720D01*
X127347710Y-88813288D01*
X127334403Y-88819582D01*
X127320543Y-88824541D01*
X127306264Y-88828118D01*
X127291703Y-88830278D01*
X127277000Y-88831000D01*
X126977000Y-88831000D01*
X126962297Y-88830278D01*
X126947736Y-88828118D01*
X126933457Y-88824541D01*
X126919597Y-88819582D01*
X126906290Y-88813288D01*
X126893664Y-88805720D01*
X126881841Y-88796952D01*
X126870934Y-88787066D01*
X126861048Y-88776159D01*
X126852280Y-88764336D01*
X126844712Y-88751710D01*
X126838418Y-88738403D01*
X126833459Y-88724543D01*
X126829882Y-88710264D01*
X126827722Y-88695703D01*
X126827000Y-88681000D01*
X126827000Y-86931000D01*
X126827722Y-86916297D01*
X126829882Y-86901736D01*
X126833459Y-86887457D01*
X126838418Y-86873597D01*
X126844712Y-86860290D01*
X126852280Y-86847664D01*
X126861048Y-86835841D01*
X126870934Y-86824934D01*
X126881841Y-86815048D01*
X126893664Y-86806280D01*
X126906290Y-86798712D01*
X126919597Y-86792418D01*
X126933457Y-86787459D01*
X126947736Y-86783882D01*
X126962297Y-86781722D01*
X126977000Y-86781000D01*
X127277000Y-86781000D01*
X127291703Y-86781722D01*
G37*
G36*
X128561703Y-86781722D02*
G01*
X128576264Y-86783882D01*
X128590543Y-86787459D01*
X128604403Y-86792418D01*
X128617710Y-86798712D01*
X128630336Y-86806280D01*
X128642159Y-86815048D01*
X128653066Y-86824934D01*
X128662952Y-86835841D01*
X128671720Y-86847664D01*
X128679288Y-86860290D01*
X128685582Y-86873597D01*
X128690541Y-86887457D01*
X128694118Y-86901736D01*
X128696278Y-86916297D01*
X128697000Y-86931000D01*
X128697000Y-88681000D01*
X128696278Y-88695703D01*
X128694118Y-88710264D01*
X128690541Y-88724543D01*
X128685582Y-88738403D01*
X128679288Y-88751710D01*
X128671720Y-88764336D01*
X128662952Y-88776159D01*
X128653066Y-88787066D01*
X128642159Y-88796952D01*
X128630336Y-88805720D01*
X128617710Y-88813288D01*
X128604403Y-88819582D01*
X128590543Y-88824541D01*
X128576264Y-88828118D01*
X128561703Y-88830278D01*
X128547000Y-88831000D01*
X128247000Y-88831000D01*
X128232297Y-88830278D01*
X128217736Y-88828118D01*
X128203457Y-88824541D01*
X128189597Y-88819582D01*
X128176290Y-88813288D01*
X128163664Y-88805720D01*
X128151841Y-88796952D01*
X128140934Y-88787066D01*
X128131048Y-88776159D01*
X128122280Y-88764336D01*
X128114712Y-88751710D01*
X128108418Y-88738403D01*
X128103459Y-88724543D01*
X128099882Y-88710264D01*
X128097722Y-88695703D01*
X128097000Y-88681000D01*
X128097000Y-86931000D01*
X128097722Y-86916297D01*
X128099882Y-86901736D01*
X128103459Y-86887457D01*
X128108418Y-86873597D01*
X128114712Y-86860290D01*
X128122280Y-86847664D01*
X128131048Y-86835841D01*
X128140934Y-86824934D01*
X128151841Y-86815048D01*
X128163664Y-86806280D01*
X128176290Y-86798712D01*
X128189597Y-86792418D01*
X128203457Y-86787459D01*
X128217736Y-86783882D01*
X128232297Y-86781722D01*
X128247000Y-86781000D01*
X128547000Y-86781000D01*
X128561703Y-86781722D01*
G37*
G36*
X129831703Y-86781722D02*
G01*
X129846264Y-86783882D01*
X129860543Y-86787459D01*
X129874403Y-86792418D01*
X129887710Y-86798712D01*
X129900336Y-86806280D01*
X129912159Y-86815048D01*
X129923066Y-86824934D01*
X129932952Y-86835841D01*
X129941720Y-86847664D01*
X129949288Y-86860290D01*
X129955582Y-86873597D01*
X129960541Y-86887457D01*
X129964118Y-86901736D01*
X129966278Y-86916297D01*
X129967000Y-86931000D01*
X129967000Y-88681000D01*
X129966278Y-88695703D01*
X129964118Y-88710264D01*
X129960541Y-88724543D01*
X129955582Y-88738403D01*
X129949288Y-88751710D01*
X129941720Y-88764336D01*
X129932952Y-88776159D01*
X129923066Y-88787066D01*
X129912159Y-88796952D01*
X129900336Y-88805720D01*
X129887710Y-88813288D01*
X129874403Y-88819582D01*
X129860543Y-88824541D01*
X129846264Y-88828118D01*
X129831703Y-88830278D01*
X129817000Y-88831000D01*
X129517000Y-88831000D01*
X129502297Y-88830278D01*
X129487736Y-88828118D01*
X129473457Y-88824541D01*
X129459597Y-88819582D01*
X129446290Y-88813288D01*
X129433664Y-88805720D01*
X129421841Y-88796952D01*
X129410934Y-88787066D01*
X129401048Y-88776159D01*
X129392280Y-88764336D01*
X129384712Y-88751710D01*
X129378418Y-88738403D01*
X129373459Y-88724543D01*
X129369882Y-88710264D01*
X129367722Y-88695703D01*
X129367000Y-88681000D01*
X129367000Y-86931000D01*
X129367722Y-86916297D01*
X129369882Y-86901736D01*
X129373459Y-86887457D01*
X129378418Y-86873597D01*
X129384712Y-86860290D01*
X129392280Y-86847664D01*
X129401048Y-86835841D01*
X129410934Y-86824934D01*
X129421841Y-86815048D01*
X129433664Y-86806280D01*
X129446290Y-86798712D01*
X129459597Y-86792418D01*
X129473457Y-86787459D01*
X129487736Y-86783882D01*
X129502297Y-86781722D01*
X129517000Y-86781000D01*
X129817000Y-86781000D01*
X129831703Y-86781722D01*
G37*
G36*
X131101703Y-86781722D02*
G01*
X131116264Y-86783882D01*
X131130543Y-86787459D01*
X131144403Y-86792418D01*
X131157710Y-86798712D01*
X131170336Y-86806280D01*
X131182159Y-86815048D01*
X131193066Y-86824934D01*
X131202952Y-86835841D01*
X131211720Y-86847664D01*
X131219288Y-86860290D01*
X131225582Y-86873597D01*
X131230541Y-86887457D01*
X131234118Y-86901736D01*
X131236278Y-86916297D01*
X131237000Y-86931000D01*
X131237000Y-88681000D01*
X131236278Y-88695703D01*
X131234118Y-88710264D01*
X131230541Y-88724543D01*
X131225582Y-88738403D01*
X131219288Y-88751710D01*
X131211720Y-88764336D01*
X131202952Y-88776159D01*
X131193066Y-88787066D01*
X131182159Y-88796952D01*
X131170336Y-88805720D01*
X131157710Y-88813288D01*
X131144403Y-88819582D01*
X131130543Y-88824541D01*
X131116264Y-88828118D01*
X131101703Y-88830278D01*
X131087000Y-88831000D01*
X130787000Y-88831000D01*
X130772297Y-88830278D01*
X130757736Y-88828118D01*
X130743457Y-88824541D01*
X130729597Y-88819582D01*
X130716290Y-88813288D01*
X130703664Y-88805720D01*
X130691841Y-88796952D01*
X130680934Y-88787066D01*
X130671048Y-88776159D01*
X130662280Y-88764336D01*
X130654712Y-88751710D01*
X130648418Y-88738403D01*
X130643459Y-88724543D01*
X130639882Y-88710264D01*
X130637722Y-88695703D01*
X130637000Y-88681000D01*
X130637000Y-86931000D01*
X130637722Y-86916297D01*
X130639882Y-86901736D01*
X130643459Y-86887457D01*
X130648418Y-86873597D01*
X130654712Y-86860290D01*
X130662280Y-86847664D01*
X130671048Y-86835841D01*
X130680934Y-86824934D01*
X130691841Y-86815048D01*
X130703664Y-86806280D01*
X130716290Y-86798712D01*
X130729597Y-86792418D01*
X130743457Y-86787459D01*
X130757736Y-86783882D01*
X130772297Y-86781722D01*
X130787000Y-86781000D01*
X131087000Y-86781000D01*
X131101703Y-86781722D01*
G37*
G36*
X132371703Y-86781722D02*
G01*
X132386264Y-86783882D01*
X132400543Y-86787459D01*
X132414403Y-86792418D01*
X132427710Y-86798712D01*
X132440336Y-86806280D01*
X132452159Y-86815048D01*
X132463066Y-86824934D01*
X132472952Y-86835841D01*
X132481720Y-86847664D01*
X132489288Y-86860290D01*
X132495582Y-86873597D01*
X132500541Y-86887457D01*
X132504118Y-86901736D01*
X132506278Y-86916297D01*
X132507000Y-86931000D01*
X132507000Y-88681000D01*
X132506278Y-88695703D01*
X132504118Y-88710264D01*
X132500541Y-88724543D01*
X132495582Y-88738403D01*
X132489288Y-88751710D01*
X132481720Y-88764336D01*
X132472952Y-88776159D01*
X132463066Y-88787066D01*
X132452159Y-88796952D01*
X132440336Y-88805720D01*
X132427710Y-88813288D01*
X132414403Y-88819582D01*
X132400543Y-88824541D01*
X132386264Y-88828118D01*
X132371703Y-88830278D01*
X132357000Y-88831000D01*
X132057000Y-88831000D01*
X132042297Y-88830278D01*
X132027736Y-88828118D01*
X132013457Y-88824541D01*
X131999597Y-88819582D01*
X131986290Y-88813288D01*
X131973664Y-88805720D01*
X131961841Y-88796952D01*
X131950934Y-88787066D01*
X131941048Y-88776159D01*
X131932280Y-88764336D01*
X131924712Y-88751710D01*
X131918418Y-88738403D01*
X131913459Y-88724543D01*
X131909882Y-88710264D01*
X131907722Y-88695703D01*
X131907000Y-88681000D01*
X131907000Y-86931000D01*
X131907722Y-86916297D01*
X131909882Y-86901736D01*
X131913459Y-86887457D01*
X131918418Y-86873597D01*
X131924712Y-86860290D01*
X131932280Y-86847664D01*
X131941048Y-86835841D01*
X131950934Y-86824934D01*
X131961841Y-86815048D01*
X131973664Y-86806280D01*
X131986290Y-86798712D01*
X131999597Y-86792418D01*
X132013457Y-86787459D01*
X132027736Y-86783882D01*
X132042297Y-86781722D01*
X132057000Y-86781000D01*
X132357000Y-86781000D01*
X132371703Y-86781722D01*
G37*
G36*
X132371703Y-96081722D02*
G01*
X132386264Y-96083882D01*
X132400543Y-96087459D01*
X132414403Y-96092418D01*
X132427710Y-96098712D01*
X132440336Y-96106280D01*
X132452159Y-96115048D01*
X132463066Y-96124934D01*
X132472952Y-96135841D01*
X132481720Y-96147664D01*
X132489288Y-96160290D01*
X132495582Y-96173597D01*
X132500541Y-96187457D01*
X132504118Y-96201736D01*
X132506278Y-96216297D01*
X132507000Y-96231000D01*
X132507000Y-97981000D01*
X132506278Y-97995703D01*
X132504118Y-98010264D01*
X132500541Y-98024543D01*
X132495582Y-98038403D01*
X132489288Y-98051710D01*
X132481720Y-98064336D01*
X132472952Y-98076159D01*
X132463066Y-98087066D01*
X132452159Y-98096952D01*
X132440336Y-98105720D01*
X132427710Y-98113288D01*
X132414403Y-98119582D01*
X132400543Y-98124541D01*
X132386264Y-98128118D01*
X132371703Y-98130278D01*
X132357000Y-98131000D01*
X132057000Y-98131000D01*
X132042297Y-98130278D01*
X132027736Y-98128118D01*
X132013457Y-98124541D01*
X131999597Y-98119582D01*
X131986290Y-98113288D01*
X131973664Y-98105720D01*
X131961841Y-98096952D01*
X131950934Y-98087066D01*
X131941048Y-98076159D01*
X131932280Y-98064336D01*
X131924712Y-98051710D01*
X131918418Y-98038403D01*
X131913459Y-98024543D01*
X131909882Y-98010264D01*
X131907722Y-97995703D01*
X131907000Y-97981000D01*
X131907000Y-96231000D01*
X131907722Y-96216297D01*
X131909882Y-96201736D01*
X131913459Y-96187457D01*
X131918418Y-96173597D01*
X131924712Y-96160290D01*
X131932280Y-96147664D01*
X131941048Y-96135841D01*
X131950934Y-96124934D01*
X131961841Y-96115048D01*
X131973664Y-96106280D01*
X131986290Y-96098712D01*
X131999597Y-96092418D01*
X132013457Y-96087459D01*
X132027736Y-96083882D01*
X132042297Y-96081722D01*
X132057000Y-96081000D01*
X132357000Y-96081000D01*
X132371703Y-96081722D01*
G37*
G36*
X131101703Y-96081722D02*
G01*
X131116264Y-96083882D01*
X131130543Y-96087459D01*
X131144403Y-96092418D01*
X131157710Y-96098712D01*
X131170336Y-96106280D01*
X131182159Y-96115048D01*
X131193066Y-96124934D01*
X131202952Y-96135841D01*
X131211720Y-96147664D01*
X131219288Y-96160290D01*
X131225582Y-96173597D01*
X131230541Y-96187457D01*
X131234118Y-96201736D01*
X131236278Y-96216297D01*
X131237000Y-96231000D01*
X131237000Y-97981000D01*
X131236278Y-97995703D01*
X131234118Y-98010264D01*
X131230541Y-98024543D01*
X131225582Y-98038403D01*
X131219288Y-98051710D01*
X131211720Y-98064336D01*
X131202952Y-98076159D01*
X131193066Y-98087066D01*
X131182159Y-98096952D01*
X131170336Y-98105720D01*
X131157710Y-98113288D01*
X131144403Y-98119582D01*
X131130543Y-98124541D01*
X131116264Y-98128118D01*
X131101703Y-98130278D01*
X131087000Y-98131000D01*
X130787000Y-98131000D01*
X130772297Y-98130278D01*
X130757736Y-98128118D01*
X130743457Y-98124541D01*
X130729597Y-98119582D01*
X130716290Y-98113288D01*
X130703664Y-98105720D01*
X130691841Y-98096952D01*
X130680934Y-98087066D01*
X130671048Y-98076159D01*
X130662280Y-98064336D01*
X130654712Y-98051710D01*
X130648418Y-98038403D01*
X130643459Y-98024543D01*
X130639882Y-98010264D01*
X130637722Y-97995703D01*
X130637000Y-97981000D01*
X130637000Y-96231000D01*
X130637722Y-96216297D01*
X130639882Y-96201736D01*
X130643459Y-96187457D01*
X130648418Y-96173597D01*
X130654712Y-96160290D01*
X130662280Y-96147664D01*
X130671048Y-96135841D01*
X130680934Y-96124934D01*
X130691841Y-96115048D01*
X130703664Y-96106280D01*
X130716290Y-96098712D01*
X130729597Y-96092418D01*
X130743457Y-96087459D01*
X130757736Y-96083882D01*
X130772297Y-96081722D01*
X130787000Y-96081000D01*
X131087000Y-96081000D01*
X131101703Y-96081722D01*
G37*
G36*
X129831703Y-96081722D02*
G01*
X129846264Y-96083882D01*
X129860543Y-96087459D01*
X129874403Y-96092418D01*
X129887710Y-96098712D01*
X129900336Y-96106280D01*
X129912159Y-96115048D01*
X129923066Y-96124934D01*
X129932952Y-96135841D01*
X129941720Y-96147664D01*
X129949288Y-96160290D01*
X129955582Y-96173597D01*
X129960541Y-96187457D01*
X129964118Y-96201736D01*
X129966278Y-96216297D01*
X129967000Y-96231000D01*
X129967000Y-97981000D01*
X129966278Y-97995703D01*
X129964118Y-98010264D01*
X129960541Y-98024543D01*
X129955582Y-98038403D01*
X129949288Y-98051710D01*
X129941720Y-98064336D01*
X129932952Y-98076159D01*
X129923066Y-98087066D01*
X129912159Y-98096952D01*
X129900336Y-98105720D01*
X129887710Y-98113288D01*
X129874403Y-98119582D01*
X129860543Y-98124541D01*
X129846264Y-98128118D01*
X129831703Y-98130278D01*
X129817000Y-98131000D01*
X129517000Y-98131000D01*
X129502297Y-98130278D01*
X129487736Y-98128118D01*
X129473457Y-98124541D01*
X129459597Y-98119582D01*
X129446290Y-98113288D01*
X129433664Y-98105720D01*
X129421841Y-98096952D01*
X129410934Y-98087066D01*
X129401048Y-98076159D01*
X129392280Y-98064336D01*
X129384712Y-98051710D01*
X129378418Y-98038403D01*
X129373459Y-98024543D01*
X129369882Y-98010264D01*
X129367722Y-97995703D01*
X129367000Y-97981000D01*
X129367000Y-96231000D01*
X129367722Y-96216297D01*
X129369882Y-96201736D01*
X129373459Y-96187457D01*
X129378418Y-96173597D01*
X129384712Y-96160290D01*
X129392280Y-96147664D01*
X129401048Y-96135841D01*
X129410934Y-96124934D01*
X129421841Y-96115048D01*
X129433664Y-96106280D01*
X129446290Y-96098712D01*
X129459597Y-96092418D01*
X129473457Y-96087459D01*
X129487736Y-96083882D01*
X129502297Y-96081722D01*
X129517000Y-96081000D01*
X129817000Y-96081000D01*
X129831703Y-96081722D01*
G37*
G36*
X128561703Y-96081722D02*
G01*
X128576264Y-96083882D01*
X128590543Y-96087459D01*
X128604403Y-96092418D01*
X128617710Y-96098712D01*
X128630336Y-96106280D01*
X128642159Y-96115048D01*
X128653066Y-96124934D01*
X128662952Y-96135841D01*
X128671720Y-96147664D01*
X128679288Y-96160290D01*
X128685582Y-96173597D01*
X128690541Y-96187457D01*
X128694118Y-96201736D01*
X128696278Y-96216297D01*
X128697000Y-96231000D01*
X128697000Y-97981000D01*
X128696278Y-97995703D01*
X128694118Y-98010264D01*
X128690541Y-98024543D01*
X128685582Y-98038403D01*
X128679288Y-98051710D01*
X128671720Y-98064336D01*
X128662952Y-98076159D01*
X128653066Y-98087066D01*
X128642159Y-98096952D01*
X128630336Y-98105720D01*
X128617710Y-98113288D01*
X128604403Y-98119582D01*
X128590543Y-98124541D01*
X128576264Y-98128118D01*
X128561703Y-98130278D01*
X128547000Y-98131000D01*
X128247000Y-98131000D01*
X128232297Y-98130278D01*
X128217736Y-98128118D01*
X128203457Y-98124541D01*
X128189597Y-98119582D01*
X128176290Y-98113288D01*
X128163664Y-98105720D01*
X128151841Y-98096952D01*
X128140934Y-98087066D01*
X128131048Y-98076159D01*
X128122280Y-98064336D01*
X128114712Y-98051710D01*
X128108418Y-98038403D01*
X128103459Y-98024543D01*
X128099882Y-98010264D01*
X128097722Y-97995703D01*
X128097000Y-97981000D01*
X128097000Y-96231000D01*
X128097722Y-96216297D01*
X128099882Y-96201736D01*
X128103459Y-96187457D01*
X128108418Y-96173597D01*
X128114712Y-96160290D01*
X128122280Y-96147664D01*
X128131048Y-96135841D01*
X128140934Y-96124934D01*
X128151841Y-96115048D01*
X128163664Y-96106280D01*
X128176290Y-96098712D01*
X128189597Y-96092418D01*
X128203457Y-96087459D01*
X128217736Y-96083882D01*
X128232297Y-96081722D01*
X128247000Y-96081000D01*
X128547000Y-96081000D01*
X128561703Y-96081722D01*
G37*
G36*
X127291703Y-96081722D02*
G01*
X127306264Y-96083882D01*
X127320543Y-96087459D01*
X127334403Y-96092418D01*
X127347710Y-96098712D01*
X127360336Y-96106280D01*
X127372159Y-96115048D01*
X127383066Y-96124934D01*
X127392952Y-96135841D01*
X127401720Y-96147664D01*
X127409288Y-96160290D01*
X127415582Y-96173597D01*
X127420541Y-96187457D01*
X127424118Y-96201736D01*
X127426278Y-96216297D01*
X127427000Y-96231000D01*
X127427000Y-97981000D01*
X127426278Y-97995703D01*
X127424118Y-98010264D01*
X127420541Y-98024543D01*
X127415582Y-98038403D01*
X127409288Y-98051710D01*
X127401720Y-98064336D01*
X127392952Y-98076159D01*
X127383066Y-98087066D01*
X127372159Y-98096952D01*
X127360336Y-98105720D01*
X127347710Y-98113288D01*
X127334403Y-98119582D01*
X127320543Y-98124541D01*
X127306264Y-98128118D01*
X127291703Y-98130278D01*
X127277000Y-98131000D01*
X126977000Y-98131000D01*
X126962297Y-98130278D01*
X126947736Y-98128118D01*
X126933457Y-98124541D01*
X126919597Y-98119582D01*
X126906290Y-98113288D01*
X126893664Y-98105720D01*
X126881841Y-98096952D01*
X126870934Y-98087066D01*
X126861048Y-98076159D01*
X126852280Y-98064336D01*
X126844712Y-98051710D01*
X126838418Y-98038403D01*
X126833459Y-98024543D01*
X126829882Y-98010264D01*
X126827722Y-97995703D01*
X126827000Y-97981000D01*
X126827000Y-96231000D01*
X126827722Y-96216297D01*
X126829882Y-96201736D01*
X126833459Y-96187457D01*
X126838418Y-96173597D01*
X126844712Y-96160290D01*
X126852280Y-96147664D01*
X126861048Y-96135841D01*
X126870934Y-96124934D01*
X126881841Y-96115048D01*
X126893664Y-96106280D01*
X126906290Y-96098712D01*
X126919597Y-96092418D01*
X126933457Y-96087459D01*
X126947736Y-96083882D01*
X126962297Y-96081722D01*
X126977000Y-96081000D01*
X127277000Y-96081000D01*
X127291703Y-96081722D01*
G37*
G36*
X126021703Y-96081722D02*
G01*
X126036264Y-96083882D01*
X126050543Y-96087459D01*
X126064403Y-96092418D01*
X126077710Y-96098712D01*
X126090336Y-96106280D01*
X126102159Y-96115048D01*
X126113066Y-96124934D01*
X126122952Y-96135841D01*
X126131720Y-96147664D01*
X126139288Y-96160290D01*
X126145582Y-96173597D01*
X126150541Y-96187457D01*
X126154118Y-96201736D01*
X126156278Y-96216297D01*
X126157000Y-96231000D01*
X126157000Y-97981000D01*
X126156278Y-97995703D01*
X126154118Y-98010264D01*
X126150541Y-98024543D01*
X126145582Y-98038403D01*
X126139288Y-98051710D01*
X126131720Y-98064336D01*
X126122952Y-98076159D01*
X126113066Y-98087066D01*
X126102159Y-98096952D01*
X126090336Y-98105720D01*
X126077710Y-98113288D01*
X126064403Y-98119582D01*
X126050543Y-98124541D01*
X126036264Y-98128118D01*
X126021703Y-98130278D01*
X126007000Y-98131000D01*
X125707000Y-98131000D01*
X125692297Y-98130278D01*
X125677736Y-98128118D01*
X125663457Y-98124541D01*
X125649597Y-98119582D01*
X125636290Y-98113288D01*
X125623664Y-98105720D01*
X125611841Y-98096952D01*
X125600934Y-98087066D01*
X125591048Y-98076159D01*
X125582280Y-98064336D01*
X125574712Y-98051710D01*
X125568418Y-98038403D01*
X125563459Y-98024543D01*
X125559882Y-98010264D01*
X125557722Y-97995703D01*
X125557000Y-97981000D01*
X125557000Y-96231000D01*
X125557722Y-96216297D01*
X125559882Y-96201736D01*
X125563459Y-96187457D01*
X125568418Y-96173597D01*
X125574712Y-96160290D01*
X125582280Y-96147664D01*
X125591048Y-96135841D01*
X125600934Y-96124934D01*
X125611841Y-96115048D01*
X125623664Y-96106280D01*
X125636290Y-96098712D01*
X125649597Y-96092418D01*
X125663457Y-96087459D01*
X125677736Y-96083882D01*
X125692297Y-96081722D01*
X125707000Y-96081000D01*
X126007000Y-96081000D01*
X126021703Y-96081722D01*
G37*
G36*
X124751703Y-96081722D02*
G01*
X124766264Y-96083882D01*
X124780543Y-96087459D01*
X124794403Y-96092418D01*
X124807710Y-96098712D01*
X124820336Y-96106280D01*
X124832159Y-96115048D01*
X124843066Y-96124934D01*
X124852952Y-96135841D01*
X124861720Y-96147664D01*
X124869288Y-96160290D01*
X124875582Y-96173597D01*
X124880541Y-96187457D01*
X124884118Y-96201736D01*
X124886278Y-96216297D01*
X124887000Y-96231000D01*
X124887000Y-97981000D01*
X124886278Y-97995703D01*
X124884118Y-98010264D01*
X124880541Y-98024543D01*
X124875582Y-98038403D01*
X124869288Y-98051710D01*
X124861720Y-98064336D01*
X124852952Y-98076159D01*
X124843066Y-98087066D01*
X124832159Y-98096952D01*
X124820336Y-98105720D01*
X124807710Y-98113288D01*
X124794403Y-98119582D01*
X124780543Y-98124541D01*
X124766264Y-98128118D01*
X124751703Y-98130278D01*
X124737000Y-98131000D01*
X124437000Y-98131000D01*
X124422297Y-98130278D01*
X124407736Y-98128118D01*
X124393457Y-98124541D01*
X124379597Y-98119582D01*
X124366290Y-98113288D01*
X124353664Y-98105720D01*
X124341841Y-98096952D01*
X124330934Y-98087066D01*
X124321048Y-98076159D01*
X124312280Y-98064336D01*
X124304712Y-98051710D01*
X124298418Y-98038403D01*
X124293459Y-98024543D01*
X124289882Y-98010264D01*
X124287722Y-97995703D01*
X124287000Y-97981000D01*
X124287000Y-96231000D01*
X124287722Y-96216297D01*
X124289882Y-96201736D01*
X124293459Y-96187457D01*
X124298418Y-96173597D01*
X124304712Y-96160290D01*
X124312280Y-96147664D01*
X124321048Y-96135841D01*
X124330934Y-96124934D01*
X124341841Y-96115048D01*
X124353664Y-96106280D01*
X124366290Y-96098712D01*
X124379597Y-96092418D01*
X124393457Y-96087459D01*
X124407736Y-96083882D01*
X124422297Y-96081722D01*
X124437000Y-96081000D01*
X124737000Y-96081000D01*
X124751703Y-96081722D01*
G37*
G36*
X123481703Y-96081722D02*
G01*
X123496264Y-96083882D01*
X123510543Y-96087459D01*
X123524403Y-96092418D01*
X123537710Y-96098712D01*
X123550336Y-96106280D01*
X123562159Y-96115048D01*
X123573066Y-96124934D01*
X123582952Y-96135841D01*
X123591720Y-96147664D01*
X123599288Y-96160290D01*
X123605582Y-96173597D01*
X123610541Y-96187457D01*
X123614118Y-96201736D01*
X123616278Y-96216297D01*
X123617000Y-96231000D01*
X123617000Y-97981000D01*
X123616278Y-97995703D01*
X123614118Y-98010264D01*
X123610541Y-98024543D01*
X123605582Y-98038403D01*
X123599288Y-98051710D01*
X123591720Y-98064336D01*
X123582952Y-98076159D01*
X123573066Y-98087066D01*
X123562159Y-98096952D01*
X123550336Y-98105720D01*
X123537710Y-98113288D01*
X123524403Y-98119582D01*
X123510543Y-98124541D01*
X123496264Y-98128118D01*
X123481703Y-98130278D01*
X123467000Y-98131000D01*
X123167000Y-98131000D01*
X123152297Y-98130278D01*
X123137736Y-98128118D01*
X123123457Y-98124541D01*
X123109597Y-98119582D01*
X123096290Y-98113288D01*
X123083664Y-98105720D01*
X123071841Y-98096952D01*
X123060934Y-98087066D01*
X123051048Y-98076159D01*
X123042280Y-98064336D01*
X123034712Y-98051710D01*
X123028418Y-98038403D01*
X123023459Y-98024543D01*
X123019882Y-98010264D01*
X123017722Y-97995703D01*
X123017000Y-97981000D01*
X123017000Y-96231000D01*
X123017722Y-96216297D01*
X123019882Y-96201736D01*
X123023459Y-96187457D01*
X123028418Y-96173597D01*
X123034712Y-96160290D01*
X123042280Y-96147664D01*
X123051048Y-96135841D01*
X123060934Y-96124934D01*
X123071841Y-96115048D01*
X123083664Y-96106280D01*
X123096290Y-96098712D01*
X123109597Y-96092418D01*
X123123457Y-96087459D01*
X123137736Y-96083882D01*
X123152297Y-96081722D01*
X123167000Y-96081000D01*
X123467000Y-96081000D01*
X123481703Y-96081722D01*
G37*
G36*
X122211703Y-96081722D02*
G01*
X122226264Y-96083882D01*
X122240543Y-96087459D01*
X122254403Y-96092418D01*
X122267710Y-96098712D01*
X122280336Y-96106280D01*
X122292159Y-96115048D01*
X122303066Y-96124934D01*
X122312952Y-96135841D01*
X122321720Y-96147664D01*
X122329288Y-96160290D01*
X122335582Y-96173597D01*
X122340541Y-96187457D01*
X122344118Y-96201736D01*
X122346278Y-96216297D01*
X122347000Y-96231000D01*
X122347000Y-97981000D01*
X122346278Y-97995703D01*
X122344118Y-98010264D01*
X122340541Y-98024543D01*
X122335582Y-98038403D01*
X122329288Y-98051710D01*
X122321720Y-98064336D01*
X122312952Y-98076159D01*
X122303066Y-98087066D01*
X122292159Y-98096952D01*
X122280336Y-98105720D01*
X122267710Y-98113288D01*
X122254403Y-98119582D01*
X122240543Y-98124541D01*
X122226264Y-98128118D01*
X122211703Y-98130278D01*
X122197000Y-98131000D01*
X121897000Y-98131000D01*
X121882297Y-98130278D01*
X121867736Y-98128118D01*
X121853457Y-98124541D01*
X121839597Y-98119582D01*
X121826290Y-98113288D01*
X121813664Y-98105720D01*
X121801841Y-98096952D01*
X121790934Y-98087066D01*
X121781048Y-98076159D01*
X121772280Y-98064336D01*
X121764712Y-98051710D01*
X121758418Y-98038403D01*
X121753459Y-98024543D01*
X121749882Y-98010264D01*
X121747722Y-97995703D01*
X121747000Y-97981000D01*
X121747000Y-96231000D01*
X121747722Y-96216297D01*
X121749882Y-96201736D01*
X121753459Y-96187457D01*
X121758418Y-96173597D01*
X121764712Y-96160290D01*
X121772280Y-96147664D01*
X121781048Y-96135841D01*
X121790934Y-96124934D01*
X121801841Y-96115048D01*
X121813664Y-96106280D01*
X121826290Y-96098712D01*
X121839597Y-96092418D01*
X121853457Y-96087459D01*
X121867736Y-96083882D01*
X121882297Y-96081722D01*
X121897000Y-96081000D01*
X122197000Y-96081000D01*
X122211703Y-96081722D01*
G37*
G36*
X120941703Y-96081722D02*
G01*
X120956264Y-96083882D01*
X120970543Y-96087459D01*
X120984403Y-96092418D01*
X120997710Y-96098712D01*
X121010336Y-96106280D01*
X121022159Y-96115048D01*
X121033066Y-96124934D01*
X121042952Y-96135841D01*
X121051720Y-96147664D01*
X121059288Y-96160290D01*
X121065582Y-96173597D01*
X121070541Y-96187457D01*
X121074118Y-96201736D01*
X121076278Y-96216297D01*
X121077000Y-96231000D01*
X121077000Y-97981000D01*
X121076278Y-97995703D01*
X121074118Y-98010264D01*
X121070541Y-98024543D01*
X121065582Y-98038403D01*
X121059288Y-98051710D01*
X121051720Y-98064336D01*
X121042952Y-98076159D01*
X121033066Y-98087066D01*
X121022159Y-98096952D01*
X121010336Y-98105720D01*
X120997710Y-98113288D01*
X120984403Y-98119582D01*
X120970543Y-98124541D01*
X120956264Y-98128118D01*
X120941703Y-98130278D01*
X120927000Y-98131000D01*
X120627000Y-98131000D01*
X120612297Y-98130278D01*
X120597736Y-98128118D01*
X120583457Y-98124541D01*
X120569597Y-98119582D01*
X120556290Y-98113288D01*
X120543664Y-98105720D01*
X120531841Y-98096952D01*
X120520934Y-98087066D01*
X120511048Y-98076159D01*
X120502280Y-98064336D01*
X120494712Y-98051710D01*
X120488418Y-98038403D01*
X120483459Y-98024543D01*
X120479882Y-98010264D01*
X120477722Y-97995703D01*
X120477000Y-97981000D01*
X120477000Y-96231000D01*
X120477722Y-96216297D01*
X120479882Y-96201736D01*
X120483459Y-96187457D01*
X120488418Y-96173597D01*
X120494712Y-96160290D01*
X120502280Y-96147664D01*
X120511048Y-96135841D01*
X120520934Y-96124934D01*
X120531841Y-96115048D01*
X120543664Y-96106280D01*
X120556290Y-96098712D01*
X120569597Y-96092418D01*
X120583457Y-96087459D01*
X120597736Y-96083882D01*
X120612297Y-96081722D01*
X120627000Y-96081000D01*
X120927000Y-96081000D01*
X120941703Y-96081722D01*
G37*
G36*
X119671703Y-96081722D02*
G01*
X119686264Y-96083882D01*
X119700543Y-96087459D01*
X119714403Y-96092418D01*
X119727710Y-96098712D01*
X119740336Y-96106280D01*
X119752159Y-96115048D01*
X119763066Y-96124934D01*
X119772952Y-96135841D01*
X119781720Y-96147664D01*
X119789288Y-96160290D01*
X119795582Y-96173597D01*
X119800541Y-96187457D01*
X119804118Y-96201736D01*
X119806278Y-96216297D01*
X119807000Y-96231000D01*
X119807000Y-97981000D01*
X119806278Y-97995703D01*
X119804118Y-98010264D01*
X119800541Y-98024543D01*
X119795582Y-98038403D01*
X119789288Y-98051710D01*
X119781720Y-98064336D01*
X119772952Y-98076159D01*
X119763066Y-98087066D01*
X119752159Y-98096952D01*
X119740336Y-98105720D01*
X119727710Y-98113288D01*
X119714403Y-98119582D01*
X119700543Y-98124541D01*
X119686264Y-98128118D01*
X119671703Y-98130278D01*
X119657000Y-98131000D01*
X119357000Y-98131000D01*
X119342297Y-98130278D01*
X119327736Y-98128118D01*
X119313457Y-98124541D01*
X119299597Y-98119582D01*
X119286290Y-98113288D01*
X119273664Y-98105720D01*
X119261841Y-98096952D01*
X119250934Y-98087066D01*
X119241048Y-98076159D01*
X119232280Y-98064336D01*
X119224712Y-98051710D01*
X119218418Y-98038403D01*
X119213459Y-98024543D01*
X119209882Y-98010264D01*
X119207722Y-97995703D01*
X119207000Y-97981000D01*
X119207000Y-96231000D01*
X119207722Y-96216297D01*
X119209882Y-96201736D01*
X119213459Y-96187457D01*
X119218418Y-96173597D01*
X119224712Y-96160290D01*
X119232280Y-96147664D01*
X119241048Y-96135841D01*
X119250934Y-96124934D01*
X119261841Y-96115048D01*
X119273664Y-96106280D01*
X119286290Y-96098712D01*
X119299597Y-96092418D01*
X119313457Y-96087459D01*
X119327736Y-96083882D01*
X119342297Y-96081722D01*
X119357000Y-96081000D01*
X119657000Y-96081000D01*
X119671703Y-96081722D01*
G37*
G36*
X118401703Y-96081722D02*
G01*
X118416264Y-96083882D01*
X118430543Y-96087459D01*
X118444403Y-96092418D01*
X118457710Y-96098712D01*
X118470336Y-96106280D01*
X118482159Y-96115048D01*
X118493066Y-96124934D01*
X118502952Y-96135841D01*
X118511720Y-96147664D01*
X118519288Y-96160290D01*
X118525582Y-96173597D01*
X118530541Y-96187457D01*
X118534118Y-96201736D01*
X118536278Y-96216297D01*
X118537000Y-96231000D01*
X118537000Y-97981000D01*
X118536278Y-97995703D01*
X118534118Y-98010264D01*
X118530541Y-98024543D01*
X118525582Y-98038403D01*
X118519288Y-98051710D01*
X118511720Y-98064336D01*
X118502952Y-98076159D01*
X118493066Y-98087066D01*
X118482159Y-98096952D01*
X118470336Y-98105720D01*
X118457710Y-98113288D01*
X118444403Y-98119582D01*
X118430543Y-98124541D01*
X118416264Y-98128118D01*
X118401703Y-98130278D01*
X118387000Y-98131000D01*
X118087000Y-98131000D01*
X118072297Y-98130278D01*
X118057736Y-98128118D01*
X118043457Y-98124541D01*
X118029597Y-98119582D01*
X118016290Y-98113288D01*
X118003664Y-98105720D01*
X117991841Y-98096952D01*
X117980934Y-98087066D01*
X117971048Y-98076159D01*
X117962280Y-98064336D01*
X117954712Y-98051710D01*
X117948418Y-98038403D01*
X117943459Y-98024543D01*
X117939882Y-98010264D01*
X117937722Y-97995703D01*
X117937000Y-97981000D01*
X117937000Y-96231000D01*
X117937722Y-96216297D01*
X117939882Y-96201736D01*
X117943459Y-96187457D01*
X117948418Y-96173597D01*
X117954712Y-96160290D01*
X117962280Y-96147664D01*
X117971048Y-96135841D01*
X117980934Y-96124934D01*
X117991841Y-96115048D01*
X118003664Y-96106280D01*
X118016290Y-96098712D01*
X118029597Y-96092418D01*
X118043457Y-96087459D01*
X118057736Y-96083882D01*
X118072297Y-96081722D01*
X118087000Y-96081000D01*
X118387000Y-96081000D01*
X118401703Y-96081722D01*
G37*
G36*
X117131703Y-96081722D02*
G01*
X117146264Y-96083882D01*
X117160543Y-96087459D01*
X117174403Y-96092418D01*
X117187710Y-96098712D01*
X117200336Y-96106280D01*
X117212159Y-96115048D01*
X117223066Y-96124934D01*
X117232952Y-96135841D01*
X117241720Y-96147664D01*
X117249288Y-96160290D01*
X117255582Y-96173597D01*
X117260541Y-96187457D01*
X117264118Y-96201736D01*
X117266278Y-96216297D01*
X117267000Y-96231000D01*
X117267000Y-97981000D01*
X117266278Y-97995703D01*
X117264118Y-98010264D01*
X117260541Y-98024543D01*
X117255582Y-98038403D01*
X117249288Y-98051710D01*
X117241720Y-98064336D01*
X117232952Y-98076159D01*
X117223066Y-98087066D01*
X117212159Y-98096952D01*
X117200336Y-98105720D01*
X117187710Y-98113288D01*
X117174403Y-98119582D01*
X117160543Y-98124541D01*
X117146264Y-98128118D01*
X117131703Y-98130278D01*
X117117000Y-98131000D01*
X116817000Y-98131000D01*
X116802297Y-98130278D01*
X116787736Y-98128118D01*
X116773457Y-98124541D01*
X116759597Y-98119582D01*
X116746290Y-98113288D01*
X116733664Y-98105720D01*
X116721841Y-98096952D01*
X116710934Y-98087066D01*
X116701048Y-98076159D01*
X116692280Y-98064336D01*
X116684712Y-98051710D01*
X116678418Y-98038403D01*
X116673459Y-98024543D01*
X116669882Y-98010264D01*
X116667722Y-97995703D01*
X116667000Y-97981000D01*
X116667000Y-96231000D01*
X116667722Y-96216297D01*
X116669882Y-96201736D01*
X116673459Y-96187457D01*
X116678418Y-96173597D01*
X116684712Y-96160290D01*
X116692280Y-96147664D01*
X116701048Y-96135841D01*
X116710934Y-96124934D01*
X116721841Y-96115048D01*
X116733664Y-96106280D01*
X116746290Y-96098712D01*
X116759597Y-96092418D01*
X116773457Y-96087459D01*
X116787736Y-96083882D01*
X116802297Y-96081722D01*
X116817000Y-96081000D01*
X117117000Y-96081000D01*
X117131703Y-96081722D01*
G37*
G36*
X115861703Y-96081722D02*
G01*
X115876264Y-96083882D01*
X115890543Y-96087459D01*
X115904403Y-96092418D01*
X115917710Y-96098712D01*
X115930336Y-96106280D01*
X115942159Y-96115048D01*
X115953066Y-96124934D01*
X115962952Y-96135841D01*
X115971720Y-96147664D01*
X115979288Y-96160290D01*
X115985582Y-96173597D01*
X115990541Y-96187457D01*
X115994118Y-96201736D01*
X115996278Y-96216297D01*
X115997000Y-96231000D01*
X115997000Y-97981000D01*
X115996278Y-97995703D01*
X115994118Y-98010264D01*
X115990541Y-98024543D01*
X115985582Y-98038403D01*
X115979288Y-98051710D01*
X115971720Y-98064336D01*
X115962952Y-98076159D01*
X115953066Y-98087066D01*
X115942159Y-98096952D01*
X115930336Y-98105720D01*
X115917710Y-98113288D01*
X115904403Y-98119582D01*
X115890543Y-98124541D01*
X115876264Y-98128118D01*
X115861703Y-98130278D01*
X115847000Y-98131000D01*
X115547000Y-98131000D01*
X115532297Y-98130278D01*
X115517736Y-98128118D01*
X115503457Y-98124541D01*
X115489597Y-98119582D01*
X115476290Y-98113288D01*
X115463664Y-98105720D01*
X115451841Y-98096952D01*
X115440934Y-98087066D01*
X115431048Y-98076159D01*
X115422280Y-98064336D01*
X115414712Y-98051710D01*
X115408418Y-98038403D01*
X115403459Y-98024543D01*
X115399882Y-98010264D01*
X115397722Y-97995703D01*
X115397000Y-97981000D01*
X115397000Y-96231000D01*
X115397722Y-96216297D01*
X115399882Y-96201736D01*
X115403459Y-96187457D01*
X115408418Y-96173597D01*
X115414712Y-96160290D01*
X115422280Y-96147664D01*
X115431048Y-96135841D01*
X115440934Y-96124934D01*
X115451841Y-96115048D01*
X115463664Y-96106280D01*
X115476290Y-96098712D01*
X115489597Y-96092418D01*
X115503457Y-96087459D01*
X115517736Y-96083882D01*
X115532297Y-96081722D01*
X115547000Y-96081000D01*
X115847000Y-96081000D01*
X115861703Y-96081722D01*
G37*
G04 #@! TD*
G04 #@! TO.C,R12*
G36*
X96162691Y-99969553D02*
G01*
X96183926Y-99972703D01*
X96204750Y-99977919D01*
X96224962Y-99985151D01*
X96244368Y-99994330D01*
X96262781Y-100005366D01*
X96280024Y-100018154D01*
X96295930Y-100032570D01*
X96310346Y-100048476D01*
X96323134Y-100065719D01*
X96334170Y-100084132D01*
X96343349Y-100103538D01*
X96350581Y-100123750D01*
X96355797Y-100144574D01*
X96358947Y-100165809D01*
X96360000Y-100187250D01*
X96360000Y-100624750D01*
X96358947Y-100646191D01*
X96355797Y-100667426D01*
X96350581Y-100688250D01*
X96343349Y-100708462D01*
X96334170Y-100727868D01*
X96323134Y-100746281D01*
X96310346Y-100763524D01*
X96295930Y-100779430D01*
X96280024Y-100793846D01*
X96262781Y-100806634D01*
X96244368Y-100817670D01*
X96224962Y-100826849D01*
X96204750Y-100834081D01*
X96183926Y-100839297D01*
X96162691Y-100842447D01*
X96141250Y-100843500D01*
X95628750Y-100843500D01*
X95607309Y-100842447D01*
X95586074Y-100839297D01*
X95565250Y-100834081D01*
X95545038Y-100826849D01*
X95525632Y-100817670D01*
X95507219Y-100806634D01*
X95489976Y-100793846D01*
X95474070Y-100779430D01*
X95459654Y-100763524D01*
X95446866Y-100746281D01*
X95435830Y-100727868D01*
X95426651Y-100708462D01*
X95419419Y-100688250D01*
X95414203Y-100667426D01*
X95411053Y-100646191D01*
X95410000Y-100624750D01*
X95410000Y-100187250D01*
X95411053Y-100165809D01*
X95414203Y-100144574D01*
X95419419Y-100123750D01*
X95426651Y-100103538D01*
X95435830Y-100084132D01*
X95446866Y-100065719D01*
X95459654Y-100048476D01*
X95474070Y-100032570D01*
X95489976Y-100018154D01*
X95507219Y-100005366D01*
X95525632Y-99994330D01*
X95545038Y-99985151D01*
X95565250Y-99977919D01*
X95586074Y-99972703D01*
X95607309Y-99969553D01*
X95628750Y-99968500D01*
X96141250Y-99968500D01*
X96162691Y-99969553D01*
G37*
G36*
X96162691Y-101544553D02*
G01*
X96183926Y-101547703D01*
X96204750Y-101552919D01*
X96224962Y-101560151D01*
X96244368Y-101569330D01*
X96262781Y-101580366D01*
X96280024Y-101593154D01*
X96295930Y-101607570D01*
X96310346Y-101623476D01*
X96323134Y-101640719D01*
X96334170Y-101659132D01*
X96343349Y-101678538D01*
X96350581Y-101698750D01*
X96355797Y-101719574D01*
X96358947Y-101740809D01*
X96360000Y-101762250D01*
X96360000Y-102199750D01*
X96358947Y-102221191D01*
X96355797Y-102242426D01*
X96350581Y-102263250D01*
X96343349Y-102283462D01*
X96334170Y-102302868D01*
X96323134Y-102321281D01*
X96310346Y-102338524D01*
X96295930Y-102354430D01*
X96280024Y-102368846D01*
X96262781Y-102381634D01*
X96244368Y-102392670D01*
X96224962Y-102401849D01*
X96204750Y-102409081D01*
X96183926Y-102414297D01*
X96162691Y-102417447D01*
X96141250Y-102418500D01*
X95628750Y-102418500D01*
X95607309Y-102417447D01*
X95586074Y-102414297D01*
X95565250Y-102409081D01*
X95545038Y-102401849D01*
X95525632Y-102392670D01*
X95507219Y-102381634D01*
X95489976Y-102368846D01*
X95474070Y-102354430D01*
X95459654Y-102338524D01*
X95446866Y-102321281D01*
X95435830Y-102302868D01*
X95426651Y-102283462D01*
X95419419Y-102263250D01*
X95414203Y-102242426D01*
X95411053Y-102221191D01*
X95410000Y-102199750D01*
X95410000Y-101762250D01*
X95411053Y-101740809D01*
X95414203Y-101719574D01*
X95419419Y-101698750D01*
X95426651Y-101678538D01*
X95435830Y-101659132D01*
X95446866Y-101640719D01*
X95459654Y-101623476D01*
X95474070Y-101607570D01*
X95489976Y-101593154D01*
X95507219Y-101580366D01*
X95525632Y-101569330D01*
X95545038Y-101560151D01*
X95565250Y-101552919D01*
X95586074Y-101547703D01*
X95607309Y-101544553D01*
X95628750Y-101543500D01*
X96141250Y-101543500D01*
X96162691Y-101544553D01*
G37*
G04 #@! TD*
G04 #@! TO.C,R18*
G36*
X127912691Y-98852053D02*
G01*
X127933926Y-98855203D01*
X127954750Y-98860419D01*
X127974962Y-98867651D01*
X127994368Y-98876830D01*
X128012781Y-98887866D01*
X128030024Y-98900654D01*
X128045930Y-98915070D01*
X128060346Y-98930976D01*
X128073134Y-98948219D01*
X128084170Y-98966632D01*
X128093349Y-98986038D01*
X128100581Y-99006250D01*
X128105797Y-99027074D01*
X128108947Y-99048309D01*
X128110000Y-99069750D01*
X128110000Y-99507250D01*
X128108947Y-99528691D01*
X128105797Y-99549926D01*
X128100581Y-99570750D01*
X128093349Y-99590962D01*
X128084170Y-99610368D01*
X128073134Y-99628781D01*
X128060346Y-99646024D01*
X128045930Y-99661930D01*
X128030024Y-99676346D01*
X128012781Y-99689134D01*
X127994368Y-99700170D01*
X127974962Y-99709349D01*
X127954750Y-99716581D01*
X127933926Y-99721797D01*
X127912691Y-99724947D01*
X127891250Y-99726000D01*
X127378750Y-99726000D01*
X127357309Y-99724947D01*
X127336074Y-99721797D01*
X127315250Y-99716581D01*
X127295038Y-99709349D01*
X127275632Y-99700170D01*
X127257219Y-99689134D01*
X127239976Y-99676346D01*
X127224070Y-99661930D01*
X127209654Y-99646024D01*
X127196866Y-99628781D01*
X127185830Y-99610368D01*
X127176651Y-99590962D01*
X127169419Y-99570750D01*
X127164203Y-99549926D01*
X127161053Y-99528691D01*
X127160000Y-99507250D01*
X127160000Y-99069750D01*
X127161053Y-99048309D01*
X127164203Y-99027074D01*
X127169419Y-99006250D01*
X127176651Y-98986038D01*
X127185830Y-98966632D01*
X127196866Y-98948219D01*
X127209654Y-98930976D01*
X127224070Y-98915070D01*
X127239976Y-98900654D01*
X127257219Y-98887866D01*
X127275632Y-98876830D01*
X127295038Y-98867651D01*
X127315250Y-98860419D01*
X127336074Y-98855203D01*
X127357309Y-98852053D01*
X127378750Y-98851000D01*
X127891250Y-98851000D01*
X127912691Y-98852053D01*
G37*
G36*
X127912691Y-100427053D02*
G01*
X127933926Y-100430203D01*
X127954750Y-100435419D01*
X127974962Y-100442651D01*
X127994368Y-100451830D01*
X128012781Y-100462866D01*
X128030024Y-100475654D01*
X128045930Y-100490070D01*
X128060346Y-100505976D01*
X128073134Y-100523219D01*
X128084170Y-100541632D01*
X128093349Y-100561038D01*
X128100581Y-100581250D01*
X128105797Y-100602074D01*
X128108947Y-100623309D01*
X128110000Y-100644750D01*
X128110000Y-101082250D01*
X128108947Y-101103691D01*
X128105797Y-101124926D01*
X128100581Y-101145750D01*
X128093349Y-101165962D01*
X128084170Y-101185368D01*
X128073134Y-101203781D01*
X128060346Y-101221024D01*
X128045930Y-101236930D01*
X128030024Y-101251346D01*
X128012781Y-101264134D01*
X127994368Y-101275170D01*
X127974962Y-101284349D01*
X127954750Y-101291581D01*
X127933926Y-101296797D01*
X127912691Y-101299947D01*
X127891250Y-101301000D01*
X127378750Y-101301000D01*
X127357309Y-101299947D01*
X127336074Y-101296797D01*
X127315250Y-101291581D01*
X127295038Y-101284349D01*
X127275632Y-101275170D01*
X127257219Y-101264134D01*
X127239976Y-101251346D01*
X127224070Y-101236930D01*
X127209654Y-101221024D01*
X127196866Y-101203781D01*
X127185830Y-101185368D01*
X127176651Y-101165962D01*
X127169419Y-101145750D01*
X127164203Y-101124926D01*
X127161053Y-101103691D01*
X127160000Y-101082250D01*
X127160000Y-100644750D01*
X127161053Y-100623309D01*
X127164203Y-100602074D01*
X127169419Y-100581250D01*
X127176651Y-100561038D01*
X127185830Y-100541632D01*
X127196866Y-100523219D01*
X127209654Y-100505976D01*
X127224070Y-100490070D01*
X127239976Y-100475654D01*
X127257219Y-100462866D01*
X127275632Y-100451830D01*
X127295038Y-100442651D01*
X127315250Y-100435419D01*
X127336074Y-100430203D01*
X127357309Y-100427053D01*
X127378750Y-100426000D01*
X127891250Y-100426000D01*
X127912691Y-100427053D01*
G37*
G04 #@! TD*
G04 #@! TO.C,R15*
G36*
X117345691Y-69666053D02*
G01*
X117366926Y-69669203D01*
X117387750Y-69674419D01*
X117407962Y-69681651D01*
X117427368Y-69690830D01*
X117445781Y-69701866D01*
X117463024Y-69714654D01*
X117478930Y-69729070D01*
X117493346Y-69744976D01*
X117506134Y-69762219D01*
X117517170Y-69780632D01*
X117526349Y-69800038D01*
X117533581Y-69820250D01*
X117538797Y-69841074D01*
X117541947Y-69862309D01*
X117543000Y-69883750D01*
X117543000Y-70321250D01*
X117541947Y-70342691D01*
X117538797Y-70363926D01*
X117533581Y-70384750D01*
X117526349Y-70404962D01*
X117517170Y-70424368D01*
X117506134Y-70442781D01*
X117493346Y-70460024D01*
X117478930Y-70475930D01*
X117463024Y-70490346D01*
X117445781Y-70503134D01*
X117427368Y-70514170D01*
X117407962Y-70523349D01*
X117387750Y-70530581D01*
X117366926Y-70535797D01*
X117345691Y-70538947D01*
X117324250Y-70540000D01*
X116811750Y-70540000D01*
X116790309Y-70538947D01*
X116769074Y-70535797D01*
X116748250Y-70530581D01*
X116728038Y-70523349D01*
X116708632Y-70514170D01*
X116690219Y-70503134D01*
X116672976Y-70490346D01*
X116657070Y-70475930D01*
X116642654Y-70460024D01*
X116629866Y-70442781D01*
X116618830Y-70424368D01*
X116609651Y-70404962D01*
X116602419Y-70384750D01*
X116597203Y-70363926D01*
X116594053Y-70342691D01*
X116593000Y-70321250D01*
X116593000Y-69883750D01*
X116594053Y-69862309D01*
X116597203Y-69841074D01*
X116602419Y-69820250D01*
X116609651Y-69800038D01*
X116618830Y-69780632D01*
X116629866Y-69762219D01*
X116642654Y-69744976D01*
X116657070Y-69729070D01*
X116672976Y-69714654D01*
X116690219Y-69701866D01*
X116708632Y-69690830D01*
X116728038Y-69681651D01*
X116748250Y-69674419D01*
X116769074Y-69669203D01*
X116790309Y-69666053D01*
X116811750Y-69665000D01*
X117324250Y-69665000D01*
X117345691Y-69666053D01*
G37*
G36*
X117345691Y-68091053D02*
G01*
X117366926Y-68094203D01*
X117387750Y-68099419D01*
X117407962Y-68106651D01*
X117427368Y-68115830D01*
X117445781Y-68126866D01*
X117463024Y-68139654D01*
X117478930Y-68154070D01*
X117493346Y-68169976D01*
X117506134Y-68187219D01*
X117517170Y-68205632D01*
X117526349Y-68225038D01*
X117533581Y-68245250D01*
X117538797Y-68266074D01*
X117541947Y-68287309D01*
X117543000Y-68308750D01*
X117543000Y-68746250D01*
X117541947Y-68767691D01*
X117538797Y-68788926D01*
X117533581Y-68809750D01*
X117526349Y-68829962D01*
X117517170Y-68849368D01*
X117506134Y-68867781D01*
X117493346Y-68885024D01*
X117478930Y-68900930D01*
X117463024Y-68915346D01*
X117445781Y-68928134D01*
X117427368Y-68939170D01*
X117407962Y-68948349D01*
X117387750Y-68955581D01*
X117366926Y-68960797D01*
X117345691Y-68963947D01*
X117324250Y-68965000D01*
X116811750Y-68965000D01*
X116790309Y-68963947D01*
X116769074Y-68960797D01*
X116748250Y-68955581D01*
X116728038Y-68948349D01*
X116708632Y-68939170D01*
X116690219Y-68928134D01*
X116672976Y-68915346D01*
X116657070Y-68900930D01*
X116642654Y-68885024D01*
X116629866Y-68867781D01*
X116618830Y-68849368D01*
X116609651Y-68829962D01*
X116602419Y-68809750D01*
X116597203Y-68788926D01*
X116594053Y-68767691D01*
X116593000Y-68746250D01*
X116593000Y-68308750D01*
X116594053Y-68287309D01*
X116597203Y-68266074D01*
X116602419Y-68245250D01*
X116609651Y-68225038D01*
X116618830Y-68205632D01*
X116629866Y-68187219D01*
X116642654Y-68169976D01*
X116657070Y-68154070D01*
X116672976Y-68139654D01*
X116690219Y-68126866D01*
X116708632Y-68115830D01*
X116728038Y-68106651D01*
X116748250Y-68099419D01*
X116769074Y-68094203D01*
X116790309Y-68091053D01*
X116811750Y-68090000D01*
X117324250Y-68090000D01*
X117345691Y-68091053D01*
G37*
G04 #@! TD*
G04 #@! TO.C,R10*
G36*
X87027691Y-102101053D02*
G01*
X87048926Y-102104203D01*
X87069750Y-102109419D01*
X87089962Y-102116651D01*
X87109368Y-102125830D01*
X87127781Y-102136866D01*
X87145024Y-102149654D01*
X87160930Y-102164070D01*
X87175346Y-102179976D01*
X87188134Y-102197219D01*
X87199170Y-102215632D01*
X87208349Y-102235038D01*
X87215581Y-102255250D01*
X87220797Y-102276074D01*
X87223947Y-102297309D01*
X87225000Y-102318750D01*
X87225000Y-102756250D01*
X87223947Y-102777691D01*
X87220797Y-102798926D01*
X87215581Y-102819750D01*
X87208349Y-102839962D01*
X87199170Y-102859368D01*
X87188134Y-102877781D01*
X87175346Y-102895024D01*
X87160930Y-102910930D01*
X87145024Y-102925346D01*
X87127781Y-102938134D01*
X87109368Y-102949170D01*
X87089962Y-102958349D01*
X87069750Y-102965581D01*
X87048926Y-102970797D01*
X87027691Y-102973947D01*
X87006250Y-102975000D01*
X86493750Y-102975000D01*
X86472309Y-102973947D01*
X86451074Y-102970797D01*
X86430250Y-102965581D01*
X86410038Y-102958349D01*
X86390632Y-102949170D01*
X86372219Y-102938134D01*
X86354976Y-102925346D01*
X86339070Y-102910930D01*
X86324654Y-102895024D01*
X86311866Y-102877781D01*
X86300830Y-102859368D01*
X86291651Y-102839962D01*
X86284419Y-102819750D01*
X86279203Y-102798926D01*
X86276053Y-102777691D01*
X86275000Y-102756250D01*
X86275000Y-102318750D01*
X86276053Y-102297309D01*
X86279203Y-102276074D01*
X86284419Y-102255250D01*
X86291651Y-102235038D01*
X86300830Y-102215632D01*
X86311866Y-102197219D01*
X86324654Y-102179976D01*
X86339070Y-102164070D01*
X86354976Y-102149654D01*
X86372219Y-102136866D01*
X86390632Y-102125830D01*
X86410038Y-102116651D01*
X86430250Y-102109419D01*
X86451074Y-102104203D01*
X86472309Y-102101053D01*
X86493750Y-102100000D01*
X87006250Y-102100000D01*
X87027691Y-102101053D01*
G37*
G36*
X87027691Y-100526053D02*
G01*
X87048926Y-100529203D01*
X87069750Y-100534419D01*
X87089962Y-100541651D01*
X87109368Y-100550830D01*
X87127781Y-100561866D01*
X87145024Y-100574654D01*
X87160930Y-100589070D01*
X87175346Y-100604976D01*
X87188134Y-100622219D01*
X87199170Y-100640632D01*
X87208349Y-100660038D01*
X87215581Y-100680250D01*
X87220797Y-100701074D01*
X87223947Y-100722309D01*
X87225000Y-100743750D01*
X87225000Y-101181250D01*
X87223947Y-101202691D01*
X87220797Y-101223926D01*
X87215581Y-101244750D01*
X87208349Y-101264962D01*
X87199170Y-101284368D01*
X87188134Y-101302781D01*
X87175346Y-101320024D01*
X87160930Y-101335930D01*
X87145024Y-101350346D01*
X87127781Y-101363134D01*
X87109368Y-101374170D01*
X87089962Y-101383349D01*
X87069750Y-101390581D01*
X87048926Y-101395797D01*
X87027691Y-101398947D01*
X87006250Y-101400000D01*
X86493750Y-101400000D01*
X86472309Y-101398947D01*
X86451074Y-101395797D01*
X86430250Y-101390581D01*
X86410038Y-101383349D01*
X86390632Y-101374170D01*
X86372219Y-101363134D01*
X86354976Y-101350346D01*
X86339070Y-101335930D01*
X86324654Y-101320024D01*
X86311866Y-101302781D01*
X86300830Y-101284368D01*
X86291651Y-101264962D01*
X86284419Y-101244750D01*
X86279203Y-101223926D01*
X86276053Y-101202691D01*
X86275000Y-101181250D01*
X86275000Y-100743750D01*
X86276053Y-100722309D01*
X86279203Y-100701074D01*
X86284419Y-100680250D01*
X86291651Y-100660038D01*
X86300830Y-100640632D01*
X86311866Y-100622219D01*
X86324654Y-100604976D01*
X86339070Y-100589070D01*
X86354976Y-100574654D01*
X86372219Y-100561866D01*
X86390632Y-100550830D01*
X86410038Y-100541651D01*
X86430250Y-100534419D01*
X86451074Y-100529203D01*
X86472309Y-100526053D01*
X86493750Y-100525000D01*
X87006250Y-100525000D01*
X87027691Y-100526053D01*
G37*
G04 #@! TD*
G04 #@! TO.C,R14*
G36*
X119045691Y-69666053D02*
G01*
X119066926Y-69669203D01*
X119087750Y-69674419D01*
X119107962Y-69681651D01*
X119127368Y-69690830D01*
X119145781Y-69701866D01*
X119163024Y-69714654D01*
X119178930Y-69729070D01*
X119193346Y-69744976D01*
X119206134Y-69762219D01*
X119217170Y-69780632D01*
X119226349Y-69800038D01*
X119233581Y-69820250D01*
X119238797Y-69841074D01*
X119241947Y-69862309D01*
X119243000Y-69883750D01*
X119243000Y-70321250D01*
X119241947Y-70342691D01*
X119238797Y-70363926D01*
X119233581Y-70384750D01*
X119226349Y-70404962D01*
X119217170Y-70424368D01*
X119206134Y-70442781D01*
X119193346Y-70460024D01*
X119178930Y-70475930D01*
X119163024Y-70490346D01*
X119145781Y-70503134D01*
X119127368Y-70514170D01*
X119107962Y-70523349D01*
X119087750Y-70530581D01*
X119066926Y-70535797D01*
X119045691Y-70538947D01*
X119024250Y-70540000D01*
X118511750Y-70540000D01*
X118490309Y-70538947D01*
X118469074Y-70535797D01*
X118448250Y-70530581D01*
X118428038Y-70523349D01*
X118408632Y-70514170D01*
X118390219Y-70503134D01*
X118372976Y-70490346D01*
X118357070Y-70475930D01*
X118342654Y-70460024D01*
X118329866Y-70442781D01*
X118318830Y-70424368D01*
X118309651Y-70404962D01*
X118302419Y-70384750D01*
X118297203Y-70363926D01*
X118294053Y-70342691D01*
X118293000Y-70321250D01*
X118293000Y-69883750D01*
X118294053Y-69862309D01*
X118297203Y-69841074D01*
X118302419Y-69820250D01*
X118309651Y-69800038D01*
X118318830Y-69780632D01*
X118329866Y-69762219D01*
X118342654Y-69744976D01*
X118357070Y-69729070D01*
X118372976Y-69714654D01*
X118390219Y-69701866D01*
X118408632Y-69690830D01*
X118428038Y-69681651D01*
X118448250Y-69674419D01*
X118469074Y-69669203D01*
X118490309Y-69666053D01*
X118511750Y-69665000D01*
X119024250Y-69665000D01*
X119045691Y-69666053D01*
G37*
G36*
X119045691Y-68091053D02*
G01*
X119066926Y-68094203D01*
X119087750Y-68099419D01*
X119107962Y-68106651D01*
X119127368Y-68115830D01*
X119145781Y-68126866D01*
X119163024Y-68139654D01*
X119178930Y-68154070D01*
X119193346Y-68169976D01*
X119206134Y-68187219D01*
X119217170Y-68205632D01*
X119226349Y-68225038D01*
X119233581Y-68245250D01*
X119238797Y-68266074D01*
X119241947Y-68287309D01*
X119243000Y-68308750D01*
X119243000Y-68746250D01*
X119241947Y-68767691D01*
X119238797Y-68788926D01*
X119233581Y-68809750D01*
X119226349Y-68829962D01*
X119217170Y-68849368D01*
X119206134Y-68867781D01*
X119193346Y-68885024D01*
X119178930Y-68900930D01*
X119163024Y-68915346D01*
X119145781Y-68928134D01*
X119127368Y-68939170D01*
X119107962Y-68948349D01*
X119087750Y-68955581D01*
X119066926Y-68960797D01*
X119045691Y-68963947D01*
X119024250Y-68965000D01*
X118511750Y-68965000D01*
X118490309Y-68963947D01*
X118469074Y-68960797D01*
X118448250Y-68955581D01*
X118428038Y-68948349D01*
X118408632Y-68939170D01*
X118390219Y-68928134D01*
X118372976Y-68915346D01*
X118357070Y-68900930D01*
X118342654Y-68885024D01*
X118329866Y-68867781D01*
X118318830Y-68849368D01*
X118309651Y-68829962D01*
X118302419Y-68809750D01*
X118297203Y-68788926D01*
X118294053Y-68767691D01*
X118293000Y-68746250D01*
X118293000Y-68308750D01*
X118294053Y-68287309D01*
X118297203Y-68266074D01*
X118302419Y-68245250D01*
X118309651Y-68225038D01*
X118318830Y-68205632D01*
X118329866Y-68187219D01*
X118342654Y-68169976D01*
X118357070Y-68154070D01*
X118372976Y-68139654D01*
X118390219Y-68126866D01*
X118408632Y-68115830D01*
X118428038Y-68106651D01*
X118448250Y-68099419D01*
X118469074Y-68094203D01*
X118490309Y-68091053D01*
X118511750Y-68090000D01*
X119024250Y-68090000D01*
X119045691Y-68091053D01*
G37*
G04 #@! TD*
G04 #@! TO.C,R13*
G36*
X120645691Y-69666053D02*
G01*
X120666926Y-69669203D01*
X120687750Y-69674419D01*
X120707962Y-69681651D01*
X120727368Y-69690830D01*
X120745781Y-69701866D01*
X120763024Y-69714654D01*
X120778930Y-69729070D01*
X120793346Y-69744976D01*
X120806134Y-69762219D01*
X120817170Y-69780632D01*
X120826349Y-69800038D01*
X120833581Y-69820250D01*
X120838797Y-69841074D01*
X120841947Y-69862309D01*
X120843000Y-69883750D01*
X120843000Y-70321250D01*
X120841947Y-70342691D01*
X120838797Y-70363926D01*
X120833581Y-70384750D01*
X120826349Y-70404962D01*
X120817170Y-70424368D01*
X120806134Y-70442781D01*
X120793346Y-70460024D01*
X120778930Y-70475930D01*
X120763024Y-70490346D01*
X120745781Y-70503134D01*
X120727368Y-70514170D01*
X120707962Y-70523349D01*
X120687750Y-70530581D01*
X120666926Y-70535797D01*
X120645691Y-70538947D01*
X120624250Y-70540000D01*
X120111750Y-70540000D01*
X120090309Y-70538947D01*
X120069074Y-70535797D01*
X120048250Y-70530581D01*
X120028038Y-70523349D01*
X120008632Y-70514170D01*
X119990219Y-70503134D01*
X119972976Y-70490346D01*
X119957070Y-70475930D01*
X119942654Y-70460024D01*
X119929866Y-70442781D01*
X119918830Y-70424368D01*
X119909651Y-70404962D01*
X119902419Y-70384750D01*
X119897203Y-70363926D01*
X119894053Y-70342691D01*
X119893000Y-70321250D01*
X119893000Y-69883750D01*
X119894053Y-69862309D01*
X119897203Y-69841074D01*
X119902419Y-69820250D01*
X119909651Y-69800038D01*
X119918830Y-69780632D01*
X119929866Y-69762219D01*
X119942654Y-69744976D01*
X119957070Y-69729070D01*
X119972976Y-69714654D01*
X119990219Y-69701866D01*
X120008632Y-69690830D01*
X120028038Y-69681651D01*
X120048250Y-69674419D01*
X120069074Y-69669203D01*
X120090309Y-69666053D01*
X120111750Y-69665000D01*
X120624250Y-69665000D01*
X120645691Y-69666053D01*
G37*
G36*
X120645691Y-68091053D02*
G01*
X120666926Y-68094203D01*
X120687750Y-68099419D01*
X120707962Y-68106651D01*
X120727368Y-68115830D01*
X120745781Y-68126866D01*
X120763024Y-68139654D01*
X120778930Y-68154070D01*
X120793346Y-68169976D01*
X120806134Y-68187219D01*
X120817170Y-68205632D01*
X120826349Y-68225038D01*
X120833581Y-68245250D01*
X120838797Y-68266074D01*
X120841947Y-68287309D01*
X120843000Y-68308750D01*
X120843000Y-68746250D01*
X120841947Y-68767691D01*
X120838797Y-68788926D01*
X120833581Y-68809750D01*
X120826349Y-68829962D01*
X120817170Y-68849368D01*
X120806134Y-68867781D01*
X120793346Y-68885024D01*
X120778930Y-68900930D01*
X120763024Y-68915346D01*
X120745781Y-68928134D01*
X120727368Y-68939170D01*
X120707962Y-68948349D01*
X120687750Y-68955581D01*
X120666926Y-68960797D01*
X120645691Y-68963947D01*
X120624250Y-68965000D01*
X120111750Y-68965000D01*
X120090309Y-68963947D01*
X120069074Y-68960797D01*
X120048250Y-68955581D01*
X120028038Y-68948349D01*
X120008632Y-68939170D01*
X119990219Y-68928134D01*
X119972976Y-68915346D01*
X119957070Y-68900930D01*
X119942654Y-68885024D01*
X119929866Y-68867781D01*
X119918830Y-68849368D01*
X119909651Y-68829962D01*
X119902419Y-68809750D01*
X119897203Y-68788926D01*
X119894053Y-68767691D01*
X119893000Y-68746250D01*
X119893000Y-68308750D01*
X119894053Y-68287309D01*
X119897203Y-68266074D01*
X119902419Y-68245250D01*
X119909651Y-68225038D01*
X119918830Y-68205632D01*
X119929866Y-68187219D01*
X119942654Y-68169976D01*
X119957070Y-68154070D01*
X119972976Y-68139654D01*
X119990219Y-68126866D01*
X120008632Y-68115830D01*
X120028038Y-68106651D01*
X120048250Y-68099419D01*
X120069074Y-68094203D01*
X120090309Y-68091053D01*
X120111750Y-68090000D01*
X120624250Y-68090000D01*
X120645691Y-68091053D01*
G37*
G04 #@! TD*
G04 #@! TO.C,D5*
G36*
X96162691Y-105253053D02*
G01*
X96183926Y-105256203D01*
X96204750Y-105261419D01*
X96224962Y-105268651D01*
X96244368Y-105277830D01*
X96262781Y-105288866D01*
X96280024Y-105301654D01*
X96295930Y-105316070D01*
X96310346Y-105331976D01*
X96323134Y-105349219D01*
X96334170Y-105367632D01*
X96343349Y-105387038D01*
X96350581Y-105407250D01*
X96355797Y-105428074D01*
X96358947Y-105449309D01*
X96360000Y-105470750D01*
X96360000Y-105908250D01*
X96358947Y-105929691D01*
X96355797Y-105950926D01*
X96350581Y-105971750D01*
X96343349Y-105991962D01*
X96334170Y-106011368D01*
X96323134Y-106029781D01*
X96310346Y-106047024D01*
X96295930Y-106062930D01*
X96280024Y-106077346D01*
X96262781Y-106090134D01*
X96244368Y-106101170D01*
X96224962Y-106110349D01*
X96204750Y-106117581D01*
X96183926Y-106122797D01*
X96162691Y-106125947D01*
X96141250Y-106127000D01*
X95628750Y-106127000D01*
X95607309Y-106125947D01*
X95586074Y-106122797D01*
X95565250Y-106117581D01*
X95545038Y-106110349D01*
X95525632Y-106101170D01*
X95507219Y-106090134D01*
X95489976Y-106077346D01*
X95474070Y-106062930D01*
X95459654Y-106047024D01*
X95446866Y-106029781D01*
X95435830Y-106011368D01*
X95426651Y-105991962D01*
X95419419Y-105971750D01*
X95414203Y-105950926D01*
X95411053Y-105929691D01*
X95410000Y-105908250D01*
X95410000Y-105470750D01*
X95411053Y-105449309D01*
X95414203Y-105428074D01*
X95419419Y-105407250D01*
X95426651Y-105387038D01*
X95435830Y-105367632D01*
X95446866Y-105349219D01*
X95459654Y-105331976D01*
X95474070Y-105316070D01*
X95489976Y-105301654D01*
X95507219Y-105288866D01*
X95525632Y-105277830D01*
X95545038Y-105268651D01*
X95565250Y-105261419D01*
X95586074Y-105256203D01*
X95607309Y-105253053D01*
X95628750Y-105252000D01*
X96141250Y-105252000D01*
X96162691Y-105253053D01*
G37*
G36*
X96162691Y-103678053D02*
G01*
X96183926Y-103681203D01*
X96204750Y-103686419D01*
X96224962Y-103693651D01*
X96244368Y-103702830D01*
X96262781Y-103713866D01*
X96280024Y-103726654D01*
X96295930Y-103741070D01*
X96310346Y-103756976D01*
X96323134Y-103774219D01*
X96334170Y-103792632D01*
X96343349Y-103812038D01*
X96350581Y-103832250D01*
X96355797Y-103853074D01*
X96358947Y-103874309D01*
X96360000Y-103895750D01*
X96360000Y-104333250D01*
X96358947Y-104354691D01*
X96355797Y-104375926D01*
X96350581Y-104396750D01*
X96343349Y-104416962D01*
X96334170Y-104436368D01*
X96323134Y-104454781D01*
X96310346Y-104472024D01*
X96295930Y-104487930D01*
X96280024Y-104502346D01*
X96262781Y-104515134D01*
X96244368Y-104526170D01*
X96224962Y-104535349D01*
X96204750Y-104542581D01*
X96183926Y-104547797D01*
X96162691Y-104550947D01*
X96141250Y-104552000D01*
X95628750Y-104552000D01*
X95607309Y-104550947D01*
X95586074Y-104547797D01*
X95565250Y-104542581D01*
X95545038Y-104535349D01*
X95525632Y-104526170D01*
X95507219Y-104515134D01*
X95489976Y-104502346D01*
X95474070Y-104487930D01*
X95459654Y-104472024D01*
X95446866Y-104454781D01*
X95435830Y-104436368D01*
X95426651Y-104416962D01*
X95419419Y-104396750D01*
X95414203Y-104375926D01*
X95411053Y-104354691D01*
X95410000Y-104333250D01*
X95410000Y-103895750D01*
X95411053Y-103874309D01*
X95414203Y-103853074D01*
X95419419Y-103832250D01*
X95426651Y-103812038D01*
X95435830Y-103792632D01*
X95446866Y-103774219D01*
X95459654Y-103756976D01*
X95474070Y-103741070D01*
X95489976Y-103726654D01*
X95507219Y-103713866D01*
X95525632Y-103702830D01*
X95545038Y-103693651D01*
X95565250Y-103686419D01*
X95586074Y-103681203D01*
X95607309Y-103678053D01*
X95628750Y-103677000D01*
X96141250Y-103677000D01*
X96162691Y-103678053D01*
G37*
G04 #@! TD*
G04 #@! TO.C,C1*
G36*
X126134691Y-98852053D02*
G01*
X126155926Y-98855203D01*
X126176750Y-98860419D01*
X126196962Y-98867651D01*
X126216368Y-98876830D01*
X126234781Y-98887866D01*
X126252024Y-98900654D01*
X126267930Y-98915070D01*
X126282346Y-98930976D01*
X126295134Y-98948219D01*
X126306170Y-98966632D01*
X126315349Y-98986038D01*
X126322581Y-99006250D01*
X126327797Y-99027074D01*
X126330947Y-99048309D01*
X126332000Y-99069750D01*
X126332000Y-99507250D01*
X126330947Y-99528691D01*
X126327797Y-99549926D01*
X126322581Y-99570750D01*
X126315349Y-99590962D01*
X126306170Y-99610368D01*
X126295134Y-99628781D01*
X126282346Y-99646024D01*
X126267930Y-99661930D01*
X126252024Y-99676346D01*
X126234781Y-99689134D01*
X126216368Y-99700170D01*
X126196962Y-99709349D01*
X126176750Y-99716581D01*
X126155926Y-99721797D01*
X126134691Y-99724947D01*
X126113250Y-99726000D01*
X125600750Y-99726000D01*
X125579309Y-99724947D01*
X125558074Y-99721797D01*
X125537250Y-99716581D01*
X125517038Y-99709349D01*
X125497632Y-99700170D01*
X125479219Y-99689134D01*
X125461976Y-99676346D01*
X125446070Y-99661930D01*
X125431654Y-99646024D01*
X125418866Y-99628781D01*
X125407830Y-99610368D01*
X125398651Y-99590962D01*
X125391419Y-99570750D01*
X125386203Y-99549926D01*
X125383053Y-99528691D01*
X125382000Y-99507250D01*
X125382000Y-99069750D01*
X125383053Y-99048309D01*
X125386203Y-99027074D01*
X125391419Y-99006250D01*
X125398651Y-98986038D01*
X125407830Y-98966632D01*
X125418866Y-98948219D01*
X125431654Y-98930976D01*
X125446070Y-98915070D01*
X125461976Y-98900654D01*
X125479219Y-98887866D01*
X125497632Y-98876830D01*
X125517038Y-98867651D01*
X125537250Y-98860419D01*
X125558074Y-98855203D01*
X125579309Y-98852053D01*
X125600750Y-98851000D01*
X126113250Y-98851000D01*
X126134691Y-98852053D01*
G37*
G36*
X126134691Y-100427053D02*
G01*
X126155926Y-100430203D01*
X126176750Y-100435419D01*
X126196962Y-100442651D01*
X126216368Y-100451830D01*
X126234781Y-100462866D01*
X126252024Y-100475654D01*
X126267930Y-100490070D01*
X126282346Y-100505976D01*
X126295134Y-100523219D01*
X126306170Y-100541632D01*
X126315349Y-100561038D01*
X126322581Y-100581250D01*
X126327797Y-100602074D01*
X126330947Y-100623309D01*
X126332000Y-100644750D01*
X126332000Y-101082250D01*
X126330947Y-101103691D01*
X126327797Y-101124926D01*
X126322581Y-101145750D01*
X126315349Y-101165962D01*
X126306170Y-101185368D01*
X126295134Y-101203781D01*
X126282346Y-101221024D01*
X126267930Y-101236930D01*
X126252024Y-101251346D01*
X126234781Y-101264134D01*
X126216368Y-101275170D01*
X126196962Y-101284349D01*
X126176750Y-101291581D01*
X126155926Y-101296797D01*
X126134691Y-101299947D01*
X126113250Y-101301000D01*
X125600750Y-101301000D01*
X125579309Y-101299947D01*
X125558074Y-101296797D01*
X125537250Y-101291581D01*
X125517038Y-101284349D01*
X125497632Y-101275170D01*
X125479219Y-101264134D01*
X125461976Y-101251346D01*
X125446070Y-101236930D01*
X125431654Y-101221024D01*
X125418866Y-101203781D01*
X125407830Y-101185368D01*
X125398651Y-101165962D01*
X125391419Y-101145750D01*
X125386203Y-101124926D01*
X125383053Y-101103691D01*
X125382000Y-101082250D01*
X125382000Y-100644750D01*
X125383053Y-100623309D01*
X125386203Y-100602074D01*
X125391419Y-100581250D01*
X125398651Y-100561038D01*
X125407830Y-100541632D01*
X125418866Y-100523219D01*
X125431654Y-100505976D01*
X125446070Y-100490070D01*
X125461976Y-100475654D01*
X125479219Y-100462866D01*
X125497632Y-100451830D01*
X125517038Y-100442651D01*
X125537250Y-100435419D01*
X125558074Y-100430203D01*
X125579309Y-100427053D01*
X125600750Y-100426000D01*
X126113250Y-100426000D01*
X126134691Y-100427053D01*
G37*
G04 #@! TD*
G04 #@! TO.C,R17*
G36*
X111275691Y-80615053D02*
G01*
X111296926Y-80618203D01*
X111317750Y-80623419D01*
X111337962Y-80630651D01*
X111357368Y-80639830D01*
X111375781Y-80650866D01*
X111393024Y-80663654D01*
X111408930Y-80678070D01*
X111423346Y-80693976D01*
X111436134Y-80711219D01*
X111447170Y-80729632D01*
X111456349Y-80749038D01*
X111463581Y-80769250D01*
X111468797Y-80790074D01*
X111471947Y-80811309D01*
X111473000Y-80832750D01*
X111473000Y-81270250D01*
X111471947Y-81291691D01*
X111468797Y-81312926D01*
X111463581Y-81333750D01*
X111456349Y-81353962D01*
X111447170Y-81373368D01*
X111436134Y-81391781D01*
X111423346Y-81409024D01*
X111408930Y-81424930D01*
X111393024Y-81439346D01*
X111375781Y-81452134D01*
X111357368Y-81463170D01*
X111337962Y-81472349D01*
X111317750Y-81479581D01*
X111296926Y-81484797D01*
X111275691Y-81487947D01*
X111254250Y-81489000D01*
X110741750Y-81489000D01*
X110720309Y-81487947D01*
X110699074Y-81484797D01*
X110678250Y-81479581D01*
X110658038Y-81472349D01*
X110638632Y-81463170D01*
X110620219Y-81452134D01*
X110602976Y-81439346D01*
X110587070Y-81424930D01*
X110572654Y-81409024D01*
X110559866Y-81391781D01*
X110548830Y-81373368D01*
X110539651Y-81353962D01*
X110532419Y-81333750D01*
X110527203Y-81312926D01*
X110524053Y-81291691D01*
X110523000Y-81270250D01*
X110523000Y-80832750D01*
X110524053Y-80811309D01*
X110527203Y-80790074D01*
X110532419Y-80769250D01*
X110539651Y-80749038D01*
X110548830Y-80729632D01*
X110559866Y-80711219D01*
X110572654Y-80693976D01*
X110587070Y-80678070D01*
X110602976Y-80663654D01*
X110620219Y-80650866D01*
X110638632Y-80639830D01*
X110658038Y-80630651D01*
X110678250Y-80623419D01*
X110699074Y-80618203D01*
X110720309Y-80615053D01*
X110741750Y-80614000D01*
X111254250Y-80614000D01*
X111275691Y-80615053D01*
G37*
G36*
X111275691Y-79040053D02*
G01*
X111296926Y-79043203D01*
X111317750Y-79048419D01*
X111337962Y-79055651D01*
X111357368Y-79064830D01*
X111375781Y-79075866D01*
X111393024Y-79088654D01*
X111408930Y-79103070D01*
X111423346Y-79118976D01*
X111436134Y-79136219D01*
X111447170Y-79154632D01*
X111456349Y-79174038D01*
X111463581Y-79194250D01*
X111468797Y-79215074D01*
X111471947Y-79236309D01*
X111473000Y-79257750D01*
X111473000Y-79695250D01*
X111471947Y-79716691D01*
X111468797Y-79737926D01*
X111463581Y-79758750D01*
X111456349Y-79778962D01*
X111447170Y-79798368D01*
X111436134Y-79816781D01*
X111423346Y-79834024D01*
X111408930Y-79849930D01*
X111393024Y-79864346D01*
X111375781Y-79877134D01*
X111357368Y-79888170D01*
X111337962Y-79897349D01*
X111317750Y-79904581D01*
X111296926Y-79909797D01*
X111275691Y-79912947D01*
X111254250Y-79914000D01*
X110741750Y-79914000D01*
X110720309Y-79912947D01*
X110699074Y-79909797D01*
X110678250Y-79904581D01*
X110658038Y-79897349D01*
X110638632Y-79888170D01*
X110620219Y-79877134D01*
X110602976Y-79864346D01*
X110587070Y-79849930D01*
X110572654Y-79834024D01*
X110559866Y-79816781D01*
X110548830Y-79798368D01*
X110539651Y-79778962D01*
X110532419Y-79758750D01*
X110527203Y-79737926D01*
X110524053Y-79716691D01*
X110523000Y-79695250D01*
X110523000Y-79257750D01*
X110524053Y-79236309D01*
X110527203Y-79215074D01*
X110532419Y-79194250D01*
X110539651Y-79174038D01*
X110548830Y-79154632D01*
X110559866Y-79136219D01*
X110572654Y-79118976D01*
X110587070Y-79103070D01*
X110602976Y-79088654D01*
X110620219Y-79075866D01*
X110638632Y-79064830D01*
X110658038Y-79055651D01*
X110678250Y-79048419D01*
X110699074Y-79043203D01*
X110720309Y-79040053D01*
X110741750Y-79039000D01*
X111254250Y-79039000D01*
X111275691Y-79040053D01*
G37*
G04 #@! TD*
D13*
G04 #@! TO.C,U2*
X115697000Y-77503000D03*
X116967000Y-77503000D03*
X118237000Y-77503000D03*
X119507000Y-77503000D03*
X119507000Y-72103000D03*
X118237000Y-72103000D03*
X116967000Y-72103000D03*
X115697000Y-72103000D03*
G04 #@! TD*
D14*
G04 #@! TO.C,Q1*
X93279000Y-103648000D03*
X91379000Y-103648000D03*
X92329000Y-105648000D03*
G04 #@! TD*
D15*
G04 #@! TO.C,Q2*
X92263000Y-98976000D03*
X91313000Y-98976000D03*
X90363000Y-98976000D03*
X90363000Y-101176000D03*
X92263000Y-101176000D03*
X91313000Y-101176000D03*
G04 #@! TD*
M02*
