G04 #@! TF.GenerationSoftware,KiCad,Pcbnew,(5.1.5)-3*
G04 #@! TF.CreationDate,2020-03-21T12:50:03-04:00*
G04 #@! TF.ProjectId,Zynth-encoder_power_display_fan,5a796e74-682d-4656-9e63-6f6465725f70,rev?*
G04 #@! TF.SameCoordinates,Original*
G04 #@! TF.FileFunction,Soldermask,Top*
G04 #@! TF.FilePolarity,Negative*
%FSLAX46Y46*%
G04 Gerber Fmt 4.6, Leading zero omitted, Abs format (unit mm)*
G04 Created by KiCad (PCBNEW (5.1.5)-3) date 2020-03-21 12:50:03*
%MOMM*%
%LPD*%
G04 APERTURE LIST*
%ADD10C,0.150000*%
%ADD11R,6.000000X6.600000*%
%ADD12R,1.400000X2.400000*%
%ADD13O,1.900000X2.150000*%
%ADD14O,2.150000X1.900000*%
%ADD15O,1.900000X2.200000*%
%ADD16O,2.200000X1.900000*%
%ADD17C,3.200000*%
%ADD18R,1.700000X1.200000*%
%ADD19R,1.200000X1.700000*%
%ADD20C,3.700120*%
%ADD21R,3.700120X3.700120*%
%ADD22R,1.900000X1.900000*%
%ADD23O,1.900000X1.900000*%
%ADD24R,0.800000X1.750000*%
%ADD25R,1.000000X1.100000*%
%ADD26R,0.850000X1.260000*%
G04 APERTURE END LIST*
D10*
G04 #@! TO.C,R20*
G36*
X131269592Y-98777794D02*
G01*
X131295681Y-98781664D01*
X131321264Y-98788072D01*
X131346096Y-98796957D01*
X131369938Y-98808234D01*
X131392560Y-98821793D01*
X131413743Y-98837503D01*
X131433285Y-98855215D01*
X131450997Y-98874757D01*
X131466707Y-98895940D01*
X131480266Y-98918562D01*
X131491543Y-98942404D01*
X131500428Y-98967236D01*
X131506836Y-98992819D01*
X131510706Y-99018908D01*
X131512000Y-99045250D01*
X131512000Y-99582750D01*
X131510706Y-99609092D01*
X131506836Y-99635181D01*
X131500428Y-99660764D01*
X131491543Y-99685596D01*
X131480266Y-99709438D01*
X131466707Y-99732060D01*
X131450997Y-99753243D01*
X131433285Y-99772785D01*
X131413743Y-99790497D01*
X131392560Y-99806207D01*
X131369938Y-99819766D01*
X131346096Y-99831043D01*
X131321264Y-99839928D01*
X131295681Y-99846336D01*
X131269592Y-99850206D01*
X131243250Y-99851500D01*
X130630750Y-99851500D01*
X130604408Y-99850206D01*
X130578319Y-99846336D01*
X130552736Y-99839928D01*
X130527904Y-99831043D01*
X130504062Y-99819766D01*
X130481440Y-99806207D01*
X130460257Y-99790497D01*
X130440715Y-99772785D01*
X130423003Y-99753243D01*
X130407293Y-99732060D01*
X130393734Y-99709438D01*
X130382457Y-99685596D01*
X130373572Y-99660764D01*
X130367164Y-99635181D01*
X130363294Y-99609092D01*
X130362000Y-99582750D01*
X130362000Y-99045250D01*
X130363294Y-99018908D01*
X130367164Y-98992819D01*
X130373572Y-98967236D01*
X130382457Y-98942404D01*
X130393734Y-98918562D01*
X130407293Y-98895940D01*
X130423003Y-98874757D01*
X130440715Y-98855215D01*
X130460257Y-98837503D01*
X130481440Y-98821793D01*
X130504062Y-98808234D01*
X130527904Y-98796957D01*
X130552736Y-98788072D01*
X130578319Y-98781664D01*
X130604408Y-98777794D01*
X130630750Y-98776500D01*
X131243250Y-98776500D01*
X131269592Y-98777794D01*
G37*
G36*
X131269592Y-100352794D02*
G01*
X131295681Y-100356664D01*
X131321264Y-100363072D01*
X131346096Y-100371957D01*
X131369938Y-100383234D01*
X131392560Y-100396793D01*
X131413743Y-100412503D01*
X131433285Y-100430215D01*
X131450997Y-100449757D01*
X131466707Y-100470940D01*
X131480266Y-100493562D01*
X131491543Y-100517404D01*
X131500428Y-100542236D01*
X131506836Y-100567819D01*
X131510706Y-100593908D01*
X131512000Y-100620250D01*
X131512000Y-101157750D01*
X131510706Y-101184092D01*
X131506836Y-101210181D01*
X131500428Y-101235764D01*
X131491543Y-101260596D01*
X131480266Y-101284438D01*
X131466707Y-101307060D01*
X131450997Y-101328243D01*
X131433285Y-101347785D01*
X131413743Y-101365497D01*
X131392560Y-101381207D01*
X131369938Y-101394766D01*
X131346096Y-101406043D01*
X131321264Y-101414928D01*
X131295681Y-101421336D01*
X131269592Y-101425206D01*
X131243250Y-101426500D01*
X130630750Y-101426500D01*
X130604408Y-101425206D01*
X130578319Y-101421336D01*
X130552736Y-101414928D01*
X130527904Y-101406043D01*
X130504062Y-101394766D01*
X130481440Y-101381207D01*
X130460257Y-101365497D01*
X130440715Y-101347785D01*
X130423003Y-101328243D01*
X130407293Y-101307060D01*
X130393734Y-101284438D01*
X130382457Y-101260596D01*
X130373572Y-101235764D01*
X130367164Y-101210181D01*
X130363294Y-101184092D01*
X130362000Y-101157750D01*
X130362000Y-100620250D01*
X130363294Y-100593908D01*
X130367164Y-100567819D01*
X130373572Y-100542236D01*
X130382457Y-100517404D01*
X130393734Y-100493562D01*
X130407293Y-100470940D01*
X130423003Y-100449757D01*
X130440715Y-100430215D01*
X130460257Y-100412503D01*
X130481440Y-100396793D01*
X130504062Y-100383234D01*
X130527904Y-100371957D01*
X130552736Y-100363072D01*
X130578319Y-100356664D01*
X130604408Y-100352794D01*
X130630750Y-100351500D01*
X131243250Y-100351500D01*
X131269592Y-100352794D01*
G37*
G04 #@! TD*
G04 #@! TO.C,R16*
G36*
X109259743Y-76147314D02*
G01*
X109288258Y-76151544D01*
X109316221Y-76158549D01*
X109343363Y-76168260D01*
X109369423Y-76180586D01*
X109394149Y-76195406D01*
X109417303Y-76212578D01*
X109438663Y-76231937D01*
X109458022Y-76253297D01*
X109475194Y-76276451D01*
X109490014Y-76301177D01*
X109502340Y-76327237D01*
X109512051Y-76354379D01*
X109519056Y-76382342D01*
X109523286Y-76410857D01*
X109524700Y-76439650D01*
X109524700Y-77027150D01*
X109523286Y-77055943D01*
X109519056Y-77084458D01*
X109512051Y-77112421D01*
X109502340Y-77139563D01*
X109490014Y-77165623D01*
X109475194Y-77190349D01*
X109458022Y-77213503D01*
X109438663Y-77234863D01*
X109417303Y-77254222D01*
X109394149Y-77271394D01*
X109369423Y-77286214D01*
X109343363Y-77298540D01*
X109316221Y-77308251D01*
X109288258Y-77315256D01*
X109259743Y-77319486D01*
X109230950Y-77320900D01*
X108218450Y-77320900D01*
X108189657Y-77319486D01*
X108161142Y-77315256D01*
X108133179Y-77308251D01*
X108106037Y-77298540D01*
X108079977Y-77286214D01*
X108055251Y-77271394D01*
X108032097Y-77254222D01*
X108010737Y-77234863D01*
X107991378Y-77213503D01*
X107974206Y-77190349D01*
X107959386Y-77165623D01*
X107947060Y-77139563D01*
X107937349Y-77112421D01*
X107930344Y-77084458D01*
X107926114Y-77055943D01*
X107924700Y-77027150D01*
X107924700Y-76439650D01*
X107926114Y-76410857D01*
X107930344Y-76382342D01*
X107937349Y-76354379D01*
X107947060Y-76327237D01*
X107959386Y-76301177D01*
X107974206Y-76276451D01*
X107991378Y-76253297D01*
X108010737Y-76231937D01*
X108032097Y-76212578D01*
X108055251Y-76195406D01*
X108079977Y-76180586D01*
X108106037Y-76168260D01*
X108133179Y-76158549D01*
X108161142Y-76151544D01*
X108189657Y-76147314D01*
X108218450Y-76145900D01*
X109230950Y-76145900D01*
X109259743Y-76147314D01*
G37*
G36*
X109259743Y-74272314D02*
G01*
X109288258Y-74276544D01*
X109316221Y-74283549D01*
X109343363Y-74293260D01*
X109369423Y-74305586D01*
X109394149Y-74320406D01*
X109417303Y-74337578D01*
X109438663Y-74356937D01*
X109458022Y-74378297D01*
X109475194Y-74401451D01*
X109490014Y-74426177D01*
X109502340Y-74452237D01*
X109512051Y-74479379D01*
X109519056Y-74507342D01*
X109523286Y-74535857D01*
X109524700Y-74564650D01*
X109524700Y-75152150D01*
X109523286Y-75180943D01*
X109519056Y-75209458D01*
X109512051Y-75237421D01*
X109502340Y-75264563D01*
X109490014Y-75290623D01*
X109475194Y-75315349D01*
X109458022Y-75338503D01*
X109438663Y-75359863D01*
X109417303Y-75379222D01*
X109394149Y-75396394D01*
X109369423Y-75411214D01*
X109343363Y-75423540D01*
X109316221Y-75433251D01*
X109288258Y-75440256D01*
X109259743Y-75444486D01*
X109230950Y-75445900D01*
X108218450Y-75445900D01*
X108189657Y-75444486D01*
X108161142Y-75440256D01*
X108133179Y-75433251D01*
X108106037Y-75423540D01*
X108079977Y-75411214D01*
X108055251Y-75396394D01*
X108032097Y-75379222D01*
X108010737Y-75359863D01*
X107991378Y-75338503D01*
X107974206Y-75315349D01*
X107959386Y-75290623D01*
X107947060Y-75264563D01*
X107937349Y-75237421D01*
X107930344Y-75209458D01*
X107926114Y-75180943D01*
X107924700Y-75152150D01*
X107924700Y-74564650D01*
X107926114Y-74535857D01*
X107930344Y-74507342D01*
X107937349Y-74479379D01*
X107947060Y-74452237D01*
X107959386Y-74426177D01*
X107974206Y-74401451D01*
X107991378Y-74378297D01*
X108010737Y-74356937D01*
X108032097Y-74337578D01*
X108055251Y-74320406D01*
X108079977Y-74305586D01*
X108106037Y-74293260D01*
X108133179Y-74283549D01*
X108161142Y-74276544D01*
X108189657Y-74272314D01*
X108218450Y-74270900D01*
X109230950Y-74270900D01*
X109259743Y-74272314D01*
G37*
G04 #@! TD*
G04 #@! TO.C,R11*
G36*
X94566592Y-99869794D02*
G01*
X94592681Y-99873664D01*
X94618264Y-99880072D01*
X94643096Y-99888957D01*
X94666938Y-99900234D01*
X94689560Y-99913793D01*
X94710743Y-99929503D01*
X94730285Y-99947215D01*
X94747997Y-99966757D01*
X94763707Y-99987940D01*
X94777266Y-100010562D01*
X94788543Y-100034404D01*
X94797428Y-100059236D01*
X94803836Y-100084819D01*
X94807706Y-100110908D01*
X94809000Y-100137250D01*
X94809000Y-100674750D01*
X94807706Y-100701092D01*
X94803836Y-100727181D01*
X94797428Y-100752764D01*
X94788543Y-100777596D01*
X94777266Y-100801438D01*
X94763707Y-100824060D01*
X94747997Y-100845243D01*
X94730285Y-100864785D01*
X94710743Y-100882497D01*
X94689560Y-100898207D01*
X94666938Y-100911766D01*
X94643096Y-100923043D01*
X94618264Y-100931928D01*
X94592681Y-100938336D01*
X94566592Y-100942206D01*
X94540250Y-100943500D01*
X93927750Y-100943500D01*
X93901408Y-100942206D01*
X93875319Y-100938336D01*
X93849736Y-100931928D01*
X93824904Y-100923043D01*
X93801062Y-100911766D01*
X93778440Y-100898207D01*
X93757257Y-100882497D01*
X93737715Y-100864785D01*
X93720003Y-100845243D01*
X93704293Y-100824060D01*
X93690734Y-100801438D01*
X93679457Y-100777596D01*
X93670572Y-100752764D01*
X93664164Y-100727181D01*
X93660294Y-100701092D01*
X93659000Y-100674750D01*
X93659000Y-100137250D01*
X93660294Y-100110908D01*
X93664164Y-100084819D01*
X93670572Y-100059236D01*
X93679457Y-100034404D01*
X93690734Y-100010562D01*
X93704293Y-99987940D01*
X93720003Y-99966757D01*
X93737715Y-99947215D01*
X93757257Y-99929503D01*
X93778440Y-99913793D01*
X93801062Y-99900234D01*
X93824904Y-99888957D01*
X93849736Y-99880072D01*
X93875319Y-99873664D01*
X93901408Y-99869794D01*
X93927750Y-99868500D01*
X94540250Y-99868500D01*
X94566592Y-99869794D01*
G37*
G36*
X94566592Y-101444794D02*
G01*
X94592681Y-101448664D01*
X94618264Y-101455072D01*
X94643096Y-101463957D01*
X94666938Y-101475234D01*
X94689560Y-101488793D01*
X94710743Y-101504503D01*
X94730285Y-101522215D01*
X94747997Y-101541757D01*
X94763707Y-101562940D01*
X94777266Y-101585562D01*
X94788543Y-101609404D01*
X94797428Y-101634236D01*
X94803836Y-101659819D01*
X94807706Y-101685908D01*
X94809000Y-101712250D01*
X94809000Y-102249750D01*
X94807706Y-102276092D01*
X94803836Y-102302181D01*
X94797428Y-102327764D01*
X94788543Y-102352596D01*
X94777266Y-102376438D01*
X94763707Y-102399060D01*
X94747997Y-102420243D01*
X94730285Y-102439785D01*
X94710743Y-102457497D01*
X94689560Y-102473207D01*
X94666938Y-102486766D01*
X94643096Y-102498043D01*
X94618264Y-102506928D01*
X94592681Y-102513336D01*
X94566592Y-102517206D01*
X94540250Y-102518500D01*
X93927750Y-102518500D01*
X93901408Y-102517206D01*
X93875319Y-102513336D01*
X93849736Y-102506928D01*
X93824904Y-102498043D01*
X93801062Y-102486766D01*
X93778440Y-102473207D01*
X93757257Y-102457497D01*
X93737715Y-102439785D01*
X93720003Y-102420243D01*
X93704293Y-102399060D01*
X93690734Y-102376438D01*
X93679457Y-102352596D01*
X93670572Y-102327764D01*
X93664164Y-102302181D01*
X93660294Y-102276092D01*
X93659000Y-102249750D01*
X93659000Y-101712250D01*
X93660294Y-101685908D01*
X93664164Y-101659819D01*
X93670572Y-101634236D01*
X93679457Y-101609404D01*
X93690734Y-101585562D01*
X93704293Y-101562940D01*
X93720003Y-101541757D01*
X93737715Y-101522215D01*
X93757257Y-101504503D01*
X93778440Y-101488793D01*
X93801062Y-101475234D01*
X93824904Y-101463957D01*
X93849736Y-101455072D01*
X93875319Y-101448664D01*
X93901408Y-101444794D01*
X93927750Y-101443500D01*
X94540250Y-101443500D01*
X94566592Y-101444794D01*
G37*
G04 #@! TD*
G04 #@! TO.C,C2*
G36*
X107385968Y-90526386D02*
G01*
X107413899Y-90530529D01*
X107441290Y-90537390D01*
X107467876Y-90546903D01*
X107493402Y-90558975D01*
X107517622Y-90573492D01*
X107540302Y-90590313D01*
X107561224Y-90609276D01*
X107580187Y-90630198D01*
X107597008Y-90652878D01*
X107611525Y-90677098D01*
X107623597Y-90702624D01*
X107633110Y-90729210D01*
X107639971Y-90756601D01*
X107644114Y-90784532D01*
X107645500Y-90812735D01*
X107645500Y-92787265D01*
X107644114Y-92815468D01*
X107639971Y-92843399D01*
X107633110Y-92870790D01*
X107623597Y-92897376D01*
X107611525Y-92922902D01*
X107597008Y-92947122D01*
X107580187Y-92969802D01*
X107561224Y-92990724D01*
X107540302Y-93009687D01*
X107517622Y-93026508D01*
X107493402Y-93041025D01*
X107467876Y-93053097D01*
X107441290Y-93062610D01*
X107413899Y-93069471D01*
X107385968Y-93073614D01*
X107357765Y-93075000D01*
X106408235Y-93075000D01*
X106380032Y-93073614D01*
X106352101Y-93069471D01*
X106324710Y-93062610D01*
X106298124Y-93053097D01*
X106272598Y-93041025D01*
X106248378Y-93026508D01*
X106225698Y-93009687D01*
X106204776Y-92990724D01*
X106185813Y-92969802D01*
X106168992Y-92947122D01*
X106154475Y-92922902D01*
X106142403Y-92897376D01*
X106132890Y-92870790D01*
X106126029Y-92843399D01*
X106121886Y-92815468D01*
X106120500Y-92787265D01*
X106120500Y-90812735D01*
X106121886Y-90784532D01*
X106126029Y-90756601D01*
X106132890Y-90729210D01*
X106142403Y-90702624D01*
X106154475Y-90677098D01*
X106168992Y-90652878D01*
X106185813Y-90630198D01*
X106204776Y-90609276D01*
X106225698Y-90590313D01*
X106248378Y-90573492D01*
X106272598Y-90558975D01*
X106298124Y-90546903D01*
X106324710Y-90537390D01*
X106352101Y-90530529D01*
X106380032Y-90526386D01*
X106408235Y-90525000D01*
X107357765Y-90525000D01*
X107385968Y-90526386D01*
G37*
G36*
X104310968Y-90526386D02*
G01*
X104338899Y-90530529D01*
X104366290Y-90537390D01*
X104392876Y-90546903D01*
X104418402Y-90558975D01*
X104442622Y-90573492D01*
X104465302Y-90590313D01*
X104486224Y-90609276D01*
X104505187Y-90630198D01*
X104522008Y-90652878D01*
X104536525Y-90677098D01*
X104548597Y-90702624D01*
X104558110Y-90729210D01*
X104564971Y-90756601D01*
X104569114Y-90784532D01*
X104570500Y-90812735D01*
X104570500Y-92787265D01*
X104569114Y-92815468D01*
X104564971Y-92843399D01*
X104558110Y-92870790D01*
X104548597Y-92897376D01*
X104536525Y-92922902D01*
X104522008Y-92947122D01*
X104505187Y-92969802D01*
X104486224Y-92990724D01*
X104465302Y-93009687D01*
X104442622Y-93026508D01*
X104418402Y-93041025D01*
X104392876Y-93053097D01*
X104366290Y-93062610D01*
X104338899Y-93069471D01*
X104310968Y-93073614D01*
X104282765Y-93075000D01*
X103333235Y-93075000D01*
X103305032Y-93073614D01*
X103277101Y-93069471D01*
X103249710Y-93062610D01*
X103223124Y-93053097D01*
X103197598Y-93041025D01*
X103173378Y-93026508D01*
X103150698Y-93009687D01*
X103129776Y-92990724D01*
X103110813Y-92969802D01*
X103093992Y-92947122D01*
X103079475Y-92922902D01*
X103067403Y-92897376D01*
X103057890Y-92870790D01*
X103051029Y-92843399D01*
X103046886Y-92815468D01*
X103045500Y-92787265D01*
X103045500Y-90812735D01*
X103046886Y-90784532D01*
X103051029Y-90756601D01*
X103057890Y-90729210D01*
X103067403Y-90702624D01*
X103079475Y-90677098D01*
X103093992Y-90652878D01*
X103110813Y-90630198D01*
X103129776Y-90609276D01*
X103150698Y-90590313D01*
X103173378Y-90573492D01*
X103197598Y-90558975D01*
X103223124Y-90546903D01*
X103249710Y-90537390D01*
X103277101Y-90530529D01*
X103305032Y-90526386D01*
X103333235Y-90525000D01*
X104282765Y-90525000D01*
X104310968Y-90526386D01*
G37*
G04 #@! TD*
D11*
G04 #@! TO.C,Q3*
X106425000Y-85495000D03*
D12*
X104145000Y-79195000D03*
X108705000Y-79195000D03*
G04 #@! TD*
D13*
G04 #@! TO.C,PWR1*
X97000000Y-93500000D03*
X94500000Y-93500000D03*
X92000000Y-93500000D03*
D10*
G36*
X90197975Y-92426345D02*
G01*
X90225099Y-92430369D01*
X90251697Y-92437031D01*
X90277514Y-92446269D01*
X90302302Y-92457993D01*
X90325821Y-92472089D01*
X90347845Y-92488424D01*
X90368162Y-92506838D01*
X90386576Y-92527155D01*
X90402911Y-92549179D01*
X90417007Y-92572698D01*
X90428731Y-92597486D01*
X90437969Y-92623303D01*
X90444631Y-92649901D01*
X90448655Y-92677025D01*
X90450000Y-92704412D01*
X90450000Y-94295588D01*
X90448655Y-94322975D01*
X90444631Y-94350099D01*
X90437969Y-94376697D01*
X90428731Y-94402514D01*
X90417007Y-94427302D01*
X90402911Y-94450821D01*
X90386576Y-94472845D01*
X90368162Y-94493162D01*
X90347845Y-94511576D01*
X90325821Y-94527911D01*
X90302302Y-94542007D01*
X90277514Y-94553731D01*
X90251697Y-94562969D01*
X90225099Y-94569631D01*
X90197975Y-94573655D01*
X90170588Y-94575000D01*
X88829412Y-94575000D01*
X88802025Y-94573655D01*
X88774901Y-94569631D01*
X88748303Y-94562969D01*
X88722486Y-94553731D01*
X88697698Y-94542007D01*
X88674179Y-94527911D01*
X88652155Y-94511576D01*
X88631838Y-94493162D01*
X88613424Y-94472845D01*
X88597089Y-94450821D01*
X88582993Y-94427302D01*
X88571269Y-94402514D01*
X88562031Y-94376697D01*
X88555369Y-94350099D01*
X88551345Y-94322975D01*
X88550000Y-94295588D01*
X88550000Y-92704412D01*
X88551345Y-92677025D01*
X88555369Y-92649901D01*
X88562031Y-92623303D01*
X88571269Y-92597486D01*
X88582993Y-92572698D01*
X88597089Y-92549179D01*
X88613424Y-92527155D01*
X88631838Y-92506838D01*
X88652155Y-92488424D01*
X88674179Y-92472089D01*
X88697698Y-92457993D01*
X88722486Y-92446269D01*
X88748303Y-92437031D01*
X88774901Y-92430369D01*
X88802025Y-92426345D01*
X88829412Y-92425000D01*
X90170588Y-92425000D01*
X90197975Y-92426345D01*
G37*
G04 #@! TD*
G04 #@! TO.C,R19*
G36*
X94820592Y-87042794D02*
G01*
X94846681Y-87046664D01*
X94872264Y-87053072D01*
X94897096Y-87061957D01*
X94920938Y-87073234D01*
X94943560Y-87086793D01*
X94964743Y-87102503D01*
X94984285Y-87120215D01*
X95001997Y-87139757D01*
X95017707Y-87160940D01*
X95031266Y-87183562D01*
X95042543Y-87207404D01*
X95051428Y-87232236D01*
X95057836Y-87257819D01*
X95061706Y-87283908D01*
X95063000Y-87310250D01*
X95063000Y-87847750D01*
X95061706Y-87874092D01*
X95057836Y-87900181D01*
X95051428Y-87925764D01*
X95042543Y-87950596D01*
X95031266Y-87974438D01*
X95017707Y-87997060D01*
X95001997Y-88018243D01*
X94984285Y-88037785D01*
X94964743Y-88055497D01*
X94943560Y-88071207D01*
X94920938Y-88084766D01*
X94897096Y-88096043D01*
X94872264Y-88104928D01*
X94846681Y-88111336D01*
X94820592Y-88115206D01*
X94794250Y-88116500D01*
X94181750Y-88116500D01*
X94155408Y-88115206D01*
X94129319Y-88111336D01*
X94103736Y-88104928D01*
X94078904Y-88096043D01*
X94055062Y-88084766D01*
X94032440Y-88071207D01*
X94011257Y-88055497D01*
X93991715Y-88037785D01*
X93974003Y-88018243D01*
X93958293Y-87997060D01*
X93944734Y-87974438D01*
X93933457Y-87950596D01*
X93924572Y-87925764D01*
X93918164Y-87900181D01*
X93914294Y-87874092D01*
X93913000Y-87847750D01*
X93913000Y-87310250D01*
X93914294Y-87283908D01*
X93918164Y-87257819D01*
X93924572Y-87232236D01*
X93933457Y-87207404D01*
X93944734Y-87183562D01*
X93958293Y-87160940D01*
X93974003Y-87139757D01*
X93991715Y-87120215D01*
X94011257Y-87102503D01*
X94032440Y-87086793D01*
X94055062Y-87073234D01*
X94078904Y-87061957D01*
X94103736Y-87053072D01*
X94129319Y-87046664D01*
X94155408Y-87042794D01*
X94181750Y-87041500D01*
X94794250Y-87041500D01*
X94820592Y-87042794D01*
G37*
G36*
X94820592Y-88617794D02*
G01*
X94846681Y-88621664D01*
X94872264Y-88628072D01*
X94897096Y-88636957D01*
X94920938Y-88648234D01*
X94943560Y-88661793D01*
X94964743Y-88677503D01*
X94984285Y-88695215D01*
X95001997Y-88714757D01*
X95017707Y-88735940D01*
X95031266Y-88758562D01*
X95042543Y-88782404D01*
X95051428Y-88807236D01*
X95057836Y-88832819D01*
X95061706Y-88858908D01*
X95063000Y-88885250D01*
X95063000Y-89422750D01*
X95061706Y-89449092D01*
X95057836Y-89475181D01*
X95051428Y-89500764D01*
X95042543Y-89525596D01*
X95031266Y-89549438D01*
X95017707Y-89572060D01*
X95001997Y-89593243D01*
X94984285Y-89612785D01*
X94964743Y-89630497D01*
X94943560Y-89646207D01*
X94920938Y-89659766D01*
X94897096Y-89671043D01*
X94872264Y-89679928D01*
X94846681Y-89686336D01*
X94820592Y-89690206D01*
X94794250Y-89691500D01*
X94181750Y-89691500D01*
X94155408Y-89690206D01*
X94129319Y-89686336D01*
X94103736Y-89679928D01*
X94078904Y-89671043D01*
X94055062Y-89659766D01*
X94032440Y-89646207D01*
X94011257Y-89630497D01*
X93991715Y-89612785D01*
X93974003Y-89593243D01*
X93958293Y-89572060D01*
X93944734Y-89549438D01*
X93933457Y-89525596D01*
X93924572Y-89500764D01*
X93918164Y-89475181D01*
X93914294Y-89449092D01*
X93913000Y-89422750D01*
X93913000Y-88885250D01*
X93914294Y-88858908D01*
X93918164Y-88832819D01*
X93924572Y-88807236D01*
X93933457Y-88782404D01*
X93944734Y-88758562D01*
X93958293Y-88735940D01*
X93974003Y-88714757D01*
X93991715Y-88695215D01*
X94011257Y-88677503D01*
X94032440Y-88661793D01*
X94055062Y-88648234D01*
X94078904Y-88636957D01*
X94103736Y-88628072D01*
X94129319Y-88621664D01*
X94155408Y-88617794D01*
X94181750Y-88616500D01*
X94794250Y-88616500D01*
X94820592Y-88617794D01*
G37*
G04 #@! TD*
G04 #@! TO.C,U3*
G36*
X115916603Y-86681963D02*
G01*
X115936018Y-86684843D01*
X115955057Y-86689612D01*
X115973537Y-86696224D01*
X115991279Y-86704616D01*
X116008114Y-86714706D01*
X116023879Y-86726398D01*
X116038421Y-86739579D01*
X116051602Y-86754121D01*
X116063294Y-86769886D01*
X116073384Y-86786721D01*
X116081776Y-86804463D01*
X116088388Y-86822943D01*
X116093157Y-86841982D01*
X116096037Y-86861397D01*
X116097000Y-86881000D01*
X116097000Y-88731000D01*
X116096037Y-88750603D01*
X116093157Y-88770018D01*
X116088388Y-88789057D01*
X116081776Y-88807537D01*
X116073384Y-88825279D01*
X116063294Y-88842114D01*
X116051602Y-88857879D01*
X116038421Y-88872421D01*
X116023879Y-88885602D01*
X116008114Y-88897294D01*
X115991279Y-88907384D01*
X115973537Y-88915776D01*
X115955057Y-88922388D01*
X115936018Y-88927157D01*
X115916603Y-88930037D01*
X115897000Y-88931000D01*
X115497000Y-88931000D01*
X115477397Y-88930037D01*
X115457982Y-88927157D01*
X115438943Y-88922388D01*
X115420463Y-88915776D01*
X115402721Y-88907384D01*
X115385886Y-88897294D01*
X115370121Y-88885602D01*
X115355579Y-88872421D01*
X115342398Y-88857879D01*
X115330706Y-88842114D01*
X115320616Y-88825279D01*
X115312224Y-88807537D01*
X115305612Y-88789057D01*
X115300843Y-88770018D01*
X115297963Y-88750603D01*
X115297000Y-88731000D01*
X115297000Y-86881000D01*
X115297963Y-86861397D01*
X115300843Y-86841982D01*
X115305612Y-86822943D01*
X115312224Y-86804463D01*
X115320616Y-86786721D01*
X115330706Y-86769886D01*
X115342398Y-86754121D01*
X115355579Y-86739579D01*
X115370121Y-86726398D01*
X115385886Y-86714706D01*
X115402721Y-86704616D01*
X115420463Y-86696224D01*
X115438943Y-86689612D01*
X115457982Y-86684843D01*
X115477397Y-86681963D01*
X115497000Y-86681000D01*
X115897000Y-86681000D01*
X115916603Y-86681963D01*
G37*
G36*
X117186603Y-86681963D02*
G01*
X117206018Y-86684843D01*
X117225057Y-86689612D01*
X117243537Y-86696224D01*
X117261279Y-86704616D01*
X117278114Y-86714706D01*
X117293879Y-86726398D01*
X117308421Y-86739579D01*
X117321602Y-86754121D01*
X117333294Y-86769886D01*
X117343384Y-86786721D01*
X117351776Y-86804463D01*
X117358388Y-86822943D01*
X117363157Y-86841982D01*
X117366037Y-86861397D01*
X117367000Y-86881000D01*
X117367000Y-88731000D01*
X117366037Y-88750603D01*
X117363157Y-88770018D01*
X117358388Y-88789057D01*
X117351776Y-88807537D01*
X117343384Y-88825279D01*
X117333294Y-88842114D01*
X117321602Y-88857879D01*
X117308421Y-88872421D01*
X117293879Y-88885602D01*
X117278114Y-88897294D01*
X117261279Y-88907384D01*
X117243537Y-88915776D01*
X117225057Y-88922388D01*
X117206018Y-88927157D01*
X117186603Y-88930037D01*
X117167000Y-88931000D01*
X116767000Y-88931000D01*
X116747397Y-88930037D01*
X116727982Y-88927157D01*
X116708943Y-88922388D01*
X116690463Y-88915776D01*
X116672721Y-88907384D01*
X116655886Y-88897294D01*
X116640121Y-88885602D01*
X116625579Y-88872421D01*
X116612398Y-88857879D01*
X116600706Y-88842114D01*
X116590616Y-88825279D01*
X116582224Y-88807537D01*
X116575612Y-88789057D01*
X116570843Y-88770018D01*
X116567963Y-88750603D01*
X116567000Y-88731000D01*
X116567000Y-86881000D01*
X116567963Y-86861397D01*
X116570843Y-86841982D01*
X116575612Y-86822943D01*
X116582224Y-86804463D01*
X116590616Y-86786721D01*
X116600706Y-86769886D01*
X116612398Y-86754121D01*
X116625579Y-86739579D01*
X116640121Y-86726398D01*
X116655886Y-86714706D01*
X116672721Y-86704616D01*
X116690463Y-86696224D01*
X116708943Y-86689612D01*
X116727982Y-86684843D01*
X116747397Y-86681963D01*
X116767000Y-86681000D01*
X117167000Y-86681000D01*
X117186603Y-86681963D01*
G37*
G36*
X118456603Y-86681963D02*
G01*
X118476018Y-86684843D01*
X118495057Y-86689612D01*
X118513537Y-86696224D01*
X118531279Y-86704616D01*
X118548114Y-86714706D01*
X118563879Y-86726398D01*
X118578421Y-86739579D01*
X118591602Y-86754121D01*
X118603294Y-86769886D01*
X118613384Y-86786721D01*
X118621776Y-86804463D01*
X118628388Y-86822943D01*
X118633157Y-86841982D01*
X118636037Y-86861397D01*
X118637000Y-86881000D01*
X118637000Y-88731000D01*
X118636037Y-88750603D01*
X118633157Y-88770018D01*
X118628388Y-88789057D01*
X118621776Y-88807537D01*
X118613384Y-88825279D01*
X118603294Y-88842114D01*
X118591602Y-88857879D01*
X118578421Y-88872421D01*
X118563879Y-88885602D01*
X118548114Y-88897294D01*
X118531279Y-88907384D01*
X118513537Y-88915776D01*
X118495057Y-88922388D01*
X118476018Y-88927157D01*
X118456603Y-88930037D01*
X118437000Y-88931000D01*
X118037000Y-88931000D01*
X118017397Y-88930037D01*
X117997982Y-88927157D01*
X117978943Y-88922388D01*
X117960463Y-88915776D01*
X117942721Y-88907384D01*
X117925886Y-88897294D01*
X117910121Y-88885602D01*
X117895579Y-88872421D01*
X117882398Y-88857879D01*
X117870706Y-88842114D01*
X117860616Y-88825279D01*
X117852224Y-88807537D01*
X117845612Y-88789057D01*
X117840843Y-88770018D01*
X117837963Y-88750603D01*
X117837000Y-88731000D01*
X117837000Y-86881000D01*
X117837963Y-86861397D01*
X117840843Y-86841982D01*
X117845612Y-86822943D01*
X117852224Y-86804463D01*
X117860616Y-86786721D01*
X117870706Y-86769886D01*
X117882398Y-86754121D01*
X117895579Y-86739579D01*
X117910121Y-86726398D01*
X117925886Y-86714706D01*
X117942721Y-86704616D01*
X117960463Y-86696224D01*
X117978943Y-86689612D01*
X117997982Y-86684843D01*
X118017397Y-86681963D01*
X118037000Y-86681000D01*
X118437000Y-86681000D01*
X118456603Y-86681963D01*
G37*
G36*
X119726603Y-86681963D02*
G01*
X119746018Y-86684843D01*
X119765057Y-86689612D01*
X119783537Y-86696224D01*
X119801279Y-86704616D01*
X119818114Y-86714706D01*
X119833879Y-86726398D01*
X119848421Y-86739579D01*
X119861602Y-86754121D01*
X119873294Y-86769886D01*
X119883384Y-86786721D01*
X119891776Y-86804463D01*
X119898388Y-86822943D01*
X119903157Y-86841982D01*
X119906037Y-86861397D01*
X119907000Y-86881000D01*
X119907000Y-88731000D01*
X119906037Y-88750603D01*
X119903157Y-88770018D01*
X119898388Y-88789057D01*
X119891776Y-88807537D01*
X119883384Y-88825279D01*
X119873294Y-88842114D01*
X119861602Y-88857879D01*
X119848421Y-88872421D01*
X119833879Y-88885602D01*
X119818114Y-88897294D01*
X119801279Y-88907384D01*
X119783537Y-88915776D01*
X119765057Y-88922388D01*
X119746018Y-88927157D01*
X119726603Y-88930037D01*
X119707000Y-88931000D01*
X119307000Y-88931000D01*
X119287397Y-88930037D01*
X119267982Y-88927157D01*
X119248943Y-88922388D01*
X119230463Y-88915776D01*
X119212721Y-88907384D01*
X119195886Y-88897294D01*
X119180121Y-88885602D01*
X119165579Y-88872421D01*
X119152398Y-88857879D01*
X119140706Y-88842114D01*
X119130616Y-88825279D01*
X119122224Y-88807537D01*
X119115612Y-88789057D01*
X119110843Y-88770018D01*
X119107963Y-88750603D01*
X119107000Y-88731000D01*
X119107000Y-86881000D01*
X119107963Y-86861397D01*
X119110843Y-86841982D01*
X119115612Y-86822943D01*
X119122224Y-86804463D01*
X119130616Y-86786721D01*
X119140706Y-86769886D01*
X119152398Y-86754121D01*
X119165579Y-86739579D01*
X119180121Y-86726398D01*
X119195886Y-86714706D01*
X119212721Y-86704616D01*
X119230463Y-86696224D01*
X119248943Y-86689612D01*
X119267982Y-86684843D01*
X119287397Y-86681963D01*
X119307000Y-86681000D01*
X119707000Y-86681000D01*
X119726603Y-86681963D01*
G37*
G36*
X120996603Y-86681963D02*
G01*
X121016018Y-86684843D01*
X121035057Y-86689612D01*
X121053537Y-86696224D01*
X121071279Y-86704616D01*
X121088114Y-86714706D01*
X121103879Y-86726398D01*
X121118421Y-86739579D01*
X121131602Y-86754121D01*
X121143294Y-86769886D01*
X121153384Y-86786721D01*
X121161776Y-86804463D01*
X121168388Y-86822943D01*
X121173157Y-86841982D01*
X121176037Y-86861397D01*
X121177000Y-86881000D01*
X121177000Y-88731000D01*
X121176037Y-88750603D01*
X121173157Y-88770018D01*
X121168388Y-88789057D01*
X121161776Y-88807537D01*
X121153384Y-88825279D01*
X121143294Y-88842114D01*
X121131602Y-88857879D01*
X121118421Y-88872421D01*
X121103879Y-88885602D01*
X121088114Y-88897294D01*
X121071279Y-88907384D01*
X121053537Y-88915776D01*
X121035057Y-88922388D01*
X121016018Y-88927157D01*
X120996603Y-88930037D01*
X120977000Y-88931000D01*
X120577000Y-88931000D01*
X120557397Y-88930037D01*
X120537982Y-88927157D01*
X120518943Y-88922388D01*
X120500463Y-88915776D01*
X120482721Y-88907384D01*
X120465886Y-88897294D01*
X120450121Y-88885602D01*
X120435579Y-88872421D01*
X120422398Y-88857879D01*
X120410706Y-88842114D01*
X120400616Y-88825279D01*
X120392224Y-88807537D01*
X120385612Y-88789057D01*
X120380843Y-88770018D01*
X120377963Y-88750603D01*
X120377000Y-88731000D01*
X120377000Y-86881000D01*
X120377963Y-86861397D01*
X120380843Y-86841982D01*
X120385612Y-86822943D01*
X120392224Y-86804463D01*
X120400616Y-86786721D01*
X120410706Y-86769886D01*
X120422398Y-86754121D01*
X120435579Y-86739579D01*
X120450121Y-86726398D01*
X120465886Y-86714706D01*
X120482721Y-86704616D01*
X120500463Y-86696224D01*
X120518943Y-86689612D01*
X120537982Y-86684843D01*
X120557397Y-86681963D01*
X120577000Y-86681000D01*
X120977000Y-86681000D01*
X120996603Y-86681963D01*
G37*
G36*
X122266603Y-86681963D02*
G01*
X122286018Y-86684843D01*
X122305057Y-86689612D01*
X122323537Y-86696224D01*
X122341279Y-86704616D01*
X122358114Y-86714706D01*
X122373879Y-86726398D01*
X122388421Y-86739579D01*
X122401602Y-86754121D01*
X122413294Y-86769886D01*
X122423384Y-86786721D01*
X122431776Y-86804463D01*
X122438388Y-86822943D01*
X122443157Y-86841982D01*
X122446037Y-86861397D01*
X122447000Y-86881000D01*
X122447000Y-88731000D01*
X122446037Y-88750603D01*
X122443157Y-88770018D01*
X122438388Y-88789057D01*
X122431776Y-88807537D01*
X122423384Y-88825279D01*
X122413294Y-88842114D01*
X122401602Y-88857879D01*
X122388421Y-88872421D01*
X122373879Y-88885602D01*
X122358114Y-88897294D01*
X122341279Y-88907384D01*
X122323537Y-88915776D01*
X122305057Y-88922388D01*
X122286018Y-88927157D01*
X122266603Y-88930037D01*
X122247000Y-88931000D01*
X121847000Y-88931000D01*
X121827397Y-88930037D01*
X121807982Y-88927157D01*
X121788943Y-88922388D01*
X121770463Y-88915776D01*
X121752721Y-88907384D01*
X121735886Y-88897294D01*
X121720121Y-88885602D01*
X121705579Y-88872421D01*
X121692398Y-88857879D01*
X121680706Y-88842114D01*
X121670616Y-88825279D01*
X121662224Y-88807537D01*
X121655612Y-88789057D01*
X121650843Y-88770018D01*
X121647963Y-88750603D01*
X121647000Y-88731000D01*
X121647000Y-86881000D01*
X121647963Y-86861397D01*
X121650843Y-86841982D01*
X121655612Y-86822943D01*
X121662224Y-86804463D01*
X121670616Y-86786721D01*
X121680706Y-86769886D01*
X121692398Y-86754121D01*
X121705579Y-86739579D01*
X121720121Y-86726398D01*
X121735886Y-86714706D01*
X121752721Y-86704616D01*
X121770463Y-86696224D01*
X121788943Y-86689612D01*
X121807982Y-86684843D01*
X121827397Y-86681963D01*
X121847000Y-86681000D01*
X122247000Y-86681000D01*
X122266603Y-86681963D01*
G37*
G36*
X123536603Y-86681963D02*
G01*
X123556018Y-86684843D01*
X123575057Y-86689612D01*
X123593537Y-86696224D01*
X123611279Y-86704616D01*
X123628114Y-86714706D01*
X123643879Y-86726398D01*
X123658421Y-86739579D01*
X123671602Y-86754121D01*
X123683294Y-86769886D01*
X123693384Y-86786721D01*
X123701776Y-86804463D01*
X123708388Y-86822943D01*
X123713157Y-86841982D01*
X123716037Y-86861397D01*
X123717000Y-86881000D01*
X123717000Y-88731000D01*
X123716037Y-88750603D01*
X123713157Y-88770018D01*
X123708388Y-88789057D01*
X123701776Y-88807537D01*
X123693384Y-88825279D01*
X123683294Y-88842114D01*
X123671602Y-88857879D01*
X123658421Y-88872421D01*
X123643879Y-88885602D01*
X123628114Y-88897294D01*
X123611279Y-88907384D01*
X123593537Y-88915776D01*
X123575057Y-88922388D01*
X123556018Y-88927157D01*
X123536603Y-88930037D01*
X123517000Y-88931000D01*
X123117000Y-88931000D01*
X123097397Y-88930037D01*
X123077982Y-88927157D01*
X123058943Y-88922388D01*
X123040463Y-88915776D01*
X123022721Y-88907384D01*
X123005886Y-88897294D01*
X122990121Y-88885602D01*
X122975579Y-88872421D01*
X122962398Y-88857879D01*
X122950706Y-88842114D01*
X122940616Y-88825279D01*
X122932224Y-88807537D01*
X122925612Y-88789057D01*
X122920843Y-88770018D01*
X122917963Y-88750603D01*
X122917000Y-88731000D01*
X122917000Y-86881000D01*
X122917963Y-86861397D01*
X122920843Y-86841982D01*
X122925612Y-86822943D01*
X122932224Y-86804463D01*
X122940616Y-86786721D01*
X122950706Y-86769886D01*
X122962398Y-86754121D01*
X122975579Y-86739579D01*
X122990121Y-86726398D01*
X123005886Y-86714706D01*
X123022721Y-86704616D01*
X123040463Y-86696224D01*
X123058943Y-86689612D01*
X123077982Y-86684843D01*
X123097397Y-86681963D01*
X123117000Y-86681000D01*
X123517000Y-86681000D01*
X123536603Y-86681963D01*
G37*
G36*
X124806603Y-86681963D02*
G01*
X124826018Y-86684843D01*
X124845057Y-86689612D01*
X124863537Y-86696224D01*
X124881279Y-86704616D01*
X124898114Y-86714706D01*
X124913879Y-86726398D01*
X124928421Y-86739579D01*
X124941602Y-86754121D01*
X124953294Y-86769886D01*
X124963384Y-86786721D01*
X124971776Y-86804463D01*
X124978388Y-86822943D01*
X124983157Y-86841982D01*
X124986037Y-86861397D01*
X124987000Y-86881000D01*
X124987000Y-88731000D01*
X124986037Y-88750603D01*
X124983157Y-88770018D01*
X124978388Y-88789057D01*
X124971776Y-88807537D01*
X124963384Y-88825279D01*
X124953294Y-88842114D01*
X124941602Y-88857879D01*
X124928421Y-88872421D01*
X124913879Y-88885602D01*
X124898114Y-88897294D01*
X124881279Y-88907384D01*
X124863537Y-88915776D01*
X124845057Y-88922388D01*
X124826018Y-88927157D01*
X124806603Y-88930037D01*
X124787000Y-88931000D01*
X124387000Y-88931000D01*
X124367397Y-88930037D01*
X124347982Y-88927157D01*
X124328943Y-88922388D01*
X124310463Y-88915776D01*
X124292721Y-88907384D01*
X124275886Y-88897294D01*
X124260121Y-88885602D01*
X124245579Y-88872421D01*
X124232398Y-88857879D01*
X124220706Y-88842114D01*
X124210616Y-88825279D01*
X124202224Y-88807537D01*
X124195612Y-88789057D01*
X124190843Y-88770018D01*
X124187963Y-88750603D01*
X124187000Y-88731000D01*
X124187000Y-86881000D01*
X124187963Y-86861397D01*
X124190843Y-86841982D01*
X124195612Y-86822943D01*
X124202224Y-86804463D01*
X124210616Y-86786721D01*
X124220706Y-86769886D01*
X124232398Y-86754121D01*
X124245579Y-86739579D01*
X124260121Y-86726398D01*
X124275886Y-86714706D01*
X124292721Y-86704616D01*
X124310463Y-86696224D01*
X124328943Y-86689612D01*
X124347982Y-86684843D01*
X124367397Y-86681963D01*
X124387000Y-86681000D01*
X124787000Y-86681000D01*
X124806603Y-86681963D01*
G37*
G36*
X126076603Y-86681963D02*
G01*
X126096018Y-86684843D01*
X126115057Y-86689612D01*
X126133537Y-86696224D01*
X126151279Y-86704616D01*
X126168114Y-86714706D01*
X126183879Y-86726398D01*
X126198421Y-86739579D01*
X126211602Y-86754121D01*
X126223294Y-86769886D01*
X126233384Y-86786721D01*
X126241776Y-86804463D01*
X126248388Y-86822943D01*
X126253157Y-86841982D01*
X126256037Y-86861397D01*
X126257000Y-86881000D01*
X126257000Y-88731000D01*
X126256037Y-88750603D01*
X126253157Y-88770018D01*
X126248388Y-88789057D01*
X126241776Y-88807537D01*
X126233384Y-88825279D01*
X126223294Y-88842114D01*
X126211602Y-88857879D01*
X126198421Y-88872421D01*
X126183879Y-88885602D01*
X126168114Y-88897294D01*
X126151279Y-88907384D01*
X126133537Y-88915776D01*
X126115057Y-88922388D01*
X126096018Y-88927157D01*
X126076603Y-88930037D01*
X126057000Y-88931000D01*
X125657000Y-88931000D01*
X125637397Y-88930037D01*
X125617982Y-88927157D01*
X125598943Y-88922388D01*
X125580463Y-88915776D01*
X125562721Y-88907384D01*
X125545886Y-88897294D01*
X125530121Y-88885602D01*
X125515579Y-88872421D01*
X125502398Y-88857879D01*
X125490706Y-88842114D01*
X125480616Y-88825279D01*
X125472224Y-88807537D01*
X125465612Y-88789057D01*
X125460843Y-88770018D01*
X125457963Y-88750603D01*
X125457000Y-88731000D01*
X125457000Y-86881000D01*
X125457963Y-86861397D01*
X125460843Y-86841982D01*
X125465612Y-86822943D01*
X125472224Y-86804463D01*
X125480616Y-86786721D01*
X125490706Y-86769886D01*
X125502398Y-86754121D01*
X125515579Y-86739579D01*
X125530121Y-86726398D01*
X125545886Y-86714706D01*
X125562721Y-86704616D01*
X125580463Y-86696224D01*
X125598943Y-86689612D01*
X125617982Y-86684843D01*
X125637397Y-86681963D01*
X125657000Y-86681000D01*
X126057000Y-86681000D01*
X126076603Y-86681963D01*
G37*
G36*
X127346603Y-86681963D02*
G01*
X127366018Y-86684843D01*
X127385057Y-86689612D01*
X127403537Y-86696224D01*
X127421279Y-86704616D01*
X127438114Y-86714706D01*
X127453879Y-86726398D01*
X127468421Y-86739579D01*
X127481602Y-86754121D01*
X127493294Y-86769886D01*
X127503384Y-86786721D01*
X127511776Y-86804463D01*
X127518388Y-86822943D01*
X127523157Y-86841982D01*
X127526037Y-86861397D01*
X127527000Y-86881000D01*
X127527000Y-88731000D01*
X127526037Y-88750603D01*
X127523157Y-88770018D01*
X127518388Y-88789057D01*
X127511776Y-88807537D01*
X127503384Y-88825279D01*
X127493294Y-88842114D01*
X127481602Y-88857879D01*
X127468421Y-88872421D01*
X127453879Y-88885602D01*
X127438114Y-88897294D01*
X127421279Y-88907384D01*
X127403537Y-88915776D01*
X127385057Y-88922388D01*
X127366018Y-88927157D01*
X127346603Y-88930037D01*
X127327000Y-88931000D01*
X126927000Y-88931000D01*
X126907397Y-88930037D01*
X126887982Y-88927157D01*
X126868943Y-88922388D01*
X126850463Y-88915776D01*
X126832721Y-88907384D01*
X126815886Y-88897294D01*
X126800121Y-88885602D01*
X126785579Y-88872421D01*
X126772398Y-88857879D01*
X126760706Y-88842114D01*
X126750616Y-88825279D01*
X126742224Y-88807537D01*
X126735612Y-88789057D01*
X126730843Y-88770018D01*
X126727963Y-88750603D01*
X126727000Y-88731000D01*
X126727000Y-86881000D01*
X126727963Y-86861397D01*
X126730843Y-86841982D01*
X126735612Y-86822943D01*
X126742224Y-86804463D01*
X126750616Y-86786721D01*
X126760706Y-86769886D01*
X126772398Y-86754121D01*
X126785579Y-86739579D01*
X126800121Y-86726398D01*
X126815886Y-86714706D01*
X126832721Y-86704616D01*
X126850463Y-86696224D01*
X126868943Y-86689612D01*
X126887982Y-86684843D01*
X126907397Y-86681963D01*
X126927000Y-86681000D01*
X127327000Y-86681000D01*
X127346603Y-86681963D01*
G37*
G36*
X128616603Y-86681963D02*
G01*
X128636018Y-86684843D01*
X128655057Y-86689612D01*
X128673537Y-86696224D01*
X128691279Y-86704616D01*
X128708114Y-86714706D01*
X128723879Y-86726398D01*
X128738421Y-86739579D01*
X128751602Y-86754121D01*
X128763294Y-86769886D01*
X128773384Y-86786721D01*
X128781776Y-86804463D01*
X128788388Y-86822943D01*
X128793157Y-86841982D01*
X128796037Y-86861397D01*
X128797000Y-86881000D01*
X128797000Y-88731000D01*
X128796037Y-88750603D01*
X128793157Y-88770018D01*
X128788388Y-88789057D01*
X128781776Y-88807537D01*
X128773384Y-88825279D01*
X128763294Y-88842114D01*
X128751602Y-88857879D01*
X128738421Y-88872421D01*
X128723879Y-88885602D01*
X128708114Y-88897294D01*
X128691279Y-88907384D01*
X128673537Y-88915776D01*
X128655057Y-88922388D01*
X128636018Y-88927157D01*
X128616603Y-88930037D01*
X128597000Y-88931000D01*
X128197000Y-88931000D01*
X128177397Y-88930037D01*
X128157982Y-88927157D01*
X128138943Y-88922388D01*
X128120463Y-88915776D01*
X128102721Y-88907384D01*
X128085886Y-88897294D01*
X128070121Y-88885602D01*
X128055579Y-88872421D01*
X128042398Y-88857879D01*
X128030706Y-88842114D01*
X128020616Y-88825279D01*
X128012224Y-88807537D01*
X128005612Y-88789057D01*
X128000843Y-88770018D01*
X127997963Y-88750603D01*
X127997000Y-88731000D01*
X127997000Y-86881000D01*
X127997963Y-86861397D01*
X128000843Y-86841982D01*
X128005612Y-86822943D01*
X128012224Y-86804463D01*
X128020616Y-86786721D01*
X128030706Y-86769886D01*
X128042398Y-86754121D01*
X128055579Y-86739579D01*
X128070121Y-86726398D01*
X128085886Y-86714706D01*
X128102721Y-86704616D01*
X128120463Y-86696224D01*
X128138943Y-86689612D01*
X128157982Y-86684843D01*
X128177397Y-86681963D01*
X128197000Y-86681000D01*
X128597000Y-86681000D01*
X128616603Y-86681963D01*
G37*
G36*
X129886603Y-86681963D02*
G01*
X129906018Y-86684843D01*
X129925057Y-86689612D01*
X129943537Y-86696224D01*
X129961279Y-86704616D01*
X129978114Y-86714706D01*
X129993879Y-86726398D01*
X130008421Y-86739579D01*
X130021602Y-86754121D01*
X130033294Y-86769886D01*
X130043384Y-86786721D01*
X130051776Y-86804463D01*
X130058388Y-86822943D01*
X130063157Y-86841982D01*
X130066037Y-86861397D01*
X130067000Y-86881000D01*
X130067000Y-88731000D01*
X130066037Y-88750603D01*
X130063157Y-88770018D01*
X130058388Y-88789057D01*
X130051776Y-88807537D01*
X130043384Y-88825279D01*
X130033294Y-88842114D01*
X130021602Y-88857879D01*
X130008421Y-88872421D01*
X129993879Y-88885602D01*
X129978114Y-88897294D01*
X129961279Y-88907384D01*
X129943537Y-88915776D01*
X129925057Y-88922388D01*
X129906018Y-88927157D01*
X129886603Y-88930037D01*
X129867000Y-88931000D01*
X129467000Y-88931000D01*
X129447397Y-88930037D01*
X129427982Y-88927157D01*
X129408943Y-88922388D01*
X129390463Y-88915776D01*
X129372721Y-88907384D01*
X129355886Y-88897294D01*
X129340121Y-88885602D01*
X129325579Y-88872421D01*
X129312398Y-88857879D01*
X129300706Y-88842114D01*
X129290616Y-88825279D01*
X129282224Y-88807537D01*
X129275612Y-88789057D01*
X129270843Y-88770018D01*
X129267963Y-88750603D01*
X129267000Y-88731000D01*
X129267000Y-86881000D01*
X129267963Y-86861397D01*
X129270843Y-86841982D01*
X129275612Y-86822943D01*
X129282224Y-86804463D01*
X129290616Y-86786721D01*
X129300706Y-86769886D01*
X129312398Y-86754121D01*
X129325579Y-86739579D01*
X129340121Y-86726398D01*
X129355886Y-86714706D01*
X129372721Y-86704616D01*
X129390463Y-86696224D01*
X129408943Y-86689612D01*
X129427982Y-86684843D01*
X129447397Y-86681963D01*
X129467000Y-86681000D01*
X129867000Y-86681000D01*
X129886603Y-86681963D01*
G37*
G36*
X131156603Y-86681963D02*
G01*
X131176018Y-86684843D01*
X131195057Y-86689612D01*
X131213537Y-86696224D01*
X131231279Y-86704616D01*
X131248114Y-86714706D01*
X131263879Y-86726398D01*
X131278421Y-86739579D01*
X131291602Y-86754121D01*
X131303294Y-86769886D01*
X131313384Y-86786721D01*
X131321776Y-86804463D01*
X131328388Y-86822943D01*
X131333157Y-86841982D01*
X131336037Y-86861397D01*
X131337000Y-86881000D01*
X131337000Y-88731000D01*
X131336037Y-88750603D01*
X131333157Y-88770018D01*
X131328388Y-88789057D01*
X131321776Y-88807537D01*
X131313384Y-88825279D01*
X131303294Y-88842114D01*
X131291602Y-88857879D01*
X131278421Y-88872421D01*
X131263879Y-88885602D01*
X131248114Y-88897294D01*
X131231279Y-88907384D01*
X131213537Y-88915776D01*
X131195057Y-88922388D01*
X131176018Y-88927157D01*
X131156603Y-88930037D01*
X131137000Y-88931000D01*
X130737000Y-88931000D01*
X130717397Y-88930037D01*
X130697982Y-88927157D01*
X130678943Y-88922388D01*
X130660463Y-88915776D01*
X130642721Y-88907384D01*
X130625886Y-88897294D01*
X130610121Y-88885602D01*
X130595579Y-88872421D01*
X130582398Y-88857879D01*
X130570706Y-88842114D01*
X130560616Y-88825279D01*
X130552224Y-88807537D01*
X130545612Y-88789057D01*
X130540843Y-88770018D01*
X130537963Y-88750603D01*
X130537000Y-88731000D01*
X130537000Y-86881000D01*
X130537963Y-86861397D01*
X130540843Y-86841982D01*
X130545612Y-86822943D01*
X130552224Y-86804463D01*
X130560616Y-86786721D01*
X130570706Y-86769886D01*
X130582398Y-86754121D01*
X130595579Y-86739579D01*
X130610121Y-86726398D01*
X130625886Y-86714706D01*
X130642721Y-86704616D01*
X130660463Y-86696224D01*
X130678943Y-86689612D01*
X130697982Y-86684843D01*
X130717397Y-86681963D01*
X130737000Y-86681000D01*
X131137000Y-86681000D01*
X131156603Y-86681963D01*
G37*
G36*
X132426603Y-86681963D02*
G01*
X132446018Y-86684843D01*
X132465057Y-86689612D01*
X132483537Y-86696224D01*
X132501279Y-86704616D01*
X132518114Y-86714706D01*
X132533879Y-86726398D01*
X132548421Y-86739579D01*
X132561602Y-86754121D01*
X132573294Y-86769886D01*
X132583384Y-86786721D01*
X132591776Y-86804463D01*
X132598388Y-86822943D01*
X132603157Y-86841982D01*
X132606037Y-86861397D01*
X132607000Y-86881000D01*
X132607000Y-88731000D01*
X132606037Y-88750603D01*
X132603157Y-88770018D01*
X132598388Y-88789057D01*
X132591776Y-88807537D01*
X132583384Y-88825279D01*
X132573294Y-88842114D01*
X132561602Y-88857879D01*
X132548421Y-88872421D01*
X132533879Y-88885602D01*
X132518114Y-88897294D01*
X132501279Y-88907384D01*
X132483537Y-88915776D01*
X132465057Y-88922388D01*
X132446018Y-88927157D01*
X132426603Y-88930037D01*
X132407000Y-88931000D01*
X132007000Y-88931000D01*
X131987397Y-88930037D01*
X131967982Y-88927157D01*
X131948943Y-88922388D01*
X131930463Y-88915776D01*
X131912721Y-88907384D01*
X131895886Y-88897294D01*
X131880121Y-88885602D01*
X131865579Y-88872421D01*
X131852398Y-88857879D01*
X131840706Y-88842114D01*
X131830616Y-88825279D01*
X131822224Y-88807537D01*
X131815612Y-88789057D01*
X131810843Y-88770018D01*
X131807963Y-88750603D01*
X131807000Y-88731000D01*
X131807000Y-86881000D01*
X131807963Y-86861397D01*
X131810843Y-86841982D01*
X131815612Y-86822943D01*
X131822224Y-86804463D01*
X131830616Y-86786721D01*
X131840706Y-86769886D01*
X131852398Y-86754121D01*
X131865579Y-86739579D01*
X131880121Y-86726398D01*
X131895886Y-86714706D01*
X131912721Y-86704616D01*
X131930463Y-86696224D01*
X131948943Y-86689612D01*
X131967982Y-86684843D01*
X131987397Y-86681963D01*
X132007000Y-86681000D01*
X132407000Y-86681000D01*
X132426603Y-86681963D01*
G37*
G36*
X132426603Y-95981963D02*
G01*
X132446018Y-95984843D01*
X132465057Y-95989612D01*
X132483537Y-95996224D01*
X132501279Y-96004616D01*
X132518114Y-96014706D01*
X132533879Y-96026398D01*
X132548421Y-96039579D01*
X132561602Y-96054121D01*
X132573294Y-96069886D01*
X132583384Y-96086721D01*
X132591776Y-96104463D01*
X132598388Y-96122943D01*
X132603157Y-96141982D01*
X132606037Y-96161397D01*
X132607000Y-96181000D01*
X132607000Y-98031000D01*
X132606037Y-98050603D01*
X132603157Y-98070018D01*
X132598388Y-98089057D01*
X132591776Y-98107537D01*
X132583384Y-98125279D01*
X132573294Y-98142114D01*
X132561602Y-98157879D01*
X132548421Y-98172421D01*
X132533879Y-98185602D01*
X132518114Y-98197294D01*
X132501279Y-98207384D01*
X132483537Y-98215776D01*
X132465057Y-98222388D01*
X132446018Y-98227157D01*
X132426603Y-98230037D01*
X132407000Y-98231000D01*
X132007000Y-98231000D01*
X131987397Y-98230037D01*
X131967982Y-98227157D01*
X131948943Y-98222388D01*
X131930463Y-98215776D01*
X131912721Y-98207384D01*
X131895886Y-98197294D01*
X131880121Y-98185602D01*
X131865579Y-98172421D01*
X131852398Y-98157879D01*
X131840706Y-98142114D01*
X131830616Y-98125279D01*
X131822224Y-98107537D01*
X131815612Y-98089057D01*
X131810843Y-98070018D01*
X131807963Y-98050603D01*
X131807000Y-98031000D01*
X131807000Y-96181000D01*
X131807963Y-96161397D01*
X131810843Y-96141982D01*
X131815612Y-96122943D01*
X131822224Y-96104463D01*
X131830616Y-96086721D01*
X131840706Y-96069886D01*
X131852398Y-96054121D01*
X131865579Y-96039579D01*
X131880121Y-96026398D01*
X131895886Y-96014706D01*
X131912721Y-96004616D01*
X131930463Y-95996224D01*
X131948943Y-95989612D01*
X131967982Y-95984843D01*
X131987397Y-95981963D01*
X132007000Y-95981000D01*
X132407000Y-95981000D01*
X132426603Y-95981963D01*
G37*
G36*
X131156603Y-95981963D02*
G01*
X131176018Y-95984843D01*
X131195057Y-95989612D01*
X131213537Y-95996224D01*
X131231279Y-96004616D01*
X131248114Y-96014706D01*
X131263879Y-96026398D01*
X131278421Y-96039579D01*
X131291602Y-96054121D01*
X131303294Y-96069886D01*
X131313384Y-96086721D01*
X131321776Y-96104463D01*
X131328388Y-96122943D01*
X131333157Y-96141982D01*
X131336037Y-96161397D01*
X131337000Y-96181000D01*
X131337000Y-98031000D01*
X131336037Y-98050603D01*
X131333157Y-98070018D01*
X131328388Y-98089057D01*
X131321776Y-98107537D01*
X131313384Y-98125279D01*
X131303294Y-98142114D01*
X131291602Y-98157879D01*
X131278421Y-98172421D01*
X131263879Y-98185602D01*
X131248114Y-98197294D01*
X131231279Y-98207384D01*
X131213537Y-98215776D01*
X131195057Y-98222388D01*
X131176018Y-98227157D01*
X131156603Y-98230037D01*
X131137000Y-98231000D01*
X130737000Y-98231000D01*
X130717397Y-98230037D01*
X130697982Y-98227157D01*
X130678943Y-98222388D01*
X130660463Y-98215776D01*
X130642721Y-98207384D01*
X130625886Y-98197294D01*
X130610121Y-98185602D01*
X130595579Y-98172421D01*
X130582398Y-98157879D01*
X130570706Y-98142114D01*
X130560616Y-98125279D01*
X130552224Y-98107537D01*
X130545612Y-98089057D01*
X130540843Y-98070018D01*
X130537963Y-98050603D01*
X130537000Y-98031000D01*
X130537000Y-96181000D01*
X130537963Y-96161397D01*
X130540843Y-96141982D01*
X130545612Y-96122943D01*
X130552224Y-96104463D01*
X130560616Y-96086721D01*
X130570706Y-96069886D01*
X130582398Y-96054121D01*
X130595579Y-96039579D01*
X130610121Y-96026398D01*
X130625886Y-96014706D01*
X130642721Y-96004616D01*
X130660463Y-95996224D01*
X130678943Y-95989612D01*
X130697982Y-95984843D01*
X130717397Y-95981963D01*
X130737000Y-95981000D01*
X131137000Y-95981000D01*
X131156603Y-95981963D01*
G37*
G36*
X129886603Y-95981963D02*
G01*
X129906018Y-95984843D01*
X129925057Y-95989612D01*
X129943537Y-95996224D01*
X129961279Y-96004616D01*
X129978114Y-96014706D01*
X129993879Y-96026398D01*
X130008421Y-96039579D01*
X130021602Y-96054121D01*
X130033294Y-96069886D01*
X130043384Y-96086721D01*
X130051776Y-96104463D01*
X130058388Y-96122943D01*
X130063157Y-96141982D01*
X130066037Y-96161397D01*
X130067000Y-96181000D01*
X130067000Y-98031000D01*
X130066037Y-98050603D01*
X130063157Y-98070018D01*
X130058388Y-98089057D01*
X130051776Y-98107537D01*
X130043384Y-98125279D01*
X130033294Y-98142114D01*
X130021602Y-98157879D01*
X130008421Y-98172421D01*
X129993879Y-98185602D01*
X129978114Y-98197294D01*
X129961279Y-98207384D01*
X129943537Y-98215776D01*
X129925057Y-98222388D01*
X129906018Y-98227157D01*
X129886603Y-98230037D01*
X129867000Y-98231000D01*
X129467000Y-98231000D01*
X129447397Y-98230037D01*
X129427982Y-98227157D01*
X129408943Y-98222388D01*
X129390463Y-98215776D01*
X129372721Y-98207384D01*
X129355886Y-98197294D01*
X129340121Y-98185602D01*
X129325579Y-98172421D01*
X129312398Y-98157879D01*
X129300706Y-98142114D01*
X129290616Y-98125279D01*
X129282224Y-98107537D01*
X129275612Y-98089057D01*
X129270843Y-98070018D01*
X129267963Y-98050603D01*
X129267000Y-98031000D01*
X129267000Y-96181000D01*
X129267963Y-96161397D01*
X129270843Y-96141982D01*
X129275612Y-96122943D01*
X129282224Y-96104463D01*
X129290616Y-96086721D01*
X129300706Y-96069886D01*
X129312398Y-96054121D01*
X129325579Y-96039579D01*
X129340121Y-96026398D01*
X129355886Y-96014706D01*
X129372721Y-96004616D01*
X129390463Y-95996224D01*
X129408943Y-95989612D01*
X129427982Y-95984843D01*
X129447397Y-95981963D01*
X129467000Y-95981000D01*
X129867000Y-95981000D01*
X129886603Y-95981963D01*
G37*
G36*
X128616603Y-95981963D02*
G01*
X128636018Y-95984843D01*
X128655057Y-95989612D01*
X128673537Y-95996224D01*
X128691279Y-96004616D01*
X128708114Y-96014706D01*
X128723879Y-96026398D01*
X128738421Y-96039579D01*
X128751602Y-96054121D01*
X128763294Y-96069886D01*
X128773384Y-96086721D01*
X128781776Y-96104463D01*
X128788388Y-96122943D01*
X128793157Y-96141982D01*
X128796037Y-96161397D01*
X128797000Y-96181000D01*
X128797000Y-98031000D01*
X128796037Y-98050603D01*
X128793157Y-98070018D01*
X128788388Y-98089057D01*
X128781776Y-98107537D01*
X128773384Y-98125279D01*
X128763294Y-98142114D01*
X128751602Y-98157879D01*
X128738421Y-98172421D01*
X128723879Y-98185602D01*
X128708114Y-98197294D01*
X128691279Y-98207384D01*
X128673537Y-98215776D01*
X128655057Y-98222388D01*
X128636018Y-98227157D01*
X128616603Y-98230037D01*
X128597000Y-98231000D01*
X128197000Y-98231000D01*
X128177397Y-98230037D01*
X128157982Y-98227157D01*
X128138943Y-98222388D01*
X128120463Y-98215776D01*
X128102721Y-98207384D01*
X128085886Y-98197294D01*
X128070121Y-98185602D01*
X128055579Y-98172421D01*
X128042398Y-98157879D01*
X128030706Y-98142114D01*
X128020616Y-98125279D01*
X128012224Y-98107537D01*
X128005612Y-98089057D01*
X128000843Y-98070018D01*
X127997963Y-98050603D01*
X127997000Y-98031000D01*
X127997000Y-96181000D01*
X127997963Y-96161397D01*
X128000843Y-96141982D01*
X128005612Y-96122943D01*
X128012224Y-96104463D01*
X128020616Y-96086721D01*
X128030706Y-96069886D01*
X128042398Y-96054121D01*
X128055579Y-96039579D01*
X128070121Y-96026398D01*
X128085886Y-96014706D01*
X128102721Y-96004616D01*
X128120463Y-95996224D01*
X128138943Y-95989612D01*
X128157982Y-95984843D01*
X128177397Y-95981963D01*
X128197000Y-95981000D01*
X128597000Y-95981000D01*
X128616603Y-95981963D01*
G37*
G36*
X127346603Y-95981963D02*
G01*
X127366018Y-95984843D01*
X127385057Y-95989612D01*
X127403537Y-95996224D01*
X127421279Y-96004616D01*
X127438114Y-96014706D01*
X127453879Y-96026398D01*
X127468421Y-96039579D01*
X127481602Y-96054121D01*
X127493294Y-96069886D01*
X127503384Y-96086721D01*
X127511776Y-96104463D01*
X127518388Y-96122943D01*
X127523157Y-96141982D01*
X127526037Y-96161397D01*
X127527000Y-96181000D01*
X127527000Y-98031000D01*
X127526037Y-98050603D01*
X127523157Y-98070018D01*
X127518388Y-98089057D01*
X127511776Y-98107537D01*
X127503384Y-98125279D01*
X127493294Y-98142114D01*
X127481602Y-98157879D01*
X127468421Y-98172421D01*
X127453879Y-98185602D01*
X127438114Y-98197294D01*
X127421279Y-98207384D01*
X127403537Y-98215776D01*
X127385057Y-98222388D01*
X127366018Y-98227157D01*
X127346603Y-98230037D01*
X127327000Y-98231000D01*
X126927000Y-98231000D01*
X126907397Y-98230037D01*
X126887982Y-98227157D01*
X126868943Y-98222388D01*
X126850463Y-98215776D01*
X126832721Y-98207384D01*
X126815886Y-98197294D01*
X126800121Y-98185602D01*
X126785579Y-98172421D01*
X126772398Y-98157879D01*
X126760706Y-98142114D01*
X126750616Y-98125279D01*
X126742224Y-98107537D01*
X126735612Y-98089057D01*
X126730843Y-98070018D01*
X126727963Y-98050603D01*
X126727000Y-98031000D01*
X126727000Y-96181000D01*
X126727963Y-96161397D01*
X126730843Y-96141982D01*
X126735612Y-96122943D01*
X126742224Y-96104463D01*
X126750616Y-96086721D01*
X126760706Y-96069886D01*
X126772398Y-96054121D01*
X126785579Y-96039579D01*
X126800121Y-96026398D01*
X126815886Y-96014706D01*
X126832721Y-96004616D01*
X126850463Y-95996224D01*
X126868943Y-95989612D01*
X126887982Y-95984843D01*
X126907397Y-95981963D01*
X126927000Y-95981000D01*
X127327000Y-95981000D01*
X127346603Y-95981963D01*
G37*
G36*
X126076603Y-95981963D02*
G01*
X126096018Y-95984843D01*
X126115057Y-95989612D01*
X126133537Y-95996224D01*
X126151279Y-96004616D01*
X126168114Y-96014706D01*
X126183879Y-96026398D01*
X126198421Y-96039579D01*
X126211602Y-96054121D01*
X126223294Y-96069886D01*
X126233384Y-96086721D01*
X126241776Y-96104463D01*
X126248388Y-96122943D01*
X126253157Y-96141982D01*
X126256037Y-96161397D01*
X126257000Y-96181000D01*
X126257000Y-98031000D01*
X126256037Y-98050603D01*
X126253157Y-98070018D01*
X126248388Y-98089057D01*
X126241776Y-98107537D01*
X126233384Y-98125279D01*
X126223294Y-98142114D01*
X126211602Y-98157879D01*
X126198421Y-98172421D01*
X126183879Y-98185602D01*
X126168114Y-98197294D01*
X126151279Y-98207384D01*
X126133537Y-98215776D01*
X126115057Y-98222388D01*
X126096018Y-98227157D01*
X126076603Y-98230037D01*
X126057000Y-98231000D01*
X125657000Y-98231000D01*
X125637397Y-98230037D01*
X125617982Y-98227157D01*
X125598943Y-98222388D01*
X125580463Y-98215776D01*
X125562721Y-98207384D01*
X125545886Y-98197294D01*
X125530121Y-98185602D01*
X125515579Y-98172421D01*
X125502398Y-98157879D01*
X125490706Y-98142114D01*
X125480616Y-98125279D01*
X125472224Y-98107537D01*
X125465612Y-98089057D01*
X125460843Y-98070018D01*
X125457963Y-98050603D01*
X125457000Y-98031000D01*
X125457000Y-96181000D01*
X125457963Y-96161397D01*
X125460843Y-96141982D01*
X125465612Y-96122943D01*
X125472224Y-96104463D01*
X125480616Y-96086721D01*
X125490706Y-96069886D01*
X125502398Y-96054121D01*
X125515579Y-96039579D01*
X125530121Y-96026398D01*
X125545886Y-96014706D01*
X125562721Y-96004616D01*
X125580463Y-95996224D01*
X125598943Y-95989612D01*
X125617982Y-95984843D01*
X125637397Y-95981963D01*
X125657000Y-95981000D01*
X126057000Y-95981000D01*
X126076603Y-95981963D01*
G37*
G36*
X124806603Y-95981963D02*
G01*
X124826018Y-95984843D01*
X124845057Y-95989612D01*
X124863537Y-95996224D01*
X124881279Y-96004616D01*
X124898114Y-96014706D01*
X124913879Y-96026398D01*
X124928421Y-96039579D01*
X124941602Y-96054121D01*
X124953294Y-96069886D01*
X124963384Y-96086721D01*
X124971776Y-96104463D01*
X124978388Y-96122943D01*
X124983157Y-96141982D01*
X124986037Y-96161397D01*
X124987000Y-96181000D01*
X124987000Y-98031000D01*
X124986037Y-98050603D01*
X124983157Y-98070018D01*
X124978388Y-98089057D01*
X124971776Y-98107537D01*
X124963384Y-98125279D01*
X124953294Y-98142114D01*
X124941602Y-98157879D01*
X124928421Y-98172421D01*
X124913879Y-98185602D01*
X124898114Y-98197294D01*
X124881279Y-98207384D01*
X124863537Y-98215776D01*
X124845057Y-98222388D01*
X124826018Y-98227157D01*
X124806603Y-98230037D01*
X124787000Y-98231000D01*
X124387000Y-98231000D01*
X124367397Y-98230037D01*
X124347982Y-98227157D01*
X124328943Y-98222388D01*
X124310463Y-98215776D01*
X124292721Y-98207384D01*
X124275886Y-98197294D01*
X124260121Y-98185602D01*
X124245579Y-98172421D01*
X124232398Y-98157879D01*
X124220706Y-98142114D01*
X124210616Y-98125279D01*
X124202224Y-98107537D01*
X124195612Y-98089057D01*
X124190843Y-98070018D01*
X124187963Y-98050603D01*
X124187000Y-98031000D01*
X124187000Y-96181000D01*
X124187963Y-96161397D01*
X124190843Y-96141982D01*
X124195612Y-96122943D01*
X124202224Y-96104463D01*
X124210616Y-96086721D01*
X124220706Y-96069886D01*
X124232398Y-96054121D01*
X124245579Y-96039579D01*
X124260121Y-96026398D01*
X124275886Y-96014706D01*
X124292721Y-96004616D01*
X124310463Y-95996224D01*
X124328943Y-95989612D01*
X124347982Y-95984843D01*
X124367397Y-95981963D01*
X124387000Y-95981000D01*
X124787000Y-95981000D01*
X124806603Y-95981963D01*
G37*
G36*
X123536603Y-95981963D02*
G01*
X123556018Y-95984843D01*
X123575057Y-95989612D01*
X123593537Y-95996224D01*
X123611279Y-96004616D01*
X123628114Y-96014706D01*
X123643879Y-96026398D01*
X123658421Y-96039579D01*
X123671602Y-96054121D01*
X123683294Y-96069886D01*
X123693384Y-96086721D01*
X123701776Y-96104463D01*
X123708388Y-96122943D01*
X123713157Y-96141982D01*
X123716037Y-96161397D01*
X123717000Y-96181000D01*
X123717000Y-98031000D01*
X123716037Y-98050603D01*
X123713157Y-98070018D01*
X123708388Y-98089057D01*
X123701776Y-98107537D01*
X123693384Y-98125279D01*
X123683294Y-98142114D01*
X123671602Y-98157879D01*
X123658421Y-98172421D01*
X123643879Y-98185602D01*
X123628114Y-98197294D01*
X123611279Y-98207384D01*
X123593537Y-98215776D01*
X123575057Y-98222388D01*
X123556018Y-98227157D01*
X123536603Y-98230037D01*
X123517000Y-98231000D01*
X123117000Y-98231000D01*
X123097397Y-98230037D01*
X123077982Y-98227157D01*
X123058943Y-98222388D01*
X123040463Y-98215776D01*
X123022721Y-98207384D01*
X123005886Y-98197294D01*
X122990121Y-98185602D01*
X122975579Y-98172421D01*
X122962398Y-98157879D01*
X122950706Y-98142114D01*
X122940616Y-98125279D01*
X122932224Y-98107537D01*
X122925612Y-98089057D01*
X122920843Y-98070018D01*
X122917963Y-98050603D01*
X122917000Y-98031000D01*
X122917000Y-96181000D01*
X122917963Y-96161397D01*
X122920843Y-96141982D01*
X122925612Y-96122943D01*
X122932224Y-96104463D01*
X122940616Y-96086721D01*
X122950706Y-96069886D01*
X122962398Y-96054121D01*
X122975579Y-96039579D01*
X122990121Y-96026398D01*
X123005886Y-96014706D01*
X123022721Y-96004616D01*
X123040463Y-95996224D01*
X123058943Y-95989612D01*
X123077982Y-95984843D01*
X123097397Y-95981963D01*
X123117000Y-95981000D01*
X123517000Y-95981000D01*
X123536603Y-95981963D01*
G37*
G36*
X122266603Y-95981963D02*
G01*
X122286018Y-95984843D01*
X122305057Y-95989612D01*
X122323537Y-95996224D01*
X122341279Y-96004616D01*
X122358114Y-96014706D01*
X122373879Y-96026398D01*
X122388421Y-96039579D01*
X122401602Y-96054121D01*
X122413294Y-96069886D01*
X122423384Y-96086721D01*
X122431776Y-96104463D01*
X122438388Y-96122943D01*
X122443157Y-96141982D01*
X122446037Y-96161397D01*
X122447000Y-96181000D01*
X122447000Y-98031000D01*
X122446037Y-98050603D01*
X122443157Y-98070018D01*
X122438388Y-98089057D01*
X122431776Y-98107537D01*
X122423384Y-98125279D01*
X122413294Y-98142114D01*
X122401602Y-98157879D01*
X122388421Y-98172421D01*
X122373879Y-98185602D01*
X122358114Y-98197294D01*
X122341279Y-98207384D01*
X122323537Y-98215776D01*
X122305057Y-98222388D01*
X122286018Y-98227157D01*
X122266603Y-98230037D01*
X122247000Y-98231000D01*
X121847000Y-98231000D01*
X121827397Y-98230037D01*
X121807982Y-98227157D01*
X121788943Y-98222388D01*
X121770463Y-98215776D01*
X121752721Y-98207384D01*
X121735886Y-98197294D01*
X121720121Y-98185602D01*
X121705579Y-98172421D01*
X121692398Y-98157879D01*
X121680706Y-98142114D01*
X121670616Y-98125279D01*
X121662224Y-98107537D01*
X121655612Y-98089057D01*
X121650843Y-98070018D01*
X121647963Y-98050603D01*
X121647000Y-98031000D01*
X121647000Y-96181000D01*
X121647963Y-96161397D01*
X121650843Y-96141982D01*
X121655612Y-96122943D01*
X121662224Y-96104463D01*
X121670616Y-96086721D01*
X121680706Y-96069886D01*
X121692398Y-96054121D01*
X121705579Y-96039579D01*
X121720121Y-96026398D01*
X121735886Y-96014706D01*
X121752721Y-96004616D01*
X121770463Y-95996224D01*
X121788943Y-95989612D01*
X121807982Y-95984843D01*
X121827397Y-95981963D01*
X121847000Y-95981000D01*
X122247000Y-95981000D01*
X122266603Y-95981963D01*
G37*
G36*
X120996603Y-95981963D02*
G01*
X121016018Y-95984843D01*
X121035057Y-95989612D01*
X121053537Y-95996224D01*
X121071279Y-96004616D01*
X121088114Y-96014706D01*
X121103879Y-96026398D01*
X121118421Y-96039579D01*
X121131602Y-96054121D01*
X121143294Y-96069886D01*
X121153384Y-96086721D01*
X121161776Y-96104463D01*
X121168388Y-96122943D01*
X121173157Y-96141982D01*
X121176037Y-96161397D01*
X121177000Y-96181000D01*
X121177000Y-98031000D01*
X121176037Y-98050603D01*
X121173157Y-98070018D01*
X121168388Y-98089057D01*
X121161776Y-98107537D01*
X121153384Y-98125279D01*
X121143294Y-98142114D01*
X121131602Y-98157879D01*
X121118421Y-98172421D01*
X121103879Y-98185602D01*
X121088114Y-98197294D01*
X121071279Y-98207384D01*
X121053537Y-98215776D01*
X121035057Y-98222388D01*
X121016018Y-98227157D01*
X120996603Y-98230037D01*
X120977000Y-98231000D01*
X120577000Y-98231000D01*
X120557397Y-98230037D01*
X120537982Y-98227157D01*
X120518943Y-98222388D01*
X120500463Y-98215776D01*
X120482721Y-98207384D01*
X120465886Y-98197294D01*
X120450121Y-98185602D01*
X120435579Y-98172421D01*
X120422398Y-98157879D01*
X120410706Y-98142114D01*
X120400616Y-98125279D01*
X120392224Y-98107537D01*
X120385612Y-98089057D01*
X120380843Y-98070018D01*
X120377963Y-98050603D01*
X120377000Y-98031000D01*
X120377000Y-96181000D01*
X120377963Y-96161397D01*
X120380843Y-96141982D01*
X120385612Y-96122943D01*
X120392224Y-96104463D01*
X120400616Y-96086721D01*
X120410706Y-96069886D01*
X120422398Y-96054121D01*
X120435579Y-96039579D01*
X120450121Y-96026398D01*
X120465886Y-96014706D01*
X120482721Y-96004616D01*
X120500463Y-95996224D01*
X120518943Y-95989612D01*
X120537982Y-95984843D01*
X120557397Y-95981963D01*
X120577000Y-95981000D01*
X120977000Y-95981000D01*
X120996603Y-95981963D01*
G37*
G36*
X119726603Y-95981963D02*
G01*
X119746018Y-95984843D01*
X119765057Y-95989612D01*
X119783537Y-95996224D01*
X119801279Y-96004616D01*
X119818114Y-96014706D01*
X119833879Y-96026398D01*
X119848421Y-96039579D01*
X119861602Y-96054121D01*
X119873294Y-96069886D01*
X119883384Y-96086721D01*
X119891776Y-96104463D01*
X119898388Y-96122943D01*
X119903157Y-96141982D01*
X119906037Y-96161397D01*
X119907000Y-96181000D01*
X119907000Y-98031000D01*
X119906037Y-98050603D01*
X119903157Y-98070018D01*
X119898388Y-98089057D01*
X119891776Y-98107537D01*
X119883384Y-98125279D01*
X119873294Y-98142114D01*
X119861602Y-98157879D01*
X119848421Y-98172421D01*
X119833879Y-98185602D01*
X119818114Y-98197294D01*
X119801279Y-98207384D01*
X119783537Y-98215776D01*
X119765057Y-98222388D01*
X119746018Y-98227157D01*
X119726603Y-98230037D01*
X119707000Y-98231000D01*
X119307000Y-98231000D01*
X119287397Y-98230037D01*
X119267982Y-98227157D01*
X119248943Y-98222388D01*
X119230463Y-98215776D01*
X119212721Y-98207384D01*
X119195886Y-98197294D01*
X119180121Y-98185602D01*
X119165579Y-98172421D01*
X119152398Y-98157879D01*
X119140706Y-98142114D01*
X119130616Y-98125279D01*
X119122224Y-98107537D01*
X119115612Y-98089057D01*
X119110843Y-98070018D01*
X119107963Y-98050603D01*
X119107000Y-98031000D01*
X119107000Y-96181000D01*
X119107963Y-96161397D01*
X119110843Y-96141982D01*
X119115612Y-96122943D01*
X119122224Y-96104463D01*
X119130616Y-96086721D01*
X119140706Y-96069886D01*
X119152398Y-96054121D01*
X119165579Y-96039579D01*
X119180121Y-96026398D01*
X119195886Y-96014706D01*
X119212721Y-96004616D01*
X119230463Y-95996224D01*
X119248943Y-95989612D01*
X119267982Y-95984843D01*
X119287397Y-95981963D01*
X119307000Y-95981000D01*
X119707000Y-95981000D01*
X119726603Y-95981963D01*
G37*
G36*
X118456603Y-95981963D02*
G01*
X118476018Y-95984843D01*
X118495057Y-95989612D01*
X118513537Y-95996224D01*
X118531279Y-96004616D01*
X118548114Y-96014706D01*
X118563879Y-96026398D01*
X118578421Y-96039579D01*
X118591602Y-96054121D01*
X118603294Y-96069886D01*
X118613384Y-96086721D01*
X118621776Y-96104463D01*
X118628388Y-96122943D01*
X118633157Y-96141982D01*
X118636037Y-96161397D01*
X118637000Y-96181000D01*
X118637000Y-98031000D01*
X118636037Y-98050603D01*
X118633157Y-98070018D01*
X118628388Y-98089057D01*
X118621776Y-98107537D01*
X118613384Y-98125279D01*
X118603294Y-98142114D01*
X118591602Y-98157879D01*
X118578421Y-98172421D01*
X118563879Y-98185602D01*
X118548114Y-98197294D01*
X118531279Y-98207384D01*
X118513537Y-98215776D01*
X118495057Y-98222388D01*
X118476018Y-98227157D01*
X118456603Y-98230037D01*
X118437000Y-98231000D01*
X118037000Y-98231000D01*
X118017397Y-98230037D01*
X117997982Y-98227157D01*
X117978943Y-98222388D01*
X117960463Y-98215776D01*
X117942721Y-98207384D01*
X117925886Y-98197294D01*
X117910121Y-98185602D01*
X117895579Y-98172421D01*
X117882398Y-98157879D01*
X117870706Y-98142114D01*
X117860616Y-98125279D01*
X117852224Y-98107537D01*
X117845612Y-98089057D01*
X117840843Y-98070018D01*
X117837963Y-98050603D01*
X117837000Y-98031000D01*
X117837000Y-96181000D01*
X117837963Y-96161397D01*
X117840843Y-96141982D01*
X117845612Y-96122943D01*
X117852224Y-96104463D01*
X117860616Y-96086721D01*
X117870706Y-96069886D01*
X117882398Y-96054121D01*
X117895579Y-96039579D01*
X117910121Y-96026398D01*
X117925886Y-96014706D01*
X117942721Y-96004616D01*
X117960463Y-95996224D01*
X117978943Y-95989612D01*
X117997982Y-95984843D01*
X118017397Y-95981963D01*
X118037000Y-95981000D01*
X118437000Y-95981000D01*
X118456603Y-95981963D01*
G37*
G36*
X117186603Y-95981963D02*
G01*
X117206018Y-95984843D01*
X117225057Y-95989612D01*
X117243537Y-95996224D01*
X117261279Y-96004616D01*
X117278114Y-96014706D01*
X117293879Y-96026398D01*
X117308421Y-96039579D01*
X117321602Y-96054121D01*
X117333294Y-96069886D01*
X117343384Y-96086721D01*
X117351776Y-96104463D01*
X117358388Y-96122943D01*
X117363157Y-96141982D01*
X117366037Y-96161397D01*
X117367000Y-96181000D01*
X117367000Y-98031000D01*
X117366037Y-98050603D01*
X117363157Y-98070018D01*
X117358388Y-98089057D01*
X117351776Y-98107537D01*
X117343384Y-98125279D01*
X117333294Y-98142114D01*
X117321602Y-98157879D01*
X117308421Y-98172421D01*
X117293879Y-98185602D01*
X117278114Y-98197294D01*
X117261279Y-98207384D01*
X117243537Y-98215776D01*
X117225057Y-98222388D01*
X117206018Y-98227157D01*
X117186603Y-98230037D01*
X117167000Y-98231000D01*
X116767000Y-98231000D01*
X116747397Y-98230037D01*
X116727982Y-98227157D01*
X116708943Y-98222388D01*
X116690463Y-98215776D01*
X116672721Y-98207384D01*
X116655886Y-98197294D01*
X116640121Y-98185602D01*
X116625579Y-98172421D01*
X116612398Y-98157879D01*
X116600706Y-98142114D01*
X116590616Y-98125279D01*
X116582224Y-98107537D01*
X116575612Y-98089057D01*
X116570843Y-98070018D01*
X116567963Y-98050603D01*
X116567000Y-98031000D01*
X116567000Y-96181000D01*
X116567963Y-96161397D01*
X116570843Y-96141982D01*
X116575612Y-96122943D01*
X116582224Y-96104463D01*
X116590616Y-96086721D01*
X116600706Y-96069886D01*
X116612398Y-96054121D01*
X116625579Y-96039579D01*
X116640121Y-96026398D01*
X116655886Y-96014706D01*
X116672721Y-96004616D01*
X116690463Y-95996224D01*
X116708943Y-95989612D01*
X116727982Y-95984843D01*
X116747397Y-95981963D01*
X116767000Y-95981000D01*
X117167000Y-95981000D01*
X117186603Y-95981963D01*
G37*
G36*
X115916603Y-95981963D02*
G01*
X115936018Y-95984843D01*
X115955057Y-95989612D01*
X115973537Y-95996224D01*
X115991279Y-96004616D01*
X116008114Y-96014706D01*
X116023879Y-96026398D01*
X116038421Y-96039579D01*
X116051602Y-96054121D01*
X116063294Y-96069886D01*
X116073384Y-96086721D01*
X116081776Y-96104463D01*
X116088388Y-96122943D01*
X116093157Y-96141982D01*
X116096037Y-96161397D01*
X116097000Y-96181000D01*
X116097000Y-98031000D01*
X116096037Y-98050603D01*
X116093157Y-98070018D01*
X116088388Y-98089057D01*
X116081776Y-98107537D01*
X116073384Y-98125279D01*
X116063294Y-98142114D01*
X116051602Y-98157879D01*
X116038421Y-98172421D01*
X116023879Y-98185602D01*
X116008114Y-98197294D01*
X115991279Y-98207384D01*
X115973537Y-98215776D01*
X115955057Y-98222388D01*
X115936018Y-98227157D01*
X115916603Y-98230037D01*
X115897000Y-98231000D01*
X115497000Y-98231000D01*
X115477397Y-98230037D01*
X115457982Y-98227157D01*
X115438943Y-98222388D01*
X115420463Y-98215776D01*
X115402721Y-98207384D01*
X115385886Y-98197294D01*
X115370121Y-98185602D01*
X115355579Y-98172421D01*
X115342398Y-98157879D01*
X115330706Y-98142114D01*
X115320616Y-98125279D01*
X115312224Y-98107537D01*
X115305612Y-98089057D01*
X115300843Y-98070018D01*
X115297963Y-98050603D01*
X115297000Y-98031000D01*
X115297000Y-96181000D01*
X115297963Y-96161397D01*
X115300843Y-96141982D01*
X115305612Y-96122943D01*
X115312224Y-96104463D01*
X115320616Y-96086721D01*
X115330706Y-96069886D01*
X115342398Y-96054121D01*
X115355579Y-96039579D01*
X115370121Y-96026398D01*
X115385886Y-96014706D01*
X115402721Y-96004616D01*
X115420463Y-95996224D01*
X115438943Y-95989612D01*
X115457982Y-95984843D01*
X115477397Y-95981963D01*
X115497000Y-95981000D01*
X115897000Y-95981000D01*
X115916603Y-95981963D01*
G37*
G04 #@! TD*
G04 #@! TO.C,E5*
G36*
X141411975Y-95103345D02*
G01*
X141439099Y-95107369D01*
X141465697Y-95114031D01*
X141491514Y-95123269D01*
X141516302Y-95134993D01*
X141539821Y-95149089D01*
X141561845Y-95165424D01*
X141582162Y-95183838D01*
X141600576Y-95204155D01*
X141616911Y-95226179D01*
X141631007Y-95249698D01*
X141642731Y-95274486D01*
X141651969Y-95300303D01*
X141658631Y-95326901D01*
X141662655Y-95354025D01*
X141664000Y-95381412D01*
X141664000Y-96722588D01*
X141662655Y-96749975D01*
X141658631Y-96777099D01*
X141651969Y-96803697D01*
X141642731Y-96829514D01*
X141631007Y-96854302D01*
X141616911Y-96877821D01*
X141600576Y-96899845D01*
X141582162Y-96920162D01*
X141561845Y-96938576D01*
X141539821Y-96954911D01*
X141516302Y-96969007D01*
X141491514Y-96980731D01*
X141465697Y-96989969D01*
X141439099Y-96996631D01*
X141411975Y-97000655D01*
X141384588Y-97002000D01*
X139793412Y-97002000D01*
X139766025Y-97000655D01*
X139738901Y-96996631D01*
X139712303Y-96989969D01*
X139686486Y-96980731D01*
X139661698Y-96969007D01*
X139638179Y-96954911D01*
X139616155Y-96938576D01*
X139595838Y-96920162D01*
X139577424Y-96899845D01*
X139561089Y-96877821D01*
X139546993Y-96854302D01*
X139535269Y-96829514D01*
X139526031Y-96803697D01*
X139519369Y-96777099D01*
X139515345Y-96749975D01*
X139514000Y-96722588D01*
X139514000Y-95381412D01*
X139515345Y-95354025D01*
X139519369Y-95326901D01*
X139526031Y-95300303D01*
X139535269Y-95274486D01*
X139546993Y-95249698D01*
X139561089Y-95226179D01*
X139577424Y-95204155D01*
X139595838Y-95183838D01*
X139616155Y-95165424D01*
X139638179Y-95149089D01*
X139661698Y-95134993D01*
X139686486Y-95123269D01*
X139712303Y-95114031D01*
X139738901Y-95107369D01*
X139766025Y-95103345D01*
X139793412Y-95102000D01*
X141384588Y-95102000D01*
X141411975Y-95103345D01*
G37*
D14*
X140589000Y-98552000D03*
X140589000Y-101052000D03*
X140589000Y-103552000D03*
X140589000Y-106052000D03*
G04 #@! TD*
D15*
G04 #@! TO.C,PWR3*
X104100000Y-98200000D03*
D10*
G36*
X107297975Y-97101345D02*
G01*
X107325099Y-97105369D01*
X107351697Y-97112031D01*
X107377514Y-97121269D01*
X107402302Y-97132993D01*
X107425821Y-97147089D01*
X107447845Y-97163424D01*
X107468162Y-97181838D01*
X107486576Y-97202155D01*
X107502911Y-97224179D01*
X107517007Y-97247698D01*
X107528731Y-97272486D01*
X107537969Y-97298303D01*
X107544631Y-97324901D01*
X107548655Y-97352025D01*
X107550000Y-97379412D01*
X107550000Y-99020588D01*
X107548655Y-99047975D01*
X107544631Y-99075099D01*
X107537969Y-99101697D01*
X107528731Y-99127514D01*
X107517007Y-99152302D01*
X107502911Y-99175821D01*
X107486576Y-99197845D01*
X107468162Y-99218162D01*
X107447845Y-99236576D01*
X107425821Y-99252911D01*
X107402302Y-99267007D01*
X107377514Y-99278731D01*
X107351697Y-99287969D01*
X107325099Y-99294631D01*
X107297975Y-99298655D01*
X107270588Y-99300000D01*
X105929412Y-99300000D01*
X105902025Y-99298655D01*
X105874901Y-99294631D01*
X105848303Y-99287969D01*
X105822486Y-99278731D01*
X105797698Y-99267007D01*
X105774179Y-99252911D01*
X105752155Y-99236576D01*
X105731838Y-99218162D01*
X105713424Y-99197845D01*
X105697089Y-99175821D01*
X105682993Y-99152302D01*
X105671269Y-99127514D01*
X105662031Y-99101697D01*
X105655369Y-99075099D01*
X105651345Y-99047975D01*
X105650000Y-99020588D01*
X105650000Y-97379412D01*
X105651345Y-97352025D01*
X105655369Y-97324901D01*
X105662031Y-97298303D01*
X105671269Y-97272486D01*
X105682993Y-97247698D01*
X105697089Y-97224179D01*
X105713424Y-97202155D01*
X105731838Y-97181838D01*
X105752155Y-97163424D01*
X105774179Y-97147089D01*
X105797698Y-97132993D01*
X105822486Y-97121269D01*
X105848303Y-97112031D01*
X105874901Y-97105369D01*
X105902025Y-97101345D01*
X105929412Y-97100000D01*
X107270588Y-97100000D01*
X107297975Y-97101345D01*
G37*
G04 #@! TD*
D13*
G04 #@! TO.C,E4*
X133190000Y-105029000D03*
X130690000Y-105029000D03*
X128190000Y-105029000D03*
X125690000Y-105029000D03*
D10*
G36*
X123887975Y-103955345D02*
G01*
X123915099Y-103959369D01*
X123941697Y-103966031D01*
X123967514Y-103975269D01*
X123992302Y-103986993D01*
X124015821Y-104001089D01*
X124037845Y-104017424D01*
X124058162Y-104035838D01*
X124076576Y-104056155D01*
X124092911Y-104078179D01*
X124107007Y-104101698D01*
X124118731Y-104126486D01*
X124127969Y-104152303D01*
X124134631Y-104178901D01*
X124138655Y-104206025D01*
X124140000Y-104233412D01*
X124140000Y-105824588D01*
X124138655Y-105851975D01*
X124134631Y-105879099D01*
X124127969Y-105905697D01*
X124118731Y-105931514D01*
X124107007Y-105956302D01*
X124092911Y-105979821D01*
X124076576Y-106001845D01*
X124058162Y-106022162D01*
X124037845Y-106040576D01*
X124015821Y-106056911D01*
X123992302Y-106071007D01*
X123967514Y-106082731D01*
X123941697Y-106091969D01*
X123915099Y-106098631D01*
X123887975Y-106102655D01*
X123860588Y-106104000D01*
X122519412Y-106104000D01*
X122492025Y-106102655D01*
X122464901Y-106098631D01*
X122438303Y-106091969D01*
X122412486Y-106082731D01*
X122387698Y-106071007D01*
X122364179Y-106056911D01*
X122342155Y-106040576D01*
X122321838Y-106022162D01*
X122303424Y-106001845D01*
X122287089Y-105979821D01*
X122272993Y-105956302D01*
X122261269Y-105931514D01*
X122252031Y-105905697D01*
X122245369Y-105879099D01*
X122241345Y-105851975D01*
X122240000Y-105824588D01*
X122240000Y-104233412D01*
X122241345Y-104206025D01*
X122245369Y-104178901D01*
X122252031Y-104152303D01*
X122261269Y-104126486D01*
X122272993Y-104101698D01*
X122287089Y-104078179D01*
X122303424Y-104056155D01*
X122321838Y-104035838D01*
X122342155Y-104017424D01*
X122364179Y-104001089D01*
X122387698Y-103986993D01*
X122412486Y-103975269D01*
X122438303Y-103966031D01*
X122464901Y-103959369D01*
X122492025Y-103955345D01*
X122519412Y-103954000D01*
X123860588Y-103954000D01*
X123887975Y-103955345D01*
G37*
G04 #@! TD*
D13*
G04 #@! TO.C,E3*
X116299000Y-105029000D03*
X113799000Y-105029000D03*
X111299000Y-105029000D03*
X108799000Y-105029000D03*
D10*
G36*
X106996975Y-103955345D02*
G01*
X107024099Y-103959369D01*
X107050697Y-103966031D01*
X107076514Y-103975269D01*
X107101302Y-103986993D01*
X107124821Y-104001089D01*
X107146845Y-104017424D01*
X107167162Y-104035838D01*
X107185576Y-104056155D01*
X107201911Y-104078179D01*
X107216007Y-104101698D01*
X107227731Y-104126486D01*
X107236969Y-104152303D01*
X107243631Y-104178901D01*
X107247655Y-104206025D01*
X107249000Y-104233412D01*
X107249000Y-105824588D01*
X107247655Y-105851975D01*
X107243631Y-105879099D01*
X107236969Y-105905697D01*
X107227731Y-105931514D01*
X107216007Y-105956302D01*
X107201911Y-105979821D01*
X107185576Y-106001845D01*
X107167162Y-106022162D01*
X107146845Y-106040576D01*
X107124821Y-106056911D01*
X107101302Y-106071007D01*
X107076514Y-106082731D01*
X107050697Y-106091969D01*
X107024099Y-106098631D01*
X106996975Y-106102655D01*
X106969588Y-106104000D01*
X105628412Y-106104000D01*
X105601025Y-106102655D01*
X105573901Y-106098631D01*
X105547303Y-106091969D01*
X105521486Y-106082731D01*
X105496698Y-106071007D01*
X105473179Y-106056911D01*
X105451155Y-106040576D01*
X105430838Y-106022162D01*
X105412424Y-106001845D01*
X105396089Y-105979821D01*
X105381993Y-105956302D01*
X105370269Y-105931514D01*
X105361031Y-105905697D01*
X105354369Y-105879099D01*
X105350345Y-105851975D01*
X105349000Y-105824588D01*
X105349000Y-104233412D01*
X105350345Y-104206025D01*
X105354369Y-104178901D01*
X105361031Y-104152303D01*
X105370269Y-104126486D01*
X105381993Y-104101698D01*
X105396089Y-104078179D01*
X105412424Y-104056155D01*
X105430838Y-104035838D01*
X105451155Y-104017424D01*
X105473179Y-104001089D01*
X105496698Y-103986993D01*
X105521486Y-103975269D01*
X105547303Y-103966031D01*
X105573901Y-103959369D01*
X105601025Y-103955345D01*
X105628412Y-103954000D01*
X106969588Y-103954000D01*
X106996975Y-103955345D01*
G37*
G04 #@! TD*
D13*
G04 #@! TO.C,E2*
X122969000Y-113919000D03*
X125469000Y-113919000D03*
X127969000Y-113919000D03*
X130469000Y-113919000D03*
D10*
G36*
X133666975Y-112845345D02*
G01*
X133694099Y-112849369D01*
X133720697Y-112856031D01*
X133746514Y-112865269D01*
X133771302Y-112876993D01*
X133794821Y-112891089D01*
X133816845Y-112907424D01*
X133837162Y-112925838D01*
X133855576Y-112946155D01*
X133871911Y-112968179D01*
X133886007Y-112991698D01*
X133897731Y-113016486D01*
X133906969Y-113042303D01*
X133913631Y-113068901D01*
X133917655Y-113096025D01*
X133919000Y-113123412D01*
X133919000Y-114714588D01*
X133917655Y-114741975D01*
X133913631Y-114769099D01*
X133906969Y-114795697D01*
X133897731Y-114821514D01*
X133886007Y-114846302D01*
X133871911Y-114869821D01*
X133855576Y-114891845D01*
X133837162Y-114912162D01*
X133816845Y-114930576D01*
X133794821Y-114946911D01*
X133771302Y-114961007D01*
X133746514Y-114972731D01*
X133720697Y-114981969D01*
X133694099Y-114988631D01*
X133666975Y-114992655D01*
X133639588Y-114994000D01*
X132298412Y-114994000D01*
X132271025Y-114992655D01*
X132243901Y-114988631D01*
X132217303Y-114981969D01*
X132191486Y-114972731D01*
X132166698Y-114961007D01*
X132143179Y-114946911D01*
X132121155Y-114930576D01*
X132100838Y-114912162D01*
X132082424Y-114891845D01*
X132066089Y-114869821D01*
X132051993Y-114846302D01*
X132040269Y-114821514D01*
X132031031Y-114795697D01*
X132024369Y-114769099D01*
X132020345Y-114741975D01*
X132019000Y-114714588D01*
X132019000Y-113123412D01*
X132020345Y-113096025D01*
X132024369Y-113068901D01*
X132031031Y-113042303D01*
X132040269Y-113016486D01*
X132051993Y-112991698D01*
X132066089Y-112968179D01*
X132082424Y-112946155D01*
X132100838Y-112925838D01*
X132121155Y-112907424D01*
X132143179Y-112891089D01*
X132166698Y-112876993D01*
X132191486Y-112865269D01*
X132217303Y-112856031D01*
X132243901Y-112849369D01*
X132271025Y-112845345D01*
X132298412Y-112844000D01*
X133639588Y-112844000D01*
X133666975Y-112845345D01*
G37*
G04 #@! TD*
D13*
G04 #@! TO.C,E1*
X106078000Y-113919000D03*
X108578000Y-113919000D03*
X111078000Y-113919000D03*
X113578000Y-113919000D03*
D10*
G36*
X116775975Y-112845345D02*
G01*
X116803099Y-112849369D01*
X116829697Y-112856031D01*
X116855514Y-112865269D01*
X116880302Y-112876993D01*
X116903821Y-112891089D01*
X116925845Y-112907424D01*
X116946162Y-112925838D01*
X116964576Y-112946155D01*
X116980911Y-112968179D01*
X116995007Y-112991698D01*
X117006731Y-113016486D01*
X117015969Y-113042303D01*
X117022631Y-113068901D01*
X117026655Y-113096025D01*
X117028000Y-113123412D01*
X117028000Y-114714588D01*
X117026655Y-114741975D01*
X117022631Y-114769099D01*
X117015969Y-114795697D01*
X117006731Y-114821514D01*
X116995007Y-114846302D01*
X116980911Y-114869821D01*
X116964576Y-114891845D01*
X116946162Y-114912162D01*
X116925845Y-114930576D01*
X116903821Y-114946911D01*
X116880302Y-114961007D01*
X116855514Y-114972731D01*
X116829697Y-114981969D01*
X116803099Y-114988631D01*
X116775975Y-114992655D01*
X116748588Y-114994000D01*
X115407412Y-114994000D01*
X115380025Y-114992655D01*
X115352901Y-114988631D01*
X115326303Y-114981969D01*
X115300486Y-114972731D01*
X115275698Y-114961007D01*
X115252179Y-114946911D01*
X115230155Y-114930576D01*
X115209838Y-114912162D01*
X115191424Y-114891845D01*
X115175089Y-114869821D01*
X115160993Y-114846302D01*
X115149269Y-114821514D01*
X115140031Y-114795697D01*
X115133369Y-114769099D01*
X115129345Y-114741975D01*
X115128000Y-114714588D01*
X115128000Y-113123412D01*
X115129345Y-113096025D01*
X115133369Y-113068901D01*
X115140031Y-113042303D01*
X115149269Y-113016486D01*
X115160993Y-112991698D01*
X115175089Y-112968179D01*
X115191424Y-112946155D01*
X115209838Y-112925838D01*
X115230155Y-112907424D01*
X115252179Y-112891089D01*
X115275698Y-112876993D01*
X115300486Y-112865269D01*
X115326303Y-112856031D01*
X115352901Y-112849369D01*
X115380025Y-112845345D01*
X115407412Y-112844000D01*
X116748588Y-112844000D01*
X116775975Y-112845345D01*
G37*
G04 #@! TD*
D16*
G04 #@! TO.C,PWR2*
X82550000Y-96099000D03*
D10*
G36*
X83397975Y-92650345D02*
G01*
X83425099Y-92654369D01*
X83451697Y-92661031D01*
X83477514Y-92670269D01*
X83502302Y-92681993D01*
X83525821Y-92696089D01*
X83547845Y-92712424D01*
X83568162Y-92730838D01*
X83586576Y-92751155D01*
X83602911Y-92773179D01*
X83617007Y-92796698D01*
X83628731Y-92821486D01*
X83637969Y-92847303D01*
X83644631Y-92873901D01*
X83648655Y-92901025D01*
X83650000Y-92928412D01*
X83650000Y-94269588D01*
X83648655Y-94296975D01*
X83644631Y-94324099D01*
X83637969Y-94350697D01*
X83628731Y-94376514D01*
X83617007Y-94401302D01*
X83602911Y-94424821D01*
X83586576Y-94446845D01*
X83568162Y-94467162D01*
X83547845Y-94485576D01*
X83525821Y-94501911D01*
X83502302Y-94516007D01*
X83477514Y-94527731D01*
X83451697Y-94536969D01*
X83425099Y-94543631D01*
X83397975Y-94547655D01*
X83370588Y-94549000D01*
X81729412Y-94549000D01*
X81702025Y-94547655D01*
X81674901Y-94543631D01*
X81648303Y-94536969D01*
X81622486Y-94527731D01*
X81597698Y-94516007D01*
X81574179Y-94501911D01*
X81552155Y-94485576D01*
X81531838Y-94467162D01*
X81513424Y-94446845D01*
X81497089Y-94424821D01*
X81482993Y-94401302D01*
X81471269Y-94376514D01*
X81462031Y-94350697D01*
X81455369Y-94324099D01*
X81451345Y-94296975D01*
X81450000Y-94269588D01*
X81450000Y-92928412D01*
X81451345Y-92901025D01*
X81455369Y-92873901D01*
X81462031Y-92847303D01*
X81471269Y-92821486D01*
X81482993Y-92796698D01*
X81497089Y-92773179D01*
X81513424Y-92751155D01*
X81531838Y-92730838D01*
X81552155Y-92712424D01*
X81574179Y-92696089D01*
X81597698Y-92681993D01*
X81622486Y-92670269D01*
X81648303Y-92661031D01*
X81674901Y-92654369D01*
X81702025Y-92650345D01*
X81729412Y-92649000D01*
X83370588Y-92649000D01*
X83397975Y-92650345D01*
G37*
G04 #@! TD*
G04 #@! TO.C,JP1*
G36*
X99133379Y-76460909D02*
G01*
X99127688Y-76479668D01*
X99118447Y-76496957D01*
X99106011Y-76512111D01*
X99090857Y-76524547D01*
X99073568Y-76533788D01*
X99054809Y-76539479D01*
X99035300Y-76541400D01*
X97535300Y-76541400D01*
X97515791Y-76539479D01*
X97497032Y-76533788D01*
X97479743Y-76524547D01*
X97464589Y-76512111D01*
X97452153Y-76496957D01*
X97442912Y-76479668D01*
X97437221Y-76460909D01*
X97435300Y-76441400D01*
X97435300Y-75941400D01*
X97435902Y-75935286D01*
X97435902Y-75916866D01*
X97436384Y-75907063D01*
X97441194Y-75858232D01*
X97442633Y-75848527D01*
X97452205Y-75800402D01*
X97454590Y-75790881D01*
X97468834Y-75743926D01*
X97472140Y-75734688D01*
X97490917Y-75689355D01*
X97495114Y-75680481D01*
X97518245Y-75637208D01*
X97523288Y-75628793D01*
X97550548Y-75587994D01*
X97556395Y-75580110D01*
X97587523Y-75542181D01*
X97594113Y-75534910D01*
X97628810Y-75500213D01*
X97636081Y-75493623D01*
X97674010Y-75462495D01*
X97681894Y-75456648D01*
X97722693Y-75429388D01*
X97731108Y-75424345D01*
X97774381Y-75401214D01*
X97783255Y-75397017D01*
X97828588Y-75378240D01*
X97837826Y-75374934D01*
X97884781Y-75360690D01*
X97894302Y-75358305D01*
X97942427Y-75348733D01*
X97952132Y-75347294D01*
X98000963Y-75342484D01*
X98010766Y-75342002D01*
X98029186Y-75342002D01*
X98035300Y-75341400D01*
X98535300Y-75341400D01*
X98541414Y-75342002D01*
X98559834Y-75342002D01*
X98569637Y-75342484D01*
X98618468Y-75347294D01*
X98628173Y-75348733D01*
X98676298Y-75358305D01*
X98685819Y-75360690D01*
X98732774Y-75374934D01*
X98742012Y-75378240D01*
X98787345Y-75397017D01*
X98796219Y-75401214D01*
X98839492Y-75424345D01*
X98847907Y-75429388D01*
X98888706Y-75456648D01*
X98896590Y-75462495D01*
X98934519Y-75493623D01*
X98941790Y-75500213D01*
X98976487Y-75534910D01*
X98983077Y-75542181D01*
X99014205Y-75580110D01*
X99020052Y-75587994D01*
X99047312Y-75628793D01*
X99052355Y-75637208D01*
X99075486Y-75680481D01*
X99079683Y-75689355D01*
X99098460Y-75734688D01*
X99101766Y-75743926D01*
X99116010Y-75790881D01*
X99118395Y-75800402D01*
X99127967Y-75848527D01*
X99129406Y-75858232D01*
X99134216Y-75907063D01*
X99134698Y-75916866D01*
X99134698Y-75935286D01*
X99135300Y-75941400D01*
X99135300Y-76441400D01*
X99133379Y-76460909D01*
G37*
G36*
X99134698Y-77247514D02*
G01*
X99134698Y-77265934D01*
X99134216Y-77275737D01*
X99129406Y-77324568D01*
X99127967Y-77334273D01*
X99118395Y-77382398D01*
X99116010Y-77391919D01*
X99101766Y-77438874D01*
X99098460Y-77448112D01*
X99079683Y-77493445D01*
X99075486Y-77502319D01*
X99052355Y-77545592D01*
X99047312Y-77554007D01*
X99020052Y-77594806D01*
X99014205Y-77602690D01*
X98983077Y-77640619D01*
X98976487Y-77647890D01*
X98941790Y-77682587D01*
X98934519Y-77689177D01*
X98896590Y-77720305D01*
X98888706Y-77726152D01*
X98847907Y-77753412D01*
X98839492Y-77758455D01*
X98796219Y-77781586D01*
X98787345Y-77785783D01*
X98742012Y-77804560D01*
X98732774Y-77807866D01*
X98685819Y-77822110D01*
X98676298Y-77824495D01*
X98628173Y-77834067D01*
X98618468Y-77835506D01*
X98569637Y-77840316D01*
X98559834Y-77840798D01*
X98541414Y-77840798D01*
X98535300Y-77841400D01*
X98035300Y-77841400D01*
X98029186Y-77840798D01*
X98010766Y-77840798D01*
X98000963Y-77840316D01*
X97952132Y-77835506D01*
X97942427Y-77834067D01*
X97894302Y-77824495D01*
X97884781Y-77822110D01*
X97837826Y-77807866D01*
X97828588Y-77804560D01*
X97783255Y-77785783D01*
X97774381Y-77781586D01*
X97731108Y-77758455D01*
X97722693Y-77753412D01*
X97681894Y-77726152D01*
X97674010Y-77720305D01*
X97636081Y-77689177D01*
X97628810Y-77682587D01*
X97594113Y-77647890D01*
X97587523Y-77640619D01*
X97556395Y-77602690D01*
X97550548Y-77594806D01*
X97523288Y-77554007D01*
X97518245Y-77545592D01*
X97495114Y-77502319D01*
X97490917Y-77493445D01*
X97472140Y-77448112D01*
X97468834Y-77438874D01*
X97454590Y-77391919D01*
X97452205Y-77382398D01*
X97442633Y-77334273D01*
X97441194Y-77324568D01*
X97436384Y-77275737D01*
X97435902Y-77265934D01*
X97435902Y-77247514D01*
X97435300Y-77241400D01*
X97435300Y-76741400D01*
X97437221Y-76721891D01*
X97442912Y-76703132D01*
X97452153Y-76685843D01*
X97464589Y-76670689D01*
X97479743Y-76658253D01*
X97497032Y-76649012D01*
X97515791Y-76643321D01*
X97535300Y-76641400D01*
X99035300Y-76641400D01*
X99054809Y-76643321D01*
X99073568Y-76649012D01*
X99090857Y-76658253D01*
X99106011Y-76670689D01*
X99118447Y-76685843D01*
X99127688Y-76703132D01*
X99133379Y-76721891D01*
X99135300Y-76741400D01*
X99135300Y-77241400D01*
X99134698Y-77247514D01*
G37*
G04 #@! TD*
D17*
G04 #@! TO.C,H6*
X140040000Y-87330000D03*
G04 #@! TD*
G04 #@! TO.C,H5*
X82040000Y-87310000D03*
G04 #@! TD*
D10*
G04 #@! TO.C,R12*
G36*
X96217592Y-99869794D02*
G01*
X96243681Y-99873664D01*
X96269264Y-99880072D01*
X96294096Y-99888957D01*
X96317938Y-99900234D01*
X96340560Y-99913793D01*
X96361743Y-99929503D01*
X96381285Y-99947215D01*
X96398997Y-99966757D01*
X96414707Y-99987940D01*
X96428266Y-100010562D01*
X96439543Y-100034404D01*
X96448428Y-100059236D01*
X96454836Y-100084819D01*
X96458706Y-100110908D01*
X96460000Y-100137250D01*
X96460000Y-100674750D01*
X96458706Y-100701092D01*
X96454836Y-100727181D01*
X96448428Y-100752764D01*
X96439543Y-100777596D01*
X96428266Y-100801438D01*
X96414707Y-100824060D01*
X96398997Y-100845243D01*
X96381285Y-100864785D01*
X96361743Y-100882497D01*
X96340560Y-100898207D01*
X96317938Y-100911766D01*
X96294096Y-100923043D01*
X96269264Y-100931928D01*
X96243681Y-100938336D01*
X96217592Y-100942206D01*
X96191250Y-100943500D01*
X95578750Y-100943500D01*
X95552408Y-100942206D01*
X95526319Y-100938336D01*
X95500736Y-100931928D01*
X95475904Y-100923043D01*
X95452062Y-100911766D01*
X95429440Y-100898207D01*
X95408257Y-100882497D01*
X95388715Y-100864785D01*
X95371003Y-100845243D01*
X95355293Y-100824060D01*
X95341734Y-100801438D01*
X95330457Y-100777596D01*
X95321572Y-100752764D01*
X95315164Y-100727181D01*
X95311294Y-100701092D01*
X95310000Y-100674750D01*
X95310000Y-100137250D01*
X95311294Y-100110908D01*
X95315164Y-100084819D01*
X95321572Y-100059236D01*
X95330457Y-100034404D01*
X95341734Y-100010562D01*
X95355293Y-99987940D01*
X95371003Y-99966757D01*
X95388715Y-99947215D01*
X95408257Y-99929503D01*
X95429440Y-99913793D01*
X95452062Y-99900234D01*
X95475904Y-99888957D01*
X95500736Y-99880072D01*
X95526319Y-99873664D01*
X95552408Y-99869794D01*
X95578750Y-99868500D01*
X96191250Y-99868500D01*
X96217592Y-99869794D01*
G37*
G36*
X96217592Y-101444794D02*
G01*
X96243681Y-101448664D01*
X96269264Y-101455072D01*
X96294096Y-101463957D01*
X96317938Y-101475234D01*
X96340560Y-101488793D01*
X96361743Y-101504503D01*
X96381285Y-101522215D01*
X96398997Y-101541757D01*
X96414707Y-101562940D01*
X96428266Y-101585562D01*
X96439543Y-101609404D01*
X96448428Y-101634236D01*
X96454836Y-101659819D01*
X96458706Y-101685908D01*
X96460000Y-101712250D01*
X96460000Y-102249750D01*
X96458706Y-102276092D01*
X96454836Y-102302181D01*
X96448428Y-102327764D01*
X96439543Y-102352596D01*
X96428266Y-102376438D01*
X96414707Y-102399060D01*
X96398997Y-102420243D01*
X96381285Y-102439785D01*
X96361743Y-102457497D01*
X96340560Y-102473207D01*
X96317938Y-102486766D01*
X96294096Y-102498043D01*
X96269264Y-102506928D01*
X96243681Y-102513336D01*
X96217592Y-102517206D01*
X96191250Y-102518500D01*
X95578750Y-102518500D01*
X95552408Y-102517206D01*
X95526319Y-102513336D01*
X95500736Y-102506928D01*
X95475904Y-102498043D01*
X95452062Y-102486766D01*
X95429440Y-102473207D01*
X95408257Y-102457497D01*
X95388715Y-102439785D01*
X95371003Y-102420243D01*
X95355293Y-102399060D01*
X95341734Y-102376438D01*
X95330457Y-102352596D01*
X95321572Y-102327764D01*
X95315164Y-102302181D01*
X95311294Y-102276092D01*
X95310000Y-102249750D01*
X95310000Y-101712250D01*
X95311294Y-101685908D01*
X95315164Y-101659819D01*
X95321572Y-101634236D01*
X95330457Y-101609404D01*
X95341734Y-101585562D01*
X95355293Y-101562940D01*
X95371003Y-101541757D01*
X95388715Y-101522215D01*
X95408257Y-101504503D01*
X95429440Y-101488793D01*
X95452062Y-101475234D01*
X95475904Y-101463957D01*
X95500736Y-101455072D01*
X95526319Y-101448664D01*
X95552408Y-101444794D01*
X95578750Y-101443500D01*
X96191250Y-101443500D01*
X96217592Y-101444794D01*
G37*
G04 #@! TD*
G04 #@! TO.C,R18*
G36*
X127967592Y-98752294D02*
G01*
X127993681Y-98756164D01*
X128019264Y-98762572D01*
X128044096Y-98771457D01*
X128067938Y-98782734D01*
X128090560Y-98796293D01*
X128111743Y-98812003D01*
X128131285Y-98829715D01*
X128148997Y-98849257D01*
X128164707Y-98870440D01*
X128178266Y-98893062D01*
X128189543Y-98916904D01*
X128198428Y-98941736D01*
X128204836Y-98967319D01*
X128208706Y-98993408D01*
X128210000Y-99019750D01*
X128210000Y-99557250D01*
X128208706Y-99583592D01*
X128204836Y-99609681D01*
X128198428Y-99635264D01*
X128189543Y-99660096D01*
X128178266Y-99683938D01*
X128164707Y-99706560D01*
X128148997Y-99727743D01*
X128131285Y-99747285D01*
X128111743Y-99764997D01*
X128090560Y-99780707D01*
X128067938Y-99794266D01*
X128044096Y-99805543D01*
X128019264Y-99814428D01*
X127993681Y-99820836D01*
X127967592Y-99824706D01*
X127941250Y-99826000D01*
X127328750Y-99826000D01*
X127302408Y-99824706D01*
X127276319Y-99820836D01*
X127250736Y-99814428D01*
X127225904Y-99805543D01*
X127202062Y-99794266D01*
X127179440Y-99780707D01*
X127158257Y-99764997D01*
X127138715Y-99747285D01*
X127121003Y-99727743D01*
X127105293Y-99706560D01*
X127091734Y-99683938D01*
X127080457Y-99660096D01*
X127071572Y-99635264D01*
X127065164Y-99609681D01*
X127061294Y-99583592D01*
X127060000Y-99557250D01*
X127060000Y-99019750D01*
X127061294Y-98993408D01*
X127065164Y-98967319D01*
X127071572Y-98941736D01*
X127080457Y-98916904D01*
X127091734Y-98893062D01*
X127105293Y-98870440D01*
X127121003Y-98849257D01*
X127138715Y-98829715D01*
X127158257Y-98812003D01*
X127179440Y-98796293D01*
X127202062Y-98782734D01*
X127225904Y-98771457D01*
X127250736Y-98762572D01*
X127276319Y-98756164D01*
X127302408Y-98752294D01*
X127328750Y-98751000D01*
X127941250Y-98751000D01*
X127967592Y-98752294D01*
G37*
G36*
X127967592Y-100327294D02*
G01*
X127993681Y-100331164D01*
X128019264Y-100337572D01*
X128044096Y-100346457D01*
X128067938Y-100357734D01*
X128090560Y-100371293D01*
X128111743Y-100387003D01*
X128131285Y-100404715D01*
X128148997Y-100424257D01*
X128164707Y-100445440D01*
X128178266Y-100468062D01*
X128189543Y-100491904D01*
X128198428Y-100516736D01*
X128204836Y-100542319D01*
X128208706Y-100568408D01*
X128210000Y-100594750D01*
X128210000Y-101132250D01*
X128208706Y-101158592D01*
X128204836Y-101184681D01*
X128198428Y-101210264D01*
X128189543Y-101235096D01*
X128178266Y-101258938D01*
X128164707Y-101281560D01*
X128148997Y-101302743D01*
X128131285Y-101322285D01*
X128111743Y-101339997D01*
X128090560Y-101355707D01*
X128067938Y-101369266D01*
X128044096Y-101380543D01*
X128019264Y-101389428D01*
X127993681Y-101395836D01*
X127967592Y-101399706D01*
X127941250Y-101401000D01*
X127328750Y-101401000D01*
X127302408Y-101399706D01*
X127276319Y-101395836D01*
X127250736Y-101389428D01*
X127225904Y-101380543D01*
X127202062Y-101369266D01*
X127179440Y-101355707D01*
X127158257Y-101339997D01*
X127138715Y-101322285D01*
X127121003Y-101302743D01*
X127105293Y-101281560D01*
X127091734Y-101258938D01*
X127080457Y-101235096D01*
X127071572Y-101210264D01*
X127065164Y-101184681D01*
X127061294Y-101158592D01*
X127060000Y-101132250D01*
X127060000Y-100594750D01*
X127061294Y-100568408D01*
X127065164Y-100542319D01*
X127071572Y-100516736D01*
X127080457Y-100491904D01*
X127091734Y-100468062D01*
X127105293Y-100445440D01*
X127121003Y-100424257D01*
X127138715Y-100404715D01*
X127158257Y-100387003D01*
X127179440Y-100371293D01*
X127202062Y-100357734D01*
X127225904Y-100346457D01*
X127250736Y-100337572D01*
X127276319Y-100331164D01*
X127302408Y-100327294D01*
X127328750Y-100326000D01*
X127941250Y-100326000D01*
X127967592Y-100327294D01*
G37*
G04 #@! TD*
G04 #@! TO.C,R15*
G36*
X117400592Y-69566294D02*
G01*
X117426681Y-69570164D01*
X117452264Y-69576572D01*
X117477096Y-69585457D01*
X117500938Y-69596734D01*
X117523560Y-69610293D01*
X117544743Y-69626003D01*
X117564285Y-69643715D01*
X117581997Y-69663257D01*
X117597707Y-69684440D01*
X117611266Y-69707062D01*
X117622543Y-69730904D01*
X117631428Y-69755736D01*
X117637836Y-69781319D01*
X117641706Y-69807408D01*
X117643000Y-69833750D01*
X117643000Y-70371250D01*
X117641706Y-70397592D01*
X117637836Y-70423681D01*
X117631428Y-70449264D01*
X117622543Y-70474096D01*
X117611266Y-70497938D01*
X117597707Y-70520560D01*
X117581997Y-70541743D01*
X117564285Y-70561285D01*
X117544743Y-70578997D01*
X117523560Y-70594707D01*
X117500938Y-70608266D01*
X117477096Y-70619543D01*
X117452264Y-70628428D01*
X117426681Y-70634836D01*
X117400592Y-70638706D01*
X117374250Y-70640000D01*
X116761750Y-70640000D01*
X116735408Y-70638706D01*
X116709319Y-70634836D01*
X116683736Y-70628428D01*
X116658904Y-70619543D01*
X116635062Y-70608266D01*
X116612440Y-70594707D01*
X116591257Y-70578997D01*
X116571715Y-70561285D01*
X116554003Y-70541743D01*
X116538293Y-70520560D01*
X116524734Y-70497938D01*
X116513457Y-70474096D01*
X116504572Y-70449264D01*
X116498164Y-70423681D01*
X116494294Y-70397592D01*
X116493000Y-70371250D01*
X116493000Y-69833750D01*
X116494294Y-69807408D01*
X116498164Y-69781319D01*
X116504572Y-69755736D01*
X116513457Y-69730904D01*
X116524734Y-69707062D01*
X116538293Y-69684440D01*
X116554003Y-69663257D01*
X116571715Y-69643715D01*
X116591257Y-69626003D01*
X116612440Y-69610293D01*
X116635062Y-69596734D01*
X116658904Y-69585457D01*
X116683736Y-69576572D01*
X116709319Y-69570164D01*
X116735408Y-69566294D01*
X116761750Y-69565000D01*
X117374250Y-69565000D01*
X117400592Y-69566294D01*
G37*
G36*
X117400592Y-67991294D02*
G01*
X117426681Y-67995164D01*
X117452264Y-68001572D01*
X117477096Y-68010457D01*
X117500938Y-68021734D01*
X117523560Y-68035293D01*
X117544743Y-68051003D01*
X117564285Y-68068715D01*
X117581997Y-68088257D01*
X117597707Y-68109440D01*
X117611266Y-68132062D01*
X117622543Y-68155904D01*
X117631428Y-68180736D01*
X117637836Y-68206319D01*
X117641706Y-68232408D01*
X117643000Y-68258750D01*
X117643000Y-68796250D01*
X117641706Y-68822592D01*
X117637836Y-68848681D01*
X117631428Y-68874264D01*
X117622543Y-68899096D01*
X117611266Y-68922938D01*
X117597707Y-68945560D01*
X117581997Y-68966743D01*
X117564285Y-68986285D01*
X117544743Y-69003997D01*
X117523560Y-69019707D01*
X117500938Y-69033266D01*
X117477096Y-69044543D01*
X117452264Y-69053428D01*
X117426681Y-69059836D01*
X117400592Y-69063706D01*
X117374250Y-69065000D01*
X116761750Y-69065000D01*
X116735408Y-69063706D01*
X116709319Y-69059836D01*
X116683736Y-69053428D01*
X116658904Y-69044543D01*
X116635062Y-69033266D01*
X116612440Y-69019707D01*
X116591257Y-69003997D01*
X116571715Y-68986285D01*
X116554003Y-68966743D01*
X116538293Y-68945560D01*
X116524734Y-68922938D01*
X116513457Y-68899096D01*
X116504572Y-68874264D01*
X116498164Y-68848681D01*
X116494294Y-68822592D01*
X116493000Y-68796250D01*
X116493000Y-68258750D01*
X116494294Y-68232408D01*
X116498164Y-68206319D01*
X116504572Y-68180736D01*
X116513457Y-68155904D01*
X116524734Y-68132062D01*
X116538293Y-68109440D01*
X116554003Y-68088257D01*
X116571715Y-68068715D01*
X116591257Y-68051003D01*
X116612440Y-68035293D01*
X116635062Y-68021734D01*
X116658904Y-68010457D01*
X116683736Y-68001572D01*
X116709319Y-67995164D01*
X116735408Y-67991294D01*
X116761750Y-67990000D01*
X117374250Y-67990000D01*
X117400592Y-67991294D01*
G37*
G04 #@! TD*
G04 #@! TO.C,R10*
G36*
X87082592Y-102001294D02*
G01*
X87108681Y-102005164D01*
X87134264Y-102011572D01*
X87159096Y-102020457D01*
X87182938Y-102031734D01*
X87205560Y-102045293D01*
X87226743Y-102061003D01*
X87246285Y-102078715D01*
X87263997Y-102098257D01*
X87279707Y-102119440D01*
X87293266Y-102142062D01*
X87304543Y-102165904D01*
X87313428Y-102190736D01*
X87319836Y-102216319D01*
X87323706Y-102242408D01*
X87325000Y-102268750D01*
X87325000Y-102806250D01*
X87323706Y-102832592D01*
X87319836Y-102858681D01*
X87313428Y-102884264D01*
X87304543Y-102909096D01*
X87293266Y-102932938D01*
X87279707Y-102955560D01*
X87263997Y-102976743D01*
X87246285Y-102996285D01*
X87226743Y-103013997D01*
X87205560Y-103029707D01*
X87182938Y-103043266D01*
X87159096Y-103054543D01*
X87134264Y-103063428D01*
X87108681Y-103069836D01*
X87082592Y-103073706D01*
X87056250Y-103075000D01*
X86443750Y-103075000D01*
X86417408Y-103073706D01*
X86391319Y-103069836D01*
X86365736Y-103063428D01*
X86340904Y-103054543D01*
X86317062Y-103043266D01*
X86294440Y-103029707D01*
X86273257Y-103013997D01*
X86253715Y-102996285D01*
X86236003Y-102976743D01*
X86220293Y-102955560D01*
X86206734Y-102932938D01*
X86195457Y-102909096D01*
X86186572Y-102884264D01*
X86180164Y-102858681D01*
X86176294Y-102832592D01*
X86175000Y-102806250D01*
X86175000Y-102268750D01*
X86176294Y-102242408D01*
X86180164Y-102216319D01*
X86186572Y-102190736D01*
X86195457Y-102165904D01*
X86206734Y-102142062D01*
X86220293Y-102119440D01*
X86236003Y-102098257D01*
X86253715Y-102078715D01*
X86273257Y-102061003D01*
X86294440Y-102045293D01*
X86317062Y-102031734D01*
X86340904Y-102020457D01*
X86365736Y-102011572D01*
X86391319Y-102005164D01*
X86417408Y-102001294D01*
X86443750Y-102000000D01*
X87056250Y-102000000D01*
X87082592Y-102001294D01*
G37*
G36*
X87082592Y-100426294D02*
G01*
X87108681Y-100430164D01*
X87134264Y-100436572D01*
X87159096Y-100445457D01*
X87182938Y-100456734D01*
X87205560Y-100470293D01*
X87226743Y-100486003D01*
X87246285Y-100503715D01*
X87263997Y-100523257D01*
X87279707Y-100544440D01*
X87293266Y-100567062D01*
X87304543Y-100590904D01*
X87313428Y-100615736D01*
X87319836Y-100641319D01*
X87323706Y-100667408D01*
X87325000Y-100693750D01*
X87325000Y-101231250D01*
X87323706Y-101257592D01*
X87319836Y-101283681D01*
X87313428Y-101309264D01*
X87304543Y-101334096D01*
X87293266Y-101357938D01*
X87279707Y-101380560D01*
X87263997Y-101401743D01*
X87246285Y-101421285D01*
X87226743Y-101438997D01*
X87205560Y-101454707D01*
X87182938Y-101468266D01*
X87159096Y-101479543D01*
X87134264Y-101488428D01*
X87108681Y-101494836D01*
X87082592Y-101498706D01*
X87056250Y-101500000D01*
X86443750Y-101500000D01*
X86417408Y-101498706D01*
X86391319Y-101494836D01*
X86365736Y-101488428D01*
X86340904Y-101479543D01*
X86317062Y-101468266D01*
X86294440Y-101454707D01*
X86273257Y-101438997D01*
X86253715Y-101421285D01*
X86236003Y-101401743D01*
X86220293Y-101380560D01*
X86206734Y-101357938D01*
X86195457Y-101334096D01*
X86186572Y-101309264D01*
X86180164Y-101283681D01*
X86176294Y-101257592D01*
X86175000Y-101231250D01*
X86175000Y-100693750D01*
X86176294Y-100667408D01*
X86180164Y-100641319D01*
X86186572Y-100615736D01*
X86195457Y-100590904D01*
X86206734Y-100567062D01*
X86220293Y-100544440D01*
X86236003Y-100523257D01*
X86253715Y-100503715D01*
X86273257Y-100486003D01*
X86294440Y-100470293D01*
X86317062Y-100456734D01*
X86340904Y-100445457D01*
X86365736Y-100436572D01*
X86391319Y-100430164D01*
X86417408Y-100426294D01*
X86443750Y-100425000D01*
X87056250Y-100425000D01*
X87082592Y-100426294D01*
G37*
G04 #@! TD*
G04 #@! TO.C,R14*
G36*
X119100592Y-69566294D02*
G01*
X119126681Y-69570164D01*
X119152264Y-69576572D01*
X119177096Y-69585457D01*
X119200938Y-69596734D01*
X119223560Y-69610293D01*
X119244743Y-69626003D01*
X119264285Y-69643715D01*
X119281997Y-69663257D01*
X119297707Y-69684440D01*
X119311266Y-69707062D01*
X119322543Y-69730904D01*
X119331428Y-69755736D01*
X119337836Y-69781319D01*
X119341706Y-69807408D01*
X119343000Y-69833750D01*
X119343000Y-70371250D01*
X119341706Y-70397592D01*
X119337836Y-70423681D01*
X119331428Y-70449264D01*
X119322543Y-70474096D01*
X119311266Y-70497938D01*
X119297707Y-70520560D01*
X119281997Y-70541743D01*
X119264285Y-70561285D01*
X119244743Y-70578997D01*
X119223560Y-70594707D01*
X119200938Y-70608266D01*
X119177096Y-70619543D01*
X119152264Y-70628428D01*
X119126681Y-70634836D01*
X119100592Y-70638706D01*
X119074250Y-70640000D01*
X118461750Y-70640000D01*
X118435408Y-70638706D01*
X118409319Y-70634836D01*
X118383736Y-70628428D01*
X118358904Y-70619543D01*
X118335062Y-70608266D01*
X118312440Y-70594707D01*
X118291257Y-70578997D01*
X118271715Y-70561285D01*
X118254003Y-70541743D01*
X118238293Y-70520560D01*
X118224734Y-70497938D01*
X118213457Y-70474096D01*
X118204572Y-70449264D01*
X118198164Y-70423681D01*
X118194294Y-70397592D01*
X118193000Y-70371250D01*
X118193000Y-69833750D01*
X118194294Y-69807408D01*
X118198164Y-69781319D01*
X118204572Y-69755736D01*
X118213457Y-69730904D01*
X118224734Y-69707062D01*
X118238293Y-69684440D01*
X118254003Y-69663257D01*
X118271715Y-69643715D01*
X118291257Y-69626003D01*
X118312440Y-69610293D01*
X118335062Y-69596734D01*
X118358904Y-69585457D01*
X118383736Y-69576572D01*
X118409319Y-69570164D01*
X118435408Y-69566294D01*
X118461750Y-69565000D01*
X119074250Y-69565000D01*
X119100592Y-69566294D01*
G37*
G36*
X119100592Y-67991294D02*
G01*
X119126681Y-67995164D01*
X119152264Y-68001572D01*
X119177096Y-68010457D01*
X119200938Y-68021734D01*
X119223560Y-68035293D01*
X119244743Y-68051003D01*
X119264285Y-68068715D01*
X119281997Y-68088257D01*
X119297707Y-68109440D01*
X119311266Y-68132062D01*
X119322543Y-68155904D01*
X119331428Y-68180736D01*
X119337836Y-68206319D01*
X119341706Y-68232408D01*
X119343000Y-68258750D01*
X119343000Y-68796250D01*
X119341706Y-68822592D01*
X119337836Y-68848681D01*
X119331428Y-68874264D01*
X119322543Y-68899096D01*
X119311266Y-68922938D01*
X119297707Y-68945560D01*
X119281997Y-68966743D01*
X119264285Y-68986285D01*
X119244743Y-69003997D01*
X119223560Y-69019707D01*
X119200938Y-69033266D01*
X119177096Y-69044543D01*
X119152264Y-69053428D01*
X119126681Y-69059836D01*
X119100592Y-69063706D01*
X119074250Y-69065000D01*
X118461750Y-69065000D01*
X118435408Y-69063706D01*
X118409319Y-69059836D01*
X118383736Y-69053428D01*
X118358904Y-69044543D01*
X118335062Y-69033266D01*
X118312440Y-69019707D01*
X118291257Y-69003997D01*
X118271715Y-68986285D01*
X118254003Y-68966743D01*
X118238293Y-68945560D01*
X118224734Y-68922938D01*
X118213457Y-68899096D01*
X118204572Y-68874264D01*
X118198164Y-68848681D01*
X118194294Y-68822592D01*
X118193000Y-68796250D01*
X118193000Y-68258750D01*
X118194294Y-68232408D01*
X118198164Y-68206319D01*
X118204572Y-68180736D01*
X118213457Y-68155904D01*
X118224734Y-68132062D01*
X118238293Y-68109440D01*
X118254003Y-68088257D01*
X118271715Y-68068715D01*
X118291257Y-68051003D01*
X118312440Y-68035293D01*
X118335062Y-68021734D01*
X118358904Y-68010457D01*
X118383736Y-68001572D01*
X118409319Y-67995164D01*
X118435408Y-67991294D01*
X118461750Y-67990000D01*
X119074250Y-67990000D01*
X119100592Y-67991294D01*
G37*
G04 #@! TD*
G04 #@! TO.C,R13*
G36*
X120700592Y-69566294D02*
G01*
X120726681Y-69570164D01*
X120752264Y-69576572D01*
X120777096Y-69585457D01*
X120800938Y-69596734D01*
X120823560Y-69610293D01*
X120844743Y-69626003D01*
X120864285Y-69643715D01*
X120881997Y-69663257D01*
X120897707Y-69684440D01*
X120911266Y-69707062D01*
X120922543Y-69730904D01*
X120931428Y-69755736D01*
X120937836Y-69781319D01*
X120941706Y-69807408D01*
X120943000Y-69833750D01*
X120943000Y-70371250D01*
X120941706Y-70397592D01*
X120937836Y-70423681D01*
X120931428Y-70449264D01*
X120922543Y-70474096D01*
X120911266Y-70497938D01*
X120897707Y-70520560D01*
X120881997Y-70541743D01*
X120864285Y-70561285D01*
X120844743Y-70578997D01*
X120823560Y-70594707D01*
X120800938Y-70608266D01*
X120777096Y-70619543D01*
X120752264Y-70628428D01*
X120726681Y-70634836D01*
X120700592Y-70638706D01*
X120674250Y-70640000D01*
X120061750Y-70640000D01*
X120035408Y-70638706D01*
X120009319Y-70634836D01*
X119983736Y-70628428D01*
X119958904Y-70619543D01*
X119935062Y-70608266D01*
X119912440Y-70594707D01*
X119891257Y-70578997D01*
X119871715Y-70561285D01*
X119854003Y-70541743D01*
X119838293Y-70520560D01*
X119824734Y-70497938D01*
X119813457Y-70474096D01*
X119804572Y-70449264D01*
X119798164Y-70423681D01*
X119794294Y-70397592D01*
X119793000Y-70371250D01*
X119793000Y-69833750D01*
X119794294Y-69807408D01*
X119798164Y-69781319D01*
X119804572Y-69755736D01*
X119813457Y-69730904D01*
X119824734Y-69707062D01*
X119838293Y-69684440D01*
X119854003Y-69663257D01*
X119871715Y-69643715D01*
X119891257Y-69626003D01*
X119912440Y-69610293D01*
X119935062Y-69596734D01*
X119958904Y-69585457D01*
X119983736Y-69576572D01*
X120009319Y-69570164D01*
X120035408Y-69566294D01*
X120061750Y-69565000D01*
X120674250Y-69565000D01*
X120700592Y-69566294D01*
G37*
G36*
X120700592Y-67991294D02*
G01*
X120726681Y-67995164D01*
X120752264Y-68001572D01*
X120777096Y-68010457D01*
X120800938Y-68021734D01*
X120823560Y-68035293D01*
X120844743Y-68051003D01*
X120864285Y-68068715D01*
X120881997Y-68088257D01*
X120897707Y-68109440D01*
X120911266Y-68132062D01*
X120922543Y-68155904D01*
X120931428Y-68180736D01*
X120937836Y-68206319D01*
X120941706Y-68232408D01*
X120943000Y-68258750D01*
X120943000Y-68796250D01*
X120941706Y-68822592D01*
X120937836Y-68848681D01*
X120931428Y-68874264D01*
X120922543Y-68899096D01*
X120911266Y-68922938D01*
X120897707Y-68945560D01*
X120881997Y-68966743D01*
X120864285Y-68986285D01*
X120844743Y-69003997D01*
X120823560Y-69019707D01*
X120800938Y-69033266D01*
X120777096Y-69044543D01*
X120752264Y-69053428D01*
X120726681Y-69059836D01*
X120700592Y-69063706D01*
X120674250Y-69065000D01*
X120061750Y-69065000D01*
X120035408Y-69063706D01*
X120009319Y-69059836D01*
X119983736Y-69053428D01*
X119958904Y-69044543D01*
X119935062Y-69033266D01*
X119912440Y-69019707D01*
X119891257Y-69003997D01*
X119871715Y-68986285D01*
X119854003Y-68966743D01*
X119838293Y-68945560D01*
X119824734Y-68922938D01*
X119813457Y-68899096D01*
X119804572Y-68874264D01*
X119798164Y-68848681D01*
X119794294Y-68822592D01*
X119793000Y-68796250D01*
X119793000Y-68258750D01*
X119794294Y-68232408D01*
X119798164Y-68206319D01*
X119804572Y-68180736D01*
X119813457Y-68155904D01*
X119824734Y-68132062D01*
X119838293Y-68109440D01*
X119854003Y-68088257D01*
X119871715Y-68068715D01*
X119891257Y-68051003D01*
X119912440Y-68035293D01*
X119935062Y-68021734D01*
X119958904Y-68010457D01*
X119983736Y-68001572D01*
X120009319Y-67995164D01*
X120035408Y-67991294D01*
X120061750Y-67990000D01*
X120674250Y-67990000D01*
X120700592Y-67991294D01*
G37*
G04 #@! TD*
G04 #@! TO.C,D5*
G36*
X96217592Y-105153294D02*
G01*
X96243681Y-105157164D01*
X96269264Y-105163572D01*
X96294096Y-105172457D01*
X96317938Y-105183734D01*
X96340560Y-105197293D01*
X96361743Y-105213003D01*
X96381285Y-105230715D01*
X96398997Y-105250257D01*
X96414707Y-105271440D01*
X96428266Y-105294062D01*
X96439543Y-105317904D01*
X96448428Y-105342736D01*
X96454836Y-105368319D01*
X96458706Y-105394408D01*
X96460000Y-105420750D01*
X96460000Y-105958250D01*
X96458706Y-105984592D01*
X96454836Y-106010681D01*
X96448428Y-106036264D01*
X96439543Y-106061096D01*
X96428266Y-106084938D01*
X96414707Y-106107560D01*
X96398997Y-106128743D01*
X96381285Y-106148285D01*
X96361743Y-106165997D01*
X96340560Y-106181707D01*
X96317938Y-106195266D01*
X96294096Y-106206543D01*
X96269264Y-106215428D01*
X96243681Y-106221836D01*
X96217592Y-106225706D01*
X96191250Y-106227000D01*
X95578750Y-106227000D01*
X95552408Y-106225706D01*
X95526319Y-106221836D01*
X95500736Y-106215428D01*
X95475904Y-106206543D01*
X95452062Y-106195266D01*
X95429440Y-106181707D01*
X95408257Y-106165997D01*
X95388715Y-106148285D01*
X95371003Y-106128743D01*
X95355293Y-106107560D01*
X95341734Y-106084938D01*
X95330457Y-106061096D01*
X95321572Y-106036264D01*
X95315164Y-106010681D01*
X95311294Y-105984592D01*
X95310000Y-105958250D01*
X95310000Y-105420750D01*
X95311294Y-105394408D01*
X95315164Y-105368319D01*
X95321572Y-105342736D01*
X95330457Y-105317904D01*
X95341734Y-105294062D01*
X95355293Y-105271440D01*
X95371003Y-105250257D01*
X95388715Y-105230715D01*
X95408257Y-105213003D01*
X95429440Y-105197293D01*
X95452062Y-105183734D01*
X95475904Y-105172457D01*
X95500736Y-105163572D01*
X95526319Y-105157164D01*
X95552408Y-105153294D01*
X95578750Y-105152000D01*
X96191250Y-105152000D01*
X96217592Y-105153294D01*
G37*
G36*
X96217592Y-103578294D02*
G01*
X96243681Y-103582164D01*
X96269264Y-103588572D01*
X96294096Y-103597457D01*
X96317938Y-103608734D01*
X96340560Y-103622293D01*
X96361743Y-103638003D01*
X96381285Y-103655715D01*
X96398997Y-103675257D01*
X96414707Y-103696440D01*
X96428266Y-103719062D01*
X96439543Y-103742904D01*
X96448428Y-103767736D01*
X96454836Y-103793319D01*
X96458706Y-103819408D01*
X96460000Y-103845750D01*
X96460000Y-104383250D01*
X96458706Y-104409592D01*
X96454836Y-104435681D01*
X96448428Y-104461264D01*
X96439543Y-104486096D01*
X96428266Y-104509938D01*
X96414707Y-104532560D01*
X96398997Y-104553743D01*
X96381285Y-104573285D01*
X96361743Y-104590997D01*
X96340560Y-104606707D01*
X96317938Y-104620266D01*
X96294096Y-104631543D01*
X96269264Y-104640428D01*
X96243681Y-104646836D01*
X96217592Y-104650706D01*
X96191250Y-104652000D01*
X95578750Y-104652000D01*
X95552408Y-104650706D01*
X95526319Y-104646836D01*
X95500736Y-104640428D01*
X95475904Y-104631543D01*
X95452062Y-104620266D01*
X95429440Y-104606707D01*
X95408257Y-104590997D01*
X95388715Y-104573285D01*
X95371003Y-104553743D01*
X95355293Y-104532560D01*
X95341734Y-104509938D01*
X95330457Y-104486096D01*
X95321572Y-104461264D01*
X95315164Y-104435681D01*
X95311294Y-104409592D01*
X95310000Y-104383250D01*
X95310000Y-103845750D01*
X95311294Y-103819408D01*
X95315164Y-103793319D01*
X95321572Y-103767736D01*
X95330457Y-103742904D01*
X95341734Y-103719062D01*
X95355293Y-103696440D01*
X95371003Y-103675257D01*
X95388715Y-103655715D01*
X95408257Y-103638003D01*
X95429440Y-103622293D01*
X95452062Y-103608734D01*
X95475904Y-103597457D01*
X95500736Y-103588572D01*
X95526319Y-103582164D01*
X95552408Y-103578294D01*
X95578750Y-103577000D01*
X96191250Y-103577000D01*
X96217592Y-103578294D01*
G37*
G04 #@! TD*
G04 #@! TO.C,A2*
G36*
X130007079Y-81184509D02*
G01*
X130001388Y-81203268D01*
X129992147Y-81220557D01*
X129979711Y-81235711D01*
X129964557Y-81248147D01*
X129947268Y-81257388D01*
X129928509Y-81263079D01*
X129909000Y-81265000D01*
X128409000Y-81265000D01*
X128389491Y-81263079D01*
X128370732Y-81257388D01*
X128353443Y-81248147D01*
X128338289Y-81235711D01*
X128325853Y-81220557D01*
X128316612Y-81203268D01*
X128310921Y-81184509D01*
X128309000Y-81165000D01*
X128309000Y-80615000D01*
X128309602Y-80608886D01*
X128309602Y-80590466D01*
X128310084Y-80580663D01*
X128314894Y-80531832D01*
X128316333Y-80522127D01*
X128325905Y-80474002D01*
X128328290Y-80464481D01*
X128342534Y-80417526D01*
X128345840Y-80408288D01*
X128364617Y-80362955D01*
X128368814Y-80354081D01*
X128391945Y-80310808D01*
X128396988Y-80302393D01*
X128424248Y-80261594D01*
X128430095Y-80253710D01*
X128461223Y-80215781D01*
X128467813Y-80208510D01*
X128502510Y-80173813D01*
X128509781Y-80167223D01*
X128547710Y-80136095D01*
X128555594Y-80130248D01*
X128596393Y-80102988D01*
X128604808Y-80097945D01*
X128648081Y-80074814D01*
X128656955Y-80070617D01*
X128702288Y-80051840D01*
X128711526Y-80048534D01*
X128758481Y-80034290D01*
X128768002Y-80031905D01*
X128816127Y-80022333D01*
X128825832Y-80020894D01*
X128874663Y-80016084D01*
X128884466Y-80015602D01*
X128902886Y-80015602D01*
X128909000Y-80015000D01*
X129409000Y-80015000D01*
X129415114Y-80015602D01*
X129433534Y-80015602D01*
X129443337Y-80016084D01*
X129492168Y-80020894D01*
X129501873Y-80022333D01*
X129549998Y-80031905D01*
X129559519Y-80034290D01*
X129606474Y-80048534D01*
X129615712Y-80051840D01*
X129661045Y-80070617D01*
X129669919Y-80074814D01*
X129713192Y-80097945D01*
X129721607Y-80102988D01*
X129762406Y-80130248D01*
X129770290Y-80136095D01*
X129808219Y-80167223D01*
X129815490Y-80173813D01*
X129850187Y-80208510D01*
X129856777Y-80215781D01*
X129887905Y-80253710D01*
X129893752Y-80261594D01*
X129921012Y-80302393D01*
X129926055Y-80310808D01*
X129949186Y-80354081D01*
X129953383Y-80362955D01*
X129972160Y-80408288D01*
X129975466Y-80417526D01*
X129989710Y-80464481D01*
X129992095Y-80474002D01*
X130001667Y-80522127D01*
X130003106Y-80531832D01*
X130007916Y-80580663D01*
X130008398Y-80590466D01*
X130008398Y-80608886D01*
X130009000Y-80615000D01*
X130009000Y-81165000D01*
X130007079Y-81184509D01*
G37*
D18*
X129159000Y-81915000D03*
D10*
G36*
X130008398Y-83221114D02*
G01*
X130008398Y-83239534D01*
X130007916Y-83249337D01*
X130003106Y-83298168D01*
X130001667Y-83307873D01*
X129992095Y-83355998D01*
X129989710Y-83365519D01*
X129975466Y-83412474D01*
X129972160Y-83421712D01*
X129953383Y-83467045D01*
X129949186Y-83475919D01*
X129926055Y-83519192D01*
X129921012Y-83527607D01*
X129893752Y-83568406D01*
X129887905Y-83576290D01*
X129856777Y-83614219D01*
X129850187Y-83621490D01*
X129815490Y-83656187D01*
X129808219Y-83662777D01*
X129770290Y-83693905D01*
X129762406Y-83699752D01*
X129721607Y-83727012D01*
X129713192Y-83732055D01*
X129669919Y-83755186D01*
X129661045Y-83759383D01*
X129615712Y-83778160D01*
X129606474Y-83781466D01*
X129559519Y-83795710D01*
X129549998Y-83798095D01*
X129501873Y-83807667D01*
X129492168Y-83809106D01*
X129443337Y-83813916D01*
X129433534Y-83814398D01*
X129415114Y-83814398D01*
X129409000Y-83815000D01*
X128909000Y-83815000D01*
X128902886Y-83814398D01*
X128884466Y-83814398D01*
X128874663Y-83813916D01*
X128825832Y-83809106D01*
X128816127Y-83807667D01*
X128768002Y-83798095D01*
X128758481Y-83795710D01*
X128711526Y-83781466D01*
X128702288Y-83778160D01*
X128656955Y-83759383D01*
X128648081Y-83755186D01*
X128604808Y-83732055D01*
X128596393Y-83727012D01*
X128555594Y-83699752D01*
X128547710Y-83693905D01*
X128509781Y-83662777D01*
X128502510Y-83656187D01*
X128467813Y-83621490D01*
X128461223Y-83614219D01*
X128430095Y-83576290D01*
X128424248Y-83568406D01*
X128396988Y-83527607D01*
X128391945Y-83519192D01*
X128368814Y-83475919D01*
X128364617Y-83467045D01*
X128345840Y-83421712D01*
X128342534Y-83412474D01*
X128328290Y-83365519D01*
X128325905Y-83355998D01*
X128316333Y-83307873D01*
X128314894Y-83298168D01*
X128310084Y-83249337D01*
X128309602Y-83239534D01*
X128309602Y-83221114D01*
X128309000Y-83215000D01*
X128309000Y-82665000D01*
X128310921Y-82645491D01*
X128316612Y-82626732D01*
X128325853Y-82609443D01*
X128338289Y-82594289D01*
X128353443Y-82581853D01*
X128370732Y-82572612D01*
X128389491Y-82566921D01*
X128409000Y-82565000D01*
X129909000Y-82565000D01*
X129928509Y-82566921D01*
X129947268Y-82572612D01*
X129964557Y-82581853D01*
X129979711Y-82594289D01*
X129992147Y-82609443D01*
X130001388Y-82626732D01*
X130007079Y-82645491D01*
X130009000Y-82665000D01*
X130009000Y-83215000D01*
X130008398Y-83221114D01*
G37*
G04 #@! TD*
G04 #@! TO.C,A1*
G36*
X133055079Y-81184509D02*
G01*
X133049388Y-81203268D01*
X133040147Y-81220557D01*
X133027711Y-81235711D01*
X133012557Y-81248147D01*
X132995268Y-81257388D01*
X132976509Y-81263079D01*
X132957000Y-81265000D01*
X131457000Y-81265000D01*
X131437491Y-81263079D01*
X131418732Y-81257388D01*
X131401443Y-81248147D01*
X131386289Y-81235711D01*
X131373853Y-81220557D01*
X131364612Y-81203268D01*
X131358921Y-81184509D01*
X131357000Y-81165000D01*
X131357000Y-80615000D01*
X131357602Y-80608886D01*
X131357602Y-80590466D01*
X131358084Y-80580663D01*
X131362894Y-80531832D01*
X131364333Y-80522127D01*
X131373905Y-80474002D01*
X131376290Y-80464481D01*
X131390534Y-80417526D01*
X131393840Y-80408288D01*
X131412617Y-80362955D01*
X131416814Y-80354081D01*
X131439945Y-80310808D01*
X131444988Y-80302393D01*
X131472248Y-80261594D01*
X131478095Y-80253710D01*
X131509223Y-80215781D01*
X131515813Y-80208510D01*
X131550510Y-80173813D01*
X131557781Y-80167223D01*
X131595710Y-80136095D01*
X131603594Y-80130248D01*
X131644393Y-80102988D01*
X131652808Y-80097945D01*
X131696081Y-80074814D01*
X131704955Y-80070617D01*
X131750288Y-80051840D01*
X131759526Y-80048534D01*
X131806481Y-80034290D01*
X131816002Y-80031905D01*
X131864127Y-80022333D01*
X131873832Y-80020894D01*
X131922663Y-80016084D01*
X131932466Y-80015602D01*
X131950886Y-80015602D01*
X131957000Y-80015000D01*
X132457000Y-80015000D01*
X132463114Y-80015602D01*
X132481534Y-80015602D01*
X132491337Y-80016084D01*
X132540168Y-80020894D01*
X132549873Y-80022333D01*
X132597998Y-80031905D01*
X132607519Y-80034290D01*
X132654474Y-80048534D01*
X132663712Y-80051840D01*
X132709045Y-80070617D01*
X132717919Y-80074814D01*
X132761192Y-80097945D01*
X132769607Y-80102988D01*
X132810406Y-80130248D01*
X132818290Y-80136095D01*
X132856219Y-80167223D01*
X132863490Y-80173813D01*
X132898187Y-80208510D01*
X132904777Y-80215781D01*
X132935905Y-80253710D01*
X132941752Y-80261594D01*
X132969012Y-80302393D01*
X132974055Y-80310808D01*
X132997186Y-80354081D01*
X133001383Y-80362955D01*
X133020160Y-80408288D01*
X133023466Y-80417526D01*
X133037710Y-80464481D01*
X133040095Y-80474002D01*
X133049667Y-80522127D01*
X133051106Y-80531832D01*
X133055916Y-80580663D01*
X133056398Y-80590466D01*
X133056398Y-80608886D01*
X133057000Y-80615000D01*
X133057000Y-81165000D01*
X133055079Y-81184509D01*
G37*
D18*
X132207000Y-81915000D03*
D10*
G36*
X133056398Y-83221114D02*
G01*
X133056398Y-83239534D01*
X133055916Y-83249337D01*
X133051106Y-83298168D01*
X133049667Y-83307873D01*
X133040095Y-83355998D01*
X133037710Y-83365519D01*
X133023466Y-83412474D01*
X133020160Y-83421712D01*
X133001383Y-83467045D01*
X132997186Y-83475919D01*
X132974055Y-83519192D01*
X132969012Y-83527607D01*
X132941752Y-83568406D01*
X132935905Y-83576290D01*
X132904777Y-83614219D01*
X132898187Y-83621490D01*
X132863490Y-83656187D01*
X132856219Y-83662777D01*
X132818290Y-83693905D01*
X132810406Y-83699752D01*
X132769607Y-83727012D01*
X132761192Y-83732055D01*
X132717919Y-83755186D01*
X132709045Y-83759383D01*
X132663712Y-83778160D01*
X132654474Y-83781466D01*
X132607519Y-83795710D01*
X132597998Y-83798095D01*
X132549873Y-83807667D01*
X132540168Y-83809106D01*
X132491337Y-83813916D01*
X132481534Y-83814398D01*
X132463114Y-83814398D01*
X132457000Y-83815000D01*
X131957000Y-83815000D01*
X131950886Y-83814398D01*
X131932466Y-83814398D01*
X131922663Y-83813916D01*
X131873832Y-83809106D01*
X131864127Y-83807667D01*
X131816002Y-83798095D01*
X131806481Y-83795710D01*
X131759526Y-83781466D01*
X131750288Y-83778160D01*
X131704955Y-83759383D01*
X131696081Y-83755186D01*
X131652808Y-83732055D01*
X131644393Y-83727012D01*
X131603594Y-83699752D01*
X131595710Y-83693905D01*
X131557781Y-83662777D01*
X131550510Y-83656187D01*
X131515813Y-83621490D01*
X131509223Y-83614219D01*
X131478095Y-83576290D01*
X131472248Y-83568406D01*
X131444988Y-83527607D01*
X131439945Y-83519192D01*
X131416814Y-83475919D01*
X131412617Y-83467045D01*
X131393840Y-83421712D01*
X131390534Y-83412474D01*
X131376290Y-83365519D01*
X131373905Y-83355998D01*
X131364333Y-83307873D01*
X131362894Y-83298168D01*
X131358084Y-83249337D01*
X131357602Y-83239534D01*
X131357602Y-83221114D01*
X131357000Y-83215000D01*
X131357000Y-82665000D01*
X131358921Y-82645491D01*
X131364612Y-82626732D01*
X131373853Y-82609443D01*
X131386289Y-82594289D01*
X131401443Y-82581853D01*
X131418732Y-82572612D01*
X131437491Y-82566921D01*
X131457000Y-82565000D01*
X132957000Y-82565000D01*
X132976509Y-82566921D01*
X132995268Y-82572612D01*
X133012557Y-82581853D01*
X133027711Y-82594289D01*
X133040147Y-82609443D01*
X133049388Y-82626732D01*
X133055079Y-82645491D01*
X133057000Y-82665000D01*
X133057000Y-83215000D01*
X133056398Y-83221114D01*
G37*
G04 #@! TD*
G04 #@! TO.C,A0*
G36*
X135976079Y-81184509D02*
G01*
X135970388Y-81203268D01*
X135961147Y-81220557D01*
X135948711Y-81235711D01*
X135933557Y-81248147D01*
X135916268Y-81257388D01*
X135897509Y-81263079D01*
X135878000Y-81265000D01*
X134378000Y-81265000D01*
X134358491Y-81263079D01*
X134339732Y-81257388D01*
X134322443Y-81248147D01*
X134307289Y-81235711D01*
X134294853Y-81220557D01*
X134285612Y-81203268D01*
X134279921Y-81184509D01*
X134278000Y-81165000D01*
X134278000Y-80615000D01*
X134278602Y-80608886D01*
X134278602Y-80590466D01*
X134279084Y-80580663D01*
X134283894Y-80531832D01*
X134285333Y-80522127D01*
X134294905Y-80474002D01*
X134297290Y-80464481D01*
X134311534Y-80417526D01*
X134314840Y-80408288D01*
X134333617Y-80362955D01*
X134337814Y-80354081D01*
X134360945Y-80310808D01*
X134365988Y-80302393D01*
X134393248Y-80261594D01*
X134399095Y-80253710D01*
X134430223Y-80215781D01*
X134436813Y-80208510D01*
X134471510Y-80173813D01*
X134478781Y-80167223D01*
X134516710Y-80136095D01*
X134524594Y-80130248D01*
X134565393Y-80102988D01*
X134573808Y-80097945D01*
X134617081Y-80074814D01*
X134625955Y-80070617D01*
X134671288Y-80051840D01*
X134680526Y-80048534D01*
X134727481Y-80034290D01*
X134737002Y-80031905D01*
X134785127Y-80022333D01*
X134794832Y-80020894D01*
X134843663Y-80016084D01*
X134853466Y-80015602D01*
X134871886Y-80015602D01*
X134878000Y-80015000D01*
X135378000Y-80015000D01*
X135384114Y-80015602D01*
X135402534Y-80015602D01*
X135412337Y-80016084D01*
X135461168Y-80020894D01*
X135470873Y-80022333D01*
X135518998Y-80031905D01*
X135528519Y-80034290D01*
X135575474Y-80048534D01*
X135584712Y-80051840D01*
X135630045Y-80070617D01*
X135638919Y-80074814D01*
X135682192Y-80097945D01*
X135690607Y-80102988D01*
X135731406Y-80130248D01*
X135739290Y-80136095D01*
X135777219Y-80167223D01*
X135784490Y-80173813D01*
X135819187Y-80208510D01*
X135825777Y-80215781D01*
X135856905Y-80253710D01*
X135862752Y-80261594D01*
X135890012Y-80302393D01*
X135895055Y-80310808D01*
X135918186Y-80354081D01*
X135922383Y-80362955D01*
X135941160Y-80408288D01*
X135944466Y-80417526D01*
X135958710Y-80464481D01*
X135961095Y-80474002D01*
X135970667Y-80522127D01*
X135972106Y-80531832D01*
X135976916Y-80580663D01*
X135977398Y-80590466D01*
X135977398Y-80608886D01*
X135978000Y-80615000D01*
X135978000Y-81165000D01*
X135976079Y-81184509D01*
G37*
D18*
X135128000Y-81915000D03*
D10*
G36*
X135977398Y-83221114D02*
G01*
X135977398Y-83239534D01*
X135976916Y-83249337D01*
X135972106Y-83298168D01*
X135970667Y-83307873D01*
X135961095Y-83355998D01*
X135958710Y-83365519D01*
X135944466Y-83412474D01*
X135941160Y-83421712D01*
X135922383Y-83467045D01*
X135918186Y-83475919D01*
X135895055Y-83519192D01*
X135890012Y-83527607D01*
X135862752Y-83568406D01*
X135856905Y-83576290D01*
X135825777Y-83614219D01*
X135819187Y-83621490D01*
X135784490Y-83656187D01*
X135777219Y-83662777D01*
X135739290Y-83693905D01*
X135731406Y-83699752D01*
X135690607Y-83727012D01*
X135682192Y-83732055D01*
X135638919Y-83755186D01*
X135630045Y-83759383D01*
X135584712Y-83778160D01*
X135575474Y-83781466D01*
X135528519Y-83795710D01*
X135518998Y-83798095D01*
X135470873Y-83807667D01*
X135461168Y-83809106D01*
X135412337Y-83813916D01*
X135402534Y-83814398D01*
X135384114Y-83814398D01*
X135378000Y-83815000D01*
X134878000Y-83815000D01*
X134871886Y-83814398D01*
X134853466Y-83814398D01*
X134843663Y-83813916D01*
X134794832Y-83809106D01*
X134785127Y-83807667D01*
X134737002Y-83798095D01*
X134727481Y-83795710D01*
X134680526Y-83781466D01*
X134671288Y-83778160D01*
X134625955Y-83759383D01*
X134617081Y-83755186D01*
X134573808Y-83732055D01*
X134565393Y-83727012D01*
X134524594Y-83699752D01*
X134516710Y-83693905D01*
X134478781Y-83662777D01*
X134471510Y-83656187D01*
X134436813Y-83621490D01*
X134430223Y-83614219D01*
X134399095Y-83576290D01*
X134393248Y-83568406D01*
X134365988Y-83527607D01*
X134360945Y-83519192D01*
X134337814Y-83475919D01*
X134333617Y-83467045D01*
X134314840Y-83421712D01*
X134311534Y-83412474D01*
X134297290Y-83365519D01*
X134294905Y-83355998D01*
X134285333Y-83307873D01*
X134283894Y-83298168D01*
X134279084Y-83249337D01*
X134278602Y-83239534D01*
X134278602Y-83221114D01*
X134278000Y-83215000D01*
X134278000Y-82665000D01*
X134279921Y-82645491D01*
X134285612Y-82626732D01*
X134294853Y-82609443D01*
X134307289Y-82594289D01*
X134322443Y-82581853D01*
X134339732Y-82572612D01*
X134358491Y-82566921D01*
X134378000Y-82565000D01*
X135878000Y-82565000D01*
X135897509Y-82566921D01*
X135916268Y-82572612D01*
X135933557Y-82581853D01*
X135948711Y-82594289D01*
X135961147Y-82609443D01*
X135970388Y-82626732D01*
X135976079Y-82645491D01*
X135978000Y-82665000D01*
X135978000Y-83215000D01*
X135977398Y-83221114D01*
G37*
G04 #@! TD*
G04 #@! TO.C,FAN1*
G36*
X99569986Y-70991498D02*
G01*
X99551566Y-70991498D01*
X99541763Y-70991016D01*
X99492932Y-70986206D01*
X99483227Y-70984767D01*
X99435102Y-70975195D01*
X99425581Y-70972810D01*
X99378626Y-70958566D01*
X99369388Y-70955260D01*
X99324055Y-70936483D01*
X99315181Y-70932286D01*
X99271908Y-70909155D01*
X99263493Y-70904112D01*
X99222694Y-70876852D01*
X99214810Y-70871005D01*
X99176881Y-70839877D01*
X99169610Y-70833287D01*
X99134913Y-70798590D01*
X99128323Y-70791319D01*
X99097195Y-70753390D01*
X99091348Y-70745506D01*
X99064088Y-70704707D01*
X99059045Y-70696292D01*
X99035914Y-70653019D01*
X99031717Y-70644145D01*
X99012940Y-70598812D01*
X99009634Y-70589574D01*
X98995390Y-70542619D01*
X98993005Y-70533098D01*
X98983433Y-70484973D01*
X98981994Y-70475268D01*
X98977184Y-70426437D01*
X98976702Y-70416634D01*
X98976702Y-70398214D01*
X98976100Y-70392100D01*
X98976100Y-69892100D01*
X98976702Y-69885986D01*
X98976702Y-69867566D01*
X98977184Y-69857763D01*
X98981994Y-69808932D01*
X98983433Y-69799227D01*
X98993005Y-69751102D01*
X98995390Y-69741581D01*
X99009634Y-69694626D01*
X99012940Y-69685388D01*
X99031717Y-69640055D01*
X99035914Y-69631181D01*
X99059045Y-69587908D01*
X99064088Y-69579493D01*
X99091348Y-69538694D01*
X99097195Y-69530810D01*
X99128323Y-69492881D01*
X99134913Y-69485610D01*
X99169610Y-69450913D01*
X99176881Y-69444323D01*
X99214810Y-69413195D01*
X99222694Y-69407348D01*
X99263493Y-69380088D01*
X99271908Y-69375045D01*
X99315181Y-69351914D01*
X99324055Y-69347717D01*
X99369388Y-69328940D01*
X99378626Y-69325634D01*
X99425581Y-69311390D01*
X99435102Y-69309005D01*
X99483227Y-69299433D01*
X99492932Y-69297994D01*
X99541763Y-69293184D01*
X99551566Y-69292702D01*
X99569986Y-69292702D01*
X99576100Y-69292100D01*
X100126100Y-69292100D01*
X100145609Y-69294021D01*
X100164368Y-69299712D01*
X100181657Y-69308953D01*
X100196811Y-69321389D01*
X100209247Y-69336543D01*
X100218488Y-69353832D01*
X100224179Y-69372591D01*
X100226100Y-69392100D01*
X100226100Y-70892100D01*
X100224179Y-70911609D01*
X100218488Y-70930368D01*
X100209247Y-70947657D01*
X100196811Y-70962811D01*
X100181657Y-70975247D01*
X100164368Y-70984488D01*
X100145609Y-70990179D01*
X100126100Y-70992100D01*
X99576100Y-70992100D01*
X99569986Y-70991498D01*
G37*
D19*
X100876100Y-70142100D03*
D10*
G36*
X101606591Y-70990179D02*
G01*
X101587832Y-70984488D01*
X101570543Y-70975247D01*
X101555389Y-70962811D01*
X101542953Y-70947657D01*
X101533712Y-70930368D01*
X101528021Y-70911609D01*
X101526100Y-70892100D01*
X101526100Y-69392100D01*
X101528021Y-69372591D01*
X101533712Y-69353832D01*
X101542953Y-69336543D01*
X101555389Y-69321389D01*
X101570543Y-69308953D01*
X101587832Y-69299712D01*
X101606591Y-69294021D01*
X101626100Y-69292100D01*
X102176100Y-69292100D01*
X102182214Y-69292702D01*
X102200634Y-69292702D01*
X102210437Y-69293184D01*
X102259268Y-69297994D01*
X102268973Y-69299433D01*
X102317098Y-69309005D01*
X102326619Y-69311390D01*
X102373574Y-69325634D01*
X102382812Y-69328940D01*
X102428145Y-69347717D01*
X102437019Y-69351914D01*
X102480292Y-69375045D01*
X102488707Y-69380088D01*
X102529506Y-69407348D01*
X102537390Y-69413195D01*
X102575319Y-69444323D01*
X102582590Y-69450913D01*
X102617287Y-69485610D01*
X102623877Y-69492881D01*
X102655005Y-69530810D01*
X102660852Y-69538694D01*
X102688112Y-69579493D01*
X102693155Y-69587908D01*
X102716286Y-69631181D01*
X102720483Y-69640055D01*
X102739260Y-69685388D01*
X102742566Y-69694626D01*
X102756810Y-69741581D01*
X102759195Y-69751102D01*
X102768767Y-69799227D01*
X102770206Y-69808932D01*
X102775016Y-69857763D01*
X102775498Y-69867566D01*
X102775498Y-69885986D01*
X102776100Y-69892100D01*
X102776100Y-70392100D01*
X102775498Y-70398214D01*
X102775498Y-70416634D01*
X102775016Y-70426437D01*
X102770206Y-70475268D01*
X102768767Y-70484973D01*
X102759195Y-70533098D01*
X102756810Y-70542619D01*
X102742566Y-70589574D01*
X102739260Y-70598812D01*
X102720483Y-70644145D01*
X102716286Y-70653019D01*
X102693155Y-70696292D01*
X102688112Y-70704707D01*
X102660852Y-70745506D01*
X102655005Y-70753390D01*
X102623877Y-70791319D01*
X102617287Y-70798590D01*
X102582590Y-70833287D01*
X102575319Y-70839877D01*
X102537390Y-70871005D01*
X102529506Y-70876852D01*
X102488707Y-70904112D01*
X102480292Y-70909155D01*
X102437019Y-70932286D01*
X102428145Y-70936483D01*
X102382812Y-70955260D01*
X102373574Y-70958566D01*
X102326619Y-70972810D01*
X102317098Y-70975195D01*
X102268973Y-70984767D01*
X102259268Y-70986206D01*
X102210437Y-70991016D01*
X102200634Y-70991498D01*
X102182214Y-70991498D01*
X102176100Y-70992100D01*
X101626100Y-70992100D01*
X101606591Y-70990179D01*
G37*
G04 #@! TD*
G04 #@! TO.C,SJ1*
G36*
X111812302Y-71375986D02*
G01*
X111812302Y-71357566D01*
X111812784Y-71347763D01*
X111817594Y-71298932D01*
X111819033Y-71289227D01*
X111828605Y-71241102D01*
X111830990Y-71231581D01*
X111845234Y-71184626D01*
X111848540Y-71175388D01*
X111867317Y-71130055D01*
X111871514Y-71121181D01*
X111894645Y-71077908D01*
X111899688Y-71069493D01*
X111926948Y-71028694D01*
X111932795Y-71020810D01*
X111963923Y-70982881D01*
X111970513Y-70975610D01*
X112005210Y-70940913D01*
X112012481Y-70934323D01*
X112050410Y-70903195D01*
X112058294Y-70897348D01*
X112099093Y-70870088D01*
X112107508Y-70865045D01*
X112150781Y-70841914D01*
X112159655Y-70837717D01*
X112204988Y-70818940D01*
X112214226Y-70815634D01*
X112261181Y-70801390D01*
X112270702Y-70799005D01*
X112318827Y-70789433D01*
X112328532Y-70787994D01*
X112377363Y-70783184D01*
X112387166Y-70782702D01*
X112405586Y-70782702D01*
X112411700Y-70782100D01*
X112911700Y-70782100D01*
X112917814Y-70782702D01*
X112936234Y-70782702D01*
X112946037Y-70783184D01*
X112994868Y-70787994D01*
X113004573Y-70789433D01*
X113052698Y-70799005D01*
X113062219Y-70801390D01*
X113109174Y-70815634D01*
X113118412Y-70818940D01*
X113163745Y-70837717D01*
X113172619Y-70841914D01*
X113215892Y-70865045D01*
X113224307Y-70870088D01*
X113265106Y-70897348D01*
X113272990Y-70903195D01*
X113310919Y-70934323D01*
X113318190Y-70940913D01*
X113352887Y-70975610D01*
X113359477Y-70982881D01*
X113390605Y-71020810D01*
X113396452Y-71028694D01*
X113423712Y-71069493D01*
X113428755Y-71077908D01*
X113451886Y-71121181D01*
X113456083Y-71130055D01*
X113474860Y-71175388D01*
X113478166Y-71184626D01*
X113492410Y-71231581D01*
X113494795Y-71241102D01*
X113504367Y-71289227D01*
X113505806Y-71298932D01*
X113510616Y-71347763D01*
X113511098Y-71357566D01*
X113511098Y-71375986D01*
X113511700Y-71382100D01*
X113511700Y-71882100D01*
X113509779Y-71901609D01*
X113504088Y-71920368D01*
X113494847Y-71937657D01*
X113482411Y-71952811D01*
X113467257Y-71965247D01*
X113449968Y-71974488D01*
X113431209Y-71980179D01*
X113411700Y-71982100D01*
X111911700Y-71982100D01*
X111892191Y-71980179D01*
X111873432Y-71974488D01*
X111856143Y-71965247D01*
X111840989Y-71952811D01*
X111828553Y-71937657D01*
X111819312Y-71920368D01*
X111813621Y-71901609D01*
X111811700Y-71882100D01*
X111811700Y-71382100D01*
X111812302Y-71375986D01*
G37*
G36*
X111813621Y-72162591D02*
G01*
X111819312Y-72143832D01*
X111828553Y-72126543D01*
X111840989Y-72111389D01*
X111856143Y-72098953D01*
X111873432Y-72089712D01*
X111892191Y-72084021D01*
X111911700Y-72082100D01*
X113411700Y-72082100D01*
X113431209Y-72084021D01*
X113449968Y-72089712D01*
X113467257Y-72098953D01*
X113482411Y-72111389D01*
X113494847Y-72126543D01*
X113504088Y-72143832D01*
X113509779Y-72162591D01*
X113511700Y-72182100D01*
X113511700Y-72682100D01*
X113511098Y-72688214D01*
X113511098Y-72706634D01*
X113510616Y-72716437D01*
X113505806Y-72765268D01*
X113504367Y-72774973D01*
X113494795Y-72823098D01*
X113492410Y-72832619D01*
X113478166Y-72879574D01*
X113474860Y-72888812D01*
X113456083Y-72934145D01*
X113451886Y-72943019D01*
X113428755Y-72986292D01*
X113423712Y-72994707D01*
X113396452Y-73035506D01*
X113390605Y-73043390D01*
X113359477Y-73081319D01*
X113352887Y-73088590D01*
X113318190Y-73123287D01*
X113310919Y-73129877D01*
X113272990Y-73161005D01*
X113265106Y-73166852D01*
X113224307Y-73194112D01*
X113215892Y-73199155D01*
X113172619Y-73222286D01*
X113163745Y-73226483D01*
X113118412Y-73245260D01*
X113109174Y-73248566D01*
X113062219Y-73262810D01*
X113052698Y-73265195D01*
X113004573Y-73274767D01*
X112994868Y-73276206D01*
X112946037Y-73281016D01*
X112936234Y-73281498D01*
X112917814Y-73281498D01*
X112911700Y-73282100D01*
X112411700Y-73282100D01*
X112405586Y-73281498D01*
X112387166Y-73281498D01*
X112377363Y-73281016D01*
X112328532Y-73276206D01*
X112318827Y-73274767D01*
X112270702Y-73265195D01*
X112261181Y-73262810D01*
X112214226Y-73248566D01*
X112204988Y-73245260D01*
X112159655Y-73226483D01*
X112150781Y-73222286D01*
X112107508Y-73199155D01*
X112099093Y-73194112D01*
X112058294Y-73166852D01*
X112050410Y-73161005D01*
X112012481Y-73129877D01*
X112005210Y-73123287D01*
X111970513Y-73088590D01*
X111963923Y-73081319D01*
X111932795Y-73043390D01*
X111926948Y-73035506D01*
X111899688Y-72994707D01*
X111894645Y-72986292D01*
X111871514Y-72943019D01*
X111867317Y-72934145D01*
X111848540Y-72888812D01*
X111845234Y-72879574D01*
X111830990Y-72832619D01*
X111828605Y-72823098D01*
X111819033Y-72774973D01*
X111817594Y-72765268D01*
X111812784Y-72716437D01*
X111812302Y-72706634D01*
X111812302Y-72688214D01*
X111811700Y-72682100D01*
X111811700Y-72182100D01*
X111813621Y-72162591D01*
G37*
G04 #@! TD*
G04 #@! TO.C,C1*
G36*
X126189592Y-98752294D02*
G01*
X126215681Y-98756164D01*
X126241264Y-98762572D01*
X126266096Y-98771457D01*
X126289938Y-98782734D01*
X126312560Y-98796293D01*
X126333743Y-98812003D01*
X126353285Y-98829715D01*
X126370997Y-98849257D01*
X126386707Y-98870440D01*
X126400266Y-98893062D01*
X126411543Y-98916904D01*
X126420428Y-98941736D01*
X126426836Y-98967319D01*
X126430706Y-98993408D01*
X126432000Y-99019750D01*
X126432000Y-99557250D01*
X126430706Y-99583592D01*
X126426836Y-99609681D01*
X126420428Y-99635264D01*
X126411543Y-99660096D01*
X126400266Y-99683938D01*
X126386707Y-99706560D01*
X126370997Y-99727743D01*
X126353285Y-99747285D01*
X126333743Y-99764997D01*
X126312560Y-99780707D01*
X126289938Y-99794266D01*
X126266096Y-99805543D01*
X126241264Y-99814428D01*
X126215681Y-99820836D01*
X126189592Y-99824706D01*
X126163250Y-99826000D01*
X125550750Y-99826000D01*
X125524408Y-99824706D01*
X125498319Y-99820836D01*
X125472736Y-99814428D01*
X125447904Y-99805543D01*
X125424062Y-99794266D01*
X125401440Y-99780707D01*
X125380257Y-99764997D01*
X125360715Y-99747285D01*
X125343003Y-99727743D01*
X125327293Y-99706560D01*
X125313734Y-99683938D01*
X125302457Y-99660096D01*
X125293572Y-99635264D01*
X125287164Y-99609681D01*
X125283294Y-99583592D01*
X125282000Y-99557250D01*
X125282000Y-99019750D01*
X125283294Y-98993408D01*
X125287164Y-98967319D01*
X125293572Y-98941736D01*
X125302457Y-98916904D01*
X125313734Y-98893062D01*
X125327293Y-98870440D01*
X125343003Y-98849257D01*
X125360715Y-98829715D01*
X125380257Y-98812003D01*
X125401440Y-98796293D01*
X125424062Y-98782734D01*
X125447904Y-98771457D01*
X125472736Y-98762572D01*
X125498319Y-98756164D01*
X125524408Y-98752294D01*
X125550750Y-98751000D01*
X126163250Y-98751000D01*
X126189592Y-98752294D01*
G37*
G36*
X126189592Y-100327294D02*
G01*
X126215681Y-100331164D01*
X126241264Y-100337572D01*
X126266096Y-100346457D01*
X126289938Y-100357734D01*
X126312560Y-100371293D01*
X126333743Y-100387003D01*
X126353285Y-100404715D01*
X126370997Y-100424257D01*
X126386707Y-100445440D01*
X126400266Y-100468062D01*
X126411543Y-100491904D01*
X126420428Y-100516736D01*
X126426836Y-100542319D01*
X126430706Y-100568408D01*
X126432000Y-100594750D01*
X126432000Y-101132250D01*
X126430706Y-101158592D01*
X126426836Y-101184681D01*
X126420428Y-101210264D01*
X126411543Y-101235096D01*
X126400266Y-101258938D01*
X126386707Y-101281560D01*
X126370997Y-101302743D01*
X126353285Y-101322285D01*
X126333743Y-101339997D01*
X126312560Y-101355707D01*
X126289938Y-101369266D01*
X126266096Y-101380543D01*
X126241264Y-101389428D01*
X126215681Y-101395836D01*
X126189592Y-101399706D01*
X126163250Y-101401000D01*
X125550750Y-101401000D01*
X125524408Y-101399706D01*
X125498319Y-101395836D01*
X125472736Y-101389428D01*
X125447904Y-101380543D01*
X125424062Y-101369266D01*
X125401440Y-101355707D01*
X125380257Y-101339997D01*
X125360715Y-101322285D01*
X125343003Y-101302743D01*
X125327293Y-101281560D01*
X125313734Y-101258938D01*
X125302457Y-101235096D01*
X125293572Y-101210264D01*
X125287164Y-101184681D01*
X125283294Y-101158592D01*
X125282000Y-101132250D01*
X125282000Y-100594750D01*
X125283294Y-100568408D01*
X125287164Y-100542319D01*
X125293572Y-100516736D01*
X125302457Y-100491904D01*
X125313734Y-100468062D01*
X125327293Y-100445440D01*
X125343003Y-100424257D01*
X125360715Y-100404715D01*
X125380257Y-100387003D01*
X125401440Y-100371293D01*
X125424062Y-100357734D01*
X125447904Y-100346457D01*
X125472736Y-100337572D01*
X125498319Y-100331164D01*
X125524408Y-100327294D01*
X125550750Y-100326000D01*
X126163250Y-100326000D01*
X126189592Y-100327294D01*
G37*
G04 #@! TD*
G04 #@! TO.C,R17*
G36*
X107050692Y-74647594D02*
G01*
X107076781Y-74651464D01*
X107102364Y-74657872D01*
X107127196Y-74666757D01*
X107151038Y-74678034D01*
X107173660Y-74691593D01*
X107194843Y-74707303D01*
X107214385Y-74725015D01*
X107232097Y-74744557D01*
X107247807Y-74765740D01*
X107261366Y-74788362D01*
X107272643Y-74812204D01*
X107281528Y-74837036D01*
X107287936Y-74862619D01*
X107291806Y-74888708D01*
X107293100Y-74915050D01*
X107293100Y-75452550D01*
X107291806Y-75478892D01*
X107287936Y-75504981D01*
X107281528Y-75530564D01*
X107272643Y-75555396D01*
X107261366Y-75579238D01*
X107247807Y-75601860D01*
X107232097Y-75623043D01*
X107214385Y-75642585D01*
X107194843Y-75660297D01*
X107173660Y-75676007D01*
X107151038Y-75689566D01*
X107127196Y-75700843D01*
X107102364Y-75709728D01*
X107076781Y-75716136D01*
X107050692Y-75720006D01*
X107024350Y-75721300D01*
X106411850Y-75721300D01*
X106385508Y-75720006D01*
X106359419Y-75716136D01*
X106333836Y-75709728D01*
X106309004Y-75700843D01*
X106285162Y-75689566D01*
X106262540Y-75676007D01*
X106241357Y-75660297D01*
X106221815Y-75642585D01*
X106204103Y-75623043D01*
X106188393Y-75601860D01*
X106174834Y-75579238D01*
X106163557Y-75555396D01*
X106154672Y-75530564D01*
X106148264Y-75504981D01*
X106144394Y-75478892D01*
X106143100Y-75452550D01*
X106143100Y-74915050D01*
X106144394Y-74888708D01*
X106148264Y-74862619D01*
X106154672Y-74837036D01*
X106163557Y-74812204D01*
X106174834Y-74788362D01*
X106188393Y-74765740D01*
X106204103Y-74744557D01*
X106221815Y-74725015D01*
X106241357Y-74707303D01*
X106262540Y-74691593D01*
X106285162Y-74678034D01*
X106309004Y-74666757D01*
X106333836Y-74657872D01*
X106359419Y-74651464D01*
X106385508Y-74647594D01*
X106411850Y-74646300D01*
X107024350Y-74646300D01*
X107050692Y-74647594D01*
G37*
G36*
X107050692Y-76222594D02*
G01*
X107076781Y-76226464D01*
X107102364Y-76232872D01*
X107127196Y-76241757D01*
X107151038Y-76253034D01*
X107173660Y-76266593D01*
X107194843Y-76282303D01*
X107214385Y-76300015D01*
X107232097Y-76319557D01*
X107247807Y-76340740D01*
X107261366Y-76363362D01*
X107272643Y-76387204D01*
X107281528Y-76412036D01*
X107287936Y-76437619D01*
X107291806Y-76463708D01*
X107293100Y-76490050D01*
X107293100Y-77027550D01*
X107291806Y-77053892D01*
X107287936Y-77079981D01*
X107281528Y-77105564D01*
X107272643Y-77130396D01*
X107261366Y-77154238D01*
X107247807Y-77176860D01*
X107232097Y-77198043D01*
X107214385Y-77217585D01*
X107194843Y-77235297D01*
X107173660Y-77251007D01*
X107151038Y-77264566D01*
X107127196Y-77275843D01*
X107102364Y-77284728D01*
X107076781Y-77291136D01*
X107050692Y-77295006D01*
X107024350Y-77296300D01*
X106411850Y-77296300D01*
X106385508Y-77295006D01*
X106359419Y-77291136D01*
X106333836Y-77284728D01*
X106309004Y-77275843D01*
X106285162Y-77264566D01*
X106262540Y-77251007D01*
X106241357Y-77235297D01*
X106221815Y-77217585D01*
X106204103Y-77198043D01*
X106188393Y-77176860D01*
X106174834Y-77154238D01*
X106163557Y-77130396D01*
X106154672Y-77105564D01*
X106148264Y-77079981D01*
X106144394Y-77053892D01*
X106143100Y-77027550D01*
X106143100Y-76490050D01*
X106144394Y-76463708D01*
X106148264Y-76437619D01*
X106154672Y-76412036D01*
X106163557Y-76387204D01*
X106174834Y-76363362D01*
X106188393Y-76340740D01*
X106204103Y-76319557D01*
X106221815Y-76300015D01*
X106241357Y-76282303D01*
X106262540Y-76266593D01*
X106285162Y-76253034D01*
X106309004Y-76241757D01*
X106333836Y-76232872D01*
X106359419Y-76226464D01*
X106385508Y-76222594D01*
X106411850Y-76221300D01*
X107024350Y-76221300D01*
X107050692Y-76222594D01*
G37*
G04 #@! TD*
D20*
G04 #@! TO.C,+5V_in1*
X92837000Y-108839000D03*
D21*
X92837000Y-113919000D03*
G04 #@! TD*
D20*
G04 #@! TO.C,GND_in1*
X87757000Y-108839000D03*
D21*
X87757000Y-113919000D03*
G04 #@! TD*
D22*
G04 #@! TO.C,J3*
X86920000Y-65590000D03*
D23*
X86920000Y-63050000D03*
X89460000Y-65590000D03*
X89460000Y-63050000D03*
X92000000Y-65590000D03*
X92000000Y-63050000D03*
X94540000Y-65590000D03*
X94540000Y-63050000D03*
X97080000Y-65590000D03*
X97080000Y-63050000D03*
X99620000Y-65590000D03*
X99620000Y-63050000D03*
X102160000Y-65590000D03*
X102160000Y-63050000D03*
X104700000Y-65590000D03*
X104700000Y-63050000D03*
X107240000Y-65590000D03*
X107240000Y-63050000D03*
X109780000Y-65590000D03*
X109780000Y-63050000D03*
X112320000Y-65590000D03*
X112320000Y-63050000D03*
X114860000Y-65590000D03*
X114860000Y-63050000D03*
X117400000Y-65590000D03*
X117400000Y-63050000D03*
X119940000Y-65590000D03*
X119940000Y-63050000D03*
X122480000Y-65590000D03*
X122480000Y-63050000D03*
X125020000Y-65590000D03*
X125020000Y-63050000D03*
X127560000Y-65590000D03*
X127560000Y-63050000D03*
X130100000Y-65590000D03*
X130100000Y-63050000D03*
X132640000Y-65590000D03*
X132640000Y-63050000D03*
X135180000Y-65590000D03*
X135180000Y-63050000D03*
G04 #@! TD*
D24*
G04 #@! TO.C,U2*
X115697000Y-77503000D03*
X116967000Y-77503000D03*
X118237000Y-77503000D03*
X119507000Y-77503000D03*
X119507000Y-72103000D03*
X118237000Y-72103000D03*
X116967000Y-72103000D03*
X115697000Y-72103000D03*
G04 #@! TD*
D25*
G04 #@! TO.C,Q1*
X93279000Y-103648000D03*
X91379000Y-103648000D03*
X92329000Y-105648000D03*
G04 #@! TD*
D26*
G04 #@! TO.C,Q2*
X92263000Y-98976000D03*
X91313000Y-98976000D03*
X90363000Y-98976000D03*
X90363000Y-101176000D03*
X92263000Y-101176000D03*
X91313000Y-101176000D03*
G04 #@! TD*
D17*
G04 #@! TO.C,H1*
X82040000Y-64310000D03*
G04 #@! TD*
G04 #@! TO.C,H2*
X140040000Y-64330000D03*
G04 #@! TD*
G04 #@! TO.C,H3*
X82040000Y-113320000D03*
G04 #@! TD*
G04 #@! TO.C,H4*
X140030000Y-113310000D03*
G04 #@! TD*
M02*
