M48
; DRILL file {KiCad (5.1.5)-3} date 3/5/2020 8:02:52 PM
; FORMAT={-:-/ absolute / inch / decimal}
; #@! TF.CreationDate,2020-03-05T20:02:52-05:00
; #@! TF.GenerationSoftware,Kicad,Pcbnew,(5.1.5)-3
; #@! TF.FileFunction,Plated,1,2,PTH
FMAT,2
INCH
T1C0.0079
T2C0.0374
T3C0.0394
T4C0.0591
%
G90
G05
T1
X3.5147Y-3.8967
X3.5147Y-3.9754
X3.555Y-4.0424
X3.6724Y-4.0424
X3.8699Y-2.8301
X3.922Y-2.7756
X4.605Y-3.39
X4.626Y-3.7008
X4.6752Y-3.7008
X4.6949Y-3.5827
X4.705Y-3.55
X4.7244Y-3.7008
X4.755Y-3.525
X4.7901Y-2.7599
X5.01Y-3.705
X5.02Y-2.925
X5.055Y-3.3268
X5.075Y-3.745
X5.205Y-3.3268
X5.32Y-3.3268
X5.375Y-3.975
T2
X3.5236Y-3.6811
X3.622Y-3.6811
X3.7205Y-3.6811
X3.8189Y-3.6811
X4.1763Y-4.485
X4.2747Y-4.485
X4.3731Y-4.485
X4.4716Y-4.485
X4.57Y-4.485
X4.8413Y-4.485
X4.9397Y-4.485
X5.0381Y-4.485
X5.1366Y-4.485
X5.235Y-4.485
X4.85Y-4.135
X4.9484Y-4.135
X5.0469Y-4.135
X5.1453Y-4.135
X5.2437Y-4.135
X4.185Y-4.135
X4.2834Y-4.135
X4.3819Y-4.135
X4.4803Y-4.135
X4.5787Y-4.135
X5.535Y-3.7816
X5.535Y-3.88
X5.535Y-3.9784
X5.535Y-4.0769
X5.535Y-4.1753
T3
X3.422Y-2.4823
X3.422Y-2.5823
X3.522Y-2.4823
X3.522Y-2.5823
X3.622Y-2.4823
X3.622Y-2.5823
X3.722Y-2.4823
X3.722Y-2.5823
X3.822Y-2.4823
X3.822Y-2.5823
X3.922Y-2.4823
X3.922Y-2.5823
X4.022Y-2.4823
X4.022Y-2.5823
X4.122Y-2.4823
X4.122Y-2.5823
X4.222Y-2.4823
X4.222Y-2.5823
X4.322Y-2.4823
X4.322Y-2.5823
X4.422Y-2.4823
X4.422Y-2.5823
X4.522Y-2.4823
X4.522Y-2.5823
X4.622Y-2.4823
X4.622Y-2.5823
X4.722Y-2.4823
X4.722Y-2.5823
X4.822Y-2.4823
X4.822Y-2.5823
X4.922Y-2.4823
X4.922Y-2.5823
X5.022Y-2.4823
X5.022Y-2.5823
X5.122Y-2.4823
X5.122Y-2.5823
X5.222Y-2.4823
X5.222Y-2.5823
X5.322Y-2.4823
X5.322Y-2.5823
X3.25Y-3.685
X3.25Y-3.7834
X4.0984Y-3.8661
X4.1969Y-3.8661
T4
X3.455Y-4.285
X3.455Y-4.485
X3.655Y-4.285
X3.655Y-4.485
T0
M30
