M48
; DRILL file {KiCad (5.1.5)-3} date 2020-02-23 12:44:53 PM
; FORMAT={-:-/ absolute / metric / decimal}
; #@! TF.CreationDate,2020-02-23T12:44:53-05:00
; #@! TF.GenerationSoftware,Kicad,Pcbnew,(5.1.5)-3
; #@! TF.FileFunction,Plated,1,2,PTH
FMAT,2
METRIC
T1C0.200
T2C0.950
T3C1.000
T4C1.501
%
G90
G05
T1
X89.274Y-98.976
X89.274Y-100.976
X90.297Y-102.677
X93.279Y-102.677
X98.295Y-71.885
X99.62Y-70.5
X116.967Y-86.106
X117.5Y-94.0
X118.75Y-94.0
X119.25Y-91.0
X119.507Y-90.17
X120.0Y-94.0
X120.777Y-89.535
X121.667Y-70.102
X127.254Y-94.107
X127.508Y-74.295
X128.397Y-84.5
X128.905Y-95.123
X132.207Y-84.5
X135.128Y-84.5
X136.525Y-100.965
T2
X140.589Y-96.052
X140.589Y-98.552
X140.589Y-101.052
X140.589Y-103.552
X140.589Y-106.052
X123.19Y-105.029
X125.69Y-105.029
X128.19Y-105.029
X130.69Y-105.029
X133.19Y-105.029
X122.969Y-113.919
X125.469Y-113.919
X127.969Y-113.919
X130.469Y-113.919
X132.969Y-113.919
X89.5Y-93.5
X92.0Y-93.5
X94.5Y-93.5
X97.0Y-93.5
X106.078Y-113.919
X108.578Y-113.919
X111.078Y-113.919
X113.578Y-113.919
X116.078Y-113.919
X106.299Y-105.029
X108.799Y-105.029
X111.299Y-105.029
X113.799Y-105.029
X116.299Y-105.029
T3
X82.55Y-93.599
X82.55Y-96.099
X86.92Y-63.05
X86.92Y-65.59
X89.46Y-63.05
X89.46Y-65.59
X92.0Y-63.05
X92.0Y-65.59
X94.54Y-63.05
X94.54Y-65.59
X97.08Y-63.05
X97.08Y-65.59
X99.62Y-63.05
X99.62Y-65.59
X102.16Y-63.05
X102.16Y-65.59
X104.7Y-63.05
X104.7Y-65.59
X107.24Y-63.05
X107.24Y-65.59
X109.78Y-63.05
X109.78Y-65.59
X112.32Y-63.05
X112.32Y-65.59
X114.86Y-63.05
X114.86Y-65.59
X117.4Y-63.05
X117.4Y-65.59
X119.94Y-63.05
X119.94Y-65.59
X122.48Y-63.05
X122.48Y-65.59
X125.02Y-63.05
X125.02Y-65.59
X127.56Y-63.05
X127.56Y-65.59
X130.1Y-63.05
X130.1Y-65.59
X132.64Y-63.05
X132.64Y-65.59
X135.18Y-63.05
X135.18Y-65.59
X104.1Y-98.2
X106.6Y-98.2
T4
X92.837Y-108.839
X92.837Y-113.919
X87.757Y-108.839
X87.757Y-113.919
T0
M30
