G04 #@! TF.GenerationSoftware,KiCad,Pcbnew,(5.1.5)-3*
G04 #@! TF.CreationDate,2020-03-21T12:50:03-04:00*
G04 #@! TF.ProjectId,Zynth-encoder_power_display_fan,5a796e74-682d-4656-9e63-6f6465725f70,rev?*
G04 #@! TF.SameCoordinates,Original*
G04 #@! TF.FileFunction,Soldermask,Bot*
G04 #@! TF.FilePolarity,Negative*
%FSLAX46Y46*%
G04 Gerber Fmt 4.6, Leading zero omitted, Abs format (unit mm)*
G04 Created by KiCad (PCBNEW (5.1.5)-3) date 2020-03-21 12:50:03*
%MOMM*%
%LPD*%
G04 APERTURE LIST*
%ADD10O,1.900000X2.150000*%
%ADD11C,0.150000*%
%ADD12O,2.150000X1.900000*%
%ADD13O,1.900000X2.200000*%
%ADD14O,2.200000X1.900000*%
%ADD15C,3.200000*%
%ADD16C,3.700120*%
%ADD17R,3.700120X3.700120*%
%ADD18R,1.900000X1.900000*%
%ADD19O,1.900000X1.900000*%
G04 APERTURE END LIST*
D10*
G04 #@! TO.C,PWR1*
X97000000Y-93500000D03*
X94500000Y-93500000D03*
X92000000Y-93500000D03*
D11*
G36*
X90197975Y-92426345D02*
G01*
X90225099Y-92430369D01*
X90251697Y-92437031D01*
X90277514Y-92446269D01*
X90302302Y-92457993D01*
X90325821Y-92472089D01*
X90347845Y-92488424D01*
X90368162Y-92506838D01*
X90386576Y-92527155D01*
X90402911Y-92549179D01*
X90417007Y-92572698D01*
X90428731Y-92597486D01*
X90437969Y-92623303D01*
X90444631Y-92649901D01*
X90448655Y-92677025D01*
X90450000Y-92704412D01*
X90450000Y-94295588D01*
X90448655Y-94322975D01*
X90444631Y-94350099D01*
X90437969Y-94376697D01*
X90428731Y-94402514D01*
X90417007Y-94427302D01*
X90402911Y-94450821D01*
X90386576Y-94472845D01*
X90368162Y-94493162D01*
X90347845Y-94511576D01*
X90325821Y-94527911D01*
X90302302Y-94542007D01*
X90277514Y-94553731D01*
X90251697Y-94562969D01*
X90225099Y-94569631D01*
X90197975Y-94573655D01*
X90170588Y-94575000D01*
X88829412Y-94575000D01*
X88802025Y-94573655D01*
X88774901Y-94569631D01*
X88748303Y-94562969D01*
X88722486Y-94553731D01*
X88697698Y-94542007D01*
X88674179Y-94527911D01*
X88652155Y-94511576D01*
X88631838Y-94493162D01*
X88613424Y-94472845D01*
X88597089Y-94450821D01*
X88582993Y-94427302D01*
X88571269Y-94402514D01*
X88562031Y-94376697D01*
X88555369Y-94350099D01*
X88551345Y-94322975D01*
X88550000Y-94295588D01*
X88550000Y-92704412D01*
X88551345Y-92677025D01*
X88555369Y-92649901D01*
X88562031Y-92623303D01*
X88571269Y-92597486D01*
X88582993Y-92572698D01*
X88597089Y-92549179D01*
X88613424Y-92527155D01*
X88631838Y-92506838D01*
X88652155Y-92488424D01*
X88674179Y-92472089D01*
X88697698Y-92457993D01*
X88722486Y-92446269D01*
X88748303Y-92437031D01*
X88774901Y-92430369D01*
X88802025Y-92426345D01*
X88829412Y-92425000D01*
X90170588Y-92425000D01*
X90197975Y-92426345D01*
G37*
G04 #@! TD*
G04 #@! TO.C,E5*
G36*
X141411975Y-95103345D02*
G01*
X141439099Y-95107369D01*
X141465697Y-95114031D01*
X141491514Y-95123269D01*
X141516302Y-95134993D01*
X141539821Y-95149089D01*
X141561845Y-95165424D01*
X141582162Y-95183838D01*
X141600576Y-95204155D01*
X141616911Y-95226179D01*
X141631007Y-95249698D01*
X141642731Y-95274486D01*
X141651969Y-95300303D01*
X141658631Y-95326901D01*
X141662655Y-95354025D01*
X141664000Y-95381412D01*
X141664000Y-96722588D01*
X141662655Y-96749975D01*
X141658631Y-96777099D01*
X141651969Y-96803697D01*
X141642731Y-96829514D01*
X141631007Y-96854302D01*
X141616911Y-96877821D01*
X141600576Y-96899845D01*
X141582162Y-96920162D01*
X141561845Y-96938576D01*
X141539821Y-96954911D01*
X141516302Y-96969007D01*
X141491514Y-96980731D01*
X141465697Y-96989969D01*
X141439099Y-96996631D01*
X141411975Y-97000655D01*
X141384588Y-97002000D01*
X139793412Y-97002000D01*
X139766025Y-97000655D01*
X139738901Y-96996631D01*
X139712303Y-96989969D01*
X139686486Y-96980731D01*
X139661698Y-96969007D01*
X139638179Y-96954911D01*
X139616155Y-96938576D01*
X139595838Y-96920162D01*
X139577424Y-96899845D01*
X139561089Y-96877821D01*
X139546993Y-96854302D01*
X139535269Y-96829514D01*
X139526031Y-96803697D01*
X139519369Y-96777099D01*
X139515345Y-96749975D01*
X139514000Y-96722588D01*
X139514000Y-95381412D01*
X139515345Y-95354025D01*
X139519369Y-95326901D01*
X139526031Y-95300303D01*
X139535269Y-95274486D01*
X139546993Y-95249698D01*
X139561089Y-95226179D01*
X139577424Y-95204155D01*
X139595838Y-95183838D01*
X139616155Y-95165424D01*
X139638179Y-95149089D01*
X139661698Y-95134993D01*
X139686486Y-95123269D01*
X139712303Y-95114031D01*
X139738901Y-95107369D01*
X139766025Y-95103345D01*
X139793412Y-95102000D01*
X141384588Y-95102000D01*
X141411975Y-95103345D01*
G37*
D12*
X140589000Y-98552000D03*
X140589000Y-101052000D03*
X140589000Y-103552000D03*
X140589000Y-106052000D03*
G04 #@! TD*
D13*
G04 #@! TO.C,PWR3*
X104100000Y-98200000D03*
D11*
G36*
X107297975Y-97101345D02*
G01*
X107325099Y-97105369D01*
X107351697Y-97112031D01*
X107377514Y-97121269D01*
X107402302Y-97132993D01*
X107425821Y-97147089D01*
X107447845Y-97163424D01*
X107468162Y-97181838D01*
X107486576Y-97202155D01*
X107502911Y-97224179D01*
X107517007Y-97247698D01*
X107528731Y-97272486D01*
X107537969Y-97298303D01*
X107544631Y-97324901D01*
X107548655Y-97352025D01*
X107550000Y-97379412D01*
X107550000Y-99020588D01*
X107548655Y-99047975D01*
X107544631Y-99075099D01*
X107537969Y-99101697D01*
X107528731Y-99127514D01*
X107517007Y-99152302D01*
X107502911Y-99175821D01*
X107486576Y-99197845D01*
X107468162Y-99218162D01*
X107447845Y-99236576D01*
X107425821Y-99252911D01*
X107402302Y-99267007D01*
X107377514Y-99278731D01*
X107351697Y-99287969D01*
X107325099Y-99294631D01*
X107297975Y-99298655D01*
X107270588Y-99300000D01*
X105929412Y-99300000D01*
X105902025Y-99298655D01*
X105874901Y-99294631D01*
X105848303Y-99287969D01*
X105822486Y-99278731D01*
X105797698Y-99267007D01*
X105774179Y-99252911D01*
X105752155Y-99236576D01*
X105731838Y-99218162D01*
X105713424Y-99197845D01*
X105697089Y-99175821D01*
X105682993Y-99152302D01*
X105671269Y-99127514D01*
X105662031Y-99101697D01*
X105655369Y-99075099D01*
X105651345Y-99047975D01*
X105650000Y-99020588D01*
X105650000Y-97379412D01*
X105651345Y-97352025D01*
X105655369Y-97324901D01*
X105662031Y-97298303D01*
X105671269Y-97272486D01*
X105682993Y-97247698D01*
X105697089Y-97224179D01*
X105713424Y-97202155D01*
X105731838Y-97181838D01*
X105752155Y-97163424D01*
X105774179Y-97147089D01*
X105797698Y-97132993D01*
X105822486Y-97121269D01*
X105848303Y-97112031D01*
X105874901Y-97105369D01*
X105902025Y-97101345D01*
X105929412Y-97100000D01*
X107270588Y-97100000D01*
X107297975Y-97101345D01*
G37*
G04 #@! TD*
D10*
G04 #@! TO.C,E4*
X133190000Y-105029000D03*
X130690000Y-105029000D03*
X128190000Y-105029000D03*
X125690000Y-105029000D03*
D11*
G36*
X123887975Y-103955345D02*
G01*
X123915099Y-103959369D01*
X123941697Y-103966031D01*
X123967514Y-103975269D01*
X123992302Y-103986993D01*
X124015821Y-104001089D01*
X124037845Y-104017424D01*
X124058162Y-104035838D01*
X124076576Y-104056155D01*
X124092911Y-104078179D01*
X124107007Y-104101698D01*
X124118731Y-104126486D01*
X124127969Y-104152303D01*
X124134631Y-104178901D01*
X124138655Y-104206025D01*
X124140000Y-104233412D01*
X124140000Y-105824588D01*
X124138655Y-105851975D01*
X124134631Y-105879099D01*
X124127969Y-105905697D01*
X124118731Y-105931514D01*
X124107007Y-105956302D01*
X124092911Y-105979821D01*
X124076576Y-106001845D01*
X124058162Y-106022162D01*
X124037845Y-106040576D01*
X124015821Y-106056911D01*
X123992302Y-106071007D01*
X123967514Y-106082731D01*
X123941697Y-106091969D01*
X123915099Y-106098631D01*
X123887975Y-106102655D01*
X123860588Y-106104000D01*
X122519412Y-106104000D01*
X122492025Y-106102655D01*
X122464901Y-106098631D01*
X122438303Y-106091969D01*
X122412486Y-106082731D01*
X122387698Y-106071007D01*
X122364179Y-106056911D01*
X122342155Y-106040576D01*
X122321838Y-106022162D01*
X122303424Y-106001845D01*
X122287089Y-105979821D01*
X122272993Y-105956302D01*
X122261269Y-105931514D01*
X122252031Y-105905697D01*
X122245369Y-105879099D01*
X122241345Y-105851975D01*
X122240000Y-105824588D01*
X122240000Y-104233412D01*
X122241345Y-104206025D01*
X122245369Y-104178901D01*
X122252031Y-104152303D01*
X122261269Y-104126486D01*
X122272993Y-104101698D01*
X122287089Y-104078179D01*
X122303424Y-104056155D01*
X122321838Y-104035838D01*
X122342155Y-104017424D01*
X122364179Y-104001089D01*
X122387698Y-103986993D01*
X122412486Y-103975269D01*
X122438303Y-103966031D01*
X122464901Y-103959369D01*
X122492025Y-103955345D01*
X122519412Y-103954000D01*
X123860588Y-103954000D01*
X123887975Y-103955345D01*
G37*
G04 #@! TD*
D10*
G04 #@! TO.C,E3*
X116299000Y-105029000D03*
X113799000Y-105029000D03*
X111299000Y-105029000D03*
X108799000Y-105029000D03*
D11*
G36*
X106996975Y-103955345D02*
G01*
X107024099Y-103959369D01*
X107050697Y-103966031D01*
X107076514Y-103975269D01*
X107101302Y-103986993D01*
X107124821Y-104001089D01*
X107146845Y-104017424D01*
X107167162Y-104035838D01*
X107185576Y-104056155D01*
X107201911Y-104078179D01*
X107216007Y-104101698D01*
X107227731Y-104126486D01*
X107236969Y-104152303D01*
X107243631Y-104178901D01*
X107247655Y-104206025D01*
X107249000Y-104233412D01*
X107249000Y-105824588D01*
X107247655Y-105851975D01*
X107243631Y-105879099D01*
X107236969Y-105905697D01*
X107227731Y-105931514D01*
X107216007Y-105956302D01*
X107201911Y-105979821D01*
X107185576Y-106001845D01*
X107167162Y-106022162D01*
X107146845Y-106040576D01*
X107124821Y-106056911D01*
X107101302Y-106071007D01*
X107076514Y-106082731D01*
X107050697Y-106091969D01*
X107024099Y-106098631D01*
X106996975Y-106102655D01*
X106969588Y-106104000D01*
X105628412Y-106104000D01*
X105601025Y-106102655D01*
X105573901Y-106098631D01*
X105547303Y-106091969D01*
X105521486Y-106082731D01*
X105496698Y-106071007D01*
X105473179Y-106056911D01*
X105451155Y-106040576D01*
X105430838Y-106022162D01*
X105412424Y-106001845D01*
X105396089Y-105979821D01*
X105381993Y-105956302D01*
X105370269Y-105931514D01*
X105361031Y-105905697D01*
X105354369Y-105879099D01*
X105350345Y-105851975D01*
X105349000Y-105824588D01*
X105349000Y-104233412D01*
X105350345Y-104206025D01*
X105354369Y-104178901D01*
X105361031Y-104152303D01*
X105370269Y-104126486D01*
X105381993Y-104101698D01*
X105396089Y-104078179D01*
X105412424Y-104056155D01*
X105430838Y-104035838D01*
X105451155Y-104017424D01*
X105473179Y-104001089D01*
X105496698Y-103986993D01*
X105521486Y-103975269D01*
X105547303Y-103966031D01*
X105573901Y-103959369D01*
X105601025Y-103955345D01*
X105628412Y-103954000D01*
X106969588Y-103954000D01*
X106996975Y-103955345D01*
G37*
G04 #@! TD*
D10*
G04 #@! TO.C,E2*
X122969000Y-113919000D03*
X125469000Y-113919000D03*
X127969000Y-113919000D03*
X130469000Y-113919000D03*
D11*
G36*
X133666975Y-112845345D02*
G01*
X133694099Y-112849369D01*
X133720697Y-112856031D01*
X133746514Y-112865269D01*
X133771302Y-112876993D01*
X133794821Y-112891089D01*
X133816845Y-112907424D01*
X133837162Y-112925838D01*
X133855576Y-112946155D01*
X133871911Y-112968179D01*
X133886007Y-112991698D01*
X133897731Y-113016486D01*
X133906969Y-113042303D01*
X133913631Y-113068901D01*
X133917655Y-113096025D01*
X133919000Y-113123412D01*
X133919000Y-114714588D01*
X133917655Y-114741975D01*
X133913631Y-114769099D01*
X133906969Y-114795697D01*
X133897731Y-114821514D01*
X133886007Y-114846302D01*
X133871911Y-114869821D01*
X133855576Y-114891845D01*
X133837162Y-114912162D01*
X133816845Y-114930576D01*
X133794821Y-114946911D01*
X133771302Y-114961007D01*
X133746514Y-114972731D01*
X133720697Y-114981969D01*
X133694099Y-114988631D01*
X133666975Y-114992655D01*
X133639588Y-114994000D01*
X132298412Y-114994000D01*
X132271025Y-114992655D01*
X132243901Y-114988631D01*
X132217303Y-114981969D01*
X132191486Y-114972731D01*
X132166698Y-114961007D01*
X132143179Y-114946911D01*
X132121155Y-114930576D01*
X132100838Y-114912162D01*
X132082424Y-114891845D01*
X132066089Y-114869821D01*
X132051993Y-114846302D01*
X132040269Y-114821514D01*
X132031031Y-114795697D01*
X132024369Y-114769099D01*
X132020345Y-114741975D01*
X132019000Y-114714588D01*
X132019000Y-113123412D01*
X132020345Y-113096025D01*
X132024369Y-113068901D01*
X132031031Y-113042303D01*
X132040269Y-113016486D01*
X132051993Y-112991698D01*
X132066089Y-112968179D01*
X132082424Y-112946155D01*
X132100838Y-112925838D01*
X132121155Y-112907424D01*
X132143179Y-112891089D01*
X132166698Y-112876993D01*
X132191486Y-112865269D01*
X132217303Y-112856031D01*
X132243901Y-112849369D01*
X132271025Y-112845345D01*
X132298412Y-112844000D01*
X133639588Y-112844000D01*
X133666975Y-112845345D01*
G37*
G04 #@! TD*
D10*
G04 #@! TO.C,E1*
X106078000Y-113919000D03*
X108578000Y-113919000D03*
X111078000Y-113919000D03*
X113578000Y-113919000D03*
D11*
G36*
X116775975Y-112845345D02*
G01*
X116803099Y-112849369D01*
X116829697Y-112856031D01*
X116855514Y-112865269D01*
X116880302Y-112876993D01*
X116903821Y-112891089D01*
X116925845Y-112907424D01*
X116946162Y-112925838D01*
X116964576Y-112946155D01*
X116980911Y-112968179D01*
X116995007Y-112991698D01*
X117006731Y-113016486D01*
X117015969Y-113042303D01*
X117022631Y-113068901D01*
X117026655Y-113096025D01*
X117028000Y-113123412D01*
X117028000Y-114714588D01*
X117026655Y-114741975D01*
X117022631Y-114769099D01*
X117015969Y-114795697D01*
X117006731Y-114821514D01*
X116995007Y-114846302D01*
X116980911Y-114869821D01*
X116964576Y-114891845D01*
X116946162Y-114912162D01*
X116925845Y-114930576D01*
X116903821Y-114946911D01*
X116880302Y-114961007D01*
X116855514Y-114972731D01*
X116829697Y-114981969D01*
X116803099Y-114988631D01*
X116775975Y-114992655D01*
X116748588Y-114994000D01*
X115407412Y-114994000D01*
X115380025Y-114992655D01*
X115352901Y-114988631D01*
X115326303Y-114981969D01*
X115300486Y-114972731D01*
X115275698Y-114961007D01*
X115252179Y-114946911D01*
X115230155Y-114930576D01*
X115209838Y-114912162D01*
X115191424Y-114891845D01*
X115175089Y-114869821D01*
X115160993Y-114846302D01*
X115149269Y-114821514D01*
X115140031Y-114795697D01*
X115133369Y-114769099D01*
X115129345Y-114741975D01*
X115128000Y-114714588D01*
X115128000Y-113123412D01*
X115129345Y-113096025D01*
X115133369Y-113068901D01*
X115140031Y-113042303D01*
X115149269Y-113016486D01*
X115160993Y-112991698D01*
X115175089Y-112968179D01*
X115191424Y-112946155D01*
X115209838Y-112925838D01*
X115230155Y-112907424D01*
X115252179Y-112891089D01*
X115275698Y-112876993D01*
X115300486Y-112865269D01*
X115326303Y-112856031D01*
X115352901Y-112849369D01*
X115380025Y-112845345D01*
X115407412Y-112844000D01*
X116748588Y-112844000D01*
X116775975Y-112845345D01*
G37*
G04 #@! TD*
D14*
G04 #@! TO.C,PWR2*
X82550000Y-96099000D03*
D11*
G36*
X83397975Y-92650345D02*
G01*
X83425099Y-92654369D01*
X83451697Y-92661031D01*
X83477514Y-92670269D01*
X83502302Y-92681993D01*
X83525821Y-92696089D01*
X83547845Y-92712424D01*
X83568162Y-92730838D01*
X83586576Y-92751155D01*
X83602911Y-92773179D01*
X83617007Y-92796698D01*
X83628731Y-92821486D01*
X83637969Y-92847303D01*
X83644631Y-92873901D01*
X83648655Y-92901025D01*
X83650000Y-92928412D01*
X83650000Y-94269588D01*
X83648655Y-94296975D01*
X83644631Y-94324099D01*
X83637969Y-94350697D01*
X83628731Y-94376514D01*
X83617007Y-94401302D01*
X83602911Y-94424821D01*
X83586576Y-94446845D01*
X83568162Y-94467162D01*
X83547845Y-94485576D01*
X83525821Y-94501911D01*
X83502302Y-94516007D01*
X83477514Y-94527731D01*
X83451697Y-94536969D01*
X83425099Y-94543631D01*
X83397975Y-94547655D01*
X83370588Y-94549000D01*
X81729412Y-94549000D01*
X81702025Y-94547655D01*
X81674901Y-94543631D01*
X81648303Y-94536969D01*
X81622486Y-94527731D01*
X81597698Y-94516007D01*
X81574179Y-94501911D01*
X81552155Y-94485576D01*
X81531838Y-94467162D01*
X81513424Y-94446845D01*
X81497089Y-94424821D01*
X81482993Y-94401302D01*
X81471269Y-94376514D01*
X81462031Y-94350697D01*
X81455369Y-94324099D01*
X81451345Y-94296975D01*
X81450000Y-94269588D01*
X81450000Y-92928412D01*
X81451345Y-92901025D01*
X81455369Y-92873901D01*
X81462031Y-92847303D01*
X81471269Y-92821486D01*
X81482993Y-92796698D01*
X81497089Y-92773179D01*
X81513424Y-92751155D01*
X81531838Y-92730838D01*
X81552155Y-92712424D01*
X81574179Y-92696089D01*
X81597698Y-92681993D01*
X81622486Y-92670269D01*
X81648303Y-92661031D01*
X81674901Y-92654369D01*
X81702025Y-92650345D01*
X81729412Y-92649000D01*
X83370588Y-92649000D01*
X83397975Y-92650345D01*
G37*
G04 #@! TD*
D15*
G04 #@! TO.C,H6*
X140040000Y-87330000D03*
G04 #@! TD*
G04 #@! TO.C,H5*
X82040000Y-87310000D03*
G04 #@! TD*
D16*
G04 #@! TO.C,+5V_in1*
X92837000Y-108839000D03*
D17*
X92837000Y-113919000D03*
G04 #@! TD*
D16*
G04 #@! TO.C,GND_in1*
X87757000Y-108839000D03*
D17*
X87757000Y-113919000D03*
G04 #@! TD*
D18*
G04 #@! TO.C,J3*
X86920000Y-65590000D03*
D19*
X86920000Y-63050000D03*
X89460000Y-65590000D03*
X89460000Y-63050000D03*
X92000000Y-65590000D03*
X92000000Y-63050000D03*
X94540000Y-65590000D03*
X94540000Y-63050000D03*
X97080000Y-65590000D03*
X97080000Y-63050000D03*
X99620000Y-65590000D03*
X99620000Y-63050000D03*
X102160000Y-65590000D03*
X102160000Y-63050000D03*
X104700000Y-65590000D03*
X104700000Y-63050000D03*
X107240000Y-65590000D03*
X107240000Y-63050000D03*
X109780000Y-65590000D03*
X109780000Y-63050000D03*
X112320000Y-65590000D03*
X112320000Y-63050000D03*
X114860000Y-65590000D03*
X114860000Y-63050000D03*
X117400000Y-65590000D03*
X117400000Y-63050000D03*
X119940000Y-65590000D03*
X119940000Y-63050000D03*
X122480000Y-65590000D03*
X122480000Y-63050000D03*
X125020000Y-65590000D03*
X125020000Y-63050000D03*
X127560000Y-65590000D03*
X127560000Y-63050000D03*
X130100000Y-65590000D03*
X130100000Y-63050000D03*
X132640000Y-65590000D03*
X132640000Y-63050000D03*
X135180000Y-65590000D03*
X135180000Y-63050000D03*
G04 #@! TD*
D15*
G04 #@! TO.C,H1*
X82040000Y-64310000D03*
G04 #@! TD*
G04 #@! TO.C,H2*
X140040000Y-64330000D03*
G04 #@! TD*
G04 #@! TO.C,H3*
X82040000Y-113320000D03*
G04 #@! TD*
G04 #@! TO.C,H4*
X140030000Y-113310000D03*
G04 #@! TD*
M02*
