G04 #@! TF.FileFunction,Copper,L2,Bot,Signal*
%FSLAX46Y46*%
G04 Gerber Fmt 4.6, Leading zero omitted, Abs format (unit mm)*
G04 Created by KiCad (PCBNEW 4.0.6) date Tue Jun  5 10:56:57 2018*
%MOMM*%
%LPD*%
G01*
G04 APERTURE LIST*
%ADD10C,0.100000*%
%ADD11R,1.700000X1.700000*%
%ADD12O,1.700000X1.700000*%
%ADD13R,1.600000X1.600000*%
%ADD14O,1.600000X1.600000*%
%ADD15C,1.600000*%
%ADD16C,1.524000*%
%ADD17R,1.397000X1.397000*%
%ADD18C,1.397000*%
%ADD19R,1.750000X1.750000*%
%ADD20C,1.750000*%
%ADD21C,1.778000*%
%ADD22R,1.778000X1.778000*%
%ADD23C,0.600000*%
%ADD24C,0.250000*%
%ADD25C,0.254000*%
G04 APERTURE END LIST*
D10*
D11*
X118173500Y-103632000D03*
D12*
X118173500Y-106172000D03*
X115633500Y-103632000D03*
X115633500Y-106172000D03*
X113093500Y-103632000D03*
X113093500Y-106172000D03*
X110553500Y-103632000D03*
X110553500Y-106172000D03*
X108013500Y-103632000D03*
X108013500Y-106172000D03*
X105473500Y-103632000D03*
X105473500Y-106172000D03*
X102933500Y-103632000D03*
X102933500Y-106172000D03*
X100393500Y-103632000D03*
X100393500Y-106172000D03*
X97853500Y-103632000D03*
X97853500Y-106172000D03*
X95313500Y-103632000D03*
X95313500Y-106172000D03*
X92773500Y-103632000D03*
X92773500Y-106172000D03*
X90233500Y-103632000D03*
X90233500Y-106172000D03*
X87693500Y-103632000D03*
X87693500Y-106172000D03*
X85153500Y-103632000D03*
X85153500Y-106172000D03*
X82613500Y-103632000D03*
X82613500Y-106172000D03*
X80073500Y-103632000D03*
X80073500Y-106172000D03*
X77533500Y-103632000D03*
X77533500Y-106172000D03*
X74993500Y-103632000D03*
X74993500Y-106172000D03*
X72453500Y-103632000D03*
X72453500Y-106172000D03*
X69913500Y-103632000D03*
X69913500Y-106172000D03*
D13*
X69850000Y-121285000D03*
D14*
X102870000Y-113665000D03*
X72390000Y-121285000D03*
X100330000Y-113665000D03*
X74930000Y-121285000D03*
X97790000Y-113665000D03*
X77470000Y-121285000D03*
X95250000Y-113665000D03*
X80010000Y-121285000D03*
X92710000Y-113665000D03*
X82550000Y-121285000D03*
X90170000Y-113665000D03*
X85090000Y-121285000D03*
X87630000Y-113665000D03*
X87630000Y-121285000D03*
X85090000Y-113665000D03*
X90170000Y-121285000D03*
X82550000Y-113665000D03*
X92710000Y-121285000D03*
X80010000Y-113665000D03*
X95250000Y-121285000D03*
X77470000Y-113665000D03*
X97790000Y-121285000D03*
X74930000Y-113665000D03*
X100330000Y-121285000D03*
X72390000Y-113665000D03*
X102870000Y-121285000D03*
X69850000Y-113665000D03*
D13*
X126365000Y-112395000D03*
D14*
X133985000Y-117475000D03*
X126365000Y-114935000D03*
X133985000Y-114935000D03*
X126365000Y-117475000D03*
X133985000Y-112395000D03*
D13*
X141605000Y-112395000D03*
D14*
X149225000Y-117475000D03*
X141605000Y-114935000D03*
X149225000Y-114935000D03*
X141605000Y-117475000D03*
X149225000Y-112395000D03*
D13*
X156845000Y-112395000D03*
D14*
X164465000Y-117475000D03*
X156845000Y-114935000D03*
X164465000Y-114935000D03*
X156845000Y-117475000D03*
X164465000Y-112395000D03*
D15*
X137160000Y-111760000D03*
X137160000Y-114260000D03*
X152400000Y-111760000D03*
X152400000Y-114260000D03*
X167640000Y-111760000D03*
X167640000Y-114260000D03*
D16*
X134620000Y-124460000D03*
X124460000Y-124460000D03*
X124460000Y-121920000D03*
X134620000Y-121920000D03*
X116649500Y-109855000D03*
X116649500Y-120015000D03*
X137160000Y-127000000D03*
X137160000Y-116840000D03*
X139700000Y-121920000D03*
X149860000Y-121920000D03*
X139700000Y-124460000D03*
X149860000Y-124460000D03*
X154940000Y-121920000D03*
X165100000Y-121920000D03*
X154940000Y-124460000D03*
X165100000Y-124460000D03*
X152400000Y-116840000D03*
X152400000Y-127000000D03*
X122428000Y-120015000D03*
X122428000Y-109855000D03*
D17*
X132080000Y-127000000D03*
D18*
X124460000Y-127000000D03*
D17*
X147320000Y-127000000D03*
D18*
X139700000Y-127000000D03*
D17*
X162560000Y-127000000D03*
D18*
X154940000Y-127000000D03*
D15*
X95885000Y-109855000D03*
X98385000Y-109855000D03*
D19*
X69151500Y-127190500D03*
D20*
X71651500Y-127190500D03*
X74151500Y-127190500D03*
X76651500Y-127190500D03*
D19*
X83121500Y-127190500D03*
D20*
X85621500Y-127190500D03*
X88121500Y-127190500D03*
X90621500Y-127190500D03*
D19*
X98298000Y-127190500D03*
D20*
X100798000Y-127190500D03*
X103298000Y-127190500D03*
X105798000Y-127190500D03*
D19*
X112268000Y-127190500D03*
D20*
X114768000Y-127190500D03*
X117268000Y-127190500D03*
X119768000Y-127190500D03*
D19*
X135890000Y-105410000D03*
D20*
X133390000Y-105410000D03*
X130890000Y-105410000D03*
X128390000Y-105410000D03*
D19*
X150495000Y-105410000D03*
D20*
X147995000Y-105410000D03*
X145495000Y-105410000D03*
X142995000Y-105410000D03*
D19*
X165100000Y-105410000D03*
D20*
X162600000Y-105410000D03*
X160100000Y-105410000D03*
X157600000Y-105410000D03*
D21*
X119570500Y-109791500D03*
D22*
X119570500Y-119951500D03*
D19*
X109791500Y-111125000D03*
D20*
X109791500Y-113625000D03*
X109791500Y-116125000D03*
X109791500Y-118625000D03*
X109791500Y-121125000D03*
D23*
X69596000Y-108458000D03*
X78105000Y-110617000D03*
X80645000Y-110617000D03*
X90551000Y-111506000D03*
X88011000Y-111506000D03*
X83820000Y-109855000D03*
X79375000Y-109347000D03*
X76073000Y-111506000D03*
X74676000Y-111506000D03*
X80645000Y-115570000D03*
X74549000Y-117221000D03*
X72136000Y-119126000D03*
X68199000Y-128905000D03*
X84074000Y-129159000D03*
X94996000Y-117729000D03*
X77978000Y-126238000D03*
X80645000Y-123571000D03*
X99568000Y-123571000D03*
X94361000Y-124968000D03*
X97917000Y-129159000D03*
X82169000Y-119126000D03*
X101854000Y-117729000D03*
X105156000Y-121031000D03*
X113538000Y-123571000D03*
X101854000Y-123444000D03*
X122682000Y-121539000D03*
X118389400Y-101650800D03*
X115468400Y-101650800D03*
X105156000Y-122555000D03*
X107823000Y-122174000D03*
X119126000Y-112903000D03*
X120269000Y-108331000D03*
X136906000Y-120396000D03*
X146431000Y-113284000D03*
X144526000Y-114046000D03*
X159766000Y-114046000D03*
X161544000Y-113284000D03*
X126746000Y-122174000D03*
X119126000Y-114173000D03*
X113919000Y-108966000D03*
X105156000Y-108966000D03*
D24*
X118173500Y-103632000D02*
X118237000Y-103632000D01*
X118237000Y-103632000D02*
X116967000Y-102362000D01*
X116967000Y-102362000D02*
X99060000Y-102362000D01*
X99060000Y-102362000D02*
X99060000Y-102489000D01*
X99060000Y-102489000D02*
X97917000Y-103632000D01*
X97917000Y-103632000D02*
X97853500Y-103632000D01*
X116649500Y-109855000D02*
X116713000Y-109855000D01*
X116713000Y-109855000D02*
X117983000Y-111125000D01*
X117983000Y-111125000D02*
X127635000Y-111125000D01*
X127635000Y-111125000D02*
X128905000Y-112395000D01*
X128905000Y-112395000D02*
X133985000Y-112395000D01*
X95885000Y-109855000D02*
X97155000Y-108585000D01*
X97155000Y-108585000D02*
X98679000Y-108585000D01*
X98679000Y-108585000D02*
X98806000Y-108712000D01*
X98806000Y-108712000D02*
X99060000Y-108712000D01*
X99060000Y-108712000D02*
X100203000Y-109855000D01*
X100203000Y-109855000D02*
X116649500Y-109855000D01*
X137160000Y-111760000D02*
X137795000Y-111125000D01*
X137795000Y-111125000D02*
X142875000Y-111125000D01*
X142875000Y-111125000D02*
X144145000Y-112395000D01*
X144145000Y-112395000D02*
X149225000Y-112395000D01*
X152400000Y-111760000D02*
X153035000Y-111125000D01*
X153035000Y-111125000D02*
X158115000Y-111125000D01*
X158115000Y-111125000D02*
X159385000Y-112395000D01*
X159385000Y-112395000D02*
X164465000Y-112395000D01*
X164465000Y-112395000D02*
X165100000Y-111760000D01*
X165100000Y-111760000D02*
X167640000Y-111760000D01*
X149225000Y-112395000D02*
X149860000Y-111760000D01*
X149860000Y-111760000D02*
X152400000Y-111760000D01*
X133985000Y-112395000D02*
X134620000Y-111760000D01*
X134620000Y-111760000D02*
X137160000Y-111760000D01*
X115633500Y-106172000D02*
X118173500Y-106172000D01*
X133985000Y-114935000D02*
X132715000Y-113665000D01*
X132715000Y-113665000D02*
X125095000Y-113665000D01*
X125095000Y-113665000D02*
X123190000Y-111760000D01*
X123190000Y-111760000D02*
X117729000Y-111760000D01*
X117729000Y-111760000D02*
X117602000Y-111633000D01*
X117602000Y-111633000D02*
X117475000Y-111633000D01*
X117475000Y-111633000D02*
X116967000Y-111125000D01*
X116967000Y-111125000D02*
X109791500Y-111125000D01*
X95313500Y-106172000D02*
X95377000Y-106172000D01*
X95377000Y-106172000D02*
X94107000Y-104902000D01*
X94107000Y-104902000D02*
X88900000Y-104902000D01*
X88900000Y-104902000D02*
X88900000Y-104775000D01*
X88900000Y-104775000D02*
X87757000Y-103632000D01*
X87757000Y-103632000D02*
X87693500Y-103632000D01*
X77533500Y-106172000D02*
X77597000Y-106172000D01*
X77597000Y-106172000D02*
X76327000Y-104902000D01*
X76327000Y-104902000D02*
X71120000Y-104902000D01*
X71120000Y-104902000D02*
X71120000Y-104775000D01*
X71120000Y-104775000D02*
X69977000Y-103632000D01*
X69977000Y-103632000D02*
X69913500Y-103632000D01*
X108013500Y-103632000D02*
X108077000Y-103632000D01*
X108077000Y-103632000D02*
X106807000Y-104902000D01*
X106807000Y-104902000D02*
X104140000Y-104902000D01*
X104140000Y-104902000D02*
X104140000Y-105029000D01*
X104140000Y-105029000D02*
X102997000Y-106172000D01*
X102997000Y-106172000D02*
X102933500Y-106172000D01*
X87693500Y-103632000D02*
X87757000Y-103632000D01*
X87757000Y-103632000D02*
X86487000Y-104902000D01*
X86487000Y-104902000D02*
X83820000Y-104902000D01*
X83820000Y-104902000D02*
X83820000Y-105029000D01*
X83820000Y-105029000D02*
X82677000Y-106172000D01*
X82677000Y-106172000D02*
X82613500Y-106172000D01*
X113093500Y-106172000D02*
X113157000Y-106172000D01*
X113157000Y-106172000D02*
X111887000Y-104902000D01*
X111887000Y-104902000D02*
X109220000Y-104902000D01*
X109220000Y-104902000D02*
X109220000Y-104775000D01*
X109220000Y-104775000D02*
X108077000Y-103632000D01*
X108077000Y-103632000D02*
X108013500Y-103632000D01*
X98298000Y-127190500D02*
X98298000Y-127254000D01*
X98298000Y-127254000D02*
X97028000Y-128524000D01*
X97028000Y-128524000D02*
X85217000Y-128524000D01*
X85217000Y-128524000D02*
X85090000Y-128397000D01*
X85090000Y-128397000D02*
X84963000Y-128397000D01*
X84963000Y-128397000D02*
X84836000Y-128270000D01*
X84836000Y-128270000D02*
X84709000Y-128270000D01*
X84709000Y-128270000D02*
X83693000Y-127254000D01*
X83693000Y-127254000D02*
X83185000Y-127254000D01*
X83185000Y-127254000D02*
X83121500Y-127190500D01*
X83121500Y-127190500D02*
X83058000Y-127381000D01*
X83058000Y-127381000D02*
X81915000Y-128524000D01*
X81915000Y-128524000D02*
X71247000Y-128524000D01*
X71247000Y-128524000D02*
X71120000Y-128397000D01*
X71120000Y-128397000D02*
X70993000Y-128397000D01*
X70993000Y-128397000D02*
X70866000Y-128270000D01*
X70866000Y-128270000D02*
X70739000Y-128270000D01*
X70739000Y-128270000D02*
X69723000Y-127254000D01*
X69723000Y-127254000D02*
X69215000Y-127254000D01*
X69215000Y-127254000D02*
X69151500Y-127190500D01*
X98298000Y-127190500D02*
X98298000Y-127254000D01*
X98298000Y-127254000D02*
X99568000Y-128524000D01*
X99568000Y-128524000D02*
X106172000Y-128524000D01*
X106172000Y-128524000D02*
X106299000Y-128397000D01*
X106299000Y-128397000D02*
X106553000Y-128397000D01*
X106553000Y-128397000D02*
X107696000Y-127254000D01*
X107696000Y-127254000D02*
X112268000Y-127254000D01*
X112268000Y-127254000D02*
X112268000Y-127190500D01*
X157600000Y-105410000D02*
X157607000Y-105410000D01*
X157607000Y-105410000D02*
X156337000Y-104140000D01*
X156337000Y-104140000D02*
X149225000Y-104140000D01*
X149225000Y-104140000D02*
X147955000Y-105410000D01*
X147955000Y-105410000D02*
X147995000Y-105410000D01*
X156845000Y-114935000D02*
X164465000Y-114935000D01*
X141605000Y-114935000D02*
X149225000Y-114935000D01*
X152400000Y-114260000D02*
X152400000Y-114300000D01*
X152400000Y-114300000D02*
X153035000Y-114935000D01*
X153035000Y-114935000D02*
X156845000Y-114935000D01*
X137160000Y-114260000D02*
X137160000Y-114300000D01*
X137160000Y-114300000D02*
X137795000Y-114935000D01*
X137795000Y-114935000D02*
X141605000Y-114935000D01*
X164465000Y-114935000D02*
X165100000Y-114300000D01*
X165100000Y-114300000D02*
X167640000Y-114300000D01*
X167640000Y-114300000D02*
X167640000Y-114260000D01*
X149225000Y-114935000D02*
X149860000Y-114300000D01*
X149860000Y-114300000D02*
X152400000Y-114300000D01*
X152400000Y-114300000D02*
X152400000Y-114260000D01*
X137160000Y-114260000D02*
X137160000Y-114300000D01*
X137160000Y-114300000D02*
X136525000Y-114935000D01*
X136525000Y-114935000D02*
X133985000Y-114935000D01*
X82613500Y-106172000D02*
X82677000Y-106172000D01*
X82677000Y-106172000D02*
X81407000Y-107442000D01*
X81407000Y-107442000D02*
X78740000Y-107442000D01*
X78740000Y-107442000D02*
X78740000Y-107315000D01*
X78740000Y-107315000D02*
X77597000Y-106172000D01*
X77597000Y-106172000D02*
X77533500Y-106172000D01*
X147995000Y-105410000D02*
X147955000Y-105410000D01*
X147955000Y-105410000D02*
X146685000Y-106680000D01*
X146685000Y-106680000D02*
X144907000Y-106680000D01*
X144907000Y-106680000D02*
X144780000Y-106553000D01*
X144780000Y-106553000D02*
X144653000Y-106553000D01*
X144653000Y-106553000D02*
X143510000Y-105410000D01*
X143510000Y-105410000D02*
X142995000Y-105410000D01*
X157600000Y-105410000D02*
X157607000Y-105410000D01*
X157607000Y-105410000D02*
X158877000Y-106680000D01*
X158877000Y-106680000D02*
X160655000Y-106680000D01*
X160655000Y-106680000D02*
X160782000Y-106553000D01*
X160782000Y-106553000D02*
X160909000Y-106553000D01*
X160909000Y-106553000D02*
X162052000Y-105410000D01*
X162052000Y-105410000D02*
X162600000Y-105410000D01*
X102870000Y-113665000D02*
X100330000Y-113665000D01*
X100330000Y-113665000D02*
X97790000Y-113665000D01*
X69596000Y-108458000D02*
X71755000Y-110617000D01*
X71755000Y-110617000D02*
X78105000Y-110617000D01*
X80645000Y-110617000D02*
X80772000Y-110744000D01*
X80772000Y-110744000D02*
X88265000Y-110744000D01*
X88265000Y-110744000D02*
X88392000Y-110871000D01*
X88392000Y-110871000D02*
X88519000Y-110871000D01*
X88519000Y-110871000D02*
X89154000Y-111506000D01*
X89154000Y-111506000D02*
X90551000Y-111506000D01*
X74993500Y-106172000D02*
X75057000Y-106172000D01*
X75057000Y-106172000D02*
X75057000Y-106299000D01*
X75057000Y-106299000D02*
X80264000Y-111506000D01*
X80264000Y-111506000D02*
X88011000Y-111506000D01*
X83820000Y-109855000D02*
X83312000Y-109347000D01*
X83312000Y-109347000D02*
X79375000Y-109347000D01*
X76073000Y-111506000D02*
X74676000Y-111506000D01*
X82550000Y-113665000D02*
X80645000Y-115570000D01*
X74549000Y-117221000D02*
X72644000Y-119126000D01*
X72644000Y-119126000D02*
X72136000Y-119126000D01*
X68199000Y-128905000D02*
X68453000Y-129159000D01*
X68453000Y-129159000D02*
X84074000Y-129159000D01*
X94996000Y-117729000D02*
X94742000Y-117983000D01*
X94742000Y-117983000D02*
X87503000Y-117983000D01*
X87503000Y-117983000D02*
X87376000Y-118110000D01*
X87376000Y-118110000D02*
X87249000Y-118110000D01*
X87249000Y-118110000D02*
X85344000Y-120015000D01*
X85344000Y-120015000D02*
X71120000Y-120015000D01*
X71120000Y-120015000D02*
X69850000Y-121285000D01*
X72390000Y-121285000D02*
X76962000Y-125857000D01*
X76962000Y-125857000D02*
X77089000Y-125857000D01*
X77089000Y-125857000D02*
X77216000Y-125984000D01*
X77216000Y-125984000D02*
X77343000Y-125984000D01*
X77343000Y-125984000D02*
X77597000Y-126238000D01*
X77597000Y-126238000D02*
X77978000Y-126238000D01*
X80645000Y-123571000D02*
X99568000Y-123571000D01*
X74930000Y-121285000D02*
X79502000Y-125857000D01*
X79502000Y-125857000D02*
X103632000Y-125857000D01*
X103632000Y-125857000D02*
X103759000Y-125984000D01*
X103759000Y-125984000D02*
X104013000Y-125984000D01*
X104013000Y-125984000D02*
X105283000Y-127254000D01*
X105283000Y-127254000D02*
X105791000Y-127254000D01*
X105791000Y-127254000D02*
X105798000Y-127190500D01*
X77470000Y-121285000D02*
X77470000Y-121539000D01*
X77470000Y-121539000D02*
X80899000Y-124968000D01*
X80899000Y-124968000D02*
X94361000Y-124968000D01*
X97917000Y-129159000D02*
X106426000Y-129159000D01*
X106426000Y-129159000D02*
X106553000Y-129032000D01*
X106553000Y-129032000D02*
X106807000Y-129032000D01*
X106807000Y-129032000D02*
X106934000Y-128905000D01*
X106934000Y-128905000D02*
X107061000Y-128905000D01*
X107061000Y-128905000D02*
X107442000Y-128524000D01*
X107442000Y-128524000D02*
X113538000Y-128524000D01*
X113538000Y-128524000D02*
X114808000Y-127254000D01*
X114808000Y-127254000D02*
X114768000Y-127190500D01*
X82169000Y-119126000D02*
X84328000Y-116967000D01*
X84328000Y-116967000D02*
X95250000Y-116967000D01*
X95250000Y-116967000D02*
X95377000Y-117094000D01*
X95377000Y-117094000D02*
X95504000Y-117094000D01*
X95504000Y-117094000D02*
X96139000Y-117729000D01*
X96139000Y-117729000D02*
X101854000Y-117729000D01*
X105156000Y-121031000D02*
X107696000Y-123571000D01*
X107696000Y-123571000D02*
X113538000Y-123571000D01*
X82550000Y-121285000D02*
X84074000Y-122809000D01*
X84074000Y-122809000D02*
X99822000Y-122809000D01*
X99822000Y-122809000D02*
X99949000Y-122936000D01*
X99949000Y-122936000D02*
X100076000Y-122936000D01*
X100076000Y-122936000D02*
X102362000Y-125222000D01*
X102362000Y-125222000D02*
X103886000Y-125222000D01*
X103886000Y-125222000D02*
X104013000Y-125349000D01*
X104013000Y-125349000D02*
X104267000Y-125349000D01*
X104267000Y-125349000D02*
X104394000Y-125476000D01*
X104394000Y-125476000D02*
X104521000Y-125476000D01*
X104521000Y-125476000D02*
X104902000Y-125857000D01*
X104902000Y-125857000D02*
X117602000Y-125857000D01*
X117602000Y-125857000D02*
X117729000Y-125984000D01*
X117729000Y-125984000D02*
X117983000Y-125984000D01*
X117983000Y-125984000D02*
X119253000Y-127254000D01*
X119253000Y-127254000D02*
X119761000Y-127254000D01*
X119761000Y-127254000D02*
X119768000Y-127190500D01*
X85090000Y-121285000D02*
X87757000Y-118618000D01*
X87757000Y-118618000D02*
X109855000Y-118618000D01*
X109855000Y-118618000D02*
X109791500Y-118625000D01*
X109791500Y-121125000D02*
X109855000Y-121158000D01*
X109855000Y-121158000D02*
X108712000Y-120015000D01*
X108712000Y-120015000D02*
X88900000Y-120015000D01*
X88900000Y-120015000D02*
X87630000Y-121285000D01*
X101854000Y-123444000D02*
X102743000Y-124333000D01*
X102743000Y-124333000D02*
X113792000Y-124333000D01*
X113792000Y-124333000D02*
X113919000Y-124206000D01*
X113919000Y-124206000D02*
X114046000Y-124206000D01*
X114046000Y-124206000D02*
X116713000Y-121539000D01*
X116713000Y-121539000D02*
X122682000Y-121539000D01*
X118389400Y-101650800D02*
X115468400Y-101650800D01*
X100330000Y-121285000D02*
X101600000Y-122555000D01*
X101600000Y-122555000D02*
X105156000Y-122555000D01*
X107823000Y-122174000D02*
X108077000Y-122428000D01*
X108077000Y-122428000D02*
X110236000Y-122428000D01*
X110236000Y-122428000D02*
X110363000Y-122301000D01*
X110363000Y-122301000D02*
X110490000Y-122301000D01*
X110490000Y-122301000D02*
X110617000Y-122174000D01*
X110617000Y-122174000D02*
X110744000Y-122174000D01*
X110744000Y-122174000D02*
X110871000Y-122047000D01*
X110871000Y-122047000D02*
X110871000Y-121920000D01*
X110871000Y-121920000D02*
X110998000Y-121793000D01*
X110998000Y-121793000D02*
X110998000Y-121666000D01*
X110998000Y-121666000D02*
X111125000Y-121539000D01*
X111125000Y-121539000D02*
X111125000Y-120904000D01*
X111125000Y-120904000D02*
X119126000Y-112903000D01*
X120269000Y-108331000D02*
X120269000Y-105791000D01*
X120269000Y-105791000D02*
X119507000Y-105029000D01*
X119507000Y-105029000D02*
X119507000Y-104902000D01*
X119507000Y-104902000D02*
X116840000Y-104902000D01*
X116840000Y-104902000D02*
X116840000Y-104775000D01*
X116840000Y-104775000D02*
X115697000Y-103632000D01*
X115697000Y-103632000D02*
X115633500Y-103632000D01*
X72390000Y-113665000D02*
X73660000Y-112395000D01*
X73660000Y-112395000D02*
X104140000Y-112395000D01*
X104140000Y-112395000D02*
X105410000Y-113665000D01*
X105410000Y-113665000D02*
X109855000Y-113665000D01*
X109855000Y-113665000D02*
X109791500Y-113625000D01*
X69850000Y-113665000D02*
X72517000Y-116332000D01*
X72517000Y-116332000D02*
X80899000Y-116332000D01*
X80899000Y-116332000D02*
X81026000Y-116205000D01*
X81026000Y-116205000D02*
X81153000Y-116205000D01*
X81153000Y-116205000D02*
X81280000Y-116078000D01*
X81280000Y-116078000D02*
X109855000Y-116078000D01*
X109855000Y-116078000D02*
X109791500Y-116125000D01*
X128390000Y-105410000D02*
X128397000Y-105410000D01*
X128397000Y-105410000D02*
X129667000Y-106680000D01*
X129667000Y-106680000D02*
X131445000Y-106680000D01*
X131445000Y-106680000D02*
X131572000Y-106553000D01*
X131572000Y-106553000D02*
X131699000Y-106553000D01*
X131699000Y-106553000D02*
X132842000Y-105410000D01*
X132842000Y-105410000D02*
X133390000Y-105410000D01*
X119570500Y-119951500D02*
X119761000Y-119888000D01*
X119761000Y-119888000D02*
X120904000Y-118745000D01*
X120904000Y-118745000D02*
X127635000Y-118745000D01*
X127635000Y-118745000D02*
X128905000Y-117475000D01*
X128905000Y-117475000D02*
X133985000Y-117475000D01*
X133985000Y-117475000D02*
X136906000Y-120396000D01*
X119570500Y-119951500D02*
X119634000Y-120015000D01*
X119634000Y-120015000D02*
X116649500Y-120015000D01*
X119570500Y-109791500D02*
X117221000Y-107442000D01*
X117221000Y-107442000D02*
X109220000Y-107442000D01*
X109220000Y-107442000D02*
X109220000Y-107315000D01*
X109220000Y-107315000D02*
X108077000Y-106172000D01*
X108077000Y-106172000D02*
X108013500Y-106172000D01*
X119570500Y-109791500D02*
X119634000Y-109855000D01*
X119634000Y-109855000D02*
X122428000Y-109855000D01*
X147320000Y-127000000D02*
X144780000Y-124460000D01*
X144780000Y-124460000D02*
X139700000Y-124460000D01*
X146431000Y-113284000D02*
X145669000Y-114046000D01*
X145669000Y-114046000D02*
X144526000Y-114046000D01*
X154940000Y-124460000D02*
X157480000Y-127000000D01*
X157480000Y-127000000D02*
X162560000Y-127000000D01*
X159766000Y-114046000D02*
X160528000Y-113284000D01*
X160528000Y-113284000D02*
X161544000Y-113284000D01*
X126746000Y-122174000D02*
X124460000Y-124460000D01*
X152400000Y-116840000D02*
X151765000Y-116205000D01*
X151765000Y-116205000D02*
X140335000Y-116205000D01*
X140335000Y-116205000D02*
X139827000Y-115697000D01*
X139827000Y-115697000D02*
X136525000Y-115697000D01*
X136525000Y-115697000D02*
X136017000Y-116205000D01*
X136017000Y-116205000D02*
X125095000Y-116205000D01*
X125095000Y-116205000D02*
X123063000Y-114173000D01*
X123063000Y-114173000D02*
X119126000Y-114173000D01*
X113919000Y-108966000D02*
X105156000Y-108966000D01*
D25*
G36*
X98769161Y-101659852D02*
X98522599Y-101824599D01*
X98357852Y-102071161D01*
X98346632Y-102127566D01*
X98272873Y-102201325D01*
X97853500Y-102117907D01*
X97285215Y-102230946D01*
X96803446Y-102552853D01*
X96583500Y-102882026D01*
X96363554Y-102552853D01*
X95881785Y-102230946D01*
X95313500Y-102117907D01*
X94745215Y-102230946D01*
X94263446Y-102552853D01*
X94043500Y-102882026D01*
X93823554Y-102552853D01*
X93341785Y-102230946D01*
X92773500Y-102117907D01*
X92205215Y-102230946D01*
X91723446Y-102552853D01*
X91503500Y-102882026D01*
X91283554Y-102552853D01*
X90801785Y-102230946D01*
X90233500Y-102117907D01*
X89665215Y-102230946D01*
X89183446Y-102552853D01*
X88955798Y-102893553D01*
X88888683Y-102750642D01*
X88460424Y-102360355D01*
X88050390Y-102190524D01*
X87820500Y-102311845D01*
X87820500Y-103505000D01*
X87840500Y-103505000D01*
X87840500Y-103759000D01*
X87820500Y-103759000D01*
X87820500Y-103779000D01*
X87566500Y-103779000D01*
X87566500Y-103759000D01*
X87546500Y-103759000D01*
X87546500Y-103505000D01*
X87566500Y-103505000D01*
X87566500Y-102311845D01*
X87336610Y-102190524D01*
X86926576Y-102360355D01*
X86498317Y-102750642D01*
X86431202Y-102893553D01*
X86203554Y-102552853D01*
X85721785Y-102230946D01*
X85153500Y-102117907D01*
X84585215Y-102230946D01*
X84103446Y-102552853D01*
X83883500Y-102882026D01*
X83663554Y-102552853D01*
X83181785Y-102230946D01*
X82613500Y-102117907D01*
X82045215Y-102230946D01*
X81563446Y-102552853D01*
X81343500Y-102882026D01*
X81123554Y-102552853D01*
X80641785Y-102230946D01*
X80073500Y-102117907D01*
X79505215Y-102230946D01*
X79023446Y-102552853D01*
X78803500Y-102882026D01*
X78583554Y-102552853D01*
X78101785Y-102230946D01*
X77533500Y-102117907D01*
X76965215Y-102230946D01*
X76483446Y-102552853D01*
X76263500Y-102882026D01*
X76043554Y-102552853D01*
X75561785Y-102230946D01*
X74993500Y-102117907D01*
X74425215Y-102230946D01*
X73943446Y-102552853D01*
X73723500Y-102882026D01*
X73503554Y-102552853D01*
X73021785Y-102230946D01*
X72453500Y-102117907D01*
X71885215Y-102230946D01*
X71403446Y-102552853D01*
X71175798Y-102893553D01*
X71108683Y-102750642D01*
X70680424Y-102360355D01*
X70270390Y-102190524D01*
X70040500Y-102311845D01*
X70040500Y-103505000D01*
X70060500Y-103505000D01*
X70060500Y-103759000D01*
X70040500Y-103759000D01*
X70040500Y-103779000D01*
X69786500Y-103779000D01*
X69786500Y-103759000D01*
X68592681Y-103759000D01*
X68472014Y-103988892D01*
X68718317Y-104513358D01*
X69146576Y-104903645D01*
X69146601Y-104903655D01*
X68863446Y-105092853D01*
X68541539Y-105574622D01*
X68428500Y-106142907D01*
X68428500Y-106201093D01*
X68541539Y-106769378D01*
X68863446Y-107251147D01*
X69323850Y-107558778D01*
X69067057Y-107664883D01*
X68803808Y-107927673D01*
X68661162Y-108271201D01*
X68660838Y-108643167D01*
X68802883Y-108986943D01*
X69065673Y-109250192D01*
X69409201Y-109392838D01*
X69456077Y-109392879D01*
X71217599Y-111154401D01*
X71464161Y-111319148D01*
X71755000Y-111377000D01*
X73741112Y-111377000D01*
X73740887Y-111635000D01*
X73660000Y-111635000D01*
X73369160Y-111692852D01*
X73122599Y-111857599D01*
X72713886Y-112266312D01*
X72390000Y-112201887D01*
X71840849Y-112311120D01*
X71375302Y-112622189D01*
X71120000Y-113004275D01*
X70864698Y-112622189D01*
X70399151Y-112311120D01*
X69850000Y-112201887D01*
X69300849Y-112311120D01*
X68835302Y-112622189D01*
X68524233Y-113087736D01*
X68415000Y-113636887D01*
X68415000Y-113693113D01*
X68524233Y-114242264D01*
X68835302Y-114707811D01*
X69300849Y-115018880D01*
X69850000Y-115128113D01*
X70173886Y-115063688D01*
X71979599Y-116869401D01*
X72226161Y-117034148D01*
X72517000Y-117092000D01*
X73603198Y-117092000D01*
X72450860Y-118244338D01*
X72322799Y-118191162D01*
X71950833Y-118190838D01*
X71607057Y-118332883D01*
X71343808Y-118595673D01*
X71201162Y-118939201D01*
X71200887Y-119255000D01*
X71120000Y-119255000D01*
X70829160Y-119312852D01*
X70582599Y-119477599D01*
X70222638Y-119837560D01*
X69050000Y-119837560D01*
X68814683Y-119881838D01*
X68598559Y-120020910D01*
X68453569Y-120233110D01*
X68402560Y-120485000D01*
X68402560Y-122085000D01*
X68446838Y-122320317D01*
X68585910Y-122536441D01*
X68798110Y-122681431D01*
X69050000Y-122732440D01*
X70650000Y-122732440D01*
X70885317Y-122688162D01*
X71101441Y-122549090D01*
X71246431Y-122336890D01*
X71277815Y-122181911D01*
X71375302Y-122327811D01*
X71840849Y-122638880D01*
X72390000Y-122748113D01*
X72713886Y-122683688D01*
X75898153Y-125867955D01*
X75797271Y-125909638D01*
X75401182Y-126305036D01*
X75007963Y-125911130D01*
X74453175Y-125680762D01*
X73852460Y-125680238D01*
X73297271Y-125909638D01*
X72901182Y-126305036D01*
X72507963Y-125911130D01*
X71953175Y-125680762D01*
X71352460Y-125680238D01*
X70797271Y-125909638D01*
X70619297Y-126087302D01*
X70564827Y-125955801D01*
X70386198Y-125777173D01*
X70152809Y-125680500D01*
X69437250Y-125680500D01*
X69278500Y-125839250D01*
X69278500Y-127063500D01*
X69298500Y-127063500D01*
X69298500Y-127317500D01*
X69278500Y-127317500D01*
X69278500Y-127337500D01*
X69024500Y-127337500D01*
X69024500Y-127317500D01*
X67800250Y-127317500D01*
X67641500Y-127476250D01*
X67641500Y-128140390D01*
X67406808Y-128374673D01*
X67264162Y-128718201D01*
X67263838Y-129090167D01*
X67405883Y-129433943D01*
X67668673Y-129697192D01*
X68012201Y-129839838D01*
X68130421Y-129839941D01*
X68162160Y-129861148D01*
X68453000Y-129919000D01*
X83511537Y-129919000D01*
X83543673Y-129951192D01*
X83887201Y-130093838D01*
X84259167Y-130094162D01*
X84602943Y-129952117D01*
X84866192Y-129689327D01*
X85008838Y-129345799D01*
X85009162Y-128973833D01*
X84867117Y-128630057D01*
X84604327Y-128366808D01*
X84565663Y-128350753D01*
X84589260Y-128293786D01*
X84765037Y-128469870D01*
X85319825Y-128700238D01*
X85920540Y-128700762D01*
X86475729Y-128471362D01*
X86871818Y-128075964D01*
X87265037Y-128469870D01*
X87819825Y-128700238D01*
X88420540Y-128700762D01*
X88975729Y-128471362D01*
X89371818Y-128075964D01*
X89765037Y-128469870D01*
X90319825Y-128700238D01*
X90920540Y-128700762D01*
X91475729Y-128471362D01*
X91900870Y-128046963D01*
X92131238Y-127492175D01*
X92131762Y-126891460D01*
X92018357Y-126617000D01*
X96788000Y-126617000D01*
X96788000Y-126904750D01*
X96946750Y-127063500D01*
X98171000Y-127063500D01*
X98171000Y-127043500D01*
X98425000Y-127043500D01*
X98425000Y-127063500D01*
X98445000Y-127063500D01*
X98445000Y-127317500D01*
X98425000Y-127317500D01*
X98425000Y-127337500D01*
X98171000Y-127337500D01*
X98171000Y-127317500D01*
X96946750Y-127317500D01*
X96788000Y-127476250D01*
X96788000Y-128191810D01*
X96884673Y-128425199D01*
X97063302Y-128603827D01*
X97124585Y-128629211D01*
X96982162Y-128972201D01*
X96981838Y-129344167D01*
X97123883Y-129687943D01*
X97386673Y-129951192D01*
X97730201Y-130093838D01*
X98102167Y-130094162D01*
X98445943Y-129952117D01*
X98479118Y-129919000D01*
X106426000Y-129919000D01*
X106716839Y-129861148D01*
X106825976Y-129788225D01*
X107097839Y-129734148D01*
X107260809Y-129625255D01*
X107351839Y-129607148D01*
X107598401Y-129442401D01*
X107756802Y-129284000D01*
X113538000Y-129284000D01*
X113828839Y-129226148D01*
X114075401Y-129061401D01*
X114445296Y-128691506D01*
X114466325Y-128700238D01*
X115067040Y-128700762D01*
X115622229Y-128471362D01*
X116018318Y-128075964D01*
X116411537Y-128469870D01*
X116966325Y-128700238D01*
X117567040Y-128700762D01*
X118122229Y-128471362D01*
X118518318Y-128075964D01*
X118911537Y-128469870D01*
X119466325Y-128700238D01*
X120067040Y-128700762D01*
X120622229Y-128471362D01*
X121047370Y-128046963D01*
X121277738Y-127492175D01*
X121278262Y-126891460D01*
X121048862Y-126336271D01*
X120624463Y-125911130D01*
X120069675Y-125680762D01*
X119468960Y-125680238D01*
X118963070Y-125889268D01*
X118520401Y-125446599D01*
X118273839Y-125281852D01*
X118001976Y-125227775D01*
X117892839Y-125154852D01*
X117602000Y-125097000D01*
X105216802Y-125097000D01*
X105212802Y-125093000D01*
X113792000Y-125093000D01*
X114082839Y-125035148D01*
X114245809Y-124926255D01*
X114336839Y-124908148D01*
X114583401Y-124743401D01*
X117027802Y-122299000D01*
X122119537Y-122299000D01*
X122151673Y-122331192D01*
X122495201Y-122473838D01*
X122867167Y-122474162D01*
X123132175Y-122364663D01*
X123274990Y-122710303D01*
X123667630Y-123103629D01*
X123875512Y-123189949D01*
X123669697Y-123274990D01*
X123276371Y-123667630D01*
X123063243Y-124180900D01*
X123062758Y-124736661D01*
X123274990Y-125250303D01*
X123667630Y-125643629D01*
X123958449Y-125764387D01*
X123705620Y-125868854D01*
X123330173Y-126243647D01*
X123126732Y-126733587D01*
X123126269Y-127264086D01*
X123328854Y-127754380D01*
X123703647Y-128129827D01*
X124193587Y-128333268D01*
X124724086Y-128333731D01*
X125214380Y-128131146D01*
X125589827Y-127756353D01*
X125793268Y-127266413D01*
X125793731Y-126735914D01*
X125614236Y-126301500D01*
X130734060Y-126301500D01*
X130734060Y-127698500D01*
X130778338Y-127933817D01*
X130917410Y-128149941D01*
X131129610Y-128294931D01*
X131381500Y-128345940D01*
X132778500Y-128345940D01*
X133013817Y-128301662D01*
X133229941Y-128162590D01*
X133374931Y-127950390D01*
X133425940Y-127698500D01*
X133425940Y-127276661D01*
X135762758Y-127276661D01*
X135974990Y-127790303D01*
X136367630Y-128183629D01*
X136880900Y-128396757D01*
X137436661Y-128397242D01*
X137950303Y-128185010D01*
X138343629Y-127792370D01*
X138464387Y-127501551D01*
X138568854Y-127754380D01*
X138943647Y-128129827D01*
X139433587Y-128333268D01*
X139964086Y-128333731D01*
X140454380Y-128131146D01*
X140829827Y-127756353D01*
X141033268Y-127266413D01*
X141033731Y-126735914D01*
X140831146Y-126245620D01*
X140456353Y-125870173D01*
X140201490Y-125764345D01*
X140490303Y-125645010D01*
X140883629Y-125252370D01*
X140897070Y-125220000D01*
X144465198Y-125220000D01*
X145974060Y-126728862D01*
X145974060Y-127698500D01*
X146018338Y-127933817D01*
X146157410Y-128149941D01*
X146369610Y-128294931D01*
X146621500Y-128345940D01*
X148018500Y-128345940D01*
X148253817Y-128301662D01*
X148469941Y-128162590D01*
X148614931Y-127950390D01*
X148665940Y-127698500D01*
X148665940Y-127276661D01*
X151002758Y-127276661D01*
X151214990Y-127790303D01*
X151607630Y-128183629D01*
X152120900Y-128396757D01*
X152676661Y-128397242D01*
X153190303Y-128185010D01*
X153583629Y-127792370D01*
X153704387Y-127501551D01*
X153808854Y-127754380D01*
X154183647Y-128129827D01*
X154673587Y-128333268D01*
X155204086Y-128333731D01*
X155694380Y-128131146D01*
X156069827Y-127756353D01*
X156273268Y-127266413D01*
X156273615Y-126868417D01*
X156942599Y-127537401D01*
X157189160Y-127702148D01*
X157237414Y-127711746D01*
X157480000Y-127760000D01*
X161225632Y-127760000D01*
X161258338Y-127933817D01*
X161397410Y-128149941D01*
X161609610Y-128294931D01*
X161861500Y-128345940D01*
X163258500Y-128345940D01*
X163493817Y-128301662D01*
X163709941Y-128162590D01*
X163801827Y-128028109D01*
X171369657Y-128028109D01*
X171671218Y-128757943D01*
X172229120Y-129316819D01*
X172958427Y-129619654D01*
X173748109Y-129620343D01*
X174477943Y-129318782D01*
X175036819Y-128760880D01*
X175339654Y-128031573D01*
X175340343Y-127241891D01*
X175038782Y-126512057D01*
X174480880Y-125953181D01*
X173751573Y-125650346D01*
X172961891Y-125649657D01*
X172232057Y-125951218D01*
X171673181Y-126509120D01*
X171370346Y-127238427D01*
X171369657Y-128028109D01*
X163801827Y-128028109D01*
X163854931Y-127950390D01*
X163905940Y-127698500D01*
X163905940Y-126301500D01*
X163861662Y-126066183D01*
X163722590Y-125850059D01*
X163510390Y-125705069D01*
X163258500Y-125654060D01*
X161861500Y-125654060D01*
X161626183Y-125698338D01*
X161410059Y-125837410D01*
X161265069Y-126049610D01*
X161226514Y-126240000D01*
X157794802Y-126240000D01*
X156324183Y-124769381D01*
X156336757Y-124739100D01*
X156337242Y-124183339D01*
X156125010Y-123669697D01*
X155732370Y-123276371D01*
X155524488Y-123190051D01*
X155730303Y-123105010D01*
X156123629Y-122712370D01*
X156336757Y-122199100D01*
X156336759Y-122196661D01*
X163702758Y-122196661D01*
X163914990Y-122710303D01*
X164307630Y-123103629D01*
X164515512Y-123189949D01*
X164309697Y-123274990D01*
X163916371Y-123667630D01*
X163703243Y-124180900D01*
X163702758Y-124736661D01*
X163914990Y-125250303D01*
X164307630Y-125643629D01*
X164820900Y-125856757D01*
X165376661Y-125857242D01*
X165890303Y-125645010D01*
X166283629Y-125252370D01*
X166496757Y-124739100D01*
X166497242Y-124183339D01*
X166285010Y-123669697D01*
X165892370Y-123276371D01*
X165684488Y-123190051D01*
X165890303Y-123105010D01*
X166283629Y-122712370D01*
X166496757Y-122199100D01*
X166497242Y-121643339D01*
X166285010Y-121129697D01*
X165892370Y-120736371D01*
X165379100Y-120523243D01*
X164823339Y-120522758D01*
X164309697Y-120734990D01*
X163916371Y-121127630D01*
X163703243Y-121640900D01*
X163702758Y-122196661D01*
X156336759Y-122196661D01*
X156337242Y-121643339D01*
X156125010Y-121129697D01*
X155732370Y-120736371D01*
X155219100Y-120523243D01*
X154663339Y-120522758D01*
X154149697Y-120734990D01*
X153756371Y-121127630D01*
X153543243Y-121640900D01*
X153542758Y-122196661D01*
X153754990Y-122710303D01*
X154147630Y-123103629D01*
X154355512Y-123189949D01*
X154149697Y-123274990D01*
X153756371Y-123667630D01*
X153543243Y-124180900D01*
X153542758Y-124736661D01*
X153754990Y-125250303D01*
X154147630Y-125643629D01*
X154438449Y-125764387D01*
X154185620Y-125868854D01*
X153810173Y-126243647D01*
X153704345Y-126498510D01*
X153585010Y-126209697D01*
X153192370Y-125816371D01*
X152679100Y-125603243D01*
X152123339Y-125602758D01*
X151609697Y-125814990D01*
X151216371Y-126207630D01*
X151003243Y-126720900D01*
X151002758Y-127276661D01*
X148665940Y-127276661D01*
X148665940Y-126301500D01*
X148621662Y-126066183D01*
X148482590Y-125850059D01*
X148270390Y-125705069D01*
X148018500Y-125654060D01*
X147048862Y-125654060D01*
X145317401Y-123922599D01*
X145070839Y-123757852D01*
X144780000Y-123700000D01*
X140897531Y-123700000D01*
X140885010Y-123669697D01*
X140492370Y-123276371D01*
X140284488Y-123190051D01*
X140490303Y-123105010D01*
X140883629Y-122712370D01*
X141096757Y-122199100D01*
X141096759Y-122196661D01*
X148462758Y-122196661D01*
X148674990Y-122710303D01*
X149067630Y-123103629D01*
X149275512Y-123189949D01*
X149069697Y-123274990D01*
X148676371Y-123667630D01*
X148463243Y-124180900D01*
X148462758Y-124736661D01*
X148674990Y-125250303D01*
X149067630Y-125643629D01*
X149580900Y-125856757D01*
X150136661Y-125857242D01*
X150650303Y-125645010D01*
X151043629Y-125252370D01*
X151256757Y-124739100D01*
X151257242Y-124183339D01*
X151045010Y-123669697D01*
X150652370Y-123276371D01*
X150444488Y-123190051D01*
X150650303Y-123105010D01*
X151043629Y-122712370D01*
X151256757Y-122199100D01*
X151257242Y-121643339D01*
X151045010Y-121129697D01*
X150652370Y-120736371D01*
X150139100Y-120523243D01*
X149583339Y-120522758D01*
X149069697Y-120734990D01*
X148676371Y-121127630D01*
X148463243Y-121640900D01*
X148462758Y-122196661D01*
X141096759Y-122196661D01*
X141097242Y-121643339D01*
X140885010Y-121129697D01*
X140492370Y-120736371D01*
X139979100Y-120523243D01*
X139423339Y-120522758D01*
X138909697Y-120734990D01*
X138516371Y-121127630D01*
X138303243Y-121640900D01*
X138302758Y-122196661D01*
X138514990Y-122710303D01*
X138907630Y-123103629D01*
X139115512Y-123189949D01*
X138909697Y-123274990D01*
X138516371Y-123667630D01*
X138303243Y-124180900D01*
X138302758Y-124736661D01*
X138514990Y-125250303D01*
X138907630Y-125643629D01*
X139198449Y-125764387D01*
X138945620Y-125868854D01*
X138570173Y-126243647D01*
X138464345Y-126498510D01*
X138345010Y-126209697D01*
X137952370Y-125816371D01*
X137439100Y-125603243D01*
X136883339Y-125602758D01*
X136369697Y-125814990D01*
X135976371Y-126207630D01*
X135763243Y-126720900D01*
X135762758Y-127276661D01*
X133425940Y-127276661D01*
X133425940Y-126301500D01*
X133381662Y-126066183D01*
X133242590Y-125850059D01*
X133030390Y-125705069D01*
X132778500Y-125654060D01*
X131381500Y-125654060D01*
X131146183Y-125698338D01*
X130930059Y-125837410D01*
X130785069Y-126049610D01*
X130734060Y-126301500D01*
X125614236Y-126301500D01*
X125591146Y-126245620D01*
X125216353Y-125870173D01*
X124961490Y-125764345D01*
X125250303Y-125645010D01*
X125643629Y-125252370D01*
X125856757Y-124739100D01*
X125857242Y-124183339D01*
X125843857Y-124150945D01*
X126885680Y-123109122D01*
X126931167Y-123109162D01*
X127274943Y-122967117D01*
X127538192Y-122704327D01*
X127680838Y-122360799D01*
X127680980Y-122196661D01*
X133222758Y-122196661D01*
X133434990Y-122710303D01*
X133827630Y-123103629D01*
X134035512Y-123189949D01*
X133829697Y-123274990D01*
X133436371Y-123667630D01*
X133223243Y-124180900D01*
X133222758Y-124736661D01*
X133434990Y-125250303D01*
X133827630Y-125643629D01*
X134340900Y-125856757D01*
X134896661Y-125857242D01*
X135410303Y-125645010D01*
X135803629Y-125252370D01*
X136016757Y-124739100D01*
X136017242Y-124183339D01*
X135805010Y-123669697D01*
X135412370Y-123276371D01*
X135204488Y-123190051D01*
X135410303Y-123105010D01*
X135803629Y-122712370D01*
X136016757Y-122199100D01*
X136017242Y-121643339D01*
X135805010Y-121129697D01*
X135412370Y-120736371D01*
X134899100Y-120523243D01*
X134343339Y-120522758D01*
X133829697Y-120734990D01*
X133436371Y-121127630D01*
X133223243Y-121640900D01*
X133222758Y-122196661D01*
X127680980Y-122196661D01*
X127681162Y-121988833D01*
X127539117Y-121645057D01*
X127276327Y-121381808D01*
X126932799Y-121239162D01*
X126560833Y-121238838D01*
X126217057Y-121380883D01*
X125953808Y-121643673D01*
X125857038Y-121876719D01*
X125857242Y-121643339D01*
X125645010Y-121129697D01*
X125252370Y-120736371D01*
X124739100Y-120523243D01*
X124183339Y-120522758D01*
X123669697Y-120734990D01*
X123621851Y-120782752D01*
X123824757Y-120294100D01*
X123825242Y-119738339D01*
X123728829Y-119505000D01*
X127635000Y-119505000D01*
X127925839Y-119447148D01*
X128172401Y-119282401D01*
X129219802Y-118235000D01*
X132772005Y-118235000D01*
X132942189Y-118489698D01*
X133407736Y-118800767D01*
X133956887Y-118910000D01*
X134013113Y-118910000D01*
X134290102Y-118854904D01*
X135970878Y-120535680D01*
X135970838Y-120581167D01*
X136112883Y-120924943D01*
X136375673Y-121188192D01*
X136719201Y-121330838D01*
X137091167Y-121331162D01*
X137434943Y-121189117D01*
X137698192Y-120926327D01*
X137840838Y-120582799D01*
X137841162Y-120210833D01*
X137699117Y-119867057D01*
X137436327Y-119603808D01*
X137092799Y-119461162D01*
X137045923Y-119461121D01*
X135383688Y-117798886D01*
X135448113Y-117475000D01*
X135346668Y-116965000D01*
X135762890Y-116965000D01*
X135762758Y-117116661D01*
X135974990Y-117630303D01*
X136367630Y-118023629D01*
X136880900Y-118236757D01*
X137436661Y-118237242D01*
X137950303Y-118025010D01*
X138343629Y-117632370D01*
X138556757Y-117119100D01*
X138557242Y-116563339D01*
X138513304Y-116457000D01*
X139512198Y-116457000D01*
X139797599Y-116742401D01*
X140044161Y-116907148D01*
X140246821Y-116947460D01*
X140141887Y-117475000D01*
X140251120Y-118024151D01*
X140562189Y-118489698D01*
X141027736Y-118800767D01*
X141576887Y-118910000D01*
X141633113Y-118910000D01*
X142182264Y-118800767D01*
X142647811Y-118489698D01*
X142958880Y-118024151D01*
X143068113Y-117475000D01*
X142966668Y-116965000D01*
X147863332Y-116965000D01*
X147761887Y-117475000D01*
X147871120Y-118024151D01*
X148182189Y-118489698D01*
X148647736Y-118800767D01*
X149196887Y-118910000D01*
X149253113Y-118910000D01*
X149802264Y-118800767D01*
X150267811Y-118489698D01*
X150578880Y-118024151D01*
X150688113Y-117475000D01*
X150586668Y-116965000D01*
X151002890Y-116965000D01*
X151002758Y-117116661D01*
X151214990Y-117630303D01*
X151607630Y-118023629D01*
X152120900Y-118236757D01*
X152676661Y-118237242D01*
X153190303Y-118025010D01*
X153583629Y-117632370D01*
X153648974Y-117475000D01*
X155381887Y-117475000D01*
X155491120Y-118024151D01*
X155802189Y-118489698D01*
X156267736Y-118800767D01*
X156816887Y-118910000D01*
X156873113Y-118910000D01*
X157422264Y-118800767D01*
X157887811Y-118489698D01*
X158198880Y-118024151D01*
X158308113Y-117475000D01*
X163001887Y-117475000D01*
X163111120Y-118024151D01*
X163422189Y-118489698D01*
X163887736Y-118800767D01*
X164436887Y-118910000D01*
X164493113Y-118910000D01*
X165042264Y-118800767D01*
X165507811Y-118489698D01*
X165818880Y-118024151D01*
X165928113Y-117475000D01*
X165818880Y-116925849D01*
X165507811Y-116460302D01*
X165103297Y-116190014D01*
X165320134Y-116087389D01*
X165696041Y-115672423D01*
X165856904Y-115284039D01*
X165847953Y-115267745D01*
X166811861Y-115267745D01*
X166885995Y-115513864D01*
X167423223Y-115706965D01*
X167993454Y-115679778D01*
X168394005Y-115513864D01*
X168468139Y-115267745D01*
X167640000Y-114439605D01*
X166811861Y-115267745D01*
X165847953Y-115267745D01*
X165734915Y-115062000D01*
X164592000Y-115062000D01*
X164592000Y-115082000D01*
X164338000Y-115082000D01*
X164338000Y-115062000D01*
X163195085Y-115062000D01*
X163073096Y-115284039D01*
X163233959Y-115672423D01*
X163609866Y-116087389D01*
X163826703Y-116190014D01*
X163422189Y-116460302D01*
X163111120Y-116925849D01*
X163001887Y-117475000D01*
X158308113Y-117475000D01*
X158198880Y-116925849D01*
X157887811Y-116460302D01*
X157483297Y-116190014D01*
X157700134Y-116087389D01*
X158076041Y-115672423D01*
X158236904Y-115284039D01*
X158114915Y-115062000D01*
X156972000Y-115062000D01*
X156972000Y-115082000D01*
X156718000Y-115082000D01*
X156718000Y-115062000D01*
X155575085Y-115062000D01*
X155453096Y-115284039D01*
X155613959Y-115672423D01*
X155989866Y-116087389D01*
X156206703Y-116190014D01*
X155802189Y-116460302D01*
X155491120Y-116925849D01*
X155381887Y-117475000D01*
X153648974Y-117475000D01*
X153796757Y-117119100D01*
X153797242Y-116563339D01*
X153585010Y-116049697D01*
X153192370Y-115656371D01*
X153001402Y-115577074D01*
X153154005Y-115513864D01*
X153228139Y-115267745D01*
X152400000Y-114439605D01*
X151571861Y-115267745D01*
X151625252Y-115445000D01*
X150550236Y-115445000D01*
X150616904Y-115284039D01*
X150494915Y-115062000D01*
X149352000Y-115062000D01*
X149352000Y-115082000D01*
X149098000Y-115082000D01*
X149098000Y-115062000D01*
X147955085Y-115062000D01*
X147833096Y-115284039D01*
X147899764Y-115445000D01*
X142930236Y-115445000D01*
X142996904Y-115284039D01*
X142874915Y-115062000D01*
X141732000Y-115062000D01*
X141732000Y-115082000D01*
X141478000Y-115082000D01*
X141478000Y-115062000D01*
X140335085Y-115062000D01*
X140303734Y-115119063D01*
X140117839Y-114994852D01*
X139827000Y-114937000D01*
X138441543Y-114937000D01*
X138606965Y-114476777D01*
X138579778Y-113906546D01*
X138413864Y-113505995D01*
X138167745Y-113431861D01*
X137339605Y-114260000D01*
X137353748Y-114274142D01*
X137174142Y-114453748D01*
X137160000Y-114439605D01*
X137145858Y-114453748D01*
X136966252Y-114274142D01*
X136980395Y-114260000D01*
X136152255Y-113431861D01*
X135906136Y-113505995D01*
X135713035Y-114043223D01*
X135740222Y-114613454D01*
X135906136Y-115014005D01*
X136112478Y-115076158D01*
X135987599Y-115159599D01*
X135702198Y-115445000D01*
X135310236Y-115445000D01*
X135376904Y-115284039D01*
X135254915Y-115062000D01*
X134112000Y-115062000D01*
X134112000Y-115082000D01*
X133858000Y-115082000D01*
X133858000Y-115062000D01*
X132715085Y-115062000D01*
X132593096Y-115284039D01*
X132659764Y-115445000D01*
X127726668Y-115445000D01*
X127828113Y-114935000D01*
X127718880Y-114385849D01*
X127407811Y-113920302D01*
X127263535Y-113823899D01*
X127400317Y-113798162D01*
X127616441Y-113659090D01*
X127761431Y-113446890D01*
X127812440Y-113195000D01*
X127812440Y-112377242D01*
X128367599Y-112932401D01*
X128614160Y-113097148D01*
X128905000Y-113155000D01*
X132772005Y-113155000D01*
X132942189Y-113409698D01*
X133346703Y-113679986D01*
X133129866Y-113782611D01*
X132753959Y-114197577D01*
X132593096Y-114585961D01*
X132715085Y-114808000D01*
X133858000Y-114808000D01*
X133858000Y-114788000D01*
X134112000Y-114788000D01*
X134112000Y-114808000D01*
X135254915Y-114808000D01*
X135376904Y-114585961D01*
X135216041Y-114197577D01*
X134840134Y-113782611D01*
X134623297Y-113679986D01*
X135027811Y-113409698D01*
X135338880Y-112944151D01*
X135423249Y-112520000D01*
X135921354Y-112520000D01*
X135942757Y-112571800D01*
X136346077Y-112975824D01*
X136412544Y-113003423D01*
X136405995Y-113006136D01*
X136331861Y-113252255D01*
X137160000Y-114080395D01*
X137988139Y-113252255D01*
X137914005Y-113006136D01*
X137907517Y-113003804D01*
X137971800Y-112977243D01*
X138375824Y-112573923D01*
X138594750Y-112046691D01*
X138594891Y-111885000D01*
X140157560Y-111885000D01*
X140157560Y-113195000D01*
X140201838Y-113430317D01*
X140340910Y-113646441D01*
X140553110Y-113791431D01*
X140712616Y-113823732D01*
X140373959Y-114197577D01*
X140213096Y-114585961D01*
X140335085Y-114808000D01*
X141478000Y-114808000D01*
X141478000Y-114788000D01*
X141732000Y-114788000D01*
X141732000Y-114808000D01*
X142874915Y-114808000D01*
X142996904Y-114585961D01*
X142836041Y-114197577D01*
X142498410Y-113824864D01*
X142640317Y-113798162D01*
X142856441Y-113659090D01*
X143001431Y-113446890D01*
X143052440Y-113195000D01*
X143052440Y-112377242D01*
X143607599Y-112932401D01*
X143854160Y-113097148D01*
X144145000Y-113155000D01*
X144233953Y-113155000D01*
X143997057Y-113252883D01*
X143733808Y-113515673D01*
X143591162Y-113859201D01*
X143590838Y-114231167D01*
X143732883Y-114574943D01*
X143995673Y-114838192D01*
X144339201Y-114980838D01*
X144711167Y-114981162D01*
X145054943Y-114839117D01*
X145088118Y-114806000D01*
X145669000Y-114806000D01*
X145959839Y-114748148D01*
X146206401Y-114583401D01*
X146570680Y-114219122D01*
X146616167Y-114219162D01*
X146959943Y-114077117D01*
X147223192Y-113814327D01*
X147365838Y-113470799D01*
X147366113Y-113155000D01*
X148012005Y-113155000D01*
X148182189Y-113409698D01*
X148586703Y-113679986D01*
X148369866Y-113782611D01*
X147993959Y-114197577D01*
X147833096Y-114585961D01*
X147955085Y-114808000D01*
X149098000Y-114808000D01*
X149098000Y-114788000D01*
X149352000Y-114788000D01*
X149352000Y-114808000D01*
X150494915Y-114808000D01*
X150616904Y-114585961D01*
X150456041Y-114197577D01*
X150316216Y-114043223D01*
X150953035Y-114043223D01*
X150980222Y-114613454D01*
X151146136Y-115014005D01*
X151392255Y-115088139D01*
X152220395Y-114260000D01*
X152579605Y-114260000D01*
X153407745Y-115088139D01*
X153653864Y-115014005D01*
X153846965Y-114476777D01*
X153819778Y-113906546D01*
X153653864Y-113505995D01*
X153407745Y-113431861D01*
X152579605Y-114260000D01*
X152220395Y-114260000D01*
X151392255Y-113431861D01*
X151146136Y-113505995D01*
X150953035Y-114043223D01*
X150316216Y-114043223D01*
X150080134Y-113782611D01*
X149863297Y-113679986D01*
X150267811Y-113409698D01*
X150578880Y-112944151D01*
X150663249Y-112520000D01*
X151161354Y-112520000D01*
X151182757Y-112571800D01*
X151586077Y-112975824D01*
X151652544Y-113003423D01*
X151645995Y-113006136D01*
X151571861Y-113252255D01*
X152400000Y-114080395D01*
X153228139Y-113252255D01*
X153154005Y-113006136D01*
X153147517Y-113003804D01*
X153211800Y-112977243D01*
X153615824Y-112573923D01*
X153834750Y-112046691D01*
X153834891Y-111885000D01*
X155397560Y-111885000D01*
X155397560Y-113195000D01*
X155441838Y-113430317D01*
X155580910Y-113646441D01*
X155793110Y-113791431D01*
X155952616Y-113823732D01*
X155613959Y-114197577D01*
X155453096Y-114585961D01*
X155575085Y-114808000D01*
X156718000Y-114808000D01*
X156718000Y-114788000D01*
X156972000Y-114788000D01*
X156972000Y-114808000D01*
X158114915Y-114808000D01*
X158236904Y-114585961D01*
X158076041Y-114197577D01*
X157738410Y-113824864D01*
X157880317Y-113798162D01*
X158096441Y-113659090D01*
X158241431Y-113446890D01*
X158292440Y-113195000D01*
X158292440Y-112377242D01*
X158847599Y-112932401D01*
X159094160Y-113097148D01*
X159385000Y-113155000D01*
X159473953Y-113155000D01*
X159237057Y-113252883D01*
X158973808Y-113515673D01*
X158831162Y-113859201D01*
X158830838Y-114231167D01*
X158972883Y-114574943D01*
X159235673Y-114838192D01*
X159579201Y-114980838D01*
X159951167Y-114981162D01*
X160294943Y-114839117D01*
X160558192Y-114576327D01*
X160700838Y-114232799D01*
X160700879Y-114185923D01*
X160842802Y-114044000D01*
X160981537Y-114044000D01*
X161013673Y-114076192D01*
X161357201Y-114218838D01*
X161729167Y-114219162D01*
X162072943Y-114077117D01*
X162336192Y-113814327D01*
X162478838Y-113470799D01*
X162479113Y-113155000D01*
X163252005Y-113155000D01*
X163422189Y-113409698D01*
X163826703Y-113679986D01*
X163609866Y-113782611D01*
X163233959Y-114197577D01*
X163073096Y-114585961D01*
X163195085Y-114808000D01*
X164338000Y-114808000D01*
X164338000Y-114788000D01*
X164592000Y-114788000D01*
X164592000Y-114808000D01*
X165734915Y-114808000D01*
X165856904Y-114585961D01*
X165696041Y-114197577D01*
X165556216Y-114043223D01*
X166193035Y-114043223D01*
X166220222Y-114613454D01*
X166386136Y-115014005D01*
X166632255Y-115088139D01*
X167460395Y-114260000D01*
X167819605Y-114260000D01*
X168647745Y-115088139D01*
X168893864Y-115014005D01*
X169086965Y-114476777D01*
X169059778Y-113906546D01*
X168893864Y-113505995D01*
X168647745Y-113431861D01*
X167819605Y-114260000D01*
X167460395Y-114260000D01*
X166632255Y-113431861D01*
X166386136Y-113505995D01*
X166193035Y-114043223D01*
X165556216Y-114043223D01*
X165320134Y-113782611D01*
X165103297Y-113679986D01*
X165507811Y-113409698D01*
X165818880Y-112944151D01*
X165903249Y-112520000D01*
X166401354Y-112520000D01*
X166422757Y-112571800D01*
X166826077Y-112975824D01*
X166892544Y-113003423D01*
X166885995Y-113006136D01*
X166811861Y-113252255D01*
X167640000Y-114080395D01*
X168468139Y-113252255D01*
X168394005Y-113006136D01*
X168387517Y-113003804D01*
X168451800Y-112977243D01*
X168855824Y-112573923D01*
X169074750Y-112046691D01*
X169075248Y-111475813D01*
X168857243Y-110948200D01*
X168453923Y-110544176D01*
X167926691Y-110325250D01*
X167355813Y-110324752D01*
X166828200Y-110542757D01*
X166424176Y-110946077D01*
X166401785Y-111000000D01*
X165100000Y-111000000D01*
X164897104Y-111040359D01*
X164493113Y-110960000D01*
X164436887Y-110960000D01*
X163887736Y-111069233D01*
X163422189Y-111380302D01*
X163252005Y-111635000D01*
X159699802Y-111635000D01*
X158652401Y-110587599D01*
X158405839Y-110422852D01*
X158115000Y-110365000D01*
X153035000Y-110365000D01*
X152864227Y-110398969D01*
X152686691Y-110325250D01*
X152115813Y-110324752D01*
X151588200Y-110542757D01*
X151184176Y-110946077D01*
X151161785Y-111000000D01*
X149860000Y-111000000D01*
X149657104Y-111040359D01*
X149253113Y-110960000D01*
X149196887Y-110960000D01*
X148647736Y-111069233D01*
X148182189Y-111380302D01*
X148012005Y-111635000D01*
X144459802Y-111635000D01*
X143412401Y-110587599D01*
X143165839Y-110422852D01*
X142875000Y-110365000D01*
X137795000Y-110365000D01*
X137624227Y-110398969D01*
X137446691Y-110325250D01*
X136875813Y-110324752D01*
X136348200Y-110542757D01*
X135944176Y-110946077D01*
X135921785Y-111000000D01*
X134620000Y-111000000D01*
X134417104Y-111040359D01*
X134013113Y-110960000D01*
X133956887Y-110960000D01*
X133407736Y-111069233D01*
X132942189Y-111380302D01*
X132772005Y-111635000D01*
X129219802Y-111635000D01*
X128172401Y-110587599D01*
X127925839Y-110422852D01*
X127635000Y-110365000D01*
X123728879Y-110365000D01*
X123824757Y-110134100D01*
X123825242Y-109578339D01*
X123613010Y-109064697D01*
X123220370Y-108671371D01*
X122707100Y-108458243D01*
X122151339Y-108457758D01*
X121637697Y-108669990D01*
X121244371Y-109062630D01*
X121230930Y-109095000D01*
X120931683Y-109095000D01*
X120901146Y-109021094D01*
X121061192Y-108861327D01*
X121203838Y-108517799D01*
X121204162Y-108145833D01*
X121062117Y-107802057D01*
X121029000Y-107768882D01*
X121029000Y-105791000D01*
X121012697Y-105709040D01*
X126879738Y-105709040D01*
X127109138Y-106264229D01*
X127533537Y-106689370D01*
X128088325Y-106919738D01*
X128689040Y-106920262D01*
X128790527Y-106878329D01*
X129129599Y-107217401D01*
X129376160Y-107382148D01*
X129667000Y-107440000D01*
X131445000Y-107440000D01*
X131735839Y-107382148D01*
X131898809Y-107273255D01*
X131989839Y-107255148D01*
X132236401Y-107090401D01*
X132606949Y-106719853D01*
X133088325Y-106919738D01*
X133689040Y-106920262D01*
X134244229Y-106690862D01*
X134413103Y-106522283D01*
X134550910Y-106736441D01*
X134763110Y-106881431D01*
X135015000Y-106932440D01*
X136765000Y-106932440D01*
X137000317Y-106888162D01*
X137216441Y-106749090D01*
X137361431Y-106536890D01*
X137374559Y-106472060D01*
X142112545Y-106472060D01*
X142195884Y-106725953D01*
X142760306Y-106931590D01*
X143360458Y-106905579D01*
X143794116Y-106725953D01*
X143877455Y-106472060D01*
X142995000Y-105589605D01*
X142112545Y-106472060D01*
X137374559Y-106472060D01*
X137412440Y-106285000D01*
X137412440Y-105175306D01*
X141473410Y-105175306D01*
X141499421Y-105775458D01*
X141679047Y-106209116D01*
X141932940Y-106292455D01*
X142815395Y-105410000D01*
X143174605Y-105410000D01*
X144057060Y-106292455D01*
X144205648Y-106243682D01*
X144214138Y-106264229D01*
X144638537Y-106689370D01*
X145193325Y-106919738D01*
X145794040Y-106920262D01*
X146349229Y-106690862D01*
X146774370Y-106266463D01*
X146783892Y-106243531D01*
X146932940Y-106292455D01*
X147815395Y-105410000D01*
X146932940Y-104527545D01*
X146784352Y-104576318D01*
X146775862Y-104555771D01*
X146568394Y-104347940D01*
X147112545Y-104347940D01*
X147995000Y-105230395D01*
X148009143Y-105216253D01*
X148188748Y-105395858D01*
X148174605Y-105410000D01*
X148188748Y-105424143D01*
X148009143Y-105603748D01*
X147995000Y-105589605D01*
X147112545Y-106472060D01*
X147195884Y-106725953D01*
X147760306Y-106931590D01*
X148360458Y-106905579D01*
X148794116Y-106725953D01*
X148877454Y-106472062D01*
X148992086Y-106586694D01*
X149033136Y-106545644D01*
X149155910Y-106736441D01*
X149368110Y-106881431D01*
X149620000Y-106932440D01*
X151370000Y-106932440D01*
X151605317Y-106888162D01*
X151821441Y-106749090D01*
X151966431Y-106536890D01*
X151979559Y-106472060D01*
X156717545Y-106472060D01*
X156800884Y-106725953D01*
X157365306Y-106931590D01*
X157965458Y-106905579D01*
X158399116Y-106725953D01*
X158482455Y-106472060D01*
X157600000Y-105589605D01*
X156717545Y-106472060D01*
X151979559Y-106472060D01*
X152017440Y-106285000D01*
X152017440Y-105175306D01*
X156078410Y-105175306D01*
X156104421Y-105775458D01*
X156284047Y-106209116D01*
X156537940Y-106292455D01*
X157420395Y-105410000D01*
X157779605Y-105410000D01*
X158662060Y-106292455D01*
X158810648Y-106243682D01*
X158819138Y-106264229D01*
X159243537Y-106689370D01*
X159798325Y-106919738D01*
X160399040Y-106920262D01*
X160954229Y-106690862D01*
X161379370Y-106266463D01*
X161388892Y-106243531D01*
X161537940Y-106292455D01*
X162420395Y-105410000D01*
X161537940Y-104527545D01*
X161389352Y-104576318D01*
X161380862Y-104555771D01*
X161173394Y-104347940D01*
X161717545Y-104347940D01*
X162600000Y-105230395D01*
X162614143Y-105216253D01*
X162793748Y-105395858D01*
X162779605Y-105410000D01*
X162793748Y-105424143D01*
X162614143Y-105603748D01*
X162600000Y-105589605D01*
X161717545Y-106472060D01*
X161800884Y-106725953D01*
X162365306Y-106931590D01*
X162965458Y-106905579D01*
X163399116Y-106725953D01*
X163482454Y-106472062D01*
X163597086Y-106586694D01*
X163638136Y-106545644D01*
X163760910Y-106736441D01*
X163973110Y-106881431D01*
X164225000Y-106932440D01*
X165975000Y-106932440D01*
X166210317Y-106888162D01*
X166426441Y-106749090D01*
X166571431Y-106536890D01*
X166622440Y-106285000D01*
X166622440Y-105168109D01*
X171369657Y-105168109D01*
X171671218Y-105897943D01*
X172229120Y-106456819D01*
X172958427Y-106759654D01*
X173748109Y-106760343D01*
X174477943Y-106458782D01*
X175036819Y-105900880D01*
X175339654Y-105171573D01*
X175340343Y-104381891D01*
X175038782Y-103652057D01*
X174480880Y-103093181D01*
X173751573Y-102790346D01*
X172961891Y-102789657D01*
X172232057Y-103091218D01*
X171673181Y-103649120D01*
X171370346Y-104378427D01*
X171369657Y-105168109D01*
X166622440Y-105168109D01*
X166622440Y-104535000D01*
X166578162Y-104299683D01*
X166439090Y-104083559D01*
X166226890Y-103938569D01*
X165975000Y-103887560D01*
X164225000Y-103887560D01*
X163989683Y-103931838D01*
X163773559Y-104070910D01*
X163636006Y-104272226D01*
X163597086Y-104233306D01*
X163482454Y-104347938D01*
X163399116Y-104094047D01*
X162834694Y-103888410D01*
X162234542Y-103914421D01*
X161800884Y-104094047D01*
X161717545Y-104347940D01*
X161173394Y-104347940D01*
X160956463Y-104130630D01*
X160401675Y-103900262D01*
X159800960Y-103899738D01*
X159245771Y-104129138D01*
X158820630Y-104553537D01*
X158811108Y-104576469D01*
X158662060Y-104527545D01*
X157779605Y-105410000D01*
X157420395Y-105410000D01*
X156537940Y-104527545D01*
X156284047Y-104610884D01*
X156078410Y-105175306D01*
X152017440Y-105175306D01*
X152017440Y-104535000D01*
X151982243Y-104347940D01*
X156717545Y-104347940D01*
X157600000Y-105230395D01*
X158482455Y-104347940D01*
X158399116Y-104094047D01*
X157834694Y-103888410D01*
X157234542Y-103914421D01*
X156800884Y-104094047D01*
X156717545Y-104347940D01*
X151982243Y-104347940D01*
X151973162Y-104299683D01*
X151834090Y-104083559D01*
X151621890Y-103938569D01*
X151370000Y-103887560D01*
X149620000Y-103887560D01*
X149384683Y-103931838D01*
X149168559Y-104070910D01*
X149031006Y-104272226D01*
X148992086Y-104233306D01*
X148877454Y-104347938D01*
X148794116Y-104094047D01*
X148229694Y-103888410D01*
X147629542Y-103914421D01*
X147195884Y-104094047D01*
X147112545Y-104347940D01*
X146568394Y-104347940D01*
X146351463Y-104130630D01*
X145796675Y-103900262D01*
X145195960Y-103899738D01*
X144640771Y-104129138D01*
X144215630Y-104553537D01*
X144206108Y-104576469D01*
X144057060Y-104527545D01*
X143174605Y-105410000D01*
X142815395Y-105410000D01*
X141932940Y-104527545D01*
X141679047Y-104610884D01*
X141473410Y-105175306D01*
X137412440Y-105175306D01*
X137412440Y-104535000D01*
X137377243Y-104347940D01*
X142112545Y-104347940D01*
X142995000Y-105230395D01*
X143877455Y-104347940D01*
X143794116Y-104094047D01*
X143229694Y-103888410D01*
X142629542Y-103914421D01*
X142195884Y-104094047D01*
X142112545Y-104347940D01*
X137377243Y-104347940D01*
X137368162Y-104299683D01*
X137229090Y-104083559D01*
X137016890Y-103938569D01*
X136765000Y-103887560D01*
X135015000Y-103887560D01*
X134779683Y-103931838D01*
X134563559Y-104070910D01*
X134418569Y-104283110D01*
X134415214Y-104299676D01*
X134246463Y-104130630D01*
X133691675Y-103900262D01*
X133090960Y-103899738D01*
X132535771Y-104129138D01*
X132139682Y-104524536D01*
X131746463Y-104130630D01*
X131191675Y-103900262D01*
X130590960Y-103899738D01*
X130035771Y-104129138D01*
X129639682Y-104524536D01*
X129246463Y-104130630D01*
X128691675Y-103900262D01*
X128090960Y-103899738D01*
X127535771Y-104129138D01*
X127110630Y-104553537D01*
X126880262Y-105108325D01*
X126879738Y-105709040D01*
X121012697Y-105709040D01*
X120971148Y-105500161D01*
X120806401Y-105253599D01*
X120220368Y-104667566D01*
X120209148Y-104611161D01*
X120044401Y-104364599D01*
X119797839Y-104199852D01*
X119670940Y-104174610D01*
X119670940Y-102782000D01*
X119626662Y-102546683D01*
X119487590Y-102330559D01*
X119275390Y-102185569D01*
X119187166Y-102167703D01*
X119324238Y-101837599D01*
X119324401Y-101650000D01*
X176480000Y-101650000D01*
X176480000Y-130760000D01*
X58470000Y-130760000D01*
X58470000Y-128028109D01*
X59609657Y-128028109D01*
X59911218Y-128757943D01*
X60469120Y-129316819D01*
X61198427Y-129619654D01*
X61988109Y-129620343D01*
X62717943Y-129318782D01*
X63276819Y-128760880D01*
X63579654Y-128031573D01*
X63580343Y-127241891D01*
X63278782Y-126512057D01*
X62956478Y-126189190D01*
X67641500Y-126189190D01*
X67641500Y-126904750D01*
X67800250Y-127063500D01*
X69024500Y-127063500D01*
X69024500Y-125839250D01*
X68865750Y-125680500D01*
X68150191Y-125680500D01*
X67916802Y-125777173D01*
X67738173Y-125955801D01*
X67641500Y-126189190D01*
X62956478Y-126189190D01*
X62720880Y-125953181D01*
X61991573Y-125650346D01*
X61201891Y-125649657D01*
X60472057Y-125951218D01*
X59913181Y-126509120D01*
X59610346Y-127238427D01*
X59609657Y-128028109D01*
X58470000Y-128028109D01*
X58470000Y-105168109D01*
X59609657Y-105168109D01*
X59911218Y-105897943D01*
X60469120Y-106456819D01*
X61198427Y-106759654D01*
X61988109Y-106760343D01*
X62717943Y-106458782D01*
X63276819Y-105900880D01*
X63579654Y-105171573D01*
X63580343Y-104381891D01*
X63278782Y-103652057D01*
X62902490Y-103275108D01*
X68472014Y-103275108D01*
X68592681Y-103505000D01*
X69786500Y-103505000D01*
X69786500Y-102311845D01*
X69556610Y-102190524D01*
X69146576Y-102360355D01*
X68718317Y-102750642D01*
X68472014Y-103275108D01*
X62902490Y-103275108D01*
X62720880Y-103093181D01*
X61991573Y-102790346D01*
X61201891Y-102789657D01*
X60472057Y-103091218D01*
X59913181Y-103649120D01*
X59610346Y-104378427D01*
X59609657Y-105168109D01*
X58470000Y-105168109D01*
X58470000Y-101650000D01*
X98818690Y-101650000D01*
X98769161Y-101659852D01*
X98769161Y-101659852D01*
G37*
X98769161Y-101659852D02*
X98522599Y-101824599D01*
X98357852Y-102071161D01*
X98346632Y-102127566D01*
X98272873Y-102201325D01*
X97853500Y-102117907D01*
X97285215Y-102230946D01*
X96803446Y-102552853D01*
X96583500Y-102882026D01*
X96363554Y-102552853D01*
X95881785Y-102230946D01*
X95313500Y-102117907D01*
X94745215Y-102230946D01*
X94263446Y-102552853D01*
X94043500Y-102882026D01*
X93823554Y-102552853D01*
X93341785Y-102230946D01*
X92773500Y-102117907D01*
X92205215Y-102230946D01*
X91723446Y-102552853D01*
X91503500Y-102882026D01*
X91283554Y-102552853D01*
X90801785Y-102230946D01*
X90233500Y-102117907D01*
X89665215Y-102230946D01*
X89183446Y-102552853D01*
X88955798Y-102893553D01*
X88888683Y-102750642D01*
X88460424Y-102360355D01*
X88050390Y-102190524D01*
X87820500Y-102311845D01*
X87820500Y-103505000D01*
X87840500Y-103505000D01*
X87840500Y-103759000D01*
X87820500Y-103759000D01*
X87820500Y-103779000D01*
X87566500Y-103779000D01*
X87566500Y-103759000D01*
X87546500Y-103759000D01*
X87546500Y-103505000D01*
X87566500Y-103505000D01*
X87566500Y-102311845D01*
X87336610Y-102190524D01*
X86926576Y-102360355D01*
X86498317Y-102750642D01*
X86431202Y-102893553D01*
X86203554Y-102552853D01*
X85721785Y-102230946D01*
X85153500Y-102117907D01*
X84585215Y-102230946D01*
X84103446Y-102552853D01*
X83883500Y-102882026D01*
X83663554Y-102552853D01*
X83181785Y-102230946D01*
X82613500Y-102117907D01*
X82045215Y-102230946D01*
X81563446Y-102552853D01*
X81343500Y-102882026D01*
X81123554Y-102552853D01*
X80641785Y-102230946D01*
X80073500Y-102117907D01*
X79505215Y-102230946D01*
X79023446Y-102552853D01*
X78803500Y-102882026D01*
X78583554Y-102552853D01*
X78101785Y-102230946D01*
X77533500Y-102117907D01*
X76965215Y-102230946D01*
X76483446Y-102552853D01*
X76263500Y-102882026D01*
X76043554Y-102552853D01*
X75561785Y-102230946D01*
X74993500Y-102117907D01*
X74425215Y-102230946D01*
X73943446Y-102552853D01*
X73723500Y-102882026D01*
X73503554Y-102552853D01*
X73021785Y-102230946D01*
X72453500Y-102117907D01*
X71885215Y-102230946D01*
X71403446Y-102552853D01*
X71175798Y-102893553D01*
X71108683Y-102750642D01*
X70680424Y-102360355D01*
X70270390Y-102190524D01*
X70040500Y-102311845D01*
X70040500Y-103505000D01*
X70060500Y-103505000D01*
X70060500Y-103759000D01*
X70040500Y-103759000D01*
X70040500Y-103779000D01*
X69786500Y-103779000D01*
X69786500Y-103759000D01*
X68592681Y-103759000D01*
X68472014Y-103988892D01*
X68718317Y-104513358D01*
X69146576Y-104903645D01*
X69146601Y-104903655D01*
X68863446Y-105092853D01*
X68541539Y-105574622D01*
X68428500Y-106142907D01*
X68428500Y-106201093D01*
X68541539Y-106769378D01*
X68863446Y-107251147D01*
X69323850Y-107558778D01*
X69067057Y-107664883D01*
X68803808Y-107927673D01*
X68661162Y-108271201D01*
X68660838Y-108643167D01*
X68802883Y-108986943D01*
X69065673Y-109250192D01*
X69409201Y-109392838D01*
X69456077Y-109392879D01*
X71217599Y-111154401D01*
X71464161Y-111319148D01*
X71755000Y-111377000D01*
X73741112Y-111377000D01*
X73740887Y-111635000D01*
X73660000Y-111635000D01*
X73369160Y-111692852D01*
X73122599Y-111857599D01*
X72713886Y-112266312D01*
X72390000Y-112201887D01*
X71840849Y-112311120D01*
X71375302Y-112622189D01*
X71120000Y-113004275D01*
X70864698Y-112622189D01*
X70399151Y-112311120D01*
X69850000Y-112201887D01*
X69300849Y-112311120D01*
X68835302Y-112622189D01*
X68524233Y-113087736D01*
X68415000Y-113636887D01*
X68415000Y-113693113D01*
X68524233Y-114242264D01*
X68835302Y-114707811D01*
X69300849Y-115018880D01*
X69850000Y-115128113D01*
X70173886Y-115063688D01*
X71979599Y-116869401D01*
X72226161Y-117034148D01*
X72517000Y-117092000D01*
X73603198Y-117092000D01*
X72450860Y-118244338D01*
X72322799Y-118191162D01*
X71950833Y-118190838D01*
X71607057Y-118332883D01*
X71343808Y-118595673D01*
X71201162Y-118939201D01*
X71200887Y-119255000D01*
X71120000Y-119255000D01*
X70829160Y-119312852D01*
X70582599Y-119477599D01*
X70222638Y-119837560D01*
X69050000Y-119837560D01*
X68814683Y-119881838D01*
X68598559Y-120020910D01*
X68453569Y-120233110D01*
X68402560Y-120485000D01*
X68402560Y-122085000D01*
X68446838Y-122320317D01*
X68585910Y-122536441D01*
X68798110Y-122681431D01*
X69050000Y-122732440D01*
X70650000Y-122732440D01*
X70885317Y-122688162D01*
X71101441Y-122549090D01*
X71246431Y-122336890D01*
X71277815Y-122181911D01*
X71375302Y-122327811D01*
X71840849Y-122638880D01*
X72390000Y-122748113D01*
X72713886Y-122683688D01*
X75898153Y-125867955D01*
X75797271Y-125909638D01*
X75401182Y-126305036D01*
X75007963Y-125911130D01*
X74453175Y-125680762D01*
X73852460Y-125680238D01*
X73297271Y-125909638D01*
X72901182Y-126305036D01*
X72507963Y-125911130D01*
X71953175Y-125680762D01*
X71352460Y-125680238D01*
X70797271Y-125909638D01*
X70619297Y-126087302D01*
X70564827Y-125955801D01*
X70386198Y-125777173D01*
X70152809Y-125680500D01*
X69437250Y-125680500D01*
X69278500Y-125839250D01*
X69278500Y-127063500D01*
X69298500Y-127063500D01*
X69298500Y-127317500D01*
X69278500Y-127317500D01*
X69278500Y-127337500D01*
X69024500Y-127337500D01*
X69024500Y-127317500D01*
X67800250Y-127317500D01*
X67641500Y-127476250D01*
X67641500Y-128140390D01*
X67406808Y-128374673D01*
X67264162Y-128718201D01*
X67263838Y-129090167D01*
X67405883Y-129433943D01*
X67668673Y-129697192D01*
X68012201Y-129839838D01*
X68130421Y-129839941D01*
X68162160Y-129861148D01*
X68453000Y-129919000D01*
X83511537Y-129919000D01*
X83543673Y-129951192D01*
X83887201Y-130093838D01*
X84259167Y-130094162D01*
X84602943Y-129952117D01*
X84866192Y-129689327D01*
X85008838Y-129345799D01*
X85009162Y-128973833D01*
X84867117Y-128630057D01*
X84604327Y-128366808D01*
X84565663Y-128350753D01*
X84589260Y-128293786D01*
X84765037Y-128469870D01*
X85319825Y-128700238D01*
X85920540Y-128700762D01*
X86475729Y-128471362D01*
X86871818Y-128075964D01*
X87265037Y-128469870D01*
X87819825Y-128700238D01*
X88420540Y-128700762D01*
X88975729Y-128471362D01*
X89371818Y-128075964D01*
X89765037Y-128469870D01*
X90319825Y-128700238D01*
X90920540Y-128700762D01*
X91475729Y-128471362D01*
X91900870Y-128046963D01*
X92131238Y-127492175D01*
X92131762Y-126891460D01*
X92018357Y-126617000D01*
X96788000Y-126617000D01*
X96788000Y-126904750D01*
X96946750Y-127063500D01*
X98171000Y-127063500D01*
X98171000Y-127043500D01*
X98425000Y-127043500D01*
X98425000Y-127063500D01*
X98445000Y-127063500D01*
X98445000Y-127317500D01*
X98425000Y-127317500D01*
X98425000Y-127337500D01*
X98171000Y-127337500D01*
X98171000Y-127317500D01*
X96946750Y-127317500D01*
X96788000Y-127476250D01*
X96788000Y-128191810D01*
X96884673Y-128425199D01*
X97063302Y-128603827D01*
X97124585Y-128629211D01*
X96982162Y-128972201D01*
X96981838Y-129344167D01*
X97123883Y-129687943D01*
X97386673Y-129951192D01*
X97730201Y-130093838D01*
X98102167Y-130094162D01*
X98445943Y-129952117D01*
X98479118Y-129919000D01*
X106426000Y-129919000D01*
X106716839Y-129861148D01*
X106825976Y-129788225D01*
X107097839Y-129734148D01*
X107260809Y-129625255D01*
X107351839Y-129607148D01*
X107598401Y-129442401D01*
X107756802Y-129284000D01*
X113538000Y-129284000D01*
X113828839Y-129226148D01*
X114075401Y-129061401D01*
X114445296Y-128691506D01*
X114466325Y-128700238D01*
X115067040Y-128700762D01*
X115622229Y-128471362D01*
X116018318Y-128075964D01*
X116411537Y-128469870D01*
X116966325Y-128700238D01*
X117567040Y-128700762D01*
X118122229Y-128471362D01*
X118518318Y-128075964D01*
X118911537Y-128469870D01*
X119466325Y-128700238D01*
X120067040Y-128700762D01*
X120622229Y-128471362D01*
X121047370Y-128046963D01*
X121277738Y-127492175D01*
X121278262Y-126891460D01*
X121048862Y-126336271D01*
X120624463Y-125911130D01*
X120069675Y-125680762D01*
X119468960Y-125680238D01*
X118963070Y-125889268D01*
X118520401Y-125446599D01*
X118273839Y-125281852D01*
X118001976Y-125227775D01*
X117892839Y-125154852D01*
X117602000Y-125097000D01*
X105216802Y-125097000D01*
X105212802Y-125093000D01*
X113792000Y-125093000D01*
X114082839Y-125035148D01*
X114245809Y-124926255D01*
X114336839Y-124908148D01*
X114583401Y-124743401D01*
X117027802Y-122299000D01*
X122119537Y-122299000D01*
X122151673Y-122331192D01*
X122495201Y-122473838D01*
X122867167Y-122474162D01*
X123132175Y-122364663D01*
X123274990Y-122710303D01*
X123667630Y-123103629D01*
X123875512Y-123189949D01*
X123669697Y-123274990D01*
X123276371Y-123667630D01*
X123063243Y-124180900D01*
X123062758Y-124736661D01*
X123274990Y-125250303D01*
X123667630Y-125643629D01*
X123958449Y-125764387D01*
X123705620Y-125868854D01*
X123330173Y-126243647D01*
X123126732Y-126733587D01*
X123126269Y-127264086D01*
X123328854Y-127754380D01*
X123703647Y-128129827D01*
X124193587Y-128333268D01*
X124724086Y-128333731D01*
X125214380Y-128131146D01*
X125589827Y-127756353D01*
X125793268Y-127266413D01*
X125793731Y-126735914D01*
X125614236Y-126301500D01*
X130734060Y-126301500D01*
X130734060Y-127698500D01*
X130778338Y-127933817D01*
X130917410Y-128149941D01*
X131129610Y-128294931D01*
X131381500Y-128345940D01*
X132778500Y-128345940D01*
X133013817Y-128301662D01*
X133229941Y-128162590D01*
X133374931Y-127950390D01*
X133425940Y-127698500D01*
X133425940Y-127276661D01*
X135762758Y-127276661D01*
X135974990Y-127790303D01*
X136367630Y-128183629D01*
X136880900Y-128396757D01*
X137436661Y-128397242D01*
X137950303Y-128185010D01*
X138343629Y-127792370D01*
X138464387Y-127501551D01*
X138568854Y-127754380D01*
X138943647Y-128129827D01*
X139433587Y-128333268D01*
X139964086Y-128333731D01*
X140454380Y-128131146D01*
X140829827Y-127756353D01*
X141033268Y-127266413D01*
X141033731Y-126735914D01*
X140831146Y-126245620D01*
X140456353Y-125870173D01*
X140201490Y-125764345D01*
X140490303Y-125645010D01*
X140883629Y-125252370D01*
X140897070Y-125220000D01*
X144465198Y-125220000D01*
X145974060Y-126728862D01*
X145974060Y-127698500D01*
X146018338Y-127933817D01*
X146157410Y-128149941D01*
X146369610Y-128294931D01*
X146621500Y-128345940D01*
X148018500Y-128345940D01*
X148253817Y-128301662D01*
X148469941Y-128162590D01*
X148614931Y-127950390D01*
X148665940Y-127698500D01*
X148665940Y-127276661D01*
X151002758Y-127276661D01*
X151214990Y-127790303D01*
X151607630Y-128183629D01*
X152120900Y-128396757D01*
X152676661Y-128397242D01*
X153190303Y-128185010D01*
X153583629Y-127792370D01*
X153704387Y-127501551D01*
X153808854Y-127754380D01*
X154183647Y-128129827D01*
X154673587Y-128333268D01*
X155204086Y-128333731D01*
X155694380Y-128131146D01*
X156069827Y-127756353D01*
X156273268Y-127266413D01*
X156273615Y-126868417D01*
X156942599Y-127537401D01*
X157189160Y-127702148D01*
X157237414Y-127711746D01*
X157480000Y-127760000D01*
X161225632Y-127760000D01*
X161258338Y-127933817D01*
X161397410Y-128149941D01*
X161609610Y-128294931D01*
X161861500Y-128345940D01*
X163258500Y-128345940D01*
X163493817Y-128301662D01*
X163709941Y-128162590D01*
X163801827Y-128028109D01*
X171369657Y-128028109D01*
X171671218Y-128757943D01*
X172229120Y-129316819D01*
X172958427Y-129619654D01*
X173748109Y-129620343D01*
X174477943Y-129318782D01*
X175036819Y-128760880D01*
X175339654Y-128031573D01*
X175340343Y-127241891D01*
X175038782Y-126512057D01*
X174480880Y-125953181D01*
X173751573Y-125650346D01*
X172961891Y-125649657D01*
X172232057Y-125951218D01*
X171673181Y-126509120D01*
X171370346Y-127238427D01*
X171369657Y-128028109D01*
X163801827Y-128028109D01*
X163854931Y-127950390D01*
X163905940Y-127698500D01*
X163905940Y-126301500D01*
X163861662Y-126066183D01*
X163722590Y-125850059D01*
X163510390Y-125705069D01*
X163258500Y-125654060D01*
X161861500Y-125654060D01*
X161626183Y-125698338D01*
X161410059Y-125837410D01*
X161265069Y-126049610D01*
X161226514Y-126240000D01*
X157794802Y-126240000D01*
X156324183Y-124769381D01*
X156336757Y-124739100D01*
X156337242Y-124183339D01*
X156125010Y-123669697D01*
X155732370Y-123276371D01*
X155524488Y-123190051D01*
X155730303Y-123105010D01*
X156123629Y-122712370D01*
X156336757Y-122199100D01*
X156336759Y-122196661D01*
X163702758Y-122196661D01*
X163914990Y-122710303D01*
X164307630Y-123103629D01*
X164515512Y-123189949D01*
X164309697Y-123274990D01*
X163916371Y-123667630D01*
X163703243Y-124180900D01*
X163702758Y-124736661D01*
X163914990Y-125250303D01*
X164307630Y-125643629D01*
X164820900Y-125856757D01*
X165376661Y-125857242D01*
X165890303Y-125645010D01*
X166283629Y-125252370D01*
X166496757Y-124739100D01*
X166497242Y-124183339D01*
X166285010Y-123669697D01*
X165892370Y-123276371D01*
X165684488Y-123190051D01*
X165890303Y-123105010D01*
X166283629Y-122712370D01*
X166496757Y-122199100D01*
X166497242Y-121643339D01*
X166285010Y-121129697D01*
X165892370Y-120736371D01*
X165379100Y-120523243D01*
X164823339Y-120522758D01*
X164309697Y-120734990D01*
X163916371Y-121127630D01*
X163703243Y-121640900D01*
X163702758Y-122196661D01*
X156336759Y-122196661D01*
X156337242Y-121643339D01*
X156125010Y-121129697D01*
X155732370Y-120736371D01*
X155219100Y-120523243D01*
X154663339Y-120522758D01*
X154149697Y-120734990D01*
X153756371Y-121127630D01*
X153543243Y-121640900D01*
X153542758Y-122196661D01*
X153754990Y-122710303D01*
X154147630Y-123103629D01*
X154355512Y-123189949D01*
X154149697Y-123274990D01*
X153756371Y-123667630D01*
X153543243Y-124180900D01*
X153542758Y-124736661D01*
X153754990Y-125250303D01*
X154147630Y-125643629D01*
X154438449Y-125764387D01*
X154185620Y-125868854D01*
X153810173Y-126243647D01*
X153704345Y-126498510D01*
X153585010Y-126209697D01*
X153192370Y-125816371D01*
X152679100Y-125603243D01*
X152123339Y-125602758D01*
X151609697Y-125814990D01*
X151216371Y-126207630D01*
X151003243Y-126720900D01*
X151002758Y-127276661D01*
X148665940Y-127276661D01*
X148665940Y-126301500D01*
X148621662Y-126066183D01*
X148482590Y-125850059D01*
X148270390Y-125705069D01*
X148018500Y-125654060D01*
X147048862Y-125654060D01*
X145317401Y-123922599D01*
X145070839Y-123757852D01*
X144780000Y-123700000D01*
X140897531Y-123700000D01*
X140885010Y-123669697D01*
X140492370Y-123276371D01*
X140284488Y-123190051D01*
X140490303Y-123105010D01*
X140883629Y-122712370D01*
X141096757Y-122199100D01*
X141096759Y-122196661D01*
X148462758Y-122196661D01*
X148674990Y-122710303D01*
X149067630Y-123103629D01*
X149275512Y-123189949D01*
X149069697Y-123274990D01*
X148676371Y-123667630D01*
X148463243Y-124180900D01*
X148462758Y-124736661D01*
X148674990Y-125250303D01*
X149067630Y-125643629D01*
X149580900Y-125856757D01*
X150136661Y-125857242D01*
X150650303Y-125645010D01*
X151043629Y-125252370D01*
X151256757Y-124739100D01*
X151257242Y-124183339D01*
X151045010Y-123669697D01*
X150652370Y-123276371D01*
X150444488Y-123190051D01*
X150650303Y-123105010D01*
X151043629Y-122712370D01*
X151256757Y-122199100D01*
X151257242Y-121643339D01*
X151045010Y-121129697D01*
X150652370Y-120736371D01*
X150139100Y-120523243D01*
X149583339Y-120522758D01*
X149069697Y-120734990D01*
X148676371Y-121127630D01*
X148463243Y-121640900D01*
X148462758Y-122196661D01*
X141096759Y-122196661D01*
X141097242Y-121643339D01*
X140885010Y-121129697D01*
X140492370Y-120736371D01*
X139979100Y-120523243D01*
X139423339Y-120522758D01*
X138909697Y-120734990D01*
X138516371Y-121127630D01*
X138303243Y-121640900D01*
X138302758Y-122196661D01*
X138514990Y-122710303D01*
X138907630Y-123103629D01*
X139115512Y-123189949D01*
X138909697Y-123274990D01*
X138516371Y-123667630D01*
X138303243Y-124180900D01*
X138302758Y-124736661D01*
X138514990Y-125250303D01*
X138907630Y-125643629D01*
X139198449Y-125764387D01*
X138945620Y-125868854D01*
X138570173Y-126243647D01*
X138464345Y-126498510D01*
X138345010Y-126209697D01*
X137952370Y-125816371D01*
X137439100Y-125603243D01*
X136883339Y-125602758D01*
X136369697Y-125814990D01*
X135976371Y-126207630D01*
X135763243Y-126720900D01*
X135762758Y-127276661D01*
X133425940Y-127276661D01*
X133425940Y-126301500D01*
X133381662Y-126066183D01*
X133242590Y-125850059D01*
X133030390Y-125705069D01*
X132778500Y-125654060D01*
X131381500Y-125654060D01*
X131146183Y-125698338D01*
X130930059Y-125837410D01*
X130785069Y-126049610D01*
X130734060Y-126301500D01*
X125614236Y-126301500D01*
X125591146Y-126245620D01*
X125216353Y-125870173D01*
X124961490Y-125764345D01*
X125250303Y-125645010D01*
X125643629Y-125252370D01*
X125856757Y-124739100D01*
X125857242Y-124183339D01*
X125843857Y-124150945D01*
X126885680Y-123109122D01*
X126931167Y-123109162D01*
X127274943Y-122967117D01*
X127538192Y-122704327D01*
X127680838Y-122360799D01*
X127680980Y-122196661D01*
X133222758Y-122196661D01*
X133434990Y-122710303D01*
X133827630Y-123103629D01*
X134035512Y-123189949D01*
X133829697Y-123274990D01*
X133436371Y-123667630D01*
X133223243Y-124180900D01*
X133222758Y-124736661D01*
X133434990Y-125250303D01*
X133827630Y-125643629D01*
X134340900Y-125856757D01*
X134896661Y-125857242D01*
X135410303Y-125645010D01*
X135803629Y-125252370D01*
X136016757Y-124739100D01*
X136017242Y-124183339D01*
X135805010Y-123669697D01*
X135412370Y-123276371D01*
X135204488Y-123190051D01*
X135410303Y-123105010D01*
X135803629Y-122712370D01*
X136016757Y-122199100D01*
X136017242Y-121643339D01*
X135805010Y-121129697D01*
X135412370Y-120736371D01*
X134899100Y-120523243D01*
X134343339Y-120522758D01*
X133829697Y-120734990D01*
X133436371Y-121127630D01*
X133223243Y-121640900D01*
X133222758Y-122196661D01*
X127680980Y-122196661D01*
X127681162Y-121988833D01*
X127539117Y-121645057D01*
X127276327Y-121381808D01*
X126932799Y-121239162D01*
X126560833Y-121238838D01*
X126217057Y-121380883D01*
X125953808Y-121643673D01*
X125857038Y-121876719D01*
X125857242Y-121643339D01*
X125645010Y-121129697D01*
X125252370Y-120736371D01*
X124739100Y-120523243D01*
X124183339Y-120522758D01*
X123669697Y-120734990D01*
X123621851Y-120782752D01*
X123824757Y-120294100D01*
X123825242Y-119738339D01*
X123728829Y-119505000D01*
X127635000Y-119505000D01*
X127925839Y-119447148D01*
X128172401Y-119282401D01*
X129219802Y-118235000D01*
X132772005Y-118235000D01*
X132942189Y-118489698D01*
X133407736Y-118800767D01*
X133956887Y-118910000D01*
X134013113Y-118910000D01*
X134290102Y-118854904D01*
X135970878Y-120535680D01*
X135970838Y-120581167D01*
X136112883Y-120924943D01*
X136375673Y-121188192D01*
X136719201Y-121330838D01*
X137091167Y-121331162D01*
X137434943Y-121189117D01*
X137698192Y-120926327D01*
X137840838Y-120582799D01*
X137841162Y-120210833D01*
X137699117Y-119867057D01*
X137436327Y-119603808D01*
X137092799Y-119461162D01*
X137045923Y-119461121D01*
X135383688Y-117798886D01*
X135448113Y-117475000D01*
X135346668Y-116965000D01*
X135762890Y-116965000D01*
X135762758Y-117116661D01*
X135974990Y-117630303D01*
X136367630Y-118023629D01*
X136880900Y-118236757D01*
X137436661Y-118237242D01*
X137950303Y-118025010D01*
X138343629Y-117632370D01*
X138556757Y-117119100D01*
X138557242Y-116563339D01*
X138513304Y-116457000D01*
X139512198Y-116457000D01*
X139797599Y-116742401D01*
X140044161Y-116907148D01*
X140246821Y-116947460D01*
X140141887Y-117475000D01*
X140251120Y-118024151D01*
X140562189Y-118489698D01*
X141027736Y-118800767D01*
X141576887Y-118910000D01*
X141633113Y-118910000D01*
X142182264Y-118800767D01*
X142647811Y-118489698D01*
X142958880Y-118024151D01*
X143068113Y-117475000D01*
X142966668Y-116965000D01*
X147863332Y-116965000D01*
X147761887Y-117475000D01*
X147871120Y-118024151D01*
X148182189Y-118489698D01*
X148647736Y-118800767D01*
X149196887Y-118910000D01*
X149253113Y-118910000D01*
X149802264Y-118800767D01*
X150267811Y-118489698D01*
X150578880Y-118024151D01*
X150688113Y-117475000D01*
X150586668Y-116965000D01*
X151002890Y-116965000D01*
X151002758Y-117116661D01*
X151214990Y-117630303D01*
X151607630Y-118023629D01*
X152120900Y-118236757D01*
X152676661Y-118237242D01*
X153190303Y-118025010D01*
X153583629Y-117632370D01*
X153648974Y-117475000D01*
X155381887Y-117475000D01*
X155491120Y-118024151D01*
X155802189Y-118489698D01*
X156267736Y-118800767D01*
X156816887Y-118910000D01*
X156873113Y-118910000D01*
X157422264Y-118800767D01*
X157887811Y-118489698D01*
X158198880Y-118024151D01*
X158308113Y-117475000D01*
X163001887Y-117475000D01*
X163111120Y-118024151D01*
X163422189Y-118489698D01*
X163887736Y-118800767D01*
X164436887Y-118910000D01*
X164493113Y-118910000D01*
X165042264Y-118800767D01*
X165507811Y-118489698D01*
X165818880Y-118024151D01*
X165928113Y-117475000D01*
X165818880Y-116925849D01*
X165507811Y-116460302D01*
X165103297Y-116190014D01*
X165320134Y-116087389D01*
X165696041Y-115672423D01*
X165856904Y-115284039D01*
X165847953Y-115267745D01*
X166811861Y-115267745D01*
X166885995Y-115513864D01*
X167423223Y-115706965D01*
X167993454Y-115679778D01*
X168394005Y-115513864D01*
X168468139Y-115267745D01*
X167640000Y-114439605D01*
X166811861Y-115267745D01*
X165847953Y-115267745D01*
X165734915Y-115062000D01*
X164592000Y-115062000D01*
X164592000Y-115082000D01*
X164338000Y-115082000D01*
X164338000Y-115062000D01*
X163195085Y-115062000D01*
X163073096Y-115284039D01*
X163233959Y-115672423D01*
X163609866Y-116087389D01*
X163826703Y-116190014D01*
X163422189Y-116460302D01*
X163111120Y-116925849D01*
X163001887Y-117475000D01*
X158308113Y-117475000D01*
X158198880Y-116925849D01*
X157887811Y-116460302D01*
X157483297Y-116190014D01*
X157700134Y-116087389D01*
X158076041Y-115672423D01*
X158236904Y-115284039D01*
X158114915Y-115062000D01*
X156972000Y-115062000D01*
X156972000Y-115082000D01*
X156718000Y-115082000D01*
X156718000Y-115062000D01*
X155575085Y-115062000D01*
X155453096Y-115284039D01*
X155613959Y-115672423D01*
X155989866Y-116087389D01*
X156206703Y-116190014D01*
X155802189Y-116460302D01*
X155491120Y-116925849D01*
X155381887Y-117475000D01*
X153648974Y-117475000D01*
X153796757Y-117119100D01*
X153797242Y-116563339D01*
X153585010Y-116049697D01*
X153192370Y-115656371D01*
X153001402Y-115577074D01*
X153154005Y-115513864D01*
X153228139Y-115267745D01*
X152400000Y-114439605D01*
X151571861Y-115267745D01*
X151625252Y-115445000D01*
X150550236Y-115445000D01*
X150616904Y-115284039D01*
X150494915Y-115062000D01*
X149352000Y-115062000D01*
X149352000Y-115082000D01*
X149098000Y-115082000D01*
X149098000Y-115062000D01*
X147955085Y-115062000D01*
X147833096Y-115284039D01*
X147899764Y-115445000D01*
X142930236Y-115445000D01*
X142996904Y-115284039D01*
X142874915Y-115062000D01*
X141732000Y-115062000D01*
X141732000Y-115082000D01*
X141478000Y-115082000D01*
X141478000Y-115062000D01*
X140335085Y-115062000D01*
X140303734Y-115119063D01*
X140117839Y-114994852D01*
X139827000Y-114937000D01*
X138441543Y-114937000D01*
X138606965Y-114476777D01*
X138579778Y-113906546D01*
X138413864Y-113505995D01*
X138167745Y-113431861D01*
X137339605Y-114260000D01*
X137353748Y-114274142D01*
X137174142Y-114453748D01*
X137160000Y-114439605D01*
X137145858Y-114453748D01*
X136966252Y-114274142D01*
X136980395Y-114260000D01*
X136152255Y-113431861D01*
X135906136Y-113505995D01*
X135713035Y-114043223D01*
X135740222Y-114613454D01*
X135906136Y-115014005D01*
X136112478Y-115076158D01*
X135987599Y-115159599D01*
X135702198Y-115445000D01*
X135310236Y-115445000D01*
X135376904Y-115284039D01*
X135254915Y-115062000D01*
X134112000Y-115062000D01*
X134112000Y-115082000D01*
X133858000Y-115082000D01*
X133858000Y-115062000D01*
X132715085Y-115062000D01*
X132593096Y-115284039D01*
X132659764Y-115445000D01*
X127726668Y-115445000D01*
X127828113Y-114935000D01*
X127718880Y-114385849D01*
X127407811Y-113920302D01*
X127263535Y-113823899D01*
X127400317Y-113798162D01*
X127616441Y-113659090D01*
X127761431Y-113446890D01*
X127812440Y-113195000D01*
X127812440Y-112377242D01*
X128367599Y-112932401D01*
X128614160Y-113097148D01*
X128905000Y-113155000D01*
X132772005Y-113155000D01*
X132942189Y-113409698D01*
X133346703Y-113679986D01*
X133129866Y-113782611D01*
X132753959Y-114197577D01*
X132593096Y-114585961D01*
X132715085Y-114808000D01*
X133858000Y-114808000D01*
X133858000Y-114788000D01*
X134112000Y-114788000D01*
X134112000Y-114808000D01*
X135254915Y-114808000D01*
X135376904Y-114585961D01*
X135216041Y-114197577D01*
X134840134Y-113782611D01*
X134623297Y-113679986D01*
X135027811Y-113409698D01*
X135338880Y-112944151D01*
X135423249Y-112520000D01*
X135921354Y-112520000D01*
X135942757Y-112571800D01*
X136346077Y-112975824D01*
X136412544Y-113003423D01*
X136405995Y-113006136D01*
X136331861Y-113252255D01*
X137160000Y-114080395D01*
X137988139Y-113252255D01*
X137914005Y-113006136D01*
X137907517Y-113003804D01*
X137971800Y-112977243D01*
X138375824Y-112573923D01*
X138594750Y-112046691D01*
X138594891Y-111885000D01*
X140157560Y-111885000D01*
X140157560Y-113195000D01*
X140201838Y-113430317D01*
X140340910Y-113646441D01*
X140553110Y-113791431D01*
X140712616Y-113823732D01*
X140373959Y-114197577D01*
X140213096Y-114585961D01*
X140335085Y-114808000D01*
X141478000Y-114808000D01*
X141478000Y-114788000D01*
X141732000Y-114788000D01*
X141732000Y-114808000D01*
X142874915Y-114808000D01*
X142996904Y-114585961D01*
X142836041Y-114197577D01*
X142498410Y-113824864D01*
X142640317Y-113798162D01*
X142856441Y-113659090D01*
X143001431Y-113446890D01*
X143052440Y-113195000D01*
X143052440Y-112377242D01*
X143607599Y-112932401D01*
X143854160Y-113097148D01*
X144145000Y-113155000D01*
X144233953Y-113155000D01*
X143997057Y-113252883D01*
X143733808Y-113515673D01*
X143591162Y-113859201D01*
X143590838Y-114231167D01*
X143732883Y-114574943D01*
X143995673Y-114838192D01*
X144339201Y-114980838D01*
X144711167Y-114981162D01*
X145054943Y-114839117D01*
X145088118Y-114806000D01*
X145669000Y-114806000D01*
X145959839Y-114748148D01*
X146206401Y-114583401D01*
X146570680Y-114219122D01*
X146616167Y-114219162D01*
X146959943Y-114077117D01*
X147223192Y-113814327D01*
X147365838Y-113470799D01*
X147366113Y-113155000D01*
X148012005Y-113155000D01*
X148182189Y-113409698D01*
X148586703Y-113679986D01*
X148369866Y-113782611D01*
X147993959Y-114197577D01*
X147833096Y-114585961D01*
X147955085Y-114808000D01*
X149098000Y-114808000D01*
X149098000Y-114788000D01*
X149352000Y-114788000D01*
X149352000Y-114808000D01*
X150494915Y-114808000D01*
X150616904Y-114585961D01*
X150456041Y-114197577D01*
X150316216Y-114043223D01*
X150953035Y-114043223D01*
X150980222Y-114613454D01*
X151146136Y-115014005D01*
X151392255Y-115088139D01*
X152220395Y-114260000D01*
X152579605Y-114260000D01*
X153407745Y-115088139D01*
X153653864Y-115014005D01*
X153846965Y-114476777D01*
X153819778Y-113906546D01*
X153653864Y-113505995D01*
X153407745Y-113431861D01*
X152579605Y-114260000D01*
X152220395Y-114260000D01*
X151392255Y-113431861D01*
X151146136Y-113505995D01*
X150953035Y-114043223D01*
X150316216Y-114043223D01*
X150080134Y-113782611D01*
X149863297Y-113679986D01*
X150267811Y-113409698D01*
X150578880Y-112944151D01*
X150663249Y-112520000D01*
X151161354Y-112520000D01*
X151182757Y-112571800D01*
X151586077Y-112975824D01*
X151652544Y-113003423D01*
X151645995Y-113006136D01*
X151571861Y-113252255D01*
X152400000Y-114080395D01*
X153228139Y-113252255D01*
X153154005Y-113006136D01*
X153147517Y-113003804D01*
X153211800Y-112977243D01*
X153615824Y-112573923D01*
X153834750Y-112046691D01*
X153834891Y-111885000D01*
X155397560Y-111885000D01*
X155397560Y-113195000D01*
X155441838Y-113430317D01*
X155580910Y-113646441D01*
X155793110Y-113791431D01*
X155952616Y-113823732D01*
X155613959Y-114197577D01*
X155453096Y-114585961D01*
X155575085Y-114808000D01*
X156718000Y-114808000D01*
X156718000Y-114788000D01*
X156972000Y-114788000D01*
X156972000Y-114808000D01*
X158114915Y-114808000D01*
X158236904Y-114585961D01*
X158076041Y-114197577D01*
X157738410Y-113824864D01*
X157880317Y-113798162D01*
X158096441Y-113659090D01*
X158241431Y-113446890D01*
X158292440Y-113195000D01*
X158292440Y-112377242D01*
X158847599Y-112932401D01*
X159094160Y-113097148D01*
X159385000Y-113155000D01*
X159473953Y-113155000D01*
X159237057Y-113252883D01*
X158973808Y-113515673D01*
X158831162Y-113859201D01*
X158830838Y-114231167D01*
X158972883Y-114574943D01*
X159235673Y-114838192D01*
X159579201Y-114980838D01*
X159951167Y-114981162D01*
X160294943Y-114839117D01*
X160558192Y-114576327D01*
X160700838Y-114232799D01*
X160700879Y-114185923D01*
X160842802Y-114044000D01*
X160981537Y-114044000D01*
X161013673Y-114076192D01*
X161357201Y-114218838D01*
X161729167Y-114219162D01*
X162072943Y-114077117D01*
X162336192Y-113814327D01*
X162478838Y-113470799D01*
X162479113Y-113155000D01*
X163252005Y-113155000D01*
X163422189Y-113409698D01*
X163826703Y-113679986D01*
X163609866Y-113782611D01*
X163233959Y-114197577D01*
X163073096Y-114585961D01*
X163195085Y-114808000D01*
X164338000Y-114808000D01*
X164338000Y-114788000D01*
X164592000Y-114788000D01*
X164592000Y-114808000D01*
X165734915Y-114808000D01*
X165856904Y-114585961D01*
X165696041Y-114197577D01*
X165556216Y-114043223D01*
X166193035Y-114043223D01*
X166220222Y-114613454D01*
X166386136Y-115014005D01*
X166632255Y-115088139D01*
X167460395Y-114260000D01*
X167819605Y-114260000D01*
X168647745Y-115088139D01*
X168893864Y-115014005D01*
X169086965Y-114476777D01*
X169059778Y-113906546D01*
X168893864Y-113505995D01*
X168647745Y-113431861D01*
X167819605Y-114260000D01*
X167460395Y-114260000D01*
X166632255Y-113431861D01*
X166386136Y-113505995D01*
X166193035Y-114043223D01*
X165556216Y-114043223D01*
X165320134Y-113782611D01*
X165103297Y-113679986D01*
X165507811Y-113409698D01*
X165818880Y-112944151D01*
X165903249Y-112520000D01*
X166401354Y-112520000D01*
X166422757Y-112571800D01*
X166826077Y-112975824D01*
X166892544Y-113003423D01*
X166885995Y-113006136D01*
X166811861Y-113252255D01*
X167640000Y-114080395D01*
X168468139Y-113252255D01*
X168394005Y-113006136D01*
X168387517Y-113003804D01*
X168451800Y-112977243D01*
X168855824Y-112573923D01*
X169074750Y-112046691D01*
X169075248Y-111475813D01*
X168857243Y-110948200D01*
X168453923Y-110544176D01*
X167926691Y-110325250D01*
X167355813Y-110324752D01*
X166828200Y-110542757D01*
X166424176Y-110946077D01*
X166401785Y-111000000D01*
X165100000Y-111000000D01*
X164897104Y-111040359D01*
X164493113Y-110960000D01*
X164436887Y-110960000D01*
X163887736Y-111069233D01*
X163422189Y-111380302D01*
X163252005Y-111635000D01*
X159699802Y-111635000D01*
X158652401Y-110587599D01*
X158405839Y-110422852D01*
X158115000Y-110365000D01*
X153035000Y-110365000D01*
X152864227Y-110398969D01*
X152686691Y-110325250D01*
X152115813Y-110324752D01*
X151588200Y-110542757D01*
X151184176Y-110946077D01*
X151161785Y-111000000D01*
X149860000Y-111000000D01*
X149657104Y-111040359D01*
X149253113Y-110960000D01*
X149196887Y-110960000D01*
X148647736Y-111069233D01*
X148182189Y-111380302D01*
X148012005Y-111635000D01*
X144459802Y-111635000D01*
X143412401Y-110587599D01*
X143165839Y-110422852D01*
X142875000Y-110365000D01*
X137795000Y-110365000D01*
X137624227Y-110398969D01*
X137446691Y-110325250D01*
X136875813Y-110324752D01*
X136348200Y-110542757D01*
X135944176Y-110946077D01*
X135921785Y-111000000D01*
X134620000Y-111000000D01*
X134417104Y-111040359D01*
X134013113Y-110960000D01*
X133956887Y-110960000D01*
X133407736Y-111069233D01*
X132942189Y-111380302D01*
X132772005Y-111635000D01*
X129219802Y-111635000D01*
X128172401Y-110587599D01*
X127925839Y-110422852D01*
X127635000Y-110365000D01*
X123728879Y-110365000D01*
X123824757Y-110134100D01*
X123825242Y-109578339D01*
X123613010Y-109064697D01*
X123220370Y-108671371D01*
X122707100Y-108458243D01*
X122151339Y-108457758D01*
X121637697Y-108669990D01*
X121244371Y-109062630D01*
X121230930Y-109095000D01*
X120931683Y-109095000D01*
X120901146Y-109021094D01*
X121061192Y-108861327D01*
X121203838Y-108517799D01*
X121204162Y-108145833D01*
X121062117Y-107802057D01*
X121029000Y-107768882D01*
X121029000Y-105791000D01*
X121012697Y-105709040D01*
X126879738Y-105709040D01*
X127109138Y-106264229D01*
X127533537Y-106689370D01*
X128088325Y-106919738D01*
X128689040Y-106920262D01*
X128790527Y-106878329D01*
X129129599Y-107217401D01*
X129376160Y-107382148D01*
X129667000Y-107440000D01*
X131445000Y-107440000D01*
X131735839Y-107382148D01*
X131898809Y-107273255D01*
X131989839Y-107255148D01*
X132236401Y-107090401D01*
X132606949Y-106719853D01*
X133088325Y-106919738D01*
X133689040Y-106920262D01*
X134244229Y-106690862D01*
X134413103Y-106522283D01*
X134550910Y-106736441D01*
X134763110Y-106881431D01*
X135015000Y-106932440D01*
X136765000Y-106932440D01*
X137000317Y-106888162D01*
X137216441Y-106749090D01*
X137361431Y-106536890D01*
X137374559Y-106472060D01*
X142112545Y-106472060D01*
X142195884Y-106725953D01*
X142760306Y-106931590D01*
X143360458Y-106905579D01*
X143794116Y-106725953D01*
X143877455Y-106472060D01*
X142995000Y-105589605D01*
X142112545Y-106472060D01*
X137374559Y-106472060D01*
X137412440Y-106285000D01*
X137412440Y-105175306D01*
X141473410Y-105175306D01*
X141499421Y-105775458D01*
X141679047Y-106209116D01*
X141932940Y-106292455D01*
X142815395Y-105410000D01*
X143174605Y-105410000D01*
X144057060Y-106292455D01*
X144205648Y-106243682D01*
X144214138Y-106264229D01*
X144638537Y-106689370D01*
X145193325Y-106919738D01*
X145794040Y-106920262D01*
X146349229Y-106690862D01*
X146774370Y-106266463D01*
X146783892Y-106243531D01*
X146932940Y-106292455D01*
X147815395Y-105410000D01*
X146932940Y-104527545D01*
X146784352Y-104576318D01*
X146775862Y-104555771D01*
X146568394Y-104347940D01*
X147112545Y-104347940D01*
X147995000Y-105230395D01*
X148009143Y-105216253D01*
X148188748Y-105395858D01*
X148174605Y-105410000D01*
X148188748Y-105424143D01*
X148009143Y-105603748D01*
X147995000Y-105589605D01*
X147112545Y-106472060D01*
X147195884Y-106725953D01*
X147760306Y-106931590D01*
X148360458Y-106905579D01*
X148794116Y-106725953D01*
X148877454Y-106472062D01*
X148992086Y-106586694D01*
X149033136Y-106545644D01*
X149155910Y-106736441D01*
X149368110Y-106881431D01*
X149620000Y-106932440D01*
X151370000Y-106932440D01*
X151605317Y-106888162D01*
X151821441Y-106749090D01*
X151966431Y-106536890D01*
X151979559Y-106472060D01*
X156717545Y-106472060D01*
X156800884Y-106725953D01*
X157365306Y-106931590D01*
X157965458Y-106905579D01*
X158399116Y-106725953D01*
X158482455Y-106472060D01*
X157600000Y-105589605D01*
X156717545Y-106472060D01*
X151979559Y-106472060D01*
X152017440Y-106285000D01*
X152017440Y-105175306D01*
X156078410Y-105175306D01*
X156104421Y-105775458D01*
X156284047Y-106209116D01*
X156537940Y-106292455D01*
X157420395Y-105410000D01*
X157779605Y-105410000D01*
X158662060Y-106292455D01*
X158810648Y-106243682D01*
X158819138Y-106264229D01*
X159243537Y-106689370D01*
X159798325Y-106919738D01*
X160399040Y-106920262D01*
X160954229Y-106690862D01*
X161379370Y-106266463D01*
X161388892Y-106243531D01*
X161537940Y-106292455D01*
X162420395Y-105410000D01*
X161537940Y-104527545D01*
X161389352Y-104576318D01*
X161380862Y-104555771D01*
X161173394Y-104347940D01*
X161717545Y-104347940D01*
X162600000Y-105230395D01*
X162614143Y-105216253D01*
X162793748Y-105395858D01*
X162779605Y-105410000D01*
X162793748Y-105424143D01*
X162614143Y-105603748D01*
X162600000Y-105589605D01*
X161717545Y-106472060D01*
X161800884Y-106725953D01*
X162365306Y-106931590D01*
X162965458Y-106905579D01*
X163399116Y-106725953D01*
X163482454Y-106472062D01*
X163597086Y-106586694D01*
X163638136Y-106545644D01*
X163760910Y-106736441D01*
X163973110Y-106881431D01*
X164225000Y-106932440D01*
X165975000Y-106932440D01*
X166210317Y-106888162D01*
X166426441Y-106749090D01*
X166571431Y-106536890D01*
X166622440Y-106285000D01*
X166622440Y-105168109D01*
X171369657Y-105168109D01*
X171671218Y-105897943D01*
X172229120Y-106456819D01*
X172958427Y-106759654D01*
X173748109Y-106760343D01*
X174477943Y-106458782D01*
X175036819Y-105900880D01*
X175339654Y-105171573D01*
X175340343Y-104381891D01*
X175038782Y-103652057D01*
X174480880Y-103093181D01*
X173751573Y-102790346D01*
X172961891Y-102789657D01*
X172232057Y-103091218D01*
X171673181Y-103649120D01*
X171370346Y-104378427D01*
X171369657Y-105168109D01*
X166622440Y-105168109D01*
X166622440Y-104535000D01*
X166578162Y-104299683D01*
X166439090Y-104083559D01*
X166226890Y-103938569D01*
X165975000Y-103887560D01*
X164225000Y-103887560D01*
X163989683Y-103931838D01*
X163773559Y-104070910D01*
X163636006Y-104272226D01*
X163597086Y-104233306D01*
X163482454Y-104347938D01*
X163399116Y-104094047D01*
X162834694Y-103888410D01*
X162234542Y-103914421D01*
X161800884Y-104094047D01*
X161717545Y-104347940D01*
X161173394Y-104347940D01*
X160956463Y-104130630D01*
X160401675Y-103900262D01*
X159800960Y-103899738D01*
X159245771Y-104129138D01*
X158820630Y-104553537D01*
X158811108Y-104576469D01*
X158662060Y-104527545D01*
X157779605Y-105410000D01*
X157420395Y-105410000D01*
X156537940Y-104527545D01*
X156284047Y-104610884D01*
X156078410Y-105175306D01*
X152017440Y-105175306D01*
X152017440Y-104535000D01*
X151982243Y-104347940D01*
X156717545Y-104347940D01*
X157600000Y-105230395D01*
X158482455Y-104347940D01*
X158399116Y-104094047D01*
X157834694Y-103888410D01*
X157234542Y-103914421D01*
X156800884Y-104094047D01*
X156717545Y-104347940D01*
X151982243Y-104347940D01*
X151973162Y-104299683D01*
X151834090Y-104083559D01*
X151621890Y-103938569D01*
X151370000Y-103887560D01*
X149620000Y-103887560D01*
X149384683Y-103931838D01*
X149168559Y-104070910D01*
X149031006Y-104272226D01*
X148992086Y-104233306D01*
X148877454Y-104347938D01*
X148794116Y-104094047D01*
X148229694Y-103888410D01*
X147629542Y-103914421D01*
X147195884Y-104094047D01*
X147112545Y-104347940D01*
X146568394Y-104347940D01*
X146351463Y-104130630D01*
X145796675Y-103900262D01*
X145195960Y-103899738D01*
X144640771Y-104129138D01*
X144215630Y-104553537D01*
X144206108Y-104576469D01*
X144057060Y-104527545D01*
X143174605Y-105410000D01*
X142815395Y-105410000D01*
X141932940Y-104527545D01*
X141679047Y-104610884D01*
X141473410Y-105175306D01*
X137412440Y-105175306D01*
X137412440Y-104535000D01*
X137377243Y-104347940D01*
X142112545Y-104347940D01*
X142995000Y-105230395D01*
X143877455Y-104347940D01*
X143794116Y-104094047D01*
X143229694Y-103888410D01*
X142629542Y-103914421D01*
X142195884Y-104094047D01*
X142112545Y-104347940D01*
X137377243Y-104347940D01*
X137368162Y-104299683D01*
X137229090Y-104083559D01*
X137016890Y-103938569D01*
X136765000Y-103887560D01*
X135015000Y-103887560D01*
X134779683Y-103931838D01*
X134563559Y-104070910D01*
X134418569Y-104283110D01*
X134415214Y-104299676D01*
X134246463Y-104130630D01*
X133691675Y-103900262D01*
X133090960Y-103899738D01*
X132535771Y-104129138D01*
X132139682Y-104524536D01*
X131746463Y-104130630D01*
X131191675Y-103900262D01*
X130590960Y-103899738D01*
X130035771Y-104129138D01*
X129639682Y-104524536D01*
X129246463Y-104130630D01*
X128691675Y-103900262D01*
X128090960Y-103899738D01*
X127535771Y-104129138D01*
X127110630Y-104553537D01*
X126880262Y-105108325D01*
X126879738Y-105709040D01*
X121012697Y-105709040D01*
X120971148Y-105500161D01*
X120806401Y-105253599D01*
X120220368Y-104667566D01*
X120209148Y-104611161D01*
X120044401Y-104364599D01*
X119797839Y-104199852D01*
X119670940Y-104174610D01*
X119670940Y-102782000D01*
X119626662Y-102546683D01*
X119487590Y-102330559D01*
X119275390Y-102185569D01*
X119187166Y-102167703D01*
X119324238Y-101837599D01*
X119324401Y-101650000D01*
X176480000Y-101650000D01*
X176480000Y-130760000D01*
X58470000Y-130760000D01*
X58470000Y-128028109D01*
X59609657Y-128028109D01*
X59911218Y-128757943D01*
X60469120Y-129316819D01*
X61198427Y-129619654D01*
X61988109Y-129620343D01*
X62717943Y-129318782D01*
X63276819Y-128760880D01*
X63579654Y-128031573D01*
X63580343Y-127241891D01*
X63278782Y-126512057D01*
X62956478Y-126189190D01*
X67641500Y-126189190D01*
X67641500Y-126904750D01*
X67800250Y-127063500D01*
X69024500Y-127063500D01*
X69024500Y-125839250D01*
X68865750Y-125680500D01*
X68150191Y-125680500D01*
X67916802Y-125777173D01*
X67738173Y-125955801D01*
X67641500Y-126189190D01*
X62956478Y-126189190D01*
X62720880Y-125953181D01*
X61991573Y-125650346D01*
X61201891Y-125649657D01*
X60472057Y-125951218D01*
X59913181Y-126509120D01*
X59610346Y-127238427D01*
X59609657Y-128028109D01*
X58470000Y-128028109D01*
X58470000Y-105168109D01*
X59609657Y-105168109D01*
X59911218Y-105897943D01*
X60469120Y-106456819D01*
X61198427Y-106759654D01*
X61988109Y-106760343D01*
X62717943Y-106458782D01*
X63276819Y-105900880D01*
X63579654Y-105171573D01*
X63580343Y-104381891D01*
X63278782Y-103652057D01*
X62902490Y-103275108D01*
X68472014Y-103275108D01*
X68592681Y-103505000D01*
X69786500Y-103505000D01*
X69786500Y-102311845D01*
X69556610Y-102190524D01*
X69146576Y-102360355D01*
X68718317Y-102750642D01*
X68472014Y-103275108D01*
X62902490Y-103275108D01*
X62720880Y-103093181D01*
X61991573Y-102790346D01*
X61201891Y-102789657D01*
X60472057Y-103091218D01*
X59913181Y-103649120D01*
X59610346Y-104378427D01*
X59609657Y-105168109D01*
X58470000Y-105168109D01*
X58470000Y-101650000D01*
X98818690Y-101650000D01*
X98769161Y-101659852D01*
G36*
X78964599Y-126394401D02*
X79211160Y-126559148D01*
X79259414Y-126568746D01*
X79502000Y-126617000D01*
X81611500Y-126617000D01*
X81611500Y-126904750D01*
X81770250Y-127063500D01*
X82994500Y-127063500D01*
X82994500Y-127043500D01*
X83248500Y-127043500D01*
X83248500Y-127063500D01*
X83268500Y-127063500D01*
X83268500Y-127317500D01*
X83248500Y-127317500D01*
X83248500Y-127337500D01*
X82994500Y-127337500D01*
X82994500Y-127317500D01*
X81770250Y-127317500D01*
X81611500Y-127476250D01*
X81611500Y-128191810D01*
X81697321Y-128399000D01*
X77578218Y-128399000D01*
X77930870Y-128046963D01*
X78161238Y-127492175D01*
X78161516Y-127173161D01*
X78163167Y-127173162D01*
X78506943Y-127031117D01*
X78770192Y-126768327D01*
X78912838Y-126424799D01*
X78912910Y-126342712D01*
X78964599Y-126394401D01*
X78964599Y-126394401D01*
G37*
X78964599Y-126394401D02*
X79211160Y-126559148D01*
X79259414Y-126568746D01*
X79502000Y-126617000D01*
X81611500Y-126617000D01*
X81611500Y-126904750D01*
X81770250Y-127063500D01*
X82994500Y-127063500D01*
X82994500Y-127043500D01*
X83248500Y-127043500D01*
X83248500Y-127063500D01*
X83268500Y-127063500D01*
X83268500Y-127317500D01*
X83248500Y-127317500D01*
X83248500Y-127337500D01*
X82994500Y-127337500D01*
X82994500Y-127317500D01*
X81770250Y-127317500D01*
X81611500Y-127476250D01*
X81611500Y-128191810D01*
X81697321Y-128399000D01*
X77578218Y-128399000D01*
X77930870Y-128046963D01*
X78161238Y-127492175D01*
X78161516Y-127173161D01*
X78163167Y-127173162D01*
X78506943Y-127031117D01*
X78770192Y-126768327D01*
X78912838Y-126424799D01*
X78912910Y-126342712D01*
X78964599Y-126394401D01*
G36*
X110758000Y-126904750D02*
X110916750Y-127063500D01*
X112141000Y-127063500D01*
X112141000Y-127043500D01*
X112395000Y-127043500D01*
X112395000Y-127063500D01*
X112415000Y-127063500D01*
X112415000Y-127317500D01*
X112395000Y-127317500D01*
X112395000Y-127337500D01*
X112141000Y-127337500D01*
X112141000Y-127317500D01*
X110916750Y-127317500D01*
X110758000Y-127476250D01*
X110758000Y-127764000D01*
X107442000Y-127764000D01*
X107172616Y-127817584D01*
X107307738Y-127492175D01*
X107308262Y-126891460D01*
X107194857Y-126617000D01*
X110758000Y-126617000D01*
X110758000Y-126904750D01*
X110758000Y-126904750D01*
G37*
X110758000Y-126904750D02*
X110916750Y-127063500D01*
X112141000Y-127063500D01*
X112141000Y-127043500D01*
X112395000Y-127043500D01*
X112395000Y-127063500D01*
X112415000Y-127063500D01*
X112415000Y-127317500D01*
X112395000Y-127317500D01*
X112395000Y-127337500D01*
X112141000Y-127337500D01*
X112141000Y-127317500D01*
X110916750Y-127317500D01*
X110758000Y-127476250D01*
X110758000Y-127764000D01*
X107442000Y-127764000D01*
X107172616Y-127817584D01*
X107307738Y-127492175D01*
X107308262Y-126891460D01*
X107194857Y-126617000D01*
X110758000Y-126617000D01*
X110758000Y-126904750D01*
G36*
X92837000Y-121158000D02*
X92857000Y-121158000D01*
X92857000Y-121412000D01*
X92837000Y-121412000D01*
X92837000Y-121432000D01*
X92583000Y-121432000D01*
X92583000Y-121412000D01*
X92563000Y-121412000D01*
X92563000Y-121158000D01*
X92583000Y-121158000D01*
X92583000Y-121138000D01*
X92837000Y-121138000D01*
X92837000Y-121158000D01*
X92837000Y-121158000D01*
G37*
X92837000Y-121158000D02*
X92857000Y-121158000D01*
X92857000Y-121412000D01*
X92837000Y-121412000D01*
X92837000Y-121432000D01*
X92583000Y-121432000D01*
X92583000Y-121412000D01*
X92563000Y-121412000D01*
X92563000Y-121158000D01*
X92583000Y-121158000D01*
X92583000Y-121138000D01*
X92837000Y-121138000D01*
X92837000Y-121158000D01*
G36*
X77660500Y-106045000D02*
X77680500Y-106045000D01*
X77680500Y-106299000D01*
X77660500Y-106299000D01*
X77660500Y-107492155D01*
X77890390Y-107613476D01*
X78300424Y-107443645D01*
X78728683Y-107053358D01*
X78795798Y-106910447D01*
X79023446Y-107251147D01*
X79505215Y-107573054D01*
X80073500Y-107686093D01*
X80641785Y-107573054D01*
X81123554Y-107251147D01*
X81351202Y-106910447D01*
X81418317Y-107053358D01*
X81846576Y-107443645D01*
X82256610Y-107613476D01*
X82486500Y-107492155D01*
X82486500Y-106299000D01*
X82466500Y-106299000D01*
X82466500Y-106045000D01*
X82486500Y-106045000D01*
X82486500Y-106025000D01*
X82740500Y-106025000D01*
X82740500Y-106045000D01*
X82760500Y-106045000D01*
X82760500Y-106299000D01*
X82740500Y-106299000D01*
X82740500Y-107492155D01*
X82970390Y-107613476D01*
X83380424Y-107443645D01*
X83808683Y-107053358D01*
X83875798Y-106910447D01*
X84103446Y-107251147D01*
X84585215Y-107573054D01*
X85153500Y-107686093D01*
X85721785Y-107573054D01*
X86203554Y-107251147D01*
X86423500Y-106921974D01*
X86643446Y-107251147D01*
X87125215Y-107573054D01*
X87693500Y-107686093D01*
X88261785Y-107573054D01*
X88743554Y-107251147D01*
X88963500Y-106921974D01*
X89183446Y-107251147D01*
X89665215Y-107573054D01*
X90233500Y-107686093D01*
X90801785Y-107573054D01*
X91283554Y-107251147D01*
X91503500Y-106921974D01*
X91723446Y-107251147D01*
X92205215Y-107573054D01*
X92773500Y-107686093D01*
X93341785Y-107573054D01*
X93823554Y-107251147D01*
X94051202Y-106910447D01*
X94118317Y-107053358D01*
X94546576Y-107443645D01*
X94956610Y-107613476D01*
X95186500Y-107492155D01*
X95186500Y-106299000D01*
X95166500Y-106299000D01*
X95166500Y-106045000D01*
X95186500Y-106045000D01*
X95186500Y-106025000D01*
X95440500Y-106025000D01*
X95440500Y-106045000D01*
X95460500Y-106045000D01*
X95460500Y-106299000D01*
X95440500Y-106299000D01*
X95440500Y-107492155D01*
X95670390Y-107613476D01*
X96080424Y-107443645D01*
X96508683Y-107053358D01*
X96575798Y-106910447D01*
X96803446Y-107251147D01*
X97285215Y-107573054D01*
X97853500Y-107686093D01*
X98421785Y-107573054D01*
X98903554Y-107251147D01*
X99123500Y-106921974D01*
X99343446Y-107251147D01*
X99825215Y-107573054D01*
X100393500Y-107686093D01*
X100961785Y-107573054D01*
X101443554Y-107251147D01*
X101671202Y-106910447D01*
X101738317Y-107053358D01*
X102166576Y-107443645D01*
X102576610Y-107613476D01*
X102806500Y-107492155D01*
X102806500Y-106299000D01*
X102786500Y-106299000D01*
X102786500Y-106045000D01*
X102806500Y-106045000D01*
X102806500Y-106025000D01*
X103060500Y-106025000D01*
X103060500Y-106045000D01*
X103080500Y-106045000D01*
X103080500Y-106299000D01*
X103060500Y-106299000D01*
X103060500Y-107492155D01*
X103290390Y-107613476D01*
X103700424Y-107443645D01*
X104128683Y-107053358D01*
X104195798Y-106910447D01*
X104423446Y-107251147D01*
X104905215Y-107573054D01*
X105473500Y-107686093D01*
X106041785Y-107573054D01*
X106523554Y-107251147D01*
X106743500Y-106921974D01*
X106963446Y-107251147D01*
X107445215Y-107573054D01*
X108013500Y-107686093D01*
X108432873Y-107602675D01*
X108506632Y-107676434D01*
X108517852Y-107732839D01*
X108682599Y-107979401D01*
X108929161Y-108144148D01*
X109220000Y-108202000D01*
X113360889Y-108202000D01*
X113356882Y-108206000D01*
X105718463Y-108206000D01*
X105686327Y-108173808D01*
X105342799Y-108031162D01*
X104970833Y-108030838D01*
X104627057Y-108172883D01*
X104363808Y-108435673D01*
X104221162Y-108779201D01*
X104220887Y-109095000D01*
X100517802Y-109095000D01*
X99597401Y-108174599D01*
X99350839Y-108009852D01*
X99078976Y-107955775D01*
X98969839Y-107882852D01*
X98679000Y-107825000D01*
X97155000Y-107825000D01*
X96864160Y-107882852D01*
X96617599Y-108047599D01*
X96223454Y-108441744D01*
X96171691Y-108420250D01*
X95600813Y-108419752D01*
X95073200Y-108637757D01*
X94669176Y-109041077D01*
X94450250Y-109568309D01*
X94449752Y-110139187D01*
X94667757Y-110666800D01*
X95071077Y-111070824D01*
X95598309Y-111289750D01*
X96169187Y-111290248D01*
X96696800Y-111072243D01*
X96906663Y-110862745D01*
X97556861Y-110862745D01*
X97630995Y-111108864D01*
X98168223Y-111301965D01*
X98738454Y-111274778D01*
X99139005Y-111108864D01*
X99213139Y-110862745D01*
X98385000Y-110034605D01*
X97556861Y-110862745D01*
X96906663Y-110862745D01*
X97100824Y-110668923D01*
X97128423Y-110602456D01*
X97131136Y-110609005D01*
X97377255Y-110683139D01*
X98205395Y-109855000D01*
X98191252Y-109840858D01*
X98370858Y-109661253D01*
X98385000Y-109675395D01*
X98399143Y-109661253D01*
X98578748Y-109840858D01*
X98564605Y-109855000D01*
X99392745Y-110683139D01*
X99638864Y-110609005D01*
X99706820Y-110419944D01*
X99912161Y-110557148D01*
X100203000Y-110615000D01*
X108281500Y-110615000D01*
X108281500Y-110839250D01*
X108440250Y-110998000D01*
X109664500Y-110998000D01*
X109664500Y-110978000D01*
X109918500Y-110978000D01*
X109918500Y-110998000D01*
X111142750Y-110998000D01*
X111301500Y-110839250D01*
X111301500Y-110615000D01*
X115451969Y-110615000D01*
X115464490Y-110645303D01*
X115857130Y-111038629D01*
X116370400Y-111251757D01*
X116926161Y-111252242D01*
X117003489Y-111220291D01*
X117445599Y-111662401D01*
X117692160Y-111827148D01*
X117983000Y-111885000D01*
X124917560Y-111885000D01*
X124917560Y-113195000D01*
X124961838Y-113430317D01*
X125100910Y-113646441D01*
X125313110Y-113791431D01*
X125468089Y-113822815D01*
X125322189Y-113920302D01*
X125011120Y-114385849D01*
X124901887Y-114935000D01*
X124902405Y-114937603D01*
X123600401Y-113635599D01*
X123353839Y-113470852D01*
X123063000Y-113413000D01*
X119926633Y-113413000D01*
X120060838Y-113089799D01*
X120061162Y-112717833D01*
X119919117Y-112374057D01*
X119656327Y-112110808D01*
X119312799Y-111968162D01*
X118940833Y-111967838D01*
X118597057Y-112109883D01*
X118333808Y-112372673D01*
X118191162Y-112716201D01*
X118191121Y-112763077D01*
X110878064Y-120076134D01*
X110676964Y-119874682D01*
X111070870Y-119481463D01*
X111301238Y-118926675D01*
X111301762Y-118325960D01*
X111072362Y-117770771D01*
X110676964Y-117374682D01*
X111070870Y-116981463D01*
X111301238Y-116426675D01*
X111301762Y-115825960D01*
X111072362Y-115270771D01*
X110676964Y-114874682D01*
X111070870Y-114481463D01*
X111301238Y-113926675D01*
X111301762Y-113325960D01*
X111072362Y-112770771D01*
X110894698Y-112592797D01*
X111026199Y-112538327D01*
X111204827Y-112359698D01*
X111301500Y-112126309D01*
X111301500Y-111410750D01*
X111142750Y-111252000D01*
X109918500Y-111252000D01*
X109918500Y-111272000D01*
X109664500Y-111272000D01*
X109664500Y-111252000D01*
X108440250Y-111252000D01*
X108281500Y-111410750D01*
X108281500Y-112126309D01*
X108378173Y-112359698D01*
X108556801Y-112538327D01*
X108688214Y-112592760D01*
X108512130Y-112768537D01*
X108455466Y-112905000D01*
X105724802Y-112905000D01*
X104677401Y-111857599D01*
X104430839Y-111692852D01*
X104140000Y-111635000D01*
X91485888Y-111635000D01*
X91486162Y-111320833D01*
X91344117Y-110977057D01*
X91081327Y-110713808D01*
X90737799Y-110571162D01*
X90365833Y-110570838D01*
X90022057Y-110712883D01*
X89988882Y-110746000D01*
X89468802Y-110746000D01*
X89056401Y-110333599D01*
X88809839Y-110168852D01*
X88718809Y-110150745D01*
X88555839Y-110041852D01*
X88265000Y-109984000D01*
X84754888Y-109984000D01*
X84755162Y-109669833D01*
X84613117Y-109326057D01*
X84350327Y-109062808D01*
X84006799Y-108920162D01*
X83959923Y-108920121D01*
X83849401Y-108809599D01*
X83602839Y-108644852D01*
X83312000Y-108587000D01*
X79937463Y-108587000D01*
X79905327Y-108554808D01*
X79561799Y-108412162D01*
X79189833Y-108411838D01*
X78846057Y-108553883D01*
X78616171Y-108783369D01*
X77353125Y-107520323D01*
X77406500Y-107492155D01*
X77406500Y-106299000D01*
X77386500Y-106299000D01*
X77386500Y-106045000D01*
X77406500Y-106045000D01*
X77406500Y-106025000D01*
X77660500Y-106025000D01*
X77660500Y-106045000D01*
X77660500Y-106045000D01*
G37*
X77660500Y-106045000D02*
X77680500Y-106045000D01*
X77680500Y-106299000D01*
X77660500Y-106299000D01*
X77660500Y-107492155D01*
X77890390Y-107613476D01*
X78300424Y-107443645D01*
X78728683Y-107053358D01*
X78795798Y-106910447D01*
X79023446Y-107251147D01*
X79505215Y-107573054D01*
X80073500Y-107686093D01*
X80641785Y-107573054D01*
X81123554Y-107251147D01*
X81351202Y-106910447D01*
X81418317Y-107053358D01*
X81846576Y-107443645D01*
X82256610Y-107613476D01*
X82486500Y-107492155D01*
X82486500Y-106299000D01*
X82466500Y-106299000D01*
X82466500Y-106045000D01*
X82486500Y-106045000D01*
X82486500Y-106025000D01*
X82740500Y-106025000D01*
X82740500Y-106045000D01*
X82760500Y-106045000D01*
X82760500Y-106299000D01*
X82740500Y-106299000D01*
X82740500Y-107492155D01*
X82970390Y-107613476D01*
X83380424Y-107443645D01*
X83808683Y-107053358D01*
X83875798Y-106910447D01*
X84103446Y-107251147D01*
X84585215Y-107573054D01*
X85153500Y-107686093D01*
X85721785Y-107573054D01*
X86203554Y-107251147D01*
X86423500Y-106921974D01*
X86643446Y-107251147D01*
X87125215Y-107573054D01*
X87693500Y-107686093D01*
X88261785Y-107573054D01*
X88743554Y-107251147D01*
X88963500Y-106921974D01*
X89183446Y-107251147D01*
X89665215Y-107573054D01*
X90233500Y-107686093D01*
X90801785Y-107573054D01*
X91283554Y-107251147D01*
X91503500Y-106921974D01*
X91723446Y-107251147D01*
X92205215Y-107573054D01*
X92773500Y-107686093D01*
X93341785Y-107573054D01*
X93823554Y-107251147D01*
X94051202Y-106910447D01*
X94118317Y-107053358D01*
X94546576Y-107443645D01*
X94956610Y-107613476D01*
X95186500Y-107492155D01*
X95186500Y-106299000D01*
X95166500Y-106299000D01*
X95166500Y-106045000D01*
X95186500Y-106045000D01*
X95186500Y-106025000D01*
X95440500Y-106025000D01*
X95440500Y-106045000D01*
X95460500Y-106045000D01*
X95460500Y-106299000D01*
X95440500Y-106299000D01*
X95440500Y-107492155D01*
X95670390Y-107613476D01*
X96080424Y-107443645D01*
X96508683Y-107053358D01*
X96575798Y-106910447D01*
X96803446Y-107251147D01*
X97285215Y-107573054D01*
X97853500Y-107686093D01*
X98421785Y-107573054D01*
X98903554Y-107251147D01*
X99123500Y-106921974D01*
X99343446Y-107251147D01*
X99825215Y-107573054D01*
X100393500Y-107686093D01*
X100961785Y-107573054D01*
X101443554Y-107251147D01*
X101671202Y-106910447D01*
X101738317Y-107053358D01*
X102166576Y-107443645D01*
X102576610Y-107613476D01*
X102806500Y-107492155D01*
X102806500Y-106299000D01*
X102786500Y-106299000D01*
X102786500Y-106045000D01*
X102806500Y-106045000D01*
X102806500Y-106025000D01*
X103060500Y-106025000D01*
X103060500Y-106045000D01*
X103080500Y-106045000D01*
X103080500Y-106299000D01*
X103060500Y-106299000D01*
X103060500Y-107492155D01*
X103290390Y-107613476D01*
X103700424Y-107443645D01*
X104128683Y-107053358D01*
X104195798Y-106910447D01*
X104423446Y-107251147D01*
X104905215Y-107573054D01*
X105473500Y-107686093D01*
X106041785Y-107573054D01*
X106523554Y-107251147D01*
X106743500Y-106921974D01*
X106963446Y-107251147D01*
X107445215Y-107573054D01*
X108013500Y-107686093D01*
X108432873Y-107602675D01*
X108506632Y-107676434D01*
X108517852Y-107732839D01*
X108682599Y-107979401D01*
X108929161Y-108144148D01*
X109220000Y-108202000D01*
X113360889Y-108202000D01*
X113356882Y-108206000D01*
X105718463Y-108206000D01*
X105686327Y-108173808D01*
X105342799Y-108031162D01*
X104970833Y-108030838D01*
X104627057Y-108172883D01*
X104363808Y-108435673D01*
X104221162Y-108779201D01*
X104220887Y-109095000D01*
X100517802Y-109095000D01*
X99597401Y-108174599D01*
X99350839Y-108009852D01*
X99078976Y-107955775D01*
X98969839Y-107882852D01*
X98679000Y-107825000D01*
X97155000Y-107825000D01*
X96864160Y-107882852D01*
X96617599Y-108047599D01*
X96223454Y-108441744D01*
X96171691Y-108420250D01*
X95600813Y-108419752D01*
X95073200Y-108637757D01*
X94669176Y-109041077D01*
X94450250Y-109568309D01*
X94449752Y-110139187D01*
X94667757Y-110666800D01*
X95071077Y-111070824D01*
X95598309Y-111289750D01*
X96169187Y-111290248D01*
X96696800Y-111072243D01*
X96906663Y-110862745D01*
X97556861Y-110862745D01*
X97630995Y-111108864D01*
X98168223Y-111301965D01*
X98738454Y-111274778D01*
X99139005Y-111108864D01*
X99213139Y-110862745D01*
X98385000Y-110034605D01*
X97556861Y-110862745D01*
X96906663Y-110862745D01*
X97100824Y-110668923D01*
X97128423Y-110602456D01*
X97131136Y-110609005D01*
X97377255Y-110683139D01*
X98205395Y-109855000D01*
X98191252Y-109840858D01*
X98370858Y-109661253D01*
X98385000Y-109675395D01*
X98399143Y-109661253D01*
X98578748Y-109840858D01*
X98564605Y-109855000D01*
X99392745Y-110683139D01*
X99638864Y-110609005D01*
X99706820Y-110419944D01*
X99912161Y-110557148D01*
X100203000Y-110615000D01*
X108281500Y-110615000D01*
X108281500Y-110839250D01*
X108440250Y-110998000D01*
X109664500Y-110998000D01*
X109664500Y-110978000D01*
X109918500Y-110978000D01*
X109918500Y-110998000D01*
X111142750Y-110998000D01*
X111301500Y-110839250D01*
X111301500Y-110615000D01*
X115451969Y-110615000D01*
X115464490Y-110645303D01*
X115857130Y-111038629D01*
X116370400Y-111251757D01*
X116926161Y-111252242D01*
X117003489Y-111220291D01*
X117445599Y-111662401D01*
X117692160Y-111827148D01*
X117983000Y-111885000D01*
X124917560Y-111885000D01*
X124917560Y-113195000D01*
X124961838Y-113430317D01*
X125100910Y-113646441D01*
X125313110Y-113791431D01*
X125468089Y-113822815D01*
X125322189Y-113920302D01*
X125011120Y-114385849D01*
X124901887Y-114935000D01*
X124902405Y-114937603D01*
X123600401Y-113635599D01*
X123353839Y-113470852D01*
X123063000Y-113413000D01*
X119926633Y-113413000D01*
X120060838Y-113089799D01*
X120061162Y-112717833D01*
X119919117Y-112374057D01*
X119656327Y-112110808D01*
X119312799Y-111968162D01*
X118940833Y-111967838D01*
X118597057Y-112109883D01*
X118333808Y-112372673D01*
X118191162Y-112716201D01*
X118191121Y-112763077D01*
X110878064Y-120076134D01*
X110676964Y-119874682D01*
X111070870Y-119481463D01*
X111301238Y-118926675D01*
X111301762Y-118325960D01*
X111072362Y-117770771D01*
X110676964Y-117374682D01*
X111070870Y-116981463D01*
X111301238Y-116426675D01*
X111301762Y-115825960D01*
X111072362Y-115270771D01*
X110676964Y-114874682D01*
X111070870Y-114481463D01*
X111301238Y-113926675D01*
X111301762Y-113325960D01*
X111072362Y-112770771D01*
X110894698Y-112592797D01*
X111026199Y-112538327D01*
X111204827Y-112359698D01*
X111301500Y-112126309D01*
X111301500Y-111410750D01*
X111142750Y-111252000D01*
X109918500Y-111252000D01*
X109918500Y-111272000D01*
X109664500Y-111272000D01*
X109664500Y-111252000D01*
X108440250Y-111252000D01*
X108281500Y-111410750D01*
X108281500Y-112126309D01*
X108378173Y-112359698D01*
X108556801Y-112538327D01*
X108688214Y-112592760D01*
X108512130Y-112768537D01*
X108455466Y-112905000D01*
X105724802Y-112905000D01*
X104677401Y-111857599D01*
X104430839Y-111692852D01*
X104140000Y-111635000D01*
X91485888Y-111635000D01*
X91486162Y-111320833D01*
X91344117Y-110977057D01*
X91081327Y-110713808D01*
X90737799Y-110571162D01*
X90365833Y-110570838D01*
X90022057Y-110712883D01*
X89988882Y-110746000D01*
X89468802Y-110746000D01*
X89056401Y-110333599D01*
X88809839Y-110168852D01*
X88718809Y-110150745D01*
X88555839Y-110041852D01*
X88265000Y-109984000D01*
X84754888Y-109984000D01*
X84755162Y-109669833D01*
X84613117Y-109326057D01*
X84350327Y-109062808D01*
X84006799Y-108920162D01*
X83959923Y-108920121D01*
X83849401Y-108809599D01*
X83602839Y-108644852D01*
X83312000Y-108587000D01*
X79937463Y-108587000D01*
X79905327Y-108554808D01*
X79561799Y-108412162D01*
X79189833Y-108411838D01*
X78846057Y-108553883D01*
X78616171Y-108783369D01*
X77353125Y-107520323D01*
X77406500Y-107492155D01*
X77406500Y-106299000D01*
X77386500Y-106299000D01*
X77386500Y-106045000D01*
X77406500Y-106045000D01*
X77406500Y-106025000D01*
X77660500Y-106025000D01*
X77660500Y-106045000D01*
G36*
X104872599Y-114202401D02*
X105119160Y-114367148D01*
X105410000Y-114425000D01*
X108488231Y-114425000D01*
X108510638Y-114479229D01*
X108906036Y-114875318D01*
X108512130Y-115268537D01*
X108491591Y-115318000D01*
X81971802Y-115318000D01*
X82226114Y-115063688D01*
X82550000Y-115128113D01*
X83099151Y-115018880D01*
X83564698Y-114707811D01*
X83820000Y-114325725D01*
X84075302Y-114707811D01*
X84540849Y-115018880D01*
X85090000Y-115128113D01*
X85639151Y-115018880D01*
X86104698Y-114707811D01*
X86360000Y-114325725D01*
X86615302Y-114707811D01*
X87080849Y-115018880D01*
X87630000Y-115128113D01*
X88179151Y-115018880D01*
X88644698Y-114707811D01*
X88900000Y-114325725D01*
X89155302Y-114707811D01*
X89620849Y-115018880D01*
X90170000Y-115128113D01*
X90719151Y-115018880D01*
X91184698Y-114707811D01*
X91440000Y-114325725D01*
X91695302Y-114707811D01*
X92160849Y-115018880D01*
X92710000Y-115128113D01*
X93259151Y-115018880D01*
X93724698Y-114707811D01*
X93980000Y-114325725D01*
X94235302Y-114707811D01*
X94700849Y-115018880D01*
X95250000Y-115128113D01*
X95799151Y-115018880D01*
X96264698Y-114707811D01*
X96534986Y-114303297D01*
X96637611Y-114520134D01*
X97052577Y-114896041D01*
X97440961Y-115056904D01*
X97663000Y-114934915D01*
X97663000Y-113792000D01*
X97917000Y-113792000D01*
X97917000Y-114934915D01*
X98139039Y-115056904D01*
X98527423Y-114896041D01*
X98942389Y-114520134D01*
X99060000Y-114271633D01*
X99177611Y-114520134D01*
X99592577Y-114896041D01*
X99980961Y-115056904D01*
X100203000Y-114934915D01*
X100203000Y-113792000D01*
X100457000Y-113792000D01*
X100457000Y-114934915D01*
X100679039Y-115056904D01*
X101067423Y-114896041D01*
X101482389Y-114520134D01*
X101600000Y-114271633D01*
X101717611Y-114520134D01*
X102132577Y-114896041D01*
X102520961Y-115056904D01*
X102743000Y-114934915D01*
X102743000Y-113792000D01*
X102997000Y-113792000D01*
X102997000Y-114934915D01*
X103219039Y-115056904D01*
X103607423Y-114896041D01*
X104022389Y-114520134D01*
X104261914Y-114014041D01*
X104140629Y-113792000D01*
X102997000Y-113792000D01*
X102743000Y-113792000D01*
X100457000Y-113792000D01*
X100203000Y-113792000D01*
X97917000Y-113792000D01*
X97663000Y-113792000D01*
X97643000Y-113792000D01*
X97643000Y-113538000D01*
X97663000Y-113538000D01*
X97663000Y-113518000D01*
X97917000Y-113518000D01*
X97917000Y-113538000D01*
X100203000Y-113538000D01*
X100203000Y-113518000D01*
X100457000Y-113518000D01*
X100457000Y-113538000D01*
X102743000Y-113538000D01*
X102743000Y-113518000D01*
X102997000Y-113518000D01*
X102997000Y-113538000D01*
X104140629Y-113538000D01*
X104164499Y-113494301D01*
X104872599Y-114202401D01*
X104872599Y-114202401D01*
G37*
X104872599Y-114202401D02*
X105119160Y-114367148D01*
X105410000Y-114425000D01*
X108488231Y-114425000D01*
X108510638Y-114479229D01*
X108906036Y-114875318D01*
X108512130Y-115268537D01*
X108491591Y-115318000D01*
X81971802Y-115318000D01*
X82226114Y-115063688D01*
X82550000Y-115128113D01*
X83099151Y-115018880D01*
X83564698Y-114707811D01*
X83820000Y-114325725D01*
X84075302Y-114707811D01*
X84540849Y-115018880D01*
X85090000Y-115128113D01*
X85639151Y-115018880D01*
X86104698Y-114707811D01*
X86360000Y-114325725D01*
X86615302Y-114707811D01*
X87080849Y-115018880D01*
X87630000Y-115128113D01*
X88179151Y-115018880D01*
X88644698Y-114707811D01*
X88900000Y-114325725D01*
X89155302Y-114707811D01*
X89620849Y-115018880D01*
X90170000Y-115128113D01*
X90719151Y-115018880D01*
X91184698Y-114707811D01*
X91440000Y-114325725D01*
X91695302Y-114707811D01*
X92160849Y-115018880D01*
X92710000Y-115128113D01*
X93259151Y-115018880D01*
X93724698Y-114707811D01*
X93980000Y-114325725D01*
X94235302Y-114707811D01*
X94700849Y-115018880D01*
X95250000Y-115128113D01*
X95799151Y-115018880D01*
X96264698Y-114707811D01*
X96534986Y-114303297D01*
X96637611Y-114520134D01*
X97052577Y-114896041D01*
X97440961Y-115056904D01*
X97663000Y-114934915D01*
X97663000Y-113792000D01*
X97917000Y-113792000D01*
X97917000Y-114934915D01*
X98139039Y-115056904D01*
X98527423Y-114896041D01*
X98942389Y-114520134D01*
X99060000Y-114271633D01*
X99177611Y-114520134D01*
X99592577Y-114896041D01*
X99980961Y-115056904D01*
X100203000Y-114934915D01*
X100203000Y-113792000D01*
X100457000Y-113792000D01*
X100457000Y-114934915D01*
X100679039Y-115056904D01*
X101067423Y-114896041D01*
X101482389Y-114520134D01*
X101600000Y-114271633D01*
X101717611Y-114520134D01*
X102132577Y-114896041D01*
X102520961Y-115056904D01*
X102743000Y-114934915D01*
X102743000Y-113792000D01*
X102997000Y-113792000D01*
X102997000Y-114934915D01*
X103219039Y-115056904D01*
X103607423Y-114896041D01*
X104022389Y-114520134D01*
X104261914Y-114014041D01*
X104140629Y-113792000D01*
X102997000Y-113792000D01*
X102743000Y-113792000D01*
X100457000Y-113792000D01*
X100203000Y-113792000D01*
X97917000Y-113792000D01*
X97663000Y-113792000D01*
X97643000Y-113792000D01*
X97643000Y-113538000D01*
X97663000Y-113538000D01*
X97663000Y-113518000D01*
X97917000Y-113518000D01*
X97917000Y-113538000D01*
X100203000Y-113538000D01*
X100203000Y-113518000D01*
X100457000Y-113518000D01*
X100457000Y-113538000D01*
X102743000Y-113538000D01*
X102743000Y-113518000D01*
X102997000Y-113518000D01*
X102997000Y-113538000D01*
X104140629Y-113538000D01*
X104164499Y-113494301D01*
X104872599Y-114202401D01*
G36*
X113220500Y-106045000D02*
X113240500Y-106045000D01*
X113240500Y-106299000D01*
X113220500Y-106299000D01*
X113220500Y-106319000D01*
X112966500Y-106319000D01*
X112966500Y-106299000D01*
X112946500Y-106299000D01*
X112946500Y-106045000D01*
X112966500Y-106045000D01*
X112966500Y-106025000D01*
X113220500Y-106025000D01*
X113220500Y-106045000D01*
X113220500Y-106045000D01*
G37*
X113220500Y-106045000D02*
X113240500Y-106045000D01*
X113240500Y-106299000D01*
X113220500Y-106299000D01*
X113220500Y-106319000D01*
X112966500Y-106319000D01*
X112966500Y-106299000D01*
X112946500Y-106299000D01*
X112946500Y-106045000D01*
X112966500Y-106045000D01*
X112966500Y-106025000D01*
X113220500Y-106025000D01*
X113220500Y-106045000D01*
G36*
X112043446Y-104711147D02*
X112326601Y-104900345D01*
X112326576Y-104900355D01*
X111898317Y-105290642D01*
X111831202Y-105433553D01*
X111603554Y-105092853D01*
X111317922Y-104902000D01*
X111603554Y-104711147D01*
X111823500Y-104381974D01*
X112043446Y-104711147D01*
X112043446Y-104711147D01*
G37*
X112043446Y-104711147D02*
X112326601Y-104900345D01*
X112326576Y-104900355D01*
X111898317Y-105290642D01*
X111831202Y-105433553D01*
X111603554Y-105092853D01*
X111317922Y-104902000D01*
X111603554Y-104711147D01*
X111823500Y-104381974D01*
X112043446Y-104711147D01*
G36*
X76483446Y-104711147D02*
X76766601Y-104900345D01*
X76766576Y-104900355D01*
X76338317Y-105290642D01*
X76271202Y-105433553D01*
X76043554Y-105092853D01*
X75757922Y-104902000D01*
X76043554Y-104711147D01*
X76263500Y-104381974D01*
X76483446Y-104711147D01*
X76483446Y-104711147D01*
G37*
X76483446Y-104711147D02*
X76766601Y-104900345D01*
X76766576Y-104900355D01*
X76338317Y-105290642D01*
X76271202Y-105433553D01*
X76043554Y-105092853D01*
X75757922Y-104902000D01*
X76043554Y-104711147D01*
X76263500Y-104381974D01*
X76483446Y-104711147D01*
G36*
X104423446Y-104711147D02*
X104709078Y-104902000D01*
X104423446Y-105092853D01*
X104195798Y-105433553D01*
X104128683Y-105290642D01*
X103700424Y-104900355D01*
X103700399Y-104900345D01*
X103983554Y-104711147D01*
X104203500Y-104381974D01*
X104423446Y-104711147D01*
X104423446Y-104711147D01*
G37*
X104423446Y-104711147D02*
X104709078Y-104902000D01*
X104423446Y-105092853D01*
X104195798Y-105433553D01*
X104128683Y-105290642D01*
X103700424Y-104900355D01*
X103700399Y-104900345D01*
X103983554Y-104711147D01*
X104203500Y-104381974D01*
X104423446Y-104711147D01*
G36*
X94263446Y-104711147D02*
X94546601Y-104900345D01*
X94546576Y-104900355D01*
X94118317Y-105290642D01*
X94051202Y-105433553D01*
X93823554Y-105092853D01*
X93537922Y-104902000D01*
X93823554Y-104711147D01*
X94043500Y-104381974D01*
X94263446Y-104711147D01*
X94263446Y-104711147D01*
G37*
X94263446Y-104711147D02*
X94546601Y-104900345D01*
X94546576Y-104900355D01*
X94118317Y-105290642D01*
X94051202Y-105433553D01*
X93823554Y-105092853D01*
X93537922Y-104902000D01*
X93823554Y-104711147D01*
X94043500Y-104381974D01*
X94263446Y-104711147D01*
G36*
X84103446Y-104711147D02*
X84389078Y-104902000D01*
X84103446Y-105092853D01*
X83875798Y-105433553D01*
X83808683Y-105290642D01*
X83380424Y-104900355D01*
X83380399Y-104900345D01*
X83663554Y-104711147D01*
X83883500Y-104381974D01*
X84103446Y-104711147D01*
X84103446Y-104711147D01*
G37*
X84103446Y-104711147D02*
X84389078Y-104902000D01*
X84103446Y-105092853D01*
X83875798Y-105433553D01*
X83808683Y-105290642D01*
X83380424Y-104900355D01*
X83380399Y-104900345D01*
X83663554Y-104711147D01*
X83883500Y-104381974D01*
X84103446Y-104711147D01*
G36*
X71403446Y-104711147D02*
X71689078Y-104902000D01*
X71403446Y-105092853D01*
X71183500Y-105422026D01*
X70963554Y-105092853D01*
X70680399Y-104903655D01*
X70680424Y-104903645D01*
X71108683Y-104513358D01*
X71175798Y-104370447D01*
X71403446Y-104711147D01*
X71403446Y-104711147D01*
G37*
X71403446Y-104711147D02*
X71689078Y-104902000D01*
X71403446Y-105092853D01*
X71183500Y-105422026D01*
X70963554Y-105092853D01*
X70680399Y-104903655D01*
X70680424Y-104903645D01*
X71108683Y-104513358D01*
X71175798Y-104370447D01*
X71403446Y-104711147D01*
G36*
X86498317Y-104513358D02*
X86926576Y-104903645D01*
X86926601Y-104903655D01*
X86643446Y-105092853D01*
X86423500Y-105422026D01*
X86203554Y-105092853D01*
X85917922Y-104902000D01*
X86203554Y-104711147D01*
X86431202Y-104370447D01*
X86498317Y-104513358D01*
X86498317Y-104513358D01*
G37*
X86498317Y-104513358D02*
X86926576Y-104903645D01*
X86926601Y-104903655D01*
X86643446Y-105092853D01*
X86423500Y-105422026D01*
X86203554Y-105092853D01*
X85917922Y-104902000D01*
X86203554Y-104711147D01*
X86431202Y-104370447D01*
X86498317Y-104513358D01*
G36*
X89183446Y-104711147D02*
X89469078Y-104902000D01*
X89183446Y-105092853D01*
X88963500Y-105422026D01*
X88743554Y-105092853D01*
X88460399Y-104903655D01*
X88460424Y-104903645D01*
X88888683Y-104513358D01*
X88955798Y-104370447D01*
X89183446Y-104711147D01*
X89183446Y-104711147D01*
G37*
X89183446Y-104711147D02*
X89469078Y-104902000D01*
X89183446Y-105092853D01*
X88963500Y-105422026D01*
X88743554Y-105092853D01*
X88460399Y-104903655D01*
X88460424Y-104903645D01*
X88888683Y-104513358D01*
X88955798Y-104370447D01*
X89183446Y-104711147D01*
G36*
X106818317Y-104513358D02*
X107246576Y-104903645D01*
X107246601Y-104903655D01*
X106963446Y-105092853D01*
X106743500Y-105422026D01*
X106523554Y-105092853D01*
X106237922Y-104902000D01*
X106523554Y-104711147D01*
X106751202Y-104370447D01*
X106818317Y-104513358D01*
X106818317Y-104513358D01*
G37*
X106818317Y-104513358D02*
X107246576Y-104903645D01*
X107246601Y-104903655D01*
X106963446Y-105092853D01*
X106743500Y-105422026D01*
X106523554Y-105092853D01*
X106237922Y-104902000D01*
X106523554Y-104711147D01*
X106751202Y-104370447D01*
X106818317Y-104513358D01*
G36*
X109503446Y-104711147D02*
X109789078Y-104902000D01*
X109503446Y-105092853D01*
X109283500Y-105422026D01*
X109063554Y-105092853D01*
X108780399Y-104903655D01*
X108780424Y-104903645D01*
X109208683Y-104513358D01*
X109275798Y-104370447D01*
X109503446Y-104711147D01*
X109503446Y-104711147D01*
G37*
X109503446Y-104711147D02*
X109789078Y-104902000D01*
X109503446Y-105092853D01*
X109283500Y-105422026D01*
X109063554Y-105092853D01*
X108780399Y-104903655D01*
X108780424Y-104903645D01*
X109208683Y-104513358D01*
X109275798Y-104370447D01*
X109503446Y-104711147D01*
G36*
X108140500Y-103505000D02*
X108160500Y-103505000D01*
X108160500Y-103759000D01*
X108140500Y-103759000D01*
X108140500Y-103779000D01*
X107886500Y-103779000D01*
X107886500Y-103759000D01*
X107866500Y-103759000D01*
X107866500Y-103505000D01*
X107886500Y-103505000D01*
X107886500Y-103485000D01*
X108140500Y-103485000D01*
X108140500Y-103505000D01*
X108140500Y-103505000D01*
G37*
X108140500Y-103505000D02*
X108160500Y-103505000D01*
X108160500Y-103759000D01*
X108140500Y-103759000D01*
X108140500Y-103779000D01*
X107886500Y-103779000D01*
X107886500Y-103759000D01*
X107866500Y-103759000D01*
X107866500Y-103505000D01*
X107886500Y-103505000D01*
X107886500Y-103485000D01*
X108140500Y-103485000D01*
X108140500Y-103505000D01*
M02*
