G04 #@! TF.FileFunction,Legend,Top*
%FSLAX46Y46*%
G04 Gerber Fmt 4.6, Leading zero omitted, Abs format (unit mm)*
G04 Created by KiCad (PCBNEW 4.0.6) date Tue Sep 19 20:34:46 2017*
%MOMM*%
%LPD*%
G01*
G04 APERTURE LIST*
%ADD10C,0.100000*%
%ADD11C,0.120000*%
%ADD12C,0.150000*%
%ADD13C,0.010000*%
G04 APERTURE END LIST*
D10*
D11*
X116840000Y-102750000D02*
X68460000Y-102750000D01*
X68460000Y-102750000D02*
X68460000Y-108070000D01*
X68460000Y-108070000D02*
X119500000Y-108070000D01*
X119500000Y-108070000D02*
X119500000Y-105410000D01*
X119500000Y-105410000D02*
X116840000Y-105410000D01*
X116840000Y-105410000D02*
X116840000Y-102750000D01*
X118110000Y-102750000D02*
X119500000Y-102750000D01*
X119500000Y-102750000D02*
X119500000Y-104140000D01*
X68460000Y-116475000D02*
G75*
G02X68460000Y-118475000I0J-1000000D01*
G01*
X68460000Y-118475000D02*
X68460000Y-120245000D01*
X68460000Y-120245000D02*
X104260000Y-120245000D01*
X104260000Y-120245000D02*
X104260000Y-114705000D01*
X104260000Y-114705000D02*
X68460000Y-114705000D01*
X68460000Y-114705000D02*
X68460000Y-116475000D01*
X131175000Y-111005000D02*
G75*
G02X129175000Y-111005000I-1000000J0D01*
G01*
X129175000Y-111005000D02*
X127405000Y-111005000D01*
X127405000Y-111005000D02*
X127405000Y-118865000D01*
X127405000Y-118865000D02*
X132945000Y-118865000D01*
X132945000Y-118865000D02*
X132945000Y-111005000D01*
X132945000Y-111005000D02*
X131175000Y-111005000D01*
X146415000Y-111005000D02*
G75*
G02X144415000Y-111005000I-1000000J0D01*
G01*
X144415000Y-111005000D02*
X142645000Y-111005000D01*
X142645000Y-111005000D02*
X142645000Y-118865000D01*
X142645000Y-118865000D02*
X148185000Y-118865000D01*
X148185000Y-118865000D02*
X148185000Y-111005000D01*
X148185000Y-111005000D02*
X146415000Y-111005000D01*
X161655000Y-111005000D02*
G75*
G02X159655000Y-111005000I-1000000J0D01*
G01*
X159655000Y-111005000D02*
X157885000Y-111005000D01*
X157885000Y-111005000D02*
X157885000Y-118865000D01*
X157885000Y-118865000D02*
X163425000Y-118865000D01*
X163425000Y-118865000D02*
X163425000Y-111005000D01*
X163425000Y-111005000D02*
X161655000Y-111005000D01*
X138021000Y-112423000D02*
X138021000Y-113597000D01*
X136299000Y-112423000D02*
X136299000Y-113597000D01*
X153261000Y-112423000D02*
X153261000Y-113597000D01*
X151539000Y-112423000D02*
X151539000Y-113597000D01*
X168501000Y-112423000D02*
X168501000Y-113597000D01*
X166779000Y-112423000D02*
X166779000Y-113597000D01*
D12*
X134620000Y-124460000D02*
X133604000Y-124460000D01*
X133604000Y-124460000D02*
X133604000Y-125476000D01*
X133604000Y-125476000D02*
X125476000Y-125476000D01*
X125476000Y-125476000D02*
X125476000Y-123444000D01*
X125476000Y-123444000D02*
X133604000Y-123444000D01*
X133604000Y-123444000D02*
X133604000Y-124460000D01*
X133604000Y-124968000D02*
X133096000Y-125476000D01*
X124460000Y-124460000D02*
X125476000Y-124460000D01*
X124460000Y-121920000D02*
X125476000Y-121920000D01*
X125476000Y-121920000D02*
X125476000Y-120904000D01*
X125476000Y-120904000D02*
X133604000Y-120904000D01*
X133604000Y-120904000D02*
X133604000Y-122936000D01*
X133604000Y-122936000D02*
X125476000Y-122936000D01*
X125476000Y-122936000D02*
X125476000Y-121920000D01*
X125476000Y-121412000D02*
X125984000Y-120904000D01*
X134620000Y-121920000D02*
X133604000Y-121920000D01*
X110490000Y-111125000D02*
X110490000Y-112141000D01*
X110490000Y-112141000D02*
X111506000Y-112141000D01*
X111506000Y-112141000D02*
X111506000Y-120269000D01*
X111506000Y-120269000D02*
X109474000Y-120269000D01*
X109474000Y-120269000D02*
X109474000Y-112141000D01*
X109474000Y-112141000D02*
X110490000Y-112141000D01*
X110998000Y-112141000D02*
X111506000Y-112649000D01*
X110490000Y-121285000D02*
X110490000Y-120269000D01*
X137160000Y-127000000D02*
X137160000Y-125984000D01*
X137160000Y-125984000D02*
X136144000Y-125984000D01*
X136144000Y-125984000D02*
X136144000Y-117856000D01*
X136144000Y-117856000D02*
X138176000Y-117856000D01*
X138176000Y-117856000D02*
X138176000Y-125984000D01*
X138176000Y-125984000D02*
X137160000Y-125984000D01*
X136652000Y-125984000D02*
X136144000Y-125476000D01*
X137160000Y-116840000D02*
X137160000Y-117856000D01*
X139700000Y-121920000D02*
X140716000Y-121920000D01*
X140716000Y-121920000D02*
X140716000Y-120904000D01*
X140716000Y-120904000D02*
X148844000Y-120904000D01*
X148844000Y-120904000D02*
X148844000Y-122936000D01*
X148844000Y-122936000D02*
X140716000Y-122936000D01*
X140716000Y-122936000D02*
X140716000Y-121920000D01*
X140716000Y-121412000D02*
X141224000Y-120904000D01*
X149860000Y-121920000D02*
X148844000Y-121920000D01*
X139700000Y-124460000D02*
X140716000Y-124460000D01*
X140716000Y-124460000D02*
X140716000Y-123444000D01*
X140716000Y-123444000D02*
X148844000Y-123444000D01*
X148844000Y-123444000D02*
X148844000Y-125476000D01*
X148844000Y-125476000D02*
X140716000Y-125476000D01*
X140716000Y-125476000D02*
X140716000Y-124460000D01*
X140716000Y-123952000D02*
X141224000Y-123444000D01*
X149860000Y-124460000D02*
X148844000Y-124460000D01*
X154940000Y-121920000D02*
X155956000Y-121920000D01*
X155956000Y-121920000D02*
X155956000Y-120904000D01*
X155956000Y-120904000D02*
X164084000Y-120904000D01*
X164084000Y-120904000D02*
X164084000Y-122936000D01*
X164084000Y-122936000D02*
X155956000Y-122936000D01*
X155956000Y-122936000D02*
X155956000Y-121920000D01*
X155956000Y-121412000D02*
X156464000Y-120904000D01*
X165100000Y-121920000D02*
X164084000Y-121920000D01*
X154940000Y-124460000D02*
X155956000Y-124460000D01*
X155956000Y-124460000D02*
X155956000Y-123444000D01*
X155956000Y-123444000D02*
X164084000Y-123444000D01*
X164084000Y-123444000D02*
X164084000Y-125476000D01*
X164084000Y-125476000D02*
X155956000Y-125476000D01*
X155956000Y-125476000D02*
X155956000Y-124460000D01*
X155956000Y-123952000D02*
X156464000Y-123444000D01*
X165100000Y-124460000D02*
X164084000Y-124460000D01*
X152400000Y-116840000D02*
X152400000Y-117856000D01*
X152400000Y-117856000D02*
X153416000Y-117856000D01*
X153416000Y-117856000D02*
X153416000Y-125984000D01*
X153416000Y-125984000D02*
X151384000Y-125984000D01*
X151384000Y-125984000D02*
X151384000Y-117856000D01*
X151384000Y-117856000D02*
X152400000Y-117856000D01*
X152908000Y-117856000D02*
X153416000Y-118364000D01*
X152400000Y-127000000D02*
X152400000Y-125984000D01*
X115570000Y-121285000D02*
X115570000Y-120269000D01*
X115570000Y-120269000D02*
X114554000Y-120269000D01*
X114554000Y-120269000D02*
X114554000Y-112141000D01*
X114554000Y-112141000D02*
X116586000Y-112141000D01*
X116586000Y-112141000D02*
X116586000Y-120269000D01*
X116586000Y-120269000D02*
X115570000Y-120269000D01*
X115062000Y-120269000D02*
X114554000Y-119761000D01*
X115570000Y-111125000D02*
X115570000Y-112141000D01*
X132080000Y-127000000D02*
X131318000Y-127000000D01*
X131318000Y-127000000D02*
X131318000Y-125984000D01*
X131318000Y-125984000D02*
X125222000Y-125984000D01*
X125222000Y-125984000D02*
X125222000Y-127000000D01*
X125222000Y-127000000D02*
X124460000Y-127000000D01*
X125222000Y-127000000D02*
X125222000Y-128016000D01*
X125222000Y-128016000D02*
X131318000Y-128016000D01*
X131318000Y-128016000D02*
X131318000Y-127000000D01*
X130810000Y-125984000D02*
X130810000Y-128016000D01*
X130556000Y-128016000D02*
X130556000Y-125984000D01*
X113030000Y-118745000D02*
X113030000Y-117983000D01*
X113030000Y-117983000D02*
X114046000Y-117983000D01*
X114046000Y-117983000D02*
X114046000Y-111887000D01*
X114046000Y-111887000D02*
X113030000Y-111887000D01*
X113030000Y-111887000D02*
X113030000Y-111125000D01*
X113030000Y-111887000D02*
X112014000Y-111887000D01*
X112014000Y-111887000D02*
X112014000Y-117983000D01*
X112014000Y-117983000D02*
X113030000Y-117983000D01*
X114046000Y-117475000D02*
X112014000Y-117475000D01*
X112014000Y-117221000D02*
X114046000Y-117221000D01*
X147320000Y-127000000D02*
X146558000Y-127000000D01*
X146558000Y-127000000D02*
X146558000Y-125984000D01*
X146558000Y-125984000D02*
X140462000Y-125984000D01*
X140462000Y-125984000D02*
X140462000Y-127000000D01*
X140462000Y-127000000D02*
X139700000Y-127000000D01*
X140462000Y-127000000D02*
X140462000Y-128016000D01*
X140462000Y-128016000D02*
X146558000Y-128016000D01*
X146558000Y-128016000D02*
X146558000Y-127000000D01*
X146050000Y-125984000D02*
X146050000Y-128016000D01*
X145796000Y-128016000D02*
X145796000Y-125984000D01*
X162560000Y-127000000D02*
X161798000Y-127000000D01*
X161798000Y-127000000D02*
X161798000Y-125984000D01*
X161798000Y-125984000D02*
X155702000Y-125984000D01*
X155702000Y-125984000D02*
X155702000Y-127000000D01*
X155702000Y-127000000D02*
X154940000Y-127000000D01*
X155702000Y-127000000D02*
X155702000Y-128016000D01*
X155702000Y-128016000D02*
X161798000Y-128016000D01*
X161798000Y-128016000D02*
X161798000Y-127000000D01*
X161290000Y-125984000D02*
X161290000Y-128016000D01*
X161036000Y-128016000D02*
X161036000Y-125984000D01*
D11*
X96548000Y-108994000D02*
X97722000Y-108994000D01*
X96548000Y-110716000D02*
X97722000Y-110716000D01*
X66665000Y-124550000D02*
X66665000Y-130500000D01*
X66665000Y-130500000D02*
X79265000Y-130500000D01*
X79265000Y-130500000D02*
X79265000Y-124550000D01*
X79265000Y-124550000D02*
X66665000Y-124550000D01*
X69965000Y-124550000D02*
X69965000Y-125300000D01*
X69965000Y-125300000D02*
X75965000Y-125300000D01*
X75965000Y-125300000D02*
X75965000Y-124550000D01*
X75965000Y-124550000D02*
X69965000Y-124550000D01*
X66665000Y-124550000D02*
X66665000Y-125300000D01*
X66665000Y-125300000D02*
X68465000Y-125300000D01*
X68465000Y-125300000D02*
X68465000Y-124550000D01*
X68465000Y-124550000D02*
X66665000Y-124550000D01*
X77465000Y-124550000D02*
X77465000Y-125300000D01*
X77465000Y-125300000D02*
X79265000Y-125300000D01*
X79265000Y-125300000D02*
X79265000Y-124550000D01*
X79265000Y-124550000D02*
X77465000Y-124550000D01*
X66665000Y-126800000D02*
X67415000Y-126800000D01*
X67415000Y-126800000D02*
X67415000Y-129750000D01*
X67415000Y-129750000D02*
X72965000Y-129750000D01*
X79265000Y-126800000D02*
X78515000Y-126800000D01*
X78515000Y-126800000D02*
X78515000Y-129750000D01*
X78515000Y-129750000D02*
X72965000Y-129750000D01*
X68865000Y-124250000D02*
X66365000Y-124250000D01*
X66365000Y-124250000D02*
X66365000Y-126750000D01*
X80635000Y-124550000D02*
X80635000Y-130500000D01*
X80635000Y-130500000D02*
X93235000Y-130500000D01*
X93235000Y-130500000D02*
X93235000Y-124550000D01*
X93235000Y-124550000D02*
X80635000Y-124550000D01*
X83935000Y-124550000D02*
X83935000Y-125300000D01*
X83935000Y-125300000D02*
X89935000Y-125300000D01*
X89935000Y-125300000D02*
X89935000Y-124550000D01*
X89935000Y-124550000D02*
X83935000Y-124550000D01*
X80635000Y-124550000D02*
X80635000Y-125300000D01*
X80635000Y-125300000D02*
X82435000Y-125300000D01*
X82435000Y-125300000D02*
X82435000Y-124550000D01*
X82435000Y-124550000D02*
X80635000Y-124550000D01*
X91435000Y-124550000D02*
X91435000Y-125300000D01*
X91435000Y-125300000D02*
X93235000Y-125300000D01*
X93235000Y-125300000D02*
X93235000Y-124550000D01*
X93235000Y-124550000D02*
X91435000Y-124550000D01*
X80635000Y-126800000D02*
X81385000Y-126800000D01*
X81385000Y-126800000D02*
X81385000Y-129750000D01*
X81385000Y-129750000D02*
X86935000Y-129750000D01*
X93235000Y-126800000D02*
X92485000Y-126800000D01*
X92485000Y-126800000D02*
X92485000Y-129750000D01*
X92485000Y-129750000D02*
X86935000Y-129750000D01*
X82835000Y-124250000D02*
X80335000Y-124250000D01*
X80335000Y-124250000D02*
X80335000Y-126750000D01*
X94605000Y-124550000D02*
X94605000Y-130500000D01*
X94605000Y-130500000D02*
X107205000Y-130500000D01*
X107205000Y-130500000D02*
X107205000Y-124550000D01*
X107205000Y-124550000D02*
X94605000Y-124550000D01*
X97905000Y-124550000D02*
X97905000Y-125300000D01*
X97905000Y-125300000D02*
X103905000Y-125300000D01*
X103905000Y-125300000D02*
X103905000Y-124550000D01*
X103905000Y-124550000D02*
X97905000Y-124550000D01*
X94605000Y-124550000D02*
X94605000Y-125300000D01*
X94605000Y-125300000D02*
X96405000Y-125300000D01*
X96405000Y-125300000D02*
X96405000Y-124550000D01*
X96405000Y-124550000D02*
X94605000Y-124550000D01*
X105405000Y-124550000D02*
X105405000Y-125300000D01*
X105405000Y-125300000D02*
X107205000Y-125300000D01*
X107205000Y-125300000D02*
X107205000Y-124550000D01*
X107205000Y-124550000D02*
X105405000Y-124550000D01*
X94605000Y-126800000D02*
X95355000Y-126800000D01*
X95355000Y-126800000D02*
X95355000Y-129750000D01*
X95355000Y-129750000D02*
X100905000Y-129750000D01*
X107205000Y-126800000D02*
X106455000Y-126800000D01*
X106455000Y-126800000D02*
X106455000Y-129750000D01*
X106455000Y-129750000D02*
X100905000Y-129750000D01*
X96805000Y-124250000D02*
X94305000Y-124250000D01*
X94305000Y-124250000D02*
X94305000Y-126750000D01*
X108575000Y-124550000D02*
X108575000Y-130500000D01*
X108575000Y-130500000D02*
X121175000Y-130500000D01*
X121175000Y-130500000D02*
X121175000Y-124550000D01*
X121175000Y-124550000D02*
X108575000Y-124550000D01*
X111875000Y-124550000D02*
X111875000Y-125300000D01*
X111875000Y-125300000D02*
X117875000Y-125300000D01*
X117875000Y-125300000D02*
X117875000Y-124550000D01*
X117875000Y-124550000D02*
X111875000Y-124550000D01*
X108575000Y-124550000D02*
X108575000Y-125300000D01*
X108575000Y-125300000D02*
X110375000Y-125300000D01*
X110375000Y-125300000D02*
X110375000Y-124550000D01*
X110375000Y-124550000D02*
X108575000Y-124550000D01*
X119375000Y-124550000D02*
X119375000Y-125300000D01*
X119375000Y-125300000D02*
X121175000Y-125300000D01*
X121175000Y-125300000D02*
X121175000Y-124550000D01*
X121175000Y-124550000D02*
X119375000Y-124550000D01*
X108575000Y-126800000D02*
X109325000Y-126800000D01*
X109325000Y-126800000D02*
X109325000Y-129750000D01*
X109325000Y-129750000D02*
X114875000Y-129750000D01*
X121175000Y-126800000D02*
X120425000Y-126800000D01*
X120425000Y-126800000D02*
X120425000Y-129750000D01*
X120425000Y-129750000D02*
X114875000Y-129750000D01*
X110775000Y-124250000D02*
X108275000Y-124250000D01*
X108275000Y-124250000D02*
X108275000Y-126750000D01*
X138440000Y-107860000D02*
X138440000Y-101910000D01*
X138440000Y-101910000D02*
X125840000Y-101910000D01*
X125840000Y-101910000D02*
X125840000Y-107860000D01*
X125840000Y-107860000D02*
X138440000Y-107860000D01*
X135140000Y-107860000D02*
X135140000Y-107110000D01*
X135140000Y-107110000D02*
X129140000Y-107110000D01*
X129140000Y-107110000D02*
X129140000Y-107860000D01*
X129140000Y-107860000D02*
X135140000Y-107860000D01*
X138440000Y-107860000D02*
X138440000Y-107110000D01*
X138440000Y-107110000D02*
X136640000Y-107110000D01*
X136640000Y-107110000D02*
X136640000Y-107860000D01*
X136640000Y-107860000D02*
X138440000Y-107860000D01*
X127640000Y-107860000D02*
X127640000Y-107110000D01*
X127640000Y-107110000D02*
X125840000Y-107110000D01*
X125840000Y-107110000D02*
X125840000Y-107860000D01*
X125840000Y-107860000D02*
X127640000Y-107860000D01*
X138440000Y-105610000D02*
X137690000Y-105610000D01*
X137690000Y-105610000D02*
X137690000Y-102660000D01*
X137690000Y-102660000D02*
X132140000Y-102660000D01*
X125840000Y-105610000D02*
X126590000Y-105610000D01*
X126590000Y-105610000D02*
X126590000Y-102660000D01*
X126590000Y-102660000D02*
X132140000Y-102660000D01*
X136240000Y-108160000D02*
X138740000Y-108160000D01*
X138740000Y-108160000D02*
X138740000Y-105660000D01*
X153045000Y-107860000D02*
X153045000Y-101910000D01*
X153045000Y-101910000D02*
X140445000Y-101910000D01*
X140445000Y-101910000D02*
X140445000Y-107860000D01*
X140445000Y-107860000D02*
X153045000Y-107860000D01*
X149745000Y-107860000D02*
X149745000Y-107110000D01*
X149745000Y-107110000D02*
X143745000Y-107110000D01*
X143745000Y-107110000D02*
X143745000Y-107860000D01*
X143745000Y-107860000D02*
X149745000Y-107860000D01*
X153045000Y-107860000D02*
X153045000Y-107110000D01*
X153045000Y-107110000D02*
X151245000Y-107110000D01*
X151245000Y-107110000D02*
X151245000Y-107860000D01*
X151245000Y-107860000D02*
X153045000Y-107860000D01*
X142245000Y-107860000D02*
X142245000Y-107110000D01*
X142245000Y-107110000D02*
X140445000Y-107110000D01*
X140445000Y-107110000D02*
X140445000Y-107860000D01*
X140445000Y-107860000D02*
X142245000Y-107860000D01*
X153045000Y-105610000D02*
X152295000Y-105610000D01*
X152295000Y-105610000D02*
X152295000Y-102660000D01*
X152295000Y-102660000D02*
X146745000Y-102660000D01*
X140445000Y-105610000D02*
X141195000Y-105610000D01*
X141195000Y-105610000D02*
X141195000Y-102660000D01*
X141195000Y-102660000D02*
X146745000Y-102660000D01*
X150845000Y-108160000D02*
X153345000Y-108160000D01*
X153345000Y-108160000D02*
X153345000Y-105660000D01*
X167650000Y-107860000D02*
X167650000Y-101910000D01*
X167650000Y-101910000D02*
X155050000Y-101910000D01*
X155050000Y-101910000D02*
X155050000Y-107860000D01*
X155050000Y-107860000D02*
X167650000Y-107860000D01*
X164350000Y-107860000D02*
X164350000Y-107110000D01*
X164350000Y-107110000D02*
X158350000Y-107110000D01*
X158350000Y-107110000D02*
X158350000Y-107860000D01*
X158350000Y-107860000D02*
X164350000Y-107860000D01*
X167650000Y-107860000D02*
X167650000Y-107110000D01*
X167650000Y-107110000D02*
X165850000Y-107110000D01*
X165850000Y-107110000D02*
X165850000Y-107860000D01*
X165850000Y-107860000D02*
X167650000Y-107860000D01*
X156850000Y-107860000D02*
X156850000Y-107110000D01*
X156850000Y-107110000D02*
X155050000Y-107110000D01*
X155050000Y-107110000D02*
X155050000Y-107860000D01*
X155050000Y-107860000D02*
X156850000Y-107860000D01*
X167650000Y-105610000D02*
X166900000Y-105610000D01*
X166900000Y-105610000D02*
X166900000Y-102660000D01*
X166900000Y-102660000D02*
X161350000Y-102660000D01*
X155050000Y-105610000D02*
X155800000Y-105610000D01*
X155800000Y-105610000D02*
X155800000Y-102660000D01*
X155800000Y-102660000D02*
X161350000Y-102660000D01*
X165450000Y-108160000D02*
X167950000Y-108160000D01*
X167950000Y-108160000D02*
X167950000Y-105660000D01*
D13*
G36*
X173144656Y-118074910D02*
X173334649Y-118073898D01*
X173495528Y-118072926D01*
X173629925Y-118071885D01*
X173740476Y-118070667D01*
X173829816Y-118069164D01*
X173900577Y-118067268D01*
X173955396Y-118064870D01*
X173996906Y-118061864D01*
X174027741Y-118058139D01*
X174050537Y-118053589D01*
X174067928Y-118048105D01*
X174082547Y-118041579D01*
X174093187Y-118035985D01*
X174185410Y-117969059D01*
X174259486Y-117880649D01*
X174290378Y-117824250D01*
X174300400Y-117799929D01*
X174308123Y-117773926D01*
X174313849Y-117741887D01*
X174317877Y-117699458D01*
X174320509Y-117642288D01*
X174322045Y-117566022D01*
X174322787Y-117466308D01*
X174323026Y-117351969D01*
X174323375Y-116951125D01*
X172259625Y-116951125D01*
X172259625Y-116823024D01*
X173501843Y-116827543D01*
X174744062Y-116832063D01*
X174839312Y-116876579D01*
X174933198Y-116929505D01*
X175003713Y-116992524D01*
X175059186Y-117073905D01*
X175080042Y-117115637D01*
X175125062Y-117213063D01*
X175130242Y-117701219D01*
X175135421Y-118189375D01*
X175008421Y-118189375D01*
X175003242Y-117701219D01*
X174998062Y-117213063D01*
X174955409Y-117140511D01*
X174895369Y-117064652D01*
X174816995Y-117003478D01*
X174734848Y-116966634D01*
X174691002Y-116958698D01*
X174629224Y-116953106D01*
X174566709Y-116951125D01*
X174452646Y-116951125D01*
X174447542Y-117383719D01*
X174445900Y-117512933D01*
X174444156Y-117614597D01*
X174441966Y-117692910D01*
X174438989Y-117752071D01*
X174434883Y-117796280D01*
X174429307Y-117829734D01*
X174421918Y-117856634D01*
X174412374Y-117881178D01*
X174405856Y-117895688D01*
X174345483Y-117991383D01*
X174262011Y-118073456D01*
X174163375Y-118134984D01*
X174105713Y-118157505D01*
X174082014Y-118164422D01*
X174057534Y-118170260D01*
X174029490Y-118175112D01*
X173995099Y-118179067D01*
X173951581Y-118182218D01*
X173896154Y-118184655D01*
X173826033Y-118186468D01*
X173738439Y-118187750D01*
X173630589Y-118188590D01*
X173499700Y-118189081D01*
X173342990Y-118189312D01*
X173157678Y-118189375D01*
X172259625Y-118189375D01*
X172259625Y-118079506D01*
X173144656Y-118074910D01*
X173144656Y-118074910D01*
G37*
X173144656Y-118074910D02*
X173334649Y-118073898D01*
X173495528Y-118072926D01*
X173629925Y-118071885D01*
X173740476Y-118070667D01*
X173829816Y-118069164D01*
X173900577Y-118067268D01*
X173955396Y-118064870D01*
X173996906Y-118061864D01*
X174027741Y-118058139D01*
X174050537Y-118053589D01*
X174067928Y-118048105D01*
X174082547Y-118041579D01*
X174093187Y-118035985D01*
X174185410Y-117969059D01*
X174259486Y-117880649D01*
X174290378Y-117824250D01*
X174300400Y-117799929D01*
X174308123Y-117773926D01*
X174313849Y-117741887D01*
X174317877Y-117699458D01*
X174320509Y-117642288D01*
X174322045Y-117566022D01*
X174322787Y-117466308D01*
X174323026Y-117351969D01*
X174323375Y-116951125D01*
X172259625Y-116951125D01*
X172259625Y-116823024D01*
X173501843Y-116827543D01*
X174744062Y-116832063D01*
X174839312Y-116876579D01*
X174933198Y-116929505D01*
X175003713Y-116992524D01*
X175059186Y-117073905D01*
X175080042Y-117115637D01*
X175125062Y-117213063D01*
X175130242Y-117701219D01*
X175135421Y-118189375D01*
X175008421Y-118189375D01*
X175003242Y-117701219D01*
X174998062Y-117213063D01*
X174955409Y-117140511D01*
X174895369Y-117064652D01*
X174816995Y-117003478D01*
X174734848Y-116966634D01*
X174691002Y-116958698D01*
X174629224Y-116953106D01*
X174566709Y-116951125D01*
X174452646Y-116951125D01*
X174447542Y-117383719D01*
X174445900Y-117512933D01*
X174444156Y-117614597D01*
X174441966Y-117692910D01*
X174438989Y-117752071D01*
X174434883Y-117796280D01*
X174429307Y-117829734D01*
X174421918Y-117856634D01*
X174412374Y-117881178D01*
X174405856Y-117895688D01*
X174345483Y-117991383D01*
X174262011Y-118073456D01*
X174163375Y-118134984D01*
X174105713Y-118157505D01*
X174082014Y-118164422D01*
X174057534Y-118170260D01*
X174029490Y-118175112D01*
X173995099Y-118179067D01*
X173951581Y-118182218D01*
X173896154Y-118184655D01*
X173826033Y-118186468D01*
X173738439Y-118187750D01*
X173630589Y-118188590D01*
X173499700Y-118189081D01*
X173342990Y-118189312D01*
X173157678Y-118189375D01*
X172259625Y-118189375D01*
X172259625Y-118079506D01*
X173144656Y-118074910D01*
G36*
X171816915Y-121348500D02*
X171885763Y-121239654D01*
X171977949Y-121151305D01*
X172069125Y-121096291D01*
X172156437Y-121054813D01*
X173315312Y-121054813D01*
X173534758Y-121054824D01*
X173724738Y-121054901D01*
X173887537Y-121055108D01*
X174025439Y-121055508D01*
X174140730Y-121056165D01*
X174235692Y-121057144D01*
X174312611Y-121058509D01*
X174373770Y-121060324D01*
X174421455Y-121062653D01*
X174457950Y-121065560D01*
X174485540Y-121069108D01*
X174506508Y-121073363D01*
X174523139Y-121078388D01*
X174537717Y-121084247D01*
X174549073Y-121089409D01*
X174633051Y-121140122D01*
X174713195Y-121209581D01*
X174779926Y-121288389D01*
X174817761Y-121353044D01*
X174855187Y-121435813D01*
X174858756Y-122856625D01*
X174859353Y-123101572D01*
X174859812Y-123316829D01*
X174860093Y-123504453D01*
X174860159Y-123666504D01*
X174859972Y-123805041D01*
X174859494Y-123922123D01*
X174858686Y-124019810D01*
X174857512Y-124100159D01*
X174855932Y-124165230D01*
X174853910Y-124217082D01*
X174851406Y-124257774D01*
X174848383Y-124289365D01*
X174844803Y-124313913D01*
X174840628Y-124333478D01*
X174835820Y-124350119D01*
X174830931Y-124364266D01*
X174778946Y-124470989D01*
X174705188Y-124558621D01*
X174634291Y-124614566D01*
X174609173Y-124631596D01*
X174585947Y-124646370D01*
X174562278Y-124659050D01*
X174535831Y-124669794D01*
X174504269Y-124678764D01*
X174465259Y-124686119D01*
X174416464Y-124692020D01*
X174355548Y-124696626D01*
X174280177Y-124700097D01*
X174188015Y-124702594D01*
X174076726Y-124704277D01*
X173943975Y-124705305D01*
X173804556Y-124705780D01*
X173804556Y-124602876D01*
X173970227Y-124602673D01*
X174107494Y-124601772D01*
X174219703Y-124599730D01*
X174310200Y-124596108D01*
X174382330Y-124590464D01*
X174439438Y-124582356D01*
X174484871Y-124571345D01*
X174521972Y-124556988D01*
X174554089Y-124538846D01*
X174584566Y-124516476D01*
X174608009Y-124496960D01*
X174656002Y-124446536D01*
X174699249Y-124385819D01*
X174714496Y-124357696D01*
X174752048Y-124277438D01*
X174748055Y-122856625D01*
X174744062Y-121435813D01*
X174700870Y-121369395D01*
X174648730Y-121298370D01*
X174594411Y-121247318D01*
X174526293Y-121205899D01*
X174505937Y-121195928D01*
X174485045Y-121186287D01*
X174464878Y-121178451D01*
X174442054Y-121172233D01*
X174413193Y-121167444D01*
X174374915Y-121163896D01*
X174323837Y-121161401D01*
X174256581Y-121159772D01*
X174169764Y-121158818D01*
X174060007Y-121158353D01*
X173923928Y-121158189D01*
X173827281Y-121158156D01*
X173228000Y-121158000D01*
X173228000Y-121387629D01*
X173228317Y-121477977D01*
X173229696Y-121541724D01*
X173232780Y-121584021D01*
X173238211Y-121610013D01*
X173246631Y-121624851D01*
X173258684Y-121633680D01*
X173258706Y-121633692D01*
X173285835Y-121639979D01*
X173337461Y-121645156D01*
X173406334Y-121648707D01*
X173485207Y-121650120D01*
X173490463Y-121650125D01*
X173595390Y-121651793D01*
X173673947Y-121658037D01*
X173731394Y-121670722D01*
X173772994Y-121691713D01*
X173804011Y-121722874D01*
X173829706Y-121766068D01*
X173832217Y-121771186D01*
X173856612Y-121850596D01*
X173849881Y-121924539D01*
X173821160Y-121981756D01*
X173802550Y-122004898D01*
X173780307Y-122023208D01*
X173750718Y-122037244D01*
X173710069Y-122047562D01*
X173654645Y-122054720D01*
X173580734Y-122059275D01*
X173484621Y-122061785D01*
X173362593Y-122062805D01*
X173280103Y-122062935D01*
X173154151Y-122063122D01*
X173055890Y-122063820D01*
X172981259Y-122065295D01*
X172926201Y-122067815D01*
X172886656Y-122071645D01*
X172858565Y-122077054D01*
X172837870Y-122084306D01*
X172821492Y-122093068D01*
X172776708Y-122134287D01*
X172761400Y-122181877D01*
X172775456Y-122230691D01*
X172818764Y-122275586D01*
X172825564Y-122280231D01*
X172838894Y-122287523D01*
X172856638Y-122293568D01*
X172881894Y-122298533D01*
X172917760Y-122302589D01*
X172967334Y-122305903D01*
X173033714Y-122308646D01*
X173119999Y-122310984D01*
X173229286Y-122313089D01*
X173364675Y-122315128D01*
X173497878Y-122316875D01*
X173657360Y-122318998D01*
X173788176Y-122321060D01*
X173893406Y-122323227D01*
X173976135Y-122325664D01*
X174039443Y-122328535D01*
X174086414Y-122332005D01*
X174120129Y-122336241D01*
X174143672Y-122341406D01*
X174160123Y-122347666D01*
X174169114Y-122352815D01*
X174227739Y-122407144D01*
X174259252Y-122476685D01*
X174265980Y-122539125D01*
X174254214Y-122619884D01*
X174217688Y-122681921D01*
X174160506Y-122725326D01*
X174146616Y-122731761D01*
X174128648Y-122737179D01*
X174103841Y-122741688D01*
X174069433Y-122745395D01*
X174022664Y-122748409D01*
X173960772Y-122750837D01*
X173880996Y-122752786D01*
X173780573Y-122754366D01*
X173656744Y-122755682D01*
X173506747Y-122756844D01*
X173327820Y-122757959D01*
X173323660Y-122757983D01*
X173145621Y-122759039D01*
X172996605Y-122760053D01*
X172873883Y-122761153D01*
X172774729Y-122762467D01*
X172696414Y-122764123D01*
X172636212Y-122766248D01*
X172591394Y-122768971D01*
X172559233Y-122772418D01*
X172537003Y-122776718D01*
X172521975Y-122781998D01*
X172511421Y-122788387D01*
X172502616Y-122796011D01*
X172502128Y-122796469D01*
X172471554Y-122844225D01*
X172469394Y-122898059D01*
X172495514Y-122950158D01*
X172504965Y-122960535D01*
X172543931Y-122999500D01*
X173318559Y-122999525D01*
X173503389Y-122999556D01*
X173659198Y-122999836D01*
X173788718Y-123000664D01*
X173894678Y-123002339D01*
X173979808Y-123005160D01*
X174046838Y-123009427D01*
X174098499Y-123015437D01*
X174137520Y-123023491D01*
X174166632Y-123033888D01*
X174188565Y-123046926D01*
X174206048Y-123062904D01*
X174221812Y-123082122D01*
X174234934Y-123099913D01*
X174260993Y-123159333D01*
X174267058Y-123230618D01*
X174253321Y-123301129D01*
X174231191Y-123344443D01*
X174212888Y-123368491D01*
X174193363Y-123388325D01*
X174169530Y-123404348D01*
X174138305Y-123416967D01*
X174096601Y-123426586D01*
X174041333Y-123433611D01*
X173969417Y-123438447D01*
X173877766Y-123441499D01*
X173763295Y-123443171D01*
X173622918Y-123443870D01*
X173472952Y-123444000D01*
X173308912Y-123444159D01*
X173173675Y-123444870D01*
X173064298Y-123446485D01*
X172977835Y-123449356D01*
X172911340Y-123453835D01*
X172861869Y-123460273D01*
X172826476Y-123469022D01*
X172802217Y-123480434D01*
X172786145Y-123494862D01*
X172775317Y-123512656D01*
X172768986Y-123528093D01*
X172764771Y-123579703D01*
X172784653Y-123628487D01*
X172823201Y-123661964D01*
X172828186Y-123664113D01*
X172856678Y-123669221D01*
X172912937Y-123673991D01*
X172992978Y-123678237D01*
X173092819Y-123681772D01*
X173208476Y-123684409D01*
X173283562Y-123685480D01*
X173419279Y-123687256D01*
X173527111Y-123689708D01*
X173610925Y-123693601D01*
X173674585Y-123699700D01*
X173721958Y-123708770D01*
X173756909Y-123721576D01*
X173783304Y-123738884D01*
X173805008Y-123761457D01*
X173825886Y-123790062D01*
X173828054Y-123793250D01*
X173855765Y-123860041D01*
X173855566Y-123931142D01*
X173829229Y-123999592D01*
X173778527Y-124058433D01*
X173756361Y-124074811D01*
X173732364Y-124086689D01*
X173698580Y-124095292D01*
X173649417Y-124101323D01*
X173579284Y-124105488D01*
X173490675Y-124108296D01*
X173408555Y-124111395D01*
X173337113Y-124116115D01*
X173282713Y-124121883D01*
X173251716Y-124128130D01*
X173247843Y-124130084D01*
X173239139Y-124148657D01*
X173233094Y-124189681D01*
X173229473Y-124256030D01*
X173228043Y-124350584D01*
X173228000Y-124374632D01*
X173228000Y-124602875D01*
X173804556Y-124602876D01*
X173804556Y-124705780D01*
X173787426Y-124705839D01*
X173604744Y-124706039D01*
X173393593Y-124706065D01*
X173299437Y-124706063D01*
X172671575Y-124706063D01*
X172671575Y-124602876D01*
X173114085Y-124602876D01*
X173119449Y-124349207D01*
X173121594Y-124254252D01*
X173123976Y-124185657D01*
X173127488Y-124138040D01*
X173133021Y-124106019D01*
X173141469Y-124084211D01*
X173153724Y-124067233D01*
X173168798Y-124051581D01*
X173186840Y-124034591D01*
X173205172Y-124022458D01*
X173229453Y-124014134D01*
X173265341Y-124008571D01*
X173318496Y-124004720D01*
X173394576Y-124001532D01*
X173448978Y-123999656D01*
X173543008Y-123995995D01*
X173610656Y-123991859D01*
X173657289Y-123986489D01*
X173688275Y-123979122D01*
X173708981Y-123968998D01*
X173718523Y-123961446D01*
X173746763Y-123918542D01*
X173747866Y-123872650D01*
X173724429Y-123831912D01*
X173679050Y-123804470D01*
X173667421Y-123801259D01*
X173642621Y-123798975D01*
X173590700Y-123796637D01*
X173516285Y-123794369D01*
X173424003Y-123792293D01*
X173318481Y-123790532D01*
X173217220Y-123789329D01*
X173090994Y-123787982D01*
X172992541Y-123786461D01*
X172917884Y-123784448D01*
X172863046Y-123781625D01*
X172824050Y-123777675D01*
X172796920Y-123772279D01*
X172777678Y-123765119D01*
X172762347Y-123755876D01*
X172757825Y-123752582D01*
X172695208Y-123693377D01*
X172661569Y-123629219D01*
X172653682Y-123574558D01*
X172667114Y-123492666D01*
X172708740Y-123424245D01*
X172776923Y-123371899D01*
X172783258Y-123368594D01*
X172801867Y-123359530D01*
X172820584Y-123352145D01*
X172842705Y-123346268D01*
X172871522Y-123341726D01*
X172910333Y-123338348D01*
X172962431Y-123335961D01*
X173031112Y-123334394D01*
X173119669Y-123333474D01*
X173231399Y-123333029D01*
X173369596Y-123332887D01*
X173467170Y-123332875D01*
X174080613Y-123332875D01*
X174122619Y-123293946D01*
X174156696Y-123246485D01*
X174161278Y-123197898D01*
X174136055Y-123153421D01*
X174131228Y-123148805D01*
X174122281Y-123141930D01*
X174110100Y-123136132D01*
X174091976Y-123131285D01*
X174065200Y-123127263D01*
X174027066Y-123123939D01*
X173974864Y-123121189D01*
X173905886Y-123118886D01*
X173817424Y-123116904D01*
X173706769Y-123115118D01*
X173571215Y-123113401D01*
X173408051Y-123111628D01*
X173309697Y-123110625D01*
X173130810Y-123108775D01*
X172980889Y-123107049D01*
X172857151Y-123105316D01*
X172756812Y-123103446D01*
X172677091Y-123101306D01*
X172615204Y-123098767D01*
X172568368Y-123095696D01*
X172533799Y-123091963D01*
X172508716Y-123087436D01*
X172490334Y-123081984D01*
X172475872Y-123075477D01*
X172467795Y-123070938D01*
X172407969Y-123019176D01*
X172370322Y-122952050D01*
X172356766Y-122877304D01*
X172369214Y-122802682D01*
X172390910Y-122759754D01*
X172407204Y-122735616D01*
X172422956Y-122715315D01*
X172440912Y-122698519D01*
X172463821Y-122684897D01*
X172494429Y-122674115D01*
X172535484Y-122665842D01*
X172589733Y-122659746D01*
X172659923Y-122655494D01*
X172748802Y-122652754D01*
X172859117Y-122651194D01*
X172993616Y-122650482D01*
X173155046Y-122650285D01*
X173296257Y-122650275D01*
X173480900Y-122650195D01*
X173636379Y-122649790D01*
X173765282Y-122648800D01*
X173870195Y-122646960D01*
X173953704Y-122644008D01*
X174018396Y-122639681D01*
X174066858Y-122633716D01*
X174101676Y-122625851D01*
X174125436Y-122615822D01*
X174140726Y-122603367D01*
X174150132Y-122588222D01*
X174156241Y-122570126D01*
X174158169Y-122562685D01*
X174161858Y-122514438D01*
X174141735Y-122476823D01*
X174106535Y-122448769D01*
X174093313Y-122441430D01*
X174076225Y-122435452D01*
X174052112Y-122430698D01*
X174017819Y-122427029D01*
X173970188Y-122424307D01*
X173906062Y-122422394D01*
X173822284Y-122421151D01*
X173715697Y-122420441D01*
X173583142Y-122420125D01*
X173450839Y-122420063D01*
X173295033Y-122420004D01*
X173167705Y-122419718D01*
X173065584Y-122419045D01*
X172985398Y-122417823D01*
X172923875Y-122415891D01*
X172877743Y-122413087D01*
X172843731Y-122409251D01*
X172818567Y-122404220D01*
X172798979Y-122397834D01*
X172781696Y-122389931D01*
X172775562Y-122386765D01*
X172710463Y-122337128D01*
X172669722Y-122273546D01*
X172653339Y-122202437D01*
X172661315Y-122130221D01*
X172693649Y-122063316D01*
X172750342Y-122008141D01*
X172775562Y-121992986D01*
X172796516Y-121982967D01*
X172819395Y-121975093D01*
X172848283Y-121969042D01*
X172887267Y-121964496D01*
X172940431Y-121961134D01*
X173011863Y-121958635D01*
X173105648Y-121956680D01*
X173225871Y-121954948D01*
X173267687Y-121954425D01*
X173404293Y-121952540D01*
X173512463Y-121950164D01*
X173595512Y-121946615D01*
X173656753Y-121941211D01*
X173699500Y-121933274D01*
X173727067Y-121922121D01*
X173742768Y-121907071D01*
X173749917Y-121887444D01*
X173751827Y-121862559D01*
X173751875Y-121854940D01*
X173746609Y-121819109D01*
X173728106Y-121793305D01*
X173692304Y-121776006D01*
X173635140Y-121765692D01*
X173552553Y-121760841D01*
X173498311Y-121759973D01*
X173378651Y-121757602D01*
X173286986Y-121749930D01*
X173219600Y-121733288D01*
X173172782Y-121704010D01*
X173142816Y-121658429D01*
X173125990Y-121592878D01*
X173118589Y-121503689D01*
X173116900Y-121387197D01*
X173116899Y-121383361D01*
X173116875Y-121156284D01*
X172634824Y-121161111D01*
X172152774Y-121165938D01*
X172070524Y-121221500D01*
X171994469Y-121285485D01*
X171932712Y-121362038D01*
X171891947Y-121442159D01*
X171882884Y-121473814D01*
X171881048Y-121498069D01*
X171879296Y-121551659D01*
X171877648Y-121632172D01*
X171876126Y-121737193D01*
X171874748Y-121864308D01*
X171873537Y-122011104D01*
X171872513Y-122175166D01*
X171871696Y-122354080D01*
X171871107Y-122545432D01*
X171870767Y-122746810D01*
X171870687Y-122904250D01*
X171870687Y-124277438D01*
X171908089Y-124348875D01*
X171974771Y-124448143D01*
X172057390Y-124524487D01*
X172144479Y-124571228D01*
X172172008Y-124580652D01*
X172201043Y-124588010D01*
X172235782Y-124593553D01*
X172280420Y-124597533D01*
X172339156Y-124600203D01*
X172416187Y-124601815D01*
X172515709Y-124602620D01*
X172641919Y-124602870D01*
X172671575Y-124602876D01*
X172671575Y-124706063D01*
X172172312Y-124706063D01*
X172083094Y-124664230D01*
X171967985Y-124594688D01*
X171877192Y-124505860D01*
X171819566Y-124414924D01*
X171775437Y-124325063D01*
X171775437Y-121435813D01*
X171816915Y-121348500D01*
X171816915Y-121348500D01*
G37*
X171816915Y-121348500D02*
X171885763Y-121239654D01*
X171977949Y-121151305D01*
X172069125Y-121096291D01*
X172156437Y-121054813D01*
X173315312Y-121054813D01*
X173534758Y-121054824D01*
X173724738Y-121054901D01*
X173887537Y-121055108D01*
X174025439Y-121055508D01*
X174140730Y-121056165D01*
X174235692Y-121057144D01*
X174312611Y-121058509D01*
X174373770Y-121060324D01*
X174421455Y-121062653D01*
X174457950Y-121065560D01*
X174485540Y-121069108D01*
X174506508Y-121073363D01*
X174523139Y-121078388D01*
X174537717Y-121084247D01*
X174549073Y-121089409D01*
X174633051Y-121140122D01*
X174713195Y-121209581D01*
X174779926Y-121288389D01*
X174817761Y-121353044D01*
X174855187Y-121435813D01*
X174858756Y-122856625D01*
X174859353Y-123101572D01*
X174859812Y-123316829D01*
X174860093Y-123504453D01*
X174860159Y-123666504D01*
X174859972Y-123805041D01*
X174859494Y-123922123D01*
X174858686Y-124019810D01*
X174857512Y-124100159D01*
X174855932Y-124165230D01*
X174853910Y-124217082D01*
X174851406Y-124257774D01*
X174848383Y-124289365D01*
X174844803Y-124313913D01*
X174840628Y-124333478D01*
X174835820Y-124350119D01*
X174830931Y-124364266D01*
X174778946Y-124470989D01*
X174705188Y-124558621D01*
X174634291Y-124614566D01*
X174609173Y-124631596D01*
X174585947Y-124646370D01*
X174562278Y-124659050D01*
X174535831Y-124669794D01*
X174504269Y-124678764D01*
X174465259Y-124686119D01*
X174416464Y-124692020D01*
X174355548Y-124696626D01*
X174280177Y-124700097D01*
X174188015Y-124702594D01*
X174076726Y-124704277D01*
X173943975Y-124705305D01*
X173804556Y-124705780D01*
X173804556Y-124602876D01*
X173970227Y-124602673D01*
X174107494Y-124601772D01*
X174219703Y-124599730D01*
X174310200Y-124596108D01*
X174382330Y-124590464D01*
X174439438Y-124582356D01*
X174484871Y-124571345D01*
X174521972Y-124556988D01*
X174554089Y-124538846D01*
X174584566Y-124516476D01*
X174608009Y-124496960D01*
X174656002Y-124446536D01*
X174699249Y-124385819D01*
X174714496Y-124357696D01*
X174752048Y-124277438D01*
X174748055Y-122856625D01*
X174744062Y-121435813D01*
X174700870Y-121369395D01*
X174648730Y-121298370D01*
X174594411Y-121247318D01*
X174526293Y-121205899D01*
X174505937Y-121195928D01*
X174485045Y-121186287D01*
X174464878Y-121178451D01*
X174442054Y-121172233D01*
X174413193Y-121167444D01*
X174374915Y-121163896D01*
X174323837Y-121161401D01*
X174256581Y-121159772D01*
X174169764Y-121158818D01*
X174060007Y-121158353D01*
X173923928Y-121158189D01*
X173827281Y-121158156D01*
X173228000Y-121158000D01*
X173228000Y-121387629D01*
X173228317Y-121477977D01*
X173229696Y-121541724D01*
X173232780Y-121584021D01*
X173238211Y-121610013D01*
X173246631Y-121624851D01*
X173258684Y-121633680D01*
X173258706Y-121633692D01*
X173285835Y-121639979D01*
X173337461Y-121645156D01*
X173406334Y-121648707D01*
X173485207Y-121650120D01*
X173490463Y-121650125D01*
X173595390Y-121651793D01*
X173673947Y-121658037D01*
X173731394Y-121670722D01*
X173772994Y-121691713D01*
X173804011Y-121722874D01*
X173829706Y-121766068D01*
X173832217Y-121771186D01*
X173856612Y-121850596D01*
X173849881Y-121924539D01*
X173821160Y-121981756D01*
X173802550Y-122004898D01*
X173780307Y-122023208D01*
X173750718Y-122037244D01*
X173710069Y-122047562D01*
X173654645Y-122054720D01*
X173580734Y-122059275D01*
X173484621Y-122061785D01*
X173362593Y-122062805D01*
X173280103Y-122062935D01*
X173154151Y-122063122D01*
X173055890Y-122063820D01*
X172981259Y-122065295D01*
X172926201Y-122067815D01*
X172886656Y-122071645D01*
X172858565Y-122077054D01*
X172837870Y-122084306D01*
X172821492Y-122093068D01*
X172776708Y-122134287D01*
X172761400Y-122181877D01*
X172775456Y-122230691D01*
X172818764Y-122275586D01*
X172825564Y-122280231D01*
X172838894Y-122287523D01*
X172856638Y-122293568D01*
X172881894Y-122298533D01*
X172917760Y-122302589D01*
X172967334Y-122305903D01*
X173033714Y-122308646D01*
X173119999Y-122310984D01*
X173229286Y-122313089D01*
X173364675Y-122315128D01*
X173497878Y-122316875D01*
X173657360Y-122318998D01*
X173788176Y-122321060D01*
X173893406Y-122323227D01*
X173976135Y-122325664D01*
X174039443Y-122328535D01*
X174086414Y-122332005D01*
X174120129Y-122336241D01*
X174143672Y-122341406D01*
X174160123Y-122347666D01*
X174169114Y-122352815D01*
X174227739Y-122407144D01*
X174259252Y-122476685D01*
X174265980Y-122539125D01*
X174254214Y-122619884D01*
X174217688Y-122681921D01*
X174160506Y-122725326D01*
X174146616Y-122731761D01*
X174128648Y-122737179D01*
X174103841Y-122741688D01*
X174069433Y-122745395D01*
X174022664Y-122748409D01*
X173960772Y-122750837D01*
X173880996Y-122752786D01*
X173780573Y-122754366D01*
X173656744Y-122755682D01*
X173506747Y-122756844D01*
X173327820Y-122757959D01*
X173323660Y-122757983D01*
X173145621Y-122759039D01*
X172996605Y-122760053D01*
X172873883Y-122761153D01*
X172774729Y-122762467D01*
X172696414Y-122764123D01*
X172636212Y-122766248D01*
X172591394Y-122768971D01*
X172559233Y-122772418D01*
X172537003Y-122776718D01*
X172521975Y-122781998D01*
X172511421Y-122788387D01*
X172502616Y-122796011D01*
X172502128Y-122796469D01*
X172471554Y-122844225D01*
X172469394Y-122898059D01*
X172495514Y-122950158D01*
X172504965Y-122960535D01*
X172543931Y-122999500D01*
X173318559Y-122999525D01*
X173503389Y-122999556D01*
X173659198Y-122999836D01*
X173788718Y-123000664D01*
X173894678Y-123002339D01*
X173979808Y-123005160D01*
X174046838Y-123009427D01*
X174098499Y-123015437D01*
X174137520Y-123023491D01*
X174166632Y-123033888D01*
X174188565Y-123046926D01*
X174206048Y-123062904D01*
X174221812Y-123082122D01*
X174234934Y-123099913D01*
X174260993Y-123159333D01*
X174267058Y-123230618D01*
X174253321Y-123301129D01*
X174231191Y-123344443D01*
X174212888Y-123368491D01*
X174193363Y-123388325D01*
X174169530Y-123404348D01*
X174138305Y-123416967D01*
X174096601Y-123426586D01*
X174041333Y-123433611D01*
X173969417Y-123438447D01*
X173877766Y-123441499D01*
X173763295Y-123443171D01*
X173622918Y-123443870D01*
X173472952Y-123444000D01*
X173308912Y-123444159D01*
X173173675Y-123444870D01*
X173064298Y-123446485D01*
X172977835Y-123449356D01*
X172911340Y-123453835D01*
X172861869Y-123460273D01*
X172826476Y-123469022D01*
X172802217Y-123480434D01*
X172786145Y-123494862D01*
X172775317Y-123512656D01*
X172768986Y-123528093D01*
X172764771Y-123579703D01*
X172784653Y-123628487D01*
X172823201Y-123661964D01*
X172828186Y-123664113D01*
X172856678Y-123669221D01*
X172912937Y-123673991D01*
X172992978Y-123678237D01*
X173092819Y-123681772D01*
X173208476Y-123684409D01*
X173283562Y-123685480D01*
X173419279Y-123687256D01*
X173527111Y-123689708D01*
X173610925Y-123693601D01*
X173674585Y-123699700D01*
X173721958Y-123708770D01*
X173756909Y-123721576D01*
X173783304Y-123738884D01*
X173805008Y-123761457D01*
X173825886Y-123790062D01*
X173828054Y-123793250D01*
X173855765Y-123860041D01*
X173855566Y-123931142D01*
X173829229Y-123999592D01*
X173778527Y-124058433D01*
X173756361Y-124074811D01*
X173732364Y-124086689D01*
X173698580Y-124095292D01*
X173649417Y-124101323D01*
X173579284Y-124105488D01*
X173490675Y-124108296D01*
X173408555Y-124111395D01*
X173337113Y-124116115D01*
X173282713Y-124121883D01*
X173251716Y-124128130D01*
X173247843Y-124130084D01*
X173239139Y-124148657D01*
X173233094Y-124189681D01*
X173229473Y-124256030D01*
X173228043Y-124350584D01*
X173228000Y-124374632D01*
X173228000Y-124602875D01*
X173804556Y-124602876D01*
X173804556Y-124705780D01*
X173787426Y-124705839D01*
X173604744Y-124706039D01*
X173393593Y-124706065D01*
X173299437Y-124706063D01*
X172671575Y-124706063D01*
X172671575Y-124602876D01*
X173114085Y-124602876D01*
X173119449Y-124349207D01*
X173121594Y-124254252D01*
X173123976Y-124185657D01*
X173127488Y-124138040D01*
X173133021Y-124106019D01*
X173141469Y-124084211D01*
X173153724Y-124067233D01*
X173168798Y-124051581D01*
X173186840Y-124034591D01*
X173205172Y-124022458D01*
X173229453Y-124014134D01*
X173265341Y-124008571D01*
X173318496Y-124004720D01*
X173394576Y-124001532D01*
X173448978Y-123999656D01*
X173543008Y-123995995D01*
X173610656Y-123991859D01*
X173657289Y-123986489D01*
X173688275Y-123979122D01*
X173708981Y-123968998D01*
X173718523Y-123961446D01*
X173746763Y-123918542D01*
X173747866Y-123872650D01*
X173724429Y-123831912D01*
X173679050Y-123804470D01*
X173667421Y-123801259D01*
X173642621Y-123798975D01*
X173590700Y-123796637D01*
X173516285Y-123794369D01*
X173424003Y-123792293D01*
X173318481Y-123790532D01*
X173217220Y-123789329D01*
X173090994Y-123787982D01*
X172992541Y-123786461D01*
X172917884Y-123784448D01*
X172863046Y-123781625D01*
X172824050Y-123777675D01*
X172796920Y-123772279D01*
X172777678Y-123765119D01*
X172762347Y-123755876D01*
X172757825Y-123752582D01*
X172695208Y-123693377D01*
X172661569Y-123629219D01*
X172653682Y-123574558D01*
X172667114Y-123492666D01*
X172708740Y-123424245D01*
X172776923Y-123371899D01*
X172783258Y-123368594D01*
X172801867Y-123359530D01*
X172820584Y-123352145D01*
X172842705Y-123346268D01*
X172871522Y-123341726D01*
X172910333Y-123338348D01*
X172962431Y-123335961D01*
X173031112Y-123334394D01*
X173119669Y-123333474D01*
X173231399Y-123333029D01*
X173369596Y-123332887D01*
X173467170Y-123332875D01*
X174080613Y-123332875D01*
X174122619Y-123293946D01*
X174156696Y-123246485D01*
X174161278Y-123197898D01*
X174136055Y-123153421D01*
X174131228Y-123148805D01*
X174122281Y-123141930D01*
X174110100Y-123136132D01*
X174091976Y-123131285D01*
X174065200Y-123127263D01*
X174027066Y-123123939D01*
X173974864Y-123121189D01*
X173905886Y-123118886D01*
X173817424Y-123116904D01*
X173706769Y-123115118D01*
X173571215Y-123113401D01*
X173408051Y-123111628D01*
X173309697Y-123110625D01*
X173130810Y-123108775D01*
X172980889Y-123107049D01*
X172857151Y-123105316D01*
X172756812Y-123103446D01*
X172677091Y-123101306D01*
X172615204Y-123098767D01*
X172568368Y-123095696D01*
X172533799Y-123091963D01*
X172508716Y-123087436D01*
X172490334Y-123081984D01*
X172475872Y-123075477D01*
X172467795Y-123070938D01*
X172407969Y-123019176D01*
X172370322Y-122952050D01*
X172356766Y-122877304D01*
X172369214Y-122802682D01*
X172390910Y-122759754D01*
X172407204Y-122735616D01*
X172422956Y-122715315D01*
X172440912Y-122698519D01*
X172463821Y-122684897D01*
X172494429Y-122674115D01*
X172535484Y-122665842D01*
X172589733Y-122659746D01*
X172659923Y-122655494D01*
X172748802Y-122652754D01*
X172859117Y-122651194D01*
X172993616Y-122650482D01*
X173155046Y-122650285D01*
X173296257Y-122650275D01*
X173480900Y-122650195D01*
X173636379Y-122649790D01*
X173765282Y-122648800D01*
X173870195Y-122646960D01*
X173953704Y-122644008D01*
X174018396Y-122639681D01*
X174066858Y-122633716D01*
X174101676Y-122625851D01*
X174125436Y-122615822D01*
X174140726Y-122603367D01*
X174150132Y-122588222D01*
X174156241Y-122570126D01*
X174158169Y-122562685D01*
X174161858Y-122514438D01*
X174141735Y-122476823D01*
X174106535Y-122448769D01*
X174093313Y-122441430D01*
X174076225Y-122435452D01*
X174052112Y-122430698D01*
X174017819Y-122427029D01*
X173970188Y-122424307D01*
X173906062Y-122422394D01*
X173822284Y-122421151D01*
X173715697Y-122420441D01*
X173583142Y-122420125D01*
X173450839Y-122420063D01*
X173295033Y-122420004D01*
X173167705Y-122419718D01*
X173065584Y-122419045D01*
X172985398Y-122417823D01*
X172923875Y-122415891D01*
X172877743Y-122413087D01*
X172843731Y-122409251D01*
X172818567Y-122404220D01*
X172798979Y-122397834D01*
X172781696Y-122389931D01*
X172775562Y-122386765D01*
X172710463Y-122337128D01*
X172669722Y-122273546D01*
X172653339Y-122202437D01*
X172661315Y-122130221D01*
X172693649Y-122063316D01*
X172750342Y-122008141D01*
X172775562Y-121992986D01*
X172796516Y-121982967D01*
X172819395Y-121975093D01*
X172848283Y-121969042D01*
X172887267Y-121964496D01*
X172940431Y-121961134D01*
X173011863Y-121958635D01*
X173105648Y-121956680D01*
X173225871Y-121954948D01*
X173267687Y-121954425D01*
X173404293Y-121952540D01*
X173512463Y-121950164D01*
X173595512Y-121946615D01*
X173656753Y-121941211D01*
X173699500Y-121933274D01*
X173727067Y-121922121D01*
X173742768Y-121907071D01*
X173749917Y-121887444D01*
X173751827Y-121862559D01*
X173751875Y-121854940D01*
X173746609Y-121819109D01*
X173728106Y-121793305D01*
X173692304Y-121776006D01*
X173635140Y-121765692D01*
X173552553Y-121760841D01*
X173498311Y-121759973D01*
X173378651Y-121757602D01*
X173286986Y-121749930D01*
X173219600Y-121733288D01*
X173172782Y-121704010D01*
X173142816Y-121658429D01*
X173125990Y-121592878D01*
X173118589Y-121503689D01*
X173116900Y-121387197D01*
X173116899Y-121383361D01*
X173116875Y-121156284D01*
X172634824Y-121161111D01*
X172152774Y-121165938D01*
X172070524Y-121221500D01*
X171994469Y-121285485D01*
X171932712Y-121362038D01*
X171891947Y-121442159D01*
X171882884Y-121473814D01*
X171881048Y-121498069D01*
X171879296Y-121551659D01*
X171877648Y-121632172D01*
X171876126Y-121737193D01*
X171874748Y-121864308D01*
X171873537Y-122011104D01*
X171872513Y-122175166D01*
X171871696Y-122354080D01*
X171871107Y-122545432D01*
X171870767Y-122746810D01*
X171870687Y-122904250D01*
X171870687Y-124277438D01*
X171908089Y-124348875D01*
X171974771Y-124448143D01*
X172057390Y-124524487D01*
X172144479Y-124571228D01*
X172172008Y-124580652D01*
X172201043Y-124588010D01*
X172235782Y-124593553D01*
X172280420Y-124597533D01*
X172339156Y-124600203D01*
X172416187Y-124601815D01*
X172515709Y-124602620D01*
X172641919Y-124602870D01*
X172671575Y-124602876D01*
X172671575Y-124706063D01*
X172172312Y-124706063D01*
X172083094Y-124664230D01*
X171967985Y-124594688D01*
X171877192Y-124505860D01*
X171819566Y-124414924D01*
X171775437Y-124325063D01*
X171775437Y-121435813D01*
X171816915Y-121348500D01*
G36*
X172263082Y-119333048D02*
X172264241Y-119172243D01*
X172265394Y-119040217D01*
X172266702Y-118933999D01*
X172268324Y-118850621D01*
X172270420Y-118787111D01*
X172273149Y-118740500D01*
X172276672Y-118707816D01*
X172281147Y-118686090D01*
X172286735Y-118672352D01*
X172293595Y-118663631D01*
X172299312Y-118658865D01*
X172314367Y-118648176D01*
X172329654Y-118640350D01*
X172347136Y-118636421D01*
X172368775Y-118637422D01*
X172396534Y-118644386D01*
X172432377Y-118658347D01*
X172478265Y-118680338D01*
X172536163Y-118711391D01*
X172608031Y-118752540D01*
X172695834Y-118804818D01*
X172801534Y-118869258D01*
X172927094Y-118946893D01*
X173074476Y-119038757D01*
X173245644Y-119145883D01*
X173356264Y-119215209D01*
X173512128Y-119312842D01*
X173660337Y-119405551D01*
X173798662Y-119491950D01*
X173924873Y-119570651D01*
X174036742Y-119640270D01*
X174132037Y-119699419D01*
X174208532Y-119746712D01*
X174263995Y-119780763D01*
X174296198Y-119800185D01*
X174303531Y-119804282D01*
X174308879Y-119791404D01*
X174313467Y-119751344D01*
X174317278Y-119688663D01*
X174320296Y-119607922D01*
X174322502Y-119513680D01*
X174323882Y-119410498D01*
X174324416Y-119302937D01*
X174324089Y-119195555D01*
X174322884Y-119092914D01*
X174320782Y-118999574D01*
X174317769Y-118920095D01*
X174313825Y-118859037D01*
X174308935Y-118820960D01*
X174307216Y-118814511D01*
X174292147Y-118781089D01*
X174270476Y-118756607D01*
X174237335Y-118739495D01*
X174187853Y-118728184D01*
X174117160Y-118721105D01*
X174020388Y-118716688D01*
X174001906Y-118716116D01*
X173783625Y-118709647D01*
X173783625Y-118583401D01*
X174025718Y-118588887D01*
X174134101Y-118592390D01*
X174215937Y-118598198D01*
X174276412Y-118607645D01*
X174320716Y-118622065D01*
X174354034Y-118642794D01*
X174381556Y-118671165D01*
X174390469Y-118682729D01*
X174414506Y-118726324D01*
X174433492Y-118779157D01*
X174435175Y-118785917D01*
X174439959Y-118822769D01*
X174443822Y-118884942D01*
X174446784Y-118967803D01*
X174448867Y-119066718D01*
X174450093Y-119177053D01*
X174450482Y-119294174D01*
X174450057Y-119413448D01*
X174448839Y-119530241D01*
X174446849Y-119639920D01*
X174444109Y-119737850D01*
X174440639Y-119819398D01*
X174436463Y-119879931D01*
X174431600Y-119914814D01*
X174429929Y-119919750D01*
X174396849Y-119953952D01*
X174348125Y-119964709D01*
X174290802Y-119950785D01*
X174280772Y-119945908D01*
X174259970Y-119933708D01*
X174214555Y-119906138D01*
X174146852Y-119864636D01*
X174059184Y-119810638D01*
X173953877Y-119745581D01*
X173833254Y-119670901D01*
X173699639Y-119588036D01*
X173555357Y-119498423D01*
X173402733Y-119403498D01*
X173315312Y-119349070D01*
X172394562Y-118775605D01*
X172390405Y-119379428D01*
X172386247Y-119983250D01*
X172258603Y-119983250D01*
X172263082Y-119333048D01*
X172263082Y-119333048D01*
G37*
X172263082Y-119333048D02*
X172264241Y-119172243D01*
X172265394Y-119040217D01*
X172266702Y-118933999D01*
X172268324Y-118850621D01*
X172270420Y-118787111D01*
X172273149Y-118740500D01*
X172276672Y-118707816D01*
X172281147Y-118686090D01*
X172286735Y-118672352D01*
X172293595Y-118663631D01*
X172299312Y-118658865D01*
X172314367Y-118648176D01*
X172329654Y-118640350D01*
X172347136Y-118636421D01*
X172368775Y-118637422D01*
X172396534Y-118644386D01*
X172432377Y-118658347D01*
X172478265Y-118680338D01*
X172536163Y-118711391D01*
X172608031Y-118752540D01*
X172695834Y-118804818D01*
X172801534Y-118869258D01*
X172927094Y-118946893D01*
X173074476Y-119038757D01*
X173245644Y-119145883D01*
X173356264Y-119215209D01*
X173512128Y-119312842D01*
X173660337Y-119405551D01*
X173798662Y-119491950D01*
X173924873Y-119570651D01*
X174036742Y-119640270D01*
X174132037Y-119699419D01*
X174208532Y-119746712D01*
X174263995Y-119780763D01*
X174296198Y-119800185D01*
X174303531Y-119804282D01*
X174308879Y-119791404D01*
X174313467Y-119751344D01*
X174317278Y-119688663D01*
X174320296Y-119607922D01*
X174322502Y-119513680D01*
X174323882Y-119410498D01*
X174324416Y-119302937D01*
X174324089Y-119195555D01*
X174322884Y-119092914D01*
X174320782Y-118999574D01*
X174317769Y-118920095D01*
X174313825Y-118859037D01*
X174308935Y-118820960D01*
X174307216Y-118814511D01*
X174292147Y-118781089D01*
X174270476Y-118756607D01*
X174237335Y-118739495D01*
X174187853Y-118728184D01*
X174117160Y-118721105D01*
X174020388Y-118716688D01*
X174001906Y-118716116D01*
X173783625Y-118709647D01*
X173783625Y-118583401D01*
X174025718Y-118588887D01*
X174134101Y-118592390D01*
X174215937Y-118598198D01*
X174276412Y-118607645D01*
X174320716Y-118622065D01*
X174354034Y-118642794D01*
X174381556Y-118671165D01*
X174390469Y-118682729D01*
X174414506Y-118726324D01*
X174433492Y-118779157D01*
X174435175Y-118785917D01*
X174439959Y-118822769D01*
X174443822Y-118884942D01*
X174446784Y-118967803D01*
X174448867Y-119066718D01*
X174450093Y-119177053D01*
X174450482Y-119294174D01*
X174450057Y-119413448D01*
X174448839Y-119530241D01*
X174446849Y-119639920D01*
X174444109Y-119737850D01*
X174440639Y-119819398D01*
X174436463Y-119879931D01*
X174431600Y-119914814D01*
X174429929Y-119919750D01*
X174396849Y-119953952D01*
X174348125Y-119964709D01*
X174290802Y-119950785D01*
X174280772Y-119945908D01*
X174259970Y-119933708D01*
X174214555Y-119906138D01*
X174146852Y-119864636D01*
X174059184Y-119810638D01*
X173953877Y-119745581D01*
X173833254Y-119670901D01*
X173699639Y-119588036D01*
X173555357Y-119498423D01*
X173402733Y-119403498D01*
X173315312Y-119349070D01*
X172394562Y-118775605D01*
X172390405Y-119379428D01*
X172386247Y-119983250D01*
X172258603Y-119983250D01*
X172263082Y-119333048D01*
G36*
X172262598Y-115528998D02*
X172267789Y-115423602D01*
X172275811Y-115327399D01*
X172286408Y-115247865D01*
X172299322Y-115192480D01*
X172299428Y-115192172D01*
X172350262Y-115090053D01*
X172424188Y-115005371D01*
X172516249Y-114943445D01*
X172541920Y-114931980D01*
X172561583Y-114924208D01*
X172580788Y-114917606D01*
X172602202Y-114912065D01*
X172628490Y-114907474D01*
X172662316Y-114903722D01*
X172706346Y-114900700D01*
X172763245Y-114898297D01*
X172835678Y-114896404D01*
X172926311Y-114894908D01*
X173037808Y-114893701D01*
X173172835Y-114892672D01*
X173334057Y-114891711D01*
X173524140Y-114890707D01*
X173541531Y-114890618D01*
X174450375Y-114885922D01*
X174450375Y-115014375D01*
X173588068Y-115014375D01*
X173388507Y-115014448D01*
X173218089Y-115014817D01*
X173074211Y-115015714D01*
X172954267Y-115017369D01*
X172855650Y-115020012D01*
X172775757Y-115023872D01*
X172711980Y-115029181D01*
X172661715Y-115036167D01*
X172622357Y-115045062D01*
X172591300Y-115056095D01*
X172565938Y-115069497D01*
X172543666Y-115085497D01*
X172521878Y-115104326D01*
X172516760Y-115108992D01*
X172477834Y-115153610D01*
X172441154Y-115209833D01*
X172429517Y-115232523D01*
X172416760Y-115262793D01*
X172407539Y-115293571D01*
X172401289Y-115330593D01*
X172397443Y-115379593D01*
X172395435Y-115446306D01*
X172394699Y-115536467D01*
X172394632Y-115585875D01*
X172395496Y-115708189D01*
X172398978Y-115803932D01*
X172406307Y-115878253D01*
X172418711Y-115936302D01*
X172437420Y-115983227D01*
X172463663Y-116024178D01*
X172498669Y-116064303D01*
X172512103Y-116077991D01*
X172564781Y-116125351D01*
X172612725Y-116153829D01*
X172668773Y-116170992D01*
X172670519Y-116171370D01*
X172710228Y-116176114D01*
X172781678Y-116180122D01*
X172884869Y-116183395D01*
X173019800Y-116185931D01*
X173186472Y-116187732D01*
X173384884Y-116188796D01*
X173601843Y-116189125D01*
X174450375Y-116189125D01*
X174450375Y-116301237D01*
X173533593Y-116296775D01*
X172616812Y-116292313D01*
X172537437Y-116255743D01*
X172440778Y-116197245D01*
X172366344Y-116119823D01*
X172312131Y-116020699D01*
X172276131Y-115897100D01*
X172275302Y-115892936D01*
X172266591Y-115825554D01*
X172261742Y-115737452D01*
X172260496Y-115636107D01*
X172262598Y-115528998D01*
X172262598Y-115528998D01*
G37*
X172262598Y-115528998D02*
X172267789Y-115423602D01*
X172275811Y-115327399D01*
X172286408Y-115247865D01*
X172299322Y-115192480D01*
X172299428Y-115192172D01*
X172350262Y-115090053D01*
X172424188Y-115005371D01*
X172516249Y-114943445D01*
X172541920Y-114931980D01*
X172561583Y-114924208D01*
X172580788Y-114917606D01*
X172602202Y-114912065D01*
X172628490Y-114907474D01*
X172662316Y-114903722D01*
X172706346Y-114900700D01*
X172763245Y-114898297D01*
X172835678Y-114896404D01*
X172926311Y-114894908D01*
X173037808Y-114893701D01*
X173172835Y-114892672D01*
X173334057Y-114891711D01*
X173524140Y-114890707D01*
X173541531Y-114890618D01*
X174450375Y-114885922D01*
X174450375Y-115014375D01*
X173588068Y-115014375D01*
X173388507Y-115014448D01*
X173218089Y-115014817D01*
X173074211Y-115015714D01*
X172954267Y-115017369D01*
X172855650Y-115020012D01*
X172775757Y-115023872D01*
X172711980Y-115029181D01*
X172661715Y-115036167D01*
X172622357Y-115045062D01*
X172591300Y-115056095D01*
X172565938Y-115069497D01*
X172543666Y-115085497D01*
X172521878Y-115104326D01*
X172516760Y-115108992D01*
X172477834Y-115153610D01*
X172441154Y-115209833D01*
X172429517Y-115232523D01*
X172416760Y-115262793D01*
X172407539Y-115293571D01*
X172401289Y-115330593D01*
X172397443Y-115379593D01*
X172395435Y-115446306D01*
X172394699Y-115536467D01*
X172394632Y-115585875D01*
X172395496Y-115708189D01*
X172398978Y-115803932D01*
X172406307Y-115878253D01*
X172418711Y-115936302D01*
X172437420Y-115983227D01*
X172463663Y-116024178D01*
X172498669Y-116064303D01*
X172512103Y-116077991D01*
X172564781Y-116125351D01*
X172612725Y-116153829D01*
X172668773Y-116170992D01*
X172670519Y-116171370D01*
X172710228Y-116176114D01*
X172781678Y-116180122D01*
X172884869Y-116183395D01*
X173019800Y-116185931D01*
X173186472Y-116187732D01*
X173384884Y-116188796D01*
X173601843Y-116189125D01*
X174450375Y-116189125D01*
X174450375Y-116301237D01*
X173533593Y-116296775D01*
X172616812Y-116292313D01*
X172537437Y-116255743D01*
X172440778Y-116197245D01*
X172366344Y-116119823D01*
X172312131Y-116020699D01*
X172276131Y-115897100D01*
X172275302Y-115892936D01*
X172266591Y-115825554D01*
X172261742Y-115737452D01*
X172260496Y-115636107D01*
X172262598Y-115528998D01*
G36*
X172259625Y-114284125D02*
X172259625Y-113696750D01*
X172386625Y-113696750D01*
X172386625Y-114284125D01*
X174450375Y-114284125D01*
X174450375Y-114427000D01*
X171592875Y-114427000D01*
X171592875Y-114284125D01*
X172259625Y-114284125D01*
X172259625Y-114284125D01*
G37*
X172259625Y-114284125D02*
X172259625Y-113696750D01*
X172386625Y-113696750D01*
X172386625Y-114284125D01*
X174450375Y-114284125D01*
X174450375Y-114427000D01*
X171592875Y-114427000D01*
X171592875Y-114284125D01*
X172259625Y-114284125D01*
G36*
X172259625Y-113379250D02*
X172259900Y-113026032D01*
X172261330Y-112867175D01*
X172265918Y-112735961D01*
X172274521Y-112628366D01*
X172287998Y-112540368D01*
X172307206Y-112467941D01*
X172333001Y-112407064D01*
X172366240Y-112353712D01*
X172407782Y-112303862D01*
X172415508Y-112295680D01*
X172464265Y-112255011D01*
X172525797Y-112216892D01*
X172560602Y-112200430D01*
X172579901Y-112192845D01*
X172599108Y-112186407D01*
X172620900Y-112181006D01*
X172647950Y-112176533D01*
X172682933Y-112172881D01*
X172728523Y-112169939D01*
X172787396Y-112167600D01*
X172862225Y-112165754D01*
X172955686Y-112164294D01*
X173070452Y-112163109D01*
X173209199Y-112162092D01*
X173374601Y-112161134D01*
X173549468Y-112160226D01*
X174450375Y-112155639D01*
X174450375Y-112282620D01*
X173564892Y-112287216D01*
X172679409Y-112291813D01*
X172602178Y-112331572D01*
X172544646Y-112365024D01*
X172498114Y-112402494D01*
X172461470Y-112447570D01*
X172433600Y-112503839D01*
X172413393Y-112574892D01*
X172399736Y-112664315D01*
X172391516Y-112775697D01*
X172387622Y-112912627D01*
X172386872Y-113026032D01*
X172386625Y-113379250D01*
X174450375Y-113379250D01*
X174450375Y-113506250D01*
X171592875Y-113506250D01*
X171592875Y-113379250D01*
X172259625Y-113379250D01*
X172259625Y-113379250D01*
G37*
X172259625Y-113379250D02*
X172259900Y-113026032D01*
X172261330Y-112867175D01*
X172265918Y-112735961D01*
X172274521Y-112628366D01*
X172287998Y-112540368D01*
X172307206Y-112467941D01*
X172333001Y-112407064D01*
X172366240Y-112353712D01*
X172407782Y-112303862D01*
X172415508Y-112295680D01*
X172464265Y-112255011D01*
X172525797Y-112216892D01*
X172560602Y-112200430D01*
X172579901Y-112192845D01*
X172599108Y-112186407D01*
X172620900Y-112181006D01*
X172647950Y-112176533D01*
X172682933Y-112172881D01*
X172728523Y-112169939D01*
X172787396Y-112167600D01*
X172862225Y-112165754D01*
X172955686Y-112164294D01*
X173070452Y-112163109D01*
X173209199Y-112162092D01*
X173374601Y-112161134D01*
X173549468Y-112160226D01*
X174450375Y-112155639D01*
X174450375Y-112282620D01*
X173564892Y-112287216D01*
X172679409Y-112291813D01*
X172602178Y-112331572D01*
X172544646Y-112365024D01*
X172498114Y-112402494D01*
X172461470Y-112447570D01*
X172433600Y-112503839D01*
X172413393Y-112574892D01*
X172399736Y-112664315D01*
X172391516Y-112775697D01*
X172387622Y-112912627D01*
X172386872Y-113026032D01*
X172386625Y-113379250D01*
X174450375Y-113379250D01*
X174450375Y-113506250D01*
X171592875Y-113506250D01*
X171592875Y-113379250D01*
X172259625Y-113379250D01*
G36*
X174450375Y-111506000D02*
X174450375Y-111648875D01*
X172259625Y-111648875D01*
X172259625Y-111506000D01*
X174450375Y-111506000D01*
X174450375Y-111506000D01*
G37*
X174450375Y-111506000D02*
X174450375Y-111648875D01*
X172259625Y-111648875D01*
X172259625Y-111506000D01*
X174450375Y-111506000D01*
G36*
X172262927Y-110509844D02*
X172264641Y-110371786D01*
X172266382Y-110261494D01*
X172268445Y-110174989D01*
X172271126Y-110108288D01*
X172274717Y-110057411D01*
X172279514Y-110018375D01*
X172285811Y-109987199D01*
X172293902Y-109959901D01*
X172304081Y-109932501D01*
X172305969Y-109927727D01*
X172363004Y-109821723D01*
X172440743Y-109733890D01*
X172534037Y-109669836D01*
X172549708Y-109662330D01*
X172632687Y-109624813D01*
X174109062Y-109624813D01*
X174194219Y-109671979D01*
X174289217Y-109741157D01*
X174368173Y-109831478D01*
X174413631Y-109911787D01*
X174425738Y-109956708D01*
X174435339Y-110026390D01*
X174442316Y-110113933D01*
X174446550Y-110212438D01*
X174447920Y-110315005D01*
X174446308Y-110414734D01*
X174441595Y-110504726D01*
X174433662Y-110578081D01*
X174425813Y-110617000D01*
X174378176Y-110738431D01*
X174308672Y-110838999D01*
X174219317Y-110916543D01*
X174112128Y-110968896D01*
X174092187Y-110975162D01*
X174055988Y-110983846D01*
X174012774Y-110990101D01*
X173957689Y-110994150D01*
X173885877Y-110996219D01*
X173793235Y-110996530D01*
X173793235Y-110885626D01*
X173899721Y-110883810D01*
X173983545Y-110878005D01*
X174049210Y-110867337D01*
X174101220Y-110850931D01*
X174144079Y-110827913D01*
X174182292Y-110797410D01*
X174200879Y-110779266D01*
X174241987Y-110732694D01*
X174272870Y-110684944D01*
X174294915Y-110630545D01*
X174309510Y-110564023D01*
X174318044Y-110479903D01*
X174321903Y-110372713D01*
X174322543Y-110299500D01*
X174321713Y-110206201D01*
X174318993Y-110119286D01*
X174314749Y-110045817D01*
X174309345Y-109992857D01*
X174305753Y-109974063D01*
X174277037Y-109914491D01*
X174227644Y-109853370D01*
X174166772Y-109799897D01*
X174103618Y-109763269D01*
X174089921Y-109758253D01*
X174051801Y-109751488D01*
X173982744Y-109745528D01*
X173883553Y-109740411D01*
X173755032Y-109736176D01*
X173597985Y-109732863D01*
X173548321Y-109732095D01*
X173066955Y-109725191D01*
X173072681Y-110159189D01*
X173074742Y-110293660D01*
X173077137Y-110400159D01*
X173080108Y-110482464D01*
X173083898Y-110544355D01*
X173088751Y-110589610D01*
X173094907Y-110622007D01*
X173102612Y-110645324D01*
X173104136Y-110648750D01*
X173156623Y-110736856D01*
X173225911Y-110804308D01*
X173272817Y-110835293D01*
X173299174Y-110850251D01*
X173323593Y-110861419D01*
X173351213Y-110869449D01*
X173387173Y-110874992D01*
X173436610Y-110878699D01*
X173504665Y-110881222D01*
X173596475Y-110883213D01*
X173659581Y-110884327D01*
X173793235Y-110885626D01*
X173793235Y-110996530D01*
X173792482Y-110996533D01*
X173672648Y-110995316D01*
X173660648Y-110995142D01*
X173545011Y-110993192D01*
X173456285Y-110990887D01*
X173389634Y-110987782D01*
X173340218Y-110983431D01*
X173303201Y-110977388D01*
X173273745Y-110969206D01*
X173247011Y-110958440D01*
X173243068Y-110956636D01*
X173137370Y-110891617D01*
X173054724Y-110804835D01*
X173010355Y-110731008D01*
X172966062Y-110640813D01*
X172958125Y-110188375D01*
X172950187Y-109735938D01*
X172815250Y-109739990D01*
X172695735Y-109752154D01*
X172599961Y-109781921D01*
X172524092Y-109831159D01*
X172464292Y-109901732D01*
X172456217Y-109914697D01*
X172426957Y-109970954D01*
X172404657Y-110027207D01*
X172396861Y-110057119D01*
X172394245Y-110088569D01*
X172391877Y-110146971D01*
X172389852Y-110227526D01*
X172388267Y-110325438D01*
X172387217Y-110435907D01*
X172386801Y-110554137D01*
X172386799Y-110557469D01*
X172386625Y-110998000D01*
X172257203Y-110998000D01*
X172262927Y-110509844D01*
X172262927Y-110509844D01*
G37*
X172262927Y-110509844D02*
X172264641Y-110371786D01*
X172266382Y-110261494D01*
X172268445Y-110174989D01*
X172271126Y-110108288D01*
X172274717Y-110057411D01*
X172279514Y-110018375D01*
X172285811Y-109987199D01*
X172293902Y-109959901D01*
X172304081Y-109932501D01*
X172305969Y-109927727D01*
X172363004Y-109821723D01*
X172440743Y-109733890D01*
X172534037Y-109669836D01*
X172549708Y-109662330D01*
X172632687Y-109624813D01*
X174109062Y-109624813D01*
X174194219Y-109671979D01*
X174289217Y-109741157D01*
X174368173Y-109831478D01*
X174413631Y-109911787D01*
X174425738Y-109956708D01*
X174435339Y-110026390D01*
X174442316Y-110113933D01*
X174446550Y-110212438D01*
X174447920Y-110315005D01*
X174446308Y-110414734D01*
X174441595Y-110504726D01*
X174433662Y-110578081D01*
X174425813Y-110617000D01*
X174378176Y-110738431D01*
X174308672Y-110838999D01*
X174219317Y-110916543D01*
X174112128Y-110968896D01*
X174092187Y-110975162D01*
X174055988Y-110983846D01*
X174012774Y-110990101D01*
X173957689Y-110994150D01*
X173885877Y-110996219D01*
X173793235Y-110996530D01*
X173793235Y-110885626D01*
X173899721Y-110883810D01*
X173983545Y-110878005D01*
X174049210Y-110867337D01*
X174101220Y-110850931D01*
X174144079Y-110827913D01*
X174182292Y-110797410D01*
X174200879Y-110779266D01*
X174241987Y-110732694D01*
X174272870Y-110684944D01*
X174294915Y-110630545D01*
X174309510Y-110564023D01*
X174318044Y-110479903D01*
X174321903Y-110372713D01*
X174322543Y-110299500D01*
X174321713Y-110206201D01*
X174318993Y-110119286D01*
X174314749Y-110045817D01*
X174309345Y-109992857D01*
X174305753Y-109974063D01*
X174277037Y-109914491D01*
X174227644Y-109853370D01*
X174166772Y-109799897D01*
X174103618Y-109763269D01*
X174089921Y-109758253D01*
X174051801Y-109751488D01*
X173982744Y-109745528D01*
X173883553Y-109740411D01*
X173755032Y-109736176D01*
X173597985Y-109732863D01*
X173548321Y-109732095D01*
X173066955Y-109725191D01*
X173072681Y-110159189D01*
X173074742Y-110293660D01*
X173077137Y-110400159D01*
X173080108Y-110482464D01*
X173083898Y-110544355D01*
X173088751Y-110589610D01*
X173094907Y-110622007D01*
X173102612Y-110645324D01*
X173104136Y-110648750D01*
X173156623Y-110736856D01*
X173225911Y-110804308D01*
X173272817Y-110835293D01*
X173299174Y-110850251D01*
X173323593Y-110861419D01*
X173351213Y-110869449D01*
X173387173Y-110874992D01*
X173436610Y-110878699D01*
X173504665Y-110881222D01*
X173596475Y-110883213D01*
X173659581Y-110884327D01*
X173793235Y-110885626D01*
X173793235Y-110996530D01*
X173792482Y-110996533D01*
X173672648Y-110995316D01*
X173660648Y-110995142D01*
X173545011Y-110993192D01*
X173456285Y-110990887D01*
X173389634Y-110987782D01*
X173340218Y-110983431D01*
X173303201Y-110977388D01*
X173273745Y-110969206D01*
X173247011Y-110958440D01*
X173243068Y-110956636D01*
X173137370Y-110891617D01*
X173054724Y-110804835D01*
X173010355Y-110731008D01*
X172966062Y-110640813D01*
X172958125Y-110188375D01*
X172950187Y-109735938D01*
X172815250Y-109739990D01*
X172695735Y-109752154D01*
X172599961Y-109781921D01*
X172524092Y-109831159D01*
X172464292Y-109901732D01*
X172456217Y-109914697D01*
X172426957Y-109970954D01*
X172404657Y-110027207D01*
X172396861Y-110057119D01*
X172394245Y-110088569D01*
X172391877Y-110146971D01*
X172389852Y-110227526D01*
X172388267Y-110325438D01*
X172387217Y-110435907D01*
X172386801Y-110554137D01*
X172386799Y-110557469D01*
X172386625Y-110998000D01*
X172257203Y-110998000D01*
X172262927Y-110509844D01*
G36*
X172268144Y-108286138D02*
X172269294Y-108203939D01*
X172271784Y-108142319D01*
X172276136Y-108095694D01*
X172282872Y-108058479D01*
X172292516Y-108025088D01*
X172305589Y-107989938D01*
X172305688Y-107989688D01*
X172360358Y-107889075D01*
X172435464Y-107807046D01*
X172525913Y-107748646D01*
X172564692Y-107733216D01*
X172585305Y-107727201D01*
X172609832Y-107722063D01*
X172640916Y-107717712D01*
X172681201Y-107714057D01*
X172733332Y-107711009D01*
X172799951Y-107708478D01*
X172883704Y-107706374D01*
X172987233Y-107704607D01*
X173113183Y-107703088D01*
X173264199Y-107701726D01*
X173442922Y-107700431D01*
X173549468Y-107699744D01*
X174450375Y-107694099D01*
X174450375Y-107823000D01*
X173601843Y-107823000D01*
X173391445Y-107823339D01*
X173205474Y-107824342D01*
X173045089Y-107825986D01*
X172911445Y-107828252D01*
X172805700Y-107831118D01*
X172729012Y-107834563D01*
X172682536Y-107838565D01*
X172674135Y-107839981D01*
X172589466Y-107872910D01*
X172512135Y-107930026D01*
X172450826Y-108003791D01*
X172423545Y-108057448D01*
X172412714Y-108090424D01*
X172404878Y-108128378D01*
X172399593Y-108176863D01*
X172396411Y-108241430D01*
X172394887Y-108327632D01*
X172394562Y-108418313D01*
X172395701Y-108540527D01*
X172399985Y-108636233D01*
X172408717Y-108710621D01*
X172423200Y-108768880D01*
X172444736Y-108816197D01*
X172474627Y-108857763D01*
X172514176Y-108898767D01*
X172515465Y-108899986D01*
X172537472Y-108920118D01*
X172559246Y-108937279D01*
X172583390Y-108951704D01*
X172612506Y-108963632D01*
X172649198Y-108973300D01*
X172696070Y-108980945D01*
X172755725Y-108986804D01*
X172830766Y-108991115D01*
X172923796Y-108994115D01*
X173037418Y-108996040D01*
X173174236Y-108997130D01*
X173336854Y-108997619D01*
X173527874Y-108997747D01*
X173588068Y-108997750D01*
X174450375Y-108997750D01*
X174450375Y-109108875D01*
X173566385Y-109108875D01*
X173361253Y-109108846D01*
X173185294Y-109108558D01*
X173035930Y-109107714D01*
X172910585Y-109106013D01*
X172806680Y-109103159D01*
X172721639Y-109098851D01*
X172652885Y-109092791D01*
X172597840Y-109084680D01*
X172553927Y-109074220D01*
X172518569Y-109061112D01*
X172489189Y-109045057D01*
X172463209Y-109025756D01*
X172438051Y-109002911D01*
X172411140Y-108976223D01*
X172409717Y-108974797D01*
X172366237Y-108927802D01*
X172332480Y-108881236D01*
X172307263Y-108830268D01*
X172289405Y-108770071D01*
X172277727Y-108695815D01*
X172271047Y-108602671D01*
X172268184Y-108485810D01*
X172267811Y-108394500D01*
X172268144Y-108286138D01*
X172268144Y-108286138D01*
G37*
X172268144Y-108286138D02*
X172269294Y-108203939D01*
X172271784Y-108142319D01*
X172276136Y-108095694D01*
X172282872Y-108058479D01*
X172292516Y-108025088D01*
X172305589Y-107989938D01*
X172305688Y-107989688D01*
X172360358Y-107889075D01*
X172435464Y-107807046D01*
X172525913Y-107748646D01*
X172564692Y-107733216D01*
X172585305Y-107727201D01*
X172609832Y-107722063D01*
X172640916Y-107717712D01*
X172681201Y-107714057D01*
X172733332Y-107711009D01*
X172799951Y-107708478D01*
X172883704Y-107706374D01*
X172987233Y-107704607D01*
X173113183Y-107703088D01*
X173264199Y-107701726D01*
X173442922Y-107700431D01*
X173549468Y-107699744D01*
X174450375Y-107694099D01*
X174450375Y-107823000D01*
X173601843Y-107823000D01*
X173391445Y-107823339D01*
X173205474Y-107824342D01*
X173045089Y-107825986D01*
X172911445Y-107828252D01*
X172805700Y-107831118D01*
X172729012Y-107834563D01*
X172682536Y-107838565D01*
X172674135Y-107839981D01*
X172589466Y-107872910D01*
X172512135Y-107930026D01*
X172450826Y-108003791D01*
X172423545Y-108057448D01*
X172412714Y-108090424D01*
X172404878Y-108128378D01*
X172399593Y-108176863D01*
X172396411Y-108241430D01*
X172394887Y-108327632D01*
X172394562Y-108418313D01*
X172395701Y-108540527D01*
X172399985Y-108636233D01*
X172408717Y-108710621D01*
X172423200Y-108768880D01*
X172444736Y-108816197D01*
X172474627Y-108857763D01*
X172514176Y-108898767D01*
X172515465Y-108899986D01*
X172537472Y-108920118D01*
X172559246Y-108937279D01*
X172583390Y-108951704D01*
X172612506Y-108963632D01*
X172649198Y-108973300D01*
X172696070Y-108980945D01*
X172755725Y-108986804D01*
X172830766Y-108991115D01*
X172923796Y-108994115D01*
X173037418Y-108996040D01*
X173174236Y-108997130D01*
X173336854Y-108997619D01*
X173527874Y-108997747D01*
X173588068Y-108997750D01*
X174450375Y-108997750D01*
X174450375Y-109108875D01*
X173566385Y-109108875D01*
X173361253Y-109108846D01*
X173185294Y-109108558D01*
X173035930Y-109107714D01*
X172910585Y-109106013D01*
X172806680Y-109103159D01*
X172721639Y-109098851D01*
X172652885Y-109092791D01*
X172597840Y-109084680D01*
X172553927Y-109074220D01*
X172518569Y-109061112D01*
X172489189Y-109045057D01*
X172463209Y-109025756D01*
X172438051Y-109002911D01*
X172411140Y-108976223D01*
X172409717Y-108974797D01*
X172366237Y-108927802D01*
X172332480Y-108881236D01*
X172307263Y-108830268D01*
X172289405Y-108770071D01*
X172277727Y-108695815D01*
X172271047Y-108602671D01*
X172268184Y-108485810D01*
X172267811Y-108394500D01*
X172268144Y-108286138D01*
G36*
X171860558Y-111521878D02*
X171898066Y-111486725D01*
X171952820Y-111474250D01*
X172003575Y-111487327D01*
X172038043Y-111520866D01*
X172052867Y-111566333D01*
X172044690Y-111615193D01*
X172021500Y-111648875D01*
X171974949Y-111677165D01*
X171926154Y-111678911D01*
X171883258Y-111657573D01*
X171854404Y-111616612D01*
X171846875Y-111574680D01*
X171860558Y-111521878D01*
X171860558Y-111521878D01*
G37*
X171860558Y-111521878D02*
X171898066Y-111486725D01*
X171952820Y-111474250D01*
X172003575Y-111487327D01*
X172038043Y-111520866D01*
X172052867Y-111566333D01*
X172044690Y-111615193D01*
X172021500Y-111648875D01*
X171974949Y-111677165D01*
X171926154Y-111678911D01*
X171883258Y-111657573D01*
X171854404Y-111616612D01*
X171846875Y-111574680D01*
X171860558Y-111521878D01*
D12*
X120952381Y-107433809D02*
X120476190Y-107767143D01*
X120952381Y-108005238D02*
X119952381Y-108005238D01*
X119952381Y-107624285D01*
X120000000Y-107529047D01*
X120047619Y-107481428D01*
X120142857Y-107433809D01*
X120285714Y-107433809D01*
X120380952Y-107481428D01*
X120428571Y-107529047D01*
X120476190Y-107624285D01*
X120476190Y-108005238D01*
X120428571Y-106671904D02*
X120476190Y-106529047D01*
X120523810Y-106481428D01*
X120619048Y-106433809D01*
X120761905Y-106433809D01*
X120857143Y-106481428D01*
X120904762Y-106529047D01*
X120952381Y-106624285D01*
X120952381Y-107005238D01*
X119952381Y-107005238D01*
X119952381Y-106671904D01*
X120000000Y-106576666D01*
X120047619Y-106529047D01*
X120142857Y-106481428D01*
X120238095Y-106481428D01*
X120333333Y-106529047D01*
X120380952Y-106576666D01*
X120428571Y-106671904D01*
X120428571Y-107005238D01*
X120952381Y-106005238D02*
X119952381Y-106005238D01*
X119952381Y-105624285D01*
X120000000Y-105529047D01*
X120047619Y-105481428D01*
X120142857Y-105433809D01*
X120285714Y-105433809D01*
X120380952Y-105481428D01*
X120428571Y-105529047D01*
X120476190Y-105624285D01*
X120476190Y-106005238D01*
X120952381Y-105005238D02*
X120285714Y-105005238D01*
X119952381Y-105005238D02*
X120000000Y-105052857D01*
X120047619Y-105005238D01*
X120000000Y-104957619D01*
X119952381Y-105005238D01*
X120047619Y-105005238D01*
X120571429Y-104529048D02*
X120571429Y-103767143D01*
X120952381Y-102767143D02*
X120952381Y-103338572D01*
X120952381Y-103052858D02*
X119952381Y-103052858D01*
X120095238Y-103148096D01*
X120190476Y-103243334D01*
X120238095Y-103338572D01*
X67912381Y-121189286D02*
X66912381Y-121189286D01*
X67626667Y-120855952D01*
X66912381Y-120522619D01*
X67912381Y-120522619D01*
X67817143Y-119475000D02*
X67864762Y-119522619D01*
X67912381Y-119665476D01*
X67912381Y-119760714D01*
X67864762Y-119903572D01*
X67769524Y-119998810D01*
X67674286Y-120046429D01*
X67483810Y-120094048D01*
X67340952Y-120094048D01*
X67150476Y-120046429D01*
X67055238Y-119998810D01*
X66960000Y-119903572D01*
X66912381Y-119760714D01*
X66912381Y-119665476D01*
X66960000Y-119522619D01*
X67007619Y-119475000D01*
X67912381Y-119046429D02*
X66912381Y-119046429D01*
X66912381Y-118665476D01*
X66960000Y-118570238D01*
X67007619Y-118522619D01*
X67102857Y-118475000D01*
X67245714Y-118475000D01*
X67340952Y-118522619D01*
X67388571Y-118570238D01*
X67436190Y-118665476D01*
X67436190Y-119046429D01*
X67007619Y-118094048D02*
X66960000Y-118046429D01*
X66912381Y-117951191D01*
X66912381Y-117713095D01*
X66960000Y-117617857D01*
X67007619Y-117570238D01*
X67102857Y-117522619D01*
X67198095Y-117522619D01*
X67340952Y-117570238D01*
X67912381Y-118141667D01*
X67912381Y-117522619D01*
X66912381Y-117189286D02*
X66912381Y-116570238D01*
X67293333Y-116903572D01*
X67293333Y-116760714D01*
X67340952Y-116665476D01*
X67388571Y-116617857D01*
X67483810Y-116570238D01*
X67721905Y-116570238D01*
X67817143Y-116617857D01*
X67864762Y-116665476D01*
X67912381Y-116760714D01*
X67912381Y-117046429D01*
X67864762Y-117141667D01*
X67817143Y-117189286D01*
X66912381Y-115951191D02*
X66912381Y-115855952D01*
X66960000Y-115760714D01*
X67007619Y-115713095D01*
X67102857Y-115665476D01*
X67293333Y-115617857D01*
X67531429Y-115617857D01*
X67721905Y-115665476D01*
X67817143Y-115713095D01*
X67864762Y-115760714D01*
X67912381Y-115855952D01*
X67912381Y-115951191D01*
X67864762Y-116046429D01*
X67817143Y-116094048D01*
X67721905Y-116141667D01*
X67531429Y-116189286D01*
X67293333Y-116189286D01*
X67102857Y-116141667D01*
X67007619Y-116094048D01*
X66960000Y-116046429D01*
X66912381Y-115951191D01*
X67912381Y-114665476D02*
X67912381Y-115236905D01*
X67912381Y-114951191D02*
X66912381Y-114951191D01*
X67055238Y-115046429D01*
X67150476Y-115141667D01*
X67198095Y-115236905D01*
X66912381Y-114332143D02*
X66912381Y-113665476D01*
X67912381Y-114094048D01*
X129103571Y-119467381D02*
X129294048Y-119467381D01*
X129389286Y-119515000D01*
X129484524Y-119610238D01*
X129532143Y-119800714D01*
X129532143Y-120134048D01*
X129484524Y-120324524D01*
X129389286Y-120419762D01*
X129294048Y-120467381D01*
X129103571Y-120467381D01*
X129008333Y-120419762D01*
X128913095Y-120324524D01*
X128865476Y-120134048D01*
X128865476Y-119800714D01*
X128913095Y-119610238D01*
X129008333Y-119515000D01*
X129103571Y-119467381D01*
X130532143Y-120372143D02*
X130484524Y-120419762D01*
X130341667Y-120467381D01*
X130246429Y-120467381D01*
X130103571Y-120419762D01*
X130008333Y-120324524D01*
X129960714Y-120229286D01*
X129913095Y-120038810D01*
X129913095Y-119895952D01*
X129960714Y-119705476D01*
X130008333Y-119610238D01*
X130103571Y-119515000D01*
X130246429Y-119467381D01*
X130341667Y-119467381D01*
X130484524Y-119515000D01*
X130532143Y-119562619D01*
X131484524Y-120467381D02*
X130913095Y-120467381D01*
X131198809Y-120467381D02*
X131198809Y-119467381D01*
X131103571Y-119610238D01*
X131008333Y-119705476D01*
X130913095Y-119753095D01*
X144343571Y-119467381D02*
X144534048Y-119467381D01*
X144629286Y-119515000D01*
X144724524Y-119610238D01*
X144772143Y-119800714D01*
X144772143Y-120134048D01*
X144724524Y-120324524D01*
X144629286Y-120419762D01*
X144534048Y-120467381D01*
X144343571Y-120467381D01*
X144248333Y-120419762D01*
X144153095Y-120324524D01*
X144105476Y-120134048D01*
X144105476Y-119800714D01*
X144153095Y-119610238D01*
X144248333Y-119515000D01*
X144343571Y-119467381D01*
X145772143Y-120372143D02*
X145724524Y-120419762D01*
X145581667Y-120467381D01*
X145486429Y-120467381D01*
X145343571Y-120419762D01*
X145248333Y-120324524D01*
X145200714Y-120229286D01*
X145153095Y-120038810D01*
X145153095Y-119895952D01*
X145200714Y-119705476D01*
X145248333Y-119610238D01*
X145343571Y-119515000D01*
X145486429Y-119467381D01*
X145581667Y-119467381D01*
X145724524Y-119515000D01*
X145772143Y-119562619D01*
X146153095Y-119562619D02*
X146200714Y-119515000D01*
X146295952Y-119467381D01*
X146534048Y-119467381D01*
X146629286Y-119515000D01*
X146676905Y-119562619D01*
X146724524Y-119657857D01*
X146724524Y-119753095D01*
X146676905Y-119895952D01*
X146105476Y-120467381D01*
X146724524Y-120467381D01*
X159583571Y-119467381D02*
X159774048Y-119467381D01*
X159869286Y-119515000D01*
X159964524Y-119610238D01*
X160012143Y-119800714D01*
X160012143Y-120134048D01*
X159964524Y-120324524D01*
X159869286Y-120419762D01*
X159774048Y-120467381D01*
X159583571Y-120467381D01*
X159488333Y-120419762D01*
X159393095Y-120324524D01*
X159345476Y-120134048D01*
X159345476Y-119800714D01*
X159393095Y-119610238D01*
X159488333Y-119515000D01*
X159583571Y-119467381D01*
X161012143Y-120372143D02*
X160964524Y-120419762D01*
X160821667Y-120467381D01*
X160726429Y-120467381D01*
X160583571Y-120419762D01*
X160488333Y-120324524D01*
X160440714Y-120229286D01*
X160393095Y-120038810D01*
X160393095Y-119895952D01*
X160440714Y-119705476D01*
X160488333Y-119610238D01*
X160583571Y-119515000D01*
X160726429Y-119467381D01*
X160821667Y-119467381D01*
X160964524Y-119515000D01*
X161012143Y-119562619D01*
X161345476Y-119467381D02*
X161964524Y-119467381D01*
X161631190Y-119848333D01*
X161774048Y-119848333D01*
X161869286Y-119895952D01*
X161916905Y-119943571D01*
X161964524Y-120038810D01*
X161964524Y-120276905D01*
X161916905Y-120372143D01*
X161869286Y-120419762D01*
X161774048Y-120467381D01*
X161488333Y-120467381D01*
X161393095Y-120419762D01*
X161345476Y-120372143D01*
X136993334Y-110212143D02*
X136945715Y-110259762D01*
X136802858Y-110307381D01*
X136707620Y-110307381D01*
X136564762Y-110259762D01*
X136469524Y-110164524D01*
X136421905Y-110069286D01*
X136374286Y-109878810D01*
X136374286Y-109735952D01*
X136421905Y-109545476D01*
X136469524Y-109450238D01*
X136564762Y-109355000D01*
X136707620Y-109307381D01*
X136802858Y-109307381D01*
X136945715Y-109355000D01*
X136993334Y-109402619D01*
X137945715Y-110307381D02*
X137374286Y-110307381D01*
X137660000Y-110307381D02*
X137660000Y-109307381D01*
X137564762Y-109450238D01*
X137469524Y-109545476D01*
X137374286Y-109593095D01*
X152233334Y-110212143D02*
X152185715Y-110259762D01*
X152042858Y-110307381D01*
X151947620Y-110307381D01*
X151804762Y-110259762D01*
X151709524Y-110164524D01*
X151661905Y-110069286D01*
X151614286Y-109878810D01*
X151614286Y-109735952D01*
X151661905Y-109545476D01*
X151709524Y-109450238D01*
X151804762Y-109355000D01*
X151947620Y-109307381D01*
X152042858Y-109307381D01*
X152185715Y-109355000D01*
X152233334Y-109402619D01*
X152614286Y-109402619D02*
X152661905Y-109355000D01*
X152757143Y-109307381D01*
X152995239Y-109307381D01*
X153090477Y-109355000D01*
X153138096Y-109402619D01*
X153185715Y-109497857D01*
X153185715Y-109593095D01*
X153138096Y-109735952D01*
X152566667Y-110307381D01*
X153185715Y-110307381D01*
X167473334Y-110212143D02*
X167425715Y-110259762D01*
X167282858Y-110307381D01*
X167187620Y-110307381D01*
X167044762Y-110259762D01*
X166949524Y-110164524D01*
X166901905Y-110069286D01*
X166854286Y-109878810D01*
X166854286Y-109735952D01*
X166901905Y-109545476D01*
X166949524Y-109450238D01*
X167044762Y-109355000D01*
X167187620Y-109307381D01*
X167282858Y-109307381D01*
X167425715Y-109355000D01*
X167473334Y-109402619D01*
X167806667Y-109307381D02*
X168425715Y-109307381D01*
X168092381Y-109688333D01*
X168235239Y-109688333D01*
X168330477Y-109735952D01*
X168378096Y-109783571D01*
X168425715Y-109878810D01*
X168425715Y-110116905D01*
X168378096Y-110212143D01*
X168330477Y-110259762D01*
X168235239Y-110307381D01*
X167949524Y-110307381D01*
X167854286Y-110259762D01*
X167806667Y-110212143D01*
X129373334Y-124912381D02*
X129040000Y-124436190D01*
X128801905Y-124912381D02*
X128801905Y-123912381D01*
X129182858Y-123912381D01*
X129278096Y-123960000D01*
X129325715Y-124007619D01*
X129373334Y-124102857D01*
X129373334Y-124245714D01*
X129325715Y-124340952D01*
X129278096Y-124388571D01*
X129182858Y-124436190D01*
X128801905Y-124436190D01*
X130325715Y-124912381D02*
X129754286Y-124912381D01*
X130040000Y-124912381D02*
X130040000Y-123912381D01*
X129944762Y-124055238D01*
X129849524Y-124150476D01*
X129754286Y-124198095D01*
X129373334Y-122372381D02*
X129040000Y-121896190D01*
X128801905Y-122372381D02*
X128801905Y-121372381D01*
X129182858Y-121372381D01*
X129278096Y-121420000D01*
X129325715Y-121467619D01*
X129373334Y-121562857D01*
X129373334Y-121705714D01*
X129325715Y-121800952D01*
X129278096Y-121848571D01*
X129182858Y-121896190D01*
X128801905Y-121896190D01*
X129754286Y-121467619D02*
X129801905Y-121420000D01*
X129897143Y-121372381D01*
X130135239Y-121372381D01*
X130230477Y-121420000D01*
X130278096Y-121467619D01*
X130325715Y-121562857D01*
X130325715Y-121658095D01*
X130278096Y-121800952D01*
X129706667Y-122372381D01*
X130325715Y-122372381D01*
X110942381Y-116371666D02*
X110466190Y-116705000D01*
X110942381Y-116943095D02*
X109942381Y-116943095D01*
X109942381Y-116562142D01*
X109990000Y-116466904D01*
X110037619Y-116419285D01*
X110132857Y-116371666D01*
X110275714Y-116371666D01*
X110370952Y-116419285D01*
X110418571Y-116466904D01*
X110466190Y-116562142D01*
X110466190Y-116943095D01*
X109942381Y-116038333D02*
X109942381Y-115419285D01*
X110323333Y-115752619D01*
X110323333Y-115609761D01*
X110370952Y-115514523D01*
X110418571Y-115466904D01*
X110513810Y-115419285D01*
X110751905Y-115419285D01*
X110847143Y-115466904D01*
X110894762Y-115514523D01*
X110942381Y-115609761D01*
X110942381Y-115895476D01*
X110894762Y-115990714D01*
X110847143Y-116038333D01*
X137612381Y-122086666D02*
X137136190Y-122420000D01*
X137612381Y-122658095D02*
X136612381Y-122658095D01*
X136612381Y-122277142D01*
X136660000Y-122181904D01*
X136707619Y-122134285D01*
X136802857Y-122086666D01*
X136945714Y-122086666D01*
X137040952Y-122134285D01*
X137088571Y-122181904D01*
X137136190Y-122277142D01*
X137136190Y-122658095D01*
X136945714Y-121229523D02*
X137612381Y-121229523D01*
X136564762Y-121467619D02*
X137279048Y-121705714D01*
X137279048Y-121086666D01*
X144613334Y-122372381D02*
X144280000Y-121896190D01*
X144041905Y-122372381D02*
X144041905Y-121372381D01*
X144422858Y-121372381D01*
X144518096Y-121420000D01*
X144565715Y-121467619D01*
X144613334Y-121562857D01*
X144613334Y-121705714D01*
X144565715Y-121800952D01*
X144518096Y-121848571D01*
X144422858Y-121896190D01*
X144041905Y-121896190D01*
X145518096Y-121372381D02*
X145041905Y-121372381D01*
X144994286Y-121848571D01*
X145041905Y-121800952D01*
X145137143Y-121753333D01*
X145375239Y-121753333D01*
X145470477Y-121800952D01*
X145518096Y-121848571D01*
X145565715Y-121943810D01*
X145565715Y-122181905D01*
X145518096Y-122277143D01*
X145470477Y-122324762D01*
X145375239Y-122372381D01*
X145137143Y-122372381D01*
X145041905Y-122324762D01*
X144994286Y-122277143D01*
X144613334Y-124912381D02*
X144280000Y-124436190D01*
X144041905Y-124912381D02*
X144041905Y-123912381D01*
X144422858Y-123912381D01*
X144518096Y-123960000D01*
X144565715Y-124007619D01*
X144613334Y-124102857D01*
X144613334Y-124245714D01*
X144565715Y-124340952D01*
X144518096Y-124388571D01*
X144422858Y-124436190D01*
X144041905Y-124436190D01*
X145470477Y-123912381D02*
X145280000Y-123912381D01*
X145184762Y-123960000D01*
X145137143Y-124007619D01*
X145041905Y-124150476D01*
X144994286Y-124340952D01*
X144994286Y-124721905D01*
X145041905Y-124817143D01*
X145089524Y-124864762D01*
X145184762Y-124912381D01*
X145375239Y-124912381D01*
X145470477Y-124864762D01*
X145518096Y-124817143D01*
X145565715Y-124721905D01*
X145565715Y-124483810D01*
X145518096Y-124388571D01*
X145470477Y-124340952D01*
X145375239Y-124293333D01*
X145184762Y-124293333D01*
X145089524Y-124340952D01*
X145041905Y-124388571D01*
X144994286Y-124483810D01*
X159853334Y-122372381D02*
X159520000Y-121896190D01*
X159281905Y-122372381D02*
X159281905Y-121372381D01*
X159662858Y-121372381D01*
X159758096Y-121420000D01*
X159805715Y-121467619D01*
X159853334Y-121562857D01*
X159853334Y-121705714D01*
X159805715Y-121800952D01*
X159758096Y-121848571D01*
X159662858Y-121896190D01*
X159281905Y-121896190D01*
X160186667Y-121372381D02*
X160853334Y-121372381D01*
X160424762Y-122372381D01*
X159853334Y-124912381D02*
X159520000Y-124436190D01*
X159281905Y-124912381D02*
X159281905Y-123912381D01*
X159662858Y-123912381D01*
X159758096Y-123960000D01*
X159805715Y-124007619D01*
X159853334Y-124102857D01*
X159853334Y-124245714D01*
X159805715Y-124340952D01*
X159758096Y-124388571D01*
X159662858Y-124436190D01*
X159281905Y-124436190D01*
X160424762Y-124340952D02*
X160329524Y-124293333D01*
X160281905Y-124245714D01*
X160234286Y-124150476D01*
X160234286Y-124102857D01*
X160281905Y-124007619D01*
X160329524Y-123960000D01*
X160424762Y-123912381D01*
X160615239Y-123912381D01*
X160710477Y-123960000D01*
X160758096Y-124007619D01*
X160805715Y-124102857D01*
X160805715Y-124150476D01*
X160758096Y-124245714D01*
X160710477Y-124293333D01*
X160615239Y-124340952D01*
X160424762Y-124340952D01*
X160329524Y-124388571D01*
X160281905Y-124436190D01*
X160234286Y-124531429D01*
X160234286Y-124721905D01*
X160281905Y-124817143D01*
X160329524Y-124864762D01*
X160424762Y-124912381D01*
X160615239Y-124912381D01*
X160710477Y-124864762D01*
X160758096Y-124817143D01*
X160805715Y-124721905D01*
X160805715Y-124531429D01*
X160758096Y-124436190D01*
X160710477Y-124388571D01*
X160615239Y-124340952D01*
X152852381Y-122086666D02*
X152376190Y-122420000D01*
X152852381Y-122658095D02*
X151852381Y-122658095D01*
X151852381Y-122277142D01*
X151900000Y-122181904D01*
X151947619Y-122134285D01*
X152042857Y-122086666D01*
X152185714Y-122086666D01*
X152280952Y-122134285D01*
X152328571Y-122181904D01*
X152376190Y-122277142D01*
X152376190Y-122658095D01*
X152852381Y-121610476D02*
X152852381Y-121420000D01*
X152804762Y-121324761D01*
X152757143Y-121277142D01*
X152614286Y-121181904D01*
X152423810Y-121134285D01*
X152042857Y-121134285D01*
X151947619Y-121181904D01*
X151900000Y-121229523D01*
X151852381Y-121324761D01*
X151852381Y-121515238D01*
X151900000Y-121610476D01*
X151947619Y-121658095D01*
X152042857Y-121705714D01*
X152280952Y-121705714D01*
X152376190Y-121658095D01*
X152423810Y-121610476D01*
X152471429Y-121515238D01*
X152471429Y-121324761D01*
X152423810Y-121229523D01*
X152376190Y-121181904D01*
X152280952Y-121134285D01*
X116022381Y-116847857D02*
X115546190Y-117181191D01*
X116022381Y-117419286D02*
X115022381Y-117419286D01*
X115022381Y-117038333D01*
X115070000Y-116943095D01*
X115117619Y-116895476D01*
X115212857Y-116847857D01*
X115355714Y-116847857D01*
X115450952Y-116895476D01*
X115498571Y-116943095D01*
X115546190Y-117038333D01*
X115546190Y-117419286D01*
X116022381Y-115895476D02*
X116022381Y-116466905D01*
X116022381Y-116181191D02*
X115022381Y-116181191D01*
X115165238Y-116276429D01*
X115260476Y-116371667D01*
X115308095Y-116466905D01*
X115022381Y-115276429D02*
X115022381Y-115181190D01*
X115070000Y-115085952D01*
X115117619Y-115038333D01*
X115212857Y-114990714D01*
X115403333Y-114943095D01*
X115641429Y-114943095D01*
X115831905Y-114990714D01*
X115927143Y-115038333D01*
X115974762Y-115085952D01*
X116022381Y-115181190D01*
X116022381Y-115276429D01*
X115974762Y-115371667D01*
X115927143Y-115419286D01*
X115831905Y-115466905D01*
X115641429Y-115514524D01*
X115403333Y-115514524D01*
X115212857Y-115466905D01*
X115117619Y-115419286D01*
X115070000Y-115371667D01*
X115022381Y-115276429D01*
X127531905Y-127452381D02*
X127531905Y-126452381D01*
X127770000Y-126452381D01*
X127912858Y-126500000D01*
X128008096Y-126595238D01*
X128055715Y-126690476D01*
X128103334Y-126880952D01*
X128103334Y-127023810D01*
X128055715Y-127214286D01*
X128008096Y-127309524D01*
X127912858Y-127404762D01*
X127770000Y-127452381D01*
X127531905Y-127452381D01*
X129055715Y-127452381D02*
X128484286Y-127452381D01*
X128770000Y-127452381D02*
X128770000Y-126452381D01*
X128674762Y-126595238D01*
X128579524Y-126690476D01*
X128484286Y-126738095D01*
X113482381Y-115673095D02*
X112482381Y-115673095D01*
X112482381Y-115435000D01*
X112530000Y-115292142D01*
X112625238Y-115196904D01*
X112720476Y-115149285D01*
X112910952Y-115101666D01*
X113053810Y-115101666D01*
X113244286Y-115149285D01*
X113339524Y-115196904D01*
X113434762Y-115292142D01*
X113482381Y-115435000D01*
X113482381Y-115673095D01*
X112577619Y-114720714D02*
X112530000Y-114673095D01*
X112482381Y-114577857D01*
X112482381Y-114339761D01*
X112530000Y-114244523D01*
X112577619Y-114196904D01*
X112672857Y-114149285D01*
X112768095Y-114149285D01*
X112910952Y-114196904D01*
X113482381Y-114768333D01*
X113482381Y-114149285D01*
X142771905Y-127452381D02*
X142771905Y-126452381D01*
X143010000Y-126452381D01*
X143152858Y-126500000D01*
X143248096Y-126595238D01*
X143295715Y-126690476D01*
X143343334Y-126880952D01*
X143343334Y-127023810D01*
X143295715Y-127214286D01*
X143248096Y-127309524D01*
X143152858Y-127404762D01*
X143010000Y-127452381D01*
X142771905Y-127452381D01*
X143676667Y-126452381D02*
X144295715Y-126452381D01*
X143962381Y-126833333D01*
X144105239Y-126833333D01*
X144200477Y-126880952D01*
X144248096Y-126928571D01*
X144295715Y-127023810D01*
X144295715Y-127261905D01*
X144248096Y-127357143D01*
X144200477Y-127404762D01*
X144105239Y-127452381D01*
X143819524Y-127452381D01*
X143724286Y-127404762D01*
X143676667Y-127357143D01*
X158011905Y-127452381D02*
X158011905Y-126452381D01*
X158250000Y-126452381D01*
X158392858Y-126500000D01*
X158488096Y-126595238D01*
X158535715Y-126690476D01*
X158583334Y-126880952D01*
X158583334Y-127023810D01*
X158535715Y-127214286D01*
X158488096Y-127309524D01*
X158392858Y-127404762D01*
X158250000Y-127452381D01*
X158011905Y-127452381D01*
X159440477Y-126785714D02*
X159440477Y-127452381D01*
X159202381Y-126404762D02*
X158964286Y-127119048D01*
X159583334Y-127119048D01*
X93178334Y-110212143D02*
X93130715Y-110259762D01*
X92987858Y-110307381D01*
X92892620Y-110307381D01*
X92749762Y-110259762D01*
X92654524Y-110164524D01*
X92606905Y-110069286D01*
X92559286Y-109878810D01*
X92559286Y-109735952D01*
X92606905Y-109545476D01*
X92654524Y-109450238D01*
X92749762Y-109355000D01*
X92892620Y-109307381D01*
X92987858Y-109307381D01*
X93130715Y-109355000D01*
X93178334Y-109402619D01*
X94035477Y-109640714D02*
X94035477Y-110307381D01*
X93797381Y-109259762D02*
X93559286Y-109974048D01*
X94178334Y-109974048D01*
X70893572Y-123857143D02*
X70845953Y-123904762D01*
X70703096Y-123952381D01*
X70607858Y-123952381D01*
X70465000Y-123904762D01*
X70369762Y-123809524D01*
X70322143Y-123714286D01*
X70274524Y-123523810D01*
X70274524Y-123380952D01*
X70322143Y-123190476D01*
X70369762Y-123095238D01*
X70465000Y-123000000D01*
X70607858Y-122952381D01*
X70703096Y-122952381D01*
X70845953Y-123000000D01*
X70893572Y-123047619D01*
X71179286Y-122952381D02*
X71750715Y-122952381D01*
X71465000Y-123952381D02*
X71465000Y-122952381D01*
X72655477Y-123952381D02*
X72322143Y-123476190D01*
X72084048Y-123952381D02*
X72084048Y-122952381D01*
X72465001Y-122952381D01*
X72560239Y-123000000D01*
X72607858Y-123047619D01*
X72655477Y-123142857D01*
X72655477Y-123285714D01*
X72607858Y-123380952D01*
X72560239Y-123428571D01*
X72465001Y-123476190D01*
X72084048Y-123476190D01*
X73560239Y-123952381D02*
X73084048Y-123952381D01*
X73084048Y-122952381D01*
X73893572Y-123571429D02*
X74655477Y-123571429D01*
X75655477Y-123952381D02*
X75084048Y-123952381D01*
X75369762Y-123952381D02*
X75369762Y-122952381D01*
X75274524Y-123095238D01*
X75179286Y-123190476D01*
X75084048Y-123238095D01*
X84863572Y-123857143D02*
X84815953Y-123904762D01*
X84673096Y-123952381D01*
X84577858Y-123952381D01*
X84435000Y-123904762D01*
X84339762Y-123809524D01*
X84292143Y-123714286D01*
X84244524Y-123523810D01*
X84244524Y-123380952D01*
X84292143Y-123190476D01*
X84339762Y-123095238D01*
X84435000Y-123000000D01*
X84577858Y-122952381D01*
X84673096Y-122952381D01*
X84815953Y-123000000D01*
X84863572Y-123047619D01*
X85149286Y-122952381D02*
X85720715Y-122952381D01*
X85435000Y-123952381D02*
X85435000Y-122952381D01*
X86625477Y-123952381D02*
X86292143Y-123476190D01*
X86054048Y-123952381D02*
X86054048Y-122952381D01*
X86435001Y-122952381D01*
X86530239Y-123000000D01*
X86577858Y-123047619D01*
X86625477Y-123142857D01*
X86625477Y-123285714D01*
X86577858Y-123380952D01*
X86530239Y-123428571D01*
X86435001Y-123476190D01*
X86054048Y-123476190D01*
X87530239Y-123952381D02*
X87054048Y-123952381D01*
X87054048Y-122952381D01*
X87863572Y-123571429D02*
X88625477Y-123571429D01*
X89054048Y-123047619D02*
X89101667Y-123000000D01*
X89196905Y-122952381D01*
X89435001Y-122952381D01*
X89530239Y-123000000D01*
X89577858Y-123047619D01*
X89625477Y-123142857D01*
X89625477Y-123238095D01*
X89577858Y-123380952D01*
X89006429Y-123952381D01*
X89625477Y-123952381D01*
X98833572Y-123857143D02*
X98785953Y-123904762D01*
X98643096Y-123952381D01*
X98547858Y-123952381D01*
X98405000Y-123904762D01*
X98309762Y-123809524D01*
X98262143Y-123714286D01*
X98214524Y-123523810D01*
X98214524Y-123380952D01*
X98262143Y-123190476D01*
X98309762Y-123095238D01*
X98405000Y-123000000D01*
X98547858Y-122952381D01*
X98643096Y-122952381D01*
X98785953Y-123000000D01*
X98833572Y-123047619D01*
X99119286Y-122952381D02*
X99690715Y-122952381D01*
X99405000Y-123952381D02*
X99405000Y-122952381D01*
X100595477Y-123952381D02*
X100262143Y-123476190D01*
X100024048Y-123952381D02*
X100024048Y-122952381D01*
X100405001Y-122952381D01*
X100500239Y-123000000D01*
X100547858Y-123047619D01*
X100595477Y-123142857D01*
X100595477Y-123285714D01*
X100547858Y-123380952D01*
X100500239Y-123428571D01*
X100405001Y-123476190D01*
X100024048Y-123476190D01*
X101500239Y-123952381D02*
X101024048Y-123952381D01*
X101024048Y-122952381D01*
X101833572Y-123571429D02*
X102595477Y-123571429D01*
X102976429Y-122952381D02*
X103595477Y-122952381D01*
X103262143Y-123333333D01*
X103405001Y-123333333D01*
X103500239Y-123380952D01*
X103547858Y-123428571D01*
X103595477Y-123523810D01*
X103595477Y-123761905D01*
X103547858Y-123857143D01*
X103500239Y-123904762D01*
X103405001Y-123952381D01*
X103119286Y-123952381D01*
X103024048Y-123904762D01*
X102976429Y-123857143D01*
X112803572Y-123857143D02*
X112755953Y-123904762D01*
X112613096Y-123952381D01*
X112517858Y-123952381D01*
X112375000Y-123904762D01*
X112279762Y-123809524D01*
X112232143Y-123714286D01*
X112184524Y-123523810D01*
X112184524Y-123380952D01*
X112232143Y-123190476D01*
X112279762Y-123095238D01*
X112375000Y-123000000D01*
X112517858Y-122952381D01*
X112613096Y-122952381D01*
X112755953Y-123000000D01*
X112803572Y-123047619D01*
X113089286Y-122952381D02*
X113660715Y-122952381D01*
X113375000Y-123952381D02*
X113375000Y-122952381D01*
X114565477Y-123952381D02*
X114232143Y-123476190D01*
X113994048Y-123952381D02*
X113994048Y-122952381D01*
X114375001Y-122952381D01*
X114470239Y-123000000D01*
X114517858Y-123047619D01*
X114565477Y-123142857D01*
X114565477Y-123285714D01*
X114517858Y-123380952D01*
X114470239Y-123428571D01*
X114375001Y-123476190D01*
X113994048Y-123476190D01*
X115470239Y-123952381D02*
X114994048Y-123952381D01*
X114994048Y-122952381D01*
X115803572Y-123571429D02*
X116565477Y-123571429D01*
X117470239Y-123285714D02*
X117470239Y-123952381D01*
X117232143Y-122904762D02*
X116994048Y-123619048D01*
X117613096Y-123619048D01*
X129516525Y-109545381D02*
X129516525Y-108545381D01*
X129849859Y-109259667D01*
X130183192Y-108545381D01*
X130183192Y-109545381D01*
X130659382Y-109545381D02*
X130659382Y-108545381D01*
X131135572Y-109545381D02*
X131135572Y-108545381D01*
X131373667Y-108545381D01*
X131516525Y-108593000D01*
X131611763Y-108688238D01*
X131659382Y-108783476D01*
X131707001Y-108973952D01*
X131707001Y-109116810D01*
X131659382Y-109307286D01*
X131611763Y-109402524D01*
X131516525Y-109497762D01*
X131373667Y-109545381D01*
X131135572Y-109545381D01*
X132135572Y-109545381D02*
X132135572Y-108545381D01*
X132611762Y-109164429D02*
X133373667Y-109164429D01*
X133849857Y-109545381D02*
X133849857Y-108545381D01*
X134326047Y-109545381D02*
X134326047Y-108545381D01*
X134897476Y-109545381D01*
X134897476Y-108545381D01*
X143145358Y-109545381D02*
X143145358Y-108545381D01*
X143478692Y-109259667D01*
X143812025Y-108545381D01*
X143812025Y-109545381D01*
X144288215Y-109545381D02*
X144288215Y-108545381D01*
X144764405Y-109545381D02*
X144764405Y-108545381D01*
X145002500Y-108545381D01*
X145145358Y-108593000D01*
X145240596Y-108688238D01*
X145288215Y-108783476D01*
X145335834Y-108973952D01*
X145335834Y-109116810D01*
X145288215Y-109307286D01*
X145240596Y-109402524D01*
X145145358Y-109497762D01*
X145002500Y-109545381D01*
X144764405Y-109545381D01*
X145764405Y-109545381D02*
X145764405Y-108545381D01*
X146240595Y-109164429D02*
X147002500Y-109164429D01*
X147335833Y-108545381D02*
X147907262Y-108545381D01*
X147621547Y-109545381D02*
X147621547Y-108545381D01*
X148240595Y-109545381D02*
X148240595Y-108545381D01*
X148240595Y-109021571D02*
X148812024Y-109021571D01*
X148812024Y-109545381D02*
X148812024Y-108545381D01*
X149859643Y-109545381D02*
X149526309Y-109069190D01*
X149288214Y-109545381D02*
X149288214Y-108545381D01*
X149669167Y-108545381D01*
X149764405Y-108593000D01*
X149812024Y-108640619D01*
X149859643Y-108735857D01*
X149859643Y-108878714D01*
X149812024Y-108973952D01*
X149764405Y-109021571D01*
X149669167Y-109069190D01*
X149288214Y-109069190D01*
X150288214Y-108545381D02*
X150288214Y-109354905D01*
X150335833Y-109450143D01*
X150383452Y-109497762D01*
X150478690Y-109545381D01*
X150669167Y-109545381D01*
X150764405Y-109497762D01*
X150812024Y-109450143D01*
X150859643Y-109354905D01*
X150859643Y-108545381D01*
X158123358Y-109545381D02*
X158123358Y-108545381D01*
X158456692Y-109259667D01*
X158790025Y-108545381D01*
X158790025Y-109545381D01*
X159266215Y-109545381D02*
X159266215Y-108545381D01*
X159742405Y-109545381D02*
X159742405Y-108545381D01*
X159980500Y-108545381D01*
X160123358Y-108593000D01*
X160218596Y-108688238D01*
X160266215Y-108783476D01*
X160313834Y-108973952D01*
X160313834Y-109116810D01*
X160266215Y-109307286D01*
X160218596Y-109402524D01*
X160123358Y-109497762D01*
X159980500Y-109545381D01*
X159742405Y-109545381D01*
X160742405Y-109545381D02*
X160742405Y-108545381D01*
X161218595Y-109164429D02*
X161980500Y-109164429D01*
X162647166Y-108545381D02*
X162837643Y-108545381D01*
X162932881Y-108593000D01*
X163028119Y-108688238D01*
X163075738Y-108878714D01*
X163075738Y-109212048D01*
X163028119Y-109402524D01*
X162932881Y-109497762D01*
X162837643Y-109545381D01*
X162647166Y-109545381D01*
X162551928Y-109497762D01*
X162456690Y-109402524D01*
X162409071Y-109212048D01*
X162409071Y-108878714D01*
X162456690Y-108688238D01*
X162551928Y-108593000D01*
X162647166Y-108545381D01*
X163504309Y-108545381D02*
X163504309Y-109354905D01*
X163551928Y-109450143D01*
X163599547Y-109497762D01*
X163694785Y-109545381D01*
X163885262Y-109545381D01*
X163980500Y-109497762D01*
X164028119Y-109450143D01*
X164075738Y-109354905D01*
X164075738Y-108545381D01*
X164409071Y-108545381D02*
X164980500Y-108545381D01*
X164694785Y-109545381D02*
X164694785Y-108545381D01*
M02*
