G04 #@! TF.FileFunction,Soldermask,Top*
%FSLAX46Y46*%
G04 Gerber Fmt 4.6, Leading zero omitted, Abs format (unit mm)*
G04 Created by KiCad (PCBNEW 4.0.6) date Tue Jun  5 10:56:58 2018*
%MOMM*%
%LPD*%
G01*
G04 APERTURE LIST*
%ADD10C,0.100000*%
%ADD11C,0.010000*%
%ADD12R,1.700000X1.700000*%
%ADD13O,1.700000X1.700000*%
%ADD14R,1.600000X1.600000*%
%ADD15O,1.600000X1.600000*%
%ADD16C,1.600000*%
%ADD17C,1.524000*%
%ADD18R,1.397000X1.397000*%
%ADD19C,1.397000*%
%ADD20C,2.700000*%
%ADD21R,1.750000X1.750000*%
%ADD22C,1.750000*%
%ADD23C,1.778000*%
%ADD24R,1.778000X1.778000*%
G04 APERTURE END LIST*
D10*
D11*
G36*
X64814505Y-118801114D02*
X64851727Y-118726461D01*
X64920261Y-118660569D01*
X64945648Y-118642423D01*
X64978866Y-118622655D01*
X65014945Y-118609828D01*
X65063098Y-118602490D01*
X65132536Y-118599187D01*
X65224206Y-118598462D01*
X65349830Y-118601737D01*
X65444154Y-118613123D01*
X65514523Y-118634959D01*
X65568286Y-118669581D01*
X65612788Y-118719330D01*
X65615423Y-118722986D01*
X65642377Y-118772015D01*
X65655712Y-118831055D01*
X65659000Y-118906141D01*
X65659000Y-119028205D01*
X65777497Y-119028256D01*
X65843492Y-119029392D01*
X65882202Y-119036314D01*
X65905419Y-119054402D01*
X65924933Y-119089038D01*
X65928920Y-119097355D01*
X65947603Y-119136280D01*
X65959403Y-119166417D01*
X65960422Y-119188826D01*
X65946761Y-119204567D01*
X65914522Y-119214698D01*
X65859804Y-119220277D01*
X65778711Y-119222365D01*
X65667344Y-119222019D01*
X65521802Y-119220300D01*
X65478269Y-119219763D01*
X65328205Y-119217828D01*
X65230042Y-119216096D01*
X65230042Y-119028308D01*
X65313364Y-119027252D01*
X65367880Y-119022562D01*
X65403837Y-119011949D01*
X65431482Y-118993128D01*
X65444965Y-118980350D01*
X65484417Y-118928110D01*
X65487628Y-118881858D01*
X65455049Y-118834133D01*
X65453846Y-118832923D01*
X65428668Y-118813506D01*
X65394447Y-118801693D01*
X65341748Y-118795735D01*
X65261131Y-118793880D01*
X65243271Y-118793846D01*
X65132175Y-118798330D01*
X65055161Y-118812926D01*
X65008147Y-118839350D01*
X64987050Y-118879317D01*
X64984923Y-118902416D01*
X64994900Y-118957238D01*
X65027752Y-118994842D01*
X65087857Y-119017477D01*
X65179598Y-119027394D01*
X65230042Y-119028308D01*
X65230042Y-119216096D01*
X65212060Y-119215778D01*
X65124679Y-119213127D01*
X65060905Y-119209394D01*
X65015582Y-119204093D01*
X64983555Y-119196742D01*
X64959668Y-119186857D01*
X64938764Y-119173954D01*
X64930898Y-119168421D01*
X64856595Y-119095031D01*
X64814467Y-119002240D01*
X64802722Y-118894904D01*
X64814505Y-118801114D01*
X64814505Y-118801114D01*
G37*
X64814505Y-118801114D02*
X64851727Y-118726461D01*
X64920261Y-118660569D01*
X64945648Y-118642423D01*
X64978866Y-118622655D01*
X65014945Y-118609828D01*
X65063098Y-118602490D01*
X65132536Y-118599187D01*
X65224206Y-118598462D01*
X65349830Y-118601737D01*
X65444154Y-118613123D01*
X65514523Y-118634959D01*
X65568286Y-118669581D01*
X65612788Y-118719330D01*
X65615423Y-118722986D01*
X65642377Y-118772015D01*
X65655712Y-118831055D01*
X65659000Y-118906141D01*
X65659000Y-119028205D01*
X65777497Y-119028256D01*
X65843492Y-119029392D01*
X65882202Y-119036314D01*
X65905419Y-119054402D01*
X65924933Y-119089038D01*
X65928920Y-119097355D01*
X65947603Y-119136280D01*
X65959403Y-119166417D01*
X65960422Y-119188826D01*
X65946761Y-119204567D01*
X65914522Y-119214698D01*
X65859804Y-119220277D01*
X65778711Y-119222365D01*
X65667344Y-119222019D01*
X65521802Y-119220300D01*
X65478269Y-119219763D01*
X65328205Y-119217828D01*
X65230042Y-119216096D01*
X65230042Y-119028308D01*
X65313364Y-119027252D01*
X65367880Y-119022562D01*
X65403837Y-119011949D01*
X65431482Y-118993128D01*
X65444965Y-118980350D01*
X65484417Y-118928110D01*
X65487628Y-118881858D01*
X65455049Y-118834133D01*
X65453846Y-118832923D01*
X65428668Y-118813506D01*
X65394447Y-118801693D01*
X65341748Y-118795735D01*
X65261131Y-118793880D01*
X65243271Y-118793846D01*
X65132175Y-118798330D01*
X65055161Y-118812926D01*
X65008147Y-118839350D01*
X64987050Y-118879317D01*
X64984923Y-118902416D01*
X64994900Y-118957238D01*
X65027752Y-118994842D01*
X65087857Y-119017477D01*
X65179598Y-119027394D01*
X65230042Y-119028308D01*
X65230042Y-119216096D01*
X65212060Y-119215778D01*
X65124679Y-119213127D01*
X65060905Y-119209394D01*
X65015582Y-119204093D01*
X64983555Y-119196742D01*
X64959668Y-119186857D01*
X64938764Y-119173954D01*
X64930898Y-119168421D01*
X64856595Y-119095031D01*
X64814467Y-119002240D01*
X64802722Y-118894904D01*
X64814505Y-118801114D01*
G36*
X64825089Y-117298336D02*
X64861358Y-117235633D01*
X64897358Y-117192039D01*
X64935075Y-117160155D01*
X64981199Y-117138190D01*
X65042421Y-117124351D01*
X65125431Y-117116847D01*
X65236919Y-117113883D01*
X65317062Y-117113539D01*
X65612065Y-117113539D01*
X65686515Y-117279615D01*
X65363402Y-117289385D01*
X65242729Y-117293421D01*
X65155141Y-117297656D01*
X65094650Y-117302903D01*
X65055268Y-117309975D01*
X65031007Y-117319689D01*
X65015880Y-117332856D01*
X65012606Y-117337081D01*
X64987034Y-117401091D01*
X64997153Y-117465792D01*
X65024000Y-117504308D01*
X65043024Y-117519975D01*
X65067988Y-117530820D01*
X65105834Y-117537712D01*
X65163502Y-117541521D01*
X65247935Y-117543117D01*
X65335928Y-117543385D01*
X65446323Y-117543437D01*
X65524463Y-117545328D01*
X65577165Y-117551655D01*
X65611242Y-117565017D01*
X65633511Y-117588015D01*
X65650787Y-117623246D01*
X65668738Y-117670303D01*
X65688278Y-117721697D01*
X65341485Y-117715579D01*
X65216468Y-117713116D01*
X65124082Y-117710233D01*
X65057881Y-117706102D01*
X65011420Y-117699893D01*
X64978256Y-117690774D01*
X64951944Y-117677917D01*
X64928729Y-117662416D01*
X64854569Y-117587629D01*
X64811684Y-117496372D01*
X64801412Y-117397117D01*
X64825089Y-117298336D01*
X64825089Y-117298336D01*
G37*
X64825089Y-117298336D02*
X64861358Y-117235633D01*
X64897358Y-117192039D01*
X64935075Y-117160155D01*
X64981199Y-117138190D01*
X65042421Y-117124351D01*
X65125431Y-117116847D01*
X65236919Y-117113883D01*
X65317062Y-117113539D01*
X65612065Y-117113539D01*
X65686515Y-117279615D01*
X65363402Y-117289385D01*
X65242729Y-117293421D01*
X65155141Y-117297656D01*
X65094650Y-117302903D01*
X65055268Y-117309975D01*
X65031007Y-117319689D01*
X65015880Y-117332856D01*
X65012606Y-117337081D01*
X64987034Y-117401091D01*
X64997153Y-117465792D01*
X65024000Y-117504308D01*
X65043024Y-117519975D01*
X65067988Y-117530820D01*
X65105834Y-117537712D01*
X65163502Y-117541521D01*
X65247935Y-117543117D01*
X65335928Y-117543385D01*
X65446323Y-117543437D01*
X65524463Y-117545328D01*
X65577165Y-117551655D01*
X65611242Y-117565017D01*
X65633511Y-117588015D01*
X65650787Y-117623246D01*
X65668738Y-117670303D01*
X65688278Y-117721697D01*
X65341485Y-117715579D01*
X65216468Y-117713116D01*
X65124082Y-117710233D01*
X65057881Y-117706102D01*
X65011420Y-117699893D01*
X64978256Y-117690774D01*
X64951944Y-117677917D01*
X64928729Y-117662416D01*
X64854569Y-117587629D01*
X64811684Y-117496372D01*
X64801412Y-117397117D01*
X64825089Y-117298336D01*
G36*
X64817256Y-119553114D02*
X64865409Y-119461536D01*
X64942905Y-119393951D01*
X64992727Y-119369943D01*
X65067533Y-119351262D01*
X65162052Y-119341699D01*
X65265210Y-119340792D01*
X65365935Y-119348079D01*
X65453153Y-119363097D01*
X65515791Y-119385385D01*
X65526579Y-119392235D01*
X65607105Y-119473368D01*
X65655336Y-119569734D01*
X65669450Y-119674299D01*
X65647629Y-119780032D01*
X65634547Y-119809457D01*
X65594231Y-119866759D01*
X65540775Y-119917050D01*
X65533995Y-119921803D01*
X65501321Y-119941122D01*
X65466394Y-119953892D01*
X65420414Y-119961436D01*
X65354584Y-119965076D01*
X65260105Y-119966135D01*
X65238923Y-119966154D01*
X65232182Y-119966106D01*
X65232182Y-119770769D01*
X65321349Y-119769632D01*
X65380520Y-119765159D01*
X65418741Y-119755754D01*
X65445053Y-119739824D01*
X65453846Y-119731692D01*
X65487261Y-119684942D01*
X65485737Y-119639553D01*
X65456752Y-119593660D01*
X65425809Y-119566288D01*
X65380643Y-119550077D01*
X65309420Y-119540974D01*
X65301114Y-119540349D01*
X65172037Y-119538796D01*
X65076172Y-119555035D01*
X65014107Y-119588848D01*
X64986432Y-119640016D01*
X64984923Y-119658280D01*
X64992513Y-119706240D01*
X65018808Y-119739047D01*
X65069095Y-119759105D01*
X65148664Y-119768822D01*
X65232182Y-119770769D01*
X65232182Y-119966106D01*
X65138249Y-119965426D01*
X65067906Y-119962371D01*
X65019163Y-119955678D01*
X64983288Y-119944040D01*
X64951548Y-119926147D01*
X64945648Y-119922192D01*
X64866104Y-119855733D01*
X64819929Y-119783315D01*
X64801599Y-119695151D01*
X64800703Y-119665213D01*
X64817256Y-119553114D01*
X64817256Y-119553114D01*
G37*
X64817256Y-119553114D02*
X64865409Y-119461536D01*
X64942905Y-119393951D01*
X64992727Y-119369943D01*
X65067533Y-119351262D01*
X65162052Y-119341699D01*
X65265210Y-119340792D01*
X65365935Y-119348079D01*
X65453153Y-119363097D01*
X65515791Y-119385385D01*
X65526579Y-119392235D01*
X65607105Y-119473368D01*
X65655336Y-119569734D01*
X65669450Y-119674299D01*
X65647629Y-119780032D01*
X65634547Y-119809457D01*
X65594231Y-119866759D01*
X65540775Y-119917050D01*
X65533995Y-119921803D01*
X65501321Y-119941122D01*
X65466394Y-119953892D01*
X65420414Y-119961436D01*
X65354584Y-119965076D01*
X65260105Y-119966135D01*
X65238923Y-119966154D01*
X65232182Y-119966106D01*
X65232182Y-119770769D01*
X65321349Y-119769632D01*
X65380520Y-119765159D01*
X65418741Y-119755754D01*
X65445053Y-119739824D01*
X65453846Y-119731692D01*
X65487261Y-119684942D01*
X65485737Y-119639553D01*
X65456752Y-119593660D01*
X65425809Y-119566288D01*
X65380643Y-119550077D01*
X65309420Y-119540974D01*
X65301114Y-119540349D01*
X65172037Y-119538796D01*
X65076172Y-119555035D01*
X65014107Y-119588848D01*
X64986432Y-119640016D01*
X64984923Y-119658280D01*
X64992513Y-119706240D01*
X65018808Y-119739047D01*
X65069095Y-119759105D01*
X65148664Y-119768822D01*
X65232182Y-119770769D01*
X65232182Y-119966106D01*
X65138249Y-119965426D01*
X65067906Y-119962371D01*
X65019163Y-119955678D01*
X64983288Y-119944040D01*
X64951548Y-119926147D01*
X64945648Y-119922192D01*
X64866104Y-119855733D01*
X64819929Y-119783315D01*
X64801599Y-119695151D01*
X64800703Y-119665213D01*
X64817256Y-119553114D01*
G36*
X64829745Y-118035746D02*
X64881567Y-117958714D01*
X64956412Y-117899184D01*
X65051654Y-117863622D01*
X65121756Y-117856429D01*
X65151009Y-117857246D01*
X65173407Y-117864086D01*
X65193474Y-117882888D01*
X65215733Y-117919592D01*
X65244709Y-117980138D01*
X65284927Y-118070466D01*
X65285129Y-118070923D01*
X65323210Y-118154067D01*
X65357025Y-118222247D01*
X65382933Y-118268495D01*
X65397295Y-118285842D01*
X65397411Y-118285846D01*
X65428685Y-118270557D01*
X65463157Y-118234804D01*
X65487990Y-118193758D01*
X65492923Y-118172963D01*
X65475862Y-118116230D01*
X65433133Y-118067373D01*
X65386155Y-118043535D01*
X65351522Y-118020603D01*
X65312081Y-117975682D01*
X65278009Y-117922877D01*
X65259480Y-117876290D01*
X65258462Y-117866548D01*
X65275215Y-117855582D01*
X65318039Y-117854921D01*
X65375781Y-117862980D01*
X65437289Y-117878173D01*
X65491409Y-117898914D01*
X65493510Y-117899962D01*
X65580660Y-117962379D01*
X65639939Y-118043274D01*
X65669034Y-118135144D01*
X65665634Y-118230487D01*
X65627428Y-118321802D01*
X65624741Y-118325862D01*
X65559642Y-118397694D01*
X65474705Y-118444927D01*
X65363021Y-118471066D01*
X65331643Y-118474574D01*
X65183536Y-118480787D01*
X65114468Y-118473339D01*
X65114468Y-118285846D01*
X65157552Y-118283410D01*
X65170126Y-118270086D01*
X65160719Y-118236868D01*
X65138483Y-118184506D01*
X65110610Y-118125976D01*
X65109872Y-118124521D01*
X65083777Y-118074911D01*
X65066363Y-118055000D01*
X65048107Y-118059910D01*
X65024120Y-118080584D01*
X64989406Y-118133181D01*
X64986856Y-118189823D01*
X65012119Y-118240631D01*
X65060847Y-118275724D01*
X65114468Y-118285846D01*
X65114468Y-118473339D01*
X65065036Y-118468008D01*
X64971055Y-118435222D01*
X64905215Y-118389579D01*
X64838681Y-118307198D01*
X64805676Y-118216454D01*
X64803573Y-118123815D01*
X64829745Y-118035746D01*
X64829745Y-118035746D01*
G37*
X64829745Y-118035746D02*
X64881567Y-117958714D01*
X64956412Y-117899184D01*
X65051654Y-117863622D01*
X65121756Y-117856429D01*
X65151009Y-117857246D01*
X65173407Y-117864086D01*
X65193474Y-117882888D01*
X65215733Y-117919592D01*
X65244709Y-117980138D01*
X65284927Y-118070466D01*
X65285129Y-118070923D01*
X65323210Y-118154067D01*
X65357025Y-118222247D01*
X65382933Y-118268495D01*
X65397295Y-118285842D01*
X65397411Y-118285846D01*
X65428685Y-118270557D01*
X65463157Y-118234804D01*
X65487990Y-118193758D01*
X65492923Y-118172963D01*
X65475862Y-118116230D01*
X65433133Y-118067373D01*
X65386155Y-118043535D01*
X65351522Y-118020603D01*
X65312081Y-117975682D01*
X65278009Y-117922877D01*
X65259480Y-117876290D01*
X65258462Y-117866548D01*
X65275215Y-117855582D01*
X65318039Y-117854921D01*
X65375781Y-117862980D01*
X65437289Y-117878173D01*
X65491409Y-117898914D01*
X65493510Y-117899962D01*
X65580660Y-117962379D01*
X65639939Y-118043274D01*
X65669034Y-118135144D01*
X65665634Y-118230487D01*
X65627428Y-118321802D01*
X65624741Y-118325862D01*
X65559642Y-118397694D01*
X65474705Y-118444927D01*
X65363021Y-118471066D01*
X65331643Y-118474574D01*
X65183536Y-118480787D01*
X65114468Y-118473339D01*
X65114468Y-118285846D01*
X65157552Y-118283410D01*
X65170126Y-118270086D01*
X65160719Y-118236868D01*
X65138483Y-118184506D01*
X65110610Y-118125976D01*
X65109872Y-118124521D01*
X65083777Y-118074911D01*
X65066363Y-118055000D01*
X65048107Y-118059910D01*
X65024120Y-118080584D01*
X64989406Y-118133181D01*
X64986856Y-118189823D01*
X65012119Y-118240631D01*
X65060847Y-118275724D01*
X65114468Y-118285846D01*
X65114468Y-118473339D01*
X65065036Y-118468008D01*
X64971055Y-118435222D01*
X64905215Y-118389579D01*
X64838681Y-118307198D01*
X64805676Y-118216454D01*
X64803573Y-118123815D01*
X64829745Y-118035746D01*
G36*
X64722120Y-116410154D02*
X64801980Y-116404428D01*
X64849039Y-116397851D01*
X64869566Y-116388738D01*
X64869829Y-116375402D01*
X64867378Y-116371077D01*
X64849636Y-116313556D01*
X64850672Y-116238732D01*
X64868910Y-116162661D01*
X64892505Y-116115082D01*
X64930198Y-116066298D01*
X64972855Y-116030636D01*
X65027057Y-116006155D01*
X65099384Y-115990913D01*
X65196419Y-115982970D01*
X65324742Y-115980384D01*
X65349358Y-115980338D01*
X65625870Y-115980308D01*
X65647320Y-116041839D01*
X65661912Y-116085541D01*
X65668706Y-116109518D01*
X65668769Y-116110223D01*
X65650345Y-116112585D01*
X65599526Y-116114594D01*
X65522993Y-116116099D01*
X65427430Y-116116947D01*
X65369329Y-116117077D01*
X65254771Y-116117349D01*
X65172667Y-116118748D01*
X65116393Y-116122151D01*
X65079326Y-116128433D01*
X65054844Y-116138471D01*
X65036325Y-116153139D01*
X65027406Y-116162298D01*
X64991466Y-116225211D01*
X64988775Y-116293864D01*
X65019170Y-116356152D01*
X65030144Y-116367671D01*
X65050779Y-116384567D01*
X65075256Y-116396286D01*
X65110647Y-116403767D01*
X65164026Y-116407946D01*
X65242466Y-116409763D01*
X65350617Y-116410154D01*
X65625870Y-116410154D01*
X65647320Y-116471685D01*
X65661912Y-116515387D01*
X65668706Y-116539364D01*
X65668769Y-116540070D01*
X65650069Y-116541874D01*
X65597322Y-116543500D01*
X65515557Y-116544883D01*
X65409805Y-116545958D01*
X65285094Y-116546660D01*
X65146455Y-116546923D01*
X64611806Y-116546923D01*
X64558236Y-116419923D01*
X64722120Y-116410154D01*
X64722120Y-116410154D01*
G37*
X64722120Y-116410154D02*
X64801980Y-116404428D01*
X64849039Y-116397851D01*
X64869566Y-116388738D01*
X64869829Y-116375402D01*
X64867378Y-116371077D01*
X64849636Y-116313556D01*
X64850672Y-116238732D01*
X64868910Y-116162661D01*
X64892505Y-116115082D01*
X64930198Y-116066298D01*
X64972855Y-116030636D01*
X65027057Y-116006155D01*
X65099384Y-115990913D01*
X65196419Y-115982970D01*
X65324742Y-115980384D01*
X65349358Y-115980338D01*
X65625870Y-115980308D01*
X65647320Y-116041839D01*
X65661912Y-116085541D01*
X65668706Y-116109518D01*
X65668769Y-116110223D01*
X65650345Y-116112585D01*
X65599526Y-116114594D01*
X65522993Y-116116099D01*
X65427430Y-116116947D01*
X65369329Y-116117077D01*
X65254771Y-116117349D01*
X65172667Y-116118748D01*
X65116393Y-116122151D01*
X65079326Y-116128433D01*
X65054844Y-116138471D01*
X65036325Y-116153139D01*
X65027406Y-116162298D01*
X64991466Y-116225211D01*
X64988775Y-116293864D01*
X65019170Y-116356152D01*
X65030144Y-116367671D01*
X65050779Y-116384567D01*
X65075256Y-116396286D01*
X65110647Y-116403767D01*
X65164026Y-116407946D01*
X65242466Y-116409763D01*
X65350617Y-116410154D01*
X65625870Y-116410154D01*
X65647320Y-116471685D01*
X65661912Y-116515387D01*
X65668706Y-116539364D01*
X65668769Y-116540070D01*
X65650069Y-116541874D01*
X65597322Y-116543500D01*
X65515557Y-116544883D01*
X65409805Y-116545958D01*
X65285094Y-116546660D01*
X65146455Y-116546923D01*
X64611806Y-116546923D01*
X64558236Y-116419923D01*
X64722120Y-116410154D01*
G36*
X64856303Y-115516499D02*
X64884733Y-115439940D01*
X64885279Y-115439064D01*
X64920127Y-115391715D01*
X64960852Y-115356759D01*
X65013925Y-115332175D01*
X65085814Y-115315938D01*
X65182992Y-115306025D01*
X65311928Y-115300414D01*
X65330298Y-115299923D01*
X65607287Y-115292859D01*
X65638028Y-115352305D01*
X65658802Y-115395319D01*
X65668646Y-115421290D01*
X65668769Y-115422491D01*
X65650606Y-115426986D01*
X65601612Y-115430556D01*
X65530031Y-115432752D01*
X65472068Y-115433231D01*
X65378170Y-115433242D01*
X65319203Y-115437534D01*
X65291079Y-115452497D01*
X65289706Y-115484518D01*
X65310998Y-115539986D01*
X65350136Y-115623731D01*
X65382643Y-115685311D01*
X65410845Y-115716983D01*
X65441582Y-115726294D01*
X65443104Y-115726308D01*
X65496054Y-115710943D01*
X65524660Y-115665453D01*
X65528803Y-115595834D01*
X65528084Y-115545687D01*
X65542527Y-115519246D01*
X65577218Y-115502757D01*
X65621416Y-115493267D01*
X65646493Y-115506943D01*
X65650082Y-115512093D01*
X65664496Y-115560575D01*
X65666537Y-115628469D01*
X65656983Y-115698388D01*
X65639522Y-115747932D01*
X65581364Y-115816430D01*
X65500408Y-115855366D01*
X65437160Y-115863077D01*
X65380111Y-115857193D01*
X65333542Y-115835899D01*
X65292181Y-115793735D01*
X65250755Y-115725241D01*
X65203993Y-115624956D01*
X65201350Y-115618846D01*
X65159617Y-115528510D01*
X65125391Y-115472765D01*
X65094635Y-115448871D01*
X65063311Y-115454087D01*
X65027383Y-115485672D01*
X65019116Y-115495117D01*
X64987058Y-115558383D01*
X64988407Y-115623936D01*
X65019838Y-115681028D01*
X65078024Y-115718907D01*
X65089446Y-115722426D01*
X65144837Y-115756700D01*
X65171518Y-115800191D01*
X65197960Y-115863077D01*
X65129548Y-115863077D01*
X65030110Y-115843948D01*
X64938902Y-115787169D01*
X64908389Y-115757622D01*
X64869228Y-115690458D01*
X64851500Y-115605044D01*
X64856303Y-115516499D01*
X64856303Y-115516499D01*
G37*
X64856303Y-115516499D02*
X64884733Y-115439940D01*
X64885279Y-115439064D01*
X64920127Y-115391715D01*
X64960852Y-115356759D01*
X65013925Y-115332175D01*
X65085814Y-115315938D01*
X65182992Y-115306025D01*
X65311928Y-115300414D01*
X65330298Y-115299923D01*
X65607287Y-115292859D01*
X65638028Y-115352305D01*
X65658802Y-115395319D01*
X65668646Y-115421290D01*
X65668769Y-115422491D01*
X65650606Y-115426986D01*
X65601612Y-115430556D01*
X65530031Y-115432752D01*
X65472068Y-115433231D01*
X65378170Y-115433242D01*
X65319203Y-115437534D01*
X65291079Y-115452497D01*
X65289706Y-115484518D01*
X65310998Y-115539986D01*
X65350136Y-115623731D01*
X65382643Y-115685311D01*
X65410845Y-115716983D01*
X65441582Y-115726294D01*
X65443104Y-115726308D01*
X65496054Y-115710943D01*
X65524660Y-115665453D01*
X65528803Y-115595834D01*
X65528084Y-115545687D01*
X65542527Y-115519246D01*
X65577218Y-115502757D01*
X65621416Y-115493267D01*
X65646493Y-115506943D01*
X65650082Y-115512093D01*
X65664496Y-115560575D01*
X65666537Y-115628469D01*
X65656983Y-115698388D01*
X65639522Y-115747932D01*
X65581364Y-115816430D01*
X65500408Y-115855366D01*
X65437160Y-115863077D01*
X65380111Y-115857193D01*
X65333542Y-115835899D01*
X65292181Y-115793735D01*
X65250755Y-115725241D01*
X65203993Y-115624956D01*
X65201350Y-115618846D01*
X65159617Y-115528510D01*
X65125391Y-115472765D01*
X65094635Y-115448871D01*
X65063311Y-115454087D01*
X65027383Y-115485672D01*
X65019116Y-115495117D01*
X64987058Y-115558383D01*
X64988407Y-115623936D01*
X65019838Y-115681028D01*
X65078024Y-115718907D01*
X65089446Y-115722426D01*
X65144837Y-115756700D01*
X65171518Y-115800191D01*
X65197960Y-115863077D01*
X65129548Y-115863077D01*
X65030110Y-115843948D01*
X64938902Y-115787169D01*
X64908389Y-115757622D01*
X64869228Y-115690458D01*
X64851500Y-115605044D01*
X64856303Y-115516499D01*
G36*
X64854670Y-114856638D02*
X64887421Y-114767883D01*
X64945350Y-114695978D01*
X64986128Y-114667856D01*
X65060954Y-114637198D01*
X65115058Y-114637835D01*
X65151446Y-114670013D01*
X65157633Y-114681919D01*
X65176925Y-114733325D01*
X65171982Y-114759578D01*
X65139587Y-114768470D01*
X65121692Y-114768923D01*
X65055859Y-114785203D01*
X65009807Y-114827635D01*
X64987564Y-114886612D01*
X64993161Y-114952525D01*
X65022229Y-115006105D01*
X65038810Y-115024202D01*
X65058925Y-115037029D01*
X65089332Y-115045694D01*
X65136788Y-115051304D01*
X65208050Y-115054965D01*
X65309875Y-115057785D01*
X65342115Y-115058516D01*
X65452410Y-115061180D01*
X65530036Y-115064208D01*
X65581396Y-115068750D01*
X65612890Y-115075954D01*
X65630920Y-115086967D01*
X65641888Y-115102940D01*
X65646733Y-115113166D01*
X65663301Y-115156594D01*
X65668769Y-115182158D01*
X65650507Y-115190605D01*
X65595296Y-115195761D01*
X65502499Y-115197654D01*
X65371478Y-115196311D01*
X65351269Y-115195893D01*
X65231733Y-115192942D01*
X65144449Y-115189452D01*
X65082591Y-115184486D01*
X65039336Y-115177107D01*
X65007860Y-115166376D01*
X64981339Y-115151355D01*
X64969975Y-115143498D01*
X64919692Y-115098447D01*
X64880581Y-115048060D01*
X64877167Y-115041892D01*
X64850212Y-114951542D01*
X64854670Y-114856638D01*
X64854670Y-114856638D01*
G37*
X64854670Y-114856638D02*
X64887421Y-114767883D01*
X64945350Y-114695978D01*
X64986128Y-114667856D01*
X65060954Y-114637198D01*
X65115058Y-114637835D01*
X65151446Y-114670013D01*
X65157633Y-114681919D01*
X65176925Y-114733325D01*
X65171982Y-114759578D01*
X65139587Y-114768470D01*
X65121692Y-114768923D01*
X65055859Y-114785203D01*
X65009807Y-114827635D01*
X64987564Y-114886612D01*
X64993161Y-114952525D01*
X65022229Y-115006105D01*
X65038810Y-115024202D01*
X65058925Y-115037029D01*
X65089332Y-115045694D01*
X65136788Y-115051304D01*
X65208050Y-115054965D01*
X65309875Y-115057785D01*
X65342115Y-115058516D01*
X65452410Y-115061180D01*
X65530036Y-115064208D01*
X65581396Y-115068750D01*
X65612890Y-115075954D01*
X65630920Y-115086967D01*
X65641888Y-115102940D01*
X65646733Y-115113166D01*
X65663301Y-115156594D01*
X65668769Y-115182158D01*
X65650507Y-115190605D01*
X65595296Y-115195761D01*
X65502499Y-115197654D01*
X65371478Y-115196311D01*
X65351269Y-115195893D01*
X65231733Y-115192942D01*
X65144449Y-115189452D01*
X65082591Y-115184486D01*
X65039336Y-115177107D01*
X65007860Y-115166376D01*
X64981339Y-115151355D01*
X64969975Y-115143498D01*
X64919692Y-115098447D01*
X64880581Y-115048060D01*
X64877167Y-115041892D01*
X64850212Y-114951542D01*
X64854670Y-114856638D01*
G36*
X65010289Y-113967919D02*
X65156320Y-113968167D01*
X65268655Y-113969128D01*
X65352678Y-113971206D01*
X65413769Y-113974807D01*
X65457309Y-113980335D01*
X65488679Y-113988196D01*
X65513262Y-113998793D01*
X65527294Y-114006818D01*
X65603388Y-114073272D01*
X65651084Y-114157530D01*
X65668199Y-114250751D01*
X65652546Y-114344100D01*
X65624418Y-114399688D01*
X65575760Y-114458043D01*
X65516333Y-114497814D01*
X65438507Y-114521810D01*
X65334652Y-114532839D01*
X65258462Y-114534401D01*
X65252986Y-114534191D01*
X65252986Y-114397692D01*
X65340355Y-114396859D01*
X65398192Y-114393039D01*
X65436029Y-114384254D01*
X65463398Y-114368526D01*
X65484042Y-114349734D01*
X65523890Y-114286625D01*
X65527295Y-114218863D01*
X65494025Y-114154821D01*
X65489517Y-114149836D01*
X65466067Y-114128561D01*
X65438166Y-114115221D01*
X65396641Y-114107999D01*
X65332316Y-114105077D01*
X65261200Y-114104615D01*
X65171858Y-114105617D01*
X65112258Y-114109762D01*
X65073089Y-114118764D01*
X65045040Y-114134333D01*
X65030144Y-114147098D01*
X64992575Y-114206400D01*
X64988057Y-114274699D01*
X65016753Y-114339890D01*
X65027406Y-114352472D01*
X65051063Y-114373889D01*
X65079251Y-114387256D01*
X65121245Y-114394434D01*
X65186319Y-114397281D01*
X65252986Y-114397692D01*
X65252986Y-114534191D01*
X65135765Y-114529678D01*
X65043577Y-114513638D01*
X64974269Y-114483472D01*
X64920211Y-114436371D01*
X64892505Y-114399688D01*
X64862572Y-114333010D01*
X64848678Y-114255728D01*
X64852397Y-114183890D01*
X64867400Y-114143692D01*
X64871670Y-114127918D01*
X64855750Y-114117450D01*
X64813089Y-114110144D01*
X64748106Y-114104615D01*
X64675732Y-114098563D01*
X64632187Y-114090156D01*
X64607287Y-114074859D01*
X64590845Y-114048136D01*
X64583564Y-114031346D01*
X64556963Y-113967846D01*
X65010289Y-113967919D01*
X65010289Y-113967919D01*
G37*
X65010289Y-113967919D02*
X65156320Y-113968167D01*
X65268655Y-113969128D01*
X65352678Y-113971206D01*
X65413769Y-113974807D01*
X65457309Y-113980335D01*
X65488679Y-113988196D01*
X65513262Y-113998793D01*
X65527294Y-114006818D01*
X65603388Y-114073272D01*
X65651084Y-114157530D01*
X65668199Y-114250751D01*
X65652546Y-114344100D01*
X65624418Y-114399688D01*
X65575760Y-114458043D01*
X65516333Y-114497814D01*
X65438507Y-114521810D01*
X65334652Y-114532839D01*
X65258462Y-114534401D01*
X65252986Y-114534191D01*
X65252986Y-114397692D01*
X65340355Y-114396859D01*
X65398192Y-114393039D01*
X65436029Y-114384254D01*
X65463398Y-114368526D01*
X65484042Y-114349734D01*
X65523890Y-114286625D01*
X65527295Y-114218863D01*
X65494025Y-114154821D01*
X65489517Y-114149836D01*
X65466067Y-114128561D01*
X65438166Y-114115221D01*
X65396641Y-114107999D01*
X65332316Y-114105077D01*
X65261200Y-114104615D01*
X65171858Y-114105617D01*
X65112258Y-114109762D01*
X65073089Y-114118764D01*
X65045040Y-114134333D01*
X65030144Y-114147098D01*
X64992575Y-114206400D01*
X64988057Y-114274699D01*
X65016753Y-114339890D01*
X65027406Y-114352472D01*
X65051063Y-114373889D01*
X65079251Y-114387256D01*
X65121245Y-114394434D01*
X65186319Y-114397281D01*
X65252986Y-114397692D01*
X65252986Y-114534191D01*
X65135765Y-114529678D01*
X65043577Y-114513638D01*
X64974269Y-114483472D01*
X64920211Y-114436371D01*
X64892505Y-114399688D01*
X64862572Y-114333010D01*
X64848678Y-114255728D01*
X64852397Y-114183890D01*
X64867400Y-114143692D01*
X64871670Y-114127918D01*
X64855750Y-114117450D01*
X64813089Y-114110144D01*
X64748106Y-114104615D01*
X64675732Y-114098563D01*
X64632187Y-114090156D01*
X64607287Y-114074859D01*
X64590845Y-114048136D01*
X64583564Y-114031346D01*
X64556963Y-113967846D01*
X65010289Y-113967919D01*
G36*
X64866662Y-113174071D02*
X64918068Y-113171089D01*
X64996192Y-113168753D01*
X65094857Y-113167251D01*
X65198343Y-113166769D01*
X65548533Y-113166769D01*
X65610363Y-113228599D01*
X65648462Y-113271207D01*
X65663895Y-113308610D01*
X65662918Y-113359730D01*
X65660433Y-113380022D01*
X65653200Y-113443446D01*
X65649055Y-113495905D01*
X65648672Y-113508692D01*
X65651176Y-113551801D01*
X65657462Y-113613456D01*
X65660433Y-113637362D01*
X65665028Y-113696078D01*
X65655046Y-113735536D01*
X65624228Y-113774662D01*
X65610363Y-113788785D01*
X65548533Y-113850615D01*
X64893503Y-113850615D01*
X64870829Y-113800850D01*
X64854034Y-113757998D01*
X64848154Y-113732927D01*
X64866736Y-113726499D01*
X64918655Y-113720491D01*
X64998172Y-113715303D01*
X65099546Y-113711336D01*
X65185192Y-113709423D01*
X65522231Y-113704077D01*
X65528825Y-113657440D01*
X65524214Y-113615024D01*
X65509287Y-113594240D01*
X65481377Y-113588430D01*
X65421925Y-113583470D01*
X65338466Y-113579754D01*
X65238532Y-113577676D01*
X65187104Y-113577376D01*
X64891054Y-113577077D01*
X64869604Y-113515546D01*
X64855020Y-113471996D01*
X64848219Y-113448306D01*
X64848154Y-113447623D01*
X64866642Y-113445246D01*
X64917906Y-113442634D01*
X64995649Y-113440005D01*
X65093574Y-113437579D01*
X65185192Y-113435885D01*
X65522231Y-113430539D01*
X65522231Y-113313308D01*
X65214746Y-113307928D01*
X64907261Y-113302549D01*
X64877707Y-113245399D01*
X64857413Y-113203203D01*
X64848204Y-113178230D01*
X64848154Y-113177509D01*
X64866662Y-113174071D01*
X64866662Y-113174071D01*
G37*
X64866662Y-113174071D02*
X64918068Y-113171089D01*
X64996192Y-113168753D01*
X65094857Y-113167251D01*
X65198343Y-113166769D01*
X65548533Y-113166769D01*
X65610363Y-113228599D01*
X65648462Y-113271207D01*
X65663895Y-113308610D01*
X65662918Y-113359730D01*
X65660433Y-113380022D01*
X65653200Y-113443446D01*
X65649055Y-113495905D01*
X65648672Y-113508692D01*
X65651176Y-113551801D01*
X65657462Y-113613456D01*
X65660433Y-113637362D01*
X65665028Y-113696078D01*
X65655046Y-113735536D01*
X65624228Y-113774662D01*
X65610363Y-113788785D01*
X65548533Y-113850615D01*
X64893503Y-113850615D01*
X64870829Y-113800850D01*
X64854034Y-113757998D01*
X64848154Y-113732927D01*
X64866736Y-113726499D01*
X64918655Y-113720491D01*
X64998172Y-113715303D01*
X65099546Y-113711336D01*
X65185192Y-113709423D01*
X65522231Y-113704077D01*
X65528825Y-113657440D01*
X65524214Y-113615024D01*
X65509287Y-113594240D01*
X65481377Y-113588430D01*
X65421925Y-113583470D01*
X65338466Y-113579754D01*
X65238532Y-113577676D01*
X65187104Y-113577376D01*
X64891054Y-113577077D01*
X64869604Y-113515546D01*
X64855020Y-113471996D01*
X64848219Y-113448306D01*
X64848154Y-113447623D01*
X64866642Y-113445246D01*
X64917906Y-113442634D01*
X64995649Y-113440005D01*
X65093574Y-113437579D01*
X65185192Y-113435885D01*
X65522231Y-113430539D01*
X65522231Y-113313308D01*
X65214746Y-113307928D01*
X64907261Y-113302549D01*
X64877707Y-113245399D01*
X64857413Y-113203203D01*
X64848204Y-113178230D01*
X64848154Y-113177509D01*
X64866662Y-113174071D01*
G36*
X64863528Y-112682667D02*
X64889117Y-112626410D01*
X64920124Y-112582253D01*
X64954795Y-112549899D01*
X64999520Y-112527562D01*
X65060692Y-112513454D01*
X65144701Y-112505789D01*
X65257940Y-112502780D01*
X65332509Y-112502462D01*
X65623420Y-112502462D01*
X65646095Y-112552227D01*
X65662667Y-112591424D01*
X65668769Y-112610843D01*
X65650610Y-112614558D01*
X65601648Y-112617505D01*
X65530153Y-112619309D01*
X65473385Y-112619692D01*
X65391371Y-112621339D01*
X65326309Y-112625778D01*
X65286467Y-112632260D01*
X65278000Y-112637410D01*
X65286646Y-112672023D01*
X65308823Y-112726360D01*
X65338886Y-112789278D01*
X65371192Y-112849632D01*
X65400098Y-112896279D01*
X65419961Y-112918074D01*
X65420175Y-112918161D01*
X65456935Y-112916286D01*
X65492026Y-112899475D01*
X65520528Y-112869961D01*
X65530061Y-112826884D01*
X65528950Y-112790068D01*
X65528133Y-112737926D01*
X65540349Y-112710556D01*
X65572624Y-112694118D01*
X65578710Y-112692045D01*
X65624739Y-112684919D01*
X65652687Y-112703976D01*
X65666007Y-112753647D01*
X65668470Y-112807303D01*
X65650210Y-112903858D01*
X65624131Y-112953841D01*
X65562868Y-113015571D01*
X65487670Y-113048310D01*
X65408211Y-113051247D01*
X65334167Y-113023576D01*
X65287769Y-112981953D01*
X65261793Y-112940396D01*
X65228907Y-112875078D01*
X65195557Y-112798962D01*
X65190461Y-112786274D01*
X65153565Y-112702667D01*
X65121046Y-112654470D01*
X65088718Y-112638970D01*
X65052394Y-112653450D01*
X65024000Y-112678308D01*
X64989039Y-112737061D01*
X64986417Y-112801707D01*
X65013358Y-112860992D01*
X65067088Y-112903661D01*
X65080950Y-112909261D01*
X65131936Y-112941867D01*
X65169787Y-112989470D01*
X65200850Y-113049539D01*
X65112768Y-113049539D01*
X65058951Y-113046003D01*
X65016534Y-113030844D01*
X64971279Y-112997232D01*
X64936420Y-112964965D01*
X64887062Y-112914791D01*
X64860547Y-112875807D01*
X64849911Y-112833936D01*
X64848154Y-112786540D01*
X64863528Y-112682667D01*
X64863528Y-112682667D01*
G37*
X64863528Y-112682667D02*
X64889117Y-112626410D01*
X64920124Y-112582253D01*
X64954795Y-112549899D01*
X64999520Y-112527562D01*
X65060692Y-112513454D01*
X65144701Y-112505789D01*
X65257940Y-112502780D01*
X65332509Y-112502462D01*
X65623420Y-112502462D01*
X65646095Y-112552227D01*
X65662667Y-112591424D01*
X65668769Y-112610843D01*
X65650610Y-112614558D01*
X65601648Y-112617505D01*
X65530153Y-112619309D01*
X65473385Y-112619692D01*
X65391371Y-112621339D01*
X65326309Y-112625778D01*
X65286467Y-112632260D01*
X65278000Y-112637410D01*
X65286646Y-112672023D01*
X65308823Y-112726360D01*
X65338886Y-112789278D01*
X65371192Y-112849632D01*
X65400098Y-112896279D01*
X65419961Y-112918074D01*
X65420175Y-112918161D01*
X65456935Y-112916286D01*
X65492026Y-112899475D01*
X65520528Y-112869961D01*
X65530061Y-112826884D01*
X65528950Y-112790068D01*
X65528133Y-112737926D01*
X65540349Y-112710556D01*
X65572624Y-112694118D01*
X65578710Y-112692045D01*
X65624739Y-112684919D01*
X65652687Y-112703976D01*
X65666007Y-112753647D01*
X65668470Y-112807303D01*
X65650210Y-112903858D01*
X65624131Y-112953841D01*
X65562868Y-113015571D01*
X65487670Y-113048310D01*
X65408211Y-113051247D01*
X65334167Y-113023576D01*
X65287769Y-112981953D01*
X65261793Y-112940396D01*
X65228907Y-112875078D01*
X65195557Y-112798962D01*
X65190461Y-112786274D01*
X65153565Y-112702667D01*
X65121046Y-112654470D01*
X65088718Y-112638970D01*
X65052394Y-112653450D01*
X65024000Y-112678308D01*
X64989039Y-112737061D01*
X64986417Y-112801707D01*
X65013358Y-112860992D01*
X65067088Y-112903661D01*
X65080950Y-112909261D01*
X65131936Y-112941867D01*
X65169787Y-112989470D01*
X65200850Y-113049539D01*
X65112768Y-113049539D01*
X65058951Y-113046003D01*
X65016534Y-113030844D01*
X64971279Y-112997232D01*
X64936420Y-112964965D01*
X64887062Y-112914791D01*
X64860547Y-112875807D01*
X64849911Y-112833936D01*
X64848154Y-112786540D01*
X64863528Y-112682667D01*
G36*
X64866782Y-111999193D02*
X64876988Y-111975839D01*
X64921134Y-111920098D01*
X64984967Y-111872431D01*
X65053087Y-111842952D01*
X65086670Y-111838154D01*
X65133556Y-111854240D01*
X65158365Y-111889525D01*
X65173387Y-111927356D01*
X65176155Y-111944679D01*
X65156066Y-111953114D01*
X65112351Y-111969770D01*
X65092598Y-111977077D01*
X65024271Y-112018052D01*
X64990191Y-112077378D01*
X64991239Y-112153448D01*
X64992581Y-112159082D01*
X65011836Y-112199695D01*
X65049375Y-112229552D01*
X65109809Y-112249945D01*
X65197751Y-112262164D01*
X65317813Y-112267500D01*
X65381698Y-112268000D01*
X65482403Y-112268248D01*
X65551054Y-112269874D01*
X65594673Y-112274199D01*
X65620282Y-112282546D01*
X65634903Y-112296235D01*
X65645558Y-112316589D01*
X65646095Y-112317766D01*
X65662667Y-112356962D01*
X65668769Y-112376381D01*
X65650319Y-112379365D01*
X65599323Y-112381919D01*
X65522308Y-112383860D01*
X65425805Y-112385003D01*
X65355184Y-112385231D01*
X65218525Y-112384068D01*
X65114851Y-112379521D01*
X65038108Y-112370001D01*
X64982246Y-112353919D01*
X64941212Y-112329687D01*
X64908954Y-112295714D01*
X64886440Y-112262167D01*
X64856476Y-112181501D01*
X64849718Y-112087619D01*
X64866782Y-111999193D01*
X64866782Y-111999193D01*
G37*
X64866782Y-111999193D02*
X64876988Y-111975839D01*
X64921134Y-111920098D01*
X64984967Y-111872431D01*
X65053087Y-111842952D01*
X65086670Y-111838154D01*
X65133556Y-111854240D01*
X65158365Y-111889525D01*
X65173387Y-111927356D01*
X65176155Y-111944679D01*
X65156066Y-111953114D01*
X65112351Y-111969770D01*
X65092598Y-111977077D01*
X65024271Y-112018052D01*
X64990191Y-112077378D01*
X64991239Y-112153448D01*
X64992581Y-112159082D01*
X65011836Y-112199695D01*
X65049375Y-112229552D01*
X65109809Y-112249945D01*
X65197751Y-112262164D01*
X65317813Y-112267500D01*
X65381698Y-112268000D01*
X65482403Y-112268248D01*
X65551054Y-112269874D01*
X65594673Y-112274199D01*
X65620282Y-112282546D01*
X65634903Y-112296235D01*
X65645558Y-112316589D01*
X65646095Y-112317766D01*
X65662667Y-112356962D01*
X65668769Y-112376381D01*
X65650319Y-112379365D01*
X65599323Y-112381919D01*
X65522308Y-112383860D01*
X65425805Y-112385003D01*
X65355184Y-112385231D01*
X65218525Y-112384068D01*
X65114851Y-112379521D01*
X65038108Y-112370001D01*
X64982246Y-112353919D01*
X64941212Y-112329687D01*
X64908954Y-112295714D01*
X64886440Y-112262167D01*
X64856476Y-112181501D01*
X64849718Y-112087619D01*
X64866782Y-111999193D01*
G36*
X64877838Y-111324776D02*
X64928361Y-111247472D01*
X64973590Y-111210186D01*
X65055663Y-111180647D01*
X65120607Y-111178301D01*
X65207445Y-111183615D01*
X65295103Y-111383885D01*
X65339887Y-111481261D01*
X65375913Y-111544887D01*
X65407117Y-111577971D01*
X65437436Y-111583720D01*
X65470805Y-111565342D01*
X65492923Y-111545077D01*
X65528393Y-111486111D01*
X65530879Y-111421976D01*
X65503235Y-111363074D01*
X65448320Y-111319803D01*
X65428928Y-111312064D01*
X65368364Y-111274994D01*
X65342552Y-111232346D01*
X65320471Y-111173846D01*
X65404184Y-111173846D01*
X65461150Y-111179018D01*
X65509189Y-111199277D01*
X65564346Y-111241738D01*
X65571514Y-111248049D01*
X65620585Y-111295280D01*
X65646920Y-111335879D01*
X65659035Y-111386672D01*
X65663003Y-111428780D01*
X65663991Y-111504098D01*
X65651466Y-111557714D01*
X65632869Y-111591162D01*
X65591975Y-111643732D01*
X65547748Y-111680121D01*
X65492126Y-111703150D01*
X65417047Y-111715641D01*
X65314449Y-111720413D01*
X65262376Y-111720794D01*
X65199948Y-111719499D01*
X65199948Y-111601529D01*
X65233438Y-111600161D01*
X65238923Y-111596751D01*
X65231472Y-111574247D01*
X65211753Y-111525818D01*
X65183718Y-111461092D01*
X65177692Y-111447557D01*
X65136096Y-111365756D01*
X65099538Y-111320688D01*
X65065296Y-111310783D01*
X65030648Y-111334474D01*
X65015339Y-111354040D01*
X64984721Y-111424640D01*
X64989780Y-111490720D01*
X65027151Y-111546041D01*
X65093473Y-111584364D01*
X65146116Y-111596651D01*
X65199948Y-111601529D01*
X65199948Y-111719499D01*
X65140720Y-111718270D01*
X65050710Y-111708968D01*
X64985167Y-111690540D01*
X64936912Y-111660640D01*
X64898767Y-111616920D01*
X64886440Y-111597859D01*
X64854336Y-111511274D01*
X64852316Y-111416478D01*
X64877838Y-111324776D01*
X64877838Y-111324776D01*
G37*
X64877838Y-111324776D02*
X64928361Y-111247472D01*
X64973590Y-111210186D01*
X65055663Y-111180647D01*
X65120607Y-111178301D01*
X65207445Y-111183615D01*
X65295103Y-111383885D01*
X65339887Y-111481261D01*
X65375913Y-111544887D01*
X65407117Y-111577971D01*
X65437436Y-111583720D01*
X65470805Y-111565342D01*
X65492923Y-111545077D01*
X65528393Y-111486111D01*
X65530879Y-111421976D01*
X65503235Y-111363074D01*
X65448320Y-111319803D01*
X65428928Y-111312064D01*
X65368364Y-111274994D01*
X65342552Y-111232346D01*
X65320471Y-111173846D01*
X65404184Y-111173846D01*
X65461150Y-111179018D01*
X65509189Y-111199277D01*
X65564346Y-111241738D01*
X65571514Y-111248049D01*
X65620585Y-111295280D01*
X65646920Y-111335879D01*
X65659035Y-111386672D01*
X65663003Y-111428780D01*
X65663991Y-111504098D01*
X65651466Y-111557714D01*
X65632869Y-111591162D01*
X65591975Y-111643732D01*
X65547748Y-111680121D01*
X65492126Y-111703150D01*
X65417047Y-111715641D01*
X65314449Y-111720413D01*
X65262376Y-111720794D01*
X65199948Y-111719499D01*
X65199948Y-111601529D01*
X65233438Y-111600161D01*
X65238923Y-111596751D01*
X65231472Y-111574247D01*
X65211753Y-111525818D01*
X65183718Y-111461092D01*
X65177692Y-111447557D01*
X65136096Y-111365756D01*
X65099538Y-111320688D01*
X65065296Y-111310783D01*
X65030648Y-111334474D01*
X65015339Y-111354040D01*
X64984721Y-111424640D01*
X64989780Y-111490720D01*
X65027151Y-111546041D01*
X65093473Y-111584364D01*
X65146116Y-111596651D01*
X65199948Y-111601529D01*
X65199948Y-111719499D01*
X65140720Y-111718270D01*
X65050710Y-111708968D01*
X64985167Y-111690540D01*
X64936912Y-111660640D01*
X64898767Y-111616920D01*
X64886440Y-111597859D01*
X64854336Y-111511274D01*
X64852316Y-111416478D01*
X64877838Y-111324776D01*
G36*
X58517776Y-115430122D02*
X58518355Y-115324388D01*
X58519922Y-115247868D01*
X58522972Y-115195628D01*
X58527996Y-115162737D01*
X58535489Y-115144263D01*
X58545944Y-115135273D01*
X58559853Y-115130837D01*
X58561654Y-115130406D01*
X58594145Y-115123667D01*
X58658252Y-115111192D01*
X58747151Y-115094281D01*
X58854019Y-115074229D01*
X58972033Y-115052336D01*
X58976178Y-115051571D01*
X59091831Y-115029641D01*
X59194014Y-115009123D01*
X59276598Y-114991341D01*
X59333456Y-114977619D01*
X59358458Y-114969282D01*
X59358901Y-114968884D01*
X59371110Y-114944323D01*
X59391456Y-114893685D01*
X59415545Y-114827905D01*
X59415674Y-114827539D01*
X59446818Y-114744683D01*
X59486491Y-114647000D01*
X59526381Y-114554923D01*
X59528353Y-114550566D01*
X59596420Y-114400593D01*
X59369639Y-114068502D01*
X59300504Y-113966626D01*
X59238697Y-113874343D01*
X59187733Y-113796997D01*
X59151127Y-113739936D01*
X59132394Y-113708505D01*
X59131004Y-113705521D01*
X59137190Y-113682679D01*
X59167035Y-113640018D01*
X59221947Y-113575872D01*
X59303334Y-113488579D01*
X59389922Y-113399465D01*
X59475247Y-113313559D01*
X59553108Y-113236673D01*
X59618697Y-113173436D01*
X59667205Y-113128477D01*
X59693825Y-113106424D01*
X59695195Y-113105604D01*
X59713463Y-113103166D01*
X59743295Y-113112350D01*
X59788721Y-113135426D01*
X59853770Y-113174663D01*
X59942470Y-113232330D01*
X60056657Y-113309205D01*
X60157162Y-113377430D01*
X60247303Y-113438418D01*
X60321849Y-113488644D01*
X60375565Y-113524584D01*
X60403218Y-113542713D01*
X60405095Y-113543854D01*
X60431590Y-113541641D01*
X60483086Y-113524862D01*
X60549851Y-113496858D01*
X60571172Y-113486878D01*
X60666159Y-113443328D01*
X60773937Y-113396866D01*
X60867192Y-113359123D01*
X60936406Y-113331927D01*
X60989006Y-113310325D01*
X61016497Y-113297842D01*
X61018616Y-113296291D01*
X61022124Y-113273332D01*
X61031738Y-113219214D01*
X61046089Y-113141132D01*
X61063807Y-113046281D01*
X61083525Y-112941857D01*
X61103874Y-112835056D01*
X61123486Y-112733074D01*
X61140991Y-112643106D01*
X61155022Y-112572347D01*
X61164209Y-112527994D01*
X61166807Y-112517115D01*
X61173218Y-112505878D01*
X61187697Y-112497395D01*
X61215133Y-112491286D01*
X61260411Y-112487168D01*
X61328420Y-112484659D01*
X61424047Y-112483379D01*
X61552180Y-112482946D01*
X61604701Y-112482923D01*
X62031845Y-112482923D01*
X62052091Y-112585500D01*
X62063070Y-112642569D01*
X62079095Y-112727731D01*
X62098233Y-112830628D01*
X62118551Y-112940904D01*
X62124132Y-112971385D01*
X62143917Y-113073145D01*
X62163373Y-113161795D01*
X62180697Y-113229892D01*
X62194088Y-113269996D01*
X62198079Y-113276677D01*
X62226342Y-113293081D01*
X62281109Y-113316601D01*
X62351588Y-113342684D01*
X62366769Y-113347858D01*
X62460896Y-113382044D01*
X62567101Y-113424477D01*
X62662473Y-113466003D01*
X62662916Y-113466208D01*
X62812525Y-113535360D01*
X63481617Y-113080488D01*
X63774116Y-113372500D01*
X63861170Y-113460820D01*
X63937909Y-113541375D01*
X64000237Y-113609640D01*
X64044056Y-113661092D01*
X64065270Y-113691206D01*
X64066616Y-113695526D01*
X64056016Y-113720889D01*
X64026547Y-113772642D01*
X63981705Y-113845132D01*
X63924984Y-113932706D01*
X63861462Y-114027388D01*
X63796668Y-114123484D01*
X63740287Y-114209163D01*
X63695788Y-114278984D01*
X63666639Y-114327506D01*
X63656308Y-114349218D01*
X63665050Y-114375707D01*
X63688087Y-114425938D01*
X63720631Y-114489549D01*
X63724249Y-114496292D01*
X63767210Y-114581954D01*
X63788279Y-114640694D01*
X63788503Y-114677228D01*
X63768928Y-114696269D01*
X63768654Y-114696380D01*
X63745472Y-114705898D01*
X63690441Y-114728597D01*
X63607822Y-114762718D01*
X63501872Y-114806500D01*
X63376852Y-114858184D01*
X63237020Y-114916008D01*
X63101637Y-114972009D01*
X62952234Y-115033553D01*
X62813832Y-115090061D01*
X62690673Y-115139839D01*
X62587002Y-115181194D01*
X62507059Y-115212432D01*
X62455088Y-115231859D01*
X62435692Y-115237846D01*
X62413443Y-115222832D01*
X62377982Y-115183561D01*
X62338887Y-115131193D01*
X62215245Y-114982059D01*
X62073522Y-114865489D01*
X61916704Y-114782882D01*
X61747775Y-114735634D01*
X61569722Y-114725143D01*
X61487539Y-114732769D01*
X61317031Y-114774318D01*
X61166459Y-114845877D01*
X61037309Y-114943005D01*
X60931064Y-115061266D01*
X60849210Y-115196220D01*
X60793232Y-115343429D01*
X60764615Y-115498456D01*
X60764844Y-115656861D01*
X60795405Y-115814206D01*
X60857782Y-115966054D01*
X60953460Y-116107965D01*
X61007572Y-116167197D01*
X61146520Y-116280797D01*
X61298361Y-116359894D01*
X61458667Y-116405014D01*
X61623012Y-116416684D01*
X61786971Y-116395431D01*
X61946118Y-116341780D01*
X62096025Y-116256260D01*
X62232267Y-116139395D01*
X62338887Y-116008807D01*
X62379642Y-115954412D01*
X62414718Y-115915986D01*
X62435726Y-115902154D01*
X62458635Y-115909397D01*
X62513365Y-115929995D01*
X62595672Y-115962254D01*
X62701315Y-116004479D01*
X62826050Y-116054977D01*
X62965636Y-116112052D01*
X63101670Y-116168146D01*
X63251201Y-116230033D01*
X63389767Y-116287356D01*
X63513107Y-116338356D01*
X63616964Y-116381273D01*
X63697080Y-116414347D01*
X63749195Y-116435819D01*
X63768654Y-116443775D01*
X63788423Y-116462571D01*
X63788365Y-116498926D01*
X63767441Y-116557521D01*
X63724613Y-116643032D01*
X63724249Y-116643708D01*
X63691012Y-116708093D01*
X63666802Y-116760139D01*
X63656404Y-116789488D01*
X63656308Y-116790783D01*
X63666855Y-116812876D01*
X63696184Y-116861652D01*
X63740827Y-116931669D01*
X63797314Y-117017486D01*
X63861462Y-117112612D01*
X63926411Y-117209460D01*
X63982896Y-117296747D01*
X64027421Y-117368819D01*
X64056490Y-117420023D01*
X64066616Y-117444474D01*
X64053307Y-117466990D01*
X64016112Y-117512258D01*
X63959128Y-117575756D01*
X63886449Y-117652961D01*
X63802171Y-117739349D01*
X63774016Y-117767601D01*
X63481416Y-118059713D01*
X63155104Y-117837369D01*
X63054897Y-117769798D01*
X62964963Y-117710493D01*
X62890510Y-117662783D01*
X62836751Y-117629993D01*
X62808894Y-117615452D01*
X62806912Y-117615026D01*
X62780655Y-117622692D01*
X62727837Y-117643311D01*
X62657310Y-117673315D01*
X62610093Y-117694375D01*
X62519694Y-117733752D01*
X62428366Y-117770835D01*
X62351200Y-117799585D01*
X62327692Y-117807395D01*
X62264916Y-117829583D01*
X62216411Y-117851273D01*
X62198079Y-117863187D01*
X62186859Y-117889477D01*
X62170954Y-117946858D01*
X62152167Y-118027882D01*
X62132299Y-118125105D01*
X62124132Y-118168615D01*
X62103829Y-118279104D01*
X62084170Y-118385084D01*
X62067088Y-118476199D01*
X62054518Y-118542092D01*
X62052091Y-118554500D01*
X62031845Y-118657077D01*
X61604701Y-118657077D01*
X61464246Y-118656847D01*
X61357979Y-118655901D01*
X61281013Y-118653859D01*
X61228460Y-118650338D01*
X61195433Y-118644957D01*
X61177045Y-118637334D01*
X61168408Y-118627088D01*
X61166807Y-118622885D01*
X61161127Y-118597530D01*
X61149795Y-118541516D01*
X61134179Y-118462036D01*
X61115647Y-118366288D01*
X61095569Y-118261467D01*
X61075312Y-118154768D01*
X61056246Y-118053387D01*
X61039739Y-117964521D01*
X61027159Y-117895363D01*
X61019875Y-117853111D01*
X61018616Y-117843710D01*
X61001763Y-117835193D01*
X60956870Y-117816340D01*
X60892430Y-117790676D01*
X60867192Y-117780877D01*
X60769686Y-117741352D01*
X60661959Y-117694808D01*
X60571172Y-117653123D01*
X60501753Y-117622450D01*
X60444710Y-117602044D01*
X60409777Y-117595232D01*
X60405095Y-117596318D01*
X60382991Y-117610715D01*
X60333831Y-117643588D01*
X60262848Y-117691410D01*
X60175278Y-117750652D01*
X60076357Y-117817785D01*
X60056830Y-117831059D01*
X59941140Y-117908954D01*
X59853044Y-117966213D01*
X59788486Y-118005119D01*
X59743411Y-118027956D01*
X59713763Y-118037006D01*
X59695485Y-118034552D01*
X59695369Y-118034489D01*
X59671361Y-118015173D01*
X59624947Y-117972449D01*
X59560937Y-117910949D01*
X59484145Y-117835302D01*
X59399382Y-117750139D01*
X59389922Y-117740535D01*
X59285989Y-117633210D01*
X59209675Y-117550385D01*
X59159571Y-117490395D01*
X59134270Y-117451577D01*
X59131004Y-117434480D01*
X59145250Y-117409527D01*
X59178156Y-117357745D01*
X59226208Y-117284480D01*
X59285890Y-117195080D01*
X59353688Y-117094889D01*
X59369639Y-117071499D01*
X59596420Y-116739407D01*
X59528353Y-116589435D01*
X59488685Y-116498230D01*
X59448791Y-116400331D01*
X59416983Y-116316169D01*
X59415674Y-116312462D01*
X59391576Y-116246631D01*
X59371200Y-116195884D01*
X59358936Y-116171158D01*
X59358901Y-116171116D01*
X59336734Y-116163271D01*
X59282217Y-116149934D01*
X59201480Y-116132430D01*
X59100650Y-116112083D01*
X58985856Y-116090218D01*
X58976178Y-116088429D01*
X58857904Y-116066496D01*
X58750542Y-116046360D01*
X58660917Y-116029320D01*
X58595851Y-116016672D01*
X58562168Y-116009716D01*
X58561654Y-116009594D01*
X58547325Y-116005361D01*
X58536507Y-115997129D01*
X58528706Y-115979967D01*
X58523429Y-115948942D01*
X58520182Y-115899122D01*
X58518472Y-115825576D01*
X58517807Y-115723371D01*
X58517693Y-115587575D01*
X58517692Y-115570000D01*
X58517776Y-115430122D01*
X58517776Y-115430122D01*
G37*
X58517776Y-115430122D02*
X58518355Y-115324388D01*
X58519922Y-115247868D01*
X58522972Y-115195628D01*
X58527996Y-115162737D01*
X58535489Y-115144263D01*
X58545944Y-115135273D01*
X58559853Y-115130837D01*
X58561654Y-115130406D01*
X58594145Y-115123667D01*
X58658252Y-115111192D01*
X58747151Y-115094281D01*
X58854019Y-115074229D01*
X58972033Y-115052336D01*
X58976178Y-115051571D01*
X59091831Y-115029641D01*
X59194014Y-115009123D01*
X59276598Y-114991341D01*
X59333456Y-114977619D01*
X59358458Y-114969282D01*
X59358901Y-114968884D01*
X59371110Y-114944323D01*
X59391456Y-114893685D01*
X59415545Y-114827905D01*
X59415674Y-114827539D01*
X59446818Y-114744683D01*
X59486491Y-114647000D01*
X59526381Y-114554923D01*
X59528353Y-114550566D01*
X59596420Y-114400593D01*
X59369639Y-114068502D01*
X59300504Y-113966626D01*
X59238697Y-113874343D01*
X59187733Y-113796997D01*
X59151127Y-113739936D01*
X59132394Y-113708505D01*
X59131004Y-113705521D01*
X59137190Y-113682679D01*
X59167035Y-113640018D01*
X59221947Y-113575872D01*
X59303334Y-113488579D01*
X59389922Y-113399465D01*
X59475247Y-113313559D01*
X59553108Y-113236673D01*
X59618697Y-113173436D01*
X59667205Y-113128477D01*
X59693825Y-113106424D01*
X59695195Y-113105604D01*
X59713463Y-113103166D01*
X59743295Y-113112350D01*
X59788721Y-113135426D01*
X59853770Y-113174663D01*
X59942470Y-113232330D01*
X60056657Y-113309205D01*
X60157162Y-113377430D01*
X60247303Y-113438418D01*
X60321849Y-113488644D01*
X60375565Y-113524584D01*
X60403218Y-113542713D01*
X60405095Y-113543854D01*
X60431590Y-113541641D01*
X60483086Y-113524862D01*
X60549851Y-113496858D01*
X60571172Y-113486878D01*
X60666159Y-113443328D01*
X60773937Y-113396866D01*
X60867192Y-113359123D01*
X60936406Y-113331927D01*
X60989006Y-113310325D01*
X61016497Y-113297842D01*
X61018616Y-113296291D01*
X61022124Y-113273332D01*
X61031738Y-113219214D01*
X61046089Y-113141132D01*
X61063807Y-113046281D01*
X61083525Y-112941857D01*
X61103874Y-112835056D01*
X61123486Y-112733074D01*
X61140991Y-112643106D01*
X61155022Y-112572347D01*
X61164209Y-112527994D01*
X61166807Y-112517115D01*
X61173218Y-112505878D01*
X61187697Y-112497395D01*
X61215133Y-112491286D01*
X61260411Y-112487168D01*
X61328420Y-112484659D01*
X61424047Y-112483379D01*
X61552180Y-112482946D01*
X61604701Y-112482923D01*
X62031845Y-112482923D01*
X62052091Y-112585500D01*
X62063070Y-112642569D01*
X62079095Y-112727731D01*
X62098233Y-112830628D01*
X62118551Y-112940904D01*
X62124132Y-112971385D01*
X62143917Y-113073145D01*
X62163373Y-113161795D01*
X62180697Y-113229892D01*
X62194088Y-113269996D01*
X62198079Y-113276677D01*
X62226342Y-113293081D01*
X62281109Y-113316601D01*
X62351588Y-113342684D01*
X62366769Y-113347858D01*
X62460896Y-113382044D01*
X62567101Y-113424477D01*
X62662473Y-113466003D01*
X62662916Y-113466208D01*
X62812525Y-113535360D01*
X63481617Y-113080488D01*
X63774116Y-113372500D01*
X63861170Y-113460820D01*
X63937909Y-113541375D01*
X64000237Y-113609640D01*
X64044056Y-113661092D01*
X64065270Y-113691206D01*
X64066616Y-113695526D01*
X64056016Y-113720889D01*
X64026547Y-113772642D01*
X63981705Y-113845132D01*
X63924984Y-113932706D01*
X63861462Y-114027388D01*
X63796668Y-114123484D01*
X63740287Y-114209163D01*
X63695788Y-114278984D01*
X63666639Y-114327506D01*
X63656308Y-114349218D01*
X63665050Y-114375707D01*
X63688087Y-114425938D01*
X63720631Y-114489549D01*
X63724249Y-114496292D01*
X63767210Y-114581954D01*
X63788279Y-114640694D01*
X63788503Y-114677228D01*
X63768928Y-114696269D01*
X63768654Y-114696380D01*
X63745472Y-114705898D01*
X63690441Y-114728597D01*
X63607822Y-114762718D01*
X63501872Y-114806500D01*
X63376852Y-114858184D01*
X63237020Y-114916008D01*
X63101637Y-114972009D01*
X62952234Y-115033553D01*
X62813832Y-115090061D01*
X62690673Y-115139839D01*
X62587002Y-115181194D01*
X62507059Y-115212432D01*
X62455088Y-115231859D01*
X62435692Y-115237846D01*
X62413443Y-115222832D01*
X62377982Y-115183561D01*
X62338887Y-115131193D01*
X62215245Y-114982059D01*
X62073522Y-114865489D01*
X61916704Y-114782882D01*
X61747775Y-114735634D01*
X61569722Y-114725143D01*
X61487539Y-114732769D01*
X61317031Y-114774318D01*
X61166459Y-114845877D01*
X61037309Y-114943005D01*
X60931064Y-115061266D01*
X60849210Y-115196220D01*
X60793232Y-115343429D01*
X60764615Y-115498456D01*
X60764844Y-115656861D01*
X60795405Y-115814206D01*
X60857782Y-115966054D01*
X60953460Y-116107965D01*
X61007572Y-116167197D01*
X61146520Y-116280797D01*
X61298361Y-116359894D01*
X61458667Y-116405014D01*
X61623012Y-116416684D01*
X61786971Y-116395431D01*
X61946118Y-116341780D01*
X62096025Y-116256260D01*
X62232267Y-116139395D01*
X62338887Y-116008807D01*
X62379642Y-115954412D01*
X62414718Y-115915986D01*
X62435726Y-115902154D01*
X62458635Y-115909397D01*
X62513365Y-115929995D01*
X62595672Y-115962254D01*
X62701315Y-116004479D01*
X62826050Y-116054977D01*
X62965636Y-116112052D01*
X63101670Y-116168146D01*
X63251201Y-116230033D01*
X63389767Y-116287356D01*
X63513107Y-116338356D01*
X63616964Y-116381273D01*
X63697080Y-116414347D01*
X63749195Y-116435819D01*
X63768654Y-116443775D01*
X63788423Y-116462571D01*
X63788365Y-116498926D01*
X63767441Y-116557521D01*
X63724613Y-116643032D01*
X63724249Y-116643708D01*
X63691012Y-116708093D01*
X63666802Y-116760139D01*
X63656404Y-116789488D01*
X63656308Y-116790783D01*
X63666855Y-116812876D01*
X63696184Y-116861652D01*
X63740827Y-116931669D01*
X63797314Y-117017486D01*
X63861462Y-117112612D01*
X63926411Y-117209460D01*
X63982896Y-117296747D01*
X64027421Y-117368819D01*
X64056490Y-117420023D01*
X64066616Y-117444474D01*
X64053307Y-117466990D01*
X64016112Y-117512258D01*
X63959128Y-117575756D01*
X63886449Y-117652961D01*
X63802171Y-117739349D01*
X63774016Y-117767601D01*
X63481416Y-118059713D01*
X63155104Y-117837369D01*
X63054897Y-117769798D01*
X62964963Y-117710493D01*
X62890510Y-117662783D01*
X62836751Y-117629993D01*
X62808894Y-117615452D01*
X62806912Y-117615026D01*
X62780655Y-117622692D01*
X62727837Y-117643311D01*
X62657310Y-117673315D01*
X62610093Y-117694375D01*
X62519694Y-117733752D01*
X62428366Y-117770835D01*
X62351200Y-117799585D01*
X62327692Y-117807395D01*
X62264916Y-117829583D01*
X62216411Y-117851273D01*
X62198079Y-117863187D01*
X62186859Y-117889477D01*
X62170954Y-117946858D01*
X62152167Y-118027882D01*
X62132299Y-118125105D01*
X62124132Y-118168615D01*
X62103829Y-118279104D01*
X62084170Y-118385084D01*
X62067088Y-118476199D01*
X62054518Y-118542092D01*
X62052091Y-118554500D01*
X62031845Y-118657077D01*
X61604701Y-118657077D01*
X61464246Y-118656847D01*
X61357979Y-118655901D01*
X61281013Y-118653859D01*
X61228460Y-118650338D01*
X61195433Y-118644957D01*
X61177045Y-118637334D01*
X61168408Y-118627088D01*
X61166807Y-118622885D01*
X61161127Y-118597530D01*
X61149795Y-118541516D01*
X61134179Y-118462036D01*
X61115647Y-118366288D01*
X61095569Y-118261467D01*
X61075312Y-118154768D01*
X61056246Y-118053387D01*
X61039739Y-117964521D01*
X61027159Y-117895363D01*
X61019875Y-117853111D01*
X61018616Y-117843710D01*
X61001763Y-117835193D01*
X60956870Y-117816340D01*
X60892430Y-117790676D01*
X60867192Y-117780877D01*
X60769686Y-117741352D01*
X60661959Y-117694808D01*
X60571172Y-117653123D01*
X60501753Y-117622450D01*
X60444710Y-117602044D01*
X60409777Y-117595232D01*
X60405095Y-117596318D01*
X60382991Y-117610715D01*
X60333831Y-117643588D01*
X60262848Y-117691410D01*
X60175278Y-117750652D01*
X60076357Y-117817785D01*
X60056830Y-117831059D01*
X59941140Y-117908954D01*
X59853044Y-117966213D01*
X59788486Y-118005119D01*
X59743411Y-118027956D01*
X59713763Y-118037006D01*
X59695485Y-118034552D01*
X59695369Y-118034489D01*
X59671361Y-118015173D01*
X59624947Y-117972449D01*
X59560937Y-117910949D01*
X59484145Y-117835302D01*
X59399382Y-117750139D01*
X59389922Y-117740535D01*
X59285989Y-117633210D01*
X59209675Y-117550385D01*
X59159571Y-117490395D01*
X59134270Y-117451577D01*
X59131004Y-117434480D01*
X59145250Y-117409527D01*
X59178156Y-117357745D01*
X59226208Y-117284480D01*
X59285890Y-117195080D01*
X59353688Y-117094889D01*
X59369639Y-117071499D01*
X59596420Y-116739407D01*
X59528353Y-116589435D01*
X59488685Y-116498230D01*
X59448791Y-116400331D01*
X59416983Y-116316169D01*
X59415674Y-116312462D01*
X59391576Y-116246631D01*
X59371200Y-116195884D01*
X59358936Y-116171158D01*
X59358901Y-116171116D01*
X59336734Y-116163271D01*
X59282217Y-116149934D01*
X59201480Y-116132430D01*
X59100650Y-116112083D01*
X58985856Y-116090218D01*
X58976178Y-116088429D01*
X58857904Y-116066496D01*
X58750542Y-116046360D01*
X58660917Y-116029320D01*
X58595851Y-116016672D01*
X58562168Y-116009716D01*
X58561654Y-116009594D01*
X58547325Y-116005361D01*
X58536507Y-115997129D01*
X58528706Y-115979967D01*
X58523429Y-115948942D01*
X58520182Y-115899122D01*
X58518472Y-115825576D01*
X58517807Y-115723371D01*
X58517693Y-115587575D01*
X58517692Y-115570000D01*
X58517776Y-115430122D01*
G36*
X173144656Y-118074910D02*
X173334649Y-118073898D01*
X173495528Y-118072926D01*
X173629925Y-118071885D01*
X173740476Y-118070667D01*
X173829816Y-118069164D01*
X173900577Y-118067268D01*
X173955396Y-118064870D01*
X173996906Y-118061864D01*
X174027741Y-118058139D01*
X174050537Y-118053589D01*
X174067928Y-118048105D01*
X174082547Y-118041579D01*
X174093187Y-118035985D01*
X174185410Y-117969059D01*
X174259486Y-117880649D01*
X174290378Y-117824250D01*
X174300400Y-117799929D01*
X174308123Y-117773926D01*
X174313849Y-117741887D01*
X174317877Y-117699458D01*
X174320509Y-117642288D01*
X174322045Y-117566022D01*
X174322787Y-117466308D01*
X174323026Y-117351969D01*
X174323375Y-116951125D01*
X172259625Y-116951125D01*
X172259625Y-116823024D01*
X173501843Y-116827543D01*
X174744062Y-116832063D01*
X174839312Y-116876579D01*
X174933198Y-116929505D01*
X175003713Y-116992524D01*
X175059186Y-117073905D01*
X175080042Y-117115637D01*
X175125062Y-117213063D01*
X175130242Y-117701219D01*
X175135421Y-118189375D01*
X175008421Y-118189375D01*
X175003242Y-117701219D01*
X174998062Y-117213063D01*
X174955409Y-117140511D01*
X174895369Y-117064652D01*
X174816995Y-117003478D01*
X174734848Y-116966634D01*
X174691002Y-116958698D01*
X174629224Y-116953106D01*
X174566709Y-116951125D01*
X174452646Y-116951125D01*
X174447542Y-117383719D01*
X174445900Y-117512933D01*
X174444156Y-117614597D01*
X174441966Y-117692910D01*
X174438989Y-117752071D01*
X174434883Y-117796280D01*
X174429307Y-117829734D01*
X174421918Y-117856634D01*
X174412374Y-117881178D01*
X174405856Y-117895688D01*
X174345483Y-117991383D01*
X174262011Y-118073456D01*
X174163375Y-118134984D01*
X174105713Y-118157505D01*
X174082014Y-118164422D01*
X174057534Y-118170260D01*
X174029490Y-118175112D01*
X173995099Y-118179067D01*
X173951581Y-118182218D01*
X173896154Y-118184655D01*
X173826033Y-118186468D01*
X173738439Y-118187750D01*
X173630589Y-118188590D01*
X173499700Y-118189081D01*
X173342990Y-118189312D01*
X173157678Y-118189375D01*
X172259625Y-118189375D01*
X172259625Y-118079506D01*
X173144656Y-118074910D01*
X173144656Y-118074910D01*
G37*
X173144656Y-118074910D02*
X173334649Y-118073898D01*
X173495528Y-118072926D01*
X173629925Y-118071885D01*
X173740476Y-118070667D01*
X173829816Y-118069164D01*
X173900577Y-118067268D01*
X173955396Y-118064870D01*
X173996906Y-118061864D01*
X174027741Y-118058139D01*
X174050537Y-118053589D01*
X174067928Y-118048105D01*
X174082547Y-118041579D01*
X174093187Y-118035985D01*
X174185410Y-117969059D01*
X174259486Y-117880649D01*
X174290378Y-117824250D01*
X174300400Y-117799929D01*
X174308123Y-117773926D01*
X174313849Y-117741887D01*
X174317877Y-117699458D01*
X174320509Y-117642288D01*
X174322045Y-117566022D01*
X174322787Y-117466308D01*
X174323026Y-117351969D01*
X174323375Y-116951125D01*
X172259625Y-116951125D01*
X172259625Y-116823024D01*
X173501843Y-116827543D01*
X174744062Y-116832063D01*
X174839312Y-116876579D01*
X174933198Y-116929505D01*
X175003713Y-116992524D01*
X175059186Y-117073905D01*
X175080042Y-117115637D01*
X175125062Y-117213063D01*
X175130242Y-117701219D01*
X175135421Y-118189375D01*
X175008421Y-118189375D01*
X175003242Y-117701219D01*
X174998062Y-117213063D01*
X174955409Y-117140511D01*
X174895369Y-117064652D01*
X174816995Y-117003478D01*
X174734848Y-116966634D01*
X174691002Y-116958698D01*
X174629224Y-116953106D01*
X174566709Y-116951125D01*
X174452646Y-116951125D01*
X174447542Y-117383719D01*
X174445900Y-117512933D01*
X174444156Y-117614597D01*
X174441966Y-117692910D01*
X174438989Y-117752071D01*
X174434883Y-117796280D01*
X174429307Y-117829734D01*
X174421918Y-117856634D01*
X174412374Y-117881178D01*
X174405856Y-117895688D01*
X174345483Y-117991383D01*
X174262011Y-118073456D01*
X174163375Y-118134984D01*
X174105713Y-118157505D01*
X174082014Y-118164422D01*
X174057534Y-118170260D01*
X174029490Y-118175112D01*
X173995099Y-118179067D01*
X173951581Y-118182218D01*
X173896154Y-118184655D01*
X173826033Y-118186468D01*
X173738439Y-118187750D01*
X173630589Y-118188590D01*
X173499700Y-118189081D01*
X173342990Y-118189312D01*
X173157678Y-118189375D01*
X172259625Y-118189375D01*
X172259625Y-118079506D01*
X173144656Y-118074910D01*
G36*
X171816915Y-121348500D02*
X171885763Y-121239654D01*
X171977949Y-121151305D01*
X172069125Y-121096291D01*
X172156437Y-121054813D01*
X173315312Y-121054813D01*
X173534758Y-121054824D01*
X173724738Y-121054901D01*
X173887537Y-121055108D01*
X174025439Y-121055508D01*
X174140730Y-121056165D01*
X174235692Y-121057144D01*
X174312611Y-121058509D01*
X174373770Y-121060324D01*
X174421455Y-121062653D01*
X174457950Y-121065560D01*
X174485540Y-121069108D01*
X174506508Y-121073363D01*
X174523139Y-121078388D01*
X174537717Y-121084247D01*
X174549073Y-121089409D01*
X174633051Y-121140122D01*
X174713195Y-121209581D01*
X174779926Y-121288389D01*
X174817761Y-121353044D01*
X174855187Y-121435813D01*
X174858756Y-122856625D01*
X174859353Y-123101572D01*
X174859812Y-123316829D01*
X174860093Y-123504453D01*
X174860159Y-123666504D01*
X174859972Y-123805041D01*
X174859494Y-123922123D01*
X174858686Y-124019810D01*
X174857512Y-124100159D01*
X174855932Y-124165230D01*
X174853910Y-124217082D01*
X174851406Y-124257774D01*
X174848383Y-124289365D01*
X174844803Y-124313913D01*
X174840628Y-124333478D01*
X174835820Y-124350119D01*
X174830931Y-124364266D01*
X174778946Y-124470989D01*
X174705188Y-124558621D01*
X174634291Y-124614566D01*
X174609173Y-124631596D01*
X174585947Y-124646370D01*
X174562278Y-124659050D01*
X174535831Y-124669794D01*
X174504269Y-124678764D01*
X174465259Y-124686119D01*
X174416464Y-124692020D01*
X174355548Y-124696626D01*
X174280177Y-124700097D01*
X174188015Y-124702594D01*
X174076726Y-124704277D01*
X173943975Y-124705305D01*
X173804556Y-124705780D01*
X173804556Y-124602876D01*
X173970227Y-124602673D01*
X174107494Y-124601772D01*
X174219703Y-124599730D01*
X174310200Y-124596108D01*
X174382330Y-124590464D01*
X174439438Y-124582356D01*
X174484871Y-124571345D01*
X174521972Y-124556988D01*
X174554089Y-124538846D01*
X174584566Y-124516476D01*
X174608009Y-124496960D01*
X174656002Y-124446536D01*
X174699249Y-124385819D01*
X174714496Y-124357696D01*
X174752048Y-124277438D01*
X174748055Y-122856625D01*
X174744062Y-121435813D01*
X174700870Y-121369395D01*
X174648730Y-121298370D01*
X174594411Y-121247318D01*
X174526293Y-121205899D01*
X174505937Y-121195928D01*
X174485045Y-121186287D01*
X174464878Y-121178451D01*
X174442054Y-121172233D01*
X174413193Y-121167444D01*
X174374915Y-121163896D01*
X174323837Y-121161401D01*
X174256581Y-121159772D01*
X174169764Y-121158818D01*
X174060007Y-121158353D01*
X173923928Y-121158189D01*
X173827281Y-121158156D01*
X173228000Y-121158000D01*
X173228000Y-121387629D01*
X173228317Y-121477977D01*
X173229696Y-121541724D01*
X173232780Y-121584021D01*
X173238211Y-121610013D01*
X173246631Y-121624851D01*
X173258684Y-121633680D01*
X173258706Y-121633692D01*
X173285835Y-121639979D01*
X173337461Y-121645156D01*
X173406334Y-121648707D01*
X173485207Y-121650120D01*
X173490463Y-121650125D01*
X173595390Y-121651793D01*
X173673947Y-121658037D01*
X173731394Y-121670722D01*
X173772994Y-121691713D01*
X173804011Y-121722874D01*
X173829706Y-121766068D01*
X173832217Y-121771186D01*
X173856612Y-121850596D01*
X173849881Y-121924539D01*
X173821160Y-121981756D01*
X173802550Y-122004898D01*
X173780307Y-122023208D01*
X173750718Y-122037244D01*
X173710069Y-122047562D01*
X173654645Y-122054720D01*
X173580734Y-122059275D01*
X173484621Y-122061785D01*
X173362593Y-122062805D01*
X173280103Y-122062935D01*
X173154151Y-122063122D01*
X173055890Y-122063820D01*
X172981259Y-122065295D01*
X172926201Y-122067815D01*
X172886656Y-122071645D01*
X172858565Y-122077054D01*
X172837870Y-122084306D01*
X172821492Y-122093068D01*
X172776708Y-122134287D01*
X172761400Y-122181877D01*
X172775456Y-122230691D01*
X172818764Y-122275586D01*
X172825564Y-122280231D01*
X172838894Y-122287523D01*
X172856638Y-122293568D01*
X172881894Y-122298533D01*
X172917760Y-122302589D01*
X172967334Y-122305903D01*
X173033714Y-122308646D01*
X173119999Y-122310984D01*
X173229286Y-122313089D01*
X173364675Y-122315128D01*
X173497878Y-122316875D01*
X173657360Y-122318998D01*
X173788176Y-122321060D01*
X173893406Y-122323227D01*
X173976135Y-122325664D01*
X174039443Y-122328535D01*
X174086414Y-122332005D01*
X174120129Y-122336241D01*
X174143672Y-122341406D01*
X174160123Y-122347666D01*
X174169114Y-122352815D01*
X174227739Y-122407144D01*
X174259252Y-122476685D01*
X174265980Y-122539125D01*
X174254214Y-122619884D01*
X174217688Y-122681921D01*
X174160506Y-122725326D01*
X174146616Y-122731761D01*
X174128648Y-122737179D01*
X174103841Y-122741688D01*
X174069433Y-122745395D01*
X174022664Y-122748409D01*
X173960772Y-122750837D01*
X173880996Y-122752786D01*
X173780573Y-122754366D01*
X173656744Y-122755682D01*
X173506747Y-122756844D01*
X173327820Y-122757959D01*
X173323660Y-122757983D01*
X173145621Y-122759039D01*
X172996605Y-122760053D01*
X172873883Y-122761153D01*
X172774729Y-122762467D01*
X172696414Y-122764123D01*
X172636212Y-122766248D01*
X172591394Y-122768971D01*
X172559233Y-122772418D01*
X172537003Y-122776718D01*
X172521975Y-122781998D01*
X172511421Y-122788387D01*
X172502616Y-122796011D01*
X172502128Y-122796469D01*
X172471554Y-122844225D01*
X172469394Y-122898059D01*
X172495514Y-122950158D01*
X172504965Y-122960535D01*
X172543931Y-122999500D01*
X173318559Y-122999525D01*
X173503389Y-122999556D01*
X173659198Y-122999836D01*
X173788718Y-123000664D01*
X173894678Y-123002339D01*
X173979808Y-123005160D01*
X174046838Y-123009427D01*
X174098499Y-123015437D01*
X174137520Y-123023491D01*
X174166632Y-123033888D01*
X174188565Y-123046926D01*
X174206048Y-123062904D01*
X174221812Y-123082122D01*
X174234934Y-123099913D01*
X174260993Y-123159333D01*
X174267058Y-123230618D01*
X174253321Y-123301129D01*
X174231191Y-123344443D01*
X174212888Y-123368491D01*
X174193363Y-123388325D01*
X174169530Y-123404348D01*
X174138305Y-123416967D01*
X174096601Y-123426586D01*
X174041333Y-123433611D01*
X173969417Y-123438447D01*
X173877766Y-123441499D01*
X173763295Y-123443171D01*
X173622918Y-123443870D01*
X173472952Y-123444000D01*
X173308912Y-123444159D01*
X173173675Y-123444870D01*
X173064298Y-123446485D01*
X172977835Y-123449356D01*
X172911340Y-123453835D01*
X172861869Y-123460273D01*
X172826476Y-123469022D01*
X172802217Y-123480434D01*
X172786145Y-123494862D01*
X172775317Y-123512656D01*
X172768986Y-123528093D01*
X172764771Y-123579703D01*
X172784653Y-123628487D01*
X172823201Y-123661964D01*
X172828186Y-123664113D01*
X172856678Y-123669221D01*
X172912937Y-123673991D01*
X172992978Y-123678237D01*
X173092819Y-123681772D01*
X173208476Y-123684409D01*
X173283562Y-123685480D01*
X173419279Y-123687256D01*
X173527111Y-123689708D01*
X173610925Y-123693601D01*
X173674585Y-123699700D01*
X173721958Y-123708770D01*
X173756909Y-123721576D01*
X173783304Y-123738884D01*
X173805008Y-123761457D01*
X173825886Y-123790062D01*
X173828054Y-123793250D01*
X173855765Y-123860041D01*
X173855566Y-123931142D01*
X173829229Y-123999592D01*
X173778527Y-124058433D01*
X173756361Y-124074811D01*
X173732364Y-124086689D01*
X173698580Y-124095292D01*
X173649417Y-124101323D01*
X173579284Y-124105488D01*
X173490675Y-124108296D01*
X173408555Y-124111395D01*
X173337113Y-124116115D01*
X173282713Y-124121883D01*
X173251716Y-124128130D01*
X173247843Y-124130084D01*
X173239139Y-124148657D01*
X173233094Y-124189681D01*
X173229473Y-124256030D01*
X173228043Y-124350584D01*
X173228000Y-124374632D01*
X173228000Y-124602875D01*
X173804556Y-124602876D01*
X173804556Y-124705780D01*
X173787426Y-124705839D01*
X173604744Y-124706039D01*
X173393593Y-124706065D01*
X173299437Y-124706063D01*
X172671575Y-124706063D01*
X172671575Y-124602876D01*
X173114085Y-124602876D01*
X173119449Y-124349207D01*
X173121594Y-124254252D01*
X173123976Y-124185657D01*
X173127488Y-124138040D01*
X173133021Y-124106019D01*
X173141469Y-124084211D01*
X173153724Y-124067233D01*
X173168798Y-124051581D01*
X173186840Y-124034591D01*
X173205172Y-124022458D01*
X173229453Y-124014134D01*
X173265341Y-124008571D01*
X173318496Y-124004720D01*
X173394576Y-124001532D01*
X173448978Y-123999656D01*
X173543008Y-123995995D01*
X173610656Y-123991859D01*
X173657289Y-123986489D01*
X173688275Y-123979122D01*
X173708981Y-123968998D01*
X173718523Y-123961446D01*
X173746763Y-123918542D01*
X173747866Y-123872650D01*
X173724429Y-123831912D01*
X173679050Y-123804470D01*
X173667421Y-123801259D01*
X173642621Y-123798975D01*
X173590700Y-123796637D01*
X173516285Y-123794369D01*
X173424003Y-123792293D01*
X173318481Y-123790532D01*
X173217220Y-123789329D01*
X173090994Y-123787982D01*
X172992541Y-123786461D01*
X172917884Y-123784448D01*
X172863046Y-123781625D01*
X172824050Y-123777675D01*
X172796920Y-123772279D01*
X172777678Y-123765119D01*
X172762347Y-123755876D01*
X172757825Y-123752582D01*
X172695208Y-123693377D01*
X172661569Y-123629219D01*
X172653682Y-123574558D01*
X172667114Y-123492666D01*
X172708740Y-123424245D01*
X172776923Y-123371899D01*
X172783258Y-123368594D01*
X172801867Y-123359530D01*
X172820584Y-123352145D01*
X172842705Y-123346268D01*
X172871522Y-123341726D01*
X172910333Y-123338348D01*
X172962431Y-123335961D01*
X173031112Y-123334394D01*
X173119669Y-123333474D01*
X173231399Y-123333029D01*
X173369596Y-123332887D01*
X173467170Y-123332875D01*
X174080613Y-123332875D01*
X174122619Y-123293946D01*
X174156696Y-123246485D01*
X174161278Y-123197898D01*
X174136055Y-123153421D01*
X174131228Y-123148805D01*
X174122281Y-123141930D01*
X174110100Y-123136132D01*
X174091976Y-123131285D01*
X174065200Y-123127263D01*
X174027066Y-123123939D01*
X173974864Y-123121189D01*
X173905886Y-123118886D01*
X173817424Y-123116904D01*
X173706769Y-123115118D01*
X173571215Y-123113401D01*
X173408051Y-123111628D01*
X173309697Y-123110625D01*
X173130810Y-123108775D01*
X172980889Y-123107049D01*
X172857151Y-123105316D01*
X172756812Y-123103446D01*
X172677091Y-123101306D01*
X172615204Y-123098767D01*
X172568368Y-123095696D01*
X172533799Y-123091963D01*
X172508716Y-123087436D01*
X172490334Y-123081984D01*
X172475872Y-123075477D01*
X172467795Y-123070938D01*
X172407969Y-123019176D01*
X172370322Y-122952050D01*
X172356766Y-122877304D01*
X172369214Y-122802682D01*
X172390910Y-122759754D01*
X172407204Y-122735616D01*
X172422956Y-122715315D01*
X172440912Y-122698519D01*
X172463821Y-122684897D01*
X172494429Y-122674115D01*
X172535484Y-122665842D01*
X172589733Y-122659746D01*
X172659923Y-122655494D01*
X172748802Y-122652754D01*
X172859117Y-122651194D01*
X172993616Y-122650482D01*
X173155046Y-122650285D01*
X173296257Y-122650275D01*
X173480900Y-122650195D01*
X173636379Y-122649790D01*
X173765282Y-122648800D01*
X173870195Y-122646960D01*
X173953704Y-122644008D01*
X174018396Y-122639681D01*
X174066858Y-122633716D01*
X174101676Y-122625851D01*
X174125436Y-122615822D01*
X174140726Y-122603367D01*
X174150132Y-122588222D01*
X174156241Y-122570126D01*
X174158169Y-122562685D01*
X174161858Y-122514438D01*
X174141735Y-122476823D01*
X174106535Y-122448769D01*
X174093313Y-122441430D01*
X174076225Y-122435452D01*
X174052112Y-122430698D01*
X174017819Y-122427029D01*
X173970188Y-122424307D01*
X173906062Y-122422394D01*
X173822284Y-122421151D01*
X173715697Y-122420441D01*
X173583142Y-122420125D01*
X173450839Y-122420063D01*
X173295033Y-122420004D01*
X173167705Y-122419718D01*
X173065584Y-122419045D01*
X172985398Y-122417823D01*
X172923875Y-122415891D01*
X172877743Y-122413087D01*
X172843731Y-122409251D01*
X172818567Y-122404220D01*
X172798979Y-122397834D01*
X172781696Y-122389931D01*
X172775562Y-122386765D01*
X172710463Y-122337128D01*
X172669722Y-122273546D01*
X172653339Y-122202437D01*
X172661315Y-122130221D01*
X172693649Y-122063316D01*
X172750342Y-122008141D01*
X172775562Y-121992986D01*
X172796516Y-121982967D01*
X172819395Y-121975093D01*
X172848283Y-121969042D01*
X172887267Y-121964496D01*
X172940431Y-121961134D01*
X173011863Y-121958635D01*
X173105648Y-121956680D01*
X173225871Y-121954948D01*
X173267687Y-121954425D01*
X173404293Y-121952540D01*
X173512463Y-121950164D01*
X173595512Y-121946615D01*
X173656753Y-121941211D01*
X173699500Y-121933274D01*
X173727067Y-121922121D01*
X173742768Y-121907071D01*
X173749917Y-121887444D01*
X173751827Y-121862559D01*
X173751875Y-121854940D01*
X173746609Y-121819109D01*
X173728106Y-121793305D01*
X173692304Y-121776006D01*
X173635140Y-121765692D01*
X173552553Y-121760841D01*
X173498311Y-121759973D01*
X173378651Y-121757602D01*
X173286986Y-121749930D01*
X173219600Y-121733288D01*
X173172782Y-121704010D01*
X173142816Y-121658429D01*
X173125990Y-121592878D01*
X173118589Y-121503689D01*
X173116900Y-121387197D01*
X173116899Y-121383361D01*
X173116875Y-121156284D01*
X172634824Y-121161111D01*
X172152774Y-121165938D01*
X172070524Y-121221500D01*
X171994469Y-121285485D01*
X171932712Y-121362038D01*
X171891947Y-121442159D01*
X171882884Y-121473814D01*
X171881048Y-121498069D01*
X171879296Y-121551659D01*
X171877648Y-121632172D01*
X171876126Y-121737193D01*
X171874748Y-121864308D01*
X171873537Y-122011104D01*
X171872513Y-122175166D01*
X171871696Y-122354080D01*
X171871107Y-122545432D01*
X171870767Y-122746810D01*
X171870687Y-122904250D01*
X171870687Y-124277438D01*
X171908089Y-124348875D01*
X171974771Y-124448143D01*
X172057390Y-124524487D01*
X172144479Y-124571228D01*
X172172008Y-124580652D01*
X172201043Y-124588010D01*
X172235782Y-124593553D01*
X172280420Y-124597533D01*
X172339156Y-124600203D01*
X172416187Y-124601815D01*
X172515709Y-124602620D01*
X172641919Y-124602870D01*
X172671575Y-124602876D01*
X172671575Y-124706063D01*
X172172312Y-124706063D01*
X172083094Y-124664230D01*
X171967985Y-124594688D01*
X171877192Y-124505860D01*
X171819566Y-124414924D01*
X171775437Y-124325063D01*
X171775437Y-121435813D01*
X171816915Y-121348500D01*
X171816915Y-121348500D01*
G37*
X171816915Y-121348500D02*
X171885763Y-121239654D01*
X171977949Y-121151305D01*
X172069125Y-121096291D01*
X172156437Y-121054813D01*
X173315312Y-121054813D01*
X173534758Y-121054824D01*
X173724738Y-121054901D01*
X173887537Y-121055108D01*
X174025439Y-121055508D01*
X174140730Y-121056165D01*
X174235692Y-121057144D01*
X174312611Y-121058509D01*
X174373770Y-121060324D01*
X174421455Y-121062653D01*
X174457950Y-121065560D01*
X174485540Y-121069108D01*
X174506508Y-121073363D01*
X174523139Y-121078388D01*
X174537717Y-121084247D01*
X174549073Y-121089409D01*
X174633051Y-121140122D01*
X174713195Y-121209581D01*
X174779926Y-121288389D01*
X174817761Y-121353044D01*
X174855187Y-121435813D01*
X174858756Y-122856625D01*
X174859353Y-123101572D01*
X174859812Y-123316829D01*
X174860093Y-123504453D01*
X174860159Y-123666504D01*
X174859972Y-123805041D01*
X174859494Y-123922123D01*
X174858686Y-124019810D01*
X174857512Y-124100159D01*
X174855932Y-124165230D01*
X174853910Y-124217082D01*
X174851406Y-124257774D01*
X174848383Y-124289365D01*
X174844803Y-124313913D01*
X174840628Y-124333478D01*
X174835820Y-124350119D01*
X174830931Y-124364266D01*
X174778946Y-124470989D01*
X174705188Y-124558621D01*
X174634291Y-124614566D01*
X174609173Y-124631596D01*
X174585947Y-124646370D01*
X174562278Y-124659050D01*
X174535831Y-124669794D01*
X174504269Y-124678764D01*
X174465259Y-124686119D01*
X174416464Y-124692020D01*
X174355548Y-124696626D01*
X174280177Y-124700097D01*
X174188015Y-124702594D01*
X174076726Y-124704277D01*
X173943975Y-124705305D01*
X173804556Y-124705780D01*
X173804556Y-124602876D01*
X173970227Y-124602673D01*
X174107494Y-124601772D01*
X174219703Y-124599730D01*
X174310200Y-124596108D01*
X174382330Y-124590464D01*
X174439438Y-124582356D01*
X174484871Y-124571345D01*
X174521972Y-124556988D01*
X174554089Y-124538846D01*
X174584566Y-124516476D01*
X174608009Y-124496960D01*
X174656002Y-124446536D01*
X174699249Y-124385819D01*
X174714496Y-124357696D01*
X174752048Y-124277438D01*
X174748055Y-122856625D01*
X174744062Y-121435813D01*
X174700870Y-121369395D01*
X174648730Y-121298370D01*
X174594411Y-121247318D01*
X174526293Y-121205899D01*
X174505937Y-121195928D01*
X174485045Y-121186287D01*
X174464878Y-121178451D01*
X174442054Y-121172233D01*
X174413193Y-121167444D01*
X174374915Y-121163896D01*
X174323837Y-121161401D01*
X174256581Y-121159772D01*
X174169764Y-121158818D01*
X174060007Y-121158353D01*
X173923928Y-121158189D01*
X173827281Y-121158156D01*
X173228000Y-121158000D01*
X173228000Y-121387629D01*
X173228317Y-121477977D01*
X173229696Y-121541724D01*
X173232780Y-121584021D01*
X173238211Y-121610013D01*
X173246631Y-121624851D01*
X173258684Y-121633680D01*
X173258706Y-121633692D01*
X173285835Y-121639979D01*
X173337461Y-121645156D01*
X173406334Y-121648707D01*
X173485207Y-121650120D01*
X173490463Y-121650125D01*
X173595390Y-121651793D01*
X173673947Y-121658037D01*
X173731394Y-121670722D01*
X173772994Y-121691713D01*
X173804011Y-121722874D01*
X173829706Y-121766068D01*
X173832217Y-121771186D01*
X173856612Y-121850596D01*
X173849881Y-121924539D01*
X173821160Y-121981756D01*
X173802550Y-122004898D01*
X173780307Y-122023208D01*
X173750718Y-122037244D01*
X173710069Y-122047562D01*
X173654645Y-122054720D01*
X173580734Y-122059275D01*
X173484621Y-122061785D01*
X173362593Y-122062805D01*
X173280103Y-122062935D01*
X173154151Y-122063122D01*
X173055890Y-122063820D01*
X172981259Y-122065295D01*
X172926201Y-122067815D01*
X172886656Y-122071645D01*
X172858565Y-122077054D01*
X172837870Y-122084306D01*
X172821492Y-122093068D01*
X172776708Y-122134287D01*
X172761400Y-122181877D01*
X172775456Y-122230691D01*
X172818764Y-122275586D01*
X172825564Y-122280231D01*
X172838894Y-122287523D01*
X172856638Y-122293568D01*
X172881894Y-122298533D01*
X172917760Y-122302589D01*
X172967334Y-122305903D01*
X173033714Y-122308646D01*
X173119999Y-122310984D01*
X173229286Y-122313089D01*
X173364675Y-122315128D01*
X173497878Y-122316875D01*
X173657360Y-122318998D01*
X173788176Y-122321060D01*
X173893406Y-122323227D01*
X173976135Y-122325664D01*
X174039443Y-122328535D01*
X174086414Y-122332005D01*
X174120129Y-122336241D01*
X174143672Y-122341406D01*
X174160123Y-122347666D01*
X174169114Y-122352815D01*
X174227739Y-122407144D01*
X174259252Y-122476685D01*
X174265980Y-122539125D01*
X174254214Y-122619884D01*
X174217688Y-122681921D01*
X174160506Y-122725326D01*
X174146616Y-122731761D01*
X174128648Y-122737179D01*
X174103841Y-122741688D01*
X174069433Y-122745395D01*
X174022664Y-122748409D01*
X173960772Y-122750837D01*
X173880996Y-122752786D01*
X173780573Y-122754366D01*
X173656744Y-122755682D01*
X173506747Y-122756844D01*
X173327820Y-122757959D01*
X173323660Y-122757983D01*
X173145621Y-122759039D01*
X172996605Y-122760053D01*
X172873883Y-122761153D01*
X172774729Y-122762467D01*
X172696414Y-122764123D01*
X172636212Y-122766248D01*
X172591394Y-122768971D01*
X172559233Y-122772418D01*
X172537003Y-122776718D01*
X172521975Y-122781998D01*
X172511421Y-122788387D01*
X172502616Y-122796011D01*
X172502128Y-122796469D01*
X172471554Y-122844225D01*
X172469394Y-122898059D01*
X172495514Y-122950158D01*
X172504965Y-122960535D01*
X172543931Y-122999500D01*
X173318559Y-122999525D01*
X173503389Y-122999556D01*
X173659198Y-122999836D01*
X173788718Y-123000664D01*
X173894678Y-123002339D01*
X173979808Y-123005160D01*
X174046838Y-123009427D01*
X174098499Y-123015437D01*
X174137520Y-123023491D01*
X174166632Y-123033888D01*
X174188565Y-123046926D01*
X174206048Y-123062904D01*
X174221812Y-123082122D01*
X174234934Y-123099913D01*
X174260993Y-123159333D01*
X174267058Y-123230618D01*
X174253321Y-123301129D01*
X174231191Y-123344443D01*
X174212888Y-123368491D01*
X174193363Y-123388325D01*
X174169530Y-123404348D01*
X174138305Y-123416967D01*
X174096601Y-123426586D01*
X174041333Y-123433611D01*
X173969417Y-123438447D01*
X173877766Y-123441499D01*
X173763295Y-123443171D01*
X173622918Y-123443870D01*
X173472952Y-123444000D01*
X173308912Y-123444159D01*
X173173675Y-123444870D01*
X173064298Y-123446485D01*
X172977835Y-123449356D01*
X172911340Y-123453835D01*
X172861869Y-123460273D01*
X172826476Y-123469022D01*
X172802217Y-123480434D01*
X172786145Y-123494862D01*
X172775317Y-123512656D01*
X172768986Y-123528093D01*
X172764771Y-123579703D01*
X172784653Y-123628487D01*
X172823201Y-123661964D01*
X172828186Y-123664113D01*
X172856678Y-123669221D01*
X172912937Y-123673991D01*
X172992978Y-123678237D01*
X173092819Y-123681772D01*
X173208476Y-123684409D01*
X173283562Y-123685480D01*
X173419279Y-123687256D01*
X173527111Y-123689708D01*
X173610925Y-123693601D01*
X173674585Y-123699700D01*
X173721958Y-123708770D01*
X173756909Y-123721576D01*
X173783304Y-123738884D01*
X173805008Y-123761457D01*
X173825886Y-123790062D01*
X173828054Y-123793250D01*
X173855765Y-123860041D01*
X173855566Y-123931142D01*
X173829229Y-123999592D01*
X173778527Y-124058433D01*
X173756361Y-124074811D01*
X173732364Y-124086689D01*
X173698580Y-124095292D01*
X173649417Y-124101323D01*
X173579284Y-124105488D01*
X173490675Y-124108296D01*
X173408555Y-124111395D01*
X173337113Y-124116115D01*
X173282713Y-124121883D01*
X173251716Y-124128130D01*
X173247843Y-124130084D01*
X173239139Y-124148657D01*
X173233094Y-124189681D01*
X173229473Y-124256030D01*
X173228043Y-124350584D01*
X173228000Y-124374632D01*
X173228000Y-124602875D01*
X173804556Y-124602876D01*
X173804556Y-124705780D01*
X173787426Y-124705839D01*
X173604744Y-124706039D01*
X173393593Y-124706065D01*
X173299437Y-124706063D01*
X172671575Y-124706063D01*
X172671575Y-124602876D01*
X173114085Y-124602876D01*
X173119449Y-124349207D01*
X173121594Y-124254252D01*
X173123976Y-124185657D01*
X173127488Y-124138040D01*
X173133021Y-124106019D01*
X173141469Y-124084211D01*
X173153724Y-124067233D01*
X173168798Y-124051581D01*
X173186840Y-124034591D01*
X173205172Y-124022458D01*
X173229453Y-124014134D01*
X173265341Y-124008571D01*
X173318496Y-124004720D01*
X173394576Y-124001532D01*
X173448978Y-123999656D01*
X173543008Y-123995995D01*
X173610656Y-123991859D01*
X173657289Y-123986489D01*
X173688275Y-123979122D01*
X173708981Y-123968998D01*
X173718523Y-123961446D01*
X173746763Y-123918542D01*
X173747866Y-123872650D01*
X173724429Y-123831912D01*
X173679050Y-123804470D01*
X173667421Y-123801259D01*
X173642621Y-123798975D01*
X173590700Y-123796637D01*
X173516285Y-123794369D01*
X173424003Y-123792293D01*
X173318481Y-123790532D01*
X173217220Y-123789329D01*
X173090994Y-123787982D01*
X172992541Y-123786461D01*
X172917884Y-123784448D01*
X172863046Y-123781625D01*
X172824050Y-123777675D01*
X172796920Y-123772279D01*
X172777678Y-123765119D01*
X172762347Y-123755876D01*
X172757825Y-123752582D01*
X172695208Y-123693377D01*
X172661569Y-123629219D01*
X172653682Y-123574558D01*
X172667114Y-123492666D01*
X172708740Y-123424245D01*
X172776923Y-123371899D01*
X172783258Y-123368594D01*
X172801867Y-123359530D01*
X172820584Y-123352145D01*
X172842705Y-123346268D01*
X172871522Y-123341726D01*
X172910333Y-123338348D01*
X172962431Y-123335961D01*
X173031112Y-123334394D01*
X173119669Y-123333474D01*
X173231399Y-123333029D01*
X173369596Y-123332887D01*
X173467170Y-123332875D01*
X174080613Y-123332875D01*
X174122619Y-123293946D01*
X174156696Y-123246485D01*
X174161278Y-123197898D01*
X174136055Y-123153421D01*
X174131228Y-123148805D01*
X174122281Y-123141930D01*
X174110100Y-123136132D01*
X174091976Y-123131285D01*
X174065200Y-123127263D01*
X174027066Y-123123939D01*
X173974864Y-123121189D01*
X173905886Y-123118886D01*
X173817424Y-123116904D01*
X173706769Y-123115118D01*
X173571215Y-123113401D01*
X173408051Y-123111628D01*
X173309697Y-123110625D01*
X173130810Y-123108775D01*
X172980889Y-123107049D01*
X172857151Y-123105316D01*
X172756812Y-123103446D01*
X172677091Y-123101306D01*
X172615204Y-123098767D01*
X172568368Y-123095696D01*
X172533799Y-123091963D01*
X172508716Y-123087436D01*
X172490334Y-123081984D01*
X172475872Y-123075477D01*
X172467795Y-123070938D01*
X172407969Y-123019176D01*
X172370322Y-122952050D01*
X172356766Y-122877304D01*
X172369214Y-122802682D01*
X172390910Y-122759754D01*
X172407204Y-122735616D01*
X172422956Y-122715315D01*
X172440912Y-122698519D01*
X172463821Y-122684897D01*
X172494429Y-122674115D01*
X172535484Y-122665842D01*
X172589733Y-122659746D01*
X172659923Y-122655494D01*
X172748802Y-122652754D01*
X172859117Y-122651194D01*
X172993616Y-122650482D01*
X173155046Y-122650285D01*
X173296257Y-122650275D01*
X173480900Y-122650195D01*
X173636379Y-122649790D01*
X173765282Y-122648800D01*
X173870195Y-122646960D01*
X173953704Y-122644008D01*
X174018396Y-122639681D01*
X174066858Y-122633716D01*
X174101676Y-122625851D01*
X174125436Y-122615822D01*
X174140726Y-122603367D01*
X174150132Y-122588222D01*
X174156241Y-122570126D01*
X174158169Y-122562685D01*
X174161858Y-122514438D01*
X174141735Y-122476823D01*
X174106535Y-122448769D01*
X174093313Y-122441430D01*
X174076225Y-122435452D01*
X174052112Y-122430698D01*
X174017819Y-122427029D01*
X173970188Y-122424307D01*
X173906062Y-122422394D01*
X173822284Y-122421151D01*
X173715697Y-122420441D01*
X173583142Y-122420125D01*
X173450839Y-122420063D01*
X173295033Y-122420004D01*
X173167705Y-122419718D01*
X173065584Y-122419045D01*
X172985398Y-122417823D01*
X172923875Y-122415891D01*
X172877743Y-122413087D01*
X172843731Y-122409251D01*
X172818567Y-122404220D01*
X172798979Y-122397834D01*
X172781696Y-122389931D01*
X172775562Y-122386765D01*
X172710463Y-122337128D01*
X172669722Y-122273546D01*
X172653339Y-122202437D01*
X172661315Y-122130221D01*
X172693649Y-122063316D01*
X172750342Y-122008141D01*
X172775562Y-121992986D01*
X172796516Y-121982967D01*
X172819395Y-121975093D01*
X172848283Y-121969042D01*
X172887267Y-121964496D01*
X172940431Y-121961134D01*
X173011863Y-121958635D01*
X173105648Y-121956680D01*
X173225871Y-121954948D01*
X173267687Y-121954425D01*
X173404293Y-121952540D01*
X173512463Y-121950164D01*
X173595512Y-121946615D01*
X173656753Y-121941211D01*
X173699500Y-121933274D01*
X173727067Y-121922121D01*
X173742768Y-121907071D01*
X173749917Y-121887444D01*
X173751827Y-121862559D01*
X173751875Y-121854940D01*
X173746609Y-121819109D01*
X173728106Y-121793305D01*
X173692304Y-121776006D01*
X173635140Y-121765692D01*
X173552553Y-121760841D01*
X173498311Y-121759973D01*
X173378651Y-121757602D01*
X173286986Y-121749930D01*
X173219600Y-121733288D01*
X173172782Y-121704010D01*
X173142816Y-121658429D01*
X173125990Y-121592878D01*
X173118589Y-121503689D01*
X173116900Y-121387197D01*
X173116899Y-121383361D01*
X173116875Y-121156284D01*
X172634824Y-121161111D01*
X172152774Y-121165938D01*
X172070524Y-121221500D01*
X171994469Y-121285485D01*
X171932712Y-121362038D01*
X171891947Y-121442159D01*
X171882884Y-121473814D01*
X171881048Y-121498069D01*
X171879296Y-121551659D01*
X171877648Y-121632172D01*
X171876126Y-121737193D01*
X171874748Y-121864308D01*
X171873537Y-122011104D01*
X171872513Y-122175166D01*
X171871696Y-122354080D01*
X171871107Y-122545432D01*
X171870767Y-122746810D01*
X171870687Y-122904250D01*
X171870687Y-124277438D01*
X171908089Y-124348875D01*
X171974771Y-124448143D01*
X172057390Y-124524487D01*
X172144479Y-124571228D01*
X172172008Y-124580652D01*
X172201043Y-124588010D01*
X172235782Y-124593553D01*
X172280420Y-124597533D01*
X172339156Y-124600203D01*
X172416187Y-124601815D01*
X172515709Y-124602620D01*
X172641919Y-124602870D01*
X172671575Y-124602876D01*
X172671575Y-124706063D01*
X172172312Y-124706063D01*
X172083094Y-124664230D01*
X171967985Y-124594688D01*
X171877192Y-124505860D01*
X171819566Y-124414924D01*
X171775437Y-124325063D01*
X171775437Y-121435813D01*
X171816915Y-121348500D01*
G36*
X172263082Y-119333048D02*
X172264241Y-119172243D01*
X172265394Y-119040217D01*
X172266702Y-118933999D01*
X172268324Y-118850621D01*
X172270420Y-118787111D01*
X172273149Y-118740500D01*
X172276672Y-118707816D01*
X172281147Y-118686090D01*
X172286735Y-118672352D01*
X172293595Y-118663631D01*
X172299312Y-118658865D01*
X172314367Y-118648176D01*
X172329654Y-118640350D01*
X172347136Y-118636421D01*
X172368775Y-118637422D01*
X172396534Y-118644386D01*
X172432377Y-118658347D01*
X172478265Y-118680338D01*
X172536163Y-118711391D01*
X172608031Y-118752540D01*
X172695834Y-118804818D01*
X172801534Y-118869258D01*
X172927094Y-118946893D01*
X173074476Y-119038757D01*
X173245644Y-119145883D01*
X173356264Y-119215209D01*
X173512128Y-119312842D01*
X173660337Y-119405551D01*
X173798662Y-119491950D01*
X173924873Y-119570651D01*
X174036742Y-119640270D01*
X174132037Y-119699419D01*
X174208532Y-119746712D01*
X174263995Y-119780763D01*
X174296198Y-119800185D01*
X174303531Y-119804282D01*
X174308879Y-119791404D01*
X174313467Y-119751344D01*
X174317278Y-119688663D01*
X174320296Y-119607922D01*
X174322502Y-119513680D01*
X174323882Y-119410498D01*
X174324416Y-119302937D01*
X174324089Y-119195555D01*
X174322884Y-119092914D01*
X174320782Y-118999574D01*
X174317769Y-118920095D01*
X174313825Y-118859037D01*
X174308935Y-118820960D01*
X174307216Y-118814511D01*
X174292147Y-118781089D01*
X174270476Y-118756607D01*
X174237335Y-118739495D01*
X174187853Y-118728184D01*
X174117160Y-118721105D01*
X174020388Y-118716688D01*
X174001906Y-118716116D01*
X173783625Y-118709647D01*
X173783625Y-118583401D01*
X174025718Y-118588887D01*
X174134101Y-118592390D01*
X174215937Y-118598198D01*
X174276412Y-118607645D01*
X174320716Y-118622065D01*
X174354034Y-118642794D01*
X174381556Y-118671165D01*
X174390469Y-118682729D01*
X174414506Y-118726324D01*
X174433492Y-118779157D01*
X174435175Y-118785917D01*
X174439959Y-118822769D01*
X174443822Y-118884942D01*
X174446784Y-118967803D01*
X174448867Y-119066718D01*
X174450093Y-119177053D01*
X174450482Y-119294174D01*
X174450057Y-119413448D01*
X174448839Y-119530241D01*
X174446849Y-119639920D01*
X174444109Y-119737850D01*
X174440639Y-119819398D01*
X174436463Y-119879931D01*
X174431600Y-119914814D01*
X174429929Y-119919750D01*
X174396849Y-119953952D01*
X174348125Y-119964709D01*
X174290802Y-119950785D01*
X174280772Y-119945908D01*
X174259970Y-119933708D01*
X174214555Y-119906138D01*
X174146852Y-119864636D01*
X174059184Y-119810638D01*
X173953877Y-119745581D01*
X173833254Y-119670901D01*
X173699639Y-119588036D01*
X173555357Y-119498423D01*
X173402733Y-119403498D01*
X173315312Y-119349070D01*
X172394562Y-118775605D01*
X172390405Y-119379428D01*
X172386247Y-119983250D01*
X172258603Y-119983250D01*
X172263082Y-119333048D01*
X172263082Y-119333048D01*
G37*
X172263082Y-119333048D02*
X172264241Y-119172243D01*
X172265394Y-119040217D01*
X172266702Y-118933999D01*
X172268324Y-118850621D01*
X172270420Y-118787111D01*
X172273149Y-118740500D01*
X172276672Y-118707816D01*
X172281147Y-118686090D01*
X172286735Y-118672352D01*
X172293595Y-118663631D01*
X172299312Y-118658865D01*
X172314367Y-118648176D01*
X172329654Y-118640350D01*
X172347136Y-118636421D01*
X172368775Y-118637422D01*
X172396534Y-118644386D01*
X172432377Y-118658347D01*
X172478265Y-118680338D01*
X172536163Y-118711391D01*
X172608031Y-118752540D01*
X172695834Y-118804818D01*
X172801534Y-118869258D01*
X172927094Y-118946893D01*
X173074476Y-119038757D01*
X173245644Y-119145883D01*
X173356264Y-119215209D01*
X173512128Y-119312842D01*
X173660337Y-119405551D01*
X173798662Y-119491950D01*
X173924873Y-119570651D01*
X174036742Y-119640270D01*
X174132037Y-119699419D01*
X174208532Y-119746712D01*
X174263995Y-119780763D01*
X174296198Y-119800185D01*
X174303531Y-119804282D01*
X174308879Y-119791404D01*
X174313467Y-119751344D01*
X174317278Y-119688663D01*
X174320296Y-119607922D01*
X174322502Y-119513680D01*
X174323882Y-119410498D01*
X174324416Y-119302937D01*
X174324089Y-119195555D01*
X174322884Y-119092914D01*
X174320782Y-118999574D01*
X174317769Y-118920095D01*
X174313825Y-118859037D01*
X174308935Y-118820960D01*
X174307216Y-118814511D01*
X174292147Y-118781089D01*
X174270476Y-118756607D01*
X174237335Y-118739495D01*
X174187853Y-118728184D01*
X174117160Y-118721105D01*
X174020388Y-118716688D01*
X174001906Y-118716116D01*
X173783625Y-118709647D01*
X173783625Y-118583401D01*
X174025718Y-118588887D01*
X174134101Y-118592390D01*
X174215937Y-118598198D01*
X174276412Y-118607645D01*
X174320716Y-118622065D01*
X174354034Y-118642794D01*
X174381556Y-118671165D01*
X174390469Y-118682729D01*
X174414506Y-118726324D01*
X174433492Y-118779157D01*
X174435175Y-118785917D01*
X174439959Y-118822769D01*
X174443822Y-118884942D01*
X174446784Y-118967803D01*
X174448867Y-119066718D01*
X174450093Y-119177053D01*
X174450482Y-119294174D01*
X174450057Y-119413448D01*
X174448839Y-119530241D01*
X174446849Y-119639920D01*
X174444109Y-119737850D01*
X174440639Y-119819398D01*
X174436463Y-119879931D01*
X174431600Y-119914814D01*
X174429929Y-119919750D01*
X174396849Y-119953952D01*
X174348125Y-119964709D01*
X174290802Y-119950785D01*
X174280772Y-119945908D01*
X174259970Y-119933708D01*
X174214555Y-119906138D01*
X174146852Y-119864636D01*
X174059184Y-119810638D01*
X173953877Y-119745581D01*
X173833254Y-119670901D01*
X173699639Y-119588036D01*
X173555357Y-119498423D01*
X173402733Y-119403498D01*
X173315312Y-119349070D01*
X172394562Y-118775605D01*
X172390405Y-119379428D01*
X172386247Y-119983250D01*
X172258603Y-119983250D01*
X172263082Y-119333048D01*
G36*
X172262598Y-115528998D02*
X172267789Y-115423602D01*
X172275811Y-115327399D01*
X172286408Y-115247865D01*
X172299322Y-115192480D01*
X172299428Y-115192172D01*
X172350262Y-115090053D01*
X172424188Y-115005371D01*
X172516249Y-114943445D01*
X172541920Y-114931980D01*
X172561583Y-114924208D01*
X172580788Y-114917606D01*
X172602202Y-114912065D01*
X172628490Y-114907474D01*
X172662316Y-114903722D01*
X172706346Y-114900700D01*
X172763245Y-114898297D01*
X172835678Y-114896404D01*
X172926311Y-114894908D01*
X173037808Y-114893701D01*
X173172835Y-114892672D01*
X173334057Y-114891711D01*
X173524140Y-114890707D01*
X173541531Y-114890618D01*
X174450375Y-114885922D01*
X174450375Y-115014375D01*
X173588068Y-115014375D01*
X173388507Y-115014448D01*
X173218089Y-115014817D01*
X173074211Y-115015714D01*
X172954267Y-115017369D01*
X172855650Y-115020012D01*
X172775757Y-115023872D01*
X172711980Y-115029181D01*
X172661715Y-115036167D01*
X172622357Y-115045062D01*
X172591300Y-115056095D01*
X172565938Y-115069497D01*
X172543666Y-115085497D01*
X172521878Y-115104326D01*
X172516760Y-115108992D01*
X172477834Y-115153610D01*
X172441154Y-115209833D01*
X172429517Y-115232523D01*
X172416760Y-115262793D01*
X172407539Y-115293571D01*
X172401289Y-115330593D01*
X172397443Y-115379593D01*
X172395435Y-115446306D01*
X172394699Y-115536467D01*
X172394632Y-115585875D01*
X172395496Y-115708189D01*
X172398978Y-115803932D01*
X172406307Y-115878253D01*
X172418711Y-115936302D01*
X172437420Y-115983227D01*
X172463663Y-116024178D01*
X172498669Y-116064303D01*
X172512103Y-116077991D01*
X172564781Y-116125351D01*
X172612725Y-116153829D01*
X172668773Y-116170992D01*
X172670519Y-116171370D01*
X172710228Y-116176114D01*
X172781678Y-116180122D01*
X172884869Y-116183395D01*
X173019800Y-116185931D01*
X173186472Y-116187732D01*
X173384884Y-116188796D01*
X173601843Y-116189125D01*
X174450375Y-116189125D01*
X174450375Y-116301237D01*
X173533593Y-116296775D01*
X172616812Y-116292313D01*
X172537437Y-116255743D01*
X172440778Y-116197245D01*
X172366344Y-116119823D01*
X172312131Y-116020699D01*
X172276131Y-115897100D01*
X172275302Y-115892936D01*
X172266591Y-115825554D01*
X172261742Y-115737452D01*
X172260496Y-115636107D01*
X172262598Y-115528998D01*
X172262598Y-115528998D01*
G37*
X172262598Y-115528998D02*
X172267789Y-115423602D01*
X172275811Y-115327399D01*
X172286408Y-115247865D01*
X172299322Y-115192480D01*
X172299428Y-115192172D01*
X172350262Y-115090053D01*
X172424188Y-115005371D01*
X172516249Y-114943445D01*
X172541920Y-114931980D01*
X172561583Y-114924208D01*
X172580788Y-114917606D01*
X172602202Y-114912065D01*
X172628490Y-114907474D01*
X172662316Y-114903722D01*
X172706346Y-114900700D01*
X172763245Y-114898297D01*
X172835678Y-114896404D01*
X172926311Y-114894908D01*
X173037808Y-114893701D01*
X173172835Y-114892672D01*
X173334057Y-114891711D01*
X173524140Y-114890707D01*
X173541531Y-114890618D01*
X174450375Y-114885922D01*
X174450375Y-115014375D01*
X173588068Y-115014375D01*
X173388507Y-115014448D01*
X173218089Y-115014817D01*
X173074211Y-115015714D01*
X172954267Y-115017369D01*
X172855650Y-115020012D01*
X172775757Y-115023872D01*
X172711980Y-115029181D01*
X172661715Y-115036167D01*
X172622357Y-115045062D01*
X172591300Y-115056095D01*
X172565938Y-115069497D01*
X172543666Y-115085497D01*
X172521878Y-115104326D01*
X172516760Y-115108992D01*
X172477834Y-115153610D01*
X172441154Y-115209833D01*
X172429517Y-115232523D01*
X172416760Y-115262793D01*
X172407539Y-115293571D01*
X172401289Y-115330593D01*
X172397443Y-115379593D01*
X172395435Y-115446306D01*
X172394699Y-115536467D01*
X172394632Y-115585875D01*
X172395496Y-115708189D01*
X172398978Y-115803932D01*
X172406307Y-115878253D01*
X172418711Y-115936302D01*
X172437420Y-115983227D01*
X172463663Y-116024178D01*
X172498669Y-116064303D01*
X172512103Y-116077991D01*
X172564781Y-116125351D01*
X172612725Y-116153829D01*
X172668773Y-116170992D01*
X172670519Y-116171370D01*
X172710228Y-116176114D01*
X172781678Y-116180122D01*
X172884869Y-116183395D01*
X173019800Y-116185931D01*
X173186472Y-116187732D01*
X173384884Y-116188796D01*
X173601843Y-116189125D01*
X174450375Y-116189125D01*
X174450375Y-116301237D01*
X173533593Y-116296775D01*
X172616812Y-116292313D01*
X172537437Y-116255743D01*
X172440778Y-116197245D01*
X172366344Y-116119823D01*
X172312131Y-116020699D01*
X172276131Y-115897100D01*
X172275302Y-115892936D01*
X172266591Y-115825554D01*
X172261742Y-115737452D01*
X172260496Y-115636107D01*
X172262598Y-115528998D01*
G36*
X172259625Y-114284125D02*
X172259625Y-113696750D01*
X172386625Y-113696750D01*
X172386625Y-114284125D01*
X174450375Y-114284125D01*
X174450375Y-114427000D01*
X171592875Y-114427000D01*
X171592875Y-114284125D01*
X172259625Y-114284125D01*
X172259625Y-114284125D01*
G37*
X172259625Y-114284125D02*
X172259625Y-113696750D01*
X172386625Y-113696750D01*
X172386625Y-114284125D01*
X174450375Y-114284125D01*
X174450375Y-114427000D01*
X171592875Y-114427000D01*
X171592875Y-114284125D01*
X172259625Y-114284125D01*
G36*
X172259625Y-113379250D02*
X172259900Y-113026032D01*
X172261330Y-112867175D01*
X172265918Y-112735961D01*
X172274521Y-112628366D01*
X172287998Y-112540368D01*
X172307206Y-112467941D01*
X172333001Y-112407064D01*
X172366240Y-112353712D01*
X172407782Y-112303862D01*
X172415508Y-112295680D01*
X172464265Y-112255011D01*
X172525797Y-112216892D01*
X172560602Y-112200430D01*
X172579901Y-112192845D01*
X172599108Y-112186407D01*
X172620900Y-112181006D01*
X172647950Y-112176533D01*
X172682933Y-112172881D01*
X172728523Y-112169939D01*
X172787396Y-112167600D01*
X172862225Y-112165754D01*
X172955686Y-112164294D01*
X173070452Y-112163109D01*
X173209199Y-112162092D01*
X173374601Y-112161134D01*
X173549468Y-112160226D01*
X174450375Y-112155639D01*
X174450375Y-112282620D01*
X173564892Y-112287216D01*
X172679409Y-112291813D01*
X172602178Y-112331572D01*
X172544646Y-112365024D01*
X172498114Y-112402494D01*
X172461470Y-112447570D01*
X172433600Y-112503839D01*
X172413393Y-112574892D01*
X172399736Y-112664315D01*
X172391516Y-112775697D01*
X172387622Y-112912627D01*
X172386872Y-113026032D01*
X172386625Y-113379250D01*
X174450375Y-113379250D01*
X174450375Y-113506250D01*
X171592875Y-113506250D01*
X171592875Y-113379250D01*
X172259625Y-113379250D01*
X172259625Y-113379250D01*
G37*
X172259625Y-113379250D02*
X172259900Y-113026032D01*
X172261330Y-112867175D01*
X172265918Y-112735961D01*
X172274521Y-112628366D01*
X172287998Y-112540368D01*
X172307206Y-112467941D01*
X172333001Y-112407064D01*
X172366240Y-112353712D01*
X172407782Y-112303862D01*
X172415508Y-112295680D01*
X172464265Y-112255011D01*
X172525797Y-112216892D01*
X172560602Y-112200430D01*
X172579901Y-112192845D01*
X172599108Y-112186407D01*
X172620900Y-112181006D01*
X172647950Y-112176533D01*
X172682933Y-112172881D01*
X172728523Y-112169939D01*
X172787396Y-112167600D01*
X172862225Y-112165754D01*
X172955686Y-112164294D01*
X173070452Y-112163109D01*
X173209199Y-112162092D01*
X173374601Y-112161134D01*
X173549468Y-112160226D01*
X174450375Y-112155639D01*
X174450375Y-112282620D01*
X173564892Y-112287216D01*
X172679409Y-112291813D01*
X172602178Y-112331572D01*
X172544646Y-112365024D01*
X172498114Y-112402494D01*
X172461470Y-112447570D01*
X172433600Y-112503839D01*
X172413393Y-112574892D01*
X172399736Y-112664315D01*
X172391516Y-112775697D01*
X172387622Y-112912627D01*
X172386872Y-113026032D01*
X172386625Y-113379250D01*
X174450375Y-113379250D01*
X174450375Y-113506250D01*
X171592875Y-113506250D01*
X171592875Y-113379250D01*
X172259625Y-113379250D01*
G36*
X174450375Y-111506000D02*
X174450375Y-111648875D01*
X172259625Y-111648875D01*
X172259625Y-111506000D01*
X174450375Y-111506000D01*
X174450375Y-111506000D01*
G37*
X174450375Y-111506000D02*
X174450375Y-111648875D01*
X172259625Y-111648875D01*
X172259625Y-111506000D01*
X174450375Y-111506000D01*
G36*
X172262927Y-110509844D02*
X172264641Y-110371786D01*
X172266382Y-110261494D01*
X172268445Y-110174989D01*
X172271126Y-110108288D01*
X172274717Y-110057411D01*
X172279514Y-110018375D01*
X172285811Y-109987199D01*
X172293902Y-109959901D01*
X172304081Y-109932501D01*
X172305969Y-109927727D01*
X172363004Y-109821723D01*
X172440743Y-109733890D01*
X172534037Y-109669836D01*
X172549708Y-109662330D01*
X172632687Y-109624813D01*
X174109062Y-109624813D01*
X174194219Y-109671979D01*
X174289217Y-109741157D01*
X174368173Y-109831478D01*
X174413631Y-109911787D01*
X174425738Y-109956708D01*
X174435339Y-110026390D01*
X174442316Y-110113933D01*
X174446550Y-110212438D01*
X174447920Y-110315005D01*
X174446308Y-110414734D01*
X174441595Y-110504726D01*
X174433662Y-110578081D01*
X174425813Y-110617000D01*
X174378176Y-110738431D01*
X174308672Y-110838999D01*
X174219317Y-110916543D01*
X174112128Y-110968896D01*
X174092187Y-110975162D01*
X174055988Y-110983846D01*
X174012774Y-110990101D01*
X173957689Y-110994150D01*
X173885877Y-110996219D01*
X173793235Y-110996530D01*
X173793235Y-110885626D01*
X173899721Y-110883810D01*
X173983545Y-110878005D01*
X174049210Y-110867337D01*
X174101220Y-110850931D01*
X174144079Y-110827913D01*
X174182292Y-110797410D01*
X174200879Y-110779266D01*
X174241987Y-110732694D01*
X174272870Y-110684944D01*
X174294915Y-110630545D01*
X174309510Y-110564023D01*
X174318044Y-110479903D01*
X174321903Y-110372713D01*
X174322543Y-110299500D01*
X174321713Y-110206201D01*
X174318993Y-110119286D01*
X174314749Y-110045817D01*
X174309345Y-109992857D01*
X174305753Y-109974063D01*
X174277037Y-109914491D01*
X174227644Y-109853370D01*
X174166772Y-109799897D01*
X174103618Y-109763269D01*
X174089921Y-109758253D01*
X174051801Y-109751488D01*
X173982744Y-109745528D01*
X173883553Y-109740411D01*
X173755032Y-109736176D01*
X173597985Y-109732863D01*
X173548321Y-109732095D01*
X173066955Y-109725191D01*
X173072681Y-110159189D01*
X173074742Y-110293660D01*
X173077137Y-110400159D01*
X173080108Y-110482464D01*
X173083898Y-110544355D01*
X173088751Y-110589610D01*
X173094907Y-110622007D01*
X173102612Y-110645324D01*
X173104136Y-110648750D01*
X173156623Y-110736856D01*
X173225911Y-110804308D01*
X173272817Y-110835293D01*
X173299174Y-110850251D01*
X173323593Y-110861419D01*
X173351213Y-110869449D01*
X173387173Y-110874992D01*
X173436610Y-110878699D01*
X173504665Y-110881222D01*
X173596475Y-110883213D01*
X173659581Y-110884327D01*
X173793235Y-110885626D01*
X173793235Y-110996530D01*
X173792482Y-110996533D01*
X173672648Y-110995316D01*
X173660648Y-110995142D01*
X173545011Y-110993192D01*
X173456285Y-110990887D01*
X173389634Y-110987782D01*
X173340218Y-110983431D01*
X173303201Y-110977388D01*
X173273745Y-110969206D01*
X173247011Y-110958440D01*
X173243068Y-110956636D01*
X173137370Y-110891617D01*
X173054724Y-110804835D01*
X173010355Y-110731008D01*
X172966062Y-110640813D01*
X172958125Y-110188375D01*
X172950187Y-109735938D01*
X172815250Y-109739990D01*
X172695735Y-109752154D01*
X172599961Y-109781921D01*
X172524092Y-109831159D01*
X172464292Y-109901732D01*
X172456217Y-109914697D01*
X172426957Y-109970954D01*
X172404657Y-110027207D01*
X172396861Y-110057119D01*
X172394245Y-110088569D01*
X172391877Y-110146971D01*
X172389852Y-110227526D01*
X172388267Y-110325438D01*
X172387217Y-110435907D01*
X172386801Y-110554137D01*
X172386799Y-110557469D01*
X172386625Y-110998000D01*
X172257203Y-110998000D01*
X172262927Y-110509844D01*
X172262927Y-110509844D01*
G37*
X172262927Y-110509844D02*
X172264641Y-110371786D01*
X172266382Y-110261494D01*
X172268445Y-110174989D01*
X172271126Y-110108288D01*
X172274717Y-110057411D01*
X172279514Y-110018375D01*
X172285811Y-109987199D01*
X172293902Y-109959901D01*
X172304081Y-109932501D01*
X172305969Y-109927727D01*
X172363004Y-109821723D01*
X172440743Y-109733890D01*
X172534037Y-109669836D01*
X172549708Y-109662330D01*
X172632687Y-109624813D01*
X174109062Y-109624813D01*
X174194219Y-109671979D01*
X174289217Y-109741157D01*
X174368173Y-109831478D01*
X174413631Y-109911787D01*
X174425738Y-109956708D01*
X174435339Y-110026390D01*
X174442316Y-110113933D01*
X174446550Y-110212438D01*
X174447920Y-110315005D01*
X174446308Y-110414734D01*
X174441595Y-110504726D01*
X174433662Y-110578081D01*
X174425813Y-110617000D01*
X174378176Y-110738431D01*
X174308672Y-110838999D01*
X174219317Y-110916543D01*
X174112128Y-110968896D01*
X174092187Y-110975162D01*
X174055988Y-110983846D01*
X174012774Y-110990101D01*
X173957689Y-110994150D01*
X173885877Y-110996219D01*
X173793235Y-110996530D01*
X173793235Y-110885626D01*
X173899721Y-110883810D01*
X173983545Y-110878005D01*
X174049210Y-110867337D01*
X174101220Y-110850931D01*
X174144079Y-110827913D01*
X174182292Y-110797410D01*
X174200879Y-110779266D01*
X174241987Y-110732694D01*
X174272870Y-110684944D01*
X174294915Y-110630545D01*
X174309510Y-110564023D01*
X174318044Y-110479903D01*
X174321903Y-110372713D01*
X174322543Y-110299500D01*
X174321713Y-110206201D01*
X174318993Y-110119286D01*
X174314749Y-110045817D01*
X174309345Y-109992857D01*
X174305753Y-109974063D01*
X174277037Y-109914491D01*
X174227644Y-109853370D01*
X174166772Y-109799897D01*
X174103618Y-109763269D01*
X174089921Y-109758253D01*
X174051801Y-109751488D01*
X173982744Y-109745528D01*
X173883553Y-109740411D01*
X173755032Y-109736176D01*
X173597985Y-109732863D01*
X173548321Y-109732095D01*
X173066955Y-109725191D01*
X173072681Y-110159189D01*
X173074742Y-110293660D01*
X173077137Y-110400159D01*
X173080108Y-110482464D01*
X173083898Y-110544355D01*
X173088751Y-110589610D01*
X173094907Y-110622007D01*
X173102612Y-110645324D01*
X173104136Y-110648750D01*
X173156623Y-110736856D01*
X173225911Y-110804308D01*
X173272817Y-110835293D01*
X173299174Y-110850251D01*
X173323593Y-110861419D01*
X173351213Y-110869449D01*
X173387173Y-110874992D01*
X173436610Y-110878699D01*
X173504665Y-110881222D01*
X173596475Y-110883213D01*
X173659581Y-110884327D01*
X173793235Y-110885626D01*
X173793235Y-110996530D01*
X173792482Y-110996533D01*
X173672648Y-110995316D01*
X173660648Y-110995142D01*
X173545011Y-110993192D01*
X173456285Y-110990887D01*
X173389634Y-110987782D01*
X173340218Y-110983431D01*
X173303201Y-110977388D01*
X173273745Y-110969206D01*
X173247011Y-110958440D01*
X173243068Y-110956636D01*
X173137370Y-110891617D01*
X173054724Y-110804835D01*
X173010355Y-110731008D01*
X172966062Y-110640813D01*
X172958125Y-110188375D01*
X172950187Y-109735938D01*
X172815250Y-109739990D01*
X172695735Y-109752154D01*
X172599961Y-109781921D01*
X172524092Y-109831159D01*
X172464292Y-109901732D01*
X172456217Y-109914697D01*
X172426957Y-109970954D01*
X172404657Y-110027207D01*
X172396861Y-110057119D01*
X172394245Y-110088569D01*
X172391877Y-110146971D01*
X172389852Y-110227526D01*
X172388267Y-110325438D01*
X172387217Y-110435907D01*
X172386801Y-110554137D01*
X172386799Y-110557469D01*
X172386625Y-110998000D01*
X172257203Y-110998000D01*
X172262927Y-110509844D01*
G36*
X172268144Y-108286138D02*
X172269294Y-108203939D01*
X172271784Y-108142319D01*
X172276136Y-108095694D01*
X172282872Y-108058479D01*
X172292516Y-108025088D01*
X172305589Y-107989938D01*
X172305688Y-107989688D01*
X172360358Y-107889075D01*
X172435464Y-107807046D01*
X172525913Y-107748646D01*
X172564692Y-107733216D01*
X172585305Y-107727201D01*
X172609832Y-107722063D01*
X172640916Y-107717712D01*
X172681201Y-107714057D01*
X172733332Y-107711009D01*
X172799951Y-107708478D01*
X172883704Y-107706374D01*
X172987233Y-107704607D01*
X173113183Y-107703088D01*
X173264199Y-107701726D01*
X173442922Y-107700431D01*
X173549468Y-107699744D01*
X174450375Y-107694099D01*
X174450375Y-107823000D01*
X173601843Y-107823000D01*
X173391445Y-107823339D01*
X173205474Y-107824342D01*
X173045089Y-107825986D01*
X172911445Y-107828252D01*
X172805700Y-107831118D01*
X172729012Y-107834563D01*
X172682536Y-107838565D01*
X172674135Y-107839981D01*
X172589466Y-107872910D01*
X172512135Y-107930026D01*
X172450826Y-108003791D01*
X172423545Y-108057448D01*
X172412714Y-108090424D01*
X172404878Y-108128378D01*
X172399593Y-108176863D01*
X172396411Y-108241430D01*
X172394887Y-108327632D01*
X172394562Y-108418313D01*
X172395701Y-108540527D01*
X172399985Y-108636233D01*
X172408717Y-108710621D01*
X172423200Y-108768880D01*
X172444736Y-108816197D01*
X172474627Y-108857763D01*
X172514176Y-108898767D01*
X172515465Y-108899986D01*
X172537472Y-108920118D01*
X172559246Y-108937279D01*
X172583390Y-108951704D01*
X172612506Y-108963632D01*
X172649198Y-108973300D01*
X172696070Y-108980945D01*
X172755725Y-108986804D01*
X172830766Y-108991115D01*
X172923796Y-108994115D01*
X173037418Y-108996040D01*
X173174236Y-108997130D01*
X173336854Y-108997619D01*
X173527874Y-108997747D01*
X173588068Y-108997750D01*
X174450375Y-108997750D01*
X174450375Y-109108875D01*
X173566385Y-109108875D01*
X173361253Y-109108846D01*
X173185294Y-109108558D01*
X173035930Y-109107714D01*
X172910585Y-109106013D01*
X172806680Y-109103159D01*
X172721639Y-109098851D01*
X172652885Y-109092791D01*
X172597840Y-109084680D01*
X172553927Y-109074220D01*
X172518569Y-109061112D01*
X172489189Y-109045057D01*
X172463209Y-109025756D01*
X172438051Y-109002911D01*
X172411140Y-108976223D01*
X172409717Y-108974797D01*
X172366237Y-108927802D01*
X172332480Y-108881236D01*
X172307263Y-108830268D01*
X172289405Y-108770071D01*
X172277727Y-108695815D01*
X172271047Y-108602671D01*
X172268184Y-108485810D01*
X172267811Y-108394500D01*
X172268144Y-108286138D01*
X172268144Y-108286138D01*
G37*
X172268144Y-108286138D02*
X172269294Y-108203939D01*
X172271784Y-108142319D01*
X172276136Y-108095694D01*
X172282872Y-108058479D01*
X172292516Y-108025088D01*
X172305589Y-107989938D01*
X172305688Y-107989688D01*
X172360358Y-107889075D01*
X172435464Y-107807046D01*
X172525913Y-107748646D01*
X172564692Y-107733216D01*
X172585305Y-107727201D01*
X172609832Y-107722063D01*
X172640916Y-107717712D01*
X172681201Y-107714057D01*
X172733332Y-107711009D01*
X172799951Y-107708478D01*
X172883704Y-107706374D01*
X172987233Y-107704607D01*
X173113183Y-107703088D01*
X173264199Y-107701726D01*
X173442922Y-107700431D01*
X173549468Y-107699744D01*
X174450375Y-107694099D01*
X174450375Y-107823000D01*
X173601843Y-107823000D01*
X173391445Y-107823339D01*
X173205474Y-107824342D01*
X173045089Y-107825986D01*
X172911445Y-107828252D01*
X172805700Y-107831118D01*
X172729012Y-107834563D01*
X172682536Y-107838565D01*
X172674135Y-107839981D01*
X172589466Y-107872910D01*
X172512135Y-107930026D01*
X172450826Y-108003791D01*
X172423545Y-108057448D01*
X172412714Y-108090424D01*
X172404878Y-108128378D01*
X172399593Y-108176863D01*
X172396411Y-108241430D01*
X172394887Y-108327632D01*
X172394562Y-108418313D01*
X172395701Y-108540527D01*
X172399985Y-108636233D01*
X172408717Y-108710621D01*
X172423200Y-108768880D01*
X172444736Y-108816197D01*
X172474627Y-108857763D01*
X172514176Y-108898767D01*
X172515465Y-108899986D01*
X172537472Y-108920118D01*
X172559246Y-108937279D01*
X172583390Y-108951704D01*
X172612506Y-108963632D01*
X172649198Y-108973300D01*
X172696070Y-108980945D01*
X172755725Y-108986804D01*
X172830766Y-108991115D01*
X172923796Y-108994115D01*
X173037418Y-108996040D01*
X173174236Y-108997130D01*
X173336854Y-108997619D01*
X173527874Y-108997747D01*
X173588068Y-108997750D01*
X174450375Y-108997750D01*
X174450375Y-109108875D01*
X173566385Y-109108875D01*
X173361253Y-109108846D01*
X173185294Y-109108558D01*
X173035930Y-109107714D01*
X172910585Y-109106013D01*
X172806680Y-109103159D01*
X172721639Y-109098851D01*
X172652885Y-109092791D01*
X172597840Y-109084680D01*
X172553927Y-109074220D01*
X172518569Y-109061112D01*
X172489189Y-109045057D01*
X172463209Y-109025756D01*
X172438051Y-109002911D01*
X172411140Y-108976223D01*
X172409717Y-108974797D01*
X172366237Y-108927802D01*
X172332480Y-108881236D01*
X172307263Y-108830268D01*
X172289405Y-108770071D01*
X172277727Y-108695815D01*
X172271047Y-108602671D01*
X172268184Y-108485810D01*
X172267811Y-108394500D01*
X172268144Y-108286138D01*
G36*
X171860558Y-111521878D02*
X171898066Y-111486725D01*
X171952820Y-111474250D01*
X172003575Y-111487327D01*
X172038043Y-111520866D01*
X172052867Y-111566333D01*
X172044690Y-111615193D01*
X172021500Y-111648875D01*
X171974949Y-111677165D01*
X171926154Y-111678911D01*
X171883258Y-111657573D01*
X171854404Y-111616612D01*
X171846875Y-111574680D01*
X171860558Y-111521878D01*
X171860558Y-111521878D01*
G37*
X171860558Y-111521878D02*
X171898066Y-111486725D01*
X171952820Y-111474250D01*
X172003575Y-111487327D01*
X172038043Y-111520866D01*
X172052867Y-111566333D01*
X172044690Y-111615193D01*
X172021500Y-111648875D01*
X171974949Y-111677165D01*
X171926154Y-111678911D01*
X171883258Y-111657573D01*
X171854404Y-111616612D01*
X171846875Y-111574680D01*
X171860558Y-111521878D01*
D12*
X118173500Y-103632000D03*
D13*
X118173500Y-106172000D03*
X115633500Y-103632000D03*
X115633500Y-106172000D03*
X113093500Y-103632000D03*
X113093500Y-106172000D03*
X110553500Y-103632000D03*
X110553500Y-106172000D03*
X108013500Y-103632000D03*
X108013500Y-106172000D03*
X105473500Y-103632000D03*
X105473500Y-106172000D03*
X102933500Y-103632000D03*
X102933500Y-106172000D03*
X100393500Y-103632000D03*
X100393500Y-106172000D03*
X97853500Y-103632000D03*
X97853500Y-106172000D03*
X95313500Y-103632000D03*
X95313500Y-106172000D03*
X92773500Y-103632000D03*
X92773500Y-106172000D03*
X90233500Y-103632000D03*
X90233500Y-106172000D03*
X87693500Y-103632000D03*
X87693500Y-106172000D03*
X85153500Y-103632000D03*
X85153500Y-106172000D03*
X82613500Y-103632000D03*
X82613500Y-106172000D03*
X80073500Y-103632000D03*
X80073500Y-106172000D03*
X77533500Y-103632000D03*
X77533500Y-106172000D03*
X74993500Y-103632000D03*
X74993500Y-106172000D03*
X72453500Y-103632000D03*
X72453500Y-106172000D03*
X69913500Y-103632000D03*
X69913500Y-106172000D03*
D14*
X69850000Y-121285000D03*
D15*
X102870000Y-113665000D03*
X72390000Y-121285000D03*
X100330000Y-113665000D03*
X74930000Y-121285000D03*
X97790000Y-113665000D03*
X77470000Y-121285000D03*
X95250000Y-113665000D03*
X80010000Y-121285000D03*
X92710000Y-113665000D03*
X82550000Y-121285000D03*
X90170000Y-113665000D03*
X85090000Y-121285000D03*
X87630000Y-113665000D03*
X87630000Y-121285000D03*
X85090000Y-113665000D03*
X90170000Y-121285000D03*
X82550000Y-113665000D03*
X92710000Y-121285000D03*
X80010000Y-113665000D03*
X95250000Y-121285000D03*
X77470000Y-113665000D03*
X97790000Y-121285000D03*
X74930000Y-113665000D03*
X100330000Y-121285000D03*
X72390000Y-113665000D03*
X102870000Y-121285000D03*
X69850000Y-113665000D03*
D14*
X126365000Y-112395000D03*
D15*
X133985000Y-117475000D03*
X126365000Y-114935000D03*
X133985000Y-114935000D03*
X126365000Y-117475000D03*
X133985000Y-112395000D03*
D14*
X141605000Y-112395000D03*
D15*
X149225000Y-117475000D03*
X141605000Y-114935000D03*
X149225000Y-114935000D03*
X141605000Y-117475000D03*
X149225000Y-112395000D03*
D14*
X156845000Y-112395000D03*
D15*
X164465000Y-117475000D03*
X156845000Y-114935000D03*
X164465000Y-114935000D03*
X156845000Y-117475000D03*
X164465000Y-112395000D03*
D16*
X137160000Y-111760000D03*
X137160000Y-114260000D03*
X152400000Y-111760000D03*
X152400000Y-114260000D03*
X167640000Y-111760000D03*
X167640000Y-114260000D03*
D17*
X134620000Y-124460000D03*
X124460000Y-124460000D03*
X124460000Y-121920000D03*
X134620000Y-121920000D03*
X116649500Y-109855000D03*
X116649500Y-120015000D03*
X137160000Y-127000000D03*
X137160000Y-116840000D03*
X139700000Y-121920000D03*
X149860000Y-121920000D03*
X139700000Y-124460000D03*
X149860000Y-124460000D03*
X154940000Y-121920000D03*
X165100000Y-121920000D03*
X154940000Y-124460000D03*
X165100000Y-124460000D03*
X152400000Y-116840000D03*
X152400000Y-127000000D03*
X122428000Y-120015000D03*
X122428000Y-109855000D03*
D18*
X132080000Y-127000000D03*
D19*
X124460000Y-127000000D03*
D18*
X147320000Y-127000000D03*
D19*
X139700000Y-127000000D03*
D18*
X162560000Y-127000000D03*
D19*
X154940000Y-127000000D03*
D20*
X61595000Y-104775000D03*
X61595000Y-127635000D03*
X173355000Y-104775000D03*
X173355000Y-127635000D03*
D16*
X95885000Y-109855000D03*
X98385000Y-109855000D03*
D21*
X69151500Y-127190500D03*
D22*
X71651500Y-127190500D03*
X74151500Y-127190500D03*
X76651500Y-127190500D03*
D21*
X83121500Y-127190500D03*
D22*
X85621500Y-127190500D03*
X88121500Y-127190500D03*
X90621500Y-127190500D03*
D21*
X98298000Y-127190500D03*
D22*
X100798000Y-127190500D03*
X103298000Y-127190500D03*
X105798000Y-127190500D03*
D21*
X112268000Y-127190500D03*
D22*
X114768000Y-127190500D03*
X117268000Y-127190500D03*
X119768000Y-127190500D03*
D21*
X135890000Y-105410000D03*
D22*
X133390000Y-105410000D03*
X130890000Y-105410000D03*
X128390000Y-105410000D03*
D21*
X150495000Y-105410000D03*
D22*
X147995000Y-105410000D03*
X145495000Y-105410000D03*
X142995000Y-105410000D03*
D21*
X165100000Y-105410000D03*
D22*
X162600000Y-105410000D03*
X160100000Y-105410000D03*
X157600000Y-105410000D03*
D23*
X119570500Y-109791500D03*
D24*
X119570500Y-119951500D03*
D21*
X109791500Y-111125000D03*
D22*
X109791500Y-113625000D03*
X109791500Y-116125000D03*
X109791500Y-118625000D03*
X109791500Y-121125000D03*
M02*
