G04 #@! TF.FileFunction,Legend,Bot*
%FSLAX46Y46*%
G04 Gerber Fmt 4.6, Leading zero omitted, Abs format (unit mm)*
G04 Created by KiCad (PCBNEW 4.0.6) date Tue Jun  5 10:56:57 2018*
%MOMM*%
%LPD*%
G01*
G04 APERTURE LIST*
%ADD10C,0.100000*%
%ADD11C,0.120000*%
%ADD12C,0.010000*%
G04 APERTURE END LIST*
D10*
D11*
X172891905Y-108471666D02*
X172891905Y-109004999D01*
X173691905Y-108471666D01*
X173691905Y-109004999D01*
X173158571Y-109233571D02*
X173691905Y-109424047D01*
X173158571Y-109614523D02*
X173691905Y-109424047D01*
X173882381Y-109347856D01*
X173920476Y-109309761D01*
X173958571Y-109233571D01*
X173158571Y-109919285D02*
X173691905Y-109919285D01*
X173234762Y-109919285D02*
X173196667Y-109957380D01*
X173158571Y-110033571D01*
X173158571Y-110147857D01*
X173196667Y-110224047D01*
X173272857Y-110262142D01*
X173691905Y-110262142D01*
X173158571Y-110528809D02*
X173158571Y-110833571D01*
X172891905Y-110643095D02*
X173577619Y-110643095D01*
X173653810Y-110681190D01*
X173691905Y-110757381D01*
X173691905Y-110833571D01*
X173691905Y-111100238D02*
X172891905Y-111100238D01*
X173691905Y-111443095D02*
X173272857Y-111443095D01*
X173196667Y-111405000D01*
X173158571Y-111328810D01*
X173158571Y-111214524D01*
X173196667Y-111138333D01*
X173234762Y-111100238D01*
X173691905Y-111824048D02*
X173158571Y-111824048D01*
X172891905Y-111824048D02*
X172930000Y-111785953D01*
X172968095Y-111824048D01*
X172930000Y-111862143D01*
X172891905Y-111824048D01*
X172968095Y-111824048D01*
X173691905Y-112547857D02*
X173272857Y-112547857D01*
X173196667Y-112509762D01*
X173158571Y-112433572D01*
X173158571Y-112281191D01*
X173196667Y-112205000D01*
X173653810Y-112547857D02*
X173691905Y-112471667D01*
X173691905Y-112281191D01*
X173653810Y-112205000D01*
X173577619Y-112166905D01*
X173501429Y-112166905D01*
X173425238Y-112205000D01*
X173387143Y-112281191D01*
X173387143Y-112471667D01*
X173349048Y-112547857D01*
X173158571Y-112928810D02*
X173691905Y-112928810D01*
X173234762Y-112928810D02*
X173196667Y-112966905D01*
X173158571Y-113043096D01*
X173158571Y-113157382D01*
X173196667Y-113233572D01*
X173272857Y-113271667D01*
X173691905Y-113271667D01*
X173463333Y-114224049D02*
X173463333Y-114605001D01*
X173691905Y-114147858D02*
X172891905Y-114414525D01*
X173691905Y-114681192D01*
X173691905Y-115062144D02*
X173653810Y-114985953D01*
X173577619Y-114947858D01*
X172891905Y-114947858D01*
X173691905Y-115481192D02*
X173653810Y-115405001D01*
X173577619Y-115366906D01*
X172891905Y-115366906D01*
X173387143Y-115785954D02*
X173387143Y-116395478D01*
X173691905Y-116776430D02*
X172891905Y-116776430D01*
X173158571Y-117157382D02*
X173691905Y-117157382D01*
X173234762Y-117157382D02*
X173196667Y-117195477D01*
X173158571Y-117271668D01*
X173158571Y-117385954D01*
X173196667Y-117462144D01*
X173272857Y-117500239D01*
X173691905Y-117500239D01*
X173387143Y-117881192D02*
X173387143Y-118490716D01*
X172891905Y-119024049D02*
X172891905Y-119176430D01*
X172930000Y-119252621D01*
X173006190Y-119328811D01*
X173158571Y-119366906D01*
X173425238Y-119366906D01*
X173577619Y-119328811D01*
X173653810Y-119252621D01*
X173691905Y-119176430D01*
X173691905Y-119024049D01*
X173653810Y-118947859D01*
X173577619Y-118871668D01*
X173425238Y-118833573D01*
X173158571Y-118833573D01*
X173006190Y-118871668D01*
X172930000Y-118947859D01*
X172891905Y-119024049D01*
X173158571Y-119709763D02*
X173691905Y-119709763D01*
X173234762Y-119709763D02*
X173196667Y-119747858D01*
X173158571Y-119824049D01*
X173158571Y-119938335D01*
X173196667Y-120014525D01*
X173272857Y-120052620D01*
X173691905Y-120052620D01*
X173653810Y-120738335D02*
X173691905Y-120662145D01*
X173691905Y-120509764D01*
X173653810Y-120433573D01*
X173577619Y-120395478D01*
X173272857Y-120395478D01*
X173196667Y-120433573D01*
X173158571Y-120509764D01*
X173158571Y-120662145D01*
X173196667Y-120738335D01*
X173272857Y-120776430D01*
X173349048Y-120776430D01*
X173425238Y-120395478D01*
X173158571Y-121652621D02*
X173691905Y-121843097D01*
X173158571Y-122033573D01*
X173691905Y-122757383D02*
X173691905Y-122300240D01*
X173691905Y-122528811D02*
X172891905Y-122528811D01*
X173006190Y-122452621D01*
X173082381Y-122376430D01*
X173120476Y-122300240D01*
X173615714Y-123100240D02*
X173653810Y-123138335D01*
X173691905Y-123100240D01*
X173653810Y-123062145D01*
X173615714Y-123100240D01*
X173691905Y-123100240D01*
X172891905Y-123633573D02*
X172891905Y-123709764D01*
X172930000Y-123785954D01*
X172968095Y-123824049D01*
X173044286Y-123862145D01*
X173196667Y-123900240D01*
X173387143Y-123900240D01*
X173539524Y-123862145D01*
X173615714Y-123824049D01*
X173653810Y-123785954D01*
X173691905Y-123709764D01*
X173691905Y-123633573D01*
X173653810Y-123557383D01*
X173615714Y-123519287D01*
X173539524Y-123481192D01*
X173387143Y-123443097D01*
X173196667Y-123443097D01*
X173044286Y-123481192D01*
X172968095Y-123519287D01*
X172930000Y-123557383D01*
X172891905Y-123633573D01*
X174211905Y-110243093D02*
X174211905Y-110395474D01*
X174250000Y-110471665D01*
X174326190Y-110547855D01*
X174478571Y-110585950D01*
X174745238Y-110585950D01*
X174897619Y-110547855D01*
X174973810Y-110471665D01*
X175011905Y-110395474D01*
X175011905Y-110243093D01*
X174973810Y-110166903D01*
X174897619Y-110090712D01*
X174745238Y-110052617D01*
X174478571Y-110052617D01*
X174326190Y-110090712D01*
X174250000Y-110166903D01*
X174211905Y-110243093D01*
X174478571Y-110928807D02*
X175278571Y-110928807D01*
X174516667Y-110928807D02*
X174478571Y-111004998D01*
X174478571Y-111157379D01*
X174516667Y-111233569D01*
X174554762Y-111271664D01*
X174630952Y-111309760D01*
X174859524Y-111309760D01*
X174935714Y-111271664D01*
X174973810Y-111233569D01*
X175011905Y-111157379D01*
X175011905Y-111004998D01*
X174973810Y-110928807D01*
X174973810Y-111957379D02*
X175011905Y-111881189D01*
X175011905Y-111728808D01*
X174973810Y-111652617D01*
X174897619Y-111614522D01*
X174592857Y-111614522D01*
X174516667Y-111652617D01*
X174478571Y-111728808D01*
X174478571Y-111881189D01*
X174516667Y-111957379D01*
X174592857Y-111995474D01*
X174669048Y-111995474D01*
X174745238Y-111614522D01*
X174478571Y-112338331D02*
X175011905Y-112338331D01*
X174554762Y-112338331D02*
X174516667Y-112376426D01*
X174478571Y-112452617D01*
X174478571Y-112566903D01*
X174516667Y-112643093D01*
X174592857Y-112681188D01*
X175011905Y-112681188D01*
X174973810Y-113633570D02*
X175011905Y-113747856D01*
X175011905Y-113938332D01*
X174973810Y-114014522D01*
X174935714Y-114052618D01*
X174859524Y-114090713D01*
X174783333Y-114090713D01*
X174707143Y-114052618D01*
X174669048Y-114014522D01*
X174630952Y-113938332D01*
X174592857Y-113785951D01*
X174554762Y-113709760D01*
X174516667Y-113671665D01*
X174440476Y-113633570D01*
X174364286Y-113633570D01*
X174288095Y-113671665D01*
X174250000Y-113709760D01*
X174211905Y-113785951D01*
X174211905Y-113976427D01*
X174250000Y-114090713D01*
X174478571Y-114357380D02*
X175011905Y-114547856D01*
X174478571Y-114738332D02*
X175011905Y-114547856D01*
X175202381Y-114471665D01*
X175240476Y-114433570D01*
X175278571Y-114357380D01*
X174478571Y-115043094D02*
X175011905Y-115043094D01*
X174554762Y-115043094D02*
X174516667Y-115081189D01*
X174478571Y-115157380D01*
X174478571Y-115271666D01*
X174516667Y-115347856D01*
X174592857Y-115385951D01*
X175011905Y-115385951D01*
X174478571Y-115652618D02*
X174478571Y-115957380D01*
X174211905Y-115766904D02*
X174897619Y-115766904D01*
X174973810Y-115804999D01*
X175011905Y-115881190D01*
X175011905Y-115957380D01*
X175011905Y-116224047D02*
X174211905Y-116224047D01*
X175011905Y-116566904D02*
X174592857Y-116566904D01*
X174516667Y-116528809D01*
X174478571Y-116452619D01*
X174478571Y-116338333D01*
X174516667Y-116262142D01*
X174554762Y-116224047D01*
X175011905Y-117557381D02*
X174211905Y-117557381D01*
X174211905Y-117862143D01*
X174250000Y-117938334D01*
X174288095Y-117976429D01*
X174364286Y-118014524D01*
X174478571Y-118014524D01*
X174554762Y-117976429D01*
X174592857Y-117938334D01*
X174630952Y-117862143D01*
X174630952Y-117557381D01*
X175011905Y-118471667D02*
X174973810Y-118395476D01*
X174897619Y-118357381D01*
X174211905Y-118357381D01*
X175011905Y-119119286D02*
X174592857Y-119119286D01*
X174516667Y-119081191D01*
X174478571Y-119005001D01*
X174478571Y-118852620D01*
X174516667Y-118776429D01*
X174973810Y-119119286D02*
X175011905Y-119043096D01*
X175011905Y-118852620D01*
X174973810Y-118776429D01*
X174897619Y-118738334D01*
X174821429Y-118738334D01*
X174745238Y-118776429D01*
X174707143Y-118852620D01*
X174707143Y-119043096D01*
X174669048Y-119119286D01*
X174478571Y-119385953D02*
X174478571Y-119690715D01*
X174211905Y-119500239D02*
X174897619Y-119500239D01*
X174973810Y-119538334D01*
X175011905Y-119614525D01*
X175011905Y-119690715D01*
X174478571Y-119843096D02*
X174478571Y-120147858D01*
X175011905Y-119957382D02*
X174326190Y-119957382D01*
X174250000Y-119995477D01*
X174211905Y-120071668D01*
X174211905Y-120147858D01*
X175011905Y-120528811D02*
X174973810Y-120452620D01*
X174935714Y-120414525D01*
X174859524Y-120376430D01*
X174630952Y-120376430D01*
X174554762Y-120414525D01*
X174516667Y-120452620D01*
X174478571Y-120528811D01*
X174478571Y-120643097D01*
X174516667Y-120719287D01*
X174554762Y-120757382D01*
X174630952Y-120795478D01*
X174859524Y-120795478D01*
X174935714Y-120757382D01*
X174973810Y-120719287D01*
X175011905Y-120643097D01*
X175011905Y-120528811D01*
X175011905Y-121138335D02*
X174478571Y-121138335D01*
X174630952Y-121138335D02*
X174554762Y-121176430D01*
X174516667Y-121214526D01*
X174478571Y-121290716D01*
X174478571Y-121366907D01*
X175011905Y-121633573D02*
X174478571Y-121633573D01*
X174554762Y-121633573D02*
X174516667Y-121671668D01*
X174478571Y-121747859D01*
X174478571Y-121862145D01*
X174516667Y-121938335D01*
X174592857Y-121976430D01*
X175011905Y-121976430D01*
X174592857Y-121976430D02*
X174516667Y-122014526D01*
X174478571Y-122090716D01*
X174478571Y-122205002D01*
X174516667Y-122281192D01*
X174592857Y-122319287D01*
X175011905Y-122319287D01*
D12*
G36*
X64916105Y-112592886D02*
X64953327Y-112667539D01*
X65021861Y-112733431D01*
X65047248Y-112751577D01*
X65080466Y-112771345D01*
X65116545Y-112784172D01*
X65164698Y-112791510D01*
X65234136Y-112794813D01*
X65325806Y-112795538D01*
X65451430Y-112792263D01*
X65545754Y-112780877D01*
X65616123Y-112759041D01*
X65669886Y-112724419D01*
X65714388Y-112674670D01*
X65717023Y-112671014D01*
X65743977Y-112621985D01*
X65757312Y-112562945D01*
X65760600Y-112487859D01*
X65760600Y-112365795D01*
X65879097Y-112365744D01*
X65945092Y-112364608D01*
X65983802Y-112357686D01*
X66007019Y-112339598D01*
X66026533Y-112304962D01*
X66030520Y-112296645D01*
X66049203Y-112257720D01*
X66061003Y-112227583D01*
X66062022Y-112205174D01*
X66048361Y-112189433D01*
X66016122Y-112179302D01*
X65961404Y-112173723D01*
X65880311Y-112171635D01*
X65768944Y-112171981D01*
X65623402Y-112173700D01*
X65579869Y-112174237D01*
X65429805Y-112176172D01*
X65331642Y-112177904D01*
X65331642Y-112365692D01*
X65414964Y-112366748D01*
X65469480Y-112371438D01*
X65505437Y-112382051D01*
X65533082Y-112400872D01*
X65546565Y-112413650D01*
X65586017Y-112465890D01*
X65589228Y-112512142D01*
X65556649Y-112559867D01*
X65555446Y-112561077D01*
X65530268Y-112580494D01*
X65496047Y-112592307D01*
X65443348Y-112598265D01*
X65362731Y-112600120D01*
X65344871Y-112600154D01*
X65233775Y-112595670D01*
X65156761Y-112581074D01*
X65109747Y-112554650D01*
X65088650Y-112514683D01*
X65086523Y-112491584D01*
X65096500Y-112436762D01*
X65129352Y-112399158D01*
X65189457Y-112376523D01*
X65281198Y-112366606D01*
X65331642Y-112365692D01*
X65331642Y-112177904D01*
X65313660Y-112178222D01*
X65226279Y-112180873D01*
X65162505Y-112184606D01*
X65117182Y-112189907D01*
X65085155Y-112197258D01*
X65061268Y-112207143D01*
X65040364Y-112220046D01*
X65032498Y-112225579D01*
X64958195Y-112298969D01*
X64916067Y-112391760D01*
X64904322Y-112499096D01*
X64916105Y-112592886D01*
X64916105Y-112592886D01*
G37*
X64916105Y-112592886D02*
X64953327Y-112667539D01*
X65021861Y-112733431D01*
X65047248Y-112751577D01*
X65080466Y-112771345D01*
X65116545Y-112784172D01*
X65164698Y-112791510D01*
X65234136Y-112794813D01*
X65325806Y-112795538D01*
X65451430Y-112792263D01*
X65545754Y-112780877D01*
X65616123Y-112759041D01*
X65669886Y-112724419D01*
X65714388Y-112674670D01*
X65717023Y-112671014D01*
X65743977Y-112621985D01*
X65757312Y-112562945D01*
X65760600Y-112487859D01*
X65760600Y-112365795D01*
X65879097Y-112365744D01*
X65945092Y-112364608D01*
X65983802Y-112357686D01*
X66007019Y-112339598D01*
X66026533Y-112304962D01*
X66030520Y-112296645D01*
X66049203Y-112257720D01*
X66061003Y-112227583D01*
X66062022Y-112205174D01*
X66048361Y-112189433D01*
X66016122Y-112179302D01*
X65961404Y-112173723D01*
X65880311Y-112171635D01*
X65768944Y-112171981D01*
X65623402Y-112173700D01*
X65579869Y-112174237D01*
X65429805Y-112176172D01*
X65331642Y-112177904D01*
X65331642Y-112365692D01*
X65414964Y-112366748D01*
X65469480Y-112371438D01*
X65505437Y-112382051D01*
X65533082Y-112400872D01*
X65546565Y-112413650D01*
X65586017Y-112465890D01*
X65589228Y-112512142D01*
X65556649Y-112559867D01*
X65555446Y-112561077D01*
X65530268Y-112580494D01*
X65496047Y-112592307D01*
X65443348Y-112598265D01*
X65362731Y-112600120D01*
X65344871Y-112600154D01*
X65233775Y-112595670D01*
X65156761Y-112581074D01*
X65109747Y-112554650D01*
X65088650Y-112514683D01*
X65086523Y-112491584D01*
X65096500Y-112436762D01*
X65129352Y-112399158D01*
X65189457Y-112376523D01*
X65281198Y-112366606D01*
X65331642Y-112365692D01*
X65331642Y-112177904D01*
X65313660Y-112178222D01*
X65226279Y-112180873D01*
X65162505Y-112184606D01*
X65117182Y-112189907D01*
X65085155Y-112197258D01*
X65061268Y-112207143D01*
X65040364Y-112220046D01*
X65032498Y-112225579D01*
X64958195Y-112298969D01*
X64916067Y-112391760D01*
X64904322Y-112499096D01*
X64916105Y-112592886D01*
G36*
X64926689Y-114095664D02*
X64962958Y-114158367D01*
X64998958Y-114201961D01*
X65036675Y-114233845D01*
X65082799Y-114255810D01*
X65144021Y-114269649D01*
X65227031Y-114277153D01*
X65338519Y-114280117D01*
X65418662Y-114280461D01*
X65713665Y-114280461D01*
X65788115Y-114114385D01*
X65465002Y-114104615D01*
X65344329Y-114100579D01*
X65256741Y-114096344D01*
X65196250Y-114091097D01*
X65156868Y-114084025D01*
X65132607Y-114074311D01*
X65117480Y-114061144D01*
X65114206Y-114056919D01*
X65088634Y-113992909D01*
X65098753Y-113928208D01*
X65125600Y-113889692D01*
X65144624Y-113874025D01*
X65169588Y-113863180D01*
X65207434Y-113856288D01*
X65265102Y-113852479D01*
X65349535Y-113850883D01*
X65437528Y-113850615D01*
X65547923Y-113850563D01*
X65626063Y-113848672D01*
X65678765Y-113842345D01*
X65712842Y-113828983D01*
X65735111Y-113805985D01*
X65752387Y-113770754D01*
X65770338Y-113723697D01*
X65789878Y-113672303D01*
X65443085Y-113678421D01*
X65318068Y-113680884D01*
X65225682Y-113683767D01*
X65159481Y-113687898D01*
X65113020Y-113694107D01*
X65079856Y-113703226D01*
X65053544Y-113716083D01*
X65030329Y-113731584D01*
X64956169Y-113806371D01*
X64913284Y-113897628D01*
X64903012Y-113996883D01*
X64926689Y-114095664D01*
X64926689Y-114095664D01*
G37*
X64926689Y-114095664D02*
X64962958Y-114158367D01*
X64998958Y-114201961D01*
X65036675Y-114233845D01*
X65082799Y-114255810D01*
X65144021Y-114269649D01*
X65227031Y-114277153D01*
X65338519Y-114280117D01*
X65418662Y-114280461D01*
X65713665Y-114280461D01*
X65788115Y-114114385D01*
X65465002Y-114104615D01*
X65344329Y-114100579D01*
X65256741Y-114096344D01*
X65196250Y-114091097D01*
X65156868Y-114084025D01*
X65132607Y-114074311D01*
X65117480Y-114061144D01*
X65114206Y-114056919D01*
X65088634Y-113992909D01*
X65098753Y-113928208D01*
X65125600Y-113889692D01*
X65144624Y-113874025D01*
X65169588Y-113863180D01*
X65207434Y-113856288D01*
X65265102Y-113852479D01*
X65349535Y-113850883D01*
X65437528Y-113850615D01*
X65547923Y-113850563D01*
X65626063Y-113848672D01*
X65678765Y-113842345D01*
X65712842Y-113828983D01*
X65735111Y-113805985D01*
X65752387Y-113770754D01*
X65770338Y-113723697D01*
X65789878Y-113672303D01*
X65443085Y-113678421D01*
X65318068Y-113680884D01*
X65225682Y-113683767D01*
X65159481Y-113687898D01*
X65113020Y-113694107D01*
X65079856Y-113703226D01*
X65053544Y-113716083D01*
X65030329Y-113731584D01*
X64956169Y-113806371D01*
X64913284Y-113897628D01*
X64903012Y-113996883D01*
X64926689Y-114095664D01*
G36*
X64918856Y-111840886D02*
X64967009Y-111932464D01*
X65044505Y-112000049D01*
X65094327Y-112024057D01*
X65169133Y-112042738D01*
X65263652Y-112052301D01*
X65366810Y-112053208D01*
X65467535Y-112045921D01*
X65554753Y-112030903D01*
X65617391Y-112008615D01*
X65628179Y-112001765D01*
X65708705Y-111920632D01*
X65756936Y-111824266D01*
X65771050Y-111719701D01*
X65749229Y-111613968D01*
X65736147Y-111584543D01*
X65695831Y-111527241D01*
X65642375Y-111476950D01*
X65635595Y-111472197D01*
X65602921Y-111452878D01*
X65567994Y-111440108D01*
X65522014Y-111432564D01*
X65456184Y-111428924D01*
X65361705Y-111427865D01*
X65340523Y-111427846D01*
X65333782Y-111427894D01*
X65333782Y-111623231D01*
X65422949Y-111624368D01*
X65482120Y-111628841D01*
X65520341Y-111638246D01*
X65546653Y-111654176D01*
X65555446Y-111662308D01*
X65588861Y-111709058D01*
X65587337Y-111754447D01*
X65558352Y-111800340D01*
X65527409Y-111827712D01*
X65482243Y-111843923D01*
X65411020Y-111853026D01*
X65402714Y-111853651D01*
X65273637Y-111855204D01*
X65177772Y-111838965D01*
X65115707Y-111805152D01*
X65088032Y-111753984D01*
X65086523Y-111735720D01*
X65094113Y-111687760D01*
X65120408Y-111654953D01*
X65170695Y-111634895D01*
X65250264Y-111625178D01*
X65333782Y-111623231D01*
X65333782Y-111427894D01*
X65239849Y-111428574D01*
X65169506Y-111431629D01*
X65120763Y-111438322D01*
X65084888Y-111449960D01*
X65053148Y-111467853D01*
X65047248Y-111471808D01*
X64967704Y-111538267D01*
X64921529Y-111610685D01*
X64903199Y-111698849D01*
X64902303Y-111728787D01*
X64918856Y-111840886D01*
X64918856Y-111840886D01*
G37*
X64918856Y-111840886D02*
X64967009Y-111932464D01*
X65044505Y-112000049D01*
X65094327Y-112024057D01*
X65169133Y-112042738D01*
X65263652Y-112052301D01*
X65366810Y-112053208D01*
X65467535Y-112045921D01*
X65554753Y-112030903D01*
X65617391Y-112008615D01*
X65628179Y-112001765D01*
X65708705Y-111920632D01*
X65756936Y-111824266D01*
X65771050Y-111719701D01*
X65749229Y-111613968D01*
X65736147Y-111584543D01*
X65695831Y-111527241D01*
X65642375Y-111476950D01*
X65635595Y-111472197D01*
X65602921Y-111452878D01*
X65567994Y-111440108D01*
X65522014Y-111432564D01*
X65456184Y-111428924D01*
X65361705Y-111427865D01*
X65340523Y-111427846D01*
X65333782Y-111427894D01*
X65333782Y-111623231D01*
X65422949Y-111624368D01*
X65482120Y-111628841D01*
X65520341Y-111638246D01*
X65546653Y-111654176D01*
X65555446Y-111662308D01*
X65588861Y-111709058D01*
X65587337Y-111754447D01*
X65558352Y-111800340D01*
X65527409Y-111827712D01*
X65482243Y-111843923D01*
X65411020Y-111853026D01*
X65402714Y-111853651D01*
X65273637Y-111855204D01*
X65177772Y-111838965D01*
X65115707Y-111805152D01*
X65088032Y-111753984D01*
X65086523Y-111735720D01*
X65094113Y-111687760D01*
X65120408Y-111654953D01*
X65170695Y-111634895D01*
X65250264Y-111625178D01*
X65333782Y-111623231D01*
X65333782Y-111427894D01*
X65239849Y-111428574D01*
X65169506Y-111431629D01*
X65120763Y-111438322D01*
X65084888Y-111449960D01*
X65053148Y-111467853D01*
X65047248Y-111471808D01*
X64967704Y-111538267D01*
X64921529Y-111610685D01*
X64903199Y-111698849D01*
X64902303Y-111728787D01*
X64918856Y-111840886D01*
G36*
X64931345Y-113358254D02*
X64983167Y-113435286D01*
X65058012Y-113494816D01*
X65153254Y-113530378D01*
X65223356Y-113537571D01*
X65252609Y-113536754D01*
X65275007Y-113529914D01*
X65295074Y-113511112D01*
X65317333Y-113474408D01*
X65346309Y-113413862D01*
X65386527Y-113323534D01*
X65386729Y-113323077D01*
X65424810Y-113239933D01*
X65458625Y-113171753D01*
X65484533Y-113125505D01*
X65498895Y-113108158D01*
X65499011Y-113108154D01*
X65530285Y-113123443D01*
X65564757Y-113159196D01*
X65589590Y-113200242D01*
X65594523Y-113221037D01*
X65577462Y-113277770D01*
X65534733Y-113326627D01*
X65487755Y-113350465D01*
X65453122Y-113373397D01*
X65413681Y-113418318D01*
X65379609Y-113471123D01*
X65361080Y-113517710D01*
X65360062Y-113527452D01*
X65376815Y-113538418D01*
X65419639Y-113539079D01*
X65477381Y-113531020D01*
X65538889Y-113515827D01*
X65593009Y-113495086D01*
X65595110Y-113494038D01*
X65682260Y-113431621D01*
X65741539Y-113350726D01*
X65770634Y-113258856D01*
X65767234Y-113163513D01*
X65729028Y-113072198D01*
X65726341Y-113068138D01*
X65661242Y-112996306D01*
X65576305Y-112949073D01*
X65464621Y-112922934D01*
X65433243Y-112919426D01*
X65285136Y-112913213D01*
X65216068Y-112920661D01*
X65216068Y-113108154D01*
X65259152Y-113110590D01*
X65271726Y-113123914D01*
X65262319Y-113157132D01*
X65240083Y-113209494D01*
X65212210Y-113268024D01*
X65211472Y-113269479D01*
X65185377Y-113319089D01*
X65167963Y-113339000D01*
X65149707Y-113334090D01*
X65125720Y-113313416D01*
X65091006Y-113260819D01*
X65088456Y-113204177D01*
X65113719Y-113153369D01*
X65162447Y-113118276D01*
X65216068Y-113108154D01*
X65216068Y-112920661D01*
X65166636Y-112925992D01*
X65072655Y-112958778D01*
X65006815Y-113004421D01*
X64940281Y-113086802D01*
X64907276Y-113177546D01*
X64905173Y-113270185D01*
X64931345Y-113358254D01*
X64931345Y-113358254D01*
G37*
X64931345Y-113358254D02*
X64983167Y-113435286D01*
X65058012Y-113494816D01*
X65153254Y-113530378D01*
X65223356Y-113537571D01*
X65252609Y-113536754D01*
X65275007Y-113529914D01*
X65295074Y-113511112D01*
X65317333Y-113474408D01*
X65346309Y-113413862D01*
X65386527Y-113323534D01*
X65386729Y-113323077D01*
X65424810Y-113239933D01*
X65458625Y-113171753D01*
X65484533Y-113125505D01*
X65498895Y-113108158D01*
X65499011Y-113108154D01*
X65530285Y-113123443D01*
X65564757Y-113159196D01*
X65589590Y-113200242D01*
X65594523Y-113221037D01*
X65577462Y-113277770D01*
X65534733Y-113326627D01*
X65487755Y-113350465D01*
X65453122Y-113373397D01*
X65413681Y-113418318D01*
X65379609Y-113471123D01*
X65361080Y-113517710D01*
X65360062Y-113527452D01*
X65376815Y-113538418D01*
X65419639Y-113539079D01*
X65477381Y-113531020D01*
X65538889Y-113515827D01*
X65593009Y-113495086D01*
X65595110Y-113494038D01*
X65682260Y-113431621D01*
X65741539Y-113350726D01*
X65770634Y-113258856D01*
X65767234Y-113163513D01*
X65729028Y-113072198D01*
X65726341Y-113068138D01*
X65661242Y-112996306D01*
X65576305Y-112949073D01*
X65464621Y-112922934D01*
X65433243Y-112919426D01*
X65285136Y-112913213D01*
X65216068Y-112920661D01*
X65216068Y-113108154D01*
X65259152Y-113110590D01*
X65271726Y-113123914D01*
X65262319Y-113157132D01*
X65240083Y-113209494D01*
X65212210Y-113268024D01*
X65211472Y-113269479D01*
X65185377Y-113319089D01*
X65167963Y-113339000D01*
X65149707Y-113334090D01*
X65125720Y-113313416D01*
X65091006Y-113260819D01*
X65088456Y-113204177D01*
X65113719Y-113153369D01*
X65162447Y-113118276D01*
X65216068Y-113108154D01*
X65216068Y-112920661D01*
X65166636Y-112925992D01*
X65072655Y-112958778D01*
X65006815Y-113004421D01*
X64940281Y-113086802D01*
X64907276Y-113177546D01*
X64905173Y-113270185D01*
X64931345Y-113358254D01*
G36*
X64823720Y-114983846D02*
X64903580Y-114989572D01*
X64950639Y-114996149D01*
X64971166Y-115005262D01*
X64971429Y-115018598D01*
X64968978Y-115022923D01*
X64951236Y-115080444D01*
X64952272Y-115155268D01*
X64970510Y-115231339D01*
X64994105Y-115278918D01*
X65031798Y-115327702D01*
X65074455Y-115363364D01*
X65128657Y-115387845D01*
X65200984Y-115403087D01*
X65298019Y-115411030D01*
X65426342Y-115413616D01*
X65450958Y-115413662D01*
X65727470Y-115413692D01*
X65748920Y-115352161D01*
X65763512Y-115308459D01*
X65770306Y-115284482D01*
X65770369Y-115283777D01*
X65751945Y-115281415D01*
X65701126Y-115279406D01*
X65624593Y-115277901D01*
X65529030Y-115277053D01*
X65470929Y-115276923D01*
X65356371Y-115276651D01*
X65274267Y-115275252D01*
X65217993Y-115271849D01*
X65180926Y-115265567D01*
X65156444Y-115255529D01*
X65137925Y-115240861D01*
X65129006Y-115231702D01*
X65093066Y-115168789D01*
X65090375Y-115100136D01*
X65120770Y-115037848D01*
X65131744Y-115026329D01*
X65152379Y-115009433D01*
X65176856Y-114997714D01*
X65212247Y-114990233D01*
X65265626Y-114986054D01*
X65344066Y-114984237D01*
X65452217Y-114983846D01*
X65727470Y-114983846D01*
X65748920Y-114922315D01*
X65763512Y-114878613D01*
X65770306Y-114854636D01*
X65770369Y-114853930D01*
X65751669Y-114852126D01*
X65698922Y-114850500D01*
X65617157Y-114849117D01*
X65511405Y-114848042D01*
X65386694Y-114847340D01*
X65248055Y-114847077D01*
X64713406Y-114847077D01*
X64659836Y-114974077D01*
X64823720Y-114983846D01*
X64823720Y-114983846D01*
G37*
X64823720Y-114983846D02*
X64903580Y-114989572D01*
X64950639Y-114996149D01*
X64971166Y-115005262D01*
X64971429Y-115018598D01*
X64968978Y-115022923D01*
X64951236Y-115080444D01*
X64952272Y-115155268D01*
X64970510Y-115231339D01*
X64994105Y-115278918D01*
X65031798Y-115327702D01*
X65074455Y-115363364D01*
X65128657Y-115387845D01*
X65200984Y-115403087D01*
X65298019Y-115411030D01*
X65426342Y-115413616D01*
X65450958Y-115413662D01*
X65727470Y-115413692D01*
X65748920Y-115352161D01*
X65763512Y-115308459D01*
X65770306Y-115284482D01*
X65770369Y-115283777D01*
X65751945Y-115281415D01*
X65701126Y-115279406D01*
X65624593Y-115277901D01*
X65529030Y-115277053D01*
X65470929Y-115276923D01*
X65356371Y-115276651D01*
X65274267Y-115275252D01*
X65217993Y-115271849D01*
X65180926Y-115265567D01*
X65156444Y-115255529D01*
X65137925Y-115240861D01*
X65129006Y-115231702D01*
X65093066Y-115168789D01*
X65090375Y-115100136D01*
X65120770Y-115037848D01*
X65131744Y-115026329D01*
X65152379Y-115009433D01*
X65176856Y-114997714D01*
X65212247Y-114990233D01*
X65265626Y-114986054D01*
X65344066Y-114984237D01*
X65452217Y-114983846D01*
X65727470Y-114983846D01*
X65748920Y-114922315D01*
X65763512Y-114878613D01*
X65770306Y-114854636D01*
X65770369Y-114853930D01*
X65751669Y-114852126D01*
X65698922Y-114850500D01*
X65617157Y-114849117D01*
X65511405Y-114848042D01*
X65386694Y-114847340D01*
X65248055Y-114847077D01*
X64713406Y-114847077D01*
X64659836Y-114974077D01*
X64823720Y-114983846D01*
G36*
X64957903Y-115877501D02*
X64986333Y-115954060D01*
X64986879Y-115954936D01*
X65021727Y-116002285D01*
X65062452Y-116037241D01*
X65115525Y-116061825D01*
X65187414Y-116078062D01*
X65284592Y-116087975D01*
X65413528Y-116093586D01*
X65431898Y-116094077D01*
X65708887Y-116101141D01*
X65739628Y-116041695D01*
X65760402Y-115998681D01*
X65770246Y-115972710D01*
X65770369Y-115971509D01*
X65752206Y-115967014D01*
X65703212Y-115963444D01*
X65631631Y-115961248D01*
X65573668Y-115960769D01*
X65479770Y-115960758D01*
X65420803Y-115956466D01*
X65392679Y-115941503D01*
X65391306Y-115909482D01*
X65412598Y-115854014D01*
X65451736Y-115770269D01*
X65484243Y-115708689D01*
X65512445Y-115677017D01*
X65543182Y-115667706D01*
X65544704Y-115667692D01*
X65597654Y-115683057D01*
X65626260Y-115728547D01*
X65630403Y-115798166D01*
X65629684Y-115848313D01*
X65644127Y-115874754D01*
X65678818Y-115891243D01*
X65723016Y-115900733D01*
X65748093Y-115887057D01*
X65751682Y-115881907D01*
X65766096Y-115833425D01*
X65768137Y-115765531D01*
X65758583Y-115695612D01*
X65741122Y-115646068D01*
X65682964Y-115577570D01*
X65602008Y-115538634D01*
X65538760Y-115530923D01*
X65481711Y-115536807D01*
X65435142Y-115558101D01*
X65393781Y-115600265D01*
X65352355Y-115668759D01*
X65305593Y-115769044D01*
X65302950Y-115775154D01*
X65261217Y-115865490D01*
X65226991Y-115921235D01*
X65196235Y-115945129D01*
X65164911Y-115939913D01*
X65128983Y-115908328D01*
X65120716Y-115898883D01*
X65088658Y-115835617D01*
X65090007Y-115770064D01*
X65121438Y-115712972D01*
X65179624Y-115675093D01*
X65191046Y-115671574D01*
X65246437Y-115637300D01*
X65273118Y-115593809D01*
X65299560Y-115530923D01*
X65231148Y-115530923D01*
X65131710Y-115550052D01*
X65040502Y-115606831D01*
X65009989Y-115636378D01*
X64970828Y-115703542D01*
X64953100Y-115788956D01*
X64957903Y-115877501D01*
X64957903Y-115877501D01*
G37*
X64957903Y-115877501D02*
X64986333Y-115954060D01*
X64986879Y-115954936D01*
X65021727Y-116002285D01*
X65062452Y-116037241D01*
X65115525Y-116061825D01*
X65187414Y-116078062D01*
X65284592Y-116087975D01*
X65413528Y-116093586D01*
X65431898Y-116094077D01*
X65708887Y-116101141D01*
X65739628Y-116041695D01*
X65760402Y-115998681D01*
X65770246Y-115972710D01*
X65770369Y-115971509D01*
X65752206Y-115967014D01*
X65703212Y-115963444D01*
X65631631Y-115961248D01*
X65573668Y-115960769D01*
X65479770Y-115960758D01*
X65420803Y-115956466D01*
X65392679Y-115941503D01*
X65391306Y-115909482D01*
X65412598Y-115854014D01*
X65451736Y-115770269D01*
X65484243Y-115708689D01*
X65512445Y-115677017D01*
X65543182Y-115667706D01*
X65544704Y-115667692D01*
X65597654Y-115683057D01*
X65626260Y-115728547D01*
X65630403Y-115798166D01*
X65629684Y-115848313D01*
X65644127Y-115874754D01*
X65678818Y-115891243D01*
X65723016Y-115900733D01*
X65748093Y-115887057D01*
X65751682Y-115881907D01*
X65766096Y-115833425D01*
X65768137Y-115765531D01*
X65758583Y-115695612D01*
X65741122Y-115646068D01*
X65682964Y-115577570D01*
X65602008Y-115538634D01*
X65538760Y-115530923D01*
X65481711Y-115536807D01*
X65435142Y-115558101D01*
X65393781Y-115600265D01*
X65352355Y-115668759D01*
X65305593Y-115769044D01*
X65302950Y-115775154D01*
X65261217Y-115865490D01*
X65226991Y-115921235D01*
X65196235Y-115945129D01*
X65164911Y-115939913D01*
X65128983Y-115908328D01*
X65120716Y-115898883D01*
X65088658Y-115835617D01*
X65090007Y-115770064D01*
X65121438Y-115712972D01*
X65179624Y-115675093D01*
X65191046Y-115671574D01*
X65246437Y-115637300D01*
X65273118Y-115593809D01*
X65299560Y-115530923D01*
X65231148Y-115530923D01*
X65131710Y-115550052D01*
X65040502Y-115606831D01*
X65009989Y-115636378D01*
X64970828Y-115703542D01*
X64953100Y-115788956D01*
X64957903Y-115877501D01*
G36*
X64956270Y-116537362D02*
X64989021Y-116626117D01*
X65046950Y-116698022D01*
X65087728Y-116726144D01*
X65162554Y-116756802D01*
X65216658Y-116756165D01*
X65253046Y-116723987D01*
X65259233Y-116712081D01*
X65278525Y-116660675D01*
X65273582Y-116634422D01*
X65241187Y-116625530D01*
X65223292Y-116625077D01*
X65157459Y-116608797D01*
X65111407Y-116566365D01*
X65089164Y-116507388D01*
X65094761Y-116441475D01*
X65123829Y-116387895D01*
X65140410Y-116369798D01*
X65160525Y-116356971D01*
X65190932Y-116348306D01*
X65238388Y-116342696D01*
X65309650Y-116339035D01*
X65411475Y-116336215D01*
X65443715Y-116335484D01*
X65554010Y-116332820D01*
X65631636Y-116329792D01*
X65682996Y-116325250D01*
X65714490Y-116318046D01*
X65732520Y-116307033D01*
X65743488Y-116291060D01*
X65748333Y-116280834D01*
X65764901Y-116237406D01*
X65770369Y-116211842D01*
X65752107Y-116203395D01*
X65696896Y-116198239D01*
X65604099Y-116196346D01*
X65473078Y-116197689D01*
X65452869Y-116198107D01*
X65333333Y-116201058D01*
X65246049Y-116204548D01*
X65184191Y-116209514D01*
X65140936Y-116216893D01*
X65109460Y-116227624D01*
X65082939Y-116242645D01*
X65071575Y-116250502D01*
X65021292Y-116295553D01*
X64982181Y-116345940D01*
X64978767Y-116352108D01*
X64951812Y-116442458D01*
X64956270Y-116537362D01*
X64956270Y-116537362D01*
G37*
X64956270Y-116537362D02*
X64989021Y-116626117D01*
X65046950Y-116698022D01*
X65087728Y-116726144D01*
X65162554Y-116756802D01*
X65216658Y-116756165D01*
X65253046Y-116723987D01*
X65259233Y-116712081D01*
X65278525Y-116660675D01*
X65273582Y-116634422D01*
X65241187Y-116625530D01*
X65223292Y-116625077D01*
X65157459Y-116608797D01*
X65111407Y-116566365D01*
X65089164Y-116507388D01*
X65094761Y-116441475D01*
X65123829Y-116387895D01*
X65140410Y-116369798D01*
X65160525Y-116356971D01*
X65190932Y-116348306D01*
X65238388Y-116342696D01*
X65309650Y-116339035D01*
X65411475Y-116336215D01*
X65443715Y-116335484D01*
X65554010Y-116332820D01*
X65631636Y-116329792D01*
X65682996Y-116325250D01*
X65714490Y-116318046D01*
X65732520Y-116307033D01*
X65743488Y-116291060D01*
X65748333Y-116280834D01*
X65764901Y-116237406D01*
X65770369Y-116211842D01*
X65752107Y-116203395D01*
X65696896Y-116198239D01*
X65604099Y-116196346D01*
X65473078Y-116197689D01*
X65452869Y-116198107D01*
X65333333Y-116201058D01*
X65246049Y-116204548D01*
X65184191Y-116209514D01*
X65140936Y-116216893D01*
X65109460Y-116227624D01*
X65082939Y-116242645D01*
X65071575Y-116250502D01*
X65021292Y-116295553D01*
X64982181Y-116345940D01*
X64978767Y-116352108D01*
X64951812Y-116442458D01*
X64956270Y-116537362D01*
G36*
X65111889Y-117426081D02*
X65257920Y-117425833D01*
X65370255Y-117424872D01*
X65454278Y-117422794D01*
X65515369Y-117419193D01*
X65558909Y-117413665D01*
X65590279Y-117405804D01*
X65614862Y-117395207D01*
X65628894Y-117387182D01*
X65704988Y-117320728D01*
X65752684Y-117236470D01*
X65769799Y-117143249D01*
X65754146Y-117049900D01*
X65726018Y-116994312D01*
X65677360Y-116935957D01*
X65617933Y-116896186D01*
X65540107Y-116872190D01*
X65436252Y-116861161D01*
X65360062Y-116859599D01*
X65354586Y-116859809D01*
X65354586Y-116996308D01*
X65441955Y-116997141D01*
X65499792Y-117000961D01*
X65537629Y-117009746D01*
X65564998Y-117025474D01*
X65585642Y-117044266D01*
X65625490Y-117107375D01*
X65628895Y-117175137D01*
X65595625Y-117239179D01*
X65591117Y-117244164D01*
X65567667Y-117265439D01*
X65539766Y-117278779D01*
X65498241Y-117286001D01*
X65433916Y-117288923D01*
X65362800Y-117289385D01*
X65273458Y-117288383D01*
X65213858Y-117284238D01*
X65174689Y-117275236D01*
X65146640Y-117259667D01*
X65131744Y-117246902D01*
X65094175Y-117187600D01*
X65089657Y-117119301D01*
X65118353Y-117054110D01*
X65129006Y-117041528D01*
X65152663Y-117020111D01*
X65180851Y-117006744D01*
X65222845Y-116999566D01*
X65287919Y-116996719D01*
X65354586Y-116996308D01*
X65354586Y-116859809D01*
X65237365Y-116864322D01*
X65145177Y-116880362D01*
X65075869Y-116910528D01*
X65021811Y-116957629D01*
X64994105Y-116994312D01*
X64964172Y-117060990D01*
X64950278Y-117138272D01*
X64953997Y-117210110D01*
X64969000Y-117250308D01*
X64973270Y-117266082D01*
X64957350Y-117276550D01*
X64914689Y-117283856D01*
X64849706Y-117289385D01*
X64777332Y-117295437D01*
X64733787Y-117303844D01*
X64708887Y-117319141D01*
X64692445Y-117345864D01*
X64685164Y-117362654D01*
X64658563Y-117426154D01*
X65111889Y-117426081D01*
X65111889Y-117426081D01*
G37*
X65111889Y-117426081D02*
X65257920Y-117425833D01*
X65370255Y-117424872D01*
X65454278Y-117422794D01*
X65515369Y-117419193D01*
X65558909Y-117413665D01*
X65590279Y-117405804D01*
X65614862Y-117395207D01*
X65628894Y-117387182D01*
X65704988Y-117320728D01*
X65752684Y-117236470D01*
X65769799Y-117143249D01*
X65754146Y-117049900D01*
X65726018Y-116994312D01*
X65677360Y-116935957D01*
X65617933Y-116896186D01*
X65540107Y-116872190D01*
X65436252Y-116861161D01*
X65360062Y-116859599D01*
X65354586Y-116859809D01*
X65354586Y-116996308D01*
X65441955Y-116997141D01*
X65499792Y-117000961D01*
X65537629Y-117009746D01*
X65564998Y-117025474D01*
X65585642Y-117044266D01*
X65625490Y-117107375D01*
X65628895Y-117175137D01*
X65595625Y-117239179D01*
X65591117Y-117244164D01*
X65567667Y-117265439D01*
X65539766Y-117278779D01*
X65498241Y-117286001D01*
X65433916Y-117288923D01*
X65362800Y-117289385D01*
X65273458Y-117288383D01*
X65213858Y-117284238D01*
X65174689Y-117275236D01*
X65146640Y-117259667D01*
X65131744Y-117246902D01*
X65094175Y-117187600D01*
X65089657Y-117119301D01*
X65118353Y-117054110D01*
X65129006Y-117041528D01*
X65152663Y-117020111D01*
X65180851Y-117006744D01*
X65222845Y-116999566D01*
X65287919Y-116996719D01*
X65354586Y-116996308D01*
X65354586Y-116859809D01*
X65237365Y-116864322D01*
X65145177Y-116880362D01*
X65075869Y-116910528D01*
X65021811Y-116957629D01*
X64994105Y-116994312D01*
X64964172Y-117060990D01*
X64950278Y-117138272D01*
X64953997Y-117210110D01*
X64969000Y-117250308D01*
X64973270Y-117266082D01*
X64957350Y-117276550D01*
X64914689Y-117283856D01*
X64849706Y-117289385D01*
X64777332Y-117295437D01*
X64733787Y-117303844D01*
X64708887Y-117319141D01*
X64692445Y-117345864D01*
X64685164Y-117362654D01*
X64658563Y-117426154D01*
X65111889Y-117426081D01*
G36*
X64968262Y-118219929D02*
X65019668Y-118222911D01*
X65097792Y-118225247D01*
X65196457Y-118226749D01*
X65299943Y-118227231D01*
X65650133Y-118227231D01*
X65711963Y-118165401D01*
X65750062Y-118122793D01*
X65765495Y-118085390D01*
X65764518Y-118034270D01*
X65762033Y-118013978D01*
X65754800Y-117950554D01*
X65750655Y-117898095D01*
X65750272Y-117885308D01*
X65752776Y-117842199D01*
X65759062Y-117780544D01*
X65762033Y-117756638D01*
X65766628Y-117697922D01*
X65756646Y-117658464D01*
X65725828Y-117619338D01*
X65711963Y-117605215D01*
X65650133Y-117543385D01*
X64995103Y-117543385D01*
X64972429Y-117593150D01*
X64955634Y-117636002D01*
X64949754Y-117661073D01*
X64968336Y-117667501D01*
X65020255Y-117673509D01*
X65099772Y-117678697D01*
X65201146Y-117682664D01*
X65286792Y-117684577D01*
X65623831Y-117689923D01*
X65630425Y-117736560D01*
X65625814Y-117778976D01*
X65610887Y-117799760D01*
X65582977Y-117805570D01*
X65523525Y-117810530D01*
X65440066Y-117814246D01*
X65340132Y-117816324D01*
X65288704Y-117816624D01*
X64992654Y-117816923D01*
X64971204Y-117878454D01*
X64956620Y-117922004D01*
X64949819Y-117945694D01*
X64949754Y-117946377D01*
X64968242Y-117948754D01*
X65019506Y-117951366D01*
X65097249Y-117953995D01*
X65195174Y-117956421D01*
X65286792Y-117958115D01*
X65623831Y-117963461D01*
X65623831Y-118080692D01*
X65316346Y-118086072D01*
X65008861Y-118091451D01*
X64979307Y-118148601D01*
X64959013Y-118190797D01*
X64949804Y-118215770D01*
X64949754Y-118216491D01*
X64968262Y-118219929D01*
X64968262Y-118219929D01*
G37*
X64968262Y-118219929D02*
X65019668Y-118222911D01*
X65097792Y-118225247D01*
X65196457Y-118226749D01*
X65299943Y-118227231D01*
X65650133Y-118227231D01*
X65711963Y-118165401D01*
X65750062Y-118122793D01*
X65765495Y-118085390D01*
X65764518Y-118034270D01*
X65762033Y-118013978D01*
X65754800Y-117950554D01*
X65750655Y-117898095D01*
X65750272Y-117885308D01*
X65752776Y-117842199D01*
X65759062Y-117780544D01*
X65762033Y-117756638D01*
X65766628Y-117697922D01*
X65756646Y-117658464D01*
X65725828Y-117619338D01*
X65711963Y-117605215D01*
X65650133Y-117543385D01*
X64995103Y-117543385D01*
X64972429Y-117593150D01*
X64955634Y-117636002D01*
X64949754Y-117661073D01*
X64968336Y-117667501D01*
X65020255Y-117673509D01*
X65099772Y-117678697D01*
X65201146Y-117682664D01*
X65286792Y-117684577D01*
X65623831Y-117689923D01*
X65630425Y-117736560D01*
X65625814Y-117778976D01*
X65610887Y-117799760D01*
X65582977Y-117805570D01*
X65523525Y-117810530D01*
X65440066Y-117814246D01*
X65340132Y-117816324D01*
X65288704Y-117816624D01*
X64992654Y-117816923D01*
X64971204Y-117878454D01*
X64956620Y-117922004D01*
X64949819Y-117945694D01*
X64949754Y-117946377D01*
X64968242Y-117948754D01*
X65019506Y-117951366D01*
X65097249Y-117953995D01*
X65195174Y-117956421D01*
X65286792Y-117958115D01*
X65623831Y-117963461D01*
X65623831Y-118080692D01*
X65316346Y-118086072D01*
X65008861Y-118091451D01*
X64979307Y-118148601D01*
X64959013Y-118190797D01*
X64949804Y-118215770D01*
X64949754Y-118216491D01*
X64968262Y-118219929D01*
G36*
X64965128Y-118711333D02*
X64990717Y-118767590D01*
X65021724Y-118811747D01*
X65056395Y-118844101D01*
X65101120Y-118866438D01*
X65162292Y-118880546D01*
X65246301Y-118888211D01*
X65359540Y-118891220D01*
X65434109Y-118891538D01*
X65725020Y-118891538D01*
X65747695Y-118841773D01*
X65764267Y-118802576D01*
X65770369Y-118783157D01*
X65752210Y-118779442D01*
X65703248Y-118776495D01*
X65631753Y-118774691D01*
X65574985Y-118774308D01*
X65492971Y-118772661D01*
X65427909Y-118768222D01*
X65388067Y-118761740D01*
X65379600Y-118756590D01*
X65388246Y-118721977D01*
X65410423Y-118667640D01*
X65440486Y-118604722D01*
X65472792Y-118544368D01*
X65501698Y-118497721D01*
X65521561Y-118475926D01*
X65521775Y-118475839D01*
X65558535Y-118477714D01*
X65593626Y-118494525D01*
X65622128Y-118524039D01*
X65631661Y-118567116D01*
X65630550Y-118603932D01*
X65629733Y-118656074D01*
X65641949Y-118683444D01*
X65674224Y-118699882D01*
X65680310Y-118701955D01*
X65726339Y-118709081D01*
X65754287Y-118690024D01*
X65767607Y-118640353D01*
X65770070Y-118586697D01*
X65751810Y-118490142D01*
X65725731Y-118440159D01*
X65664468Y-118378429D01*
X65589270Y-118345690D01*
X65509811Y-118342753D01*
X65435767Y-118370424D01*
X65389369Y-118412047D01*
X65363393Y-118453604D01*
X65330507Y-118518922D01*
X65297157Y-118595038D01*
X65292061Y-118607726D01*
X65255165Y-118691333D01*
X65222646Y-118739530D01*
X65190318Y-118755030D01*
X65153994Y-118740550D01*
X65125600Y-118715692D01*
X65090639Y-118656939D01*
X65088017Y-118592293D01*
X65114958Y-118533008D01*
X65168688Y-118490339D01*
X65182550Y-118484739D01*
X65233536Y-118452133D01*
X65271387Y-118404530D01*
X65302450Y-118344461D01*
X65214368Y-118344461D01*
X65160551Y-118347997D01*
X65118134Y-118363156D01*
X65072879Y-118396768D01*
X65038020Y-118429035D01*
X64988662Y-118479209D01*
X64962147Y-118518193D01*
X64951511Y-118560064D01*
X64949754Y-118607460D01*
X64965128Y-118711333D01*
X64965128Y-118711333D01*
G37*
X64965128Y-118711333D02*
X64990717Y-118767590D01*
X65021724Y-118811747D01*
X65056395Y-118844101D01*
X65101120Y-118866438D01*
X65162292Y-118880546D01*
X65246301Y-118888211D01*
X65359540Y-118891220D01*
X65434109Y-118891538D01*
X65725020Y-118891538D01*
X65747695Y-118841773D01*
X65764267Y-118802576D01*
X65770369Y-118783157D01*
X65752210Y-118779442D01*
X65703248Y-118776495D01*
X65631753Y-118774691D01*
X65574985Y-118774308D01*
X65492971Y-118772661D01*
X65427909Y-118768222D01*
X65388067Y-118761740D01*
X65379600Y-118756590D01*
X65388246Y-118721977D01*
X65410423Y-118667640D01*
X65440486Y-118604722D01*
X65472792Y-118544368D01*
X65501698Y-118497721D01*
X65521561Y-118475926D01*
X65521775Y-118475839D01*
X65558535Y-118477714D01*
X65593626Y-118494525D01*
X65622128Y-118524039D01*
X65631661Y-118567116D01*
X65630550Y-118603932D01*
X65629733Y-118656074D01*
X65641949Y-118683444D01*
X65674224Y-118699882D01*
X65680310Y-118701955D01*
X65726339Y-118709081D01*
X65754287Y-118690024D01*
X65767607Y-118640353D01*
X65770070Y-118586697D01*
X65751810Y-118490142D01*
X65725731Y-118440159D01*
X65664468Y-118378429D01*
X65589270Y-118345690D01*
X65509811Y-118342753D01*
X65435767Y-118370424D01*
X65389369Y-118412047D01*
X65363393Y-118453604D01*
X65330507Y-118518922D01*
X65297157Y-118595038D01*
X65292061Y-118607726D01*
X65255165Y-118691333D01*
X65222646Y-118739530D01*
X65190318Y-118755030D01*
X65153994Y-118740550D01*
X65125600Y-118715692D01*
X65090639Y-118656939D01*
X65088017Y-118592293D01*
X65114958Y-118533008D01*
X65168688Y-118490339D01*
X65182550Y-118484739D01*
X65233536Y-118452133D01*
X65271387Y-118404530D01*
X65302450Y-118344461D01*
X65214368Y-118344461D01*
X65160551Y-118347997D01*
X65118134Y-118363156D01*
X65072879Y-118396768D01*
X65038020Y-118429035D01*
X64988662Y-118479209D01*
X64962147Y-118518193D01*
X64951511Y-118560064D01*
X64949754Y-118607460D01*
X64965128Y-118711333D01*
G36*
X64968382Y-119394807D02*
X64978588Y-119418161D01*
X65022734Y-119473902D01*
X65086567Y-119521569D01*
X65154687Y-119551048D01*
X65188270Y-119555846D01*
X65235156Y-119539760D01*
X65259965Y-119504475D01*
X65274987Y-119466644D01*
X65277755Y-119449321D01*
X65257666Y-119440886D01*
X65213951Y-119424230D01*
X65194198Y-119416923D01*
X65125871Y-119375948D01*
X65091791Y-119316622D01*
X65092839Y-119240552D01*
X65094181Y-119234918D01*
X65113436Y-119194305D01*
X65150975Y-119164448D01*
X65211409Y-119144055D01*
X65299351Y-119131836D01*
X65419413Y-119126500D01*
X65483298Y-119126000D01*
X65584003Y-119125752D01*
X65652654Y-119124126D01*
X65696273Y-119119801D01*
X65721882Y-119111454D01*
X65736503Y-119097765D01*
X65747158Y-119077411D01*
X65747695Y-119076234D01*
X65764267Y-119037038D01*
X65770369Y-119017619D01*
X65751919Y-119014635D01*
X65700923Y-119012081D01*
X65623908Y-119010140D01*
X65527405Y-119008997D01*
X65456784Y-119008769D01*
X65320125Y-119009932D01*
X65216451Y-119014479D01*
X65139708Y-119023999D01*
X65083846Y-119040081D01*
X65042812Y-119064313D01*
X65010554Y-119098286D01*
X64988040Y-119131833D01*
X64958076Y-119212499D01*
X64951318Y-119306381D01*
X64968382Y-119394807D01*
X64968382Y-119394807D01*
G37*
X64968382Y-119394807D02*
X64978588Y-119418161D01*
X65022734Y-119473902D01*
X65086567Y-119521569D01*
X65154687Y-119551048D01*
X65188270Y-119555846D01*
X65235156Y-119539760D01*
X65259965Y-119504475D01*
X65274987Y-119466644D01*
X65277755Y-119449321D01*
X65257666Y-119440886D01*
X65213951Y-119424230D01*
X65194198Y-119416923D01*
X65125871Y-119375948D01*
X65091791Y-119316622D01*
X65092839Y-119240552D01*
X65094181Y-119234918D01*
X65113436Y-119194305D01*
X65150975Y-119164448D01*
X65211409Y-119144055D01*
X65299351Y-119131836D01*
X65419413Y-119126500D01*
X65483298Y-119126000D01*
X65584003Y-119125752D01*
X65652654Y-119124126D01*
X65696273Y-119119801D01*
X65721882Y-119111454D01*
X65736503Y-119097765D01*
X65747158Y-119077411D01*
X65747695Y-119076234D01*
X65764267Y-119037038D01*
X65770369Y-119017619D01*
X65751919Y-119014635D01*
X65700923Y-119012081D01*
X65623908Y-119010140D01*
X65527405Y-119008997D01*
X65456784Y-119008769D01*
X65320125Y-119009932D01*
X65216451Y-119014479D01*
X65139708Y-119023999D01*
X65083846Y-119040081D01*
X65042812Y-119064313D01*
X65010554Y-119098286D01*
X64988040Y-119131833D01*
X64958076Y-119212499D01*
X64951318Y-119306381D01*
X64968382Y-119394807D01*
G36*
X64979438Y-120069224D02*
X65029961Y-120146528D01*
X65075190Y-120183814D01*
X65157263Y-120213353D01*
X65222207Y-120215699D01*
X65309045Y-120210385D01*
X65396703Y-120010115D01*
X65441487Y-119912739D01*
X65477513Y-119849113D01*
X65508717Y-119816029D01*
X65539036Y-119810280D01*
X65572405Y-119828658D01*
X65594523Y-119848923D01*
X65629993Y-119907889D01*
X65632479Y-119972024D01*
X65604835Y-120030926D01*
X65549920Y-120074197D01*
X65530528Y-120081936D01*
X65469964Y-120119006D01*
X65444152Y-120161654D01*
X65422071Y-120220154D01*
X65505784Y-120220154D01*
X65562750Y-120214982D01*
X65610789Y-120194723D01*
X65665946Y-120152262D01*
X65673114Y-120145951D01*
X65722185Y-120098720D01*
X65748520Y-120058121D01*
X65760635Y-120007328D01*
X65764603Y-119965220D01*
X65765591Y-119889902D01*
X65753066Y-119836286D01*
X65734469Y-119802838D01*
X65693575Y-119750268D01*
X65649348Y-119713879D01*
X65593726Y-119690850D01*
X65518647Y-119678359D01*
X65416049Y-119673587D01*
X65363976Y-119673206D01*
X65301548Y-119674501D01*
X65301548Y-119792471D01*
X65335038Y-119793839D01*
X65340523Y-119797249D01*
X65333072Y-119819753D01*
X65313353Y-119868182D01*
X65285318Y-119932908D01*
X65279292Y-119946443D01*
X65237696Y-120028244D01*
X65201138Y-120073312D01*
X65166896Y-120083217D01*
X65132248Y-120059526D01*
X65116939Y-120039960D01*
X65086321Y-119969360D01*
X65091380Y-119903280D01*
X65128751Y-119847959D01*
X65195073Y-119809636D01*
X65247716Y-119797349D01*
X65301548Y-119792471D01*
X65301548Y-119674501D01*
X65242320Y-119675730D01*
X65152310Y-119685032D01*
X65086767Y-119703460D01*
X65038512Y-119733360D01*
X65000367Y-119777080D01*
X64988040Y-119796141D01*
X64955936Y-119882726D01*
X64953916Y-119977522D01*
X64979438Y-120069224D01*
X64979438Y-120069224D01*
G37*
X64979438Y-120069224D02*
X65029961Y-120146528D01*
X65075190Y-120183814D01*
X65157263Y-120213353D01*
X65222207Y-120215699D01*
X65309045Y-120210385D01*
X65396703Y-120010115D01*
X65441487Y-119912739D01*
X65477513Y-119849113D01*
X65508717Y-119816029D01*
X65539036Y-119810280D01*
X65572405Y-119828658D01*
X65594523Y-119848923D01*
X65629993Y-119907889D01*
X65632479Y-119972024D01*
X65604835Y-120030926D01*
X65549920Y-120074197D01*
X65530528Y-120081936D01*
X65469964Y-120119006D01*
X65444152Y-120161654D01*
X65422071Y-120220154D01*
X65505784Y-120220154D01*
X65562750Y-120214982D01*
X65610789Y-120194723D01*
X65665946Y-120152262D01*
X65673114Y-120145951D01*
X65722185Y-120098720D01*
X65748520Y-120058121D01*
X65760635Y-120007328D01*
X65764603Y-119965220D01*
X65765591Y-119889902D01*
X65753066Y-119836286D01*
X65734469Y-119802838D01*
X65693575Y-119750268D01*
X65649348Y-119713879D01*
X65593726Y-119690850D01*
X65518647Y-119678359D01*
X65416049Y-119673587D01*
X65363976Y-119673206D01*
X65301548Y-119674501D01*
X65301548Y-119792471D01*
X65335038Y-119793839D01*
X65340523Y-119797249D01*
X65333072Y-119819753D01*
X65313353Y-119868182D01*
X65285318Y-119932908D01*
X65279292Y-119946443D01*
X65237696Y-120028244D01*
X65201138Y-120073312D01*
X65166896Y-120083217D01*
X65132248Y-120059526D01*
X65116939Y-120039960D01*
X65086321Y-119969360D01*
X65091380Y-119903280D01*
X65128751Y-119847959D01*
X65195073Y-119809636D01*
X65247716Y-119797349D01*
X65301548Y-119792471D01*
X65301548Y-119674501D01*
X65242320Y-119675730D01*
X65152310Y-119685032D01*
X65086767Y-119703460D01*
X65038512Y-119733360D01*
X65000367Y-119777080D01*
X64988040Y-119796141D01*
X64955936Y-119882726D01*
X64953916Y-119977522D01*
X64979438Y-120069224D01*
G36*
X58619376Y-115963878D02*
X58619955Y-116069612D01*
X58621522Y-116146132D01*
X58624572Y-116198372D01*
X58629596Y-116231263D01*
X58637089Y-116249737D01*
X58647544Y-116258727D01*
X58661453Y-116263163D01*
X58663254Y-116263594D01*
X58695745Y-116270333D01*
X58759852Y-116282808D01*
X58848751Y-116299719D01*
X58955619Y-116319771D01*
X59073633Y-116341664D01*
X59077778Y-116342429D01*
X59193431Y-116364359D01*
X59295614Y-116384877D01*
X59378198Y-116402659D01*
X59435056Y-116416381D01*
X59460058Y-116424718D01*
X59460501Y-116425116D01*
X59472710Y-116449677D01*
X59493056Y-116500315D01*
X59517145Y-116566095D01*
X59517274Y-116566461D01*
X59548418Y-116649317D01*
X59588091Y-116747000D01*
X59627981Y-116839077D01*
X59629953Y-116843434D01*
X59698020Y-116993407D01*
X59471239Y-117325498D01*
X59402104Y-117427374D01*
X59340297Y-117519657D01*
X59289333Y-117597003D01*
X59252727Y-117654064D01*
X59233994Y-117685495D01*
X59232604Y-117688479D01*
X59238790Y-117711321D01*
X59268635Y-117753982D01*
X59323547Y-117818128D01*
X59404934Y-117905421D01*
X59491522Y-117994535D01*
X59576847Y-118080441D01*
X59654708Y-118157327D01*
X59720297Y-118220564D01*
X59768805Y-118265523D01*
X59795425Y-118287576D01*
X59796795Y-118288396D01*
X59815063Y-118290834D01*
X59844895Y-118281650D01*
X59890321Y-118258574D01*
X59955370Y-118219337D01*
X60044070Y-118161670D01*
X60158257Y-118084795D01*
X60258762Y-118016570D01*
X60348903Y-117955582D01*
X60423449Y-117905356D01*
X60477165Y-117869416D01*
X60504818Y-117851287D01*
X60506695Y-117850146D01*
X60533190Y-117852359D01*
X60584686Y-117869138D01*
X60651451Y-117897142D01*
X60672772Y-117907122D01*
X60767759Y-117950672D01*
X60875537Y-117997134D01*
X60968792Y-118034877D01*
X61038006Y-118062073D01*
X61090606Y-118083675D01*
X61118097Y-118096158D01*
X61120216Y-118097709D01*
X61123724Y-118120668D01*
X61133338Y-118174786D01*
X61147689Y-118252868D01*
X61165407Y-118347719D01*
X61185125Y-118452143D01*
X61205474Y-118558944D01*
X61225086Y-118660926D01*
X61242591Y-118750894D01*
X61256622Y-118821653D01*
X61265809Y-118866006D01*
X61268407Y-118876885D01*
X61274818Y-118888122D01*
X61289297Y-118896605D01*
X61316733Y-118902714D01*
X61362011Y-118906832D01*
X61430020Y-118909341D01*
X61525647Y-118910621D01*
X61653780Y-118911054D01*
X61706301Y-118911077D01*
X62133445Y-118911077D01*
X62153691Y-118808500D01*
X62164670Y-118751431D01*
X62180695Y-118666269D01*
X62199833Y-118563372D01*
X62220151Y-118453096D01*
X62225732Y-118422615D01*
X62245517Y-118320855D01*
X62264973Y-118232205D01*
X62282297Y-118164108D01*
X62295688Y-118124004D01*
X62299679Y-118117323D01*
X62327942Y-118100919D01*
X62382709Y-118077399D01*
X62453188Y-118051316D01*
X62468369Y-118046142D01*
X62562496Y-118011956D01*
X62668701Y-117969523D01*
X62764073Y-117927997D01*
X62764516Y-117927792D01*
X62914125Y-117858640D01*
X63583217Y-118313512D01*
X63875716Y-118021500D01*
X63962770Y-117933180D01*
X64039509Y-117852625D01*
X64101837Y-117784360D01*
X64145656Y-117732908D01*
X64166870Y-117702794D01*
X64168216Y-117698474D01*
X64157616Y-117673111D01*
X64128147Y-117621358D01*
X64083305Y-117548868D01*
X64026584Y-117461294D01*
X63963062Y-117366612D01*
X63898268Y-117270516D01*
X63841887Y-117184837D01*
X63797388Y-117115016D01*
X63768239Y-117066494D01*
X63757908Y-117044782D01*
X63766650Y-117018293D01*
X63789687Y-116968062D01*
X63822231Y-116904451D01*
X63825849Y-116897708D01*
X63868810Y-116812046D01*
X63889879Y-116753306D01*
X63890103Y-116716772D01*
X63870528Y-116697731D01*
X63870254Y-116697620D01*
X63847072Y-116688102D01*
X63792041Y-116665403D01*
X63709422Y-116631282D01*
X63603472Y-116587500D01*
X63478452Y-116535816D01*
X63338620Y-116477992D01*
X63203237Y-116421991D01*
X63053834Y-116360447D01*
X62915432Y-116303939D01*
X62792273Y-116254161D01*
X62688602Y-116212806D01*
X62608659Y-116181568D01*
X62556688Y-116162141D01*
X62537292Y-116156154D01*
X62515043Y-116171168D01*
X62479582Y-116210439D01*
X62440487Y-116262807D01*
X62316845Y-116411941D01*
X62175122Y-116528511D01*
X62018304Y-116611118D01*
X61849375Y-116658366D01*
X61671322Y-116668857D01*
X61589139Y-116661231D01*
X61418631Y-116619682D01*
X61268059Y-116548123D01*
X61138909Y-116450995D01*
X61032664Y-116332734D01*
X60950810Y-116197780D01*
X60894832Y-116050571D01*
X60866215Y-115895544D01*
X60866444Y-115737139D01*
X60897005Y-115579794D01*
X60959382Y-115427946D01*
X61055060Y-115286035D01*
X61109172Y-115226803D01*
X61248120Y-115113203D01*
X61399961Y-115034106D01*
X61560267Y-114988986D01*
X61724612Y-114977316D01*
X61888571Y-114998569D01*
X62047718Y-115052220D01*
X62197625Y-115137740D01*
X62333867Y-115254605D01*
X62440487Y-115385193D01*
X62481242Y-115439588D01*
X62516318Y-115478014D01*
X62537326Y-115491846D01*
X62560235Y-115484603D01*
X62614965Y-115464005D01*
X62697272Y-115431746D01*
X62802915Y-115389521D01*
X62927650Y-115339023D01*
X63067236Y-115281948D01*
X63203270Y-115225854D01*
X63352801Y-115163967D01*
X63491367Y-115106644D01*
X63614707Y-115055644D01*
X63718564Y-115012727D01*
X63798680Y-114979653D01*
X63850795Y-114958181D01*
X63870254Y-114950225D01*
X63890023Y-114931429D01*
X63889965Y-114895074D01*
X63869041Y-114836479D01*
X63826213Y-114750968D01*
X63825849Y-114750292D01*
X63792612Y-114685907D01*
X63768402Y-114633861D01*
X63758004Y-114604512D01*
X63757908Y-114603217D01*
X63768455Y-114581124D01*
X63797784Y-114532348D01*
X63842427Y-114462331D01*
X63898914Y-114376514D01*
X63963062Y-114281388D01*
X64028011Y-114184540D01*
X64084496Y-114097253D01*
X64129021Y-114025181D01*
X64158090Y-113973977D01*
X64168216Y-113949526D01*
X64154907Y-113927010D01*
X64117712Y-113881742D01*
X64060728Y-113818244D01*
X63988049Y-113741039D01*
X63903771Y-113654651D01*
X63875616Y-113626399D01*
X63583016Y-113334287D01*
X63256704Y-113556631D01*
X63156497Y-113624202D01*
X63066563Y-113683507D01*
X62992110Y-113731217D01*
X62938351Y-113764007D01*
X62910494Y-113778548D01*
X62908512Y-113778974D01*
X62882255Y-113771308D01*
X62829437Y-113750689D01*
X62758910Y-113720685D01*
X62711693Y-113699625D01*
X62621294Y-113660248D01*
X62529966Y-113623165D01*
X62452800Y-113594415D01*
X62429292Y-113586605D01*
X62366516Y-113564417D01*
X62318011Y-113542727D01*
X62299679Y-113530813D01*
X62288459Y-113504523D01*
X62272554Y-113447142D01*
X62253767Y-113366118D01*
X62233899Y-113268895D01*
X62225732Y-113225385D01*
X62205429Y-113114896D01*
X62185770Y-113008916D01*
X62168688Y-112917801D01*
X62156118Y-112851908D01*
X62153691Y-112839500D01*
X62133445Y-112736923D01*
X61706301Y-112736923D01*
X61565846Y-112737153D01*
X61459579Y-112738099D01*
X61382613Y-112740141D01*
X61330060Y-112743662D01*
X61297033Y-112749043D01*
X61278645Y-112756666D01*
X61270008Y-112766912D01*
X61268407Y-112771115D01*
X61262727Y-112796470D01*
X61251395Y-112852484D01*
X61235779Y-112931964D01*
X61217247Y-113027712D01*
X61197169Y-113132533D01*
X61176912Y-113239232D01*
X61157846Y-113340613D01*
X61141339Y-113429479D01*
X61128759Y-113498637D01*
X61121475Y-113540889D01*
X61120216Y-113550290D01*
X61103363Y-113558807D01*
X61058470Y-113577660D01*
X60994030Y-113603324D01*
X60968792Y-113613123D01*
X60871286Y-113652648D01*
X60763559Y-113699192D01*
X60672772Y-113740877D01*
X60603353Y-113771550D01*
X60546310Y-113791956D01*
X60511377Y-113798768D01*
X60506695Y-113797682D01*
X60484591Y-113783285D01*
X60435431Y-113750412D01*
X60364448Y-113702590D01*
X60276878Y-113643348D01*
X60177957Y-113576215D01*
X60158430Y-113562941D01*
X60042740Y-113485046D01*
X59954644Y-113427787D01*
X59890086Y-113388881D01*
X59845011Y-113366044D01*
X59815363Y-113356994D01*
X59797085Y-113359448D01*
X59796969Y-113359511D01*
X59772961Y-113378827D01*
X59726547Y-113421551D01*
X59662537Y-113483051D01*
X59585745Y-113558698D01*
X59500982Y-113643861D01*
X59491522Y-113653465D01*
X59387589Y-113760790D01*
X59311275Y-113843615D01*
X59261171Y-113903605D01*
X59235870Y-113942423D01*
X59232604Y-113959520D01*
X59246850Y-113984473D01*
X59279756Y-114036255D01*
X59327808Y-114109520D01*
X59387490Y-114198920D01*
X59455288Y-114299111D01*
X59471239Y-114322501D01*
X59698020Y-114654593D01*
X59629953Y-114804565D01*
X59590285Y-114895770D01*
X59550391Y-114993669D01*
X59518583Y-115077831D01*
X59517274Y-115081538D01*
X59493176Y-115147369D01*
X59472800Y-115198116D01*
X59460536Y-115222842D01*
X59460501Y-115222884D01*
X59438334Y-115230729D01*
X59383817Y-115244066D01*
X59303080Y-115261570D01*
X59202250Y-115281917D01*
X59087456Y-115303782D01*
X59077778Y-115305571D01*
X58959504Y-115327504D01*
X58852142Y-115347640D01*
X58762517Y-115364680D01*
X58697451Y-115377328D01*
X58663768Y-115384284D01*
X58663254Y-115384406D01*
X58648925Y-115388639D01*
X58638107Y-115396871D01*
X58630306Y-115414033D01*
X58625029Y-115445058D01*
X58621782Y-115494878D01*
X58620072Y-115568424D01*
X58619407Y-115670629D01*
X58619293Y-115806425D01*
X58619292Y-115824000D01*
X58619376Y-115963878D01*
X58619376Y-115963878D01*
G37*
X58619376Y-115963878D02*
X58619955Y-116069612D01*
X58621522Y-116146132D01*
X58624572Y-116198372D01*
X58629596Y-116231263D01*
X58637089Y-116249737D01*
X58647544Y-116258727D01*
X58661453Y-116263163D01*
X58663254Y-116263594D01*
X58695745Y-116270333D01*
X58759852Y-116282808D01*
X58848751Y-116299719D01*
X58955619Y-116319771D01*
X59073633Y-116341664D01*
X59077778Y-116342429D01*
X59193431Y-116364359D01*
X59295614Y-116384877D01*
X59378198Y-116402659D01*
X59435056Y-116416381D01*
X59460058Y-116424718D01*
X59460501Y-116425116D01*
X59472710Y-116449677D01*
X59493056Y-116500315D01*
X59517145Y-116566095D01*
X59517274Y-116566461D01*
X59548418Y-116649317D01*
X59588091Y-116747000D01*
X59627981Y-116839077D01*
X59629953Y-116843434D01*
X59698020Y-116993407D01*
X59471239Y-117325498D01*
X59402104Y-117427374D01*
X59340297Y-117519657D01*
X59289333Y-117597003D01*
X59252727Y-117654064D01*
X59233994Y-117685495D01*
X59232604Y-117688479D01*
X59238790Y-117711321D01*
X59268635Y-117753982D01*
X59323547Y-117818128D01*
X59404934Y-117905421D01*
X59491522Y-117994535D01*
X59576847Y-118080441D01*
X59654708Y-118157327D01*
X59720297Y-118220564D01*
X59768805Y-118265523D01*
X59795425Y-118287576D01*
X59796795Y-118288396D01*
X59815063Y-118290834D01*
X59844895Y-118281650D01*
X59890321Y-118258574D01*
X59955370Y-118219337D01*
X60044070Y-118161670D01*
X60158257Y-118084795D01*
X60258762Y-118016570D01*
X60348903Y-117955582D01*
X60423449Y-117905356D01*
X60477165Y-117869416D01*
X60504818Y-117851287D01*
X60506695Y-117850146D01*
X60533190Y-117852359D01*
X60584686Y-117869138D01*
X60651451Y-117897142D01*
X60672772Y-117907122D01*
X60767759Y-117950672D01*
X60875537Y-117997134D01*
X60968792Y-118034877D01*
X61038006Y-118062073D01*
X61090606Y-118083675D01*
X61118097Y-118096158D01*
X61120216Y-118097709D01*
X61123724Y-118120668D01*
X61133338Y-118174786D01*
X61147689Y-118252868D01*
X61165407Y-118347719D01*
X61185125Y-118452143D01*
X61205474Y-118558944D01*
X61225086Y-118660926D01*
X61242591Y-118750894D01*
X61256622Y-118821653D01*
X61265809Y-118866006D01*
X61268407Y-118876885D01*
X61274818Y-118888122D01*
X61289297Y-118896605D01*
X61316733Y-118902714D01*
X61362011Y-118906832D01*
X61430020Y-118909341D01*
X61525647Y-118910621D01*
X61653780Y-118911054D01*
X61706301Y-118911077D01*
X62133445Y-118911077D01*
X62153691Y-118808500D01*
X62164670Y-118751431D01*
X62180695Y-118666269D01*
X62199833Y-118563372D01*
X62220151Y-118453096D01*
X62225732Y-118422615D01*
X62245517Y-118320855D01*
X62264973Y-118232205D01*
X62282297Y-118164108D01*
X62295688Y-118124004D01*
X62299679Y-118117323D01*
X62327942Y-118100919D01*
X62382709Y-118077399D01*
X62453188Y-118051316D01*
X62468369Y-118046142D01*
X62562496Y-118011956D01*
X62668701Y-117969523D01*
X62764073Y-117927997D01*
X62764516Y-117927792D01*
X62914125Y-117858640D01*
X63583217Y-118313512D01*
X63875716Y-118021500D01*
X63962770Y-117933180D01*
X64039509Y-117852625D01*
X64101837Y-117784360D01*
X64145656Y-117732908D01*
X64166870Y-117702794D01*
X64168216Y-117698474D01*
X64157616Y-117673111D01*
X64128147Y-117621358D01*
X64083305Y-117548868D01*
X64026584Y-117461294D01*
X63963062Y-117366612D01*
X63898268Y-117270516D01*
X63841887Y-117184837D01*
X63797388Y-117115016D01*
X63768239Y-117066494D01*
X63757908Y-117044782D01*
X63766650Y-117018293D01*
X63789687Y-116968062D01*
X63822231Y-116904451D01*
X63825849Y-116897708D01*
X63868810Y-116812046D01*
X63889879Y-116753306D01*
X63890103Y-116716772D01*
X63870528Y-116697731D01*
X63870254Y-116697620D01*
X63847072Y-116688102D01*
X63792041Y-116665403D01*
X63709422Y-116631282D01*
X63603472Y-116587500D01*
X63478452Y-116535816D01*
X63338620Y-116477992D01*
X63203237Y-116421991D01*
X63053834Y-116360447D01*
X62915432Y-116303939D01*
X62792273Y-116254161D01*
X62688602Y-116212806D01*
X62608659Y-116181568D01*
X62556688Y-116162141D01*
X62537292Y-116156154D01*
X62515043Y-116171168D01*
X62479582Y-116210439D01*
X62440487Y-116262807D01*
X62316845Y-116411941D01*
X62175122Y-116528511D01*
X62018304Y-116611118D01*
X61849375Y-116658366D01*
X61671322Y-116668857D01*
X61589139Y-116661231D01*
X61418631Y-116619682D01*
X61268059Y-116548123D01*
X61138909Y-116450995D01*
X61032664Y-116332734D01*
X60950810Y-116197780D01*
X60894832Y-116050571D01*
X60866215Y-115895544D01*
X60866444Y-115737139D01*
X60897005Y-115579794D01*
X60959382Y-115427946D01*
X61055060Y-115286035D01*
X61109172Y-115226803D01*
X61248120Y-115113203D01*
X61399961Y-115034106D01*
X61560267Y-114988986D01*
X61724612Y-114977316D01*
X61888571Y-114998569D01*
X62047718Y-115052220D01*
X62197625Y-115137740D01*
X62333867Y-115254605D01*
X62440487Y-115385193D01*
X62481242Y-115439588D01*
X62516318Y-115478014D01*
X62537326Y-115491846D01*
X62560235Y-115484603D01*
X62614965Y-115464005D01*
X62697272Y-115431746D01*
X62802915Y-115389521D01*
X62927650Y-115339023D01*
X63067236Y-115281948D01*
X63203270Y-115225854D01*
X63352801Y-115163967D01*
X63491367Y-115106644D01*
X63614707Y-115055644D01*
X63718564Y-115012727D01*
X63798680Y-114979653D01*
X63850795Y-114958181D01*
X63870254Y-114950225D01*
X63890023Y-114931429D01*
X63889965Y-114895074D01*
X63869041Y-114836479D01*
X63826213Y-114750968D01*
X63825849Y-114750292D01*
X63792612Y-114685907D01*
X63768402Y-114633861D01*
X63758004Y-114604512D01*
X63757908Y-114603217D01*
X63768455Y-114581124D01*
X63797784Y-114532348D01*
X63842427Y-114462331D01*
X63898914Y-114376514D01*
X63963062Y-114281388D01*
X64028011Y-114184540D01*
X64084496Y-114097253D01*
X64129021Y-114025181D01*
X64158090Y-113973977D01*
X64168216Y-113949526D01*
X64154907Y-113927010D01*
X64117712Y-113881742D01*
X64060728Y-113818244D01*
X63988049Y-113741039D01*
X63903771Y-113654651D01*
X63875616Y-113626399D01*
X63583016Y-113334287D01*
X63256704Y-113556631D01*
X63156497Y-113624202D01*
X63066563Y-113683507D01*
X62992110Y-113731217D01*
X62938351Y-113764007D01*
X62910494Y-113778548D01*
X62908512Y-113778974D01*
X62882255Y-113771308D01*
X62829437Y-113750689D01*
X62758910Y-113720685D01*
X62711693Y-113699625D01*
X62621294Y-113660248D01*
X62529966Y-113623165D01*
X62452800Y-113594415D01*
X62429292Y-113586605D01*
X62366516Y-113564417D01*
X62318011Y-113542727D01*
X62299679Y-113530813D01*
X62288459Y-113504523D01*
X62272554Y-113447142D01*
X62253767Y-113366118D01*
X62233899Y-113268895D01*
X62225732Y-113225385D01*
X62205429Y-113114896D01*
X62185770Y-113008916D01*
X62168688Y-112917801D01*
X62156118Y-112851908D01*
X62153691Y-112839500D01*
X62133445Y-112736923D01*
X61706301Y-112736923D01*
X61565846Y-112737153D01*
X61459579Y-112738099D01*
X61382613Y-112740141D01*
X61330060Y-112743662D01*
X61297033Y-112749043D01*
X61278645Y-112756666D01*
X61270008Y-112766912D01*
X61268407Y-112771115D01*
X61262727Y-112796470D01*
X61251395Y-112852484D01*
X61235779Y-112931964D01*
X61217247Y-113027712D01*
X61197169Y-113132533D01*
X61176912Y-113239232D01*
X61157846Y-113340613D01*
X61141339Y-113429479D01*
X61128759Y-113498637D01*
X61121475Y-113540889D01*
X61120216Y-113550290D01*
X61103363Y-113558807D01*
X61058470Y-113577660D01*
X60994030Y-113603324D01*
X60968792Y-113613123D01*
X60871286Y-113652648D01*
X60763559Y-113699192D01*
X60672772Y-113740877D01*
X60603353Y-113771550D01*
X60546310Y-113791956D01*
X60511377Y-113798768D01*
X60506695Y-113797682D01*
X60484591Y-113783285D01*
X60435431Y-113750412D01*
X60364448Y-113702590D01*
X60276878Y-113643348D01*
X60177957Y-113576215D01*
X60158430Y-113562941D01*
X60042740Y-113485046D01*
X59954644Y-113427787D01*
X59890086Y-113388881D01*
X59845011Y-113366044D01*
X59815363Y-113356994D01*
X59797085Y-113359448D01*
X59796969Y-113359511D01*
X59772961Y-113378827D01*
X59726547Y-113421551D01*
X59662537Y-113483051D01*
X59585745Y-113558698D01*
X59500982Y-113643861D01*
X59491522Y-113653465D01*
X59387589Y-113760790D01*
X59311275Y-113843615D01*
X59261171Y-113903605D01*
X59235870Y-113942423D01*
X59232604Y-113959520D01*
X59246850Y-113984473D01*
X59279756Y-114036255D01*
X59327808Y-114109520D01*
X59387490Y-114198920D01*
X59455288Y-114299111D01*
X59471239Y-114322501D01*
X59698020Y-114654593D01*
X59629953Y-114804565D01*
X59590285Y-114895770D01*
X59550391Y-114993669D01*
X59518583Y-115077831D01*
X59517274Y-115081538D01*
X59493176Y-115147369D01*
X59472800Y-115198116D01*
X59460536Y-115222842D01*
X59460501Y-115222884D01*
X59438334Y-115230729D01*
X59383817Y-115244066D01*
X59303080Y-115261570D01*
X59202250Y-115281917D01*
X59087456Y-115303782D01*
X59077778Y-115305571D01*
X58959504Y-115327504D01*
X58852142Y-115347640D01*
X58762517Y-115364680D01*
X58697451Y-115377328D01*
X58663768Y-115384284D01*
X58663254Y-115384406D01*
X58648925Y-115388639D01*
X58638107Y-115396871D01*
X58630306Y-115414033D01*
X58625029Y-115445058D01*
X58621782Y-115494878D01*
X58620072Y-115568424D01*
X58619407Y-115670629D01*
X58619293Y-115806425D01*
X58619292Y-115824000D01*
X58619376Y-115963878D01*
M02*
