M48
;DRILL file {KiCad 4.0.6} date Tue Sep 19 20:34:52 2017
;FORMAT={-:-/ absolute / inch / decimal}
FMAT,2
INCH,TZ
T1C0.016
T2C0.031
T3C0.032
T4C0.039
%
G90
G05
M72
T1
X2.945Y-4.29
X3.015Y-4.61
X3.035Y-4.86
X3.04Y-4.39
X3.075Y-4.615
X3.08Y-4.69
X3.115Y-4.61
X3.24Y-5.065
X3.265Y-4.39
X3.31Y-4.625
X3.315Y-4.29
X3.335Y-4.69
X3.415Y-4.29
X3.78Y-4.705
X3.88Y-4.86
X3.98Y-4.86
X4.07Y-4.64
X4.14Y-4.71
X4.21Y-4.29
X4.25Y-4.005
X4.26Y-4.34
X4.385Y-4.31
X4.455Y-4.005
X4.54Y-4.29
X4.55Y-4.445
X4.99Y-4.81
X5.39Y-4.74
X5.69Y-4.49
X5.77Y-4.415
X6.29Y-4.49
X6.34Y-4.44
T2
X2.75Y-4.475
X2.75Y-4.775
X2.85Y-4.475
X2.85Y-4.775
X2.95Y-4.475
X2.95Y-4.775
X3.05Y-4.475
X3.05Y-4.775
X3.15Y-4.475
X3.15Y-4.775
X3.25Y-4.475
X3.25Y-4.775
X3.35Y-4.475
X3.35Y-4.775
X3.45Y-4.475
X3.45Y-4.775
X3.55Y-4.475
X3.55Y-4.775
X3.65Y-4.475
X3.65Y-4.775
X3.75Y-4.475
X3.75Y-4.775
X3.775Y-4.325
X3.85Y-4.475
X3.85Y-4.775
X3.8734Y-4.325
X3.95Y-4.475
X3.95Y-4.775
X4.05Y-4.475
X4.05Y-4.775
X4.975Y-4.425
X4.975Y-4.525
X4.975Y-4.625
X5.275Y-4.425
X5.275Y-4.525
X5.275Y-4.625
X5.4Y-4.4
X5.4Y-4.4984
X5.575Y-4.425
X5.575Y-4.525
X5.575Y-4.625
X5.875Y-4.425
X5.875Y-4.525
X5.875Y-4.625
X6.Y-4.4
X6.Y-4.4984
X6.175Y-4.425
X6.175Y-4.525
X6.175Y-4.625
X6.475Y-4.425
X6.475Y-4.525
X6.475Y-4.625
X6.6Y-4.4
X6.6Y-4.4984
T3
X4.35Y-4.375
X4.35Y-4.775
X4.45Y-4.375
X4.45Y-4.675
X4.55Y-4.375
X4.55Y-4.775
X4.9Y-4.8
X4.9Y-4.9
X4.9Y-5.
X5.2Y-5.
X5.3Y-4.8
X5.3Y-4.9
X5.4Y-4.6
X5.4Y-5.
X5.5Y-4.8
X5.5Y-4.9
X5.5Y-5.
X5.8Y-5.
X5.9Y-4.8
X5.9Y-4.9
X6.Y-4.6
X6.Y-5.
X6.1Y-4.8
X6.1Y-4.9
X6.1Y-5.
X6.4Y-5.
X6.5Y-4.8
X6.5Y-4.9
T4
X2.725Y-5.
X2.75Y-4.1
X2.75Y-4.2
X2.8234Y-5.
X2.85Y-4.1
X2.85Y-4.2
X2.9219Y-5.
X2.95Y-4.1
X2.95Y-4.2
X3.0203Y-5.
X3.05Y-4.1
X3.05Y-4.2
X3.15Y-4.1
X3.15Y-4.2
X3.25Y-4.1
X3.25Y-4.2
X3.275Y-5.
X3.35Y-4.1
X3.35Y-4.2
X3.3734Y-5.
X3.45Y-4.1
X3.45Y-4.2
X3.4719Y-5.
X3.55Y-4.1
X3.55Y-4.2
X3.5703Y-5.
X3.65Y-4.1
X3.65Y-4.2
X3.75Y-4.1
X3.75Y-4.2
X3.825Y-5.
X3.85Y-4.1
X3.85Y-4.2
X3.9234Y-5.
X3.95Y-4.1
X3.95Y-4.2
X4.0219Y-5.
X4.05Y-4.1
X4.05Y-4.2
X4.1203Y-5.
X4.15Y-4.1
X4.15Y-4.2
X4.25Y-4.1
X4.25Y-4.2
X4.35Y-4.1
X4.35Y-4.2
X4.375Y-5.
X4.45Y-4.1
X4.45Y-4.2
X4.4734Y-5.
X4.55Y-4.1
X4.55Y-4.2
X4.5719Y-5.
X4.65Y-4.1
X4.65Y-4.2
X4.6703Y-5.
X5.0547Y-4.15
X5.1531Y-4.15
X5.2516Y-4.15
X5.35Y-4.15
X5.6297Y-4.15
X5.7281Y-4.15
X5.8266Y-4.15
X5.925Y-4.15
X6.2047Y-4.15
X6.3031Y-4.15
X6.4016Y-4.15
X6.5Y-4.15
T0
M30
