M48
;DRILL file {KiCad 4.0.6} date Tue Jun  5 10:55:38 2018
;FORMAT={-:-/ absolute / inch / decimal}
FMAT,2
INCH,TZ
T1C0.016
T2C0.031
T3C0.032
T4C0.039
T5C0.040
%
G90
G05
M72
T1
X2.685Y-5.075
X2.74Y-4.27
X2.84Y-4.69
X2.935Y-4.615
X2.94Y-4.39
X2.995Y-4.39
X3.07Y-4.97
X3.075Y-4.355
X3.125Y-4.305
X3.175Y-4.355
X3.175Y-4.55
X3.175Y-4.865
X3.235Y-4.69
X3.3Y-4.325
X3.31Y-5.085
X3.465Y-4.39
X3.565Y-4.39
X3.715Y-4.92
X3.74Y-4.635
X3.855Y-5.085
X3.92Y-4.865
X4.01Y-4.635
X4.01Y-4.86
X4.14Y-4.29
X4.14Y-4.765
X4.14Y-4.825
X4.245Y-4.81
X4.47Y-4.865
X4.485Y-4.29
X4.546Y-4.002
X4.661Y-4.002
X4.69Y-4.445
X4.69Y-4.495
X4.735Y-4.265
X4.83Y-4.785
X4.99Y-4.81
X5.39Y-4.74
X5.69Y-4.49
X5.765Y-4.46
X6.29Y-4.49
X6.36Y-4.46
T2
X2.75Y-4.475
X2.75Y-4.775
X2.85Y-4.475
X2.85Y-4.775
X2.95Y-4.475
X2.95Y-4.775
X3.05Y-4.475
X3.05Y-4.775
X3.15Y-4.475
X3.15Y-4.775
X3.25Y-4.475
X3.25Y-4.775
X3.35Y-4.475
X3.35Y-4.775
X3.45Y-4.475
X3.45Y-4.775
X3.55Y-4.475
X3.55Y-4.775
X3.65Y-4.475
X3.65Y-4.775
X3.75Y-4.475
X3.75Y-4.775
X3.775Y-4.325
X3.85Y-4.475
X3.85Y-4.775
X3.8734Y-4.325
X3.95Y-4.475
X3.95Y-4.775
X4.05Y-4.475
X4.05Y-4.775
X4.975Y-4.425
X4.975Y-4.525
X4.975Y-4.625
X5.275Y-4.425
X5.275Y-4.525
X5.275Y-4.625
X5.4Y-4.4
X5.4Y-4.4984
X5.575Y-4.425
X5.575Y-4.525
X5.575Y-4.625
X5.875Y-4.425
X5.875Y-4.525
X5.875Y-4.625
X6.Y-4.4
X6.Y-4.4984
X6.175Y-4.425
X6.175Y-4.525
X6.175Y-4.625
X6.475Y-4.425
X6.475Y-4.525
X6.475Y-4.625
X6.6Y-4.4
X6.6Y-4.4984
T3
X4.5925Y-4.325
X4.5925Y-4.725
X4.82Y-4.325
X4.82Y-4.725
X4.9Y-4.8
X4.9Y-4.9
X4.9Y-5.
X5.2Y-5.
X5.3Y-4.8
X5.3Y-4.9
X5.4Y-4.6
X5.4Y-5.
X5.5Y-4.8
X5.5Y-4.9
X5.5Y-5.
X5.8Y-5.
X5.9Y-4.8
X5.9Y-4.9
X6.Y-4.6
X6.Y-5.
X6.1Y-4.8
X6.1Y-4.9
X6.1Y-5.
X6.4Y-5.
X6.5Y-4.8
X6.5Y-4.9
T4
X2.7225Y-5.0075
X2.7525Y-4.08
X2.7525Y-4.18
X2.8209Y-5.0075
X2.8525Y-4.08
X2.8525Y-4.18
X2.9194Y-5.0075
X2.9525Y-4.08
X2.9525Y-4.18
X3.0178Y-5.0075
X3.0525Y-4.08
X3.0525Y-4.18
X3.1525Y-4.08
X3.1525Y-4.18
X3.2525Y-4.08
X3.2525Y-4.18
X3.2725Y-5.0075
X3.3525Y-4.08
X3.3525Y-4.18
X3.3709Y-5.0075
X3.4525Y-4.08
X3.4525Y-4.18
X3.4694Y-5.0075
X3.5525Y-4.08
X3.5525Y-4.18
X3.5678Y-5.0075
X3.6525Y-4.08
X3.6525Y-4.18
X3.7525Y-4.08
X3.7525Y-4.18
X3.8525Y-4.08
X3.8525Y-4.18
X3.87Y-5.0075
X3.9525Y-4.08
X3.9525Y-4.18
X3.9684Y-5.0075
X4.0525Y-4.08
X4.0525Y-4.18
X4.0669Y-5.0075
X4.1525Y-4.08
X4.1525Y-4.18
X4.1653Y-5.0075
X4.2525Y-4.08
X4.2525Y-4.18
X4.3225Y-4.375
X4.3225Y-4.4734
X4.3225Y-4.5719
X4.3225Y-4.6703
X4.3225Y-4.7687
X4.3525Y-4.08
X4.3525Y-4.18
X4.42Y-5.0075
X4.4525Y-4.08
X4.4525Y-4.18
X4.5184Y-5.0075
X4.5525Y-4.08
X4.5525Y-4.18
X4.6169Y-5.0075
X4.6525Y-4.08
X4.6525Y-4.18
X4.7153Y-5.0075
X5.0547Y-4.15
X5.1531Y-4.15
X5.2516Y-4.15
X5.35Y-4.15
X5.6297Y-4.15
X5.7281Y-4.15
X5.8266Y-4.15
X5.925Y-4.15
X6.2047Y-4.15
X6.3031Y-4.15
X6.4016Y-4.15
X6.5Y-4.15
T5
X4.7075Y-4.3225
X4.7075Y-4.7225
T0
M30
