G04 #@! TF.FileFunction,Legend,Top*
%FSLAX46Y46*%
G04 Gerber Fmt 4.6, Leading zero omitted, Abs format (unit mm)*
G04 Created by KiCad (PCBNEW 4.0.6) date Tue Jun  5 10:56:57 2018*
%MOMM*%
%LPD*%
G01*
G04 APERTURE LIST*
%ADD10C,0.100000*%
%ADD11C,0.120000*%
%ADD12C,0.150000*%
G04 APERTURE END LIST*
D10*
D11*
X116903500Y-102242000D02*
X68523500Y-102242000D01*
X68523500Y-102242000D02*
X68523500Y-107562000D01*
X68523500Y-107562000D02*
X119563500Y-107562000D01*
X119563500Y-107562000D02*
X119563500Y-104902000D01*
X119563500Y-104902000D02*
X116903500Y-104902000D01*
X116903500Y-104902000D02*
X116903500Y-102242000D01*
X118173500Y-102242000D02*
X119563500Y-102242000D01*
X119563500Y-102242000D02*
X119563500Y-103632000D01*
X68460000Y-116475000D02*
G75*
G02X68460000Y-118475000I0J-1000000D01*
G01*
X68460000Y-118475000D02*
X68460000Y-120245000D01*
X68460000Y-120245000D02*
X104260000Y-120245000D01*
X104260000Y-120245000D02*
X104260000Y-114705000D01*
X104260000Y-114705000D02*
X68460000Y-114705000D01*
X68460000Y-114705000D02*
X68460000Y-116475000D01*
X131175000Y-111005000D02*
G75*
G02X129175000Y-111005000I-1000000J0D01*
G01*
X129175000Y-111005000D02*
X127405000Y-111005000D01*
X127405000Y-111005000D02*
X127405000Y-118865000D01*
X127405000Y-118865000D02*
X132945000Y-118865000D01*
X132945000Y-118865000D02*
X132945000Y-111005000D01*
X132945000Y-111005000D02*
X131175000Y-111005000D01*
X146415000Y-111005000D02*
G75*
G02X144415000Y-111005000I-1000000J0D01*
G01*
X144415000Y-111005000D02*
X142645000Y-111005000D01*
X142645000Y-111005000D02*
X142645000Y-118865000D01*
X142645000Y-118865000D02*
X148185000Y-118865000D01*
X148185000Y-118865000D02*
X148185000Y-111005000D01*
X148185000Y-111005000D02*
X146415000Y-111005000D01*
X161655000Y-111005000D02*
G75*
G02X159655000Y-111005000I-1000000J0D01*
G01*
X159655000Y-111005000D02*
X157885000Y-111005000D01*
X157885000Y-111005000D02*
X157885000Y-118865000D01*
X157885000Y-118865000D02*
X163425000Y-118865000D01*
X163425000Y-118865000D02*
X163425000Y-111005000D01*
X163425000Y-111005000D02*
X161655000Y-111005000D01*
X138021000Y-112423000D02*
X138021000Y-113597000D01*
X136299000Y-112423000D02*
X136299000Y-113597000D01*
X153261000Y-112423000D02*
X153261000Y-113597000D01*
X151539000Y-112423000D02*
X151539000Y-113597000D01*
X168501000Y-112423000D02*
X168501000Y-113597000D01*
X166779000Y-112423000D02*
X166779000Y-113597000D01*
D12*
X134620000Y-124460000D02*
X133604000Y-124460000D01*
X133604000Y-124460000D02*
X133604000Y-125476000D01*
X133604000Y-125476000D02*
X125476000Y-125476000D01*
X125476000Y-125476000D02*
X125476000Y-123444000D01*
X125476000Y-123444000D02*
X133604000Y-123444000D01*
X133604000Y-123444000D02*
X133604000Y-124460000D01*
X133604000Y-124968000D02*
X133096000Y-125476000D01*
X124460000Y-124460000D02*
X125476000Y-124460000D01*
X124460000Y-121920000D02*
X125476000Y-121920000D01*
X125476000Y-121920000D02*
X125476000Y-120904000D01*
X125476000Y-120904000D02*
X133604000Y-120904000D01*
X133604000Y-120904000D02*
X133604000Y-122936000D01*
X133604000Y-122936000D02*
X125476000Y-122936000D01*
X125476000Y-122936000D02*
X125476000Y-121920000D01*
X125476000Y-121412000D02*
X125984000Y-120904000D01*
X134620000Y-121920000D02*
X133604000Y-121920000D01*
X116649500Y-109855000D02*
X116649500Y-110871000D01*
X116649500Y-110871000D02*
X117665500Y-110871000D01*
X117665500Y-110871000D02*
X117665500Y-118999000D01*
X117665500Y-118999000D02*
X115633500Y-118999000D01*
X115633500Y-118999000D02*
X115633500Y-110871000D01*
X115633500Y-110871000D02*
X116649500Y-110871000D01*
X117157500Y-110871000D02*
X117665500Y-111379000D01*
X116649500Y-120015000D02*
X116649500Y-118999000D01*
X137160000Y-127000000D02*
X137160000Y-125984000D01*
X137160000Y-125984000D02*
X136144000Y-125984000D01*
X136144000Y-125984000D02*
X136144000Y-117856000D01*
X136144000Y-117856000D02*
X138176000Y-117856000D01*
X138176000Y-117856000D02*
X138176000Y-125984000D01*
X138176000Y-125984000D02*
X137160000Y-125984000D01*
X136652000Y-125984000D02*
X136144000Y-125476000D01*
X137160000Y-116840000D02*
X137160000Y-117856000D01*
X139700000Y-121920000D02*
X140716000Y-121920000D01*
X140716000Y-121920000D02*
X140716000Y-120904000D01*
X140716000Y-120904000D02*
X148844000Y-120904000D01*
X148844000Y-120904000D02*
X148844000Y-122936000D01*
X148844000Y-122936000D02*
X140716000Y-122936000D01*
X140716000Y-122936000D02*
X140716000Y-121920000D01*
X140716000Y-121412000D02*
X141224000Y-120904000D01*
X149860000Y-121920000D02*
X148844000Y-121920000D01*
X139700000Y-124460000D02*
X140716000Y-124460000D01*
X140716000Y-124460000D02*
X140716000Y-123444000D01*
X140716000Y-123444000D02*
X148844000Y-123444000D01*
X148844000Y-123444000D02*
X148844000Y-125476000D01*
X148844000Y-125476000D02*
X140716000Y-125476000D01*
X140716000Y-125476000D02*
X140716000Y-124460000D01*
X140716000Y-123952000D02*
X141224000Y-123444000D01*
X149860000Y-124460000D02*
X148844000Y-124460000D01*
X154940000Y-121920000D02*
X155956000Y-121920000D01*
X155956000Y-121920000D02*
X155956000Y-120904000D01*
X155956000Y-120904000D02*
X164084000Y-120904000D01*
X164084000Y-120904000D02*
X164084000Y-122936000D01*
X164084000Y-122936000D02*
X155956000Y-122936000D01*
X155956000Y-122936000D02*
X155956000Y-121920000D01*
X155956000Y-121412000D02*
X156464000Y-120904000D01*
X165100000Y-121920000D02*
X164084000Y-121920000D01*
X154940000Y-124460000D02*
X155956000Y-124460000D01*
X155956000Y-124460000D02*
X155956000Y-123444000D01*
X155956000Y-123444000D02*
X164084000Y-123444000D01*
X164084000Y-123444000D02*
X164084000Y-125476000D01*
X164084000Y-125476000D02*
X155956000Y-125476000D01*
X155956000Y-125476000D02*
X155956000Y-124460000D01*
X155956000Y-123952000D02*
X156464000Y-123444000D01*
X165100000Y-124460000D02*
X164084000Y-124460000D01*
X152400000Y-116840000D02*
X152400000Y-117856000D01*
X152400000Y-117856000D02*
X153416000Y-117856000D01*
X153416000Y-117856000D02*
X153416000Y-125984000D01*
X153416000Y-125984000D02*
X151384000Y-125984000D01*
X151384000Y-125984000D02*
X151384000Y-117856000D01*
X151384000Y-117856000D02*
X152400000Y-117856000D01*
X152908000Y-117856000D02*
X153416000Y-118364000D01*
X152400000Y-127000000D02*
X152400000Y-125984000D01*
X122428000Y-120015000D02*
X122428000Y-118999000D01*
X122428000Y-118999000D02*
X121412000Y-118999000D01*
X121412000Y-118999000D02*
X121412000Y-110871000D01*
X121412000Y-110871000D02*
X123444000Y-110871000D01*
X123444000Y-110871000D02*
X123444000Y-118999000D01*
X123444000Y-118999000D02*
X122428000Y-118999000D01*
X121920000Y-118999000D02*
X121412000Y-118491000D01*
X122428000Y-109855000D02*
X122428000Y-110871000D01*
X132080000Y-127000000D02*
X131318000Y-127000000D01*
X131318000Y-127000000D02*
X131318000Y-125984000D01*
X131318000Y-125984000D02*
X125222000Y-125984000D01*
X125222000Y-125984000D02*
X125222000Y-127000000D01*
X125222000Y-127000000D02*
X124460000Y-127000000D01*
X125222000Y-127000000D02*
X125222000Y-128016000D01*
X125222000Y-128016000D02*
X131318000Y-128016000D01*
X131318000Y-128016000D02*
X131318000Y-127000000D01*
X130810000Y-125984000D02*
X130810000Y-128016000D01*
X130556000Y-128016000D02*
X130556000Y-125984000D01*
X147320000Y-127000000D02*
X146558000Y-127000000D01*
X146558000Y-127000000D02*
X146558000Y-125984000D01*
X146558000Y-125984000D02*
X140462000Y-125984000D01*
X140462000Y-125984000D02*
X140462000Y-127000000D01*
X140462000Y-127000000D02*
X139700000Y-127000000D01*
X140462000Y-127000000D02*
X140462000Y-128016000D01*
X140462000Y-128016000D02*
X146558000Y-128016000D01*
X146558000Y-128016000D02*
X146558000Y-127000000D01*
X146050000Y-125984000D02*
X146050000Y-128016000D01*
X145796000Y-128016000D02*
X145796000Y-125984000D01*
X162560000Y-127000000D02*
X161798000Y-127000000D01*
X161798000Y-127000000D02*
X161798000Y-125984000D01*
X161798000Y-125984000D02*
X155702000Y-125984000D01*
X155702000Y-125984000D02*
X155702000Y-127000000D01*
X155702000Y-127000000D02*
X154940000Y-127000000D01*
X155702000Y-127000000D02*
X155702000Y-128016000D01*
X155702000Y-128016000D02*
X161798000Y-128016000D01*
X161798000Y-128016000D02*
X161798000Y-127000000D01*
X161290000Y-125984000D02*
X161290000Y-128016000D01*
X161036000Y-128016000D02*
X161036000Y-125984000D01*
D11*
X96548000Y-108994000D02*
X97722000Y-108994000D01*
X96548000Y-110716000D02*
X97722000Y-110716000D01*
X66601500Y-124740500D02*
X66601500Y-130690500D01*
X66601500Y-130690500D02*
X79201500Y-130690500D01*
X79201500Y-130690500D02*
X79201500Y-124740500D01*
X79201500Y-124740500D02*
X66601500Y-124740500D01*
X69901500Y-124740500D02*
X69901500Y-125490500D01*
X69901500Y-125490500D02*
X75901500Y-125490500D01*
X75901500Y-125490500D02*
X75901500Y-124740500D01*
X75901500Y-124740500D02*
X69901500Y-124740500D01*
X66601500Y-124740500D02*
X66601500Y-125490500D01*
X66601500Y-125490500D02*
X68401500Y-125490500D01*
X68401500Y-125490500D02*
X68401500Y-124740500D01*
X68401500Y-124740500D02*
X66601500Y-124740500D01*
X77401500Y-124740500D02*
X77401500Y-125490500D01*
X77401500Y-125490500D02*
X79201500Y-125490500D01*
X79201500Y-125490500D02*
X79201500Y-124740500D01*
X79201500Y-124740500D02*
X77401500Y-124740500D01*
X66601500Y-126990500D02*
X67351500Y-126990500D01*
X67351500Y-126990500D02*
X67351500Y-129940500D01*
X67351500Y-129940500D02*
X72901500Y-129940500D01*
X79201500Y-126990500D02*
X78451500Y-126990500D01*
X78451500Y-126990500D02*
X78451500Y-129940500D01*
X78451500Y-129940500D02*
X72901500Y-129940500D01*
X68801500Y-124440500D02*
X66301500Y-124440500D01*
X66301500Y-124440500D02*
X66301500Y-126940500D01*
X80571500Y-124740500D02*
X80571500Y-130690500D01*
X80571500Y-130690500D02*
X93171500Y-130690500D01*
X93171500Y-130690500D02*
X93171500Y-124740500D01*
X93171500Y-124740500D02*
X80571500Y-124740500D01*
X83871500Y-124740500D02*
X83871500Y-125490500D01*
X83871500Y-125490500D02*
X89871500Y-125490500D01*
X89871500Y-125490500D02*
X89871500Y-124740500D01*
X89871500Y-124740500D02*
X83871500Y-124740500D01*
X80571500Y-124740500D02*
X80571500Y-125490500D01*
X80571500Y-125490500D02*
X82371500Y-125490500D01*
X82371500Y-125490500D02*
X82371500Y-124740500D01*
X82371500Y-124740500D02*
X80571500Y-124740500D01*
X91371500Y-124740500D02*
X91371500Y-125490500D01*
X91371500Y-125490500D02*
X93171500Y-125490500D01*
X93171500Y-125490500D02*
X93171500Y-124740500D01*
X93171500Y-124740500D02*
X91371500Y-124740500D01*
X80571500Y-126990500D02*
X81321500Y-126990500D01*
X81321500Y-126990500D02*
X81321500Y-129940500D01*
X81321500Y-129940500D02*
X86871500Y-129940500D01*
X93171500Y-126990500D02*
X92421500Y-126990500D01*
X92421500Y-126990500D02*
X92421500Y-129940500D01*
X92421500Y-129940500D02*
X86871500Y-129940500D01*
X82771500Y-124440500D02*
X80271500Y-124440500D01*
X80271500Y-124440500D02*
X80271500Y-126940500D01*
X95748000Y-124740500D02*
X95748000Y-130690500D01*
X95748000Y-130690500D02*
X108348000Y-130690500D01*
X108348000Y-130690500D02*
X108348000Y-124740500D01*
X108348000Y-124740500D02*
X95748000Y-124740500D01*
X99048000Y-124740500D02*
X99048000Y-125490500D01*
X99048000Y-125490500D02*
X105048000Y-125490500D01*
X105048000Y-125490500D02*
X105048000Y-124740500D01*
X105048000Y-124740500D02*
X99048000Y-124740500D01*
X95748000Y-124740500D02*
X95748000Y-125490500D01*
X95748000Y-125490500D02*
X97548000Y-125490500D01*
X97548000Y-125490500D02*
X97548000Y-124740500D01*
X97548000Y-124740500D02*
X95748000Y-124740500D01*
X106548000Y-124740500D02*
X106548000Y-125490500D01*
X106548000Y-125490500D02*
X108348000Y-125490500D01*
X108348000Y-125490500D02*
X108348000Y-124740500D01*
X108348000Y-124740500D02*
X106548000Y-124740500D01*
X95748000Y-126990500D02*
X96498000Y-126990500D01*
X96498000Y-126990500D02*
X96498000Y-129940500D01*
X96498000Y-129940500D02*
X102048000Y-129940500D01*
X108348000Y-126990500D02*
X107598000Y-126990500D01*
X107598000Y-126990500D02*
X107598000Y-129940500D01*
X107598000Y-129940500D02*
X102048000Y-129940500D01*
X97948000Y-124440500D02*
X95448000Y-124440500D01*
X95448000Y-124440500D02*
X95448000Y-126940500D01*
X109718000Y-124740500D02*
X109718000Y-130690500D01*
X109718000Y-130690500D02*
X122318000Y-130690500D01*
X122318000Y-130690500D02*
X122318000Y-124740500D01*
X122318000Y-124740500D02*
X109718000Y-124740500D01*
X113018000Y-124740500D02*
X113018000Y-125490500D01*
X113018000Y-125490500D02*
X119018000Y-125490500D01*
X119018000Y-125490500D02*
X119018000Y-124740500D01*
X119018000Y-124740500D02*
X113018000Y-124740500D01*
X109718000Y-124740500D02*
X109718000Y-125490500D01*
X109718000Y-125490500D02*
X111518000Y-125490500D01*
X111518000Y-125490500D02*
X111518000Y-124740500D01*
X111518000Y-124740500D02*
X109718000Y-124740500D01*
X120518000Y-124740500D02*
X120518000Y-125490500D01*
X120518000Y-125490500D02*
X122318000Y-125490500D01*
X122318000Y-125490500D02*
X122318000Y-124740500D01*
X122318000Y-124740500D02*
X120518000Y-124740500D01*
X109718000Y-126990500D02*
X110468000Y-126990500D01*
X110468000Y-126990500D02*
X110468000Y-129940500D01*
X110468000Y-129940500D02*
X116018000Y-129940500D01*
X122318000Y-126990500D02*
X121568000Y-126990500D01*
X121568000Y-126990500D02*
X121568000Y-129940500D01*
X121568000Y-129940500D02*
X116018000Y-129940500D01*
X111918000Y-124440500D02*
X109418000Y-124440500D01*
X109418000Y-124440500D02*
X109418000Y-126940500D01*
X138440000Y-107860000D02*
X138440000Y-101910000D01*
X138440000Y-101910000D02*
X125840000Y-101910000D01*
X125840000Y-101910000D02*
X125840000Y-107860000D01*
X125840000Y-107860000D02*
X138440000Y-107860000D01*
X135140000Y-107860000D02*
X135140000Y-107110000D01*
X135140000Y-107110000D02*
X129140000Y-107110000D01*
X129140000Y-107110000D02*
X129140000Y-107860000D01*
X129140000Y-107860000D02*
X135140000Y-107860000D01*
X138440000Y-107860000D02*
X138440000Y-107110000D01*
X138440000Y-107110000D02*
X136640000Y-107110000D01*
X136640000Y-107110000D02*
X136640000Y-107860000D01*
X136640000Y-107860000D02*
X138440000Y-107860000D01*
X127640000Y-107860000D02*
X127640000Y-107110000D01*
X127640000Y-107110000D02*
X125840000Y-107110000D01*
X125840000Y-107110000D02*
X125840000Y-107860000D01*
X125840000Y-107860000D02*
X127640000Y-107860000D01*
X138440000Y-105610000D02*
X137690000Y-105610000D01*
X137690000Y-105610000D02*
X137690000Y-102660000D01*
X137690000Y-102660000D02*
X132140000Y-102660000D01*
X125840000Y-105610000D02*
X126590000Y-105610000D01*
X126590000Y-105610000D02*
X126590000Y-102660000D01*
X126590000Y-102660000D02*
X132140000Y-102660000D01*
X136240000Y-108160000D02*
X138740000Y-108160000D01*
X138740000Y-108160000D02*
X138740000Y-105660000D01*
X153045000Y-107860000D02*
X153045000Y-101910000D01*
X153045000Y-101910000D02*
X140445000Y-101910000D01*
X140445000Y-101910000D02*
X140445000Y-107860000D01*
X140445000Y-107860000D02*
X153045000Y-107860000D01*
X149745000Y-107860000D02*
X149745000Y-107110000D01*
X149745000Y-107110000D02*
X143745000Y-107110000D01*
X143745000Y-107110000D02*
X143745000Y-107860000D01*
X143745000Y-107860000D02*
X149745000Y-107860000D01*
X153045000Y-107860000D02*
X153045000Y-107110000D01*
X153045000Y-107110000D02*
X151245000Y-107110000D01*
X151245000Y-107110000D02*
X151245000Y-107860000D01*
X151245000Y-107860000D02*
X153045000Y-107860000D01*
X142245000Y-107860000D02*
X142245000Y-107110000D01*
X142245000Y-107110000D02*
X140445000Y-107110000D01*
X140445000Y-107110000D02*
X140445000Y-107860000D01*
X140445000Y-107860000D02*
X142245000Y-107860000D01*
X153045000Y-105610000D02*
X152295000Y-105610000D01*
X152295000Y-105610000D02*
X152295000Y-102660000D01*
X152295000Y-102660000D02*
X146745000Y-102660000D01*
X140445000Y-105610000D02*
X141195000Y-105610000D01*
X141195000Y-105610000D02*
X141195000Y-102660000D01*
X141195000Y-102660000D02*
X146745000Y-102660000D01*
X150845000Y-108160000D02*
X153345000Y-108160000D01*
X153345000Y-108160000D02*
X153345000Y-105660000D01*
X167650000Y-107860000D02*
X167650000Y-101910000D01*
X167650000Y-101910000D02*
X155050000Y-101910000D01*
X155050000Y-101910000D02*
X155050000Y-107860000D01*
X155050000Y-107860000D02*
X167650000Y-107860000D01*
X164350000Y-107860000D02*
X164350000Y-107110000D01*
X164350000Y-107110000D02*
X158350000Y-107110000D01*
X158350000Y-107110000D02*
X158350000Y-107860000D01*
X158350000Y-107860000D02*
X164350000Y-107860000D01*
X167650000Y-107860000D02*
X167650000Y-107110000D01*
X167650000Y-107110000D02*
X165850000Y-107110000D01*
X165850000Y-107110000D02*
X165850000Y-107860000D01*
X165850000Y-107860000D02*
X167650000Y-107860000D01*
X156850000Y-107860000D02*
X156850000Y-107110000D01*
X156850000Y-107110000D02*
X155050000Y-107110000D01*
X155050000Y-107110000D02*
X155050000Y-107860000D01*
X155050000Y-107860000D02*
X156850000Y-107860000D01*
X167650000Y-105610000D02*
X166900000Y-105610000D01*
X166900000Y-105610000D02*
X166900000Y-102660000D01*
X166900000Y-102660000D02*
X161350000Y-102660000D01*
X155050000Y-105610000D02*
X155800000Y-105610000D01*
X155800000Y-105610000D02*
X155800000Y-102660000D01*
X155800000Y-102660000D02*
X161350000Y-102660000D01*
X165450000Y-108160000D02*
X167950000Y-108160000D01*
X167950000Y-108160000D02*
X167950000Y-105660000D01*
D12*
X120840500Y-111061500D02*
X120840500Y-118681500D01*
X120840500Y-118681500D02*
X118300500Y-118681500D01*
X118300500Y-118681500D02*
X118300500Y-111061500D01*
X118300500Y-111061500D02*
X120840500Y-111061500D01*
X120840500Y-118046500D02*
X118300500Y-118046500D01*
X118300500Y-117411500D02*
X120840500Y-117411500D01*
X119570500Y-111061500D02*
X119570500Y-109791500D01*
X119570500Y-118681500D02*
X119570500Y-119951500D01*
D11*
X112241500Y-108575000D02*
X106291500Y-108575000D01*
X106291500Y-108575000D02*
X106291500Y-123675000D01*
X106291500Y-123675000D02*
X112241500Y-123675000D01*
X112241500Y-123675000D02*
X112241500Y-108575000D01*
X112241500Y-111875000D02*
X111491500Y-111875000D01*
X111491500Y-111875000D02*
X111491500Y-120375000D01*
X111491500Y-120375000D02*
X112241500Y-120375000D01*
X112241500Y-120375000D02*
X112241500Y-111875000D01*
X112241500Y-108575000D02*
X111491500Y-108575000D01*
X111491500Y-108575000D02*
X111491500Y-110375000D01*
X111491500Y-110375000D02*
X112241500Y-110375000D01*
X112241500Y-110375000D02*
X112241500Y-108575000D01*
X112241500Y-121875000D02*
X111491500Y-121875000D01*
X111491500Y-121875000D02*
X111491500Y-123675000D01*
X111491500Y-123675000D02*
X112241500Y-123675000D01*
X112241500Y-123675000D02*
X112241500Y-121875000D01*
X109991500Y-108575000D02*
X109991500Y-109325000D01*
X109991500Y-109325000D02*
X107041500Y-109325000D01*
X107041500Y-109325000D02*
X107041500Y-116125000D01*
X109991500Y-123675000D02*
X109991500Y-122925000D01*
X109991500Y-122925000D02*
X107041500Y-122925000D01*
X107041500Y-122925000D02*
X107041500Y-116125000D01*
X112541500Y-110775000D02*
X112541500Y-108275000D01*
X112541500Y-108275000D02*
X110041500Y-108275000D01*
D12*
X121015881Y-106925809D02*
X120539690Y-107259143D01*
X121015881Y-107497238D02*
X120015881Y-107497238D01*
X120015881Y-107116285D01*
X120063500Y-107021047D01*
X120111119Y-106973428D01*
X120206357Y-106925809D01*
X120349214Y-106925809D01*
X120444452Y-106973428D01*
X120492071Y-107021047D01*
X120539690Y-107116285D01*
X120539690Y-107497238D01*
X120492071Y-106163904D02*
X120539690Y-106021047D01*
X120587310Y-105973428D01*
X120682548Y-105925809D01*
X120825405Y-105925809D01*
X120920643Y-105973428D01*
X120968262Y-106021047D01*
X121015881Y-106116285D01*
X121015881Y-106497238D01*
X120015881Y-106497238D01*
X120015881Y-106163904D01*
X120063500Y-106068666D01*
X120111119Y-106021047D01*
X120206357Y-105973428D01*
X120301595Y-105973428D01*
X120396833Y-106021047D01*
X120444452Y-106068666D01*
X120492071Y-106163904D01*
X120492071Y-106497238D01*
X121015881Y-105497238D02*
X120015881Y-105497238D01*
X120015881Y-105116285D01*
X120063500Y-105021047D01*
X120111119Y-104973428D01*
X120206357Y-104925809D01*
X120349214Y-104925809D01*
X120444452Y-104973428D01*
X120492071Y-105021047D01*
X120539690Y-105116285D01*
X120539690Y-105497238D01*
X121015881Y-104497238D02*
X120349214Y-104497238D01*
X120015881Y-104497238D02*
X120063500Y-104544857D01*
X120111119Y-104497238D01*
X120063500Y-104449619D01*
X120015881Y-104497238D01*
X120111119Y-104497238D01*
X120634929Y-104021048D02*
X120634929Y-103259143D01*
X121015881Y-102259143D02*
X121015881Y-102830572D01*
X121015881Y-102544858D02*
X120015881Y-102544858D01*
X120158738Y-102640096D01*
X120253976Y-102735334D01*
X120301595Y-102830572D01*
X67912381Y-121189286D02*
X66912381Y-121189286D01*
X67626667Y-120855952D01*
X66912381Y-120522619D01*
X67912381Y-120522619D01*
X67817143Y-119475000D02*
X67864762Y-119522619D01*
X67912381Y-119665476D01*
X67912381Y-119760714D01*
X67864762Y-119903572D01*
X67769524Y-119998810D01*
X67674286Y-120046429D01*
X67483810Y-120094048D01*
X67340952Y-120094048D01*
X67150476Y-120046429D01*
X67055238Y-119998810D01*
X66960000Y-119903572D01*
X66912381Y-119760714D01*
X66912381Y-119665476D01*
X66960000Y-119522619D01*
X67007619Y-119475000D01*
X67912381Y-119046429D02*
X66912381Y-119046429D01*
X66912381Y-118665476D01*
X66960000Y-118570238D01*
X67007619Y-118522619D01*
X67102857Y-118475000D01*
X67245714Y-118475000D01*
X67340952Y-118522619D01*
X67388571Y-118570238D01*
X67436190Y-118665476D01*
X67436190Y-119046429D01*
X67007619Y-118094048D02*
X66960000Y-118046429D01*
X66912381Y-117951191D01*
X66912381Y-117713095D01*
X66960000Y-117617857D01*
X67007619Y-117570238D01*
X67102857Y-117522619D01*
X67198095Y-117522619D01*
X67340952Y-117570238D01*
X67912381Y-118141667D01*
X67912381Y-117522619D01*
X66912381Y-117189286D02*
X66912381Y-116570238D01*
X67293333Y-116903572D01*
X67293333Y-116760714D01*
X67340952Y-116665476D01*
X67388571Y-116617857D01*
X67483810Y-116570238D01*
X67721905Y-116570238D01*
X67817143Y-116617857D01*
X67864762Y-116665476D01*
X67912381Y-116760714D01*
X67912381Y-117046429D01*
X67864762Y-117141667D01*
X67817143Y-117189286D01*
X66912381Y-115951191D02*
X66912381Y-115855952D01*
X66960000Y-115760714D01*
X67007619Y-115713095D01*
X67102857Y-115665476D01*
X67293333Y-115617857D01*
X67531429Y-115617857D01*
X67721905Y-115665476D01*
X67817143Y-115713095D01*
X67864762Y-115760714D01*
X67912381Y-115855952D01*
X67912381Y-115951191D01*
X67864762Y-116046429D01*
X67817143Y-116094048D01*
X67721905Y-116141667D01*
X67531429Y-116189286D01*
X67293333Y-116189286D01*
X67102857Y-116141667D01*
X67007619Y-116094048D01*
X66960000Y-116046429D01*
X66912381Y-115951191D01*
X67912381Y-114665476D02*
X67912381Y-115236905D01*
X67912381Y-114951191D02*
X66912381Y-114951191D01*
X67055238Y-115046429D01*
X67150476Y-115141667D01*
X67198095Y-115236905D01*
X66912381Y-114332143D02*
X66912381Y-113665476D01*
X67912381Y-114094048D01*
X129103571Y-119467381D02*
X129294048Y-119467381D01*
X129389286Y-119515000D01*
X129484524Y-119610238D01*
X129532143Y-119800714D01*
X129532143Y-120134048D01*
X129484524Y-120324524D01*
X129389286Y-120419762D01*
X129294048Y-120467381D01*
X129103571Y-120467381D01*
X129008333Y-120419762D01*
X128913095Y-120324524D01*
X128865476Y-120134048D01*
X128865476Y-119800714D01*
X128913095Y-119610238D01*
X129008333Y-119515000D01*
X129103571Y-119467381D01*
X130532143Y-120372143D02*
X130484524Y-120419762D01*
X130341667Y-120467381D01*
X130246429Y-120467381D01*
X130103571Y-120419762D01*
X130008333Y-120324524D01*
X129960714Y-120229286D01*
X129913095Y-120038810D01*
X129913095Y-119895952D01*
X129960714Y-119705476D01*
X130008333Y-119610238D01*
X130103571Y-119515000D01*
X130246429Y-119467381D01*
X130341667Y-119467381D01*
X130484524Y-119515000D01*
X130532143Y-119562619D01*
X131484524Y-120467381D02*
X130913095Y-120467381D01*
X131198809Y-120467381D02*
X131198809Y-119467381D01*
X131103571Y-119610238D01*
X131008333Y-119705476D01*
X130913095Y-119753095D01*
X144343571Y-119467381D02*
X144534048Y-119467381D01*
X144629286Y-119515000D01*
X144724524Y-119610238D01*
X144772143Y-119800714D01*
X144772143Y-120134048D01*
X144724524Y-120324524D01*
X144629286Y-120419762D01*
X144534048Y-120467381D01*
X144343571Y-120467381D01*
X144248333Y-120419762D01*
X144153095Y-120324524D01*
X144105476Y-120134048D01*
X144105476Y-119800714D01*
X144153095Y-119610238D01*
X144248333Y-119515000D01*
X144343571Y-119467381D01*
X145772143Y-120372143D02*
X145724524Y-120419762D01*
X145581667Y-120467381D01*
X145486429Y-120467381D01*
X145343571Y-120419762D01*
X145248333Y-120324524D01*
X145200714Y-120229286D01*
X145153095Y-120038810D01*
X145153095Y-119895952D01*
X145200714Y-119705476D01*
X145248333Y-119610238D01*
X145343571Y-119515000D01*
X145486429Y-119467381D01*
X145581667Y-119467381D01*
X145724524Y-119515000D01*
X145772143Y-119562619D01*
X146153095Y-119562619D02*
X146200714Y-119515000D01*
X146295952Y-119467381D01*
X146534048Y-119467381D01*
X146629286Y-119515000D01*
X146676905Y-119562619D01*
X146724524Y-119657857D01*
X146724524Y-119753095D01*
X146676905Y-119895952D01*
X146105476Y-120467381D01*
X146724524Y-120467381D01*
X159583571Y-119467381D02*
X159774048Y-119467381D01*
X159869286Y-119515000D01*
X159964524Y-119610238D01*
X160012143Y-119800714D01*
X160012143Y-120134048D01*
X159964524Y-120324524D01*
X159869286Y-120419762D01*
X159774048Y-120467381D01*
X159583571Y-120467381D01*
X159488333Y-120419762D01*
X159393095Y-120324524D01*
X159345476Y-120134048D01*
X159345476Y-119800714D01*
X159393095Y-119610238D01*
X159488333Y-119515000D01*
X159583571Y-119467381D01*
X161012143Y-120372143D02*
X160964524Y-120419762D01*
X160821667Y-120467381D01*
X160726429Y-120467381D01*
X160583571Y-120419762D01*
X160488333Y-120324524D01*
X160440714Y-120229286D01*
X160393095Y-120038810D01*
X160393095Y-119895952D01*
X160440714Y-119705476D01*
X160488333Y-119610238D01*
X160583571Y-119515000D01*
X160726429Y-119467381D01*
X160821667Y-119467381D01*
X160964524Y-119515000D01*
X161012143Y-119562619D01*
X161345476Y-119467381D02*
X161964524Y-119467381D01*
X161631190Y-119848333D01*
X161774048Y-119848333D01*
X161869286Y-119895952D01*
X161916905Y-119943571D01*
X161964524Y-120038810D01*
X161964524Y-120276905D01*
X161916905Y-120372143D01*
X161869286Y-120419762D01*
X161774048Y-120467381D01*
X161488333Y-120467381D01*
X161393095Y-120419762D01*
X161345476Y-120372143D01*
X136993334Y-110212143D02*
X136945715Y-110259762D01*
X136802858Y-110307381D01*
X136707620Y-110307381D01*
X136564762Y-110259762D01*
X136469524Y-110164524D01*
X136421905Y-110069286D01*
X136374286Y-109878810D01*
X136374286Y-109735952D01*
X136421905Y-109545476D01*
X136469524Y-109450238D01*
X136564762Y-109355000D01*
X136707620Y-109307381D01*
X136802858Y-109307381D01*
X136945715Y-109355000D01*
X136993334Y-109402619D01*
X137945715Y-110307381D02*
X137374286Y-110307381D01*
X137660000Y-110307381D02*
X137660000Y-109307381D01*
X137564762Y-109450238D01*
X137469524Y-109545476D01*
X137374286Y-109593095D01*
X152233334Y-110212143D02*
X152185715Y-110259762D01*
X152042858Y-110307381D01*
X151947620Y-110307381D01*
X151804762Y-110259762D01*
X151709524Y-110164524D01*
X151661905Y-110069286D01*
X151614286Y-109878810D01*
X151614286Y-109735952D01*
X151661905Y-109545476D01*
X151709524Y-109450238D01*
X151804762Y-109355000D01*
X151947620Y-109307381D01*
X152042858Y-109307381D01*
X152185715Y-109355000D01*
X152233334Y-109402619D01*
X152614286Y-109402619D02*
X152661905Y-109355000D01*
X152757143Y-109307381D01*
X152995239Y-109307381D01*
X153090477Y-109355000D01*
X153138096Y-109402619D01*
X153185715Y-109497857D01*
X153185715Y-109593095D01*
X153138096Y-109735952D01*
X152566667Y-110307381D01*
X153185715Y-110307381D01*
X167473334Y-110212143D02*
X167425715Y-110259762D01*
X167282858Y-110307381D01*
X167187620Y-110307381D01*
X167044762Y-110259762D01*
X166949524Y-110164524D01*
X166901905Y-110069286D01*
X166854286Y-109878810D01*
X166854286Y-109735952D01*
X166901905Y-109545476D01*
X166949524Y-109450238D01*
X167044762Y-109355000D01*
X167187620Y-109307381D01*
X167282858Y-109307381D01*
X167425715Y-109355000D01*
X167473334Y-109402619D01*
X167806667Y-109307381D02*
X168425715Y-109307381D01*
X168092381Y-109688333D01*
X168235239Y-109688333D01*
X168330477Y-109735952D01*
X168378096Y-109783571D01*
X168425715Y-109878810D01*
X168425715Y-110116905D01*
X168378096Y-110212143D01*
X168330477Y-110259762D01*
X168235239Y-110307381D01*
X167949524Y-110307381D01*
X167854286Y-110259762D01*
X167806667Y-110212143D01*
X129373334Y-124912381D02*
X129040000Y-124436190D01*
X128801905Y-124912381D02*
X128801905Y-123912381D01*
X129182858Y-123912381D01*
X129278096Y-123960000D01*
X129325715Y-124007619D01*
X129373334Y-124102857D01*
X129373334Y-124245714D01*
X129325715Y-124340952D01*
X129278096Y-124388571D01*
X129182858Y-124436190D01*
X128801905Y-124436190D01*
X130325715Y-124912381D02*
X129754286Y-124912381D01*
X130040000Y-124912381D02*
X130040000Y-123912381D01*
X129944762Y-124055238D01*
X129849524Y-124150476D01*
X129754286Y-124198095D01*
X129373334Y-122372381D02*
X129040000Y-121896190D01*
X128801905Y-122372381D02*
X128801905Y-121372381D01*
X129182858Y-121372381D01*
X129278096Y-121420000D01*
X129325715Y-121467619D01*
X129373334Y-121562857D01*
X129373334Y-121705714D01*
X129325715Y-121800952D01*
X129278096Y-121848571D01*
X129182858Y-121896190D01*
X128801905Y-121896190D01*
X129754286Y-121467619D02*
X129801905Y-121420000D01*
X129897143Y-121372381D01*
X130135239Y-121372381D01*
X130230477Y-121420000D01*
X130278096Y-121467619D01*
X130325715Y-121562857D01*
X130325715Y-121658095D01*
X130278096Y-121800952D01*
X129706667Y-122372381D01*
X130325715Y-122372381D01*
X117101881Y-115101666D02*
X116625690Y-115435000D01*
X117101881Y-115673095D02*
X116101881Y-115673095D01*
X116101881Y-115292142D01*
X116149500Y-115196904D01*
X116197119Y-115149285D01*
X116292357Y-115101666D01*
X116435214Y-115101666D01*
X116530452Y-115149285D01*
X116578071Y-115196904D01*
X116625690Y-115292142D01*
X116625690Y-115673095D01*
X116101881Y-114768333D02*
X116101881Y-114149285D01*
X116482833Y-114482619D01*
X116482833Y-114339761D01*
X116530452Y-114244523D01*
X116578071Y-114196904D01*
X116673310Y-114149285D01*
X116911405Y-114149285D01*
X117006643Y-114196904D01*
X117054262Y-114244523D01*
X117101881Y-114339761D01*
X117101881Y-114625476D01*
X117054262Y-114720714D01*
X117006643Y-114768333D01*
X137612381Y-122086666D02*
X137136190Y-122420000D01*
X137612381Y-122658095D02*
X136612381Y-122658095D01*
X136612381Y-122277142D01*
X136660000Y-122181904D01*
X136707619Y-122134285D01*
X136802857Y-122086666D01*
X136945714Y-122086666D01*
X137040952Y-122134285D01*
X137088571Y-122181904D01*
X137136190Y-122277142D01*
X137136190Y-122658095D01*
X136945714Y-121229523D02*
X137612381Y-121229523D01*
X136564762Y-121467619D02*
X137279048Y-121705714D01*
X137279048Y-121086666D01*
X144613334Y-122372381D02*
X144280000Y-121896190D01*
X144041905Y-122372381D02*
X144041905Y-121372381D01*
X144422858Y-121372381D01*
X144518096Y-121420000D01*
X144565715Y-121467619D01*
X144613334Y-121562857D01*
X144613334Y-121705714D01*
X144565715Y-121800952D01*
X144518096Y-121848571D01*
X144422858Y-121896190D01*
X144041905Y-121896190D01*
X145518096Y-121372381D02*
X145041905Y-121372381D01*
X144994286Y-121848571D01*
X145041905Y-121800952D01*
X145137143Y-121753333D01*
X145375239Y-121753333D01*
X145470477Y-121800952D01*
X145518096Y-121848571D01*
X145565715Y-121943810D01*
X145565715Y-122181905D01*
X145518096Y-122277143D01*
X145470477Y-122324762D01*
X145375239Y-122372381D01*
X145137143Y-122372381D01*
X145041905Y-122324762D01*
X144994286Y-122277143D01*
X144613334Y-124912381D02*
X144280000Y-124436190D01*
X144041905Y-124912381D02*
X144041905Y-123912381D01*
X144422858Y-123912381D01*
X144518096Y-123960000D01*
X144565715Y-124007619D01*
X144613334Y-124102857D01*
X144613334Y-124245714D01*
X144565715Y-124340952D01*
X144518096Y-124388571D01*
X144422858Y-124436190D01*
X144041905Y-124436190D01*
X145470477Y-123912381D02*
X145280000Y-123912381D01*
X145184762Y-123960000D01*
X145137143Y-124007619D01*
X145041905Y-124150476D01*
X144994286Y-124340952D01*
X144994286Y-124721905D01*
X145041905Y-124817143D01*
X145089524Y-124864762D01*
X145184762Y-124912381D01*
X145375239Y-124912381D01*
X145470477Y-124864762D01*
X145518096Y-124817143D01*
X145565715Y-124721905D01*
X145565715Y-124483810D01*
X145518096Y-124388571D01*
X145470477Y-124340952D01*
X145375239Y-124293333D01*
X145184762Y-124293333D01*
X145089524Y-124340952D01*
X145041905Y-124388571D01*
X144994286Y-124483810D01*
X159853334Y-122372381D02*
X159520000Y-121896190D01*
X159281905Y-122372381D02*
X159281905Y-121372381D01*
X159662858Y-121372381D01*
X159758096Y-121420000D01*
X159805715Y-121467619D01*
X159853334Y-121562857D01*
X159853334Y-121705714D01*
X159805715Y-121800952D01*
X159758096Y-121848571D01*
X159662858Y-121896190D01*
X159281905Y-121896190D01*
X160186667Y-121372381D02*
X160853334Y-121372381D01*
X160424762Y-122372381D01*
X159853334Y-124912381D02*
X159520000Y-124436190D01*
X159281905Y-124912381D02*
X159281905Y-123912381D01*
X159662858Y-123912381D01*
X159758096Y-123960000D01*
X159805715Y-124007619D01*
X159853334Y-124102857D01*
X159853334Y-124245714D01*
X159805715Y-124340952D01*
X159758096Y-124388571D01*
X159662858Y-124436190D01*
X159281905Y-124436190D01*
X160424762Y-124340952D02*
X160329524Y-124293333D01*
X160281905Y-124245714D01*
X160234286Y-124150476D01*
X160234286Y-124102857D01*
X160281905Y-124007619D01*
X160329524Y-123960000D01*
X160424762Y-123912381D01*
X160615239Y-123912381D01*
X160710477Y-123960000D01*
X160758096Y-124007619D01*
X160805715Y-124102857D01*
X160805715Y-124150476D01*
X160758096Y-124245714D01*
X160710477Y-124293333D01*
X160615239Y-124340952D01*
X160424762Y-124340952D01*
X160329524Y-124388571D01*
X160281905Y-124436190D01*
X160234286Y-124531429D01*
X160234286Y-124721905D01*
X160281905Y-124817143D01*
X160329524Y-124864762D01*
X160424762Y-124912381D01*
X160615239Y-124912381D01*
X160710477Y-124864762D01*
X160758096Y-124817143D01*
X160805715Y-124721905D01*
X160805715Y-124531429D01*
X160758096Y-124436190D01*
X160710477Y-124388571D01*
X160615239Y-124340952D01*
X152852381Y-122086666D02*
X152376190Y-122420000D01*
X152852381Y-122658095D02*
X151852381Y-122658095D01*
X151852381Y-122277142D01*
X151900000Y-122181904D01*
X151947619Y-122134285D01*
X152042857Y-122086666D01*
X152185714Y-122086666D01*
X152280952Y-122134285D01*
X152328571Y-122181904D01*
X152376190Y-122277142D01*
X152376190Y-122658095D01*
X152852381Y-121610476D02*
X152852381Y-121420000D01*
X152804762Y-121324761D01*
X152757143Y-121277142D01*
X152614286Y-121181904D01*
X152423810Y-121134285D01*
X152042857Y-121134285D01*
X151947619Y-121181904D01*
X151900000Y-121229523D01*
X151852381Y-121324761D01*
X151852381Y-121515238D01*
X151900000Y-121610476D01*
X151947619Y-121658095D01*
X152042857Y-121705714D01*
X152280952Y-121705714D01*
X152376190Y-121658095D01*
X152423810Y-121610476D01*
X152471429Y-121515238D01*
X152471429Y-121324761D01*
X152423810Y-121229523D01*
X152376190Y-121181904D01*
X152280952Y-121134285D01*
X122880381Y-115577857D02*
X122404190Y-115911191D01*
X122880381Y-116149286D02*
X121880381Y-116149286D01*
X121880381Y-115768333D01*
X121928000Y-115673095D01*
X121975619Y-115625476D01*
X122070857Y-115577857D01*
X122213714Y-115577857D01*
X122308952Y-115625476D01*
X122356571Y-115673095D01*
X122404190Y-115768333D01*
X122404190Y-116149286D01*
X122880381Y-114625476D02*
X122880381Y-115196905D01*
X122880381Y-114911191D02*
X121880381Y-114911191D01*
X122023238Y-115006429D01*
X122118476Y-115101667D01*
X122166095Y-115196905D01*
X121880381Y-114006429D02*
X121880381Y-113911190D01*
X121928000Y-113815952D01*
X121975619Y-113768333D01*
X122070857Y-113720714D01*
X122261333Y-113673095D01*
X122499429Y-113673095D01*
X122689905Y-113720714D01*
X122785143Y-113768333D01*
X122832762Y-113815952D01*
X122880381Y-113911190D01*
X122880381Y-114006429D01*
X122832762Y-114101667D01*
X122785143Y-114149286D01*
X122689905Y-114196905D01*
X122499429Y-114244524D01*
X122261333Y-114244524D01*
X122070857Y-114196905D01*
X121975619Y-114149286D01*
X121928000Y-114101667D01*
X121880381Y-114006429D01*
X127531905Y-127452381D02*
X127531905Y-126452381D01*
X127770000Y-126452381D01*
X127912858Y-126500000D01*
X128008096Y-126595238D01*
X128055715Y-126690476D01*
X128103334Y-126880952D01*
X128103334Y-127023810D01*
X128055715Y-127214286D01*
X128008096Y-127309524D01*
X127912858Y-127404762D01*
X127770000Y-127452381D01*
X127531905Y-127452381D01*
X129055715Y-127452381D02*
X128484286Y-127452381D01*
X128770000Y-127452381D02*
X128770000Y-126452381D01*
X128674762Y-126595238D01*
X128579524Y-126690476D01*
X128484286Y-126738095D01*
X142771905Y-127452381D02*
X142771905Y-126452381D01*
X143010000Y-126452381D01*
X143152858Y-126500000D01*
X143248096Y-126595238D01*
X143295715Y-126690476D01*
X143343334Y-126880952D01*
X143343334Y-127023810D01*
X143295715Y-127214286D01*
X143248096Y-127309524D01*
X143152858Y-127404762D01*
X143010000Y-127452381D01*
X142771905Y-127452381D01*
X143676667Y-126452381D02*
X144295715Y-126452381D01*
X143962381Y-126833333D01*
X144105239Y-126833333D01*
X144200477Y-126880952D01*
X144248096Y-126928571D01*
X144295715Y-127023810D01*
X144295715Y-127261905D01*
X144248096Y-127357143D01*
X144200477Y-127404762D01*
X144105239Y-127452381D01*
X143819524Y-127452381D01*
X143724286Y-127404762D01*
X143676667Y-127357143D01*
X158011905Y-127452381D02*
X158011905Y-126452381D01*
X158250000Y-126452381D01*
X158392858Y-126500000D01*
X158488096Y-126595238D01*
X158535715Y-126690476D01*
X158583334Y-126880952D01*
X158583334Y-127023810D01*
X158535715Y-127214286D01*
X158488096Y-127309524D01*
X158392858Y-127404762D01*
X158250000Y-127452381D01*
X158011905Y-127452381D01*
X159440477Y-126785714D02*
X159440477Y-127452381D01*
X159202381Y-126404762D02*
X158964286Y-127119048D01*
X159583334Y-127119048D01*
X93178334Y-110212143D02*
X93130715Y-110259762D01*
X92987858Y-110307381D01*
X92892620Y-110307381D01*
X92749762Y-110259762D01*
X92654524Y-110164524D01*
X92606905Y-110069286D01*
X92559286Y-109878810D01*
X92559286Y-109735952D01*
X92606905Y-109545476D01*
X92654524Y-109450238D01*
X92749762Y-109355000D01*
X92892620Y-109307381D01*
X92987858Y-109307381D01*
X93130715Y-109355000D01*
X93178334Y-109402619D01*
X94035477Y-109640714D02*
X94035477Y-110307381D01*
X93797381Y-109259762D02*
X93559286Y-109974048D01*
X94178334Y-109974048D01*
X70830072Y-124047643D02*
X70782453Y-124095262D01*
X70639596Y-124142881D01*
X70544358Y-124142881D01*
X70401500Y-124095262D01*
X70306262Y-124000024D01*
X70258643Y-123904786D01*
X70211024Y-123714310D01*
X70211024Y-123571452D01*
X70258643Y-123380976D01*
X70306262Y-123285738D01*
X70401500Y-123190500D01*
X70544358Y-123142881D01*
X70639596Y-123142881D01*
X70782453Y-123190500D01*
X70830072Y-123238119D01*
X71115786Y-123142881D02*
X71687215Y-123142881D01*
X71401500Y-124142881D02*
X71401500Y-123142881D01*
X72591977Y-124142881D02*
X72258643Y-123666690D01*
X72020548Y-124142881D02*
X72020548Y-123142881D01*
X72401501Y-123142881D01*
X72496739Y-123190500D01*
X72544358Y-123238119D01*
X72591977Y-123333357D01*
X72591977Y-123476214D01*
X72544358Y-123571452D01*
X72496739Y-123619071D01*
X72401501Y-123666690D01*
X72020548Y-123666690D01*
X73496739Y-124142881D02*
X73020548Y-124142881D01*
X73020548Y-123142881D01*
X73830072Y-123761929D02*
X74591977Y-123761929D01*
X75591977Y-124142881D02*
X75020548Y-124142881D01*
X75306262Y-124142881D02*
X75306262Y-123142881D01*
X75211024Y-123285738D01*
X75115786Y-123380976D01*
X75020548Y-123428595D01*
X84800072Y-124047643D02*
X84752453Y-124095262D01*
X84609596Y-124142881D01*
X84514358Y-124142881D01*
X84371500Y-124095262D01*
X84276262Y-124000024D01*
X84228643Y-123904786D01*
X84181024Y-123714310D01*
X84181024Y-123571452D01*
X84228643Y-123380976D01*
X84276262Y-123285738D01*
X84371500Y-123190500D01*
X84514358Y-123142881D01*
X84609596Y-123142881D01*
X84752453Y-123190500D01*
X84800072Y-123238119D01*
X85085786Y-123142881D02*
X85657215Y-123142881D01*
X85371500Y-124142881D02*
X85371500Y-123142881D01*
X86561977Y-124142881D02*
X86228643Y-123666690D01*
X85990548Y-124142881D02*
X85990548Y-123142881D01*
X86371501Y-123142881D01*
X86466739Y-123190500D01*
X86514358Y-123238119D01*
X86561977Y-123333357D01*
X86561977Y-123476214D01*
X86514358Y-123571452D01*
X86466739Y-123619071D01*
X86371501Y-123666690D01*
X85990548Y-123666690D01*
X87466739Y-124142881D02*
X86990548Y-124142881D01*
X86990548Y-123142881D01*
X87800072Y-123761929D02*
X88561977Y-123761929D01*
X88990548Y-123238119D02*
X89038167Y-123190500D01*
X89133405Y-123142881D01*
X89371501Y-123142881D01*
X89466739Y-123190500D01*
X89514358Y-123238119D01*
X89561977Y-123333357D01*
X89561977Y-123428595D01*
X89514358Y-123571452D01*
X88942929Y-124142881D01*
X89561977Y-124142881D01*
X99976572Y-124047643D02*
X99928953Y-124095262D01*
X99786096Y-124142881D01*
X99690858Y-124142881D01*
X99548000Y-124095262D01*
X99452762Y-124000024D01*
X99405143Y-123904786D01*
X99357524Y-123714310D01*
X99357524Y-123571452D01*
X99405143Y-123380976D01*
X99452762Y-123285738D01*
X99548000Y-123190500D01*
X99690858Y-123142881D01*
X99786096Y-123142881D01*
X99928953Y-123190500D01*
X99976572Y-123238119D01*
X100262286Y-123142881D02*
X100833715Y-123142881D01*
X100548000Y-124142881D02*
X100548000Y-123142881D01*
X101738477Y-124142881D02*
X101405143Y-123666690D01*
X101167048Y-124142881D02*
X101167048Y-123142881D01*
X101548001Y-123142881D01*
X101643239Y-123190500D01*
X101690858Y-123238119D01*
X101738477Y-123333357D01*
X101738477Y-123476214D01*
X101690858Y-123571452D01*
X101643239Y-123619071D01*
X101548001Y-123666690D01*
X101167048Y-123666690D01*
X102643239Y-124142881D02*
X102167048Y-124142881D01*
X102167048Y-123142881D01*
X102976572Y-123761929D02*
X103738477Y-123761929D01*
X104119429Y-123142881D02*
X104738477Y-123142881D01*
X104405143Y-123523833D01*
X104548001Y-123523833D01*
X104643239Y-123571452D01*
X104690858Y-123619071D01*
X104738477Y-123714310D01*
X104738477Y-123952405D01*
X104690858Y-124047643D01*
X104643239Y-124095262D01*
X104548001Y-124142881D01*
X104262286Y-124142881D01*
X104167048Y-124095262D01*
X104119429Y-124047643D01*
X113946572Y-124047643D02*
X113898953Y-124095262D01*
X113756096Y-124142881D01*
X113660858Y-124142881D01*
X113518000Y-124095262D01*
X113422762Y-124000024D01*
X113375143Y-123904786D01*
X113327524Y-123714310D01*
X113327524Y-123571452D01*
X113375143Y-123380976D01*
X113422762Y-123285738D01*
X113518000Y-123190500D01*
X113660858Y-123142881D01*
X113756096Y-123142881D01*
X113898953Y-123190500D01*
X113946572Y-123238119D01*
X114232286Y-123142881D02*
X114803715Y-123142881D01*
X114518000Y-124142881D02*
X114518000Y-123142881D01*
X115708477Y-124142881D02*
X115375143Y-123666690D01*
X115137048Y-124142881D02*
X115137048Y-123142881D01*
X115518001Y-123142881D01*
X115613239Y-123190500D01*
X115660858Y-123238119D01*
X115708477Y-123333357D01*
X115708477Y-123476214D01*
X115660858Y-123571452D01*
X115613239Y-123619071D01*
X115518001Y-123666690D01*
X115137048Y-123666690D01*
X116613239Y-124142881D02*
X116137048Y-124142881D01*
X116137048Y-123142881D01*
X116946572Y-123761929D02*
X117708477Y-123761929D01*
X118613239Y-123476214D02*
X118613239Y-124142881D01*
X118375143Y-123095262D02*
X118137048Y-123809548D01*
X118756096Y-123809548D01*
X129516525Y-109545381D02*
X129516525Y-108545381D01*
X129849859Y-109259667D01*
X130183192Y-108545381D01*
X130183192Y-109545381D01*
X130659382Y-109545381D02*
X130659382Y-108545381D01*
X131135572Y-109545381D02*
X131135572Y-108545381D01*
X131373667Y-108545381D01*
X131516525Y-108593000D01*
X131611763Y-108688238D01*
X131659382Y-108783476D01*
X131707001Y-108973952D01*
X131707001Y-109116810D01*
X131659382Y-109307286D01*
X131611763Y-109402524D01*
X131516525Y-109497762D01*
X131373667Y-109545381D01*
X131135572Y-109545381D01*
X132135572Y-109545381D02*
X132135572Y-108545381D01*
X132611762Y-109164429D02*
X133373667Y-109164429D01*
X133849857Y-109545381D02*
X133849857Y-108545381D01*
X134326047Y-109545381D02*
X134326047Y-108545381D01*
X134897476Y-109545381D01*
X134897476Y-108545381D01*
X143145358Y-109545381D02*
X143145358Y-108545381D01*
X143478692Y-109259667D01*
X143812025Y-108545381D01*
X143812025Y-109545381D01*
X144288215Y-109545381D02*
X144288215Y-108545381D01*
X144764405Y-109545381D02*
X144764405Y-108545381D01*
X145002500Y-108545381D01*
X145145358Y-108593000D01*
X145240596Y-108688238D01*
X145288215Y-108783476D01*
X145335834Y-108973952D01*
X145335834Y-109116810D01*
X145288215Y-109307286D01*
X145240596Y-109402524D01*
X145145358Y-109497762D01*
X145002500Y-109545381D01*
X144764405Y-109545381D01*
X145764405Y-109545381D02*
X145764405Y-108545381D01*
X146240595Y-109164429D02*
X147002500Y-109164429D01*
X147335833Y-108545381D02*
X147907262Y-108545381D01*
X147621547Y-109545381D02*
X147621547Y-108545381D01*
X148240595Y-109545381D02*
X148240595Y-108545381D01*
X148240595Y-109021571D02*
X148812024Y-109021571D01*
X148812024Y-109545381D02*
X148812024Y-108545381D01*
X149859643Y-109545381D02*
X149526309Y-109069190D01*
X149288214Y-109545381D02*
X149288214Y-108545381D01*
X149669167Y-108545381D01*
X149764405Y-108593000D01*
X149812024Y-108640619D01*
X149859643Y-108735857D01*
X149859643Y-108878714D01*
X149812024Y-108973952D01*
X149764405Y-109021571D01*
X149669167Y-109069190D01*
X149288214Y-109069190D01*
X150288214Y-108545381D02*
X150288214Y-109354905D01*
X150335833Y-109450143D01*
X150383452Y-109497762D01*
X150478690Y-109545381D01*
X150669167Y-109545381D01*
X150764405Y-109497762D01*
X150812024Y-109450143D01*
X150859643Y-109354905D01*
X150859643Y-108545381D01*
X158123358Y-109545381D02*
X158123358Y-108545381D01*
X158456692Y-109259667D01*
X158790025Y-108545381D01*
X158790025Y-109545381D01*
X159266215Y-109545381D02*
X159266215Y-108545381D01*
X159742405Y-109545381D02*
X159742405Y-108545381D01*
X159980500Y-108545381D01*
X160123358Y-108593000D01*
X160218596Y-108688238D01*
X160266215Y-108783476D01*
X160313834Y-108973952D01*
X160313834Y-109116810D01*
X160266215Y-109307286D01*
X160218596Y-109402524D01*
X160123358Y-109497762D01*
X159980500Y-109545381D01*
X159742405Y-109545381D01*
X160742405Y-109545381D02*
X160742405Y-108545381D01*
X161218595Y-109164429D02*
X161980500Y-109164429D01*
X162647166Y-108545381D02*
X162837643Y-108545381D01*
X162932881Y-108593000D01*
X163028119Y-108688238D01*
X163075738Y-108878714D01*
X163075738Y-109212048D01*
X163028119Y-109402524D01*
X162932881Y-109497762D01*
X162837643Y-109545381D01*
X162647166Y-109545381D01*
X162551928Y-109497762D01*
X162456690Y-109402524D01*
X162409071Y-109212048D01*
X162409071Y-108878714D01*
X162456690Y-108688238D01*
X162551928Y-108593000D01*
X162647166Y-108545381D01*
X163504309Y-108545381D02*
X163504309Y-109354905D01*
X163551928Y-109450143D01*
X163599547Y-109497762D01*
X163694785Y-109545381D01*
X163885262Y-109545381D01*
X163980500Y-109497762D01*
X164028119Y-109450143D01*
X164075738Y-109354905D01*
X164075738Y-108545381D01*
X164409071Y-108545381D02*
X164980500Y-108545381D01*
X164694785Y-109545381D02*
X164694785Y-108545381D01*
X120022881Y-115609595D02*
X119022881Y-115609595D01*
X119022881Y-115371500D01*
X119070500Y-115228642D01*
X119165738Y-115133404D01*
X119260976Y-115085785D01*
X119451452Y-115038166D01*
X119594310Y-115038166D01*
X119784786Y-115085785D01*
X119880024Y-115133404D01*
X119975262Y-115228642D01*
X120022881Y-115371500D01*
X120022881Y-115609595D01*
X119118119Y-114657214D02*
X119070500Y-114609595D01*
X119022881Y-114514357D01*
X119022881Y-114276261D01*
X119070500Y-114181023D01*
X119118119Y-114133404D01*
X119213357Y-114085785D01*
X119308595Y-114085785D01*
X119451452Y-114133404D01*
X120022881Y-114704833D01*
X120022881Y-114085785D01*
X113696262Y-118077381D02*
X113743881Y-117934524D01*
X113743881Y-117696428D01*
X113696262Y-117601190D01*
X113648643Y-117553571D01*
X113553405Y-117505952D01*
X113458167Y-117505952D01*
X113362929Y-117553571D01*
X113315310Y-117601190D01*
X113267690Y-117696428D01*
X113220071Y-117886905D01*
X113172452Y-117982143D01*
X113124833Y-118029762D01*
X113029595Y-118077381D01*
X112934357Y-118077381D01*
X112839119Y-118029762D01*
X112791500Y-117982143D01*
X112743881Y-117886905D01*
X112743881Y-117648809D01*
X112791500Y-117505952D01*
X112743881Y-117172619D02*
X113743881Y-116934524D01*
X113029595Y-116744047D01*
X113743881Y-116553571D01*
X112743881Y-116315476D01*
X113362929Y-115934524D02*
X113362929Y-115172619D01*
X113743881Y-114172619D02*
X113743881Y-114744048D01*
X113743881Y-114458334D02*
X112743881Y-114458334D01*
X112886738Y-114553572D01*
X112981976Y-114648810D01*
X113029595Y-114744048D01*
M02*
