G04 MADE WITH FRITZING*
G04 WWW.FRITZING.ORG*
G04 DOUBLE SIDED*
G04 HOLES PLATED*
G04 CONTOUR ON CENTER OF CONTOUR VECTOR*
%ASAXBY*%
%FSLAX23Y23*%
%MOIN*%
%OFA0B0*%
%SFA1.0B1.0*%
%ADD10C,0.080000*%
%ADD11C,0.084000*%
%ADD12R,0.001000X0.001000*%
%LNMASK0*%
G90*
G70*
G54D10*
X519Y242D03*
X619Y242D03*
X120Y243D03*
X221Y243D03*
X422Y243D03*
X321Y243D03*
G54D11*
X514Y64D03*
X414Y74D03*
X314Y64D03*
X214Y74D03*
G54D12*
X253Y1023D02*
X267Y1023D01*
X453Y1023D02*
X467Y1023D01*
X249Y1022D02*
X272Y1022D01*
X448Y1022D02*
X471Y1022D01*
X245Y1021D02*
X275Y1021D01*
X445Y1021D02*
X475Y1021D01*
X243Y1020D02*
X277Y1020D01*
X443Y1020D02*
X477Y1020D01*
X241Y1019D02*
X279Y1019D01*
X441Y1019D02*
X479Y1019D01*
X239Y1018D02*
X281Y1018D01*
X439Y1018D02*
X481Y1018D01*
X237Y1017D02*
X283Y1017D01*
X437Y1017D02*
X483Y1017D01*
X236Y1016D02*
X285Y1016D01*
X436Y1016D02*
X484Y1016D01*
X234Y1015D02*
X286Y1015D01*
X434Y1015D02*
X486Y1015D01*
X233Y1014D02*
X287Y1014D01*
X433Y1014D02*
X487Y1014D01*
X232Y1013D02*
X288Y1013D01*
X432Y1013D02*
X488Y1013D01*
X231Y1012D02*
X290Y1012D01*
X430Y1012D02*
X489Y1012D01*
X229Y1011D02*
X291Y1011D01*
X429Y1011D02*
X491Y1011D01*
X229Y1010D02*
X292Y1010D01*
X428Y1010D02*
X492Y1010D01*
X228Y1009D02*
X293Y1009D01*
X428Y1009D02*
X492Y1009D01*
X227Y1008D02*
X293Y1008D01*
X427Y1008D02*
X493Y1008D01*
X226Y1007D02*
X294Y1007D01*
X426Y1007D02*
X494Y1007D01*
X225Y1006D02*
X295Y1006D01*
X425Y1006D02*
X495Y1006D01*
X224Y1005D02*
X296Y1005D01*
X424Y1005D02*
X496Y1005D01*
X224Y1004D02*
X296Y1004D01*
X424Y1004D02*
X496Y1004D01*
X223Y1003D02*
X297Y1003D01*
X423Y1003D02*
X497Y1003D01*
X223Y1002D02*
X298Y1002D01*
X422Y1002D02*
X498Y1002D01*
X222Y1001D02*
X298Y1001D01*
X422Y1001D02*
X498Y1001D01*
X221Y1000D02*
X299Y1000D01*
X421Y1000D02*
X499Y1000D01*
X221Y999D02*
X299Y999D01*
X421Y999D02*
X499Y999D01*
X220Y998D02*
X300Y998D01*
X420Y998D02*
X500Y998D01*
X220Y997D02*
X300Y997D01*
X420Y997D02*
X500Y997D01*
X219Y996D02*
X301Y996D01*
X419Y996D02*
X501Y996D01*
X219Y995D02*
X301Y995D01*
X419Y995D02*
X501Y995D01*
X219Y994D02*
X301Y994D01*
X419Y994D02*
X501Y994D01*
X218Y993D02*
X302Y993D01*
X418Y993D02*
X502Y993D01*
X218Y992D02*
X302Y992D01*
X418Y992D02*
X502Y992D01*
X218Y991D02*
X302Y991D01*
X418Y991D02*
X502Y991D01*
X218Y990D02*
X303Y990D01*
X417Y990D02*
X503Y990D01*
X217Y989D02*
X303Y989D01*
X417Y989D02*
X503Y989D01*
X217Y988D02*
X303Y988D01*
X417Y988D02*
X503Y988D01*
X217Y987D02*
X303Y987D01*
X417Y987D02*
X503Y987D01*
X217Y986D02*
X303Y986D01*
X417Y986D02*
X503Y986D01*
X217Y985D02*
X304Y985D01*
X417Y985D02*
X503Y985D01*
X216Y984D02*
X304Y984D01*
X416Y984D02*
X504Y984D01*
X216Y983D02*
X304Y983D01*
X416Y983D02*
X504Y983D01*
X216Y982D02*
X304Y982D01*
X416Y982D02*
X504Y982D01*
X216Y981D02*
X304Y981D01*
X416Y981D02*
X504Y981D01*
X216Y980D02*
X304Y980D01*
X416Y980D02*
X504Y980D01*
X216Y979D02*
X304Y979D01*
X416Y979D02*
X504Y979D01*
X216Y978D02*
X304Y978D01*
X416Y978D02*
X504Y978D01*
X216Y977D02*
X304Y977D01*
X416Y977D02*
X504Y977D01*
X216Y976D02*
X304Y976D01*
X416Y976D02*
X504Y976D01*
X216Y975D02*
X304Y975D01*
X416Y975D02*
X504Y975D01*
X217Y974D02*
X304Y974D01*
X416Y974D02*
X504Y974D01*
X217Y973D02*
X303Y973D01*
X417Y973D02*
X503Y973D01*
X217Y972D02*
X303Y972D01*
X417Y972D02*
X503Y972D01*
X217Y971D02*
X303Y971D01*
X417Y971D02*
X503Y971D01*
X217Y970D02*
X303Y970D01*
X417Y970D02*
X503Y970D01*
X217Y969D02*
X303Y969D01*
X417Y969D02*
X503Y969D01*
X218Y968D02*
X302Y968D01*
X418Y968D02*
X502Y968D01*
X218Y967D02*
X302Y967D01*
X418Y967D02*
X502Y967D01*
X218Y966D02*
X302Y966D01*
X418Y966D02*
X502Y966D01*
X219Y965D02*
X302Y965D01*
X418Y965D02*
X501Y965D01*
X219Y964D02*
X301Y964D01*
X419Y964D02*
X501Y964D01*
X219Y963D02*
X301Y963D01*
X419Y963D02*
X501Y963D01*
X220Y962D02*
X300Y962D01*
X420Y962D02*
X500Y962D01*
X220Y961D02*
X300Y961D01*
X420Y961D02*
X500Y961D01*
X221Y960D02*
X300Y960D01*
X421Y960D02*
X499Y960D01*
X221Y959D02*
X299Y959D01*
X421Y959D02*
X499Y959D01*
X222Y958D02*
X299Y958D01*
X422Y958D02*
X498Y958D01*
X222Y957D02*
X298Y957D01*
X422Y957D02*
X498Y957D01*
X223Y956D02*
X297Y956D01*
X423Y956D02*
X497Y956D01*
X224Y955D02*
X297Y955D01*
X423Y955D02*
X497Y955D01*
X224Y954D02*
X296Y954D01*
X424Y954D02*
X496Y954D01*
X225Y953D02*
X295Y953D01*
X425Y953D02*
X495Y953D01*
X226Y952D02*
X295Y952D01*
X426Y952D02*
X494Y952D01*
X226Y951D02*
X294Y951D01*
X426Y951D02*
X494Y951D01*
X227Y950D02*
X293Y950D01*
X427Y950D02*
X493Y950D01*
X228Y949D02*
X292Y949D01*
X428Y949D02*
X492Y949D01*
X229Y948D02*
X291Y948D01*
X429Y948D02*
X491Y948D01*
X230Y947D02*
X290Y947D01*
X430Y947D02*
X490Y947D01*
X231Y946D02*
X289Y946D01*
X431Y946D02*
X489Y946D01*
X232Y945D02*
X288Y945D01*
X432Y945D02*
X488Y945D01*
X234Y944D02*
X286Y944D01*
X434Y944D02*
X486Y944D01*
X235Y943D02*
X285Y943D01*
X435Y943D02*
X485Y943D01*
X237Y942D02*
X284Y942D01*
X437Y942D02*
X483Y942D01*
X238Y941D02*
X282Y941D01*
X438Y941D02*
X482Y941D01*
X240Y940D02*
X280Y940D01*
X440Y940D02*
X480Y940D01*
X242Y939D02*
X278Y939D01*
X442Y939D02*
X478Y939D01*
X244Y938D02*
X276Y938D01*
X444Y938D02*
X476Y938D01*
X247Y937D02*
X273Y937D01*
X447Y937D02*
X473Y937D01*
X251Y936D02*
X269Y936D01*
X451Y936D02*
X469Y936D01*
X259Y935D02*
X261Y935D01*
X459Y935D02*
X461Y935D01*
X252Y423D02*
X269Y423D01*
X352Y423D02*
X369Y423D01*
X452Y423D02*
X468Y423D01*
X248Y422D02*
X273Y422D01*
X348Y422D02*
X373Y422D01*
X448Y422D02*
X472Y422D01*
X245Y421D02*
X276Y421D01*
X345Y421D02*
X375Y421D01*
X445Y421D02*
X475Y421D01*
X242Y420D02*
X278Y420D01*
X342Y420D02*
X378Y420D01*
X442Y420D02*
X478Y420D01*
X240Y419D02*
X280Y419D01*
X340Y419D02*
X380Y419D01*
X440Y419D02*
X480Y419D01*
X238Y418D02*
X282Y418D01*
X338Y418D02*
X382Y418D01*
X438Y418D02*
X482Y418D01*
X237Y417D02*
X283Y417D01*
X337Y417D02*
X383Y417D01*
X437Y417D02*
X483Y417D01*
X235Y416D02*
X285Y416D01*
X335Y416D02*
X385Y416D01*
X435Y416D02*
X485Y416D01*
X234Y415D02*
X286Y415D01*
X334Y415D02*
X386Y415D01*
X434Y415D02*
X486Y415D01*
X233Y414D02*
X288Y414D01*
X333Y414D02*
X388Y414D01*
X433Y414D02*
X487Y414D01*
X231Y413D02*
X289Y413D01*
X331Y413D02*
X389Y413D01*
X431Y413D02*
X489Y413D01*
X230Y412D02*
X290Y412D01*
X330Y412D02*
X390Y412D01*
X430Y412D02*
X490Y412D01*
X229Y411D02*
X291Y411D01*
X329Y411D02*
X391Y411D01*
X429Y411D02*
X491Y411D01*
X228Y410D02*
X292Y410D01*
X328Y410D02*
X392Y410D01*
X428Y410D02*
X492Y410D01*
X227Y409D02*
X293Y409D01*
X327Y409D02*
X393Y409D01*
X427Y409D02*
X493Y409D01*
X227Y408D02*
X294Y408D01*
X326Y408D02*
X394Y408D01*
X426Y408D02*
X494Y408D01*
X226Y407D02*
X294Y407D01*
X326Y407D02*
X394Y407D01*
X426Y407D02*
X494Y407D01*
X225Y406D02*
X295Y406D01*
X325Y406D02*
X395Y406D01*
X425Y406D02*
X495Y406D01*
X224Y405D02*
X296Y405D01*
X324Y405D02*
X396Y405D01*
X424Y405D02*
X496Y405D01*
X224Y404D02*
X297Y404D01*
X324Y404D02*
X397Y404D01*
X423Y404D02*
X496Y404D01*
X223Y403D02*
X297Y403D01*
X323Y403D02*
X397Y403D01*
X423Y403D02*
X497Y403D01*
X222Y402D02*
X298Y402D01*
X322Y402D02*
X398Y402D01*
X422Y402D02*
X498Y402D01*
X222Y401D02*
X298Y401D01*
X322Y401D02*
X398Y401D01*
X422Y401D02*
X498Y401D01*
X221Y400D02*
X299Y400D01*
X321Y400D02*
X399Y400D01*
X421Y400D02*
X499Y400D01*
X221Y399D02*
X299Y399D01*
X321Y399D02*
X399Y399D01*
X421Y399D02*
X499Y399D01*
X220Y398D02*
X300Y398D01*
X320Y398D02*
X400Y398D01*
X420Y398D02*
X500Y398D01*
X220Y397D02*
X300Y397D01*
X320Y397D02*
X400Y397D01*
X420Y397D02*
X500Y397D01*
X219Y396D02*
X301Y396D01*
X319Y396D02*
X401Y396D01*
X419Y396D02*
X501Y396D01*
X219Y395D02*
X301Y395D01*
X319Y395D02*
X401Y395D01*
X419Y395D02*
X501Y395D01*
X219Y394D02*
X302Y394D01*
X319Y394D02*
X401Y394D01*
X419Y394D02*
X501Y394D01*
X218Y393D02*
X302Y393D01*
X318Y393D02*
X402Y393D01*
X418Y393D02*
X502Y393D01*
X218Y392D02*
X302Y392D01*
X318Y392D02*
X402Y392D01*
X418Y392D02*
X502Y392D01*
X218Y391D02*
X302Y391D01*
X318Y391D02*
X402Y391D01*
X418Y391D02*
X502Y391D01*
X218Y390D02*
X303Y390D01*
X317Y390D02*
X403Y390D01*
X417Y390D02*
X503Y390D01*
X217Y389D02*
X303Y389D01*
X317Y389D02*
X403Y389D01*
X417Y389D02*
X503Y389D01*
X217Y388D02*
X303Y388D01*
X317Y388D02*
X403Y388D01*
X417Y388D02*
X503Y388D01*
X217Y387D02*
X303Y387D01*
X317Y387D02*
X403Y387D01*
X417Y387D02*
X503Y387D01*
X217Y386D02*
X303Y386D01*
X317Y386D02*
X403Y386D01*
X417Y386D02*
X503Y386D01*
X217Y385D02*
X304Y385D01*
X317Y385D02*
X404Y385D01*
X416Y385D02*
X503Y385D01*
X216Y384D02*
X304Y384D01*
X316Y384D02*
X404Y384D01*
X416Y384D02*
X504Y384D01*
X216Y383D02*
X304Y383D01*
X316Y383D02*
X404Y383D01*
X416Y383D02*
X504Y383D01*
X216Y382D02*
X304Y382D01*
X316Y382D02*
X404Y382D01*
X416Y382D02*
X504Y382D01*
X216Y381D02*
X304Y381D01*
X316Y381D02*
X404Y381D01*
X416Y381D02*
X504Y381D01*
X216Y380D02*
X304Y380D01*
X316Y380D02*
X404Y380D01*
X416Y380D02*
X504Y380D01*
X216Y379D02*
X304Y379D01*
X316Y379D02*
X404Y379D01*
X416Y379D02*
X504Y379D01*
X216Y378D02*
X304Y378D01*
X316Y378D02*
X404Y378D01*
X416Y378D02*
X504Y378D01*
X216Y377D02*
X304Y377D01*
X316Y377D02*
X404Y377D01*
X416Y377D02*
X504Y377D01*
X216Y376D02*
X304Y376D01*
X316Y376D02*
X404Y376D01*
X416Y376D02*
X504Y376D01*
X216Y375D02*
X304Y375D01*
X316Y375D02*
X404Y375D01*
X416Y375D02*
X504Y375D01*
X217Y374D02*
X304Y374D01*
X317Y374D02*
X404Y374D01*
X417Y374D02*
X503Y374D01*
X217Y373D02*
X303Y373D01*
X317Y373D02*
X403Y373D01*
X417Y373D02*
X503Y373D01*
X217Y372D02*
X303Y372D01*
X317Y372D02*
X403Y372D01*
X417Y372D02*
X503Y372D01*
X217Y371D02*
X303Y371D01*
X317Y371D02*
X403Y371D01*
X417Y371D02*
X503Y371D01*
X217Y370D02*
X303Y370D01*
X317Y370D02*
X403Y370D01*
X417Y370D02*
X503Y370D01*
X218Y369D02*
X303Y369D01*
X317Y369D02*
X403Y369D01*
X417Y369D02*
X503Y369D01*
X218Y368D02*
X302Y368D01*
X318Y368D02*
X402Y368D01*
X418Y368D02*
X502Y368D01*
X218Y367D02*
X302Y367D01*
X318Y367D02*
X402Y367D01*
X418Y367D02*
X502Y367D01*
X218Y366D02*
X302Y366D01*
X318Y366D02*
X402Y366D01*
X418Y366D02*
X502Y366D01*
X219Y365D02*
X301Y365D01*
X319Y365D02*
X401Y365D01*
X419Y365D02*
X501Y365D01*
X219Y364D02*
X301Y364D01*
X319Y364D02*
X401Y364D01*
X419Y364D02*
X501Y364D01*
X219Y363D02*
X301Y363D01*
X319Y363D02*
X401Y363D01*
X419Y363D02*
X501Y363D01*
X220Y362D02*
X300Y362D01*
X320Y362D02*
X400Y362D01*
X420Y362D02*
X500Y362D01*
X220Y361D02*
X300Y361D01*
X320Y361D02*
X400Y361D01*
X420Y361D02*
X500Y361D01*
X221Y360D02*
X299Y360D01*
X321Y360D02*
X399Y360D01*
X421Y360D02*
X499Y360D01*
X221Y359D02*
X299Y359D01*
X321Y359D02*
X399Y359D01*
X421Y359D02*
X499Y359D01*
X222Y358D02*
X298Y358D01*
X322Y358D02*
X398Y358D01*
X422Y358D02*
X498Y358D01*
X222Y357D02*
X298Y357D01*
X322Y357D02*
X398Y357D01*
X422Y357D02*
X498Y357D01*
X223Y356D02*
X297Y356D01*
X323Y356D02*
X397Y356D01*
X423Y356D02*
X497Y356D01*
X224Y355D02*
X297Y355D01*
X324Y355D02*
X396Y355D01*
X424Y355D02*
X496Y355D01*
X224Y354D02*
X296Y354D01*
X324Y354D02*
X396Y354D01*
X424Y354D02*
X496Y354D01*
X225Y353D02*
X295Y353D01*
X325Y353D02*
X395Y353D01*
X425Y353D02*
X495Y353D01*
X226Y352D02*
X294Y352D01*
X326Y352D02*
X394Y352D01*
X426Y352D02*
X494Y352D01*
X227Y351D02*
X294Y351D01*
X327Y351D02*
X394Y351D01*
X427Y351D02*
X493Y351D01*
X228Y350D02*
X293Y350D01*
X327Y350D02*
X393Y350D01*
X427Y350D02*
X493Y350D01*
X228Y349D02*
X292Y349D01*
X328Y349D02*
X392Y349D01*
X428Y349D02*
X492Y349D01*
X229Y348D02*
X291Y348D01*
X329Y348D02*
X391Y348D01*
X429Y348D02*
X491Y348D01*
X230Y347D02*
X290Y347D01*
X330Y347D02*
X390Y347D01*
X430Y347D02*
X490Y347D01*
X232Y346D02*
X289Y346D01*
X332Y346D02*
X389Y346D01*
X431Y346D02*
X489Y346D01*
X233Y345D02*
X287Y345D01*
X333Y345D02*
X387Y345D01*
X433Y345D02*
X487Y345D01*
X234Y344D02*
X286Y344D01*
X334Y344D02*
X386Y344D01*
X434Y344D02*
X486Y344D01*
X236Y343D02*
X285Y343D01*
X335Y343D02*
X385Y343D01*
X435Y343D02*
X485Y343D01*
X237Y342D02*
X283Y342D01*
X337Y342D02*
X383Y342D01*
X437Y342D02*
X483Y342D01*
X239Y341D02*
X281Y341D01*
X339Y341D02*
X381Y341D01*
X439Y341D02*
X481Y341D01*
X241Y340D02*
X280Y340D01*
X340Y340D02*
X380Y340D01*
X440Y340D02*
X480Y340D01*
X243Y339D02*
X278Y339D01*
X343Y339D02*
X378Y339D01*
X442Y339D02*
X478Y339D01*
X245Y338D02*
X275Y338D01*
X345Y338D02*
X375Y338D01*
X445Y338D02*
X475Y338D01*
X248Y337D02*
X272Y337D01*
X348Y337D02*
X372Y337D01*
X448Y337D02*
X472Y337D01*
X252Y336D02*
X268Y336D01*
X352Y336D02*
X368Y336D01*
X452Y336D02*
X468Y336D01*
X472Y106D02*
X555Y106D01*
X472Y105D02*
X555Y105D01*
X472Y104D02*
X555Y104D01*
X472Y103D02*
X555Y103D01*
X472Y102D02*
X555Y102D01*
X472Y101D02*
X555Y101D01*
X472Y100D02*
X555Y100D01*
X472Y99D02*
X555Y99D01*
X472Y98D02*
X555Y98D01*
X472Y97D02*
X555Y97D01*
X472Y96D02*
X555Y96D01*
X472Y95D02*
X555Y95D01*
X472Y94D02*
X555Y94D01*
X472Y93D02*
X555Y93D01*
X472Y92D02*
X555Y92D01*
X472Y91D02*
X555Y91D01*
X472Y90D02*
X555Y90D01*
X472Y89D02*
X555Y89D01*
X472Y88D02*
X555Y88D01*
X472Y87D02*
X555Y87D01*
X472Y86D02*
X555Y86D01*
X472Y85D02*
X555Y85D01*
X472Y84D02*
X555Y84D01*
X472Y83D02*
X555Y83D01*
X472Y82D02*
X555Y82D01*
X472Y81D02*
X555Y81D01*
X472Y80D02*
X555Y80D01*
X472Y79D02*
X508Y79D01*
X519Y79D02*
X555Y79D01*
X472Y78D02*
X506Y78D01*
X521Y78D02*
X555Y78D01*
X472Y77D02*
X504Y77D01*
X523Y77D02*
X555Y77D01*
X472Y76D02*
X503Y76D01*
X524Y76D02*
X555Y76D01*
X472Y75D02*
X502Y75D01*
X525Y75D02*
X555Y75D01*
X472Y74D02*
X501Y74D01*
X526Y74D02*
X555Y74D01*
X472Y73D02*
X500Y73D01*
X526Y73D02*
X555Y73D01*
X472Y72D02*
X500Y72D01*
X527Y72D02*
X555Y72D01*
X472Y71D02*
X499Y71D01*
X528Y71D02*
X555Y71D01*
X472Y70D02*
X499Y70D01*
X528Y70D02*
X555Y70D01*
X472Y69D02*
X498Y69D01*
X528Y69D02*
X555Y69D01*
X472Y68D02*
X498Y68D01*
X528Y68D02*
X555Y68D01*
X472Y67D02*
X498Y67D01*
X529Y67D02*
X555Y67D01*
X472Y66D02*
X498Y66D01*
X529Y66D02*
X555Y66D01*
X472Y65D02*
X498Y65D01*
X529Y65D02*
X555Y65D01*
X472Y64D02*
X498Y64D01*
X529Y64D02*
X555Y64D01*
X472Y63D02*
X498Y63D01*
X529Y63D02*
X555Y63D01*
X472Y62D02*
X498Y62D01*
X529Y62D02*
X555Y62D01*
X472Y61D02*
X498Y61D01*
X528Y61D02*
X555Y61D01*
X472Y60D02*
X499Y60D01*
X528Y60D02*
X555Y60D01*
X472Y59D02*
X499Y59D01*
X528Y59D02*
X555Y59D01*
X472Y58D02*
X499Y58D01*
X527Y58D02*
X555Y58D01*
X472Y57D02*
X500Y57D01*
X527Y57D02*
X555Y57D01*
X472Y56D02*
X501Y56D01*
X526Y56D02*
X555Y56D01*
X472Y55D02*
X502Y55D01*
X525Y55D02*
X555Y55D01*
X472Y54D02*
X502Y54D01*
X524Y54D02*
X555Y54D01*
X472Y53D02*
X504Y53D01*
X523Y53D02*
X555Y53D01*
X472Y52D02*
X505Y52D01*
X522Y52D02*
X555Y52D01*
X472Y51D02*
X507Y51D01*
X520Y51D02*
X555Y51D01*
X472Y50D02*
X511Y50D01*
X516Y50D02*
X555Y50D01*
X472Y49D02*
X555Y49D01*
X472Y48D02*
X555Y48D01*
X472Y47D02*
X555Y47D01*
X472Y46D02*
X555Y46D01*
X472Y45D02*
X555Y45D01*
X472Y44D02*
X555Y44D01*
X472Y43D02*
X555Y43D01*
X472Y42D02*
X555Y42D01*
X472Y41D02*
X555Y41D01*
X472Y40D02*
X555Y40D01*
X472Y39D02*
X555Y39D01*
X472Y38D02*
X555Y38D01*
X472Y37D02*
X555Y37D01*
X472Y36D02*
X555Y36D01*
X472Y35D02*
X555Y35D01*
X472Y34D02*
X555Y34D01*
X472Y33D02*
X555Y33D01*
X472Y32D02*
X555Y32D01*
X472Y31D02*
X555Y31D01*
X472Y30D02*
X555Y30D01*
X472Y29D02*
X555Y29D01*
X472Y28D02*
X555Y28D01*
X472Y27D02*
X555Y27D01*
X472Y26D02*
X555Y26D01*
X472Y25D02*
X555Y25D01*
X472Y24D02*
X555Y24D01*
X472Y23D02*
X555Y23D01*
D02*
G04 End of Mask0*
M02*