G04 #@! TF.GenerationSoftware,KiCad,Pcbnew,5.1.6-c6e7f7d~87~ubuntu18.04.1*
G04 #@! TF.CreationDate,2021-01-10T02:12:58+01:00*
G04 #@! TF.ProjectId,ZynFace,5a796e46-6163-4652-9e6b-696361645f70,rev?*
G04 #@! TF.SameCoordinates,Original*
G04 #@! TF.FileFunction,Copper,L1,Top*
G04 #@! TF.FilePolarity,Positive*
%FSLAX46Y46*%
G04 Gerber Fmt 4.6, Leading zero omitted, Abs format (unit mm)*
G04 Created by KiCad (PCBNEW 5.1.6-c6e7f7d~87~ubuntu18.04.1) date 2021-01-10 02:12:58*
%MOMM*%
%LPD*%
G01*
G04 APERTURE LIST*
G04 #@! TA.AperFunction,ComponentPad*
%ADD10C,5.000000*%
G04 #@! TD*
G04 #@! TA.AperFunction,ComponentPad*
%ADD11O,2.800000X2.350000*%
G04 #@! TD*
G04 #@! TA.AperFunction,ComponentPad*
%ADD12R,2.600000X2.150000*%
G04 #@! TD*
G04 #@! TA.AperFunction,ComponentPad*
%ADD13C,2.700000*%
G04 #@! TD*
G04 #@! TA.AperFunction,ComponentPad*
%ADD14R,1.700000X1.700000*%
G04 #@! TD*
G04 #@! TA.AperFunction,ComponentPad*
%ADD15O,1.700000X1.700000*%
G04 #@! TD*
G04 #@! TA.AperFunction,SMDPad,CuDef*
%ADD16R,1.450000X0.450000*%
G04 #@! TD*
G04 #@! TA.AperFunction,ViaPad*
%ADD17C,0.800000*%
G04 #@! TD*
G04 #@! TA.AperFunction,Conductor*
%ADD18C,0.250000*%
G04 #@! TD*
G04 #@! TA.AperFunction,Conductor*
%ADD19C,0.500000*%
G04 #@! TD*
G04 #@! TA.AperFunction,Conductor*
%ADD20C,0.254000*%
G04 #@! TD*
G04 APERTURE END LIST*
D10*
X195072000Y-90932000D03*
D11*
X123540000Y-77100000D03*
D12*
X123540000Y-74000000D03*
D13*
X123540000Y-85400000D03*
X133954000Y-85400000D03*
D12*
X133954000Y-74000000D03*
D11*
X133954000Y-77100000D03*
X144368000Y-77100000D03*
D12*
X144368000Y-74000000D03*
D13*
X144368000Y-85400000D03*
X154782000Y-85400000D03*
D12*
X154782000Y-74000000D03*
D11*
X154782000Y-77100000D03*
D13*
X123540000Y-67366000D03*
D12*
X123540000Y-55966000D03*
D11*
X123540000Y-59066000D03*
D13*
X133954000Y-67366000D03*
D12*
X133954000Y-55966000D03*
D11*
X133954000Y-59066000D03*
X144368000Y-59066000D03*
D12*
X144368000Y-55966000D03*
D13*
X144368000Y-67366000D03*
D11*
X154782000Y-59066000D03*
D12*
X154782000Y-55966000D03*
D13*
X154782000Y-67366000D03*
G04 #@! TA.AperFunction,SMDPad,CuDef*
G36*
G01*
X194506001Y-48844000D02*
X193605999Y-48844000D01*
G75*
G02*
X193356000Y-48594001I0J249999D01*
G01*
X193356000Y-47943999D01*
G75*
G02*
X193605999Y-47694000I249999J0D01*
G01*
X194506001Y-47694000D01*
G75*
G02*
X194756000Y-47943999I0J-249999D01*
G01*
X194756000Y-48594001D01*
G75*
G02*
X194506001Y-48844000I-249999J0D01*
G01*
G37*
G04 #@! TD.AperFunction*
G04 #@! TA.AperFunction,SMDPad,CuDef*
G36*
G01*
X194506001Y-46794000D02*
X193605999Y-46794000D01*
G75*
G02*
X193356000Y-46544001I0J249999D01*
G01*
X193356000Y-45893999D01*
G75*
G02*
X193605999Y-45644000I249999J0D01*
G01*
X194506001Y-45644000D01*
G75*
G02*
X194756000Y-45893999I0J-249999D01*
G01*
X194756000Y-46544001D01*
G75*
G02*
X194506001Y-46794000I-249999J0D01*
G01*
G37*
G04 #@! TD.AperFunction*
D14*
X110800000Y-32800000D03*
D15*
X110800000Y-35340000D03*
X108260000Y-32800000D03*
X108260000Y-35340000D03*
X105720000Y-32800000D03*
X105720000Y-35340000D03*
X103180000Y-32800000D03*
X103180000Y-35340000D03*
X100640000Y-32800000D03*
X100640000Y-35340000D03*
X98100000Y-32800000D03*
X98100000Y-35340000D03*
X95560000Y-32800000D03*
X95560000Y-35340000D03*
X93020000Y-32800000D03*
X93020000Y-35340000D03*
X90480000Y-32800000D03*
X90480000Y-35340000D03*
X87940000Y-32800000D03*
X87940000Y-35340000D03*
X85400000Y-32800000D03*
X85400000Y-35340000D03*
X82860000Y-32800000D03*
X82860000Y-35340000D03*
X80320000Y-32800000D03*
X80320000Y-35340000D03*
X77780000Y-32800000D03*
X77780000Y-35340000D03*
X75240000Y-32800000D03*
X75240000Y-35340000D03*
X72700000Y-32800000D03*
X72700000Y-35340000D03*
X70160000Y-32800000D03*
X70160000Y-35340000D03*
X67620000Y-32800000D03*
X67620000Y-35340000D03*
X65080000Y-32800000D03*
X65080000Y-35340000D03*
X62540000Y-32800000D03*
X62540000Y-35340000D03*
D16*
X190148000Y-50210000D03*
X190148000Y-49560000D03*
X190148000Y-48910000D03*
X190148000Y-48260000D03*
X190148000Y-47610000D03*
X190148000Y-46960000D03*
X190148000Y-46310000D03*
X184248000Y-46310000D03*
X184248000Y-46960000D03*
X184248000Y-47610000D03*
X184248000Y-48260000D03*
X184248000Y-48910000D03*
X184248000Y-49560000D03*
X184248000Y-50210000D03*
D10*
X195072000Y-30988000D03*
X38608000Y-90932000D03*
X38608000Y-30988000D03*
D14*
X186690000Y-71882000D03*
D15*
X186690000Y-69342000D03*
X186690000Y-66802000D03*
X186690000Y-64262000D03*
X186690000Y-61722000D03*
X186690000Y-59182000D03*
D14*
X182880000Y-55372000D03*
D15*
X185420000Y-55372000D03*
X187960000Y-55372000D03*
X190500000Y-55372000D03*
X193040000Y-55372000D03*
X195580000Y-55372000D03*
X151988000Y-49108000D03*
X149448000Y-49108000D03*
X146908000Y-49108000D03*
D14*
X144368000Y-49108000D03*
X86512000Y-49108000D03*
D15*
X89052000Y-49108000D03*
X91592000Y-49108000D03*
X94132000Y-49108000D03*
D14*
X120238000Y-49108000D03*
D15*
X122778000Y-49108000D03*
X125318000Y-49108000D03*
X127858000Y-49108000D03*
X130398000Y-49108000D03*
X132938000Y-49108000D03*
X135478000Y-49108000D03*
X138018000Y-49108000D03*
X80670000Y-49108000D03*
X78130000Y-49108000D03*
X75590000Y-49108000D03*
X73050000Y-49108000D03*
X70510000Y-49108000D03*
X67970000Y-49108000D03*
X65430000Y-49108000D03*
D14*
X62890000Y-49108000D03*
X120142000Y-32766000D03*
D15*
X120142000Y-35306000D03*
X122682000Y-32766000D03*
X122682000Y-35306000D03*
X125222000Y-32766000D03*
X125222000Y-35306000D03*
X127762000Y-32766000D03*
X127762000Y-35306000D03*
D13*
X66446000Y-85400000D03*
D12*
X66446000Y-74000000D03*
D11*
X66446000Y-77100000D03*
D13*
X76860000Y-85400000D03*
D12*
X76860000Y-74000000D03*
D11*
X76860000Y-77100000D03*
D13*
X87274000Y-85400000D03*
D12*
X87274000Y-74000000D03*
D11*
X87274000Y-77100000D03*
X97688000Y-77100000D03*
D12*
X97688000Y-74000000D03*
D13*
X97688000Y-85400000D03*
D11*
X66446000Y-59066000D03*
D12*
X66446000Y-55966000D03*
D13*
X66446000Y-67366000D03*
D11*
X76860000Y-59066000D03*
D12*
X76860000Y-55966000D03*
D13*
X76860000Y-67366000D03*
X87274000Y-67366000D03*
D12*
X87274000Y-55966000D03*
D11*
X87274000Y-59066000D03*
X97688000Y-59066000D03*
D12*
X97688000Y-55966000D03*
D13*
X97688000Y-67366000D03*
G04 #@! TA.AperFunction,SMDPad,CuDef*
G36*
G01*
X179756250Y-52525000D02*
X179243750Y-52525000D01*
G75*
G02*
X179025000Y-52306250I0J218750D01*
G01*
X179025000Y-51868750D01*
G75*
G02*
X179243750Y-51650000I218750J0D01*
G01*
X179756250Y-51650000D01*
G75*
G02*
X179975000Y-51868750I0J-218750D01*
G01*
X179975000Y-52306250D01*
G75*
G02*
X179756250Y-52525000I-218750J0D01*
G01*
G37*
G04 #@! TD.AperFunction*
G04 #@! TA.AperFunction,SMDPad,CuDef*
G36*
G01*
X179756250Y-50950000D02*
X179243750Y-50950000D01*
G75*
G02*
X179025000Y-50731250I0J218750D01*
G01*
X179025000Y-50293750D01*
G75*
G02*
X179243750Y-50075000I218750J0D01*
G01*
X179756250Y-50075000D01*
G75*
G02*
X179975000Y-50293750I0J-218750D01*
G01*
X179975000Y-50731250D01*
G75*
G02*
X179756250Y-50950000I-218750J0D01*
G01*
G37*
G04 #@! TD.AperFunction*
D14*
X140300000Y-32800000D03*
D15*
X140300000Y-35340000D03*
D17*
X105348436Y-53951564D03*
X106300000Y-30100000D03*
X104700000Y-29375000D03*
X83800000Y-63000000D03*
X192400000Y-46400000D03*
X192400000Y-45400000D03*
X185700000Y-48200000D03*
X186000000Y-47000000D03*
X182200000Y-50200000D03*
X182200000Y-48900000D03*
X135500000Y-28900000D03*
X98200000Y-38700000D03*
X98100000Y-40100000D03*
X98000000Y-41600000D03*
X98000000Y-43100000D03*
D18*
X146093010Y-62525578D02*
X141200000Y-67418588D01*
X144368000Y-49108000D02*
X146093010Y-50833010D01*
X146093010Y-50833010D02*
X146093010Y-62525578D01*
X139200010Y-75599990D02*
X125040010Y-75599990D01*
X141200000Y-73600000D02*
X139200010Y-75599990D01*
X125040010Y-75599990D02*
X123540000Y-77100000D01*
X141200000Y-67418588D02*
X141200000Y-73600000D01*
D19*
X190122999Y-46284999D02*
X190148000Y-46284999D01*
D18*
X189173000Y-49560000D02*
X190148000Y-49560000D01*
X189097999Y-49484999D02*
X189173000Y-49560000D01*
X189097999Y-46385001D02*
X189097999Y-49484999D01*
X189173000Y-46310000D02*
X189097999Y-46385001D01*
X190148000Y-46310000D02*
X189173000Y-46310000D01*
X190148000Y-49560000D02*
X190148000Y-50210000D01*
D19*
X184570001Y-67222001D02*
X186690000Y-69342000D01*
X184570001Y-56221999D02*
X184570001Y-67222001D01*
X185420000Y-55372000D02*
X184570001Y-56221999D01*
X189472999Y-45634999D02*
X190122999Y-46284999D01*
X183162999Y-45634999D02*
X189472999Y-45634999D01*
X179500000Y-50512500D02*
X179500000Y-49297998D01*
X179500000Y-49297998D02*
X183162999Y-45634999D01*
X190557999Y-44549999D02*
X189472999Y-45634999D01*
X194151965Y-44549999D02*
X190557999Y-44549999D01*
X195206010Y-45604044D02*
X194151965Y-44549999D01*
X195206010Y-48883956D02*
X195206010Y-45604044D01*
X190017967Y-54071999D02*
X195206010Y-48883956D01*
X186720001Y-54071999D02*
X190017967Y-54071999D01*
X185420000Y-55372000D02*
X186720001Y-54071999D01*
X187082002Y-74000000D02*
X154782000Y-74000000D01*
X187990001Y-70642001D02*
X187990001Y-73092001D01*
X187990001Y-73092001D02*
X187082002Y-74000000D01*
X186690000Y-69342000D02*
X187990001Y-70642001D01*
X154782000Y-74000000D02*
X144368000Y-74000000D01*
X133954000Y-74000000D02*
X123540000Y-74000000D01*
X144368000Y-55966000D02*
X133954000Y-55966000D01*
X133954000Y-55966000D02*
X123540000Y-55966000D01*
X156632010Y-72149990D02*
X154782000Y-74000000D01*
X156632010Y-56016010D02*
X156632010Y-72149990D01*
X156582000Y-55966000D02*
X156632010Y-56016010D01*
X154782000Y-55966000D02*
X156582000Y-55966000D01*
X127762000Y-32766000D02*
X125222000Y-32766000D01*
X125222000Y-32766000D02*
X122682000Y-32766000D01*
X122682000Y-32766000D02*
X120142000Y-32766000D01*
X104480001Y-31499999D02*
X103180000Y-32800000D01*
X118875999Y-31499999D02*
X104480001Y-31499999D01*
X120142000Y-32766000D02*
X118875999Y-31499999D01*
X121689990Y-72149990D02*
X123540000Y-74000000D01*
X121689990Y-57816010D02*
X121689990Y-72149990D01*
X123540000Y-55966000D02*
X121689990Y-57816010D01*
X76860000Y-74000000D02*
X87274000Y-74000000D01*
X85400000Y-35340000D02*
X85400000Y-32800000D01*
D18*
X146908000Y-62346998D02*
X141700000Y-67554998D01*
X146908000Y-49108000D02*
X146908000Y-62346998D01*
X141700000Y-67554998D02*
X141700000Y-74300000D01*
X138900000Y-77100000D02*
X133954000Y-77100000D01*
X141700000Y-74300000D02*
X138900000Y-77100000D01*
X143871588Y-77100000D02*
X144368000Y-77100000D01*
X142292989Y-71920013D02*
X142292990Y-75521402D01*
X142292990Y-75521402D02*
X143871588Y-77100000D01*
X149448000Y-64765002D02*
X142292989Y-71920013D01*
X149448000Y-49108000D02*
X149448000Y-64765002D01*
X142742999Y-75335001D02*
X143007988Y-75599990D01*
X153281990Y-75599990D02*
X154782000Y-77100000D01*
X142742999Y-72664999D02*
X142742999Y-75335001D01*
X143007988Y-75599990D02*
X153281990Y-75599990D01*
X151988000Y-63419998D02*
X142742999Y-72664999D01*
X151988000Y-49108000D02*
X151988000Y-63419998D01*
X125554436Y-53951564D02*
X130398000Y-49108000D01*
X105348436Y-53951564D02*
X125554436Y-53951564D01*
X135478000Y-38742998D02*
X135478000Y-49108000D01*
X126835002Y-30100000D02*
X135478000Y-38742998D01*
X106300000Y-30100000D02*
X126835002Y-30100000D01*
X138018000Y-40218000D02*
X138018000Y-49108000D01*
X104700000Y-29375000D02*
X127175000Y-29375000D01*
X127175000Y-29375000D02*
X138018000Y-40218000D01*
X81684999Y-48093001D02*
X80670000Y-49108000D01*
X81684999Y-33975001D02*
X81684999Y-48093001D01*
X82860000Y-32800000D02*
X81684999Y-33975001D01*
X79144999Y-48093001D02*
X78130000Y-49108000D01*
X79144999Y-33975001D02*
X79144999Y-48093001D01*
X80320000Y-32800000D02*
X79144999Y-33975001D01*
X76604999Y-48093001D02*
X75590000Y-49108000D01*
X76604999Y-33975001D02*
X76604999Y-48093001D01*
X77780000Y-32800000D02*
X76604999Y-33975001D01*
X83800000Y-58600000D02*
X83800000Y-63000000D01*
X78800000Y-53600000D02*
X83800000Y-58600000D01*
X71524999Y-34164999D02*
X71524999Y-46724999D01*
X71874999Y-49672001D02*
X75802998Y-53600000D01*
X70160000Y-32800000D02*
X71524999Y-34164999D01*
X71524999Y-46724999D02*
X71874999Y-47074999D01*
X71874999Y-47074999D02*
X71874999Y-49672001D01*
X75802998Y-53600000D02*
X78800000Y-53600000D01*
X82813666Y-67366000D02*
X87274000Y-67366000D01*
X69334999Y-48634999D02*
X69334999Y-53887333D01*
X68984999Y-48284999D02*
X69334999Y-48634999D01*
X69334999Y-53887333D02*
X82813666Y-67366000D01*
X68984999Y-34164999D02*
X68984999Y-48284999D01*
X67620000Y-32800000D02*
X68984999Y-34164999D01*
X66794999Y-53354997D02*
X76860000Y-63419998D01*
X76860000Y-63419998D02*
X76860000Y-67366000D01*
X66794999Y-48543999D02*
X66794999Y-53354997D01*
X63904999Y-45653999D02*
X66794999Y-48543999D01*
X63904999Y-33975001D02*
X63904999Y-45653999D01*
X65080000Y-32800000D02*
X63904999Y-33975001D01*
X61364999Y-62284999D02*
X66446000Y-67366000D01*
X61364999Y-33975001D02*
X61364999Y-62284999D01*
X62540000Y-32800000D02*
X61364999Y-33975001D01*
D19*
X182395501Y-52087500D02*
X184248000Y-50235001D01*
X179500000Y-52087500D02*
X182395501Y-52087500D01*
X193849002Y-48269000D02*
X194056000Y-48269000D01*
X190030502Y-52087500D02*
X193849002Y-48269000D01*
X182395501Y-52087500D02*
X190030502Y-52087500D01*
X179500000Y-52087500D02*
X179500000Y-52900000D01*
X181972000Y-55372000D02*
X182880000Y-55372000D01*
X179500000Y-52900000D02*
X181972000Y-55372000D01*
X182880000Y-68072000D02*
X186690000Y-71882000D01*
X182880000Y-55372000D02*
X182880000Y-68072000D01*
X120108000Y-35340000D02*
X120142000Y-35306000D01*
X110800000Y-35340000D02*
X120108000Y-35340000D01*
X120142000Y-35306000D02*
X122682000Y-35306000D01*
X122682000Y-35306000D02*
X125222000Y-35306000D01*
X125222000Y-35306000D02*
X127762000Y-35306000D01*
D18*
X193814000Y-46219000D02*
X194056000Y-46219000D01*
X191123000Y-48910000D02*
X193814000Y-46219000D01*
X190148000Y-48910000D02*
X191123000Y-48910000D01*
X190148000Y-47610000D02*
X191190000Y-47610000D01*
X191190000Y-47610000D02*
X192400000Y-46400000D01*
X192326998Y-45400000D02*
X192400000Y-45400000D01*
X191674999Y-46051999D02*
X192326998Y-45400000D01*
X191674999Y-46488591D02*
X191674999Y-46051999D01*
X190148000Y-46960000D02*
X191203590Y-46960000D01*
X191203590Y-46960000D02*
X191674999Y-46488591D01*
X185110000Y-47610000D02*
X184248000Y-47610000D01*
X185700000Y-48200000D02*
X185110000Y-47610000D01*
X184288000Y-47000000D02*
X184248000Y-46960000D01*
X186000000Y-47000000D02*
X184288000Y-47000000D01*
X183273000Y-49560000D02*
X184248000Y-49560000D01*
X182840000Y-49560000D02*
X184248000Y-49560000D01*
X182200000Y-50200000D02*
X182840000Y-49560000D01*
X184238000Y-48900000D02*
X184248000Y-48910000D01*
X182200000Y-48900000D02*
X184238000Y-48900000D01*
X135500000Y-30540000D02*
X140300000Y-35340000D01*
X135500000Y-28900000D02*
X135500000Y-30540000D01*
X154782000Y-85400000D02*
X148363795Y-78981795D01*
X148363795Y-78981795D02*
X114181795Y-78981795D01*
X114181795Y-78981795D02*
X113681795Y-78981795D01*
X113681795Y-78981795D02*
X113381795Y-78981795D01*
X113381795Y-78981795D02*
X104050010Y-69650010D01*
X104050010Y-69650010D02*
X104050010Y-44550010D01*
X104050010Y-44550010D02*
X98200000Y-38700000D01*
X144368000Y-85400000D02*
X139668000Y-80700000D01*
X139668000Y-80700000D02*
X114400000Y-80700000D01*
X114400000Y-80700000D02*
X103600000Y-69900000D01*
X103600000Y-69900000D02*
X103600000Y-45600000D01*
X103600000Y-45600000D02*
X98100000Y-40100000D01*
X133954000Y-85400000D02*
X129935795Y-81381795D01*
X114381795Y-81381795D02*
X102300000Y-69300000D01*
X129935795Y-81381795D02*
X114381795Y-81381795D01*
X102300000Y-69300000D02*
X102300000Y-45900000D01*
X102300000Y-45900000D02*
X98000000Y-41600000D01*
X123540000Y-85400000D02*
X117000000Y-85400000D01*
X117000000Y-85400000D02*
X101300000Y-69700000D01*
X101300000Y-69700000D02*
X101300000Y-46400000D01*
X101300000Y-46400000D02*
X98000000Y-43100000D01*
X60914990Y-32686008D02*
X60914990Y-79868990D01*
X61975999Y-31624999D02*
X60914990Y-32686008D01*
X60914990Y-79868990D02*
X66446000Y-85400000D01*
X86764999Y-31624999D02*
X61975999Y-31624999D01*
X87940000Y-32800000D02*
X86764999Y-31624999D01*
X88949001Y-68170001D02*
X85919002Y-71200000D01*
X88949001Y-66561999D02*
X88949001Y-68170001D01*
X85548990Y-63161988D02*
X88949001Y-66561999D01*
X86512000Y-49108000D02*
X85548990Y-50071010D01*
X85548990Y-50071010D02*
X85548990Y-63161988D01*
X72346000Y-71200000D02*
X66446000Y-77100000D01*
X85919002Y-71200000D02*
X72346000Y-71200000D01*
X75184999Y-87075001D02*
X76860000Y-85400000D01*
X65641999Y-87075001D02*
X75184999Y-87075001D01*
X60464980Y-81897982D02*
X65641999Y-87075001D01*
X60464980Y-32499608D02*
X60464980Y-81897982D01*
X61789598Y-31174990D02*
X60464980Y-32499608D01*
X88854990Y-31174990D02*
X61789598Y-31174990D01*
X90480000Y-32800000D02*
X88854990Y-31174990D01*
X75234999Y-75474999D02*
X76860000Y-77100000D01*
X75234999Y-72664999D02*
X75234999Y-75474999D01*
X85155413Y-72599999D02*
X75299999Y-72599999D01*
X89901999Y-67853413D02*
X85155413Y-72599999D01*
X75299999Y-72599999D02*
X75234999Y-72664999D01*
X89901999Y-49957999D02*
X89901999Y-67853413D01*
X89052000Y-49108000D02*
X89901999Y-49957999D01*
X94195001Y-33975001D02*
X93020000Y-32800000D01*
X94195001Y-47305997D02*
X94195001Y-33975001D01*
X92956999Y-48543999D02*
X94195001Y-47305997D01*
X87274000Y-85400000D02*
X92956999Y-79717001D01*
X92956999Y-79717001D02*
X92956999Y-48543999D01*
X91592000Y-72782000D02*
X87274000Y-77100000D01*
X91592000Y-49108000D02*
X91592000Y-72782000D01*
X94132000Y-73544000D02*
X97688000Y-77100000D01*
X94132000Y-49108000D02*
X94132000Y-73544000D01*
X99813011Y-83274989D02*
X97688000Y-85400000D01*
X99813011Y-55131009D02*
X99813011Y-83274989D01*
X96924999Y-52242997D02*
X99813011Y-55131009D01*
X96924999Y-34164999D02*
X96924999Y-52242997D01*
X95560000Y-32800000D02*
X96924999Y-34164999D01*
X62890000Y-55510000D02*
X62890000Y-49108000D01*
X66446000Y-59066000D02*
X62890000Y-55510000D01*
D20*
G36*
X103896063Y-28715226D02*
G01*
X103782795Y-28884744D01*
X103704774Y-29073102D01*
X103665000Y-29273061D01*
X103665000Y-29476939D01*
X103704774Y-29676898D01*
X103782795Y-29865256D01*
X103896063Y-30034774D01*
X104040226Y-30178937D01*
X104209744Y-30292205D01*
X104398102Y-30370226D01*
X104598061Y-30410000D01*
X104801939Y-30410000D01*
X105001898Y-30370226D01*
X105190256Y-30292205D01*
X105272080Y-30237532D01*
X105304774Y-30401898D01*
X105382795Y-30590256D01*
X105496063Y-30759774D01*
X105640226Y-30903937D01*
X105809744Y-31017205D01*
X105998102Y-31095226D01*
X106198061Y-31135000D01*
X106401939Y-31135000D01*
X106601898Y-31095226D01*
X106790256Y-31017205D01*
X106959774Y-30903937D01*
X107003711Y-30860000D01*
X126520201Y-30860000D01*
X127103106Y-31442905D01*
X126995080Y-31494359D01*
X126761731Y-31668412D01*
X126566822Y-31884645D01*
X126492000Y-32010255D01*
X126417178Y-31884645D01*
X126222269Y-31668412D01*
X125988920Y-31494359D01*
X125726099Y-31369175D01*
X125578890Y-31324524D01*
X125349000Y-31445845D01*
X125349000Y-32639000D01*
X127635000Y-32639000D01*
X127635000Y-32619000D01*
X127889000Y-32619000D01*
X127889000Y-32639000D01*
X127909000Y-32639000D01*
X127909000Y-32893000D01*
X127889000Y-32893000D01*
X127889000Y-32913000D01*
X127635000Y-32913000D01*
X127635000Y-32893000D01*
X125349000Y-32893000D01*
X125349000Y-32913000D01*
X125095000Y-32913000D01*
X125095000Y-32893000D01*
X122809000Y-32893000D01*
X122809000Y-32913000D01*
X122555000Y-32913000D01*
X122555000Y-32893000D01*
X120269000Y-32893000D01*
X120269000Y-32913000D01*
X120015000Y-32913000D01*
X120015000Y-32893000D01*
X118815750Y-32893000D01*
X118657000Y-33051750D01*
X118653928Y-33616000D01*
X118666188Y-33740482D01*
X118702498Y-33860180D01*
X118761463Y-33970494D01*
X118840815Y-34067185D01*
X118937506Y-34146537D01*
X119047820Y-34205502D01*
X119120380Y-34227513D01*
X118988525Y-34359368D01*
X118924626Y-34455000D01*
X111994656Y-34455000D01*
X111953475Y-34393368D01*
X111821620Y-34261513D01*
X111894180Y-34239502D01*
X112004494Y-34180537D01*
X112101185Y-34101185D01*
X112180537Y-34004494D01*
X112239502Y-33894180D01*
X112275812Y-33774482D01*
X112288072Y-33650000D01*
X112288072Y-31950000D01*
X112284724Y-31916000D01*
X118653928Y-31916000D01*
X118657000Y-32480250D01*
X118815750Y-32639000D01*
X120015000Y-32639000D01*
X120015000Y-31439750D01*
X120269000Y-31439750D01*
X120269000Y-32639000D01*
X122555000Y-32639000D01*
X122555000Y-31445845D01*
X122809000Y-31445845D01*
X122809000Y-32639000D01*
X125095000Y-32639000D01*
X125095000Y-31445845D01*
X124865110Y-31324524D01*
X124717901Y-31369175D01*
X124455080Y-31494359D01*
X124221731Y-31668412D01*
X124026822Y-31884645D01*
X123952000Y-32010255D01*
X123877178Y-31884645D01*
X123682269Y-31668412D01*
X123448920Y-31494359D01*
X123186099Y-31369175D01*
X123038890Y-31324524D01*
X122809000Y-31445845D01*
X122555000Y-31445845D01*
X122325110Y-31324524D01*
X122177901Y-31369175D01*
X121915080Y-31494359D01*
X121681731Y-31668412D01*
X121605966Y-31752466D01*
X121581502Y-31671820D01*
X121522537Y-31561506D01*
X121443185Y-31464815D01*
X121346494Y-31385463D01*
X121236180Y-31326498D01*
X121116482Y-31290188D01*
X120992000Y-31277928D01*
X120427750Y-31281000D01*
X120269000Y-31439750D01*
X120015000Y-31439750D01*
X119856250Y-31281000D01*
X119292000Y-31277928D01*
X119167518Y-31290188D01*
X119047820Y-31326498D01*
X118937506Y-31385463D01*
X118840815Y-31464815D01*
X118761463Y-31561506D01*
X118702498Y-31671820D01*
X118666188Y-31791518D01*
X118653928Y-31916000D01*
X112284724Y-31916000D01*
X112275812Y-31825518D01*
X112239502Y-31705820D01*
X112180537Y-31595506D01*
X112101185Y-31498815D01*
X112004494Y-31419463D01*
X111894180Y-31360498D01*
X111774482Y-31324188D01*
X111650000Y-31311928D01*
X109950000Y-31311928D01*
X109825518Y-31324188D01*
X109705820Y-31360498D01*
X109595506Y-31419463D01*
X109498815Y-31498815D01*
X109419463Y-31595506D01*
X109360498Y-31705820D01*
X109338487Y-31778380D01*
X109206632Y-31646525D01*
X108963411Y-31484010D01*
X108693158Y-31372068D01*
X108406260Y-31315000D01*
X108113740Y-31315000D01*
X107826842Y-31372068D01*
X107556589Y-31484010D01*
X107313368Y-31646525D01*
X107106525Y-31853368D01*
X106990000Y-32027760D01*
X106873475Y-31853368D01*
X106666632Y-31646525D01*
X106423411Y-31484010D01*
X106153158Y-31372068D01*
X105866260Y-31315000D01*
X105573740Y-31315000D01*
X105286842Y-31372068D01*
X105016589Y-31484010D01*
X104773368Y-31646525D01*
X104566525Y-31853368D01*
X104444805Y-32035534D01*
X104375178Y-31918645D01*
X104180269Y-31702412D01*
X103946920Y-31528359D01*
X103684099Y-31403175D01*
X103536890Y-31358524D01*
X103307000Y-31479845D01*
X103307000Y-32673000D01*
X103327000Y-32673000D01*
X103327000Y-32927000D01*
X103307000Y-32927000D01*
X103307000Y-32947000D01*
X103053000Y-32947000D01*
X103053000Y-32927000D01*
X103033000Y-32927000D01*
X103033000Y-32673000D01*
X103053000Y-32673000D01*
X103053000Y-31479845D01*
X102823110Y-31358524D01*
X102675901Y-31403175D01*
X102413080Y-31528359D01*
X102179731Y-31702412D01*
X101984822Y-31918645D01*
X101915195Y-32035534D01*
X101793475Y-31853368D01*
X101586632Y-31646525D01*
X101343411Y-31484010D01*
X101073158Y-31372068D01*
X100786260Y-31315000D01*
X100493740Y-31315000D01*
X100206842Y-31372068D01*
X99936589Y-31484010D01*
X99693368Y-31646525D01*
X99486525Y-31853368D01*
X99370000Y-32027760D01*
X99253475Y-31853368D01*
X99046632Y-31646525D01*
X98803411Y-31484010D01*
X98533158Y-31372068D01*
X98246260Y-31315000D01*
X97953740Y-31315000D01*
X97666842Y-31372068D01*
X97396589Y-31484010D01*
X97153368Y-31646525D01*
X96946525Y-31853368D01*
X96830000Y-32027760D01*
X96713475Y-31853368D01*
X96506632Y-31646525D01*
X96263411Y-31484010D01*
X95993158Y-31372068D01*
X95706260Y-31315000D01*
X95413740Y-31315000D01*
X95126842Y-31372068D01*
X94856589Y-31484010D01*
X94613368Y-31646525D01*
X94406525Y-31853368D01*
X94290000Y-32027760D01*
X94173475Y-31853368D01*
X93966632Y-31646525D01*
X93723411Y-31484010D01*
X93453158Y-31372068D01*
X93166260Y-31315000D01*
X92873740Y-31315000D01*
X92586842Y-31372068D01*
X92316589Y-31484010D01*
X92073368Y-31646525D01*
X91866525Y-31853368D01*
X91750000Y-32027760D01*
X91633475Y-31853368D01*
X91426632Y-31646525D01*
X91183411Y-31484010D01*
X90913158Y-31372068D01*
X90626260Y-31315000D01*
X90333740Y-31315000D01*
X90113592Y-31358791D01*
X89418794Y-30663993D01*
X89394991Y-30634989D01*
X89279266Y-30540016D01*
X89147237Y-30469444D01*
X89003976Y-30425987D01*
X88892323Y-30414990D01*
X88892312Y-30414990D01*
X88854990Y-30411314D01*
X88817668Y-30414990D01*
X61826923Y-30414990D01*
X61789598Y-30411314D01*
X61752273Y-30414990D01*
X61752265Y-30414990D01*
X61640612Y-30425987D01*
X61497351Y-30469444D01*
X61365322Y-30540016D01*
X61249597Y-30634989D01*
X61225799Y-30663987D01*
X59953983Y-31935804D01*
X59924979Y-31959607D01*
X59869851Y-32026782D01*
X59830006Y-32075332D01*
X59797578Y-32136001D01*
X59759434Y-32207362D01*
X59715977Y-32350623D01*
X59704980Y-32462276D01*
X59704980Y-32462286D01*
X59701304Y-32499608D01*
X59704980Y-32536930D01*
X59704981Y-81860649D01*
X59701304Y-81897982D01*
X59715978Y-82046967D01*
X59759434Y-82190228D01*
X59830006Y-82322258D01*
X59901181Y-82408984D01*
X59924980Y-82437983D01*
X59953978Y-82461781D01*
X65078204Y-87586009D01*
X65101998Y-87615002D01*
X65130991Y-87638796D01*
X65130995Y-87638800D01*
X65201684Y-87696812D01*
X65217723Y-87709975D01*
X65349752Y-87780547D01*
X65493013Y-87824004D01*
X65604666Y-87835001D01*
X65604675Y-87835001D01*
X65641998Y-87838677D01*
X65679321Y-87835001D01*
X75147677Y-87835001D01*
X75184999Y-87838677D01*
X75222321Y-87835001D01*
X75222332Y-87835001D01*
X75333985Y-87824004D01*
X75477246Y-87780547D01*
X75609275Y-87709975D01*
X75725000Y-87615002D01*
X75748803Y-87585998D01*
X76100746Y-87234056D01*
X76280997Y-87308718D01*
X76664495Y-87385000D01*
X77055505Y-87385000D01*
X77439003Y-87308718D01*
X77800250Y-87159085D01*
X78125364Y-86941851D01*
X78401851Y-86665364D01*
X78619085Y-86340250D01*
X78768718Y-85979003D01*
X78845000Y-85595505D01*
X78845000Y-85204495D01*
X78768718Y-84820997D01*
X78619085Y-84459750D01*
X78401851Y-84134636D01*
X78125364Y-83858149D01*
X77800250Y-83640915D01*
X77439003Y-83491282D01*
X77055505Y-83415000D01*
X76664495Y-83415000D01*
X76280997Y-83491282D01*
X75919750Y-83640915D01*
X75594636Y-83858149D01*
X75318149Y-84134636D01*
X75100915Y-84459750D01*
X74951282Y-84820997D01*
X74875000Y-85204495D01*
X74875000Y-85595505D01*
X74951282Y-85979003D01*
X75025944Y-86159254D01*
X74870198Y-86315001D01*
X68215543Y-86315001D01*
X68354718Y-85979003D01*
X68431000Y-85595505D01*
X68431000Y-85204495D01*
X68354718Y-84820997D01*
X68205085Y-84459750D01*
X67987851Y-84134636D01*
X67711364Y-83858149D01*
X67386250Y-83640915D01*
X67025003Y-83491282D01*
X66641505Y-83415000D01*
X66250495Y-83415000D01*
X65866997Y-83491282D01*
X65686746Y-83565944D01*
X61674990Y-79554189D01*
X61674990Y-72925000D01*
X64507928Y-72925000D01*
X64511000Y-73714250D01*
X64669750Y-73873000D01*
X66319000Y-73873000D01*
X66319000Y-72448750D01*
X66573000Y-72448750D01*
X66573000Y-73873000D01*
X68222250Y-73873000D01*
X68381000Y-73714250D01*
X68384072Y-72925000D01*
X68371812Y-72800518D01*
X68335502Y-72680820D01*
X68276537Y-72570506D01*
X68197185Y-72473815D01*
X68100494Y-72394463D01*
X67990180Y-72335498D01*
X67870482Y-72299188D01*
X67746000Y-72286928D01*
X66731750Y-72290000D01*
X66573000Y-72448750D01*
X66319000Y-72448750D01*
X66160250Y-72290000D01*
X65146000Y-72286928D01*
X65021518Y-72299188D01*
X64901820Y-72335498D01*
X64791506Y-72394463D01*
X64694815Y-72473815D01*
X64615463Y-72570506D01*
X64556498Y-72680820D01*
X64520188Y-72800518D01*
X64507928Y-72925000D01*
X61674990Y-72925000D01*
X61674990Y-63669791D01*
X64611944Y-66606746D01*
X64537282Y-66786997D01*
X64461000Y-67170495D01*
X64461000Y-67561505D01*
X64537282Y-67945003D01*
X64686915Y-68306250D01*
X64904149Y-68631364D01*
X65180636Y-68907851D01*
X65505750Y-69125085D01*
X65866997Y-69274718D01*
X66250495Y-69351000D01*
X66641505Y-69351000D01*
X67025003Y-69274718D01*
X67386250Y-69125085D01*
X67711364Y-68907851D01*
X67987851Y-68631364D01*
X68205085Y-68306250D01*
X68354718Y-67945003D01*
X68431000Y-67561505D01*
X68431000Y-67170495D01*
X68354718Y-66786997D01*
X68205085Y-66425750D01*
X67987851Y-66100636D01*
X67711364Y-65824149D01*
X67386250Y-65606915D01*
X67025003Y-65457282D01*
X66641505Y-65381000D01*
X66250495Y-65381000D01*
X65866997Y-65457282D01*
X65686746Y-65531944D01*
X62124999Y-61970198D01*
X62124999Y-50596072D01*
X62130001Y-50596072D01*
X62130000Y-55472677D01*
X62126324Y-55510000D01*
X62130000Y-55547322D01*
X62130000Y-55547332D01*
X62140997Y-55658985D01*
X62173454Y-55765983D01*
X62184454Y-55802246D01*
X62255026Y-55934276D01*
X62294871Y-55982826D01*
X62349999Y-56050001D01*
X62379003Y-56073804D01*
X64587539Y-58282341D01*
X64540688Y-58369992D01*
X64437190Y-58711178D01*
X64402243Y-59066000D01*
X64437190Y-59420822D01*
X64540688Y-59762008D01*
X64708759Y-60076447D01*
X64934945Y-60352055D01*
X65210553Y-60578241D01*
X65524992Y-60746312D01*
X65866178Y-60849810D01*
X66132089Y-60876000D01*
X66759911Y-60876000D01*
X67025822Y-60849810D01*
X67367008Y-60746312D01*
X67681447Y-60578241D01*
X67957055Y-60352055D01*
X68183241Y-60076447D01*
X68351312Y-59762008D01*
X68454810Y-59420822D01*
X68489757Y-59066000D01*
X68454810Y-58711178D01*
X68351312Y-58369992D01*
X68183241Y-58055553D01*
X67957055Y-57779945D01*
X67824697Y-57671321D01*
X67870482Y-57666812D01*
X67990180Y-57630502D01*
X68100494Y-57571537D01*
X68197185Y-57492185D01*
X68276537Y-57395494D01*
X68335502Y-57285180D01*
X68371812Y-57165482D01*
X68384072Y-57041000D01*
X68381000Y-56251750D01*
X68222252Y-56093002D01*
X68381000Y-56093002D01*
X68381000Y-56015799D01*
X76100000Y-63734800D01*
X76100001Y-65532253D01*
X75919750Y-65606915D01*
X75594636Y-65824149D01*
X75318149Y-66100636D01*
X75100915Y-66425750D01*
X74951282Y-66786997D01*
X74875000Y-67170495D01*
X74875000Y-67561505D01*
X74951282Y-67945003D01*
X75100915Y-68306250D01*
X75318149Y-68631364D01*
X75594636Y-68907851D01*
X75919750Y-69125085D01*
X76280997Y-69274718D01*
X76664495Y-69351000D01*
X77055505Y-69351000D01*
X77439003Y-69274718D01*
X77800250Y-69125085D01*
X78125364Y-68907851D01*
X78401851Y-68631364D01*
X78619085Y-68306250D01*
X78768718Y-67945003D01*
X78845000Y-67561505D01*
X78845000Y-67170495D01*
X78768718Y-66786997D01*
X78619085Y-66425750D01*
X78401851Y-66100636D01*
X78125364Y-65824149D01*
X77800250Y-65606915D01*
X77620000Y-65532253D01*
X77620000Y-63457321D01*
X77623676Y-63419998D01*
X77620000Y-63382675D01*
X77620000Y-63382665D01*
X77609003Y-63271012D01*
X77593818Y-63220954D01*
X82249867Y-67877003D01*
X82273665Y-67906001D01*
X82389390Y-68000974D01*
X82521419Y-68071546D01*
X82664680Y-68115003D01*
X82776333Y-68126000D01*
X82776341Y-68126000D01*
X82813666Y-68129676D01*
X82850991Y-68126000D01*
X85440253Y-68126000D01*
X85514915Y-68306250D01*
X85732149Y-68631364D01*
X86008636Y-68907851D01*
X86333750Y-69125085D01*
X86694997Y-69274718D01*
X86757125Y-69287076D01*
X85604201Y-70440000D01*
X72383322Y-70440000D01*
X72345999Y-70436324D01*
X72308677Y-70440000D01*
X72308667Y-70440000D01*
X72197014Y-70450997D01*
X72053753Y-70494454D01*
X71921723Y-70565026D01*
X71872350Y-70605546D01*
X71805999Y-70659999D01*
X71782201Y-70688997D01*
X68283224Y-74187974D01*
X68222250Y-74127000D01*
X66573000Y-74127000D01*
X66573000Y-74147000D01*
X66319000Y-74147000D01*
X66319000Y-74127000D01*
X64669750Y-74127000D01*
X64511000Y-74285750D01*
X64507928Y-75075000D01*
X64520188Y-75199482D01*
X64556498Y-75319180D01*
X64615463Y-75429494D01*
X64694815Y-75526185D01*
X64791506Y-75605537D01*
X64901820Y-75664502D01*
X65021518Y-75700812D01*
X65067303Y-75705321D01*
X64934945Y-75813945D01*
X64708759Y-76089553D01*
X64540688Y-76403992D01*
X64437190Y-76745178D01*
X64402243Y-77100000D01*
X64437190Y-77454822D01*
X64540688Y-77796008D01*
X64708759Y-78110447D01*
X64934945Y-78386055D01*
X65210553Y-78612241D01*
X65524992Y-78780312D01*
X65866178Y-78883810D01*
X66132089Y-78910000D01*
X66759911Y-78910000D01*
X67025822Y-78883810D01*
X67367008Y-78780312D01*
X67681447Y-78612241D01*
X67957055Y-78386055D01*
X68183241Y-78110447D01*
X68351312Y-77796008D01*
X68454810Y-77454822D01*
X68489757Y-77100000D01*
X68454810Y-76745178D01*
X68351312Y-76403992D01*
X68304461Y-76316340D01*
X72660802Y-71960000D01*
X74885124Y-71960000D01*
X74875723Y-71965025D01*
X74759998Y-72059998D01*
X74736195Y-72089002D01*
X74724002Y-72101195D01*
X74694998Y-72124998D01*
X74639870Y-72192173D01*
X74600025Y-72240723D01*
X74537486Y-72357725D01*
X74529453Y-72372753D01*
X74485996Y-72516014D01*
X74474999Y-72627667D01*
X74474999Y-72627677D01*
X74471323Y-72664999D01*
X74474999Y-72702322D01*
X74475000Y-75437667D01*
X74471323Y-75474999D01*
X74475000Y-75512332D01*
X74485997Y-75623985D01*
X74499179Y-75667441D01*
X74529453Y-75767245D01*
X74600025Y-75899275D01*
X74658048Y-75969975D01*
X74694999Y-76015000D01*
X74723997Y-76038798D01*
X75001539Y-76316340D01*
X74954688Y-76403992D01*
X74851190Y-76745178D01*
X74816243Y-77100000D01*
X74851190Y-77454822D01*
X74954688Y-77796008D01*
X75122759Y-78110447D01*
X75348945Y-78386055D01*
X75624553Y-78612241D01*
X75938992Y-78780312D01*
X76280178Y-78883810D01*
X76546089Y-78910000D01*
X77173911Y-78910000D01*
X77439822Y-78883810D01*
X77781008Y-78780312D01*
X78095447Y-78612241D01*
X78371055Y-78386055D01*
X78597241Y-78110447D01*
X78765312Y-77796008D01*
X78868810Y-77454822D01*
X78903757Y-77100000D01*
X78868810Y-76745178D01*
X78765312Y-76403992D01*
X78597241Y-76089553D01*
X78371055Y-75813945D01*
X78238697Y-75705321D01*
X78284482Y-75700812D01*
X78404180Y-75664502D01*
X78514494Y-75605537D01*
X78611185Y-75526185D01*
X78690537Y-75429494D01*
X78749502Y-75319180D01*
X78785812Y-75199482D01*
X78798072Y-75075000D01*
X78795000Y-74285750D01*
X78636250Y-74127000D01*
X76987000Y-74127000D01*
X76987000Y-74147000D01*
X76733000Y-74147000D01*
X76733000Y-74127000D01*
X76713000Y-74127000D01*
X76713000Y-73873000D01*
X76733000Y-73873000D01*
X76733000Y-73853000D01*
X76987000Y-73853000D01*
X76987000Y-73873000D01*
X78636250Y-73873000D01*
X78795000Y-73714250D01*
X78796379Y-73359999D01*
X85118091Y-73359999D01*
X85155413Y-73363675D01*
X85192735Y-73359999D01*
X85192746Y-73359999D01*
X85304399Y-73349002D01*
X85337539Y-73338949D01*
X85339000Y-73714250D01*
X85497750Y-73873000D01*
X87147000Y-73873000D01*
X87147000Y-72448750D01*
X87401000Y-72448750D01*
X87401000Y-73873000D01*
X89050250Y-73873000D01*
X89209000Y-73714250D01*
X89212072Y-72925000D01*
X89199812Y-72800518D01*
X89163502Y-72680820D01*
X89104537Y-72570506D01*
X89025185Y-72473815D01*
X88928494Y-72394463D01*
X88818180Y-72335498D01*
X88698482Y-72299188D01*
X88574000Y-72286928D01*
X87559750Y-72290000D01*
X87401000Y-72448750D01*
X87147000Y-72448750D01*
X86988250Y-72290000D01*
X86541566Y-72288647D01*
X90413002Y-68417212D01*
X90442000Y-68393414D01*
X90536973Y-68277689D01*
X90607545Y-68145660D01*
X90651002Y-68002399D01*
X90661999Y-67890746D01*
X90661999Y-67890737D01*
X90665675Y-67853414D01*
X90661999Y-67816091D01*
X90661999Y-50272587D01*
X90832000Y-50386178D01*
X90832001Y-72467197D01*
X89111224Y-74187974D01*
X89050250Y-74127000D01*
X87401000Y-74127000D01*
X87401000Y-74147000D01*
X87147000Y-74147000D01*
X87147000Y-74127000D01*
X85497750Y-74127000D01*
X85339000Y-74285750D01*
X85335928Y-75075000D01*
X85348188Y-75199482D01*
X85384498Y-75319180D01*
X85443463Y-75429494D01*
X85522815Y-75526185D01*
X85619506Y-75605537D01*
X85729820Y-75664502D01*
X85849518Y-75700812D01*
X85895303Y-75705321D01*
X85762945Y-75813945D01*
X85536759Y-76089553D01*
X85368688Y-76403992D01*
X85265190Y-76745178D01*
X85230243Y-77100000D01*
X85265190Y-77454822D01*
X85368688Y-77796008D01*
X85536759Y-78110447D01*
X85762945Y-78386055D01*
X86038553Y-78612241D01*
X86352992Y-78780312D01*
X86694178Y-78883810D01*
X86960089Y-78910000D01*
X87587911Y-78910000D01*
X87853822Y-78883810D01*
X88195008Y-78780312D01*
X88509447Y-78612241D01*
X88785055Y-78386055D01*
X89011241Y-78110447D01*
X89179312Y-77796008D01*
X89282810Y-77454822D01*
X89317757Y-77100000D01*
X89282810Y-76745178D01*
X89179312Y-76403992D01*
X89132461Y-76316340D01*
X92103003Y-73345799D01*
X92132001Y-73322001D01*
X92196999Y-73242800D01*
X92196999Y-79402199D01*
X88033254Y-83565944D01*
X87853003Y-83491282D01*
X87469505Y-83415000D01*
X87078495Y-83415000D01*
X86694997Y-83491282D01*
X86333750Y-83640915D01*
X86008636Y-83858149D01*
X85732149Y-84134636D01*
X85514915Y-84459750D01*
X85365282Y-84820997D01*
X85289000Y-85204495D01*
X85289000Y-85595505D01*
X85365282Y-85979003D01*
X85514915Y-86340250D01*
X85732149Y-86665364D01*
X86008636Y-86941851D01*
X86333750Y-87159085D01*
X86694997Y-87308718D01*
X87078495Y-87385000D01*
X87469505Y-87385000D01*
X87853003Y-87308718D01*
X88214250Y-87159085D01*
X88539364Y-86941851D01*
X88815851Y-86665364D01*
X89033085Y-86340250D01*
X89182718Y-85979003D01*
X89259000Y-85595505D01*
X89259000Y-85204495D01*
X89182718Y-84820997D01*
X89108056Y-84640746D01*
X93468003Y-80280799D01*
X93497000Y-80257002D01*
X93591973Y-80141277D01*
X93662545Y-80009248D01*
X93706002Y-79865987D01*
X93716999Y-79754334D01*
X93716999Y-79754325D01*
X93720675Y-79717002D01*
X93716999Y-79679679D01*
X93716999Y-74203800D01*
X95829539Y-76316341D01*
X95782688Y-76403992D01*
X95679190Y-76745178D01*
X95644243Y-77100000D01*
X95679190Y-77454822D01*
X95782688Y-77796008D01*
X95950759Y-78110447D01*
X96176945Y-78386055D01*
X96452553Y-78612241D01*
X96766992Y-78780312D01*
X97108178Y-78883810D01*
X97374089Y-78910000D01*
X98001911Y-78910000D01*
X98267822Y-78883810D01*
X98609008Y-78780312D01*
X98923447Y-78612241D01*
X99053012Y-78505910D01*
X99053012Y-82960185D01*
X98447254Y-83565944D01*
X98267003Y-83491282D01*
X97883505Y-83415000D01*
X97492495Y-83415000D01*
X97108997Y-83491282D01*
X96747750Y-83640915D01*
X96422636Y-83858149D01*
X96146149Y-84134636D01*
X95928915Y-84459750D01*
X95779282Y-84820997D01*
X95703000Y-85204495D01*
X95703000Y-85595505D01*
X95779282Y-85979003D01*
X95928915Y-86340250D01*
X96146149Y-86665364D01*
X96422636Y-86941851D01*
X96747750Y-87159085D01*
X97108997Y-87308718D01*
X97492495Y-87385000D01*
X97883505Y-87385000D01*
X98267003Y-87308718D01*
X98628250Y-87159085D01*
X98953364Y-86941851D01*
X99229851Y-86665364D01*
X99447085Y-86340250D01*
X99596718Y-85979003D01*
X99673000Y-85595505D01*
X99673000Y-85204495D01*
X99596718Y-84820997D01*
X99522056Y-84640746D01*
X100324019Y-83838784D01*
X100353012Y-83814990D01*
X100376806Y-83785997D01*
X100376810Y-83785993D01*
X100447984Y-83699266D01*
X100447985Y-83699265D01*
X100518557Y-83567236D01*
X100562014Y-83423975D01*
X100573011Y-83312322D01*
X100573011Y-83312313D01*
X100576687Y-83274990D01*
X100573011Y-83237667D01*
X100573011Y-69921557D01*
X100594454Y-69992246D01*
X100665026Y-70124276D01*
X100695175Y-70161012D01*
X100759999Y-70240001D01*
X100789003Y-70263804D01*
X116436201Y-85911003D01*
X116459999Y-85940001D01*
X116488997Y-85963799D01*
X116575723Y-86034974D01*
X116707751Y-86105545D01*
X116707753Y-86105546D01*
X116851014Y-86149003D01*
X116962667Y-86160000D01*
X116962677Y-86160000D01*
X117000000Y-86163676D01*
X117037323Y-86160000D01*
X121706253Y-86160000D01*
X121780915Y-86340250D01*
X121998149Y-86665364D01*
X122274636Y-86941851D01*
X122599750Y-87159085D01*
X122960997Y-87308718D01*
X123344495Y-87385000D01*
X123735505Y-87385000D01*
X124119003Y-87308718D01*
X124480250Y-87159085D01*
X124805364Y-86941851D01*
X125081851Y-86665364D01*
X125299085Y-86340250D01*
X125448718Y-85979003D01*
X125525000Y-85595505D01*
X125525000Y-85204495D01*
X125448718Y-84820997D01*
X125299085Y-84459750D01*
X125081851Y-84134636D01*
X124805364Y-83858149D01*
X124480250Y-83640915D01*
X124119003Y-83491282D01*
X123735505Y-83415000D01*
X123344495Y-83415000D01*
X122960997Y-83491282D01*
X122599750Y-83640915D01*
X122274636Y-83858149D01*
X121998149Y-84134636D01*
X121780915Y-84459750D01*
X121706253Y-84640000D01*
X117314802Y-84640000D01*
X114816597Y-82141795D01*
X129620994Y-82141795D01*
X132119944Y-84640746D01*
X132045282Y-84820997D01*
X131969000Y-85204495D01*
X131969000Y-85595505D01*
X132045282Y-85979003D01*
X132194915Y-86340250D01*
X132412149Y-86665364D01*
X132688636Y-86941851D01*
X133013750Y-87159085D01*
X133374997Y-87308718D01*
X133758495Y-87385000D01*
X134149505Y-87385000D01*
X134533003Y-87308718D01*
X134894250Y-87159085D01*
X135219364Y-86941851D01*
X135495851Y-86665364D01*
X135713085Y-86340250D01*
X135862718Y-85979003D01*
X135939000Y-85595505D01*
X135939000Y-85204495D01*
X135862718Y-84820997D01*
X135713085Y-84459750D01*
X135495851Y-84134636D01*
X135219364Y-83858149D01*
X134894250Y-83640915D01*
X134533003Y-83491282D01*
X134149505Y-83415000D01*
X133758495Y-83415000D01*
X133374997Y-83491282D01*
X133194746Y-83565944D01*
X131088801Y-81460000D01*
X139353199Y-81460000D01*
X142533944Y-84640746D01*
X142459282Y-84820997D01*
X142383000Y-85204495D01*
X142383000Y-85595505D01*
X142459282Y-85979003D01*
X142608915Y-86340250D01*
X142826149Y-86665364D01*
X143102636Y-86941851D01*
X143427750Y-87159085D01*
X143788997Y-87308718D01*
X144172495Y-87385000D01*
X144563505Y-87385000D01*
X144947003Y-87308718D01*
X145308250Y-87159085D01*
X145633364Y-86941851D01*
X145909851Y-86665364D01*
X146127085Y-86340250D01*
X146276718Y-85979003D01*
X146353000Y-85595505D01*
X146353000Y-85204495D01*
X146276718Y-84820997D01*
X146127085Y-84459750D01*
X145909851Y-84134636D01*
X145633364Y-83858149D01*
X145308250Y-83640915D01*
X144947003Y-83491282D01*
X144563505Y-83415000D01*
X144172495Y-83415000D01*
X143788997Y-83491282D01*
X143608746Y-83565944D01*
X140231804Y-80189003D01*
X140208001Y-80159999D01*
X140092276Y-80065026D01*
X139960247Y-79994454D01*
X139816986Y-79950997D01*
X139705333Y-79940000D01*
X139705322Y-79940000D01*
X139668000Y-79936324D01*
X139630678Y-79940000D01*
X114714803Y-79940000D01*
X114516598Y-79741795D01*
X148048994Y-79741795D01*
X152947944Y-84640746D01*
X152873282Y-84820997D01*
X152797000Y-85204495D01*
X152797000Y-85595505D01*
X152873282Y-85979003D01*
X153022915Y-86340250D01*
X153240149Y-86665364D01*
X153516636Y-86941851D01*
X153841750Y-87159085D01*
X154202997Y-87308718D01*
X154586495Y-87385000D01*
X154977505Y-87385000D01*
X155361003Y-87308718D01*
X155722250Y-87159085D01*
X156047364Y-86941851D01*
X156323851Y-86665364D01*
X156541085Y-86340250D01*
X156690718Y-85979003D01*
X156767000Y-85595505D01*
X156767000Y-85204495D01*
X156690718Y-84820997D01*
X156541085Y-84459750D01*
X156323851Y-84134636D01*
X156047364Y-83858149D01*
X155722250Y-83640915D01*
X155361003Y-83491282D01*
X154977505Y-83415000D01*
X154586495Y-83415000D01*
X154202997Y-83491282D01*
X154022746Y-83565944D01*
X148927599Y-78470798D01*
X148903796Y-78441794D01*
X148788071Y-78346821D01*
X148656042Y-78276249D01*
X148512781Y-78232792D01*
X148401128Y-78221795D01*
X148401117Y-78221795D01*
X148363795Y-78218119D01*
X148326473Y-78221795D01*
X146013860Y-78221795D01*
X146105241Y-78110447D01*
X146273312Y-77796008D01*
X146376810Y-77454822D01*
X146411757Y-77100000D01*
X146376810Y-76745178D01*
X146273312Y-76403992D01*
X146249792Y-76359990D01*
X152900208Y-76359990D01*
X152876688Y-76403992D01*
X152773190Y-76745178D01*
X152738243Y-77100000D01*
X152773190Y-77454822D01*
X152876688Y-77796008D01*
X153044759Y-78110447D01*
X153270945Y-78386055D01*
X153546553Y-78612241D01*
X153860992Y-78780312D01*
X154202178Y-78883810D01*
X154468089Y-78910000D01*
X155095911Y-78910000D01*
X155361822Y-78883810D01*
X155703008Y-78780312D01*
X156017447Y-78612241D01*
X156293055Y-78386055D01*
X156519241Y-78110447D01*
X156687312Y-77796008D01*
X156790810Y-77454822D01*
X156825757Y-77100000D01*
X156790810Y-76745178D01*
X156687312Y-76403992D01*
X156519241Y-76089553D01*
X156293055Y-75813945D01*
X156160697Y-75705321D01*
X156206482Y-75700812D01*
X156326180Y-75664502D01*
X156436494Y-75605537D01*
X156533185Y-75526185D01*
X156612537Y-75429494D01*
X156671502Y-75319180D01*
X156707812Y-75199482D01*
X156720072Y-75075000D01*
X156717000Y-74285750D01*
X156558250Y-74127000D01*
X154909000Y-74127000D01*
X154909000Y-74147000D01*
X154655000Y-74147000D01*
X154655000Y-74127000D01*
X153005750Y-74127000D01*
X152847000Y-74285750D01*
X152844843Y-74839990D01*
X146305157Y-74839990D01*
X146303000Y-74285750D01*
X146144250Y-74127000D01*
X144495000Y-74127000D01*
X144495000Y-74147000D01*
X144241000Y-74147000D01*
X144241000Y-74127000D01*
X144221000Y-74127000D01*
X144221000Y-73873000D01*
X144241000Y-73873000D01*
X144241000Y-72448750D01*
X144495000Y-72448750D01*
X144495000Y-73873000D01*
X146144250Y-73873000D01*
X146303000Y-73714250D01*
X146306072Y-72925000D01*
X152843928Y-72925000D01*
X152847000Y-73714250D01*
X153005750Y-73873000D01*
X154655000Y-73873000D01*
X154655000Y-72448750D01*
X154909000Y-72448750D01*
X154909000Y-73873000D01*
X156558250Y-73873000D01*
X156717000Y-73714250D01*
X156720072Y-72925000D01*
X156707812Y-72800518D01*
X156671502Y-72680820D01*
X156612537Y-72570506D01*
X156533185Y-72473815D01*
X156436494Y-72394463D01*
X156326180Y-72335498D01*
X156206482Y-72299188D01*
X156082000Y-72286928D01*
X155067750Y-72290000D01*
X154909000Y-72448750D01*
X154655000Y-72448750D01*
X154496250Y-72290000D01*
X153482000Y-72286928D01*
X153357518Y-72299188D01*
X153237820Y-72335498D01*
X153127506Y-72394463D01*
X153030815Y-72473815D01*
X152951463Y-72570506D01*
X152892498Y-72680820D01*
X152856188Y-72800518D01*
X152843928Y-72925000D01*
X146306072Y-72925000D01*
X146293812Y-72800518D01*
X146257502Y-72680820D01*
X146198537Y-72570506D01*
X146119185Y-72473815D01*
X146022494Y-72394463D01*
X145912180Y-72335498D01*
X145792482Y-72299188D01*
X145668000Y-72286928D01*
X144653750Y-72290000D01*
X144495000Y-72448750D01*
X144241000Y-72448750D01*
X144137525Y-72345275D01*
X149312305Y-67170495D01*
X152797000Y-67170495D01*
X152797000Y-67561505D01*
X152873282Y-67945003D01*
X153022915Y-68306250D01*
X153240149Y-68631364D01*
X153516636Y-68907851D01*
X153841750Y-69125085D01*
X154202997Y-69274718D01*
X154586495Y-69351000D01*
X154977505Y-69351000D01*
X155361003Y-69274718D01*
X155722250Y-69125085D01*
X156047364Y-68907851D01*
X156323851Y-68631364D01*
X156541085Y-68306250D01*
X156690718Y-67945003D01*
X156767000Y-67561505D01*
X156767000Y-67170495D01*
X156690718Y-66786997D01*
X156541085Y-66425750D01*
X156323851Y-66100636D01*
X156047364Y-65824149D01*
X155722250Y-65606915D01*
X155361003Y-65457282D01*
X154977505Y-65381000D01*
X154586495Y-65381000D01*
X154202997Y-65457282D01*
X153841750Y-65606915D01*
X153516636Y-65824149D01*
X153240149Y-66100636D01*
X153022915Y-66425750D01*
X152873282Y-66786997D01*
X152797000Y-67170495D01*
X149312305Y-67170495D01*
X152499003Y-63983797D01*
X152528001Y-63959999D01*
X152622974Y-63844274D01*
X152693546Y-63712245D01*
X152737003Y-63568984D01*
X152748000Y-63457331D01*
X152748000Y-63457323D01*
X152751676Y-63419998D01*
X152748000Y-63382673D01*
X152748000Y-59165064D01*
X152773190Y-59420822D01*
X152876688Y-59762008D01*
X153044759Y-60076447D01*
X153270945Y-60352055D01*
X153546553Y-60578241D01*
X153860992Y-60746312D01*
X154202178Y-60849810D01*
X154468089Y-60876000D01*
X155095911Y-60876000D01*
X155361822Y-60849810D01*
X155703008Y-60746312D01*
X156017447Y-60578241D01*
X156293055Y-60352055D01*
X156519241Y-60076447D01*
X156687312Y-59762008D01*
X156790810Y-59420822D01*
X156825757Y-59066000D01*
X156790810Y-58711178D01*
X156687312Y-58369992D01*
X156519241Y-58055553D01*
X156293055Y-57779945D01*
X156160697Y-57671321D01*
X156206482Y-57666812D01*
X156326180Y-57630502D01*
X156436494Y-57571537D01*
X156533185Y-57492185D01*
X156612537Y-57395494D01*
X156671502Y-57285180D01*
X156707812Y-57165482D01*
X156720072Y-57041000D01*
X156717000Y-56251750D01*
X156558250Y-56093000D01*
X154909000Y-56093000D01*
X154909000Y-56113000D01*
X154655000Y-56113000D01*
X154655000Y-56093000D01*
X153005750Y-56093000D01*
X152847000Y-56251750D01*
X152843928Y-57041000D01*
X152856188Y-57165482D01*
X152892498Y-57285180D01*
X152951463Y-57395494D01*
X153030815Y-57492185D01*
X153127506Y-57571537D01*
X153237820Y-57630502D01*
X153357518Y-57666812D01*
X153403303Y-57671321D01*
X153270945Y-57779945D01*
X153044759Y-58055553D01*
X152876688Y-58369992D01*
X152773190Y-58711178D01*
X152748000Y-58966936D01*
X152748000Y-54891000D01*
X152843928Y-54891000D01*
X152847000Y-55680250D01*
X153005750Y-55839000D01*
X154655000Y-55839000D01*
X154655000Y-54414750D01*
X154909000Y-54414750D01*
X154909000Y-55839000D01*
X156558250Y-55839000D01*
X156717000Y-55680250D01*
X156720072Y-54891000D01*
X156707812Y-54766518D01*
X156671502Y-54646820D01*
X156612537Y-54536506D01*
X156533185Y-54439815D01*
X156436494Y-54360463D01*
X156326180Y-54301498D01*
X156206482Y-54265188D01*
X156082000Y-54252928D01*
X155067750Y-54256000D01*
X154909000Y-54414750D01*
X154655000Y-54414750D01*
X154496250Y-54256000D01*
X153482000Y-54252928D01*
X153357518Y-54265188D01*
X153237820Y-54301498D01*
X153127506Y-54360463D01*
X153030815Y-54439815D01*
X152951463Y-54536506D01*
X152892498Y-54646820D01*
X152856188Y-54766518D01*
X152843928Y-54891000D01*
X152748000Y-54891000D01*
X152748000Y-50950000D01*
X178386928Y-50950000D01*
X178399188Y-51074482D01*
X178435498Y-51194180D01*
X178494463Y-51304494D01*
X178549100Y-51371070D01*
X178531329Y-51392725D01*
X178452150Y-51540858D01*
X178403392Y-51701592D01*
X178386928Y-51868750D01*
X178386928Y-52306250D01*
X178403392Y-52473408D01*
X178452150Y-52634142D01*
X178531329Y-52782275D01*
X178612564Y-52881262D01*
X178610719Y-52900000D01*
X178615000Y-52943469D01*
X178615000Y-52943477D01*
X178620658Y-53000921D01*
X178627805Y-53073490D01*
X178678412Y-53240313D01*
X178760590Y-53394059D01*
X178843468Y-53495046D01*
X178843471Y-53495049D01*
X178871184Y-53528817D01*
X178904951Y-53556529D01*
X181315470Y-55967049D01*
X181343183Y-56000817D01*
X181376951Y-56028530D01*
X181376953Y-56028532D01*
X181391928Y-56040822D01*
X181391928Y-56222000D01*
X181404188Y-56346482D01*
X181440498Y-56466180D01*
X181499463Y-56576494D01*
X181578815Y-56673185D01*
X181675506Y-56752537D01*
X181785820Y-56811502D01*
X181905518Y-56847812D01*
X181995000Y-56856625D01*
X181995001Y-68028521D01*
X181990719Y-68072000D01*
X182007805Y-68245490D01*
X182058412Y-68412313D01*
X182140590Y-68566059D01*
X182223468Y-68667046D01*
X182223471Y-68667049D01*
X182251184Y-68700817D01*
X182284951Y-68728530D01*
X185201928Y-71645507D01*
X185201928Y-72732000D01*
X185214188Y-72856482D01*
X185250498Y-72976180D01*
X185309463Y-73086494D01*
X185388815Y-73183185D01*
X185485506Y-73262537D01*
X185595820Y-73321502D01*
X185715518Y-73357812D01*
X185840000Y-73370072D01*
X187540000Y-73370072D01*
X187664482Y-73357812D01*
X187784180Y-73321502D01*
X187894494Y-73262537D01*
X187991185Y-73183185D01*
X188070537Y-73086494D01*
X188129502Y-72976180D01*
X188165812Y-72856482D01*
X188178072Y-72732000D01*
X188178072Y-71032000D01*
X188165812Y-70907518D01*
X188129502Y-70787820D01*
X188070537Y-70677506D01*
X187991185Y-70580815D01*
X187894494Y-70501463D01*
X187784180Y-70442498D01*
X187703534Y-70418034D01*
X187787588Y-70342269D01*
X187961641Y-70108920D01*
X188086825Y-69846099D01*
X188131476Y-69698890D01*
X188010155Y-69469000D01*
X186817000Y-69469000D01*
X186817000Y-69489000D01*
X186563000Y-69489000D01*
X186563000Y-69469000D01*
X186543000Y-69469000D01*
X186543000Y-69215000D01*
X186563000Y-69215000D01*
X186563000Y-69195000D01*
X186817000Y-69195000D01*
X186817000Y-69215000D01*
X188010155Y-69215000D01*
X188131476Y-68985110D01*
X188086825Y-68837901D01*
X187961641Y-68575080D01*
X187787588Y-68341731D01*
X187571355Y-68146822D01*
X187454466Y-68077195D01*
X187636632Y-67955475D01*
X187843475Y-67748632D01*
X188005990Y-67505411D01*
X188117932Y-67235158D01*
X188175000Y-66948260D01*
X188175000Y-66655740D01*
X188117932Y-66368842D01*
X188005990Y-66098589D01*
X187843475Y-65855368D01*
X187636632Y-65648525D01*
X187462240Y-65532000D01*
X187636632Y-65415475D01*
X187843475Y-65208632D01*
X188005990Y-64965411D01*
X188117932Y-64695158D01*
X188175000Y-64408260D01*
X188175000Y-64115740D01*
X188117932Y-63828842D01*
X188005990Y-63558589D01*
X187843475Y-63315368D01*
X187636632Y-63108525D01*
X187462240Y-62992000D01*
X187636632Y-62875475D01*
X187843475Y-62668632D01*
X188005990Y-62425411D01*
X188117932Y-62155158D01*
X188175000Y-61868260D01*
X188175000Y-61575740D01*
X188117932Y-61288842D01*
X188005990Y-61018589D01*
X187843475Y-60775368D01*
X187636632Y-60568525D01*
X187462240Y-60452000D01*
X187636632Y-60335475D01*
X187843475Y-60128632D01*
X188005990Y-59885411D01*
X188117932Y-59615158D01*
X188175000Y-59328260D01*
X188175000Y-59035740D01*
X188117932Y-58748842D01*
X188005990Y-58478589D01*
X187843475Y-58235368D01*
X187636632Y-58028525D01*
X187393411Y-57866010D01*
X187123158Y-57754068D01*
X186836260Y-57697000D01*
X186543740Y-57697000D01*
X186256842Y-57754068D01*
X185986589Y-57866010D01*
X185743368Y-58028525D01*
X185536525Y-58235368D01*
X185374010Y-58478589D01*
X185262068Y-58748842D01*
X185205000Y-59035740D01*
X185205000Y-59328260D01*
X185262068Y-59615158D01*
X185374010Y-59885411D01*
X185536525Y-60128632D01*
X185743368Y-60335475D01*
X185917760Y-60452000D01*
X185743368Y-60568525D01*
X185536525Y-60775368D01*
X185374010Y-61018589D01*
X185262068Y-61288842D01*
X185205000Y-61575740D01*
X185205000Y-61868260D01*
X185262068Y-62155158D01*
X185374010Y-62425411D01*
X185536525Y-62668632D01*
X185743368Y-62875475D01*
X185917760Y-62992000D01*
X185743368Y-63108525D01*
X185536525Y-63315368D01*
X185374010Y-63558589D01*
X185262068Y-63828842D01*
X185205000Y-64115740D01*
X185205000Y-64408260D01*
X185262068Y-64695158D01*
X185374010Y-64965411D01*
X185536525Y-65208632D01*
X185743368Y-65415475D01*
X185917760Y-65532000D01*
X185743368Y-65648525D01*
X185536525Y-65855368D01*
X185374010Y-66098589D01*
X185262068Y-66368842D01*
X185205000Y-66655740D01*
X185205000Y-66948260D01*
X185262068Y-67235158D01*
X185374010Y-67505411D01*
X185536525Y-67748632D01*
X185743368Y-67955475D01*
X185925534Y-68077195D01*
X185808645Y-68146822D01*
X185592412Y-68341731D01*
X185418359Y-68575080D01*
X185293175Y-68837901D01*
X185248524Y-68985110D01*
X185369844Y-69214998D01*
X185274577Y-69214998D01*
X183765000Y-67705422D01*
X183765000Y-56856625D01*
X183854482Y-56847812D01*
X183974180Y-56811502D01*
X184084494Y-56752537D01*
X184181185Y-56673185D01*
X184260537Y-56576494D01*
X184319502Y-56466180D01*
X184343966Y-56385534D01*
X184419731Y-56469588D01*
X184653080Y-56643641D01*
X184915901Y-56768825D01*
X185063110Y-56813476D01*
X185293000Y-56692155D01*
X185293000Y-55499000D01*
X185273000Y-55499000D01*
X185273000Y-55245000D01*
X185293000Y-55245000D01*
X185293000Y-54051845D01*
X185547000Y-54051845D01*
X185547000Y-55245000D01*
X185567000Y-55245000D01*
X185567000Y-55499000D01*
X185547000Y-55499000D01*
X185547000Y-56692155D01*
X185776890Y-56813476D01*
X185924099Y-56768825D01*
X186186920Y-56643641D01*
X186420269Y-56469588D01*
X186615178Y-56253355D01*
X186684805Y-56136466D01*
X186806525Y-56318632D01*
X187013368Y-56525475D01*
X187256589Y-56687990D01*
X187526842Y-56799932D01*
X187813740Y-56857000D01*
X188106260Y-56857000D01*
X188393158Y-56799932D01*
X188663411Y-56687990D01*
X188906632Y-56525475D01*
X189113475Y-56318632D01*
X189230000Y-56144240D01*
X189346525Y-56318632D01*
X189553368Y-56525475D01*
X189796589Y-56687990D01*
X190066842Y-56799932D01*
X190353740Y-56857000D01*
X190646260Y-56857000D01*
X190933158Y-56799932D01*
X191203411Y-56687990D01*
X191446632Y-56525475D01*
X191653475Y-56318632D01*
X191770000Y-56144240D01*
X191886525Y-56318632D01*
X192093368Y-56525475D01*
X192336589Y-56687990D01*
X192606842Y-56799932D01*
X192893740Y-56857000D01*
X193186260Y-56857000D01*
X193473158Y-56799932D01*
X193743411Y-56687990D01*
X193986632Y-56525475D01*
X194193475Y-56318632D01*
X194310000Y-56144240D01*
X194426525Y-56318632D01*
X194633368Y-56525475D01*
X194876589Y-56687990D01*
X195146842Y-56799932D01*
X195433740Y-56857000D01*
X195726260Y-56857000D01*
X196013158Y-56799932D01*
X196283411Y-56687990D01*
X196526632Y-56525475D01*
X196733475Y-56318632D01*
X196895990Y-56075411D01*
X197007932Y-55805158D01*
X197065000Y-55518260D01*
X197065000Y-55225740D01*
X197007932Y-54938842D01*
X196895990Y-54668589D01*
X196733475Y-54425368D01*
X196526632Y-54218525D01*
X196283411Y-54056010D01*
X196013158Y-53944068D01*
X195726260Y-53887000D01*
X195433740Y-53887000D01*
X195146842Y-53944068D01*
X194876589Y-54056010D01*
X194633368Y-54218525D01*
X194426525Y-54425368D01*
X194310000Y-54599760D01*
X194193475Y-54425368D01*
X193986632Y-54218525D01*
X193743411Y-54056010D01*
X193473158Y-53944068D01*
X193186260Y-53887000D01*
X192893740Y-53887000D01*
X192606842Y-53944068D01*
X192336589Y-54056010D01*
X192093368Y-54218525D01*
X191886525Y-54425368D01*
X191770000Y-54599760D01*
X191653475Y-54425368D01*
X191446632Y-54218525D01*
X191203411Y-54056010D01*
X190933158Y-53944068D01*
X190646260Y-53887000D01*
X190353740Y-53887000D01*
X190066842Y-53944068D01*
X189796589Y-54056010D01*
X189553368Y-54218525D01*
X189346525Y-54425368D01*
X189230000Y-54599760D01*
X189113475Y-54425368D01*
X188906632Y-54218525D01*
X188663411Y-54056010D01*
X188393158Y-53944068D01*
X188106260Y-53887000D01*
X187813740Y-53887000D01*
X187526842Y-53944068D01*
X187256589Y-54056010D01*
X187013368Y-54218525D01*
X186806525Y-54425368D01*
X186684805Y-54607534D01*
X186615178Y-54490645D01*
X186420269Y-54274412D01*
X186186920Y-54100359D01*
X185924099Y-53975175D01*
X185776890Y-53930524D01*
X185547000Y-54051845D01*
X185293000Y-54051845D01*
X185063110Y-53930524D01*
X184915901Y-53975175D01*
X184653080Y-54100359D01*
X184419731Y-54274412D01*
X184343966Y-54358466D01*
X184319502Y-54277820D01*
X184260537Y-54167506D01*
X184181185Y-54070815D01*
X184084494Y-53991463D01*
X183974180Y-53932498D01*
X183854482Y-53896188D01*
X183730000Y-53883928D01*
X182030000Y-53883928D01*
X181905518Y-53896188D01*
X181785820Y-53932498D01*
X181784684Y-53933105D01*
X180824078Y-52972500D01*
X182352032Y-52972500D01*
X182395501Y-52976781D01*
X182438970Y-52972500D01*
X189987033Y-52972500D01*
X190030502Y-52976781D01*
X190073971Y-52972500D01*
X190073979Y-52972500D01*
X190203992Y-52959695D01*
X190370815Y-52909089D01*
X190524561Y-52826911D01*
X190659319Y-52716317D01*
X190687036Y-52682544D01*
X193887509Y-49482072D01*
X194506001Y-49482072D01*
X194679255Y-49465008D01*
X194845851Y-49414472D01*
X194999387Y-49332405D01*
X195133962Y-49221962D01*
X195244405Y-49087387D01*
X195326472Y-48933851D01*
X195377008Y-48767255D01*
X195394072Y-48594001D01*
X195394072Y-47943999D01*
X195377008Y-47770745D01*
X195326472Y-47604149D01*
X195244405Y-47450613D01*
X195133962Y-47316038D01*
X195046184Y-47244000D01*
X195133962Y-47171962D01*
X195244405Y-47037387D01*
X195326472Y-46883851D01*
X195377008Y-46717255D01*
X195394072Y-46544001D01*
X195394072Y-45893999D01*
X195377008Y-45720745D01*
X195326472Y-45554149D01*
X195244405Y-45400613D01*
X195133962Y-45266038D01*
X194999387Y-45155595D01*
X194845851Y-45073528D01*
X194679255Y-45022992D01*
X194506001Y-45005928D01*
X193605999Y-45005928D01*
X193432745Y-45022992D01*
X193371775Y-45041487D01*
X193317205Y-44909744D01*
X193203937Y-44740226D01*
X193059774Y-44596063D01*
X192890256Y-44482795D01*
X192701898Y-44404774D01*
X192501939Y-44365000D01*
X192298061Y-44365000D01*
X192098102Y-44404774D01*
X191909744Y-44482795D01*
X191740226Y-44596063D01*
X191596063Y-44740226D01*
X191482795Y-44909744D01*
X191404774Y-45098102D01*
X191367698Y-45284499D01*
X191163997Y-45488200D01*
X191139740Y-45508107D01*
X191108175Y-45491849D01*
X190987939Y-45457366D01*
X190863285Y-45447002D01*
X190433750Y-45450000D01*
X190275000Y-45608750D01*
X190275000Y-46096928D01*
X190021000Y-46096928D01*
X190021000Y-45608750D01*
X189862250Y-45450000D01*
X189432715Y-45447002D01*
X189308061Y-45457366D01*
X189187825Y-45491849D01*
X189076625Y-45549126D01*
X188978737Y-45626997D01*
X188897922Y-45722469D01*
X188837285Y-45831873D01*
X188799156Y-45951004D01*
X188788000Y-46053250D01*
X188946750Y-46212000D01*
X189059322Y-46212000D01*
X188971815Y-46283815D01*
X188892463Y-46380506D01*
X188833498Y-46490820D01*
X188820247Y-46534503D01*
X188788000Y-46566750D01*
X188795095Y-46631773D01*
X188784928Y-46735000D01*
X188784928Y-47185000D01*
X188794777Y-47285000D01*
X188784928Y-47385000D01*
X188784928Y-47835000D01*
X188794777Y-47935000D01*
X188784928Y-48035000D01*
X188784928Y-48485000D01*
X188794777Y-48585000D01*
X188784928Y-48685000D01*
X188784928Y-49135000D01*
X188795095Y-49238227D01*
X188788000Y-49303250D01*
X188820247Y-49335497D01*
X188833498Y-49379180D01*
X188892463Y-49489494D01*
X188950559Y-49560285D01*
X188897922Y-49622469D01*
X188837285Y-49731873D01*
X188820531Y-49784219D01*
X188788000Y-49816750D01*
X188795447Y-49885000D01*
X188788000Y-49953250D01*
X188820531Y-49985781D01*
X188837285Y-50038127D01*
X188897922Y-50147531D01*
X188978737Y-50243003D01*
X189060442Y-50308000D01*
X188946750Y-50308000D01*
X188788000Y-50466750D01*
X188799156Y-50568996D01*
X188837285Y-50688127D01*
X188897922Y-50797531D01*
X188978737Y-50893003D01*
X189076625Y-50970874D01*
X189187825Y-51028151D01*
X189308061Y-51062634D01*
X189432715Y-51072998D01*
X189795961Y-51070463D01*
X189663924Y-51202500D01*
X184532080Y-51202500D01*
X184661508Y-51073072D01*
X184973000Y-51073072D01*
X185097482Y-51060812D01*
X185217180Y-51024502D01*
X185327494Y-50965537D01*
X185424185Y-50886185D01*
X185503537Y-50789494D01*
X185562502Y-50679180D01*
X185598812Y-50559482D01*
X185611072Y-50435000D01*
X185611072Y-49985000D01*
X185601223Y-49885000D01*
X185611072Y-49785000D01*
X185611072Y-49335000D01*
X185601223Y-49235000D01*
X185801939Y-49235000D01*
X186001898Y-49195226D01*
X186190256Y-49117205D01*
X186359774Y-49003937D01*
X186503937Y-48859774D01*
X186617205Y-48690256D01*
X186695226Y-48501898D01*
X186735000Y-48301939D01*
X186735000Y-48098061D01*
X186695226Y-47898102D01*
X186656991Y-47805796D01*
X186659774Y-47803937D01*
X186803937Y-47659774D01*
X186917205Y-47490256D01*
X186995226Y-47301898D01*
X187035000Y-47101939D01*
X187035000Y-46898061D01*
X186995226Y-46698102D01*
X186917205Y-46509744D01*
X186803937Y-46340226D01*
X186659774Y-46196063D01*
X186490256Y-46082795D01*
X186301898Y-46004774D01*
X186101939Y-45965000D01*
X185898061Y-45965000D01*
X185698102Y-46004774D01*
X185606892Y-46042555D01*
X185598812Y-45960518D01*
X185562502Y-45840820D01*
X185503537Y-45730506D01*
X185424185Y-45633815D01*
X185327494Y-45554463D01*
X185217180Y-45495498D01*
X185097482Y-45459188D01*
X184973000Y-45446928D01*
X183523000Y-45446928D01*
X183398518Y-45459188D01*
X183278820Y-45495498D01*
X183168506Y-45554463D01*
X183071815Y-45633815D01*
X182992463Y-45730506D01*
X182933498Y-45840820D01*
X182897188Y-45960518D01*
X182884928Y-46085000D01*
X182884928Y-46535000D01*
X182894777Y-46635000D01*
X182884928Y-46735000D01*
X182884928Y-47185000D01*
X182894777Y-47285000D01*
X182884928Y-47385000D01*
X182884928Y-47835000D01*
X182894777Y-47935000D01*
X182884928Y-48035000D01*
X182884928Y-48121217D01*
X182859774Y-48096063D01*
X182690256Y-47982795D01*
X182501898Y-47904774D01*
X182301939Y-47865000D01*
X182098061Y-47865000D01*
X181898102Y-47904774D01*
X181709744Y-47982795D01*
X181540226Y-48096063D01*
X181396063Y-48240226D01*
X181282795Y-48409744D01*
X181204774Y-48598102D01*
X181165000Y-48798061D01*
X181165000Y-49001939D01*
X181204774Y-49201898D01*
X181282795Y-49390256D01*
X181389532Y-49550000D01*
X181282795Y-49709744D01*
X181204774Y-49898102D01*
X181165000Y-50098061D01*
X181165000Y-50301939D01*
X181204774Y-50501898D01*
X181282795Y-50690256D01*
X181396063Y-50859774D01*
X181540226Y-51003937D01*
X181709744Y-51117205D01*
X181898102Y-51195226D01*
X181934671Y-51202500D01*
X180560055Y-51202500D01*
X180564502Y-51194180D01*
X180600812Y-51074482D01*
X180613072Y-50950000D01*
X180610000Y-50798250D01*
X180451250Y-50639500D01*
X179627000Y-50639500D01*
X179627000Y-50659500D01*
X179373000Y-50659500D01*
X179373000Y-50639500D01*
X178548750Y-50639500D01*
X178390000Y-50798250D01*
X178386928Y-50950000D01*
X152748000Y-50950000D01*
X152748000Y-50386178D01*
X152934632Y-50261475D01*
X153121107Y-50075000D01*
X178386928Y-50075000D01*
X178390000Y-50226750D01*
X178548750Y-50385500D01*
X179373000Y-50385500D01*
X179373000Y-49598750D01*
X179627000Y-49598750D01*
X179627000Y-50385500D01*
X180451250Y-50385500D01*
X180610000Y-50226750D01*
X180613072Y-50075000D01*
X180600812Y-49950518D01*
X180564502Y-49830820D01*
X180505537Y-49720506D01*
X180426185Y-49623815D01*
X180329494Y-49544463D01*
X180219180Y-49485498D01*
X180099482Y-49449188D01*
X179975000Y-49436928D01*
X179785750Y-49440000D01*
X179627000Y-49598750D01*
X179373000Y-49598750D01*
X179214250Y-49440000D01*
X179025000Y-49436928D01*
X178900518Y-49449188D01*
X178780820Y-49485498D01*
X178670506Y-49544463D01*
X178573815Y-49623815D01*
X178494463Y-49720506D01*
X178435498Y-49830820D01*
X178399188Y-49950518D01*
X178386928Y-50075000D01*
X153121107Y-50075000D01*
X153141475Y-50054632D01*
X153303990Y-49811411D01*
X153415932Y-49541158D01*
X153473000Y-49254260D01*
X153473000Y-48961740D01*
X153415932Y-48674842D01*
X153303990Y-48404589D01*
X153141475Y-48161368D01*
X152934632Y-47954525D01*
X152691411Y-47792010D01*
X152421158Y-47680068D01*
X152134260Y-47623000D01*
X151841740Y-47623000D01*
X151554842Y-47680068D01*
X151284589Y-47792010D01*
X151041368Y-47954525D01*
X150834525Y-48161368D01*
X150718000Y-48335760D01*
X150601475Y-48161368D01*
X150394632Y-47954525D01*
X150151411Y-47792010D01*
X149881158Y-47680068D01*
X149594260Y-47623000D01*
X149301740Y-47623000D01*
X149014842Y-47680068D01*
X148744589Y-47792010D01*
X148501368Y-47954525D01*
X148294525Y-48161368D01*
X148178000Y-48335760D01*
X148061475Y-48161368D01*
X147854632Y-47954525D01*
X147611411Y-47792010D01*
X147341158Y-47680068D01*
X147054260Y-47623000D01*
X146761740Y-47623000D01*
X146474842Y-47680068D01*
X146204589Y-47792010D01*
X145961368Y-47954525D01*
X145829513Y-48086380D01*
X145807502Y-48013820D01*
X145748537Y-47903506D01*
X145669185Y-47806815D01*
X145572494Y-47727463D01*
X145462180Y-47668498D01*
X145342482Y-47632188D01*
X145218000Y-47619928D01*
X143518000Y-47619928D01*
X143393518Y-47632188D01*
X143273820Y-47668498D01*
X143163506Y-47727463D01*
X143066815Y-47806815D01*
X142987463Y-47903506D01*
X142928498Y-48013820D01*
X142892188Y-48133518D01*
X142879928Y-48258000D01*
X142879928Y-49958000D01*
X142892188Y-50082482D01*
X142928498Y-50202180D01*
X142987463Y-50312494D01*
X143066815Y-50409185D01*
X143163506Y-50488537D01*
X143273820Y-50547502D01*
X143393518Y-50583812D01*
X143518000Y-50596072D01*
X144781270Y-50596072D01*
X145333010Y-51147812D01*
X145333010Y-54253943D01*
X144653750Y-54256000D01*
X144495000Y-54414750D01*
X144495000Y-55839000D01*
X144515000Y-55839000D01*
X144515000Y-56093000D01*
X144495000Y-56093000D01*
X144495000Y-56113000D01*
X144241000Y-56113000D01*
X144241000Y-56093000D01*
X142591750Y-56093000D01*
X142433000Y-56251750D01*
X142429928Y-57041000D01*
X142442188Y-57165482D01*
X142478498Y-57285180D01*
X142537463Y-57395494D01*
X142616815Y-57492185D01*
X142713506Y-57571537D01*
X142823820Y-57630502D01*
X142943518Y-57666812D01*
X142989303Y-57671321D01*
X142856945Y-57779945D01*
X142630759Y-58055553D01*
X142462688Y-58369992D01*
X142359190Y-58711178D01*
X142324243Y-59066000D01*
X142359190Y-59420822D01*
X142462688Y-59762008D01*
X142630759Y-60076447D01*
X142856945Y-60352055D01*
X143132553Y-60578241D01*
X143446992Y-60746312D01*
X143788178Y-60849810D01*
X144054089Y-60876000D01*
X144681911Y-60876000D01*
X144947822Y-60849810D01*
X145289008Y-60746312D01*
X145333011Y-60722792D01*
X145333011Y-62210775D01*
X140689003Y-66854784D01*
X140659999Y-66878587D01*
X140625993Y-66920024D01*
X140565026Y-66994312D01*
X140494745Y-67125798D01*
X140494454Y-67126342D01*
X140450997Y-67269603D01*
X140440000Y-67381256D01*
X140440000Y-67381266D01*
X140436324Y-67418588D01*
X140440000Y-67455911D01*
X140440001Y-73285197D01*
X138885209Y-74839990D01*
X135891157Y-74839990D01*
X135889000Y-74285750D01*
X135730250Y-74127000D01*
X134081000Y-74127000D01*
X134081000Y-74147000D01*
X133827000Y-74147000D01*
X133827000Y-74127000D01*
X132177750Y-74127000D01*
X132019000Y-74285750D01*
X132016843Y-74839990D01*
X125477157Y-74839990D01*
X125475000Y-74285750D01*
X125316250Y-74127000D01*
X123667000Y-74127000D01*
X123667000Y-74147000D01*
X123413000Y-74147000D01*
X123413000Y-74127000D01*
X121763750Y-74127000D01*
X121605000Y-74285750D01*
X121601928Y-75075000D01*
X121614188Y-75199482D01*
X121650498Y-75319180D01*
X121709463Y-75429494D01*
X121788815Y-75526185D01*
X121885506Y-75605537D01*
X121995820Y-75664502D01*
X122115518Y-75700812D01*
X122161303Y-75705321D01*
X122028945Y-75813945D01*
X121802759Y-76089553D01*
X121634688Y-76403992D01*
X121531190Y-76745178D01*
X121496243Y-77100000D01*
X121531190Y-77454822D01*
X121634688Y-77796008D01*
X121802759Y-78110447D01*
X121894140Y-78221795D01*
X113696597Y-78221795D01*
X108399802Y-72925000D01*
X121601928Y-72925000D01*
X121605000Y-73714250D01*
X121763750Y-73873000D01*
X123413000Y-73873000D01*
X123413000Y-72448750D01*
X123667000Y-72448750D01*
X123667000Y-73873000D01*
X125316250Y-73873000D01*
X125475000Y-73714250D01*
X125478072Y-72925000D01*
X132015928Y-72925000D01*
X132019000Y-73714250D01*
X132177750Y-73873000D01*
X133827000Y-73873000D01*
X133827000Y-72448750D01*
X134081000Y-72448750D01*
X134081000Y-73873000D01*
X135730250Y-73873000D01*
X135889000Y-73714250D01*
X135892072Y-72925000D01*
X135879812Y-72800518D01*
X135843502Y-72680820D01*
X135784537Y-72570506D01*
X135705185Y-72473815D01*
X135608494Y-72394463D01*
X135498180Y-72335498D01*
X135378482Y-72299188D01*
X135254000Y-72286928D01*
X134239750Y-72290000D01*
X134081000Y-72448750D01*
X133827000Y-72448750D01*
X133668250Y-72290000D01*
X132654000Y-72286928D01*
X132529518Y-72299188D01*
X132409820Y-72335498D01*
X132299506Y-72394463D01*
X132202815Y-72473815D01*
X132123463Y-72570506D01*
X132064498Y-72680820D01*
X132028188Y-72800518D01*
X132015928Y-72925000D01*
X125478072Y-72925000D01*
X125465812Y-72800518D01*
X125429502Y-72680820D01*
X125370537Y-72570506D01*
X125291185Y-72473815D01*
X125194494Y-72394463D01*
X125084180Y-72335498D01*
X124964482Y-72299188D01*
X124840000Y-72286928D01*
X123825750Y-72290000D01*
X123667000Y-72448750D01*
X123413000Y-72448750D01*
X123254250Y-72290000D01*
X122240000Y-72286928D01*
X122115518Y-72299188D01*
X121995820Y-72335498D01*
X121885506Y-72394463D01*
X121788815Y-72473815D01*
X121709463Y-72570506D01*
X121650498Y-72680820D01*
X121614188Y-72800518D01*
X121601928Y-72925000D01*
X108399802Y-72925000D01*
X104810010Y-69335209D01*
X104810010Y-67170495D01*
X121555000Y-67170495D01*
X121555000Y-67561505D01*
X121631282Y-67945003D01*
X121780915Y-68306250D01*
X121998149Y-68631364D01*
X122274636Y-68907851D01*
X122599750Y-69125085D01*
X122960997Y-69274718D01*
X123344495Y-69351000D01*
X123735505Y-69351000D01*
X124119003Y-69274718D01*
X124480250Y-69125085D01*
X124805364Y-68907851D01*
X125081851Y-68631364D01*
X125299085Y-68306250D01*
X125448718Y-67945003D01*
X125525000Y-67561505D01*
X125525000Y-67170495D01*
X131969000Y-67170495D01*
X131969000Y-67561505D01*
X132045282Y-67945003D01*
X132194915Y-68306250D01*
X132412149Y-68631364D01*
X132688636Y-68907851D01*
X133013750Y-69125085D01*
X133374997Y-69274718D01*
X133758495Y-69351000D01*
X134149505Y-69351000D01*
X134533003Y-69274718D01*
X134894250Y-69125085D01*
X135219364Y-68907851D01*
X135495851Y-68631364D01*
X135713085Y-68306250D01*
X135862718Y-67945003D01*
X135939000Y-67561505D01*
X135939000Y-67170495D01*
X135862718Y-66786997D01*
X135713085Y-66425750D01*
X135495851Y-66100636D01*
X135219364Y-65824149D01*
X134894250Y-65606915D01*
X134533003Y-65457282D01*
X134149505Y-65381000D01*
X133758495Y-65381000D01*
X133374997Y-65457282D01*
X133013750Y-65606915D01*
X132688636Y-65824149D01*
X132412149Y-66100636D01*
X132194915Y-66425750D01*
X132045282Y-66786997D01*
X131969000Y-67170495D01*
X125525000Y-67170495D01*
X125448718Y-66786997D01*
X125299085Y-66425750D01*
X125081851Y-66100636D01*
X124805364Y-65824149D01*
X124480250Y-65606915D01*
X124119003Y-65457282D01*
X123735505Y-65381000D01*
X123344495Y-65381000D01*
X122960997Y-65457282D01*
X122599750Y-65606915D01*
X122274636Y-65824149D01*
X121998149Y-66100636D01*
X121780915Y-66425750D01*
X121631282Y-66786997D01*
X121555000Y-67170495D01*
X104810010Y-67170495D01*
X104810010Y-59066000D01*
X121496243Y-59066000D01*
X121531190Y-59420822D01*
X121634688Y-59762008D01*
X121802759Y-60076447D01*
X122028945Y-60352055D01*
X122304553Y-60578241D01*
X122618992Y-60746312D01*
X122960178Y-60849810D01*
X123226089Y-60876000D01*
X123853911Y-60876000D01*
X124119822Y-60849810D01*
X124461008Y-60746312D01*
X124775447Y-60578241D01*
X125051055Y-60352055D01*
X125277241Y-60076447D01*
X125445312Y-59762008D01*
X125548810Y-59420822D01*
X125583757Y-59066000D01*
X131910243Y-59066000D01*
X131945190Y-59420822D01*
X132048688Y-59762008D01*
X132216759Y-60076447D01*
X132442945Y-60352055D01*
X132718553Y-60578241D01*
X133032992Y-60746312D01*
X133374178Y-60849810D01*
X133640089Y-60876000D01*
X134267911Y-60876000D01*
X134533822Y-60849810D01*
X134875008Y-60746312D01*
X135189447Y-60578241D01*
X135465055Y-60352055D01*
X135691241Y-60076447D01*
X135859312Y-59762008D01*
X135962810Y-59420822D01*
X135997757Y-59066000D01*
X135962810Y-58711178D01*
X135859312Y-58369992D01*
X135691241Y-58055553D01*
X135465055Y-57779945D01*
X135332697Y-57671321D01*
X135378482Y-57666812D01*
X135498180Y-57630502D01*
X135608494Y-57571537D01*
X135705185Y-57492185D01*
X135784537Y-57395494D01*
X135843502Y-57285180D01*
X135879812Y-57165482D01*
X135892072Y-57041000D01*
X135889000Y-56251750D01*
X135730250Y-56093000D01*
X134081000Y-56093000D01*
X134081000Y-56113000D01*
X133827000Y-56113000D01*
X133827000Y-56093000D01*
X132177750Y-56093000D01*
X132019000Y-56251750D01*
X132015928Y-57041000D01*
X132028188Y-57165482D01*
X132064498Y-57285180D01*
X132123463Y-57395494D01*
X132202815Y-57492185D01*
X132299506Y-57571537D01*
X132409820Y-57630502D01*
X132529518Y-57666812D01*
X132575303Y-57671321D01*
X132442945Y-57779945D01*
X132216759Y-58055553D01*
X132048688Y-58369992D01*
X131945190Y-58711178D01*
X131910243Y-59066000D01*
X125583757Y-59066000D01*
X125548810Y-58711178D01*
X125445312Y-58369992D01*
X125277241Y-58055553D01*
X125051055Y-57779945D01*
X124918697Y-57671321D01*
X124964482Y-57666812D01*
X125084180Y-57630502D01*
X125194494Y-57571537D01*
X125291185Y-57492185D01*
X125370537Y-57395494D01*
X125429502Y-57285180D01*
X125465812Y-57165482D01*
X125478072Y-57041000D01*
X125475000Y-56251750D01*
X125316250Y-56093000D01*
X123667000Y-56093000D01*
X123667000Y-56113000D01*
X123413000Y-56113000D01*
X123413000Y-56093000D01*
X121763750Y-56093000D01*
X121605000Y-56251750D01*
X121601928Y-57041000D01*
X121614188Y-57165482D01*
X121650498Y-57285180D01*
X121709463Y-57395494D01*
X121788815Y-57492185D01*
X121885506Y-57571537D01*
X121995820Y-57630502D01*
X122115518Y-57666812D01*
X122161303Y-57671321D01*
X122028945Y-57779945D01*
X121802759Y-58055553D01*
X121634688Y-58369992D01*
X121531190Y-58711178D01*
X121496243Y-59066000D01*
X104810010Y-59066000D01*
X104810010Y-54836583D01*
X104858180Y-54868769D01*
X105046538Y-54946790D01*
X105246497Y-54986564D01*
X105450375Y-54986564D01*
X105650334Y-54946790D01*
X105838692Y-54868769D01*
X106008210Y-54755501D01*
X106052147Y-54711564D01*
X121630858Y-54711564D01*
X121614188Y-54766518D01*
X121601928Y-54891000D01*
X121605000Y-55680250D01*
X121763750Y-55839000D01*
X123413000Y-55839000D01*
X123413000Y-55819000D01*
X123667000Y-55819000D01*
X123667000Y-55839000D01*
X125316250Y-55839000D01*
X125475000Y-55680250D01*
X125478072Y-54891000D01*
X132015928Y-54891000D01*
X132019000Y-55680250D01*
X132177750Y-55839000D01*
X133827000Y-55839000D01*
X133827000Y-54414750D01*
X134081000Y-54414750D01*
X134081000Y-55839000D01*
X135730250Y-55839000D01*
X135889000Y-55680250D01*
X135892072Y-54891000D01*
X142429928Y-54891000D01*
X142433000Y-55680250D01*
X142591750Y-55839000D01*
X144241000Y-55839000D01*
X144241000Y-54414750D01*
X144082250Y-54256000D01*
X143068000Y-54252928D01*
X142943518Y-54265188D01*
X142823820Y-54301498D01*
X142713506Y-54360463D01*
X142616815Y-54439815D01*
X142537463Y-54536506D01*
X142478498Y-54646820D01*
X142442188Y-54766518D01*
X142429928Y-54891000D01*
X135892072Y-54891000D01*
X135879812Y-54766518D01*
X135843502Y-54646820D01*
X135784537Y-54536506D01*
X135705185Y-54439815D01*
X135608494Y-54360463D01*
X135498180Y-54301498D01*
X135378482Y-54265188D01*
X135254000Y-54252928D01*
X134239750Y-54256000D01*
X134081000Y-54414750D01*
X133827000Y-54414750D01*
X133668250Y-54256000D01*
X132654000Y-54252928D01*
X132529518Y-54265188D01*
X132409820Y-54301498D01*
X132299506Y-54360463D01*
X132202815Y-54439815D01*
X132123463Y-54536506D01*
X132064498Y-54646820D01*
X132028188Y-54766518D01*
X132015928Y-54891000D01*
X125478072Y-54891000D01*
X125465812Y-54766518D01*
X125449142Y-54711564D01*
X125517114Y-54711564D01*
X125554436Y-54715240D01*
X125591758Y-54711564D01*
X125591769Y-54711564D01*
X125703422Y-54700567D01*
X125846683Y-54657110D01*
X125978712Y-54586538D01*
X126094437Y-54491565D01*
X126118240Y-54462561D01*
X130031592Y-50549210D01*
X130251740Y-50593000D01*
X130544260Y-50593000D01*
X130831158Y-50535932D01*
X131101411Y-50423990D01*
X131344632Y-50261475D01*
X131551475Y-50054632D01*
X131668000Y-49880240D01*
X131784525Y-50054632D01*
X131991368Y-50261475D01*
X132234589Y-50423990D01*
X132504842Y-50535932D01*
X132791740Y-50593000D01*
X133084260Y-50593000D01*
X133371158Y-50535932D01*
X133641411Y-50423990D01*
X133884632Y-50261475D01*
X134091475Y-50054632D01*
X134208000Y-49880240D01*
X134324525Y-50054632D01*
X134531368Y-50261475D01*
X134774589Y-50423990D01*
X135044842Y-50535932D01*
X135331740Y-50593000D01*
X135624260Y-50593000D01*
X135911158Y-50535932D01*
X136181411Y-50423990D01*
X136424632Y-50261475D01*
X136631475Y-50054632D01*
X136748000Y-49880240D01*
X136864525Y-50054632D01*
X137071368Y-50261475D01*
X137314589Y-50423990D01*
X137584842Y-50535932D01*
X137871740Y-50593000D01*
X138164260Y-50593000D01*
X138451158Y-50535932D01*
X138721411Y-50423990D01*
X138964632Y-50261475D01*
X139171475Y-50054632D01*
X139333990Y-49811411D01*
X139445932Y-49541158D01*
X139503000Y-49254260D01*
X139503000Y-48961740D01*
X139445932Y-48674842D01*
X139333990Y-48404589D01*
X139171475Y-48161368D01*
X138964632Y-47954525D01*
X138778000Y-47829822D01*
X138778000Y-40255325D01*
X138781676Y-40218000D01*
X138778000Y-40180675D01*
X138778000Y-40180667D01*
X138767003Y-40069014D01*
X138723546Y-39925753D01*
X138652974Y-39793724D01*
X138558001Y-39677999D01*
X138529004Y-39654202D01*
X127738804Y-28864003D01*
X127715001Y-28834999D01*
X127599276Y-28740026D01*
X127467247Y-28669454D01*
X127403115Y-28650000D01*
X134494451Y-28650000D01*
X134465000Y-28798061D01*
X134465000Y-29001939D01*
X134504774Y-29201898D01*
X134582795Y-29390256D01*
X134696063Y-29559774D01*
X134740000Y-29603711D01*
X134740001Y-30502668D01*
X134736324Y-30540000D01*
X134740001Y-30577333D01*
X134749707Y-30675873D01*
X134750998Y-30688985D01*
X134794454Y-30832246D01*
X134865026Y-30964276D01*
X134921698Y-31033330D01*
X134960000Y-31080001D01*
X134988998Y-31103799D01*
X138858790Y-34973592D01*
X138815000Y-35193740D01*
X138815000Y-35486260D01*
X138872068Y-35773158D01*
X138984010Y-36043411D01*
X139146525Y-36286632D01*
X139353368Y-36493475D01*
X139596589Y-36655990D01*
X139866842Y-36767932D01*
X140153740Y-36825000D01*
X140446260Y-36825000D01*
X140733158Y-36767932D01*
X141003411Y-36655990D01*
X141246632Y-36493475D01*
X141453475Y-36286632D01*
X141615990Y-36043411D01*
X141727932Y-35773158D01*
X141785000Y-35486260D01*
X141785000Y-35193740D01*
X141727932Y-34906842D01*
X141615990Y-34636589D01*
X141453475Y-34393368D01*
X141321620Y-34261513D01*
X141394180Y-34239502D01*
X141504494Y-34180537D01*
X141601185Y-34101185D01*
X141680537Y-34004494D01*
X141739502Y-33894180D01*
X141775812Y-33774482D01*
X141788072Y-33650000D01*
X141788072Y-31950000D01*
X141775812Y-31825518D01*
X141739502Y-31705820D01*
X141680537Y-31595506D01*
X141601185Y-31498815D01*
X141504494Y-31419463D01*
X141394180Y-31360498D01*
X141274482Y-31324188D01*
X141150000Y-31311928D01*
X139450000Y-31311928D01*
X139325518Y-31324188D01*
X139205820Y-31360498D01*
X139095506Y-31419463D01*
X138998815Y-31498815D01*
X138919463Y-31595506D01*
X138860498Y-31705820D01*
X138824188Y-31825518D01*
X138811928Y-31950000D01*
X138811928Y-32777126D01*
X136260000Y-30225199D01*
X136260000Y-29603711D01*
X136303937Y-29559774D01*
X136417205Y-29390256D01*
X136495226Y-29201898D01*
X136535000Y-29001939D01*
X136535000Y-28798061D01*
X136505549Y-28650000D01*
X192976440Y-28650000D01*
X192636886Y-28989554D01*
X192293799Y-29503021D01*
X192057476Y-30073554D01*
X191937000Y-30679229D01*
X191937000Y-31296771D01*
X192057476Y-31902446D01*
X192293799Y-32472979D01*
X192636886Y-32986446D01*
X193073554Y-33423114D01*
X193587021Y-33766201D01*
X194157554Y-34002524D01*
X194763229Y-34123000D01*
X195380771Y-34123000D01*
X195986446Y-34002524D01*
X196556979Y-33766201D01*
X197070446Y-33423114D01*
X197410000Y-33083560D01*
X197410001Y-88836441D01*
X197070446Y-88496886D01*
X196556979Y-88153799D01*
X195986446Y-87917476D01*
X195380771Y-87797000D01*
X194763229Y-87797000D01*
X194157554Y-87917476D01*
X193587021Y-88153799D01*
X193073554Y-88496886D01*
X192636886Y-88933554D01*
X192293799Y-89447021D01*
X192057476Y-90017554D01*
X191937000Y-90623229D01*
X191937000Y-91240771D01*
X192057476Y-91846446D01*
X192293799Y-92416979D01*
X192636886Y-92930446D01*
X192976440Y-93270000D01*
X40703560Y-93270000D01*
X41043114Y-92930446D01*
X41386201Y-92416979D01*
X41622524Y-91846446D01*
X41743000Y-91240771D01*
X41743000Y-90623229D01*
X41622524Y-90017554D01*
X41386201Y-89447021D01*
X41043114Y-88933554D01*
X40606446Y-88496886D01*
X40092979Y-88153799D01*
X39522446Y-87917476D01*
X38916771Y-87797000D01*
X38299229Y-87797000D01*
X37693554Y-87917476D01*
X37123021Y-88153799D01*
X36609554Y-88496886D01*
X36270000Y-88836440D01*
X36270000Y-33083560D01*
X36609554Y-33423114D01*
X37123021Y-33766201D01*
X37693554Y-34002524D01*
X38299229Y-34123000D01*
X38916771Y-34123000D01*
X39522446Y-34002524D01*
X40092979Y-33766201D01*
X40606446Y-33423114D01*
X41043114Y-32986446D01*
X41386201Y-32472979D01*
X41622524Y-31902446D01*
X41743000Y-31296771D01*
X41743000Y-30679229D01*
X41622524Y-30073554D01*
X41386201Y-29503021D01*
X41043114Y-28989554D01*
X40703560Y-28650000D01*
X103961289Y-28650000D01*
X103896063Y-28715226D01*
G37*
X103896063Y-28715226D02*
X103782795Y-28884744D01*
X103704774Y-29073102D01*
X103665000Y-29273061D01*
X103665000Y-29476939D01*
X103704774Y-29676898D01*
X103782795Y-29865256D01*
X103896063Y-30034774D01*
X104040226Y-30178937D01*
X104209744Y-30292205D01*
X104398102Y-30370226D01*
X104598061Y-30410000D01*
X104801939Y-30410000D01*
X105001898Y-30370226D01*
X105190256Y-30292205D01*
X105272080Y-30237532D01*
X105304774Y-30401898D01*
X105382795Y-30590256D01*
X105496063Y-30759774D01*
X105640226Y-30903937D01*
X105809744Y-31017205D01*
X105998102Y-31095226D01*
X106198061Y-31135000D01*
X106401939Y-31135000D01*
X106601898Y-31095226D01*
X106790256Y-31017205D01*
X106959774Y-30903937D01*
X107003711Y-30860000D01*
X126520201Y-30860000D01*
X127103106Y-31442905D01*
X126995080Y-31494359D01*
X126761731Y-31668412D01*
X126566822Y-31884645D01*
X126492000Y-32010255D01*
X126417178Y-31884645D01*
X126222269Y-31668412D01*
X125988920Y-31494359D01*
X125726099Y-31369175D01*
X125578890Y-31324524D01*
X125349000Y-31445845D01*
X125349000Y-32639000D01*
X127635000Y-32639000D01*
X127635000Y-32619000D01*
X127889000Y-32619000D01*
X127889000Y-32639000D01*
X127909000Y-32639000D01*
X127909000Y-32893000D01*
X127889000Y-32893000D01*
X127889000Y-32913000D01*
X127635000Y-32913000D01*
X127635000Y-32893000D01*
X125349000Y-32893000D01*
X125349000Y-32913000D01*
X125095000Y-32913000D01*
X125095000Y-32893000D01*
X122809000Y-32893000D01*
X122809000Y-32913000D01*
X122555000Y-32913000D01*
X122555000Y-32893000D01*
X120269000Y-32893000D01*
X120269000Y-32913000D01*
X120015000Y-32913000D01*
X120015000Y-32893000D01*
X118815750Y-32893000D01*
X118657000Y-33051750D01*
X118653928Y-33616000D01*
X118666188Y-33740482D01*
X118702498Y-33860180D01*
X118761463Y-33970494D01*
X118840815Y-34067185D01*
X118937506Y-34146537D01*
X119047820Y-34205502D01*
X119120380Y-34227513D01*
X118988525Y-34359368D01*
X118924626Y-34455000D01*
X111994656Y-34455000D01*
X111953475Y-34393368D01*
X111821620Y-34261513D01*
X111894180Y-34239502D01*
X112004494Y-34180537D01*
X112101185Y-34101185D01*
X112180537Y-34004494D01*
X112239502Y-33894180D01*
X112275812Y-33774482D01*
X112288072Y-33650000D01*
X112288072Y-31950000D01*
X112284724Y-31916000D01*
X118653928Y-31916000D01*
X118657000Y-32480250D01*
X118815750Y-32639000D01*
X120015000Y-32639000D01*
X120015000Y-31439750D01*
X120269000Y-31439750D01*
X120269000Y-32639000D01*
X122555000Y-32639000D01*
X122555000Y-31445845D01*
X122809000Y-31445845D01*
X122809000Y-32639000D01*
X125095000Y-32639000D01*
X125095000Y-31445845D01*
X124865110Y-31324524D01*
X124717901Y-31369175D01*
X124455080Y-31494359D01*
X124221731Y-31668412D01*
X124026822Y-31884645D01*
X123952000Y-32010255D01*
X123877178Y-31884645D01*
X123682269Y-31668412D01*
X123448920Y-31494359D01*
X123186099Y-31369175D01*
X123038890Y-31324524D01*
X122809000Y-31445845D01*
X122555000Y-31445845D01*
X122325110Y-31324524D01*
X122177901Y-31369175D01*
X121915080Y-31494359D01*
X121681731Y-31668412D01*
X121605966Y-31752466D01*
X121581502Y-31671820D01*
X121522537Y-31561506D01*
X121443185Y-31464815D01*
X121346494Y-31385463D01*
X121236180Y-31326498D01*
X121116482Y-31290188D01*
X120992000Y-31277928D01*
X120427750Y-31281000D01*
X120269000Y-31439750D01*
X120015000Y-31439750D01*
X119856250Y-31281000D01*
X119292000Y-31277928D01*
X119167518Y-31290188D01*
X119047820Y-31326498D01*
X118937506Y-31385463D01*
X118840815Y-31464815D01*
X118761463Y-31561506D01*
X118702498Y-31671820D01*
X118666188Y-31791518D01*
X118653928Y-31916000D01*
X112284724Y-31916000D01*
X112275812Y-31825518D01*
X112239502Y-31705820D01*
X112180537Y-31595506D01*
X112101185Y-31498815D01*
X112004494Y-31419463D01*
X111894180Y-31360498D01*
X111774482Y-31324188D01*
X111650000Y-31311928D01*
X109950000Y-31311928D01*
X109825518Y-31324188D01*
X109705820Y-31360498D01*
X109595506Y-31419463D01*
X109498815Y-31498815D01*
X109419463Y-31595506D01*
X109360498Y-31705820D01*
X109338487Y-31778380D01*
X109206632Y-31646525D01*
X108963411Y-31484010D01*
X108693158Y-31372068D01*
X108406260Y-31315000D01*
X108113740Y-31315000D01*
X107826842Y-31372068D01*
X107556589Y-31484010D01*
X107313368Y-31646525D01*
X107106525Y-31853368D01*
X106990000Y-32027760D01*
X106873475Y-31853368D01*
X106666632Y-31646525D01*
X106423411Y-31484010D01*
X106153158Y-31372068D01*
X105866260Y-31315000D01*
X105573740Y-31315000D01*
X105286842Y-31372068D01*
X105016589Y-31484010D01*
X104773368Y-31646525D01*
X104566525Y-31853368D01*
X104444805Y-32035534D01*
X104375178Y-31918645D01*
X104180269Y-31702412D01*
X103946920Y-31528359D01*
X103684099Y-31403175D01*
X103536890Y-31358524D01*
X103307000Y-31479845D01*
X103307000Y-32673000D01*
X103327000Y-32673000D01*
X103327000Y-32927000D01*
X103307000Y-32927000D01*
X103307000Y-32947000D01*
X103053000Y-32947000D01*
X103053000Y-32927000D01*
X103033000Y-32927000D01*
X103033000Y-32673000D01*
X103053000Y-32673000D01*
X103053000Y-31479845D01*
X102823110Y-31358524D01*
X102675901Y-31403175D01*
X102413080Y-31528359D01*
X102179731Y-31702412D01*
X101984822Y-31918645D01*
X101915195Y-32035534D01*
X101793475Y-31853368D01*
X101586632Y-31646525D01*
X101343411Y-31484010D01*
X101073158Y-31372068D01*
X100786260Y-31315000D01*
X100493740Y-31315000D01*
X100206842Y-31372068D01*
X99936589Y-31484010D01*
X99693368Y-31646525D01*
X99486525Y-31853368D01*
X99370000Y-32027760D01*
X99253475Y-31853368D01*
X99046632Y-31646525D01*
X98803411Y-31484010D01*
X98533158Y-31372068D01*
X98246260Y-31315000D01*
X97953740Y-31315000D01*
X97666842Y-31372068D01*
X97396589Y-31484010D01*
X97153368Y-31646525D01*
X96946525Y-31853368D01*
X96830000Y-32027760D01*
X96713475Y-31853368D01*
X96506632Y-31646525D01*
X96263411Y-31484010D01*
X95993158Y-31372068D01*
X95706260Y-31315000D01*
X95413740Y-31315000D01*
X95126842Y-31372068D01*
X94856589Y-31484010D01*
X94613368Y-31646525D01*
X94406525Y-31853368D01*
X94290000Y-32027760D01*
X94173475Y-31853368D01*
X93966632Y-31646525D01*
X93723411Y-31484010D01*
X93453158Y-31372068D01*
X93166260Y-31315000D01*
X92873740Y-31315000D01*
X92586842Y-31372068D01*
X92316589Y-31484010D01*
X92073368Y-31646525D01*
X91866525Y-31853368D01*
X91750000Y-32027760D01*
X91633475Y-31853368D01*
X91426632Y-31646525D01*
X91183411Y-31484010D01*
X90913158Y-31372068D01*
X90626260Y-31315000D01*
X90333740Y-31315000D01*
X90113592Y-31358791D01*
X89418794Y-30663993D01*
X89394991Y-30634989D01*
X89279266Y-30540016D01*
X89147237Y-30469444D01*
X89003976Y-30425987D01*
X88892323Y-30414990D01*
X88892312Y-30414990D01*
X88854990Y-30411314D01*
X88817668Y-30414990D01*
X61826923Y-30414990D01*
X61789598Y-30411314D01*
X61752273Y-30414990D01*
X61752265Y-30414990D01*
X61640612Y-30425987D01*
X61497351Y-30469444D01*
X61365322Y-30540016D01*
X61249597Y-30634989D01*
X61225799Y-30663987D01*
X59953983Y-31935804D01*
X59924979Y-31959607D01*
X59869851Y-32026782D01*
X59830006Y-32075332D01*
X59797578Y-32136001D01*
X59759434Y-32207362D01*
X59715977Y-32350623D01*
X59704980Y-32462276D01*
X59704980Y-32462286D01*
X59701304Y-32499608D01*
X59704980Y-32536930D01*
X59704981Y-81860649D01*
X59701304Y-81897982D01*
X59715978Y-82046967D01*
X59759434Y-82190228D01*
X59830006Y-82322258D01*
X59901181Y-82408984D01*
X59924980Y-82437983D01*
X59953978Y-82461781D01*
X65078204Y-87586009D01*
X65101998Y-87615002D01*
X65130991Y-87638796D01*
X65130995Y-87638800D01*
X65201684Y-87696812D01*
X65217723Y-87709975D01*
X65349752Y-87780547D01*
X65493013Y-87824004D01*
X65604666Y-87835001D01*
X65604675Y-87835001D01*
X65641998Y-87838677D01*
X65679321Y-87835001D01*
X75147677Y-87835001D01*
X75184999Y-87838677D01*
X75222321Y-87835001D01*
X75222332Y-87835001D01*
X75333985Y-87824004D01*
X75477246Y-87780547D01*
X75609275Y-87709975D01*
X75725000Y-87615002D01*
X75748803Y-87585998D01*
X76100746Y-87234056D01*
X76280997Y-87308718D01*
X76664495Y-87385000D01*
X77055505Y-87385000D01*
X77439003Y-87308718D01*
X77800250Y-87159085D01*
X78125364Y-86941851D01*
X78401851Y-86665364D01*
X78619085Y-86340250D01*
X78768718Y-85979003D01*
X78845000Y-85595505D01*
X78845000Y-85204495D01*
X78768718Y-84820997D01*
X78619085Y-84459750D01*
X78401851Y-84134636D01*
X78125364Y-83858149D01*
X77800250Y-83640915D01*
X77439003Y-83491282D01*
X77055505Y-83415000D01*
X76664495Y-83415000D01*
X76280997Y-83491282D01*
X75919750Y-83640915D01*
X75594636Y-83858149D01*
X75318149Y-84134636D01*
X75100915Y-84459750D01*
X74951282Y-84820997D01*
X74875000Y-85204495D01*
X74875000Y-85595505D01*
X74951282Y-85979003D01*
X75025944Y-86159254D01*
X74870198Y-86315001D01*
X68215543Y-86315001D01*
X68354718Y-85979003D01*
X68431000Y-85595505D01*
X68431000Y-85204495D01*
X68354718Y-84820997D01*
X68205085Y-84459750D01*
X67987851Y-84134636D01*
X67711364Y-83858149D01*
X67386250Y-83640915D01*
X67025003Y-83491282D01*
X66641505Y-83415000D01*
X66250495Y-83415000D01*
X65866997Y-83491282D01*
X65686746Y-83565944D01*
X61674990Y-79554189D01*
X61674990Y-72925000D01*
X64507928Y-72925000D01*
X64511000Y-73714250D01*
X64669750Y-73873000D01*
X66319000Y-73873000D01*
X66319000Y-72448750D01*
X66573000Y-72448750D01*
X66573000Y-73873000D01*
X68222250Y-73873000D01*
X68381000Y-73714250D01*
X68384072Y-72925000D01*
X68371812Y-72800518D01*
X68335502Y-72680820D01*
X68276537Y-72570506D01*
X68197185Y-72473815D01*
X68100494Y-72394463D01*
X67990180Y-72335498D01*
X67870482Y-72299188D01*
X67746000Y-72286928D01*
X66731750Y-72290000D01*
X66573000Y-72448750D01*
X66319000Y-72448750D01*
X66160250Y-72290000D01*
X65146000Y-72286928D01*
X65021518Y-72299188D01*
X64901820Y-72335498D01*
X64791506Y-72394463D01*
X64694815Y-72473815D01*
X64615463Y-72570506D01*
X64556498Y-72680820D01*
X64520188Y-72800518D01*
X64507928Y-72925000D01*
X61674990Y-72925000D01*
X61674990Y-63669791D01*
X64611944Y-66606746D01*
X64537282Y-66786997D01*
X64461000Y-67170495D01*
X64461000Y-67561505D01*
X64537282Y-67945003D01*
X64686915Y-68306250D01*
X64904149Y-68631364D01*
X65180636Y-68907851D01*
X65505750Y-69125085D01*
X65866997Y-69274718D01*
X66250495Y-69351000D01*
X66641505Y-69351000D01*
X67025003Y-69274718D01*
X67386250Y-69125085D01*
X67711364Y-68907851D01*
X67987851Y-68631364D01*
X68205085Y-68306250D01*
X68354718Y-67945003D01*
X68431000Y-67561505D01*
X68431000Y-67170495D01*
X68354718Y-66786997D01*
X68205085Y-66425750D01*
X67987851Y-66100636D01*
X67711364Y-65824149D01*
X67386250Y-65606915D01*
X67025003Y-65457282D01*
X66641505Y-65381000D01*
X66250495Y-65381000D01*
X65866997Y-65457282D01*
X65686746Y-65531944D01*
X62124999Y-61970198D01*
X62124999Y-50596072D01*
X62130001Y-50596072D01*
X62130000Y-55472677D01*
X62126324Y-55510000D01*
X62130000Y-55547322D01*
X62130000Y-55547332D01*
X62140997Y-55658985D01*
X62173454Y-55765983D01*
X62184454Y-55802246D01*
X62255026Y-55934276D01*
X62294871Y-55982826D01*
X62349999Y-56050001D01*
X62379003Y-56073804D01*
X64587539Y-58282341D01*
X64540688Y-58369992D01*
X64437190Y-58711178D01*
X64402243Y-59066000D01*
X64437190Y-59420822D01*
X64540688Y-59762008D01*
X64708759Y-60076447D01*
X64934945Y-60352055D01*
X65210553Y-60578241D01*
X65524992Y-60746312D01*
X65866178Y-60849810D01*
X66132089Y-60876000D01*
X66759911Y-60876000D01*
X67025822Y-60849810D01*
X67367008Y-60746312D01*
X67681447Y-60578241D01*
X67957055Y-60352055D01*
X68183241Y-60076447D01*
X68351312Y-59762008D01*
X68454810Y-59420822D01*
X68489757Y-59066000D01*
X68454810Y-58711178D01*
X68351312Y-58369992D01*
X68183241Y-58055553D01*
X67957055Y-57779945D01*
X67824697Y-57671321D01*
X67870482Y-57666812D01*
X67990180Y-57630502D01*
X68100494Y-57571537D01*
X68197185Y-57492185D01*
X68276537Y-57395494D01*
X68335502Y-57285180D01*
X68371812Y-57165482D01*
X68384072Y-57041000D01*
X68381000Y-56251750D01*
X68222252Y-56093002D01*
X68381000Y-56093002D01*
X68381000Y-56015799D01*
X76100000Y-63734800D01*
X76100001Y-65532253D01*
X75919750Y-65606915D01*
X75594636Y-65824149D01*
X75318149Y-66100636D01*
X75100915Y-66425750D01*
X74951282Y-66786997D01*
X74875000Y-67170495D01*
X74875000Y-67561505D01*
X74951282Y-67945003D01*
X75100915Y-68306250D01*
X75318149Y-68631364D01*
X75594636Y-68907851D01*
X75919750Y-69125085D01*
X76280997Y-69274718D01*
X76664495Y-69351000D01*
X77055505Y-69351000D01*
X77439003Y-69274718D01*
X77800250Y-69125085D01*
X78125364Y-68907851D01*
X78401851Y-68631364D01*
X78619085Y-68306250D01*
X78768718Y-67945003D01*
X78845000Y-67561505D01*
X78845000Y-67170495D01*
X78768718Y-66786997D01*
X78619085Y-66425750D01*
X78401851Y-66100636D01*
X78125364Y-65824149D01*
X77800250Y-65606915D01*
X77620000Y-65532253D01*
X77620000Y-63457321D01*
X77623676Y-63419998D01*
X77620000Y-63382675D01*
X77620000Y-63382665D01*
X77609003Y-63271012D01*
X77593818Y-63220954D01*
X82249867Y-67877003D01*
X82273665Y-67906001D01*
X82389390Y-68000974D01*
X82521419Y-68071546D01*
X82664680Y-68115003D01*
X82776333Y-68126000D01*
X82776341Y-68126000D01*
X82813666Y-68129676D01*
X82850991Y-68126000D01*
X85440253Y-68126000D01*
X85514915Y-68306250D01*
X85732149Y-68631364D01*
X86008636Y-68907851D01*
X86333750Y-69125085D01*
X86694997Y-69274718D01*
X86757125Y-69287076D01*
X85604201Y-70440000D01*
X72383322Y-70440000D01*
X72345999Y-70436324D01*
X72308677Y-70440000D01*
X72308667Y-70440000D01*
X72197014Y-70450997D01*
X72053753Y-70494454D01*
X71921723Y-70565026D01*
X71872350Y-70605546D01*
X71805999Y-70659999D01*
X71782201Y-70688997D01*
X68283224Y-74187974D01*
X68222250Y-74127000D01*
X66573000Y-74127000D01*
X66573000Y-74147000D01*
X66319000Y-74147000D01*
X66319000Y-74127000D01*
X64669750Y-74127000D01*
X64511000Y-74285750D01*
X64507928Y-75075000D01*
X64520188Y-75199482D01*
X64556498Y-75319180D01*
X64615463Y-75429494D01*
X64694815Y-75526185D01*
X64791506Y-75605537D01*
X64901820Y-75664502D01*
X65021518Y-75700812D01*
X65067303Y-75705321D01*
X64934945Y-75813945D01*
X64708759Y-76089553D01*
X64540688Y-76403992D01*
X64437190Y-76745178D01*
X64402243Y-77100000D01*
X64437190Y-77454822D01*
X64540688Y-77796008D01*
X64708759Y-78110447D01*
X64934945Y-78386055D01*
X65210553Y-78612241D01*
X65524992Y-78780312D01*
X65866178Y-78883810D01*
X66132089Y-78910000D01*
X66759911Y-78910000D01*
X67025822Y-78883810D01*
X67367008Y-78780312D01*
X67681447Y-78612241D01*
X67957055Y-78386055D01*
X68183241Y-78110447D01*
X68351312Y-77796008D01*
X68454810Y-77454822D01*
X68489757Y-77100000D01*
X68454810Y-76745178D01*
X68351312Y-76403992D01*
X68304461Y-76316340D01*
X72660802Y-71960000D01*
X74885124Y-71960000D01*
X74875723Y-71965025D01*
X74759998Y-72059998D01*
X74736195Y-72089002D01*
X74724002Y-72101195D01*
X74694998Y-72124998D01*
X74639870Y-72192173D01*
X74600025Y-72240723D01*
X74537486Y-72357725D01*
X74529453Y-72372753D01*
X74485996Y-72516014D01*
X74474999Y-72627667D01*
X74474999Y-72627677D01*
X74471323Y-72664999D01*
X74474999Y-72702322D01*
X74475000Y-75437667D01*
X74471323Y-75474999D01*
X74475000Y-75512332D01*
X74485997Y-75623985D01*
X74499179Y-75667441D01*
X74529453Y-75767245D01*
X74600025Y-75899275D01*
X74658048Y-75969975D01*
X74694999Y-76015000D01*
X74723997Y-76038798D01*
X75001539Y-76316340D01*
X74954688Y-76403992D01*
X74851190Y-76745178D01*
X74816243Y-77100000D01*
X74851190Y-77454822D01*
X74954688Y-77796008D01*
X75122759Y-78110447D01*
X75348945Y-78386055D01*
X75624553Y-78612241D01*
X75938992Y-78780312D01*
X76280178Y-78883810D01*
X76546089Y-78910000D01*
X77173911Y-78910000D01*
X77439822Y-78883810D01*
X77781008Y-78780312D01*
X78095447Y-78612241D01*
X78371055Y-78386055D01*
X78597241Y-78110447D01*
X78765312Y-77796008D01*
X78868810Y-77454822D01*
X78903757Y-77100000D01*
X78868810Y-76745178D01*
X78765312Y-76403992D01*
X78597241Y-76089553D01*
X78371055Y-75813945D01*
X78238697Y-75705321D01*
X78284482Y-75700812D01*
X78404180Y-75664502D01*
X78514494Y-75605537D01*
X78611185Y-75526185D01*
X78690537Y-75429494D01*
X78749502Y-75319180D01*
X78785812Y-75199482D01*
X78798072Y-75075000D01*
X78795000Y-74285750D01*
X78636250Y-74127000D01*
X76987000Y-74127000D01*
X76987000Y-74147000D01*
X76733000Y-74147000D01*
X76733000Y-74127000D01*
X76713000Y-74127000D01*
X76713000Y-73873000D01*
X76733000Y-73873000D01*
X76733000Y-73853000D01*
X76987000Y-73853000D01*
X76987000Y-73873000D01*
X78636250Y-73873000D01*
X78795000Y-73714250D01*
X78796379Y-73359999D01*
X85118091Y-73359999D01*
X85155413Y-73363675D01*
X85192735Y-73359999D01*
X85192746Y-73359999D01*
X85304399Y-73349002D01*
X85337539Y-73338949D01*
X85339000Y-73714250D01*
X85497750Y-73873000D01*
X87147000Y-73873000D01*
X87147000Y-72448750D01*
X87401000Y-72448750D01*
X87401000Y-73873000D01*
X89050250Y-73873000D01*
X89209000Y-73714250D01*
X89212072Y-72925000D01*
X89199812Y-72800518D01*
X89163502Y-72680820D01*
X89104537Y-72570506D01*
X89025185Y-72473815D01*
X88928494Y-72394463D01*
X88818180Y-72335498D01*
X88698482Y-72299188D01*
X88574000Y-72286928D01*
X87559750Y-72290000D01*
X87401000Y-72448750D01*
X87147000Y-72448750D01*
X86988250Y-72290000D01*
X86541566Y-72288647D01*
X90413002Y-68417212D01*
X90442000Y-68393414D01*
X90536973Y-68277689D01*
X90607545Y-68145660D01*
X90651002Y-68002399D01*
X90661999Y-67890746D01*
X90661999Y-67890737D01*
X90665675Y-67853414D01*
X90661999Y-67816091D01*
X90661999Y-50272587D01*
X90832000Y-50386178D01*
X90832001Y-72467197D01*
X89111224Y-74187974D01*
X89050250Y-74127000D01*
X87401000Y-74127000D01*
X87401000Y-74147000D01*
X87147000Y-74147000D01*
X87147000Y-74127000D01*
X85497750Y-74127000D01*
X85339000Y-74285750D01*
X85335928Y-75075000D01*
X85348188Y-75199482D01*
X85384498Y-75319180D01*
X85443463Y-75429494D01*
X85522815Y-75526185D01*
X85619506Y-75605537D01*
X85729820Y-75664502D01*
X85849518Y-75700812D01*
X85895303Y-75705321D01*
X85762945Y-75813945D01*
X85536759Y-76089553D01*
X85368688Y-76403992D01*
X85265190Y-76745178D01*
X85230243Y-77100000D01*
X85265190Y-77454822D01*
X85368688Y-77796008D01*
X85536759Y-78110447D01*
X85762945Y-78386055D01*
X86038553Y-78612241D01*
X86352992Y-78780312D01*
X86694178Y-78883810D01*
X86960089Y-78910000D01*
X87587911Y-78910000D01*
X87853822Y-78883810D01*
X88195008Y-78780312D01*
X88509447Y-78612241D01*
X88785055Y-78386055D01*
X89011241Y-78110447D01*
X89179312Y-77796008D01*
X89282810Y-77454822D01*
X89317757Y-77100000D01*
X89282810Y-76745178D01*
X89179312Y-76403992D01*
X89132461Y-76316340D01*
X92103003Y-73345799D01*
X92132001Y-73322001D01*
X92196999Y-73242800D01*
X92196999Y-79402199D01*
X88033254Y-83565944D01*
X87853003Y-83491282D01*
X87469505Y-83415000D01*
X87078495Y-83415000D01*
X86694997Y-83491282D01*
X86333750Y-83640915D01*
X86008636Y-83858149D01*
X85732149Y-84134636D01*
X85514915Y-84459750D01*
X85365282Y-84820997D01*
X85289000Y-85204495D01*
X85289000Y-85595505D01*
X85365282Y-85979003D01*
X85514915Y-86340250D01*
X85732149Y-86665364D01*
X86008636Y-86941851D01*
X86333750Y-87159085D01*
X86694997Y-87308718D01*
X87078495Y-87385000D01*
X87469505Y-87385000D01*
X87853003Y-87308718D01*
X88214250Y-87159085D01*
X88539364Y-86941851D01*
X88815851Y-86665364D01*
X89033085Y-86340250D01*
X89182718Y-85979003D01*
X89259000Y-85595505D01*
X89259000Y-85204495D01*
X89182718Y-84820997D01*
X89108056Y-84640746D01*
X93468003Y-80280799D01*
X93497000Y-80257002D01*
X93591973Y-80141277D01*
X93662545Y-80009248D01*
X93706002Y-79865987D01*
X93716999Y-79754334D01*
X93716999Y-79754325D01*
X93720675Y-79717002D01*
X93716999Y-79679679D01*
X93716999Y-74203800D01*
X95829539Y-76316341D01*
X95782688Y-76403992D01*
X95679190Y-76745178D01*
X95644243Y-77100000D01*
X95679190Y-77454822D01*
X95782688Y-77796008D01*
X95950759Y-78110447D01*
X96176945Y-78386055D01*
X96452553Y-78612241D01*
X96766992Y-78780312D01*
X97108178Y-78883810D01*
X97374089Y-78910000D01*
X98001911Y-78910000D01*
X98267822Y-78883810D01*
X98609008Y-78780312D01*
X98923447Y-78612241D01*
X99053012Y-78505910D01*
X99053012Y-82960185D01*
X98447254Y-83565944D01*
X98267003Y-83491282D01*
X97883505Y-83415000D01*
X97492495Y-83415000D01*
X97108997Y-83491282D01*
X96747750Y-83640915D01*
X96422636Y-83858149D01*
X96146149Y-84134636D01*
X95928915Y-84459750D01*
X95779282Y-84820997D01*
X95703000Y-85204495D01*
X95703000Y-85595505D01*
X95779282Y-85979003D01*
X95928915Y-86340250D01*
X96146149Y-86665364D01*
X96422636Y-86941851D01*
X96747750Y-87159085D01*
X97108997Y-87308718D01*
X97492495Y-87385000D01*
X97883505Y-87385000D01*
X98267003Y-87308718D01*
X98628250Y-87159085D01*
X98953364Y-86941851D01*
X99229851Y-86665364D01*
X99447085Y-86340250D01*
X99596718Y-85979003D01*
X99673000Y-85595505D01*
X99673000Y-85204495D01*
X99596718Y-84820997D01*
X99522056Y-84640746D01*
X100324019Y-83838784D01*
X100353012Y-83814990D01*
X100376806Y-83785997D01*
X100376810Y-83785993D01*
X100447984Y-83699266D01*
X100447985Y-83699265D01*
X100518557Y-83567236D01*
X100562014Y-83423975D01*
X100573011Y-83312322D01*
X100573011Y-83312313D01*
X100576687Y-83274990D01*
X100573011Y-83237667D01*
X100573011Y-69921557D01*
X100594454Y-69992246D01*
X100665026Y-70124276D01*
X100695175Y-70161012D01*
X100759999Y-70240001D01*
X100789003Y-70263804D01*
X116436201Y-85911003D01*
X116459999Y-85940001D01*
X116488997Y-85963799D01*
X116575723Y-86034974D01*
X116707751Y-86105545D01*
X116707753Y-86105546D01*
X116851014Y-86149003D01*
X116962667Y-86160000D01*
X116962677Y-86160000D01*
X117000000Y-86163676D01*
X117037323Y-86160000D01*
X121706253Y-86160000D01*
X121780915Y-86340250D01*
X121998149Y-86665364D01*
X122274636Y-86941851D01*
X122599750Y-87159085D01*
X122960997Y-87308718D01*
X123344495Y-87385000D01*
X123735505Y-87385000D01*
X124119003Y-87308718D01*
X124480250Y-87159085D01*
X124805364Y-86941851D01*
X125081851Y-86665364D01*
X125299085Y-86340250D01*
X125448718Y-85979003D01*
X125525000Y-85595505D01*
X125525000Y-85204495D01*
X125448718Y-84820997D01*
X125299085Y-84459750D01*
X125081851Y-84134636D01*
X124805364Y-83858149D01*
X124480250Y-83640915D01*
X124119003Y-83491282D01*
X123735505Y-83415000D01*
X123344495Y-83415000D01*
X122960997Y-83491282D01*
X122599750Y-83640915D01*
X122274636Y-83858149D01*
X121998149Y-84134636D01*
X121780915Y-84459750D01*
X121706253Y-84640000D01*
X117314802Y-84640000D01*
X114816597Y-82141795D01*
X129620994Y-82141795D01*
X132119944Y-84640746D01*
X132045282Y-84820997D01*
X131969000Y-85204495D01*
X131969000Y-85595505D01*
X132045282Y-85979003D01*
X132194915Y-86340250D01*
X132412149Y-86665364D01*
X132688636Y-86941851D01*
X133013750Y-87159085D01*
X133374997Y-87308718D01*
X133758495Y-87385000D01*
X134149505Y-87385000D01*
X134533003Y-87308718D01*
X134894250Y-87159085D01*
X135219364Y-86941851D01*
X135495851Y-86665364D01*
X135713085Y-86340250D01*
X135862718Y-85979003D01*
X135939000Y-85595505D01*
X135939000Y-85204495D01*
X135862718Y-84820997D01*
X135713085Y-84459750D01*
X135495851Y-84134636D01*
X135219364Y-83858149D01*
X134894250Y-83640915D01*
X134533003Y-83491282D01*
X134149505Y-83415000D01*
X133758495Y-83415000D01*
X133374997Y-83491282D01*
X133194746Y-83565944D01*
X131088801Y-81460000D01*
X139353199Y-81460000D01*
X142533944Y-84640746D01*
X142459282Y-84820997D01*
X142383000Y-85204495D01*
X142383000Y-85595505D01*
X142459282Y-85979003D01*
X142608915Y-86340250D01*
X142826149Y-86665364D01*
X143102636Y-86941851D01*
X143427750Y-87159085D01*
X143788997Y-87308718D01*
X144172495Y-87385000D01*
X144563505Y-87385000D01*
X144947003Y-87308718D01*
X145308250Y-87159085D01*
X145633364Y-86941851D01*
X145909851Y-86665364D01*
X146127085Y-86340250D01*
X146276718Y-85979003D01*
X146353000Y-85595505D01*
X146353000Y-85204495D01*
X146276718Y-84820997D01*
X146127085Y-84459750D01*
X145909851Y-84134636D01*
X145633364Y-83858149D01*
X145308250Y-83640915D01*
X144947003Y-83491282D01*
X144563505Y-83415000D01*
X144172495Y-83415000D01*
X143788997Y-83491282D01*
X143608746Y-83565944D01*
X140231804Y-80189003D01*
X140208001Y-80159999D01*
X140092276Y-80065026D01*
X139960247Y-79994454D01*
X139816986Y-79950997D01*
X139705333Y-79940000D01*
X139705322Y-79940000D01*
X139668000Y-79936324D01*
X139630678Y-79940000D01*
X114714803Y-79940000D01*
X114516598Y-79741795D01*
X148048994Y-79741795D01*
X152947944Y-84640746D01*
X152873282Y-84820997D01*
X152797000Y-85204495D01*
X152797000Y-85595505D01*
X152873282Y-85979003D01*
X153022915Y-86340250D01*
X153240149Y-86665364D01*
X153516636Y-86941851D01*
X153841750Y-87159085D01*
X154202997Y-87308718D01*
X154586495Y-87385000D01*
X154977505Y-87385000D01*
X155361003Y-87308718D01*
X155722250Y-87159085D01*
X156047364Y-86941851D01*
X156323851Y-86665364D01*
X156541085Y-86340250D01*
X156690718Y-85979003D01*
X156767000Y-85595505D01*
X156767000Y-85204495D01*
X156690718Y-84820997D01*
X156541085Y-84459750D01*
X156323851Y-84134636D01*
X156047364Y-83858149D01*
X155722250Y-83640915D01*
X155361003Y-83491282D01*
X154977505Y-83415000D01*
X154586495Y-83415000D01*
X154202997Y-83491282D01*
X154022746Y-83565944D01*
X148927599Y-78470798D01*
X148903796Y-78441794D01*
X148788071Y-78346821D01*
X148656042Y-78276249D01*
X148512781Y-78232792D01*
X148401128Y-78221795D01*
X148401117Y-78221795D01*
X148363795Y-78218119D01*
X148326473Y-78221795D01*
X146013860Y-78221795D01*
X146105241Y-78110447D01*
X146273312Y-77796008D01*
X146376810Y-77454822D01*
X146411757Y-77100000D01*
X146376810Y-76745178D01*
X146273312Y-76403992D01*
X146249792Y-76359990D01*
X152900208Y-76359990D01*
X152876688Y-76403992D01*
X152773190Y-76745178D01*
X152738243Y-77100000D01*
X152773190Y-77454822D01*
X152876688Y-77796008D01*
X153044759Y-78110447D01*
X153270945Y-78386055D01*
X153546553Y-78612241D01*
X153860992Y-78780312D01*
X154202178Y-78883810D01*
X154468089Y-78910000D01*
X155095911Y-78910000D01*
X155361822Y-78883810D01*
X155703008Y-78780312D01*
X156017447Y-78612241D01*
X156293055Y-78386055D01*
X156519241Y-78110447D01*
X156687312Y-77796008D01*
X156790810Y-77454822D01*
X156825757Y-77100000D01*
X156790810Y-76745178D01*
X156687312Y-76403992D01*
X156519241Y-76089553D01*
X156293055Y-75813945D01*
X156160697Y-75705321D01*
X156206482Y-75700812D01*
X156326180Y-75664502D01*
X156436494Y-75605537D01*
X156533185Y-75526185D01*
X156612537Y-75429494D01*
X156671502Y-75319180D01*
X156707812Y-75199482D01*
X156720072Y-75075000D01*
X156717000Y-74285750D01*
X156558250Y-74127000D01*
X154909000Y-74127000D01*
X154909000Y-74147000D01*
X154655000Y-74147000D01*
X154655000Y-74127000D01*
X153005750Y-74127000D01*
X152847000Y-74285750D01*
X152844843Y-74839990D01*
X146305157Y-74839990D01*
X146303000Y-74285750D01*
X146144250Y-74127000D01*
X144495000Y-74127000D01*
X144495000Y-74147000D01*
X144241000Y-74147000D01*
X144241000Y-74127000D01*
X144221000Y-74127000D01*
X144221000Y-73873000D01*
X144241000Y-73873000D01*
X144241000Y-72448750D01*
X144495000Y-72448750D01*
X144495000Y-73873000D01*
X146144250Y-73873000D01*
X146303000Y-73714250D01*
X146306072Y-72925000D01*
X152843928Y-72925000D01*
X152847000Y-73714250D01*
X153005750Y-73873000D01*
X154655000Y-73873000D01*
X154655000Y-72448750D01*
X154909000Y-72448750D01*
X154909000Y-73873000D01*
X156558250Y-73873000D01*
X156717000Y-73714250D01*
X156720072Y-72925000D01*
X156707812Y-72800518D01*
X156671502Y-72680820D01*
X156612537Y-72570506D01*
X156533185Y-72473815D01*
X156436494Y-72394463D01*
X156326180Y-72335498D01*
X156206482Y-72299188D01*
X156082000Y-72286928D01*
X155067750Y-72290000D01*
X154909000Y-72448750D01*
X154655000Y-72448750D01*
X154496250Y-72290000D01*
X153482000Y-72286928D01*
X153357518Y-72299188D01*
X153237820Y-72335498D01*
X153127506Y-72394463D01*
X153030815Y-72473815D01*
X152951463Y-72570506D01*
X152892498Y-72680820D01*
X152856188Y-72800518D01*
X152843928Y-72925000D01*
X146306072Y-72925000D01*
X146293812Y-72800518D01*
X146257502Y-72680820D01*
X146198537Y-72570506D01*
X146119185Y-72473815D01*
X146022494Y-72394463D01*
X145912180Y-72335498D01*
X145792482Y-72299188D01*
X145668000Y-72286928D01*
X144653750Y-72290000D01*
X144495000Y-72448750D01*
X144241000Y-72448750D01*
X144137525Y-72345275D01*
X149312305Y-67170495D01*
X152797000Y-67170495D01*
X152797000Y-67561505D01*
X152873282Y-67945003D01*
X153022915Y-68306250D01*
X153240149Y-68631364D01*
X153516636Y-68907851D01*
X153841750Y-69125085D01*
X154202997Y-69274718D01*
X154586495Y-69351000D01*
X154977505Y-69351000D01*
X155361003Y-69274718D01*
X155722250Y-69125085D01*
X156047364Y-68907851D01*
X156323851Y-68631364D01*
X156541085Y-68306250D01*
X156690718Y-67945003D01*
X156767000Y-67561505D01*
X156767000Y-67170495D01*
X156690718Y-66786997D01*
X156541085Y-66425750D01*
X156323851Y-66100636D01*
X156047364Y-65824149D01*
X155722250Y-65606915D01*
X155361003Y-65457282D01*
X154977505Y-65381000D01*
X154586495Y-65381000D01*
X154202997Y-65457282D01*
X153841750Y-65606915D01*
X153516636Y-65824149D01*
X153240149Y-66100636D01*
X153022915Y-66425750D01*
X152873282Y-66786997D01*
X152797000Y-67170495D01*
X149312305Y-67170495D01*
X152499003Y-63983797D01*
X152528001Y-63959999D01*
X152622974Y-63844274D01*
X152693546Y-63712245D01*
X152737003Y-63568984D01*
X152748000Y-63457331D01*
X152748000Y-63457323D01*
X152751676Y-63419998D01*
X152748000Y-63382673D01*
X152748000Y-59165064D01*
X152773190Y-59420822D01*
X152876688Y-59762008D01*
X153044759Y-60076447D01*
X153270945Y-60352055D01*
X153546553Y-60578241D01*
X153860992Y-60746312D01*
X154202178Y-60849810D01*
X154468089Y-60876000D01*
X155095911Y-60876000D01*
X155361822Y-60849810D01*
X155703008Y-60746312D01*
X156017447Y-60578241D01*
X156293055Y-60352055D01*
X156519241Y-60076447D01*
X156687312Y-59762008D01*
X156790810Y-59420822D01*
X156825757Y-59066000D01*
X156790810Y-58711178D01*
X156687312Y-58369992D01*
X156519241Y-58055553D01*
X156293055Y-57779945D01*
X156160697Y-57671321D01*
X156206482Y-57666812D01*
X156326180Y-57630502D01*
X156436494Y-57571537D01*
X156533185Y-57492185D01*
X156612537Y-57395494D01*
X156671502Y-57285180D01*
X156707812Y-57165482D01*
X156720072Y-57041000D01*
X156717000Y-56251750D01*
X156558250Y-56093000D01*
X154909000Y-56093000D01*
X154909000Y-56113000D01*
X154655000Y-56113000D01*
X154655000Y-56093000D01*
X153005750Y-56093000D01*
X152847000Y-56251750D01*
X152843928Y-57041000D01*
X152856188Y-57165482D01*
X152892498Y-57285180D01*
X152951463Y-57395494D01*
X153030815Y-57492185D01*
X153127506Y-57571537D01*
X153237820Y-57630502D01*
X153357518Y-57666812D01*
X153403303Y-57671321D01*
X153270945Y-57779945D01*
X153044759Y-58055553D01*
X152876688Y-58369992D01*
X152773190Y-58711178D01*
X152748000Y-58966936D01*
X152748000Y-54891000D01*
X152843928Y-54891000D01*
X152847000Y-55680250D01*
X153005750Y-55839000D01*
X154655000Y-55839000D01*
X154655000Y-54414750D01*
X154909000Y-54414750D01*
X154909000Y-55839000D01*
X156558250Y-55839000D01*
X156717000Y-55680250D01*
X156720072Y-54891000D01*
X156707812Y-54766518D01*
X156671502Y-54646820D01*
X156612537Y-54536506D01*
X156533185Y-54439815D01*
X156436494Y-54360463D01*
X156326180Y-54301498D01*
X156206482Y-54265188D01*
X156082000Y-54252928D01*
X155067750Y-54256000D01*
X154909000Y-54414750D01*
X154655000Y-54414750D01*
X154496250Y-54256000D01*
X153482000Y-54252928D01*
X153357518Y-54265188D01*
X153237820Y-54301498D01*
X153127506Y-54360463D01*
X153030815Y-54439815D01*
X152951463Y-54536506D01*
X152892498Y-54646820D01*
X152856188Y-54766518D01*
X152843928Y-54891000D01*
X152748000Y-54891000D01*
X152748000Y-50950000D01*
X178386928Y-50950000D01*
X178399188Y-51074482D01*
X178435498Y-51194180D01*
X178494463Y-51304494D01*
X178549100Y-51371070D01*
X178531329Y-51392725D01*
X178452150Y-51540858D01*
X178403392Y-51701592D01*
X178386928Y-51868750D01*
X178386928Y-52306250D01*
X178403392Y-52473408D01*
X178452150Y-52634142D01*
X178531329Y-52782275D01*
X178612564Y-52881262D01*
X178610719Y-52900000D01*
X178615000Y-52943469D01*
X178615000Y-52943477D01*
X178620658Y-53000921D01*
X178627805Y-53073490D01*
X178678412Y-53240313D01*
X178760590Y-53394059D01*
X178843468Y-53495046D01*
X178843471Y-53495049D01*
X178871184Y-53528817D01*
X178904951Y-53556529D01*
X181315470Y-55967049D01*
X181343183Y-56000817D01*
X181376951Y-56028530D01*
X181376953Y-56028532D01*
X181391928Y-56040822D01*
X181391928Y-56222000D01*
X181404188Y-56346482D01*
X181440498Y-56466180D01*
X181499463Y-56576494D01*
X181578815Y-56673185D01*
X181675506Y-56752537D01*
X181785820Y-56811502D01*
X181905518Y-56847812D01*
X181995000Y-56856625D01*
X181995001Y-68028521D01*
X181990719Y-68072000D01*
X182007805Y-68245490D01*
X182058412Y-68412313D01*
X182140590Y-68566059D01*
X182223468Y-68667046D01*
X182223471Y-68667049D01*
X182251184Y-68700817D01*
X182284951Y-68728530D01*
X185201928Y-71645507D01*
X185201928Y-72732000D01*
X185214188Y-72856482D01*
X185250498Y-72976180D01*
X185309463Y-73086494D01*
X185388815Y-73183185D01*
X185485506Y-73262537D01*
X185595820Y-73321502D01*
X185715518Y-73357812D01*
X185840000Y-73370072D01*
X187540000Y-73370072D01*
X187664482Y-73357812D01*
X187784180Y-73321502D01*
X187894494Y-73262537D01*
X187991185Y-73183185D01*
X188070537Y-73086494D01*
X188129502Y-72976180D01*
X188165812Y-72856482D01*
X188178072Y-72732000D01*
X188178072Y-71032000D01*
X188165812Y-70907518D01*
X188129502Y-70787820D01*
X188070537Y-70677506D01*
X187991185Y-70580815D01*
X187894494Y-70501463D01*
X187784180Y-70442498D01*
X187703534Y-70418034D01*
X187787588Y-70342269D01*
X187961641Y-70108920D01*
X188086825Y-69846099D01*
X188131476Y-69698890D01*
X188010155Y-69469000D01*
X186817000Y-69469000D01*
X186817000Y-69489000D01*
X186563000Y-69489000D01*
X186563000Y-69469000D01*
X186543000Y-69469000D01*
X186543000Y-69215000D01*
X186563000Y-69215000D01*
X186563000Y-69195000D01*
X186817000Y-69195000D01*
X186817000Y-69215000D01*
X188010155Y-69215000D01*
X188131476Y-68985110D01*
X188086825Y-68837901D01*
X187961641Y-68575080D01*
X187787588Y-68341731D01*
X187571355Y-68146822D01*
X187454466Y-68077195D01*
X187636632Y-67955475D01*
X187843475Y-67748632D01*
X188005990Y-67505411D01*
X188117932Y-67235158D01*
X188175000Y-66948260D01*
X188175000Y-66655740D01*
X188117932Y-66368842D01*
X188005990Y-66098589D01*
X187843475Y-65855368D01*
X187636632Y-65648525D01*
X187462240Y-65532000D01*
X187636632Y-65415475D01*
X187843475Y-65208632D01*
X188005990Y-64965411D01*
X188117932Y-64695158D01*
X188175000Y-64408260D01*
X188175000Y-64115740D01*
X188117932Y-63828842D01*
X188005990Y-63558589D01*
X187843475Y-63315368D01*
X187636632Y-63108525D01*
X187462240Y-62992000D01*
X187636632Y-62875475D01*
X187843475Y-62668632D01*
X188005990Y-62425411D01*
X188117932Y-62155158D01*
X188175000Y-61868260D01*
X188175000Y-61575740D01*
X188117932Y-61288842D01*
X188005990Y-61018589D01*
X187843475Y-60775368D01*
X187636632Y-60568525D01*
X187462240Y-60452000D01*
X187636632Y-60335475D01*
X187843475Y-60128632D01*
X188005990Y-59885411D01*
X188117932Y-59615158D01*
X188175000Y-59328260D01*
X188175000Y-59035740D01*
X188117932Y-58748842D01*
X188005990Y-58478589D01*
X187843475Y-58235368D01*
X187636632Y-58028525D01*
X187393411Y-57866010D01*
X187123158Y-57754068D01*
X186836260Y-57697000D01*
X186543740Y-57697000D01*
X186256842Y-57754068D01*
X185986589Y-57866010D01*
X185743368Y-58028525D01*
X185536525Y-58235368D01*
X185374010Y-58478589D01*
X185262068Y-58748842D01*
X185205000Y-59035740D01*
X185205000Y-59328260D01*
X185262068Y-59615158D01*
X185374010Y-59885411D01*
X185536525Y-60128632D01*
X185743368Y-60335475D01*
X185917760Y-60452000D01*
X185743368Y-60568525D01*
X185536525Y-60775368D01*
X185374010Y-61018589D01*
X185262068Y-61288842D01*
X185205000Y-61575740D01*
X185205000Y-61868260D01*
X185262068Y-62155158D01*
X185374010Y-62425411D01*
X185536525Y-62668632D01*
X185743368Y-62875475D01*
X185917760Y-62992000D01*
X185743368Y-63108525D01*
X185536525Y-63315368D01*
X185374010Y-63558589D01*
X185262068Y-63828842D01*
X185205000Y-64115740D01*
X185205000Y-64408260D01*
X185262068Y-64695158D01*
X185374010Y-64965411D01*
X185536525Y-65208632D01*
X185743368Y-65415475D01*
X185917760Y-65532000D01*
X185743368Y-65648525D01*
X185536525Y-65855368D01*
X185374010Y-66098589D01*
X185262068Y-66368842D01*
X185205000Y-66655740D01*
X185205000Y-66948260D01*
X185262068Y-67235158D01*
X185374010Y-67505411D01*
X185536525Y-67748632D01*
X185743368Y-67955475D01*
X185925534Y-68077195D01*
X185808645Y-68146822D01*
X185592412Y-68341731D01*
X185418359Y-68575080D01*
X185293175Y-68837901D01*
X185248524Y-68985110D01*
X185369844Y-69214998D01*
X185274577Y-69214998D01*
X183765000Y-67705422D01*
X183765000Y-56856625D01*
X183854482Y-56847812D01*
X183974180Y-56811502D01*
X184084494Y-56752537D01*
X184181185Y-56673185D01*
X184260537Y-56576494D01*
X184319502Y-56466180D01*
X184343966Y-56385534D01*
X184419731Y-56469588D01*
X184653080Y-56643641D01*
X184915901Y-56768825D01*
X185063110Y-56813476D01*
X185293000Y-56692155D01*
X185293000Y-55499000D01*
X185273000Y-55499000D01*
X185273000Y-55245000D01*
X185293000Y-55245000D01*
X185293000Y-54051845D01*
X185547000Y-54051845D01*
X185547000Y-55245000D01*
X185567000Y-55245000D01*
X185567000Y-55499000D01*
X185547000Y-55499000D01*
X185547000Y-56692155D01*
X185776890Y-56813476D01*
X185924099Y-56768825D01*
X186186920Y-56643641D01*
X186420269Y-56469588D01*
X186615178Y-56253355D01*
X186684805Y-56136466D01*
X186806525Y-56318632D01*
X187013368Y-56525475D01*
X187256589Y-56687990D01*
X187526842Y-56799932D01*
X187813740Y-56857000D01*
X188106260Y-56857000D01*
X188393158Y-56799932D01*
X188663411Y-56687990D01*
X188906632Y-56525475D01*
X189113475Y-56318632D01*
X189230000Y-56144240D01*
X189346525Y-56318632D01*
X189553368Y-56525475D01*
X189796589Y-56687990D01*
X190066842Y-56799932D01*
X190353740Y-56857000D01*
X190646260Y-56857000D01*
X190933158Y-56799932D01*
X191203411Y-56687990D01*
X191446632Y-56525475D01*
X191653475Y-56318632D01*
X191770000Y-56144240D01*
X191886525Y-56318632D01*
X192093368Y-56525475D01*
X192336589Y-56687990D01*
X192606842Y-56799932D01*
X192893740Y-56857000D01*
X193186260Y-56857000D01*
X193473158Y-56799932D01*
X193743411Y-56687990D01*
X193986632Y-56525475D01*
X194193475Y-56318632D01*
X194310000Y-56144240D01*
X194426525Y-56318632D01*
X194633368Y-56525475D01*
X194876589Y-56687990D01*
X195146842Y-56799932D01*
X195433740Y-56857000D01*
X195726260Y-56857000D01*
X196013158Y-56799932D01*
X196283411Y-56687990D01*
X196526632Y-56525475D01*
X196733475Y-56318632D01*
X196895990Y-56075411D01*
X197007932Y-55805158D01*
X197065000Y-55518260D01*
X197065000Y-55225740D01*
X197007932Y-54938842D01*
X196895990Y-54668589D01*
X196733475Y-54425368D01*
X196526632Y-54218525D01*
X196283411Y-54056010D01*
X196013158Y-53944068D01*
X195726260Y-53887000D01*
X195433740Y-53887000D01*
X195146842Y-53944068D01*
X194876589Y-54056010D01*
X194633368Y-54218525D01*
X194426525Y-54425368D01*
X194310000Y-54599760D01*
X194193475Y-54425368D01*
X193986632Y-54218525D01*
X193743411Y-54056010D01*
X193473158Y-53944068D01*
X193186260Y-53887000D01*
X192893740Y-53887000D01*
X192606842Y-53944068D01*
X192336589Y-54056010D01*
X192093368Y-54218525D01*
X191886525Y-54425368D01*
X191770000Y-54599760D01*
X191653475Y-54425368D01*
X191446632Y-54218525D01*
X191203411Y-54056010D01*
X190933158Y-53944068D01*
X190646260Y-53887000D01*
X190353740Y-53887000D01*
X190066842Y-53944068D01*
X189796589Y-54056010D01*
X189553368Y-54218525D01*
X189346525Y-54425368D01*
X189230000Y-54599760D01*
X189113475Y-54425368D01*
X188906632Y-54218525D01*
X188663411Y-54056010D01*
X188393158Y-53944068D01*
X188106260Y-53887000D01*
X187813740Y-53887000D01*
X187526842Y-53944068D01*
X187256589Y-54056010D01*
X187013368Y-54218525D01*
X186806525Y-54425368D01*
X186684805Y-54607534D01*
X186615178Y-54490645D01*
X186420269Y-54274412D01*
X186186920Y-54100359D01*
X185924099Y-53975175D01*
X185776890Y-53930524D01*
X185547000Y-54051845D01*
X185293000Y-54051845D01*
X185063110Y-53930524D01*
X184915901Y-53975175D01*
X184653080Y-54100359D01*
X184419731Y-54274412D01*
X184343966Y-54358466D01*
X184319502Y-54277820D01*
X184260537Y-54167506D01*
X184181185Y-54070815D01*
X184084494Y-53991463D01*
X183974180Y-53932498D01*
X183854482Y-53896188D01*
X183730000Y-53883928D01*
X182030000Y-53883928D01*
X181905518Y-53896188D01*
X181785820Y-53932498D01*
X181784684Y-53933105D01*
X180824078Y-52972500D01*
X182352032Y-52972500D01*
X182395501Y-52976781D01*
X182438970Y-52972500D01*
X189987033Y-52972500D01*
X190030502Y-52976781D01*
X190073971Y-52972500D01*
X190073979Y-52972500D01*
X190203992Y-52959695D01*
X190370815Y-52909089D01*
X190524561Y-52826911D01*
X190659319Y-52716317D01*
X190687036Y-52682544D01*
X193887509Y-49482072D01*
X194506001Y-49482072D01*
X194679255Y-49465008D01*
X194845851Y-49414472D01*
X194999387Y-49332405D01*
X195133962Y-49221962D01*
X195244405Y-49087387D01*
X195326472Y-48933851D01*
X195377008Y-48767255D01*
X195394072Y-48594001D01*
X195394072Y-47943999D01*
X195377008Y-47770745D01*
X195326472Y-47604149D01*
X195244405Y-47450613D01*
X195133962Y-47316038D01*
X195046184Y-47244000D01*
X195133962Y-47171962D01*
X195244405Y-47037387D01*
X195326472Y-46883851D01*
X195377008Y-46717255D01*
X195394072Y-46544001D01*
X195394072Y-45893999D01*
X195377008Y-45720745D01*
X195326472Y-45554149D01*
X195244405Y-45400613D01*
X195133962Y-45266038D01*
X194999387Y-45155595D01*
X194845851Y-45073528D01*
X194679255Y-45022992D01*
X194506001Y-45005928D01*
X193605999Y-45005928D01*
X193432745Y-45022992D01*
X193371775Y-45041487D01*
X193317205Y-44909744D01*
X193203937Y-44740226D01*
X193059774Y-44596063D01*
X192890256Y-44482795D01*
X192701898Y-44404774D01*
X192501939Y-44365000D01*
X192298061Y-44365000D01*
X192098102Y-44404774D01*
X191909744Y-44482795D01*
X191740226Y-44596063D01*
X191596063Y-44740226D01*
X191482795Y-44909744D01*
X191404774Y-45098102D01*
X191367698Y-45284499D01*
X191163997Y-45488200D01*
X191139740Y-45508107D01*
X191108175Y-45491849D01*
X190987939Y-45457366D01*
X190863285Y-45447002D01*
X190433750Y-45450000D01*
X190275000Y-45608750D01*
X190275000Y-46096928D01*
X190021000Y-46096928D01*
X190021000Y-45608750D01*
X189862250Y-45450000D01*
X189432715Y-45447002D01*
X189308061Y-45457366D01*
X189187825Y-45491849D01*
X189076625Y-45549126D01*
X188978737Y-45626997D01*
X188897922Y-45722469D01*
X188837285Y-45831873D01*
X188799156Y-45951004D01*
X188788000Y-46053250D01*
X188946750Y-46212000D01*
X189059322Y-46212000D01*
X188971815Y-46283815D01*
X188892463Y-46380506D01*
X188833498Y-46490820D01*
X188820247Y-46534503D01*
X188788000Y-46566750D01*
X188795095Y-46631773D01*
X188784928Y-46735000D01*
X188784928Y-47185000D01*
X188794777Y-47285000D01*
X188784928Y-47385000D01*
X188784928Y-47835000D01*
X188794777Y-47935000D01*
X188784928Y-48035000D01*
X188784928Y-48485000D01*
X188794777Y-48585000D01*
X188784928Y-48685000D01*
X188784928Y-49135000D01*
X188795095Y-49238227D01*
X188788000Y-49303250D01*
X188820247Y-49335497D01*
X188833498Y-49379180D01*
X188892463Y-49489494D01*
X188950559Y-49560285D01*
X188897922Y-49622469D01*
X188837285Y-49731873D01*
X188820531Y-49784219D01*
X188788000Y-49816750D01*
X188795447Y-49885000D01*
X188788000Y-49953250D01*
X188820531Y-49985781D01*
X188837285Y-50038127D01*
X188897922Y-50147531D01*
X188978737Y-50243003D01*
X189060442Y-50308000D01*
X188946750Y-50308000D01*
X188788000Y-50466750D01*
X188799156Y-50568996D01*
X188837285Y-50688127D01*
X188897922Y-50797531D01*
X188978737Y-50893003D01*
X189076625Y-50970874D01*
X189187825Y-51028151D01*
X189308061Y-51062634D01*
X189432715Y-51072998D01*
X189795961Y-51070463D01*
X189663924Y-51202500D01*
X184532080Y-51202500D01*
X184661508Y-51073072D01*
X184973000Y-51073072D01*
X185097482Y-51060812D01*
X185217180Y-51024502D01*
X185327494Y-50965537D01*
X185424185Y-50886185D01*
X185503537Y-50789494D01*
X185562502Y-50679180D01*
X185598812Y-50559482D01*
X185611072Y-50435000D01*
X185611072Y-49985000D01*
X185601223Y-49885000D01*
X185611072Y-49785000D01*
X185611072Y-49335000D01*
X185601223Y-49235000D01*
X185801939Y-49235000D01*
X186001898Y-49195226D01*
X186190256Y-49117205D01*
X186359774Y-49003937D01*
X186503937Y-48859774D01*
X186617205Y-48690256D01*
X186695226Y-48501898D01*
X186735000Y-48301939D01*
X186735000Y-48098061D01*
X186695226Y-47898102D01*
X186656991Y-47805796D01*
X186659774Y-47803937D01*
X186803937Y-47659774D01*
X186917205Y-47490256D01*
X186995226Y-47301898D01*
X187035000Y-47101939D01*
X187035000Y-46898061D01*
X186995226Y-46698102D01*
X186917205Y-46509744D01*
X186803937Y-46340226D01*
X186659774Y-46196063D01*
X186490256Y-46082795D01*
X186301898Y-46004774D01*
X186101939Y-45965000D01*
X185898061Y-45965000D01*
X185698102Y-46004774D01*
X185606892Y-46042555D01*
X185598812Y-45960518D01*
X185562502Y-45840820D01*
X185503537Y-45730506D01*
X185424185Y-45633815D01*
X185327494Y-45554463D01*
X185217180Y-45495498D01*
X185097482Y-45459188D01*
X184973000Y-45446928D01*
X183523000Y-45446928D01*
X183398518Y-45459188D01*
X183278820Y-45495498D01*
X183168506Y-45554463D01*
X183071815Y-45633815D01*
X182992463Y-45730506D01*
X182933498Y-45840820D01*
X182897188Y-45960518D01*
X182884928Y-46085000D01*
X182884928Y-46535000D01*
X182894777Y-46635000D01*
X182884928Y-46735000D01*
X182884928Y-47185000D01*
X182894777Y-47285000D01*
X182884928Y-47385000D01*
X182884928Y-47835000D01*
X182894777Y-47935000D01*
X182884928Y-48035000D01*
X182884928Y-48121217D01*
X182859774Y-48096063D01*
X182690256Y-47982795D01*
X182501898Y-47904774D01*
X182301939Y-47865000D01*
X182098061Y-47865000D01*
X181898102Y-47904774D01*
X181709744Y-47982795D01*
X181540226Y-48096063D01*
X181396063Y-48240226D01*
X181282795Y-48409744D01*
X181204774Y-48598102D01*
X181165000Y-48798061D01*
X181165000Y-49001939D01*
X181204774Y-49201898D01*
X181282795Y-49390256D01*
X181389532Y-49550000D01*
X181282795Y-49709744D01*
X181204774Y-49898102D01*
X181165000Y-50098061D01*
X181165000Y-50301939D01*
X181204774Y-50501898D01*
X181282795Y-50690256D01*
X181396063Y-50859774D01*
X181540226Y-51003937D01*
X181709744Y-51117205D01*
X181898102Y-51195226D01*
X181934671Y-51202500D01*
X180560055Y-51202500D01*
X180564502Y-51194180D01*
X180600812Y-51074482D01*
X180613072Y-50950000D01*
X180610000Y-50798250D01*
X180451250Y-50639500D01*
X179627000Y-50639500D01*
X179627000Y-50659500D01*
X179373000Y-50659500D01*
X179373000Y-50639500D01*
X178548750Y-50639500D01*
X178390000Y-50798250D01*
X178386928Y-50950000D01*
X152748000Y-50950000D01*
X152748000Y-50386178D01*
X152934632Y-50261475D01*
X153121107Y-50075000D01*
X178386928Y-50075000D01*
X178390000Y-50226750D01*
X178548750Y-50385500D01*
X179373000Y-50385500D01*
X179373000Y-49598750D01*
X179627000Y-49598750D01*
X179627000Y-50385500D01*
X180451250Y-50385500D01*
X180610000Y-50226750D01*
X180613072Y-50075000D01*
X180600812Y-49950518D01*
X180564502Y-49830820D01*
X180505537Y-49720506D01*
X180426185Y-49623815D01*
X180329494Y-49544463D01*
X180219180Y-49485498D01*
X180099482Y-49449188D01*
X179975000Y-49436928D01*
X179785750Y-49440000D01*
X179627000Y-49598750D01*
X179373000Y-49598750D01*
X179214250Y-49440000D01*
X179025000Y-49436928D01*
X178900518Y-49449188D01*
X178780820Y-49485498D01*
X178670506Y-49544463D01*
X178573815Y-49623815D01*
X178494463Y-49720506D01*
X178435498Y-49830820D01*
X178399188Y-49950518D01*
X178386928Y-50075000D01*
X153121107Y-50075000D01*
X153141475Y-50054632D01*
X153303990Y-49811411D01*
X153415932Y-49541158D01*
X153473000Y-49254260D01*
X153473000Y-48961740D01*
X153415932Y-48674842D01*
X153303990Y-48404589D01*
X153141475Y-48161368D01*
X152934632Y-47954525D01*
X152691411Y-47792010D01*
X152421158Y-47680068D01*
X152134260Y-47623000D01*
X151841740Y-47623000D01*
X151554842Y-47680068D01*
X151284589Y-47792010D01*
X151041368Y-47954525D01*
X150834525Y-48161368D01*
X150718000Y-48335760D01*
X150601475Y-48161368D01*
X150394632Y-47954525D01*
X150151411Y-47792010D01*
X149881158Y-47680068D01*
X149594260Y-47623000D01*
X149301740Y-47623000D01*
X149014842Y-47680068D01*
X148744589Y-47792010D01*
X148501368Y-47954525D01*
X148294525Y-48161368D01*
X148178000Y-48335760D01*
X148061475Y-48161368D01*
X147854632Y-47954525D01*
X147611411Y-47792010D01*
X147341158Y-47680068D01*
X147054260Y-47623000D01*
X146761740Y-47623000D01*
X146474842Y-47680068D01*
X146204589Y-47792010D01*
X145961368Y-47954525D01*
X145829513Y-48086380D01*
X145807502Y-48013820D01*
X145748537Y-47903506D01*
X145669185Y-47806815D01*
X145572494Y-47727463D01*
X145462180Y-47668498D01*
X145342482Y-47632188D01*
X145218000Y-47619928D01*
X143518000Y-47619928D01*
X143393518Y-47632188D01*
X143273820Y-47668498D01*
X143163506Y-47727463D01*
X143066815Y-47806815D01*
X142987463Y-47903506D01*
X142928498Y-48013820D01*
X142892188Y-48133518D01*
X142879928Y-48258000D01*
X142879928Y-49958000D01*
X142892188Y-50082482D01*
X142928498Y-50202180D01*
X142987463Y-50312494D01*
X143066815Y-50409185D01*
X143163506Y-50488537D01*
X143273820Y-50547502D01*
X143393518Y-50583812D01*
X143518000Y-50596072D01*
X144781270Y-50596072D01*
X145333010Y-51147812D01*
X145333010Y-54253943D01*
X144653750Y-54256000D01*
X144495000Y-54414750D01*
X144495000Y-55839000D01*
X144515000Y-55839000D01*
X144515000Y-56093000D01*
X144495000Y-56093000D01*
X144495000Y-56113000D01*
X144241000Y-56113000D01*
X144241000Y-56093000D01*
X142591750Y-56093000D01*
X142433000Y-56251750D01*
X142429928Y-57041000D01*
X142442188Y-57165482D01*
X142478498Y-57285180D01*
X142537463Y-57395494D01*
X142616815Y-57492185D01*
X142713506Y-57571537D01*
X142823820Y-57630502D01*
X142943518Y-57666812D01*
X142989303Y-57671321D01*
X142856945Y-57779945D01*
X142630759Y-58055553D01*
X142462688Y-58369992D01*
X142359190Y-58711178D01*
X142324243Y-59066000D01*
X142359190Y-59420822D01*
X142462688Y-59762008D01*
X142630759Y-60076447D01*
X142856945Y-60352055D01*
X143132553Y-60578241D01*
X143446992Y-60746312D01*
X143788178Y-60849810D01*
X144054089Y-60876000D01*
X144681911Y-60876000D01*
X144947822Y-60849810D01*
X145289008Y-60746312D01*
X145333011Y-60722792D01*
X145333011Y-62210775D01*
X140689003Y-66854784D01*
X140659999Y-66878587D01*
X140625993Y-66920024D01*
X140565026Y-66994312D01*
X140494745Y-67125798D01*
X140494454Y-67126342D01*
X140450997Y-67269603D01*
X140440000Y-67381256D01*
X140440000Y-67381266D01*
X140436324Y-67418588D01*
X140440000Y-67455911D01*
X140440001Y-73285197D01*
X138885209Y-74839990D01*
X135891157Y-74839990D01*
X135889000Y-74285750D01*
X135730250Y-74127000D01*
X134081000Y-74127000D01*
X134081000Y-74147000D01*
X133827000Y-74147000D01*
X133827000Y-74127000D01*
X132177750Y-74127000D01*
X132019000Y-74285750D01*
X132016843Y-74839990D01*
X125477157Y-74839990D01*
X125475000Y-74285750D01*
X125316250Y-74127000D01*
X123667000Y-74127000D01*
X123667000Y-74147000D01*
X123413000Y-74147000D01*
X123413000Y-74127000D01*
X121763750Y-74127000D01*
X121605000Y-74285750D01*
X121601928Y-75075000D01*
X121614188Y-75199482D01*
X121650498Y-75319180D01*
X121709463Y-75429494D01*
X121788815Y-75526185D01*
X121885506Y-75605537D01*
X121995820Y-75664502D01*
X122115518Y-75700812D01*
X122161303Y-75705321D01*
X122028945Y-75813945D01*
X121802759Y-76089553D01*
X121634688Y-76403992D01*
X121531190Y-76745178D01*
X121496243Y-77100000D01*
X121531190Y-77454822D01*
X121634688Y-77796008D01*
X121802759Y-78110447D01*
X121894140Y-78221795D01*
X113696597Y-78221795D01*
X108399802Y-72925000D01*
X121601928Y-72925000D01*
X121605000Y-73714250D01*
X121763750Y-73873000D01*
X123413000Y-73873000D01*
X123413000Y-72448750D01*
X123667000Y-72448750D01*
X123667000Y-73873000D01*
X125316250Y-73873000D01*
X125475000Y-73714250D01*
X125478072Y-72925000D01*
X132015928Y-72925000D01*
X132019000Y-73714250D01*
X132177750Y-73873000D01*
X133827000Y-73873000D01*
X133827000Y-72448750D01*
X134081000Y-72448750D01*
X134081000Y-73873000D01*
X135730250Y-73873000D01*
X135889000Y-73714250D01*
X135892072Y-72925000D01*
X135879812Y-72800518D01*
X135843502Y-72680820D01*
X135784537Y-72570506D01*
X135705185Y-72473815D01*
X135608494Y-72394463D01*
X135498180Y-72335498D01*
X135378482Y-72299188D01*
X135254000Y-72286928D01*
X134239750Y-72290000D01*
X134081000Y-72448750D01*
X133827000Y-72448750D01*
X133668250Y-72290000D01*
X132654000Y-72286928D01*
X132529518Y-72299188D01*
X132409820Y-72335498D01*
X132299506Y-72394463D01*
X132202815Y-72473815D01*
X132123463Y-72570506D01*
X132064498Y-72680820D01*
X132028188Y-72800518D01*
X132015928Y-72925000D01*
X125478072Y-72925000D01*
X125465812Y-72800518D01*
X125429502Y-72680820D01*
X125370537Y-72570506D01*
X125291185Y-72473815D01*
X125194494Y-72394463D01*
X125084180Y-72335498D01*
X124964482Y-72299188D01*
X124840000Y-72286928D01*
X123825750Y-72290000D01*
X123667000Y-72448750D01*
X123413000Y-72448750D01*
X123254250Y-72290000D01*
X122240000Y-72286928D01*
X122115518Y-72299188D01*
X121995820Y-72335498D01*
X121885506Y-72394463D01*
X121788815Y-72473815D01*
X121709463Y-72570506D01*
X121650498Y-72680820D01*
X121614188Y-72800518D01*
X121601928Y-72925000D01*
X108399802Y-72925000D01*
X104810010Y-69335209D01*
X104810010Y-67170495D01*
X121555000Y-67170495D01*
X121555000Y-67561505D01*
X121631282Y-67945003D01*
X121780915Y-68306250D01*
X121998149Y-68631364D01*
X122274636Y-68907851D01*
X122599750Y-69125085D01*
X122960997Y-69274718D01*
X123344495Y-69351000D01*
X123735505Y-69351000D01*
X124119003Y-69274718D01*
X124480250Y-69125085D01*
X124805364Y-68907851D01*
X125081851Y-68631364D01*
X125299085Y-68306250D01*
X125448718Y-67945003D01*
X125525000Y-67561505D01*
X125525000Y-67170495D01*
X131969000Y-67170495D01*
X131969000Y-67561505D01*
X132045282Y-67945003D01*
X132194915Y-68306250D01*
X132412149Y-68631364D01*
X132688636Y-68907851D01*
X133013750Y-69125085D01*
X133374997Y-69274718D01*
X133758495Y-69351000D01*
X134149505Y-69351000D01*
X134533003Y-69274718D01*
X134894250Y-69125085D01*
X135219364Y-68907851D01*
X135495851Y-68631364D01*
X135713085Y-68306250D01*
X135862718Y-67945003D01*
X135939000Y-67561505D01*
X135939000Y-67170495D01*
X135862718Y-66786997D01*
X135713085Y-66425750D01*
X135495851Y-66100636D01*
X135219364Y-65824149D01*
X134894250Y-65606915D01*
X134533003Y-65457282D01*
X134149505Y-65381000D01*
X133758495Y-65381000D01*
X133374997Y-65457282D01*
X133013750Y-65606915D01*
X132688636Y-65824149D01*
X132412149Y-66100636D01*
X132194915Y-66425750D01*
X132045282Y-66786997D01*
X131969000Y-67170495D01*
X125525000Y-67170495D01*
X125448718Y-66786997D01*
X125299085Y-66425750D01*
X125081851Y-66100636D01*
X124805364Y-65824149D01*
X124480250Y-65606915D01*
X124119003Y-65457282D01*
X123735505Y-65381000D01*
X123344495Y-65381000D01*
X122960997Y-65457282D01*
X122599750Y-65606915D01*
X122274636Y-65824149D01*
X121998149Y-66100636D01*
X121780915Y-66425750D01*
X121631282Y-66786997D01*
X121555000Y-67170495D01*
X104810010Y-67170495D01*
X104810010Y-59066000D01*
X121496243Y-59066000D01*
X121531190Y-59420822D01*
X121634688Y-59762008D01*
X121802759Y-60076447D01*
X122028945Y-60352055D01*
X122304553Y-60578241D01*
X122618992Y-60746312D01*
X122960178Y-60849810D01*
X123226089Y-60876000D01*
X123853911Y-60876000D01*
X124119822Y-60849810D01*
X124461008Y-60746312D01*
X124775447Y-60578241D01*
X125051055Y-60352055D01*
X125277241Y-60076447D01*
X125445312Y-59762008D01*
X125548810Y-59420822D01*
X125583757Y-59066000D01*
X131910243Y-59066000D01*
X131945190Y-59420822D01*
X132048688Y-59762008D01*
X132216759Y-60076447D01*
X132442945Y-60352055D01*
X132718553Y-60578241D01*
X133032992Y-60746312D01*
X133374178Y-60849810D01*
X133640089Y-60876000D01*
X134267911Y-60876000D01*
X134533822Y-60849810D01*
X134875008Y-60746312D01*
X135189447Y-60578241D01*
X135465055Y-60352055D01*
X135691241Y-60076447D01*
X135859312Y-59762008D01*
X135962810Y-59420822D01*
X135997757Y-59066000D01*
X135962810Y-58711178D01*
X135859312Y-58369992D01*
X135691241Y-58055553D01*
X135465055Y-57779945D01*
X135332697Y-57671321D01*
X135378482Y-57666812D01*
X135498180Y-57630502D01*
X135608494Y-57571537D01*
X135705185Y-57492185D01*
X135784537Y-57395494D01*
X135843502Y-57285180D01*
X135879812Y-57165482D01*
X135892072Y-57041000D01*
X135889000Y-56251750D01*
X135730250Y-56093000D01*
X134081000Y-56093000D01*
X134081000Y-56113000D01*
X133827000Y-56113000D01*
X133827000Y-56093000D01*
X132177750Y-56093000D01*
X132019000Y-56251750D01*
X132015928Y-57041000D01*
X132028188Y-57165482D01*
X132064498Y-57285180D01*
X132123463Y-57395494D01*
X132202815Y-57492185D01*
X132299506Y-57571537D01*
X132409820Y-57630502D01*
X132529518Y-57666812D01*
X132575303Y-57671321D01*
X132442945Y-57779945D01*
X132216759Y-58055553D01*
X132048688Y-58369992D01*
X131945190Y-58711178D01*
X131910243Y-59066000D01*
X125583757Y-59066000D01*
X125548810Y-58711178D01*
X125445312Y-58369992D01*
X125277241Y-58055553D01*
X125051055Y-57779945D01*
X124918697Y-57671321D01*
X124964482Y-57666812D01*
X125084180Y-57630502D01*
X125194494Y-57571537D01*
X125291185Y-57492185D01*
X125370537Y-57395494D01*
X125429502Y-57285180D01*
X125465812Y-57165482D01*
X125478072Y-57041000D01*
X125475000Y-56251750D01*
X125316250Y-56093000D01*
X123667000Y-56093000D01*
X123667000Y-56113000D01*
X123413000Y-56113000D01*
X123413000Y-56093000D01*
X121763750Y-56093000D01*
X121605000Y-56251750D01*
X121601928Y-57041000D01*
X121614188Y-57165482D01*
X121650498Y-57285180D01*
X121709463Y-57395494D01*
X121788815Y-57492185D01*
X121885506Y-57571537D01*
X121995820Y-57630502D01*
X122115518Y-57666812D01*
X122161303Y-57671321D01*
X122028945Y-57779945D01*
X121802759Y-58055553D01*
X121634688Y-58369992D01*
X121531190Y-58711178D01*
X121496243Y-59066000D01*
X104810010Y-59066000D01*
X104810010Y-54836583D01*
X104858180Y-54868769D01*
X105046538Y-54946790D01*
X105246497Y-54986564D01*
X105450375Y-54986564D01*
X105650334Y-54946790D01*
X105838692Y-54868769D01*
X106008210Y-54755501D01*
X106052147Y-54711564D01*
X121630858Y-54711564D01*
X121614188Y-54766518D01*
X121601928Y-54891000D01*
X121605000Y-55680250D01*
X121763750Y-55839000D01*
X123413000Y-55839000D01*
X123413000Y-55819000D01*
X123667000Y-55819000D01*
X123667000Y-55839000D01*
X125316250Y-55839000D01*
X125475000Y-55680250D01*
X125478072Y-54891000D01*
X132015928Y-54891000D01*
X132019000Y-55680250D01*
X132177750Y-55839000D01*
X133827000Y-55839000D01*
X133827000Y-54414750D01*
X134081000Y-54414750D01*
X134081000Y-55839000D01*
X135730250Y-55839000D01*
X135889000Y-55680250D01*
X135892072Y-54891000D01*
X142429928Y-54891000D01*
X142433000Y-55680250D01*
X142591750Y-55839000D01*
X144241000Y-55839000D01*
X144241000Y-54414750D01*
X144082250Y-54256000D01*
X143068000Y-54252928D01*
X142943518Y-54265188D01*
X142823820Y-54301498D01*
X142713506Y-54360463D01*
X142616815Y-54439815D01*
X142537463Y-54536506D01*
X142478498Y-54646820D01*
X142442188Y-54766518D01*
X142429928Y-54891000D01*
X135892072Y-54891000D01*
X135879812Y-54766518D01*
X135843502Y-54646820D01*
X135784537Y-54536506D01*
X135705185Y-54439815D01*
X135608494Y-54360463D01*
X135498180Y-54301498D01*
X135378482Y-54265188D01*
X135254000Y-54252928D01*
X134239750Y-54256000D01*
X134081000Y-54414750D01*
X133827000Y-54414750D01*
X133668250Y-54256000D01*
X132654000Y-54252928D01*
X132529518Y-54265188D01*
X132409820Y-54301498D01*
X132299506Y-54360463D01*
X132202815Y-54439815D01*
X132123463Y-54536506D01*
X132064498Y-54646820D01*
X132028188Y-54766518D01*
X132015928Y-54891000D01*
X125478072Y-54891000D01*
X125465812Y-54766518D01*
X125449142Y-54711564D01*
X125517114Y-54711564D01*
X125554436Y-54715240D01*
X125591758Y-54711564D01*
X125591769Y-54711564D01*
X125703422Y-54700567D01*
X125846683Y-54657110D01*
X125978712Y-54586538D01*
X126094437Y-54491565D01*
X126118240Y-54462561D01*
X130031592Y-50549210D01*
X130251740Y-50593000D01*
X130544260Y-50593000D01*
X130831158Y-50535932D01*
X131101411Y-50423990D01*
X131344632Y-50261475D01*
X131551475Y-50054632D01*
X131668000Y-49880240D01*
X131784525Y-50054632D01*
X131991368Y-50261475D01*
X132234589Y-50423990D01*
X132504842Y-50535932D01*
X132791740Y-50593000D01*
X133084260Y-50593000D01*
X133371158Y-50535932D01*
X133641411Y-50423990D01*
X133884632Y-50261475D01*
X134091475Y-50054632D01*
X134208000Y-49880240D01*
X134324525Y-50054632D01*
X134531368Y-50261475D01*
X134774589Y-50423990D01*
X135044842Y-50535932D01*
X135331740Y-50593000D01*
X135624260Y-50593000D01*
X135911158Y-50535932D01*
X136181411Y-50423990D01*
X136424632Y-50261475D01*
X136631475Y-50054632D01*
X136748000Y-49880240D01*
X136864525Y-50054632D01*
X137071368Y-50261475D01*
X137314589Y-50423990D01*
X137584842Y-50535932D01*
X137871740Y-50593000D01*
X138164260Y-50593000D01*
X138451158Y-50535932D01*
X138721411Y-50423990D01*
X138964632Y-50261475D01*
X139171475Y-50054632D01*
X139333990Y-49811411D01*
X139445932Y-49541158D01*
X139503000Y-49254260D01*
X139503000Y-48961740D01*
X139445932Y-48674842D01*
X139333990Y-48404589D01*
X139171475Y-48161368D01*
X138964632Y-47954525D01*
X138778000Y-47829822D01*
X138778000Y-40255325D01*
X138781676Y-40218000D01*
X138778000Y-40180675D01*
X138778000Y-40180667D01*
X138767003Y-40069014D01*
X138723546Y-39925753D01*
X138652974Y-39793724D01*
X138558001Y-39677999D01*
X138529004Y-39654202D01*
X127738804Y-28864003D01*
X127715001Y-28834999D01*
X127599276Y-28740026D01*
X127467247Y-28669454D01*
X127403115Y-28650000D01*
X134494451Y-28650000D01*
X134465000Y-28798061D01*
X134465000Y-29001939D01*
X134504774Y-29201898D01*
X134582795Y-29390256D01*
X134696063Y-29559774D01*
X134740000Y-29603711D01*
X134740001Y-30502668D01*
X134736324Y-30540000D01*
X134740001Y-30577333D01*
X134749707Y-30675873D01*
X134750998Y-30688985D01*
X134794454Y-30832246D01*
X134865026Y-30964276D01*
X134921698Y-31033330D01*
X134960000Y-31080001D01*
X134988998Y-31103799D01*
X138858790Y-34973592D01*
X138815000Y-35193740D01*
X138815000Y-35486260D01*
X138872068Y-35773158D01*
X138984010Y-36043411D01*
X139146525Y-36286632D01*
X139353368Y-36493475D01*
X139596589Y-36655990D01*
X139866842Y-36767932D01*
X140153740Y-36825000D01*
X140446260Y-36825000D01*
X140733158Y-36767932D01*
X141003411Y-36655990D01*
X141246632Y-36493475D01*
X141453475Y-36286632D01*
X141615990Y-36043411D01*
X141727932Y-35773158D01*
X141785000Y-35486260D01*
X141785000Y-35193740D01*
X141727932Y-34906842D01*
X141615990Y-34636589D01*
X141453475Y-34393368D01*
X141321620Y-34261513D01*
X141394180Y-34239502D01*
X141504494Y-34180537D01*
X141601185Y-34101185D01*
X141680537Y-34004494D01*
X141739502Y-33894180D01*
X141775812Y-33774482D01*
X141788072Y-33650000D01*
X141788072Y-31950000D01*
X141775812Y-31825518D01*
X141739502Y-31705820D01*
X141680537Y-31595506D01*
X141601185Y-31498815D01*
X141504494Y-31419463D01*
X141394180Y-31360498D01*
X141274482Y-31324188D01*
X141150000Y-31311928D01*
X139450000Y-31311928D01*
X139325518Y-31324188D01*
X139205820Y-31360498D01*
X139095506Y-31419463D01*
X138998815Y-31498815D01*
X138919463Y-31595506D01*
X138860498Y-31705820D01*
X138824188Y-31825518D01*
X138811928Y-31950000D01*
X138811928Y-32777126D01*
X136260000Y-30225199D01*
X136260000Y-29603711D01*
X136303937Y-29559774D01*
X136417205Y-29390256D01*
X136495226Y-29201898D01*
X136535000Y-29001939D01*
X136535000Y-28798061D01*
X136505549Y-28650000D01*
X192976440Y-28650000D01*
X192636886Y-28989554D01*
X192293799Y-29503021D01*
X192057476Y-30073554D01*
X191937000Y-30679229D01*
X191937000Y-31296771D01*
X192057476Y-31902446D01*
X192293799Y-32472979D01*
X192636886Y-32986446D01*
X193073554Y-33423114D01*
X193587021Y-33766201D01*
X194157554Y-34002524D01*
X194763229Y-34123000D01*
X195380771Y-34123000D01*
X195986446Y-34002524D01*
X196556979Y-33766201D01*
X197070446Y-33423114D01*
X197410000Y-33083560D01*
X197410001Y-88836441D01*
X197070446Y-88496886D01*
X196556979Y-88153799D01*
X195986446Y-87917476D01*
X195380771Y-87797000D01*
X194763229Y-87797000D01*
X194157554Y-87917476D01*
X193587021Y-88153799D01*
X193073554Y-88496886D01*
X192636886Y-88933554D01*
X192293799Y-89447021D01*
X192057476Y-90017554D01*
X191937000Y-90623229D01*
X191937000Y-91240771D01*
X192057476Y-91846446D01*
X192293799Y-92416979D01*
X192636886Y-92930446D01*
X192976440Y-93270000D01*
X40703560Y-93270000D01*
X41043114Y-92930446D01*
X41386201Y-92416979D01*
X41622524Y-91846446D01*
X41743000Y-91240771D01*
X41743000Y-90623229D01*
X41622524Y-90017554D01*
X41386201Y-89447021D01*
X41043114Y-88933554D01*
X40606446Y-88496886D01*
X40092979Y-88153799D01*
X39522446Y-87917476D01*
X38916771Y-87797000D01*
X38299229Y-87797000D01*
X37693554Y-87917476D01*
X37123021Y-88153799D01*
X36609554Y-88496886D01*
X36270000Y-88836440D01*
X36270000Y-33083560D01*
X36609554Y-33423114D01*
X37123021Y-33766201D01*
X37693554Y-34002524D01*
X38299229Y-34123000D01*
X38916771Y-34123000D01*
X39522446Y-34002524D01*
X40092979Y-33766201D01*
X40606446Y-33423114D01*
X41043114Y-32986446D01*
X41386201Y-32472979D01*
X41622524Y-31902446D01*
X41743000Y-31296771D01*
X41743000Y-30679229D01*
X41622524Y-30073554D01*
X41386201Y-29503021D01*
X41043114Y-28989554D01*
X40703560Y-28650000D01*
X103961289Y-28650000D01*
X103896063Y-28715226D01*
G36*
X190275000Y-50261250D02*
G01*
X190295000Y-50281250D01*
X190295000Y-50308000D01*
X190275000Y-50308000D01*
X190275000Y-50357000D01*
X190021000Y-50357000D01*
X190021000Y-50308000D01*
X189974250Y-50308000D01*
X190021000Y-50261250D01*
X190021000Y-50063000D01*
X190275000Y-50063000D01*
X190275000Y-50261250D01*
G37*
X190275000Y-50261250D02*
X190295000Y-50281250D01*
X190295000Y-50308000D01*
X190275000Y-50308000D01*
X190275000Y-50357000D01*
X190021000Y-50357000D01*
X190021000Y-50308000D01*
X189974250Y-50308000D01*
X190021000Y-50261250D01*
X190021000Y-50063000D01*
X190275000Y-50063000D01*
X190275000Y-50261250D01*
G36*
X96165000Y-52205664D02*
G01*
X96161323Y-52242997D01*
X96175997Y-52391982D01*
X96219453Y-52535243D01*
X96290025Y-52667273D01*
X96353020Y-52744032D01*
X96384999Y-52782998D01*
X96413997Y-52806796D01*
X97918475Y-54311275D01*
X97815000Y-54414750D01*
X97815000Y-55839000D01*
X97835000Y-55839000D01*
X97835000Y-56093000D01*
X97815000Y-56093000D01*
X97815000Y-56113000D01*
X97561000Y-56113000D01*
X97561000Y-56093000D01*
X95911750Y-56093000D01*
X95753000Y-56251750D01*
X95749928Y-57041000D01*
X95762188Y-57165482D01*
X95798498Y-57285180D01*
X95857463Y-57395494D01*
X95936815Y-57492185D01*
X96033506Y-57571537D01*
X96143820Y-57630502D01*
X96263518Y-57666812D01*
X96309303Y-57671321D01*
X96176945Y-57779945D01*
X95950759Y-58055553D01*
X95782688Y-58369992D01*
X95679190Y-58711178D01*
X95644243Y-59066000D01*
X95679190Y-59420822D01*
X95782688Y-59762008D01*
X95950759Y-60076447D01*
X96176945Y-60352055D01*
X96452553Y-60578241D01*
X96766992Y-60746312D01*
X97108178Y-60849810D01*
X97374089Y-60876000D01*
X98001911Y-60876000D01*
X98267822Y-60849810D01*
X98609008Y-60746312D01*
X98923447Y-60578241D01*
X99053011Y-60471910D01*
X99053011Y-65923796D01*
X98953364Y-65824149D01*
X98628250Y-65606915D01*
X98267003Y-65457282D01*
X97883505Y-65381000D01*
X97492495Y-65381000D01*
X97108997Y-65457282D01*
X96747750Y-65606915D01*
X96422636Y-65824149D01*
X96146149Y-66100636D01*
X95928915Y-66425750D01*
X95779282Y-66786997D01*
X95703000Y-67170495D01*
X95703000Y-67561505D01*
X95779282Y-67945003D01*
X95928915Y-68306250D01*
X96146149Y-68631364D01*
X96422636Y-68907851D01*
X96747750Y-69125085D01*
X97108997Y-69274718D01*
X97492495Y-69351000D01*
X97883505Y-69351000D01*
X98267003Y-69274718D01*
X98628250Y-69125085D01*
X98953364Y-68907851D01*
X99053011Y-68808204D01*
X99053012Y-72293331D01*
X98988000Y-72286928D01*
X97973750Y-72290000D01*
X97815000Y-72448750D01*
X97815000Y-73873000D01*
X97835000Y-73873000D01*
X97835000Y-74127000D01*
X97815000Y-74127000D01*
X97815000Y-74147000D01*
X97561000Y-74147000D01*
X97561000Y-74127000D01*
X95911750Y-74127000D01*
X95850776Y-74187974D01*
X94892000Y-73229199D01*
X94892000Y-72925000D01*
X95749928Y-72925000D01*
X95753000Y-73714250D01*
X95911750Y-73873000D01*
X97561000Y-73873000D01*
X97561000Y-72448750D01*
X97402250Y-72290000D01*
X96388000Y-72286928D01*
X96263518Y-72299188D01*
X96143820Y-72335498D01*
X96033506Y-72394463D01*
X95936815Y-72473815D01*
X95857463Y-72570506D01*
X95798498Y-72680820D01*
X95762188Y-72800518D01*
X95749928Y-72925000D01*
X94892000Y-72925000D01*
X94892000Y-54891000D01*
X95749928Y-54891000D01*
X95753000Y-55680250D01*
X95911750Y-55839000D01*
X97561000Y-55839000D01*
X97561000Y-54414750D01*
X97402250Y-54256000D01*
X96388000Y-54252928D01*
X96263518Y-54265188D01*
X96143820Y-54301498D01*
X96033506Y-54360463D01*
X95936815Y-54439815D01*
X95857463Y-54536506D01*
X95798498Y-54646820D01*
X95762188Y-54766518D01*
X95749928Y-54891000D01*
X94892000Y-54891000D01*
X94892000Y-50386178D01*
X95078632Y-50261475D01*
X95285475Y-50054632D01*
X95447990Y-49811411D01*
X95559932Y-49541158D01*
X95617000Y-49254260D01*
X95617000Y-48961740D01*
X95559932Y-48674842D01*
X95447990Y-48404589D01*
X95285475Y-48161368D01*
X95078632Y-47954525D01*
X94835411Y-47792010D01*
X94793542Y-47774667D01*
X94829975Y-47730273D01*
X94900547Y-47598244D01*
X94944004Y-47454983D01*
X94955001Y-47343330D01*
X94955001Y-47343321D01*
X94958677Y-47305998D01*
X94955001Y-47268675D01*
X94955001Y-36696753D01*
X95126842Y-36767932D01*
X95413740Y-36825000D01*
X95706260Y-36825000D01*
X95993158Y-36767932D01*
X96164999Y-36696753D01*
X96165000Y-52205664D01*
G37*
X96165000Y-52205664D02*
X96161323Y-52242997D01*
X96175997Y-52391982D01*
X96219453Y-52535243D01*
X96290025Y-52667273D01*
X96353020Y-52744032D01*
X96384999Y-52782998D01*
X96413997Y-52806796D01*
X97918475Y-54311275D01*
X97815000Y-54414750D01*
X97815000Y-55839000D01*
X97835000Y-55839000D01*
X97835000Y-56093000D01*
X97815000Y-56093000D01*
X97815000Y-56113000D01*
X97561000Y-56113000D01*
X97561000Y-56093000D01*
X95911750Y-56093000D01*
X95753000Y-56251750D01*
X95749928Y-57041000D01*
X95762188Y-57165482D01*
X95798498Y-57285180D01*
X95857463Y-57395494D01*
X95936815Y-57492185D01*
X96033506Y-57571537D01*
X96143820Y-57630502D01*
X96263518Y-57666812D01*
X96309303Y-57671321D01*
X96176945Y-57779945D01*
X95950759Y-58055553D01*
X95782688Y-58369992D01*
X95679190Y-58711178D01*
X95644243Y-59066000D01*
X95679190Y-59420822D01*
X95782688Y-59762008D01*
X95950759Y-60076447D01*
X96176945Y-60352055D01*
X96452553Y-60578241D01*
X96766992Y-60746312D01*
X97108178Y-60849810D01*
X97374089Y-60876000D01*
X98001911Y-60876000D01*
X98267822Y-60849810D01*
X98609008Y-60746312D01*
X98923447Y-60578241D01*
X99053011Y-60471910D01*
X99053011Y-65923796D01*
X98953364Y-65824149D01*
X98628250Y-65606915D01*
X98267003Y-65457282D01*
X97883505Y-65381000D01*
X97492495Y-65381000D01*
X97108997Y-65457282D01*
X96747750Y-65606915D01*
X96422636Y-65824149D01*
X96146149Y-66100636D01*
X95928915Y-66425750D01*
X95779282Y-66786997D01*
X95703000Y-67170495D01*
X95703000Y-67561505D01*
X95779282Y-67945003D01*
X95928915Y-68306250D01*
X96146149Y-68631364D01*
X96422636Y-68907851D01*
X96747750Y-69125085D01*
X97108997Y-69274718D01*
X97492495Y-69351000D01*
X97883505Y-69351000D01*
X98267003Y-69274718D01*
X98628250Y-69125085D01*
X98953364Y-68907851D01*
X99053011Y-68808204D01*
X99053012Y-72293331D01*
X98988000Y-72286928D01*
X97973750Y-72290000D01*
X97815000Y-72448750D01*
X97815000Y-73873000D01*
X97835000Y-73873000D01*
X97835000Y-74127000D01*
X97815000Y-74127000D01*
X97815000Y-74147000D01*
X97561000Y-74147000D01*
X97561000Y-74127000D01*
X95911750Y-74127000D01*
X95850776Y-74187974D01*
X94892000Y-73229199D01*
X94892000Y-72925000D01*
X95749928Y-72925000D01*
X95753000Y-73714250D01*
X95911750Y-73873000D01*
X97561000Y-73873000D01*
X97561000Y-72448750D01*
X97402250Y-72290000D01*
X96388000Y-72286928D01*
X96263518Y-72299188D01*
X96143820Y-72335498D01*
X96033506Y-72394463D01*
X95936815Y-72473815D01*
X95857463Y-72570506D01*
X95798498Y-72680820D01*
X95762188Y-72800518D01*
X95749928Y-72925000D01*
X94892000Y-72925000D01*
X94892000Y-54891000D01*
X95749928Y-54891000D01*
X95753000Y-55680250D01*
X95911750Y-55839000D01*
X97561000Y-55839000D01*
X97561000Y-54414750D01*
X97402250Y-54256000D01*
X96388000Y-54252928D01*
X96263518Y-54265188D01*
X96143820Y-54301498D01*
X96033506Y-54360463D01*
X95936815Y-54439815D01*
X95857463Y-54536506D01*
X95798498Y-54646820D01*
X95762188Y-54766518D01*
X95749928Y-54891000D01*
X94892000Y-54891000D01*
X94892000Y-50386178D01*
X95078632Y-50261475D01*
X95285475Y-50054632D01*
X95447990Y-49811411D01*
X95559932Y-49541158D01*
X95617000Y-49254260D01*
X95617000Y-48961740D01*
X95559932Y-48674842D01*
X95447990Y-48404589D01*
X95285475Y-48161368D01*
X95078632Y-47954525D01*
X94835411Y-47792010D01*
X94793542Y-47774667D01*
X94829975Y-47730273D01*
X94900547Y-47598244D01*
X94944004Y-47454983D01*
X94955001Y-47343330D01*
X94955001Y-47343321D01*
X94958677Y-47305998D01*
X94955001Y-47268675D01*
X94955001Y-36696753D01*
X95126842Y-36767932D01*
X95413740Y-36825000D01*
X95706260Y-36825000D01*
X95993158Y-36767932D01*
X96164999Y-36696753D01*
X96165000Y-52205664D01*
G36*
X75239203Y-54111008D02*
G01*
X75262997Y-54140001D01*
X75291990Y-54163795D01*
X75291994Y-54163799D01*
X75358679Y-54218525D01*
X75378722Y-54234974D01*
X75435345Y-54265240D01*
X75315820Y-54301498D01*
X75205506Y-54360463D01*
X75108815Y-54439815D01*
X75029463Y-54536506D01*
X74970498Y-54646820D01*
X74934188Y-54766518D01*
X74921928Y-54891000D01*
X74925000Y-55680250D01*
X75083750Y-55839000D01*
X76733000Y-55839000D01*
X76733000Y-55819000D01*
X76987000Y-55819000D01*
X76987000Y-55839000D01*
X78636250Y-55839000D01*
X78795000Y-55680250D01*
X78798072Y-54891000D01*
X78785812Y-54766518D01*
X78749502Y-54646820D01*
X78723645Y-54598447D01*
X83040000Y-58914802D01*
X83040001Y-62296288D01*
X82996063Y-62340226D01*
X82882795Y-62509744D01*
X82804774Y-62698102D01*
X82765000Y-62898061D01*
X82765000Y-63101939D01*
X82804774Y-63301898D01*
X82882795Y-63490256D01*
X82996063Y-63659774D01*
X83140226Y-63803937D01*
X83309744Y-63917205D01*
X83498102Y-63995226D01*
X83698061Y-64035000D01*
X83901939Y-64035000D01*
X84101898Y-63995226D01*
X84290256Y-63917205D01*
X84459774Y-63803937D01*
X84603937Y-63659774D01*
X84717205Y-63490256D01*
X84795226Y-63301898D01*
X84797813Y-63288892D01*
X84799988Y-63310973D01*
X84843444Y-63454234D01*
X84914016Y-63586264D01*
X84953992Y-63634974D01*
X85008990Y-63701989D01*
X85037988Y-63725787D01*
X86757125Y-65444924D01*
X86694997Y-65457282D01*
X86333750Y-65606915D01*
X86008636Y-65824149D01*
X85732149Y-66100636D01*
X85514915Y-66425750D01*
X85440253Y-66606000D01*
X83128468Y-66606000D01*
X77378334Y-60855866D01*
X77439822Y-60849810D01*
X77781008Y-60746312D01*
X78095447Y-60578241D01*
X78371055Y-60352055D01*
X78597241Y-60076447D01*
X78765312Y-59762008D01*
X78868810Y-59420822D01*
X78903757Y-59066000D01*
X78868810Y-58711178D01*
X78765312Y-58369992D01*
X78597241Y-58055553D01*
X78371055Y-57779945D01*
X78238697Y-57671321D01*
X78284482Y-57666812D01*
X78404180Y-57630502D01*
X78514494Y-57571537D01*
X78611185Y-57492185D01*
X78690537Y-57395494D01*
X78749502Y-57285180D01*
X78785812Y-57165482D01*
X78798072Y-57041000D01*
X78795000Y-56251750D01*
X78636250Y-56093000D01*
X76987000Y-56093000D01*
X76987000Y-56113000D01*
X76733000Y-56113000D01*
X76733000Y-56093000D01*
X75083750Y-56093000D01*
X74925000Y-56251750D01*
X74921928Y-57041000D01*
X74934188Y-57165482D01*
X74970498Y-57285180D01*
X75029463Y-57395494D01*
X75108815Y-57492185D01*
X75205506Y-57571537D01*
X75315820Y-57630502D01*
X75435518Y-57666812D01*
X75481303Y-57671321D01*
X75348945Y-57779945D01*
X75122759Y-58055553D01*
X74954688Y-58369992D01*
X74940205Y-58417737D01*
X70094999Y-53572532D01*
X70094999Y-50539544D01*
X70363740Y-50593000D01*
X70656260Y-50593000D01*
X70943158Y-50535932D01*
X71213411Y-50423990D01*
X71416492Y-50288295D01*
X75239203Y-54111008D01*
G37*
X75239203Y-54111008D02*
X75262997Y-54140001D01*
X75291990Y-54163795D01*
X75291994Y-54163799D01*
X75358679Y-54218525D01*
X75378722Y-54234974D01*
X75435345Y-54265240D01*
X75315820Y-54301498D01*
X75205506Y-54360463D01*
X75108815Y-54439815D01*
X75029463Y-54536506D01*
X74970498Y-54646820D01*
X74934188Y-54766518D01*
X74921928Y-54891000D01*
X74925000Y-55680250D01*
X75083750Y-55839000D01*
X76733000Y-55839000D01*
X76733000Y-55819000D01*
X76987000Y-55819000D01*
X76987000Y-55839000D01*
X78636250Y-55839000D01*
X78795000Y-55680250D01*
X78798072Y-54891000D01*
X78785812Y-54766518D01*
X78749502Y-54646820D01*
X78723645Y-54598447D01*
X83040000Y-58914802D01*
X83040001Y-62296288D01*
X82996063Y-62340226D01*
X82882795Y-62509744D01*
X82804774Y-62698102D01*
X82765000Y-62898061D01*
X82765000Y-63101939D01*
X82804774Y-63301898D01*
X82882795Y-63490256D01*
X82996063Y-63659774D01*
X83140226Y-63803937D01*
X83309744Y-63917205D01*
X83498102Y-63995226D01*
X83698061Y-64035000D01*
X83901939Y-64035000D01*
X84101898Y-63995226D01*
X84290256Y-63917205D01*
X84459774Y-63803937D01*
X84603937Y-63659774D01*
X84717205Y-63490256D01*
X84795226Y-63301898D01*
X84797813Y-63288892D01*
X84799988Y-63310973D01*
X84843444Y-63454234D01*
X84914016Y-63586264D01*
X84953992Y-63634974D01*
X85008990Y-63701989D01*
X85037988Y-63725787D01*
X86757125Y-65444924D01*
X86694997Y-65457282D01*
X86333750Y-65606915D01*
X86008636Y-65824149D01*
X85732149Y-66100636D01*
X85514915Y-66425750D01*
X85440253Y-66606000D01*
X83128468Y-66606000D01*
X77378334Y-60855866D01*
X77439822Y-60849810D01*
X77781008Y-60746312D01*
X78095447Y-60578241D01*
X78371055Y-60352055D01*
X78597241Y-60076447D01*
X78765312Y-59762008D01*
X78868810Y-59420822D01*
X78903757Y-59066000D01*
X78868810Y-58711178D01*
X78765312Y-58369992D01*
X78597241Y-58055553D01*
X78371055Y-57779945D01*
X78238697Y-57671321D01*
X78284482Y-57666812D01*
X78404180Y-57630502D01*
X78514494Y-57571537D01*
X78611185Y-57492185D01*
X78690537Y-57395494D01*
X78749502Y-57285180D01*
X78785812Y-57165482D01*
X78798072Y-57041000D01*
X78795000Y-56251750D01*
X78636250Y-56093000D01*
X76987000Y-56093000D01*
X76987000Y-56113000D01*
X76733000Y-56113000D01*
X76733000Y-56093000D01*
X75083750Y-56093000D01*
X74925000Y-56251750D01*
X74921928Y-57041000D01*
X74934188Y-57165482D01*
X74970498Y-57285180D01*
X75029463Y-57395494D01*
X75108815Y-57492185D01*
X75205506Y-57571537D01*
X75315820Y-57630502D01*
X75435518Y-57666812D01*
X75481303Y-57671321D01*
X75348945Y-57779945D01*
X75122759Y-58055553D01*
X74954688Y-58369992D01*
X74940205Y-58417737D01*
X70094999Y-53572532D01*
X70094999Y-50539544D01*
X70363740Y-50593000D01*
X70656260Y-50593000D01*
X70943158Y-50535932D01*
X71213411Y-50423990D01*
X71416492Y-50288295D01*
X75239203Y-54111008D01*
G36*
X85527000Y-32673000D02*
G01*
X85547000Y-32673000D01*
X85547000Y-32927000D01*
X85527000Y-32927000D01*
X85527000Y-35213000D01*
X85547000Y-35213000D01*
X85547000Y-35467000D01*
X85527000Y-35467000D01*
X85527000Y-36660155D01*
X85756890Y-36781476D01*
X85904099Y-36736825D01*
X86166920Y-36611641D01*
X86400269Y-36437588D01*
X86595178Y-36221355D01*
X86664805Y-36104466D01*
X86786525Y-36286632D01*
X86993368Y-36493475D01*
X87236589Y-36655990D01*
X87506842Y-36767932D01*
X87793740Y-36825000D01*
X88086260Y-36825000D01*
X88373158Y-36767932D01*
X88643411Y-36655990D01*
X88886632Y-36493475D01*
X89093475Y-36286632D01*
X89210000Y-36112240D01*
X89326525Y-36286632D01*
X89533368Y-36493475D01*
X89776589Y-36655990D01*
X90046842Y-36767932D01*
X90333740Y-36825000D01*
X90626260Y-36825000D01*
X90913158Y-36767932D01*
X91183411Y-36655990D01*
X91426632Y-36493475D01*
X91633475Y-36286632D01*
X91750000Y-36112240D01*
X91866525Y-36286632D01*
X92073368Y-36493475D01*
X92316589Y-36655990D01*
X92586842Y-36767932D01*
X92873740Y-36825000D01*
X93166260Y-36825000D01*
X93435002Y-36771544D01*
X93435001Y-46991195D01*
X92498492Y-47927705D01*
X92295411Y-47792010D01*
X92025158Y-47680068D01*
X91738260Y-47623000D01*
X91445740Y-47623000D01*
X91158842Y-47680068D01*
X90888589Y-47792010D01*
X90645368Y-47954525D01*
X90438525Y-48161368D01*
X90322000Y-48335760D01*
X90205475Y-48161368D01*
X89998632Y-47954525D01*
X89755411Y-47792010D01*
X89485158Y-47680068D01*
X89198260Y-47623000D01*
X88905740Y-47623000D01*
X88618842Y-47680068D01*
X88348589Y-47792010D01*
X88105368Y-47954525D01*
X87973513Y-48086380D01*
X87951502Y-48013820D01*
X87892537Y-47903506D01*
X87813185Y-47806815D01*
X87716494Y-47727463D01*
X87606180Y-47668498D01*
X87486482Y-47632188D01*
X87362000Y-47619928D01*
X85662000Y-47619928D01*
X85537518Y-47632188D01*
X85417820Y-47668498D01*
X85307506Y-47727463D01*
X85210815Y-47806815D01*
X85131463Y-47903506D01*
X85072498Y-48013820D01*
X85036188Y-48133518D01*
X85023928Y-48258000D01*
X85023928Y-49518749D01*
X85008989Y-49531009D01*
X84970040Y-49578469D01*
X84914016Y-49646734D01*
X84880336Y-49709744D01*
X84843444Y-49778764D01*
X84799987Y-49922025D01*
X84788990Y-50033678D01*
X84788990Y-50033688D01*
X84785314Y-50071010D01*
X84788990Y-50108332D01*
X84788991Y-62683049D01*
X84717205Y-62509744D01*
X84603937Y-62340226D01*
X84560000Y-62296289D01*
X84560000Y-58637323D01*
X84563676Y-58600000D01*
X84560000Y-58562677D01*
X84560000Y-58562667D01*
X84549003Y-58451014D01*
X84505546Y-58307753D01*
X84434974Y-58175724D01*
X84340001Y-58059999D01*
X84311004Y-58036202D01*
X79363804Y-53089003D01*
X79340001Y-53059999D01*
X79224276Y-52965026D01*
X79092247Y-52894454D01*
X78948986Y-52850997D01*
X78837333Y-52840000D01*
X78837322Y-52840000D01*
X78800000Y-52836324D01*
X78762678Y-52840000D01*
X76117801Y-52840000D01*
X73716909Y-50439109D01*
X73753411Y-50423990D01*
X73996632Y-50261475D01*
X74203475Y-50054632D01*
X74320000Y-49880240D01*
X74436525Y-50054632D01*
X74643368Y-50261475D01*
X74886589Y-50423990D01*
X75156842Y-50535932D01*
X75443740Y-50593000D01*
X75736260Y-50593000D01*
X76023158Y-50535932D01*
X76293411Y-50423990D01*
X76536632Y-50261475D01*
X76743475Y-50054632D01*
X76860000Y-49880240D01*
X76976525Y-50054632D01*
X77183368Y-50261475D01*
X77426589Y-50423990D01*
X77696842Y-50535932D01*
X77983740Y-50593000D01*
X78276260Y-50593000D01*
X78563158Y-50535932D01*
X78833411Y-50423990D01*
X79076632Y-50261475D01*
X79283475Y-50054632D01*
X79400000Y-49880240D01*
X79516525Y-50054632D01*
X79723368Y-50261475D01*
X79966589Y-50423990D01*
X80236842Y-50535932D01*
X80523740Y-50593000D01*
X80816260Y-50593000D01*
X81103158Y-50535932D01*
X81373411Y-50423990D01*
X81616632Y-50261475D01*
X81823475Y-50054632D01*
X81985990Y-49811411D01*
X82097932Y-49541158D01*
X82155000Y-49254260D01*
X82155000Y-48961740D01*
X82111210Y-48741592D01*
X82196002Y-48656800D01*
X82225000Y-48633002D01*
X82319973Y-48517277D01*
X82390545Y-48385248D01*
X82434002Y-48241987D01*
X82444999Y-48130334D01*
X82444999Y-48130325D01*
X82448675Y-48093002D01*
X82444999Y-48055679D01*
X82444999Y-36771544D01*
X82713740Y-36825000D01*
X83006260Y-36825000D01*
X83293158Y-36767932D01*
X83563411Y-36655990D01*
X83806632Y-36493475D01*
X84013475Y-36286632D01*
X84135195Y-36104466D01*
X84204822Y-36221355D01*
X84399731Y-36437588D01*
X84633080Y-36611641D01*
X84895901Y-36736825D01*
X85043110Y-36781476D01*
X85273000Y-36660155D01*
X85273000Y-35467000D01*
X85253000Y-35467000D01*
X85253000Y-35213000D01*
X85273000Y-35213000D01*
X85273000Y-32927000D01*
X85253000Y-32927000D01*
X85253000Y-32673000D01*
X85273000Y-32673000D01*
X85273000Y-32653000D01*
X85527000Y-32653000D01*
X85527000Y-32673000D01*
G37*
X85527000Y-32673000D02*
X85547000Y-32673000D01*
X85547000Y-32927000D01*
X85527000Y-32927000D01*
X85527000Y-35213000D01*
X85547000Y-35213000D01*
X85547000Y-35467000D01*
X85527000Y-35467000D01*
X85527000Y-36660155D01*
X85756890Y-36781476D01*
X85904099Y-36736825D01*
X86166920Y-36611641D01*
X86400269Y-36437588D01*
X86595178Y-36221355D01*
X86664805Y-36104466D01*
X86786525Y-36286632D01*
X86993368Y-36493475D01*
X87236589Y-36655990D01*
X87506842Y-36767932D01*
X87793740Y-36825000D01*
X88086260Y-36825000D01*
X88373158Y-36767932D01*
X88643411Y-36655990D01*
X88886632Y-36493475D01*
X89093475Y-36286632D01*
X89210000Y-36112240D01*
X89326525Y-36286632D01*
X89533368Y-36493475D01*
X89776589Y-36655990D01*
X90046842Y-36767932D01*
X90333740Y-36825000D01*
X90626260Y-36825000D01*
X90913158Y-36767932D01*
X91183411Y-36655990D01*
X91426632Y-36493475D01*
X91633475Y-36286632D01*
X91750000Y-36112240D01*
X91866525Y-36286632D01*
X92073368Y-36493475D01*
X92316589Y-36655990D01*
X92586842Y-36767932D01*
X92873740Y-36825000D01*
X93166260Y-36825000D01*
X93435002Y-36771544D01*
X93435001Y-46991195D01*
X92498492Y-47927705D01*
X92295411Y-47792010D01*
X92025158Y-47680068D01*
X91738260Y-47623000D01*
X91445740Y-47623000D01*
X91158842Y-47680068D01*
X90888589Y-47792010D01*
X90645368Y-47954525D01*
X90438525Y-48161368D01*
X90322000Y-48335760D01*
X90205475Y-48161368D01*
X89998632Y-47954525D01*
X89755411Y-47792010D01*
X89485158Y-47680068D01*
X89198260Y-47623000D01*
X88905740Y-47623000D01*
X88618842Y-47680068D01*
X88348589Y-47792010D01*
X88105368Y-47954525D01*
X87973513Y-48086380D01*
X87951502Y-48013820D01*
X87892537Y-47903506D01*
X87813185Y-47806815D01*
X87716494Y-47727463D01*
X87606180Y-47668498D01*
X87486482Y-47632188D01*
X87362000Y-47619928D01*
X85662000Y-47619928D01*
X85537518Y-47632188D01*
X85417820Y-47668498D01*
X85307506Y-47727463D01*
X85210815Y-47806815D01*
X85131463Y-47903506D01*
X85072498Y-48013820D01*
X85036188Y-48133518D01*
X85023928Y-48258000D01*
X85023928Y-49518749D01*
X85008989Y-49531009D01*
X84970040Y-49578469D01*
X84914016Y-49646734D01*
X84880336Y-49709744D01*
X84843444Y-49778764D01*
X84799987Y-49922025D01*
X84788990Y-50033678D01*
X84788990Y-50033688D01*
X84785314Y-50071010D01*
X84788990Y-50108332D01*
X84788991Y-62683049D01*
X84717205Y-62509744D01*
X84603937Y-62340226D01*
X84560000Y-62296289D01*
X84560000Y-58637323D01*
X84563676Y-58600000D01*
X84560000Y-58562677D01*
X84560000Y-58562667D01*
X84549003Y-58451014D01*
X84505546Y-58307753D01*
X84434974Y-58175724D01*
X84340001Y-58059999D01*
X84311004Y-58036202D01*
X79363804Y-53089003D01*
X79340001Y-53059999D01*
X79224276Y-52965026D01*
X79092247Y-52894454D01*
X78948986Y-52850997D01*
X78837333Y-52840000D01*
X78837322Y-52840000D01*
X78800000Y-52836324D01*
X78762678Y-52840000D01*
X76117801Y-52840000D01*
X73716909Y-50439109D01*
X73753411Y-50423990D01*
X73996632Y-50261475D01*
X74203475Y-50054632D01*
X74320000Y-49880240D01*
X74436525Y-50054632D01*
X74643368Y-50261475D01*
X74886589Y-50423990D01*
X75156842Y-50535932D01*
X75443740Y-50593000D01*
X75736260Y-50593000D01*
X76023158Y-50535932D01*
X76293411Y-50423990D01*
X76536632Y-50261475D01*
X76743475Y-50054632D01*
X76860000Y-49880240D01*
X76976525Y-50054632D01*
X77183368Y-50261475D01*
X77426589Y-50423990D01*
X77696842Y-50535932D01*
X77983740Y-50593000D01*
X78276260Y-50593000D01*
X78563158Y-50535932D01*
X78833411Y-50423990D01*
X79076632Y-50261475D01*
X79283475Y-50054632D01*
X79400000Y-49880240D01*
X79516525Y-50054632D01*
X79723368Y-50261475D01*
X79966589Y-50423990D01*
X80236842Y-50535932D01*
X80523740Y-50593000D01*
X80816260Y-50593000D01*
X81103158Y-50535932D01*
X81373411Y-50423990D01*
X81616632Y-50261475D01*
X81823475Y-50054632D01*
X81985990Y-49811411D01*
X82097932Y-49541158D01*
X82155000Y-49254260D01*
X82155000Y-48961740D01*
X82111210Y-48741592D01*
X82196002Y-48656800D01*
X82225000Y-48633002D01*
X82319973Y-48517277D01*
X82390545Y-48385248D01*
X82434002Y-48241987D01*
X82444999Y-48130334D01*
X82444999Y-48130325D01*
X82448675Y-48093002D01*
X82444999Y-48055679D01*
X82444999Y-36771544D01*
X82713740Y-36825000D01*
X83006260Y-36825000D01*
X83293158Y-36767932D01*
X83563411Y-36655990D01*
X83806632Y-36493475D01*
X84013475Y-36286632D01*
X84135195Y-36104466D01*
X84204822Y-36221355D01*
X84399731Y-36437588D01*
X84633080Y-36611641D01*
X84895901Y-36736825D01*
X85043110Y-36781476D01*
X85273000Y-36660155D01*
X85273000Y-35467000D01*
X85253000Y-35467000D01*
X85253000Y-35213000D01*
X85273000Y-35213000D01*
X85273000Y-32927000D01*
X85253000Y-32927000D01*
X85253000Y-32673000D01*
X85273000Y-32673000D01*
X85273000Y-32653000D01*
X85527000Y-32653000D01*
X85527000Y-32673000D01*
G36*
X64483368Y-50261475D02*
G01*
X64726589Y-50423990D01*
X64996842Y-50535932D01*
X65283740Y-50593000D01*
X65576260Y-50593000D01*
X65863158Y-50535932D01*
X66034999Y-50464753D01*
X66035000Y-53317665D01*
X66031323Y-53354997D01*
X66035000Y-53392330D01*
X66045997Y-53503983D01*
X66053530Y-53528817D01*
X66089453Y-53647243D01*
X66160025Y-53779273D01*
X66217762Y-53849625D01*
X66254999Y-53894998D01*
X66283997Y-53918796D01*
X66676475Y-54311275D01*
X66573000Y-54414750D01*
X66573000Y-55839000D01*
X66593000Y-55839000D01*
X66593000Y-56093000D01*
X66573000Y-56093000D01*
X66573000Y-56113000D01*
X66319000Y-56113000D01*
X66319000Y-56093000D01*
X64669750Y-56093000D01*
X64608776Y-56153974D01*
X63650000Y-55195199D01*
X63650000Y-54891000D01*
X64507928Y-54891000D01*
X64511000Y-55680250D01*
X64669750Y-55839000D01*
X66319000Y-55839000D01*
X66319000Y-54414750D01*
X66160250Y-54256000D01*
X65146000Y-54252928D01*
X65021518Y-54265188D01*
X64901820Y-54301498D01*
X64791506Y-54360463D01*
X64694815Y-54439815D01*
X64615463Y-54536506D01*
X64556498Y-54646820D01*
X64520188Y-54766518D01*
X64507928Y-54891000D01*
X63650000Y-54891000D01*
X63650000Y-50596072D01*
X63740000Y-50596072D01*
X63864482Y-50583812D01*
X63984180Y-50547502D01*
X64094494Y-50488537D01*
X64191185Y-50409185D01*
X64270537Y-50312494D01*
X64329502Y-50202180D01*
X64351513Y-50129620D01*
X64483368Y-50261475D01*
G37*
X64483368Y-50261475D02*
X64726589Y-50423990D01*
X64996842Y-50535932D01*
X65283740Y-50593000D01*
X65576260Y-50593000D01*
X65863158Y-50535932D01*
X66034999Y-50464753D01*
X66035000Y-53317665D01*
X66031323Y-53354997D01*
X66035000Y-53392330D01*
X66045997Y-53503983D01*
X66053530Y-53528817D01*
X66089453Y-53647243D01*
X66160025Y-53779273D01*
X66217762Y-53849625D01*
X66254999Y-53894998D01*
X66283997Y-53918796D01*
X66676475Y-54311275D01*
X66573000Y-54414750D01*
X66573000Y-55839000D01*
X66593000Y-55839000D01*
X66593000Y-56093000D01*
X66573000Y-56093000D01*
X66573000Y-56113000D01*
X66319000Y-56113000D01*
X66319000Y-56093000D01*
X64669750Y-56093000D01*
X64608776Y-56153974D01*
X63650000Y-55195199D01*
X63650000Y-54891000D01*
X64507928Y-54891000D01*
X64511000Y-55680250D01*
X64669750Y-55839000D01*
X66319000Y-55839000D01*
X66319000Y-54414750D01*
X66160250Y-54256000D01*
X65146000Y-54252928D01*
X65021518Y-54265188D01*
X64901820Y-54301498D01*
X64791506Y-54360463D01*
X64694815Y-54439815D01*
X64615463Y-54536506D01*
X64556498Y-54646820D01*
X64520188Y-54766518D01*
X64507928Y-54891000D01*
X63650000Y-54891000D01*
X63650000Y-50596072D01*
X63740000Y-50596072D01*
X63864482Y-50583812D01*
X63984180Y-50547502D01*
X64094494Y-50488537D01*
X64191185Y-50409185D01*
X64270537Y-50312494D01*
X64329502Y-50202180D01*
X64351513Y-50129620D01*
X64483368Y-50261475D01*
G36*
X88105368Y-50261475D02*
G01*
X88348589Y-50423990D01*
X88618842Y-50535932D01*
X88905740Y-50593000D01*
X89141999Y-50593000D01*
X89141999Y-54606592D01*
X89104537Y-54536506D01*
X89025185Y-54439815D01*
X88928494Y-54360463D01*
X88818180Y-54301498D01*
X88698482Y-54265188D01*
X88574000Y-54252928D01*
X87559750Y-54256000D01*
X87401000Y-54414750D01*
X87401000Y-55839000D01*
X87421000Y-55839000D01*
X87421000Y-56093000D01*
X87401000Y-56093000D01*
X87401000Y-56113000D01*
X87147000Y-56113000D01*
X87147000Y-56093000D01*
X87127000Y-56093000D01*
X87127000Y-55839000D01*
X87147000Y-55839000D01*
X87147000Y-54414750D01*
X86988250Y-54256000D01*
X86308990Y-54253943D01*
X86308990Y-50596072D01*
X87362000Y-50596072D01*
X87486482Y-50583812D01*
X87606180Y-50547502D01*
X87716494Y-50488537D01*
X87813185Y-50409185D01*
X87892537Y-50312494D01*
X87951502Y-50202180D01*
X87973513Y-50129620D01*
X88105368Y-50261475D01*
G37*
X88105368Y-50261475D02*
X88348589Y-50423990D01*
X88618842Y-50535932D01*
X88905740Y-50593000D01*
X89141999Y-50593000D01*
X89141999Y-54606592D01*
X89104537Y-54536506D01*
X89025185Y-54439815D01*
X88928494Y-54360463D01*
X88818180Y-54301498D01*
X88698482Y-54265188D01*
X88574000Y-54252928D01*
X87559750Y-54256000D01*
X87401000Y-54414750D01*
X87401000Y-55839000D01*
X87421000Y-55839000D01*
X87421000Y-56093000D01*
X87401000Y-56093000D01*
X87401000Y-56113000D01*
X87147000Y-56113000D01*
X87147000Y-56093000D01*
X87127000Y-56093000D01*
X87127000Y-55839000D01*
X87147000Y-55839000D01*
X87147000Y-54414750D01*
X86988250Y-54256000D01*
X86308990Y-54253943D01*
X86308990Y-50596072D01*
X87362000Y-50596072D01*
X87486482Y-50583812D01*
X87606180Y-50547502D01*
X87716494Y-50488537D01*
X87813185Y-50409185D01*
X87892537Y-50312494D01*
X87951502Y-50202180D01*
X87973513Y-50129620D01*
X88105368Y-50261475D01*
G36*
X134718000Y-39057800D02*
G01*
X134718001Y-47829821D01*
X134531368Y-47954525D01*
X134324525Y-48161368D01*
X134208000Y-48335760D01*
X134091475Y-48161368D01*
X133884632Y-47954525D01*
X133641411Y-47792010D01*
X133371158Y-47680068D01*
X133084260Y-47623000D01*
X132791740Y-47623000D01*
X132504842Y-47680068D01*
X132234589Y-47792010D01*
X131991368Y-47954525D01*
X131784525Y-48161368D01*
X131668000Y-48335760D01*
X131551475Y-48161368D01*
X131344632Y-47954525D01*
X131101411Y-47792010D01*
X130831158Y-47680068D01*
X130544260Y-47623000D01*
X130251740Y-47623000D01*
X129964842Y-47680068D01*
X129694589Y-47792010D01*
X129451368Y-47954525D01*
X129244525Y-48161368D01*
X129128000Y-48335760D01*
X129011475Y-48161368D01*
X128804632Y-47954525D01*
X128561411Y-47792010D01*
X128291158Y-47680068D01*
X128004260Y-47623000D01*
X127711740Y-47623000D01*
X127424842Y-47680068D01*
X127154589Y-47792010D01*
X126911368Y-47954525D01*
X126704525Y-48161368D01*
X126588000Y-48335760D01*
X126471475Y-48161368D01*
X126264632Y-47954525D01*
X126021411Y-47792010D01*
X125751158Y-47680068D01*
X125464260Y-47623000D01*
X125171740Y-47623000D01*
X124884842Y-47680068D01*
X124614589Y-47792010D01*
X124371368Y-47954525D01*
X124164525Y-48161368D01*
X124048000Y-48335760D01*
X123931475Y-48161368D01*
X123724632Y-47954525D01*
X123481411Y-47792010D01*
X123211158Y-47680068D01*
X122924260Y-47623000D01*
X122631740Y-47623000D01*
X122344842Y-47680068D01*
X122074589Y-47792010D01*
X121831368Y-47954525D01*
X121699513Y-48086380D01*
X121677502Y-48013820D01*
X121618537Y-47903506D01*
X121539185Y-47806815D01*
X121442494Y-47727463D01*
X121332180Y-47668498D01*
X121212482Y-47632188D01*
X121088000Y-47619928D01*
X119388000Y-47619928D01*
X119263518Y-47632188D01*
X119143820Y-47668498D01*
X119033506Y-47727463D01*
X118936815Y-47806815D01*
X118857463Y-47903506D01*
X118798498Y-48013820D01*
X118762188Y-48133518D01*
X118749928Y-48258000D01*
X118749928Y-49958000D01*
X118762188Y-50082482D01*
X118798498Y-50202180D01*
X118857463Y-50312494D01*
X118936815Y-50409185D01*
X119033506Y-50488537D01*
X119143820Y-50547502D01*
X119263518Y-50583812D01*
X119388000Y-50596072D01*
X121088000Y-50596072D01*
X121212482Y-50583812D01*
X121332180Y-50547502D01*
X121442494Y-50488537D01*
X121539185Y-50409185D01*
X121618537Y-50312494D01*
X121677502Y-50202180D01*
X121699513Y-50129620D01*
X121831368Y-50261475D01*
X122074589Y-50423990D01*
X122344842Y-50535932D01*
X122631740Y-50593000D01*
X122924260Y-50593000D01*
X123211158Y-50535932D01*
X123481411Y-50423990D01*
X123724632Y-50261475D01*
X123931475Y-50054632D01*
X124048000Y-49880240D01*
X124164525Y-50054632D01*
X124371368Y-50261475D01*
X124614589Y-50423990D01*
X124884842Y-50535932D01*
X125171740Y-50593000D01*
X125464260Y-50593000D01*
X125751158Y-50535932D01*
X126021411Y-50423990D01*
X126264632Y-50261475D01*
X126471475Y-50054632D01*
X126588000Y-49880240D01*
X126704525Y-50054632D01*
X126911368Y-50261475D01*
X127154589Y-50423990D01*
X127424842Y-50535932D01*
X127711740Y-50593000D01*
X127838198Y-50593000D01*
X125239635Y-53191564D01*
X106052147Y-53191564D01*
X106008210Y-53147627D01*
X105838692Y-53034359D01*
X105650334Y-52956338D01*
X105450375Y-52916564D01*
X105246497Y-52916564D01*
X105046538Y-52956338D01*
X104858180Y-53034359D01*
X104810010Y-53066545D01*
X104810010Y-44587332D01*
X104813686Y-44550009D01*
X104810010Y-44512686D01*
X104810010Y-44512677D01*
X104799013Y-44401024D01*
X104755556Y-44257763D01*
X104684984Y-44125734D01*
X104659947Y-44095226D01*
X104613809Y-44039006D01*
X104613805Y-44039002D01*
X104590011Y-44010009D01*
X104561018Y-43986215D01*
X99235000Y-38660199D01*
X99235000Y-38598061D01*
X99195226Y-38398102D01*
X99117205Y-38209744D01*
X99003937Y-38040226D01*
X98859774Y-37896063D01*
X98690256Y-37782795D01*
X98501898Y-37704774D01*
X98301939Y-37665000D01*
X98098061Y-37665000D01*
X97898102Y-37704774D01*
X97709744Y-37782795D01*
X97684999Y-37799329D01*
X97684999Y-36771544D01*
X97953740Y-36825000D01*
X98246260Y-36825000D01*
X98533158Y-36767932D01*
X98803411Y-36655990D01*
X99046632Y-36493475D01*
X99253475Y-36286632D01*
X99370000Y-36112240D01*
X99486525Y-36286632D01*
X99693368Y-36493475D01*
X99936589Y-36655990D01*
X100206842Y-36767932D01*
X100493740Y-36825000D01*
X100786260Y-36825000D01*
X101073158Y-36767932D01*
X101343411Y-36655990D01*
X101586632Y-36493475D01*
X101793475Y-36286632D01*
X101910000Y-36112240D01*
X102026525Y-36286632D01*
X102233368Y-36493475D01*
X102476589Y-36655990D01*
X102746842Y-36767932D01*
X103033740Y-36825000D01*
X103326260Y-36825000D01*
X103613158Y-36767932D01*
X103883411Y-36655990D01*
X104126632Y-36493475D01*
X104333475Y-36286632D01*
X104450000Y-36112240D01*
X104566525Y-36286632D01*
X104773368Y-36493475D01*
X105016589Y-36655990D01*
X105286842Y-36767932D01*
X105573740Y-36825000D01*
X105866260Y-36825000D01*
X106153158Y-36767932D01*
X106423411Y-36655990D01*
X106666632Y-36493475D01*
X106873475Y-36286632D01*
X106995195Y-36104466D01*
X107064822Y-36221355D01*
X107259731Y-36437588D01*
X107493080Y-36611641D01*
X107755901Y-36736825D01*
X107903110Y-36781476D01*
X108133000Y-36660155D01*
X108133000Y-35467000D01*
X108113000Y-35467000D01*
X108113000Y-35213000D01*
X108133000Y-35213000D01*
X108133000Y-35193000D01*
X108387000Y-35193000D01*
X108387000Y-35213000D01*
X108407000Y-35213000D01*
X108407000Y-35467000D01*
X108387000Y-35467000D01*
X108387000Y-36660155D01*
X108616890Y-36781476D01*
X108764099Y-36736825D01*
X109026920Y-36611641D01*
X109260269Y-36437588D01*
X109455178Y-36221355D01*
X109524805Y-36104466D01*
X109646525Y-36286632D01*
X109853368Y-36493475D01*
X110096589Y-36655990D01*
X110366842Y-36767932D01*
X110653740Y-36825000D01*
X110946260Y-36825000D01*
X111233158Y-36767932D01*
X111503411Y-36655990D01*
X111746632Y-36493475D01*
X111953475Y-36286632D01*
X111994656Y-36225000D01*
X118970062Y-36225000D01*
X118988525Y-36252632D01*
X119195368Y-36459475D01*
X119438589Y-36621990D01*
X119708842Y-36733932D01*
X119995740Y-36791000D01*
X120288260Y-36791000D01*
X120575158Y-36733932D01*
X120845411Y-36621990D01*
X121088632Y-36459475D01*
X121295475Y-36252632D01*
X121336656Y-36191000D01*
X121487344Y-36191000D01*
X121528525Y-36252632D01*
X121735368Y-36459475D01*
X121978589Y-36621990D01*
X122248842Y-36733932D01*
X122535740Y-36791000D01*
X122828260Y-36791000D01*
X123115158Y-36733932D01*
X123385411Y-36621990D01*
X123628632Y-36459475D01*
X123835475Y-36252632D01*
X123876656Y-36191000D01*
X124027344Y-36191000D01*
X124068525Y-36252632D01*
X124275368Y-36459475D01*
X124518589Y-36621990D01*
X124788842Y-36733932D01*
X125075740Y-36791000D01*
X125368260Y-36791000D01*
X125655158Y-36733932D01*
X125925411Y-36621990D01*
X126168632Y-36459475D01*
X126375475Y-36252632D01*
X126416656Y-36191000D01*
X126567344Y-36191000D01*
X126608525Y-36252632D01*
X126815368Y-36459475D01*
X127058589Y-36621990D01*
X127328842Y-36733932D01*
X127615740Y-36791000D01*
X127908260Y-36791000D01*
X128195158Y-36733932D01*
X128465411Y-36621990D01*
X128708632Y-36459475D01*
X128915475Y-36252632D01*
X129077990Y-36009411D01*
X129189932Y-35739158D01*
X129247000Y-35452260D01*
X129247000Y-35159740D01*
X129189932Y-34872842D01*
X129077990Y-34602589D01*
X128915475Y-34359368D01*
X128708632Y-34152525D01*
X128532594Y-34034900D01*
X128762269Y-33863588D01*
X128957178Y-33647355D01*
X129087975Y-33427775D01*
X134718000Y-39057800D01*
G37*
X134718000Y-39057800D02*
X134718001Y-47829821D01*
X134531368Y-47954525D01*
X134324525Y-48161368D01*
X134208000Y-48335760D01*
X134091475Y-48161368D01*
X133884632Y-47954525D01*
X133641411Y-47792010D01*
X133371158Y-47680068D01*
X133084260Y-47623000D01*
X132791740Y-47623000D01*
X132504842Y-47680068D01*
X132234589Y-47792010D01*
X131991368Y-47954525D01*
X131784525Y-48161368D01*
X131668000Y-48335760D01*
X131551475Y-48161368D01*
X131344632Y-47954525D01*
X131101411Y-47792010D01*
X130831158Y-47680068D01*
X130544260Y-47623000D01*
X130251740Y-47623000D01*
X129964842Y-47680068D01*
X129694589Y-47792010D01*
X129451368Y-47954525D01*
X129244525Y-48161368D01*
X129128000Y-48335760D01*
X129011475Y-48161368D01*
X128804632Y-47954525D01*
X128561411Y-47792010D01*
X128291158Y-47680068D01*
X128004260Y-47623000D01*
X127711740Y-47623000D01*
X127424842Y-47680068D01*
X127154589Y-47792010D01*
X126911368Y-47954525D01*
X126704525Y-48161368D01*
X126588000Y-48335760D01*
X126471475Y-48161368D01*
X126264632Y-47954525D01*
X126021411Y-47792010D01*
X125751158Y-47680068D01*
X125464260Y-47623000D01*
X125171740Y-47623000D01*
X124884842Y-47680068D01*
X124614589Y-47792010D01*
X124371368Y-47954525D01*
X124164525Y-48161368D01*
X124048000Y-48335760D01*
X123931475Y-48161368D01*
X123724632Y-47954525D01*
X123481411Y-47792010D01*
X123211158Y-47680068D01*
X122924260Y-47623000D01*
X122631740Y-47623000D01*
X122344842Y-47680068D01*
X122074589Y-47792010D01*
X121831368Y-47954525D01*
X121699513Y-48086380D01*
X121677502Y-48013820D01*
X121618537Y-47903506D01*
X121539185Y-47806815D01*
X121442494Y-47727463D01*
X121332180Y-47668498D01*
X121212482Y-47632188D01*
X121088000Y-47619928D01*
X119388000Y-47619928D01*
X119263518Y-47632188D01*
X119143820Y-47668498D01*
X119033506Y-47727463D01*
X118936815Y-47806815D01*
X118857463Y-47903506D01*
X118798498Y-48013820D01*
X118762188Y-48133518D01*
X118749928Y-48258000D01*
X118749928Y-49958000D01*
X118762188Y-50082482D01*
X118798498Y-50202180D01*
X118857463Y-50312494D01*
X118936815Y-50409185D01*
X119033506Y-50488537D01*
X119143820Y-50547502D01*
X119263518Y-50583812D01*
X119388000Y-50596072D01*
X121088000Y-50596072D01*
X121212482Y-50583812D01*
X121332180Y-50547502D01*
X121442494Y-50488537D01*
X121539185Y-50409185D01*
X121618537Y-50312494D01*
X121677502Y-50202180D01*
X121699513Y-50129620D01*
X121831368Y-50261475D01*
X122074589Y-50423990D01*
X122344842Y-50535932D01*
X122631740Y-50593000D01*
X122924260Y-50593000D01*
X123211158Y-50535932D01*
X123481411Y-50423990D01*
X123724632Y-50261475D01*
X123931475Y-50054632D01*
X124048000Y-49880240D01*
X124164525Y-50054632D01*
X124371368Y-50261475D01*
X124614589Y-50423990D01*
X124884842Y-50535932D01*
X125171740Y-50593000D01*
X125464260Y-50593000D01*
X125751158Y-50535932D01*
X126021411Y-50423990D01*
X126264632Y-50261475D01*
X126471475Y-50054632D01*
X126588000Y-49880240D01*
X126704525Y-50054632D01*
X126911368Y-50261475D01*
X127154589Y-50423990D01*
X127424842Y-50535932D01*
X127711740Y-50593000D01*
X127838198Y-50593000D01*
X125239635Y-53191564D01*
X106052147Y-53191564D01*
X106008210Y-53147627D01*
X105838692Y-53034359D01*
X105650334Y-52956338D01*
X105450375Y-52916564D01*
X105246497Y-52916564D01*
X105046538Y-52956338D01*
X104858180Y-53034359D01*
X104810010Y-53066545D01*
X104810010Y-44587332D01*
X104813686Y-44550009D01*
X104810010Y-44512686D01*
X104810010Y-44512677D01*
X104799013Y-44401024D01*
X104755556Y-44257763D01*
X104684984Y-44125734D01*
X104659947Y-44095226D01*
X104613809Y-44039006D01*
X104613805Y-44039002D01*
X104590011Y-44010009D01*
X104561018Y-43986215D01*
X99235000Y-38660199D01*
X99235000Y-38598061D01*
X99195226Y-38398102D01*
X99117205Y-38209744D01*
X99003937Y-38040226D01*
X98859774Y-37896063D01*
X98690256Y-37782795D01*
X98501898Y-37704774D01*
X98301939Y-37665000D01*
X98098061Y-37665000D01*
X97898102Y-37704774D01*
X97709744Y-37782795D01*
X97684999Y-37799329D01*
X97684999Y-36771544D01*
X97953740Y-36825000D01*
X98246260Y-36825000D01*
X98533158Y-36767932D01*
X98803411Y-36655990D01*
X99046632Y-36493475D01*
X99253475Y-36286632D01*
X99370000Y-36112240D01*
X99486525Y-36286632D01*
X99693368Y-36493475D01*
X99936589Y-36655990D01*
X100206842Y-36767932D01*
X100493740Y-36825000D01*
X100786260Y-36825000D01*
X101073158Y-36767932D01*
X101343411Y-36655990D01*
X101586632Y-36493475D01*
X101793475Y-36286632D01*
X101910000Y-36112240D01*
X102026525Y-36286632D01*
X102233368Y-36493475D01*
X102476589Y-36655990D01*
X102746842Y-36767932D01*
X103033740Y-36825000D01*
X103326260Y-36825000D01*
X103613158Y-36767932D01*
X103883411Y-36655990D01*
X104126632Y-36493475D01*
X104333475Y-36286632D01*
X104450000Y-36112240D01*
X104566525Y-36286632D01*
X104773368Y-36493475D01*
X105016589Y-36655990D01*
X105286842Y-36767932D01*
X105573740Y-36825000D01*
X105866260Y-36825000D01*
X106153158Y-36767932D01*
X106423411Y-36655990D01*
X106666632Y-36493475D01*
X106873475Y-36286632D01*
X106995195Y-36104466D01*
X107064822Y-36221355D01*
X107259731Y-36437588D01*
X107493080Y-36611641D01*
X107755901Y-36736825D01*
X107903110Y-36781476D01*
X108133000Y-36660155D01*
X108133000Y-35467000D01*
X108113000Y-35467000D01*
X108113000Y-35213000D01*
X108133000Y-35213000D01*
X108133000Y-35193000D01*
X108387000Y-35193000D01*
X108387000Y-35213000D01*
X108407000Y-35213000D01*
X108407000Y-35467000D01*
X108387000Y-35467000D01*
X108387000Y-36660155D01*
X108616890Y-36781476D01*
X108764099Y-36736825D01*
X109026920Y-36611641D01*
X109260269Y-36437588D01*
X109455178Y-36221355D01*
X109524805Y-36104466D01*
X109646525Y-36286632D01*
X109853368Y-36493475D01*
X110096589Y-36655990D01*
X110366842Y-36767932D01*
X110653740Y-36825000D01*
X110946260Y-36825000D01*
X111233158Y-36767932D01*
X111503411Y-36655990D01*
X111746632Y-36493475D01*
X111953475Y-36286632D01*
X111994656Y-36225000D01*
X118970062Y-36225000D01*
X118988525Y-36252632D01*
X119195368Y-36459475D01*
X119438589Y-36621990D01*
X119708842Y-36733932D01*
X119995740Y-36791000D01*
X120288260Y-36791000D01*
X120575158Y-36733932D01*
X120845411Y-36621990D01*
X121088632Y-36459475D01*
X121295475Y-36252632D01*
X121336656Y-36191000D01*
X121487344Y-36191000D01*
X121528525Y-36252632D01*
X121735368Y-36459475D01*
X121978589Y-36621990D01*
X122248842Y-36733932D01*
X122535740Y-36791000D01*
X122828260Y-36791000D01*
X123115158Y-36733932D01*
X123385411Y-36621990D01*
X123628632Y-36459475D01*
X123835475Y-36252632D01*
X123876656Y-36191000D01*
X124027344Y-36191000D01*
X124068525Y-36252632D01*
X124275368Y-36459475D01*
X124518589Y-36621990D01*
X124788842Y-36733932D01*
X125075740Y-36791000D01*
X125368260Y-36791000D01*
X125655158Y-36733932D01*
X125925411Y-36621990D01*
X126168632Y-36459475D01*
X126375475Y-36252632D01*
X126416656Y-36191000D01*
X126567344Y-36191000D01*
X126608525Y-36252632D01*
X126815368Y-36459475D01*
X127058589Y-36621990D01*
X127328842Y-36733932D01*
X127615740Y-36791000D01*
X127908260Y-36791000D01*
X128195158Y-36733932D01*
X128465411Y-36621990D01*
X128708632Y-36459475D01*
X128915475Y-36252632D01*
X129077990Y-36009411D01*
X129189932Y-35739158D01*
X129247000Y-35452260D01*
X129247000Y-35159740D01*
X129189932Y-34872842D01*
X129077990Y-34602589D01*
X128915475Y-34359368D01*
X128708632Y-34152525D01*
X128532594Y-34034900D01*
X128762269Y-33863588D01*
X128957178Y-33647355D01*
X129087975Y-33427775D01*
X134718000Y-39057800D01*
G36*
X70287000Y-35213000D02*
G01*
X70307000Y-35213000D01*
X70307000Y-35467000D01*
X70287000Y-35467000D01*
X70287000Y-36660155D01*
X70516890Y-36781476D01*
X70664099Y-36736825D01*
X70764999Y-36688765D01*
X70765000Y-46687667D01*
X70761323Y-46724999D01*
X70765000Y-46762332D01*
X70775997Y-46873985D01*
X70783300Y-46898061D01*
X70819453Y-47017245D01*
X70890025Y-47149275D01*
X70951339Y-47223985D01*
X70984999Y-47265000D01*
X71013997Y-47288798D01*
X71114999Y-47389800D01*
X71114999Y-47751247D01*
X70943158Y-47680068D01*
X70656260Y-47623000D01*
X70363740Y-47623000D01*
X70076842Y-47680068D01*
X69806589Y-47792010D01*
X69744999Y-47833163D01*
X69744999Y-36763850D01*
X69803110Y-36781476D01*
X70033000Y-36660155D01*
X70033000Y-35467000D01*
X70013000Y-35467000D01*
X70013000Y-35213000D01*
X70033000Y-35213000D01*
X70033000Y-35193000D01*
X70287000Y-35193000D01*
X70287000Y-35213000D01*
G37*
X70287000Y-35213000D02*
X70307000Y-35213000D01*
X70307000Y-35467000D01*
X70287000Y-35467000D01*
X70287000Y-36660155D01*
X70516890Y-36781476D01*
X70664099Y-36736825D01*
X70764999Y-36688765D01*
X70765000Y-46687667D01*
X70761323Y-46724999D01*
X70765000Y-46762332D01*
X70775997Y-46873985D01*
X70783300Y-46898061D01*
X70819453Y-47017245D01*
X70890025Y-47149275D01*
X70951339Y-47223985D01*
X70984999Y-47265000D01*
X71013997Y-47288798D01*
X71114999Y-47389800D01*
X71114999Y-47751247D01*
X70943158Y-47680068D01*
X70656260Y-47623000D01*
X70363740Y-47623000D01*
X70076842Y-47680068D01*
X69806589Y-47792010D01*
X69744999Y-47833163D01*
X69744999Y-36763850D01*
X69803110Y-36781476D01*
X70033000Y-36660155D01*
X70033000Y-35467000D01*
X70013000Y-35467000D01*
X70013000Y-35213000D01*
X70033000Y-35213000D01*
X70033000Y-35193000D01*
X70287000Y-35193000D01*
X70287000Y-35213000D01*
G36*
X75367000Y-32673000D02*
G01*
X75387000Y-32673000D01*
X75387000Y-32927000D01*
X75367000Y-32927000D01*
X75367000Y-32947000D01*
X75113000Y-32947000D01*
X75113000Y-32927000D01*
X75093000Y-32927000D01*
X75093000Y-32673000D01*
X75113000Y-32673000D01*
X75113000Y-32653000D01*
X75367000Y-32653000D01*
X75367000Y-32673000D01*
G37*
X75367000Y-32673000D02*
X75387000Y-32673000D01*
X75387000Y-32927000D01*
X75367000Y-32927000D01*
X75367000Y-32947000D01*
X75113000Y-32947000D01*
X75113000Y-32927000D01*
X75093000Y-32927000D01*
X75093000Y-32673000D01*
X75113000Y-32673000D01*
X75113000Y-32653000D01*
X75367000Y-32653000D01*
X75367000Y-32673000D01*
M02*
