G04 #@! TF.GenerationSoftware,KiCad,Pcbnew,5.1.6-c6e7f7d~87~ubuntu18.04.1*
G04 #@! TF.CreationDate,2021-01-10T02:12:58+01:00*
G04 #@! TF.ProjectId,ZynFace,5a796e46-6163-4652-9e6b-696361645f70,rev?*
G04 #@! TF.SameCoordinates,Original*
G04 #@! TF.FileFunction,Soldermask,Bot*
G04 #@! TF.FilePolarity,Negative*
%FSLAX46Y46*%
G04 Gerber Fmt 4.6, Leading zero omitted, Abs format (unit mm)*
G04 Created by KiCad (PCBNEW 5.1.6-c6e7f7d~87~ubuntu18.04.1) date 2021-01-10 02:12:58*
%MOMM*%
%LPD*%
G01*
G04 APERTURE LIST*
%ADD10C,0.100000*%
G04 APERTURE END LIST*
D10*
G36*
X195816098Y-88479033D02*
G01*
X196280350Y-88671332D01*
X196280352Y-88671333D01*
X196698168Y-88950509D01*
X197053491Y-89305832D01*
X197332667Y-89723648D01*
X197332668Y-89723650D01*
X197524967Y-90187902D01*
X197623000Y-90680747D01*
X197623000Y-91183253D01*
X197524967Y-91676098D01*
X197332668Y-92140350D01*
X197332667Y-92140352D01*
X197053491Y-92558168D01*
X196698168Y-92913491D01*
X196280352Y-93192667D01*
X196280351Y-93192668D01*
X196280350Y-93192668D01*
X195816098Y-93384967D01*
X195323253Y-93483000D01*
X194820747Y-93483000D01*
X194327902Y-93384967D01*
X193863650Y-93192668D01*
X193863649Y-93192668D01*
X193863648Y-93192667D01*
X193445832Y-92913491D01*
X193090509Y-92558168D01*
X192811333Y-92140352D01*
X192811332Y-92140350D01*
X192619033Y-91676098D01*
X192521000Y-91183253D01*
X192521000Y-90680747D01*
X192619033Y-90187902D01*
X192811332Y-89723650D01*
X192811333Y-89723648D01*
X193090509Y-89305832D01*
X193445832Y-88950509D01*
X193863648Y-88671333D01*
X193863650Y-88671332D01*
X194327902Y-88479033D01*
X194820747Y-88381000D01*
X195323253Y-88381000D01*
X195816098Y-88479033D01*
G37*
G36*
X39352098Y-88479033D02*
G01*
X39816350Y-88671332D01*
X39816352Y-88671333D01*
X40234168Y-88950509D01*
X40589491Y-89305832D01*
X40868667Y-89723648D01*
X40868668Y-89723650D01*
X41060967Y-90187902D01*
X41159000Y-90680747D01*
X41159000Y-91183253D01*
X41060967Y-91676098D01*
X40868668Y-92140350D01*
X40868667Y-92140352D01*
X40589491Y-92558168D01*
X40234168Y-92913491D01*
X39816352Y-93192667D01*
X39816351Y-93192668D01*
X39816350Y-93192668D01*
X39352098Y-93384967D01*
X38859253Y-93483000D01*
X38356747Y-93483000D01*
X37863902Y-93384967D01*
X37399650Y-93192668D01*
X37399649Y-93192668D01*
X37399648Y-93192667D01*
X36981832Y-92913491D01*
X36626509Y-92558168D01*
X36347333Y-92140352D01*
X36347332Y-92140350D01*
X36155033Y-91676098D01*
X36057000Y-91183253D01*
X36057000Y-90680747D01*
X36155033Y-90187902D01*
X36347332Y-89723650D01*
X36347333Y-89723648D01*
X36626509Y-89305832D01*
X36981832Y-88950509D01*
X37399648Y-88671333D01*
X37399650Y-88671332D01*
X37863902Y-88479033D01*
X38356747Y-88381000D01*
X38859253Y-88381000D01*
X39352098Y-88479033D01*
G37*
G36*
X155100433Y-84034893D02*
G01*
X155190657Y-84052839D01*
X155296267Y-84096585D01*
X155445621Y-84158449D01*
X155445622Y-84158450D01*
X155675086Y-84311772D01*
X155870228Y-84506914D01*
X155972675Y-84660237D01*
X156023551Y-84736379D01*
X156129161Y-84991344D01*
X156183000Y-85262012D01*
X156183000Y-85537988D01*
X156129161Y-85808656D01*
X156023551Y-86063621D01*
X156023550Y-86063622D01*
X155870228Y-86293086D01*
X155675086Y-86488228D01*
X155521763Y-86590675D01*
X155445621Y-86641551D01*
X155296267Y-86703415D01*
X155190657Y-86747161D01*
X155100433Y-86765107D01*
X154919988Y-86801000D01*
X154644012Y-86801000D01*
X154463567Y-86765107D01*
X154373343Y-86747161D01*
X154267733Y-86703415D01*
X154118379Y-86641551D01*
X154042237Y-86590675D01*
X153888914Y-86488228D01*
X153693772Y-86293086D01*
X153540450Y-86063622D01*
X153540449Y-86063621D01*
X153434839Y-85808656D01*
X153381000Y-85537988D01*
X153381000Y-85262012D01*
X153434839Y-84991344D01*
X153540449Y-84736379D01*
X153591325Y-84660237D01*
X153693772Y-84506914D01*
X153888914Y-84311772D01*
X154118378Y-84158450D01*
X154118379Y-84158449D01*
X154267733Y-84096585D01*
X154373343Y-84052839D01*
X154463567Y-84034893D01*
X154644012Y-83999000D01*
X154919988Y-83999000D01*
X155100433Y-84034893D01*
G37*
G36*
X144686433Y-84034893D02*
G01*
X144776657Y-84052839D01*
X144882267Y-84096585D01*
X145031621Y-84158449D01*
X145031622Y-84158450D01*
X145261086Y-84311772D01*
X145456228Y-84506914D01*
X145558675Y-84660237D01*
X145609551Y-84736379D01*
X145715161Y-84991344D01*
X145769000Y-85262012D01*
X145769000Y-85537988D01*
X145715161Y-85808656D01*
X145609551Y-86063621D01*
X145609550Y-86063622D01*
X145456228Y-86293086D01*
X145261086Y-86488228D01*
X145107763Y-86590675D01*
X145031621Y-86641551D01*
X144882267Y-86703415D01*
X144776657Y-86747161D01*
X144686433Y-86765107D01*
X144505988Y-86801000D01*
X144230012Y-86801000D01*
X144049567Y-86765107D01*
X143959343Y-86747161D01*
X143853733Y-86703415D01*
X143704379Y-86641551D01*
X143628237Y-86590675D01*
X143474914Y-86488228D01*
X143279772Y-86293086D01*
X143126450Y-86063622D01*
X143126449Y-86063621D01*
X143020839Y-85808656D01*
X142967000Y-85537988D01*
X142967000Y-85262012D01*
X143020839Y-84991344D01*
X143126449Y-84736379D01*
X143177325Y-84660237D01*
X143279772Y-84506914D01*
X143474914Y-84311772D01*
X143704378Y-84158450D01*
X143704379Y-84158449D01*
X143853733Y-84096585D01*
X143959343Y-84052839D01*
X144049567Y-84034893D01*
X144230012Y-83999000D01*
X144505988Y-83999000D01*
X144686433Y-84034893D01*
G37*
G36*
X123858433Y-84034893D02*
G01*
X123948657Y-84052839D01*
X124054267Y-84096585D01*
X124203621Y-84158449D01*
X124203622Y-84158450D01*
X124433086Y-84311772D01*
X124628228Y-84506914D01*
X124730675Y-84660237D01*
X124781551Y-84736379D01*
X124887161Y-84991344D01*
X124941000Y-85262012D01*
X124941000Y-85537988D01*
X124887161Y-85808656D01*
X124781551Y-86063621D01*
X124781550Y-86063622D01*
X124628228Y-86293086D01*
X124433086Y-86488228D01*
X124279763Y-86590675D01*
X124203621Y-86641551D01*
X124054267Y-86703415D01*
X123948657Y-86747161D01*
X123858433Y-86765107D01*
X123677988Y-86801000D01*
X123402012Y-86801000D01*
X123221567Y-86765107D01*
X123131343Y-86747161D01*
X123025733Y-86703415D01*
X122876379Y-86641551D01*
X122800237Y-86590675D01*
X122646914Y-86488228D01*
X122451772Y-86293086D01*
X122298450Y-86063622D01*
X122298449Y-86063621D01*
X122192839Y-85808656D01*
X122139000Y-85537988D01*
X122139000Y-85262012D01*
X122192839Y-84991344D01*
X122298449Y-84736379D01*
X122349325Y-84660237D01*
X122451772Y-84506914D01*
X122646914Y-84311772D01*
X122876378Y-84158450D01*
X122876379Y-84158449D01*
X123025733Y-84096585D01*
X123131343Y-84052839D01*
X123221567Y-84034893D01*
X123402012Y-83999000D01*
X123677988Y-83999000D01*
X123858433Y-84034893D01*
G37*
G36*
X134272433Y-84034893D02*
G01*
X134362657Y-84052839D01*
X134468267Y-84096585D01*
X134617621Y-84158449D01*
X134617622Y-84158450D01*
X134847086Y-84311772D01*
X135042228Y-84506914D01*
X135144675Y-84660237D01*
X135195551Y-84736379D01*
X135301161Y-84991344D01*
X135355000Y-85262012D01*
X135355000Y-85537988D01*
X135301161Y-85808656D01*
X135195551Y-86063621D01*
X135195550Y-86063622D01*
X135042228Y-86293086D01*
X134847086Y-86488228D01*
X134693763Y-86590675D01*
X134617621Y-86641551D01*
X134468267Y-86703415D01*
X134362657Y-86747161D01*
X134272433Y-86765107D01*
X134091988Y-86801000D01*
X133816012Y-86801000D01*
X133635567Y-86765107D01*
X133545343Y-86747161D01*
X133439733Y-86703415D01*
X133290379Y-86641551D01*
X133214237Y-86590675D01*
X133060914Y-86488228D01*
X132865772Y-86293086D01*
X132712450Y-86063622D01*
X132712449Y-86063621D01*
X132606839Y-85808656D01*
X132553000Y-85537988D01*
X132553000Y-85262012D01*
X132606839Y-84991344D01*
X132712449Y-84736379D01*
X132763325Y-84660237D01*
X132865772Y-84506914D01*
X133060914Y-84311772D01*
X133290378Y-84158450D01*
X133290379Y-84158449D01*
X133439733Y-84096585D01*
X133545343Y-84052839D01*
X133635567Y-84034893D01*
X133816012Y-83999000D01*
X134091988Y-83999000D01*
X134272433Y-84034893D01*
G37*
G36*
X66764433Y-84034893D02*
G01*
X66854657Y-84052839D01*
X66960267Y-84096585D01*
X67109621Y-84158449D01*
X67109622Y-84158450D01*
X67339086Y-84311772D01*
X67534228Y-84506914D01*
X67636675Y-84660237D01*
X67687551Y-84736379D01*
X67793161Y-84991344D01*
X67847000Y-85262012D01*
X67847000Y-85537988D01*
X67793161Y-85808656D01*
X67687551Y-86063621D01*
X67687550Y-86063622D01*
X67534228Y-86293086D01*
X67339086Y-86488228D01*
X67185763Y-86590675D01*
X67109621Y-86641551D01*
X66960267Y-86703415D01*
X66854657Y-86747161D01*
X66764433Y-86765107D01*
X66583988Y-86801000D01*
X66308012Y-86801000D01*
X66127567Y-86765107D01*
X66037343Y-86747161D01*
X65931733Y-86703415D01*
X65782379Y-86641551D01*
X65706237Y-86590675D01*
X65552914Y-86488228D01*
X65357772Y-86293086D01*
X65204450Y-86063622D01*
X65204449Y-86063621D01*
X65098839Y-85808656D01*
X65045000Y-85537988D01*
X65045000Y-85262012D01*
X65098839Y-84991344D01*
X65204449Y-84736379D01*
X65255325Y-84660237D01*
X65357772Y-84506914D01*
X65552914Y-84311772D01*
X65782378Y-84158450D01*
X65782379Y-84158449D01*
X65931733Y-84096585D01*
X66037343Y-84052839D01*
X66127567Y-84034893D01*
X66308012Y-83999000D01*
X66583988Y-83999000D01*
X66764433Y-84034893D01*
G37*
G36*
X87592433Y-84034893D02*
G01*
X87682657Y-84052839D01*
X87788267Y-84096585D01*
X87937621Y-84158449D01*
X87937622Y-84158450D01*
X88167086Y-84311772D01*
X88362228Y-84506914D01*
X88464675Y-84660237D01*
X88515551Y-84736379D01*
X88621161Y-84991344D01*
X88675000Y-85262012D01*
X88675000Y-85537988D01*
X88621161Y-85808656D01*
X88515551Y-86063621D01*
X88515550Y-86063622D01*
X88362228Y-86293086D01*
X88167086Y-86488228D01*
X88013763Y-86590675D01*
X87937621Y-86641551D01*
X87788267Y-86703415D01*
X87682657Y-86747161D01*
X87592433Y-86765107D01*
X87411988Y-86801000D01*
X87136012Y-86801000D01*
X86955567Y-86765107D01*
X86865343Y-86747161D01*
X86759733Y-86703415D01*
X86610379Y-86641551D01*
X86534237Y-86590675D01*
X86380914Y-86488228D01*
X86185772Y-86293086D01*
X86032450Y-86063622D01*
X86032449Y-86063621D01*
X85926839Y-85808656D01*
X85873000Y-85537988D01*
X85873000Y-85262012D01*
X85926839Y-84991344D01*
X86032449Y-84736379D01*
X86083325Y-84660237D01*
X86185772Y-84506914D01*
X86380914Y-84311772D01*
X86610378Y-84158450D01*
X86610379Y-84158449D01*
X86759733Y-84096585D01*
X86865343Y-84052839D01*
X86955567Y-84034893D01*
X87136012Y-83999000D01*
X87411988Y-83999000D01*
X87592433Y-84034893D01*
G37*
G36*
X98006433Y-84034893D02*
G01*
X98096657Y-84052839D01*
X98202267Y-84096585D01*
X98351621Y-84158449D01*
X98351622Y-84158450D01*
X98581086Y-84311772D01*
X98776228Y-84506914D01*
X98878675Y-84660237D01*
X98929551Y-84736379D01*
X99035161Y-84991344D01*
X99089000Y-85262012D01*
X99089000Y-85537988D01*
X99035161Y-85808656D01*
X98929551Y-86063621D01*
X98929550Y-86063622D01*
X98776228Y-86293086D01*
X98581086Y-86488228D01*
X98427763Y-86590675D01*
X98351621Y-86641551D01*
X98202267Y-86703415D01*
X98096657Y-86747161D01*
X98006433Y-86765107D01*
X97825988Y-86801000D01*
X97550012Y-86801000D01*
X97369567Y-86765107D01*
X97279343Y-86747161D01*
X97173733Y-86703415D01*
X97024379Y-86641551D01*
X96948237Y-86590675D01*
X96794914Y-86488228D01*
X96599772Y-86293086D01*
X96446450Y-86063622D01*
X96446449Y-86063621D01*
X96340839Y-85808656D01*
X96287000Y-85537988D01*
X96287000Y-85262012D01*
X96340839Y-84991344D01*
X96446449Y-84736379D01*
X96497325Y-84660237D01*
X96599772Y-84506914D01*
X96794914Y-84311772D01*
X97024378Y-84158450D01*
X97024379Y-84158449D01*
X97173733Y-84096585D01*
X97279343Y-84052839D01*
X97369567Y-84034893D01*
X97550012Y-83999000D01*
X97825988Y-83999000D01*
X98006433Y-84034893D01*
G37*
G36*
X77178433Y-84034893D02*
G01*
X77268657Y-84052839D01*
X77374267Y-84096585D01*
X77523621Y-84158449D01*
X77523622Y-84158450D01*
X77753086Y-84311772D01*
X77948228Y-84506914D01*
X78050675Y-84660237D01*
X78101551Y-84736379D01*
X78207161Y-84991344D01*
X78261000Y-85262012D01*
X78261000Y-85537988D01*
X78207161Y-85808656D01*
X78101551Y-86063621D01*
X78101550Y-86063622D01*
X77948228Y-86293086D01*
X77753086Y-86488228D01*
X77599763Y-86590675D01*
X77523621Y-86641551D01*
X77374267Y-86703415D01*
X77268657Y-86747161D01*
X77178433Y-86765107D01*
X76997988Y-86801000D01*
X76722012Y-86801000D01*
X76541567Y-86765107D01*
X76451343Y-86747161D01*
X76345733Y-86703415D01*
X76196379Y-86641551D01*
X76120237Y-86590675D01*
X75966914Y-86488228D01*
X75771772Y-86293086D01*
X75618450Y-86063622D01*
X75618449Y-86063621D01*
X75512839Y-85808656D01*
X75459000Y-85537988D01*
X75459000Y-85262012D01*
X75512839Y-84991344D01*
X75618449Y-84736379D01*
X75669325Y-84660237D01*
X75771772Y-84506914D01*
X75966914Y-84311772D01*
X76196378Y-84158450D01*
X76196379Y-84158449D01*
X76345733Y-84096585D01*
X76451343Y-84052839D01*
X76541567Y-84034893D01*
X76722012Y-83999000D01*
X76997988Y-83999000D01*
X77178433Y-84034893D01*
G37*
G36*
X124005338Y-75891739D02*
G01*
X124236440Y-75961843D01*
X124449425Y-76075686D01*
X124636107Y-76228893D01*
X124789314Y-76415575D01*
X124903157Y-76628560D01*
X124973261Y-76859662D01*
X124996932Y-77100000D01*
X124973261Y-77340338D01*
X124903157Y-77571440D01*
X124789314Y-77784425D01*
X124636107Y-77971107D01*
X124449425Y-78124314D01*
X124236440Y-78238157D01*
X124005338Y-78308261D01*
X123825229Y-78326000D01*
X123254771Y-78326000D01*
X123074662Y-78308261D01*
X122843560Y-78238157D01*
X122630575Y-78124314D01*
X122443893Y-77971107D01*
X122290686Y-77784425D01*
X122176843Y-77571440D01*
X122106739Y-77340338D01*
X122083068Y-77100000D01*
X122106739Y-76859662D01*
X122176843Y-76628560D01*
X122290686Y-76415575D01*
X122443893Y-76228893D01*
X122630575Y-76075686D01*
X122843560Y-75961843D01*
X123074662Y-75891739D01*
X123254771Y-75874000D01*
X123825229Y-75874000D01*
X124005338Y-75891739D01*
G37*
G36*
X134419338Y-75891739D02*
G01*
X134650440Y-75961843D01*
X134863425Y-76075686D01*
X135050107Y-76228893D01*
X135203314Y-76415575D01*
X135317157Y-76628560D01*
X135387261Y-76859662D01*
X135410932Y-77100000D01*
X135387261Y-77340338D01*
X135317157Y-77571440D01*
X135203314Y-77784425D01*
X135050107Y-77971107D01*
X134863425Y-78124314D01*
X134650440Y-78238157D01*
X134419338Y-78308261D01*
X134239229Y-78326000D01*
X133668771Y-78326000D01*
X133488662Y-78308261D01*
X133257560Y-78238157D01*
X133044575Y-78124314D01*
X132857893Y-77971107D01*
X132704686Y-77784425D01*
X132590843Y-77571440D01*
X132520739Y-77340338D01*
X132497068Y-77100000D01*
X132520739Y-76859662D01*
X132590843Y-76628560D01*
X132704686Y-76415575D01*
X132857893Y-76228893D01*
X133044575Y-76075686D01*
X133257560Y-75961843D01*
X133488662Y-75891739D01*
X133668771Y-75874000D01*
X134239229Y-75874000D01*
X134419338Y-75891739D01*
G37*
G36*
X144833338Y-75891739D02*
G01*
X145064440Y-75961843D01*
X145277425Y-76075686D01*
X145464107Y-76228893D01*
X145617314Y-76415575D01*
X145731157Y-76628560D01*
X145801261Y-76859662D01*
X145824932Y-77100000D01*
X145801261Y-77340338D01*
X145731157Y-77571440D01*
X145617314Y-77784425D01*
X145464107Y-77971107D01*
X145277425Y-78124314D01*
X145064440Y-78238157D01*
X144833338Y-78308261D01*
X144653229Y-78326000D01*
X144082771Y-78326000D01*
X143902662Y-78308261D01*
X143671560Y-78238157D01*
X143458575Y-78124314D01*
X143271893Y-77971107D01*
X143118686Y-77784425D01*
X143004843Y-77571440D01*
X142934739Y-77340338D01*
X142911068Y-77100000D01*
X142934739Y-76859662D01*
X143004843Y-76628560D01*
X143118686Y-76415575D01*
X143271893Y-76228893D01*
X143458575Y-76075686D01*
X143671560Y-75961843D01*
X143902662Y-75891739D01*
X144082771Y-75874000D01*
X144653229Y-75874000D01*
X144833338Y-75891739D01*
G37*
G36*
X155247338Y-75891739D02*
G01*
X155478440Y-75961843D01*
X155691425Y-76075686D01*
X155878107Y-76228893D01*
X156031314Y-76415575D01*
X156145157Y-76628560D01*
X156215261Y-76859662D01*
X156238932Y-77100000D01*
X156215261Y-77340338D01*
X156145157Y-77571440D01*
X156031314Y-77784425D01*
X155878107Y-77971107D01*
X155691425Y-78124314D01*
X155478440Y-78238157D01*
X155247338Y-78308261D01*
X155067229Y-78326000D01*
X154496771Y-78326000D01*
X154316662Y-78308261D01*
X154085560Y-78238157D01*
X153872575Y-78124314D01*
X153685893Y-77971107D01*
X153532686Y-77784425D01*
X153418843Y-77571440D01*
X153348739Y-77340338D01*
X153325068Y-77100000D01*
X153348739Y-76859662D01*
X153418843Y-76628560D01*
X153532686Y-76415575D01*
X153685893Y-76228893D01*
X153872575Y-76075686D01*
X154085560Y-75961843D01*
X154316662Y-75891739D01*
X154496771Y-75874000D01*
X155067229Y-75874000D01*
X155247338Y-75891739D01*
G37*
G36*
X98153338Y-75891739D02*
G01*
X98384440Y-75961843D01*
X98597425Y-76075686D01*
X98784107Y-76228893D01*
X98937314Y-76415575D01*
X99051157Y-76628560D01*
X99121261Y-76859662D01*
X99144932Y-77100000D01*
X99121261Y-77340338D01*
X99051157Y-77571440D01*
X98937314Y-77784425D01*
X98784107Y-77971107D01*
X98597425Y-78124314D01*
X98384440Y-78238157D01*
X98153338Y-78308261D01*
X97973229Y-78326000D01*
X97402771Y-78326000D01*
X97222662Y-78308261D01*
X96991560Y-78238157D01*
X96778575Y-78124314D01*
X96591893Y-77971107D01*
X96438686Y-77784425D01*
X96324843Y-77571440D01*
X96254739Y-77340338D01*
X96231068Y-77100000D01*
X96254739Y-76859662D01*
X96324843Y-76628560D01*
X96438686Y-76415575D01*
X96591893Y-76228893D01*
X96778575Y-76075686D01*
X96991560Y-75961843D01*
X97222662Y-75891739D01*
X97402771Y-75874000D01*
X97973229Y-75874000D01*
X98153338Y-75891739D01*
G37*
G36*
X66911338Y-75891739D02*
G01*
X67142440Y-75961843D01*
X67355425Y-76075686D01*
X67542107Y-76228893D01*
X67695314Y-76415575D01*
X67809157Y-76628560D01*
X67879261Y-76859662D01*
X67902932Y-77100000D01*
X67879261Y-77340338D01*
X67809157Y-77571440D01*
X67695314Y-77784425D01*
X67542107Y-77971107D01*
X67355425Y-78124314D01*
X67142440Y-78238157D01*
X66911338Y-78308261D01*
X66731229Y-78326000D01*
X66160771Y-78326000D01*
X65980662Y-78308261D01*
X65749560Y-78238157D01*
X65536575Y-78124314D01*
X65349893Y-77971107D01*
X65196686Y-77784425D01*
X65082843Y-77571440D01*
X65012739Y-77340338D01*
X64989068Y-77100000D01*
X65012739Y-76859662D01*
X65082843Y-76628560D01*
X65196686Y-76415575D01*
X65349893Y-76228893D01*
X65536575Y-76075686D01*
X65749560Y-75961843D01*
X65980662Y-75891739D01*
X66160771Y-75874000D01*
X66731229Y-75874000D01*
X66911338Y-75891739D01*
G37*
G36*
X77325338Y-75891739D02*
G01*
X77556440Y-75961843D01*
X77769425Y-76075686D01*
X77956107Y-76228893D01*
X78109314Y-76415575D01*
X78223157Y-76628560D01*
X78293261Y-76859662D01*
X78316932Y-77100000D01*
X78293261Y-77340338D01*
X78223157Y-77571440D01*
X78109314Y-77784425D01*
X77956107Y-77971107D01*
X77769425Y-78124314D01*
X77556440Y-78238157D01*
X77325338Y-78308261D01*
X77145229Y-78326000D01*
X76574771Y-78326000D01*
X76394662Y-78308261D01*
X76163560Y-78238157D01*
X75950575Y-78124314D01*
X75763893Y-77971107D01*
X75610686Y-77784425D01*
X75496843Y-77571440D01*
X75426739Y-77340338D01*
X75403068Y-77100000D01*
X75426739Y-76859662D01*
X75496843Y-76628560D01*
X75610686Y-76415575D01*
X75763893Y-76228893D01*
X75950575Y-76075686D01*
X76163560Y-75961843D01*
X76394662Y-75891739D01*
X76574771Y-75874000D01*
X77145229Y-75874000D01*
X77325338Y-75891739D01*
G37*
G36*
X87739338Y-75891739D02*
G01*
X87970440Y-75961843D01*
X88183425Y-76075686D01*
X88370107Y-76228893D01*
X88523314Y-76415575D01*
X88637157Y-76628560D01*
X88707261Y-76859662D01*
X88730932Y-77100000D01*
X88707261Y-77340338D01*
X88637157Y-77571440D01*
X88523314Y-77784425D01*
X88370107Y-77971107D01*
X88183425Y-78124314D01*
X87970440Y-78238157D01*
X87739338Y-78308261D01*
X87559229Y-78326000D01*
X86988771Y-78326000D01*
X86808662Y-78308261D01*
X86577560Y-78238157D01*
X86364575Y-78124314D01*
X86177893Y-77971107D01*
X86024686Y-77784425D01*
X85910843Y-77571440D01*
X85840739Y-77340338D01*
X85817068Y-77100000D01*
X85840739Y-76859662D01*
X85910843Y-76628560D01*
X86024686Y-76415575D01*
X86177893Y-76228893D01*
X86364575Y-76075686D01*
X86577560Y-75961843D01*
X86808662Y-75891739D01*
X86988771Y-75874000D01*
X87559229Y-75874000D01*
X87739338Y-75891739D01*
G37*
G36*
X67797000Y-75126000D02*
G01*
X65095000Y-75126000D01*
X65095000Y-72874000D01*
X67797000Y-72874000D01*
X67797000Y-75126000D01*
G37*
G36*
X145719000Y-75126000D02*
G01*
X143017000Y-75126000D01*
X143017000Y-72874000D01*
X145719000Y-72874000D01*
X145719000Y-75126000D01*
G37*
G36*
X156133000Y-75126000D02*
G01*
X153431000Y-75126000D01*
X153431000Y-72874000D01*
X156133000Y-72874000D01*
X156133000Y-75126000D01*
G37*
G36*
X99039000Y-75126000D02*
G01*
X96337000Y-75126000D01*
X96337000Y-72874000D01*
X99039000Y-72874000D01*
X99039000Y-75126000D01*
G37*
G36*
X135305000Y-75126000D02*
G01*
X132603000Y-75126000D01*
X132603000Y-72874000D01*
X135305000Y-72874000D01*
X135305000Y-75126000D01*
G37*
G36*
X78211000Y-75126000D02*
G01*
X75509000Y-75126000D01*
X75509000Y-72874000D01*
X78211000Y-72874000D01*
X78211000Y-75126000D01*
G37*
G36*
X88625000Y-75126000D02*
G01*
X85923000Y-75126000D01*
X85923000Y-72874000D01*
X88625000Y-72874000D01*
X88625000Y-75126000D01*
G37*
G36*
X124891000Y-75126000D02*
G01*
X122189000Y-75126000D01*
X122189000Y-72874000D01*
X124891000Y-72874000D01*
X124891000Y-75126000D01*
G37*
G36*
X187591000Y-72783000D02*
G01*
X185789000Y-72783000D01*
X185789000Y-70981000D01*
X187591000Y-70981000D01*
X187591000Y-72783000D01*
G37*
G36*
X186803512Y-68445927D02*
G01*
X186952812Y-68475624D01*
X187116784Y-68543544D01*
X187264354Y-68642147D01*
X187389853Y-68767646D01*
X187488456Y-68915216D01*
X187556376Y-69079188D01*
X187591000Y-69253259D01*
X187591000Y-69430741D01*
X187556376Y-69604812D01*
X187488456Y-69768784D01*
X187389853Y-69916354D01*
X187264354Y-70041853D01*
X187116784Y-70140456D01*
X186952812Y-70208376D01*
X186803512Y-70238073D01*
X186778742Y-70243000D01*
X186601258Y-70243000D01*
X186576488Y-70238073D01*
X186427188Y-70208376D01*
X186263216Y-70140456D01*
X186115646Y-70041853D01*
X185990147Y-69916354D01*
X185891544Y-69768784D01*
X185823624Y-69604812D01*
X185789000Y-69430741D01*
X185789000Y-69253259D01*
X185823624Y-69079188D01*
X185891544Y-68915216D01*
X185990147Y-68767646D01*
X186115646Y-68642147D01*
X186263216Y-68543544D01*
X186427188Y-68475624D01*
X186576488Y-68445927D01*
X186601258Y-68441000D01*
X186778742Y-68441000D01*
X186803512Y-68445927D01*
G37*
G36*
X66764433Y-66000893D02*
G01*
X66854657Y-66018839D01*
X66960267Y-66062585D01*
X67109621Y-66124449D01*
X67109622Y-66124450D01*
X67339086Y-66277772D01*
X67534228Y-66472914D01*
X67578511Y-66539189D01*
X67687551Y-66702379D01*
X67793161Y-66957344D01*
X67847000Y-67228012D01*
X67847000Y-67503988D01*
X67793161Y-67774656D01*
X67687551Y-68029621D01*
X67687550Y-68029622D01*
X67534228Y-68259086D01*
X67339086Y-68454228D01*
X67205414Y-68543544D01*
X67109621Y-68607551D01*
X67026096Y-68642148D01*
X66854657Y-68713161D01*
X66764433Y-68731107D01*
X66583988Y-68767000D01*
X66308012Y-68767000D01*
X66127567Y-68731107D01*
X66037343Y-68713161D01*
X65865904Y-68642148D01*
X65782379Y-68607551D01*
X65686586Y-68543544D01*
X65552914Y-68454228D01*
X65357772Y-68259086D01*
X65204450Y-68029622D01*
X65204449Y-68029621D01*
X65098839Y-67774656D01*
X65045000Y-67503988D01*
X65045000Y-67228012D01*
X65098839Y-66957344D01*
X65204449Y-66702379D01*
X65313489Y-66539189D01*
X65357772Y-66472914D01*
X65552914Y-66277772D01*
X65782378Y-66124450D01*
X65782379Y-66124449D01*
X65931733Y-66062585D01*
X66037343Y-66018839D01*
X66127567Y-66000893D01*
X66308012Y-65965000D01*
X66583988Y-65965000D01*
X66764433Y-66000893D01*
G37*
G36*
X123858433Y-66000893D02*
G01*
X123948657Y-66018839D01*
X124054267Y-66062585D01*
X124203621Y-66124449D01*
X124203622Y-66124450D01*
X124433086Y-66277772D01*
X124628228Y-66472914D01*
X124672511Y-66539189D01*
X124781551Y-66702379D01*
X124887161Y-66957344D01*
X124941000Y-67228012D01*
X124941000Y-67503988D01*
X124887161Y-67774656D01*
X124781551Y-68029621D01*
X124781550Y-68029622D01*
X124628228Y-68259086D01*
X124433086Y-68454228D01*
X124299414Y-68543544D01*
X124203621Y-68607551D01*
X124120096Y-68642148D01*
X123948657Y-68713161D01*
X123858433Y-68731107D01*
X123677988Y-68767000D01*
X123402012Y-68767000D01*
X123221567Y-68731107D01*
X123131343Y-68713161D01*
X122959904Y-68642148D01*
X122876379Y-68607551D01*
X122780586Y-68543544D01*
X122646914Y-68454228D01*
X122451772Y-68259086D01*
X122298450Y-68029622D01*
X122298449Y-68029621D01*
X122192839Y-67774656D01*
X122139000Y-67503988D01*
X122139000Y-67228012D01*
X122192839Y-66957344D01*
X122298449Y-66702379D01*
X122407489Y-66539189D01*
X122451772Y-66472914D01*
X122646914Y-66277772D01*
X122876378Y-66124450D01*
X122876379Y-66124449D01*
X123025733Y-66062585D01*
X123131343Y-66018839D01*
X123221567Y-66000893D01*
X123402012Y-65965000D01*
X123677988Y-65965000D01*
X123858433Y-66000893D01*
G37*
G36*
X155100433Y-66000893D02*
G01*
X155190657Y-66018839D01*
X155296267Y-66062585D01*
X155445621Y-66124449D01*
X155445622Y-66124450D01*
X155675086Y-66277772D01*
X155870228Y-66472914D01*
X155914511Y-66539189D01*
X156023551Y-66702379D01*
X156129161Y-66957344D01*
X156183000Y-67228012D01*
X156183000Y-67503988D01*
X156129161Y-67774656D01*
X156023551Y-68029621D01*
X156023550Y-68029622D01*
X155870228Y-68259086D01*
X155675086Y-68454228D01*
X155541414Y-68543544D01*
X155445621Y-68607551D01*
X155362096Y-68642148D01*
X155190657Y-68713161D01*
X155100433Y-68731107D01*
X154919988Y-68767000D01*
X154644012Y-68767000D01*
X154463567Y-68731107D01*
X154373343Y-68713161D01*
X154201904Y-68642148D01*
X154118379Y-68607551D01*
X154022586Y-68543544D01*
X153888914Y-68454228D01*
X153693772Y-68259086D01*
X153540450Y-68029622D01*
X153540449Y-68029621D01*
X153434839Y-67774656D01*
X153381000Y-67503988D01*
X153381000Y-67228012D01*
X153434839Y-66957344D01*
X153540449Y-66702379D01*
X153649489Y-66539189D01*
X153693772Y-66472914D01*
X153888914Y-66277772D01*
X154118378Y-66124450D01*
X154118379Y-66124449D01*
X154267733Y-66062585D01*
X154373343Y-66018839D01*
X154463567Y-66000893D01*
X154644012Y-65965000D01*
X154919988Y-65965000D01*
X155100433Y-66000893D01*
G37*
G36*
X134272433Y-66000893D02*
G01*
X134362657Y-66018839D01*
X134468267Y-66062585D01*
X134617621Y-66124449D01*
X134617622Y-66124450D01*
X134847086Y-66277772D01*
X135042228Y-66472914D01*
X135086511Y-66539189D01*
X135195551Y-66702379D01*
X135301161Y-66957344D01*
X135355000Y-67228012D01*
X135355000Y-67503988D01*
X135301161Y-67774656D01*
X135195551Y-68029621D01*
X135195550Y-68029622D01*
X135042228Y-68259086D01*
X134847086Y-68454228D01*
X134713414Y-68543544D01*
X134617621Y-68607551D01*
X134534096Y-68642148D01*
X134362657Y-68713161D01*
X134272433Y-68731107D01*
X134091988Y-68767000D01*
X133816012Y-68767000D01*
X133635567Y-68731107D01*
X133545343Y-68713161D01*
X133373904Y-68642148D01*
X133290379Y-68607551D01*
X133194586Y-68543544D01*
X133060914Y-68454228D01*
X132865772Y-68259086D01*
X132712450Y-68029622D01*
X132712449Y-68029621D01*
X132606839Y-67774656D01*
X132553000Y-67503988D01*
X132553000Y-67228012D01*
X132606839Y-66957344D01*
X132712449Y-66702379D01*
X132821489Y-66539189D01*
X132865772Y-66472914D01*
X133060914Y-66277772D01*
X133290378Y-66124450D01*
X133290379Y-66124449D01*
X133439733Y-66062585D01*
X133545343Y-66018839D01*
X133635567Y-66000893D01*
X133816012Y-65965000D01*
X134091988Y-65965000D01*
X134272433Y-66000893D01*
G37*
G36*
X77178433Y-66000893D02*
G01*
X77268657Y-66018839D01*
X77374267Y-66062585D01*
X77523621Y-66124449D01*
X77523622Y-66124450D01*
X77753086Y-66277772D01*
X77948228Y-66472914D01*
X77992511Y-66539189D01*
X78101551Y-66702379D01*
X78207161Y-66957344D01*
X78261000Y-67228012D01*
X78261000Y-67503988D01*
X78207161Y-67774656D01*
X78101551Y-68029621D01*
X78101550Y-68029622D01*
X77948228Y-68259086D01*
X77753086Y-68454228D01*
X77619414Y-68543544D01*
X77523621Y-68607551D01*
X77440096Y-68642148D01*
X77268657Y-68713161D01*
X77178433Y-68731107D01*
X76997988Y-68767000D01*
X76722012Y-68767000D01*
X76541567Y-68731107D01*
X76451343Y-68713161D01*
X76279904Y-68642148D01*
X76196379Y-68607551D01*
X76100586Y-68543544D01*
X75966914Y-68454228D01*
X75771772Y-68259086D01*
X75618450Y-68029622D01*
X75618449Y-68029621D01*
X75512839Y-67774656D01*
X75459000Y-67503988D01*
X75459000Y-67228012D01*
X75512839Y-66957344D01*
X75618449Y-66702379D01*
X75727489Y-66539189D01*
X75771772Y-66472914D01*
X75966914Y-66277772D01*
X76196378Y-66124450D01*
X76196379Y-66124449D01*
X76345733Y-66062585D01*
X76451343Y-66018839D01*
X76541567Y-66000893D01*
X76722012Y-65965000D01*
X76997988Y-65965000D01*
X77178433Y-66000893D01*
G37*
G36*
X87592433Y-66000893D02*
G01*
X87682657Y-66018839D01*
X87788267Y-66062585D01*
X87937621Y-66124449D01*
X87937622Y-66124450D01*
X88167086Y-66277772D01*
X88362228Y-66472914D01*
X88406511Y-66539189D01*
X88515551Y-66702379D01*
X88621161Y-66957344D01*
X88675000Y-67228012D01*
X88675000Y-67503988D01*
X88621161Y-67774656D01*
X88515551Y-68029621D01*
X88515550Y-68029622D01*
X88362228Y-68259086D01*
X88167086Y-68454228D01*
X88033414Y-68543544D01*
X87937621Y-68607551D01*
X87854096Y-68642148D01*
X87682657Y-68713161D01*
X87592433Y-68731107D01*
X87411988Y-68767000D01*
X87136012Y-68767000D01*
X86955567Y-68731107D01*
X86865343Y-68713161D01*
X86693904Y-68642148D01*
X86610379Y-68607551D01*
X86514586Y-68543544D01*
X86380914Y-68454228D01*
X86185772Y-68259086D01*
X86032450Y-68029622D01*
X86032449Y-68029621D01*
X85926839Y-67774656D01*
X85873000Y-67503988D01*
X85873000Y-67228012D01*
X85926839Y-66957344D01*
X86032449Y-66702379D01*
X86141489Y-66539189D01*
X86185772Y-66472914D01*
X86380914Y-66277772D01*
X86610378Y-66124450D01*
X86610379Y-66124449D01*
X86759733Y-66062585D01*
X86865343Y-66018839D01*
X86955567Y-66000893D01*
X87136012Y-65965000D01*
X87411988Y-65965000D01*
X87592433Y-66000893D01*
G37*
G36*
X144686433Y-66000893D02*
G01*
X144776657Y-66018839D01*
X144882267Y-66062585D01*
X145031621Y-66124449D01*
X145031622Y-66124450D01*
X145261086Y-66277772D01*
X145456228Y-66472914D01*
X145500511Y-66539189D01*
X145609551Y-66702379D01*
X145715161Y-66957344D01*
X145769000Y-67228012D01*
X145769000Y-67503988D01*
X145715161Y-67774656D01*
X145609551Y-68029621D01*
X145609550Y-68029622D01*
X145456228Y-68259086D01*
X145261086Y-68454228D01*
X145127414Y-68543544D01*
X145031621Y-68607551D01*
X144948096Y-68642148D01*
X144776657Y-68713161D01*
X144686433Y-68731107D01*
X144505988Y-68767000D01*
X144230012Y-68767000D01*
X144049567Y-68731107D01*
X143959343Y-68713161D01*
X143787904Y-68642148D01*
X143704379Y-68607551D01*
X143608586Y-68543544D01*
X143474914Y-68454228D01*
X143279772Y-68259086D01*
X143126450Y-68029622D01*
X143126449Y-68029621D01*
X143020839Y-67774656D01*
X142967000Y-67503988D01*
X142967000Y-67228012D01*
X143020839Y-66957344D01*
X143126449Y-66702379D01*
X143235489Y-66539189D01*
X143279772Y-66472914D01*
X143474914Y-66277772D01*
X143704378Y-66124450D01*
X143704379Y-66124449D01*
X143853733Y-66062585D01*
X143959343Y-66018839D01*
X144049567Y-66000893D01*
X144230012Y-65965000D01*
X144505988Y-65965000D01*
X144686433Y-66000893D01*
G37*
G36*
X98006433Y-66000893D02*
G01*
X98096657Y-66018839D01*
X98202267Y-66062585D01*
X98351621Y-66124449D01*
X98351622Y-66124450D01*
X98581086Y-66277772D01*
X98776228Y-66472914D01*
X98820511Y-66539189D01*
X98929551Y-66702379D01*
X99035161Y-66957344D01*
X99089000Y-67228012D01*
X99089000Y-67503988D01*
X99035161Y-67774656D01*
X98929551Y-68029621D01*
X98929550Y-68029622D01*
X98776228Y-68259086D01*
X98581086Y-68454228D01*
X98447414Y-68543544D01*
X98351621Y-68607551D01*
X98268096Y-68642148D01*
X98096657Y-68713161D01*
X98006433Y-68731107D01*
X97825988Y-68767000D01*
X97550012Y-68767000D01*
X97369567Y-68731107D01*
X97279343Y-68713161D01*
X97107904Y-68642148D01*
X97024379Y-68607551D01*
X96928586Y-68543544D01*
X96794914Y-68454228D01*
X96599772Y-68259086D01*
X96446450Y-68029622D01*
X96446449Y-68029621D01*
X96340839Y-67774656D01*
X96287000Y-67503988D01*
X96287000Y-67228012D01*
X96340839Y-66957344D01*
X96446449Y-66702379D01*
X96555489Y-66539189D01*
X96599772Y-66472914D01*
X96794914Y-66277772D01*
X97024378Y-66124450D01*
X97024379Y-66124449D01*
X97173733Y-66062585D01*
X97279343Y-66018839D01*
X97369567Y-66000893D01*
X97550012Y-65965000D01*
X97825988Y-65965000D01*
X98006433Y-66000893D01*
G37*
G36*
X186803512Y-65905927D02*
G01*
X186952812Y-65935624D01*
X187116784Y-66003544D01*
X187264354Y-66102147D01*
X187389853Y-66227646D01*
X187488456Y-66375216D01*
X187556376Y-66539188D01*
X187591000Y-66713259D01*
X187591000Y-66890741D01*
X187556376Y-67064812D01*
X187488456Y-67228784D01*
X187389853Y-67376354D01*
X187264354Y-67501853D01*
X187116784Y-67600456D01*
X186952812Y-67668376D01*
X186803512Y-67698073D01*
X186778742Y-67703000D01*
X186601258Y-67703000D01*
X186576488Y-67698073D01*
X186427188Y-67668376D01*
X186263216Y-67600456D01*
X186115646Y-67501853D01*
X185990147Y-67376354D01*
X185891544Y-67228784D01*
X185823624Y-67064812D01*
X185789000Y-66890741D01*
X185789000Y-66713259D01*
X185823624Y-66539188D01*
X185891544Y-66375216D01*
X185990147Y-66227646D01*
X186115646Y-66102147D01*
X186263216Y-66003544D01*
X186427188Y-65935624D01*
X186576488Y-65905927D01*
X186601258Y-65901000D01*
X186778742Y-65901000D01*
X186803512Y-65905927D01*
G37*
G36*
X186803512Y-63365927D02*
G01*
X186952812Y-63395624D01*
X187116784Y-63463544D01*
X187264354Y-63562147D01*
X187389853Y-63687646D01*
X187488456Y-63835216D01*
X187556376Y-63999188D01*
X187591000Y-64173259D01*
X187591000Y-64350741D01*
X187556376Y-64524812D01*
X187488456Y-64688784D01*
X187389853Y-64836354D01*
X187264354Y-64961853D01*
X187116784Y-65060456D01*
X186952812Y-65128376D01*
X186803512Y-65158073D01*
X186778742Y-65163000D01*
X186601258Y-65163000D01*
X186576488Y-65158073D01*
X186427188Y-65128376D01*
X186263216Y-65060456D01*
X186115646Y-64961853D01*
X185990147Y-64836354D01*
X185891544Y-64688784D01*
X185823624Y-64524812D01*
X185789000Y-64350741D01*
X185789000Y-64173259D01*
X185823624Y-63999188D01*
X185891544Y-63835216D01*
X185990147Y-63687646D01*
X186115646Y-63562147D01*
X186263216Y-63463544D01*
X186427188Y-63395624D01*
X186576488Y-63365927D01*
X186601258Y-63361000D01*
X186778742Y-63361000D01*
X186803512Y-63365927D01*
G37*
G36*
X186803512Y-60825927D02*
G01*
X186952812Y-60855624D01*
X187116784Y-60923544D01*
X187264354Y-61022147D01*
X187389853Y-61147646D01*
X187488456Y-61295216D01*
X187556376Y-61459188D01*
X187591000Y-61633259D01*
X187591000Y-61810741D01*
X187556376Y-61984812D01*
X187488456Y-62148784D01*
X187389853Y-62296354D01*
X187264354Y-62421853D01*
X187116784Y-62520456D01*
X186952812Y-62588376D01*
X186803512Y-62618073D01*
X186778742Y-62623000D01*
X186601258Y-62623000D01*
X186576488Y-62618073D01*
X186427188Y-62588376D01*
X186263216Y-62520456D01*
X186115646Y-62421853D01*
X185990147Y-62296354D01*
X185891544Y-62148784D01*
X185823624Y-61984812D01*
X185789000Y-61810741D01*
X185789000Y-61633259D01*
X185823624Y-61459188D01*
X185891544Y-61295216D01*
X185990147Y-61147646D01*
X186115646Y-61022147D01*
X186263216Y-60923544D01*
X186427188Y-60855624D01*
X186576488Y-60825927D01*
X186601258Y-60821000D01*
X186778742Y-60821000D01*
X186803512Y-60825927D01*
G37*
G36*
X98153338Y-57857739D02*
G01*
X98384440Y-57927843D01*
X98597425Y-58041686D01*
X98784107Y-58194893D01*
X98937314Y-58381575D01*
X99051157Y-58594560D01*
X99121261Y-58825662D01*
X99144932Y-59066000D01*
X99121261Y-59306338D01*
X99051157Y-59537440D01*
X98937314Y-59750425D01*
X98784107Y-59937107D01*
X98597425Y-60090314D01*
X98384440Y-60204157D01*
X98153338Y-60274261D01*
X97973229Y-60292000D01*
X97402771Y-60292000D01*
X97222662Y-60274261D01*
X96991560Y-60204157D01*
X96778575Y-60090314D01*
X96591893Y-59937107D01*
X96438686Y-59750425D01*
X96324843Y-59537440D01*
X96254739Y-59306338D01*
X96231068Y-59066000D01*
X96254739Y-58825662D01*
X96324843Y-58594560D01*
X96438686Y-58381575D01*
X96591893Y-58194893D01*
X96778575Y-58041686D01*
X96991560Y-57927843D01*
X97222662Y-57857739D01*
X97402771Y-57840000D01*
X97973229Y-57840000D01*
X98153338Y-57857739D01*
G37*
G36*
X155247338Y-57857739D02*
G01*
X155478440Y-57927843D01*
X155691425Y-58041686D01*
X155878107Y-58194893D01*
X156031314Y-58381575D01*
X156145157Y-58594560D01*
X156215261Y-58825662D01*
X156238932Y-59066000D01*
X156215261Y-59306338D01*
X156145157Y-59537440D01*
X156031314Y-59750425D01*
X155878107Y-59937107D01*
X155691425Y-60090314D01*
X155478440Y-60204157D01*
X155247338Y-60274261D01*
X155067229Y-60292000D01*
X154496771Y-60292000D01*
X154316662Y-60274261D01*
X154085560Y-60204157D01*
X153872575Y-60090314D01*
X153685893Y-59937107D01*
X153532686Y-59750425D01*
X153418843Y-59537440D01*
X153348739Y-59306338D01*
X153325068Y-59066000D01*
X153348739Y-58825662D01*
X153418843Y-58594560D01*
X153532686Y-58381575D01*
X153685893Y-58194893D01*
X153872575Y-58041686D01*
X154085560Y-57927843D01*
X154316662Y-57857739D01*
X154496771Y-57840000D01*
X155067229Y-57840000D01*
X155247338Y-57857739D01*
G37*
G36*
X144833338Y-57857739D02*
G01*
X145064440Y-57927843D01*
X145277425Y-58041686D01*
X145464107Y-58194893D01*
X145617314Y-58381575D01*
X145731157Y-58594560D01*
X145801261Y-58825662D01*
X145824932Y-59066000D01*
X145801261Y-59306338D01*
X145731157Y-59537440D01*
X145617314Y-59750425D01*
X145464107Y-59937107D01*
X145277425Y-60090314D01*
X145064440Y-60204157D01*
X144833338Y-60274261D01*
X144653229Y-60292000D01*
X144082771Y-60292000D01*
X143902662Y-60274261D01*
X143671560Y-60204157D01*
X143458575Y-60090314D01*
X143271893Y-59937107D01*
X143118686Y-59750425D01*
X143004843Y-59537440D01*
X142934739Y-59306338D01*
X142911068Y-59066000D01*
X142934739Y-58825662D01*
X143004843Y-58594560D01*
X143118686Y-58381575D01*
X143271893Y-58194893D01*
X143458575Y-58041686D01*
X143671560Y-57927843D01*
X143902662Y-57857739D01*
X144082771Y-57840000D01*
X144653229Y-57840000D01*
X144833338Y-57857739D01*
G37*
G36*
X77325338Y-57857739D02*
G01*
X77556440Y-57927843D01*
X77769425Y-58041686D01*
X77956107Y-58194893D01*
X78109314Y-58381575D01*
X78223157Y-58594560D01*
X78293261Y-58825662D01*
X78316932Y-59066000D01*
X78293261Y-59306338D01*
X78223157Y-59537440D01*
X78109314Y-59750425D01*
X77956107Y-59937107D01*
X77769425Y-60090314D01*
X77556440Y-60204157D01*
X77325338Y-60274261D01*
X77145229Y-60292000D01*
X76574771Y-60292000D01*
X76394662Y-60274261D01*
X76163560Y-60204157D01*
X75950575Y-60090314D01*
X75763893Y-59937107D01*
X75610686Y-59750425D01*
X75496843Y-59537440D01*
X75426739Y-59306338D01*
X75403068Y-59066000D01*
X75426739Y-58825662D01*
X75496843Y-58594560D01*
X75610686Y-58381575D01*
X75763893Y-58194893D01*
X75950575Y-58041686D01*
X76163560Y-57927843D01*
X76394662Y-57857739D01*
X76574771Y-57840000D01*
X77145229Y-57840000D01*
X77325338Y-57857739D01*
G37*
G36*
X66911338Y-57857739D02*
G01*
X67142440Y-57927843D01*
X67355425Y-58041686D01*
X67542107Y-58194893D01*
X67695314Y-58381575D01*
X67809157Y-58594560D01*
X67879261Y-58825662D01*
X67902932Y-59066000D01*
X67879261Y-59306338D01*
X67809157Y-59537440D01*
X67695314Y-59750425D01*
X67542107Y-59937107D01*
X67355425Y-60090314D01*
X67142440Y-60204157D01*
X66911338Y-60274261D01*
X66731229Y-60292000D01*
X66160771Y-60292000D01*
X65980662Y-60274261D01*
X65749560Y-60204157D01*
X65536575Y-60090314D01*
X65349893Y-59937107D01*
X65196686Y-59750425D01*
X65082843Y-59537440D01*
X65012739Y-59306338D01*
X64989068Y-59066000D01*
X65012739Y-58825662D01*
X65082843Y-58594560D01*
X65196686Y-58381575D01*
X65349893Y-58194893D01*
X65536575Y-58041686D01*
X65749560Y-57927843D01*
X65980662Y-57857739D01*
X66160771Y-57840000D01*
X66731229Y-57840000D01*
X66911338Y-57857739D01*
G37*
G36*
X124005338Y-57857739D02*
G01*
X124236440Y-57927843D01*
X124449425Y-58041686D01*
X124636107Y-58194893D01*
X124789314Y-58381575D01*
X124903157Y-58594560D01*
X124973261Y-58825662D01*
X124996932Y-59066000D01*
X124973261Y-59306338D01*
X124903157Y-59537440D01*
X124789314Y-59750425D01*
X124636107Y-59937107D01*
X124449425Y-60090314D01*
X124236440Y-60204157D01*
X124005338Y-60274261D01*
X123825229Y-60292000D01*
X123254771Y-60292000D01*
X123074662Y-60274261D01*
X122843560Y-60204157D01*
X122630575Y-60090314D01*
X122443893Y-59937107D01*
X122290686Y-59750425D01*
X122176843Y-59537440D01*
X122106739Y-59306338D01*
X122083068Y-59066000D01*
X122106739Y-58825662D01*
X122176843Y-58594560D01*
X122290686Y-58381575D01*
X122443893Y-58194893D01*
X122630575Y-58041686D01*
X122843560Y-57927843D01*
X123074662Y-57857739D01*
X123254771Y-57840000D01*
X123825229Y-57840000D01*
X124005338Y-57857739D01*
G37*
G36*
X134419338Y-57857739D02*
G01*
X134650440Y-57927843D01*
X134863425Y-58041686D01*
X135050107Y-58194893D01*
X135203314Y-58381575D01*
X135317157Y-58594560D01*
X135387261Y-58825662D01*
X135410932Y-59066000D01*
X135387261Y-59306338D01*
X135317157Y-59537440D01*
X135203314Y-59750425D01*
X135050107Y-59937107D01*
X134863425Y-60090314D01*
X134650440Y-60204157D01*
X134419338Y-60274261D01*
X134239229Y-60292000D01*
X133668771Y-60292000D01*
X133488662Y-60274261D01*
X133257560Y-60204157D01*
X133044575Y-60090314D01*
X132857893Y-59937107D01*
X132704686Y-59750425D01*
X132590843Y-59537440D01*
X132520739Y-59306338D01*
X132497068Y-59066000D01*
X132520739Y-58825662D01*
X132590843Y-58594560D01*
X132704686Y-58381575D01*
X132857893Y-58194893D01*
X133044575Y-58041686D01*
X133257560Y-57927843D01*
X133488662Y-57857739D01*
X133668771Y-57840000D01*
X134239229Y-57840000D01*
X134419338Y-57857739D01*
G37*
G36*
X87739338Y-57857739D02*
G01*
X87970440Y-57927843D01*
X88183425Y-58041686D01*
X88370107Y-58194893D01*
X88523314Y-58381575D01*
X88637157Y-58594560D01*
X88707261Y-58825662D01*
X88730932Y-59066000D01*
X88707261Y-59306338D01*
X88637157Y-59537440D01*
X88523314Y-59750425D01*
X88370107Y-59937107D01*
X88183425Y-60090314D01*
X87970440Y-60204157D01*
X87739338Y-60274261D01*
X87559229Y-60292000D01*
X86988771Y-60292000D01*
X86808662Y-60274261D01*
X86577560Y-60204157D01*
X86364575Y-60090314D01*
X86177893Y-59937107D01*
X86024686Y-59750425D01*
X85910843Y-59537440D01*
X85840739Y-59306338D01*
X85817068Y-59066000D01*
X85840739Y-58825662D01*
X85910843Y-58594560D01*
X86024686Y-58381575D01*
X86177893Y-58194893D01*
X86364575Y-58041686D01*
X86577560Y-57927843D01*
X86808662Y-57857739D01*
X86988771Y-57840000D01*
X87559229Y-57840000D01*
X87739338Y-57857739D01*
G37*
G36*
X186803512Y-58285927D02*
G01*
X186952812Y-58315624D01*
X187116784Y-58383544D01*
X187264354Y-58482147D01*
X187389853Y-58607646D01*
X187488456Y-58755216D01*
X187556376Y-58919188D01*
X187591000Y-59093259D01*
X187591000Y-59270741D01*
X187556376Y-59444812D01*
X187488456Y-59608784D01*
X187389853Y-59756354D01*
X187264354Y-59881853D01*
X187116784Y-59980456D01*
X186952812Y-60048376D01*
X186803512Y-60078073D01*
X186778742Y-60083000D01*
X186601258Y-60083000D01*
X186576488Y-60078073D01*
X186427188Y-60048376D01*
X186263216Y-59980456D01*
X186115646Y-59881853D01*
X185990147Y-59756354D01*
X185891544Y-59608784D01*
X185823624Y-59444812D01*
X185789000Y-59270741D01*
X185789000Y-59093259D01*
X185823624Y-58919188D01*
X185891544Y-58755216D01*
X185990147Y-58607646D01*
X186115646Y-58482147D01*
X186263216Y-58383544D01*
X186427188Y-58315624D01*
X186576488Y-58285927D01*
X186601258Y-58281000D01*
X186778742Y-58281000D01*
X186803512Y-58285927D01*
G37*
G36*
X124891000Y-57092000D02*
G01*
X122189000Y-57092000D01*
X122189000Y-54840000D01*
X124891000Y-54840000D01*
X124891000Y-57092000D01*
G37*
G36*
X67797000Y-57092000D02*
G01*
X65095000Y-57092000D01*
X65095000Y-54840000D01*
X67797000Y-54840000D01*
X67797000Y-57092000D01*
G37*
G36*
X78211000Y-57092000D02*
G01*
X75509000Y-57092000D01*
X75509000Y-54840000D01*
X78211000Y-54840000D01*
X78211000Y-57092000D01*
G37*
G36*
X88625000Y-57092000D02*
G01*
X85923000Y-57092000D01*
X85923000Y-54840000D01*
X88625000Y-54840000D01*
X88625000Y-57092000D01*
G37*
G36*
X99039000Y-57092000D02*
G01*
X96337000Y-57092000D01*
X96337000Y-54840000D01*
X99039000Y-54840000D01*
X99039000Y-57092000D01*
G37*
G36*
X156133000Y-57092000D02*
G01*
X153431000Y-57092000D01*
X153431000Y-54840000D01*
X156133000Y-54840000D01*
X156133000Y-57092000D01*
G37*
G36*
X145719000Y-57092000D02*
G01*
X143017000Y-57092000D01*
X143017000Y-54840000D01*
X145719000Y-54840000D01*
X145719000Y-57092000D01*
G37*
G36*
X135305000Y-57092000D02*
G01*
X132603000Y-57092000D01*
X132603000Y-54840000D01*
X135305000Y-54840000D01*
X135305000Y-57092000D01*
G37*
G36*
X193153512Y-54475927D02*
G01*
X193302812Y-54505624D01*
X193466784Y-54573544D01*
X193614354Y-54672147D01*
X193739853Y-54797646D01*
X193838456Y-54945216D01*
X193906376Y-55109188D01*
X193941000Y-55283259D01*
X193941000Y-55460741D01*
X193906376Y-55634812D01*
X193838456Y-55798784D01*
X193739853Y-55946354D01*
X193614354Y-56071853D01*
X193466784Y-56170456D01*
X193302812Y-56238376D01*
X193153512Y-56268073D01*
X193128742Y-56273000D01*
X192951258Y-56273000D01*
X192926488Y-56268073D01*
X192777188Y-56238376D01*
X192613216Y-56170456D01*
X192465646Y-56071853D01*
X192340147Y-55946354D01*
X192241544Y-55798784D01*
X192173624Y-55634812D01*
X192139000Y-55460741D01*
X192139000Y-55283259D01*
X192173624Y-55109188D01*
X192241544Y-54945216D01*
X192340147Y-54797646D01*
X192465646Y-54672147D01*
X192613216Y-54573544D01*
X192777188Y-54505624D01*
X192926488Y-54475927D01*
X192951258Y-54471000D01*
X193128742Y-54471000D01*
X193153512Y-54475927D01*
G37*
G36*
X195693512Y-54475927D02*
G01*
X195842812Y-54505624D01*
X196006784Y-54573544D01*
X196154354Y-54672147D01*
X196279853Y-54797646D01*
X196378456Y-54945216D01*
X196446376Y-55109188D01*
X196481000Y-55283259D01*
X196481000Y-55460741D01*
X196446376Y-55634812D01*
X196378456Y-55798784D01*
X196279853Y-55946354D01*
X196154354Y-56071853D01*
X196006784Y-56170456D01*
X195842812Y-56238376D01*
X195693512Y-56268073D01*
X195668742Y-56273000D01*
X195491258Y-56273000D01*
X195466488Y-56268073D01*
X195317188Y-56238376D01*
X195153216Y-56170456D01*
X195005646Y-56071853D01*
X194880147Y-55946354D01*
X194781544Y-55798784D01*
X194713624Y-55634812D01*
X194679000Y-55460741D01*
X194679000Y-55283259D01*
X194713624Y-55109188D01*
X194781544Y-54945216D01*
X194880147Y-54797646D01*
X195005646Y-54672147D01*
X195153216Y-54573544D01*
X195317188Y-54505624D01*
X195466488Y-54475927D01*
X195491258Y-54471000D01*
X195668742Y-54471000D01*
X195693512Y-54475927D01*
G37*
G36*
X190613512Y-54475927D02*
G01*
X190762812Y-54505624D01*
X190926784Y-54573544D01*
X191074354Y-54672147D01*
X191199853Y-54797646D01*
X191298456Y-54945216D01*
X191366376Y-55109188D01*
X191401000Y-55283259D01*
X191401000Y-55460741D01*
X191366376Y-55634812D01*
X191298456Y-55798784D01*
X191199853Y-55946354D01*
X191074354Y-56071853D01*
X190926784Y-56170456D01*
X190762812Y-56238376D01*
X190613512Y-56268073D01*
X190588742Y-56273000D01*
X190411258Y-56273000D01*
X190386488Y-56268073D01*
X190237188Y-56238376D01*
X190073216Y-56170456D01*
X189925646Y-56071853D01*
X189800147Y-55946354D01*
X189701544Y-55798784D01*
X189633624Y-55634812D01*
X189599000Y-55460741D01*
X189599000Y-55283259D01*
X189633624Y-55109188D01*
X189701544Y-54945216D01*
X189800147Y-54797646D01*
X189925646Y-54672147D01*
X190073216Y-54573544D01*
X190237188Y-54505624D01*
X190386488Y-54475927D01*
X190411258Y-54471000D01*
X190588742Y-54471000D01*
X190613512Y-54475927D01*
G37*
G36*
X188073512Y-54475927D02*
G01*
X188222812Y-54505624D01*
X188386784Y-54573544D01*
X188534354Y-54672147D01*
X188659853Y-54797646D01*
X188758456Y-54945216D01*
X188826376Y-55109188D01*
X188861000Y-55283259D01*
X188861000Y-55460741D01*
X188826376Y-55634812D01*
X188758456Y-55798784D01*
X188659853Y-55946354D01*
X188534354Y-56071853D01*
X188386784Y-56170456D01*
X188222812Y-56238376D01*
X188073512Y-56268073D01*
X188048742Y-56273000D01*
X187871258Y-56273000D01*
X187846488Y-56268073D01*
X187697188Y-56238376D01*
X187533216Y-56170456D01*
X187385646Y-56071853D01*
X187260147Y-55946354D01*
X187161544Y-55798784D01*
X187093624Y-55634812D01*
X187059000Y-55460741D01*
X187059000Y-55283259D01*
X187093624Y-55109188D01*
X187161544Y-54945216D01*
X187260147Y-54797646D01*
X187385646Y-54672147D01*
X187533216Y-54573544D01*
X187697188Y-54505624D01*
X187846488Y-54475927D01*
X187871258Y-54471000D01*
X188048742Y-54471000D01*
X188073512Y-54475927D01*
G37*
G36*
X185533512Y-54475927D02*
G01*
X185682812Y-54505624D01*
X185846784Y-54573544D01*
X185994354Y-54672147D01*
X186119853Y-54797646D01*
X186218456Y-54945216D01*
X186286376Y-55109188D01*
X186321000Y-55283259D01*
X186321000Y-55460741D01*
X186286376Y-55634812D01*
X186218456Y-55798784D01*
X186119853Y-55946354D01*
X185994354Y-56071853D01*
X185846784Y-56170456D01*
X185682812Y-56238376D01*
X185533512Y-56268073D01*
X185508742Y-56273000D01*
X185331258Y-56273000D01*
X185306488Y-56268073D01*
X185157188Y-56238376D01*
X184993216Y-56170456D01*
X184845646Y-56071853D01*
X184720147Y-55946354D01*
X184621544Y-55798784D01*
X184553624Y-55634812D01*
X184519000Y-55460741D01*
X184519000Y-55283259D01*
X184553624Y-55109188D01*
X184621544Y-54945216D01*
X184720147Y-54797646D01*
X184845646Y-54672147D01*
X184993216Y-54573544D01*
X185157188Y-54505624D01*
X185306488Y-54475927D01*
X185331258Y-54471000D01*
X185508742Y-54471000D01*
X185533512Y-54475927D01*
G37*
G36*
X183781000Y-56273000D02*
G01*
X181979000Y-56273000D01*
X181979000Y-54471000D01*
X183781000Y-54471000D01*
X183781000Y-56273000D01*
G37*
G36*
X125431512Y-48211927D02*
G01*
X125580812Y-48241624D01*
X125744784Y-48309544D01*
X125892354Y-48408147D01*
X126017853Y-48533646D01*
X126116456Y-48681216D01*
X126184376Y-48845188D01*
X126219000Y-49019259D01*
X126219000Y-49196741D01*
X126184376Y-49370812D01*
X126116456Y-49534784D01*
X126017853Y-49682354D01*
X125892354Y-49807853D01*
X125744784Y-49906456D01*
X125580812Y-49974376D01*
X125431512Y-50004073D01*
X125406742Y-50009000D01*
X125229258Y-50009000D01*
X125204488Y-50004073D01*
X125055188Y-49974376D01*
X124891216Y-49906456D01*
X124743646Y-49807853D01*
X124618147Y-49682354D01*
X124519544Y-49534784D01*
X124451624Y-49370812D01*
X124417000Y-49196741D01*
X124417000Y-49019259D01*
X124451624Y-48845188D01*
X124519544Y-48681216D01*
X124618147Y-48533646D01*
X124743646Y-48408147D01*
X124891216Y-48309544D01*
X125055188Y-48241624D01*
X125204488Y-48211927D01*
X125229258Y-48207000D01*
X125406742Y-48207000D01*
X125431512Y-48211927D01*
G37*
G36*
X127971512Y-48211927D02*
G01*
X128120812Y-48241624D01*
X128284784Y-48309544D01*
X128432354Y-48408147D01*
X128557853Y-48533646D01*
X128656456Y-48681216D01*
X128724376Y-48845188D01*
X128759000Y-49019259D01*
X128759000Y-49196741D01*
X128724376Y-49370812D01*
X128656456Y-49534784D01*
X128557853Y-49682354D01*
X128432354Y-49807853D01*
X128284784Y-49906456D01*
X128120812Y-49974376D01*
X127971512Y-50004073D01*
X127946742Y-50009000D01*
X127769258Y-50009000D01*
X127744488Y-50004073D01*
X127595188Y-49974376D01*
X127431216Y-49906456D01*
X127283646Y-49807853D01*
X127158147Y-49682354D01*
X127059544Y-49534784D01*
X126991624Y-49370812D01*
X126957000Y-49196741D01*
X126957000Y-49019259D01*
X126991624Y-48845188D01*
X127059544Y-48681216D01*
X127158147Y-48533646D01*
X127283646Y-48408147D01*
X127431216Y-48309544D01*
X127595188Y-48241624D01*
X127744488Y-48211927D01*
X127769258Y-48207000D01*
X127946742Y-48207000D01*
X127971512Y-48211927D01*
G37*
G36*
X130511512Y-48211927D02*
G01*
X130660812Y-48241624D01*
X130824784Y-48309544D01*
X130972354Y-48408147D01*
X131097853Y-48533646D01*
X131196456Y-48681216D01*
X131264376Y-48845188D01*
X131299000Y-49019259D01*
X131299000Y-49196741D01*
X131264376Y-49370812D01*
X131196456Y-49534784D01*
X131097853Y-49682354D01*
X130972354Y-49807853D01*
X130824784Y-49906456D01*
X130660812Y-49974376D01*
X130511512Y-50004073D01*
X130486742Y-50009000D01*
X130309258Y-50009000D01*
X130284488Y-50004073D01*
X130135188Y-49974376D01*
X129971216Y-49906456D01*
X129823646Y-49807853D01*
X129698147Y-49682354D01*
X129599544Y-49534784D01*
X129531624Y-49370812D01*
X129497000Y-49196741D01*
X129497000Y-49019259D01*
X129531624Y-48845188D01*
X129599544Y-48681216D01*
X129698147Y-48533646D01*
X129823646Y-48408147D01*
X129971216Y-48309544D01*
X130135188Y-48241624D01*
X130284488Y-48211927D01*
X130309258Y-48207000D01*
X130486742Y-48207000D01*
X130511512Y-48211927D01*
G37*
G36*
X133051512Y-48211927D02*
G01*
X133200812Y-48241624D01*
X133364784Y-48309544D01*
X133512354Y-48408147D01*
X133637853Y-48533646D01*
X133736456Y-48681216D01*
X133804376Y-48845188D01*
X133839000Y-49019259D01*
X133839000Y-49196741D01*
X133804376Y-49370812D01*
X133736456Y-49534784D01*
X133637853Y-49682354D01*
X133512354Y-49807853D01*
X133364784Y-49906456D01*
X133200812Y-49974376D01*
X133051512Y-50004073D01*
X133026742Y-50009000D01*
X132849258Y-50009000D01*
X132824488Y-50004073D01*
X132675188Y-49974376D01*
X132511216Y-49906456D01*
X132363646Y-49807853D01*
X132238147Y-49682354D01*
X132139544Y-49534784D01*
X132071624Y-49370812D01*
X132037000Y-49196741D01*
X132037000Y-49019259D01*
X132071624Y-48845188D01*
X132139544Y-48681216D01*
X132238147Y-48533646D01*
X132363646Y-48408147D01*
X132511216Y-48309544D01*
X132675188Y-48241624D01*
X132824488Y-48211927D01*
X132849258Y-48207000D01*
X133026742Y-48207000D01*
X133051512Y-48211927D01*
G37*
G36*
X138131512Y-48211927D02*
G01*
X138280812Y-48241624D01*
X138444784Y-48309544D01*
X138592354Y-48408147D01*
X138717853Y-48533646D01*
X138816456Y-48681216D01*
X138884376Y-48845188D01*
X138919000Y-49019259D01*
X138919000Y-49196741D01*
X138884376Y-49370812D01*
X138816456Y-49534784D01*
X138717853Y-49682354D01*
X138592354Y-49807853D01*
X138444784Y-49906456D01*
X138280812Y-49974376D01*
X138131512Y-50004073D01*
X138106742Y-50009000D01*
X137929258Y-50009000D01*
X137904488Y-50004073D01*
X137755188Y-49974376D01*
X137591216Y-49906456D01*
X137443646Y-49807853D01*
X137318147Y-49682354D01*
X137219544Y-49534784D01*
X137151624Y-49370812D01*
X137117000Y-49196741D01*
X137117000Y-49019259D01*
X137151624Y-48845188D01*
X137219544Y-48681216D01*
X137318147Y-48533646D01*
X137443646Y-48408147D01*
X137591216Y-48309544D01*
X137755188Y-48241624D01*
X137904488Y-48211927D01*
X137929258Y-48207000D01*
X138106742Y-48207000D01*
X138131512Y-48211927D01*
G37*
G36*
X80783512Y-48211927D02*
G01*
X80932812Y-48241624D01*
X81096784Y-48309544D01*
X81244354Y-48408147D01*
X81369853Y-48533646D01*
X81468456Y-48681216D01*
X81536376Y-48845188D01*
X81571000Y-49019259D01*
X81571000Y-49196741D01*
X81536376Y-49370812D01*
X81468456Y-49534784D01*
X81369853Y-49682354D01*
X81244354Y-49807853D01*
X81096784Y-49906456D01*
X80932812Y-49974376D01*
X80783512Y-50004073D01*
X80758742Y-50009000D01*
X80581258Y-50009000D01*
X80556488Y-50004073D01*
X80407188Y-49974376D01*
X80243216Y-49906456D01*
X80095646Y-49807853D01*
X79970147Y-49682354D01*
X79871544Y-49534784D01*
X79803624Y-49370812D01*
X79769000Y-49196741D01*
X79769000Y-49019259D01*
X79803624Y-48845188D01*
X79871544Y-48681216D01*
X79970147Y-48533646D01*
X80095646Y-48408147D01*
X80243216Y-48309544D01*
X80407188Y-48241624D01*
X80556488Y-48211927D01*
X80581258Y-48207000D01*
X80758742Y-48207000D01*
X80783512Y-48211927D01*
G37*
G36*
X94245512Y-48211927D02*
G01*
X94394812Y-48241624D01*
X94558784Y-48309544D01*
X94706354Y-48408147D01*
X94831853Y-48533646D01*
X94930456Y-48681216D01*
X94998376Y-48845188D01*
X95033000Y-49019259D01*
X95033000Y-49196741D01*
X94998376Y-49370812D01*
X94930456Y-49534784D01*
X94831853Y-49682354D01*
X94706354Y-49807853D01*
X94558784Y-49906456D01*
X94394812Y-49974376D01*
X94245512Y-50004073D01*
X94220742Y-50009000D01*
X94043258Y-50009000D01*
X94018488Y-50004073D01*
X93869188Y-49974376D01*
X93705216Y-49906456D01*
X93557646Y-49807853D01*
X93432147Y-49682354D01*
X93333544Y-49534784D01*
X93265624Y-49370812D01*
X93231000Y-49196741D01*
X93231000Y-49019259D01*
X93265624Y-48845188D01*
X93333544Y-48681216D01*
X93432147Y-48533646D01*
X93557646Y-48408147D01*
X93705216Y-48309544D01*
X93869188Y-48241624D01*
X94018488Y-48211927D01*
X94043258Y-48207000D01*
X94220742Y-48207000D01*
X94245512Y-48211927D01*
G37*
G36*
X87413000Y-50009000D02*
G01*
X85611000Y-50009000D01*
X85611000Y-48207000D01*
X87413000Y-48207000D01*
X87413000Y-50009000D01*
G37*
G36*
X121139000Y-50009000D02*
G01*
X119337000Y-50009000D01*
X119337000Y-48207000D01*
X121139000Y-48207000D01*
X121139000Y-50009000D01*
G37*
G36*
X135591512Y-48211927D02*
G01*
X135740812Y-48241624D01*
X135904784Y-48309544D01*
X136052354Y-48408147D01*
X136177853Y-48533646D01*
X136276456Y-48681216D01*
X136344376Y-48845188D01*
X136379000Y-49019259D01*
X136379000Y-49196741D01*
X136344376Y-49370812D01*
X136276456Y-49534784D01*
X136177853Y-49682354D01*
X136052354Y-49807853D01*
X135904784Y-49906456D01*
X135740812Y-49974376D01*
X135591512Y-50004073D01*
X135566742Y-50009000D01*
X135389258Y-50009000D01*
X135364488Y-50004073D01*
X135215188Y-49974376D01*
X135051216Y-49906456D01*
X134903646Y-49807853D01*
X134778147Y-49682354D01*
X134679544Y-49534784D01*
X134611624Y-49370812D01*
X134577000Y-49196741D01*
X134577000Y-49019259D01*
X134611624Y-48845188D01*
X134679544Y-48681216D01*
X134778147Y-48533646D01*
X134903646Y-48408147D01*
X135051216Y-48309544D01*
X135215188Y-48241624D01*
X135364488Y-48211927D01*
X135389258Y-48207000D01*
X135566742Y-48207000D01*
X135591512Y-48211927D01*
G37*
G36*
X78243512Y-48211927D02*
G01*
X78392812Y-48241624D01*
X78556784Y-48309544D01*
X78704354Y-48408147D01*
X78829853Y-48533646D01*
X78928456Y-48681216D01*
X78996376Y-48845188D01*
X79031000Y-49019259D01*
X79031000Y-49196741D01*
X78996376Y-49370812D01*
X78928456Y-49534784D01*
X78829853Y-49682354D01*
X78704354Y-49807853D01*
X78556784Y-49906456D01*
X78392812Y-49974376D01*
X78243512Y-50004073D01*
X78218742Y-50009000D01*
X78041258Y-50009000D01*
X78016488Y-50004073D01*
X77867188Y-49974376D01*
X77703216Y-49906456D01*
X77555646Y-49807853D01*
X77430147Y-49682354D01*
X77331544Y-49534784D01*
X77263624Y-49370812D01*
X77229000Y-49196741D01*
X77229000Y-49019259D01*
X77263624Y-48845188D01*
X77331544Y-48681216D01*
X77430147Y-48533646D01*
X77555646Y-48408147D01*
X77703216Y-48309544D01*
X77867188Y-48241624D01*
X78016488Y-48211927D01*
X78041258Y-48207000D01*
X78218742Y-48207000D01*
X78243512Y-48211927D01*
G37*
G36*
X75703512Y-48211927D02*
G01*
X75852812Y-48241624D01*
X76016784Y-48309544D01*
X76164354Y-48408147D01*
X76289853Y-48533646D01*
X76388456Y-48681216D01*
X76456376Y-48845188D01*
X76491000Y-49019259D01*
X76491000Y-49196741D01*
X76456376Y-49370812D01*
X76388456Y-49534784D01*
X76289853Y-49682354D01*
X76164354Y-49807853D01*
X76016784Y-49906456D01*
X75852812Y-49974376D01*
X75703512Y-50004073D01*
X75678742Y-50009000D01*
X75501258Y-50009000D01*
X75476488Y-50004073D01*
X75327188Y-49974376D01*
X75163216Y-49906456D01*
X75015646Y-49807853D01*
X74890147Y-49682354D01*
X74791544Y-49534784D01*
X74723624Y-49370812D01*
X74689000Y-49196741D01*
X74689000Y-49019259D01*
X74723624Y-48845188D01*
X74791544Y-48681216D01*
X74890147Y-48533646D01*
X75015646Y-48408147D01*
X75163216Y-48309544D01*
X75327188Y-48241624D01*
X75476488Y-48211927D01*
X75501258Y-48207000D01*
X75678742Y-48207000D01*
X75703512Y-48211927D01*
G37*
G36*
X70623512Y-48211927D02*
G01*
X70772812Y-48241624D01*
X70936784Y-48309544D01*
X71084354Y-48408147D01*
X71209853Y-48533646D01*
X71308456Y-48681216D01*
X71376376Y-48845188D01*
X71411000Y-49019259D01*
X71411000Y-49196741D01*
X71376376Y-49370812D01*
X71308456Y-49534784D01*
X71209853Y-49682354D01*
X71084354Y-49807853D01*
X70936784Y-49906456D01*
X70772812Y-49974376D01*
X70623512Y-50004073D01*
X70598742Y-50009000D01*
X70421258Y-50009000D01*
X70396488Y-50004073D01*
X70247188Y-49974376D01*
X70083216Y-49906456D01*
X69935646Y-49807853D01*
X69810147Y-49682354D01*
X69711544Y-49534784D01*
X69643624Y-49370812D01*
X69609000Y-49196741D01*
X69609000Y-49019259D01*
X69643624Y-48845188D01*
X69711544Y-48681216D01*
X69810147Y-48533646D01*
X69935646Y-48408147D01*
X70083216Y-48309544D01*
X70247188Y-48241624D01*
X70396488Y-48211927D01*
X70421258Y-48207000D01*
X70598742Y-48207000D01*
X70623512Y-48211927D01*
G37*
G36*
X73163512Y-48211927D02*
G01*
X73312812Y-48241624D01*
X73476784Y-48309544D01*
X73624354Y-48408147D01*
X73749853Y-48533646D01*
X73848456Y-48681216D01*
X73916376Y-48845188D01*
X73951000Y-49019259D01*
X73951000Y-49196741D01*
X73916376Y-49370812D01*
X73848456Y-49534784D01*
X73749853Y-49682354D01*
X73624354Y-49807853D01*
X73476784Y-49906456D01*
X73312812Y-49974376D01*
X73163512Y-50004073D01*
X73138742Y-50009000D01*
X72961258Y-50009000D01*
X72936488Y-50004073D01*
X72787188Y-49974376D01*
X72623216Y-49906456D01*
X72475646Y-49807853D01*
X72350147Y-49682354D01*
X72251544Y-49534784D01*
X72183624Y-49370812D01*
X72149000Y-49196741D01*
X72149000Y-49019259D01*
X72183624Y-48845188D01*
X72251544Y-48681216D01*
X72350147Y-48533646D01*
X72475646Y-48408147D01*
X72623216Y-48309544D01*
X72787188Y-48241624D01*
X72936488Y-48211927D01*
X72961258Y-48207000D01*
X73138742Y-48207000D01*
X73163512Y-48211927D01*
G37*
G36*
X63791000Y-50009000D02*
G01*
X61989000Y-50009000D01*
X61989000Y-48207000D01*
X63791000Y-48207000D01*
X63791000Y-50009000D01*
G37*
G36*
X65543512Y-48211927D02*
G01*
X65692812Y-48241624D01*
X65856784Y-48309544D01*
X66004354Y-48408147D01*
X66129853Y-48533646D01*
X66228456Y-48681216D01*
X66296376Y-48845188D01*
X66331000Y-49019259D01*
X66331000Y-49196741D01*
X66296376Y-49370812D01*
X66228456Y-49534784D01*
X66129853Y-49682354D01*
X66004354Y-49807853D01*
X65856784Y-49906456D01*
X65692812Y-49974376D01*
X65543512Y-50004073D01*
X65518742Y-50009000D01*
X65341258Y-50009000D01*
X65316488Y-50004073D01*
X65167188Y-49974376D01*
X65003216Y-49906456D01*
X64855646Y-49807853D01*
X64730147Y-49682354D01*
X64631544Y-49534784D01*
X64563624Y-49370812D01*
X64529000Y-49196741D01*
X64529000Y-49019259D01*
X64563624Y-48845188D01*
X64631544Y-48681216D01*
X64730147Y-48533646D01*
X64855646Y-48408147D01*
X65003216Y-48309544D01*
X65167188Y-48241624D01*
X65316488Y-48211927D01*
X65341258Y-48207000D01*
X65518742Y-48207000D01*
X65543512Y-48211927D01*
G37*
G36*
X122891512Y-48211927D02*
G01*
X123040812Y-48241624D01*
X123204784Y-48309544D01*
X123352354Y-48408147D01*
X123477853Y-48533646D01*
X123576456Y-48681216D01*
X123644376Y-48845188D01*
X123679000Y-49019259D01*
X123679000Y-49196741D01*
X123644376Y-49370812D01*
X123576456Y-49534784D01*
X123477853Y-49682354D01*
X123352354Y-49807853D01*
X123204784Y-49906456D01*
X123040812Y-49974376D01*
X122891512Y-50004073D01*
X122866742Y-50009000D01*
X122689258Y-50009000D01*
X122664488Y-50004073D01*
X122515188Y-49974376D01*
X122351216Y-49906456D01*
X122203646Y-49807853D01*
X122078147Y-49682354D01*
X121979544Y-49534784D01*
X121911624Y-49370812D01*
X121877000Y-49196741D01*
X121877000Y-49019259D01*
X121911624Y-48845188D01*
X121979544Y-48681216D01*
X122078147Y-48533646D01*
X122203646Y-48408147D01*
X122351216Y-48309544D01*
X122515188Y-48241624D01*
X122664488Y-48211927D01*
X122689258Y-48207000D01*
X122866742Y-48207000D01*
X122891512Y-48211927D01*
G37*
G36*
X152101512Y-48211927D02*
G01*
X152250812Y-48241624D01*
X152414784Y-48309544D01*
X152562354Y-48408147D01*
X152687853Y-48533646D01*
X152786456Y-48681216D01*
X152854376Y-48845188D01*
X152889000Y-49019259D01*
X152889000Y-49196741D01*
X152854376Y-49370812D01*
X152786456Y-49534784D01*
X152687853Y-49682354D01*
X152562354Y-49807853D01*
X152414784Y-49906456D01*
X152250812Y-49974376D01*
X152101512Y-50004073D01*
X152076742Y-50009000D01*
X151899258Y-50009000D01*
X151874488Y-50004073D01*
X151725188Y-49974376D01*
X151561216Y-49906456D01*
X151413646Y-49807853D01*
X151288147Y-49682354D01*
X151189544Y-49534784D01*
X151121624Y-49370812D01*
X151087000Y-49196741D01*
X151087000Y-49019259D01*
X151121624Y-48845188D01*
X151189544Y-48681216D01*
X151288147Y-48533646D01*
X151413646Y-48408147D01*
X151561216Y-48309544D01*
X151725188Y-48241624D01*
X151874488Y-48211927D01*
X151899258Y-48207000D01*
X152076742Y-48207000D01*
X152101512Y-48211927D01*
G37*
G36*
X149561512Y-48211927D02*
G01*
X149710812Y-48241624D01*
X149874784Y-48309544D01*
X150022354Y-48408147D01*
X150147853Y-48533646D01*
X150246456Y-48681216D01*
X150314376Y-48845188D01*
X150349000Y-49019259D01*
X150349000Y-49196741D01*
X150314376Y-49370812D01*
X150246456Y-49534784D01*
X150147853Y-49682354D01*
X150022354Y-49807853D01*
X149874784Y-49906456D01*
X149710812Y-49974376D01*
X149561512Y-50004073D01*
X149536742Y-50009000D01*
X149359258Y-50009000D01*
X149334488Y-50004073D01*
X149185188Y-49974376D01*
X149021216Y-49906456D01*
X148873646Y-49807853D01*
X148748147Y-49682354D01*
X148649544Y-49534784D01*
X148581624Y-49370812D01*
X148547000Y-49196741D01*
X148547000Y-49019259D01*
X148581624Y-48845188D01*
X148649544Y-48681216D01*
X148748147Y-48533646D01*
X148873646Y-48408147D01*
X149021216Y-48309544D01*
X149185188Y-48241624D01*
X149334488Y-48211927D01*
X149359258Y-48207000D01*
X149536742Y-48207000D01*
X149561512Y-48211927D01*
G37*
G36*
X147021512Y-48211927D02*
G01*
X147170812Y-48241624D01*
X147334784Y-48309544D01*
X147482354Y-48408147D01*
X147607853Y-48533646D01*
X147706456Y-48681216D01*
X147774376Y-48845188D01*
X147809000Y-49019259D01*
X147809000Y-49196741D01*
X147774376Y-49370812D01*
X147706456Y-49534784D01*
X147607853Y-49682354D01*
X147482354Y-49807853D01*
X147334784Y-49906456D01*
X147170812Y-49974376D01*
X147021512Y-50004073D01*
X146996742Y-50009000D01*
X146819258Y-50009000D01*
X146794488Y-50004073D01*
X146645188Y-49974376D01*
X146481216Y-49906456D01*
X146333646Y-49807853D01*
X146208147Y-49682354D01*
X146109544Y-49534784D01*
X146041624Y-49370812D01*
X146007000Y-49196741D01*
X146007000Y-49019259D01*
X146041624Y-48845188D01*
X146109544Y-48681216D01*
X146208147Y-48533646D01*
X146333646Y-48408147D01*
X146481216Y-48309544D01*
X146645188Y-48241624D01*
X146794488Y-48211927D01*
X146819258Y-48207000D01*
X146996742Y-48207000D01*
X147021512Y-48211927D01*
G37*
G36*
X145269000Y-50009000D02*
G01*
X143467000Y-50009000D01*
X143467000Y-48207000D01*
X145269000Y-48207000D01*
X145269000Y-50009000D01*
G37*
G36*
X89165512Y-48211927D02*
G01*
X89314812Y-48241624D01*
X89478784Y-48309544D01*
X89626354Y-48408147D01*
X89751853Y-48533646D01*
X89850456Y-48681216D01*
X89918376Y-48845188D01*
X89953000Y-49019259D01*
X89953000Y-49196741D01*
X89918376Y-49370812D01*
X89850456Y-49534784D01*
X89751853Y-49682354D01*
X89626354Y-49807853D01*
X89478784Y-49906456D01*
X89314812Y-49974376D01*
X89165512Y-50004073D01*
X89140742Y-50009000D01*
X88963258Y-50009000D01*
X88938488Y-50004073D01*
X88789188Y-49974376D01*
X88625216Y-49906456D01*
X88477646Y-49807853D01*
X88352147Y-49682354D01*
X88253544Y-49534784D01*
X88185624Y-49370812D01*
X88151000Y-49196741D01*
X88151000Y-49019259D01*
X88185624Y-48845188D01*
X88253544Y-48681216D01*
X88352147Y-48533646D01*
X88477646Y-48408147D01*
X88625216Y-48309544D01*
X88789188Y-48241624D01*
X88938488Y-48211927D01*
X88963258Y-48207000D01*
X89140742Y-48207000D01*
X89165512Y-48211927D01*
G37*
G36*
X91705512Y-48211927D02*
G01*
X91854812Y-48241624D01*
X92018784Y-48309544D01*
X92166354Y-48408147D01*
X92291853Y-48533646D01*
X92390456Y-48681216D01*
X92458376Y-48845188D01*
X92493000Y-49019259D01*
X92493000Y-49196741D01*
X92458376Y-49370812D01*
X92390456Y-49534784D01*
X92291853Y-49682354D01*
X92166354Y-49807853D01*
X92018784Y-49906456D01*
X91854812Y-49974376D01*
X91705512Y-50004073D01*
X91680742Y-50009000D01*
X91503258Y-50009000D01*
X91478488Y-50004073D01*
X91329188Y-49974376D01*
X91165216Y-49906456D01*
X91017646Y-49807853D01*
X90892147Y-49682354D01*
X90793544Y-49534784D01*
X90725624Y-49370812D01*
X90691000Y-49196741D01*
X90691000Y-49019259D01*
X90725624Y-48845188D01*
X90793544Y-48681216D01*
X90892147Y-48533646D01*
X91017646Y-48408147D01*
X91165216Y-48309544D01*
X91329188Y-48241624D01*
X91478488Y-48211927D01*
X91503258Y-48207000D01*
X91680742Y-48207000D01*
X91705512Y-48211927D01*
G37*
G36*
X68083512Y-48211927D02*
G01*
X68232812Y-48241624D01*
X68396784Y-48309544D01*
X68544354Y-48408147D01*
X68669853Y-48533646D01*
X68768456Y-48681216D01*
X68836376Y-48845188D01*
X68871000Y-49019259D01*
X68871000Y-49196741D01*
X68836376Y-49370812D01*
X68768456Y-49534784D01*
X68669853Y-49682354D01*
X68544354Y-49807853D01*
X68396784Y-49906456D01*
X68232812Y-49974376D01*
X68083512Y-50004073D01*
X68058742Y-50009000D01*
X67881258Y-50009000D01*
X67856488Y-50004073D01*
X67707188Y-49974376D01*
X67543216Y-49906456D01*
X67395646Y-49807853D01*
X67270147Y-49682354D01*
X67171544Y-49534784D01*
X67103624Y-49370812D01*
X67069000Y-49196741D01*
X67069000Y-49019259D01*
X67103624Y-48845188D01*
X67171544Y-48681216D01*
X67270147Y-48533646D01*
X67395646Y-48408147D01*
X67543216Y-48309544D01*
X67707188Y-48241624D01*
X67856488Y-48211927D01*
X67881258Y-48207000D01*
X68058742Y-48207000D01*
X68083512Y-48211927D01*
G37*
G36*
X88053512Y-34443927D02*
G01*
X88202812Y-34473624D01*
X88366784Y-34541544D01*
X88514354Y-34640147D01*
X88639853Y-34765646D01*
X88738456Y-34913216D01*
X88806376Y-35077188D01*
X88841000Y-35251259D01*
X88841000Y-35428741D01*
X88806376Y-35602812D01*
X88738456Y-35766784D01*
X88639853Y-35914354D01*
X88514354Y-36039853D01*
X88366784Y-36138456D01*
X88202812Y-36206376D01*
X88053512Y-36236073D01*
X88028742Y-36241000D01*
X87851258Y-36241000D01*
X87826488Y-36236073D01*
X87677188Y-36206376D01*
X87513216Y-36138456D01*
X87365646Y-36039853D01*
X87240147Y-35914354D01*
X87141544Y-35766784D01*
X87073624Y-35602812D01*
X87039000Y-35428741D01*
X87039000Y-35251259D01*
X87073624Y-35077188D01*
X87141544Y-34913216D01*
X87240147Y-34765646D01*
X87365646Y-34640147D01*
X87513216Y-34541544D01*
X87677188Y-34473624D01*
X87826488Y-34443927D01*
X87851258Y-34439000D01*
X88028742Y-34439000D01*
X88053512Y-34443927D01*
G37*
G36*
X90593512Y-34443927D02*
G01*
X90742812Y-34473624D01*
X90906784Y-34541544D01*
X91054354Y-34640147D01*
X91179853Y-34765646D01*
X91278456Y-34913216D01*
X91346376Y-35077188D01*
X91381000Y-35251259D01*
X91381000Y-35428741D01*
X91346376Y-35602812D01*
X91278456Y-35766784D01*
X91179853Y-35914354D01*
X91054354Y-36039853D01*
X90906784Y-36138456D01*
X90742812Y-36206376D01*
X90593512Y-36236073D01*
X90568742Y-36241000D01*
X90391258Y-36241000D01*
X90366488Y-36236073D01*
X90217188Y-36206376D01*
X90053216Y-36138456D01*
X89905646Y-36039853D01*
X89780147Y-35914354D01*
X89681544Y-35766784D01*
X89613624Y-35602812D01*
X89579000Y-35428741D01*
X89579000Y-35251259D01*
X89613624Y-35077188D01*
X89681544Y-34913216D01*
X89780147Y-34765646D01*
X89905646Y-34640147D01*
X90053216Y-34541544D01*
X90217188Y-34473624D01*
X90366488Y-34443927D01*
X90391258Y-34439000D01*
X90568742Y-34439000D01*
X90593512Y-34443927D01*
G37*
G36*
X93133512Y-34443927D02*
G01*
X93282812Y-34473624D01*
X93446784Y-34541544D01*
X93594354Y-34640147D01*
X93719853Y-34765646D01*
X93818456Y-34913216D01*
X93886376Y-35077188D01*
X93921000Y-35251259D01*
X93921000Y-35428741D01*
X93886376Y-35602812D01*
X93818456Y-35766784D01*
X93719853Y-35914354D01*
X93594354Y-36039853D01*
X93446784Y-36138456D01*
X93282812Y-36206376D01*
X93133512Y-36236073D01*
X93108742Y-36241000D01*
X92931258Y-36241000D01*
X92906488Y-36236073D01*
X92757188Y-36206376D01*
X92593216Y-36138456D01*
X92445646Y-36039853D01*
X92320147Y-35914354D01*
X92221544Y-35766784D01*
X92153624Y-35602812D01*
X92119000Y-35428741D01*
X92119000Y-35251259D01*
X92153624Y-35077188D01*
X92221544Y-34913216D01*
X92320147Y-34765646D01*
X92445646Y-34640147D01*
X92593216Y-34541544D01*
X92757188Y-34473624D01*
X92906488Y-34443927D01*
X92931258Y-34439000D01*
X93108742Y-34439000D01*
X93133512Y-34443927D01*
G37*
G36*
X98213512Y-34443927D02*
G01*
X98362812Y-34473624D01*
X98526784Y-34541544D01*
X98674354Y-34640147D01*
X98799853Y-34765646D01*
X98898456Y-34913216D01*
X98966376Y-35077188D01*
X99001000Y-35251259D01*
X99001000Y-35428741D01*
X98966376Y-35602812D01*
X98898456Y-35766784D01*
X98799853Y-35914354D01*
X98674354Y-36039853D01*
X98526784Y-36138456D01*
X98362812Y-36206376D01*
X98213512Y-36236073D01*
X98188742Y-36241000D01*
X98011258Y-36241000D01*
X97986488Y-36236073D01*
X97837188Y-36206376D01*
X97673216Y-36138456D01*
X97525646Y-36039853D01*
X97400147Y-35914354D01*
X97301544Y-35766784D01*
X97233624Y-35602812D01*
X97199000Y-35428741D01*
X97199000Y-35251259D01*
X97233624Y-35077188D01*
X97301544Y-34913216D01*
X97400147Y-34765646D01*
X97525646Y-34640147D01*
X97673216Y-34541544D01*
X97837188Y-34473624D01*
X97986488Y-34443927D01*
X98011258Y-34439000D01*
X98188742Y-34439000D01*
X98213512Y-34443927D01*
G37*
G36*
X100753512Y-34443927D02*
G01*
X100902812Y-34473624D01*
X101066784Y-34541544D01*
X101214354Y-34640147D01*
X101339853Y-34765646D01*
X101438456Y-34913216D01*
X101506376Y-35077188D01*
X101541000Y-35251259D01*
X101541000Y-35428741D01*
X101506376Y-35602812D01*
X101438456Y-35766784D01*
X101339853Y-35914354D01*
X101214354Y-36039853D01*
X101066784Y-36138456D01*
X100902812Y-36206376D01*
X100753512Y-36236073D01*
X100728742Y-36241000D01*
X100551258Y-36241000D01*
X100526488Y-36236073D01*
X100377188Y-36206376D01*
X100213216Y-36138456D01*
X100065646Y-36039853D01*
X99940147Y-35914354D01*
X99841544Y-35766784D01*
X99773624Y-35602812D01*
X99739000Y-35428741D01*
X99739000Y-35251259D01*
X99773624Y-35077188D01*
X99841544Y-34913216D01*
X99940147Y-34765646D01*
X100065646Y-34640147D01*
X100213216Y-34541544D01*
X100377188Y-34473624D01*
X100526488Y-34443927D01*
X100551258Y-34439000D01*
X100728742Y-34439000D01*
X100753512Y-34443927D01*
G37*
G36*
X110913512Y-34443927D02*
G01*
X111062812Y-34473624D01*
X111226784Y-34541544D01*
X111374354Y-34640147D01*
X111499853Y-34765646D01*
X111598456Y-34913216D01*
X111666376Y-35077188D01*
X111701000Y-35251259D01*
X111701000Y-35428741D01*
X111666376Y-35602812D01*
X111598456Y-35766784D01*
X111499853Y-35914354D01*
X111374354Y-36039853D01*
X111226784Y-36138456D01*
X111062812Y-36206376D01*
X110913512Y-36236073D01*
X110888742Y-36241000D01*
X110711258Y-36241000D01*
X110686488Y-36236073D01*
X110537188Y-36206376D01*
X110373216Y-36138456D01*
X110225646Y-36039853D01*
X110100147Y-35914354D01*
X110001544Y-35766784D01*
X109933624Y-35602812D01*
X109899000Y-35428741D01*
X109899000Y-35251259D01*
X109933624Y-35077188D01*
X110001544Y-34913216D01*
X110100147Y-34765646D01*
X110225646Y-34640147D01*
X110373216Y-34541544D01*
X110537188Y-34473624D01*
X110686488Y-34443927D01*
X110711258Y-34439000D01*
X110888742Y-34439000D01*
X110913512Y-34443927D01*
G37*
G36*
X108373512Y-34443927D02*
G01*
X108522812Y-34473624D01*
X108686784Y-34541544D01*
X108834354Y-34640147D01*
X108959853Y-34765646D01*
X109058456Y-34913216D01*
X109126376Y-35077188D01*
X109161000Y-35251259D01*
X109161000Y-35428741D01*
X109126376Y-35602812D01*
X109058456Y-35766784D01*
X108959853Y-35914354D01*
X108834354Y-36039853D01*
X108686784Y-36138456D01*
X108522812Y-36206376D01*
X108373512Y-36236073D01*
X108348742Y-36241000D01*
X108171258Y-36241000D01*
X108146488Y-36236073D01*
X107997188Y-36206376D01*
X107833216Y-36138456D01*
X107685646Y-36039853D01*
X107560147Y-35914354D01*
X107461544Y-35766784D01*
X107393624Y-35602812D01*
X107359000Y-35428741D01*
X107359000Y-35251259D01*
X107393624Y-35077188D01*
X107461544Y-34913216D01*
X107560147Y-34765646D01*
X107685646Y-34640147D01*
X107833216Y-34541544D01*
X107997188Y-34473624D01*
X108146488Y-34443927D01*
X108171258Y-34439000D01*
X108348742Y-34439000D01*
X108373512Y-34443927D01*
G37*
G36*
X105833512Y-34443927D02*
G01*
X105982812Y-34473624D01*
X106146784Y-34541544D01*
X106294354Y-34640147D01*
X106419853Y-34765646D01*
X106518456Y-34913216D01*
X106586376Y-35077188D01*
X106621000Y-35251259D01*
X106621000Y-35428741D01*
X106586376Y-35602812D01*
X106518456Y-35766784D01*
X106419853Y-35914354D01*
X106294354Y-36039853D01*
X106146784Y-36138456D01*
X105982812Y-36206376D01*
X105833512Y-36236073D01*
X105808742Y-36241000D01*
X105631258Y-36241000D01*
X105606488Y-36236073D01*
X105457188Y-36206376D01*
X105293216Y-36138456D01*
X105145646Y-36039853D01*
X105020147Y-35914354D01*
X104921544Y-35766784D01*
X104853624Y-35602812D01*
X104819000Y-35428741D01*
X104819000Y-35251259D01*
X104853624Y-35077188D01*
X104921544Y-34913216D01*
X105020147Y-34765646D01*
X105145646Y-34640147D01*
X105293216Y-34541544D01*
X105457188Y-34473624D01*
X105606488Y-34443927D01*
X105631258Y-34439000D01*
X105808742Y-34439000D01*
X105833512Y-34443927D01*
G37*
G36*
X103293512Y-34443927D02*
G01*
X103442812Y-34473624D01*
X103606784Y-34541544D01*
X103754354Y-34640147D01*
X103879853Y-34765646D01*
X103978456Y-34913216D01*
X104046376Y-35077188D01*
X104081000Y-35251259D01*
X104081000Y-35428741D01*
X104046376Y-35602812D01*
X103978456Y-35766784D01*
X103879853Y-35914354D01*
X103754354Y-36039853D01*
X103606784Y-36138456D01*
X103442812Y-36206376D01*
X103293512Y-36236073D01*
X103268742Y-36241000D01*
X103091258Y-36241000D01*
X103066488Y-36236073D01*
X102917188Y-36206376D01*
X102753216Y-36138456D01*
X102605646Y-36039853D01*
X102480147Y-35914354D01*
X102381544Y-35766784D01*
X102313624Y-35602812D01*
X102279000Y-35428741D01*
X102279000Y-35251259D01*
X102313624Y-35077188D01*
X102381544Y-34913216D01*
X102480147Y-34765646D01*
X102605646Y-34640147D01*
X102753216Y-34541544D01*
X102917188Y-34473624D01*
X103066488Y-34443927D01*
X103091258Y-34439000D01*
X103268742Y-34439000D01*
X103293512Y-34443927D01*
G37*
G36*
X95673512Y-34443927D02*
G01*
X95822812Y-34473624D01*
X95986784Y-34541544D01*
X96134354Y-34640147D01*
X96259853Y-34765646D01*
X96358456Y-34913216D01*
X96426376Y-35077188D01*
X96461000Y-35251259D01*
X96461000Y-35428741D01*
X96426376Y-35602812D01*
X96358456Y-35766784D01*
X96259853Y-35914354D01*
X96134354Y-36039853D01*
X95986784Y-36138456D01*
X95822812Y-36206376D01*
X95673512Y-36236073D01*
X95648742Y-36241000D01*
X95471258Y-36241000D01*
X95446488Y-36236073D01*
X95297188Y-36206376D01*
X95133216Y-36138456D01*
X94985646Y-36039853D01*
X94860147Y-35914354D01*
X94761544Y-35766784D01*
X94693624Y-35602812D01*
X94659000Y-35428741D01*
X94659000Y-35251259D01*
X94693624Y-35077188D01*
X94761544Y-34913216D01*
X94860147Y-34765646D01*
X94985646Y-34640147D01*
X95133216Y-34541544D01*
X95297188Y-34473624D01*
X95446488Y-34443927D01*
X95471258Y-34439000D01*
X95648742Y-34439000D01*
X95673512Y-34443927D01*
G37*
G36*
X62653512Y-34443927D02*
G01*
X62802812Y-34473624D01*
X62966784Y-34541544D01*
X63114354Y-34640147D01*
X63239853Y-34765646D01*
X63338456Y-34913216D01*
X63406376Y-35077188D01*
X63441000Y-35251259D01*
X63441000Y-35428741D01*
X63406376Y-35602812D01*
X63338456Y-35766784D01*
X63239853Y-35914354D01*
X63114354Y-36039853D01*
X62966784Y-36138456D01*
X62802812Y-36206376D01*
X62653512Y-36236073D01*
X62628742Y-36241000D01*
X62451258Y-36241000D01*
X62426488Y-36236073D01*
X62277188Y-36206376D01*
X62113216Y-36138456D01*
X61965646Y-36039853D01*
X61840147Y-35914354D01*
X61741544Y-35766784D01*
X61673624Y-35602812D01*
X61639000Y-35428741D01*
X61639000Y-35251259D01*
X61673624Y-35077188D01*
X61741544Y-34913216D01*
X61840147Y-34765646D01*
X61965646Y-34640147D01*
X62113216Y-34541544D01*
X62277188Y-34473624D01*
X62426488Y-34443927D01*
X62451258Y-34439000D01*
X62628742Y-34439000D01*
X62653512Y-34443927D01*
G37*
G36*
X65193512Y-34443927D02*
G01*
X65342812Y-34473624D01*
X65506784Y-34541544D01*
X65654354Y-34640147D01*
X65779853Y-34765646D01*
X65878456Y-34913216D01*
X65946376Y-35077188D01*
X65981000Y-35251259D01*
X65981000Y-35428741D01*
X65946376Y-35602812D01*
X65878456Y-35766784D01*
X65779853Y-35914354D01*
X65654354Y-36039853D01*
X65506784Y-36138456D01*
X65342812Y-36206376D01*
X65193512Y-36236073D01*
X65168742Y-36241000D01*
X64991258Y-36241000D01*
X64966488Y-36236073D01*
X64817188Y-36206376D01*
X64653216Y-36138456D01*
X64505646Y-36039853D01*
X64380147Y-35914354D01*
X64281544Y-35766784D01*
X64213624Y-35602812D01*
X64179000Y-35428741D01*
X64179000Y-35251259D01*
X64213624Y-35077188D01*
X64281544Y-34913216D01*
X64380147Y-34765646D01*
X64505646Y-34640147D01*
X64653216Y-34541544D01*
X64817188Y-34473624D01*
X64966488Y-34443927D01*
X64991258Y-34439000D01*
X65168742Y-34439000D01*
X65193512Y-34443927D01*
G37*
G36*
X70273512Y-34443927D02*
G01*
X70422812Y-34473624D01*
X70586784Y-34541544D01*
X70734354Y-34640147D01*
X70859853Y-34765646D01*
X70958456Y-34913216D01*
X71026376Y-35077188D01*
X71061000Y-35251259D01*
X71061000Y-35428741D01*
X71026376Y-35602812D01*
X70958456Y-35766784D01*
X70859853Y-35914354D01*
X70734354Y-36039853D01*
X70586784Y-36138456D01*
X70422812Y-36206376D01*
X70273512Y-36236073D01*
X70248742Y-36241000D01*
X70071258Y-36241000D01*
X70046488Y-36236073D01*
X69897188Y-36206376D01*
X69733216Y-36138456D01*
X69585646Y-36039853D01*
X69460147Y-35914354D01*
X69361544Y-35766784D01*
X69293624Y-35602812D01*
X69259000Y-35428741D01*
X69259000Y-35251259D01*
X69293624Y-35077188D01*
X69361544Y-34913216D01*
X69460147Y-34765646D01*
X69585646Y-34640147D01*
X69733216Y-34541544D01*
X69897188Y-34473624D01*
X70046488Y-34443927D01*
X70071258Y-34439000D01*
X70248742Y-34439000D01*
X70273512Y-34443927D01*
G37*
G36*
X72813512Y-34443927D02*
G01*
X72962812Y-34473624D01*
X73126784Y-34541544D01*
X73274354Y-34640147D01*
X73399853Y-34765646D01*
X73498456Y-34913216D01*
X73566376Y-35077188D01*
X73601000Y-35251259D01*
X73601000Y-35428741D01*
X73566376Y-35602812D01*
X73498456Y-35766784D01*
X73399853Y-35914354D01*
X73274354Y-36039853D01*
X73126784Y-36138456D01*
X72962812Y-36206376D01*
X72813512Y-36236073D01*
X72788742Y-36241000D01*
X72611258Y-36241000D01*
X72586488Y-36236073D01*
X72437188Y-36206376D01*
X72273216Y-36138456D01*
X72125646Y-36039853D01*
X72000147Y-35914354D01*
X71901544Y-35766784D01*
X71833624Y-35602812D01*
X71799000Y-35428741D01*
X71799000Y-35251259D01*
X71833624Y-35077188D01*
X71901544Y-34913216D01*
X72000147Y-34765646D01*
X72125646Y-34640147D01*
X72273216Y-34541544D01*
X72437188Y-34473624D01*
X72586488Y-34443927D01*
X72611258Y-34439000D01*
X72788742Y-34439000D01*
X72813512Y-34443927D01*
G37*
G36*
X77893512Y-34443927D02*
G01*
X78042812Y-34473624D01*
X78206784Y-34541544D01*
X78354354Y-34640147D01*
X78479853Y-34765646D01*
X78578456Y-34913216D01*
X78646376Y-35077188D01*
X78681000Y-35251259D01*
X78681000Y-35428741D01*
X78646376Y-35602812D01*
X78578456Y-35766784D01*
X78479853Y-35914354D01*
X78354354Y-36039853D01*
X78206784Y-36138456D01*
X78042812Y-36206376D01*
X77893512Y-36236073D01*
X77868742Y-36241000D01*
X77691258Y-36241000D01*
X77666488Y-36236073D01*
X77517188Y-36206376D01*
X77353216Y-36138456D01*
X77205646Y-36039853D01*
X77080147Y-35914354D01*
X76981544Y-35766784D01*
X76913624Y-35602812D01*
X76879000Y-35428741D01*
X76879000Y-35251259D01*
X76913624Y-35077188D01*
X76981544Y-34913216D01*
X77080147Y-34765646D01*
X77205646Y-34640147D01*
X77353216Y-34541544D01*
X77517188Y-34473624D01*
X77666488Y-34443927D01*
X77691258Y-34439000D01*
X77868742Y-34439000D01*
X77893512Y-34443927D01*
G37*
G36*
X82973512Y-34443927D02*
G01*
X83122812Y-34473624D01*
X83286784Y-34541544D01*
X83434354Y-34640147D01*
X83559853Y-34765646D01*
X83658456Y-34913216D01*
X83726376Y-35077188D01*
X83761000Y-35251259D01*
X83761000Y-35428741D01*
X83726376Y-35602812D01*
X83658456Y-35766784D01*
X83559853Y-35914354D01*
X83434354Y-36039853D01*
X83286784Y-36138456D01*
X83122812Y-36206376D01*
X82973512Y-36236073D01*
X82948742Y-36241000D01*
X82771258Y-36241000D01*
X82746488Y-36236073D01*
X82597188Y-36206376D01*
X82433216Y-36138456D01*
X82285646Y-36039853D01*
X82160147Y-35914354D01*
X82061544Y-35766784D01*
X81993624Y-35602812D01*
X81959000Y-35428741D01*
X81959000Y-35251259D01*
X81993624Y-35077188D01*
X82061544Y-34913216D01*
X82160147Y-34765646D01*
X82285646Y-34640147D01*
X82433216Y-34541544D01*
X82597188Y-34473624D01*
X82746488Y-34443927D01*
X82771258Y-34439000D01*
X82948742Y-34439000D01*
X82973512Y-34443927D01*
G37*
G36*
X80433512Y-34443927D02*
G01*
X80582812Y-34473624D01*
X80746784Y-34541544D01*
X80894354Y-34640147D01*
X81019853Y-34765646D01*
X81118456Y-34913216D01*
X81186376Y-35077188D01*
X81221000Y-35251259D01*
X81221000Y-35428741D01*
X81186376Y-35602812D01*
X81118456Y-35766784D01*
X81019853Y-35914354D01*
X80894354Y-36039853D01*
X80746784Y-36138456D01*
X80582812Y-36206376D01*
X80433512Y-36236073D01*
X80408742Y-36241000D01*
X80231258Y-36241000D01*
X80206488Y-36236073D01*
X80057188Y-36206376D01*
X79893216Y-36138456D01*
X79745646Y-36039853D01*
X79620147Y-35914354D01*
X79521544Y-35766784D01*
X79453624Y-35602812D01*
X79419000Y-35428741D01*
X79419000Y-35251259D01*
X79453624Y-35077188D01*
X79521544Y-34913216D01*
X79620147Y-34765646D01*
X79745646Y-34640147D01*
X79893216Y-34541544D01*
X80057188Y-34473624D01*
X80206488Y-34443927D01*
X80231258Y-34439000D01*
X80408742Y-34439000D01*
X80433512Y-34443927D01*
G37*
G36*
X85513512Y-34443927D02*
G01*
X85662812Y-34473624D01*
X85826784Y-34541544D01*
X85974354Y-34640147D01*
X86099853Y-34765646D01*
X86198456Y-34913216D01*
X86266376Y-35077188D01*
X86301000Y-35251259D01*
X86301000Y-35428741D01*
X86266376Y-35602812D01*
X86198456Y-35766784D01*
X86099853Y-35914354D01*
X85974354Y-36039853D01*
X85826784Y-36138456D01*
X85662812Y-36206376D01*
X85513512Y-36236073D01*
X85488742Y-36241000D01*
X85311258Y-36241000D01*
X85286488Y-36236073D01*
X85137188Y-36206376D01*
X84973216Y-36138456D01*
X84825646Y-36039853D01*
X84700147Y-35914354D01*
X84601544Y-35766784D01*
X84533624Y-35602812D01*
X84499000Y-35428741D01*
X84499000Y-35251259D01*
X84533624Y-35077188D01*
X84601544Y-34913216D01*
X84700147Y-34765646D01*
X84825646Y-34640147D01*
X84973216Y-34541544D01*
X85137188Y-34473624D01*
X85286488Y-34443927D01*
X85311258Y-34439000D01*
X85488742Y-34439000D01*
X85513512Y-34443927D01*
G37*
G36*
X75353512Y-34443927D02*
G01*
X75502812Y-34473624D01*
X75666784Y-34541544D01*
X75814354Y-34640147D01*
X75939853Y-34765646D01*
X76038456Y-34913216D01*
X76106376Y-35077188D01*
X76141000Y-35251259D01*
X76141000Y-35428741D01*
X76106376Y-35602812D01*
X76038456Y-35766784D01*
X75939853Y-35914354D01*
X75814354Y-36039853D01*
X75666784Y-36138456D01*
X75502812Y-36206376D01*
X75353512Y-36236073D01*
X75328742Y-36241000D01*
X75151258Y-36241000D01*
X75126488Y-36236073D01*
X74977188Y-36206376D01*
X74813216Y-36138456D01*
X74665646Y-36039853D01*
X74540147Y-35914354D01*
X74441544Y-35766784D01*
X74373624Y-35602812D01*
X74339000Y-35428741D01*
X74339000Y-35251259D01*
X74373624Y-35077188D01*
X74441544Y-34913216D01*
X74540147Y-34765646D01*
X74665646Y-34640147D01*
X74813216Y-34541544D01*
X74977188Y-34473624D01*
X75126488Y-34443927D01*
X75151258Y-34439000D01*
X75328742Y-34439000D01*
X75353512Y-34443927D01*
G37*
G36*
X67733512Y-34443927D02*
G01*
X67882812Y-34473624D01*
X68046784Y-34541544D01*
X68194354Y-34640147D01*
X68319853Y-34765646D01*
X68418456Y-34913216D01*
X68486376Y-35077188D01*
X68521000Y-35251259D01*
X68521000Y-35428741D01*
X68486376Y-35602812D01*
X68418456Y-35766784D01*
X68319853Y-35914354D01*
X68194354Y-36039853D01*
X68046784Y-36138456D01*
X67882812Y-36206376D01*
X67733512Y-36236073D01*
X67708742Y-36241000D01*
X67531258Y-36241000D01*
X67506488Y-36236073D01*
X67357188Y-36206376D01*
X67193216Y-36138456D01*
X67045646Y-36039853D01*
X66920147Y-35914354D01*
X66821544Y-35766784D01*
X66753624Y-35602812D01*
X66719000Y-35428741D01*
X66719000Y-35251259D01*
X66753624Y-35077188D01*
X66821544Y-34913216D01*
X66920147Y-34765646D01*
X67045646Y-34640147D01*
X67193216Y-34541544D01*
X67357188Y-34473624D01*
X67506488Y-34443927D01*
X67531258Y-34439000D01*
X67708742Y-34439000D01*
X67733512Y-34443927D01*
G37*
G36*
X140413512Y-34443927D02*
G01*
X140562812Y-34473624D01*
X140726784Y-34541544D01*
X140874354Y-34640147D01*
X140999853Y-34765646D01*
X141098456Y-34913216D01*
X141166376Y-35077188D01*
X141201000Y-35251259D01*
X141201000Y-35428741D01*
X141166376Y-35602812D01*
X141098456Y-35766784D01*
X140999853Y-35914354D01*
X140874354Y-36039853D01*
X140726784Y-36138456D01*
X140562812Y-36206376D01*
X140413512Y-36236073D01*
X140388742Y-36241000D01*
X140211258Y-36241000D01*
X140186488Y-36236073D01*
X140037188Y-36206376D01*
X139873216Y-36138456D01*
X139725646Y-36039853D01*
X139600147Y-35914354D01*
X139501544Y-35766784D01*
X139433624Y-35602812D01*
X139399000Y-35428741D01*
X139399000Y-35251259D01*
X139433624Y-35077188D01*
X139501544Y-34913216D01*
X139600147Y-34765646D01*
X139725646Y-34640147D01*
X139873216Y-34541544D01*
X140037188Y-34473624D01*
X140186488Y-34443927D01*
X140211258Y-34439000D01*
X140388742Y-34439000D01*
X140413512Y-34443927D01*
G37*
G36*
X125335512Y-34409927D02*
G01*
X125484812Y-34439624D01*
X125648784Y-34507544D01*
X125796354Y-34606147D01*
X125921853Y-34731646D01*
X126020456Y-34879216D01*
X126088376Y-35043188D01*
X126123000Y-35217259D01*
X126123000Y-35394741D01*
X126088376Y-35568812D01*
X126020456Y-35732784D01*
X125921853Y-35880354D01*
X125796354Y-36005853D01*
X125648784Y-36104456D01*
X125484812Y-36172376D01*
X125335512Y-36202073D01*
X125310742Y-36207000D01*
X125133258Y-36207000D01*
X125108488Y-36202073D01*
X124959188Y-36172376D01*
X124795216Y-36104456D01*
X124647646Y-36005853D01*
X124522147Y-35880354D01*
X124423544Y-35732784D01*
X124355624Y-35568812D01*
X124321000Y-35394741D01*
X124321000Y-35217259D01*
X124355624Y-35043188D01*
X124423544Y-34879216D01*
X124522147Y-34731646D01*
X124647646Y-34606147D01*
X124795216Y-34507544D01*
X124959188Y-34439624D01*
X125108488Y-34409927D01*
X125133258Y-34405000D01*
X125310742Y-34405000D01*
X125335512Y-34409927D01*
G37*
G36*
X122795512Y-34409927D02*
G01*
X122944812Y-34439624D01*
X123108784Y-34507544D01*
X123256354Y-34606147D01*
X123381853Y-34731646D01*
X123480456Y-34879216D01*
X123548376Y-35043188D01*
X123583000Y-35217259D01*
X123583000Y-35394741D01*
X123548376Y-35568812D01*
X123480456Y-35732784D01*
X123381853Y-35880354D01*
X123256354Y-36005853D01*
X123108784Y-36104456D01*
X122944812Y-36172376D01*
X122795512Y-36202073D01*
X122770742Y-36207000D01*
X122593258Y-36207000D01*
X122568488Y-36202073D01*
X122419188Y-36172376D01*
X122255216Y-36104456D01*
X122107646Y-36005853D01*
X121982147Y-35880354D01*
X121883544Y-35732784D01*
X121815624Y-35568812D01*
X121781000Y-35394741D01*
X121781000Y-35217259D01*
X121815624Y-35043188D01*
X121883544Y-34879216D01*
X121982147Y-34731646D01*
X122107646Y-34606147D01*
X122255216Y-34507544D01*
X122419188Y-34439624D01*
X122568488Y-34409927D01*
X122593258Y-34405000D01*
X122770742Y-34405000D01*
X122795512Y-34409927D01*
G37*
G36*
X127875512Y-34409927D02*
G01*
X128024812Y-34439624D01*
X128188784Y-34507544D01*
X128336354Y-34606147D01*
X128461853Y-34731646D01*
X128560456Y-34879216D01*
X128628376Y-35043188D01*
X128663000Y-35217259D01*
X128663000Y-35394741D01*
X128628376Y-35568812D01*
X128560456Y-35732784D01*
X128461853Y-35880354D01*
X128336354Y-36005853D01*
X128188784Y-36104456D01*
X128024812Y-36172376D01*
X127875512Y-36202073D01*
X127850742Y-36207000D01*
X127673258Y-36207000D01*
X127648488Y-36202073D01*
X127499188Y-36172376D01*
X127335216Y-36104456D01*
X127187646Y-36005853D01*
X127062147Y-35880354D01*
X126963544Y-35732784D01*
X126895624Y-35568812D01*
X126861000Y-35394741D01*
X126861000Y-35217259D01*
X126895624Y-35043188D01*
X126963544Y-34879216D01*
X127062147Y-34731646D01*
X127187646Y-34606147D01*
X127335216Y-34507544D01*
X127499188Y-34439624D01*
X127648488Y-34409927D01*
X127673258Y-34405000D01*
X127850742Y-34405000D01*
X127875512Y-34409927D01*
G37*
G36*
X120255512Y-34409927D02*
G01*
X120404812Y-34439624D01*
X120568784Y-34507544D01*
X120716354Y-34606147D01*
X120841853Y-34731646D01*
X120940456Y-34879216D01*
X121008376Y-35043188D01*
X121043000Y-35217259D01*
X121043000Y-35394741D01*
X121008376Y-35568812D01*
X120940456Y-35732784D01*
X120841853Y-35880354D01*
X120716354Y-36005853D01*
X120568784Y-36104456D01*
X120404812Y-36172376D01*
X120255512Y-36202073D01*
X120230742Y-36207000D01*
X120053258Y-36207000D01*
X120028488Y-36202073D01*
X119879188Y-36172376D01*
X119715216Y-36104456D01*
X119567646Y-36005853D01*
X119442147Y-35880354D01*
X119343544Y-35732784D01*
X119275624Y-35568812D01*
X119241000Y-35394741D01*
X119241000Y-35217259D01*
X119275624Y-35043188D01*
X119343544Y-34879216D01*
X119442147Y-34731646D01*
X119567646Y-34606147D01*
X119715216Y-34507544D01*
X119879188Y-34439624D01*
X120028488Y-34409927D01*
X120053258Y-34405000D01*
X120230742Y-34405000D01*
X120255512Y-34409927D01*
G37*
G36*
X82973512Y-31903927D02*
G01*
X83122812Y-31933624D01*
X83286784Y-32001544D01*
X83434354Y-32100147D01*
X83559853Y-32225646D01*
X83658456Y-32373216D01*
X83726376Y-32537188D01*
X83761000Y-32711259D01*
X83761000Y-32888741D01*
X83726376Y-33062812D01*
X83658456Y-33226784D01*
X83559853Y-33374354D01*
X83434354Y-33499853D01*
X83286784Y-33598456D01*
X83122812Y-33666376D01*
X82973512Y-33696073D01*
X82948742Y-33701000D01*
X82771258Y-33701000D01*
X82746488Y-33696073D01*
X82597188Y-33666376D01*
X82433216Y-33598456D01*
X82285646Y-33499853D01*
X82160147Y-33374354D01*
X82061544Y-33226784D01*
X81993624Y-33062812D01*
X81959000Y-32888741D01*
X81959000Y-32711259D01*
X81993624Y-32537188D01*
X82061544Y-32373216D01*
X82160147Y-32225646D01*
X82285646Y-32100147D01*
X82433216Y-32001544D01*
X82597188Y-31933624D01*
X82746488Y-31903927D01*
X82771258Y-31899000D01*
X82948742Y-31899000D01*
X82973512Y-31903927D01*
G37*
G36*
X65193512Y-31903927D02*
G01*
X65342812Y-31933624D01*
X65506784Y-32001544D01*
X65654354Y-32100147D01*
X65779853Y-32225646D01*
X65878456Y-32373216D01*
X65946376Y-32537188D01*
X65981000Y-32711259D01*
X65981000Y-32888741D01*
X65946376Y-33062812D01*
X65878456Y-33226784D01*
X65779853Y-33374354D01*
X65654354Y-33499853D01*
X65506784Y-33598456D01*
X65342812Y-33666376D01*
X65193512Y-33696073D01*
X65168742Y-33701000D01*
X64991258Y-33701000D01*
X64966488Y-33696073D01*
X64817188Y-33666376D01*
X64653216Y-33598456D01*
X64505646Y-33499853D01*
X64380147Y-33374354D01*
X64281544Y-33226784D01*
X64213624Y-33062812D01*
X64179000Y-32888741D01*
X64179000Y-32711259D01*
X64213624Y-32537188D01*
X64281544Y-32373216D01*
X64380147Y-32225646D01*
X64505646Y-32100147D01*
X64653216Y-32001544D01*
X64817188Y-31933624D01*
X64966488Y-31903927D01*
X64991258Y-31899000D01*
X65168742Y-31899000D01*
X65193512Y-31903927D01*
G37*
G36*
X62653512Y-31903927D02*
G01*
X62802812Y-31933624D01*
X62966784Y-32001544D01*
X63114354Y-32100147D01*
X63239853Y-32225646D01*
X63338456Y-32373216D01*
X63406376Y-32537188D01*
X63441000Y-32711259D01*
X63441000Y-32888741D01*
X63406376Y-33062812D01*
X63338456Y-33226784D01*
X63239853Y-33374354D01*
X63114354Y-33499853D01*
X62966784Y-33598456D01*
X62802812Y-33666376D01*
X62653512Y-33696073D01*
X62628742Y-33701000D01*
X62451258Y-33701000D01*
X62426488Y-33696073D01*
X62277188Y-33666376D01*
X62113216Y-33598456D01*
X61965646Y-33499853D01*
X61840147Y-33374354D01*
X61741544Y-33226784D01*
X61673624Y-33062812D01*
X61639000Y-32888741D01*
X61639000Y-32711259D01*
X61673624Y-32537188D01*
X61741544Y-32373216D01*
X61840147Y-32225646D01*
X61965646Y-32100147D01*
X62113216Y-32001544D01*
X62277188Y-31933624D01*
X62426488Y-31903927D01*
X62451258Y-31899000D01*
X62628742Y-31899000D01*
X62653512Y-31903927D01*
G37*
G36*
X141201000Y-33701000D02*
G01*
X139399000Y-33701000D01*
X139399000Y-31899000D01*
X141201000Y-31899000D01*
X141201000Y-33701000D01*
G37*
G36*
X111701000Y-33701000D02*
G01*
X109899000Y-33701000D01*
X109899000Y-31899000D01*
X111701000Y-31899000D01*
X111701000Y-33701000D01*
G37*
G36*
X108373512Y-31903927D02*
G01*
X108522812Y-31933624D01*
X108686784Y-32001544D01*
X108834354Y-32100147D01*
X108959853Y-32225646D01*
X109058456Y-32373216D01*
X109126376Y-32537188D01*
X109161000Y-32711259D01*
X109161000Y-32888741D01*
X109126376Y-33062812D01*
X109058456Y-33226784D01*
X108959853Y-33374354D01*
X108834354Y-33499853D01*
X108686784Y-33598456D01*
X108522812Y-33666376D01*
X108373512Y-33696073D01*
X108348742Y-33701000D01*
X108171258Y-33701000D01*
X108146488Y-33696073D01*
X107997188Y-33666376D01*
X107833216Y-33598456D01*
X107685646Y-33499853D01*
X107560147Y-33374354D01*
X107461544Y-33226784D01*
X107393624Y-33062812D01*
X107359000Y-32888741D01*
X107359000Y-32711259D01*
X107393624Y-32537188D01*
X107461544Y-32373216D01*
X107560147Y-32225646D01*
X107685646Y-32100147D01*
X107833216Y-32001544D01*
X107997188Y-31933624D01*
X108146488Y-31903927D01*
X108171258Y-31899000D01*
X108348742Y-31899000D01*
X108373512Y-31903927D01*
G37*
G36*
X105833512Y-31903927D02*
G01*
X105982812Y-31933624D01*
X106146784Y-32001544D01*
X106294354Y-32100147D01*
X106419853Y-32225646D01*
X106518456Y-32373216D01*
X106586376Y-32537188D01*
X106621000Y-32711259D01*
X106621000Y-32888741D01*
X106586376Y-33062812D01*
X106518456Y-33226784D01*
X106419853Y-33374354D01*
X106294354Y-33499853D01*
X106146784Y-33598456D01*
X105982812Y-33666376D01*
X105833512Y-33696073D01*
X105808742Y-33701000D01*
X105631258Y-33701000D01*
X105606488Y-33696073D01*
X105457188Y-33666376D01*
X105293216Y-33598456D01*
X105145646Y-33499853D01*
X105020147Y-33374354D01*
X104921544Y-33226784D01*
X104853624Y-33062812D01*
X104819000Y-32888741D01*
X104819000Y-32711259D01*
X104853624Y-32537188D01*
X104921544Y-32373216D01*
X105020147Y-32225646D01*
X105145646Y-32100147D01*
X105293216Y-32001544D01*
X105457188Y-31933624D01*
X105606488Y-31903927D01*
X105631258Y-31899000D01*
X105808742Y-31899000D01*
X105833512Y-31903927D01*
G37*
G36*
X100753512Y-31903927D02*
G01*
X100902812Y-31933624D01*
X101066784Y-32001544D01*
X101214354Y-32100147D01*
X101339853Y-32225646D01*
X101438456Y-32373216D01*
X101506376Y-32537188D01*
X101541000Y-32711259D01*
X101541000Y-32888741D01*
X101506376Y-33062812D01*
X101438456Y-33226784D01*
X101339853Y-33374354D01*
X101214354Y-33499853D01*
X101066784Y-33598456D01*
X100902812Y-33666376D01*
X100753512Y-33696073D01*
X100728742Y-33701000D01*
X100551258Y-33701000D01*
X100526488Y-33696073D01*
X100377188Y-33666376D01*
X100213216Y-33598456D01*
X100065646Y-33499853D01*
X99940147Y-33374354D01*
X99841544Y-33226784D01*
X99773624Y-33062812D01*
X99739000Y-32888741D01*
X99739000Y-32711259D01*
X99773624Y-32537188D01*
X99841544Y-32373216D01*
X99940147Y-32225646D01*
X100065646Y-32100147D01*
X100213216Y-32001544D01*
X100377188Y-31933624D01*
X100526488Y-31903927D01*
X100551258Y-31899000D01*
X100728742Y-31899000D01*
X100753512Y-31903927D01*
G37*
G36*
X103293512Y-31903927D02*
G01*
X103442812Y-31933624D01*
X103606784Y-32001544D01*
X103754354Y-32100147D01*
X103879853Y-32225646D01*
X103978456Y-32373216D01*
X104046376Y-32537188D01*
X104081000Y-32711259D01*
X104081000Y-32888741D01*
X104046376Y-33062812D01*
X103978456Y-33226784D01*
X103879853Y-33374354D01*
X103754354Y-33499853D01*
X103606784Y-33598456D01*
X103442812Y-33666376D01*
X103293512Y-33696073D01*
X103268742Y-33701000D01*
X103091258Y-33701000D01*
X103066488Y-33696073D01*
X102917188Y-33666376D01*
X102753216Y-33598456D01*
X102605646Y-33499853D01*
X102480147Y-33374354D01*
X102381544Y-33226784D01*
X102313624Y-33062812D01*
X102279000Y-32888741D01*
X102279000Y-32711259D01*
X102313624Y-32537188D01*
X102381544Y-32373216D01*
X102480147Y-32225646D01*
X102605646Y-32100147D01*
X102753216Y-32001544D01*
X102917188Y-31933624D01*
X103066488Y-31903927D01*
X103091258Y-31899000D01*
X103268742Y-31899000D01*
X103293512Y-31903927D01*
G37*
G36*
X95673512Y-31903927D02*
G01*
X95822812Y-31933624D01*
X95986784Y-32001544D01*
X96134354Y-32100147D01*
X96259853Y-32225646D01*
X96358456Y-32373216D01*
X96426376Y-32537188D01*
X96461000Y-32711259D01*
X96461000Y-32888741D01*
X96426376Y-33062812D01*
X96358456Y-33226784D01*
X96259853Y-33374354D01*
X96134354Y-33499853D01*
X95986784Y-33598456D01*
X95822812Y-33666376D01*
X95673512Y-33696073D01*
X95648742Y-33701000D01*
X95471258Y-33701000D01*
X95446488Y-33696073D01*
X95297188Y-33666376D01*
X95133216Y-33598456D01*
X94985646Y-33499853D01*
X94860147Y-33374354D01*
X94761544Y-33226784D01*
X94693624Y-33062812D01*
X94659000Y-32888741D01*
X94659000Y-32711259D01*
X94693624Y-32537188D01*
X94761544Y-32373216D01*
X94860147Y-32225646D01*
X94985646Y-32100147D01*
X95133216Y-32001544D01*
X95297188Y-31933624D01*
X95446488Y-31903927D01*
X95471258Y-31899000D01*
X95648742Y-31899000D01*
X95673512Y-31903927D01*
G37*
G36*
X93133512Y-31903927D02*
G01*
X93282812Y-31933624D01*
X93446784Y-32001544D01*
X93594354Y-32100147D01*
X93719853Y-32225646D01*
X93818456Y-32373216D01*
X93886376Y-32537188D01*
X93921000Y-32711259D01*
X93921000Y-32888741D01*
X93886376Y-33062812D01*
X93818456Y-33226784D01*
X93719853Y-33374354D01*
X93594354Y-33499853D01*
X93446784Y-33598456D01*
X93282812Y-33666376D01*
X93133512Y-33696073D01*
X93108742Y-33701000D01*
X92931258Y-33701000D01*
X92906488Y-33696073D01*
X92757188Y-33666376D01*
X92593216Y-33598456D01*
X92445646Y-33499853D01*
X92320147Y-33374354D01*
X92221544Y-33226784D01*
X92153624Y-33062812D01*
X92119000Y-32888741D01*
X92119000Y-32711259D01*
X92153624Y-32537188D01*
X92221544Y-32373216D01*
X92320147Y-32225646D01*
X92445646Y-32100147D01*
X92593216Y-32001544D01*
X92757188Y-31933624D01*
X92906488Y-31903927D01*
X92931258Y-31899000D01*
X93108742Y-31899000D01*
X93133512Y-31903927D01*
G37*
G36*
X90593512Y-31903927D02*
G01*
X90742812Y-31933624D01*
X90906784Y-32001544D01*
X91054354Y-32100147D01*
X91179853Y-32225646D01*
X91278456Y-32373216D01*
X91346376Y-32537188D01*
X91381000Y-32711259D01*
X91381000Y-32888741D01*
X91346376Y-33062812D01*
X91278456Y-33226784D01*
X91179853Y-33374354D01*
X91054354Y-33499853D01*
X90906784Y-33598456D01*
X90742812Y-33666376D01*
X90593512Y-33696073D01*
X90568742Y-33701000D01*
X90391258Y-33701000D01*
X90366488Y-33696073D01*
X90217188Y-33666376D01*
X90053216Y-33598456D01*
X89905646Y-33499853D01*
X89780147Y-33374354D01*
X89681544Y-33226784D01*
X89613624Y-33062812D01*
X89579000Y-32888741D01*
X89579000Y-32711259D01*
X89613624Y-32537188D01*
X89681544Y-32373216D01*
X89780147Y-32225646D01*
X89905646Y-32100147D01*
X90053216Y-32001544D01*
X90217188Y-31933624D01*
X90366488Y-31903927D01*
X90391258Y-31899000D01*
X90568742Y-31899000D01*
X90593512Y-31903927D01*
G37*
G36*
X88053512Y-31903927D02*
G01*
X88202812Y-31933624D01*
X88366784Y-32001544D01*
X88514354Y-32100147D01*
X88639853Y-32225646D01*
X88738456Y-32373216D01*
X88806376Y-32537188D01*
X88841000Y-32711259D01*
X88841000Y-32888741D01*
X88806376Y-33062812D01*
X88738456Y-33226784D01*
X88639853Y-33374354D01*
X88514354Y-33499853D01*
X88366784Y-33598456D01*
X88202812Y-33666376D01*
X88053512Y-33696073D01*
X88028742Y-33701000D01*
X87851258Y-33701000D01*
X87826488Y-33696073D01*
X87677188Y-33666376D01*
X87513216Y-33598456D01*
X87365646Y-33499853D01*
X87240147Y-33374354D01*
X87141544Y-33226784D01*
X87073624Y-33062812D01*
X87039000Y-32888741D01*
X87039000Y-32711259D01*
X87073624Y-32537188D01*
X87141544Y-32373216D01*
X87240147Y-32225646D01*
X87365646Y-32100147D01*
X87513216Y-32001544D01*
X87677188Y-31933624D01*
X87826488Y-31903927D01*
X87851258Y-31899000D01*
X88028742Y-31899000D01*
X88053512Y-31903927D01*
G37*
G36*
X85513512Y-31903927D02*
G01*
X85662812Y-31933624D01*
X85826784Y-32001544D01*
X85974354Y-32100147D01*
X86099853Y-32225646D01*
X86198456Y-32373216D01*
X86266376Y-32537188D01*
X86301000Y-32711259D01*
X86301000Y-32888741D01*
X86266376Y-33062812D01*
X86198456Y-33226784D01*
X86099853Y-33374354D01*
X85974354Y-33499853D01*
X85826784Y-33598456D01*
X85662812Y-33666376D01*
X85513512Y-33696073D01*
X85488742Y-33701000D01*
X85311258Y-33701000D01*
X85286488Y-33696073D01*
X85137188Y-33666376D01*
X84973216Y-33598456D01*
X84825646Y-33499853D01*
X84700147Y-33374354D01*
X84601544Y-33226784D01*
X84533624Y-33062812D01*
X84499000Y-32888741D01*
X84499000Y-32711259D01*
X84533624Y-32537188D01*
X84601544Y-32373216D01*
X84700147Y-32225646D01*
X84825646Y-32100147D01*
X84973216Y-32001544D01*
X85137188Y-31933624D01*
X85286488Y-31903927D01*
X85311258Y-31899000D01*
X85488742Y-31899000D01*
X85513512Y-31903927D01*
G37*
G36*
X98213512Y-31903927D02*
G01*
X98362812Y-31933624D01*
X98526784Y-32001544D01*
X98674354Y-32100147D01*
X98799853Y-32225646D01*
X98898456Y-32373216D01*
X98966376Y-32537188D01*
X99001000Y-32711259D01*
X99001000Y-32888741D01*
X98966376Y-33062812D01*
X98898456Y-33226784D01*
X98799853Y-33374354D01*
X98674354Y-33499853D01*
X98526784Y-33598456D01*
X98362812Y-33666376D01*
X98213512Y-33696073D01*
X98188742Y-33701000D01*
X98011258Y-33701000D01*
X97986488Y-33696073D01*
X97837188Y-33666376D01*
X97673216Y-33598456D01*
X97525646Y-33499853D01*
X97400147Y-33374354D01*
X97301544Y-33226784D01*
X97233624Y-33062812D01*
X97199000Y-32888741D01*
X97199000Y-32711259D01*
X97233624Y-32537188D01*
X97301544Y-32373216D01*
X97400147Y-32225646D01*
X97525646Y-32100147D01*
X97673216Y-32001544D01*
X97837188Y-31933624D01*
X97986488Y-31903927D01*
X98011258Y-31899000D01*
X98188742Y-31899000D01*
X98213512Y-31903927D01*
G37*
G36*
X80433512Y-31903927D02*
G01*
X80582812Y-31933624D01*
X80746784Y-32001544D01*
X80894354Y-32100147D01*
X81019853Y-32225646D01*
X81118456Y-32373216D01*
X81186376Y-32537188D01*
X81221000Y-32711259D01*
X81221000Y-32888741D01*
X81186376Y-33062812D01*
X81118456Y-33226784D01*
X81019853Y-33374354D01*
X80894354Y-33499853D01*
X80746784Y-33598456D01*
X80582812Y-33666376D01*
X80433512Y-33696073D01*
X80408742Y-33701000D01*
X80231258Y-33701000D01*
X80206488Y-33696073D01*
X80057188Y-33666376D01*
X79893216Y-33598456D01*
X79745646Y-33499853D01*
X79620147Y-33374354D01*
X79521544Y-33226784D01*
X79453624Y-33062812D01*
X79419000Y-32888741D01*
X79419000Y-32711259D01*
X79453624Y-32537188D01*
X79521544Y-32373216D01*
X79620147Y-32225646D01*
X79745646Y-32100147D01*
X79893216Y-32001544D01*
X80057188Y-31933624D01*
X80206488Y-31903927D01*
X80231258Y-31899000D01*
X80408742Y-31899000D01*
X80433512Y-31903927D01*
G37*
G36*
X77893512Y-31903927D02*
G01*
X78042812Y-31933624D01*
X78206784Y-32001544D01*
X78354354Y-32100147D01*
X78479853Y-32225646D01*
X78578456Y-32373216D01*
X78646376Y-32537188D01*
X78681000Y-32711259D01*
X78681000Y-32888741D01*
X78646376Y-33062812D01*
X78578456Y-33226784D01*
X78479853Y-33374354D01*
X78354354Y-33499853D01*
X78206784Y-33598456D01*
X78042812Y-33666376D01*
X77893512Y-33696073D01*
X77868742Y-33701000D01*
X77691258Y-33701000D01*
X77666488Y-33696073D01*
X77517188Y-33666376D01*
X77353216Y-33598456D01*
X77205646Y-33499853D01*
X77080147Y-33374354D01*
X76981544Y-33226784D01*
X76913624Y-33062812D01*
X76879000Y-32888741D01*
X76879000Y-32711259D01*
X76913624Y-32537188D01*
X76981544Y-32373216D01*
X77080147Y-32225646D01*
X77205646Y-32100147D01*
X77353216Y-32001544D01*
X77517188Y-31933624D01*
X77666488Y-31903927D01*
X77691258Y-31899000D01*
X77868742Y-31899000D01*
X77893512Y-31903927D01*
G37*
G36*
X75353512Y-31903927D02*
G01*
X75502812Y-31933624D01*
X75666784Y-32001544D01*
X75814354Y-32100147D01*
X75939853Y-32225646D01*
X76038456Y-32373216D01*
X76106376Y-32537188D01*
X76141000Y-32711259D01*
X76141000Y-32888741D01*
X76106376Y-33062812D01*
X76038456Y-33226784D01*
X75939853Y-33374354D01*
X75814354Y-33499853D01*
X75666784Y-33598456D01*
X75502812Y-33666376D01*
X75353512Y-33696073D01*
X75328742Y-33701000D01*
X75151258Y-33701000D01*
X75126488Y-33696073D01*
X74977188Y-33666376D01*
X74813216Y-33598456D01*
X74665646Y-33499853D01*
X74540147Y-33374354D01*
X74441544Y-33226784D01*
X74373624Y-33062812D01*
X74339000Y-32888741D01*
X74339000Y-32711259D01*
X74373624Y-32537188D01*
X74441544Y-32373216D01*
X74540147Y-32225646D01*
X74665646Y-32100147D01*
X74813216Y-32001544D01*
X74977188Y-31933624D01*
X75126488Y-31903927D01*
X75151258Y-31899000D01*
X75328742Y-31899000D01*
X75353512Y-31903927D01*
G37*
G36*
X72813512Y-31903927D02*
G01*
X72962812Y-31933624D01*
X73126784Y-32001544D01*
X73274354Y-32100147D01*
X73399853Y-32225646D01*
X73498456Y-32373216D01*
X73566376Y-32537188D01*
X73601000Y-32711259D01*
X73601000Y-32888741D01*
X73566376Y-33062812D01*
X73498456Y-33226784D01*
X73399853Y-33374354D01*
X73274354Y-33499853D01*
X73126784Y-33598456D01*
X72962812Y-33666376D01*
X72813512Y-33696073D01*
X72788742Y-33701000D01*
X72611258Y-33701000D01*
X72586488Y-33696073D01*
X72437188Y-33666376D01*
X72273216Y-33598456D01*
X72125646Y-33499853D01*
X72000147Y-33374354D01*
X71901544Y-33226784D01*
X71833624Y-33062812D01*
X71799000Y-32888741D01*
X71799000Y-32711259D01*
X71833624Y-32537188D01*
X71901544Y-32373216D01*
X72000147Y-32225646D01*
X72125646Y-32100147D01*
X72273216Y-32001544D01*
X72437188Y-31933624D01*
X72586488Y-31903927D01*
X72611258Y-31899000D01*
X72788742Y-31899000D01*
X72813512Y-31903927D01*
G37*
G36*
X70273512Y-31903927D02*
G01*
X70422812Y-31933624D01*
X70586784Y-32001544D01*
X70734354Y-32100147D01*
X70859853Y-32225646D01*
X70958456Y-32373216D01*
X71026376Y-32537188D01*
X71061000Y-32711259D01*
X71061000Y-32888741D01*
X71026376Y-33062812D01*
X70958456Y-33226784D01*
X70859853Y-33374354D01*
X70734354Y-33499853D01*
X70586784Y-33598456D01*
X70422812Y-33666376D01*
X70273512Y-33696073D01*
X70248742Y-33701000D01*
X70071258Y-33701000D01*
X70046488Y-33696073D01*
X69897188Y-33666376D01*
X69733216Y-33598456D01*
X69585646Y-33499853D01*
X69460147Y-33374354D01*
X69361544Y-33226784D01*
X69293624Y-33062812D01*
X69259000Y-32888741D01*
X69259000Y-32711259D01*
X69293624Y-32537188D01*
X69361544Y-32373216D01*
X69460147Y-32225646D01*
X69585646Y-32100147D01*
X69733216Y-32001544D01*
X69897188Y-31933624D01*
X70046488Y-31903927D01*
X70071258Y-31899000D01*
X70248742Y-31899000D01*
X70273512Y-31903927D01*
G37*
G36*
X67733512Y-31903927D02*
G01*
X67882812Y-31933624D01*
X68046784Y-32001544D01*
X68194354Y-32100147D01*
X68319853Y-32225646D01*
X68418456Y-32373216D01*
X68486376Y-32537188D01*
X68521000Y-32711259D01*
X68521000Y-32888741D01*
X68486376Y-33062812D01*
X68418456Y-33226784D01*
X68319853Y-33374354D01*
X68194354Y-33499853D01*
X68046784Y-33598456D01*
X67882812Y-33666376D01*
X67733512Y-33696073D01*
X67708742Y-33701000D01*
X67531258Y-33701000D01*
X67506488Y-33696073D01*
X67357188Y-33666376D01*
X67193216Y-33598456D01*
X67045646Y-33499853D01*
X66920147Y-33374354D01*
X66821544Y-33226784D01*
X66753624Y-33062812D01*
X66719000Y-32888741D01*
X66719000Y-32711259D01*
X66753624Y-32537188D01*
X66821544Y-32373216D01*
X66920147Y-32225646D01*
X67045646Y-32100147D01*
X67193216Y-32001544D01*
X67357188Y-31933624D01*
X67506488Y-31903927D01*
X67531258Y-31899000D01*
X67708742Y-31899000D01*
X67733512Y-31903927D01*
G37*
G36*
X125335512Y-31869927D02*
G01*
X125484812Y-31899624D01*
X125648784Y-31967544D01*
X125796354Y-32066147D01*
X125921853Y-32191646D01*
X126020456Y-32339216D01*
X126088376Y-32503188D01*
X126123000Y-32677259D01*
X126123000Y-32854741D01*
X126088376Y-33028812D01*
X126020456Y-33192784D01*
X125921853Y-33340354D01*
X125796354Y-33465853D01*
X125648784Y-33564456D01*
X125484812Y-33632376D01*
X125335512Y-33662073D01*
X125310742Y-33667000D01*
X125133258Y-33667000D01*
X125108488Y-33662073D01*
X124959188Y-33632376D01*
X124795216Y-33564456D01*
X124647646Y-33465853D01*
X124522147Y-33340354D01*
X124423544Y-33192784D01*
X124355624Y-33028812D01*
X124321000Y-32854741D01*
X124321000Y-32677259D01*
X124355624Y-32503188D01*
X124423544Y-32339216D01*
X124522147Y-32191646D01*
X124647646Y-32066147D01*
X124795216Y-31967544D01*
X124959188Y-31899624D01*
X125108488Y-31869927D01*
X125133258Y-31865000D01*
X125310742Y-31865000D01*
X125335512Y-31869927D01*
G37*
G36*
X121043000Y-33667000D02*
G01*
X119241000Y-33667000D01*
X119241000Y-31865000D01*
X121043000Y-31865000D01*
X121043000Y-33667000D01*
G37*
G36*
X127875512Y-31869927D02*
G01*
X128024812Y-31899624D01*
X128188784Y-31967544D01*
X128336354Y-32066147D01*
X128461853Y-32191646D01*
X128560456Y-32339216D01*
X128628376Y-32503188D01*
X128663000Y-32677259D01*
X128663000Y-32854741D01*
X128628376Y-33028812D01*
X128560456Y-33192784D01*
X128461853Y-33340354D01*
X128336354Y-33465853D01*
X128188784Y-33564456D01*
X128024812Y-33632376D01*
X127875512Y-33662073D01*
X127850742Y-33667000D01*
X127673258Y-33667000D01*
X127648488Y-33662073D01*
X127499188Y-33632376D01*
X127335216Y-33564456D01*
X127187646Y-33465853D01*
X127062147Y-33340354D01*
X126963544Y-33192784D01*
X126895624Y-33028812D01*
X126861000Y-32854741D01*
X126861000Y-32677259D01*
X126895624Y-32503188D01*
X126963544Y-32339216D01*
X127062147Y-32191646D01*
X127187646Y-32066147D01*
X127335216Y-31967544D01*
X127499188Y-31899624D01*
X127648488Y-31869927D01*
X127673258Y-31865000D01*
X127850742Y-31865000D01*
X127875512Y-31869927D01*
G37*
G36*
X122795512Y-31869927D02*
G01*
X122944812Y-31899624D01*
X123108784Y-31967544D01*
X123256354Y-32066147D01*
X123381853Y-32191646D01*
X123480456Y-32339216D01*
X123548376Y-32503188D01*
X123583000Y-32677259D01*
X123583000Y-32854741D01*
X123548376Y-33028812D01*
X123480456Y-33192784D01*
X123381853Y-33340354D01*
X123256354Y-33465853D01*
X123108784Y-33564456D01*
X122944812Y-33632376D01*
X122795512Y-33662073D01*
X122770742Y-33667000D01*
X122593258Y-33667000D01*
X122568488Y-33662073D01*
X122419188Y-33632376D01*
X122255216Y-33564456D01*
X122107646Y-33465853D01*
X121982147Y-33340354D01*
X121883544Y-33192784D01*
X121815624Y-33028812D01*
X121781000Y-32854741D01*
X121781000Y-32677259D01*
X121815624Y-32503188D01*
X121883544Y-32339216D01*
X121982147Y-32191646D01*
X122107646Y-32066147D01*
X122255216Y-31967544D01*
X122419188Y-31899624D01*
X122568488Y-31869927D01*
X122593258Y-31865000D01*
X122770742Y-31865000D01*
X122795512Y-31869927D01*
G37*
G36*
X195816098Y-28535033D02*
G01*
X196280350Y-28727332D01*
X196280352Y-28727333D01*
X196698168Y-29006509D01*
X197053491Y-29361832D01*
X197332667Y-29779648D01*
X197332668Y-29779650D01*
X197524967Y-30243902D01*
X197623000Y-30736747D01*
X197623000Y-31239253D01*
X197524967Y-31732098D01*
X197386599Y-32066148D01*
X197332667Y-32196352D01*
X197053491Y-32614168D01*
X196698168Y-32969491D01*
X196280352Y-33248667D01*
X196280351Y-33248668D01*
X196280350Y-33248668D01*
X195816098Y-33440967D01*
X195323253Y-33539000D01*
X194820747Y-33539000D01*
X194327902Y-33440967D01*
X193863650Y-33248668D01*
X193863649Y-33248668D01*
X193863648Y-33248667D01*
X193445832Y-32969491D01*
X193090509Y-32614168D01*
X192811333Y-32196352D01*
X192757401Y-32066148D01*
X192619033Y-31732098D01*
X192521000Y-31239253D01*
X192521000Y-30736747D01*
X192619033Y-30243902D01*
X192811332Y-29779650D01*
X192811333Y-29779648D01*
X193090509Y-29361832D01*
X193445832Y-29006509D01*
X193863648Y-28727333D01*
X193863650Y-28727332D01*
X194327902Y-28535033D01*
X194820747Y-28437000D01*
X195323253Y-28437000D01*
X195816098Y-28535033D01*
G37*
G36*
X39352098Y-28535033D02*
G01*
X39816350Y-28727332D01*
X39816352Y-28727333D01*
X40234168Y-29006509D01*
X40589491Y-29361832D01*
X40868667Y-29779648D01*
X40868668Y-29779650D01*
X41060967Y-30243902D01*
X41159000Y-30736747D01*
X41159000Y-31239253D01*
X41060967Y-31732098D01*
X40922599Y-32066148D01*
X40868667Y-32196352D01*
X40589491Y-32614168D01*
X40234168Y-32969491D01*
X39816352Y-33248667D01*
X39816351Y-33248668D01*
X39816350Y-33248668D01*
X39352098Y-33440967D01*
X38859253Y-33539000D01*
X38356747Y-33539000D01*
X37863902Y-33440967D01*
X37399650Y-33248668D01*
X37399649Y-33248668D01*
X37399648Y-33248667D01*
X36981832Y-32969491D01*
X36626509Y-32614168D01*
X36347333Y-32196352D01*
X36293401Y-32066148D01*
X36155033Y-31732098D01*
X36057000Y-31239253D01*
X36057000Y-30736747D01*
X36155033Y-30243902D01*
X36347332Y-29779650D01*
X36347333Y-29779648D01*
X36626509Y-29361832D01*
X36981832Y-29006509D01*
X37399648Y-28727333D01*
X37399650Y-28727332D01*
X37863902Y-28535033D01*
X38356747Y-28437000D01*
X38859253Y-28437000D01*
X39352098Y-28535033D01*
G37*
M02*
