G04 #@! TF.GenerationSoftware,KiCad,Pcbnew,5.1.6-c6e7f7d~87~ubuntu18.04.1*
G04 #@! TF.CreationDate,2021-01-10T02:12:58+01:00*
G04 #@! TF.ProjectId,ZynFace,5a796e46-6163-4652-9e6b-696361645f70,rev?*
G04 #@! TF.SameCoordinates,Original*
G04 #@! TF.FileFunction,Legend,Top*
G04 #@! TF.FilePolarity,Positive*
%FSLAX46Y46*%
G04 Gerber Fmt 4.6, Leading zero omitted, Abs format (unit mm)*
G04 Created by KiCad (PCBNEW 5.1.6-c6e7f7d~87~ubuntu18.04.1) date 2021-01-10 02:12:58*
%MOMM*%
%LPD*%
G01*
G04 APERTURE LIST*
%ADD10C,0.350000*%
%ADD11C,0.500000*%
%ADD12C,1.000000*%
%ADD13C,0.010000*%
%ADD14C,0.120000*%
%ADD15C,0.150000*%
G04 APERTURE END LIST*
D10*
X131371428Y-53004761D02*
X131371428Y-51004761D01*
X131371428Y-52909523D02*
X131180952Y-53004761D01*
X130800000Y-53004761D01*
X130609523Y-52909523D01*
X130514285Y-52814285D01*
X130419047Y-52623809D01*
X130419047Y-52052380D01*
X130514285Y-51861904D01*
X130609523Y-51766666D01*
X130800000Y-51671428D01*
X131180952Y-51671428D01*
X131371428Y-51766666D01*
X132323809Y-53004761D02*
X132323809Y-51671428D01*
X132323809Y-51004761D02*
X132228571Y-51100000D01*
X132323809Y-51195238D01*
X132419047Y-51100000D01*
X132323809Y-51004761D01*
X132323809Y-51195238D01*
X134133333Y-51671428D02*
X134133333Y-53290476D01*
X134038095Y-53480952D01*
X133942857Y-53576190D01*
X133752380Y-53671428D01*
X133466666Y-53671428D01*
X133276190Y-53576190D01*
X134133333Y-52909523D02*
X133942857Y-53004761D01*
X133561904Y-53004761D01*
X133371428Y-52909523D01*
X133276190Y-52814285D01*
X133180952Y-52623809D01*
X133180952Y-52052380D01*
X133276190Y-51861904D01*
X133371428Y-51766666D01*
X133561904Y-51671428D01*
X133942857Y-51671428D01*
X134133333Y-51766666D01*
X135085714Y-53004761D02*
X135085714Y-51671428D01*
X135085714Y-51004761D02*
X134990476Y-51100000D01*
X135085714Y-51195238D01*
X135180952Y-51100000D01*
X135085714Y-51004761D01*
X135085714Y-51195238D01*
X135752380Y-51671428D02*
X136514285Y-51671428D01*
X136038095Y-51004761D02*
X136038095Y-52719047D01*
X136133333Y-52909523D01*
X136323809Y-53004761D01*
X136514285Y-53004761D01*
X138038095Y-53004761D02*
X138038095Y-51957142D01*
X137942857Y-51766666D01*
X137752380Y-51671428D01*
X137371428Y-51671428D01*
X137180952Y-51766666D01*
X138038095Y-52909523D02*
X137847619Y-53004761D01*
X137371428Y-53004761D01*
X137180952Y-52909523D01*
X137085714Y-52719047D01*
X137085714Y-52528571D01*
X137180952Y-52338095D01*
X137371428Y-52242857D01*
X137847619Y-52242857D01*
X138038095Y-52147619D01*
X139276190Y-53004761D02*
X139085714Y-52909523D01*
X138990476Y-52719047D01*
X138990476Y-51004761D01*
X73971428Y-52904761D02*
X73971428Y-50904761D01*
X73971428Y-52809523D02*
X73780952Y-52904761D01*
X73400000Y-52904761D01*
X73209523Y-52809523D01*
X73114285Y-52714285D01*
X73019047Y-52523809D01*
X73019047Y-51952380D01*
X73114285Y-51761904D01*
X73209523Y-51666666D01*
X73400000Y-51571428D01*
X73780952Y-51571428D01*
X73971428Y-51666666D01*
X74923809Y-52904761D02*
X74923809Y-51571428D01*
X74923809Y-50904761D02*
X74828571Y-51000000D01*
X74923809Y-51095238D01*
X75019047Y-51000000D01*
X74923809Y-50904761D01*
X74923809Y-51095238D01*
X76733333Y-51571428D02*
X76733333Y-53190476D01*
X76638095Y-53380952D01*
X76542857Y-53476190D01*
X76352380Y-53571428D01*
X76066666Y-53571428D01*
X75876190Y-53476190D01*
X76733333Y-52809523D02*
X76542857Y-52904761D01*
X76161904Y-52904761D01*
X75971428Y-52809523D01*
X75876190Y-52714285D01*
X75780952Y-52523809D01*
X75780952Y-51952380D01*
X75876190Y-51761904D01*
X75971428Y-51666666D01*
X76161904Y-51571428D01*
X76542857Y-51571428D01*
X76733333Y-51666666D01*
X77685714Y-52904761D02*
X77685714Y-51571428D01*
X77685714Y-50904761D02*
X77590476Y-51000000D01*
X77685714Y-51095238D01*
X77780952Y-51000000D01*
X77685714Y-50904761D01*
X77685714Y-51095238D01*
X78352380Y-51571428D02*
X79114285Y-51571428D01*
X78638095Y-50904761D02*
X78638095Y-52619047D01*
X78733333Y-52809523D01*
X78923809Y-52904761D01*
X79114285Y-52904761D01*
X80638095Y-52904761D02*
X80638095Y-51857142D01*
X80542857Y-51666666D01*
X80352380Y-51571428D01*
X79971428Y-51571428D01*
X79780952Y-51666666D01*
X80638095Y-52809523D02*
X80447619Y-52904761D01*
X79971428Y-52904761D01*
X79780952Y-52809523D01*
X79685714Y-52619047D01*
X79685714Y-52428571D01*
X79780952Y-52238095D01*
X79971428Y-52142857D01*
X80447619Y-52142857D01*
X80638095Y-52047619D01*
X81876190Y-52904761D02*
X81685714Y-52809523D01*
X81590476Y-52619047D01*
X81590476Y-50904761D01*
X87085714Y-53004761D02*
X87085714Y-51957142D01*
X86990476Y-51766666D01*
X86800000Y-51671428D01*
X86419047Y-51671428D01*
X86228571Y-51766666D01*
X87085714Y-52909523D02*
X86895238Y-53004761D01*
X86419047Y-53004761D01*
X86228571Y-52909523D01*
X86133333Y-52719047D01*
X86133333Y-52528571D01*
X86228571Y-52338095D01*
X86419047Y-52242857D01*
X86895238Y-52242857D01*
X87085714Y-52147619D01*
X88038095Y-51671428D02*
X88038095Y-53004761D01*
X88038095Y-51861904D02*
X88133333Y-51766666D01*
X88323809Y-51671428D01*
X88609523Y-51671428D01*
X88800000Y-51766666D01*
X88895238Y-51957142D01*
X88895238Y-53004761D01*
X90704761Y-53004761D02*
X90704761Y-51957142D01*
X90609523Y-51766666D01*
X90419047Y-51671428D01*
X90038095Y-51671428D01*
X89847619Y-51766666D01*
X90704761Y-52909523D02*
X90514285Y-53004761D01*
X90038095Y-53004761D01*
X89847619Y-52909523D01*
X89752380Y-52719047D01*
X89752380Y-52528571D01*
X89847619Y-52338095D01*
X90038095Y-52242857D01*
X90514285Y-52242857D01*
X90704761Y-52147619D01*
X91942857Y-53004761D02*
X91752380Y-52909523D01*
X91657142Y-52719047D01*
X91657142Y-51004761D01*
X92990476Y-53004761D02*
X92800000Y-52909523D01*
X92704761Y-52814285D01*
X92609523Y-52623809D01*
X92609523Y-52052380D01*
X92704761Y-51861904D01*
X92800000Y-51766666D01*
X92990476Y-51671428D01*
X93276190Y-51671428D01*
X93466666Y-51766666D01*
X93561904Y-51861904D01*
X93657142Y-52052380D01*
X93657142Y-52623809D01*
X93561904Y-52814285D01*
X93466666Y-52909523D01*
X93276190Y-53004761D01*
X92990476Y-53004761D01*
X95371428Y-51671428D02*
X95371428Y-53290476D01*
X95276190Y-53480952D01*
X95180952Y-53576190D01*
X94990476Y-53671428D01*
X94704761Y-53671428D01*
X94514285Y-53576190D01*
X95371428Y-52909523D02*
X95180952Y-53004761D01*
X94800000Y-53004761D01*
X94609523Y-52909523D01*
X94514285Y-52814285D01*
X94419047Y-52623809D01*
X94419047Y-52052380D01*
X94514285Y-51861904D01*
X94609523Y-51766666D01*
X94800000Y-51671428D01*
X95180952Y-51671428D01*
X95371428Y-51766666D01*
X144985714Y-52904761D02*
X144985714Y-51857142D01*
X144890476Y-51666666D01*
X144700000Y-51571428D01*
X144319047Y-51571428D01*
X144128571Y-51666666D01*
X144985714Y-52809523D02*
X144795238Y-52904761D01*
X144319047Y-52904761D01*
X144128571Y-52809523D01*
X144033333Y-52619047D01*
X144033333Y-52428571D01*
X144128571Y-52238095D01*
X144319047Y-52142857D01*
X144795238Y-52142857D01*
X144985714Y-52047619D01*
X145938095Y-51571428D02*
X145938095Y-52904761D01*
X145938095Y-51761904D02*
X146033333Y-51666666D01*
X146223809Y-51571428D01*
X146509523Y-51571428D01*
X146700000Y-51666666D01*
X146795238Y-51857142D01*
X146795238Y-52904761D01*
X148604761Y-52904761D02*
X148604761Y-51857142D01*
X148509523Y-51666666D01*
X148319047Y-51571428D01*
X147938095Y-51571428D01*
X147747619Y-51666666D01*
X148604761Y-52809523D02*
X148414285Y-52904761D01*
X147938095Y-52904761D01*
X147747619Y-52809523D01*
X147652380Y-52619047D01*
X147652380Y-52428571D01*
X147747619Y-52238095D01*
X147938095Y-52142857D01*
X148414285Y-52142857D01*
X148604761Y-52047619D01*
X149842857Y-52904761D02*
X149652380Y-52809523D01*
X149557142Y-52619047D01*
X149557142Y-50904761D01*
X150890476Y-52904761D02*
X150700000Y-52809523D01*
X150604761Y-52714285D01*
X150509523Y-52523809D01*
X150509523Y-51952380D01*
X150604761Y-51761904D01*
X150700000Y-51666666D01*
X150890476Y-51571428D01*
X151176190Y-51571428D01*
X151366666Y-51666666D01*
X151461904Y-51761904D01*
X151557142Y-51952380D01*
X151557142Y-52523809D01*
X151461904Y-52714285D01*
X151366666Y-52809523D01*
X151176190Y-52904761D01*
X150890476Y-52904761D01*
X153271428Y-51571428D02*
X153271428Y-53190476D01*
X153176190Y-53380952D01*
X153080952Y-53476190D01*
X152890476Y-53571428D01*
X152604761Y-53571428D01*
X152414285Y-53476190D01*
X153271428Y-52809523D02*
X153080952Y-52904761D01*
X152700000Y-52904761D01*
X152509523Y-52809523D01*
X152414285Y-52714285D01*
X152319047Y-52523809D01*
X152319047Y-51952380D01*
X152414285Y-51761904D01*
X152509523Y-51666666D01*
X152700000Y-51571428D01*
X153080952Y-51571428D01*
X153271428Y-51666666D01*
D11*
X155471428Y-90357142D02*
X155471428Y-92357142D01*
X154757142Y-89214285D02*
X154042857Y-91357142D01*
X155900000Y-91357142D01*
X124457142Y-92257142D02*
X122742857Y-92257142D01*
X123600000Y-92257142D02*
X123600000Y-89257142D01*
X123314285Y-89685714D01*
X123028571Y-89971428D01*
X122742857Y-90114285D01*
X143500000Y-89357142D02*
X145357142Y-89357142D01*
X144357142Y-90500000D01*
X144785714Y-90500000D01*
X145071428Y-90642857D01*
X145214285Y-90785714D01*
X145357142Y-91071428D01*
X145357142Y-91785714D01*
X145214285Y-92071428D01*
X145071428Y-92214285D01*
X144785714Y-92357142D01*
X143928571Y-92357142D01*
X143642857Y-92214285D01*
X143500000Y-92071428D01*
X133142857Y-89542857D02*
X133285714Y-89400000D01*
X133571428Y-89257142D01*
X134285714Y-89257142D01*
X134571428Y-89400000D01*
X134714285Y-89542857D01*
X134857142Y-89828571D01*
X134857142Y-90114285D01*
X134714285Y-90542857D01*
X133000000Y-92257142D01*
X134857142Y-92257142D01*
X98371428Y-90357142D02*
X98371428Y-92357142D01*
X97657142Y-89214285D02*
X96942857Y-91357142D01*
X98800000Y-91357142D01*
X86400000Y-89357142D02*
X88257142Y-89357142D01*
X87257142Y-90500000D01*
X87685714Y-90500000D01*
X87971428Y-90642857D01*
X88114285Y-90785714D01*
X88257142Y-91071428D01*
X88257142Y-91785714D01*
X88114285Y-92071428D01*
X87971428Y-92214285D01*
X87685714Y-92357142D01*
X86828571Y-92357142D01*
X86542857Y-92214285D01*
X86400000Y-92071428D01*
X76042857Y-89542857D02*
X76185714Y-89400000D01*
X76471428Y-89257142D01*
X77185714Y-89257142D01*
X77471428Y-89400000D01*
X77614285Y-89542857D01*
X77757142Y-89828571D01*
X77757142Y-90114285D01*
X77614285Y-90542857D01*
X75900000Y-92257142D01*
X77757142Y-92257142D01*
X67357142Y-92257142D02*
X65642857Y-92257142D01*
X66500000Y-92257142D02*
X66500000Y-89257142D01*
X66214285Y-89685714D01*
X65928571Y-89971428D01*
X65642857Y-90114285D01*
D12*
X51504761Y-82785714D02*
X51266666Y-83023809D01*
X50552380Y-83261904D01*
X50076190Y-83261904D01*
X49361904Y-83023809D01*
X48885714Y-82547619D01*
X48647619Y-82071428D01*
X48409523Y-81119047D01*
X48409523Y-80404761D01*
X48647619Y-79452380D01*
X48885714Y-78976190D01*
X49361904Y-78500000D01*
X50076190Y-78261904D01*
X50552380Y-78261904D01*
X51266666Y-78500000D01*
X51504761Y-78738095D01*
X52933333Y-78261904D02*
X54600000Y-83261904D01*
X56266666Y-78261904D01*
X44376190Y-61300000D02*
X43900000Y-61061904D01*
X43185714Y-61061904D01*
X42471428Y-61300000D01*
X41995238Y-61776190D01*
X41757142Y-62252380D01*
X41519047Y-63204761D01*
X41519047Y-63919047D01*
X41757142Y-64871428D01*
X41995238Y-65347619D01*
X42471428Y-65823809D01*
X43185714Y-66061904D01*
X43661904Y-66061904D01*
X44376190Y-65823809D01*
X44614285Y-65585714D01*
X44614285Y-63919047D01*
X43661904Y-63919047D01*
X48900000Y-66061904D02*
X48900000Y-63442857D01*
X48661904Y-62966666D01*
X48185714Y-62728571D01*
X47233333Y-62728571D01*
X46757142Y-62966666D01*
X48900000Y-65823809D02*
X48423809Y-66061904D01*
X47233333Y-66061904D01*
X46757142Y-65823809D01*
X46519047Y-65347619D01*
X46519047Y-64871428D01*
X46757142Y-64395238D01*
X47233333Y-64157142D01*
X48423809Y-64157142D01*
X48900000Y-63919047D01*
X50566666Y-62728571D02*
X52471428Y-62728571D01*
X51280952Y-61061904D02*
X51280952Y-65347619D01*
X51519047Y-65823809D01*
X51995238Y-66061904D01*
X52471428Y-66061904D01*
X56042857Y-65823809D02*
X55566666Y-66061904D01*
X54614285Y-66061904D01*
X54138095Y-65823809D01*
X53899999Y-65347619D01*
X53899999Y-63442857D01*
X54138095Y-62966666D01*
X54614285Y-62728571D01*
X55566666Y-62728571D01*
X56042857Y-62966666D01*
X56280952Y-63442857D01*
X56280952Y-63919047D01*
X53899999Y-64395238D01*
X119280952Y-45461904D02*
X119280952Y-40461904D01*
X121661904Y-45461904D02*
X121661904Y-40461904D01*
X124519047Y-45461904D01*
X124519047Y-40461904D01*
X62800000Y-40761904D02*
X63752380Y-40761904D01*
X64228571Y-41000000D01*
X64704761Y-41476190D01*
X64942857Y-42428571D01*
X64942857Y-44095238D01*
X64704761Y-45047619D01*
X64228571Y-45523809D01*
X63752380Y-45761904D01*
X62800000Y-45761904D01*
X62323809Y-45523809D01*
X61847619Y-45047619D01*
X61609523Y-44095238D01*
X61609523Y-42428571D01*
X61847619Y-41476190D01*
X62323809Y-41000000D01*
X62800000Y-40761904D01*
X67085714Y-40761904D02*
X67085714Y-44809523D01*
X67323809Y-45285714D01*
X67561904Y-45523809D01*
X68038095Y-45761904D01*
X68990476Y-45761904D01*
X69466666Y-45523809D01*
X69704761Y-45285714D01*
X69942857Y-44809523D01*
X69942857Y-40761904D01*
X71609523Y-40761904D02*
X74466666Y-40761904D01*
X73038095Y-45761904D02*
X73038095Y-40761904D01*
D13*
G36*
X178555814Y-32168931D02*
G01*
X178639635Y-32613555D01*
X178948920Y-32741053D01*
X179258206Y-32868551D01*
X179629246Y-32616246D01*
X179733157Y-32545996D01*
X179827087Y-32483272D01*
X179906652Y-32430938D01*
X179967470Y-32391857D01*
X180005157Y-32368893D01*
X180015421Y-32363942D01*
X180033910Y-32376676D01*
X180073420Y-32411882D01*
X180129522Y-32465062D01*
X180197787Y-32531718D01*
X180273786Y-32607354D01*
X180353092Y-32687472D01*
X180431275Y-32767574D01*
X180503907Y-32843164D01*
X180566559Y-32909745D01*
X180614803Y-32962818D01*
X180644210Y-32997887D01*
X180651241Y-33009623D01*
X180641123Y-33031260D01*
X180612759Y-33078662D01*
X180569129Y-33147193D01*
X180513218Y-33232215D01*
X180448006Y-33329093D01*
X180410219Y-33384350D01*
X180341343Y-33485248D01*
X180280140Y-33576299D01*
X180229578Y-33652970D01*
X180192628Y-33710728D01*
X180172258Y-33745043D01*
X180169197Y-33752254D01*
X180176136Y-33772748D01*
X180195051Y-33820513D01*
X180223087Y-33888832D01*
X180257391Y-33970989D01*
X180295109Y-34060270D01*
X180333387Y-34149958D01*
X180369370Y-34233338D01*
X180400206Y-34303694D01*
X180423039Y-34354310D01*
X180435017Y-34378471D01*
X180435724Y-34379422D01*
X180454531Y-34384036D01*
X180504618Y-34394328D01*
X180580793Y-34409287D01*
X180677865Y-34427901D01*
X180790643Y-34449159D01*
X180856442Y-34461418D01*
X180976950Y-34484362D01*
X181085797Y-34506195D01*
X181177476Y-34525722D01*
X181246481Y-34541748D01*
X181287304Y-34553079D01*
X181295511Y-34556674D01*
X181303548Y-34581006D01*
X181310033Y-34635959D01*
X181314970Y-34715108D01*
X181318364Y-34812026D01*
X181320218Y-34920287D01*
X181320538Y-35033465D01*
X181319327Y-35145135D01*
X181316590Y-35248868D01*
X181312331Y-35338241D01*
X181306555Y-35406826D01*
X181299267Y-35448197D01*
X181294895Y-35456810D01*
X181268764Y-35467133D01*
X181213393Y-35481892D01*
X181136107Y-35499352D01*
X181044230Y-35517780D01*
X181012158Y-35523741D01*
X180857524Y-35552066D01*
X180735375Y-35574876D01*
X180641673Y-35593080D01*
X180572384Y-35607583D01*
X180523471Y-35619292D01*
X180490897Y-35629115D01*
X180470628Y-35637956D01*
X180458626Y-35646724D01*
X180456947Y-35648457D01*
X180440184Y-35676371D01*
X180414614Y-35730695D01*
X180382788Y-35804777D01*
X180347260Y-35891965D01*
X180310583Y-35985608D01*
X180275311Y-36079052D01*
X180243996Y-36165647D01*
X180219193Y-36238740D01*
X180203454Y-36291678D01*
X180199332Y-36317811D01*
X180199676Y-36318726D01*
X180213641Y-36340086D01*
X180245322Y-36387084D01*
X180291391Y-36454827D01*
X180348518Y-36538423D01*
X180413373Y-36632982D01*
X180431843Y-36659854D01*
X180497699Y-36757275D01*
X180555650Y-36846163D01*
X180602538Y-36921412D01*
X180635207Y-36977920D01*
X180650500Y-37010581D01*
X180651241Y-37014593D01*
X180638392Y-37035684D01*
X180602888Y-37077464D01*
X180549293Y-37135445D01*
X180482171Y-37205135D01*
X180406087Y-37282045D01*
X180325604Y-37361683D01*
X180245287Y-37439561D01*
X180169699Y-37511186D01*
X180103405Y-37572070D01*
X180050969Y-37617721D01*
X180016955Y-37643650D01*
X180007545Y-37647883D01*
X179985643Y-37637912D01*
X179940800Y-37611020D01*
X179880321Y-37571736D01*
X179833789Y-37540117D01*
X179749475Y-37482098D01*
X179649626Y-37413784D01*
X179549473Y-37345579D01*
X179495627Y-37309075D01*
X179313371Y-37185800D01*
X179160381Y-37268520D01*
X179090682Y-37304759D01*
X179031414Y-37332926D01*
X178991311Y-37348991D01*
X178981103Y-37351226D01*
X178968829Y-37334722D01*
X178944613Y-37288082D01*
X178910263Y-37215609D01*
X178867588Y-37121606D01*
X178818394Y-37010374D01*
X178764490Y-36886215D01*
X178707684Y-36753432D01*
X178649782Y-36616327D01*
X178592593Y-36479202D01*
X178537924Y-36346358D01*
X178487584Y-36222098D01*
X178443380Y-36110725D01*
X178407119Y-36016539D01*
X178380609Y-35943844D01*
X178365658Y-35896941D01*
X178363254Y-35880833D01*
X178382311Y-35860286D01*
X178424036Y-35826933D01*
X178479706Y-35787702D01*
X178484378Y-35784599D01*
X178628264Y-35669423D01*
X178744283Y-35535053D01*
X178831430Y-35385784D01*
X178888699Y-35225913D01*
X178915086Y-35059737D01*
X178909585Y-34891552D01*
X178871190Y-34725655D01*
X178798895Y-34566342D01*
X178777626Y-34531487D01*
X178666996Y-34390737D01*
X178536302Y-34277714D01*
X178390064Y-34193003D01*
X178232808Y-34137194D01*
X178069057Y-34110874D01*
X177903333Y-34114630D01*
X177740162Y-34149050D01*
X177584065Y-34214723D01*
X177439567Y-34312235D01*
X177394869Y-34351813D01*
X177281112Y-34475703D01*
X177198218Y-34606124D01*
X177141356Y-34752315D01*
X177109687Y-34897088D01*
X177101869Y-35059860D01*
X177127938Y-35223440D01*
X177185245Y-35382298D01*
X177271144Y-35530906D01*
X177382986Y-35663735D01*
X177518123Y-35775256D01*
X177535883Y-35787011D01*
X177592150Y-35825508D01*
X177634923Y-35858863D01*
X177655372Y-35880160D01*
X177655669Y-35880833D01*
X177651279Y-35903871D01*
X177633876Y-35956157D01*
X177605268Y-36033390D01*
X177567265Y-36131268D01*
X177521674Y-36245491D01*
X177470303Y-36371758D01*
X177414962Y-36505767D01*
X177357458Y-36643218D01*
X177299601Y-36779808D01*
X177243198Y-36911237D01*
X177190058Y-37033205D01*
X177141990Y-37141409D01*
X177100801Y-37231549D01*
X177068301Y-37299323D01*
X177046297Y-37340430D01*
X177037436Y-37351226D01*
X177010360Y-37342819D01*
X176959697Y-37320272D01*
X176894183Y-37287613D01*
X176858159Y-37268520D01*
X176705168Y-37185800D01*
X176522912Y-37309075D01*
X176429875Y-37372228D01*
X176328015Y-37441727D01*
X176232562Y-37507165D01*
X176184750Y-37540117D01*
X176117505Y-37585273D01*
X176060564Y-37621057D01*
X176021354Y-37642938D01*
X176008619Y-37647563D01*
X175990083Y-37635085D01*
X175949059Y-37600252D01*
X175889525Y-37546678D01*
X175815458Y-37477983D01*
X175730835Y-37397781D01*
X175677315Y-37346286D01*
X175583681Y-37254286D01*
X175502759Y-37171999D01*
X175437823Y-37102945D01*
X175392142Y-37050644D01*
X175368989Y-37018616D01*
X175366768Y-37012116D01*
X175377076Y-36987394D01*
X175405561Y-36937405D01*
X175449063Y-36867212D01*
X175504423Y-36781875D01*
X175568480Y-36686456D01*
X175586697Y-36659854D01*
X175653073Y-36563167D01*
X175712622Y-36476117D01*
X175762016Y-36403595D01*
X175797925Y-36350493D01*
X175817019Y-36321703D01*
X175818864Y-36318726D01*
X175816105Y-36295782D01*
X175801462Y-36245336D01*
X175777487Y-36174041D01*
X175746734Y-36088547D01*
X175711756Y-35995507D01*
X175675107Y-35901574D01*
X175639339Y-35813399D01*
X175607006Y-35737634D01*
X175580662Y-35680931D01*
X175562858Y-35649943D01*
X175561593Y-35648457D01*
X175550706Y-35639601D01*
X175532318Y-35630843D01*
X175502394Y-35621277D01*
X175456897Y-35609996D01*
X175391791Y-35596093D01*
X175303039Y-35578663D01*
X175186607Y-35556798D01*
X175038458Y-35529591D01*
X175006382Y-35523741D01*
X174911314Y-35505374D01*
X174828435Y-35487405D01*
X174765070Y-35471569D01*
X174728542Y-35459600D01*
X174723644Y-35456810D01*
X174715573Y-35432072D01*
X174709013Y-35376790D01*
X174703967Y-35297389D01*
X174700441Y-35200296D01*
X174698439Y-35091938D01*
X174697964Y-34978740D01*
X174699023Y-34867128D01*
X174701618Y-34763529D01*
X174705754Y-34674368D01*
X174711437Y-34606072D01*
X174718669Y-34565066D01*
X174723029Y-34556674D01*
X174747302Y-34548208D01*
X174802574Y-34534435D01*
X174883338Y-34516550D01*
X174984088Y-34495748D01*
X175099317Y-34473223D01*
X175162098Y-34461418D01*
X175281213Y-34439151D01*
X175387435Y-34418979D01*
X175475573Y-34401915D01*
X175540434Y-34388969D01*
X175576826Y-34381155D01*
X175582816Y-34379422D01*
X175592939Y-34359890D01*
X175614338Y-34312843D01*
X175644161Y-34245003D01*
X175679555Y-34163091D01*
X175717668Y-34073828D01*
X175755647Y-33983935D01*
X175790640Y-33900135D01*
X175819794Y-33829147D01*
X175840257Y-33777694D01*
X175849177Y-33752497D01*
X175849343Y-33751396D01*
X175839231Y-33731519D01*
X175810883Y-33685777D01*
X175767277Y-33618717D01*
X175711394Y-33534884D01*
X175646213Y-33438826D01*
X175608321Y-33383650D01*
X175539275Y-33282481D01*
X175477950Y-33190630D01*
X175427337Y-33112744D01*
X175390429Y-33053469D01*
X175370218Y-33017451D01*
X175367299Y-33009377D01*
X175379847Y-32990584D01*
X175414537Y-32950457D01*
X175466937Y-32893493D01*
X175532616Y-32824185D01*
X175607144Y-32747031D01*
X175686087Y-32666525D01*
X175765017Y-32587163D01*
X175839500Y-32513440D01*
X175905106Y-32449852D01*
X175957404Y-32400894D01*
X175991961Y-32371061D01*
X176003522Y-32363942D01*
X176022346Y-32373953D01*
X176067369Y-32402078D01*
X176134213Y-32445454D01*
X176218501Y-32501218D01*
X176315856Y-32566506D01*
X176389293Y-32616246D01*
X176760333Y-32868551D01*
X177378905Y-32613555D01*
X177462725Y-32168931D01*
X177546546Y-31724307D01*
X178471994Y-31724307D01*
X178555814Y-32168931D01*
G37*
X178555814Y-32168931D02*
X178639635Y-32613555D01*
X178948920Y-32741053D01*
X179258206Y-32868551D01*
X179629246Y-32616246D01*
X179733157Y-32545996D01*
X179827087Y-32483272D01*
X179906652Y-32430938D01*
X179967470Y-32391857D01*
X180005157Y-32368893D01*
X180015421Y-32363942D01*
X180033910Y-32376676D01*
X180073420Y-32411882D01*
X180129522Y-32465062D01*
X180197787Y-32531718D01*
X180273786Y-32607354D01*
X180353092Y-32687472D01*
X180431275Y-32767574D01*
X180503907Y-32843164D01*
X180566559Y-32909745D01*
X180614803Y-32962818D01*
X180644210Y-32997887D01*
X180651241Y-33009623D01*
X180641123Y-33031260D01*
X180612759Y-33078662D01*
X180569129Y-33147193D01*
X180513218Y-33232215D01*
X180448006Y-33329093D01*
X180410219Y-33384350D01*
X180341343Y-33485248D01*
X180280140Y-33576299D01*
X180229578Y-33652970D01*
X180192628Y-33710728D01*
X180172258Y-33745043D01*
X180169197Y-33752254D01*
X180176136Y-33772748D01*
X180195051Y-33820513D01*
X180223087Y-33888832D01*
X180257391Y-33970989D01*
X180295109Y-34060270D01*
X180333387Y-34149958D01*
X180369370Y-34233338D01*
X180400206Y-34303694D01*
X180423039Y-34354310D01*
X180435017Y-34378471D01*
X180435724Y-34379422D01*
X180454531Y-34384036D01*
X180504618Y-34394328D01*
X180580793Y-34409287D01*
X180677865Y-34427901D01*
X180790643Y-34449159D01*
X180856442Y-34461418D01*
X180976950Y-34484362D01*
X181085797Y-34506195D01*
X181177476Y-34525722D01*
X181246481Y-34541748D01*
X181287304Y-34553079D01*
X181295511Y-34556674D01*
X181303548Y-34581006D01*
X181310033Y-34635959D01*
X181314970Y-34715108D01*
X181318364Y-34812026D01*
X181320218Y-34920287D01*
X181320538Y-35033465D01*
X181319327Y-35145135D01*
X181316590Y-35248868D01*
X181312331Y-35338241D01*
X181306555Y-35406826D01*
X181299267Y-35448197D01*
X181294895Y-35456810D01*
X181268764Y-35467133D01*
X181213393Y-35481892D01*
X181136107Y-35499352D01*
X181044230Y-35517780D01*
X181012158Y-35523741D01*
X180857524Y-35552066D01*
X180735375Y-35574876D01*
X180641673Y-35593080D01*
X180572384Y-35607583D01*
X180523471Y-35619292D01*
X180490897Y-35629115D01*
X180470628Y-35637956D01*
X180458626Y-35646724D01*
X180456947Y-35648457D01*
X180440184Y-35676371D01*
X180414614Y-35730695D01*
X180382788Y-35804777D01*
X180347260Y-35891965D01*
X180310583Y-35985608D01*
X180275311Y-36079052D01*
X180243996Y-36165647D01*
X180219193Y-36238740D01*
X180203454Y-36291678D01*
X180199332Y-36317811D01*
X180199676Y-36318726D01*
X180213641Y-36340086D01*
X180245322Y-36387084D01*
X180291391Y-36454827D01*
X180348518Y-36538423D01*
X180413373Y-36632982D01*
X180431843Y-36659854D01*
X180497699Y-36757275D01*
X180555650Y-36846163D01*
X180602538Y-36921412D01*
X180635207Y-36977920D01*
X180650500Y-37010581D01*
X180651241Y-37014593D01*
X180638392Y-37035684D01*
X180602888Y-37077464D01*
X180549293Y-37135445D01*
X180482171Y-37205135D01*
X180406087Y-37282045D01*
X180325604Y-37361683D01*
X180245287Y-37439561D01*
X180169699Y-37511186D01*
X180103405Y-37572070D01*
X180050969Y-37617721D01*
X180016955Y-37643650D01*
X180007545Y-37647883D01*
X179985643Y-37637912D01*
X179940800Y-37611020D01*
X179880321Y-37571736D01*
X179833789Y-37540117D01*
X179749475Y-37482098D01*
X179649626Y-37413784D01*
X179549473Y-37345579D01*
X179495627Y-37309075D01*
X179313371Y-37185800D01*
X179160381Y-37268520D01*
X179090682Y-37304759D01*
X179031414Y-37332926D01*
X178991311Y-37348991D01*
X178981103Y-37351226D01*
X178968829Y-37334722D01*
X178944613Y-37288082D01*
X178910263Y-37215609D01*
X178867588Y-37121606D01*
X178818394Y-37010374D01*
X178764490Y-36886215D01*
X178707684Y-36753432D01*
X178649782Y-36616327D01*
X178592593Y-36479202D01*
X178537924Y-36346358D01*
X178487584Y-36222098D01*
X178443380Y-36110725D01*
X178407119Y-36016539D01*
X178380609Y-35943844D01*
X178365658Y-35896941D01*
X178363254Y-35880833D01*
X178382311Y-35860286D01*
X178424036Y-35826933D01*
X178479706Y-35787702D01*
X178484378Y-35784599D01*
X178628264Y-35669423D01*
X178744283Y-35535053D01*
X178831430Y-35385784D01*
X178888699Y-35225913D01*
X178915086Y-35059737D01*
X178909585Y-34891552D01*
X178871190Y-34725655D01*
X178798895Y-34566342D01*
X178777626Y-34531487D01*
X178666996Y-34390737D01*
X178536302Y-34277714D01*
X178390064Y-34193003D01*
X178232808Y-34137194D01*
X178069057Y-34110874D01*
X177903333Y-34114630D01*
X177740162Y-34149050D01*
X177584065Y-34214723D01*
X177439567Y-34312235D01*
X177394869Y-34351813D01*
X177281112Y-34475703D01*
X177198218Y-34606124D01*
X177141356Y-34752315D01*
X177109687Y-34897088D01*
X177101869Y-35059860D01*
X177127938Y-35223440D01*
X177185245Y-35382298D01*
X177271144Y-35530906D01*
X177382986Y-35663735D01*
X177518123Y-35775256D01*
X177535883Y-35787011D01*
X177592150Y-35825508D01*
X177634923Y-35858863D01*
X177655372Y-35880160D01*
X177655669Y-35880833D01*
X177651279Y-35903871D01*
X177633876Y-35956157D01*
X177605268Y-36033390D01*
X177567265Y-36131268D01*
X177521674Y-36245491D01*
X177470303Y-36371758D01*
X177414962Y-36505767D01*
X177357458Y-36643218D01*
X177299601Y-36779808D01*
X177243198Y-36911237D01*
X177190058Y-37033205D01*
X177141990Y-37141409D01*
X177100801Y-37231549D01*
X177068301Y-37299323D01*
X177046297Y-37340430D01*
X177037436Y-37351226D01*
X177010360Y-37342819D01*
X176959697Y-37320272D01*
X176894183Y-37287613D01*
X176858159Y-37268520D01*
X176705168Y-37185800D01*
X176522912Y-37309075D01*
X176429875Y-37372228D01*
X176328015Y-37441727D01*
X176232562Y-37507165D01*
X176184750Y-37540117D01*
X176117505Y-37585273D01*
X176060564Y-37621057D01*
X176021354Y-37642938D01*
X176008619Y-37647563D01*
X175990083Y-37635085D01*
X175949059Y-37600252D01*
X175889525Y-37546678D01*
X175815458Y-37477983D01*
X175730835Y-37397781D01*
X175677315Y-37346286D01*
X175583681Y-37254286D01*
X175502759Y-37171999D01*
X175437823Y-37102945D01*
X175392142Y-37050644D01*
X175368989Y-37018616D01*
X175366768Y-37012116D01*
X175377076Y-36987394D01*
X175405561Y-36937405D01*
X175449063Y-36867212D01*
X175504423Y-36781875D01*
X175568480Y-36686456D01*
X175586697Y-36659854D01*
X175653073Y-36563167D01*
X175712622Y-36476117D01*
X175762016Y-36403595D01*
X175797925Y-36350493D01*
X175817019Y-36321703D01*
X175818864Y-36318726D01*
X175816105Y-36295782D01*
X175801462Y-36245336D01*
X175777487Y-36174041D01*
X175746734Y-36088547D01*
X175711756Y-35995507D01*
X175675107Y-35901574D01*
X175639339Y-35813399D01*
X175607006Y-35737634D01*
X175580662Y-35680931D01*
X175562858Y-35649943D01*
X175561593Y-35648457D01*
X175550706Y-35639601D01*
X175532318Y-35630843D01*
X175502394Y-35621277D01*
X175456897Y-35609996D01*
X175391791Y-35596093D01*
X175303039Y-35578663D01*
X175186607Y-35556798D01*
X175038458Y-35529591D01*
X175006382Y-35523741D01*
X174911314Y-35505374D01*
X174828435Y-35487405D01*
X174765070Y-35471569D01*
X174728542Y-35459600D01*
X174723644Y-35456810D01*
X174715573Y-35432072D01*
X174709013Y-35376790D01*
X174703967Y-35297389D01*
X174700441Y-35200296D01*
X174698439Y-35091938D01*
X174697964Y-34978740D01*
X174699023Y-34867128D01*
X174701618Y-34763529D01*
X174705754Y-34674368D01*
X174711437Y-34606072D01*
X174718669Y-34565066D01*
X174723029Y-34556674D01*
X174747302Y-34548208D01*
X174802574Y-34534435D01*
X174883338Y-34516550D01*
X174984088Y-34495748D01*
X175099317Y-34473223D01*
X175162098Y-34461418D01*
X175281213Y-34439151D01*
X175387435Y-34418979D01*
X175475573Y-34401915D01*
X175540434Y-34388969D01*
X175576826Y-34381155D01*
X175582816Y-34379422D01*
X175592939Y-34359890D01*
X175614338Y-34312843D01*
X175644161Y-34245003D01*
X175679555Y-34163091D01*
X175717668Y-34073828D01*
X175755647Y-33983935D01*
X175790640Y-33900135D01*
X175819794Y-33829147D01*
X175840257Y-33777694D01*
X175849177Y-33752497D01*
X175849343Y-33751396D01*
X175839231Y-33731519D01*
X175810883Y-33685777D01*
X175767277Y-33618717D01*
X175711394Y-33534884D01*
X175646213Y-33438826D01*
X175608321Y-33383650D01*
X175539275Y-33282481D01*
X175477950Y-33190630D01*
X175427337Y-33112744D01*
X175390429Y-33053469D01*
X175370218Y-33017451D01*
X175367299Y-33009377D01*
X175379847Y-32990584D01*
X175414537Y-32950457D01*
X175466937Y-32893493D01*
X175532616Y-32824185D01*
X175607144Y-32747031D01*
X175686087Y-32666525D01*
X175765017Y-32587163D01*
X175839500Y-32513440D01*
X175905106Y-32449852D01*
X175957404Y-32400894D01*
X175991961Y-32371061D01*
X176003522Y-32363942D01*
X176022346Y-32373953D01*
X176067369Y-32402078D01*
X176134213Y-32445454D01*
X176218501Y-32501218D01*
X176315856Y-32566506D01*
X176389293Y-32616246D01*
X176760333Y-32868551D01*
X177378905Y-32613555D01*
X177462725Y-32168931D01*
X177546546Y-31724307D01*
X178471994Y-31724307D01*
X178555814Y-32168931D01*
D14*
X122140000Y-72820000D02*
X123460000Y-72820000D01*
X122140000Y-72820000D02*
X122140000Y-73920000D01*
X123960000Y-75200000D02*
X123960000Y-75800000D01*
X123120000Y-75200000D02*
X123120000Y-75800000D01*
X125340000Y-80480000D02*
G75*
G03*
X125340000Y-80480000I-1800000J0D01*
G01*
X122640000Y-75980000D02*
X119040000Y-75980000D01*
X128040000Y-75980000D02*
X124440000Y-75980000D01*
X122540000Y-86480000D02*
X119040000Y-86480000D01*
X128040000Y-86480000D02*
X124540000Y-86480000D01*
X128040000Y-75980000D02*
X128040000Y-86480000D01*
X119040000Y-75980000D02*
X119040000Y-86480000D01*
X122243737Y-77891423D02*
G75*
G03*
X123540000Y-83375000I1296263J-2588577D01*
G01*
X124836263Y-77891423D02*
G75*
G02*
X123540000Y-83375000I-1296263J-2588577D01*
G01*
X129454000Y-75980000D02*
X129454000Y-86480000D01*
X138454000Y-75980000D02*
X138454000Y-86480000D01*
X138454000Y-86480000D02*
X134954000Y-86480000D01*
X132954000Y-86480000D02*
X129454000Y-86480000D01*
X138454000Y-75980000D02*
X134854000Y-75980000D01*
X133054000Y-75980000D02*
X129454000Y-75980000D01*
X135754000Y-80480000D02*
G75*
G03*
X135754000Y-80480000I-1800000J0D01*
G01*
X133534000Y-75200000D02*
X133534000Y-75800000D01*
X134374000Y-75200000D02*
X134374000Y-75800000D01*
X132554000Y-72820000D02*
X132554000Y-73920000D01*
X132554000Y-72820000D02*
X133874000Y-72820000D01*
X135250263Y-77891423D02*
G75*
G02*
X133954000Y-83375000I-1296263J-2588577D01*
G01*
X132657737Y-77891423D02*
G75*
G03*
X133954000Y-83375000I1296263J-2588577D01*
G01*
X142968000Y-72820000D02*
X144288000Y-72820000D01*
X142968000Y-72820000D02*
X142968000Y-73920000D01*
X144788000Y-75200000D02*
X144788000Y-75800000D01*
X143948000Y-75200000D02*
X143948000Y-75800000D01*
X146168000Y-80480000D02*
G75*
G03*
X146168000Y-80480000I-1800000J0D01*
G01*
X143468000Y-75980000D02*
X139868000Y-75980000D01*
X148868000Y-75980000D02*
X145268000Y-75980000D01*
X143368000Y-86480000D02*
X139868000Y-86480000D01*
X148868000Y-86480000D02*
X145368000Y-86480000D01*
X148868000Y-75980000D02*
X148868000Y-86480000D01*
X139868000Y-75980000D02*
X139868000Y-86480000D01*
X143071737Y-77891423D02*
G75*
G03*
X144368000Y-83375000I1296263J-2588577D01*
G01*
X145664263Y-77891423D02*
G75*
G02*
X144368000Y-83375000I-1296263J-2588577D01*
G01*
X150282000Y-75980000D02*
X150282000Y-86480000D01*
X159282000Y-75980000D02*
X159282000Y-86480000D01*
X159282000Y-86480000D02*
X155782000Y-86480000D01*
X153782000Y-86480000D02*
X150282000Y-86480000D01*
X159282000Y-75980000D02*
X155682000Y-75980000D01*
X153882000Y-75980000D02*
X150282000Y-75980000D01*
X156582000Y-80480000D02*
G75*
G03*
X156582000Y-80480000I-1800000J0D01*
G01*
X154362000Y-75200000D02*
X154362000Y-75800000D01*
X155202000Y-75200000D02*
X155202000Y-75800000D01*
X153382000Y-72820000D02*
X153382000Y-73920000D01*
X153382000Y-72820000D02*
X154702000Y-72820000D01*
X156078263Y-77891423D02*
G75*
G02*
X154782000Y-83375000I-1296263J-2588577D01*
G01*
X153485737Y-77891423D02*
G75*
G03*
X154782000Y-83375000I1296263J-2588577D01*
G01*
X119040000Y-57946000D02*
X119040000Y-68446000D01*
X128040000Y-57946000D02*
X128040000Y-68446000D01*
X128040000Y-68446000D02*
X124540000Y-68446000D01*
X122540000Y-68446000D02*
X119040000Y-68446000D01*
X128040000Y-57946000D02*
X124440000Y-57946000D01*
X122640000Y-57946000D02*
X119040000Y-57946000D01*
X125340000Y-62446000D02*
G75*
G03*
X125340000Y-62446000I-1800000J0D01*
G01*
X123120000Y-57166000D02*
X123120000Y-57766000D01*
X123960000Y-57166000D02*
X123960000Y-57766000D01*
X122140000Y-54786000D02*
X122140000Y-55886000D01*
X122140000Y-54786000D02*
X123460000Y-54786000D01*
X124836263Y-59857423D02*
G75*
G02*
X123540000Y-65341000I-1296263J-2588577D01*
G01*
X122243737Y-59857423D02*
G75*
G03*
X123540000Y-65341000I1296263J-2588577D01*
G01*
X129454000Y-57946000D02*
X129454000Y-68446000D01*
X138454000Y-57946000D02*
X138454000Y-68446000D01*
X138454000Y-68446000D02*
X134954000Y-68446000D01*
X132954000Y-68446000D02*
X129454000Y-68446000D01*
X138454000Y-57946000D02*
X134854000Y-57946000D01*
X133054000Y-57946000D02*
X129454000Y-57946000D01*
X135754000Y-62446000D02*
G75*
G03*
X135754000Y-62446000I-1800000J0D01*
G01*
X133534000Y-57166000D02*
X133534000Y-57766000D01*
X134374000Y-57166000D02*
X134374000Y-57766000D01*
X132554000Y-54786000D02*
X132554000Y-55886000D01*
X132554000Y-54786000D02*
X133874000Y-54786000D01*
X135250263Y-59857423D02*
G75*
G02*
X133954000Y-65341000I-1296263J-2588577D01*
G01*
X132657737Y-59857423D02*
G75*
G03*
X133954000Y-65341000I1296263J-2588577D01*
G01*
X142968000Y-54786000D02*
X144288000Y-54786000D01*
X142968000Y-54786000D02*
X142968000Y-55886000D01*
X144788000Y-57166000D02*
X144788000Y-57766000D01*
X143948000Y-57166000D02*
X143948000Y-57766000D01*
X146168000Y-62446000D02*
G75*
G03*
X146168000Y-62446000I-1800000J0D01*
G01*
X143468000Y-57946000D02*
X139868000Y-57946000D01*
X148868000Y-57946000D02*
X145268000Y-57946000D01*
X143368000Y-68446000D02*
X139868000Y-68446000D01*
X148868000Y-68446000D02*
X145368000Y-68446000D01*
X148868000Y-57946000D02*
X148868000Y-68446000D01*
X139868000Y-57946000D02*
X139868000Y-68446000D01*
X143071737Y-59857423D02*
G75*
G03*
X144368000Y-65341000I1296263J-2588577D01*
G01*
X145664263Y-59857423D02*
G75*
G02*
X144368000Y-65341000I-1296263J-2588577D01*
G01*
X153382000Y-54786000D02*
X154702000Y-54786000D01*
X153382000Y-54786000D02*
X153382000Y-55886000D01*
X155202000Y-57166000D02*
X155202000Y-57766000D01*
X154362000Y-57166000D02*
X154362000Y-57766000D01*
X156582000Y-62446000D02*
G75*
G03*
X156582000Y-62446000I-1800000J0D01*
G01*
X153882000Y-57946000D02*
X150282000Y-57946000D01*
X159282000Y-57946000D02*
X155682000Y-57946000D01*
X153782000Y-68446000D02*
X150282000Y-68446000D01*
X159282000Y-68446000D02*
X155782000Y-68446000D01*
X159282000Y-57946000D02*
X159282000Y-68446000D01*
X150282000Y-57946000D02*
X150282000Y-68446000D01*
X153485737Y-59857423D02*
G75*
G03*
X154782000Y-65341000I1296263J-2588577D01*
G01*
X156078263Y-59857423D02*
G75*
G02*
X154782000Y-65341000I-1296263J-2588577D01*
G01*
X194766000Y-47505252D02*
X194766000Y-46982748D01*
X193346000Y-47505252D02*
X193346000Y-46982748D01*
X112130000Y-31470000D02*
X112130000Y-32800000D01*
X110800000Y-31470000D02*
X112130000Y-31470000D01*
X112130000Y-34070000D02*
X112130000Y-36670000D01*
X109530000Y-34070000D02*
X112130000Y-34070000D01*
X109530000Y-31470000D02*
X109530000Y-34070000D01*
X112130000Y-36670000D02*
X61210000Y-36670000D01*
X109530000Y-31470000D02*
X61210000Y-31470000D01*
X61210000Y-31470000D02*
X61210000Y-36670000D01*
D15*
X189523000Y-50760000D02*
X190873000Y-50760000D01*
X189523000Y-45635000D02*
X184873000Y-45635000D01*
X189523000Y-50885000D02*
X184873000Y-50885000D01*
X189523000Y-45635000D02*
X189523000Y-45860000D01*
X184873000Y-45635000D02*
X184873000Y-45860000D01*
X184873000Y-50885000D02*
X184873000Y-50660000D01*
X189523000Y-50885000D02*
X189523000Y-50760000D01*
D14*
X186690000Y-73212000D02*
X185580000Y-73212000D01*
X185580000Y-73212000D02*
X185580000Y-71882000D01*
X196780000Y-73212000D02*
X196780000Y-57852000D01*
X196780000Y-57852000D02*
X188150000Y-57852000D01*
X188150000Y-73212000D02*
X188150000Y-57852000D01*
X196780000Y-73212000D02*
X188150000Y-73212000D01*
X196780000Y-60452000D02*
X188150000Y-60452000D01*
X196780000Y-62992000D02*
X188150000Y-62992000D01*
X196780000Y-65532000D02*
X188150000Y-65532000D01*
X196780000Y-68072000D02*
X188150000Y-68072000D01*
X196780000Y-70612000D02*
X188150000Y-70612000D01*
X188150000Y-58822000D02*
X187740000Y-58822000D01*
X188150000Y-59542000D02*
X187740000Y-59542000D01*
X188150000Y-61362000D02*
X187740000Y-61362000D01*
X188150000Y-62082000D02*
X187740000Y-62082000D01*
X188150000Y-63902000D02*
X187740000Y-63902000D01*
X188150000Y-64622000D02*
X187740000Y-64622000D01*
X188150000Y-66442000D02*
X187740000Y-66442000D01*
X188150000Y-67162000D02*
X187740000Y-67162000D01*
X188150000Y-68982000D02*
X187740000Y-68982000D01*
X188150000Y-69702000D02*
X187740000Y-69702000D01*
X188150000Y-71522000D02*
X187800000Y-71522000D01*
X188150000Y-72242000D02*
X187800000Y-72242000D01*
X196780000Y-70730100D02*
X188150000Y-70730100D01*
X196780000Y-70848195D02*
X188150000Y-70848195D01*
X196780000Y-70966290D02*
X188150000Y-70966290D01*
X196780000Y-71084385D02*
X188150000Y-71084385D01*
X196780000Y-71202480D02*
X188150000Y-71202480D01*
X196780000Y-71320575D02*
X188150000Y-71320575D01*
X196780000Y-71438670D02*
X188150000Y-71438670D01*
X196780000Y-71556765D02*
X188150000Y-71556765D01*
X196780000Y-71674860D02*
X188150000Y-71674860D01*
X196780000Y-71792955D02*
X188150000Y-71792955D01*
X196780000Y-71911050D02*
X188150000Y-71911050D01*
X196780000Y-72029145D02*
X188150000Y-72029145D01*
X196780000Y-72147240D02*
X188150000Y-72147240D01*
X196780000Y-72265335D02*
X188150000Y-72265335D01*
X196780000Y-72383430D02*
X188150000Y-72383430D01*
X196780000Y-72501525D02*
X188150000Y-72501525D01*
X196780000Y-72619620D02*
X188150000Y-72619620D01*
X196780000Y-72737715D02*
X188150000Y-72737715D01*
X196780000Y-72855810D02*
X188150000Y-72855810D01*
X196780000Y-72973905D02*
X188150000Y-72973905D01*
X196780000Y-73092000D02*
X188150000Y-73092000D01*
X181550000Y-55372000D02*
X181550000Y-54042000D01*
X181550000Y-54042000D02*
X182880000Y-54042000D01*
X184150000Y-54042000D02*
X196910000Y-54042000D01*
X196910000Y-56702000D02*
X196910000Y-54042000D01*
X184150000Y-56702000D02*
X196910000Y-56702000D01*
X184150000Y-56702000D02*
X184150000Y-54042000D01*
X145638000Y-50438000D02*
X145638000Y-47778000D01*
X145638000Y-50438000D02*
X153318000Y-50438000D01*
X153318000Y-50438000D02*
X153318000Y-47778000D01*
X145638000Y-47778000D02*
X153318000Y-47778000D01*
X143038000Y-47778000D02*
X144368000Y-47778000D01*
X143038000Y-49108000D02*
X143038000Y-47778000D01*
X85182000Y-49108000D02*
X85182000Y-47778000D01*
X85182000Y-47778000D02*
X86512000Y-47778000D01*
X87782000Y-47778000D02*
X95462000Y-47778000D01*
X95462000Y-50438000D02*
X95462000Y-47778000D01*
X87782000Y-50438000D02*
X95462000Y-50438000D01*
X87782000Y-50438000D02*
X87782000Y-47778000D01*
X118908000Y-49108000D02*
X118908000Y-47778000D01*
X118908000Y-47778000D02*
X120238000Y-47778000D01*
X121508000Y-47778000D02*
X139348000Y-47778000D01*
X139348000Y-50438000D02*
X139348000Y-47778000D01*
X121508000Y-50438000D02*
X139348000Y-50438000D01*
X121508000Y-50438000D02*
X121508000Y-47778000D01*
X64160000Y-50438000D02*
X64160000Y-47778000D01*
X64160000Y-50438000D02*
X82000000Y-50438000D01*
X82000000Y-50438000D02*
X82000000Y-47778000D01*
X64160000Y-47778000D02*
X82000000Y-47778000D01*
X61560000Y-47778000D02*
X62890000Y-47778000D01*
X61560000Y-49108000D02*
X61560000Y-47778000D01*
X118812000Y-32766000D02*
X118812000Y-31436000D01*
X118812000Y-31436000D02*
X120142000Y-31436000D01*
X118812000Y-34036000D02*
X121412000Y-34036000D01*
X121412000Y-34036000D02*
X121412000Y-31436000D01*
X121412000Y-31436000D02*
X129092000Y-31436000D01*
X129092000Y-36636000D02*
X129092000Y-31436000D01*
X118812000Y-36636000D02*
X129092000Y-36636000D01*
X118812000Y-36636000D02*
X118812000Y-34036000D01*
X61946000Y-75980000D02*
X61946000Y-86480000D01*
X70946000Y-75980000D02*
X70946000Y-86480000D01*
X70946000Y-86480000D02*
X67446000Y-86480000D01*
X65446000Y-86480000D02*
X61946000Y-86480000D01*
X70946000Y-75980000D02*
X67346000Y-75980000D01*
X65546000Y-75980000D02*
X61946000Y-75980000D01*
X68246000Y-80480000D02*
G75*
G03*
X68246000Y-80480000I-1800000J0D01*
G01*
X66026000Y-75200000D02*
X66026000Y-75800000D01*
X66866000Y-75200000D02*
X66866000Y-75800000D01*
X65046000Y-72820000D02*
X65046000Y-73920000D01*
X65046000Y-72820000D02*
X66366000Y-72820000D01*
X67742263Y-77891423D02*
G75*
G02*
X66446000Y-83375000I-1296263J-2588577D01*
G01*
X65149737Y-77891423D02*
G75*
G03*
X66446000Y-83375000I1296263J-2588577D01*
G01*
X72360000Y-75980000D02*
X72360000Y-86480000D01*
X81360000Y-75980000D02*
X81360000Y-86480000D01*
X81360000Y-86480000D02*
X77860000Y-86480000D01*
X75860000Y-86480000D02*
X72360000Y-86480000D01*
X81360000Y-75980000D02*
X77760000Y-75980000D01*
X75960000Y-75980000D02*
X72360000Y-75980000D01*
X78660000Y-80480000D02*
G75*
G03*
X78660000Y-80480000I-1800000J0D01*
G01*
X76440000Y-75200000D02*
X76440000Y-75800000D01*
X77280000Y-75200000D02*
X77280000Y-75800000D01*
X75460000Y-72820000D02*
X75460000Y-73920000D01*
X75460000Y-72820000D02*
X76780000Y-72820000D01*
X78156263Y-77891423D02*
G75*
G02*
X76860000Y-83375000I-1296263J-2588577D01*
G01*
X75563737Y-77891423D02*
G75*
G03*
X76860000Y-83375000I1296263J-2588577D01*
G01*
X82774000Y-75980000D02*
X82774000Y-86480000D01*
X91774000Y-75980000D02*
X91774000Y-86480000D01*
X91774000Y-86480000D02*
X88274000Y-86480000D01*
X86274000Y-86480000D02*
X82774000Y-86480000D01*
X91774000Y-75980000D02*
X88174000Y-75980000D01*
X86374000Y-75980000D02*
X82774000Y-75980000D01*
X89074000Y-80480000D02*
G75*
G03*
X89074000Y-80480000I-1800000J0D01*
G01*
X86854000Y-75200000D02*
X86854000Y-75800000D01*
X87694000Y-75200000D02*
X87694000Y-75800000D01*
X85874000Y-72820000D02*
X85874000Y-73920000D01*
X85874000Y-72820000D02*
X87194000Y-72820000D01*
X88570263Y-77891423D02*
G75*
G02*
X87274000Y-83375000I-1296263J-2588577D01*
G01*
X85977737Y-77891423D02*
G75*
G03*
X87274000Y-83375000I1296263J-2588577D01*
G01*
X96288000Y-72820000D02*
X97608000Y-72820000D01*
X96288000Y-72820000D02*
X96288000Y-73920000D01*
X98108000Y-75200000D02*
X98108000Y-75800000D01*
X97268000Y-75200000D02*
X97268000Y-75800000D01*
X99488000Y-80480000D02*
G75*
G03*
X99488000Y-80480000I-1800000J0D01*
G01*
X96788000Y-75980000D02*
X93188000Y-75980000D01*
X102188000Y-75980000D02*
X98588000Y-75980000D01*
X96688000Y-86480000D02*
X93188000Y-86480000D01*
X102188000Y-86480000D02*
X98688000Y-86480000D01*
X102188000Y-75980000D02*
X102188000Y-86480000D01*
X93188000Y-75980000D02*
X93188000Y-86480000D01*
X96391737Y-77891423D02*
G75*
G03*
X97688000Y-83375000I1296263J-2588577D01*
G01*
X98984263Y-77891423D02*
G75*
G02*
X97688000Y-83375000I-1296263J-2588577D01*
G01*
X65046000Y-54786000D02*
X66366000Y-54786000D01*
X65046000Y-54786000D02*
X65046000Y-55886000D01*
X66866000Y-57166000D02*
X66866000Y-57766000D01*
X66026000Y-57166000D02*
X66026000Y-57766000D01*
X68246000Y-62446000D02*
G75*
G03*
X68246000Y-62446000I-1800000J0D01*
G01*
X65546000Y-57946000D02*
X61946000Y-57946000D01*
X70946000Y-57946000D02*
X67346000Y-57946000D01*
X65446000Y-68446000D02*
X61946000Y-68446000D01*
X70946000Y-68446000D02*
X67446000Y-68446000D01*
X70946000Y-57946000D02*
X70946000Y-68446000D01*
X61946000Y-57946000D02*
X61946000Y-68446000D01*
X65149737Y-59857423D02*
G75*
G03*
X66446000Y-65341000I1296263J-2588577D01*
G01*
X67742263Y-59857423D02*
G75*
G02*
X66446000Y-65341000I-1296263J-2588577D01*
G01*
X75460000Y-54786000D02*
X76780000Y-54786000D01*
X75460000Y-54786000D02*
X75460000Y-55886000D01*
X77280000Y-57166000D02*
X77280000Y-57766000D01*
X76440000Y-57166000D02*
X76440000Y-57766000D01*
X78660000Y-62446000D02*
G75*
G03*
X78660000Y-62446000I-1800000J0D01*
G01*
X75960000Y-57946000D02*
X72360000Y-57946000D01*
X81360000Y-57946000D02*
X77760000Y-57946000D01*
X75860000Y-68446000D02*
X72360000Y-68446000D01*
X81360000Y-68446000D02*
X77860000Y-68446000D01*
X81360000Y-57946000D02*
X81360000Y-68446000D01*
X72360000Y-57946000D02*
X72360000Y-68446000D01*
X75563737Y-59857423D02*
G75*
G03*
X76860000Y-65341000I1296263J-2588577D01*
G01*
X78156263Y-59857423D02*
G75*
G02*
X76860000Y-65341000I-1296263J-2588577D01*
G01*
X82774000Y-57946000D02*
X82774000Y-68446000D01*
X91774000Y-57946000D02*
X91774000Y-68446000D01*
X91774000Y-68446000D02*
X88274000Y-68446000D01*
X86274000Y-68446000D02*
X82774000Y-68446000D01*
X91774000Y-57946000D02*
X88174000Y-57946000D01*
X86374000Y-57946000D02*
X82774000Y-57946000D01*
X89074000Y-62446000D02*
G75*
G03*
X89074000Y-62446000I-1800000J0D01*
G01*
X86854000Y-57166000D02*
X86854000Y-57766000D01*
X87694000Y-57166000D02*
X87694000Y-57766000D01*
X85874000Y-54786000D02*
X85874000Y-55886000D01*
X85874000Y-54786000D02*
X87194000Y-54786000D01*
X88570263Y-59857423D02*
G75*
G02*
X87274000Y-65341000I-1296263J-2588577D01*
G01*
X85977737Y-59857423D02*
G75*
G03*
X87274000Y-65341000I1296263J-2588577D01*
G01*
X96288000Y-54786000D02*
X97608000Y-54786000D01*
X96288000Y-54786000D02*
X96288000Y-55886000D01*
X98108000Y-57166000D02*
X98108000Y-57766000D01*
X97268000Y-57166000D02*
X97268000Y-57766000D01*
X99488000Y-62446000D02*
G75*
G03*
X99488000Y-62446000I-1800000J0D01*
G01*
X96788000Y-57946000D02*
X93188000Y-57946000D01*
X102188000Y-57946000D02*
X98588000Y-57946000D01*
X96688000Y-68446000D02*
X93188000Y-68446000D01*
X102188000Y-68446000D02*
X98688000Y-68446000D01*
X102188000Y-57946000D02*
X102188000Y-68446000D01*
X93188000Y-57946000D02*
X93188000Y-68446000D01*
X96391737Y-59857423D02*
G75*
G03*
X97688000Y-65341000I1296263J-2588577D01*
G01*
X98984263Y-59857423D02*
G75*
G02*
X97688000Y-65341000I-1296263J-2588577D01*
G01*
X178990000Y-51462779D02*
X178990000Y-51137221D01*
X180010000Y-51462779D02*
X180010000Y-51137221D01*
X140300000Y-31470000D02*
X141630000Y-31470000D01*
X141630000Y-31470000D02*
X141630000Y-32800000D01*
X141630000Y-34070000D02*
X141630000Y-36670000D01*
X138970000Y-36670000D02*
X141630000Y-36670000D01*
X138970000Y-34070000D02*
X138970000Y-36670000D01*
X138970000Y-34070000D02*
X141630000Y-34070000D01*
D15*
X193889333Y-50490380D02*
X193556000Y-50014190D01*
X193317904Y-50490380D02*
X193317904Y-49490380D01*
X193698857Y-49490380D01*
X193794095Y-49538000D01*
X193841714Y-49585619D01*
X193889333Y-49680857D01*
X193889333Y-49823714D01*
X193841714Y-49918952D01*
X193794095Y-49966571D01*
X193698857Y-50014190D01*
X193317904Y-50014190D01*
X194841714Y-50490380D02*
X194270285Y-50490380D01*
X194556000Y-50490380D02*
X194556000Y-49490380D01*
X194460761Y-49633238D01*
X194365523Y-49728476D01*
X194270285Y-49776095D01*
X104504761Y-37552380D02*
X105171428Y-37552380D01*
X104504761Y-38552380D01*
X105171428Y-38552380D01*
X105457142Y-37885714D02*
X105695238Y-38552380D01*
X105933333Y-37885714D02*
X105695238Y-38552380D01*
X105600000Y-38790476D01*
X105552380Y-38838095D01*
X105457142Y-38885714D01*
X106314285Y-37885714D02*
X106314285Y-38552380D01*
X106314285Y-37980952D02*
X106361904Y-37933333D01*
X106457142Y-37885714D01*
X106600000Y-37885714D01*
X106695238Y-37933333D01*
X106742857Y-38028571D01*
X106742857Y-38552380D01*
X107647619Y-38552380D02*
X107647619Y-38028571D01*
X107600000Y-37933333D01*
X107504761Y-37885714D01*
X107314285Y-37885714D01*
X107219047Y-37933333D01*
X107647619Y-38504761D02*
X107552380Y-38552380D01*
X107314285Y-38552380D01*
X107219047Y-38504761D01*
X107171428Y-38409523D01*
X107171428Y-38314285D01*
X107219047Y-38219047D01*
X107314285Y-38171428D01*
X107552380Y-38171428D01*
X107647619Y-38123809D01*
X108123809Y-37885714D02*
X108123809Y-38885714D01*
X108123809Y-37933333D02*
X108219047Y-37885714D01*
X108409523Y-37885714D01*
X108504761Y-37933333D01*
X108552380Y-37980952D01*
X108600000Y-38076190D01*
X108600000Y-38361904D01*
X108552380Y-38457142D01*
X108504761Y-38504761D01*
X108409523Y-38552380D01*
X108219047Y-38552380D01*
X108123809Y-38504761D01*
X108885714Y-37885714D02*
X109266666Y-37885714D01*
X109028571Y-37552380D02*
X109028571Y-38409523D01*
X109076190Y-38504761D01*
X109171428Y-38552380D01*
X109266666Y-38552380D01*
X109600000Y-38552380D02*
X109600000Y-37885714D01*
X109600000Y-37552380D02*
X109552380Y-37600000D01*
X109600000Y-37647619D01*
X109647619Y-37600000D01*
X109600000Y-37552380D01*
X109600000Y-37647619D01*
X110076190Y-38552380D02*
X110076190Y-37552380D01*
X110171428Y-38171428D02*
X110457142Y-38552380D01*
X110457142Y-37885714D02*
X110076190Y-38266666D01*
X110885714Y-38171428D02*
X111647619Y-38171428D01*
X112647619Y-38552380D02*
X112076190Y-38552380D01*
X112361904Y-38552380D02*
X112361904Y-37552380D01*
X112266666Y-37695238D01*
X112171428Y-37790476D01*
X112076190Y-37838095D01*
X186436095Y-44156380D02*
X186436095Y-44965904D01*
X186483714Y-45061142D01*
X186531333Y-45108761D01*
X186626571Y-45156380D01*
X186817047Y-45156380D01*
X186912285Y-45108761D01*
X186959904Y-45061142D01*
X187007523Y-44965904D01*
X187007523Y-44156380D01*
X188007523Y-45156380D02*
X187436095Y-45156380D01*
X187721809Y-45156380D02*
X187721809Y-44156380D01*
X187626571Y-44299238D01*
X187531333Y-44394476D01*
X187436095Y-44442095D01*
X190817714Y-74382380D02*
X191389142Y-74382380D01*
X191103428Y-75382380D02*
X191103428Y-74382380D01*
X191912952Y-74382380D02*
X192103428Y-74382380D01*
X192198666Y-74430000D01*
X192293904Y-74525238D01*
X192341523Y-74715714D01*
X192341523Y-75049047D01*
X192293904Y-75239523D01*
X192198666Y-75334761D01*
X192103428Y-75382380D01*
X191912952Y-75382380D01*
X191817714Y-75334761D01*
X191722476Y-75239523D01*
X191674857Y-75049047D01*
X191674857Y-74715714D01*
X191722476Y-74525238D01*
X191817714Y-74430000D01*
X191912952Y-74382380D01*
X193103428Y-74858571D02*
X192770095Y-74858571D01*
X192770095Y-75382380D02*
X192770095Y-74382380D01*
X193246285Y-74382380D01*
X194151047Y-75382380D02*
X193579619Y-75382380D01*
X193865333Y-75382380D02*
X193865333Y-74382380D01*
X193770095Y-74525238D01*
X193674857Y-74620476D01*
X193579619Y-74668095D01*
X177101714Y-55078380D02*
X177673142Y-55078380D01*
X177387428Y-56078380D02*
X177387428Y-55078380D01*
X178196952Y-55078380D02*
X178387428Y-55078380D01*
X178482666Y-55126000D01*
X178577904Y-55221238D01*
X178625523Y-55411714D01*
X178625523Y-55745047D01*
X178577904Y-55935523D01*
X178482666Y-56030761D01*
X178387428Y-56078380D01*
X178196952Y-56078380D01*
X178101714Y-56030761D01*
X178006476Y-55935523D01*
X177958857Y-55745047D01*
X177958857Y-55411714D01*
X178006476Y-55221238D01*
X178101714Y-55126000D01*
X178196952Y-55078380D01*
X179387428Y-55554571D02*
X179054095Y-55554571D01*
X179054095Y-56078380D02*
X179054095Y-55078380D01*
X179530285Y-55078380D01*
X179863619Y-55173619D02*
X179911238Y-55126000D01*
X180006476Y-55078380D01*
X180244571Y-55078380D01*
X180339809Y-55126000D01*
X180387428Y-55173619D01*
X180435047Y-55268857D01*
X180435047Y-55364095D01*
X180387428Y-55506952D01*
X179816000Y-56078380D01*
X180435047Y-56078380D01*
X129714285Y-35571428D02*
X130476190Y-35571428D01*
X130095238Y-35952380D02*
X130095238Y-35190476D01*
X131428571Y-34952380D02*
X130952380Y-34952380D01*
X130904761Y-35428571D01*
X130952380Y-35380952D01*
X131047619Y-35333333D01*
X131285714Y-35333333D01*
X131380952Y-35380952D01*
X131428571Y-35428571D01*
X131476190Y-35523809D01*
X131476190Y-35761904D01*
X131428571Y-35857142D01*
X131380952Y-35904761D01*
X131285714Y-35952380D01*
X131047619Y-35952380D01*
X130952380Y-35904761D01*
X130904761Y-35857142D01*
X131761904Y-34952380D02*
X132095238Y-35952380D01*
X132428571Y-34952380D01*
X130538095Y-32300000D02*
X130442857Y-32252380D01*
X130300000Y-32252380D01*
X130157142Y-32300000D01*
X130061904Y-32395238D01*
X130014285Y-32490476D01*
X129966666Y-32680952D01*
X129966666Y-32823809D01*
X130014285Y-33014285D01*
X130061904Y-33109523D01*
X130157142Y-33204761D01*
X130300000Y-33252380D01*
X130395238Y-33252380D01*
X130538095Y-33204761D01*
X130585714Y-33157142D01*
X130585714Y-32823809D01*
X130395238Y-32823809D01*
X131014285Y-33252380D02*
X131014285Y-32252380D01*
X131585714Y-33252380D01*
X131585714Y-32252380D01*
X132061904Y-33252380D02*
X132061904Y-32252380D01*
X132300000Y-32252380D01*
X132442857Y-32300000D01*
X132538095Y-32395238D01*
X132585714Y-32490476D01*
X132633333Y-32680952D01*
X132633333Y-32823809D01*
X132585714Y-33014285D01*
X132538095Y-33109523D01*
X132442857Y-33204761D01*
X132300000Y-33252380D01*
X132061904Y-33252380D01*
X125023809Y-38452380D02*
X125023809Y-37452380D01*
X125404761Y-37452380D01*
X125500000Y-37500000D01*
X125547619Y-37547619D01*
X125595238Y-37642857D01*
X125595238Y-37785714D01*
X125547619Y-37880952D01*
X125500000Y-37928571D01*
X125404761Y-37976190D01*
X125023809Y-37976190D01*
X126166666Y-38452380D02*
X126071428Y-38404761D01*
X126023809Y-38357142D01*
X125976190Y-38261904D01*
X125976190Y-37976190D01*
X126023809Y-37880952D01*
X126071428Y-37833333D01*
X126166666Y-37785714D01*
X126309523Y-37785714D01*
X126404761Y-37833333D01*
X126452380Y-37880952D01*
X126500000Y-37976190D01*
X126500000Y-38261904D01*
X126452380Y-38357142D01*
X126404761Y-38404761D01*
X126309523Y-38452380D01*
X126166666Y-38452380D01*
X126833333Y-37785714D02*
X127023809Y-38452380D01*
X127214285Y-37976190D01*
X127404761Y-38452380D01*
X127595238Y-37785714D01*
X128357142Y-38404761D02*
X128261904Y-38452380D01*
X128071428Y-38452380D01*
X127976190Y-38404761D01*
X127928571Y-38309523D01*
X127928571Y-37928571D01*
X127976190Y-37833333D01*
X128071428Y-37785714D01*
X128261904Y-37785714D01*
X128357142Y-37833333D01*
X128404761Y-37928571D01*
X128404761Y-38023809D01*
X127928571Y-38119047D01*
X128833333Y-38452380D02*
X128833333Y-37785714D01*
X128833333Y-37976190D02*
X128880952Y-37880952D01*
X128928571Y-37833333D01*
X129023809Y-37785714D01*
X129119047Y-37785714D01*
X178427142Y-51466666D02*
X178474761Y-51514285D01*
X178522380Y-51657142D01*
X178522380Y-51752380D01*
X178474761Y-51895238D01*
X178379523Y-51990476D01*
X178284285Y-52038095D01*
X178093809Y-52085714D01*
X177950952Y-52085714D01*
X177760476Y-52038095D01*
X177665238Y-51990476D01*
X177570000Y-51895238D01*
X177522380Y-51752380D01*
X177522380Y-51657142D01*
X177570000Y-51514285D01*
X177617619Y-51466666D01*
X178522380Y-50514285D02*
X178522380Y-51085714D01*
X178522380Y-50800000D02*
X177522380Y-50800000D01*
X177665238Y-50895238D01*
X177760476Y-50990476D01*
X177808095Y-51085714D01*
X139623809Y-38552380D02*
X139623809Y-37552380D01*
X140052380Y-37647619D02*
X140100000Y-37600000D01*
X140195238Y-37552380D01*
X140433333Y-37552380D01*
X140528571Y-37600000D01*
X140576190Y-37647619D01*
X140623809Y-37742857D01*
X140623809Y-37838095D01*
X140576190Y-37980952D01*
X140004761Y-38552380D01*
X140623809Y-38552380D01*
X141623809Y-38457142D02*
X141576190Y-38504761D01*
X141433333Y-38552380D01*
X141338095Y-38552380D01*
X141195238Y-38504761D01*
X141100000Y-38409523D01*
X141052380Y-38314285D01*
X141004761Y-38123809D01*
X141004761Y-37980952D01*
X141052380Y-37790476D01*
X141100000Y-37695238D01*
X141195238Y-37600000D01*
X141338095Y-37552380D01*
X141433333Y-37552380D01*
X141576190Y-37600000D01*
X141623809Y-37647619D01*
X142485714Y-33204761D02*
X142628571Y-33252380D01*
X142866666Y-33252380D01*
X142961904Y-33204761D01*
X143009523Y-33157142D01*
X143057142Y-33061904D01*
X143057142Y-32966666D01*
X143009523Y-32871428D01*
X142961904Y-32823809D01*
X142866666Y-32776190D01*
X142676190Y-32728571D01*
X142580952Y-32680952D01*
X142533333Y-32633333D01*
X142485714Y-32538095D01*
X142485714Y-32442857D01*
X142533333Y-32347619D01*
X142580952Y-32300000D01*
X142676190Y-32252380D01*
X142914285Y-32252380D01*
X143057142Y-32300000D01*
X143485714Y-33252380D02*
X143485714Y-32252380D01*
X143723809Y-32252380D01*
X143866666Y-32300000D01*
X143961904Y-32395238D01*
X144009523Y-32490476D01*
X144057142Y-32680952D01*
X144057142Y-32823809D01*
X144009523Y-33014285D01*
X143961904Y-33109523D01*
X143866666Y-33204761D01*
X143723809Y-33252380D01*
X143485714Y-33252380D01*
X144438095Y-32966666D02*
X144914285Y-32966666D01*
X144342857Y-33252380D02*
X144676190Y-32252380D01*
X145009523Y-33252380D01*
X142609523Y-35804761D02*
X142752380Y-35852380D01*
X142990476Y-35852380D01*
X143085714Y-35804761D01*
X143133333Y-35757142D01*
X143180952Y-35661904D01*
X143180952Y-35566666D01*
X143133333Y-35471428D01*
X143085714Y-35423809D01*
X142990476Y-35376190D01*
X142800000Y-35328571D01*
X142704761Y-35280952D01*
X142657142Y-35233333D01*
X142609523Y-35138095D01*
X142609523Y-35042857D01*
X142657142Y-34947619D01*
X142704761Y-34900000D01*
X142800000Y-34852380D01*
X143038095Y-34852380D01*
X143180952Y-34900000D01*
X144180952Y-35757142D02*
X144133333Y-35804761D01*
X143990476Y-35852380D01*
X143895238Y-35852380D01*
X143752380Y-35804761D01*
X143657142Y-35709523D01*
X143609523Y-35614285D01*
X143561904Y-35423809D01*
X143561904Y-35280952D01*
X143609523Y-35090476D01*
X143657142Y-34995238D01*
X143752380Y-34900000D01*
X143895238Y-34852380D01*
X143990476Y-34852380D01*
X144133333Y-34900000D01*
X144180952Y-34947619D01*
X145085714Y-35852380D02*
X144609523Y-35852380D01*
X144609523Y-34852380D01*
M02*
