G04 #@! TF.GenerationSoftware,KiCad,Pcbnew,5.1.6-c6e7f7d~87~ubuntu18.04.1*
G04 #@! TF.CreationDate,2021-01-10T02:12:58+01:00*
G04 #@! TF.ProjectId,ZynFace,5a796e46-6163-4652-9e6b-696361645f70,rev?*
G04 #@! TF.SameCoordinates,Original*
G04 #@! TF.FileFunction,Copper,L2,Bot*
G04 #@! TF.FilePolarity,Positive*
%FSLAX46Y46*%
G04 Gerber Fmt 4.6, Leading zero omitted, Abs format (unit mm)*
G04 Created by KiCad (PCBNEW 5.1.6-c6e7f7d~87~ubuntu18.04.1) date 2021-01-10 02:12:58*
%MOMM*%
%LPD*%
G01*
G04 APERTURE LIST*
G04 #@! TA.AperFunction,ComponentPad*
%ADD10C,5.000000*%
G04 #@! TD*
G04 #@! TA.AperFunction,ComponentPad*
%ADD11O,2.800000X2.350000*%
G04 #@! TD*
G04 #@! TA.AperFunction,ComponentPad*
%ADD12R,2.600000X2.150000*%
G04 #@! TD*
G04 #@! TA.AperFunction,ComponentPad*
%ADD13C,2.700000*%
G04 #@! TD*
G04 #@! TA.AperFunction,ComponentPad*
%ADD14R,1.700000X1.700000*%
G04 #@! TD*
G04 #@! TA.AperFunction,ComponentPad*
%ADD15O,1.700000X1.700000*%
G04 #@! TD*
G04 #@! TA.AperFunction,ViaPad*
%ADD16C,0.800000*%
G04 #@! TD*
G04 #@! TA.AperFunction,Conductor*
%ADD17C,0.500000*%
G04 #@! TD*
G04 #@! TA.AperFunction,Conductor*
%ADD18C,0.250000*%
G04 #@! TD*
G04 #@! TA.AperFunction,Conductor*
%ADD19C,0.254000*%
G04 #@! TD*
G04 APERTURE END LIST*
D10*
X195072000Y-90932000D03*
D11*
X123540000Y-77100000D03*
D12*
X123540000Y-74000000D03*
D13*
X123540000Y-85400000D03*
X133954000Y-85400000D03*
D12*
X133954000Y-74000000D03*
D11*
X133954000Y-77100000D03*
X144368000Y-77100000D03*
D12*
X144368000Y-74000000D03*
D13*
X144368000Y-85400000D03*
X154782000Y-85400000D03*
D12*
X154782000Y-74000000D03*
D11*
X154782000Y-77100000D03*
D13*
X123540000Y-67366000D03*
D12*
X123540000Y-55966000D03*
D11*
X123540000Y-59066000D03*
D13*
X133954000Y-67366000D03*
D12*
X133954000Y-55966000D03*
D11*
X133954000Y-59066000D03*
X144368000Y-59066000D03*
D12*
X144368000Y-55966000D03*
D13*
X144368000Y-67366000D03*
D11*
X154782000Y-59066000D03*
D12*
X154782000Y-55966000D03*
D13*
X154782000Y-67366000D03*
D14*
X110800000Y-32800000D03*
D15*
X110800000Y-35340000D03*
X108260000Y-32800000D03*
X108260000Y-35340000D03*
X105720000Y-32800000D03*
X105720000Y-35340000D03*
X103180000Y-32800000D03*
X103180000Y-35340000D03*
X100640000Y-32800000D03*
X100640000Y-35340000D03*
X98100000Y-32800000D03*
X98100000Y-35340000D03*
X95560000Y-32800000D03*
X95560000Y-35340000D03*
X93020000Y-32800000D03*
X93020000Y-35340000D03*
X90480000Y-32800000D03*
X90480000Y-35340000D03*
X87940000Y-32800000D03*
X87940000Y-35340000D03*
X85400000Y-32800000D03*
X85400000Y-35340000D03*
X82860000Y-32800000D03*
X82860000Y-35340000D03*
X80320000Y-32800000D03*
X80320000Y-35340000D03*
X77780000Y-32800000D03*
X77780000Y-35340000D03*
X75240000Y-32800000D03*
X75240000Y-35340000D03*
X72700000Y-32800000D03*
X72700000Y-35340000D03*
X70160000Y-32800000D03*
X70160000Y-35340000D03*
X67620000Y-32800000D03*
X67620000Y-35340000D03*
X65080000Y-32800000D03*
X65080000Y-35340000D03*
X62540000Y-32800000D03*
X62540000Y-35340000D03*
D10*
X195072000Y-30988000D03*
X38608000Y-90932000D03*
X38608000Y-30988000D03*
D14*
X186690000Y-71882000D03*
D15*
X186690000Y-69342000D03*
X186690000Y-66802000D03*
X186690000Y-64262000D03*
X186690000Y-61722000D03*
X186690000Y-59182000D03*
D14*
X182880000Y-55372000D03*
D15*
X185420000Y-55372000D03*
X187960000Y-55372000D03*
X190500000Y-55372000D03*
X193040000Y-55372000D03*
X195580000Y-55372000D03*
X151988000Y-49108000D03*
X149448000Y-49108000D03*
X146908000Y-49108000D03*
D14*
X144368000Y-49108000D03*
X86512000Y-49108000D03*
D15*
X89052000Y-49108000D03*
X91592000Y-49108000D03*
X94132000Y-49108000D03*
D14*
X120238000Y-49108000D03*
D15*
X122778000Y-49108000D03*
X125318000Y-49108000D03*
X127858000Y-49108000D03*
X130398000Y-49108000D03*
X132938000Y-49108000D03*
X135478000Y-49108000D03*
X138018000Y-49108000D03*
X80670000Y-49108000D03*
X78130000Y-49108000D03*
X75590000Y-49108000D03*
X73050000Y-49108000D03*
X70510000Y-49108000D03*
X67970000Y-49108000D03*
X65430000Y-49108000D03*
D14*
X62890000Y-49108000D03*
X120142000Y-32766000D03*
D15*
X120142000Y-35306000D03*
X122682000Y-32766000D03*
X122682000Y-35306000D03*
X125222000Y-32766000D03*
X125222000Y-35306000D03*
X127762000Y-32766000D03*
X127762000Y-35306000D03*
D13*
X66446000Y-85400000D03*
D12*
X66446000Y-74000000D03*
D11*
X66446000Y-77100000D03*
D13*
X76860000Y-85400000D03*
D12*
X76860000Y-74000000D03*
D11*
X76860000Y-77100000D03*
D13*
X87274000Y-85400000D03*
D12*
X87274000Y-74000000D03*
D11*
X87274000Y-77100000D03*
X97688000Y-77100000D03*
D12*
X97688000Y-74000000D03*
D13*
X97688000Y-85400000D03*
D11*
X66446000Y-59066000D03*
D12*
X66446000Y-55966000D03*
D13*
X66446000Y-67366000D03*
D11*
X76860000Y-59066000D03*
D12*
X76860000Y-55966000D03*
D13*
X76860000Y-67366000D03*
X87274000Y-67366000D03*
D12*
X87274000Y-55966000D03*
D11*
X87274000Y-59066000D03*
X97688000Y-59066000D03*
D12*
X97688000Y-55966000D03*
D13*
X97688000Y-67366000D03*
D14*
X140300000Y-32800000D03*
D15*
X140300000Y-35340000D03*
D16*
X105348436Y-53951564D03*
X106300000Y-30100000D03*
X104700000Y-29375000D03*
X83800000Y-63000000D03*
X192400000Y-46400000D03*
X192400000Y-45400000D03*
X185700000Y-48200000D03*
X186000000Y-47000000D03*
X182200000Y-50200000D03*
X182200000Y-48900000D03*
X135500000Y-28900000D03*
X98200000Y-38700000D03*
X98100000Y-40100000D03*
X98000000Y-41600000D03*
X98000000Y-43100000D03*
D17*
X116267999Y-36640001D02*
X120142000Y-32766000D01*
X109560001Y-36640001D02*
X116267999Y-36640001D01*
X108260000Y-35340000D02*
X109560001Y-36640001D01*
X76860000Y-55966000D02*
X66446000Y-55966000D01*
X99538010Y-72149990D02*
X97688000Y-74000000D01*
X99538010Y-56016010D02*
X99538010Y-72149990D01*
X99488000Y-55966000D02*
X99538010Y-56016010D01*
X97688000Y-55966000D02*
X99488000Y-55966000D01*
X97688000Y-74000000D02*
X87274000Y-74000000D01*
X76860000Y-74000000D02*
X66446000Y-74000000D01*
X64595990Y-72149990D02*
X66446000Y-74000000D01*
X64595990Y-57816010D02*
X64595990Y-72149990D01*
X66446000Y-55966000D02*
X64595990Y-57816010D01*
X97688000Y-55966000D02*
X87274000Y-55966000D01*
X61589999Y-51109999D02*
X66446000Y-55966000D01*
X61589999Y-43910001D02*
X61589999Y-51109999D01*
X70160000Y-35340000D02*
X61589999Y-43910001D01*
X86700001Y-31499999D02*
X85400000Y-32800000D01*
X101879999Y-31499999D02*
X86700001Y-31499999D01*
X103180000Y-32800000D02*
X101879999Y-31499999D01*
X76540001Y-31499999D02*
X75240000Y-32800000D01*
X84099999Y-31499999D02*
X76540001Y-31499999D01*
X85400000Y-32800000D02*
X84099999Y-31499999D01*
D18*
X74064999Y-31624999D02*
X75240000Y-32800000D01*
X72135999Y-31624999D02*
X74064999Y-31624999D01*
X71335001Y-32425997D02*
X72135999Y-31624999D01*
X71335001Y-34164999D02*
X71335001Y-32425997D01*
X70160000Y-35340000D02*
X71335001Y-34164999D01*
D17*
X97688000Y-74000000D02*
X123540000Y-74000000D01*
X108260000Y-40686000D02*
X123540000Y-55966000D01*
X108260000Y-35340000D02*
X108260000Y-40686000D01*
X133954000Y-74000000D02*
X144368000Y-74000000D01*
D18*
X125165001Y-54035001D02*
X125165001Y-57440999D01*
X125165001Y-57440999D02*
X123540000Y-59066000D01*
X120238000Y-49108000D02*
X125165001Y-54035001D01*
X132736000Y-59066000D02*
X133954000Y-59066000D01*
X122778000Y-49108000D02*
X132736000Y-59066000D01*
X139867999Y-54565999D02*
X144368000Y-59066000D01*
X130775999Y-54565999D02*
X139867999Y-54565999D01*
X125318000Y-49108000D02*
X130775999Y-54565999D01*
X127858000Y-49108000D02*
X132750000Y-54000000D01*
X149716000Y-54000000D02*
X154782000Y-59066000D01*
X132750000Y-54000000D02*
X149716000Y-54000000D01*
X97021913Y-45625041D02*
X105348436Y-53951564D01*
X72700000Y-35340000D02*
X82985041Y-45625041D01*
X82985041Y-45625041D02*
X97021913Y-45625041D01*
X124046999Y-40216999D02*
X132938000Y-49108000D01*
X124046999Y-32391997D02*
X124046999Y-40216999D01*
X123246001Y-31590999D02*
X124046999Y-32391997D01*
X119031999Y-31590999D02*
X123246001Y-31590999D01*
X105155999Y-33975001D02*
X116647997Y-33975001D01*
X67620000Y-35340000D02*
X68984999Y-33975001D01*
X68984999Y-33975001D02*
X68984999Y-32235999D01*
X116647997Y-33975001D02*
X119031999Y-31590999D01*
X104355001Y-33174003D02*
X105155999Y-33975001D01*
X104355001Y-32235999D02*
X104355001Y-33174003D01*
X70296009Y-30924989D02*
X103043991Y-30924989D01*
X68984999Y-32235999D02*
X70296009Y-30924989D01*
X103043991Y-30924989D02*
X104355001Y-32235999D01*
X66444999Y-32235999D02*
X68580998Y-30100000D01*
X68580998Y-30100000D02*
X106300000Y-30100000D01*
X65080000Y-35340000D02*
X66444999Y-33975001D01*
X66444999Y-33975001D02*
X66444999Y-32235999D01*
X137851998Y-49108000D02*
X138018000Y-49108000D01*
X66765998Y-29375000D02*
X104700000Y-29375000D01*
X63904999Y-32235999D02*
X66765998Y-29375000D01*
X62540000Y-35340000D02*
X63904999Y-33975001D01*
X63904999Y-33975001D02*
X63904999Y-32235999D01*
X71524999Y-47582999D02*
X73050000Y-49108000D01*
X71524999Y-34775999D02*
X71524999Y-47582999D01*
X72700000Y-33600998D02*
X71524999Y-34775999D01*
X72700000Y-32800000D02*
X72700000Y-33600998D01*
X93322000Y-63000000D02*
X97688000Y-67366000D01*
X83800000Y-63000000D02*
X93322000Y-63000000D01*
D17*
X167054000Y-39546000D02*
X182880000Y-55372000D01*
X132002000Y-39546000D02*
X167054000Y-39546000D01*
X127762000Y-35306000D02*
X132002000Y-39546000D01*
D18*
X191675001Y-59276999D02*
X186690000Y-64262000D01*
X191675001Y-47124999D02*
X191675001Y-59276999D01*
X192400000Y-46400000D02*
X191675001Y-47124999D01*
X194215001Y-59276999D02*
X186690000Y-66802000D01*
X192965685Y-45400000D02*
X194215001Y-46649316D01*
X194215001Y-46649316D02*
X194215001Y-59276999D01*
X192400000Y-45400000D02*
X192965685Y-45400000D01*
X187960000Y-55372000D02*
X185600000Y-53012000D01*
X185600000Y-53012000D02*
X185600000Y-48300000D01*
X185600000Y-48300000D02*
X185700000Y-48200000D01*
X190500000Y-55372000D02*
X186900000Y-51772000D01*
X186900000Y-51772000D02*
X186900000Y-47900000D01*
X186900000Y-47900000D02*
X186000000Y-47000000D01*
X108260000Y-32800000D02*
X108260000Y-31040000D01*
X108260000Y-31040000D02*
X109200000Y-30100000D01*
X169300000Y-30100000D02*
X181200000Y-42000000D01*
X181200000Y-42000000D02*
X181200000Y-49200000D01*
X181200000Y-49200000D02*
X182200000Y-50200000D01*
X109200000Y-30100000D02*
X136900000Y-30100000D01*
X136900000Y-30100000D02*
X169300000Y-30100000D01*
X137600000Y-30100000D02*
X140300000Y-32800000D01*
X136900000Y-30100000D02*
X137600000Y-30100000D01*
X105720000Y-32800000D02*
X108920000Y-29600000D01*
X182200000Y-42126998D02*
X182200000Y-48900000D01*
X169673002Y-29600000D02*
X182200000Y-42126998D01*
X138400000Y-29600000D02*
X169673002Y-29600000D01*
X134900000Y-29500000D02*
X135500000Y-28900000D01*
X134900000Y-29600000D02*
X134900000Y-29500000D01*
X134900000Y-29600000D02*
X138400000Y-29600000D01*
X108920000Y-29600000D02*
X134900000Y-29600000D01*
X95560000Y-36060000D02*
X95560000Y-35340000D01*
X98200000Y-38700000D02*
X95560000Y-36060000D01*
X93340000Y-35340000D02*
X93020000Y-35340000D01*
X98100000Y-40100000D02*
X93340000Y-35340000D01*
X96740000Y-41600000D02*
X90480000Y-35340000D01*
X98000000Y-41600000D02*
X96740000Y-41600000D01*
X95700000Y-43100000D02*
X87940000Y-35340000D01*
X98000000Y-43100000D02*
X95700000Y-43100000D01*
X99999001Y-43825001D02*
X123540000Y-67366000D01*
X91345001Y-43825001D02*
X99999001Y-43825001D01*
X82860000Y-35340000D02*
X91345001Y-43825001D01*
X132278999Y-69041001D02*
X133954000Y-67366000D01*
X97970009Y-44275011D02*
X122735999Y-69041001D01*
X89255011Y-44275011D02*
X97970009Y-44275011D01*
X122735999Y-69041001D02*
X132278999Y-69041001D01*
X80320000Y-35340000D02*
X89255011Y-44275011D01*
X122549599Y-69491011D02*
X142242989Y-69491011D01*
X97783609Y-44725021D02*
X122549599Y-69491011D01*
X142242989Y-69491011D02*
X144368000Y-67366000D01*
X87165021Y-44725021D02*
X97783609Y-44725021D01*
X77780000Y-35340000D02*
X87165021Y-44725021D01*
X97597209Y-45175031D02*
X122363199Y-69941021D01*
X152206979Y-69941021D02*
X154782000Y-67366000D01*
X85075031Y-45175031D02*
X97597209Y-45175031D01*
X122363199Y-69941021D02*
X152206979Y-69941021D01*
X75240000Y-35340000D02*
X85075031Y-45175031D01*
X78485001Y-54630999D02*
X77254002Y-53400000D01*
X76860000Y-59066000D02*
X78485001Y-57440999D01*
X78485001Y-57440999D02*
X78485001Y-54630999D01*
X69722000Y-53400000D02*
X65430000Y-49108000D01*
X77254002Y-53400000D02*
X69722000Y-53400000D01*
X87274000Y-59066000D02*
X83556412Y-59066000D01*
X83556412Y-59066000D02*
X77290412Y-52800000D01*
X71662000Y-52800000D02*
X67970000Y-49108000D01*
X77290412Y-52800000D02*
X71662000Y-52800000D01*
X82692812Y-57565990D02*
X77476812Y-52349990D01*
X97688000Y-59066000D02*
X96187990Y-57565990D01*
X96187990Y-57565990D02*
X82692812Y-57565990D01*
X73751990Y-52349990D02*
X70510000Y-49108000D01*
X77476812Y-52349990D02*
X73751990Y-52349990D01*
D19*
G36*
X66473751Y-28669454D02*
G01*
X66341722Y-28740026D01*
X66225997Y-28834999D01*
X66202199Y-28863997D01*
X63446492Y-31619705D01*
X63243411Y-31484010D01*
X62973158Y-31372068D01*
X62686260Y-31315000D01*
X62393740Y-31315000D01*
X62106842Y-31372068D01*
X61836589Y-31484010D01*
X61593368Y-31646525D01*
X61386525Y-31853368D01*
X61224010Y-32096589D01*
X61112068Y-32366842D01*
X61055000Y-32653740D01*
X61055000Y-32946260D01*
X61112068Y-33233158D01*
X61224010Y-33503411D01*
X61386525Y-33746632D01*
X61593368Y-33953475D01*
X61767760Y-34070000D01*
X61593368Y-34186525D01*
X61386525Y-34393368D01*
X61224010Y-34636589D01*
X61112068Y-34906842D01*
X61055000Y-35193740D01*
X61055000Y-35486260D01*
X61112068Y-35773158D01*
X61224010Y-36043411D01*
X61386525Y-36286632D01*
X61593368Y-36493475D01*
X61836589Y-36655990D01*
X62106842Y-36767932D01*
X62393740Y-36825000D01*
X62686260Y-36825000D01*
X62973158Y-36767932D01*
X63243411Y-36655990D01*
X63486632Y-36493475D01*
X63693475Y-36286632D01*
X63810000Y-36112240D01*
X63926525Y-36286632D01*
X64133368Y-36493475D01*
X64376589Y-36655990D01*
X64646842Y-36767932D01*
X64933740Y-36825000D01*
X65226260Y-36825000D01*
X65513158Y-36767932D01*
X65783411Y-36655990D01*
X66026632Y-36493475D01*
X66233475Y-36286632D01*
X66350000Y-36112240D01*
X66466525Y-36286632D01*
X66673368Y-36493475D01*
X66916589Y-36655990D01*
X67186842Y-36767932D01*
X67473740Y-36825000D01*
X67766260Y-36825000D01*
X68053158Y-36767932D01*
X68323411Y-36655990D01*
X68566632Y-36493475D01*
X68773475Y-36286632D01*
X68895195Y-36104466D01*
X68964822Y-36221355D01*
X69159731Y-36437588D01*
X69393080Y-36611641D01*
X69655901Y-36736825D01*
X69803110Y-36781476D01*
X70033000Y-36660155D01*
X70033000Y-35467000D01*
X70013000Y-35467000D01*
X70013000Y-35213000D01*
X70033000Y-35213000D01*
X70033000Y-35193000D01*
X70287000Y-35193000D01*
X70287000Y-35213000D01*
X70307000Y-35213000D01*
X70307000Y-35467000D01*
X70287000Y-35467000D01*
X70287000Y-36660155D01*
X70516890Y-36781476D01*
X70664099Y-36736825D01*
X70764999Y-36688765D01*
X70765000Y-47545667D01*
X70761323Y-47582999D01*
X70765000Y-47620332D01*
X70767441Y-47645115D01*
X70656260Y-47623000D01*
X70363740Y-47623000D01*
X70076842Y-47680068D01*
X69806589Y-47792010D01*
X69563368Y-47954525D01*
X69356525Y-48161368D01*
X69240000Y-48335760D01*
X69123475Y-48161368D01*
X68916632Y-47954525D01*
X68673411Y-47792010D01*
X68403158Y-47680068D01*
X68116260Y-47623000D01*
X67823740Y-47623000D01*
X67536842Y-47680068D01*
X67266589Y-47792010D01*
X67023368Y-47954525D01*
X66816525Y-48161368D01*
X66700000Y-48335760D01*
X66583475Y-48161368D01*
X66376632Y-47954525D01*
X66133411Y-47792010D01*
X65863158Y-47680068D01*
X65576260Y-47623000D01*
X65283740Y-47623000D01*
X64996842Y-47680068D01*
X64726589Y-47792010D01*
X64483368Y-47954525D01*
X64351513Y-48086380D01*
X64329502Y-48013820D01*
X64270537Y-47903506D01*
X64191185Y-47806815D01*
X64094494Y-47727463D01*
X63984180Y-47668498D01*
X63864482Y-47632188D01*
X63740000Y-47619928D01*
X62040000Y-47619928D01*
X61915518Y-47632188D01*
X61795820Y-47668498D01*
X61685506Y-47727463D01*
X61588815Y-47806815D01*
X61509463Y-47903506D01*
X61450498Y-48013820D01*
X61414188Y-48133518D01*
X61401928Y-48258000D01*
X61401928Y-49958000D01*
X61414188Y-50082482D01*
X61450498Y-50202180D01*
X61509463Y-50312494D01*
X61588815Y-50409185D01*
X61685506Y-50488537D01*
X61795820Y-50547502D01*
X61915518Y-50583812D01*
X62040000Y-50596072D01*
X63740000Y-50596072D01*
X63864482Y-50583812D01*
X63984180Y-50547502D01*
X64094494Y-50488537D01*
X64191185Y-50409185D01*
X64270537Y-50312494D01*
X64329502Y-50202180D01*
X64351513Y-50129620D01*
X64483368Y-50261475D01*
X64726589Y-50423990D01*
X64996842Y-50535932D01*
X65283740Y-50593000D01*
X65576260Y-50593000D01*
X65796408Y-50549209D01*
X69158200Y-53911002D01*
X69181999Y-53940001D01*
X69252268Y-53997669D01*
X69297724Y-54034974D01*
X69429753Y-54105546D01*
X69573014Y-54149003D01*
X69722000Y-54163677D01*
X69759333Y-54160000D01*
X76939201Y-54160000D01*
X77090475Y-54311275D01*
X76987000Y-54414750D01*
X76987000Y-55839000D01*
X77007000Y-55839000D01*
X77007000Y-56093000D01*
X76987000Y-56093000D01*
X76987000Y-56113000D01*
X76733000Y-56113000D01*
X76733000Y-56093000D01*
X75083750Y-56093000D01*
X74925000Y-56251750D01*
X74921928Y-57041000D01*
X74934188Y-57165482D01*
X74970498Y-57285180D01*
X75029463Y-57395494D01*
X75108815Y-57492185D01*
X75205506Y-57571537D01*
X75315820Y-57630502D01*
X75435518Y-57666812D01*
X75481303Y-57671321D01*
X75348945Y-57779945D01*
X75122759Y-58055553D01*
X74954688Y-58369992D01*
X74851190Y-58711178D01*
X74816243Y-59066000D01*
X74851190Y-59420822D01*
X74954688Y-59762008D01*
X75122759Y-60076447D01*
X75348945Y-60352055D01*
X75624553Y-60578241D01*
X75938992Y-60746312D01*
X76280178Y-60849810D01*
X76546089Y-60876000D01*
X77173911Y-60876000D01*
X77439822Y-60849810D01*
X77781008Y-60746312D01*
X78095447Y-60578241D01*
X78371055Y-60352055D01*
X78597241Y-60076447D01*
X78765312Y-59762008D01*
X78868810Y-59420822D01*
X78903757Y-59066000D01*
X78868810Y-58711178D01*
X78765312Y-58369992D01*
X78718462Y-58282341D01*
X78996010Y-58004793D01*
X79025002Y-57981000D01*
X79048796Y-57952007D01*
X79048800Y-57952003D01*
X79119974Y-57865276D01*
X79119975Y-57865275D01*
X79190547Y-57733246D01*
X79234004Y-57589985D01*
X79245001Y-57478332D01*
X79245001Y-57478323D01*
X79248677Y-57441000D01*
X79245001Y-57403677D01*
X79245001Y-55829390D01*
X82992613Y-59577003D01*
X83016411Y-59606001D01*
X83132136Y-59700974D01*
X83264165Y-59771546D01*
X83407426Y-59815003D01*
X83519079Y-59826000D01*
X83519088Y-59826000D01*
X83556411Y-59829676D01*
X83593734Y-59826000D01*
X85402892Y-59826000D01*
X85536759Y-60076447D01*
X85762945Y-60352055D01*
X86038553Y-60578241D01*
X86352992Y-60746312D01*
X86694178Y-60849810D01*
X86960089Y-60876000D01*
X87587911Y-60876000D01*
X87853822Y-60849810D01*
X88195008Y-60746312D01*
X88509447Y-60578241D01*
X88785055Y-60352055D01*
X89011241Y-60076447D01*
X89179312Y-59762008D01*
X89282810Y-59420822D01*
X89317757Y-59066000D01*
X89282810Y-58711178D01*
X89179312Y-58369992D01*
X89155792Y-58325990D01*
X95806208Y-58325990D01*
X95782688Y-58369992D01*
X95679190Y-58711178D01*
X95644243Y-59066000D01*
X95679190Y-59420822D01*
X95782688Y-59762008D01*
X95950759Y-60076447D01*
X96176945Y-60352055D01*
X96452553Y-60578241D01*
X96766992Y-60746312D01*
X97108178Y-60849810D01*
X97374089Y-60876000D01*
X98001911Y-60876000D01*
X98267822Y-60849810D01*
X98609008Y-60746312D01*
X98923447Y-60578241D01*
X99199055Y-60352055D01*
X99425241Y-60076447D01*
X99593312Y-59762008D01*
X99696810Y-59420822D01*
X99731757Y-59066000D01*
X99696810Y-58711178D01*
X99593312Y-58369992D01*
X99425241Y-58055553D01*
X99199055Y-57779945D01*
X99066697Y-57671321D01*
X99112482Y-57666812D01*
X99232180Y-57630502D01*
X99342494Y-57571537D01*
X99439185Y-57492185D01*
X99518537Y-57395494D01*
X99577502Y-57285180D01*
X99613812Y-57165482D01*
X99626072Y-57041000D01*
X99623000Y-56251750D01*
X99464250Y-56093000D01*
X97815000Y-56093000D01*
X97815000Y-56113000D01*
X97561000Y-56113000D01*
X97561000Y-56093000D01*
X95911750Y-56093000D01*
X95753000Y-56251750D01*
X95750843Y-56805990D01*
X89211157Y-56805990D01*
X89209000Y-56251750D01*
X89050250Y-56093000D01*
X87401000Y-56093000D01*
X87401000Y-56113000D01*
X87147000Y-56113000D01*
X87147000Y-56093000D01*
X85497750Y-56093000D01*
X85339000Y-56251750D01*
X85336843Y-56805990D01*
X83007614Y-56805990D01*
X81092624Y-54891000D01*
X85335928Y-54891000D01*
X85339000Y-55680250D01*
X85497750Y-55839000D01*
X87147000Y-55839000D01*
X87147000Y-54414750D01*
X87401000Y-54414750D01*
X87401000Y-55839000D01*
X89050250Y-55839000D01*
X89209000Y-55680250D01*
X89212072Y-54891000D01*
X95749928Y-54891000D01*
X95753000Y-55680250D01*
X95911750Y-55839000D01*
X97561000Y-55839000D01*
X97561000Y-54414750D01*
X97815000Y-54414750D01*
X97815000Y-55839000D01*
X99464250Y-55839000D01*
X99623000Y-55680250D01*
X99626072Y-54891000D01*
X99613812Y-54766518D01*
X99577502Y-54646820D01*
X99518537Y-54536506D01*
X99439185Y-54439815D01*
X99342494Y-54360463D01*
X99232180Y-54301498D01*
X99112482Y-54265188D01*
X98988000Y-54252928D01*
X97973750Y-54256000D01*
X97815000Y-54414750D01*
X97561000Y-54414750D01*
X97402250Y-54256000D01*
X96388000Y-54252928D01*
X96263518Y-54265188D01*
X96143820Y-54301498D01*
X96033506Y-54360463D01*
X95936815Y-54439815D01*
X95857463Y-54536506D01*
X95798498Y-54646820D01*
X95762188Y-54766518D01*
X95749928Y-54891000D01*
X89212072Y-54891000D01*
X89199812Y-54766518D01*
X89163502Y-54646820D01*
X89104537Y-54536506D01*
X89025185Y-54439815D01*
X88928494Y-54360463D01*
X88818180Y-54301498D01*
X88698482Y-54265188D01*
X88574000Y-54252928D01*
X87559750Y-54256000D01*
X87401000Y-54414750D01*
X87147000Y-54414750D01*
X86988250Y-54256000D01*
X85974000Y-54252928D01*
X85849518Y-54265188D01*
X85729820Y-54301498D01*
X85619506Y-54360463D01*
X85522815Y-54439815D01*
X85443463Y-54536506D01*
X85384498Y-54646820D01*
X85348188Y-54766518D01*
X85335928Y-54891000D01*
X81092624Y-54891000D01*
X78040616Y-51838993D01*
X78016813Y-51809989D01*
X77901088Y-51715016D01*
X77769059Y-51644444D01*
X77625798Y-51600987D01*
X77514145Y-51589990D01*
X77514134Y-51589990D01*
X77476812Y-51586314D01*
X77439490Y-51589990D01*
X74066792Y-51589990D01*
X73069802Y-50593000D01*
X73196260Y-50593000D01*
X73483158Y-50535932D01*
X73753411Y-50423990D01*
X73996632Y-50261475D01*
X74203475Y-50054632D01*
X74320000Y-49880240D01*
X74436525Y-50054632D01*
X74643368Y-50261475D01*
X74886589Y-50423990D01*
X75156842Y-50535932D01*
X75443740Y-50593000D01*
X75736260Y-50593000D01*
X76023158Y-50535932D01*
X76293411Y-50423990D01*
X76536632Y-50261475D01*
X76743475Y-50054632D01*
X76860000Y-49880240D01*
X76976525Y-50054632D01*
X77183368Y-50261475D01*
X77426589Y-50423990D01*
X77696842Y-50535932D01*
X77983740Y-50593000D01*
X78276260Y-50593000D01*
X78563158Y-50535932D01*
X78833411Y-50423990D01*
X79076632Y-50261475D01*
X79283475Y-50054632D01*
X79400000Y-49880240D01*
X79516525Y-50054632D01*
X79723368Y-50261475D01*
X79966589Y-50423990D01*
X80236842Y-50535932D01*
X80523740Y-50593000D01*
X80816260Y-50593000D01*
X81103158Y-50535932D01*
X81373411Y-50423990D01*
X81616632Y-50261475D01*
X81823475Y-50054632D01*
X81985990Y-49811411D01*
X82097932Y-49541158D01*
X82155000Y-49254260D01*
X82155000Y-48961740D01*
X82097932Y-48674842D01*
X81985990Y-48404589D01*
X81888043Y-48258000D01*
X85023928Y-48258000D01*
X85023928Y-49958000D01*
X85036188Y-50082482D01*
X85072498Y-50202180D01*
X85131463Y-50312494D01*
X85210815Y-50409185D01*
X85307506Y-50488537D01*
X85417820Y-50547502D01*
X85537518Y-50583812D01*
X85662000Y-50596072D01*
X87362000Y-50596072D01*
X87486482Y-50583812D01*
X87606180Y-50547502D01*
X87716494Y-50488537D01*
X87813185Y-50409185D01*
X87892537Y-50312494D01*
X87951502Y-50202180D01*
X87973513Y-50129620D01*
X88105368Y-50261475D01*
X88348589Y-50423990D01*
X88618842Y-50535932D01*
X88905740Y-50593000D01*
X89198260Y-50593000D01*
X89485158Y-50535932D01*
X89755411Y-50423990D01*
X89998632Y-50261475D01*
X90205475Y-50054632D01*
X90322000Y-49880240D01*
X90438525Y-50054632D01*
X90645368Y-50261475D01*
X90888589Y-50423990D01*
X91158842Y-50535932D01*
X91445740Y-50593000D01*
X91738260Y-50593000D01*
X92025158Y-50535932D01*
X92295411Y-50423990D01*
X92538632Y-50261475D01*
X92745475Y-50054632D01*
X92862000Y-49880240D01*
X92978525Y-50054632D01*
X93185368Y-50261475D01*
X93428589Y-50423990D01*
X93698842Y-50535932D01*
X93985740Y-50593000D01*
X94278260Y-50593000D01*
X94565158Y-50535932D01*
X94835411Y-50423990D01*
X95078632Y-50261475D01*
X95285475Y-50054632D01*
X95447990Y-49811411D01*
X95559932Y-49541158D01*
X95617000Y-49254260D01*
X95617000Y-48961740D01*
X95559932Y-48674842D01*
X95447990Y-48404589D01*
X95285475Y-48161368D01*
X95078632Y-47954525D01*
X94835411Y-47792010D01*
X94565158Y-47680068D01*
X94278260Y-47623000D01*
X93985740Y-47623000D01*
X93698842Y-47680068D01*
X93428589Y-47792010D01*
X93185368Y-47954525D01*
X92978525Y-48161368D01*
X92862000Y-48335760D01*
X92745475Y-48161368D01*
X92538632Y-47954525D01*
X92295411Y-47792010D01*
X92025158Y-47680068D01*
X91738260Y-47623000D01*
X91445740Y-47623000D01*
X91158842Y-47680068D01*
X90888589Y-47792010D01*
X90645368Y-47954525D01*
X90438525Y-48161368D01*
X90322000Y-48335760D01*
X90205475Y-48161368D01*
X89998632Y-47954525D01*
X89755411Y-47792010D01*
X89485158Y-47680068D01*
X89198260Y-47623000D01*
X88905740Y-47623000D01*
X88618842Y-47680068D01*
X88348589Y-47792010D01*
X88105368Y-47954525D01*
X87973513Y-48086380D01*
X87951502Y-48013820D01*
X87892537Y-47903506D01*
X87813185Y-47806815D01*
X87716494Y-47727463D01*
X87606180Y-47668498D01*
X87486482Y-47632188D01*
X87362000Y-47619928D01*
X85662000Y-47619928D01*
X85537518Y-47632188D01*
X85417820Y-47668498D01*
X85307506Y-47727463D01*
X85210815Y-47806815D01*
X85131463Y-47903506D01*
X85072498Y-48013820D01*
X85036188Y-48133518D01*
X85023928Y-48258000D01*
X81888043Y-48258000D01*
X81823475Y-48161368D01*
X81616632Y-47954525D01*
X81373411Y-47792010D01*
X81103158Y-47680068D01*
X80816260Y-47623000D01*
X80523740Y-47623000D01*
X80236842Y-47680068D01*
X79966589Y-47792010D01*
X79723368Y-47954525D01*
X79516525Y-48161368D01*
X79400000Y-48335760D01*
X79283475Y-48161368D01*
X79076632Y-47954525D01*
X78833411Y-47792010D01*
X78563158Y-47680068D01*
X78276260Y-47623000D01*
X77983740Y-47623000D01*
X77696842Y-47680068D01*
X77426589Y-47792010D01*
X77183368Y-47954525D01*
X76976525Y-48161368D01*
X76860000Y-48335760D01*
X76743475Y-48161368D01*
X76536632Y-47954525D01*
X76293411Y-47792010D01*
X76023158Y-47680068D01*
X75736260Y-47623000D01*
X75443740Y-47623000D01*
X75156842Y-47680068D01*
X74886589Y-47792010D01*
X74643368Y-47954525D01*
X74436525Y-48161368D01*
X74320000Y-48335760D01*
X74203475Y-48161368D01*
X73996632Y-47954525D01*
X73753411Y-47792010D01*
X73483158Y-47680068D01*
X73196260Y-47623000D01*
X72903740Y-47623000D01*
X72683592Y-47666791D01*
X72284999Y-47268198D01*
X72284999Y-36771544D01*
X72553740Y-36825000D01*
X72846260Y-36825000D01*
X73066408Y-36781209D01*
X82421246Y-46136049D01*
X82445040Y-46165042D01*
X82474033Y-46188836D01*
X82474037Y-46188840D01*
X82518149Y-46225041D01*
X82560765Y-46260015D01*
X82692794Y-46330587D01*
X82836055Y-46374044D01*
X82947708Y-46385041D01*
X82947717Y-46385041D01*
X82985040Y-46388717D01*
X83022363Y-46385041D01*
X96707112Y-46385041D01*
X104313436Y-53991366D01*
X104313436Y-54053503D01*
X104353210Y-54253462D01*
X104431231Y-54441820D01*
X104544499Y-54611338D01*
X104688662Y-54755501D01*
X104858180Y-54868769D01*
X105046538Y-54946790D01*
X105246497Y-54986564D01*
X105450375Y-54986564D01*
X105650334Y-54946790D01*
X105838692Y-54868769D01*
X106008210Y-54755501D01*
X106055544Y-54708167D01*
X121799400Y-70452024D01*
X121823198Y-70481022D01*
X121852196Y-70504820D01*
X121938922Y-70575995D01*
X121947940Y-70580815D01*
X122070952Y-70646567D01*
X122214213Y-70690024D01*
X122325866Y-70701021D01*
X122325876Y-70701021D01*
X122363199Y-70704697D01*
X122400522Y-70701021D01*
X152169657Y-70701021D01*
X152206979Y-70704697D01*
X152244301Y-70701021D01*
X152244312Y-70701021D01*
X152355965Y-70690024D01*
X152499226Y-70646567D01*
X152631255Y-70575995D01*
X152746980Y-70481022D01*
X152770783Y-70452018D01*
X154022746Y-69200056D01*
X154202997Y-69274718D01*
X154586495Y-69351000D01*
X154977505Y-69351000D01*
X155361003Y-69274718D01*
X155722250Y-69125085D01*
X156047364Y-68907851D01*
X156323851Y-68631364D01*
X156541085Y-68306250D01*
X156690718Y-67945003D01*
X156767000Y-67561505D01*
X156767000Y-67170495D01*
X156690718Y-66786997D01*
X156541085Y-66425750D01*
X156323851Y-66100636D01*
X156047364Y-65824149D01*
X155722250Y-65606915D01*
X155361003Y-65457282D01*
X154977505Y-65381000D01*
X154586495Y-65381000D01*
X154202997Y-65457282D01*
X153841750Y-65606915D01*
X153516636Y-65824149D01*
X153240149Y-66100636D01*
X153022915Y-66425750D01*
X152873282Y-66786997D01*
X152797000Y-67170495D01*
X152797000Y-67561505D01*
X152873282Y-67945003D01*
X152947944Y-68125254D01*
X151892178Y-69181021D01*
X145173208Y-69181021D01*
X145308250Y-69125085D01*
X145633364Y-68907851D01*
X145909851Y-68631364D01*
X146127085Y-68306250D01*
X146276718Y-67945003D01*
X146353000Y-67561505D01*
X146353000Y-67170495D01*
X146276718Y-66786997D01*
X146127085Y-66425750D01*
X145909851Y-66100636D01*
X145633364Y-65824149D01*
X145308250Y-65606915D01*
X144947003Y-65457282D01*
X144563505Y-65381000D01*
X144172495Y-65381000D01*
X143788997Y-65457282D01*
X143427750Y-65606915D01*
X143102636Y-65824149D01*
X142826149Y-66100636D01*
X142608915Y-66425750D01*
X142459282Y-66786997D01*
X142383000Y-67170495D01*
X142383000Y-67561505D01*
X142459282Y-67945003D01*
X142533944Y-68125254D01*
X141928188Y-68731011D01*
X135396204Y-68731011D01*
X135495851Y-68631364D01*
X135713085Y-68306250D01*
X135862718Y-67945003D01*
X135939000Y-67561505D01*
X135939000Y-67170495D01*
X135862718Y-66786997D01*
X135713085Y-66425750D01*
X135495851Y-66100636D01*
X135219364Y-65824149D01*
X134894250Y-65606915D01*
X134533003Y-65457282D01*
X134149505Y-65381000D01*
X133758495Y-65381000D01*
X133374997Y-65457282D01*
X133013750Y-65606915D01*
X132688636Y-65824149D01*
X132412149Y-66100636D01*
X132194915Y-66425750D01*
X132045282Y-66786997D01*
X131969000Y-67170495D01*
X131969000Y-67561505D01*
X132045282Y-67945003D01*
X132119944Y-68125254D01*
X131964198Y-68281001D01*
X125309543Y-68281001D01*
X125448718Y-67945003D01*
X125525000Y-67561505D01*
X125525000Y-67170495D01*
X125448718Y-66786997D01*
X125299085Y-66425750D01*
X125081851Y-66100636D01*
X124805364Y-65824149D01*
X124480250Y-65606915D01*
X124119003Y-65457282D01*
X123735505Y-65381000D01*
X123344495Y-65381000D01*
X122960997Y-65457282D01*
X122780746Y-65531944D01*
X112139802Y-54891000D01*
X121601928Y-54891000D01*
X121605000Y-55680250D01*
X121763750Y-55839000D01*
X123413000Y-55839000D01*
X123413000Y-54414750D01*
X123254250Y-54256000D01*
X122240000Y-54252928D01*
X122115518Y-54265188D01*
X121995820Y-54301498D01*
X121885506Y-54360463D01*
X121788815Y-54439815D01*
X121709463Y-54536506D01*
X121650498Y-54646820D01*
X121614188Y-54766518D01*
X121601928Y-54891000D01*
X112139802Y-54891000D01*
X100562805Y-43314004D01*
X100539002Y-43285000D01*
X100423277Y-43190027D01*
X100291248Y-43119455D01*
X100147987Y-43075998D01*
X100036334Y-43065001D01*
X100036323Y-43065001D01*
X99999001Y-43061325D01*
X99961679Y-43065001D01*
X99035000Y-43065001D01*
X99035000Y-42998061D01*
X98995226Y-42798102D01*
X98917205Y-42609744D01*
X98803937Y-42440226D01*
X98713711Y-42350000D01*
X98803937Y-42259774D01*
X98917205Y-42090256D01*
X98995226Y-41901898D01*
X99035000Y-41701939D01*
X99035000Y-41498061D01*
X98995226Y-41298102D01*
X98917205Y-41109744D01*
X98803937Y-40940226D01*
X98763711Y-40900000D01*
X98903937Y-40759774D01*
X99017205Y-40590256D01*
X99095226Y-40401898D01*
X99135000Y-40201939D01*
X99135000Y-39998061D01*
X99095226Y-39798102D01*
X99017205Y-39609744D01*
X98911767Y-39451944D01*
X99003937Y-39359774D01*
X99117205Y-39190256D01*
X99195226Y-39001898D01*
X99235000Y-38801939D01*
X99235000Y-38598061D01*
X99195226Y-38398102D01*
X99117205Y-38209744D01*
X99003937Y-38040226D01*
X98859774Y-37896063D01*
X98690256Y-37782795D01*
X98501898Y-37704774D01*
X98301939Y-37665000D01*
X98239802Y-37665000D01*
X96772739Y-36197937D01*
X96830000Y-36112240D01*
X96946525Y-36286632D01*
X97153368Y-36493475D01*
X97396589Y-36655990D01*
X97666842Y-36767932D01*
X97953740Y-36825000D01*
X98246260Y-36825000D01*
X98533158Y-36767932D01*
X98803411Y-36655990D01*
X99046632Y-36493475D01*
X99253475Y-36286632D01*
X99370000Y-36112240D01*
X99486525Y-36286632D01*
X99693368Y-36493475D01*
X99936589Y-36655990D01*
X100206842Y-36767932D01*
X100493740Y-36825000D01*
X100786260Y-36825000D01*
X101073158Y-36767932D01*
X101343411Y-36655990D01*
X101586632Y-36493475D01*
X101793475Y-36286632D01*
X101910000Y-36112240D01*
X102026525Y-36286632D01*
X102233368Y-36493475D01*
X102476589Y-36655990D01*
X102746842Y-36767932D01*
X103033740Y-36825000D01*
X103326260Y-36825000D01*
X103613158Y-36767932D01*
X103883411Y-36655990D01*
X104126632Y-36493475D01*
X104333475Y-36286632D01*
X104450000Y-36112240D01*
X104566525Y-36286632D01*
X104773368Y-36493475D01*
X105016589Y-36655990D01*
X105286842Y-36767932D01*
X105573740Y-36825000D01*
X105866260Y-36825000D01*
X106153158Y-36767932D01*
X106423411Y-36655990D01*
X106666632Y-36493475D01*
X106873475Y-36286632D01*
X106995195Y-36104466D01*
X107064822Y-36221355D01*
X107259731Y-36437588D01*
X107493080Y-36611641D01*
X107755901Y-36736825D01*
X107903110Y-36781476D01*
X108133000Y-36660155D01*
X108133000Y-35467000D01*
X108113000Y-35467000D01*
X108113000Y-35213000D01*
X108133000Y-35213000D01*
X108133000Y-35193000D01*
X108387000Y-35193000D01*
X108387000Y-35213000D01*
X108407000Y-35213000D01*
X108407000Y-35467000D01*
X108387000Y-35467000D01*
X108387000Y-36660155D01*
X108616890Y-36781476D01*
X108764099Y-36736825D01*
X109026920Y-36611641D01*
X109260269Y-36437588D01*
X109455178Y-36221355D01*
X109524805Y-36104466D01*
X109646525Y-36286632D01*
X109853368Y-36493475D01*
X110096589Y-36655990D01*
X110366842Y-36767932D01*
X110653740Y-36825000D01*
X110946260Y-36825000D01*
X111233158Y-36767932D01*
X111503411Y-36655990D01*
X111746632Y-36493475D01*
X111953475Y-36286632D01*
X112115990Y-36043411D01*
X112227932Y-35773158D01*
X112285000Y-35486260D01*
X112285000Y-35193740D01*
X112227932Y-34906842D01*
X112156753Y-34735001D01*
X116610675Y-34735001D01*
X116647997Y-34738677D01*
X116685319Y-34735001D01*
X116685330Y-34735001D01*
X116796983Y-34724004D01*
X116940244Y-34680547D01*
X117072273Y-34609975D01*
X117187998Y-34515002D01*
X117211801Y-34485998D01*
X118804798Y-32893002D01*
X118815748Y-32893002D01*
X118657000Y-33051750D01*
X118653928Y-33616000D01*
X118666188Y-33740482D01*
X118702498Y-33860180D01*
X118761463Y-33970494D01*
X118840815Y-34067185D01*
X118937506Y-34146537D01*
X119047820Y-34205502D01*
X119120380Y-34227513D01*
X118988525Y-34359368D01*
X118826010Y-34602589D01*
X118714068Y-34872842D01*
X118657000Y-35159740D01*
X118657000Y-35452260D01*
X118714068Y-35739158D01*
X118826010Y-36009411D01*
X118988525Y-36252632D01*
X119195368Y-36459475D01*
X119438589Y-36621990D01*
X119708842Y-36733932D01*
X119995740Y-36791000D01*
X120288260Y-36791000D01*
X120575158Y-36733932D01*
X120845411Y-36621990D01*
X121088632Y-36459475D01*
X121295475Y-36252632D01*
X121412000Y-36078240D01*
X121528525Y-36252632D01*
X121735368Y-36459475D01*
X121978589Y-36621990D01*
X122248842Y-36733932D01*
X122535740Y-36791000D01*
X122828260Y-36791000D01*
X123115158Y-36733932D01*
X123287000Y-36662753D01*
X123287000Y-40179667D01*
X123283323Y-40216999D01*
X123297997Y-40365984D01*
X123341453Y-40509245D01*
X123412025Y-40641275D01*
X123483200Y-40728001D01*
X123506999Y-40757000D01*
X123535997Y-40780798D01*
X130378198Y-47623000D01*
X130251740Y-47623000D01*
X129964842Y-47680068D01*
X129694589Y-47792010D01*
X129451368Y-47954525D01*
X129244525Y-48161368D01*
X129128000Y-48335760D01*
X129011475Y-48161368D01*
X128804632Y-47954525D01*
X128561411Y-47792010D01*
X128291158Y-47680068D01*
X128004260Y-47623000D01*
X127711740Y-47623000D01*
X127424842Y-47680068D01*
X127154589Y-47792010D01*
X126911368Y-47954525D01*
X126704525Y-48161368D01*
X126588000Y-48335760D01*
X126471475Y-48161368D01*
X126264632Y-47954525D01*
X126021411Y-47792010D01*
X125751158Y-47680068D01*
X125464260Y-47623000D01*
X125171740Y-47623000D01*
X124884842Y-47680068D01*
X124614589Y-47792010D01*
X124371368Y-47954525D01*
X124164525Y-48161368D01*
X124048000Y-48335760D01*
X123931475Y-48161368D01*
X123724632Y-47954525D01*
X123481411Y-47792010D01*
X123211158Y-47680068D01*
X122924260Y-47623000D01*
X122631740Y-47623000D01*
X122344842Y-47680068D01*
X122074589Y-47792010D01*
X121831368Y-47954525D01*
X121699513Y-48086380D01*
X121677502Y-48013820D01*
X121618537Y-47903506D01*
X121539185Y-47806815D01*
X121442494Y-47727463D01*
X121332180Y-47668498D01*
X121212482Y-47632188D01*
X121088000Y-47619928D01*
X119388000Y-47619928D01*
X119263518Y-47632188D01*
X119143820Y-47668498D01*
X119033506Y-47727463D01*
X118936815Y-47806815D01*
X118857463Y-47903506D01*
X118798498Y-48013820D01*
X118762188Y-48133518D01*
X118749928Y-48258000D01*
X118749928Y-49958000D01*
X118762188Y-50082482D01*
X118798498Y-50202180D01*
X118857463Y-50312494D01*
X118936815Y-50409185D01*
X119033506Y-50488537D01*
X119143820Y-50547502D01*
X119263518Y-50583812D01*
X119388000Y-50596072D01*
X120651271Y-50596072D01*
X124309732Y-54254534D01*
X123825750Y-54256000D01*
X123667000Y-54414750D01*
X123667000Y-55839000D01*
X123687000Y-55839000D01*
X123687000Y-56093000D01*
X123667000Y-56093000D01*
X123667000Y-56113000D01*
X123413000Y-56113000D01*
X123413000Y-56093000D01*
X121763750Y-56093000D01*
X121605000Y-56251750D01*
X121601928Y-57041000D01*
X121614188Y-57165482D01*
X121650498Y-57285180D01*
X121709463Y-57395494D01*
X121788815Y-57492185D01*
X121885506Y-57571537D01*
X121995820Y-57630502D01*
X122115518Y-57666812D01*
X122161303Y-57671321D01*
X122028945Y-57779945D01*
X121802759Y-58055553D01*
X121634688Y-58369992D01*
X121531190Y-58711178D01*
X121496243Y-59066000D01*
X121531190Y-59420822D01*
X121634688Y-59762008D01*
X121802759Y-60076447D01*
X122028945Y-60352055D01*
X122304553Y-60578241D01*
X122618992Y-60746312D01*
X122960178Y-60849810D01*
X123226089Y-60876000D01*
X123853911Y-60876000D01*
X124119822Y-60849810D01*
X124461008Y-60746312D01*
X124775447Y-60578241D01*
X125051055Y-60352055D01*
X125277241Y-60076447D01*
X125445312Y-59762008D01*
X125548810Y-59420822D01*
X125583757Y-59066000D01*
X125548810Y-58711178D01*
X125445312Y-58369992D01*
X125398462Y-58282341D01*
X125676009Y-58004794D01*
X125705002Y-57981000D01*
X125728796Y-57952007D01*
X125728800Y-57952003D01*
X125799974Y-57865276D01*
X125799975Y-57865275D01*
X125870547Y-57733246D01*
X125914004Y-57589985D01*
X125925001Y-57478332D01*
X125925001Y-57478323D01*
X125928677Y-57441000D01*
X125925001Y-57403677D01*
X125925001Y-54072326D01*
X125928677Y-54035001D01*
X125925001Y-53997676D01*
X125925001Y-53997668D01*
X125914004Y-53886015D01*
X125870547Y-53742754D01*
X125799975Y-53610725D01*
X125705002Y-53495000D01*
X125676005Y-53471203D01*
X122797801Y-50593000D01*
X122924260Y-50593000D01*
X123144408Y-50549209D01*
X131937452Y-59342254D01*
X131945190Y-59420822D01*
X132048688Y-59762008D01*
X132216759Y-60076447D01*
X132442945Y-60352055D01*
X132718553Y-60578241D01*
X133032992Y-60746312D01*
X133374178Y-60849810D01*
X133640089Y-60876000D01*
X134267911Y-60876000D01*
X134533822Y-60849810D01*
X134875008Y-60746312D01*
X135189447Y-60578241D01*
X135465055Y-60352055D01*
X135691241Y-60076447D01*
X135859312Y-59762008D01*
X135962810Y-59420822D01*
X135997757Y-59066000D01*
X135962810Y-58711178D01*
X135859312Y-58369992D01*
X135691241Y-58055553D01*
X135465055Y-57779945D01*
X135332697Y-57671321D01*
X135378482Y-57666812D01*
X135498180Y-57630502D01*
X135608494Y-57571537D01*
X135705185Y-57492185D01*
X135784537Y-57395494D01*
X135843502Y-57285180D01*
X135879812Y-57165482D01*
X135892072Y-57041000D01*
X135889000Y-56251750D01*
X135730250Y-56093000D01*
X134081000Y-56093000D01*
X134081000Y-56113000D01*
X133827000Y-56113000D01*
X133827000Y-56093000D01*
X132177750Y-56093000D01*
X132019000Y-56251750D01*
X132015928Y-57041000D01*
X132028188Y-57165482D01*
X132064498Y-57285180D01*
X132104133Y-57359332D01*
X125337801Y-50593000D01*
X125464260Y-50593000D01*
X125684408Y-50549209D01*
X130212199Y-55077001D01*
X130235998Y-55106000D01*
X130351723Y-55200973D01*
X130483752Y-55271545D01*
X130627013Y-55315002D01*
X130738666Y-55325999D01*
X130738675Y-55325999D01*
X130775998Y-55329675D01*
X130813321Y-55325999D01*
X132017621Y-55325999D01*
X132019000Y-55680250D01*
X132177750Y-55839000D01*
X133827000Y-55839000D01*
X133827000Y-55819000D01*
X134081000Y-55819000D01*
X134081000Y-55839000D01*
X135730250Y-55839000D01*
X135889000Y-55680250D01*
X135890379Y-55325999D01*
X139553198Y-55325999D01*
X142509538Y-58282341D01*
X142462688Y-58369992D01*
X142359190Y-58711178D01*
X142324243Y-59066000D01*
X142359190Y-59420822D01*
X142462688Y-59762008D01*
X142630759Y-60076447D01*
X142856945Y-60352055D01*
X143132553Y-60578241D01*
X143446992Y-60746312D01*
X143788178Y-60849810D01*
X144054089Y-60876000D01*
X144681911Y-60876000D01*
X144947822Y-60849810D01*
X145289008Y-60746312D01*
X145603447Y-60578241D01*
X145879055Y-60352055D01*
X146105241Y-60076447D01*
X146273312Y-59762008D01*
X146376810Y-59420822D01*
X146411757Y-59066000D01*
X146376810Y-58711178D01*
X146273312Y-58369992D01*
X146105241Y-58055553D01*
X145879055Y-57779945D01*
X145746697Y-57671321D01*
X145792482Y-57666812D01*
X145912180Y-57630502D01*
X146022494Y-57571537D01*
X146119185Y-57492185D01*
X146198537Y-57395494D01*
X146257502Y-57285180D01*
X146293812Y-57165482D01*
X146306072Y-57041000D01*
X146303000Y-56251750D01*
X146144250Y-56093000D01*
X144495000Y-56093000D01*
X144495000Y-56113000D01*
X144241000Y-56113000D01*
X144241000Y-56093000D01*
X142591750Y-56093000D01*
X142530776Y-56153974D01*
X141136801Y-54760000D01*
X142444165Y-54760000D01*
X142442188Y-54766518D01*
X142429928Y-54891000D01*
X142433000Y-55680250D01*
X142591750Y-55839000D01*
X144241000Y-55839000D01*
X144241000Y-55819000D01*
X144495000Y-55819000D01*
X144495000Y-55839000D01*
X146144250Y-55839000D01*
X146303000Y-55680250D01*
X146306072Y-54891000D01*
X146293812Y-54766518D01*
X146291835Y-54760000D01*
X149401199Y-54760000D01*
X152923539Y-58282340D01*
X152876688Y-58369992D01*
X152773190Y-58711178D01*
X152738243Y-59066000D01*
X152773190Y-59420822D01*
X152876688Y-59762008D01*
X153044759Y-60076447D01*
X153270945Y-60352055D01*
X153546553Y-60578241D01*
X153860992Y-60746312D01*
X154202178Y-60849810D01*
X154468089Y-60876000D01*
X155095911Y-60876000D01*
X155361822Y-60849810D01*
X155703008Y-60746312D01*
X156017447Y-60578241D01*
X156293055Y-60352055D01*
X156519241Y-60076447D01*
X156687312Y-59762008D01*
X156790810Y-59420822D01*
X156825757Y-59066000D01*
X156790810Y-58711178D01*
X156687312Y-58369992D01*
X156519241Y-58055553D01*
X156293055Y-57779945D01*
X156160697Y-57671321D01*
X156206482Y-57666812D01*
X156326180Y-57630502D01*
X156436494Y-57571537D01*
X156533185Y-57492185D01*
X156612537Y-57395494D01*
X156671502Y-57285180D01*
X156707812Y-57165482D01*
X156720072Y-57041000D01*
X156717000Y-56251750D01*
X156558250Y-56093000D01*
X154909000Y-56093000D01*
X154909000Y-56113000D01*
X154655000Y-56113000D01*
X154655000Y-56093000D01*
X153005750Y-56093000D01*
X152944776Y-56153974D01*
X151681802Y-54891000D01*
X152843928Y-54891000D01*
X152847000Y-55680250D01*
X153005750Y-55839000D01*
X154655000Y-55839000D01*
X154655000Y-54414750D01*
X154909000Y-54414750D01*
X154909000Y-55839000D01*
X156558250Y-55839000D01*
X156717000Y-55680250D01*
X156720072Y-54891000D01*
X156707812Y-54766518D01*
X156671502Y-54646820D01*
X156612537Y-54536506D01*
X156533185Y-54439815D01*
X156436494Y-54360463D01*
X156326180Y-54301498D01*
X156206482Y-54265188D01*
X156082000Y-54252928D01*
X155067750Y-54256000D01*
X154909000Y-54414750D01*
X154655000Y-54414750D01*
X154496250Y-54256000D01*
X153482000Y-54252928D01*
X153357518Y-54265188D01*
X153237820Y-54301498D01*
X153127506Y-54360463D01*
X153030815Y-54439815D01*
X152951463Y-54536506D01*
X152892498Y-54646820D01*
X152856188Y-54766518D01*
X152843928Y-54891000D01*
X151681802Y-54891000D01*
X150279804Y-53489003D01*
X150256001Y-53459999D01*
X150140276Y-53365026D01*
X150008247Y-53294454D01*
X149864986Y-53250997D01*
X149753333Y-53240000D01*
X149753322Y-53240000D01*
X149716000Y-53236324D01*
X149678678Y-53240000D01*
X133064802Y-53240000D01*
X130417801Y-50593000D01*
X130544260Y-50593000D01*
X130831158Y-50535932D01*
X131101411Y-50423990D01*
X131344632Y-50261475D01*
X131551475Y-50054632D01*
X131668000Y-49880240D01*
X131784525Y-50054632D01*
X131991368Y-50261475D01*
X132234589Y-50423990D01*
X132504842Y-50535932D01*
X132791740Y-50593000D01*
X133084260Y-50593000D01*
X133371158Y-50535932D01*
X133641411Y-50423990D01*
X133884632Y-50261475D01*
X134091475Y-50054632D01*
X134208000Y-49880240D01*
X134324525Y-50054632D01*
X134531368Y-50261475D01*
X134774589Y-50423990D01*
X135044842Y-50535932D01*
X135331740Y-50593000D01*
X135624260Y-50593000D01*
X135911158Y-50535932D01*
X136181411Y-50423990D01*
X136424632Y-50261475D01*
X136631475Y-50054632D01*
X136748000Y-49880240D01*
X136864525Y-50054632D01*
X137071368Y-50261475D01*
X137314589Y-50423990D01*
X137584842Y-50535932D01*
X137871740Y-50593000D01*
X138164260Y-50593000D01*
X138451158Y-50535932D01*
X138721411Y-50423990D01*
X138964632Y-50261475D01*
X139171475Y-50054632D01*
X139333990Y-49811411D01*
X139445932Y-49541158D01*
X139503000Y-49254260D01*
X139503000Y-48961740D01*
X139445932Y-48674842D01*
X139333990Y-48404589D01*
X139236043Y-48258000D01*
X142879928Y-48258000D01*
X142879928Y-49958000D01*
X142892188Y-50082482D01*
X142928498Y-50202180D01*
X142987463Y-50312494D01*
X143066815Y-50409185D01*
X143163506Y-50488537D01*
X143273820Y-50547502D01*
X143393518Y-50583812D01*
X143518000Y-50596072D01*
X145218000Y-50596072D01*
X145342482Y-50583812D01*
X145462180Y-50547502D01*
X145572494Y-50488537D01*
X145669185Y-50409185D01*
X145748537Y-50312494D01*
X145807502Y-50202180D01*
X145829513Y-50129620D01*
X145961368Y-50261475D01*
X146204589Y-50423990D01*
X146474842Y-50535932D01*
X146761740Y-50593000D01*
X147054260Y-50593000D01*
X147341158Y-50535932D01*
X147611411Y-50423990D01*
X147854632Y-50261475D01*
X148061475Y-50054632D01*
X148178000Y-49880240D01*
X148294525Y-50054632D01*
X148501368Y-50261475D01*
X148744589Y-50423990D01*
X149014842Y-50535932D01*
X149301740Y-50593000D01*
X149594260Y-50593000D01*
X149881158Y-50535932D01*
X150151411Y-50423990D01*
X150394632Y-50261475D01*
X150601475Y-50054632D01*
X150718000Y-49880240D01*
X150834525Y-50054632D01*
X151041368Y-50261475D01*
X151284589Y-50423990D01*
X151554842Y-50535932D01*
X151841740Y-50593000D01*
X152134260Y-50593000D01*
X152421158Y-50535932D01*
X152691411Y-50423990D01*
X152934632Y-50261475D01*
X153141475Y-50054632D01*
X153303990Y-49811411D01*
X153415932Y-49541158D01*
X153473000Y-49254260D01*
X153473000Y-48961740D01*
X153415932Y-48674842D01*
X153303990Y-48404589D01*
X153141475Y-48161368D01*
X152934632Y-47954525D01*
X152691411Y-47792010D01*
X152421158Y-47680068D01*
X152134260Y-47623000D01*
X151841740Y-47623000D01*
X151554842Y-47680068D01*
X151284589Y-47792010D01*
X151041368Y-47954525D01*
X150834525Y-48161368D01*
X150718000Y-48335760D01*
X150601475Y-48161368D01*
X150394632Y-47954525D01*
X150151411Y-47792010D01*
X149881158Y-47680068D01*
X149594260Y-47623000D01*
X149301740Y-47623000D01*
X149014842Y-47680068D01*
X148744589Y-47792010D01*
X148501368Y-47954525D01*
X148294525Y-48161368D01*
X148178000Y-48335760D01*
X148061475Y-48161368D01*
X147854632Y-47954525D01*
X147611411Y-47792010D01*
X147341158Y-47680068D01*
X147054260Y-47623000D01*
X146761740Y-47623000D01*
X146474842Y-47680068D01*
X146204589Y-47792010D01*
X145961368Y-47954525D01*
X145829513Y-48086380D01*
X145807502Y-48013820D01*
X145748537Y-47903506D01*
X145669185Y-47806815D01*
X145572494Y-47727463D01*
X145462180Y-47668498D01*
X145342482Y-47632188D01*
X145218000Y-47619928D01*
X143518000Y-47619928D01*
X143393518Y-47632188D01*
X143273820Y-47668498D01*
X143163506Y-47727463D01*
X143066815Y-47806815D01*
X142987463Y-47903506D01*
X142928498Y-48013820D01*
X142892188Y-48133518D01*
X142879928Y-48258000D01*
X139236043Y-48258000D01*
X139171475Y-48161368D01*
X138964632Y-47954525D01*
X138721411Y-47792010D01*
X138451158Y-47680068D01*
X138164260Y-47623000D01*
X137871740Y-47623000D01*
X137584842Y-47680068D01*
X137314589Y-47792010D01*
X137071368Y-47954525D01*
X136864525Y-48161368D01*
X136748000Y-48335760D01*
X136631475Y-48161368D01*
X136424632Y-47954525D01*
X136181411Y-47792010D01*
X135911158Y-47680068D01*
X135624260Y-47623000D01*
X135331740Y-47623000D01*
X135044842Y-47680068D01*
X134774589Y-47792010D01*
X134531368Y-47954525D01*
X134324525Y-48161368D01*
X134208000Y-48335760D01*
X134091475Y-48161368D01*
X133884632Y-47954525D01*
X133641411Y-47792010D01*
X133371158Y-47680068D01*
X133084260Y-47623000D01*
X132791740Y-47623000D01*
X132571592Y-47666790D01*
X124806999Y-39902198D01*
X124806999Y-36737544D01*
X125075740Y-36791000D01*
X125368260Y-36791000D01*
X125655158Y-36733932D01*
X125925411Y-36621990D01*
X126168632Y-36459475D01*
X126375475Y-36252632D01*
X126492000Y-36078240D01*
X126608525Y-36252632D01*
X126815368Y-36459475D01*
X127058589Y-36621990D01*
X127328842Y-36733932D01*
X127615740Y-36791000D01*
X127908260Y-36791000D01*
X127980961Y-36776539D01*
X131345470Y-40141049D01*
X131373183Y-40174817D01*
X131406951Y-40202530D01*
X131406953Y-40202532D01*
X131507941Y-40285411D01*
X131661686Y-40367589D01*
X131774787Y-40401898D01*
X131828510Y-40418195D01*
X131958523Y-40431000D01*
X131958531Y-40431000D01*
X132002000Y-40435281D01*
X132045469Y-40431000D01*
X166687422Y-40431000D01*
X181391928Y-55135507D01*
X181391928Y-56222000D01*
X181404188Y-56346482D01*
X181440498Y-56466180D01*
X181499463Y-56576494D01*
X181578815Y-56673185D01*
X181675506Y-56752537D01*
X181785820Y-56811502D01*
X181905518Y-56847812D01*
X182030000Y-56860072D01*
X183730000Y-56860072D01*
X183854482Y-56847812D01*
X183974180Y-56811502D01*
X184084494Y-56752537D01*
X184181185Y-56673185D01*
X184260537Y-56576494D01*
X184319502Y-56466180D01*
X184343966Y-56385534D01*
X184419731Y-56469588D01*
X184653080Y-56643641D01*
X184915901Y-56768825D01*
X185063110Y-56813476D01*
X185293000Y-56692155D01*
X185293000Y-55499000D01*
X185273000Y-55499000D01*
X185273000Y-55245000D01*
X185293000Y-55245000D01*
X185293000Y-55225000D01*
X185547000Y-55225000D01*
X185547000Y-55245000D01*
X185567000Y-55245000D01*
X185567000Y-55499000D01*
X185547000Y-55499000D01*
X185547000Y-56692155D01*
X185776890Y-56813476D01*
X185924099Y-56768825D01*
X186186920Y-56643641D01*
X186420269Y-56469588D01*
X186615178Y-56253355D01*
X186684805Y-56136466D01*
X186806525Y-56318632D01*
X187013368Y-56525475D01*
X187256589Y-56687990D01*
X187526842Y-56799932D01*
X187813740Y-56857000D01*
X188106260Y-56857000D01*
X188393158Y-56799932D01*
X188663411Y-56687990D01*
X188906632Y-56525475D01*
X189113475Y-56318632D01*
X189230000Y-56144240D01*
X189346525Y-56318632D01*
X189553368Y-56525475D01*
X189796589Y-56687990D01*
X190066842Y-56799932D01*
X190353740Y-56857000D01*
X190646260Y-56857000D01*
X190915002Y-56803544D01*
X190915002Y-58962196D01*
X188175000Y-61702199D01*
X188175000Y-61575740D01*
X188117932Y-61288842D01*
X188005990Y-61018589D01*
X187843475Y-60775368D01*
X187636632Y-60568525D01*
X187462240Y-60452000D01*
X187636632Y-60335475D01*
X187843475Y-60128632D01*
X188005990Y-59885411D01*
X188117932Y-59615158D01*
X188175000Y-59328260D01*
X188175000Y-59035740D01*
X188117932Y-58748842D01*
X188005990Y-58478589D01*
X187843475Y-58235368D01*
X187636632Y-58028525D01*
X187393411Y-57866010D01*
X187123158Y-57754068D01*
X186836260Y-57697000D01*
X186543740Y-57697000D01*
X186256842Y-57754068D01*
X185986589Y-57866010D01*
X185743368Y-58028525D01*
X185536525Y-58235368D01*
X185374010Y-58478589D01*
X185262068Y-58748842D01*
X185205000Y-59035740D01*
X185205000Y-59328260D01*
X185262068Y-59615158D01*
X185374010Y-59885411D01*
X185536525Y-60128632D01*
X185743368Y-60335475D01*
X185917760Y-60452000D01*
X185743368Y-60568525D01*
X185536525Y-60775368D01*
X185374010Y-61018589D01*
X185262068Y-61288842D01*
X185205000Y-61575740D01*
X185205000Y-61868260D01*
X185262068Y-62155158D01*
X185374010Y-62425411D01*
X185536525Y-62668632D01*
X185743368Y-62875475D01*
X185917760Y-62992000D01*
X185743368Y-63108525D01*
X185536525Y-63315368D01*
X185374010Y-63558589D01*
X185262068Y-63828842D01*
X185205000Y-64115740D01*
X185205000Y-64408260D01*
X185262068Y-64695158D01*
X185374010Y-64965411D01*
X185536525Y-65208632D01*
X185743368Y-65415475D01*
X185917760Y-65532000D01*
X185743368Y-65648525D01*
X185536525Y-65855368D01*
X185374010Y-66098589D01*
X185262068Y-66368842D01*
X185205000Y-66655740D01*
X185205000Y-66948260D01*
X185262068Y-67235158D01*
X185374010Y-67505411D01*
X185536525Y-67748632D01*
X185743368Y-67955475D01*
X185925534Y-68077195D01*
X185808645Y-68146822D01*
X185592412Y-68341731D01*
X185418359Y-68575080D01*
X185293175Y-68837901D01*
X185248524Y-68985110D01*
X185369845Y-69215000D01*
X186563000Y-69215000D01*
X186563000Y-69195000D01*
X186817000Y-69195000D01*
X186817000Y-69215000D01*
X188010155Y-69215000D01*
X188131476Y-68985110D01*
X188086825Y-68837901D01*
X187961641Y-68575080D01*
X187787588Y-68341731D01*
X187571355Y-68146822D01*
X187454466Y-68077195D01*
X187636632Y-67955475D01*
X187843475Y-67748632D01*
X188005990Y-67505411D01*
X188117932Y-67235158D01*
X188175000Y-66948260D01*
X188175000Y-66655740D01*
X188131209Y-66435592D01*
X194726009Y-59840794D01*
X194755002Y-59817000D01*
X194778796Y-59788007D01*
X194778800Y-59788003D01*
X194849974Y-59701276D01*
X194849975Y-59701275D01*
X194920547Y-59569246D01*
X194964004Y-59425985D01*
X194975001Y-59314332D01*
X194975001Y-59314323D01*
X194978677Y-59277000D01*
X194975001Y-59239677D01*
X194975001Y-56728753D01*
X195146842Y-56799932D01*
X195433740Y-56857000D01*
X195726260Y-56857000D01*
X196013158Y-56799932D01*
X196283411Y-56687990D01*
X196526632Y-56525475D01*
X196733475Y-56318632D01*
X196895990Y-56075411D01*
X197007932Y-55805158D01*
X197065000Y-55518260D01*
X197065000Y-55225740D01*
X197007932Y-54938842D01*
X196895990Y-54668589D01*
X196733475Y-54425368D01*
X196526632Y-54218525D01*
X196283411Y-54056010D01*
X196013158Y-53944068D01*
X195726260Y-53887000D01*
X195433740Y-53887000D01*
X195146842Y-53944068D01*
X194975001Y-54015247D01*
X194975001Y-46686641D01*
X194978677Y-46649316D01*
X194975001Y-46611991D01*
X194975001Y-46611983D01*
X194964004Y-46500330D01*
X194920547Y-46357069D01*
X194849975Y-46225040D01*
X194755002Y-46109315D01*
X194726005Y-46085518D01*
X193529489Y-44889003D01*
X193505686Y-44859999D01*
X193389961Y-44765026D01*
X193257932Y-44694454D01*
X193114724Y-44651013D01*
X193059774Y-44596063D01*
X192890256Y-44482795D01*
X192701898Y-44404774D01*
X192501939Y-44365000D01*
X192298061Y-44365000D01*
X192098102Y-44404774D01*
X191909744Y-44482795D01*
X191740226Y-44596063D01*
X191596063Y-44740226D01*
X191482795Y-44909744D01*
X191404774Y-45098102D01*
X191365000Y-45298061D01*
X191365000Y-45501939D01*
X191404774Y-45701898D01*
X191482795Y-45890256D01*
X191489306Y-45900000D01*
X191482795Y-45909744D01*
X191404774Y-46098102D01*
X191365000Y-46298061D01*
X191365000Y-46360198D01*
X191164003Y-46561196D01*
X191135000Y-46584998D01*
X191082216Y-46649316D01*
X191040027Y-46700723D01*
X191039399Y-46701898D01*
X190969455Y-46832753D01*
X190925998Y-46976014D01*
X190915001Y-47087667D01*
X190915001Y-47087677D01*
X190911325Y-47124999D01*
X190915001Y-47162321D01*
X190915002Y-53940456D01*
X190646260Y-53887000D01*
X190353740Y-53887000D01*
X190133592Y-53930790D01*
X187660000Y-51457199D01*
X187660000Y-47937322D01*
X187663676Y-47899999D01*
X187660000Y-47862676D01*
X187660000Y-47862667D01*
X187649003Y-47751014D01*
X187605546Y-47607753D01*
X187534974Y-47475724D01*
X187440001Y-47359999D01*
X187411003Y-47336201D01*
X187035000Y-46960198D01*
X187035000Y-46898061D01*
X186995226Y-46698102D01*
X186917205Y-46509744D01*
X186803937Y-46340226D01*
X186659774Y-46196063D01*
X186490256Y-46082795D01*
X186301898Y-46004774D01*
X186101939Y-45965000D01*
X185898061Y-45965000D01*
X185698102Y-46004774D01*
X185509744Y-46082795D01*
X185340226Y-46196063D01*
X185196063Y-46340226D01*
X185082795Y-46509744D01*
X185004774Y-46698102D01*
X184965000Y-46898061D01*
X184965000Y-47101939D01*
X185004774Y-47301898D01*
X185043009Y-47394204D01*
X185040226Y-47396063D01*
X184896063Y-47540226D01*
X184782795Y-47709744D01*
X184704774Y-47898102D01*
X184665000Y-48098061D01*
X184665000Y-48301939D01*
X184704774Y-48501898D01*
X184782795Y-48690256D01*
X184840001Y-48775871D01*
X184840000Y-52974677D01*
X184836324Y-53012000D01*
X184840000Y-53049322D01*
X184840000Y-53049332D01*
X184850997Y-53160985D01*
X184888919Y-53285998D01*
X184894454Y-53304246D01*
X184965026Y-53436276D01*
X185004871Y-53484826D01*
X185059999Y-53552001D01*
X185089003Y-53575804D01*
X185400199Y-53887000D01*
X185292998Y-53887000D01*
X185292998Y-54051844D01*
X185063110Y-53930524D01*
X184915901Y-53975175D01*
X184653080Y-54100359D01*
X184419731Y-54274412D01*
X184343966Y-54358466D01*
X184319502Y-54277820D01*
X184260537Y-54167506D01*
X184181185Y-54070815D01*
X184084494Y-53991463D01*
X183974180Y-53932498D01*
X183854482Y-53896188D01*
X183730000Y-53883928D01*
X182643507Y-53883928D01*
X167710534Y-38950956D01*
X167682817Y-38917183D01*
X167548059Y-38806589D01*
X167394313Y-38724411D01*
X167227490Y-38673805D01*
X167097477Y-38661000D01*
X167097469Y-38661000D01*
X167054000Y-38656719D01*
X167010531Y-38661000D01*
X132368579Y-38661000D01*
X129232539Y-35524961D01*
X129247000Y-35452260D01*
X129247000Y-35159740D01*
X129189932Y-34872842D01*
X129077990Y-34602589D01*
X128915475Y-34359368D01*
X128708632Y-34152525D01*
X128532594Y-34034900D01*
X128762269Y-33863588D01*
X128957178Y-33647355D01*
X129106157Y-33397252D01*
X129203481Y-33122891D01*
X129082814Y-32893000D01*
X127889000Y-32893000D01*
X127889000Y-32913000D01*
X127635000Y-32913000D01*
X127635000Y-32893000D01*
X125349000Y-32893000D01*
X125349000Y-32913000D01*
X125095000Y-32913000D01*
X125095000Y-32893000D01*
X125075000Y-32893000D01*
X125075000Y-32639000D01*
X125095000Y-32639000D01*
X125095000Y-31445845D01*
X125349000Y-31445845D01*
X125349000Y-32639000D01*
X127635000Y-32639000D01*
X127635000Y-31445845D01*
X127889000Y-31445845D01*
X127889000Y-32639000D01*
X129082814Y-32639000D01*
X129203481Y-32409109D01*
X129106157Y-32134748D01*
X128957178Y-31884645D01*
X128762269Y-31668412D01*
X128528920Y-31494359D01*
X128266099Y-31369175D01*
X128118890Y-31324524D01*
X127889000Y-31445845D01*
X127635000Y-31445845D01*
X127405110Y-31324524D01*
X127257901Y-31369175D01*
X126995080Y-31494359D01*
X126761731Y-31668412D01*
X126566822Y-31884645D01*
X126492000Y-32010255D01*
X126417178Y-31884645D01*
X126222269Y-31668412D01*
X125988920Y-31494359D01*
X125726099Y-31369175D01*
X125578890Y-31324524D01*
X125349000Y-31445845D01*
X125095000Y-31445845D01*
X124865110Y-31324524D01*
X124717901Y-31369175D01*
X124455080Y-31494359D01*
X124322817Y-31593013D01*
X123809804Y-31080001D01*
X123786002Y-31050998D01*
X123670277Y-30956025D01*
X123538248Y-30885453D01*
X123454339Y-30860000D01*
X137285199Y-30860000D01*
X138811928Y-32386730D01*
X138811928Y-33650000D01*
X138824188Y-33774482D01*
X138860498Y-33894180D01*
X138919463Y-34004494D01*
X138998815Y-34101185D01*
X139095506Y-34180537D01*
X139205820Y-34239502D01*
X139278380Y-34261513D01*
X139146525Y-34393368D01*
X138984010Y-34636589D01*
X138872068Y-34906842D01*
X138815000Y-35193740D01*
X138815000Y-35486260D01*
X138872068Y-35773158D01*
X138984010Y-36043411D01*
X139146525Y-36286632D01*
X139353368Y-36493475D01*
X139596589Y-36655990D01*
X139866842Y-36767932D01*
X140153740Y-36825000D01*
X140446260Y-36825000D01*
X140733158Y-36767932D01*
X141003411Y-36655990D01*
X141246632Y-36493475D01*
X141453475Y-36286632D01*
X141615990Y-36043411D01*
X141727932Y-35773158D01*
X141785000Y-35486260D01*
X141785000Y-35193740D01*
X141727932Y-34906842D01*
X141615990Y-34636589D01*
X141453475Y-34393368D01*
X141321620Y-34261513D01*
X141394180Y-34239502D01*
X141504494Y-34180537D01*
X141601185Y-34101185D01*
X141680537Y-34004494D01*
X141739502Y-33894180D01*
X141775812Y-33774482D01*
X141788072Y-33650000D01*
X141788072Y-31950000D01*
X141775812Y-31825518D01*
X141739502Y-31705820D01*
X141680537Y-31595506D01*
X141601185Y-31498815D01*
X141504494Y-31419463D01*
X141394180Y-31360498D01*
X141274482Y-31324188D01*
X141150000Y-31311928D01*
X139886730Y-31311928D01*
X139434801Y-30860000D01*
X168985199Y-30860000D01*
X180440000Y-42314803D01*
X180440001Y-49162668D01*
X180436324Y-49200000D01*
X180450998Y-49348985D01*
X180494454Y-49492246D01*
X180565026Y-49624276D01*
X180604028Y-49671799D01*
X180660000Y-49740001D01*
X180688998Y-49763799D01*
X181165000Y-50239802D01*
X181165000Y-50301939D01*
X181204774Y-50501898D01*
X181282795Y-50690256D01*
X181396063Y-50859774D01*
X181540226Y-51003937D01*
X181709744Y-51117205D01*
X181898102Y-51195226D01*
X182098061Y-51235000D01*
X182301939Y-51235000D01*
X182501898Y-51195226D01*
X182690256Y-51117205D01*
X182859774Y-51003937D01*
X183003937Y-50859774D01*
X183117205Y-50690256D01*
X183195226Y-50501898D01*
X183235000Y-50301939D01*
X183235000Y-50098061D01*
X183195226Y-49898102D01*
X183117205Y-49709744D01*
X183010468Y-49550000D01*
X183117205Y-49390256D01*
X183195226Y-49201898D01*
X183235000Y-49001939D01*
X183235000Y-48798061D01*
X183195226Y-48598102D01*
X183117205Y-48409744D01*
X183003937Y-48240226D01*
X182960000Y-48196289D01*
X182960000Y-42164320D01*
X182963676Y-42126997D01*
X182960000Y-42089674D01*
X182960000Y-42089665D01*
X182949003Y-41978012D01*
X182905546Y-41834751D01*
X182834974Y-41702722D01*
X182821811Y-41686683D01*
X182763799Y-41615994D01*
X182763795Y-41615990D01*
X182740001Y-41586997D01*
X182711010Y-41563205D01*
X170236806Y-29089003D01*
X170213003Y-29059999D01*
X170097278Y-28965026D01*
X169965249Y-28894454D01*
X169821988Y-28850997D01*
X169710335Y-28840000D01*
X169710324Y-28840000D01*
X169673002Y-28836324D01*
X169635680Y-28840000D01*
X136535000Y-28840000D01*
X136535000Y-28798061D01*
X136505549Y-28650000D01*
X192976440Y-28650000D01*
X192636886Y-28989554D01*
X192293799Y-29503021D01*
X192057476Y-30073554D01*
X191937000Y-30679229D01*
X191937000Y-31296771D01*
X192057476Y-31902446D01*
X192293799Y-32472979D01*
X192636886Y-32986446D01*
X193073554Y-33423114D01*
X193587021Y-33766201D01*
X194157554Y-34002524D01*
X194763229Y-34123000D01*
X195380771Y-34123000D01*
X195986446Y-34002524D01*
X196556979Y-33766201D01*
X197070446Y-33423114D01*
X197410000Y-33083560D01*
X197410001Y-88836441D01*
X197070446Y-88496886D01*
X196556979Y-88153799D01*
X195986446Y-87917476D01*
X195380771Y-87797000D01*
X194763229Y-87797000D01*
X194157554Y-87917476D01*
X193587021Y-88153799D01*
X193073554Y-88496886D01*
X192636886Y-88933554D01*
X192293799Y-89447021D01*
X192057476Y-90017554D01*
X191937000Y-90623229D01*
X191937000Y-91240771D01*
X192057476Y-91846446D01*
X192293799Y-92416979D01*
X192636886Y-92930446D01*
X192976440Y-93270000D01*
X40703560Y-93270000D01*
X41043114Y-92930446D01*
X41386201Y-92416979D01*
X41622524Y-91846446D01*
X41743000Y-91240771D01*
X41743000Y-90623229D01*
X41622524Y-90017554D01*
X41386201Y-89447021D01*
X41043114Y-88933554D01*
X40606446Y-88496886D01*
X40092979Y-88153799D01*
X39522446Y-87917476D01*
X38916771Y-87797000D01*
X38299229Y-87797000D01*
X37693554Y-87917476D01*
X37123021Y-88153799D01*
X36609554Y-88496886D01*
X36270000Y-88836440D01*
X36270000Y-85204495D01*
X64461000Y-85204495D01*
X64461000Y-85595505D01*
X64537282Y-85979003D01*
X64686915Y-86340250D01*
X64904149Y-86665364D01*
X65180636Y-86941851D01*
X65505750Y-87159085D01*
X65866997Y-87308718D01*
X66250495Y-87385000D01*
X66641505Y-87385000D01*
X67025003Y-87308718D01*
X67386250Y-87159085D01*
X67711364Y-86941851D01*
X67987851Y-86665364D01*
X68205085Y-86340250D01*
X68354718Y-85979003D01*
X68431000Y-85595505D01*
X68431000Y-85204495D01*
X74875000Y-85204495D01*
X74875000Y-85595505D01*
X74951282Y-85979003D01*
X75100915Y-86340250D01*
X75318149Y-86665364D01*
X75594636Y-86941851D01*
X75919750Y-87159085D01*
X76280997Y-87308718D01*
X76664495Y-87385000D01*
X77055505Y-87385000D01*
X77439003Y-87308718D01*
X77800250Y-87159085D01*
X78125364Y-86941851D01*
X78401851Y-86665364D01*
X78619085Y-86340250D01*
X78768718Y-85979003D01*
X78845000Y-85595505D01*
X78845000Y-85204495D01*
X85289000Y-85204495D01*
X85289000Y-85595505D01*
X85365282Y-85979003D01*
X85514915Y-86340250D01*
X85732149Y-86665364D01*
X86008636Y-86941851D01*
X86333750Y-87159085D01*
X86694997Y-87308718D01*
X87078495Y-87385000D01*
X87469505Y-87385000D01*
X87853003Y-87308718D01*
X88214250Y-87159085D01*
X88539364Y-86941851D01*
X88815851Y-86665364D01*
X89033085Y-86340250D01*
X89182718Y-85979003D01*
X89259000Y-85595505D01*
X89259000Y-85204495D01*
X95703000Y-85204495D01*
X95703000Y-85595505D01*
X95779282Y-85979003D01*
X95928915Y-86340250D01*
X96146149Y-86665364D01*
X96422636Y-86941851D01*
X96747750Y-87159085D01*
X97108997Y-87308718D01*
X97492495Y-87385000D01*
X97883505Y-87385000D01*
X98267003Y-87308718D01*
X98628250Y-87159085D01*
X98953364Y-86941851D01*
X99229851Y-86665364D01*
X99447085Y-86340250D01*
X99596718Y-85979003D01*
X99673000Y-85595505D01*
X99673000Y-85204495D01*
X121555000Y-85204495D01*
X121555000Y-85595505D01*
X121631282Y-85979003D01*
X121780915Y-86340250D01*
X121998149Y-86665364D01*
X122274636Y-86941851D01*
X122599750Y-87159085D01*
X122960997Y-87308718D01*
X123344495Y-87385000D01*
X123735505Y-87385000D01*
X124119003Y-87308718D01*
X124480250Y-87159085D01*
X124805364Y-86941851D01*
X125081851Y-86665364D01*
X125299085Y-86340250D01*
X125448718Y-85979003D01*
X125525000Y-85595505D01*
X125525000Y-85204495D01*
X131969000Y-85204495D01*
X131969000Y-85595505D01*
X132045282Y-85979003D01*
X132194915Y-86340250D01*
X132412149Y-86665364D01*
X132688636Y-86941851D01*
X133013750Y-87159085D01*
X133374997Y-87308718D01*
X133758495Y-87385000D01*
X134149505Y-87385000D01*
X134533003Y-87308718D01*
X134894250Y-87159085D01*
X135219364Y-86941851D01*
X135495851Y-86665364D01*
X135713085Y-86340250D01*
X135862718Y-85979003D01*
X135939000Y-85595505D01*
X135939000Y-85204495D01*
X142383000Y-85204495D01*
X142383000Y-85595505D01*
X142459282Y-85979003D01*
X142608915Y-86340250D01*
X142826149Y-86665364D01*
X143102636Y-86941851D01*
X143427750Y-87159085D01*
X143788997Y-87308718D01*
X144172495Y-87385000D01*
X144563505Y-87385000D01*
X144947003Y-87308718D01*
X145308250Y-87159085D01*
X145633364Y-86941851D01*
X145909851Y-86665364D01*
X146127085Y-86340250D01*
X146276718Y-85979003D01*
X146353000Y-85595505D01*
X146353000Y-85204495D01*
X152797000Y-85204495D01*
X152797000Y-85595505D01*
X152873282Y-85979003D01*
X153022915Y-86340250D01*
X153240149Y-86665364D01*
X153516636Y-86941851D01*
X153841750Y-87159085D01*
X154202997Y-87308718D01*
X154586495Y-87385000D01*
X154977505Y-87385000D01*
X155361003Y-87308718D01*
X155722250Y-87159085D01*
X156047364Y-86941851D01*
X156323851Y-86665364D01*
X156541085Y-86340250D01*
X156690718Y-85979003D01*
X156767000Y-85595505D01*
X156767000Y-85204495D01*
X156690718Y-84820997D01*
X156541085Y-84459750D01*
X156323851Y-84134636D01*
X156047364Y-83858149D01*
X155722250Y-83640915D01*
X155361003Y-83491282D01*
X154977505Y-83415000D01*
X154586495Y-83415000D01*
X154202997Y-83491282D01*
X153841750Y-83640915D01*
X153516636Y-83858149D01*
X153240149Y-84134636D01*
X153022915Y-84459750D01*
X152873282Y-84820997D01*
X152797000Y-85204495D01*
X146353000Y-85204495D01*
X146276718Y-84820997D01*
X146127085Y-84459750D01*
X145909851Y-84134636D01*
X145633364Y-83858149D01*
X145308250Y-83640915D01*
X144947003Y-83491282D01*
X144563505Y-83415000D01*
X144172495Y-83415000D01*
X143788997Y-83491282D01*
X143427750Y-83640915D01*
X143102636Y-83858149D01*
X142826149Y-84134636D01*
X142608915Y-84459750D01*
X142459282Y-84820997D01*
X142383000Y-85204495D01*
X135939000Y-85204495D01*
X135862718Y-84820997D01*
X135713085Y-84459750D01*
X135495851Y-84134636D01*
X135219364Y-83858149D01*
X134894250Y-83640915D01*
X134533003Y-83491282D01*
X134149505Y-83415000D01*
X133758495Y-83415000D01*
X133374997Y-83491282D01*
X133013750Y-83640915D01*
X132688636Y-83858149D01*
X132412149Y-84134636D01*
X132194915Y-84459750D01*
X132045282Y-84820997D01*
X131969000Y-85204495D01*
X125525000Y-85204495D01*
X125448718Y-84820997D01*
X125299085Y-84459750D01*
X125081851Y-84134636D01*
X124805364Y-83858149D01*
X124480250Y-83640915D01*
X124119003Y-83491282D01*
X123735505Y-83415000D01*
X123344495Y-83415000D01*
X122960997Y-83491282D01*
X122599750Y-83640915D01*
X122274636Y-83858149D01*
X121998149Y-84134636D01*
X121780915Y-84459750D01*
X121631282Y-84820997D01*
X121555000Y-85204495D01*
X99673000Y-85204495D01*
X99596718Y-84820997D01*
X99447085Y-84459750D01*
X99229851Y-84134636D01*
X98953364Y-83858149D01*
X98628250Y-83640915D01*
X98267003Y-83491282D01*
X97883505Y-83415000D01*
X97492495Y-83415000D01*
X97108997Y-83491282D01*
X96747750Y-83640915D01*
X96422636Y-83858149D01*
X96146149Y-84134636D01*
X95928915Y-84459750D01*
X95779282Y-84820997D01*
X95703000Y-85204495D01*
X89259000Y-85204495D01*
X89182718Y-84820997D01*
X89033085Y-84459750D01*
X88815851Y-84134636D01*
X88539364Y-83858149D01*
X88214250Y-83640915D01*
X87853003Y-83491282D01*
X87469505Y-83415000D01*
X87078495Y-83415000D01*
X86694997Y-83491282D01*
X86333750Y-83640915D01*
X86008636Y-83858149D01*
X85732149Y-84134636D01*
X85514915Y-84459750D01*
X85365282Y-84820997D01*
X85289000Y-85204495D01*
X78845000Y-85204495D01*
X78768718Y-84820997D01*
X78619085Y-84459750D01*
X78401851Y-84134636D01*
X78125364Y-83858149D01*
X77800250Y-83640915D01*
X77439003Y-83491282D01*
X77055505Y-83415000D01*
X76664495Y-83415000D01*
X76280997Y-83491282D01*
X75919750Y-83640915D01*
X75594636Y-83858149D01*
X75318149Y-84134636D01*
X75100915Y-84459750D01*
X74951282Y-84820997D01*
X74875000Y-85204495D01*
X68431000Y-85204495D01*
X68354718Y-84820997D01*
X68205085Y-84459750D01*
X67987851Y-84134636D01*
X67711364Y-83858149D01*
X67386250Y-83640915D01*
X67025003Y-83491282D01*
X66641505Y-83415000D01*
X66250495Y-83415000D01*
X65866997Y-83491282D01*
X65505750Y-83640915D01*
X65180636Y-83858149D01*
X64904149Y-84134636D01*
X64686915Y-84459750D01*
X64537282Y-84820997D01*
X64461000Y-85204495D01*
X36270000Y-85204495D01*
X36270000Y-77100000D01*
X64402243Y-77100000D01*
X64437190Y-77454822D01*
X64540688Y-77796008D01*
X64708759Y-78110447D01*
X64934945Y-78386055D01*
X65210553Y-78612241D01*
X65524992Y-78780312D01*
X65866178Y-78883810D01*
X66132089Y-78910000D01*
X66759911Y-78910000D01*
X67025822Y-78883810D01*
X67367008Y-78780312D01*
X67681447Y-78612241D01*
X67957055Y-78386055D01*
X68183241Y-78110447D01*
X68351312Y-77796008D01*
X68454810Y-77454822D01*
X68489757Y-77100000D01*
X74816243Y-77100000D01*
X74851190Y-77454822D01*
X74954688Y-77796008D01*
X75122759Y-78110447D01*
X75348945Y-78386055D01*
X75624553Y-78612241D01*
X75938992Y-78780312D01*
X76280178Y-78883810D01*
X76546089Y-78910000D01*
X77173911Y-78910000D01*
X77439822Y-78883810D01*
X77781008Y-78780312D01*
X78095447Y-78612241D01*
X78371055Y-78386055D01*
X78597241Y-78110447D01*
X78765312Y-77796008D01*
X78868810Y-77454822D01*
X78903757Y-77100000D01*
X85230243Y-77100000D01*
X85265190Y-77454822D01*
X85368688Y-77796008D01*
X85536759Y-78110447D01*
X85762945Y-78386055D01*
X86038553Y-78612241D01*
X86352992Y-78780312D01*
X86694178Y-78883810D01*
X86960089Y-78910000D01*
X87587911Y-78910000D01*
X87853822Y-78883810D01*
X88195008Y-78780312D01*
X88509447Y-78612241D01*
X88785055Y-78386055D01*
X89011241Y-78110447D01*
X89179312Y-77796008D01*
X89282810Y-77454822D01*
X89317757Y-77100000D01*
X95644243Y-77100000D01*
X95679190Y-77454822D01*
X95782688Y-77796008D01*
X95950759Y-78110447D01*
X96176945Y-78386055D01*
X96452553Y-78612241D01*
X96766992Y-78780312D01*
X97108178Y-78883810D01*
X97374089Y-78910000D01*
X98001911Y-78910000D01*
X98267822Y-78883810D01*
X98609008Y-78780312D01*
X98923447Y-78612241D01*
X99199055Y-78386055D01*
X99425241Y-78110447D01*
X99593312Y-77796008D01*
X99696810Y-77454822D01*
X99731757Y-77100000D01*
X121496243Y-77100000D01*
X121531190Y-77454822D01*
X121634688Y-77796008D01*
X121802759Y-78110447D01*
X122028945Y-78386055D01*
X122304553Y-78612241D01*
X122618992Y-78780312D01*
X122960178Y-78883810D01*
X123226089Y-78910000D01*
X123853911Y-78910000D01*
X124119822Y-78883810D01*
X124461008Y-78780312D01*
X124775447Y-78612241D01*
X125051055Y-78386055D01*
X125277241Y-78110447D01*
X125445312Y-77796008D01*
X125548810Y-77454822D01*
X125583757Y-77100000D01*
X131910243Y-77100000D01*
X131945190Y-77454822D01*
X132048688Y-77796008D01*
X132216759Y-78110447D01*
X132442945Y-78386055D01*
X132718553Y-78612241D01*
X133032992Y-78780312D01*
X133374178Y-78883810D01*
X133640089Y-78910000D01*
X134267911Y-78910000D01*
X134533822Y-78883810D01*
X134875008Y-78780312D01*
X135189447Y-78612241D01*
X135465055Y-78386055D01*
X135691241Y-78110447D01*
X135859312Y-77796008D01*
X135962810Y-77454822D01*
X135997757Y-77100000D01*
X142324243Y-77100000D01*
X142359190Y-77454822D01*
X142462688Y-77796008D01*
X142630759Y-78110447D01*
X142856945Y-78386055D01*
X143132553Y-78612241D01*
X143446992Y-78780312D01*
X143788178Y-78883810D01*
X144054089Y-78910000D01*
X144681911Y-78910000D01*
X144947822Y-78883810D01*
X145289008Y-78780312D01*
X145603447Y-78612241D01*
X145879055Y-78386055D01*
X146105241Y-78110447D01*
X146273312Y-77796008D01*
X146376810Y-77454822D01*
X146411757Y-77100000D01*
X152738243Y-77100000D01*
X152773190Y-77454822D01*
X152876688Y-77796008D01*
X153044759Y-78110447D01*
X153270945Y-78386055D01*
X153546553Y-78612241D01*
X153860992Y-78780312D01*
X154202178Y-78883810D01*
X154468089Y-78910000D01*
X155095911Y-78910000D01*
X155361822Y-78883810D01*
X155703008Y-78780312D01*
X156017447Y-78612241D01*
X156293055Y-78386055D01*
X156519241Y-78110447D01*
X156687312Y-77796008D01*
X156790810Y-77454822D01*
X156825757Y-77100000D01*
X156790810Y-76745178D01*
X156687312Y-76403992D01*
X156519241Y-76089553D01*
X156293055Y-75813945D01*
X156160697Y-75705321D01*
X156206482Y-75700812D01*
X156326180Y-75664502D01*
X156436494Y-75605537D01*
X156533185Y-75526185D01*
X156612537Y-75429494D01*
X156671502Y-75319180D01*
X156707812Y-75199482D01*
X156720072Y-75075000D01*
X156717000Y-74285750D01*
X156558250Y-74127000D01*
X154909000Y-74127000D01*
X154909000Y-74147000D01*
X154655000Y-74147000D01*
X154655000Y-74127000D01*
X153005750Y-74127000D01*
X152847000Y-74285750D01*
X152843928Y-75075000D01*
X152856188Y-75199482D01*
X152892498Y-75319180D01*
X152951463Y-75429494D01*
X153030815Y-75526185D01*
X153127506Y-75605537D01*
X153237820Y-75664502D01*
X153357518Y-75700812D01*
X153403303Y-75705321D01*
X153270945Y-75813945D01*
X153044759Y-76089553D01*
X152876688Y-76403992D01*
X152773190Y-76745178D01*
X152738243Y-77100000D01*
X146411757Y-77100000D01*
X146376810Y-76745178D01*
X146273312Y-76403992D01*
X146105241Y-76089553D01*
X145879055Y-75813945D01*
X145746697Y-75705321D01*
X145792482Y-75700812D01*
X145912180Y-75664502D01*
X146022494Y-75605537D01*
X146119185Y-75526185D01*
X146198537Y-75429494D01*
X146257502Y-75319180D01*
X146293812Y-75199482D01*
X146306072Y-75075000D01*
X146303000Y-74285750D01*
X146144250Y-74127000D01*
X144495000Y-74127000D01*
X144495000Y-74147000D01*
X144241000Y-74147000D01*
X144241000Y-74127000D01*
X142591750Y-74127000D01*
X142433000Y-74285750D01*
X142429928Y-75075000D01*
X142442188Y-75199482D01*
X142478498Y-75319180D01*
X142537463Y-75429494D01*
X142616815Y-75526185D01*
X142713506Y-75605537D01*
X142823820Y-75664502D01*
X142943518Y-75700812D01*
X142989303Y-75705321D01*
X142856945Y-75813945D01*
X142630759Y-76089553D01*
X142462688Y-76403992D01*
X142359190Y-76745178D01*
X142324243Y-77100000D01*
X135997757Y-77100000D01*
X135962810Y-76745178D01*
X135859312Y-76403992D01*
X135691241Y-76089553D01*
X135465055Y-75813945D01*
X135332697Y-75705321D01*
X135378482Y-75700812D01*
X135498180Y-75664502D01*
X135608494Y-75605537D01*
X135705185Y-75526185D01*
X135784537Y-75429494D01*
X135843502Y-75319180D01*
X135879812Y-75199482D01*
X135892072Y-75075000D01*
X135889000Y-74285750D01*
X135730250Y-74127000D01*
X134081000Y-74127000D01*
X134081000Y-74147000D01*
X133827000Y-74147000D01*
X133827000Y-74127000D01*
X132177750Y-74127000D01*
X132019000Y-74285750D01*
X132015928Y-75075000D01*
X132028188Y-75199482D01*
X132064498Y-75319180D01*
X132123463Y-75429494D01*
X132202815Y-75526185D01*
X132299506Y-75605537D01*
X132409820Y-75664502D01*
X132529518Y-75700812D01*
X132575303Y-75705321D01*
X132442945Y-75813945D01*
X132216759Y-76089553D01*
X132048688Y-76403992D01*
X131945190Y-76745178D01*
X131910243Y-77100000D01*
X125583757Y-77100000D01*
X125548810Y-76745178D01*
X125445312Y-76403992D01*
X125277241Y-76089553D01*
X125051055Y-75813945D01*
X124918697Y-75705321D01*
X124964482Y-75700812D01*
X125084180Y-75664502D01*
X125194494Y-75605537D01*
X125291185Y-75526185D01*
X125370537Y-75429494D01*
X125429502Y-75319180D01*
X125465812Y-75199482D01*
X125478072Y-75075000D01*
X125475000Y-74285750D01*
X125316250Y-74127000D01*
X123667000Y-74127000D01*
X123667000Y-74147000D01*
X123413000Y-74147000D01*
X123413000Y-74127000D01*
X121763750Y-74127000D01*
X121605000Y-74285750D01*
X121601928Y-75075000D01*
X121614188Y-75199482D01*
X121650498Y-75319180D01*
X121709463Y-75429494D01*
X121788815Y-75526185D01*
X121885506Y-75605537D01*
X121995820Y-75664502D01*
X122115518Y-75700812D01*
X122161303Y-75705321D01*
X122028945Y-75813945D01*
X121802759Y-76089553D01*
X121634688Y-76403992D01*
X121531190Y-76745178D01*
X121496243Y-77100000D01*
X99731757Y-77100000D01*
X99696810Y-76745178D01*
X99593312Y-76403992D01*
X99425241Y-76089553D01*
X99199055Y-75813945D01*
X99066697Y-75705321D01*
X99112482Y-75700812D01*
X99232180Y-75664502D01*
X99342494Y-75605537D01*
X99439185Y-75526185D01*
X99518537Y-75429494D01*
X99577502Y-75319180D01*
X99613812Y-75199482D01*
X99626072Y-75075000D01*
X99623000Y-74285750D01*
X99464250Y-74127000D01*
X97815000Y-74127000D01*
X97815000Y-74147000D01*
X97561000Y-74147000D01*
X97561000Y-74127000D01*
X95911750Y-74127000D01*
X95753000Y-74285750D01*
X95749928Y-75075000D01*
X95762188Y-75199482D01*
X95798498Y-75319180D01*
X95857463Y-75429494D01*
X95936815Y-75526185D01*
X96033506Y-75605537D01*
X96143820Y-75664502D01*
X96263518Y-75700812D01*
X96309303Y-75705321D01*
X96176945Y-75813945D01*
X95950759Y-76089553D01*
X95782688Y-76403992D01*
X95679190Y-76745178D01*
X95644243Y-77100000D01*
X89317757Y-77100000D01*
X89282810Y-76745178D01*
X89179312Y-76403992D01*
X89011241Y-76089553D01*
X88785055Y-75813945D01*
X88652697Y-75705321D01*
X88698482Y-75700812D01*
X88818180Y-75664502D01*
X88928494Y-75605537D01*
X89025185Y-75526185D01*
X89104537Y-75429494D01*
X89163502Y-75319180D01*
X89199812Y-75199482D01*
X89212072Y-75075000D01*
X89209000Y-74285750D01*
X89050250Y-74127000D01*
X87401000Y-74127000D01*
X87401000Y-74147000D01*
X87147000Y-74147000D01*
X87147000Y-74127000D01*
X85497750Y-74127000D01*
X85339000Y-74285750D01*
X85335928Y-75075000D01*
X85348188Y-75199482D01*
X85384498Y-75319180D01*
X85443463Y-75429494D01*
X85522815Y-75526185D01*
X85619506Y-75605537D01*
X85729820Y-75664502D01*
X85849518Y-75700812D01*
X85895303Y-75705321D01*
X85762945Y-75813945D01*
X85536759Y-76089553D01*
X85368688Y-76403992D01*
X85265190Y-76745178D01*
X85230243Y-77100000D01*
X78903757Y-77100000D01*
X78868810Y-76745178D01*
X78765312Y-76403992D01*
X78597241Y-76089553D01*
X78371055Y-75813945D01*
X78238697Y-75705321D01*
X78284482Y-75700812D01*
X78404180Y-75664502D01*
X78514494Y-75605537D01*
X78611185Y-75526185D01*
X78690537Y-75429494D01*
X78749502Y-75319180D01*
X78785812Y-75199482D01*
X78798072Y-75075000D01*
X78795000Y-74285750D01*
X78636250Y-74127000D01*
X76987000Y-74127000D01*
X76987000Y-74147000D01*
X76733000Y-74147000D01*
X76733000Y-74127000D01*
X75083750Y-74127000D01*
X74925000Y-74285750D01*
X74921928Y-75075000D01*
X74934188Y-75199482D01*
X74970498Y-75319180D01*
X75029463Y-75429494D01*
X75108815Y-75526185D01*
X75205506Y-75605537D01*
X75315820Y-75664502D01*
X75435518Y-75700812D01*
X75481303Y-75705321D01*
X75348945Y-75813945D01*
X75122759Y-76089553D01*
X74954688Y-76403992D01*
X74851190Y-76745178D01*
X74816243Y-77100000D01*
X68489757Y-77100000D01*
X68454810Y-76745178D01*
X68351312Y-76403992D01*
X68183241Y-76089553D01*
X67957055Y-75813945D01*
X67824697Y-75705321D01*
X67870482Y-75700812D01*
X67990180Y-75664502D01*
X68100494Y-75605537D01*
X68197185Y-75526185D01*
X68276537Y-75429494D01*
X68335502Y-75319180D01*
X68371812Y-75199482D01*
X68384072Y-75075000D01*
X68381000Y-74285750D01*
X68222250Y-74127000D01*
X66573000Y-74127000D01*
X66573000Y-74147000D01*
X66319000Y-74147000D01*
X66319000Y-74127000D01*
X64669750Y-74127000D01*
X64511000Y-74285750D01*
X64507928Y-75075000D01*
X64520188Y-75199482D01*
X64556498Y-75319180D01*
X64615463Y-75429494D01*
X64694815Y-75526185D01*
X64791506Y-75605537D01*
X64901820Y-75664502D01*
X65021518Y-75700812D01*
X65067303Y-75705321D01*
X64934945Y-75813945D01*
X64708759Y-76089553D01*
X64540688Y-76403992D01*
X64437190Y-76745178D01*
X64402243Y-77100000D01*
X36270000Y-77100000D01*
X36270000Y-72925000D01*
X64507928Y-72925000D01*
X64511000Y-73714250D01*
X64669750Y-73873000D01*
X66319000Y-73873000D01*
X66319000Y-72448750D01*
X66573000Y-72448750D01*
X66573000Y-73873000D01*
X68222250Y-73873000D01*
X68381000Y-73714250D01*
X68384072Y-72925000D01*
X74921928Y-72925000D01*
X74925000Y-73714250D01*
X75083750Y-73873000D01*
X76733000Y-73873000D01*
X76733000Y-72448750D01*
X76987000Y-72448750D01*
X76987000Y-73873000D01*
X78636250Y-73873000D01*
X78795000Y-73714250D01*
X78798072Y-72925000D01*
X85335928Y-72925000D01*
X85339000Y-73714250D01*
X85497750Y-73873000D01*
X87147000Y-73873000D01*
X87147000Y-72448750D01*
X87401000Y-72448750D01*
X87401000Y-73873000D01*
X89050250Y-73873000D01*
X89209000Y-73714250D01*
X89212072Y-72925000D01*
X95749928Y-72925000D01*
X95753000Y-73714250D01*
X95911750Y-73873000D01*
X97561000Y-73873000D01*
X97561000Y-72448750D01*
X97815000Y-72448750D01*
X97815000Y-73873000D01*
X99464250Y-73873000D01*
X99623000Y-73714250D01*
X99626072Y-72925000D01*
X121601928Y-72925000D01*
X121605000Y-73714250D01*
X121763750Y-73873000D01*
X123413000Y-73873000D01*
X123413000Y-72448750D01*
X123667000Y-72448750D01*
X123667000Y-73873000D01*
X125316250Y-73873000D01*
X125475000Y-73714250D01*
X125478072Y-72925000D01*
X132015928Y-72925000D01*
X132019000Y-73714250D01*
X132177750Y-73873000D01*
X133827000Y-73873000D01*
X133827000Y-72448750D01*
X134081000Y-72448750D01*
X134081000Y-73873000D01*
X135730250Y-73873000D01*
X135889000Y-73714250D01*
X135892072Y-72925000D01*
X142429928Y-72925000D01*
X142433000Y-73714250D01*
X142591750Y-73873000D01*
X144241000Y-73873000D01*
X144241000Y-72448750D01*
X144495000Y-72448750D01*
X144495000Y-73873000D01*
X146144250Y-73873000D01*
X146303000Y-73714250D01*
X146306072Y-72925000D01*
X152843928Y-72925000D01*
X152847000Y-73714250D01*
X153005750Y-73873000D01*
X154655000Y-73873000D01*
X154655000Y-72448750D01*
X154909000Y-72448750D01*
X154909000Y-73873000D01*
X156558250Y-73873000D01*
X156717000Y-73714250D01*
X156720072Y-72925000D01*
X156707812Y-72800518D01*
X156671502Y-72680820D01*
X156612537Y-72570506D01*
X156533185Y-72473815D01*
X156436494Y-72394463D01*
X156326180Y-72335498D01*
X156206482Y-72299188D01*
X156082000Y-72286928D01*
X155067750Y-72290000D01*
X154909000Y-72448750D01*
X154655000Y-72448750D01*
X154496250Y-72290000D01*
X153482000Y-72286928D01*
X153357518Y-72299188D01*
X153237820Y-72335498D01*
X153127506Y-72394463D01*
X153030815Y-72473815D01*
X152951463Y-72570506D01*
X152892498Y-72680820D01*
X152856188Y-72800518D01*
X152843928Y-72925000D01*
X146306072Y-72925000D01*
X146293812Y-72800518D01*
X146257502Y-72680820D01*
X146198537Y-72570506D01*
X146119185Y-72473815D01*
X146022494Y-72394463D01*
X145912180Y-72335498D01*
X145792482Y-72299188D01*
X145668000Y-72286928D01*
X144653750Y-72290000D01*
X144495000Y-72448750D01*
X144241000Y-72448750D01*
X144082250Y-72290000D01*
X143068000Y-72286928D01*
X142943518Y-72299188D01*
X142823820Y-72335498D01*
X142713506Y-72394463D01*
X142616815Y-72473815D01*
X142537463Y-72570506D01*
X142478498Y-72680820D01*
X142442188Y-72800518D01*
X142429928Y-72925000D01*
X135892072Y-72925000D01*
X135879812Y-72800518D01*
X135843502Y-72680820D01*
X135784537Y-72570506D01*
X135705185Y-72473815D01*
X135608494Y-72394463D01*
X135498180Y-72335498D01*
X135378482Y-72299188D01*
X135254000Y-72286928D01*
X134239750Y-72290000D01*
X134081000Y-72448750D01*
X133827000Y-72448750D01*
X133668250Y-72290000D01*
X132654000Y-72286928D01*
X132529518Y-72299188D01*
X132409820Y-72335498D01*
X132299506Y-72394463D01*
X132202815Y-72473815D01*
X132123463Y-72570506D01*
X132064498Y-72680820D01*
X132028188Y-72800518D01*
X132015928Y-72925000D01*
X125478072Y-72925000D01*
X125465812Y-72800518D01*
X125429502Y-72680820D01*
X125370537Y-72570506D01*
X125291185Y-72473815D01*
X125194494Y-72394463D01*
X125084180Y-72335498D01*
X124964482Y-72299188D01*
X124840000Y-72286928D01*
X123825750Y-72290000D01*
X123667000Y-72448750D01*
X123413000Y-72448750D01*
X123254250Y-72290000D01*
X122240000Y-72286928D01*
X122115518Y-72299188D01*
X121995820Y-72335498D01*
X121885506Y-72394463D01*
X121788815Y-72473815D01*
X121709463Y-72570506D01*
X121650498Y-72680820D01*
X121614188Y-72800518D01*
X121601928Y-72925000D01*
X99626072Y-72925000D01*
X99613812Y-72800518D01*
X99577502Y-72680820D01*
X99518537Y-72570506D01*
X99439185Y-72473815D01*
X99342494Y-72394463D01*
X99232180Y-72335498D01*
X99112482Y-72299188D01*
X98988000Y-72286928D01*
X97973750Y-72290000D01*
X97815000Y-72448750D01*
X97561000Y-72448750D01*
X97402250Y-72290000D01*
X96388000Y-72286928D01*
X96263518Y-72299188D01*
X96143820Y-72335498D01*
X96033506Y-72394463D01*
X95936815Y-72473815D01*
X95857463Y-72570506D01*
X95798498Y-72680820D01*
X95762188Y-72800518D01*
X95749928Y-72925000D01*
X89212072Y-72925000D01*
X89199812Y-72800518D01*
X89163502Y-72680820D01*
X89104537Y-72570506D01*
X89025185Y-72473815D01*
X88928494Y-72394463D01*
X88818180Y-72335498D01*
X88698482Y-72299188D01*
X88574000Y-72286928D01*
X87559750Y-72290000D01*
X87401000Y-72448750D01*
X87147000Y-72448750D01*
X86988250Y-72290000D01*
X85974000Y-72286928D01*
X85849518Y-72299188D01*
X85729820Y-72335498D01*
X85619506Y-72394463D01*
X85522815Y-72473815D01*
X85443463Y-72570506D01*
X85384498Y-72680820D01*
X85348188Y-72800518D01*
X85335928Y-72925000D01*
X78798072Y-72925000D01*
X78785812Y-72800518D01*
X78749502Y-72680820D01*
X78690537Y-72570506D01*
X78611185Y-72473815D01*
X78514494Y-72394463D01*
X78404180Y-72335498D01*
X78284482Y-72299188D01*
X78160000Y-72286928D01*
X77145750Y-72290000D01*
X76987000Y-72448750D01*
X76733000Y-72448750D01*
X76574250Y-72290000D01*
X75560000Y-72286928D01*
X75435518Y-72299188D01*
X75315820Y-72335498D01*
X75205506Y-72394463D01*
X75108815Y-72473815D01*
X75029463Y-72570506D01*
X74970498Y-72680820D01*
X74934188Y-72800518D01*
X74921928Y-72925000D01*
X68384072Y-72925000D01*
X68371812Y-72800518D01*
X68335502Y-72680820D01*
X68276537Y-72570506D01*
X68197185Y-72473815D01*
X68100494Y-72394463D01*
X67990180Y-72335498D01*
X67870482Y-72299188D01*
X67746000Y-72286928D01*
X66731750Y-72290000D01*
X66573000Y-72448750D01*
X66319000Y-72448750D01*
X66160250Y-72290000D01*
X65146000Y-72286928D01*
X65021518Y-72299188D01*
X64901820Y-72335498D01*
X64791506Y-72394463D01*
X64694815Y-72473815D01*
X64615463Y-72570506D01*
X64556498Y-72680820D01*
X64520188Y-72800518D01*
X64507928Y-72925000D01*
X36270000Y-72925000D01*
X36270000Y-71032000D01*
X185201928Y-71032000D01*
X185201928Y-72732000D01*
X185214188Y-72856482D01*
X185250498Y-72976180D01*
X185309463Y-73086494D01*
X185388815Y-73183185D01*
X185485506Y-73262537D01*
X185595820Y-73321502D01*
X185715518Y-73357812D01*
X185840000Y-73370072D01*
X187540000Y-73370072D01*
X187664482Y-73357812D01*
X187784180Y-73321502D01*
X187894494Y-73262537D01*
X187991185Y-73183185D01*
X188070537Y-73086494D01*
X188129502Y-72976180D01*
X188165812Y-72856482D01*
X188178072Y-72732000D01*
X188178072Y-71032000D01*
X188165812Y-70907518D01*
X188129502Y-70787820D01*
X188070537Y-70677506D01*
X187991185Y-70580815D01*
X187894494Y-70501463D01*
X187784180Y-70442498D01*
X187703534Y-70418034D01*
X187787588Y-70342269D01*
X187961641Y-70108920D01*
X188086825Y-69846099D01*
X188131476Y-69698890D01*
X188010155Y-69469000D01*
X186817000Y-69469000D01*
X186817000Y-69489000D01*
X186563000Y-69489000D01*
X186563000Y-69469000D01*
X185369845Y-69469000D01*
X185248524Y-69698890D01*
X185293175Y-69846099D01*
X185418359Y-70108920D01*
X185592412Y-70342269D01*
X185676466Y-70418034D01*
X185595820Y-70442498D01*
X185485506Y-70501463D01*
X185388815Y-70580815D01*
X185309463Y-70677506D01*
X185250498Y-70787820D01*
X185214188Y-70907518D01*
X185201928Y-71032000D01*
X36270000Y-71032000D01*
X36270000Y-67170495D01*
X64461000Y-67170495D01*
X64461000Y-67561505D01*
X64537282Y-67945003D01*
X64686915Y-68306250D01*
X64904149Y-68631364D01*
X65180636Y-68907851D01*
X65505750Y-69125085D01*
X65866997Y-69274718D01*
X66250495Y-69351000D01*
X66641505Y-69351000D01*
X67025003Y-69274718D01*
X67386250Y-69125085D01*
X67711364Y-68907851D01*
X67987851Y-68631364D01*
X68205085Y-68306250D01*
X68354718Y-67945003D01*
X68431000Y-67561505D01*
X68431000Y-67170495D01*
X74875000Y-67170495D01*
X74875000Y-67561505D01*
X74951282Y-67945003D01*
X75100915Y-68306250D01*
X75318149Y-68631364D01*
X75594636Y-68907851D01*
X75919750Y-69125085D01*
X76280997Y-69274718D01*
X76664495Y-69351000D01*
X77055505Y-69351000D01*
X77439003Y-69274718D01*
X77800250Y-69125085D01*
X78125364Y-68907851D01*
X78401851Y-68631364D01*
X78619085Y-68306250D01*
X78768718Y-67945003D01*
X78845000Y-67561505D01*
X78845000Y-67170495D01*
X85289000Y-67170495D01*
X85289000Y-67561505D01*
X85365282Y-67945003D01*
X85514915Y-68306250D01*
X85732149Y-68631364D01*
X86008636Y-68907851D01*
X86333750Y-69125085D01*
X86694997Y-69274718D01*
X87078495Y-69351000D01*
X87469505Y-69351000D01*
X87853003Y-69274718D01*
X88214250Y-69125085D01*
X88539364Y-68907851D01*
X88815851Y-68631364D01*
X89033085Y-68306250D01*
X89182718Y-67945003D01*
X89259000Y-67561505D01*
X89259000Y-67170495D01*
X89182718Y-66786997D01*
X89033085Y-66425750D01*
X88815851Y-66100636D01*
X88539364Y-65824149D01*
X88214250Y-65606915D01*
X87853003Y-65457282D01*
X87469505Y-65381000D01*
X87078495Y-65381000D01*
X86694997Y-65457282D01*
X86333750Y-65606915D01*
X86008636Y-65824149D01*
X85732149Y-66100636D01*
X85514915Y-66425750D01*
X85365282Y-66786997D01*
X85289000Y-67170495D01*
X78845000Y-67170495D01*
X78768718Y-66786997D01*
X78619085Y-66425750D01*
X78401851Y-66100636D01*
X78125364Y-65824149D01*
X77800250Y-65606915D01*
X77439003Y-65457282D01*
X77055505Y-65381000D01*
X76664495Y-65381000D01*
X76280997Y-65457282D01*
X75919750Y-65606915D01*
X75594636Y-65824149D01*
X75318149Y-66100636D01*
X75100915Y-66425750D01*
X74951282Y-66786997D01*
X74875000Y-67170495D01*
X68431000Y-67170495D01*
X68354718Y-66786997D01*
X68205085Y-66425750D01*
X67987851Y-66100636D01*
X67711364Y-65824149D01*
X67386250Y-65606915D01*
X67025003Y-65457282D01*
X66641505Y-65381000D01*
X66250495Y-65381000D01*
X65866997Y-65457282D01*
X65505750Y-65606915D01*
X65180636Y-65824149D01*
X64904149Y-66100636D01*
X64686915Y-66425750D01*
X64537282Y-66786997D01*
X64461000Y-67170495D01*
X36270000Y-67170495D01*
X36270000Y-62898061D01*
X82765000Y-62898061D01*
X82765000Y-63101939D01*
X82804774Y-63301898D01*
X82882795Y-63490256D01*
X82996063Y-63659774D01*
X83140226Y-63803937D01*
X83309744Y-63917205D01*
X83498102Y-63995226D01*
X83698061Y-64035000D01*
X83901939Y-64035000D01*
X84101898Y-63995226D01*
X84290256Y-63917205D01*
X84459774Y-63803937D01*
X84503711Y-63760000D01*
X93007199Y-63760000D01*
X95853944Y-66606746D01*
X95779282Y-66786997D01*
X95703000Y-67170495D01*
X95703000Y-67561505D01*
X95779282Y-67945003D01*
X95928915Y-68306250D01*
X96146149Y-68631364D01*
X96422636Y-68907851D01*
X96747750Y-69125085D01*
X97108997Y-69274718D01*
X97492495Y-69351000D01*
X97883505Y-69351000D01*
X98267003Y-69274718D01*
X98628250Y-69125085D01*
X98953364Y-68907851D01*
X99229851Y-68631364D01*
X99447085Y-68306250D01*
X99596718Y-67945003D01*
X99673000Y-67561505D01*
X99673000Y-67170495D01*
X99596718Y-66786997D01*
X99447085Y-66425750D01*
X99229851Y-66100636D01*
X98953364Y-65824149D01*
X98628250Y-65606915D01*
X98267003Y-65457282D01*
X97883505Y-65381000D01*
X97492495Y-65381000D01*
X97108997Y-65457282D01*
X96928746Y-65531944D01*
X93885804Y-62489003D01*
X93862001Y-62459999D01*
X93746276Y-62365026D01*
X93614247Y-62294454D01*
X93470986Y-62250997D01*
X93359333Y-62240000D01*
X93359322Y-62240000D01*
X93322000Y-62236324D01*
X93284678Y-62240000D01*
X84503711Y-62240000D01*
X84459774Y-62196063D01*
X84290256Y-62082795D01*
X84101898Y-62004774D01*
X83901939Y-61965000D01*
X83698061Y-61965000D01*
X83498102Y-62004774D01*
X83309744Y-62082795D01*
X83140226Y-62196063D01*
X82996063Y-62340226D01*
X82882795Y-62509744D01*
X82804774Y-62698102D01*
X82765000Y-62898061D01*
X36270000Y-62898061D01*
X36270000Y-59066000D01*
X64402243Y-59066000D01*
X64437190Y-59420822D01*
X64540688Y-59762008D01*
X64708759Y-60076447D01*
X64934945Y-60352055D01*
X65210553Y-60578241D01*
X65524992Y-60746312D01*
X65866178Y-60849810D01*
X66132089Y-60876000D01*
X66759911Y-60876000D01*
X67025822Y-60849810D01*
X67367008Y-60746312D01*
X67681447Y-60578241D01*
X67957055Y-60352055D01*
X68183241Y-60076447D01*
X68351312Y-59762008D01*
X68454810Y-59420822D01*
X68489757Y-59066000D01*
X68454810Y-58711178D01*
X68351312Y-58369992D01*
X68183241Y-58055553D01*
X67957055Y-57779945D01*
X67824697Y-57671321D01*
X67870482Y-57666812D01*
X67990180Y-57630502D01*
X68100494Y-57571537D01*
X68197185Y-57492185D01*
X68276537Y-57395494D01*
X68335502Y-57285180D01*
X68371812Y-57165482D01*
X68384072Y-57041000D01*
X68381000Y-56251750D01*
X68222250Y-56093000D01*
X66573000Y-56093000D01*
X66573000Y-56113000D01*
X66319000Y-56113000D01*
X66319000Y-56093000D01*
X64669750Y-56093000D01*
X64511000Y-56251750D01*
X64507928Y-57041000D01*
X64520188Y-57165482D01*
X64556498Y-57285180D01*
X64615463Y-57395494D01*
X64694815Y-57492185D01*
X64791506Y-57571537D01*
X64901820Y-57630502D01*
X65021518Y-57666812D01*
X65067303Y-57671321D01*
X64934945Y-57779945D01*
X64708759Y-58055553D01*
X64540688Y-58369992D01*
X64437190Y-58711178D01*
X64402243Y-59066000D01*
X36270000Y-59066000D01*
X36270000Y-54891000D01*
X64507928Y-54891000D01*
X64511000Y-55680250D01*
X64669750Y-55839000D01*
X66319000Y-55839000D01*
X66319000Y-54414750D01*
X66573000Y-54414750D01*
X66573000Y-55839000D01*
X68222250Y-55839000D01*
X68381000Y-55680250D01*
X68384072Y-54891000D01*
X74921928Y-54891000D01*
X74925000Y-55680250D01*
X75083750Y-55839000D01*
X76733000Y-55839000D01*
X76733000Y-54414750D01*
X76574250Y-54256000D01*
X75560000Y-54252928D01*
X75435518Y-54265188D01*
X75315820Y-54301498D01*
X75205506Y-54360463D01*
X75108815Y-54439815D01*
X75029463Y-54536506D01*
X74970498Y-54646820D01*
X74934188Y-54766518D01*
X74921928Y-54891000D01*
X68384072Y-54891000D01*
X68371812Y-54766518D01*
X68335502Y-54646820D01*
X68276537Y-54536506D01*
X68197185Y-54439815D01*
X68100494Y-54360463D01*
X67990180Y-54301498D01*
X67870482Y-54265188D01*
X67746000Y-54252928D01*
X66731750Y-54256000D01*
X66573000Y-54414750D01*
X66319000Y-54414750D01*
X66160250Y-54256000D01*
X65146000Y-54252928D01*
X65021518Y-54265188D01*
X64901820Y-54301498D01*
X64791506Y-54360463D01*
X64694815Y-54439815D01*
X64615463Y-54536506D01*
X64556498Y-54646820D01*
X64520188Y-54766518D01*
X64507928Y-54891000D01*
X36270000Y-54891000D01*
X36270000Y-33083560D01*
X36609554Y-33423114D01*
X37123021Y-33766201D01*
X37693554Y-34002524D01*
X38299229Y-34123000D01*
X38916771Y-34123000D01*
X39522446Y-34002524D01*
X40092979Y-33766201D01*
X40606446Y-33423114D01*
X41043114Y-32986446D01*
X41386201Y-32472979D01*
X41622524Y-31902446D01*
X41743000Y-31296771D01*
X41743000Y-30679229D01*
X41622524Y-30073554D01*
X41386201Y-29503021D01*
X41043114Y-28989554D01*
X40703560Y-28650000D01*
X66537883Y-28650000D01*
X66473751Y-28669454D01*
G37*
X66473751Y-28669454D02*
X66341722Y-28740026D01*
X66225997Y-28834999D01*
X66202199Y-28863997D01*
X63446492Y-31619705D01*
X63243411Y-31484010D01*
X62973158Y-31372068D01*
X62686260Y-31315000D01*
X62393740Y-31315000D01*
X62106842Y-31372068D01*
X61836589Y-31484010D01*
X61593368Y-31646525D01*
X61386525Y-31853368D01*
X61224010Y-32096589D01*
X61112068Y-32366842D01*
X61055000Y-32653740D01*
X61055000Y-32946260D01*
X61112068Y-33233158D01*
X61224010Y-33503411D01*
X61386525Y-33746632D01*
X61593368Y-33953475D01*
X61767760Y-34070000D01*
X61593368Y-34186525D01*
X61386525Y-34393368D01*
X61224010Y-34636589D01*
X61112068Y-34906842D01*
X61055000Y-35193740D01*
X61055000Y-35486260D01*
X61112068Y-35773158D01*
X61224010Y-36043411D01*
X61386525Y-36286632D01*
X61593368Y-36493475D01*
X61836589Y-36655990D01*
X62106842Y-36767932D01*
X62393740Y-36825000D01*
X62686260Y-36825000D01*
X62973158Y-36767932D01*
X63243411Y-36655990D01*
X63486632Y-36493475D01*
X63693475Y-36286632D01*
X63810000Y-36112240D01*
X63926525Y-36286632D01*
X64133368Y-36493475D01*
X64376589Y-36655990D01*
X64646842Y-36767932D01*
X64933740Y-36825000D01*
X65226260Y-36825000D01*
X65513158Y-36767932D01*
X65783411Y-36655990D01*
X66026632Y-36493475D01*
X66233475Y-36286632D01*
X66350000Y-36112240D01*
X66466525Y-36286632D01*
X66673368Y-36493475D01*
X66916589Y-36655990D01*
X67186842Y-36767932D01*
X67473740Y-36825000D01*
X67766260Y-36825000D01*
X68053158Y-36767932D01*
X68323411Y-36655990D01*
X68566632Y-36493475D01*
X68773475Y-36286632D01*
X68895195Y-36104466D01*
X68964822Y-36221355D01*
X69159731Y-36437588D01*
X69393080Y-36611641D01*
X69655901Y-36736825D01*
X69803110Y-36781476D01*
X70033000Y-36660155D01*
X70033000Y-35467000D01*
X70013000Y-35467000D01*
X70013000Y-35213000D01*
X70033000Y-35213000D01*
X70033000Y-35193000D01*
X70287000Y-35193000D01*
X70287000Y-35213000D01*
X70307000Y-35213000D01*
X70307000Y-35467000D01*
X70287000Y-35467000D01*
X70287000Y-36660155D01*
X70516890Y-36781476D01*
X70664099Y-36736825D01*
X70764999Y-36688765D01*
X70765000Y-47545667D01*
X70761323Y-47582999D01*
X70765000Y-47620332D01*
X70767441Y-47645115D01*
X70656260Y-47623000D01*
X70363740Y-47623000D01*
X70076842Y-47680068D01*
X69806589Y-47792010D01*
X69563368Y-47954525D01*
X69356525Y-48161368D01*
X69240000Y-48335760D01*
X69123475Y-48161368D01*
X68916632Y-47954525D01*
X68673411Y-47792010D01*
X68403158Y-47680068D01*
X68116260Y-47623000D01*
X67823740Y-47623000D01*
X67536842Y-47680068D01*
X67266589Y-47792010D01*
X67023368Y-47954525D01*
X66816525Y-48161368D01*
X66700000Y-48335760D01*
X66583475Y-48161368D01*
X66376632Y-47954525D01*
X66133411Y-47792010D01*
X65863158Y-47680068D01*
X65576260Y-47623000D01*
X65283740Y-47623000D01*
X64996842Y-47680068D01*
X64726589Y-47792010D01*
X64483368Y-47954525D01*
X64351513Y-48086380D01*
X64329502Y-48013820D01*
X64270537Y-47903506D01*
X64191185Y-47806815D01*
X64094494Y-47727463D01*
X63984180Y-47668498D01*
X63864482Y-47632188D01*
X63740000Y-47619928D01*
X62040000Y-47619928D01*
X61915518Y-47632188D01*
X61795820Y-47668498D01*
X61685506Y-47727463D01*
X61588815Y-47806815D01*
X61509463Y-47903506D01*
X61450498Y-48013820D01*
X61414188Y-48133518D01*
X61401928Y-48258000D01*
X61401928Y-49958000D01*
X61414188Y-50082482D01*
X61450498Y-50202180D01*
X61509463Y-50312494D01*
X61588815Y-50409185D01*
X61685506Y-50488537D01*
X61795820Y-50547502D01*
X61915518Y-50583812D01*
X62040000Y-50596072D01*
X63740000Y-50596072D01*
X63864482Y-50583812D01*
X63984180Y-50547502D01*
X64094494Y-50488537D01*
X64191185Y-50409185D01*
X64270537Y-50312494D01*
X64329502Y-50202180D01*
X64351513Y-50129620D01*
X64483368Y-50261475D01*
X64726589Y-50423990D01*
X64996842Y-50535932D01*
X65283740Y-50593000D01*
X65576260Y-50593000D01*
X65796408Y-50549209D01*
X69158200Y-53911002D01*
X69181999Y-53940001D01*
X69252268Y-53997669D01*
X69297724Y-54034974D01*
X69429753Y-54105546D01*
X69573014Y-54149003D01*
X69722000Y-54163677D01*
X69759333Y-54160000D01*
X76939201Y-54160000D01*
X77090475Y-54311275D01*
X76987000Y-54414750D01*
X76987000Y-55839000D01*
X77007000Y-55839000D01*
X77007000Y-56093000D01*
X76987000Y-56093000D01*
X76987000Y-56113000D01*
X76733000Y-56113000D01*
X76733000Y-56093000D01*
X75083750Y-56093000D01*
X74925000Y-56251750D01*
X74921928Y-57041000D01*
X74934188Y-57165482D01*
X74970498Y-57285180D01*
X75029463Y-57395494D01*
X75108815Y-57492185D01*
X75205506Y-57571537D01*
X75315820Y-57630502D01*
X75435518Y-57666812D01*
X75481303Y-57671321D01*
X75348945Y-57779945D01*
X75122759Y-58055553D01*
X74954688Y-58369992D01*
X74851190Y-58711178D01*
X74816243Y-59066000D01*
X74851190Y-59420822D01*
X74954688Y-59762008D01*
X75122759Y-60076447D01*
X75348945Y-60352055D01*
X75624553Y-60578241D01*
X75938992Y-60746312D01*
X76280178Y-60849810D01*
X76546089Y-60876000D01*
X77173911Y-60876000D01*
X77439822Y-60849810D01*
X77781008Y-60746312D01*
X78095447Y-60578241D01*
X78371055Y-60352055D01*
X78597241Y-60076447D01*
X78765312Y-59762008D01*
X78868810Y-59420822D01*
X78903757Y-59066000D01*
X78868810Y-58711178D01*
X78765312Y-58369992D01*
X78718462Y-58282341D01*
X78996010Y-58004793D01*
X79025002Y-57981000D01*
X79048796Y-57952007D01*
X79048800Y-57952003D01*
X79119974Y-57865276D01*
X79119975Y-57865275D01*
X79190547Y-57733246D01*
X79234004Y-57589985D01*
X79245001Y-57478332D01*
X79245001Y-57478323D01*
X79248677Y-57441000D01*
X79245001Y-57403677D01*
X79245001Y-55829390D01*
X82992613Y-59577003D01*
X83016411Y-59606001D01*
X83132136Y-59700974D01*
X83264165Y-59771546D01*
X83407426Y-59815003D01*
X83519079Y-59826000D01*
X83519088Y-59826000D01*
X83556411Y-59829676D01*
X83593734Y-59826000D01*
X85402892Y-59826000D01*
X85536759Y-60076447D01*
X85762945Y-60352055D01*
X86038553Y-60578241D01*
X86352992Y-60746312D01*
X86694178Y-60849810D01*
X86960089Y-60876000D01*
X87587911Y-60876000D01*
X87853822Y-60849810D01*
X88195008Y-60746312D01*
X88509447Y-60578241D01*
X88785055Y-60352055D01*
X89011241Y-60076447D01*
X89179312Y-59762008D01*
X89282810Y-59420822D01*
X89317757Y-59066000D01*
X89282810Y-58711178D01*
X89179312Y-58369992D01*
X89155792Y-58325990D01*
X95806208Y-58325990D01*
X95782688Y-58369992D01*
X95679190Y-58711178D01*
X95644243Y-59066000D01*
X95679190Y-59420822D01*
X95782688Y-59762008D01*
X95950759Y-60076447D01*
X96176945Y-60352055D01*
X96452553Y-60578241D01*
X96766992Y-60746312D01*
X97108178Y-60849810D01*
X97374089Y-60876000D01*
X98001911Y-60876000D01*
X98267822Y-60849810D01*
X98609008Y-60746312D01*
X98923447Y-60578241D01*
X99199055Y-60352055D01*
X99425241Y-60076447D01*
X99593312Y-59762008D01*
X99696810Y-59420822D01*
X99731757Y-59066000D01*
X99696810Y-58711178D01*
X99593312Y-58369992D01*
X99425241Y-58055553D01*
X99199055Y-57779945D01*
X99066697Y-57671321D01*
X99112482Y-57666812D01*
X99232180Y-57630502D01*
X99342494Y-57571537D01*
X99439185Y-57492185D01*
X99518537Y-57395494D01*
X99577502Y-57285180D01*
X99613812Y-57165482D01*
X99626072Y-57041000D01*
X99623000Y-56251750D01*
X99464250Y-56093000D01*
X97815000Y-56093000D01*
X97815000Y-56113000D01*
X97561000Y-56113000D01*
X97561000Y-56093000D01*
X95911750Y-56093000D01*
X95753000Y-56251750D01*
X95750843Y-56805990D01*
X89211157Y-56805990D01*
X89209000Y-56251750D01*
X89050250Y-56093000D01*
X87401000Y-56093000D01*
X87401000Y-56113000D01*
X87147000Y-56113000D01*
X87147000Y-56093000D01*
X85497750Y-56093000D01*
X85339000Y-56251750D01*
X85336843Y-56805990D01*
X83007614Y-56805990D01*
X81092624Y-54891000D01*
X85335928Y-54891000D01*
X85339000Y-55680250D01*
X85497750Y-55839000D01*
X87147000Y-55839000D01*
X87147000Y-54414750D01*
X87401000Y-54414750D01*
X87401000Y-55839000D01*
X89050250Y-55839000D01*
X89209000Y-55680250D01*
X89212072Y-54891000D01*
X95749928Y-54891000D01*
X95753000Y-55680250D01*
X95911750Y-55839000D01*
X97561000Y-55839000D01*
X97561000Y-54414750D01*
X97815000Y-54414750D01*
X97815000Y-55839000D01*
X99464250Y-55839000D01*
X99623000Y-55680250D01*
X99626072Y-54891000D01*
X99613812Y-54766518D01*
X99577502Y-54646820D01*
X99518537Y-54536506D01*
X99439185Y-54439815D01*
X99342494Y-54360463D01*
X99232180Y-54301498D01*
X99112482Y-54265188D01*
X98988000Y-54252928D01*
X97973750Y-54256000D01*
X97815000Y-54414750D01*
X97561000Y-54414750D01*
X97402250Y-54256000D01*
X96388000Y-54252928D01*
X96263518Y-54265188D01*
X96143820Y-54301498D01*
X96033506Y-54360463D01*
X95936815Y-54439815D01*
X95857463Y-54536506D01*
X95798498Y-54646820D01*
X95762188Y-54766518D01*
X95749928Y-54891000D01*
X89212072Y-54891000D01*
X89199812Y-54766518D01*
X89163502Y-54646820D01*
X89104537Y-54536506D01*
X89025185Y-54439815D01*
X88928494Y-54360463D01*
X88818180Y-54301498D01*
X88698482Y-54265188D01*
X88574000Y-54252928D01*
X87559750Y-54256000D01*
X87401000Y-54414750D01*
X87147000Y-54414750D01*
X86988250Y-54256000D01*
X85974000Y-54252928D01*
X85849518Y-54265188D01*
X85729820Y-54301498D01*
X85619506Y-54360463D01*
X85522815Y-54439815D01*
X85443463Y-54536506D01*
X85384498Y-54646820D01*
X85348188Y-54766518D01*
X85335928Y-54891000D01*
X81092624Y-54891000D01*
X78040616Y-51838993D01*
X78016813Y-51809989D01*
X77901088Y-51715016D01*
X77769059Y-51644444D01*
X77625798Y-51600987D01*
X77514145Y-51589990D01*
X77514134Y-51589990D01*
X77476812Y-51586314D01*
X77439490Y-51589990D01*
X74066792Y-51589990D01*
X73069802Y-50593000D01*
X73196260Y-50593000D01*
X73483158Y-50535932D01*
X73753411Y-50423990D01*
X73996632Y-50261475D01*
X74203475Y-50054632D01*
X74320000Y-49880240D01*
X74436525Y-50054632D01*
X74643368Y-50261475D01*
X74886589Y-50423990D01*
X75156842Y-50535932D01*
X75443740Y-50593000D01*
X75736260Y-50593000D01*
X76023158Y-50535932D01*
X76293411Y-50423990D01*
X76536632Y-50261475D01*
X76743475Y-50054632D01*
X76860000Y-49880240D01*
X76976525Y-50054632D01*
X77183368Y-50261475D01*
X77426589Y-50423990D01*
X77696842Y-50535932D01*
X77983740Y-50593000D01*
X78276260Y-50593000D01*
X78563158Y-50535932D01*
X78833411Y-50423990D01*
X79076632Y-50261475D01*
X79283475Y-50054632D01*
X79400000Y-49880240D01*
X79516525Y-50054632D01*
X79723368Y-50261475D01*
X79966589Y-50423990D01*
X80236842Y-50535932D01*
X80523740Y-50593000D01*
X80816260Y-50593000D01*
X81103158Y-50535932D01*
X81373411Y-50423990D01*
X81616632Y-50261475D01*
X81823475Y-50054632D01*
X81985990Y-49811411D01*
X82097932Y-49541158D01*
X82155000Y-49254260D01*
X82155000Y-48961740D01*
X82097932Y-48674842D01*
X81985990Y-48404589D01*
X81888043Y-48258000D01*
X85023928Y-48258000D01*
X85023928Y-49958000D01*
X85036188Y-50082482D01*
X85072498Y-50202180D01*
X85131463Y-50312494D01*
X85210815Y-50409185D01*
X85307506Y-50488537D01*
X85417820Y-50547502D01*
X85537518Y-50583812D01*
X85662000Y-50596072D01*
X87362000Y-50596072D01*
X87486482Y-50583812D01*
X87606180Y-50547502D01*
X87716494Y-50488537D01*
X87813185Y-50409185D01*
X87892537Y-50312494D01*
X87951502Y-50202180D01*
X87973513Y-50129620D01*
X88105368Y-50261475D01*
X88348589Y-50423990D01*
X88618842Y-50535932D01*
X88905740Y-50593000D01*
X89198260Y-50593000D01*
X89485158Y-50535932D01*
X89755411Y-50423990D01*
X89998632Y-50261475D01*
X90205475Y-50054632D01*
X90322000Y-49880240D01*
X90438525Y-50054632D01*
X90645368Y-50261475D01*
X90888589Y-50423990D01*
X91158842Y-50535932D01*
X91445740Y-50593000D01*
X91738260Y-50593000D01*
X92025158Y-50535932D01*
X92295411Y-50423990D01*
X92538632Y-50261475D01*
X92745475Y-50054632D01*
X92862000Y-49880240D01*
X92978525Y-50054632D01*
X93185368Y-50261475D01*
X93428589Y-50423990D01*
X93698842Y-50535932D01*
X93985740Y-50593000D01*
X94278260Y-50593000D01*
X94565158Y-50535932D01*
X94835411Y-50423990D01*
X95078632Y-50261475D01*
X95285475Y-50054632D01*
X95447990Y-49811411D01*
X95559932Y-49541158D01*
X95617000Y-49254260D01*
X95617000Y-48961740D01*
X95559932Y-48674842D01*
X95447990Y-48404589D01*
X95285475Y-48161368D01*
X95078632Y-47954525D01*
X94835411Y-47792010D01*
X94565158Y-47680068D01*
X94278260Y-47623000D01*
X93985740Y-47623000D01*
X93698842Y-47680068D01*
X93428589Y-47792010D01*
X93185368Y-47954525D01*
X92978525Y-48161368D01*
X92862000Y-48335760D01*
X92745475Y-48161368D01*
X92538632Y-47954525D01*
X92295411Y-47792010D01*
X92025158Y-47680068D01*
X91738260Y-47623000D01*
X91445740Y-47623000D01*
X91158842Y-47680068D01*
X90888589Y-47792010D01*
X90645368Y-47954525D01*
X90438525Y-48161368D01*
X90322000Y-48335760D01*
X90205475Y-48161368D01*
X89998632Y-47954525D01*
X89755411Y-47792010D01*
X89485158Y-47680068D01*
X89198260Y-47623000D01*
X88905740Y-47623000D01*
X88618842Y-47680068D01*
X88348589Y-47792010D01*
X88105368Y-47954525D01*
X87973513Y-48086380D01*
X87951502Y-48013820D01*
X87892537Y-47903506D01*
X87813185Y-47806815D01*
X87716494Y-47727463D01*
X87606180Y-47668498D01*
X87486482Y-47632188D01*
X87362000Y-47619928D01*
X85662000Y-47619928D01*
X85537518Y-47632188D01*
X85417820Y-47668498D01*
X85307506Y-47727463D01*
X85210815Y-47806815D01*
X85131463Y-47903506D01*
X85072498Y-48013820D01*
X85036188Y-48133518D01*
X85023928Y-48258000D01*
X81888043Y-48258000D01*
X81823475Y-48161368D01*
X81616632Y-47954525D01*
X81373411Y-47792010D01*
X81103158Y-47680068D01*
X80816260Y-47623000D01*
X80523740Y-47623000D01*
X80236842Y-47680068D01*
X79966589Y-47792010D01*
X79723368Y-47954525D01*
X79516525Y-48161368D01*
X79400000Y-48335760D01*
X79283475Y-48161368D01*
X79076632Y-47954525D01*
X78833411Y-47792010D01*
X78563158Y-47680068D01*
X78276260Y-47623000D01*
X77983740Y-47623000D01*
X77696842Y-47680068D01*
X77426589Y-47792010D01*
X77183368Y-47954525D01*
X76976525Y-48161368D01*
X76860000Y-48335760D01*
X76743475Y-48161368D01*
X76536632Y-47954525D01*
X76293411Y-47792010D01*
X76023158Y-47680068D01*
X75736260Y-47623000D01*
X75443740Y-47623000D01*
X75156842Y-47680068D01*
X74886589Y-47792010D01*
X74643368Y-47954525D01*
X74436525Y-48161368D01*
X74320000Y-48335760D01*
X74203475Y-48161368D01*
X73996632Y-47954525D01*
X73753411Y-47792010D01*
X73483158Y-47680068D01*
X73196260Y-47623000D01*
X72903740Y-47623000D01*
X72683592Y-47666791D01*
X72284999Y-47268198D01*
X72284999Y-36771544D01*
X72553740Y-36825000D01*
X72846260Y-36825000D01*
X73066408Y-36781209D01*
X82421246Y-46136049D01*
X82445040Y-46165042D01*
X82474033Y-46188836D01*
X82474037Y-46188840D01*
X82518149Y-46225041D01*
X82560765Y-46260015D01*
X82692794Y-46330587D01*
X82836055Y-46374044D01*
X82947708Y-46385041D01*
X82947717Y-46385041D01*
X82985040Y-46388717D01*
X83022363Y-46385041D01*
X96707112Y-46385041D01*
X104313436Y-53991366D01*
X104313436Y-54053503D01*
X104353210Y-54253462D01*
X104431231Y-54441820D01*
X104544499Y-54611338D01*
X104688662Y-54755501D01*
X104858180Y-54868769D01*
X105046538Y-54946790D01*
X105246497Y-54986564D01*
X105450375Y-54986564D01*
X105650334Y-54946790D01*
X105838692Y-54868769D01*
X106008210Y-54755501D01*
X106055544Y-54708167D01*
X121799400Y-70452024D01*
X121823198Y-70481022D01*
X121852196Y-70504820D01*
X121938922Y-70575995D01*
X121947940Y-70580815D01*
X122070952Y-70646567D01*
X122214213Y-70690024D01*
X122325866Y-70701021D01*
X122325876Y-70701021D01*
X122363199Y-70704697D01*
X122400522Y-70701021D01*
X152169657Y-70701021D01*
X152206979Y-70704697D01*
X152244301Y-70701021D01*
X152244312Y-70701021D01*
X152355965Y-70690024D01*
X152499226Y-70646567D01*
X152631255Y-70575995D01*
X152746980Y-70481022D01*
X152770783Y-70452018D01*
X154022746Y-69200056D01*
X154202997Y-69274718D01*
X154586495Y-69351000D01*
X154977505Y-69351000D01*
X155361003Y-69274718D01*
X155722250Y-69125085D01*
X156047364Y-68907851D01*
X156323851Y-68631364D01*
X156541085Y-68306250D01*
X156690718Y-67945003D01*
X156767000Y-67561505D01*
X156767000Y-67170495D01*
X156690718Y-66786997D01*
X156541085Y-66425750D01*
X156323851Y-66100636D01*
X156047364Y-65824149D01*
X155722250Y-65606915D01*
X155361003Y-65457282D01*
X154977505Y-65381000D01*
X154586495Y-65381000D01*
X154202997Y-65457282D01*
X153841750Y-65606915D01*
X153516636Y-65824149D01*
X153240149Y-66100636D01*
X153022915Y-66425750D01*
X152873282Y-66786997D01*
X152797000Y-67170495D01*
X152797000Y-67561505D01*
X152873282Y-67945003D01*
X152947944Y-68125254D01*
X151892178Y-69181021D01*
X145173208Y-69181021D01*
X145308250Y-69125085D01*
X145633364Y-68907851D01*
X145909851Y-68631364D01*
X146127085Y-68306250D01*
X146276718Y-67945003D01*
X146353000Y-67561505D01*
X146353000Y-67170495D01*
X146276718Y-66786997D01*
X146127085Y-66425750D01*
X145909851Y-66100636D01*
X145633364Y-65824149D01*
X145308250Y-65606915D01*
X144947003Y-65457282D01*
X144563505Y-65381000D01*
X144172495Y-65381000D01*
X143788997Y-65457282D01*
X143427750Y-65606915D01*
X143102636Y-65824149D01*
X142826149Y-66100636D01*
X142608915Y-66425750D01*
X142459282Y-66786997D01*
X142383000Y-67170495D01*
X142383000Y-67561505D01*
X142459282Y-67945003D01*
X142533944Y-68125254D01*
X141928188Y-68731011D01*
X135396204Y-68731011D01*
X135495851Y-68631364D01*
X135713085Y-68306250D01*
X135862718Y-67945003D01*
X135939000Y-67561505D01*
X135939000Y-67170495D01*
X135862718Y-66786997D01*
X135713085Y-66425750D01*
X135495851Y-66100636D01*
X135219364Y-65824149D01*
X134894250Y-65606915D01*
X134533003Y-65457282D01*
X134149505Y-65381000D01*
X133758495Y-65381000D01*
X133374997Y-65457282D01*
X133013750Y-65606915D01*
X132688636Y-65824149D01*
X132412149Y-66100636D01*
X132194915Y-66425750D01*
X132045282Y-66786997D01*
X131969000Y-67170495D01*
X131969000Y-67561505D01*
X132045282Y-67945003D01*
X132119944Y-68125254D01*
X131964198Y-68281001D01*
X125309543Y-68281001D01*
X125448718Y-67945003D01*
X125525000Y-67561505D01*
X125525000Y-67170495D01*
X125448718Y-66786997D01*
X125299085Y-66425750D01*
X125081851Y-66100636D01*
X124805364Y-65824149D01*
X124480250Y-65606915D01*
X124119003Y-65457282D01*
X123735505Y-65381000D01*
X123344495Y-65381000D01*
X122960997Y-65457282D01*
X122780746Y-65531944D01*
X112139802Y-54891000D01*
X121601928Y-54891000D01*
X121605000Y-55680250D01*
X121763750Y-55839000D01*
X123413000Y-55839000D01*
X123413000Y-54414750D01*
X123254250Y-54256000D01*
X122240000Y-54252928D01*
X122115518Y-54265188D01*
X121995820Y-54301498D01*
X121885506Y-54360463D01*
X121788815Y-54439815D01*
X121709463Y-54536506D01*
X121650498Y-54646820D01*
X121614188Y-54766518D01*
X121601928Y-54891000D01*
X112139802Y-54891000D01*
X100562805Y-43314004D01*
X100539002Y-43285000D01*
X100423277Y-43190027D01*
X100291248Y-43119455D01*
X100147987Y-43075998D01*
X100036334Y-43065001D01*
X100036323Y-43065001D01*
X99999001Y-43061325D01*
X99961679Y-43065001D01*
X99035000Y-43065001D01*
X99035000Y-42998061D01*
X98995226Y-42798102D01*
X98917205Y-42609744D01*
X98803937Y-42440226D01*
X98713711Y-42350000D01*
X98803937Y-42259774D01*
X98917205Y-42090256D01*
X98995226Y-41901898D01*
X99035000Y-41701939D01*
X99035000Y-41498061D01*
X98995226Y-41298102D01*
X98917205Y-41109744D01*
X98803937Y-40940226D01*
X98763711Y-40900000D01*
X98903937Y-40759774D01*
X99017205Y-40590256D01*
X99095226Y-40401898D01*
X99135000Y-40201939D01*
X99135000Y-39998061D01*
X99095226Y-39798102D01*
X99017205Y-39609744D01*
X98911767Y-39451944D01*
X99003937Y-39359774D01*
X99117205Y-39190256D01*
X99195226Y-39001898D01*
X99235000Y-38801939D01*
X99235000Y-38598061D01*
X99195226Y-38398102D01*
X99117205Y-38209744D01*
X99003937Y-38040226D01*
X98859774Y-37896063D01*
X98690256Y-37782795D01*
X98501898Y-37704774D01*
X98301939Y-37665000D01*
X98239802Y-37665000D01*
X96772739Y-36197937D01*
X96830000Y-36112240D01*
X96946525Y-36286632D01*
X97153368Y-36493475D01*
X97396589Y-36655990D01*
X97666842Y-36767932D01*
X97953740Y-36825000D01*
X98246260Y-36825000D01*
X98533158Y-36767932D01*
X98803411Y-36655990D01*
X99046632Y-36493475D01*
X99253475Y-36286632D01*
X99370000Y-36112240D01*
X99486525Y-36286632D01*
X99693368Y-36493475D01*
X99936589Y-36655990D01*
X100206842Y-36767932D01*
X100493740Y-36825000D01*
X100786260Y-36825000D01*
X101073158Y-36767932D01*
X101343411Y-36655990D01*
X101586632Y-36493475D01*
X101793475Y-36286632D01*
X101910000Y-36112240D01*
X102026525Y-36286632D01*
X102233368Y-36493475D01*
X102476589Y-36655990D01*
X102746842Y-36767932D01*
X103033740Y-36825000D01*
X103326260Y-36825000D01*
X103613158Y-36767932D01*
X103883411Y-36655990D01*
X104126632Y-36493475D01*
X104333475Y-36286632D01*
X104450000Y-36112240D01*
X104566525Y-36286632D01*
X104773368Y-36493475D01*
X105016589Y-36655990D01*
X105286842Y-36767932D01*
X105573740Y-36825000D01*
X105866260Y-36825000D01*
X106153158Y-36767932D01*
X106423411Y-36655990D01*
X106666632Y-36493475D01*
X106873475Y-36286632D01*
X106995195Y-36104466D01*
X107064822Y-36221355D01*
X107259731Y-36437588D01*
X107493080Y-36611641D01*
X107755901Y-36736825D01*
X107903110Y-36781476D01*
X108133000Y-36660155D01*
X108133000Y-35467000D01*
X108113000Y-35467000D01*
X108113000Y-35213000D01*
X108133000Y-35213000D01*
X108133000Y-35193000D01*
X108387000Y-35193000D01*
X108387000Y-35213000D01*
X108407000Y-35213000D01*
X108407000Y-35467000D01*
X108387000Y-35467000D01*
X108387000Y-36660155D01*
X108616890Y-36781476D01*
X108764099Y-36736825D01*
X109026920Y-36611641D01*
X109260269Y-36437588D01*
X109455178Y-36221355D01*
X109524805Y-36104466D01*
X109646525Y-36286632D01*
X109853368Y-36493475D01*
X110096589Y-36655990D01*
X110366842Y-36767932D01*
X110653740Y-36825000D01*
X110946260Y-36825000D01*
X111233158Y-36767932D01*
X111503411Y-36655990D01*
X111746632Y-36493475D01*
X111953475Y-36286632D01*
X112115990Y-36043411D01*
X112227932Y-35773158D01*
X112285000Y-35486260D01*
X112285000Y-35193740D01*
X112227932Y-34906842D01*
X112156753Y-34735001D01*
X116610675Y-34735001D01*
X116647997Y-34738677D01*
X116685319Y-34735001D01*
X116685330Y-34735001D01*
X116796983Y-34724004D01*
X116940244Y-34680547D01*
X117072273Y-34609975D01*
X117187998Y-34515002D01*
X117211801Y-34485998D01*
X118804798Y-32893002D01*
X118815748Y-32893002D01*
X118657000Y-33051750D01*
X118653928Y-33616000D01*
X118666188Y-33740482D01*
X118702498Y-33860180D01*
X118761463Y-33970494D01*
X118840815Y-34067185D01*
X118937506Y-34146537D01*
X119047820Y-34205502D01*
X119120380Y-34227513D01*
X118988525Y-34359368D01*
X118826010Y-34602589D01*
X118714068Y-34872842D01*
X118657000Y-35159740D01*
X118657000Y-35452260D01*
X118714068Y-35739158D01*
X118826010Y-36009411D01*
X118988525Y-36252632D01*
X119195368Y-36459475D01*
X119438589Y-36621990D01*
X119708842Y-36733932D01*
X119995740Y-36791000D01*
X120288260Y-36791000D01*
X120575158Y-36733932D01*
X120845411Y-36621990D01*
X121088632Y-36459475D01*
X121295475Y-36252632D01*
X121412000Y-36078240D01*
X121528525Y-36252632D01*
X121735368Y-36459475D01*
X121978589Y-36621990D01*
X122248842Y-36733932D01*
X122535740Y-36791000D01*
X122828260Y-36791000D01*
X123115158Y-36733932D01*
X123287000Y-36662753D01*
X123287000Y-40179667D01*
X123283323Y-40216999D01*
X123297997Y-40365984D01*
X123341453Y-40509245D01*
X123412025Y-40641275D01*
X123483200Y-40728001D01*
X123506999Y-40757000D01*
X123535997Y-40780798D01*
X130378198Y-47623000D01*
X130251740Y-47623000D01*
X129964842Y-47680068D01*
X129694589Y-47792010D01*
X129451368Y-47954525D01*
X129244525Y-48161368D01*
X129128000Y-48335760D01*
X129011475Y-48161368D01*
X128804632Y-47954525D01*
X128561411Y-47792010D01*
X128291158Y-47680068D01*
X128004260Y-47623000D01*
X127711740Y-47623000D01*
X127424842Y-47680068D01*
X127154589Y-47792010D01*
X126911368Y-47954525D01*
X126704525Y-48161368D01*
X126588000Y-48335760D01*
X126471475Y-48161368D01*
X126264632Y-47954525D01*
X126021411Y-47792010D01*
X125751158Y-47680068D01*
X125464260Y-47623000D01*
X125171740Y-47623000D01*
X124884842Y-47680068D01*
X124614589Y-47792010D01*
X124371368Y-47954525D01*
X124164525Y-48161368D01*
X124048000Y-48335760D01*
X123931475Y-48161368D01*
X123724632Y-47954525D01*
X123481411Y-47792010D01*
X123211158Y-47680068D01*
X122924260Y-47623000D01*
X122631740Y-47623000D01*
X122344842Y-47680068D01*
X122074589Y-47792010D01*
X121831368Y-47954525D01*
X121699513Y-48086380D01*
X121677502Y-48013820D01*
X121618537Y-47903506D01*
X121539185Y-47806815D01*
X121442494Y-47727463D01*
X121332180Y-47668498D01*
X121212482Y-47632188D01*
X121088000Y-47619928D01*
X119388000Y-47619928D01*
X119263518Y-47632188D01*
X119143820Y-47668498D01*
X119033506Y-47727463D01*
X118936815Y-47806815D01*
X118857463Y-47903506D01*
X118798498Y-48013820D01*
X118762188Y-48133518D01*
X118749928Y-48258000D01*
X118749928Y-49958000D01*
X118762188Y-50082482D01*
X118798498Y-50202180D01*
X118857463Y-50312494D01*
X118936815Y-50409185D01*
X119033506Y-50488537D01*
X119143820Y-50547502D01*
X119263518Y-50583812D01*
X119388000Y-50596072D01*
X120651271Y-50596072D01*
X124309732Y-54254534D01*
X123825750Y-54256000D01*
X123667000Y-54414750D01*
X123667000Y-55839000D01*
X123687000Y-55839000D01*
X123687000Y-56093000D01*
X123667000Y-56093000D01*
X123667000Y-56113000D01*
X123413000Y-56113000D01*
X123413000Y-56093000D01*
X121763750Y-56093000D01*
X121605000Y-56251750D01*
X121601928Y-57041000D01*
X121614188Y-57165482D01*
X121650498Y-57285180D01*
X121709463Y-57395494D01*
X121788815Y-57492185D01*
X121885506Y-57571537D01*
X121995820Y-57630502D01*
X122115518Y-57666812D01*
X122161303Y-57671321D01*
X122028945Y-57779945D01*
X121802759Y-58055553D01*
X121634688Y-58369992D01*
X121531190Y-58711178D01*
X121496243Y-59066000D01*
X121531190Y-59420822D01*
X121634688Y-59762008D01*
X121802759Y-60076447D01*
X122028945Y-60352055D01*
X122304553Y-60578241D01*
X122618992Y-60746312D01*
X122960178Y-60849810D01*
X123226089Y-60876000D01*
X123853911Y-60876000D01*
X124119822Y-60849810D01*
X124461008Y-60746312D01*
X124775447Y-60578241D01*
X125051055Y-60352055D01*
X125277241Y-60076447D01*
X125445312Y-59762008D01*
X125548810Y-59420822D01*
X125583757Y-59066000D01*
X125548810Y-58711178D01*
X125445312Y-58369992D01*
X125398462Y-58282341D01*
X125676009Y-58004794D01*
X125705002Y-57981000D01*
X125728796Y-57952007D01*
X125728800Y-57952003D01*
X125799974Y-57865276D01*
X125799975Y-57865275D01*
X125870547Y-57733246D01*
X125914004Y-57589985D01*
X125925001Y-57478332D01*
X125925001Y-57478323D01*
X125928677Y-57441000D01*
X125925001Y-57403677D01*
X125925001Y-54072326D01*
X125928677Y-54035001D01*
X125925001Y-53997676D01*
X125925001Y-53997668D01*
X125914004Y-53886015D01*
X125870547Y-53742754D01*
X125799975Y-53610725D01*
X125705002Y-53495000D01*
X125676005Y-53471203D01*
X122797801Y-50593000D01*
X122924260Y-50593000D01*
X123144408Y-50549209D01*
X131937452Y-59342254D01*
X131945190Y-59420822D01*
X132048688Y-59762008D01*
X132216759Y-60076447D01*
X132442945Y-60352055D01*
X132718553Y-60578241D01*
X133032992Y-60746312D01*
X133374178Y-60849810D01*
X133640089Y-60876000D01*
X134267911Y-60876000D01*
X134533822Y-60849810D01*
X134875008Y-60746312D01*
X135189447Y-60578241D01*
X135465055Y-60352055D01*
X135691241Y-60076447D01*
X135859312Y-59762008D01*
X135962810Y-59420822D01*
X135997757Y-59066000D01*
X135962810Y-58711178D01*
X135859312Y-58369992D01*
X135691241Y-58055553D01*
X135465055Y-57779945D01*
X135332697Y-57671321D01*
X135378482Y-57666812D01*
X135498180Y-57630502D01*
X135608494Y-57571537D01*
X135705185Y-57492185D01*
X135784537Y-57395494D01*
X135843502Y-57285180D01*
X135879812Y-57165482D01*
X135892072Y-57041000D01*
X135889000Y-56251750D01*
X135730250Y-56093000D01*
X134081000Y-56093000D01*
X134081000Y-56113000D01*
X133827000Y-56113000D01*
X133827000Y-56093000D01*
X132177750Y-56093000D01*
X132019000Y-56251750D01*
X132015928Y-57041000D01*
X132028188Y-57165482D01*
X132064498Y-57285180D01*
X132104133Y-57359332D01*
X125337801Y-50593000D01*
X125464260Y-50593000D01*
X125684408Y-50549209D01*
X130212199Y-55077001D01*
X130235998Y-55106000D01*
X130351723Y-55200973D01*
X130483752Y-55271545D01*
X130627013Y-55315002D01*
X130738666Y-55325999D01*
X130738675Y-55325999D01*
X130775998Y-55329675D01*
X130813321Y-55325999D01*
X132017621Y-55325999D01*
X132019000Y-55680250D01*
X132177750Y-55839000D01*
X133827000Y-55839000D01*
X133827000Y-55819000D01*
X134081000Y-55819000D01*
X134081000Y-55839000D01*
X135730250Y-55839000D01*
X135889000Y-55680250D01*
X135890379Y-55325999D01*
X139553198Y-55325999D01*
X142509538Y-58282341D01*
X142462688Y-58369992D01*
X142359190Y-58711178D01*
X142324243Y-59066000D01*
X142359190Y-59420822D01*
X142462688Y-59762008D01*
X142630759Y-60076447D01*
X142856945Y-60352055D01*
X143132553Y-60578241D01*
X143446992Y-60746312D01*
X143788178Y-60849810D01*
X144054089Y-60876000D01*
X144681911Y-60876000D01*
X144947822Y-60849810D01*
X145289008Y-60746312D01*
X145603447Y-60578241D01*
X145879055Y-60352055D01*
X146105241Y-60076447D01*
X146273312Y-59762008D01*
X146376810Y-59420822D01*
X146411757Y-59066000D01*
X146376810Y-58711178D01*
X146273312Y-58369992D01*
X146105241Y-58055553D01*
X145879055Y-57779945D01*
X145746697Y-57671321D01*
X145792482Y-57666812D01*
X145912180Y-57630502D01*
X146022494Y-57571537D01*
X146119185Y-57492185D01*
X146198537Y-57395494D01*
X146257502Y-57285180D01*
X146293812Y-57165482D01*
X146306072Y-57041000D01*
X146303000Y-56251750D01*
X146144250Y-56093000D01*
X144495000Y-56093000D01*
X144495000Y-56113000D01*
X144241000Y-56113000D01*
X144241000Y-56093000D01*
X142591750Y-56093000D01*
X142530776Y-56153974D01*
X141136801Y-54760000D01*
X142444165Y-54760000D01*
X142442188Y-54766518D01*
X142429928Y-54891000D01*
X142433000Y-55680250D01*
X142591750Y-55839000D01*
X144241000Y-55839000D01*
X144241000Y-55819000D01*
X144495000Y-55819000D01*
X144495000Y-55839000D01*
X146144250Y-55839000D01*
X146303000Y-55680250D01*
X146306072Y-54891000D01*
X146293812Y-54766518D01*
X146291835Y-54760000D01*
X149401199Y-54760000D01*
X152923539Y-58282340D01*
X152876688Y-58369992D01*
X152773190Y-58711178D01*
X152738243Y-59066000D01*
X152773190Y-59420822D01*
X152876688Y-59762008D01*
X153044759Y-60076447D01*
X153270945Y-60352055D01*
X153546553Y-60578241D01*
X153860992Y-60746312D01*
X154202178Y-60849810D01*
X154468089Y-60876000D01*
X155095911Y-60876000D01*
X155361822Y-60849810D01*
X155703008Y-60746312D01*
X156017447Y-60578241D01*
X156293055Y-60352055D01*
X156519241Y-60076447D01*
X156687312Y-59762008D01*
X156790810Y-59420822D01*
X156825757Y-59066000D01*
X156790810Y-58711178D01*
X156687312Y-58369992D01*
X156519241Y-58055553D01*
X156293055Y-57779945D01*
X156160697Y-57671321D01*
X156206482Y-57666812D01*
X156326180Y-57630502D01*
X156436494Y-57571537D01*
X156533185Y-57492185D01*
X156612537Y-57395494D01*
X156671502Y-57285180D01*
X156707812Y-57165482D01*
X156720072Y-57041000D01*
X156717000Y-56251750D01*
X156558250Y-56093000D01*
X154909000Y-56093000D01*
X154909000Y-56113000D01*
X154655000Y-56113000D01*
X154655000Y-56093000D01*
X153005750Y-56093000D01*
X152944776Y-56153974D01*
X151681802Y-54891000D01*
X152843928Y-54891000D01*
X152847000Y-55680250D01*
X153005750Y-55839000D01*
X154655000Y-55839000D01*
X154655000Y-54414750D01*
X154909000Y-54414750D01*
X154909000Y-55839000D01*
X156558250Y-55839000D01*
X156717000Y-55680250D01*
X156720072Y-54891000D01*
X156707812Y-54766518D01*
X156671502Y-54646820D01*
X156612537Y-54536506D01*
X156533185Y-54439815D01*
X156436494Y-54360463D01*
X156326180Y-54301498D01*
X156206482Y-54265188D01*
X156082000Y-54252928D01*
X155067750Y-54256000D01*
X154909000Y-54414750D01*
X154655000Y-54414750D01*
X154496250Y-54256000D01*
X153482000Y-54252928D01*
X153357518Y-54265188D01*
X153237820Y-54301498D01*
X153127506Y-54360463D01*
X153030815Y-54439815D01*
X152951463Y-54536506D01*
X152892498Y-54646820D01*
X152856188Y-54766518D01*
X152843928Y-54891000D01*
X151681802Y-54891000D01*
X150279804Y-53489003D01*
X150256001Y-53459999D01*
X150140276Y-53365026D01*
X150008247Y-53294454D01*
X149864986Y-53250997D01*
X149753333Y-53240000D01*
X149753322Y-53240000D01*
X149716000Y-53236324D01*
X149678678Y-53240000D01*
X133064802Y-53240000D01*
X130417801Y-50593000D01*
X130544260Y-50593000D01*
X130831158Y-50535932D01*
X131101411Y-50423990D01*
X131344632Y-50261475D01*
X131551475Y-50054632D01*
X131668000Y-49880240D01*
X131784525Y-50054632D01*
X131991368Y-50261475D01*
X132234589Y-50423990D01*
X132504842Y-50535932D01*
X132791740Y-50593000D01*
X133084260Y-50593000D01*
X133371158Y-50535932D01*
X133641411Y-50423990D01*
X133884632Y-50261475D01*
X134091475Y-50054632D01*
X134208000Y-49880240D01*
X134324525Y-50054632D01*
X134531368Y-50261475D01*
X134774589Y-50423990D01*
X135044842Y-50535932D01*
X135331740Y-50593000D01*
X135624260Y-50593000D01*
X135911158Y-50535932D01*
X136181411Y-50423990D01*
X136424632Y-50261475D01*
X136631475Y-50054632D01*
X136748000Y-49880240D01*
X136864525Y-50054632D01*
X137071368Y-50261475D01*
X137314589Y-50423990D01*
X137584842Y-50535932D01*
X137871740Y-50593000D01*
X138164260Y-50593000D01*
X138451158Y-50535932D01*
X138721411Y-50423990D01*
X138964632Y-50261475D01*
X139171475Y-50054632D01*
X139333990Y-49811411D01*
X139445932Y-49541158D01*
X139503000Y-49254260D01*
X139503000Y-48961740D01*
X139445932Y-48674842D01*
X139333990Y-48404589D01*
X139236043Y-48258000D01*
X142879928Y-48258000D01*
X142879928Y-49958000D01*
X142892188Y-50082482D01*
X142928498Y-50202180D01*
X142987463Y-50312494D01*
X143066815Y-50409185D01*
X143163506Y-50488537D01*
X143273820Y-50547502D01*
X143393518Y-50583812D01*
X143518000Y-50596072D01*
X145218000Y-50596072D01*
X145342482Y-50583812D01*
X145462180Y-50547502D01*
X145572494Y-50488537D01*
X145669185Y-50409185D01*
X145748537Y-50312494D01*
X145807502Y-50202180D01*
X145829513Y-50129620D01*
X145961368Y-50261475D01*
X146204589Y-50423990D01*
X146474842Y-50535932D01*
X146761740Y-50593000D01*
X147054260Y-50593000D01*
X147341158Y-50535932D01*
X147611411Y-50423990D01*
X147854632Y-50261475D01*
X148061475Y-50054632D01*
X148178000Y-49880240D01*
X148294525Y-50054632D01*
X148501368Y-50261475D01*
X148744589Y-50423990D01*
X149014842Y-50535932D01*
X149301740Y-50593000D01*
X149594260Y-50593000D01*
X149881158Y-50535932D01*
X150151411Y-50423990D01*
X150394632Y-50261475D01*
X150601475Y-50054632D01*
X150718000Y-49880240D01*
X150834525Y-50054632D01*
X151041368Y-50261475D01*
X151284589Y-50423990D01*
X151554842Y-50535932D01*
X151841740Y-50593000D01*
X152134260Y-50593000D01*
X152421158Y-50535932D01*
X152691411Y-50423990D01*
X152934632Y-50261475D01*
X153141475Y-50054632D01*
X153303990Y-49811411D01*
X153415932Y-49541158D01*
X153473000Y-49254260D01*
X153473000Y-48961740D01*
X153415932Y-48674842D01*
X153303990Y-48404589D01*
X153141475Y-48161368D01*
X152934632Y-47954525D01*
X152691411Y-47792010D01*
X152421158Y-47680068D01*
X152134260Y-47623000D01*
X151841740Y-47623000D01*
X151554842Y-47680068D01*
X151284589Y-47792010D01*
X151041368Y-47954525D01*
X150834525Y-48161368D01*
X150718000Y-48335760D01*
X150601475Y-48161368D01*
X150394632Y-47954525D01*
X150151411Y-47792010D01*
X149881158Y-47680068D01*
X149594260Y-47623000D01*
X149301740Y-47623000D01*
X149014842Y-47680068D01*
X148744589Y-47792010D01*
X148501368Y-47954525D01*
X148294525Y-48161368D01*
X148178000Y-48335760D01*
X148061475Y-48161368D01*
X147854632Y-47954525D01*
X147611411Y-47792010D01*
X147341158Y-47680068D01*
X147054260Y-47623000D01*
X146761740Y-47623000D01*
X146474842Y-47680068D01*
X146204589Y-47792010D01*
X145961368Y-47954525D01*
X145829513Y-48086380D01*
X145807502Y-48013820D01*
X145748537Y-47903506D01*
X145669185Y-47806815D01*
X145572494Y-47727463D01*
X145462180Y-47668498D01*
X145342482Y-47632188D01*
X145218000Y-47619928D01*
X143518000Y-47619928D01*
X143393518Y-47632188D01*
X143273820Y-47668498D01*
X143163506Y-47727463D01*
X143066815Y-47806815D01*
X142987463Y-47903506D01*
X142928498Y-48013820D01*
X142892188Y-48133518D01*
X142879928Y-48258000D01*
X139236043Y-48258000D01*
X139171475Y-48161368D01*
X138964632Y-47954525D01*
X138721411Y-47792010D01*
X138451158Y-47680068D01*
X138164260Y-47623000D01*
X137871740Y-47623000D01*
X137584842Y-47680068D01*
X137314589Y-47792010D01*
X137071368Y-47954525D01*
X136864525Y-48161368D01*
X136748000Y-48335760D01*
X136631475Y-48161368D01*
X136424632Y-47954525D01*
X136181411Y-47792010D01*
X135911158Y-47680068D01*
X135624260Y-47623000D01*
X135331740Y-47623000D01*
X135044842Y-47680068D01*
X134774589Y-47792010D01*
X134531368Y-47954525D01*
X134324525Y-48161368D01*
X134208000Y-48335760D01*
X134091475Y-48161368D01*
X133884632Y-47954525D01*
X133641411Y-47792010D01*
X133371158Y-47680068D01*
X133084260Y-47623000D01*
X132791740Y-47623000D01*
X132571592Y-47666790D01*
X124806999Y-39902198D01*
X124806999Y-36737544D01*
X125075740Y-36791000D01*
X125368260Y-36791000D01*
X125655158Y-36733932D01*
X125925411Y-36621990D01*
X126168632Y-36459475D01*
X126375475Y-36252632D01*
X126492000Y-36078240D01*
X126608525Y-36252632D01*
X126815368Y-36459475D01*
X127058589Y-36621990D01*
X127328842Y-36733932D01*
X127615740Y-36791000D01*
X127908260Y-36791000D01*
X127980961Y-36776539D01*
X131345470Y-40141049D01*
X131373183Y-40174817D01*
X131406951Y-40202530D01*
X131406953Y-40202532D01*
X131507941Y-40285411D01*
X131661686Y-40367589D01*
X131774787Y-40401898D01*
X131828510Y-40418195D01*
X131958523Y-40431000D01*
X131958531Y-40431000D01*
X132002000Y-40435281D01*
X132045469Y-40431000D01*
X166687422Y-40431000D01*
X181391928Y-55135507D01*
X181391928Y-56222000D01*
X181404188Y-56346482D01*
X181440498Y-56466180D01*
X181499463Y-56576494D01*
X181578815Y-56673185D01*
X181675506Y-56752537D01*
X181785820Y-56811502D01*
X181905518Y-56847812D01*
X182030000Y-56860072D01*
X183730000Y-56860072D01*
X183854482Y-56847812D01*
X183974180Y-56811502D01*
X184084494Y-56752537D01*
X184181185Y-56673185D01*
X184260537Y-56576494D01*
X184319502Y-56466180D01*
X184343966Y-56385534D01*
X184419731Y-56469588D01*
X184653080Y-56643641D01*
X184915901Y-56768825D01*
X185063110Y-56813476D01*
X185293000Y-56692155D01*
X185293000Y-55499000D01*
X185273000Y-55499000D01*
X185273000Y-55245000D01*
X185293000Y-55245000D01*
X185293000Y-55225000D01*
X185547000Y-55225000D01*
X185547000Y-55245000D01*
X185567000Y-55245000D01*
X185567000Y-55499000D01*
X185547000Y-55499000D01*
X185547000Y-56692155D01*
X185776890Y-56813476D01*
X185924099Y-56768825D01*
X186186920Y-56643641D01*
X186420269Y-56469588D01*
X186615178Y-56253355D01*
X186684805Y-56136466D01*
X186806525Y-56318632D01*
X187013368Y-56525475D01*
X187256589Y-56687990D01*
X187526842Y-56799932D01*
X187813740Y-56857000D01*
X188106260Y-56857000D01*
X188393158Y-56799932D01*
X188663411Y-56687990D01*
X188906632Y-56525475D01*
X189113475Y-56318632D01*
X189230000Y-56144240D01*
X189346525Y-56318632D01*
X189553368Y-56525475D01*
X189796589Y-56687990D01*
X190066842Y-56799932D01*
X190353740Y-56857000D01*
X190646260Y-56857000D01*
X190915002Y-56803544D01*
X190915002Y-58962196D01*
X188175000Y-61702199D01*
X188175000Y-61575740D01*
X188117932Y-61288842D01*
X188005990Y-61018589D01*
X187843475Y-60775368D01*
X187636632Y-60568525D01*
X187462240Y-60452000D01*
X187636632Y-60335475D01*
X187843475Y-60128632D01*
X188005990Y-59885411D01*
X188117932Y-59615158D01*
X188175000Y-59328260D01*
X188175000Y-59035740D01*
X188117932Y-58748842D01*
X188005990Y-58478589D01*
X187843475Y-58235368D01*
X187636632Y-58028525D01*
X187393411Y-57866010D01*
X187123158Y-57754068D01*
X186836260Y-57697000D01*
X186543740Y-57697000D01*
X186256842Y-57754068D01*
X185986589Y-57866010D01*
X185743368Y-58028525D01*
X185536525Y-58235368D01*
X185374010Y-58478589D01*
X185262068Y-58748842D01*
X185205000Y-59035740D01*
X185205000Y-59328260D01*
X185262068Y-59615158D01*
X185374010Y-59885411D01*
X185536525Y-60128632D01*
X185743368Y-60335475D01*
X185917760Y-60452000D01*
X185743368Y-60568525D01*
X185536525Y-60775368D01*
X185374010Y-61018589D01*
X185262068Y-61288842D01*
X185205000Y-61575740D01*
X185205000Y-61868260D01*
X185262068Y-62155158D01*
X185374010Y-62425411D01*
X185536525Y-62668632D01*
X185743368Y-62875475D01*
X185917760Y-62992000D01*
X185743368Y-63108525D01*
X185536525Y-63315368D01*
X185374010Y-63558589D01*
X185262068Y-63828842D01*
X185205000Y-64115740D01*
X185205000Y-64408260D01*
X185262068Y-64695158D01*
X185374010Y-64965411D01*
X185536525Y-65208632D01*
X185743368Y-65415475D01*
X185917760Y-65532000D01*
X185743368Y-65648525D01*
X185536525Y-65855368D01*
X185374010Y-66098589D01*
X185262068Y-66368842D01*
X185205000Y-66655740D01*
X185205000Y-66948260D01*
X185262068Y-67235158D01*
X185374010Y-67505411D01*
X185536525Y-67748632D01*
X185743368Y-67955475D01*
X185925534Y-68077195D01*
X185808645Y-68146822D01*
X185592412Y-68341731D01*
X185418359Y-68575080D01*
X185293175Y-68837901D01*
X185248524Y-68985110D01*
X185369845Y-69215000D01*
X186563000Y-69215000D01*
X186563000Y-69195000D01*
X186817000Y-69195000D01*
X186817000Y-69215000D01*
X188010155Y-69215000D01*
X188131476Y-68985110D01*
X188086825Y-68837901D01*
X187961641Y-68575080D01*
X187787588Y-68341731D01*
X187571355Y-68146822D01*
X187454466Y-68077195D01*
X187636632Y-67955475D01*
X187843475Y-67748632D01*
X188005990Y-67505411D01*
X188117932Y-67235158D01*
X188175000Y-66948260D01*
X188175000Y-66655740D01*
X188131209Y-66435592D01*
X194726009Y-59840794D01*
X194755002Y-59817000D01*
X194778796Y-59788007D01*
X194778800Y-59788003D01*
X194849974Y-59701276D01*
X194849975Y-59701275D01*
X194920547Y-59569246D01*
X194964004Y-59425985D01*
X194975001Y-59314332D01*
X194975001Y-59314323D01*
X194978677Y-59277000D01*
X194975001Y-59239677D01*
X194975001Y-56728753D01*
X195146842Y-56799932D01*
X195433740Y-56857000D01*
X195726260Y-56857000D01*
X196013158Y-56799932D01*
X196283411Y-56687990D01*
X196526632Y-56525475D01*
X196733475Y-56318632D01*
X196895990Y-56075411D01*
X197007932Y-55805158D01*
X197065000Y-55518260D01*
X197065000Y-55225740D01*
X197007932Y-54938842D01*
X196895990Y-54668589D01*
X196733475Y-54425368D01*
X196526632Y-54218525D01*
X196283411Y-54056010D01*
X196013158Y-53944068D01*
X195726260Y-53887000D01*
X195433740Y-53887000D01*
X195146842Y-53944068D01*
X194975001Y-54015247D01*
X194975001Y-46686641D01*
X194978677Y-46649316D01*
X194975001Y-46611991D01*
X194975001Y-46611983D01*
X194964004Y-46500330D01*
X194920547Y-46357069D01*
X194849975Y-46225040D01*
X194755002Y-46109315D01*
X194726005Y-46085518D01*
X193529489Y-44889003D01*
X193505686Y-44859999D01*
X193389961Y-44765026D01*
X193257932Y-44694454D01*
X193114724Y-44651013D01*
X193059774Y-44596063D01*
X192890256Y-44482795D01*
X192701898Y-44404774D01*
X192501939Y-44365000D01*
X192298061Y-44365000D01*
X192098102Y-44404774D01*
X191909744Y-44482795D01*
X191740226Y-44596063D01*
X191596063Y-44740226D01*
X191482795Y-44909744D01*
X191404774Y-45098102D01*
X191365000Y-45298061D01*
X191365000Y-45501939D01*
X191404774Y-45701898D01*
X191482795Y-45890256D01*
X191489306Y-45900000D01*
X191482795Y-45909744D01*
X191404774Y-46098102D01*
X191365000Y-46298061D01*
X191365000Y-46360198D01*
X191164003Y-46561196D01*
X191135000Y-46584998D01*
X191082216Y-46649316D01*
X191040027Y-46700723D01*
X191039399Y-46701898D01*
X190969455Y-46832753D01*
X190925998Y-46976014D01*
X190915001Y-47087667D01*
X190915001Y-47087677D01*
X190911325Y-47124999D01*
X190915001Y-47162321D01*
X190915002Y-53940456D01*
X190646260Y-53887000D01*
X190353740Y-53887000D01*
X190133592Y-53930790D01*
X187660000Y-51457199D01*
X187660000Y-47937322D01*
X187663676Y-47899999D01*
X187660000Y-47862676D01*
X187660000Y-47862667D01*
X187649003Y-47751014D01*
X187605546Y-47607753D01*
X187534974Y-47475724D01*
X187440001Y-47359999D01*
X187411003Y-47336201D01*
X187035000Y-46960198D01*
X187035000Y-46898061D01*
X186995226Y-46698102D01*
X186917205Y-46509744D01*
X186803937Y-46340226D01*
X186659774Y-46196063D01*
X186490256Y-46082795D01*
X186301898Y-46004774D01*
X186101939Y-45965000D01*
X185898061Y-45965000D01*
X185698102Y-46004774D01*
X185509744Y-46082795D01*
X185340226Y-46196063D01*
X185196063Y-46340226D01*
X185082795Y-46509744D01*
X185004774Y-46698102D01*
X184965000Y-46898061D01*
X184965000Y-47101939D01*
X185004774Y-47301898D01*
X185043009Y-47394204D01*
X185040226Y-47396063D01*
X184896063Y-47540226D01*
X184782795Y-47709744D01*
X184704774Y-47898102D01*
X184665000Y-48098061D01*
X184665000Y-48301939D01*
X184704774Y-48501898D01*
X184782795Y-48690256D01*
X184840001Y-48775871D01*
X184840000Y-52974677D01*
X184836324Y-53012000D01*
X184840000Y-53049322D01*
X184840000Y-53049332D01*
X184850997Y-53160985D01*
X184888919Y-53285998D01*
X184894454Y-53304246D01*
X184965026Y-53436276D01*
X185004871Y-53484826D01*
X185059999Y-53552001D01*
X185089003Y-53575804D01*
X185400199Y-53887000D01*
X185292998Y-53887000D01*
X185292998Y-54051844D01*
X185063110Y-53930524D01*
X184915901Y-53975175D01*
X184653080Y-54100359D01*
X184419731Y-54274412D01*
X184343966Y-54358466D01*
X184319502Y-54277820D01*
X184260537Y-54167506D01*
X184181185Y-54070815D01*
X184084494Y-53991463D01*
X183974180Y-53932498D01*
X183854482Y-53896188D01*
X183730000Y-53883928D01*
X182643507Y-53883928D01*
X167710534Y-38950956D01*
X167682817Y-38917183D01*
X167548059Y-38806589D01*
X167394313Y-38724411D01*
X167227490Y-38673805D01*
X167097477Y-38661000D01*
X167097469Y-38661000D01*
X167054000Y-38656719D01*
X167010531Y-38661000D01*
X132368579Y-38661000D01*
X129232539Y-35524961D01*
X129247000Y-35452260D01*
X129247000Y-35159740D01*
X129189932Y-34872842D01*
X129077990Y-34602589D01*
X128915475Y-34359368D01*
X128708632Y-34152525D01*
X128532594Y-34034900D01*
X128762269Y-33863588D01*
X128957178Y-33647355D01*
X129106157Y-33397252D01*
X129203481Y-33122891D01*
X129082814Y-32893000D01*
X127889000Y-32893000D01*
X127889000Y-32913000D01*
X127635000Y-32913000D01*
X127635000Y-32893000D01*
X125349000Y-32893000D01*
X125349000Y-32913000D01*
X125095000Y-32913000D01*
X125095000Y-32893000D01*
X125075000Y-32893000D01*
X125075000Y-32639000D01*
X125095000Y-32639000D01*
X125095000Y-31445845D01*
X125349000Y-31445845D01*
X125349000Y-32639000D01*
X127635000Y-32639000D01*
X127635000Y-31445845D01*
X127889000Y-31445845D01*
X127889000Y-32639000D01*
X129082814Y-32639000D01*
X129203481Y-32409109D01*
X129106157Y-32134748D01*
X128957178Y-31884645D01*
X128762269Y-31668412D01*
X128528920Y-31494359D01*
X128266099Y-31369175D01*
X128118890Y-31324524D01*
X127889000Y-31445845D01*
X127635000Y-31445845D01*
X127405110Y-31324524D01*
X127257901Y-31369175D01*
X126995080Y-31494359D01*
X126761731Y-31668412D01*
X126566822Y-31884645D01*
X126492000Y-32010255D01*
X126417178Y-31884645D01*
X126222269Y-31668412D01*
X125988920Y-31494359D01*
X125726099Y-31369175D01*
X125578890Y-31324524D01*
X125349000Y-31445845D01*
X125095000Y-31445845D01*
X124865110Y-31324524D01*
X124717901Y-31369175D01*
X124455080Y-31494359D01*
X124322817Y-31593013D01*
X123809804Y-31080001D01*
X123786002Y-31050998D01*
X123670277Y-30956025D01*
X123538248Y-30885453D01*
X123454339Y-30860000D01*
X137285199Y-30860000D01*
X138811928Y-32386730D01*
X138811928Y-33650000D01*
X138824188Y-33774482D01*
X138860498Y-33894180D01*
X138919463Y-34004494D01*
X138998815Y-34101185D01*
X139095506Y-34180537D01*
X139205820Y-34239502D01*
X139278380Y-34261513D01*
X139146525Y-34393368D01*
X138984010Y-34636589D01*
X138872068Y-34906842D01*
X138815000Y-35193740D01*
X138815000Y-35486260D01*
X138872068Y-35773158D01*
X138984010Y-36043411D01*
X139146525Y-36286632D01*
X139353368Y-36493475D01*
X139596589Y-36655990D01*
X139866842Y-36767932D01*
X140153740Y-36825000D01*
X140446260Y-36825000D01*
X140733158Y-36767932D01*
X141003411Y-36655990D01*
X141246632Y-36493475D01*
X141453475Y-36286632D01*
X141615990Y-36043411D01*
X141727932Y-35773158D01*
X141785000Y-35486260D01*
X141785000Y-35193740D01*
X141727932Y-34906842D01*
X141615990Y-34636589D01*
X141453475Y-34393368D01*
X141321620Y-34261513D01*
X141394180Y-34239502D01*
X141504494Y-34180537D01*
X141601185Y-34101185D01*
X141680537Y-34004494D01*
X141739502Y-33894180D01*
X141775812Y-33774482D01*
X141788072Y-33650000D01*
X141788072Y-31950000D01*
X141775812Y-31825518D01*
X141739502Y-31705820D01*
X141680537Y-31595506D01*
X141601185Y-31498815D01*
X141504494Y-31419463D01*
X141394180Y-31360498D01*
X141274482Y-31324188D01*
X141150000Y-31311928D01*
X139886730Y-31311928D01*
X139434801Y-30860000D01*
X168985199Y-30860000D01*
X180440000Y-42314803D01*
X180440001Y-49162668D01*
X180436324Y-49200000D01*
X180450998Y-49348985D01*
X180494454Y-49492246D01*
X180565026Y-49624276D01*
X180604028Y-49671799D01*
X180660000Y-49740001D01*
X180688998Y-49763799D01*
X181165000Y-50239802D01*
X181165000Y-50301939D01*
X181204774Y-50501898D01*
X181282795Y-50690256D01*
X181396063Y-50859774D01*
X181540226Y-51003937D01*
X181709744Y-51117205D01*
X181898102Y-51195226D01*
X182098061Y-51235000D01*
X182301939Y-51235000D01*
X182501898Y-51195226D01*
X182690256Y-51117205D01*
X182859774Y-51003937D01*
X183003937Y-50859774D01*
X183117205Y-50690256D01*
X183195226Y-50501898D01*
X183235000Y-50301939D01*
X183235000Y-50098061D01*
X183195226Y-49898102D01*
X183117205Y-49709744D01*
X183010468Y-49550000D01*
X183117205Y-49390256D01*
X183195226Y-49201898D01*
X183235000Y-49001939D01*
X183235000Y-48798061D01*
X183195226Y-48598102D01*
X183117205Y-48409744D01*
X183003937Y-48240226D01*
X182960000Y-48196289D01*
X182960000Y-42164320D01*
X182963676Y-42126997D01*
X182960000Y-42089674D01*
X182960000Y-42089665D01*
X182949003Y-41978012D01*
X182905546Y-41834751D01*
X182834974Y-41702722D01*
X182821811Y-41686683D01*
X182763799Y-41615994D01*
X182763795Y-41615990D01*
X182740001Y-41586997D01*
X182711010Y-41563205D01*
X170236806Y-29089003D01*
X170213003Y-29059999D01*
X170097278Y-28965026D01*
X169965249Y-28894454D01*
X169821988Y-28850997D01*
X169710335Y-28840000D01*
X169710324Y-28840000D01*
X169673002Y-28836324D01*
X169635680Y-28840000D01*
X136535000Y-28840000D01*
X136535000Y-28798061D01*
X136505549Y-28650000D01*
X192976440Y-28650000D01*
X192636886Y-28989554D01*
X192293799Y-29503021D01*
X192057476Y-30073554D01*
X191937000Y-30679229D01*
X191937000Y-31296771D01*
X192057476Y-31902446D01*
X192293799Y-32472979D01*
X192636886Y-32986446D01*
X193073554Y-33423114D01*
X193587021Y-33766201D01*
X194157554Y-34002524D01*
X194763229Y-34123000D01*
X195380771Y-34123000D01*
X195986446Y-34002524D01*
X196556979Y-33766201D01*
X197070446Y-33423114D01*
X197410000Y-33083560D01*
X197410001Y-88836441D01*
X197070446Y-88496886D01*
X196556979Y-88153799D01*
X195986446Y-87917476D01*
X195380771Y-87797000D01*
X194763229Y-87797000D01*
X194157554Y-87917476D01*
X193587021Y-88153799D01*
X193073554Y-88496886D01*
X192636886Y-88933554D01*
X192293799Y-89447021D01*
X192057476Y-90017554D01*
X191937000Y-90623229D01*
X191937000Y-91240771D01*
X192057476Y-91846446D01*
X192293799Y-92416979D01*
X192636886Y-92930446D01*
X192976440Y-93270000D01*
X40703560Y-93270000D01*
X41043114Y-92930446D01*
X41386201Y-92416979D01*
X41622524Y-91846446D01*
X41743000Y-91240771D01*
X41743000Y-90623229D01*
X41622524Y-90017554D01*
X41386201Y-89447021D01*
X41043114Y-88933554D01*
X40606446Y-88496886D01*
X40092979Y-88153799D01*
X39522446Y-87917476D01*
X38916771Y-87797000D01*
X38299229Y-87797000D01*
X37693554Y-87917476D01*
X37123021Y-88153799D01*
X36609554Y-88496886D01*
X36270000Y-88836440D01*
X36270000Y-85204495D01*
X64461000Y-85204495D01*
X64461000Y-85595505D01*
X64537282Y-85979003D01*
X64686915Y-86340250D01*
X64904149Y-86665364D01*
X65180636Y-86941851D01*
X65505750Y-87159085D01*
X65866997Y-87308718D01*
X66250495Y-87385000D01*
X66641505Y-87385000D01*
X67025003Y-87308718D01*
X67386250Y-87159085D01*
X67711364Y-86941851D01*
X67987851Y-86665364D01*
X68205085Y-86340250D01*
X68354718Y-85979003D01*
X68431000Y-85595505D01*
X68431000Y-85204495D01*
X74875000Y-85204495D01*
X74875000Y-85595505D01*
X74951282Y-85979003D01*
X75100915Y-86340250D01*
X75318149Y-86665364D01*
X75594636Y-86941851D01*
X75919750Y-87159085D01*
X76280997Y-87308718D01*
X76664495Y-87385000D01*
X77055505Y-87385000D01*
X77439003Y-87308718D01*
X77800250Y-87159085D01*
X78125364Y-86941851D01*
X78401851Y-86665364D01*
X78619085Y-86340250D01*
X78768718Y-85979003D01*
X78845000Y-85595505D01*
X78845000Y-85204495D01*
X85289000Y-85204495D01*
X85289000Y-85595505D01*
X85365282Y-85979003D01*
X85514915Y-86340250D01*
X85732149Y-86665364D01*
X86008636Y-86941851D01*
X86333750Y-87159085D01*
X86694997Y-87308718D01*
X87078495Y-87385000D01*
X87469505Y-87385000D01*
X87853003Y-87308718D01*
X88214250Y-87159085D01*
X88539364Y-86941851D01*
X88815851Y-86665364D01*
X89033085Y-86340250D01*
X89182718Y-85979003D01*
X89259000Y-85595505D01*
X89259000Y-85204495D01*
X95703000Y-85204495D01*
X95703000Y-85595505D01*
X95779282Y-85979003D01*
X95928915Y-86340250D01*
X96146149Y-86665364D01*
X96422636Y-86941851D01*
X96747750Y-87159085D01*
X97108997Y-87308718D01*
X97492495Y-87385000D01*
X97883505Y-87385000D01*
X98267003Y-87308718D01*
X98628250Y-87159085D01*
X98953364Y-86941851D01*
X99229851Y-86665364D01*
X99447085Y-86340250D01*
X99596718Y-85979003D01*
X99673000Y-85595505D01*
X99673000Y-85204495D01*
X121555000Y-85204495D01*
X121555000Y-85595505D01*
X121631282Y-85979003D01*
X121780915Y-86340250D01*
X121998149Y-86665364D01*
X122274636Y-86941851D01*
X122599750Y-87159085D01*
X122960997Y-87308718D01*
X123344495Y-87385000D01*
X123735505Y-87385000D01*
X124119003Y-87308718D01*
X124480250Y-87159085D01*
X124805364Y-86941851D01*
X125081851Y-86665364D01*
X125299085Y-86340250D01*
X125448718Y-85979003D01*
X125525000Y-85595505D01*
X125525000Y-85204495D01*
X131969000Y-85204495D01*
X131969000Y-85595505D01*
X132045282Y-85979003D01*
X132194915Y-86340250D01*
X132412149Y-86665364D01*
X132688636Y-86941851D01*
X133013750Y-87159085D01*
X133374997Y-87308718D01*
X133758495Y-87385000D01*
X134149505Y-87385000D01*
X134533003Y-87308718D01*
X134894250Y-87159085D01*
X135219364Y-86941851D01*
X135495851Y-86665364D01*
X135713085Y-86340250D01*
X135862718Y-85979003D01*
X135939000Y-85595505D01*
X135939000Y-85204495D01*
X142383000Y-85204495D01*
X142383000Y-85595505D01*
X142459282Y-85979003D01*
X142608915Y-86340250D01*
X142826149Y-86665364D01*
X143102636Y-86941851D01*
X143427750Y-87159085D01*
X143788997Y-87308718D01*
X144172495Y-87385000D01*
X144563505Y-87385000D01*
X144947003Y-87308718D01*
X145308250Y-87159085D01*
X145633364Y-86941851D01*
X145909851Y-86665364D01*
X146127085Y-86340250D01*
X146276718Y-85979003D01*
X146353000Y-85595505D01*
X146353000Y-85204495D01*
X152797000Y-85204495D01*
X152797000Y-85595505D01*
X152873282Y-85979003D01*
X153022915Y-86340250D01*
X153240149Y-86665364D01*
X153516636Y-86941851D01*
X153841750Y-87159085D01*
X154202997Y-87308718D01*
X154586495Y-87385000D01*
X154977505Y-87385000D01*
X155361003Y-87308718D01*
X155722250Y-87159085D01*
X156047364Y-86941851D01*
X156323851Y-86665364D01*
X156541085Y-86340250D01*
X156690718Y-85979003D01*
X156767000Y-85595505D01*
X156767000Y-85204495D01*
X156690718Y-84820997D01*
X156541085Y-84459750D01*
X156323851Y-84134636D01*
X156047364Y-83858149D01*
X155722250Y-83640915D01*
X155361003Y-83491282D01*
X154977505Y-83415000D01*
X154586495Y-83415000D01*
X154202997Y-83491282D01*
X153841750Y-83640915D01*
X153516636Y-83858149D01*
X153240149Y-84134636D01*
X153022915Y-84459750D01*
X152873282Y-84820997D01*
X152797000Y-85204495D01*
X146353000Y-85204495D01*
X146276718Y-84820997D01*
X146127085Y-84459750D01*
X145909851Y-84134636D01*
X145633364Y-83858149D01*
X145308250Y-83640915D01*
X144947003Y-83491282D01*
X144563505Y-83415000D01*
X144172495Y-83415000D01*
X143788997Y-83491282D01*
X143427750Y-83640915D01*
X143102636Y-83858149D01*
X142826149Y-84134636D01*
X142608915Y-84459750D01*
X142459282Y-84820997D01*
X142383000Y-85204495D01*
X135939000Y-85204495D01*
X135862718Y-84820997D01*
X135713085Y-84459750D01*
X135495851Y-84134636D01*
X135219364Y-83858149D01*
X134894250Y-83640915D01*
X134533003Y-83491282D01*
X134149505Y-83415000D01*
X133758495Y-83415000D01*
X133374997Y-83491282D01*
X133013750Y-83640915D01*
X132688636Y-83858149D01*
X132412149Y-84134636D01*
X132194915Y-84459750D01*
X132045282Y-84820997D01*
X131969000Y-85204495D01*
X125525000Y-85204495D01*
X125448718Y-84820997D01*
X125299085Y-84459750D01*
X125081851Y-84134636D01*
X124805364Y-83858149D01*
X124480250Y-83640915D01*
X124119003Y-83491282D01*
X123735505Y-83415000D01*
X123344495Y-83415000D01*
X122960997Y-83491282D01*
X122599750Y-83640915D01*
X122274636Y-83858149D01*
X121998149Y-84134636D01*
X121780915Y-84459750D01*
X121631282Y-84820997D01*
X121555000Y-85204495D01*
X99673000Y-85204495D01*
X99596718Y-84820997D01*
X99447085Y-84459750D01*
X99229851Y-84134636D01*
X98953364Y-83858149D01*
X98628250Y-83640915D01*
X98267003Y-83491282D01*
X97883505Y-83415000D01*
X97492495Y-83415000D01*
X97108997Y-83491282D01*
X96747750Y-83640915D01*
X96422636Y-83858149D01*
X96146149Y-84134636D01*
X95928915Y-84459750D01*
X95779282Y-84820997D01*
X95703000Y-85204495D01*
X89259000Y-85204495D01*
X89182718Y-84820997D01*
X89033085Y-84459750D01*
X88815851Y-84134636D01*
X88539364Y-83858149D01*
X88214250Y-83640915D01*
X87853003Y-83491282D01*
X87469505Y-83415000D01*
X87078495Y-83415000D01*
X86694997Y-83491282D01*
X86333750Y-83640915D01*
X86008636Y-83858149D01*
X85732149Y-84134636D01*
X85514915Y-84459750D01*
X85365282Y-84820997D01*
X85289000Y-85204495D01*
X78845000Y-85204495D01*
X78768718Y-84820997D01*
X78619085Y-84459750D01*
X78401851Y-84134636D01*
X78125364Y-83858149D01*
X77800250Y-83640915D01*
X77439003Y-83491282D01*
X77055505Y-83415000D01*
X76664495Y-83415000D01*
X76280997Y-83491282D01*
X75919750Y-83640915D01*
X75594636Y-83858149D01*
X75318149Y-84134636D01*
X75100915Y-84459750D01*
X74951282Y-84820997D01*
X74875000Y-85204495D01*
X68431000Y-85204495D01*
X68354718Y-84820997D01*
X68205085Y-84459750D01*
X67987851Y-84134636D01*
X67711364Y-83858149D01*
X67386250Y-83640915D01*
X67025003Y-83491282D01*
X66641505Y-83415000D01*
X66250495Y-83415000D01*
X65866997Y-83491282D01*
X65505750Y-83640915D01*
X65180636Y-83858149D01*
X64904149Y-84134636D01*
X64686915Y-84459750D01*
X64537282Y-84820997D01*
X64461000Y-85204495D01*
X36270000Y-85204495D01*
X36270000Y-77100000D01*
X64402243Y-77100000D01*
X64437190Y-77454822D01*
X64540688Y-77796008D01*
X64708759Y-78110447D01*
X64934945Y-78386055D01*
X65210553Y-78612241D01*
X65524992Y-78780312D01*
X65866178Y-78883810D01*
X66132089Y-78910000D01*
X66759911Y-78910000D01*
X67025822Y-78883810D01*
X67367008Y-78780312D01*
X67681447Y-78612241D01*
X67957055Y-78386055D01*
X68183241Y-78110447D01*
X68351312Y-77796008D01*
X68454810Y-77454822D01*
X68489757Y-77100000D01*
X74816243Y-77100000D01*
X74851190Y-77454822D01*
X74954688Y-77796008D01*
X75122759Y-78110447D01*
X75348945Y-78386055D01*
X75624553Y-78612241D01*
X75938992Y-78780312D01*
X76280178Y-78883810D01*
X76546089Y-78910000D01*
X77173911Y-78910000D01*
X77439822Y-78883810D01*
X77781008Y-78780312D01*
X78095447Y-78612241D01*
X78371055Y-78386055D01*
X78597241Y-78110447D01*
X78765312Y-77796008D01*
X78868810Y-77454822D01*
X78903757Y-77100000D01*
X85230243Y-77100000D01*
X85265190Y-77454822D01*
X85368688Y-77796008D01*
X85536759Y-78110447D01*
X85762945Y-78386055D01*
X86038553Y-78612241D01*
X86352992Y-78780312D01*
X86694178Y-78883810D01*
X86960089Y-78910000D01*
X87587911Y-78910000D01*
X87853822Y-78883810D01*
X88195008Y-78780312D01*
X88509447Y-78612241D01*
X88785055Y-78386055D01*
X89011241Y-78110447D01*
X89179312Y-77796008D01*
X89282810Y-77454822D01*
X89317757Y-77100000D01*
X95644243Y-77100000D01*
X95679190Y-77454822D01*
X95782688Y-77796008D01*
X95950759Y-78110447D01*
X96176945Y-78386055D01*
X96452553Y-78612241D01*
X96766992Y-78780312D01*
X97108178Y-78883810D01*
X97374089Y-78910000D01*
X98001911Y-78910000D01*
X98267822Y-78883810D01*
X98609008Y-78780312D01*
X98923447Y-78612241D01*
X99199055Y-78386055D01*
X99425241Y-78110447D01*
X99593312Y-77796008D01*
X99696810Y-77454822D01*
X99731757Y-77100000D01*
X121496243Y-77100000D01*
X121531190Y-77454822D01*
X121634688Y-77796008D01*
X121802759Y-78110447D01*
X122028945Y-78386055D01*
X122304553Y-78612241D01*
X122618992Y-78780312D01*
X122960178Y-78883810D01*
X123226089Y-78910000D01*
X123853911Y-78910000D01*
X124119822Y-78883810D01*
X124461008Y-78780312D01*
X124775447Y-78612241D01*
X125051055Y-78386055D01*
X125277241Y-78110447D01*
X125445312Y-77796008D01*
X125548810Y-77454822D01*
X125583757Y-77100000D01*
X131910243Y-77100000D01*
X131945190Y-77454822D01*
X132048688Y-77796008D01*
X132216759Y-78110447D01*
X132442945Y-78386055D01*
X132718553Y-78612241D01*
X133032992Y-78780312D01*
X133374178Y-78883810D01*
X133640089Y-78910000D01*
X134267911Y-78910000D01*
X134533822Y-78883810D01*
X134875008Y-78780312D01*
X135189447Y-78612241D01*
X135465055Y-78386055D01*
X135691241Y-78110447D01*
X135859312Y-77796008D01*
X135962810Y-77454822D01*
X135997757Y-77100000D01*
X142324243Y-77100000D01*
X142359190Y-77454822D01*
X142462688Y-77796008D01*
X142630759Y-78110447D01*
X142856945Y-78386055D01*
X143132553Y-78612241D01*
X143446992Y-78780312D01*
X143788178Y-78883810D01*
X144054089Y-78910000D01*
X144681911Y-78910000D01*
X144947822Y-78883810D01*
X145289008Y-78780312D01*
X145603447Y-78612241D01*
X145879055Y-78386055D01*
X146105241Y-78110447D01*
X146273312Y-77796008D01*
X146376810Y-77454822D01*
X146411757Y-77100000D01*
X152738243Y-77100000D01*
X152773190Y-77454822D01*
X152876688Y-77796008D01*
X153044759Y-78110447D01*
X153270945Y-78386055D01*
X153546553Y-78612241D01*
X153860992Y-78780312D01*
X154202178Y-78883810D01*
X154468089Y-78910000D01*
X155095911Y-78910000D01*
X155361822Y-78883810D01*
X155703008Y-78780312D01*
X156017447Y-78612241D01*
X156293055Y-78386055D01*
X156519241Y-78110447D01*
X156687312Y-77796008D01*
X156790810Y-77454822D01*
X156825757Y-77100000D01*
X156790810Y-76745178D01*
X156687312Y-76403992D01*
X156519241Y-76089553D01*
X156293055Y-75813945D01*
X156160697Y-75705321D01*
X156206482Y-75700812D01*
X156326180Y-75664502D01*
X156436494Y-75605537D01*
X156533185Y-75526185D01*
X156612537Y-75429494D01*
X156671502Y-75319180D01*
X156707812Y-75199482D01*
X156720072Y-75075000D01*
X156717000Y-74285750D01*
X156558250Y-74127000D01*
X154909000Y-74127000D01*
X154909000Y-74147000D01*
X154655000Y-74147000D01*
X154655000Y-74127000D01*
X153005750Y-74127000D01*
X152847000Y-74285750D01*
X152843928Y-75075000D01*
X152856188Y-75199482D01*
X152892498Y-75319180D01*
X152951463Y-75429494D01*
X153030815Y-75526185D01*
X153127506Y-75605537D01*
X153237820Y-75664502D01*
X153357518Y-75700812D01*
X153403303Y-75705321D01*
X153270945Y-75813945D01*
X153044759Y-76089553D01*
X152876688Y-76403992D01*
X152773190Y-76745178D01*
X152738243Y-77100000D01*
X146411757Y-77100000D01*
X146376810Y-76745178D01*
X146273312Y-76403992D01*
X146105241Y-76089553D01*
X145879055Y-75813945D01*
X145746697Y-75705321D01*
X145792482Y-75700812D01*
X145912180Y-75664502D01*
X146022494Y-75605537D01*
X146119185Y-75526185D01*
X146198537Y-75429494D01*
X146257502Y-75319180D01*
X146293812Y-75199482D01*
X146306072Y-75075000D01*
X146303000Y-74285750D01*
X146144250Y-74127000D01*
X144495000Y-74127000D01*
X144495000Y-74147000D01*
X144241000Y-74147000D01*
X144241000Y-74127000D01*
X142591750Y-74127000D01*
X142433000Y-74285750D01*
X142429928Y-75075000D01*
X142442188Y-75199482D01*
X142478498Y-75319180D01*
X142537463Y-75429494D01*
X142616815Y-75526185D01*
X142713506Y-75605537D01*
X142823820Y-75664502D01*
X142943518Y-75700812D01*
X142989303Y-75705321D01*
X142856945Y-75813945D01*
X142630759Y-76089553D01*
X142462688Y-76403992D01*
X142359190Y-76745178D01*
X142324243Y-77100000D01*
X135997757Y-77100000D01*
X135962810Y-76745178D01*
X135859312Y-76403992D01*
X135691241Y-76089553D01*
X135465055Y-75813945D01*
X135332697Y-75705321D01*
X135378482Y-75700812D01*
X135498180Y-75664502D01*
X135608494Y-75605537D01*
X135705185Y-75526185D01*
X135784537Y-75429494D01*
X135843502Y-75319180D01*
X135879812Y-75199482D01*
X135892072Y-75075000D01*
X135889000Y-74285750D01*
X135730250Y-74127000D01*
X134081000Y-74127000D01*
X134081000Y-74147000D01*
X133827000Y-74147000D01*
X133827000Y-74127000D01*
X132177750Y-74127000D01*
X132019000Y-74285750D01*
X132015928Y-75075000D01*
X132028188Y-75199482D01*
X132064498Y-75319180D01*
X132123463Y-75429494D01*
X132202815Y-75526185D01*
X132299506Y-75605537D01*
X132409820Y-75664502D01*
X132529518Y-75700812D01*
X132575303Y-75705321D01*
X132442945Y-75813945D01*
X132216759Y-76089553D01*
X132048688Y-76403992D01*
X131945190Y-76745178D01*
X131910243Y-77100000D01*
X125583757Y-77100000D01*
X125548810Y-76745178D01*
X125445312Y-76403992D01*
X125277241Y-76089553D01*
X125051055Y-75813945D01*
X124918697Y-75705321D01*
X124964482Y-75700812D01*
X125084180Y-75664502D01*
X125194494Y-75605537D01*
X125291185Y-75526185D01*
X125370537Y-75429494D01*
X125429502Y-75319180D01*
X125465812Y-75199482D01*
X125478072Y-75075000D01*
X125475000Y-74285750D01*
X125316250Y-74127000D01*
X123667000Y-74127000D01*
X123667000Y-74147000D01*
X123413000Y-74147000D01*
X123413000Y-74127000D01*
X121763750Y-74127000D01*
X121605000Y-74285750D01*
X121601928Y-75075000D01*
X121614188Y-75199482D01*
X121650498Y-75319180D01*
X121709463Y-75429494D01*
X121788815Y-75526185D01*
X121885506Y-75605537D01*
X121995820Y-75664502D01*
X122115518Y-75700812D01*
X122161303Y-75705321D01*
X122028945Y-75813945D01*
X121802759Y-76089553D01*
X121634688Y-76403992D01*
X121531190Y-76745178D01*
X121496243Y-77100000D01*
X99731757Y-77100000D01*
X99696810Y-76745178D01*
X99593312Y-76403992D01*
X99425241Y-76089553D01*
X99199055Y-75813945D01*
X99066697Y-75705321D01*
X99112482Y-75700812D01*
X99232180Y-75664502D01*
X99342494Y-75605537D01*
X99439185Y-75526185D01*
X99518537Y-75429494D01*
X99577502Y-75319180D01*
X99613812Y-75199482D01*
X99626072Y-75075000D01*
X99623000Y-74285750D01*
X99464250Y-74127000D01*
X97815000Y-74127000D01*
X97815000Y-74147000D01*
X97561000Y-74147000D01*
X97561000Y-74127000D01*
X95911750Y-74127000D01*
X95753000Y-74285750D01*
X95749928Y-75075000D01*
X95762188Y-75199482D01*
X95798498Y-75319180D01*
X95857463Y-75429494D01*
X95936815Y-75526185D01*
X96033506Y-75605537D01*
X96143820Y-75664502D01*
X96263518Y-75700812D01*
X96309303Y-75705321D01*
X96176945Y-75813945D01*
X95950759Y-76089553D01*
X95782688Y-76403992D01*
X95679190Y-76745178D01*
X95644243Y-77100000D01*
X89317757Y-77100000D01*
X89282810Y-76745178D01*
X89179312Y-76403992D01*
X89011241Y-76089553D01*
X88785055Y-75813945D01*
X88652697Y-75705321D01*
X88698482Y-75700812D01*
X88818180Y-75664502D01*
X88928494Y-75605537D01*
X89025185Y-75526185D01*
X89104537Y-75429494D01*
X89163502Y-75319180D01*
X89199812Y-75199482D01*
X89212072Y-75075000D01*
X89209000Y-74285750D01*
X89050250Y-74127000D01*
X87401000Y-74127000D01*
X87401000Y-74147000D01*
X87147000Y-74147000D01*
X87147000Y-74127000D01*
X85497750Y-74127000D01*
X85339000Y-74285750D01*
X85335928Y-75075000D01*
X85348188Y-75199482D01*
X85384498Y-75319180D01*
X85443463Y-75429494D01*
X85522815Y-75526185D01*
X85619506Y-75605537D01*
X85729820Y-75664502D01*
X85849518Y-75700812D01*
X85895303Y-75705321D01*
X85762945Y-75813945D01*
X85536759Y-76089553D01*
X85368688Y-76403992D01*
X85265190Y-76745178D01*
X85230243Y-77100000D01*
X78903757Y-77100000D01*
X78868810Y-76745178D01*
X78765312Y-76403992D01*
X78597241Y-76089553D01*
X78371055Y-75813945D01*
X78238697Y-75705321D01*
X78284482Y-75700812D01*
X78404180Y-75664502D01*
X78514494Y-75605537D01*
X78611185Y-75526185D01*
X78690537Y-75429494D01*
X78749502Y-75319180D01*
X78785812Y-75199482D01*
X78798072Y-75075000D01*
X78795000Y-74285750D01*
X78636250Y-74127000D01*
X76987000Y-74127000D01*
X76987000Y-74147000D01*
X76733000Y-74147000D01*
X76733000Y-74127000D01*
X75083750Y-74127000D01*
X74925000Y-74285750D01*
X74921928Y-75075000D01*
X74934188Y-75199482D01*
X74970498Y-75319180D01*
X75029463Y-75429494D01*
X75108815Y-75526185D01*
X75205506Y-75605537D01*
X75315820Y-75664502D01*
X75435518Y-75700812D01*
X75481303Y-75705321D01*
X75348945Y-75813945D01*
X75122759Y-76089553D01*
X74954688Y-76403992D01*
X74851190Y-76745178D01*
X74816243Y-77100000D01*
X68489757Y-77100000D01*
X68454810Y-76745178D01*
X68351312Y-76403992D01*
X68183241Y-76089553D01*
X67957055Y-75813945D01*
X67824697Y-75705321D01*
X67870482Y-75700812D01*
X67990180Y-75664502D01*
X68100494Y-75605537D01*
X68197185Y-75526185D01*
X68276537Y-75429494D01*
X68335502Y-75319180D01*
X68371812Y-75199482D01*
X68384072Y-75075000D01*
X68381000Y-74285750D01*
X68222250Y-74127000D01*
X66573000Y-74127000D01*
X66573000Y-74147000D01*
X66319000Y-74147000D01*
X66319000Y-74127000D01*
X64669750Y-74127000D01*
X64511000Y-74285750D01*
X64507928Y-75075000D01*
X64520188Y-75199482D01*
X64556498Y-75319180D01*
X64615463Y-75429494D01*
X64694815Y-75526185D01*
X64791506Y-75605537D01*
X64901820Y-75664502D01*
X65021518Y-75700812D01*
X65067303Y-75705321D01*
X64934945Y-75813945D01*
X64708759Y-76089553D01*
X64540688Y-76403992D01*
X64437190Y-76745178D01*
X64402243Y-77100000D01*
X36270000Y-77100000D01*
X36270000Y-72925000D01*
X64507928Y-72925000D01*
X64511000Y-73714250D01*
X64669750Y-73873000D01*
X66319000Y-73873000D01*
X66319000Y-72448750D01*
X66573000Y-72448750D01*
X66573000Y-73873000D01*
X68222250Y-73873000D01*
X68381000Y-73714250D01*
X68384072Y-72925000D01*
X74921928Y-72925000D01*
X74925000Y-73714250D01*
X75083750Y-73873000D01*
X76733000Y-73873000D01*
X76733000Y-72448750D01*
X76987000Y-72448750D01*
X76987000Y-73873000D01*
X78636250Y-73873000D01*
X78795000Y-73714250D01*
X78798072Y-72925000D01*
X85335928Y-72925000D01*
X85339000Y-73714250D01*
X85497750Y-73873000D01*
X87147000Y-73873000D01*
X87147000Y-72448750D01*
X87401000Y-72448750D01*
X87401000Y-73873000D01*
X89050250Y-73873000D01*
X89209000Y-73714250D01*
X89212072Y-72925000D01*
X95749928Y-72925000D01*
X95753000Y-73714250D01*
X95911750Y-73873000D01*
X97561000Y-73873000D01*
X97561000Y-72448750D01*
X97815000Y-72448750D01*
X97815000Y-73873000D01*
X99464250Y-73873000D01*
X99623000Y-73714250D01*
X99626072Y-72925000D01*
X121601928Y-72925000D01*
X121605000Y-73714250D01*
X121763750Y-73873000D01*
X123413000Y-73873000D01*
X123413000Y-72448750D01*
X123667000Y-72448750D01*
X123667000Y-73873000D01*
X125316250Y-73873000D01*
X125475000Y-73714250D01*
X125478072Y-72925000D01*
X132015928Y-72925000D01*
X132019000Y-73714250D01*
X132177750Y-73873000D01*
X133827000Y-73873000D01*
X133827000Y-72448750D01*
X134081000Y-72448750D01*
X134081000Y-73873000D01*
X135730250Y-73873000D01*
X135889000Y-73714250D01*
X135892072Y-72925000D01*
X142429928Y-72925000D01*
X142433000Y-73714250D01*
X142591750Y-73873000D01*
X144241000Y-73873000D01*
X144241000Y-72448750D01*
X144495000Y-72448750D01*
X144495000Y-73873000D01*
X146144250Y-73873000D01*
X146303000Y-73714250D01*
X146306072Y-72925000D01*
X152843928Y-72925000D01*
X152847000Y-73714250D01*
X153005750Y-73873000D01*
X154655000Y-73873000D01*
X154655000Y-72448750D01*
X154909000Y-72448750D01*
X154909000Y-73873000D01*
X156558250Y-73873000D01*
X156717000Y-73714250D01*
X156720072Y-72925000D01*
X156707812Y-72800518D01*
X156671502Y-72680820D01*
X156612537Y-72570506D01*
X156533185Y-72473815D01*
X156436494Y-72394463D01*
X156326180Y-72335498D01*
X156206482Y-72299188D01*
X156082000Y-72286928D01*
X155067750Y-72290000D01*
X154909000Y-72448750D01*
X154655000Y-72448750D01*
X154496250Y-72290000D01*
X153482000Y-72286928D01*
X153357518Y-72299188D01*
X153237820Y-72335498D01*
X153127506Y-72394463D01*
X153030815Y-72473815D01*
X152951463Y-72570506D01*
X152892498Y-72680820D01*
X152856188Y-72800518D01*
X152843928Y-72925000D01*
X146306072Y-72925000D01*
X146293812Y-72800518D01*
X146257502Y-72680820D01*
X146198537Y-72570506D01*
X146119185Y-72473815D01*
X146022494Y-72394463D01*
X145912180Y-72335498D01*
X145792482Y-72299188D01*
X145668000Y-72286928D01*
X144653750Y-72290000D01*
X144495000Y-72448750D01*
X144241000Y-72448750D01*
X144082250Y-72290000D01*
X143068000Y-72286928D01*
X142943518Y-72299188D01*
X142823820Y-72335498D01*
X142713506Y-72394463D01*
X142616815Y-72473815D01*
X142537463Y-72570506D01*
X142478498Y-72680820D01*
X142442188Y-72800518D01*
X142429928Y-72925000D01*
X135892072Y-72925000D01*
X135879812Y-72800518D01*
X135843502Y-72680820D01*
X135784537Y-72570506D01*
X135705185Y-72473815D01*
X135608494Y-72394463D01*
X135498180Y-72335498D01*
X135378482Y-72299188D01*
X135254000Y-72286928D01*
X134239750Y-72290000D01*
X134081000Y-72448750D01*
X133827000Y-72448750D01*
X133668250Y-72290000D01*
X132654000Y-72286928D01*
X132529518Y-72299188D01*
X132409820Y-72335498D01*
X132299506Y-72394463D01*
X132202815Y-72473815D01*
X132123463Y-72570506D01*
X132064498Y-72680820D01*
X132028188Y-72800518D01*
X132015928Y-72925000D01*
X125478072Y-72925000D01*
X125465812Y-72800518D01*
X125429502Y-72680820D01*
X125370537Y-72570506D01*
X125291185Y-72473815D01*
X125194494Y-72394463D01*
X125084180Y-72335498D01*
X124964482Y-72299188D01*
X124840000Y-72286928D01*
X123825750Y-72290000D01*
X123667000Y-72448750D01*
X123413000Y-72448750D01*
X123254250Y-72290000D01*
X122240000Y-72286928D01*
X122115518Y-72299188D01*
X121995820Y-72335498D01*
X121885506Y-72394463D01*
X121788815Y-72473815D01*
X121709463Y-72570506D01*
X121650498Y-72680820D01*
X121614188Y-72800518D01*
X121601928Y-72925000D01*
X99626072Y-72925000D01*
X99613812Y-72800518D01*
X99577502Y-72680820D01*
X99518537Y-72570506D01*
X99439185Y-72473815D01*
X99342494Y-72394463D01*
X99232180Y-72335498D01*
X99112482Y-72299188D01*
X98988000Y-72286928D01*
X97973750Y-72290000D01*
X97815000Y-72448750D01*
X97561000Y-72448750D01*
X97402250Y-72290000D01*
X96388000Y-72286928D01*
X96263518Y-72299188D01*
X96143820Y-72335498D01*
X96033506Y-72394463D01*
X95936815Y-72473815D01*
X95857463Y-72570506D01*
X95798498Y-72680820D01*
X95762188Y-72800518D01*
X95749928Y-72925000D01*
X89212072Y-72925000D01*
X89199812Y-72800518D01*
X89163502Y-72680820D01*
X89104537Y-72570506D01*
X89025185Y-72473815D01*
X88928494Y-72394463D01*
X88818180Y-72335498D01*
X88698482Y-72299188D01*
X88574000Y-72286928D01*
X87559750Y-72290000D01*
X87401000Y-72448750D01*
X87147000Y-72448750D01*
X86988250Y-72290000D01*
X85974000Y-72286928D01*
X85849518Y-72299188D01*
X85729820Y-72335498D01*
X85619506Y-72394463D01*
X85522815Y-72473815D01*
X85443463Y-72570506D01*
X85384498Y-72680820D01*
X85348188Y-72800518D01*
X85335928Y-72925000D01*
X78798072Y-72925000D01*
X78785812Y-72800518D01*
X78749502Y-72680820D01*
X78690537Y-72570506D01*
X78611185Y-72473815D01*
X78514494Y-72394463D01*
X78404180Y-72335498D01*
X78284482Y-72299188D01*
X78160000Y-72286928D01*
X77145750Y-72290000D01*
X76987000Y-72448750D01*
X76733000Y-72448750D01*
X76574250Y-72290000D01*
X75560000Y-72286928D01*
X75435518Y-72299188D01*
X75315820Y-72335498D01*
X75205506Y-72394463D01*
X75108815Y-72473815D01*
X75029463Y-72570506D01*
X74970498Y-72680820D01*
X74934188Y-72800518D01*
X74921928Y-72925000D01*
X68384072Y-72925000D01*
X68371812Y-72800518D01*
X68335502Y-72680820D01*
X68276537Y-72570506D01*
X68197185Y-72473815D01*
X68100494Y-72394463D01*
X67990180Y-72335498D01*
X67870482Y-72299188D01*
X67746000Y-72286928D01*
X66731750Y-72290000D01*
X66573000Y-72448750D01*
X66319000Y-72448750D01*
X66160250Y-72290000D01*
X65146000Y-72286928D01*
X65021518Y-72299188D01*
X64901820Y-72335498D01*
X64791506Y-72394463D01*
X64694815Y-72473815D01*
X64615463Y-72570506D01*
X64556498Y-72680820D01*
X64520188Y-72800518D01*
X64507928Y-72925000D01*
X36270000Y-72925000D01*
X36270000Y-71032000D01*
X185201928Y-71032000D01*
X185201928Y-72732000D01*
X185214188Y-72856482D01*
X185250498Y-72976180D01*
X185309463Y-73086494D01*
X185388815Y-73183185D01*
X185485506Y-73262537D01*
X185595820Y-73321502D01*
X185715518Y-73357812D01*
X185840000Y-73370072D01*
X187540000Y-73370072D01*
X187664482Y-73357812D01*
X187784180Y-73321502D01*
X187894494Y-73262537D01*
X187991185Y-73183185D01*
X188070537Y-73086494D01*
X188129502Y-72976180D01*
X188165812Y-72856482D01*
X188178072Y-72732000D01*
X188178072Y-71032000D01*
X188165812Y-70907518D01*
X188129502Y-70787820D01*
X188070537Y-70677506D01*
X187991185Y-70580815D01*
X187894494Y-70501463D01*
X187784180Y-70442498D01*
X187703534Y-70418034D01*
X187787588Y-70342269D01*
X187961641Y-70108920D01*
X188086825Y-69846099D01*
X188131476Y-69698890D01*
X188010155Y-69469000D01*
X186817000Y-69469000D01*
X186817000Y-69489000D01*
X186563000Y-69489000D01*
X186563000Y-69469000D01*
X185369845Y-69469000D01*
X185248524Y-69698890D01*
X185293175Y-69846099D01*
X185418359Y-70108920D01*
X185592412Y-70342269D01*
X185676466Y-70418034D01*
X185595820Y-70442498D01*
X185485506Y-70501463D01*
X185388815Y-70580815D01*
X185309463Y-70677506D01*
X185250498Y-70787820D01*
X185214188Y-70907518D01*
X185201928Y-71032000D01*
X36270000Y-71032000D01*
X36270000Y-67170495D01*
X64461000Y-67170495D01*
X64461000Y-67561505D01*
X64537282Y-67945003D01*
X64686915Y-68306250D01*
X64904149Y-68631364D01*
X65180636Y-68907851D01*
X65505750Y-69125085D01*
X65866997Y-69274718D01*
X66250495Y-69351000D01*
X66641505Y-69351000D01*
X67025003Y-69274718D01*
X67386250Y-69125085D01*
X67711364Y-68907851D01*
X67987851Y-68631364D01*
X68205085Y-68306250D01*
X68354718Y-67945003D01*
X68431000Y-67561505D01*
X68431000Y-67170495D01*
X74875000Y-67170495D01*
X74875000Y-67561505D01*
X74951282Y-67945003D01*
X75100915Y-68306250D01*
X75318149Y-68631364D01*
X75594636Y-68907851D01*
X75919750Y-69125085D01*
X76280997Y-69274718D01*
X76664495Y-69351000D01*
X77055505Y-69351000D01*
X77439003Y-69274718D01*
X77800250Y-69125085D01*
X78125364Y-68907851D01*
X78401851Y-68631364D01*
X78619085Y-68306250D01*
X78768718Y-67945003D01*
X78845000Y-67561505D01*
X78845000Y-67170495D01*
X85289000Y-67170495D01*
X85289000Y-67561505D01*
X85365282Y-67945003D01*
X85514915Y-68306250D01*
X85732149Y-68631364D01*
X86008636Y-68907851D01*
X86333750Y-69125085D01*
X86694997Y-69274718D01*
X87078495Y-69351000D01*
X87469505Y-69351000D01*
X87853003Y-69274718D01*
X88214250Y-69125085D01*
X88539364Y-68907851D01*
X88815851Y-68631364D01*
X89033085Y-68306250D01*
X89182718Y-67945003D01*
X89259000Y-67561505D01*
X89259000Y-67170495D01*
X89182718Y-66786997D01*
X89033085Y-66425750D01*
X88815851Y-66100636D01*
X88539364Y-65824149D01*
X88214250Y-65606915D01*
X87853003Y-65457282D01*
X87469505Y-65381000D01*
X87078495Y-65381000D01*
X86694997Y-65457282D01*
X86333750Y-65606915D01*
X86008636Y-65824149D01*
X85732149Y-66100636D01*
X85514915Y-66425750D01*
X85365282Y-66786997D01*
X85289000Y-67170495D01*
X78845000Y-67170495D01*
X78768718Y-66786997D01*
X78619085Y-66425750D01*
X78401851Y-66100636D01*
X78125364Y-65824149D01*
X77800250Y-65606915D01*
X77439003Y-65457282D01*
X77055505Y-65381000D01*
X76664495Y-65381000D01*
X76280997Y-65457282D01*
X75919750Y-65606915D01*
X75594636Y-65824149D01*
X75318149Y-66100636D01*
X75100915Y-66425750D01*
X74951282Y-66786997D01*
X74875000Y-67170495D01*
X68431000Y-67170495D01*
X68354718Y-66786997D01*
X68205085Y-66425750D01*
X67987851Y-66100636D01*
X67711364Y-65824149D01*
X67386250Y-65606915D01*
X67025003Y-65457282D01*
X66641505Y-65381000D01*
X66250495Y-65381000D01*
X65866997Y-65457282D01*
X65505750Y-65606915D01*
X65180636Y-65824149D01*
X64904149Y-66100636D01*
X64686915Y-66425750D01*
X64537282Y-66786997D01*
X64461000Y-67170495D01*
X36270000Y-67170495D01*
X36270000Y-62898061D01*
X82765000Y-62898061D01*
X82765000Y-63101939D01*
X82804774Y-63301898D01*
X82882795Y-63490256D01*
X82996063Y-63659774D01*
X83140226Y-63803937D01*
X83309744Y-63917205D01*
X83498102Y-63995226D01*
X83698061Y-64035000D01*
X83901939Y-64035000D01*
X84101898Y-63995226D01*
X84290256Y-63917205D01*
X84459774Y-63803937D01*
X84503711Y-63760000D01*
X93007199Y-63760000D01*
X95853944Y-66606746D01*
X95779282Y-66786997D01*
X95703000Y-67170495D01*
X95703000Y-67561505D01*
X95779282Y-67945003D01*
X95928915Y-68306250D01*
X96146149Y-68631364D01*
X96422636Y-68907851D01*
X96747750Y-69125085D01*
X97108997Y-69274718D01*
X97492495Y-69351000D01*
X97883505Y-69351000D01*
X98267003Y-69274718D01*
X98628250Y-69125085D01*
X98953364Y-68907851D01*
X99229851Y-68631364D01*
X99447085Y-68306250D01*
X99596718Y-67945003D01*
X99673000Y-67561505D01*
X99673000Y-67170495D01*
X99596718Y-66786997D01*
X99447085Y-66425750D01*
X99229851Y-66100636D01*
X98953364Y-65824149D01*
X98628250Y-65606915D01*
X98267003Y-65457282D01*
X97883505Y-65381000D01*
X97492495Y-65381000D01*
X97108997Y-65457282D01*
X96928746Y-65531944D01*
X93885804Y-62489003D01*
X93862001Y-62459999D01*
X93746276Y-62365026D01*
X93614247Y-62294454D01*
X93470986Y-62250997D01*
X93359333Y-62240000D01*
X93359322Y-62240000D01*
X93322000Y-62236324D01*
X93284678Y-62240000D01*
X84503711Y-62240000D01*
X84459774Y-62196063D01*
X84290256Y-62082795D01*
X84101898Y-62004774D01*
X83901939Y-61965000D01*
X83698061Y-61965000D01*
X83498102Y-62004774D01*
X83309744Y-62082795D01*
X83140226Y-62196063D01*
X82996063Y-62340226D01*
X82882795Y-62509744D01*
X82804774Y-62698102D01*
X82765000Y-62898061D01*
X36270000Y-62898061D01*
X36270000Y-59066000D01*
X64402243Y-59066000D01*
X64437190Y-59420822D01*
X64540688Y-59762008D01*
X64708759Y-60076447D01*
X64934945Y-60352055D01*
X65210553Y-60578241D01*
X65524992Y-60746312D01*
X65866178Y-60849810D01*
X66132089Y-60876000D01*
X66759911Y-60876000D01*
X67025822Y-60849810D01*
X67367008Y-60746312D01*
X67681447Y-60578241D01*
X67957055Y-60352055D01*
X68183241Y-60076447D01*
X68351312Y-59762008D01*
X68454810Y-59420822D01*
X68489757Y-59066000D01*
X68454810Y-58711178D01*
X68351312Y-58369992D01*
X68183241Y-58055553D01*
X67957055Y-57779945D01*
X67824697Y-57671321D01*
X67870482Y-57666812D01*
X67990180Y-57630502D01*
X68100494Y-57571537D01*
X68197185Y-57492185D01*
X68276537Y-57395494D01*
X68335502Y-57285180D01*
X68371812Y-57165482D01*
X68384072Y-57041000D01*
X68381000Y-56251750D01*
X68222250Y-56093000D01*
X66573000Y-56093000D01*
X66573000Y-56113000D01*
X66319000Y-56113000D01*
X66319000Y-56093000D01*
X64669750Y-56093000D01*
X64511000Y-56251750D01*
X64507928Y-57041000D01*
X64520188Y-57165482D01*
X64556498Y-57285180D01*
X64615463Y-57395494D01*
X64694815Y-57492185D01*
X64791506Y-57571537D01*
X64901820Y-57630502D01*
X65021518Y-57666812D01*
X65067303Y-57671321D01*
X64934945Y-57779945D01*
X64708759Y-58055553D01*
X64540688Y-58369992D01*
X64437190Y-58711178D01*
X64402243Y-59066000D01*
X36270000Y-59066000D01*
X36270000Y-54891000D01*
X64507928Y-54891000D01*
X64511000Y-55680250D01*
X64669750Y-55839000D01*
X66319000Y-55839000D01*
X66319000Y-54414750D01*
X66573000Y-54414750D01*
X66573000Y-55839000D01*
X68222250Y-55839000D01*
X68381000Y-55680250D01*
X68384072Y-54891000D01*
X74921928Y-54891000D01*
X74925000Y-55680250D01*
X75083750Y-55839000D01*
X76733000Y-55839000D01*
X76733000Y-54414750D01*
X76574250Y-54256000D01*
X75560000Y-54252928D01*
X75435518Y-54265188D01*
X75315820Y-54301498D01*
X75205506Y-54360463D01*
X75108815Y-54439815D01*
X75029463Y-54536506D01*
X74970498Y-54646820D01*
X74934188Y-54766518D01*
X74921928Y-54891000D01*
X68384072Y-54891000D01*
X68371812Y-54766518D01*
X68335502Y-54646820D01*
X68276537Y-54536506D01*
X68197185Y-54439815D01*
X68100494Y-54360463D01*
X67990180Y-54301498D01*
X67870482Y-54265188D01*
X67746000Y-54252928D01*
X66731750Y-54256000D01*
X66573000Y-54414750D01*
X66319000Y-54414750D01*
X66160250Y-54256000D01*
X65146000Y-54252928D01*
X65021518Y-54265188D01*
X64901820Y-54301498D01*
X64791506Y-54360463D01*
X64694815Y-54439815D01*
X64615463Y-54536506D01*
X64556498Y-54646820D01*
X64520188Y-54766518D01*
X64507928Y-54891000D01*
X36270000Y-54891000D01*
X36270000Y-33083560D01*
X36609554Y-33423114D01*
X37123021Y-33766201D01*
X37693554Y-34002524D01*
X38299229Y-34123000D01*
X38916771Y-34123000D01*
X39522446Y-34002524D01*
X40092979Y-33766201D01*
X40606446Y-33423114D01*
X41043114Y-32986446D01*
X41386201Y-32472979D01*
X41622524Y-31902446D01*
X41743000Y-31296771D01*
X41743000Y-30679229D01*
X41622524Y-30073554D01*
X41386201Y-29503021D01*
X41043114Y-28989554D01*
X40703560Y-28650000D01*
X66537883Y-28650000D01*
X66473751Y-28669454D01*
G36*
X85527000Y-32673000D02*
G01*
X85547000Y-32673000D01*
X85547000Y-32927000D01*
X85527000Y-32927000D01*
X85527000Y-35213000D01*
X85547000Y-35213000D01*
X85547000Y-35467000D01*
X85527000Y-35467000D01*
X85527000Y-35487000D01*
X85273000Y-35487000D01*
X85273000Y-35467000D01*
X85253000Y-35467000D01*
X85253000Y-35213000D01*
X85273000Y-35213000D01*
X85273000Y-32927000D01*
X85253000Y-32927000D01*
X85253000Y-32673000D01*
X85273000Y-32673000D01*
X85273000Y-32653000D01*
X85527000Y-32653000D01*
X85527000Y-32673000D01*
G37*
X85527000Y-32673000D02*
X85547000Y-32673000D01*
X85547000Y-32927000D01*
X85527000Y-32927000D01*
X85527000Y-35213000D01*
X85547000Y-35213000D01*
X85547000Y-35467000D01*
X85527000Y-35467000D01*
X85527000Y-35487000D01*
X85273000Y-35487000D01*
X85273000Y-35467000D01*
X85253000Y-35467000D01*
X85253000Y-35213000D01*
X85273000Y-35213000D01*
X85273000Y-32927000D01*
X85253000Y-32927000D01*
X85253000Y-32673000D01*
X85273000Y-32673000D01*
X85273000Y-32653000D01*
X85527000Y-32653000D01*
X85527000Y-32673000D01*
G36*
X75367000Y-32673000D02*
G01*
X75387000Y-32673000D01*
X75387000Y-32927000D01*
X75367000Y-32927000D01*
X75367000Y-32947000D01*
X75113000Y-32947000D01*
X75113000Y-32927000D01*
X75093000Y-32927000D01*
X75093000Y-32673000D01*
X75113000Y-32673000D01*
X75113000Y-32653000D01*
X75367000Y-32653000D01*
X75367000Y-32673000D01*
G37*
X75367000Y-32673000D02*
X75387000Y-32673000D01*
X75387000Y-32927000D01*
X75367000Y-32927000D01*
X75367000Y-32947000D01*
X75113000Y-32947000D01*
X75113000Y-32927000D01*
X75093000Y-32927000D01*
X75093000Y-32673000D01*
X75113000Y-32673000D01*
X75113000Y-32653000D01*
X75367000Y-32653000D01*
X75367000Y-32673000D01*
G36*
X103307000Y-32673000D02*
G01*
X103327000Y-32673000D01*
X103327000Y-32927000D01*
X103307000Y-32927000D01*
X103307000Y-32947000D01*
X103053000Y-32947000D01*
X103053000Y-32927000D01*
X103033000Y-32927000D01*
X103033000Y-32673000D01*
X103053000Y-32673000D01*
X103053000Y-32653000D01*
X103307000Y-32653000D01*
X103307000Y-32673000D01*
G37*
X103307000Y-32673000D02*
X103327000Y-32673000D01*
X103327000Y-32927000D01*
X103307000Y-32927000D01*
X103307000Y-32947000D01*
X103053000Y-32947000D01*
X103053000Y-32927000D01*
X103033000Y-32927000D01*
X103033000Y-32673000D01*
X103053000Y-32673000D01*
X103053000Y-32653000D01*
X103307000Y-32653000D01*
X103307000Y-32673000D01*
G36*
X120269000Y-32639000D02*
G01*
X122555000Y-32639000D01*
X122555000Y-32619000D01*
X122809000Y-32619000D01*
X122809000Y-32639000D01*
X122829000Y-32639000D01*
X122829000Y-32893000D01*
X122809000Y-32893000D01*
X122809000Y-32913000D01*
X122555000Y-32913000D01*
X122555000Y-32893000D01*
X120269000Y-32893000D01*
X120269000Y-32913000D01*
X120015000Y-32913000D01*
X120015000Y-32893000D01*
X119995000Y-32893000D01*
X119995000Y-32639000D01*
X120015000Y-32639000D01*
X120015000Y-32619000D01*
X120269000Y-32619000D01*
X120269000Y-32639000D01*
G37*
X120269000Y-32639000D02*
X122555000Y-32639000D01*
X122555000Y-32619000D01*
X122809000Y-32619000D01*
X122809000Y-32639000D01*
X122829000Y-32639000D01*
X122829000Y-32893000D01*
X122809000Y-32893000D01*
X122809000Y-32913000D01*
X122555000Y-32913000D01*
X122555000Y-32893000D01*
X120269000Y-32893000D01*
X120269000Y-32913000D01*
X120015000Y-32913000D01*
X120015000Y-32893000D01*
X119995000Y-32893000D01*
X119995000Y-32639000D01*
X120015000Y-32639000D01*
X120015000Y-32619000D01*
X120269000Y-32619000D01*
X120269000Y-32639000D01*
M02*
