M48
; DRILL file {KiCad 5.1.6-c6e7f7d~87~ubuntu18.04.1} date Sun Jan 10 02:13:08 2021
; FORMAT={-:-/ absolute / metric / decimal}
; #@! TF.CreationDate,2021-01-10T02:13:08+01:00
; #@! TF.GenerationSoftware,Kicad,Pcbnew,5.1.6-c6e7f7d~87~ubuntu18.04.1
; #@! TF.FileFunction,Plated,1,2,PTH
FMAT,2
METRIC
T1C0.400
T2C1.000
T3C1.600
T4C1.800
T5C2.500
%
G90
G05
T1
X83.8Y-63.0
X98.0Y-41.6
X98.0Y-43.1
X98.1Y-40.1
X98.2Y-38.7
X104.7Y-29.375
X105.348Y-53.952
X106.3Y-30.1
X135.5Y-28.9
X182.2Y-48.9
X182.2Y-50.2
X185.7Y-48.2
X186.0Y-47.0
X192.4Y-45.4
X192.4Y-46.4
T2
X120.238Y-49.108
X122.778Y-49.108
X125.318Y-49.108
X127.858Y-49.108
X130.398Y-49.108
X132.938Y-49.108
X135.478Y-49.108
X138.018Y-49.108
X186.69Y-59.182
X186.69Y-61.722
X186.69Y-64.262
X186.69Y-66.802
X186.69Y-69.342
X186.69Y-71.882
X62.89Y-49.108
X65.43Y-49.108
X67.97Y-49.108
X70.51Y-49.108
X73.05Y-49.108
X75.59Y-49.108
X78.13Y-49.108
X80.67Y-49.108
X120.142Y-32.766
X120.142Y-35.306
X122.682Y-32.766
X122.682Y-35.306
X125.222Y-32.766
X125.222Y-35.306
X127.762Y-32.766
X127.762Y-35.306
X62.54Y-32.8
X62.54Y-35.34
X65.08Y-32.8
X65.08Y-35.34
X67.62Y-32.8
X67.62Y-35.34
X70.16Y-32.8
X70.16Y-35.34
X72.7Y-32.8
X72.7Y-35.34
X75.24Y-32.8
X75.24Y-35.34
X77.78Y-32.8
X77.78Y-35.34
X80.32Y-32.8
X80.32Y-35.34
X82.86Y-32.8
X82.86Y-35.34
X85.4Y-32.8
X85.4Y-35.34
X87.94Y-32.8
X87.94Y-35.34
X90.48Y-32.8
X90.48Y-35.34
X93.02Y-32.8
X93.02Y-35.34
X95.56Y-32.8
X95.56Y-35.34
X98.1Y-32.8
X98.1Y-35.34
X100.64Y-32.8
X100.64Y-35.34
X103.18Y-32.8
X103.18Y-35.34
X105.72Y-32.8
X105.72Y-35.34
X108.26Y-32.8
X108.26Y-35.34
X110.8Y-32.8
X110.8Y-35.34
X182.88Y-55.372
X185.42Y-55.372
X187.96Y-55.372
X190.5Y-55.372
X193.04Y-55.372
X195.58Y-55.372
X140.3Y-32.8
X140.3Y-35.34
X144.368Y-49.108
X146.908Y-49.108
X149.448Y-49.108
X151.988Y-49.108
X86.512Y-49.108
X89.052Y-49.108
X91.592Y-49.108
X94.132Y-49.108
T3
X87.274Y-55.966
X76.86Y-74.0
X97.688Y-55.966
X123.54Y-55.966
X66.446Y-74.0
X133.954Y-74.0
X154.782Y-74.0
X133.954Y-55.966
X123.54Y-74.0
X97.688Y-74.0
X66.446Y-55.966
X87.274Y-74.0
X144.368Y-74.0
X76.86Y-55.966
X144.368Y-55.966
X154.782Y-55.966
T4
X144.368Y-77.1
X144.368Y-85.4
X76.86Y-59.066
X76.86Y-67.366
X144.368Y-59.066
X144.368Y-67.366
X154.782Y-59.066
X154.782Y-67.366
X87.274Y-59.066
X87.274Y-67.366
X76.86Y-77.1
X76.86Y-85.4
X97.688Y-59.066
X97.688Y-67.366
X123.54Y-59.066
X123.54Y-67.366
X66.446Y-77.1
X66.446Y-85.4
X133.954Y-77.1
X133.954Y-85.4
X154.782Y-77.1
X154.782Y-85.4
X133.954Y-59.066
X133.954Y-67.366
X123.54Y-77.1
X123.54Y-85.4
X97.688Y-77.1
X97.688Y-85.4
X66.446Y-59.066
X66.446Y-67.366
X87.274Y-77.1
X87.274Y-85.4
T5
X195.072Y-90.932
X38.608Y-90.932
X38.608Y-30.988
X195.072Y-30.988
T0
M30
