G04 #@! TF.GenerationSoftware,KiCad,Pcbnew,5.1.7-a382d34a8~88~ubuntu18.04.1*
G04 #@! TF.CreationDate,2021-03-11T03:45:44+01:00*
G04 #@! TF.ProjectId,zynthiandac,7a796e74-6869-4616-9e64-61632e6b6963,rev?*
G04 #@! TF.SameCoordinates,Original*
G04 #@! TF.FileFunction,Soldermask,Top*
G04 #@! TF.FilePolarity,Negative*
%FSLAX46Y46*%
G04 Gerber Fmt 4.6, Leading zero omitted, Abs format (unit mm)*
G04 Created by KiCad (PCBNEW 5.1.7-a382d34a8~88~ubuntu18.04.1) date 2021-03-11 03:45:44*
%MOMM*%
%LPD*%
G01*
G04 APERTURE LIST*
%ADD10C,0.010000*%
%ADD11C,2.000000*%
%ADD12C,1.280000*%
%ADD13R,0.850000X0.280000*%
%ADD14R,0.280000X0.850000*%
%ADD15R,3.000000X3.000000*%
%ADD16R,1.700000X1.700000*%
%ADD17O,1.700000X1.700000*%
%ADD18R,0.650000X1.060000*%
%ADD19R,0.600000X1.400000*%
%ADD20R,1.300000X1.400000*%
%ADD21C,3.000000*%
%ADD22R,1.404099X0.279400*%
%ADD23R,1.060000X0.650000*%
%ADD24R,0.650000X0.850000*%
G04 APERTURE END LIST*
D10*
G04 #@! TO.C,G\u002A\u002A\u002A*
G36*
X68269058Y-38216878D02*
G01*
X68306566Y-38181725D01*
X68361320Y-38169250D01*
X68412075Y-38182327D01*
X68446543Y-38215866D01*
X68461367Y-38261333D01*
X68453190Y-38310193D01*
X68430000Y-38343875D01*
X68383449Y-38372165D01*
X68334654Y-38373911D01*
X68291758Y-38352573D01*
X68262904Y-38311612D01*
X68255375Y-38269680D01*
X68269058Y-38216878D01*
G37*
X68269058Y-38216878D02*
X68306566Y-38181725D01*
X68361320Y-38169250D01*
X68412075Y-38182327D01*
X68446543Y-38215866D01*
X68461367Y-38261333D01*
X68453190Y-38310193D01*
X68430000Y-38343875D01*
X68383449Y-38372165D01*
X68334654Y-38373911D01*
X68291758Y-38352573D01*
X68262904Y-38311612D01*
X68255375Y-38269680D01*
X68269058Y-38216878D01*
G36*
X68676644Y-34981138D02*
G01*
X68677794Y-34898939D01*
X68680284Y-34837319D01*
X68684636Y-34790694D01*
X68691372Y-34753479D01*
X68701016Y-34720088D01*
X68714089Y-34684938D01*
X68714188Y-34684688D01*
X68768858Y-34584075D01*
X68843964Y-34502046D01*
X68934413Y-34443646D01*
X68973192Y-34428216D01*
X68993805Y-34422201D01*
X69018332Y-34417063D01*
X69049416Y-34412712D01*
X69089701Y-34409057D01*
X69141832Y-34406009D01*
X69208451Y-34403478D01*
X69292204Y-34401374D01*
X69395733Y-34399607D01*
X69521683Y-34398088D01*
X69672699Y-34396726D01*
X69851422Y-34395431D01*
X69957968Y-34394744D01*
X70858875Y-34389099D01*
X70858875Y-34518000D01*
X70010343Y-34518000D01*
X69799945Y-34518339D01*
X69613974Y-34519342D01*
X69453589Y-34520986D01*
X69319945Y-34523252D01*
X69214200Y-34526118D01*
X69137512Y-34529563D01*
X69091036Y-34533565D01*
X69082635Y-34534981D01*
X68997966Y-34567910D01*
X68920635Y-34625026D01*
X68859326Y-34698791D01*
X68832045Y-34752448D01*
X68821214Y-34785424D01*
X68813378Y-34823378D01*
X68808093Y-34871863D01*
X68804911Y-34936430D01*
X68803387Y-35022632D01*
X68803062Y-35113313D01*
X68804201Y-35235527D01*
X68808485Y-35331233D01*
X68817217Y-35405621D01*
X68831700Y-35463880D01*
X68853236Y-35511197D01*
X68883127Y-35552763D01*
X68922676Y-35593767D01*
X68923965Y-35594986D01*
X68945972Y-35615118D01*
X68967746Y-35632279D01*
X68991890Y-35646704D01*
X69021006Y-35658632D01*
X69057698Y-35668300D01*
X69104570Y-35675945D01*
X69164225Y-35681804D01*
X69239266Y-35686115D01*
X69332296Y-35689115D01*
X69445918Y-35691040D01*
X69582736Y-35692130D01*
X69745354Y-35692619D01*
X69936374Y-35692747D01*
X69996568Y-35692750D01*
X70858875Y-35692750D01*
X70858875Y-35803875D01*
X69974885Y-35803875D01*
X69769753Y-35803846D01*
X69593794Y-35803558D01*
X69444430Y-35802714D01*
X69319085Y-35801013D01*
X69215180Y-35798159D01*
X69130139Y-35793851D01*
X69061385Y-35787791D01*
X69006340Y-35779680D01*
X68962427Y-35769220D01*
X68927069Y-35756112D01*
X68897689Y-35740057D01*
X68871709Y-35720756D01*
X68846551Y-35697911D01*
X68819640Y-35671223D01*
X68818217Y-35669797D01*
X68774737Y-35622802D01*
X68740980Y-35576236D01*
X68715763Y-35525268D01*
X68697905Y-35465071D01*
X68686227Y-35390815D01*
X68679547Y-35297671D01*
X68676684Y-35180810D01*
X68676311Y-35089500D01*
X68676644Y-34981138D01*
G37*
X68676644Y-34981138D02*
X68677794Y-34898939D01*
X68680284Y-34837319D01*
X68684636Y-34790694D01*
X68691372Y-34753479D01*
X68701016Y-34720088D01*
X68714089Y-34684938D01*
X68714188Y-34684688D01*
X68768858Y-34584075D01*
X68843964Y-34502046D01*
X68934413Y-34443646D01*
X68973192Y-34428216D01*
X68993805Y-34422201D01*
X69018332Y-34417063D01*
X69049416Y-34412712D01*
X69089701Y-34409057D01*
X69141832Y-34406009D01*
X69208451Y-34403478D01*
X69292204Y-34401374D01*
X69395733Y-34399607D01*
X69521683Y-34398088D01*
X69672699Y-34396726D01*
X69851422Y-34395431D01*
X69957968Y-34394744D01*
X70858875Y-34389099D01*
X70858875Y-34518000D01*
X70010343Y-34518000D01*
X69799945Y-34518339D01*
X69613974Y-34519342D01*
X69453589Y-34520986D01*
X69319945Y-34523252D01*
X69214200Y-34526118D01*
X69137512Y-34529563D01*
X69091036Y-34533565D01*
X69082635Y-34534981D01*
X68997966Y-34567910D01*
X68920635Y-34625026D01*
X68859326Y-34698791D01*
X68832045Y-34752448D01*
X68821214Y-34785424D01*
X68813378Y-34823378D01*
X68808093Y-34871863D01*
X68804911Y-34936430D01*
X68803387Y-35022632D01*
X68803062Y-35113313D01*
X68804201Y-35235527D01*
X68808485Y-35331233D01*
X68817217Y-35405621D01*
X68831700Y-35463880D01*
X68853236Y-35511197D01*
X68883127Y-35552763D01*
X68922676Y-35593767D01*
X68923965Y-35594986D01*
X68945972Y-35615118D01*
X68967746Y-35632279D01*
X68991890Y-35646704D01*
X69021006Y-35658632D01*
X69057698Y-35668300D01*
X69104570Y-35675945D01*
X69164225Y-35681804D01*
X69239266Y-35686115D01*
X69332296Y-35689115D01*
X69445918Y-35691040D01*
X69582736Y-35692130D01*
X69745354Y-35692619D01*
X69936374Y-35692747D01*
X69996568Y-35692750D01*
X70858875Y-35692750D01*
X70858875Y-35803875D01*
X69974885Y-35803875D01*
X69769753Y-35803846D01*
X69593794Y-35803558D01*
X69444430Y-35802714D01*
X69319085Y-35801013D01*
X69215180Y-35798159D01*
X69130139Y-35793851D01*
X69061385Y-35787791D01*
X69006340Y-35779680D01*
X68962427Y-35769220D01*
X68927069Y-35756112D01*
X68897689Y-35740057D01*
X68871709Y-35720756D01*
X68846551Y-35697911D01*
X68819640Y-35671223D01*
X68818217Y-35669797D01*
X68774737Y-35622802D01*
X68740980Y-35576236D01*
X68715763Y-35525268D01*
X68697905Y-35465071D01*
X68686227Y-35390815D01*
X68679547Y-35297671D01*
X68676684Y-35180810D01*
X68676311Y-35089500D01*
X68676644Y-34981138D01*
G36*
X68671427Y-37204844D02*
G01*
X68673141Y-37066786D01*
X68674882Y-36956494D01*
X68676945Y-36869989D01*
X68679626Y-36803288D01*
X68683217Y-36752411D01*
X68688014Y-36713375D01*
X68694311Y-36682199D01*
X68702402Y-36654901D01*
X68712581Y-36627501D01*
X68714469Y-36622727D01*
X68771504Y-36516723D01*
X68849243Y-36428890D01*
X68942537Y-36364836D01*
X68958208Y-36357330D01*
X69041187Y-36319813D01*
X70517562Y-36319813D01*
X70602719Y-36366979D01*
X70697717Y-36436157D01*
X70776673Y-36526478D01*
X70822131Y-36606787D01*
X70834238Y-36651708D01*
X70843839Y-36721390D01*
X70850816Y-36808933D01*
X70855050Y-36907438D01*
X70856420Y-37010005D01*
X70854808Y-37109734D01*
X70850095Y-37199726D01*
X70842162Y-37273081D01*
X70834313Y-37312000D01*
X70786676Y-37433431D01*
X70717172Y-37533999D01*
X70627817Y-37611543D01*
X70520628Y-37663896D01*
X70500687Y-37670162D01*
X70464488Y-37678846D01*
X70421274Y-37685101D01*
X70366189Y-37689150D01*
X70294377Y-37691219D01*
X70201735Y-37691530D01*
X70201735Y-37580626D01*
X70308221Y-37578810D01*
X70392045Y-37573005D01*
X70457710Y-37562337D01*
X70509720Y-37545931D01*
X70552579Y-37522913D01*
X70590792Y-37492410D01*
X70609379Y-37474266D01*
X70650487Y-37427694D01*
X70681370Y-37379944D01*
X70703415Y-37325545D01*
X70718010Y-37259023D01*
X70726544Y-37174903D01*
X70730403Y-37067713D01*
X70731043Y-36994500D01*
X70730213Y-36901201D01*
X70727493Y-36814286D01*
X70723249Y-36740817D01*
X70717845Y-36687857D01*
X70714253Y-36669063D01*
X70685537Y-36609491D01*
X70636144Y-36548370D01*
X70575272Y-36494897D01*
X70512118Y-36458269D01*
X70498421Y-36453253D01*
X70460301Y-36446488D01*
X70391244Y-36440528D01*
X70292053Y-36435411D01*
X70163532Y-36431176D01*
X70006485Y-36427863D01*
X69956821Y-36427095D01*
X69475455Y-36420191D01*
X69481181Y-36854189D01*
X69483242Y-36988660D01*
X69485637Y-37095159D01*
X69488608Y-37177464D01*
X69492398Y-37239355D01*
X69497251Y-37284610D01*
X69503407Y-37317007D01*
X69511112Y-37340324D01*
X69512636Y-37343750D01*
X69565123Y-37431856D01*
X69634411Y-37499308D01*
X69681317Y-37530293D01*
X69707674Y-37545251D01*
X69732093Y-37556419D01*
X69759713Y-37564449D01*
X69795673Y-37569992D01*
X69845110Y-37573699D01*
X69913165Y-37576222D01*
X70004975Y-37578213D01*
X70068081Y-37579327D01*
X70201735Y-37580626D01*
X70201735Y-37691530D01*
X70200982Y-37691533D01*
X70081148Y-37690316D01*
X70069148Y-37690142D01*
X69953511Y-37688192D01*
X69864785Y-37685887D01*
X69798134Y-37682782D01*
X69748718Y-37678431D01*
X69711701Y-37672388D01*
X69682245Y-37664206D01*
X69655511Y-37653440D01*
X69651568Y-37651636D01*
X69545870Y-37586617D01*
X69463224Y-37499835D01*
X69418855Y-37426008D01*
X69374562Y-37335813D01*
X69366625Y-36883375D01*
X69358687Y-36430938D01*
X69223750Y-36434990D01*
X69104235Y-36447154D01*
X69008461Y-36476921D01*
X68932592Y-36526159D01*
X68872792Y-36596732D01*
X68864717Y-36609697D01*
X68835457Y-36665954D01*
X68813157Y-36722207D01*
X68805361Y-36752119D01*
X68802745Y-36783569D01*
X68800377Y-36841971D01*
X68798352Y-36922526D01*
X68796767Y-37020438D01*
X68795717Y-37130907D01*
X68795301Y-37249137D01*
X68795299Y-37252469D01*
X68795125Y-37693000D01*
X68665703Y-37693000D01*
X68671427Y-37204844D01*
G37*
X68671427Y-37204844D02*
X68673141Y-37066786D01*
X68674882Y-36956494D01*
X68676945Y-36869989D01*
X68679626Y-36803288D01*
X68683217Y-36752411D01*
X68688014Y-36713375D01*
X68694311Y-36682199D01*
X68702402Y-36654901D01*
X68712581Y-36627501D01*
X68714469Y-36622727D01*
X68771504Y-36516723D01*
X68849243Y-36428890D01*
X68942537Y-36364836D01*
X68958208Y-36357330D01*
X69041187Y-36319813D01*
X70517562Y-36319813D01*
X70602719Y-36366979D01*
X70697717Y-36436157D01*
X70776673Y-36526478D01*
X70822131Y-36606787D01*
X70834238Y-36651708D01*
X70843839Y-36721390D01*
X70850816Y-36808933D01*
X70855050Y-36907438D01*
X70856420Y-37010005D01*
X70854808Y-37109734D01*
X70850095Y-37199726D01*
X70842162Y-37273081D01*
X70834313Y-37312000D01*
X70786676Y-37433431D01*
X70717172Y-37533999D01*
X70627817Y-37611543D01*
X70520628Y-37663896D01*
X70500687Y-37670162D01*
X70464488Y-37678846D01*
X70421274Y-37685101D01*
X70366189Y-37689150D01*
X70294377Y-37691219D01*
X70201735Y-37691530D01*
X70201735Y-37580626D01*
X70308221Y-37578810D01*
X70392045Y-37573005D01*
X70457710Y-37562337D01*
X70509720Y-37545931D01*
X70552579Y-37522913D01*
X70590792Y-37492410D01*
X70609379Y-37474266D01*
X70650487Y-37427694D01*
X70681370Y-37379944D01*
X70703415Y-37325545D01*
X70718010Y-37259023D01*
X70726544Y-37174903D01*
X70730403Y-37067713D01*
X70731043Y-36994500D01*
X70730213Y-36901201D01*
X70727493Y-36814286D01*
X70723249Y-36740817D01*
X70717845Y-36687857D01*
X70714253Y-36669063D01*
X70685537Y-36609491D01*
X70636144Y-36548370D01*
X70575272Y-36494897D01*
X70512118Y-36458269D01*
X70498421Y-36453253D01*
X70460301Y-36446488D01*
X70391244Y-36440528D01*
X70292053Y-36435411D01*
X70163532Y-36431176D01*
X70006485Y-36427863D01*
X69956821Y-36427095D01*
X69475455Y-36420191D01*
X69481181Y-36854189D01*
X69483242Y-36988660D01*
X69485637Y-37095159D01*
X69488608Y-37177464D01*
X69492398Y-37239355D01*
X69497251Y-37284610D01*
X69503407Y-37317007D01*
X69511112Y-37340324D01*
X69512636Y-37343750D01*
X69565123Y-37431856D01*
X69634411Y-37499308D01*
X69681317Y-37530293D01*
X69707674Y-37545251D01*
X69732093Y-37556419D01*
X69759713Y-37564449D01*
X69795673Y-37569992D01*
X69845110Y-37573699D01*
X69913165Y-37576222D01*
X70004975Y-37578213D01*
X70068081Y-37579327D01*
X70201735Y-37580626D01*
X70201735Y-37691530D01*
X70200982Y-37691533D01*
X70081148Y-37690316D01*
X70069148Y-37690142D01*
X69953511Y-37688192D01*
X69864785Y-37685887D01*
X69798134Y-37682782D01*
X69748718Y-37678431D01*
X69711701Y-37672388D01*
X69682245Y-37664206D01*
X69655511Y-37653440D01*
X69651568Y-37651636D01*
X69545870Y-37586617D01*
X69463224Y-37499835D01*
X69418855Y-37426008D01*
X69374562Y-37335813D01*
X69366625Y-36883375D01*
X69358687Y-36430938D01*
X69223750Y-36434990D01*
X69104235Y-36447154D01*
X69008461Y-36476921D01*
X68932592Y-36526159D01*
X68872792Y-36596732D01*
X68864717Y-36609697D01*
X68835457Y-36665954D01*
X68813157Y-36722207D01*
X68805361Y-36752119D01*
X68802745Y-36783569D01*
X68800377Y-36841971D01*
X68798352Y-36922526D01*
X68796767Y-37020438D01*
X68795717Y-37130907D01*
X68795301Y-37249137D01*
X68795299Y-37252469D01*
X68795125Y-37693000D01*
X68665703Y-37693000D01*
X68671427Y-37204844D01*
G36*
X70858875Y-38201000D02*
G01*
X70858875Y-38343875D01*
X68668125Y-38343875D01*
X68668125Y-38201000D01*
X70858875Y-38201000D01*
G37*
X70858875Y-38201000D02*
X70858875Y-38343875D01*
X68668125Y-38343875D01*
X68668125Y-38201000D01*
X70858875Y-38201000D01*
G36*
X68668125Y-40074250D02*
G01*
X68668400Y-39721032D01*
X68669830Y-39562175D01*
X68674418Y-39430961D01*
X68683021Y-39323366D01*
X68696498Y-39235368D01*
X68715706Y-39162941D01*
X68741501Y-39102064D01*
X68774740Y-39048712D01*
X68816282Y-38998862D01*
X68824008Y-38990680D01*
X68872765Y-38950011D01*
X68934297Y-38911892D01*
X68969102Y-38895430D01*
X68988401Y-38887845D01*
X69007608Y-38881407D01*
X69029400Y-38876006D01*
X69056450Y-38871533D01*
X69091433Y-38867881D01*
X69137023Y-38864939D01*
X69195896Y-38862600D01*
X69270725Y-38860754D01*
X69364186Y-38859294D01*
X69478952Y-38858109D01*
X69617699Y-38857092D01*
X69783101Y-38856134D01*
X69957968Y-38855226D01*
X70858875Y-38850639D01*
X70858875Y-38977620D01*
X69973392Y-38982216D01*
X69087909Y-38986813D01*
X69010678Y-39026572D01*
X68953146Y-39060024D01*
X68906614Y-39097494D01*
X68869970Y-39142570D01*
X68842100Y-39198839D01*
X68821893Y-39269892D01*
X68808236Y-39359315D01*
X68800016Y-39470697D01*
X68796122Y-39607627D01*
X68795372Y-39721032D01*
X68795125Y-40074250D01*
X70858875Y-40074250D01*
X70858875Y-40201250D01*
X68001375Y-40201250D01*
X68001375Y-40074250D01*
X68668125Y-40074250D01*
G37*
X68668125Y-40074250D02*
X68668400Y-39721032D01*
X68669830Y-39562175D01*
X68674418Y-39430961D01*
X68683021Y-39323366D01*
X68696498Y-39235368D01*
X68715706Y-39162941D01*
X68741501Y-39102064D01*
X68774740Y-39048712D01*
X68816282Y-38998862D01*
X68824008Y-38990680D01*
X68872765Y-38950011D01*
X68934297Y-38911892D01*
X68969102Y-38895430D01*
X68988401Y-38887845D01*
X69007608Y-38881407D01*
X69029400Y-38876006D01*
X69056450Y-38871533D01*
X69091433Y-38867881D01*
X69137023Y-38864939D01*
X69195896Y-38862600D01*
X69270725Y-38860754D01*
X69364186Y-38859294D01*
X69478952Y-38858109D01*
X69617699Y-38857092D01*
X69783101Y-38856134D01*
X69957968Y-38855226D01*
X70858875Y-38850639D01*
X70858875Y-38977620D01*
X69973392Y-38982216D01*
X69087909Y-38986813D01*
X69010678Y-39026572D01*
X68953146Y-39060024D01*
X68906614Y-39097494D01*
X68869970Y-39142570D01*
X68842100Y-39198839D01*
X68821893Y-39269892D01*
X68808236Y-39359315D01*
X68800016Y-39470697D01*
X68796122Y-39607627D01*
X68795372Y-39721032D01*
X68795125Y-40074250D01*
X70858875Y-40074250D01*
X70858875Y-40201250D01*
X68001375Y-40201250D01*
X68001375Y-40074250D01*
X68668125Y-40074250D01*
G36*
X68668125Y-40979125D02*
G01*
X68668125Y-40391750D01*
X68795125Y-40391750D01*
X68795125Y-40979125D01*
X70858875Y-40979125D01*
X70858875Y-41122000D01*
X68001375Y-41122000D01*
X68001375Y-40979125D01*
X68668125Y-40979125D01*
G37*
X68668125Y-40979125D02*
X68668125Y-40391750D01*
X68795125Y-40391750D01*
X68795125Y-40979125D01*
X70858875Y-40979125D01*
X70858875Y-41122000D01*
X68001375Y-41122000D01*
X68001375Y-40979125D01*
X68668125Y-40979125D01*
G36*
X68671098Y-42223998D02*
G01*
X68676289Y-42118602D01*
X68684311Y-42022399D01*
X68694908Y-41942865D01*
X68707822Y-41887480D01*
X68707928Y-41887172D01*
X68758762Y-41785053D01*
X68832688Y-41700371D01*
X68924749Y-41638445D01*
X68950420Y-41626980D01*
X68970083Y-41619208D01*
X68989288Y-41612606D01*
X69010702Y-41607065D01*
X69036990Y-41602474D01*
X69070816Y-41598722D01*
X69114846Y-41595700D01*
X69171745Y-41593297D01*
X69244178Y-41591404D01*
X69334811Y-41589908D01*
X69446308Y-41588701D01*
X69581335Y-41587672D01*
X69742557Y-41586711D01*
X69932640Y-41585707D01*
X69950031Y-41585618D01*
X70858875Y-41580922D01*
X70858875Y-41709375D01*
X69996568Y-41709375D01*
X69797007Y-41709448D01*
X69626589Y-41709817D01*
X69482711Y-41710714D01*
X69362767Y-41712369D01*
X69264150Y-41715012D01*
X69184257Y-41718872D01*
X69120480Y-41724181D01*
X69070215Y-41731167D01*
X69030857Y-41740062D01*
X68999800Y-41751095D01*
X68974438Y-41764497D01*
X68952166Y-41780497D01*
X68930378Y-41799326D01*
X68925260Y-41803992D01*
X68886334Y-41848610D01*
X68849654Y-41904833D01*
X68838017Y-41927523D01*
X68825260Y-41957793D01*
X68816039Y-41988571D01*
X68809789Y-42025593D01*
X68805943Y-42074593D01*
X68803935Y-42141306D01*
X68803199Y-42231467D01*
X68803132Y-42280875D01*
X68803996Y-42403189D01*
X68807478Y-42498932D01*
X68814807Y-42573253D01*
X68827211Y-42631302D01*
X68845920Y-42678227D01*
X68872163Y-42719178D01*
X68907169Y-42759303D01*
X68920603Y-42772991D01*
X68973281Y-42820351D01*
X69021225Y-42848829D01*
X69077273Y-42865992D01*
X69079019Y-42866370D01*
X69118728Y-42871114D01*
X69190178Y-42875122D01*
X69293369Y-42878395D01*
X69428300Y-42880931D01*
X69594972Y-42882732D01*
X69793384Y-42883796D01*
X70010343Y-42884125D01*
X70858875Y-42884125D01*
X70858875Y-42996237D01*
X69942093Y-42991775D01*
X69025312Y-42987313D01*
X68945937Y-42950743D01*
X68849278Y-42892245D01*
X68774844Y-42814823D01*
X68720631Y-42715699D01*
X68684631Y-42592100D01*
X68683802Y-42587936D01*
X68675091Y-42520554D01*
X68670242Y-42432452D01*
X68668996Y-42331107D01*
X68671098Y-42223998D01*
G37*
X68671098Y-42223998D02*
X68676289Y-42118602D01*
X68684311Y-42022399D01*
X68694908Y-41942865D01*
X68707822Y-41887480D01*
X68707928Y-41887172D01*
X68758762Y-41785053D01*
X68832688Y-41700371D01*
X68924749Y-41638445D01*
X68950420Y-41626980D01*
X68970083Y-41619208D01*
X68989288Y-41612606D01*
X69010702Y-41607065D01*
X69036990Y-41602474D01*
X69070816Y-41598722D01*
X69114846Y-41595700D01*
X69171745Y-41593297D01*
X69244178Y-41591404D01*
X69334811Y-41589908D01*
X69446308Y-41588701D01*
X69581335Y-41587672D01*
X69742557Y-41586711D01*
X69932640Y-41585707D01*
X69950031Y-41585618D01*
X70858875Y-41580922D01*
X70858875Y-41709375D01*
X69996568Y-41709375D01*
X69797007Y-41709448D01*
X69626589Y-41709817D01*
X69482711Y-41710714D01*
X69362767Y-41712369D01*
X69264150Y-41715012D01*
X69184257Y-41718872D01*
X69120480Y-41724181D01*
X69070215Y-41731167D01*
X69030857Y-41740062D01*
X68999800Y-41751095D01*
X68974438Y-41764497D01*
X68952166Y-41780497D01*
X68930378Y-41799326D01*
X68925260Y-41803992D01*
X68886334Y-41848610D01*
X68849654Y-41904833D01*
X68838017Y-41927523D01*
X68825260Y-41957793D01*
X68816039Y-41988571D01*
X68809789Y-42025593D01*
X68805943Y-42074593D01*
X68803935Y-42141306D01*
X68803199Y-42231467D01*
X68803132Y-42280875D01*
X68803996Y-42403189D01*
X68807478Y-42498932D01*
X68814807Y-42573253D01*
X68827211Y-42631302D01*
X68845920Y-42678227D01*
X68872163Y-42719178D01*
X68907169Y-42759303D01*
X68920603Y-42772991D01*
X68973281Y-42820351D01*
X69021225Y-42848829D01*
X69077273Y-42865992D01*
X69079019Y-42866370D01*
X69118728Y-42871114D01*
X69190178Y-42875122D01*
X69293369Y-42878395D01*
X69428300Y-42880931D01*
X69594972Y-42882732D01*
X69793384Y-42883796D01*
X70010343Y-42884125D01*
X70858875Y-42884125D01*
X70858875Y-42996237D01*
X69942093Y-42991775D01*
X69025312Y-42987313D01*
X68945937Y-42950743D01*
X68849278Y-42892245D01*
X68774844Y-42814823D01*
X68720631Y-42715699D01*
X68684631Y-42592100D01*
X68683802Y-42587936D01*
X68675091Y-42520554D01*
X68670242Y-42432452D01*
X68668996Y-42331107D01*
X68671098Y-42223998D01*
G36*
X68671582Y-46028048D02*
G01*
X68672741Y-45867243D01*
X68673894Y-45735217D01*
X68675202Y-45628999D01*
X68676824Y-45545621D01*
X68678920Y-45482111D01*
X68681649Y-45435500D01*
X68685172Y-45402816D01*
X68689647Y-45381090D01*
X68695235Y-45367352D01*
X68702095Y-45358631D01*
X68707812Y-45353865D01*
X68722867Y-45343176D01*
X68738154Y-45335350D01*
X68755636Y-45331421D01*
X68777275Y-45332422D01*
X68805034Y-45339386D01*
X68840877Y-45353347D01*
X68886765Y-45375338D01*
X68944663Y-45406391D01*
X69016531Y-45447540D01*
X69104334Y-45499818D01*
X69210034Y-45564258D01*
X69335594Y-45641893D01*
X69482976Y-45733757D01*
X69654144Y-45840883D01*
X69764764Y-45910209D01*
X69920628Y-46007842D01*
X70068837Y-46100551D01*
X70207162Y-46186950D01*
X70333373Y-46265651D01*
X70445242Y-46335270D01*
X70540537Y-46394419D01*
X70617032Y-46441712D01*
X70672495Y-46475763D01*
X70704698Y-46495185D01*
X70712031Y-46499282D01*
X70717379Y-46486404D01*
X70721967Y-46446344D01*
X70725778Y-46383663D01*
X70728796Y-46302922D01*
X70731002Y-46208680D01*
X70732382Y-46105498D01*
X70732916Y-45997937D01*
X70732589Y-45890555D01*
X70731384Y-45787914D01*
X70729282Y-45694574D01*
X70726269Y-45615095D01*
X70722325Y-45554037D01*
X70717435Y-45515960D01*
X70715716Y-45509511D01*
X70700647Y-45476089D01*
X70678976Y-45451607D01*
X70645835Y-45434495D01*
X70596353Y-45423184D01*
X70525660Y-45416105D01*
X70428888Y-45411688D01*
X70410406Y-45411116D01*
X70192125Y-45404647D01*
X70192125Y-45278401D01*
X70434218Y-45283887D01*
X70542601Y-45287390D01*
X70624437Y-45293198D01*
X70684912Y-45302645D01*
X70729216Y-45317065D01*
X70762534Y-45337794D01*
X70790056Y-45366165D01*
X70798969Y-45377729D01*
X70823006Y-45421324D01*
X70841992Y-45474157D01*
X70843675Y-45480917D01*
X70848459Y-45517769D01*
X70852322Y-45579942D01*
X70855284Y-45662803D01*
X70857367Y-45761718D01*
X70858593Y-45872053D01*
X70858982Y-45989174D01*
X70858557Y-46108448D01*
X70857339Y-46225241D01*
X70855349Y-46334920D01*
X70852609Y-46432850D01*
X70849139Y-46514398D01*
X70844963Y-46574931D01*
X70840100Y-46609814D01*
X70838429Y-46614750D01*
X70805349Y-46648952D01*
X70756625Y-46659709D01*
X70699302Y-46645785D01*
X70689272Y-46640908D01*
X70668470Y-46628708D01*
X70623055Y-46601138D01*
X70555352Y-46559636D01*
X70467684Y-46505638D01*
X70362377Y-46440581D01*
X70241754Y-46365901D01*
X70108139Y-46283036D01*
X69963857Y-46193423D01*
X69811233Y-46098498D01*
X69723812Y-46044070D01*
X68803062Y-45470605D01*
X68798905Y-46074428D01*
X68794747Y-46678250D01*
X68667103Y-46678250D01*
X68671582Y-46028048D01*
G37*
X68671582Y-46028048D02*
X68672741Y-45867243D01*
X68673894Y-45735217D01*
X68675202Y-45628999D01*
X68676824Y-45545621D01*
X68678920Y-45482111D01*
X68681649Y-45435500D01*
X68685172Y-45402816D01*
X68689647Y-45381090D01*
X68695235Y-45367352D01*
X68702095Y-45358631D01*
X68707812Y-45353865D01*
X68722867Y-45343176D01*
X68738154Y-45335350D01*
X68755636Y-45331421D01*
X68777275Y-45332422D01*
X68805034Y-45339386D01*
X68840877Y-45353347D01*
X68886765Y-45375338D01*
X68944663Y-45406391D01*
X69016531Y-45447540D01*
X69104334Y-45499818D01*
X69210034Y-45564258D01*
X69335594Y-45641893D01*
X69482976Y-45733757D01*
X69654144Y-45840883D01*
X69764764Y-45910209D01*
X69920628Y-46007842D01*
X70068837Y-46100551D01*
X70207162Y-46186950D01*
X70333373Y-46265651D01*
X70445242Y-46335270D01*
X70540537Y-46394419D01*
X70617032Y-46441712D01*
X70672495Y-46475763D01*
X70704698Y-46495185D01*
X70712031Y-46499282D01*
X70717379Y-46486404D01*
X70721967Y-46446344D01*
X70725778Y-46383663D01*
X70728796Y-46302922D01*
X70731002Y-46208680D01*
X70732382Y-46105498D01*
X70732916Y-45997937D01*
X70732589Y-45890555D01*
X70731384Y-45787914D01*
X70729282Y-45694574D01*
X70726269Y-45615095D01*
X70722325Y-45554037D01*
X70717435Y-45515960D01*
X70715716Y-45509511D01*
X70700647Y-45476089D01*
X70678976Y-45451607D01*
X70645835Y-45434495D01*
X70596353Y-45423184D01*
X70525660Y-45416105D01*
X70428888Y-45411688D01*
X70410406Y-45411116D01*
X70192125Y-45404647D01*
X70192125Y-45278401D01*
X70434218Y-45283887D01*
X70542601Y-45287390D01*
X70624437Y-45293198D01*
X70684912Y-45302645D01*
X70729216Y-45317065D01*
X70762534Y-45337794D01*
X70790056Y-45366165D01*
X70798969Y-45377729D01*
X70823006Y-45421324D01*
X70841992Y-45474157D01*
X70843675Y-45480917D01*
X70848459Y-45517769D01*
X70852322Y-45579942D01*
X70855284Y-45662803D01*
X70857367Y-45761718D01*
X70858593Y-45872053D01*
X70858982Y-45989174D01*
X70858557Y-46108448D01*
X70857339Y-46225241D01*
X70855349Y-46334920D01*
X70852609Y-46432850D01*
X70849139Y-46514398D01*
X70844963Y-46574931D01*
X70840100Y-46609814D01*
X70838429Y-46614750D01*
X70805349Y-46648952D01*
X70756625Y-46659709D01*
X70699302Y-46645785D01*
X70689272Y-46640908D01*
X70668470Y-46628708D01*
X70623055Y-46601138D01*
X70555352Y-46559636D01*
X70467684Y-46505638D01*
X70362377Y-46440581D01*
X70241754Y-46365901D01*
X70108139Y-46283036D01*
X69963857Y-46193423D01*
X69811233Y-46098498D01*
X69723812Y-46044070D01*
X68803062Y-45470605D01*
X68798905Y-46074428D01*
X68794747Y-46678250D01*
X68667103Y-46678250D01*
X68671582Y-46028048D01*
G36*
X68225415Y-48043500D02*
G01*
X68294263Y-47934654D01*
X68386449Y-47846305D01*
X68477625Y-47791291D01*
X68564937Y-47749813D01*
X69723812Y-47749813D01*
X69943258Y-47749824D01*
X70133238Y-47749901D01*
X70296037Y-47750108D01*
X70433939Y-47750508D01*
X70549230Y-47751165D01*
X70644192Y-47752144D01*
X70721111Y-47753509D01*
X70782270Y-47755324D01*
X70829955Y-47757653D01*
X70866450Y-47760560D01*
X70894040Y-47764108D01*
X70915008Y-47768363D01*
X70931639Y-47773388D01*
X70946217Y-47779247D01*
X70957573Y-47784409D01*
X71041551Y-47835122D01*
X71121695Y-47904581D01*
X71188426Y-47983389D01*
X71226261Y-48048044D01*
X71263687Y-48130813D01*
X71267256Y-49551625D01*
X71267853Y-49796572D01*
X71268312Y-50011829D01*
X71268593Y-50199453D01*
X71268659Y-50361504D01*
X71268472Y-50500041D01*
X71267994Y-50617123D01*
X71267186Y-50714810D01*
X71266012Y-50795159D01*
X71264432Y-50860230D01*
X71262410Y-50912082D01*
X71259906Y-50952774D01*
X71256883Y-50984365D01*
X71253303Y-51008913D01*
X71249128Y-51028478D01*
X71244320Y-51045119D01*
X71239431Y-51059266D01*
X71187446Y-51165989D01*
X71113688Y-51253621D01*
X71042791Y-51309566D01*
X71017673Y-51326596D01*
X70994447Y-51341370D01*
X70970778Y-51354050D01*
X70944331Y-51364794D01*
X70912769Y-51373764D01*
X70873759Y-51381119D01*
X70824964Y-51387020D01*
X70764048Y-51391626D01*
X70688677Y-51395097D01*
X70596515Y-51397594D01*
X70485226Y-51399277D01*
X70352475Y-51400305D01*
X70213056Y-51400780D01*
X70213056Y-51297876D01*
X70378727Y-51297673D01*
X70515994Y-51296772D01*
X70628203Y-51294730D01*
X70718700Y-51291108D01*
X70790830Y-51285464D01*
X70847938Y-51277356D01*
X70893371Y-51266345D01*
X70930472Y-51251988D01*
X70962589Y-51233846D01*
X70993066Y-51211476D01*
X71016509Y-51191960D01*
X71064502Y-51141536D01*
X71107749Y-51080819D01*
X71122996Y-51052696D01*
X71160548Y-50972438D01*
X71156555Y-49551625D01*
X71152562Y-48130813D01*
X71109370Y-48064395D01*
X71057230Y-47993370D01*
X71002911Y-47942318D01*
X70934793Y-47900899D01*
X70914437Y-47890928D01*
X70893545Y-47881287D01*
X70873378Y-47873451D01*
X70850554Y-47867233D01*
X70821693Y-47862444D01*
X70783415Y-47858896D01*
X70732337Y-47856401D01*
X70665081Y-47854772D01*
X70578264Y-47853818D01*
X70468507Y-47853353D01*
X70332428Y-47853189D01*
X70235781Y-47853156D01*
X69636500Y-47853000D01*
X69636500Y-48082629D01*
X69636817Y-48172977D01*
X69638196Y-48236724D01*
X69641280Y-48279021D01*
X69646711Y-48305013D01*
X69655131Y-48319851D01*
X69667184Y-48328680D01*
X69667206Y-48328692D01*
X69694335Y-48334979D01*
X69745961Y-48340156D01*
X69814834Y-48343707D01*
X69893707Y-48345120D01*
X69898963Y-48345125D01*
X70003890Y-48346793D01*
X70082447Y-48353037D01*
X70139894Y-48365722D01*
X70181494Y-48386713D01*
X70212511Y-48417874D01*
X70238206Y-48461068D01*
X70240717Y-48466186D01*
X70265112Y-48545596D01*
X70258381Y-48619539D01*
X70229660Y-48676756D01*
X70211050Y-48699898D01*
X70188807Y-48718208D01*
X70159218Y-48732244D01*
X70118569Y-48742562D01*
X70063145Y-48749720D01*
X69989234Y-48754275D01*
X69893121Y-48756785D01*
X69771093Y-48757805D01*
X69688603Y-48757935D01*
X69562651Y-48758122D01*
X69464390Y-48758820D01*
X69389759Y-48760295D01*
X69334701Y-48762815D01*
X69295156Y-48766645D01*
X69267065Y-48772054D01*
X69246370Y-48779306D01*
X69229992Y-48788068D01*
X69185208Y-48829287D01*
X69169900Y-48876877D01*
X69183956Y-48925691D01*
X69227264Y-48970586D01*
X69234064Y-48975231D01*
X69247394Y-48982523D01*
X69265138Y-48988568D01*
X69290394Y-48993533D01*
X69326260Y-48997589D01*
X69375834Y-49000903D01*
X69442214Y-49003646D01*
X69528499Y-49005984D01*
X69637786Y-49008089D01*
X69773175Y-49010128D01*
X69906378Y-49011875D01*
X70065860Y-49013998D01*
X70196676Y-49016060D01*
X70301906Y-49018227D01*
X70384635Y-49020664D01*
X70447943Y-49023535D01*
X70494914Y-49027005D01*
X70528629Y-49031241D01*
X70552172Y-49036406D01*
X70568623Y-49042666D01*
X70577614Y-49047815D01*
X70636239Y-49102144D01*
X70667752Y-49171685D01*
X70674480Y-49234125D01*
X70662714Y-49314884D01*
X70626188Y-49376921D01*
X70569006Y-49420326D01*
X70555116Y-49426761D01*
X70537148Y-49432179D01*
X70512341Y-49436688D01*
X70477933Y-49440395D01*
X70431164Y-49443409D01*
X70369272Y-49445837D01*
X70289496Y-49447786D01*
X70189073Y-49449366D01*
X70065244Y-49450682D01*
X69915247Y-49451844D01*
X69736320Y-49452959D01*
X69732160Y-49452983D01*
X69554121Y-49454039D01*
X69405105Y-49455053D01*
X69282383Y-49456153D01*
X69183229Y-49457467D01*
X69104914Y-49459123D01*
X69044712Y-49461248D01*
X68999894Y-49463971D01*
X68967733Y-49467418D01*
X68945503Y-49471718D01*
X68930475Y-49476998D01*
X68919921Y-49483387D01*
X68911116Y-49491011D01*
X68910628Y-49491469D01*
X68880054Y-49539225D01*
X68877894Y-49593059D01*
X68904014Y-49645158D01*
X68913465Y-49655535D01*
X68952431Y-49694500D01*
X69727059Y-49694525D01*
X69911889Y-49694556D01*
X70067698Y-49694836D01*
X70197218Y-49695664D01*
X70303178Y-49697339D01*
X70388308Y-49700160D01*
X70455338Y-49704427D01*
X70506999Y-49710437D01*
X70546020Y-49718491D01*
X70575132Y-49728888D01*
X70597065Y-49741926D01*
X70614548Y-49757904D01*
X70630312Y-49777122D01*
X70643434Y-49794913D01*
X70669493Y-49854333D01*
X70675558Y-49925618D01*
X70661821Y-49996129D01*
X70639691Y-50039443D01*
X70621388Y-50063491D01*
X70601863Y-50083325D01*
X70578030Y-50099348D01*
X70546805Y-50111967D01*
X70505101Y-50121586D01*
X70449833Y-50128611D01*
X70377917Y-50133447D01*
X70286266Y-50136499D01*
X70171795Y-50138171D01*
X70031418Y-50138870D01*
X69881452Y-50139000D01*
X69717412Y-50139159D01*
X69582175Y-50139870D01*
X69472798Y-50141485D01*
X69386335Y-50144356D01*
X69319840Y-50148835D01*
X69270369Y-50155273D01*
X69234976Y-50164022D01*
X69210717Y-50175434D01*
X69194645Y-50189862D01*
X69183817Y-50207656D01*
X69177486Y-50223093D01*
X69173271Y-50274703D01*
X69193153Y-50323487D01*
X69231701Y-50356964D01*
X69236686Y-50359113D01*
X69265178Y-50364221D01*
X69321437Y-50368991D01*
X69401478Y-50373237D01*
X69501319Y-50376772D01*
X69616976Y-50379409D01*
X69692062Y-50380480D01*
X69827779Y-50382256D01*
X69935611Y-50384708D01*
X70019425Y-50388601D01*
X70083085Y-50394700D01*
X70130458Y-50403770D01*
X70165409Y-50416576D01*
X70191804Y-50433884D01*
X70213508Y-50456457D01*
X70234386Y-50485062D01*
X70236554Y-50488250D01*
X70264265Y-50555041D01*
X70264066Y-50626142D01*
X70237729Y-50694592D01*
X70187027Y-50753433D01*
X70164861Y-50769811D01*
X70140864Y-50781689D01*
X70107080Y-50790292D01*
X70057917Y-50796323D01*
X69987784Y-50800488D01*
X69899175Y-50803296D01*
X69817055Y-50806395D01*
X69745613Y-50811115D01*
X69691213Y-50816883D01*
X69660216Y-50823130D01*
X69656343Y-50825084D01*
X69647639Y-50843657D01*
X69641594Y-50884681D01*
X69637973Y-50951030D01*
X69636543Y-51045584D01*
X69636500Y-51069632D01*
X69636500Y-51297875D01*
X70213056Y-51297876D01*
X70213056Y-51400780D01*
X70195926Y-51400839D01*
X70013244Y-51401039D01*
X69802093Y-51401065D01*
X69707937Y-51401063D01*
X69080075Y-51401063D01*
X69080075Y-51297876D01*
X69522585Y-51297876D01*
X69527949Y-51044207D01*
X69530094Y-50949252D01*
X69532476Y-50880657D01*
X69535988Y-50833040D01*
X69541521Y-50801019D01*
X69549969Y-50779211D01*
X69562224Y-50762233D01*
X69577298Y-50746581D01*
X69595340Y-50729591D01*
X69613672Y-50717458D01*
X69637953Y-50709134D01*
X69673841Y-50703571D01*
X69726996Y-50699720D01*
X69803076Y-50696532D01*
X69857478Y-50694656D01*
X69951508Y-50690995D01*
X70019156Y-50686859D01*
X70065789Y-50681489D01*
X70096775Y-50674122D01*
X70117481Y-50663998D01*
X70127023Y-50656446D01*
X70155263Y-50613542D01*
X70156366Y-50567650D01*
X70132929Y-50526912D01*
X70087550Y-50499470D01*
X70075921Y-50496259D01*
X70051121Y-50493975D01*
X69999200Y-50491637D01*
X69924785Y-50489369D01*
X69832503Y-50487293D01*
X69726981Y-50485532D01*
X69625720Y-50484329D01*
X69499494Y-50482982D01*
X69401041Y-50481461D01*
X69326384Y-50479448D01*
X69271546Y-50476625D01*
X69232550Y-50472675D01*
X69205420Y-50467279D01*
X69186178Y-50460119D01*
X69170847Y-50450876D01*
X69166325Y-50447582D01*
X69103708Y-50388377D01*
X69070069Y-50324219D01*
X69062182Y-50269558D01*
X69075614Y-50187666D01*
X69117240Y-50119245D01*
X69185423Y-50066899D01*
X69191758Y-50063594D01*
X69210367Y-50054530D01*
X69229084Y-50047145D01*
X69251205Y-50041268D01*
X69280022Y-50036726D01*
X69318833Y-50033348D01*
X69370931Y-50030961D01*
X69439612Y-50029394D01*
X69528169Y-50028474D01*
X69639899Y-50028029D01*
X69778096Y-50027887D01*
X69875670Y-50027875D01*
X70489113Y-50027875D01*
X70531119Y-49988946D01*
X70565196Y-49941485D01*
X70569778Y-49892898D01*
X70544555Y-49848421D01*
X70539728Y-49843805D01*
X70530781Y-49836930D01*
X70518600Y-49831132D01*
X70500476Y-49826285D01*
X70473700Y-49822263D01*
X70435566Y-49818939D01*
X70383364Y-49816189D01*
X70314386Y-49813886D01*
X70225924Y-49811904D01*
X70115269Y-49810118D01*
X69979715Y-49808401D01*
X69816551Y-49806628D01*
X69718197Y-49805625D01*
X69539310Y-49803775D01*
X69389389Y-49802049D01*
X69265651Y-49800316D01*
X69165312Y-49798446D01*
X69085591Y-49796306D01*
X69023704Y-49793767D01*
X68976868Y-49790696D01*
X68942299Y-49786963D01*
X68917216Y-49782436D01*
X68898834Y-49776984D01*
X68884372Y-49770477D01*
X68876295Y-49765938D01*
X68816469Y-49714176D01*
X68778822Y-49647050D01*
X68765266Y-49572304D01*
X68777714Y-49497682D01*
X68799410Y-49454754D01*
X68815704Y-49430616D01*
X68831456Y-49410315D01*
X68849412Y-49393519D01*
X68872321Y-49379897D01*
X68902929Y-49369115D01*
X68943984Y-49360842D01*
X68998233Y-49354746D01*
X69068423Y-49350494D01*
X69157302Y-49347754D01*
X69267617Y-49346194D01*
X69402116Y-49345482D01*
X69563546Y-49345285D01*
X69704757Y-49345275D01*
X69889400Y-49345195D01*
X70044879Y-49344790D01*
X70173782Y-49343800D01*
X70278695Y-49341960D01*
X70362204Y-49339008D01*
X70426896Y-49334681D01*
X70475358Y-49328716D01*
X70510176Y-49320851D01*
X70533936Y-49310822D01*
X70549226Y-49298367D01*
X70558632Y-49283222D01*
X70564741Y-49265126D01*
X70566669Y-49257685D01*
X70570358Y-49209438D01*
X70550235Y-49171823D01*
X70515035Y-49143769D01*
X70501813Y-49136430D01*
X70484725Y-49130452D01*
X70460612Y-49125698D01*
X70426319Y-49122029D01*
X70378688Y-49119307D01*
X70314562Y-49117394D01*
X70230784Y-49116151D01*
X70124197Y-49115441D01*
X69991642Y-49115125D01*
X69859339Y-49115063D01*
X69703533Y-49115004D01*
X69576205Y-49114718D01*
X69474084Y-49114045D01*
X69393898Y-49112823D01*
X69332375Y-49110891D01*
X69286243Y-49108087D01*
X69252231Y-49104251D01*
X69227067Y-49099220D01*
X69207479Y-49092834D01*
X69190196Y-49084931D01*
X69184062Y-49081765D01*
X69118963Y-49032128D01*
X69078222Y-48968546D01*
X69061839Y-48897437D01*
X69069815Y-48825221D01*
X69102149Y-48758316D01*
X69158842Y-48703141D01*
X69184062Y-48687986D01*
X69205016Y-48677967D01*
X69227895Y-48670093D01*
X69256783Y-48664042D01*
X69295767Y-48659496D01*
X69348931Y-48656134D01*
X69420363Y-48653635D01*
X69514148Y-48651680D01*
X69634371Y-48649948D01*
X69676187Y-48649425D01*
X69812793Y-48647540D01*
X69920963Y-48645164D01*
X70004012Y-48641615D01*
X70065253Y-48636211D01*
X70108000Y-48628274D01*
X70135567Y-48617121D01*
X70151268Y-48602071D01*
X70158417Y-48582444D01*
X70160327Y-48557559D01*
X70160375Y-48549940D01*
X70155109Y-48514109D01*
X70136606Y-48488305D01*
X70100804Y-48471006D01*
X70043640Y-48460692D01*
X69961053Y-48455841D01*
X69906811Y-48454973D01*
X69787151Y-48452602D01*
X69695486Y-48444930D01*
X69628100Y-48428288D01*
X69581282Y-48399010D01*
X69551316Y-48353429D01*
X69534490Y-48287878D01*
X69527089Y-48198689D01*
X69525400Y-48082197D01*
X69525399Y-48078361D01*
X69525375Y-47851284D01*
X69043324Y-47856111D01*
X68561274Y-47860938D01*
X68479024Y-47916500D01*
X68402969Y-47980485D01*
X68341212Y-48057038D01*
X68300447Y-48137159D01*
X68291384Y-48168814D01*
X68289548Y-48193069D01*
X68287796Y-48246659D01*
X68286148Y-48327172D01*
X68284626Y-48432193D01*
X68283248Y-48559308D01*
X68282037Y-48706104D01*
X68281013Y-48870166D01*
X68280196Y-49049080D01*
X68279607Y-49240432D01*
X68279267Y-49441810D01*
X68279187Y-49599250D01*
X68279187Y-50972438D01*
X68316589Y-51043875D01*
X68383271Y-51143143D01*
X68465890Y-51219487D01*
X68552979Y-51266228D01*
X68580508Y-51275652D01*
X68609543Y-51283010D01*
X68644282Y-51288553D01*
X68688920Y-51292533D01*
X68747656Y-51295203D01*
X68824687Y-51296815D01*
X68924209Y-51297620D01*
X69050419Y-51297870D01*
X69080075Y-51297876D01*
X69080075Y-51401063D01*
X68580812Y-51401063D01*
X68491594Y-51359230D01*
X68376485Y-51289688D01*
X68285692Y-51200860D01*
X68228066Y-51109924D01*
X68183937Y-51020063D01*
X68183937Y-48130813D01*
X68225415Y-48043500D01*
G37*
X68225415Y-48043500D02*
X68294263Y-47934654D01*
X68386449Y-47846305D01*
X68477625Y-47791291D01*
X68564937Y-47749813D01*
X69723812Y-47749813D01*
X69943258Y-47749824D01*
X70133238Y-47749901D01*
X70296037Y-47750108D01*
X70433939Y-47750508D01*
X70549230Y-47751165D01*
X70644192Y-47752144D01*
X70721111Y-47753509D01*
X70782270Y-47755324D01*
X70829955Y-47757653D01*
X70866450Y-47760560D01*
X70894040Y-47764108D01*
X70915008Y-47768363D01*
X70931639Y-47773388D01*
X70946217Y-47779247D01*
X70957573Y-47784409D01*
X71041551Y-47835122D01*
X71121695Y-47904581D01*
X71188426Y-47983389D01*
X71226261Y-48048044D01*
X71263687Y-48130813D01*
X71267256Y-49551625D01*
X71267853Y-49796572D01*
X71268312Y-50011829D01*
X71268593Y-50199453D01*
X71268659Y-50361504D01*
X71268472Y-50500041D01*
X71267994Y-50617123D01*
X71267186Y-50714810D01*
X71266012Y-50795159D01*
X71264432Y-50860230D01*
X71262410Y-50912082D01*
X71259906Y-50952774D01*
X71256883Y-50984365D01*
X71253303Y-51008913D01*
X71249128Y-51028478D01*
X71244320Y-51045119D01*
X71239431Y-51059266D01*
X71187446Y-51165989D01*
X71113688Y-51253621D01*
X71042791Y-51309566D01*
X71017673Y-51326596D01*
X70994447Y-51341370D01*
X70970778Y-51354050D01*
X70944331Y-51364794D01*
X70912769Y-51373764D01*
X70873759Y-51381119D01*
X70824964Y-51387020D01*
X70764048Y-51391626D01*
X70688677Y-51395097D01*
X70596515Y-51397594D01*
X70485226Y-51399277D01*
X70352475Y-51400305D01*
X70213056Y-51400780D01*
X70213056Y-51297876D01*
X70378727Y-51297673D01*
X70515994Y-51296772D01*
X70628203Y-51294730D01*
X70718700Y-51291108D01*
X70790830Y-51285464D01*
X70847938Y-51277356D01*
X70893371Y-51266345D01*
X70930472Y-51251988D01*
X70962589Y-51233846D01*
X70993066Y-51211476D01*
X71016509Y-51191960D01*
X71064502Y-51141536D01*
X71107749Y-51080819D01*
X71122996Y-51052696D01*
X71160548Y-50972438D01*
X71156555Y-49551625D01*
X71152562Y-48130813D01*
X71109370Y-48064395D01*
X71057230Y-47993370D01*
X71002911Y-47942318D01*
X70934793Y-47900899D01*
X70914437Y-47890928D01*
X70893545Y-47881287D01*
X70873378Y-47873451D01*
X70850554Y-47867233D01*
X70821693Y-47862444D01*
X70783415Y-47858896D01*
X70732337Y-47856401D01*
X70665081Y-47854772D01*
X70578264Y-47853818D01*
X70468507Y-47853353D01*
X70332428Y-47853189D01*
X70235781Y-47853156D01*
X69636500Y-47853000D01*
X69636500Y-48082629D01*
X69636817Y-48172977D01*
X69638196Y-48236724D01*
X69641280Y-48279021D01*
X69646711Y-48305013D01*
X69655131Y-48319851D01*
X69667184Y-48328680D01*
X69667206Y-48328692D01*
X69694335Y-48334979D01*
X69745961Y-48340156D01*
X69814834Y-48343707D01*
X69893707Y-48345120D01*
X69898963Y-48345125D01*
X70003890Y-48346793D01*
X70082447Y-48353037D01*
X70139894Y-48365722D01*
X70181494Y-48386713D01*
X70212511Y-48417874D01*
X70238206Y-48461068D01*
X70240717Y-48466186D01*
X70265112Y-48545596D01*
X70258381Y-48619539D01*
X70229660Y-48676756D01*
X70211050Y-48699898D01*
X70188807Y-48718208D01*
X70159218Y-48732244D01*
X70118569Y-48742562D01*
X70063145Y-48749720D01*
X69989234Y-48754275D01*
X69893121Y-48756785D01*
X69771093Y-48757805D01*
X69688603Y-48757935D01*
X69562651Y-48758122D01*
X69464390Y-48758820D01*
X69389759Y-48760295D01*
X69334701Y-48762815D01*
X69295156Y-48766645D01*
X69267065Y-48772054D01*
X69246370Y-48779306D01*
X69229992Y-48788068D01*
X69185208Y-48829287D01*
X69169900Y-48876877D01*
X69183956Y-48925691D01*
X69227264Y-48970586D01*
X69234064Y-48975231D01*
X69247394Y-48982523D01*
X69265138Y-48988568D01*
X69290394Y-48993533D01*
X69326260Y-48997589D01*
X69375834Y-49000903D01*
X69442214Y-49003646D01*
X69528499Y-49005984D01*
X69637786Y-49008089D01*
X69773175Y-49010128D01*
X69906378Y-49011875D01*
X70065860Y-49013998D01*
X70196676Y-49016060D01*
X70301906Y-49018227D01*
X70384635Y-49020664D01*
X70447943Y-49023535D01*
X70494914Y-49027005D01*
X70528629Y-49031241D01*
X70552172Y-49036406D01*
X70568623Y-49042666D01*
X70577614Y-49047815D01*
X70636239Y-49102144D01*
X70667752Y-49171685D01*
X70674480Y-49234125D01*
X70662714Y-49314884D01*
X70626188Y-49376921D01*
X70569006Y-49420326D01*
X70555116Y-49426761D01*
X70537148Y-49432179D01*
X70512341Y-49436688D01*
X70477933Y-49440395D01*
X70431164Y-49443409D01*
X70369272Y-49445837D01*
X70289496Y-49447786D01*
X70189073Y-49449366D01*
X70065244Y-49450682D01*
X69915247Y-49451844D01*
X69736320Y-49452959D01*
X69732160Y-49452983D01*
X69554121Y-49454039D01*
X69405105Y-49455053D01*
X69282383Y-49456153D01*
X69183229Y-49457467D01*
X69104914Y-49459123D01*
X69044712Y-49461248D01*
X68999894Y-49463971D01*
X68967733Y-49467418D01*
X68945503Y-49471718D01*
X68930475Y-49476998D01*
X68919921Y-49483387D01*
X68911116Y-49491011D01*
X68910628Y-49491469D01*
X68880054Y-49539225D01*
X68877894Y-49593059D01*
X68904014Y-49645158D01*
X68913465Y-49655535D01*
X68952431Y-49694500D01*
X69727059Y-49694525D01*
X69911889Y-49694556D01*
X70067698Y-49694836D01*
X70197218Y-49695664D01*
X70303178Y-49697339D01*
X70388308Y-49700160D01*
X70455338Y-49704427D01*
X70506999Y-49710437D01*
X70546020Y-49718491D01*
X70575132Y-49728888D01*
X70597065Y-49741926D01*
X70614548Y-49757904D01*
X70630312Y-49777122D01*
X70643434Y-49794913D01*
X70669493Y-49854333D01*
X70675558Y-49925618D01*
X70661821Y-49996129D01*
X70639691Y-50039443D01*
X70621388Y-50063491D01*
X70601863Y-50083325D01*
X70578030Y-50099348D01*
X70546805Y-50111967D01*
X70505101Y-50121586D01*
X70449833Y-50128611D01*
X70377917Y-50133447D01*
X70286266Y-50136499D01*
X70171795Y-50138171D01*
X70031418Y-50138870D01*
X69881452Y-50139000D01*
X69717412Y-50139159D01*
X69582175Y-50139870D01*
X69472798Y-50141485D01*
X69386335Y-50144356D01*
X69319840Y-50148835D01*
X69270369Y-50155273D01*
X69234976Y-50164022D01*
X69210717Y-50175434D01*
X69194645Y-50189862D01*
X69183817Y-50207656D01*
X69177486Y-50223093D01*
X69173271Y-50274703D01*
X69193153Y-50323487D01*
X69231701Y-50356964D01*
X69236686Y-50359113D01*
X69265178Y-50364221D01*
X69321437Y-50368991D01*
X69401478Y-50373237D01*
X69501319Y-50376772D01*
X69616976Y-50379409D01*
X69692062Y-50380480D01*
X69827779Y-50382256D01*
X69935611Y-50384708D01*
X70019425Y-50388601D01*
X70083085Y-50394700D01*
X70130458Y-50403770D01*
X70165409Y-50416576D01*
X70191804Y-50433884D01*
X70213508Y-50456457D01*
X70234386Y-50485062D01*
X70236554Y-50488250D01*
X70264265Y-50555041D01*
X70264066Y-50626142D01*
X70237729Y-50694592D01*
X70187027Y-50753433D01*
X70164861Y-50769811D01*
X70140864Y-50781689D01*
X70107080Y-50790292D01*
X70057917Y-50796323D01*
X69987784Y-50800488D01*
X69899175Y-50803296D01*
X69817055Y-50806395D01*
X69745613Y-50811115D01*
X69691213Y-50816883D01*
X69660216Y-50823130D01*
X69656343Y-50825084D01*
X69647639Y-50843657D01*
X69641594Y-50884681D01*
X69637973Y-50951030D01*
X69636543Y-51045584D01*
X69636500Y-51069632D01*
X69636500Y-51297875D01*
X70213056Y-51297876D01*
X70213056Y-51400780D01*
X70195926Y-51400839D01*
X70013244Y-51401039D01*
X69802093Y-51401065D01*
X69707937Y-51401063D01*
X69080075Y-51401063D01*
X69080075Y-51297876D01*
X69522585Y-51297876D01*
X69527949Y-51044207D01*
X69530094Y-50949252D01*
X69532476Y-50880657D01*
X69535988Y-50833040D01*
X69541521Y-50801019D01*
X69549969Y-50779211D01*
X69562224Y-50762233D01*
X69577298Y-50746581D01*
X69595340Y-50729591D01*
X69613672Y-50717458D01*
X69637953Y-50709134D01*
X69673841Y-50703571D01*
X69726996Y-50699720D01*
X69803076Y-50696532D01*
X69857478Y-50694656D01*
X69951508Y-50690995D01*
X70019156Y-50686859D01*
X70065789Y-50681489D01*
X70096775Y-50674122D01*
X70117481Y-50663998D01*
X70127023Y-50656446D01*
X70155263Y-50613542D01*
X70156366Y-50567650D01*
X70132929Y-50526912D01*
X70087550Y-50499470D01*
X70075921Y-50496259D01*
X70051121Y-50493975D01*
X69999200Y-50491637D01*
X69924785Y-50489369D01*
X69832503Y-50487293D01*
X69726981Y-50485532D01*
X69625720Y-50484329D01*
X69499494Y-50482982D01*
X69401041Y-50481461D01*
X69326384Y-50479448D01*
X69271546Y-50476625D01*
X69232550Y-50472675D01*
X69205420Y-50467279D01*
X69186178Y-50460119D01*
X69170847Y-50450876D01*
X69166325Y-50447582D01*
X69103708Y-50388377D01*
X69070069Y-50324219D01*
X69062182Y-50269558D01*
X69075614Y-50187666D01*
X69117240Y-50119245D01*
X69185423Y-50066899D01*
X69191758Y-50063594D01*
X69210367Y-50054530D01*
X69229084Y-50047145D01*
X69251205Y-50041268D01*
X69280022Y-50036726D01*
X69318833Y-50033348D01*
X69370931Y-50030961D01*
X69439612Y-50029394D01*
X69528169Y-50028474D01*
X69639899Y-50028029D01*
X69778096Y-50027887D01*
X69875670Y-50027875D01*
X70489113Y-50027875D01*
X70531119Y-49988946D01*
X70565196Y-49941485D01*
X70569778Y-49892898D01*
X70544555Y-49848421D01*
X70539728Y-49843805D01*
X70530781Y-49836930D01*
X70518600Y-49831132D01*
X70500476Y-49826285D01*
X70473700Y-49822263D01*
X70435566Y-49818939D01*
X70383364Y-49816189D01*
X70314386Y-49813886D01*
X70225924Y-49811904D01*
X70115269Y-49810118D01*
X69979715Y-49808401D01*
X69816551Y-49806628D01*
X69718197Y-49805625D01*
X69539310Y-49803775D01*
X69389389Y-49802049D01*
X69265651Y-49800316D01*
X69165312Y-49798446D01*
X69085591Y-49796306D01*
X69023704Y-49793767D01*
X68976868Y-49790696D01*
X68942299Y-49786963D01*
X68917216Y-49782436D01*
X68898834Y-49776984D01*
X68884372Y-49770477D01*
X68876295Y-49765938D01*
X68816469Y-49714176D01*
X68778822Y-49647050D01*
X68765266Y-49572304D01*
X68777714Y-49497682D01*
X68799410Y-49454754D01*
X68815704Y-49430616D01*
X68831456Y-49410315D01*
X68849412Y-49393519D01*
X68872321Y-49379897D01*
X68902929Y-49369115D01*
X68943984Y-49360842D01*
X68998233Y-49354746D01*
X69068423Y-49350494D01*
X69157302Y-49347754D01*
X69267617Y-49346194D01*
X69402116Y-49345482D01*
X69563546Y-49345285D01*
X69704757Y-49345275D01*
X69889400Y-49345195D01*
X70044879Y-49344790D01*
X70173782Y-49343800D01*
X70278695Y-49341960D01*
X70362204Y-49339008D01*
X70426896Y-49334681D01*
X70475358Y-49328716D01*
X70510176Y-49320851D01*
X70533936Y-49310822D01*
X70549226Y-49298367D01*
X70558632Y-49283222D01*
X70564741Y-49265126D01*
X70566669Y-49257685D01*
X70570358Y-49209438D01*
X70550235Y-49171823D01*
X70515035Y-49143769D01*
X70501813Y-49136430D01*
X70484725Y-49130452D01*
X70460612Y-49125698D01*
X70426319Y-49122029D01*
X70378688Y-49119307D01*
X70314562Y-49117394D01*
X70230784Y-49116151D01*
X70124197Y-49115441D01*
X69991642Y-49115125D01*
X69859339Y-49115063D01*
X69703533Y-49115004D01*
X69576205Y-49114718D01*
X69474084Y-49114045D01*
X69393898Y-49112823D01*
X69332375Y-49110891D01*
X69286243Y-49108087D01*
X69252231Y-49104251D01*
X69227067Y-49099220D01*
X69207479Y-49092834D01*
X69190196Y-49084931D01*
X69184062Y-49081765D01*
X69118963Y-49032128D01*
X69078222Y-48968546D01*
X69061839Y-48897437D01*
X69069815Y-48825221D01*
X69102149Y-48758316D01*
X69158842Y-48703141D01*
X69184062Y-48687986D01*
X69205016Y-48677967D01*
X69227895Y-48670093D01*
X69256783Y-48664042D01*
X69295767Y-48659496D01*
X69348931Y-48656134D01*
X69420363Y-48653635D01*
X69514148Y-48651680D01*
X69634371Y-48649948D01*
X69676187Y-48649425D01*
X69812793Y-48647540D01*
X69920963Y-48645164D01*
X70004012Y-48641615D01*
X70065253Y-48636211D01*
X70108000Y-48628274D01*
X70135567Y-48617121D01*
X70151268Y-48602071D01*
X70158417Y-48582444D01*
X70160327Y-48557559D01*
X70160375Y-48549940D01*
X70155109Y-48514109D01*
X70136606Y-48488305D01*
X70100804Y-48471006D01*
X70043640Y-48460692D01*
X69961053Y-48455841D01*
X69906811Y-48454973D01*
X69787151Y-48452602D01*
X69695486Y-48444930D01*
X69628100Y-48428288D01*
X69581282Y-48399010D01*
X69551316Y-48353429D01*
X69534490Y-48287878D01*
X69527089Y-48198689D01*
X69525400Y-48082197D01*
X69525399Y-48078361D01*
X69525375Y-47851284D01*
X69043324Y-47856111D01*
X68561274Y-47860938D01*
X68479024Y-47916500D01*
X68402969Y-47980485D01*
X68341212Y-48057038D01*
X68300447Y-48137159D01*
X68291384Y-48168814D01*
X68289548Y-48193069D01*
X68287796Y-48246659D01*
X68286148Y-48327172D01*
X68284626Y-48432193D01*
X68283248Y-48559308D01*
X68282037Y-48706104D01*
X68281013Y-48870166D01*
X68280196Y-49049080D01*
X68279607Y-49240432D01*
X68279267Y-49441810D01*
X68279187Y-49599250D01*
X68279187Y-50972438D01*
X68316589Y-51043875D01*
X68383271Y-51143143D01*
X68465890Y-51219487D01*
X68552979Y-51266228D01*
X68580508Y-51275652D01*
X68609543Y-51283010D01*
X68644282Y-51288553D01*
X68688920Y-51292533D01*
X68747656Y-51295203D01*
X68824687Y-51296815D01*
X68924209Y-51297620D01*
X69050419Y-51297870D01*
X69080075Y-51297876D01*
X69080075Y-51401063D01*
X68580812Y-51401063D01*
X68491594Y-51359230D01*
X68376485Y-51289688D01*
X68285692Y-51200860D01*
X68228066Y-51109924D01*
X68183937Y-51020063D01*
X68183937Y-48130813D01*
X68225415Y-48043500D01*
G36*
X69553156Y-44769910D02*
G01*
X69743149Y-44768898D01*
X69904028Y-44767926D01*
X70038425Y-44766885D01*
X70148976Y-44765667D01*
X70238316Y-44764164D01*
X70309077Y-44762268D01*
X70363896Y-44759870D01*
X70405406Y-44756864D01*
X70436241Y-44753139D01*
X70459037Y-44748589D01*
X70476428Y-44743105D01*
X70491047Y-44736579D01*
X70501687Y-44730985D01*
X70593910Y-44664059D01*
X70667986Y-44575649D01*
X70698878Y-44519250D01*
X70708900Y-44494929D01*
X70716623Y-44468926D01*
X70722349Y-44436887D01*
X70726377Y-44394458D01*
X70729009Y-44337288D01*
X70730545Y-44261022D01*
X70731287Y-44161308D01*
X70731526Y-44046969D01*
X70731875Y-43646125D01*
X68668125Y-43646125D01*
X68668125Y-43518024D01*
X69910343Y-43522543D01*
X71152562Y-43527063D01*
X71247812Y-43571579D01*
X71341698Y-43624505D01*
X71412213Y-43687524D01*
X71467686Y-43768905D01*
X71488542Y-43810637D01*
X71533562Y-43908063D01*
X71538742Y-44396219D01*
X71543921Y-44884375D01*
X71416921Y-44884375D01*
X71411742Y-44396219D01*
X71406562Y-43908063D01*
X71363909Y-43835511D01*
X71303869Y-43759652D01*
X71225495Y-43698478D01*
X71143348Y-43661634D01*
X71099502Y-43653698D01*
X71037724Y-43648106D01*
X70975209Y-43646125D01*
X70861146Y-43646125D01*
X70856042Y-44078719D01*
X70854400Y-44207933D01*
X70852656Y-44309597D01*
X70850466Y-44387910D01*
X70847489Y-44447071D01*
X70843383Y-44491280D01*
X70837807Y-44524734D01*
X70830418Y-44551634D01*
X70820874Y-44576178D01*
X70814356Y-44590688D01*
X70753983Y-44686383D01*
X70670511Y-44768456D01*
X70571875Y-44829984D01*
X70514213Y-44852505D01*
X70490514Y-44859422D01*
X70466034Y-44865260D01*
X70437990Y-44870112D01*
X70403599Y-44874067D01*
X70360081Y-44877218D01*
X70304654Y-44879655D01*
X70234533Y-44881468D01*
X70146939Y-44882750D01*
X70039089Y-44883590D01*
X69908200Y-44884081D01*
X69751490Y-44884312D01*
X69566178Y-44884375D01*
X68668125Y-44884375D01*
X68668125Y-44774506D01*
X69553156Y-44769910D01*
G37*
X69553156Y-44769910D02*
X69743149Y-44768898D01*
X69904028Y-44767926D01*
X70038425Y-44766885D01*
X70148976Y-44765667D01*
X70238316Y-44764164D01*
X70309077Y-44762268D01*
X70363896Y-44759870D01*
X70405406Y-44756864D01*
X70436241Y-44753139D01*
X70459037Y-44748589D01*
X70476428Y-44743105D01*
X70491047Y-44736579D01*
X70501687Y-44730985D01*
X70593910Y-44664059D01*
X70667986Y-44575649D01*
X70698878Y-44519250D01*
X70708900Y-44494929D01*
X70716623Y-44468926D01*
X70722349Y-44436887D01*
X70726377Y-44394458D01*
X70729009Y-44337288D01*
X70730545Y-44261022D01*
X70731287Y-44161308D01*
X70731526Y-44046969D01*
X70731875Y-43646125D01*
X68668125Y-43646125D01*
X68668125Y-43518024D01*
X69910343Y-43522543D01*
X71152562Y-43527063D01*
X71247812Y-43571579D01*
X71341698Y-43624505D01*
X71412213Y-43687524D01*
X71467686Y-43768905D01*
X71488542Y-43810637D01*
X71533562Y-43908063D01*
X71538742Y-44396219D01*
X71543921Y-44884375D01*
X71416921Y-44884375D01*
X71411742Y-44396219D01*
X71406562Y-43908063D01*
X71363909Y-43835511D01*
X71303869Y-43759652D01*
X71225495Y-43698478D01*
X71143348Y-43661634D01*
X71099502Y-43653698D01*
X71037724Y-43648106D01*
X70975209Y-43646125D01*
X70861146Y-43646125D01*
X70856042Y-44078719D01*
X70854400Y-44207933D01*
X70852656Y-44309597D01*
X70850466Y-44387910D01*
X70847489Y-44447071D01*
X70843383Y-44491280D01*
X70837807Y-44524734D01*
X70830418Y-44551634D01*
X70820874Y-44576178D01*
X70814356Y-44590688D01*
X70753983Y-44686383D01*
X70670511Y-44768456D01*
X70571875Y-44829984D01*
X70514213Y-44852505D01*
X70490514Y-44859422D01*
X70466034Y-44865260D01*
X70437990Y-44870112D01*
X70403599Y-44874067D01*
X70360081Y-44877218D01*
X70304654Y-44879655D01*
X70234533Y-44881468D01*
X70146939Y-44882750D01*
X70039089Y-44883590D01*
X69908200Y-44884081D01*
X69751490Y-44884312D01*
X69566178Y-44884375D01*
X68668125Y-44884375D01*
X68668125Y-44774506D01*
X69553156Y-44769910D01*
G04 #@! TD*
D11*
G04 #@! TO.C,J3*
X28850000Y-63530000D03*
X26310000Y-58450000D03*
X23770000Y-58450000D03*
X31390000Y-58450000D03*
X33930000Y-58450000D03*
D12*
X28850000Y-58450000D03*
X33930000Y-63530000D03*
X33930000Y-66070000D03*
X23770000Y-63530000D03*
X23770000Y-66070000D03*
G04 #@! TD*
G04 #@! TO.C,R23*
G36*
G01*
X52372500Y-38710000D02*
X52027500Y-38710000D01*
G75*
G02*
X51880000Y-38562500I0J147500D01*
G01*
X51880000Y-38267500D01*
G75*
G02*
X52027500Y-38120000I147500J0D01*
G01*
X52372500Y-38120000D01*
G75*
G02*
X52520000Y-38267500I0J-147500D01*
G01*
X52520000Y-38562500D01*
G75*
G02*
X52372500Y-38710000I-147500J0D01*
G01*
G37*
G36*
G01*
X52372500Y-39680000D02*
X52027500Y-39680000D01*
G75*
G02*
X51880000Y-39532500I0J147500D01*
G01*
X51880000Y-39237500D01*
G75*
G02*
X52027500Y-39090000I147500J0D01*
G01*
X52372500Y-39090000D01*
G75*
G02*
X52520000Y-39237500I0J-147500D01*
G01*
X52520000Y-39532500D01*
G75*
G02*
X52372500Y-39680000I-147500J0D01*
G01*
G37*
G04 #@! TD*
G04 #@! TO.C,R24*
G36*
G01*
X52027500Y-36220000D02*
X52372500Y-36220000D01*
G75*
G02*
X52520000Y-36367500I0J-147500D01*
G01*
X52520000Y-36662500D01*
G75*
G02*
X52372500Y-36810000I-147500J0D01*
G01*
X52027500Y-36810000D01*
G75*
G02*
X51880000Y-36662500I0J147500D01*
G01*
X51880000Y-36367500D01*
G75*
G02*
X52027500Y-36220000I147500J0D01*
G01*
G37*
G36*
G01*
X52027500Y-37190000D02*
X52372500Y-37190000D01*
G75*
G02*
X52520000Y-37337500I0J-147500D01*
G01*
X52520000Y-37632500D01*
G75*
G02*
X52372500Y-37780000I-147500J0D01*
G01*
X52027500Y-37780000D01*
G75*
G02*
X51880000Y-37632500I0J147500D01*
G01*
X51880000Y-37337500D01*
G75*
G02*
X52027500Y-37190000I147500J0D01*
G01*
G37*
G04 #@! TD*
G04 #@! TO.C,R21*
G36*
G01*
X55656250Y-29150000D02*
X55143750Y-29150000D01*
G75*
G02*
X54925000Y-28931250I0J218750D01*
G01*
X54925000Y-28493750D01*
G75*
G02*
X55143750Y-28275000I218750J0D01*
G01*
X55656250Y-28275000D01*
G75*
G02*
X55875000Y-28493750I0J-218750D01*
G01*
X55875000Y-28931250D01*
G75*
G02*
X55656250Y-29150000I-218750J0D01*
G01*
G37*
G36*
G01*
X55656250Y-30725000D02*
X55143750Y-30725000D01*
G75*
G02*
X54925000Y-30506250I0J218750D01*
G01*
X54925000Y-30068750D01*
G75*
G02*
X55143750Y-29850000I218750J0D01*
G01*
X55656250Y-29850000D01*
G75*
G02*
X55875000Y-30068750I0J-218750D01*
G01*
X55875000Y-30506250D01*
G75*
G02*
X55656250Y-30725000I-218750J0D01*
G01*
G37*
G04 #@! TD*
G04 #@! TO.C,R25*
G36*
G01*
X44343750Y-30250000D02*
X44856250Y-30250000D01*
G75*
G02*
X45075000Y-30468750I0J-218750D01*
G01*
X45075000Y-30906250D01*
G75*
G02*
X44856250Y-31125000I-218750J0D01*
G01*
X44343750Y-31125000D01*
G75*
G02*
X44125000Y-30906250I0J218750D01*
G01*
X44125000Y-30468750D01*
G75*
G02*
X44343750Y-30250000I218750J0D01*
G01*
G37*
G36*
G01*
X44343750Y-28675000D02*
X44856250Y-28675000D01*
G75*
G02*
X45075000Y-28893750I0J-218750D01*
G01*
X45075000Y-29331250D01*
G75*
G02*
X44856250Y-29550000I-218750J0D01*
G01*
X44343750Y-29550000D01*
G75*
G02*
X44125000Y-29331250I0J218750D01*
G01*
X44125000Y-28893750D01*
G75*
G02*
X44343750Y-28675000I218750J0D01*
G01*
G37*
G04 #@! TD*
G04 #@! TO.C,C9*
G36*
G01*
X57325000Y-40643750D02*
X57325000Y-41556250D01*
G75*
G02*
X57081250Y-41800000I-243750J0D01*
G01*
X56593750Y-41800000D01*
G75*
G02*
X56350000Y-41556250I0J243750D01*
G01*
X56350000Y-40643750D01*
G75*
G02*
X56593750Y-40400000I243750J0D01*
G01*
X57081250Y-40400000D01*
G75*
G02*
X57325000Y-40643750I0J-243750D01*
G01*
G37*
G36*
G01*
X55450000Y-40643750D02*
X55450000Y-41556250D01*
G75*
G02*
X55206250Y-41800000I-243750J0D01*
G01*
X54718750Y-41800000D01*
G75*
G02*
X54475000Y-41556250I0J243750D01*
G01*
X54475000Y-40643750D01*
G75*
G02*
X54718750Y-40400000I243750J0D01*
G01*
X55206250Y-40400000D01*
G75*
G02*
X55450000Y-40643750I0J-243750D01*
G01*
G37*
G04 #@! TD*
G04 #@! TO.C,C18*
G36*
G01*
X43627500Y-39890000D02*
X43972500Y-39890000D01*
G75*
G02*
X44120000Y-40037500I0J-147500D01*
G01*
X44120000Y-40332500D01*
G75*
G02*
X43972500Y-40480000I-147500J0D01*
G01*
X43627500Y-40480000D01*
G75*
G02*
X43480000Y-40332500I0J147500D01*
G01*
X43480000Y-40037500D01*
G75*
G02*
X43627500Y-39890000I147500J0D01*
G01*
G37*
G36*
G01*
X43627500Y-38920000D02*
X43972500Y-38920000D01*
G75*
G02*
X44120000Y-39067500I0J-147500D01*
G01*
X44120000Y-39362500D01*
G75*
G02*
X43972500Y-39510000I-147500J0D01*
G01*
X43627500Y-39510000D01*
G75*
G02*
X43480000Y-39362500I0J147500D01*
G01*
X43480000Y-39067500D01*
G75*
G02*
X43627500Y-38920000I147500J0D01*
G01*
G37*
G04 #@! TD*
D13*
G04 #@! TO.C,U6*
X46025001Y-38350001D03*
X46025001Y-38850000D03*
X46025001Y-39349999D03*
X46025001Y-39850000D03*
X46025001Y-40350000D03*
X46025001Y-40850001D03*
X46025001Y-41350000D03*
X46025001Y-41849999D03*
D14*
X46749559Y-42574999D03*
X47249685Y-42574999D03*
X47749811Y-42574999D03*
X48249937Y-42574999D03*
X48750063Y-42574999D03*
X49250189Y-42574999D03*
X49750315Y-42574999D03*
X50250441Y-42574999D03*
D13*
X50974999Y-41849999D03*
X50974999Y-41350000D03*
X50974999Y-40850001D03*
X50974999Y-40350000D03*
X50974999Y-39850000D03*
X50974999Y-39349999D03*
X50974999Y-38850000D03*
X50974999Y-38350001D03*
D14*
X50250441Y-37625001D03*
X49750315Y-37625001D03*
X49250189Y-37625001D03*
X48750063Y-37625001D03*
X48249937Y-37625001D03*
X47749811Y-37625001D03*
X47249685Y-37625001D03*
X46749559Y-37625001D03*
D15*
X48500000Y-40100000D03*
G04 #@! TD*
D16*
G04 #@! TO.C,J2*
X18680000Y-51650000D03*
D17*
X18680000Y-49110000D03*
X21220000Y-51650000D03*
X21220000Y-49110000D03*
X23760000Y-51650000D03*
X23760000Y-49110000D03*
X26300000Y-51650000D03*
X26300000Y-49110000D03*
X28840000Y-51650000D03*
X28840000Y-49110000D03*
X31380000Y-51650000D03*
X31380000Y-49110000D03*
X33920000Y-51650000D03*
X33920000Y-49110000D03*
X36460000Y-51650000D03*
X36460000Y-49110000D03*
X39000000Y-51650000D03*
X39000000Y-49110000D03*
X41540000Y-51650000D03*
X41540000Y-49110000D03*
G04 #@! TD*
D18*
G04 #@! TO.C,U4*
X37750000Y-42000000D03*
X38700000Y-42000000D03*
X39650000Y-42000000D03*
X39650000Y-39800000D03*
X37750000Y-39800000D03*
G04 #@! TD*
G04 #@! TO.C,C7*
G36*
G01*
X37550000Y-43443750D02*
X37550000Y-44356250D01*
G75*
G02*
X37306250Y-44600000I-243750J0D01*
G01*
X36818750Y-44600000D01*
G75*
G02*
X36575000Y-44356250I0J243750D01*
G01*
X36575000Y-43443750D01*
G75*
G02*
X36818750Y-43200000I243750J0D01*
G01*
X37306250Y-43200000D01*
G75*
G02*
X37550000Y-43443750I0J-243750D01*
G01*
G37*
G36*
G01*
X39425000Y-43443750D02*
X39425000Y-44356250D01*
G75*
G02*
X39181250Y-44600000I-243750J0D01*
G01*
X38693750Y-44600000D01*
G75*
G02*
X38450000Y-44356250I0J243750D01*
G01*
X38450000Y-43443750D01*
G75*
G02*
X38693750Y-43200000I243750J0D01*
G01*
X39181250Y-43200000D01*
G75*
G02*
X39425000Y-43443750I0J-243750D01*
G01*
G37*
G04 #@! TD*
G04 #@! TO.C,C1*
G36*
G01*
X26443750Y-45950000D02*
X27356250Y-45950000D01*
G75*
G02*
X27600000Y-46193750I0J-243750D01*
G01*
X27600000Y-46681250D01*
G75*
G02*
X27356250Y-46925000I-243750J0D01*
G01*
X26443750Y-46925000D01*
G75*
G02*
X26200000Y-46681250I0J243750D01*
G01*
X26200000Y-46193750D01*
G75*
G02*
X26443750Y-45950000I243750J0D01*
G01*
G37*
G36*
G01*
X26443750Y-44075000D02*
X27356250Y-44075000D01*
G75*
G02*
X27600000Y-44318750I0J-243750D01*
G01*
X27600000Y-44806250D01*
G75*
G02*
X27356250Y-45050000I-243750J0D01*
G01*
X26443750Y-45050000D01*
G75*
G02*
X26200000Y-44806250I0J243750D01*
G01*
X26200000Y-44318750D01*
G75*
G02*
X26443750Y-44075000I243750J0D01*
G01*
G37*
G04 #@! TD*
G04 #@! TO.C,C2*
G36*
G01*
X28343750Y-44075000D02*
X29256250Y-44075000D01*
G75*
G02*
X29500000Y-44318750I0J-243750D01*
G01*
X29500000Y-44806250D01*
G75*
G02*
X29256250Y-45050000I-243750J0D01*
G01*
X28343750Y-45050000D01*
G75*
G02*
X28100000Y-44806250I0J243750D01*
G01*
X28100000Y-44318750D01*
G75*
G02*
X28343750Y-44075000I243750J0D01*
G01*
G37*
G36*
G01*
X28343750Y-45950000D02*
X29256250Y-45950000D01*
G75*
G02*
X29500000Y-46193750I0J-243750D01*
G01*
X29500000Y-46681250D01*
G75*
G02*
X29256250Y-46925000I-243750J0D01*
G01*
X28343750Y-46925000D01*
G75*
G02*
X28100000Y-46681250I0J243750D01*
G01*
X28100000Y-46193750D01*
G75*
G02*
X28343750Y-45950000I243750J0D01*
G01*
G37*
G04 #@! TD*
G04 #@! TO.C,C3*
G36*
G01*
X30843750Y-44075000D02*
X31756250Y-44075000D01*
G75*
G02*
X32000000Y-44318750I0J-243750D01*
G01*
X32000000Y-44806250D01*
G75*
G02*
X31756250Y-45050000I-243750J0D01*
G01*
X30843750Y-45050000D01*
G75*
G02*
X30600000Y-44806250I0J243750D01*
G01*
X30600000Y-44318750D01*
G75*
G02*
X30843750Y-44075000I243750J0D01*
G01*
G37*
G36*
G01*
X30843750Y-45950000D02*
X31756250Y-45950000D01*
G75*
G02*
X32000000Y-46193750I0J-243750D01*
G01*
X32000000Y-46681250D01*
G75*
G02*
X31756250Y-46925000I-243750J0D01*
G01*
X30843750Y-46925000D01*
G75*
G02*
X30600000Y-46681250I0J243750D01*
G01*
X30600000Y-46193750D01*
G75*
G02*
X30843750Y-45950000I243750J0D01*
G01*
G37*
G04 #@! TD*
G04 #@! TO.C,C4*
G36*
G01*
X30843750Y-23775000D02*
X31756250Y-23775000D01*
G75*
G02*
X32000000Y-24018750I0J-243750D01*
G01*
X32000000Y-24506250D01*
G75*
G02*
X31756250Y-24750000I-243750J0D01*
G01*
X30843750Y-24750000D01*
G75*
G02*
X30600000Y-24506250I0J243750D01*
G01*
X30600000Y-24018750D01*
G75*
G02*
X30843750Y-23775000I243750J0D01*
G01*
G37*
G36*
G01*
X30843750Y-25650000D02*
X31756250Y-25650000D01*
G75*
G02*
X32000000Y-25893750I0J-243750D01*
G01*
X32000000Y-26381250D01*
G75*
G02*
X31756250Y-26625000I-243750J0D01*
G01*
X30843750Y-26625000D01*
G75*
G02*
X30600000Y-26381250I0J243750D01*
G01*
X30600000Y-25893750D01*
G75*
G02*
X30843750Y-25650000I243750J0D01*
G01*
G37*
G04 #@! TD*
G04 #@! TO.C,C5*
G36*
G01*
X36843750Y-25650000D02*
X37756250Y-25650000D01*
G75*
G02*
X38000000Y-25893750I0J-243750D01*
G01*
X38000000Y-26381250D01*
G75*
G02*
X37756250Y-26625000I-243750J0D01*
G01*
X36843750Y-26625000D01*
G75*
G02*
X36600000Y-26381250I0J243750D01*
G01*
X36600000Y-25893750D01*
G75*
G02*
X36843750Y-25650000I243750J0D01*
G01*
G37*
G36*
G01*
X36843750Y-23775000D02*
X37756250Y-23775000D01*
G75*
G02*
X38000000Y-24018750I0J-243750D01*
G01*
X38000000Y-24506250D01*
G75*
G02*
X37756250Y-24750000I-243750J0D01*
G01*
X36843750Y-24750000D01*
G75*
G02*
X36600000Y-24506250I0J243750D01*
G01*
X36600000Y-24018750D01*
G75*
G02*
X36843750Y-23775000I243750J0D01*
G01*
G37*
G04 #@! TD*
G04 #@! TO.C,C6*
G36*
G01*
X32743750Y-45950000D02*
X33656250Y-45950000D01*
G75*
G02*
X33900000Y-46193750I0J-243750D01*
G01*
X33900000Y-46681250D01*
G75*
G02*
X33656250Y-46925000I-243750J0D01*
G01*
X32743750Y-46925000D01*
G75*
G02*
X32500000Y-46681250I0J243750D01*
G01*
X32500000Y-46193750D01*
G75*
G02*
X32743750Y-45950000I243750J0D01*
G01*
G37*
G36*
G01*
X32743750Y-44075000D02*
X33656250Y-44075000D01*
G75*
G02*
X33900000Y-44318750I0J-243750D01*
G01*
X33900000Y-44806250D01*
G75*
G02*
X33656250Y-45050000I-243750J0D01*
G01*
X32743750Y-45050000D01*
G75*
G02*
X32500000Y-44806250I0J243750D01*
G01*
X32500000Y-44318750D01*
G75*
G02*
X32743750Y-44075000I243750J0D01*
G01*
G37*
G04 #@! TD*
G04 #@! TO.C,C8*
G36*
G01*
X38756250Y-38725000D02*
X37843750Y-38725000D01*
G75*
G02*
X37600000Y-38481250I0J243750D01*
G01*
X37600000Y-37993750D01*
G75*
G02*
X37843750Y-37750000I243750J0D01*
G01*
X38756250Y-37750000D01*
G75*
G02*
X39000000Y-37993750I0J-243750D01*
G01*
X39000000Y-38481250D01*
G75*
G02*
X38756250Y-38725000I-243750J0D01*
G01*
G37*
G36*
G01*
X38756250Y-36850000D02*
X37843750Y-36850000D01*
G75*
G02*
X37600000Y-36606250I0J243750D01*
G01*
X37600000Y-36118750D01*
G75*
G02*
X37843750Y-35875000I243750J0D01*
G01*
X38756250Y-35875000D01*
G75*
G02*
X39000000Y-36118750I0J-243750D01*
G01*
X39000000Y-36606250D01*
G75*
G02*
X38756250Y-36850000I-243750J0D01*
G01*
G37*
G04 #@! TD*
G04 #@! TO.C,C10*
G36*
G01*
X44627500Y-48190000D02*
X44972500Y-48190000D01*
G75*
G02*
X45120000Y-48337500I0J-147500D01*
G01*
X45120000Y-48632500D01*
G75*
G02*
X44972500Y-48780000I-147500J0D01*
G01*
X44627500Y-48780000D01*
G75*
G02*
X44480000Y-48632500I0J147500D01*
G01*
X44480000Y-48337500D01*
G75*
G02*
X44627500Y-48190000I147500J0D01*
G01*
G37*
G36*
G01*
X44627500Y-47220000D02*
X44972500Y-47220000D01*
G75*
G02*
X45120000Y-47367500I0J-147500D01*
G01*
X45120000Y-47662500D01*
G75*
G02*
X44972500Y-47810000I-147500J0D01*
G01*
X44627500Y-47810000D01*
G75*
G02*
X44480000Y-47662500I0J147500D01*
G01*
X44480000Y-47367500D01*
G75*
G02*
X44627500Y-47220000I147500J0D01*
G01*
G37*
G04 #@! TD*
G04 #@! TO.C,C11*
G36*
G01*
X45627500Y-47220000D02*
X45972500Y-47220000D01*
G75*
G02*
X46120000Y-47367500I0J-147500D01*
G01*
X46120000Y-47662500D01*
G75*
G02*
X45972500Y-47810000I-147500J0D01*
G01*
X45627500Y-47810000D01*
G75*
G02*
X45480000Y-47662500I0J147500D01*
G01*
X45480000Y-47367500D01*
G75*
G02*
X45627500Y-47220000I147500J0D01*
G01*
G37*
G36*
G01*
X45627500Y-48190000D02*
X45972500Y-48190000D01*
G75*
G02*
X46120000Y-48337500I0J-147500D01*
G01*
X46120000Y-48632500D01*
G75*
G02*
X45972500Y-48780000I-147500J0D01*
G01*
X45627500Y-48780000D01*
G75*
G02*
X45480000Y-48632500I0J147500D01*
G01*
X45480000Y-48337500D01*
G75*
G02*
X45627500Y-48190000I147500J0D01*
G01*
G37*
G04 #@! TD*
G04 #@! TO.C,C12*
G36*
G01*
X34872500Y-35280000D02*
X34527500Y-35280000D01*
G75*
G02*
X34380000Y-35132500I0J147500D01*
G01*
X34380000Y-34837500D01*
G75*
G02*
X34527500Y-34690000I147500J0D01*
G01*
X34872500Y-34690000D01*
G75*
G02*
X35020000Y-34837500I0J-147500D01*
G01*
X35020000Y-35132500D01*
G75*
G02*
X34872500Y-35280000I-147500J0D01*
G01*
G37*
G36*
G01*
X34872500Y-34310000D02*
X34527500Y-34310000D01*
G75*
G02*
X34380000Y-34162500I0J147500D01*
G01*
X34380000Y-33867500D01*
G75*
G02*
X34527500Y-33720000I147500J0D01*
G01*
X34872500Y-33720000D01*
G75*
G02*
X35020000Y-33867500I0J-147500D01*
G01*
X35020000Y-34162500D01*
G75*
G02*
X34872500Y-34310000I-147500J0D01*
G01*
G37*
G04 #@! TD*
G04 #@! TO.C,C13*
G36*
G01*
X53256250Y-44450000D02*
X52343750Y-44450000D01*
G75*
G02*
X52100000Y-44206250I0J243750D01*
G01*
X52100000Y-43718750D01*
G75*
G02*
X52343750Y-43475000I243750J0D01*
G01*
X53256250Y-43475000D01*
G75*
G02*
X53500000Y-43718750I0J-243750D01*
G01*
X53500000Y-44206250D01*
G75*
G02*
X53256250Y-44450000I-243750J0D01*
G01*
G37*
G36*
G01*
X53256250Y-46325000D02*
X52343750Y-46325000D01*
G75*
G02*
X52100000Y-46081250I0J243750D01*
G01*
X52100000Y-45593750D01*
G75*
G02*
X52343750Y-45350000I243750J0D01*
G01*
X53256250Y-45350000D01*
G75*
G02*
X53500000Y-45593750I0J-243750D01*
G01*
X53500000Y-46081250D01*
G75*
G02*
X53256250Y-46325000I-243750J0D01*
G01*
G37*
G04 #@! TD*
G04 #@! TO.C,C14*
G36*
G01*
X34743750Y-37550000D02*
X35256250Y-37550000D01*
G75*
G02*
X35475000Y-37768750I0J-218750D01*
G01*
X35475000Y-38206250D01*
G75*
G02*
X35256250Y-38425000I-218750J0D01*
G01*
X34743750Y-38425000D01*
G75*
G02*
X34525000Y-38206250I0J218750D01*
G01*
X34525000Y-37768750D01*
G75*
G02*
X34743750Y-37550000I218750J0D01*
G01*
G37*
G36*
G01*
X34743750Y-35975000D02*
X35256250Y-35975000D01*
G75*
G02*
X35475000Y-36193750I0J-218750D01*
G01*
X35475000Y-36631250D01*
G75*
G02*
X35256250Y-36850000I-218750J0D01*
G01*
X34743750Y-36850000D01*
G75*
G02*
X34525000Y-36631250I0J218750D01*
G01*
X34525000Y-36193750D01*
G75*
G02*
X34743750Y-35975000I218750J0D01*
G01*
G37*
G04 #@! TD*
G04 #@! TO.C,C15*
G36*
G01*
X35010000Y-39027500D02*
X35010000Y-39372500D01*
G75*
G02*
X34862500Y-39520000I-147500J0D01*
G01*
X34567500Y-39520000D01*
G75*
G02*
X34420000Y-39372500I0J147500D01*
G01*
X34420000Y-39027500D01*
G75*
G02*
X34567500Y-38880000I147500J0D01*
G01*
X34862500Y-38880000D01*
G75*
G02*
X35010000Y-39027500I0J-147500D01*
G01*
G37*
G36*
G01*
X35980000Y-39027500D02*
X35980000Y-39372500D01*
G75*
G02*
X35832500Y-39520000I-147500J0D01*
G01*
X35537500Y-39520000D01*
G75*
G02*
X35390000Y-39372500I0J147500D01*
G01*
X35390000Y-39027500D01*
G75*
G02*
X35537500Y-38880000I147500J0D01*
G01*
X35832500Y-38880000D01*
G75*
G02*
X35980000Y-39027500I0J-147500D01*
G01*
G37*
G04 #@! TD*
G04 #@! TO.C,C16*
G36*
G01*
X47027500Y-48190000D02*
X47372500Y-48190000D01*
G75*
G02*
X47520000Y-48337500I0J-147500D01*
G01*
X47520000Y-48632500D01*
G75*
G02*
X47372500Y-48780000I-147500J0D01*
G01*
X47027500Y-48780000D01*
G75*
G02*
X46880000Y-48632500I0J147500D01*
G01*
X46880000Y-48337500D01*
G75*
G02*
X47027500Y-48190000I147500J0D01*
G01*
G37*
G36*
G01*
X47027500Y-47220000D02*
X47372500Y-47220000D01*
G75*
G02*
X47520000Y-47367500I0J-147500D01*
G01*
X47520000Y-47662500D01*
G75*
G02*
X47372500Y-47810000I-147500J0D01*
G01*
X47027500Y-47810000D01*
G75*
G02*
X46880000Y-47662500I0J147500D01*
G01*
X46880000Y-47367500D01*
G75*
G02*
X47027500Y-47220000I147500J0D01*
G01*
G37*
G04 #@! TD*
G04 #@! TO.C,C17*
G36*
G01*
X38325000Y-32743750D02*
X38325000Y-33656250D01*
G75*
G02*
X38081250Y-33900000I-243750J0D01*
G01*
X37593750Y-33900000D01*
G75*
G02*
X37350000Y-33656250I0J243750D01*
G01*
X37350000Y-32743750D01*
G75*
G02*
X37593750Y-32500000I243750J0D01*
G01*
X38081250Y-32500000D01*
G75*
G02*
X38325000Y-32743750I0J-243750D01*
G01*
G37*
G36*
G01*
X36450000Y-32743750D02*
X36450000Y-33656250D01*
G75*
G02*
X36206250Y-33900000I-243750J0D01*
G01*
X35718750Y-33900000D01*
G75*
G02*
X35475000Y-33656250I0J243750D01*
G01*
X35475000Y-32743750D01*
G75*
G02*
X35718750Y-32500000I243750J0D01*
G01*
X36206250Y-32500000D01*
G75*
G02*
X36450000Y-32743750I0J-243750D01*
G01*
G37*
G04 #@! TD*
G04 #@! TO.C,C19*
G36*
G01*
X33527500Y-32520000D02*
X33872500Y-32520000D01*
G75*
G02*
X34020000Y-32667500I0J-147500D01*
G01*
X34020000Y-32962500D01*
G75*
G02*
X33872500Y-33110000I-147500J0D01*
G01*
X33527500Y-33110000D01*
G75*
G02*
X33380000Y-32962500I0J147500D01*
G01*
X33380000Y-32667500D01*
G75*
G02*
X33527500Y-32520000I147500J0D01*
G01*
G37*
G36*
G01*
X33527500Y-33490000D02*
X33872500Y-33490000D01*
G75*
G02*
X34020000Y-33637500I0J-147500D01*
G01*
X34020000Y-33932500D01*
G75*
G02*
X33872500Y-34080000I-147500J0D01*
G01*
X33527500Y-34080000D01*
G75*
G02*
X33380000Y-33932500I0J147500D01*
G01*
X33380000Y-33637500D01*
G75*
G02*
X33527500Y-33490000I147500J0D01*
G01*
G37*
G04 #@! TD*
G04 #@! TO.C,C20*
G36*
G01*
X48027500Y-48190000D02*
X48372500Y-48190000D01*
G75*
G02*
X48520000Y-48337500I0J-147500D01*
G01*
X48520000Y-48632500D01*
G75*
G02*
X48372500Y-48780000I-147500J0D01*
G01*
X48027500Y-48780000D01*
G75*
G02*
X47880000Y-48632500I0J147500D01*
G01*
X47880000Y-48337500D01*
G75*
G02*
X48027500Y-48190000I147500J0D01*
G01*
G37*
G36*
G01*
X48027500Y-47220000D02*
X48372500Y-47220000D01*
G75*
G02*
X48520000Y-47367500I0J-147500D01*
G01*
X48520000Y-47662500D01*
G75*
G02*
X48372500Y-47810000I-147500J0D01*
G01*
X48027500Y-47810000D01*
G75*
G02*
X47880000Y-47662500I0J147500D01*
G01*
X47880000Y-47367500D01*
G75*
G02*
X48027500Y-47220000I147500J0D01*
G01*
G37*
G04 #@! TD*
G04 #@! TO.C,C21*
G36*
G01*
X33527500Y-35020000D02*
X33872500Y-35020000D01*
G75*
G02*
X34020000Y-35167500I0J-147500D01*
G01*
X34020000Y-35462500D01*
G75*
G02*
X33872500Y-35610000I-147500J0D01*
G01*
X33527500Y-35610000D01*
G75*
G02*
X33380000Y-35462500I0J147500D01*
G01*
X33380000Y-35167500D01*
G75*
G02*
X33527500Y-35020000I147500J0D01*
G01*
G37*
G36*
G01*
X33527500Y-35990000D02*
X33872500Y-35990000D01*
G75*
G02*
X34020000Y-36137500I0J-147500D01*
G01*
X34020000Y-36432500D01*
G75*
G02*
X33872500Y-36580000I-147500J0D01*
G01*
X33527500Y-36580000D01*
G75*
G02*
X33380000Y-36432500I0J147500D01*
G01*
X33380000Y-36137500D01*
G75*
G02*
X33527500Y-35990000I147500J0D01*
G01*
G37*
G04 #@! TD*
G04 #@! TO.C,C22*
G36*
G01*
X42143750Y-38975000D02*
X42656250Y-38975000D01*
G75*
G02*
X42875000Y-39193750I0J-218750D01*
G01*
X42875000Y-39631250D01*
G75*
G02*
X42656250Y-39850000I-218750J0D01*
G01*
X42143750Y-39850000D01*
G75*
G02*
X41925000Y-39631250I0J218750D01*
G01*
X41925000Y-39193750D01*
G75*
G02*
X42143750Y-38975000I218750J0D01*
G01*
G37*
G36*
G01*
X42143750Y-40550000D02*
X42656250Y-40550000D01*
G75*
G02*
X42875000Y-40768750I0J-218750D01*
G01*
X42875000Y-41206250D01*
G75*
G02*
X42656250Y-41425000I-218750J0D01*
G01*
X42143750Y-41425000D01*
G75*
G02*
X41925000Y-41206250I0J218750D01*
G01*
X41925000Y-40768750D01*
G75*
G02*
X42143750Y-40550000I218750J0D01*
G01*
G37*
G04 #@! TD*
G04 #@! TO.C,C23*
G36*
G01*
X49120000Y-43972500D02*
X49120000Y-43627500D01*
G75*
G02*
X49267500Y-43480000I147500J0D01*
G01*
X49562500Y-43480000D01*
G75*
G02*
X49710000Y-43627500I0J-147500D01*
G01*
X49710000Y-43972500D01*
G75*
G02*
X49562500Y-44120000I-147500J0D01*
G01*
X49267500Y-44120000D01*
G75*
G02*
X49120000Y-43972500I0J147500D01*
G01*
G37*
G36*
G01*
X50090000Y-43972500D02*
X50090000Y-43627500D01*
G75*
G02*
X50237500Y-43480000I147500J0D01*
G01*
X50532500Y-43480000D01*
G75*
G02*
X50680000Y-43627500I0J-147500D01*
G01*
X50680000Y-43972500D01*
G75*
G02*
X50532500Y-44120000I-147500J0D01*
G01*
X50237500Y-44120000D01*
G75*
G02*
X50090000Y-43972500I0J147500D01*
G01*
G37*
G04 #@! TD*
G04 #@! TO.C,C24*
G36*
G01*
X42243750Y-43550000D02*
X42756250Y-43550000D01*
G75*
G02*
X42975000Y-43768750I0J-218750D01*
G01*
X42975000Y-44206250D01*
G75*
G02*
X42756250Y-44425000I-218750J0D01*
G01*
X42243750Y-44425000D01*
G75*
G02*
X42025000Y-44206250I0J218750D01*
G01*
X42025000Y-43768750D01*
G75*
G02*
X42243750Y-43550000I218750J0D01*
G01*
G37*
G36*
G01*
X42243750Y-41975000D02*
X42756250Y-41975000D01*
G75*
G02*
X42975000Y-42193750I0J-218750D01*
G01*
X42975000Y-42631250D01*
G75*
G02*
X42756250Y-42850000I-218750J0D01*
G01*
X42243750Y-42850000D01*
G75*
G02*
X42025000Y-42631250I0J218750D01*
G01*
X42025000Y-42193750D01*
G75*
G02*
X42243750Y-41975000I218750J0D01*
G01*
G37*
G04 #@! TD*
G04 #@! TO.C,C25*
G36*
G01*
X43856250Y-38325000D02*
X43343750Y-38325000D01*
G75*
G02*
X43125000Y-38106250I0J218750D01*
G01*
X43125000Y-37668750D01*
G75*
G02*
X43343750Y-37450000I218750J0D01*
G01*
X43856250Y-37450000D01*
G75*
G02*
X44075000Y-37668750I0J-218750D01*
G01*
X44075000Y-38106250D01*
G75*
G02*
X43856250Y-38325000I-218750J0D01*
G01*
G37*
G36*
G01*
X43856250Y-36750000D02*
X43343750Y-36750000D01*
G75*
G02*
X43125000Y-36531250I0J218750D01*
G01*
X43125000Y-36093750D01*
G75*
G02*
X43343750Y-35875000I218750J0D01*
G01*
X43856250Y-35875000D01*
G75*
G02*
X44075000Y-36093750I0J-218750D01*
G01*
X44075000Y-36531250D01*
G75*
G02*
X43856250Y-36750000I-218750J0D01*
G01*
G37*
G04 #@! TD*
G04 #@! TO.C,C26*
G36*
G01*
X44356250Y-43425000D02*
X43843750Y-43425000D01*
G75*
G02*
X43625000Y-43206250I0J218750D01*
G01*
X43625000Y-42768750D01*
G75*
G02*
X43843750Y-42550000I218750J0D01*
G01*
X44356250Y-42550000D01*
G75*
G02*
X44575000Y-42768750I0J-218750D01*
G01*
X44575000Y-43206250D01*
G75*
G02*
X44356250Y-43425000I-218750J0D01*
G01*
G37*
G36*
G01*
X44356250Y-41850000D02*
X43843750Y-41850000D01*
G75*
G02*
X43625000Y-41631250I0J218750D01*
G01*
X43625000Y-41193750D01*
G75*
G02*
X43843750Y-40975000I218750J0D01*
G01*
X44356250Y-40975000D01*
G75*
G02*
X44575000Y-41193750I0J-218750D01*
G01*
X44575000Y-41631250D01*
G75*
G02*
X44356250Y-41850000I-218750J0D01*
G01*
G37*
G04 #@! TD*
G04 #@! TO.C,C28*
G36*
G01*
X53327500Y-32020000D02*
X53672500Y-32020000D01*
G75*
G02*
X53820000Y-32167500I0J-147500D01*
G01*
X53820000Y-32462500D01*
G75*
G02*
X53672500Y-32610000I-147500J0D01*
G01*
X53327500Y-32610000D01*
G75*
G02*
X53180000Y-32462500I0J147500D01*
G01*
X53180000Y-32167500D01*
G75*
G02*
X53327500Y-32020000I147500J0D01*
G01*
G37*
G36*
G01*
X53327500Y-32990000D02*
X53672500Y-32990000D01*
G75*
G02*
X53820000Y-33137500I0J-147500D01*
G01*
X53820000Y-33432500D01*
G75*
G02*
X53672500Y-33580000I-147500J0D01*
G01*
X53327500Y-33580000D01*
G75*
G02*
X53180000Y-33432500I0J147500D01*
G01*
X53180000Y-33137500D01*
G75*
G02*
X53327500Y-32990000I147500J0D01*
G01*
G37*
G04 #@! TD*
G04 #@! TO.C,C30*
G36*
G01*
X47572500Y-24110000D02*
X47227500Y-24110000D01*
G75*
G02*
X47080000Y-23962500I0J147500D01*
G01*
X47080000Y-23667500D01*
G75*
G02*
X47227500Y-23520000I147500J0D01*
G01*
X47572500Y-23520000D01*
G75*
G02*
X47720000Y-23667500I0J-147500D01*
G01*
X47720000Y-23962500D01*
G75*
G02*
X47572500Y-24110000I-147500J0D01*
G01*
G37*
G36*
G01*
X47572500Y-25080000D02*
X47227500Y-25080000D01*
G75*
G02*
X47080000Y-24932500I0J147500D01*
G01*
X47080000Y-24637500D01*
G75*
G02*
X47227500Y-24490000I147500J0D01*
G01*
X47572500Y-24490000D01*
G75*
G02*
X47720000Y-24637500I0J-147500D01*
G01*
X47720000Y-24932500D01*
G75*
G02*
X47572500Y-25080000I-147500J0D01*
G01*
G37*
G04 #@! TD*
G04 #@! TO.C,C31*
G36*
G01*
X44972500Y-38510000D02*
X44627500Y-38510000D01*
G75*
G02*
X44480000Y-38362500I0J147500D01*
G01*
X44480000Y-38067500D01*
G75*
G02*
X44627500Y-37920000I147500J0D01*
G01*
X44972500Y-37920000D01*
G75*
G02*
X45120000Y-38067500I0J-147500D01*
G01*
X45120000Y-38362500D01*
G75*
G02*
X44972500Y-38510000I-147500J0D01*
G01*
G37*
G36*
G01*
X44972500Y-39480000D02*
X44627500Y-39480000D01*
G75*
G02*
X44480000Y-39332500I0J147500D01*
G01*
X44480000Y-39037500D01*
G75*
G02*
X44627500Y-38890000I147500J0D01*
G01*
X44972500Y-38890000D01*
G75*
G02*
X45120000Y-39037500I0J-147500D01*
G01*
X45120000Y-39332500D01*
G75*
G02*
X44972500Y-39480000I-147500J0D01*
G01*
G37*
G04 #@! TD*
G04 #@! TO.C,C33*
G36*
G01*
X49950000Y-44743750D02*
X49950000Y-45256250D01*
G75*
G02*
X49731250Y-45475000I-218750J0D01*
G01*
X49293750Y-45475000D01*
G75*
G02*
X49075000Y-45256250I0J218750D01*
G01*
X49075000Y-44743750D01*
G75*
G02*
X49293750Y-44525000I218750J0D01*
G01*
X49731250Y-44525000D01*
G75*
G02*
X49950000Y-44743750I0J-218750D01*
G01*
G37*
G36*
G01*
X51525000Y-44743750D02*
X51525000Y-45256250D01*
G75*
G02*
X51306250Y-45475000I-218750J0D01*
G01*
X50868750Y-45475000D01*
G75*
G02*
X50650000Y-45256250I0J218750D01*
G01*
X50650000Y-44743750D01*
G75*
G02*
X50868750Y-44525000I218750J0D01*
G01*
X51306250Y-44525000D01*
G75*
G02*
X51525000Y-44743750I0J-218750D01*
G01*
G37*
G04 #@! TD*
G04 #@! TO.C,C34*
G36*
G01*
X33475000Y-31756250D02*
X33475000Y-31243750D01*
G75*
G02*
X33693750Y-31025000I218750J0D01*
G01*
X34131250Y-31025000D01*
G75*
G02*
X34350000Y-31243750I0J-218750D01*
G01*
X34350000Y-31756250D01*
G75*
G02*
X34131250Y-31975000I-218750J0D01*
G01*
X33693750Y-31975000D01*
G75*
G02*
X33475000Y-31756250I0J218750D01*
G01*
G37*
G36*
G01*
X35050000Y-31756250D02*
X35050000Y-31243750D01*
G75*
G02*
X35268750Y-31025000I218750J0D01*
G01*
X35706250Y-31025000D01*
G75*
G02*
X35925000Y-31243750I0J-218750D01*
G01*
X35925000Y-31756250D01*
G75*
G02*
X35706250Y-31975000I-218750J0D01*
G01*
X35268750Y-31975000D01*
G75*
G02*
X35050000Y-31756250I0J218750D01*
G01*
G37*
G04 #@! TD*
G04 #@! TO.C,C35*
G36*
G01*
X36343750Y-36450000D02*
X36856250Y-36450000D01*
G75*
G02*
X37075000Y-36668750I0J-218750D01*
G01*
X37075000Y-37106250D01*
G75*
G02*
X36856250Y-37325000I-218750J0D01*
G01*
X36343750Y-37325000D01*
G75*
G02*
X36125000Y-37106250I0J218750D01*
G01*
X36125000Y-36668750D01*
G75*
G02*
X36343750Y-36450000I218750J0D01*
G01*
G37*
G36*
G01*
X36343750Y-34875000D02*
X36856250Y-34875000D01*
G75*
G02*
X37075000Y-35093750I0J-218750D01*
G01*
X37075000Y-35531250D01*
G75*
G02*
X36856250Y-35750000I-218750J0D01*
G01*
X36343750Y-35750000D01*
G75*
G02*
X36125000Y-35531250I0J218750D01*
G01*
X36125000Y-35093750D01*
G75*
G02*
X36343750Y-34875000I218750J0D01*
G01*
G37*
G04 #@! TD*
D19*
G04 #@! TO.C,D1*
X22950000Y-33650000D03*
D20*
X21500000Y-33650000D03*
G04 #@! TD*
G04 #@! TO.C,D2*
X55350000Y-39000000D03*
D19*
X53900000Y-39000000D03*
G04 #@! TD*
D16*
G04 #@! TO.C,J1*
X19680000Y-21400000D03*
D17*
X19680000Y-18860000D03*
X22220000Y-21400000D03*
X22220000Y-18860000D03*
X24760000Y-21400000D03*
X24760000Y-18860000D03*
X27300000Y-21400000D03*
X27300000Y-18860000D03*
X29840000Y-21400000D03*
X29840000Y-18860000D03*
X32380000Y-21400000D03*
X32380000Y-18860000D03*
X34920000Y-21400000D03*
X34920000Y-18860000D03*
X37460000Y-21400000D03*
X37460000Y-18860000D03*
X40000000Y-21400000D03*
X40000000Y-18860000D03*
X42540000Y-21400000D03*
X42540000Y-18860000D03*
X45080000Y-21400000D03*
X45080000Y-18860000D03*
X47620000Y-21400000D03*
X47620000Y-18860000D03*
X50160000Y-21400000D03*
X50160000Y-18860000D03*
X52700000Y-21400000D03*
X52700000Y-18860000D03*
X55240000Y-21400000D03*
X55240000Y-18860000D03*
X57780000Y-21400000D03*
X57780000Y-18860000D03*
X60320000Y-21400000D03*
X60320000Y-18860000D03*
X62860000Y-21400000D03*
X62860000Y-18860000D03*
X65400000Y-21400000D03*
X65400000Y-18860000D03*
X67940000Y-21400000D03*
X67940000Y-18860000D03*
G04 #@! TD*
D21*
G04 #@! TO.C,J4*
X46250000Y-63000000D03*
X42440000Y-59190000D03*
X50060000Y-59190000D03*
G04 #@! TD*
G04 #@! TO.C,J5*
X66860000Y-59190000D03*
X59240000Y-59190000D03*
X63050000Y-63000000D03*
G04 #@! TD*
G04 #@! TO.C,R1*
G36*
G01*
X45172500Y-36110000D02*
X44827500Y-36110000D01*
G75*
G02*
X44680000Y-35962500I0J147500D01*
G01*
X44680000Y-35667500D01*
G75*
G02*
X44827500Y-35520000I147500J0D01*
G01*
X45172500Y-35520000D01*
G75*
G02*
X45320000Y-35667500I0J-147500D01*
G01*
X45320000Y-35962500D01*
G75*
G02*
X45172500Y-36110000I-147500J0D01*
G01*
G37*
G36*
G01*
X45172500Y-37080000D02*
X44827500Y-37080000D01*
G75*
G02*
X44680000Y-36932500I0J147500D01*
G01*
X44680000Y-36637500D01*
G75*
G02*
X44827500Y-36490000I147500J0D01*
G01*
X45172500Y-36490000D01*
G75*
G02*
X45320000Y-36637500I0J-147500D01*
G01*
X45320000Y-36932500D01*
G75*
G02*
X45172500Y-37080000I-147500J0D01*
G01*
G37*
G04 #@! TD*
G04 #@! TO.C,R2*
G36*
G01*
X22480000Y-34877500D02*
X22480000Y-35222500D01*
G75*
G02*
X22332500Y-35370000I-147500J0D01*
G01*
X22037500Y-35370000D01*
G75*
G02*
X21890000Y-35222500I0J147500D01*
G01*
X21890000Y-34877500D01*
G75*
G02*
X22037500Y-34730000I147500J0D01*
G01*
X22332500Y-34730000D01*
G75*
G02*
X22480000Y-34877500I0J-147500D01*
G01*
G37*
G36*
G01*
X21510000Y-34877500D02*
X21510000Y-35222500D01*
G75*
G02*
X21362500Y-35370000I-147500J0D01*
G01*
X21067500Y-35370000D01*
G75*
G02*
X20920000Y-35222500I0J147500D01*
G01*
X20920000Y-34877500D01*
G75*
G02*
X21067500Y-34730000I147500J0D01*
G01*
X21362500Y-34730000D01*
G75*
G02*
X21510000Y-34877500I0J-147500D01*
G01*
G37*
G04 #@! TD*
G04 #@! TO.C,R5*
G36*
G01*
X52320000Y-25572500D02*
X52320000Y-25227500D01*
G75*
G02*
X52467500Y-25080000I147500J0D01*
G01*
X52762500Y-25080000D01*
G75*
G02*
X52910000Y-25227500I0J-147500D01*
G01*
X52910000Y-25572500D01*
G75*
G02*
X52762500Y-25720000I-147500J0D01*
G01*
X52467500Y-25720000D01*
G75*
G02*
X52320000Y-25572500I0J147500D01*
G01*
G37*
G36*
G01*
X53290000Y-25572500D02*
X53290000Y-25227500D01*
G75*
G02*
X53437500Y-25080000I147500J0D01*
G01*
X53732500Y-25080000D01*
G75*
G02*
X53880000Y-25227500I0J-147500D01*
G01*
X53880000Y-25572500D01*
G75*
G02*
X53732500Y-25720000I-147500J0D01*
G01*
X53437500Y-25720000D01*
G75*
G02*
X53290000Y-25572500I0J147500D01*
G01*
G37*
G04 #@! TD*
G04 #@! TO.C,R6*
G36*
G01*
X52320000Y-24572500D02*
X52320000Y-24227500D01*
G75*
G02*
X52467500Y-24080000I147500J0D01*
G01*
X52762500Y-24080000D01*
G75*
G02*
X52910000Y-24227500I0J-147500D01*
G01*
X52910000Y-24572500D01*
G75*
G02*
X52762500Y-24720000I-147500J0D01*
G01*
X52467500Y-24720000D01*
G75*
G02*
X52320000Y-24572500I0J147500D01*
G01*
G37*
G36*
G01*
X53290000Y-24572500D02*
X53290000Y-24227500D01*
G75*
G02*
X53437500Y-24080000I147500J0D01*
G01*
X53732500Y-24080000D01*
G75*
G02*
X53880000Y-24227500I0J-147500D01*
G01*
X53880000Y-24572500D01*
G75*
G02*
X53732500Y-24720000I-147500J0D01*
G01*
X53437500Y-24720000D01*
G75*
G02*
X53290000Y-24572500I0J147500D01*
G01*
G37*
G04 #@! TD*
G04 #@! TO.C,R7*
G36*
G01*
X46572500Y-24910000D02*
X46227500Y-24910000D01*
G75*
G02*
X46080000Y-24762500I0J147500D01*
G01*
X46080000Y-24467500D01*
G75*
G02*
X46227500Y-24320000I147500J0D01*
G01*
X46572500Y-24320000D01*
G75*
G02*
X46720000Y-24467500I0J-147500D01*
G01*
X46720000Y-24762500D01*
G75*
G02*
X46572500Y-24910000I-147500J0D01*
G01*
G37*
G36*
G01*
X46572500Y-25880000D02*
X46227500Y-25880000D01*
G75*
G02*
X46080000Y-25732500I0J147500D01*
G01*
X46080000Y-25437500D01*
G75*
G02*
X46227500Y-25290000I147500J0D01*
G01*
X46572500Y-25290000D01*
G75*
G02*
X46720000Y-25437500I0J-147500D01*
G01*
X46720000Y-25732500D01*
G75*
G02*
X46572500Y-25880000I-147500J0D01*
G01*
G37*
G04 #@! TD*
G04 #@! TO.C,R8*
G36*
G01*
X25090000Y-46672500D02*
X25090000Y-46327500D01*
G75*
G02*
X25237500Y-46180000I147500J0D01*
G01*
X25532500Y-46180000D01*
G75*
G02*
X25680000Y-46327500I0J-147500D01*
G01*
X25680000Y-46672500D01*
G75*
G02*
X25532500Y-46820000I-147500J0D01*
G01*
X25237500Y-46820000D01*
G75*
G02*
X25090000Y-46672500I0J147500D01*
G01*
G37*
G36*
G01*
X24120000Y-46672500D02*
X24120000Y-46327500D01*
G75*
G02*
X24267500Y-46180000I147500J0D01*
G01*
X24562500Y-46180000D01*
G75*
G02*
X24710000Y-46327500I0J-147500D01*
G01*
X24710000Y-46672500D01*
G75*
G02*
X24562500Y-46820000I-147500J0D01*
G01*
X24267500Y-46820000D01*
G75*
G02*
X24120000Y-46672500I0J147500D01*
G01*
G37*
G04 #@! TD*
G04 #@! TO.C,R10*
G36*
G01*
X25090000Y-45672500D02*
X25090000Y-45327500D01*
G75*
G02*
X25237500Y-45180000I147500J0D01*
G01*
X25532500Y-45180000D01*
G75*
G02*
X25680000Y-45327500I0J-147500D01*
G01*
X25680000Y-45672500D01*
G75*
G02*
X25532500Y-45820000I-147500J0D01*
G01*
X25237500Y-45820000D01*
G75*
G02*
X25090000Y-45672500I0J147500D01*
G01*
G37*
G36*
G01*
X24120000Y-45672500D02*
X24120000Y-45327500D01*
G75*
G02*
X24267500Y-45180000I147500J0D01*
G01*
X24562500Y-45180000D01*
G75*
G02*
X24710000Y-45327500I0J-147500D01*
G01*
X24710000Y-45672500D01*
G75*
G02*
X24562500Y-45820000I-147500J0D01*
G01*
X24267500Y-45820000D01*
G75*
G02*
X24120000Y-45672500I0J147500D01*
G01*
G37*
G04 #@! TD*
G04 #@! TO.C,R11*
G36*
G01*
X35980000Y-45327500D02*
X35980000Y-45672500D01*
G75*
G02*
X35832500Y-45820000I-147500J0D01*
G01*
X35537500Y-45820000D01*
G75*
G02*
X35390000Y-45672500I0J147500D01*
G01*
X35390000Y-45327500D01*
G75*
G02*
X35537500Y-45180000I147500J0D01*
G01*
X35832500Y-45180000D01*
G75*
G02*
X35980000Y-45327500I0J-147500D01*
G01*
G37*
G36*
G01*
X35010000Y-45327500D02*
X35010000Y-45672500D01*
G75*
G02*
X34862500Y-45820000I-147500J0D01*
G01*
X34567500Y-45820000D01*
G75*
G02*
X34420000Y-45672500I0J147500D01*
G01*
X34420000Y-45327500D01*
G75*
G02*
X34567500Y-45180000I147500J0D01*
G01*
X34862500Y-45180000D01*
G75*
G02*
X35010000Y-45327500I0J-147500D01*
G01*
G37*
G04 #@! TD*
G04 #@! TO.C,R13*
G36*
G01*
X35980000Y-46327500D02*
X35980000Y-46672500D01*
G75*
G02*
X35832500Y-46820000I-147500J0D01*
G01*
X35537500Y-46820000D01*
G75*
G02*
X35390000Y-46672500I0J147500D01*
G01*
X35390000Y-46327500D01*
G75*
G02*
X35537500Y-46180000I147500J0D01*
G01*
X35832500Y-46180000D01*
G75*
G02*
X35980000Y-46327500I0J-147500D01*
G01*
G37*
G36*
G01*
X35010000Y-46327500D02*
X35010000Y-46672500D01*
G75*
G02*
X34862500Y-46820000I-147500J0D01*
G01*
X34567500Y-46820000D01*
G75*
G02*
X34420000Y-46672500I0J147500D01*
G01*
X34420000Y-46327500D01*
G75*
G02*
X34567500Y-46180000I147500J0D01*
G01*
X34862500Y-46180000D01*
G75*
G02*
X35010000Y-46327500I0J-147500D01*
G01*
G37*
G04 #@! TD*
G04 #@! TO.C,R14*
G36*
G01*
X32443750Y-42650000D02*
X32956250Y-42650000D01*
G75*
G02*
X33175000Y-42868750I0J-218750D01*
G01*
X33175000Y-43306250D01*
G75*
G02*
X32956250Y-43525000I-218750J0D01*
G01*
X32443750Y-43525000D01*
G75*
G02*
X32225000Y-43306250I0J218750D01*
G01*
X32225000Y-42868750D01*
G75*
G02*
X32443750Y-42650000I218750J0D01*
G01*
G37*
G36*
G01*
X32443750Y-41075000D02*
X32956250Y-41075000D01*
G75*
G02*
X33175000Y-41293750I0J-218750D01*
G01*
X33175000Y-41731250D01*
G75*
G02*
X32956250Y-41950000I-218750J0D01*
G01*
X32443750Y-41950000D01*
G75*
G02*
X32225000Y-41731250I0J218750D01*
G01*
X32225000Y-41293750D01*
G75*
G02*
X32443750Y-41075000I218750J0D01*
G01*
G37*
G04 #@! TD*
G04 #@! TO.C,R15*
G36*
G01*
X44627500Y-44620000D02*
X44972500Y-44620000D01*
G75*
G02*
X45120000Y-44767500I0J-147500D01*
G01*
X45120000Y-45062500D01*
G75*
G02*
X44972500Y-45210000I-147500J0D01*
G01*
X44627500Y-45210000D01*
G75*
G02*
X44480000Y-45062500I0J147500D01*
G01*
X44480000Y-44767500D01*
G75*
G02*
X44627500Y-44620000I147500J0D01*
G01*
G37*
G36*
G01*
X44627500Y-45590000D02*
X44972500Y-45590000D01*
G75*
G02*
X45120000Y-45737500I0J-147500D01*
G01*
X45120000Y-46032500D01*
G75*
G02*
X44972500Y-46180000I-147500J0D01*
G01*
X44627500Y-46180000D01*
G75*
G02*
X44480000Y-46032500I0J147500D01*
G01*
X44480000Y-45737500D01*
G75*
G02*
X44627500Y-45590000I147500J0D01*
G01*
G37*
G04 #@! TD*
G04 #@! TO.C,R16*
G36*
G01*
X45627500Y-45590000D02*
X45972500Y-45590000D01*
G75*
G02*
X46120000Y-45737500I0J-147500D01*
G01*
X46120000Y-46032500D01*
G75*
G02*
X45972500Y-46180000I-147500J0D01*
G01*
X45627500Y-46180000D01*
G75*
G02*
X45480000Y-46032500I0J147500D01*
G01*
X45480000Y-45737500D01*
G75*
G02*
X45627500Y-45590000I147500J0D01*
G01*
G37*
G36*
G01*
X45627500Y-44620000D02*
X45972500Y-44620000D01*
G75*
G02*
X46120000Y-44767500I0J-147500D01*
G01*
X46120000Y-45062500D01*
G75*
G02*
X45972500Y-45210000I-147500J0D01*
G01*
X45627500Y-45210000D01*
G75*
G02*
X45480000Y-45062500I0J147500D01*
G01*
X45480000Y-44767500D01*
G75*
G02*
X45627500Y-44620000I147500J0D01*
G01*
G37*
G04 #@! TD*
G04 #@! TO.C,R17*
G36*
G01*
X47027500Y-44620000D02*
X47372500Y-44620000D01*
G75*
G02*
X47520000Y-44767500I0J-147500D01*
G01*
X47520000Y-45062500D01*
G75*
G02*
X47372500Y-45210000I-147500J0D01*
G01*
X47027500Y-45210000D01*
G75*
G02*
X46880000Y-45062500I0J147500D01*
G01*
X46880000Y-44767500D01*
G75*
G02*
X47027500Y-44620000I147500J0D01*
G01*
G37*
G36*
G01*
X47027500Y-45590000D02*
X47372500Y-45590000D01*
G75*
G02*
X47520000Y-45737500I0J-147500D01*
G01*
X47520000Y-46032500D01*
G75*
G02*
X47372500Y-46180000I-147500J0D01*
G01*
X47027500Y-46180000D01*
G75*
G02*
X46880000Y-46032500I0J147500D01*
G01*
X46880000Y-45737500D01*
G75*
G02*
X47027500Y-45590000I147500J0D01*
G01*
G37*
G04 #@! TD*
G04 #@! TO.C,R18*
G36*
G01*
X48027500Y-45590000D02*
X48372500Y-45590000D01*
G75*
G02*
X48520000Y-45737500I0J-147500D01*
G01*
X48520000Y-46032500D01*
G75*
G02*
X48372500Y-46180000I-147500J0D01*
G01*
X48027500Y-46180000D01*
G75*
G02*
X47880000Y-46032500I0J147500D01*
G01*
X47880000Y-45737500D01*
G75*
G02*
X48027500Y-45590000I147500J0D01*
G01*
G37*
G36*
G01*
X48027500Y-44620000D02*
X48372500Y-44620000D01*
G75*
G02*
X48520000Y-44767500I0J-147500D01*
G01*
X48520000Y-45062500D01*
G75*
G02*
X48372500Y-45210000I-147500J0D01*
G01*
X48027500Y-45210000D01*
G75*
G02*
X47880000Y-45062500I0J147500D01*
G01*
X47880000Y-44767500D01*
G75*
G02*
X48027500Y-44620000I147500J0D01*
G01*
G37*
G04 #@! TD*
G04 #@! TO.C,R19*
G36*
G01*
X46356250Y-31125000D02*
X45843750Y-31125000D01*
G75*
G02*
X45625000Y-30906250I0J218750D01*
G01*
X45625000Y-30468750D01*
G75*
G02*
X45843750Y-30250000I218750J0D01*
G01*
X46356250Y-30250000D01*
G75*
G02*
X46575000Y-30468750I0J-218750D01*
G01*
X46575000Y-30906250D01*
G75*
G02*
X46356250Y-31125000I-218750J0D01*
G01*
G37*
G36*
G01*
X46356250Y-29550000D02*
X45843750Y-29550000D01*
G75*
G02*
X45625000Y-29331250I0J218750D01*
G01*
X45625000Y-28893750D01*
G75*
G02*
X45843750Y-28675000I218750J0D01*
G01*
X46356250Y-28675000D01*
G75*
G02*
X46575000Y-28893750I0J-218750D01*
G01*
X46575000Y-29331250D01*
G75*
G02*
X46356250Y-29550000I-218750J0D01*
G01*
G37*
G04 #@! TD*
G04 #@! TO.C,R20*
G36*
G01*
X56972500Y-38810000D02*
X56627500Y-38810000D01*
G75*
G02*
X56480000Y-38662500I0J147500D01*
G01*
X56480000Y-38367500D01*
G75*
G02*
X56627500Y-38220000I147500J0D01*
G01*
X56972500Y-38220000D01*
G75*
G02*
X57120000Y-38367500I0J-147500D01*
G01*
X57120000Y-38662500D01*
G75*
G02*
X56972500Y-38810000I-147500J0D01*
G01*
G37*
G36*
G01*
X56972500Y-39780000D02*
X56627500Y-39780000D01*
G75*
G02*
X56480000Y-39632500I0J147500D01*
G01*
X56480000Y-39337500D01*
G75*
G02*
X56627500Y-39190000I147500J0D01*
G01*
X56972500Y-39190000D01*
G75*
G02*
X57120000Y-39337500I0J-147500D01*
G01*
X57120000Y-39632500D01*
G75*
G02*
X56972500Y-39780000I-147500J0D01*
G01*
G37*
G04 #@! TD*
G04 #@! TO.C,R22*
G36*
G01*
X57256250Y-30725000D02*
X56743750Y-30725000D01*
G75*
G02*
X56525000Y-30506250I0J218750D01*
G01*
X56525000Y-30068750D01*
G75*
G02*
X56743750Y-29850000I218750J0D01*
G01*
X57256250Y-29850000D01*
G75*
G02*
X57475000Y-30068750I0J-218750D01*
G01*
X57475000Y-30506250D01*
G75*
G02*
X57256250Y-30725000I-218750J0D01*
G01*
G37*
G36*
G01*
X57256250Y-29150000D02*
X56743750Y-29150000D01*
G75*
G02*
X56525000Y-28931250I0J218750D01*
G01*
X56525000Y-28493750D01*
G75*
G02*
X56743750Y-28275000I218750J0D01*
G01*
X57256250Y-28275000D01*
G75*
G02*
X57475000Y-28493750I0J-218750D01*
G01*
X57475000Y-28931250D01*
G75*
G02*
X57256250Y-29150000I-218750J0D01*
G01*
G37*
G04 #@! TD*
G04 #@! TO.C,R27*
G36*
G01*
X35275000Y-29356250D02*
X35275000Y-28843750D01*
G75*
G02*
X35493750Y-28625000I218750J0D01*
G01*
X35931250Y-28625000D01*
G75*
G02*
X36150000Y-28843750I0J-218750D01*
G01*
X36150000Y-29356250D01*
G75*
G02*
X35931250Y-29575000I-218750J0D01*
G01*
X35493750Y-29575000D01*
G75*
G02*
X35275000Y-29356250I0J218750D01*
G01*
G37*
G36*
G01*
X36850000Y-29356250D02*
X36850000Y-28843750D01*
G75*
G02*
X37068750Y-28625000I218750J0D01*
G01*
X37506250Y-28625000D01*
G75*
G02*
X37725000Y-28843750I0J-218750D01*
G01*
X37725000Y-29356250D01*
G75*
G02*
X37506250Y-29575000I-218750J0D01*
G01*
X37068750Y-29575000D01*
G75*
G02*
X36850000Y-29356250I0J218750D01*
G01*
G37*
G04 #@! TD*
G04 #@! TO.C,R28*
G36*
G01*
X45227500Y-24320000D02*
X45572500Y-24320000D01*
G75*
G02*
X45720000Y-24467500I0J-147500D01*
G01*
X45720000Y-24762500D01*
G75*
G02*
X45572500Y-24910000I-147500J0D01*
G01*
X45227500Y-24910000D01*
G75*
G02*
X45080000Y-24762500I0J147500D01*
G01*
X45080000Y-24467500D01*
G75*
G02*
X45227500Y-24320000I147500J0D01*
G01*
G37*
G36*
G01*
X45227500Y-25290000D02*
X45572500Y-25290000D01*
G75*
G02*
X45720000Y-25437500I0J-147500D01*
G01*
X45720000Y-25732500D01*
G75*
G02*
X45572500Y-25880000I-147500J0D01*
G01*
X45227500Y-25880000D01*
G75*
G02*
X45080000Y-25732500I0J147500D01*
G01*
X45080000Y-25437500D01*
G75*
G02*
X45227500Y-25290000I147500J0D01*
G01*
G37*
G04 #@! TD*
D22*
G04 #@! TO.C,U1*
X32049948Y-39400001D03*
X32049948Y-38899999D03*
X32049948Y-38400000D03*
X32049948Y-37899999D03*
X32049948Y-37400000D03*
X32049948Y-36899998D03*
X32049948Y-36399999D03*
X32049948Y-35900000D03*
X32049948Y-35399998D03*
X32049948Y-34899999D03*
X32049948Y-34400000D03*
X32049948Y-33899999D03*
X32049948Y-33400000D03*
X32049948Y-32899998D03*
X32049948Y-32399999D03*
X26150052Y-32399999D03*
X26150052Y-32900001D03*
X26150052Y-33400000D03*
X26150052Y-33900001D03*
X26150052Y-34400000D03*
X26150052Y-34899999D03*
X26150052Y-35400001D03*
X26150052Y-35900000D03*
X26150052Y-36400002D03*
X26150052Y-36900001D03*
X26150052Y-37400000D03*
X26150052Y-37900001D03*
X26150052Y-38400000D03*
X26150052Y-38900002D03*
X26150052Y-39400001D03*
G04 #@! TD*
D23*
G04 #@! TO.C,U2*
X48800000Y-26150000D03*
X48800000Y-24250000D03*
X51000000Y-24250000D03*
X51000000Y-25200000D03*
X51000000Y-26150000D03*
G04 #@! TD*
G04 #@! TO.C,U3*
X35400000Y-24350000D03*
X35400000Y-26250000D03*
X33200000Y-26250000D03*
X33200000Y-25300000D03*
X33200000Y-24350000D03*
G04 #@! TD*
G04 #@! TO.C,U5*
X56800000Y-44850000D03*
X56800000Y-43900000D03*
X56800000Y-42950000D03*
X54600000Y-42950000D03*
X54600000Y-44850000D03*
G04 #@! TD*
D16*
G04 #@! TO.C,J6*
X19680000Y-16280000D03*
D17*
X19680000Y-13740000D03*
X22220000Y-16280000D03*
X22220000Y-13740000D03*
X24760000Y-16280000D03*
X24760000Y-13740000D03*
X27300000Y-16280000D03*
X27300000Y-13740000D03*
X29840000Y-16280000D03*
X29840000Y-13740000D03*
X32380000Y-16280000D03*
X32380000Y-13740000D03*
X34920000Y-16280000D03*
X34920000Y-13740000D03*
X37460000Y-16280000D03*
X37460000Y-13740000D03*
X40000000Y-16280000D03*
X40000000Y-13740000D03*
X42540000Y-16280000D03*
X42540000Y-13740000D03*
X45080000Y-16280000D03*
X45080000Y-13740000D03*
X47620000Y-16280000D03*
X47620000Y-13740000D03*
X50160000Y-16280000D03*
X50160000Y-13740000D03*
X52700000Y-16280000D03*
X52700000Y-13740000D03*
X55240000Y-16280000D03*
X55240000Y-13740000D03*
X57780000Y-16280000D03*
X57780000Y-13740000D03*
X60320000Y-16280000D03*
X60320000Y-13740000D03*
X62860000Y-16280000D03*
X62860000Y-13740000D03*
X65400000Y-16280000D03*
X65400000Y-13740000D03*
X67940000Y-16280000D03*
X67940000Y-13740000D03*
G04 #@! TD*
G04 #@! TO.C,R3*
G36*
G01*
X24456250Y-33925000D02*
X23943750Y-33925000D01*
G75*
G02*
X23725000Y-33706250I0J218750D01*
G01*
X23725000Y-33268750D01*
G75*
G02*
X23943750Y-33050000I218750J0D01*
G01*
X24456250Y-33050000D01*
G75*
G02*
X24675000Y-33268750I0J-218750D01*
G01*
X24675000Y-33706250D01*
G75*
G02*
X24456250Y-33925000I-218750J0D01*
G01*
G37*
G36*
G01*
X24456250Y-32350000D02*
X23943750Y-32350000D01*
G75*
G02*
X23725000Y-32131250I0J218750D01*
G01*
X23725000Y-31693750D01*
G75*
G02*
X23943750Y-31475000I218750J0D01*
G01*
X24456250Y-31475000D01*
G75*
G02*
X24675000Y-31693750I0J-218750D01*
G01*
X24675000Y-32131250D01*
G75*
G02*
X24456250Y-32350000I-218750J0D01*
G01*
G37*
G04 #@! TD*
G04 #@! TO.C,R4*
G36*
G01*
X27143750Y-42650000D02*
X27656250Y-42650000D01*
G75*
G02*
X27875000Y-42868750I0J-218750D01*
G01*
X27875000Y-43306250D01*
G75*
G02*
X27656250Y-43525000I-218750J0D01*
G01*
X27143750Y-43525000D01*
G75*
G02*
X26925000Y-43306250I0J218750D01*
G01*
X26925000Y-42868750D01*
G75*
G02*
X27143750Y-42650000I218750J0D01*
G01*
G37*
G36*
G01*
X27143750Y-41075000D02*
X27656250Y-41075000D01*
G75*
G02*
X27875000Y-41293750I0J-218750D01*
G01*
X27875000Y-41731250D01*
G75*
G02*
X27656250Y-41950000I-218750J0D01*
G01*
X27143750Y-41950000D01*
G75*
G02*
X26925000Y-41731250I0J218750D01*
G01*
X26925000Y-41293750D01*
G75*
G02*
X27143750Y-41075000I218750J0D01*
G01*
G37*
G04 #@! TD*
G04 #@! TO.C,R12*
G36*
G01*
X30943750Y-41075000D02*
X31456250Y-41075000D01*
G75*
G02*
X31675000Y-41293750I0J-218750D01*
G01*
X31675000Y-41731250D01*
G75*
G02*
X31456250Y-41950000I-218750J0D01*
G01*
X30943750Y-41950000D01*
G75*
G02*
X30725000Y-41731250I0J218750D01*
G01*
X30725000Y-41293750D01*
G75*
G02*
X30943750Y-41075000I218750J0D01*
G01*
G37*
G36*
G01*
X30943750Y-42650000D02*
X31456250Y-42650000D01*
G75*
G02*
X31675000Y-42868750I0J-218750D01*
G01*
X31675000Y-43306250D01*
G75*
G02*
X31456250Y-43525000I-218750J0D01*
G01*
X30943750Y-43525000D01*
G75*
G02*
X30725000Y-43306250I0J218750D01*
G01*
X30725000Y-42868750D01*
G75*
G02*
X30943750Y-42650000I218750J0D01*
G01*
G37*
G04 #@! TD*
G04 #@! TO.C,R9*
G36*
G01*
X28643750Y-41075000D02*
X29156250Y-41075000D01*
G75*
G02*
X29375000Y-41293750I0J-218750D01*
G01*
X29375000Y-41731250D01*
G75*
G02*
X29156250Y-41950000I-218750J0D01*
G01*
X28643750Y-41950000D01*
G75*
G02*
X28425000Y-41731250I0J218750D01*
G01*
X28425000Y-41293750D01*
G75*
G02*
X28643750Y-41075000I218750J0D01*
G01*
G37*
G36*
G01*
X28643750Y-42650000D02*
X29156250Y-42650000D01*
G75*
G02*
X29375000Y-42868750I0J-218750D01*
G01*
X29375000Y-43306250D01*
G75*
G02*
X29156250Y-43525000I-218750J0D01*
G01*
X28643750Y-43525000D01*
G75*
G02*
X28425000Y-43306250I0J218750D01*
G01*
X28425000Y-42868750D01*
G75*
G02*
X28643750Y-42650000I218750J0D01*
G01*
G37*
G04 #@! TD*
D24*
G04 #@! TO.C,X1*
X50075000Y-33575000D03*
X51725000Y-33575000D03*
X51725000Y-32025000D03*
X50075000Y-32025000D03*
G04 #@! TD*
G04 #@! TO.C,X2*
X55275000Y-32025000D03*
X56925000Y-32025000D03*
X56925000Y-33575000D03*
X55275000Y-33575000D03*
G04 #@! TD*
M02*
