G04 #@! TF.GenerationSoftware,KiCad,Pcbnew,5.1.7-a382d34a8~88~ubuntu18.04.1*
G04 #@! TF.CreationDate,2021-03-11T03:45:44+01:00*
G04 #@! TF.ProjectId,zynthiandac,7a796e74-6869-4616-9e64-61632e6b6963,rev?*
G04 #@! TF.SameCoordinates,Original*
G04 #@! TF.FileFunction,Legend,Top*
G04 #@! TF.FilePolarity,Positive*
%FSLAX46Y46*%
G04 Gerber Fmt 4.6, Leading zero omitted, Abs format (unit mm)*
G04 Created by KiCad (PCBNEW 5.1.7-a382d34a8~88~ubuntu18.04.1) date 2021-03-11 03:45:44*
%MOMM*%
%LPD*%
G01*
G04 APERTURE LIST*
%ADD10C,0.200000*%
%ADD11C,0.120000*%
%ADD12C,0.010000*%
%ADD13C,0.152400*%
%ADD14C,0.150000*%
%ADD15C,0.050000*%
%ADD16C,0.040000*%
%ADD17C,0.090000*%
%ADD18C,0.075000*%
%ADD19C,0.100000*%
G04 APERTURE END LIST*
D10*
X72542857Y-46371428D02*
X72542857Y-45571428D01*
X73742857Y-46371428D01*
X73742857Y-45571428D01*
X72942857Y-45228571D02*
X73742857Y-44942857D01*
X72942857Y-44657142D02*
X73742857Y-44942857D01*
X74028571Y-45057142D01*
X74085714Y-45114285D01*
X74142857Y-45228571D01*
X72942857Y-44200000D02*
X73742857Y-44200000D01*
X73057142Y-44200000D02*
X73000000Y-44142857D01*
X72942857Y-44028571D01*
X72942857Y-43857142D01*
X73000000Y-43742857D01*
X73114285Y-43685714D01*
X73742857Y-43685714D01*
X73400000Y-43171428D02*
X73400000Y-42600000D01*
X73742857Y-43285714D02*
X72542857Y-42885714D01*
X73742857Y-42485714D01*
X73742857Y-42085714D02*
X72542857Y-42085714D01*
X72542857Y-41800000D01*
X72600000Y-41628571D01*
X72714285Y-41514285D01*
X72828571Y-41457142D01*
X73057142Y-41400000D01*
X73228571Y-41400000D01*
X73457142Y-41457142D01*
X73571428Y-41514285D01*
X73685714Y-41628571D01*
X73742857Y-41800000D01*
X73742857Y-42085714D01*
X73400000Y-40942857D02*
X73400000Y-40371428D01*
X73742857Y-41057142D02*
X72542857Y-40657142D01*
X73742857Y-40257142D01*
X73628571Y-39171428D02*
X73685714Y-39228571D01*
X73742857Y-39400000D01*
X73742857Y-39514285D01*
X73685714Y-39685714D01*
X73571428Y-39800000D01*
X73457142Y-39857142D01*
X73228571Y-39914285D01*
X73057142Y-39914285D01*
X72828571Y-39857142D01*
X72714285Y-39800000D01*
X72600000Y-39685714D01*
X72542857Y-39514285D01*
X72542857Y-39400000D01*
X72600000Y-39228571D01*
X72657142Y-39171428D01*
X72942857Y-37857142D02*
X73742857Y-37571428D01*
X72942857Y-37285714D01*
X73742857Y-36200000D02*
X73742857Y-36885714D01*
X73742857Y-36542857D02*
X72542857Y-36542857D01*
X72714285Y-36657142D01*
X72828571Y-36771428D01*
X72885714Y-36885714D01*
X73628571Y-35685714D02*
X73685714Y-35628571D01*
X73742857Y-35685714D01*
X73685714Y-35742857D01*
X73628571Y-35685714D01*
X73742857Y-35685714D01*
X72542857Y-34885714D02*
X72542857Y-34771428D01*
X72600000Y-34657142D01*
X72657142Y-34600000D01*
X72771428Y-34542857D01*
X73000000Y-34485714D01*
X73285714Y-34485714D01*
X73514285Y-34542857D01*
X73628571Y-34600000D01*
X73685714Y-34657142D01*
X73742857Y-34771428D01*
X73742857Y-34885714D01*
X73685714Y-35000000D01*
X73628571Y-35057142D01*
X73514285Y-35114285D01*
X73285714Y-35171428D01*
X73000000Y-35171428D01*
X72771428Y-35114285D01*
X72657142Y-35057142D01*
X72600000Y-35000000D01*
X72542857Y-34885714D01*
D11*
G04 #@! TO.C,J3*
X22500000Y-54640000D02*
X35200000Y-54640000D01*
X35200000Y-54640000D02*
X35200000Y-67340000D01*
X35200000Y-67340000D02*
X22500000Y-67340000D01*
X22500000Y-67340000D02*
X22500000Y-54640000D01*
D12*
G04 #@! TO.C,REF\u002A\u002A*
G36*
X68368931Y-29644186D02*
G01*
X68813555Y-29560365D01*
X68941053Y-29251080D01*
X69068551Y-28941794D01*
X68816246Y-28570754D01*
X68745996Y-28466843D01*
X68683272Y-28372913D01*
X68630938Y-28293348D01*
X68591857Y-28232530D01*
X68568893Y-28194843D01*
X68563942Y-28184579D01*
X68576676Y-28166090D01*
X68611882Y-28126580D01*
X68665062Y-28070478D01*
X68731718Y-28002213D01*
X68807354Y-27926214D01*
X68887472Y-27846908D01*
X68967574Y-27768725D01*
X69043164Y-27696093D01*
X69109745Y-27633441D01*
X69162818Y-27585197D01*
X69197887Y-27555790D01*
X69209623Y-27548759D01*
X69231260Y-27558877D01*
X69278662Y-27587241D01*
X69347193Y-27630871D01*
X69432215Y-27686782D01*
X69529093Y-27751994D01*
X69584350Y-27789781D01*
X69685248Y-27858657D01*
X69776299Y-27919860D01*
X69852970Y-27970422D01*
X69910728Y-28007372D01*
X69945043Y-28027742D01*
X69952254Y-28030803D01*
X69972748Y-28023864D01*
X70020513Y-28004949D01*
X70088832Y-27976913D01*
X70170989Y-27942609D01*
X70260270Y-27904891D01*
X70349958Y-27866613D01*
X70433338Y-27830630D01*
X70503694Y-27799794D01*
X70554310Y-27776961D01*
X70578471Y-27764983D01*
X70579422Y-27764276D01*
X70584036Y-27745469D01*
X70594328Y-27695382D01*
X70609287Y-27619207D01*
X70627901Y-27522135D01*
X70649159Y-27409357D01*
X70661418Y-27343558D01*
X70684362Y-27223050D01*
X70706195Y-27114203D01*
X70725722Y-27022524D01*
X70741748Y-26953519D01*
X70753079Y-26912696D01*
X70756674Y-26904489D01*
X70781006Y-26896452D01*
X70835959Y-26889967D01*
X70915108Y-26885030D01*
X71012026Y-26881636D01*
X71120287Y-26879782D01*
X71233465Y-26879462D01*
X71345135Y-26880673D01*
X71448868Y-26883410D01*
X71538241Y-26887669D01*
X71606826Y-26893445D01*
X71648197Y-26900733D01*
X71656810Y-26905105D01*
X71667133Y-26931236D01*
X71681892Y-26986607D01*
X71699352Y-27063893D01*
X71717780Y-27155770D01*
X71723741Y-27187842D01*
X71752066Y-27342476D01*
X71774876Y-27464625D01*
X71793080Y-27558327D01*
X71807583Y-27627616D01*
X71819292Y-27676529D01*
X71829115Y-27709103D01*
X71837956Y-27729372D01*
X71846724Y-27741374D01*
X71848457Y-27743053D01*
X71876371Y-27759816D01*
X71930695Y-27785386D01*
X72004777Y-27817212D01*
X72091965Y-27852740D01*
X72185608Y-27889417D01*
X72279052Y-27924689D01*
X72365647Y-27956004D01*
X72438740Y-27980807D01*
X72491678Y-27996546D01*
X72517811Y-28000668D01*
X72518726Y-28000324D01*
X72540086Y-27986359D01*
X72587084Y-27954678D01*
X72654827Y-27908609D01*
X72738423Y-27851482D01*
X72832982Y-27786627D01*
X72859854Y-27768157D01*
X72957275Y-27702301D01*
X73046163Y-27644350D01*
X73121412Y-27597462D01*
X73177920Y-27564793D01*
X73210581Y-27549500D01*
X73214593Y-27548759D01*
X73235684Y-27561608D01*
X73277464Y-27597112D01*
X73335445Y-27650707D01*
X73405135Y-27717829D01*
X73482045Y-27793913D01*
X73561683Y-27874396D01*
X73639561Y-27954713D01*
X73711186Y-28030301D01*
X73772070Y-28096595D01*
X73817721Y-28149031D01*
X73843650Y-28183045D01*
X73847883Y-28192455D01*
X73837912Y-28214357D01*
X73811020Y-28259200D01*
X73771736Y-28319679D01*
X73740117Y-28366211D01*
X73682098Y-28450525D01*
X73613784Y-28550374D01*
X73545579Y-28650527D01*
X73509075Y-28704373D01*
X73385800Y-28886629D01*
X73468520Y-29039619D01*
X73504759Y-29109318D01*
X73532926Y-29168586D01*
X73548991Y-29208689D01*
X73551226Y-29218897D01*
X73534722Y-29231171D01*
X73488082Y-29255387D01*
X73415609Y-29289737D01*
X73321606Y-29332412D01*
X73210374Y-29381606D01*
X73086215Y-29435510D01*
X72953432Y-29492316D01*
X72816327Y-29550218D01*
X72679202Y-29607407D01*
X72546358Y-29662076D01*
X72422098Y-29712416D01*
X72310725Y-29756620D01*
X72216539Y-29792881D01*
X72143844Y-29819391D01*
X72096941Y-29834342D01*
X72080833Y-29836746D01*
X72060286Y-29817689D01*
X72026933Y-29775964D01*
X71987702Y-29720294D01*
X71984599Y-29715622D01*
X71869423Y-29571736D01*
X71735053Y-29455717D01*
X71585784Y-29368570D01*
X71425913Y-29311301D01*
X71259737Y-29284914D01*
X71091552Y-29290415D01*
X70925655Y-29328810D01*
X70766342Y-29401105D01*
X70731487Y-29422374D01*
X70590737Y-29533004D01*
X70477714Y-29663698D01*
X70393003Y-29809936D01*
X70337194Y-29967192D01*
X70310874Y-30130943D01*
X70314630Y-30296667D01*
X70349050Y-30459838D01*
X70414723Y-30615935D01*
X70512235Y-30760433D01*
X70551813Y-30805131D01*
X70675703Y-30918888D01*
X70806124Y-31001782D01*
X70952315Y-31058644D01*
X71097088Y-31090313D01*
X71259860Y-31098131D01*
X71423440Y-31072062D01*
X71582298Y-31014755D01*
X71730906Y-30928856D01*
X71863735Y-30817014D01*
X71975256Y-30681877D01*
X71987011Y-30664117D01*
X72025508Y-30607850D01*
X72058863Y-30565077D01*
X72080160Y-30544628D01*
X72080833Y-30544331D01*
X72103871Y-30548721D01*
X72156157Y-30566124D01*
X72233390Y-30594732D01*
X72331268Y-30632735D01*
X72445491Y-30678326D01*
X72571758Y-30729697D01*
X72705767Y-30785038D01*
X72843218Y-30842542D01*
X72979808Y-30900399D01*
X73111237Y-30956802D01*
X73233205Y-31009942D01*
X73341409Y-31058010D01*
X73431549Y-31099199D01*
X73499323Y-31131699D01*
X73540430Y-31153703D01*
X73551226Y-31162564D01*
X73542819Y-31189640D01*
X73520272Y-31240303D01*
X73487613Y-31305817D01*
X73468520Y-31341841D01*
X73385800Y-31494832D01*
X73509075Y-31677088D01*
X73572228Y-31770125D01*
X73641727Y-31871985D01*
X73707165Y-31967438D01*
X73740117Y-32015250D01*
X73785273Y-32082495D01*
X73821057Y-32139436D01*
X73842938Y-32178646D01*
X73847563Y-32191381D01*
X73835085Y-32209917D01*
X73800252Y-32250941D01*
X73746678Y-32310475D01*
X73677983Y-32384542D01*
X73597781Y-32469165D01*
X73546286Y-32522685D01*
X73454286Y-32616319D01*
X73371999Y-32697241D01*
X73302945Y-32762177D01*
X73250644Y-32807858D01*
X73218616Y-32831011D01*
X73212116Y-32833232D01*
X73187394Y-32822924D01*
X73137405Y-32794439D01*
X73067212Y-32750937D01*
X72981875Y-32695577D01*
X72886456Y-32631520D01*
X72859854Y-32613303D01*
X72763167Y-32546927D01*
X72676117Y-32487378D01*
X72603595Y-32437984D01*
X72550493Y-32402075D01*
X72521703Y-32382981D01*
X72518726Y-32381136D01*
X72495782Y-32383895D01*
X72445336Y-32398538D01*
X72374041Y-32422513D01*
X72288547Y-32453266D01*
X72195507Y-32488244D01*
X72101574Y-32524893D01*
X72013399Y-32560661D01*
X71937634Y-32592994D01*
X71880931Y-32619338D01*
X71849943Y-32637142D01*
X71848457Y-32638407D01*
X71839601Y-32649294D01*
X71830843Y-32667682D01*
X71821277Y-32697606D01*
X71809996Y-32743103D01*
X71796093Y-32808209D01*
X71778663Y-32896961D01*
X71756798Y-33013393D01*
X71729591Y-33161542D01*
X71723741Y-33193618D01*
X71705374Y-33288686D01*
X71687405Y-33371565D01*
X71671569Y-33434930D01*
X71659600Y-33471458D01*
X71656810Y-33476356D01*
X71632072Y-33484427D01*
X71576790Y-33490987D01*
X71497389Y-33496033D01*
X71400296Y-33499559D01*
X71291938Y-33501561D01*
X71178740Y-33502036D01*
X71067128Y-33500977D01*
X70963529Y-33498382D01*
X70874368Y-33494246D01*
X70806072Y-33488563D01*
X70765066Y-33481331D01*
X70756674Y-33476971D01*
X70748208Y-33452698D01*
X70734435Y-33397426D01*
X70716550Y-33316662D01*
X70695748Y-33215912D01*
X70673223Y-33100683D01*
X70661418Y-33037902D01*
X70639151Y-32918787D01*
X70618979Y-32812565D01*
X70601915Y-32724427D01*
X70588969Y-32659566D01*
X70581155Y-32623174D01*
X70579422Y-32617184D01*
X70559890Y-32607061D01*
X70512843Y-32585662D01*
X70445003Y-32555839D01*
X70363091Y-32520445D01*
X70273828Y-32482332D01*
X70183935Y-32444353D01*
X70100135Y-32409360D01*
X70029147Y-32380206D01*
X69977694Y-32359743D01*
X69952497Y-32350823D01*
X69951396Y-32350657D01*
X69931519Y-32360769D01*
X69885777Y-32389117D01*
X69818717Y-32432723D01*
X69734884Y-32488606D01*
X69638826Y-32553787D01*
X69583650Y-32591679D01*
X69482481Y-32660725D01*
X69390630Y-32722050D01*
X69312744Y-32772663D01*
X69253469Y-32809571D01*
X69217451Y-32829782D01*
X69209377Y-32832701D01*
X69190584Y-32820153D01*
X69150457Y-32785463D01*
X69093493Y-32733063D01*
X69024185Y-32667384D01*
X68947031Y-32592856D01*
X68866525Y-32513913D01*
X68787163Y-32434983D01*
X68713440Y-32360500D01*
X68649852Y-32294894D01*
X68600894Y-32242596D01*
X68571061Y-32208039D01*
X68563942Y-32196478D01*
X68573953Y-32177654D01*
X68602078Y-32132631D01*
X68645454Y-32065787D01*
X68701218Y-31981499D01*
X68766506Y-31884144D01*
X68816246Y-31810707D01*
X69068551Y-31439667D01*
X68813555Y-30821095D01*
X68368931Y-30737275D01*
X67924307Y-30653454D01*
X67924307Y-29728006D01*
X68368931Y-29644186D01*
G37*
X68368931Y-29644186D02*
X68813555Y-29560365D01*
X68941053Y-29251080D01*
X69068551Y-28941794D01*
X68816246Y-28570754D01*
X68745996Y-28466843D01*
X68683272Y-28372913D01*
X68630938Y-28293348D01*
X68591857Y-28232530D01*
X68568893Y-28194843D01*
X68563942Y-28184579D01*
X68576676Y-28166090D01*
X68611882Y-28126580D01*
X68665062Y-28070478D01*
X68731718Y-28002213D01*
X68807354Y-27926214D01*
X68887472Y-27846908D01*
X68967574Y-27768725D01*
X69043164Y-27696093D01*
X69109745Y-27633441D01*
X69162818Y-27585197D01*
X69197887Y-27555790D01*
X69209623Y-27548759D01*
X69231260Y-27558877D01*
X69278662Y-27587241D01*
X69347193Y-27630871D01*
X69432215Y-27686782D01*
X69529093Y-27751994D01*
X69584350Y-27789781D01*
X69685248Y-27858657D01*
X69776299Y-27919860D01*
X69852970Y-27970422D01*
X69910728Y-28007372D01*
X69945043Y-28027742D01*
X69952254Y-28030803D01*
X69972748Y-28023864D01*
X70020513Y-28004949D01*
X70088832Y-27976913D01*
X70170989Y-27942609D01*
X70260270Y-27904891D01*
X70349958Y-27866613D01*
X70433338Y-27830630D01*
X70503694Y-27799794D01*
X70554310Y-27776961D01*
X70578471Y-27764983D01*
X70579422Y-27764276D01*
X70584036Y-27745469D01*
X70594328Y-27695382D01*
X70609287Y-27619207D01*
X70627901Y-27522135D01*
X70649159Y-27409357D01*
X70661418Y-27343558D01*
X70684362Y-27223050D01*
X70706195Y-27114203D01*
X70725722Y-27022524D01*
X70741748Y-26953519D01*
X70753079Y-26912696D01*
X70756674Y-26904489D01*
X70781006Y-26896452D01*
X70835959Y-26889967D01*
X70915108Y-26885030D01*
X71012026Y-26881636D01*
X71120287Y-26879782D01*
X71233465Y-26879462D01*
X71345135Y-26880673D01*
X71448868Y-26883410D01*
X71538241Y-26887669D01*
X71606826Y-26893445D01*
X71648197Y-26900733D01*
X71656810Y-26905105D01*
X71667133Y-26931236D01*
X71681892Y-26986607D01*
X71699352Y-27063893D01*
X71717780Y-27155770D01*
X71723741Y-27187842D01*
X71752066Y-27342476D01*
X71774876Y-27464625D01*
X71793080Y-27558327D01*
X71807583Y-27627616D01*
X71819292Y-27676529D01*
X71829115Y-27709103D01*
X71837956Y-27729372D01*
X71846724Y-27741374D01*
X71848457Y-27743053D01*
X71876371Y-27759816D01*
X71930695Y-27785386D01*
X72004777Y-27817212D01*
X72091965Y-27852740D01*
X72185608Y-27889417D01*
X72279052Y-27924689D01*
X72365647Y-27956004D01*
X72438740Y-27980807D01*
X72491678Y-27996546D01*
X72517811Y-28000668D01*
X72518726Y-28000324D01*
X72540086Y-27986359D01*
X72587084Y-27954678D01*
X72654827Y-27908609D01*
X72738423Y-27851482D01*
X72832982Y-27786627D01*
X72859854Y-27768157D01*
X72957275Y-27702301D01*
X73046163Y-27644350D01*
X73121412Y-27597462D01*
X73177920Y-27564793D01*
X73210581Y-27549500D01*
X73214593Y-27548759D01*
X73235684Y-27561608D01*
X73277464Y-27597112D01*
X73335445Y-27650707D01*
X73405135Y-27717829D01*
X73482045Y-27793913D01*
X73561683Y-27874396D01*
X73639561Y-27954713D01*
X73711186Y-28030301D01*
X73772070Y-28096595D01*
X73817721Y-28149031D01*
X73843650Y-28183045D01*
X73847883Y-28192455D01*
X73837912Y-28214357D01*
X73811020Y-28259200D01*
X73771736Y-28319679D01*
X73740117Y-28366211D01*
X73682098Y-28450525D01*
X73613784Y-28550374D01*
X73545579Y-28650527D01*
X73509075Y-28704373D01*
X73385800Y-28886629D01*
X73468520Y-29039619D01*
X73504759Y-29109318D01*
X73532926Y-29168586D01*
X73548991Y-29208689D01*
X73551226Y-29218897D01*
X73534722Y-29231171D01*
X73488082Y-29255387D01*
X73415609Y-29289737D01*
X73321606Y-29332412D01*
X73210374Y-29381606D01*
X73086215Y-29435510D01*
X72953432Y-29492316D01*
X72816327Y-29550218D01*
X72679202Y-29607407D01*
X72546358Y-29662076D01*
X72422098Y-29712416D01*
X72310725Y-29756620D01*
X72216539Y-29792881D01*
X72143844Y-29819391D01*
X72096941Y-29834342D01*
X72080833Y-29836746D01*
X72060286Y-29817689D01*
X72026933Y-29775964D01*
X71987702Y-29720294D01*
X71984599Y-29715622D01*
X71869423Y-29571736D01*
X71735053Y-29455717D01*
X71585784Y-29368570D01*
X71425913Y-29311301D01*
X71259737Y-29284914D01*
X71091552Y-29290415D01*
X70925655Y-29328810D01*
X70766342Y-29401105D01*
X70731487Y-29422374D01*
X70590737Y-29533004D01*
X70477714Y-29663698D01*
X70393003Y-29809936D01*
X70337194Y-29967192D01*
X70310874Y-30130943D01*
X70314630Y-30296667D01*
X70349050Y-30459838D01*
X70414723Y-30615935D01*
X70512235Y-30760433D01*
X70551813Y-30805131D01*
X70675703Y-30918888D01*
X70806124Y-31001782D01*
X70952315Y-31058644D01*
X71097088Y-31090313D01*
X71259860Y-31098131D01*
X71423440Y-31072062D01*
X71582298Y-31014755D01*
X71730906Y-30928856D01*
X71863735Y-30817014D01*
X71975256Y-30681877D01*
X71987011Y-30664117D01*
X72025508Y-30607850D01*
X72058863Y-30565077D01*
X72080160Y-30544628D01*
X72080833Y-30544331D01*
X72103871Y-30548721D01*
X72156157Y-30566124D01*
X72233390Y-30594732D01*
X72331268Y-30632735D01*
X72445491Y-30678326D01*
X72571758Y-30729697D01*
X72705767Y-30785038D01*
X72843218Y-30842542D01*
X72979808Y-30900399D01*
X73111237Y-30956802D01*
X73233205Y-31009942D01*
X73341409Y-31058010D01*
X73431549Y-31099199D01*
X73499323Y-31131699D01*
X73540430Y-31153703D01*
X73551226Y-31162564D01*
X73542819Y-31189640D01*
X73520272Y-31240303D01*
X73487613Y-31305817D01*
X73468520Y-31341841D01*
X73385800Y-31494832D01*
X73509075Y-31677088D01*
X73572228Y-31770125D01*
X73641727Y-31871985D01*
X73707165Y-31967438D01*
X73740117Y-32015250D01*
X73785273Y-32082495D01*
X73821057Y-32139436D01*
X73842938Y-32178646D01*
X73847563Y-32191381D01*
X73835085Y-32209917D01*
X73800252Y-32250941D01*
X73746678Y-32310475D01*
X73677983Y-32384542D01*
X73597781Y-32469165D01*
X73546286Y-32522685D01*
X73454286Y-32616319D01*
X73371999Y-32697241D01*
X73302945Y-32762177D01*
X73250644Y-32807858D01*
X73218616Y-32831011D01*
X73212116Y-32833232D01*
X73187394Y-32822924D01*
X73137405Y-32794439D01*
X73067212Y-32750937D01*
X72981875Y-32695577D01*
X72886456Y-32631520D01*
X72859854Y-32613303D01*
X72763167Y-32546927D01*
X72676117Y-32487378D01*
X72603595Y-32437984D01*
X72550493Y-32402075D01*
X72521703Y-32382981D01*
X72518726Y-32381136D01*
X72495782Y-32383895D01*
X72445336Y-32398538D01*
X72374041Y-32422513D01*
X72288547Y-32453266D01*
X72195507Y-32488244D01*
X72101574Y-32524893D01*
X72013399Y-32560661D01*
X71937634Y-32592994D01*
X71880931Y-32619338D01*
X71849943Y-32637142D01*
X71848457Y-32638407D01*
X71839601Y-32649294D01*
X71830843Y-32667682D01*
X71821277Y-32697606D01*
X71809996Y-32743103D01*
X71796093Y-32808209D01*
X71778663Y-32896961D01*
X71756798Y-33013393D01*
X71729591Y-33161542D01*
X71723741Y-33193618D01*
X71705374Y-33288686D01*
X71687405Y-33371565D01*
X71671569Y-33434930D01*
X71659600Y-33471458D01*
X71656810Y-33476356D01*
X71632072Y-33484427D01*
X71576790Y-33490987D01*
X71497389Y-33496033D01*
X71400296Y-33499559D01*
X71291938Y-33501561D01*
X71178740Y-33502036D01*
X71067128Y-33500977D01*
X70963529Y-33498382D01*
X70874368Y-33494246D01*
X70806072Y-33488563D01*
X70765066Y-33481331D01*
X70756674Y-33476971D01*
X70748208Y-33452698D01*
X70734435Y-33397426D01*
X70716550Y-33316662D01*
X70695748Y-33215912D01*
X70673223Y-33100683D01*
X70661418Y-33037902D01*
X70639151Y-32918787D01*
X70618979Y-32812565D01*
X70601915Y-32724427D01*
X70588969Y-32659566D01*
X70581155Y-32623174D01*
X70579422Y-32617184D01*
X70559890Y-32607061D01*
X70512843Y-32585662D01*
X70445003Y-32555839D01*
X70363091Y-32520445D01*
X70273828Y-32482332D01*
X70183935Y-32444353D01*
X70100135Y-32409360D01*
X70029147Y-32380206D01*
X69977694Y-32359743D01*
X69952497Y-32350823D01*
X69951396Y-32350657D01*
X69931519Y-32360769D01*
X69885777Y-32389117D01*
X69818717Y-32432723D01*
X69734884Y-32488606D01*
X69638826Y-32553787D01*
X69583650Y-32591679D01*
X69482481Y-32660725D01*
X69390630Y-32722050D01*
X69312744Y-32772663D01*
X69253469Y-32809571D01*
X69217451Y-32829782D01*
X69209377Y-32832701D01*
X69190584Y-32820153D01*
X69150457Y-32785463D01*
X69093493Y-32733063D01*
X69024185Y-32667384D01*
X68947031Y-32592856D01*
X68866525Y-32513913D01*
X68787163Y-32434983D01*
X68713440Y-32360500D01*
X68649852Y-32294894D01*
X68600894Y-32242596D01*
X68571061Y-32208039D01*
X68563942Y-32196478D01*
X68573953Y-32177654D01*
X68602078Y-32132631D01*
X68645454Y-32065787D01*
X68701218Y-31981499D01*
X68766506Y-31884144D01*
X68816246Y-31810707D01*
X69068551Y-31439667D01*
X68813555Y-30821095D01*
X68368931Y-30737275D01*
X67924307Y-30653454D01*
X67924307Y-29728006D01*
X68368931Y-29644186D01*
D11*
G04 #@! TO.C,R21*
X55910000Y-29662779D02*
X55910000Y-29337221D01*
X54890000Y-29662779D02*
X54890000Y-29337221D01*
G04 #@! TO.C,R25*
X44090000Y-29737221D02*
X44090000Y-30062779D01*
X45110000Y-29737221D02*
X45110000Y-30062779D01*
G04 #@! TO.C,C9*
X56158578Y-41810000D02*
X55641422Y-41810000D01*
X56158578Y-40390000D02*
X55641422Y-40390000D01*
D13*
G04 #@! TO.C,U6*
X45543999Y-43056001D02*
X46281566Y-43056001D01*
X51456001Y-43056001D02*
X51456001Y-42317992D01*
X51456001Y-37143999D02*
X50718434Y-37143999D01*
X45543999Y-37143999D02*
X45543999Y-37882008D01*
X45543999Y-42317992D02*
X45543999Y-43056001D01*
X50718434Y-43056001D02*
X51456001Y-43056001D01*
X51456001Y-37882008D02*
X51456001Y-37143999D01*
X46281566Y-37143999D02*
X45543999Y-37143999D01*
X47059185Y-43253999D02*
X47059185Y-43507999D01*
X47059185Y-43507999D02*
X47440185Y-43507999D01*
X47440185Y-43507999D02*
X47440185Y-43253999D01*
X47440185Y-43253999D02*
X47059185Y-43253999D01*
X51907999Y-40159499D02*
X51907999Y-40540500D01*
X51907999Y-40540500D02*
X51653999Y-40540500D01*
X51653999Y-40540500D02*
X51653999Y-40159499D01*
X51653999Y-40159499D02*
X51907999Y-40159499D01*
X47559311Y-36946001D02*
X47559311Y-36692001D01*
X47559311Y-36692001D02*
X47940311Y-36692001D01*
X47940311Y-36692001D02*
X47940311Y-36946001D01*
X47940311Y-36946001D02*
X47559311Y-36946001D01*
D11*
G04 #@! TO.C,J2*
X42870000Y-52980000D02*
X42870000Y-47780000D01*
X19950000Y-52980000D02*
X42870000Y-52980000D01*
X17350000Y-47780000D02*
X42870000Y-47780000D01*
X19950000Y-52980000D02*
X19950000Y-50380000D01*
X19950000Y-50380000D02*
X17350000Y-50380000D01*
X17350000Y-50380000D02*
X17350000Y-47780000D01*
X18680000Y-52980000D02*
X17350000Y-52980000D01*
X17350000Y-52980000D02*
X17350000Y-51650000D01*
G04 #@! TO.C,U4*
X40310000Y-41800000D02*
X40310000Y-40000000D01*
X37090000Y-40000000D02*
X37090000Y-42450000D01*
G04 #@! TO.C,C7*
X38258578Y-43190000D02*
X37741422Y-43190000D01*
X38258578Y-44610000D02*
X37741422Y-44610000D01*
G04 #@! TO.C,C1*
X26190000Y-45241422D02*
X26190000Y-45758578D01*
X27610000Y-45241422D02*
X27610000Y-45758578D01*
G04 #@! TO.C,C2*
X29510000Y-45241422D02*
X29510000Y-45758578D01*
X28090000Y-45241422D02*
X28090000Y-45758578D01*
G04 #@! TO.C,C3*
X32010000Y-45241422D02*
X32010000Y-45758578D01*
X30590000Y-45241422D02*
X30590000Y-45758578D01*
G04 #@! TO.C,C4*
X32010000Y-24941422D02*
X32010000Y-25458578D01*
X30590000Y-24941422D02*
X30590000Y-25458578D01*
G04 #@! TO.C,C5*
X36590000Y-24941422D02*
X36590000Y-25458578D01*
X38010000Y-24941422D02*
X38010000Y-25458578D01*
G04 #@! TO.C,C6*
X32490000Y-45241422D02*
X32490000Y-45758578D01*
X33910000Y-45241422D02*
X33910000Y-45758578D01*
G04 #@! TO.C,C8*
X37590000Y-37558578D02*
X37590000Y-37041422D01*
X39010000Y-37558578D02*
X39010000Y-37041422D01*
G04 #@! TO.C,C13*
X53510000Y-45158578D02*
X53510000Y-44641422D01*
X52090000Y-45158578D02*
X52090000Y-44641422D01*
G04 #@! TO.C,C14*
X34490000Y-37037221D02*
X34490000Y-37362779D01*
X35510000Y-37037221D02*
X35510000Y-37362779D01*
G04 #@! TO.C,C17*
X37158578Y-33910000D02*
X36641422Y-33910000D01*
X37158578Y-32490000D02*
X36641422Y-32490000D01*
G04 #@! TO.C,C22*
X42910000Y-40037221D02*
X42910000Y-40362779D01*
X41890000Y-40037221D02*
X41890000Y-40362779D01*
G04 #@! TO.C,C24*
X41990000Y-43037221D02*
X41990000Y-43362779D01*
X43010000Y-43037221D02*
X43010000Y-43362779D01*
G04 #@! TO.C,C25*
X43090000Y-37262779D02*
X43090000Y-36937221D01*
X44110000Y-37262779D02*
X44110000Y-36937221D01*
G04 #@! TO.C,C26*
X43590000Y-42362779D02*
X43590000Y-42037221D01*
X44610000Y-42362779D02*
X44610000Y-42037221D01*
G04 #@! TO.C,C33*
X50462779Y-44490000D02*
X50137221Y-44490000D01*
X50462779Y-45510000D02*
X50137221Y-45510000D01*
G04 #@! TO.C,C34*
X34537221Y-30990000D02*
X34862779Y-30990000D01*
X34537221Y-32010000D02*
X34862779Y-32010000D01*
G04 #@! TO.C,C35*
X36090000Y-35937221D02*
X36090000Y-36262779D01*
X37110000Y-35937221D02*
X37110000Y-36262779D01*
G04 #@! TO.C,J1*
X69270000Y-22730000D02*
X69270000Y-17530000D01*
X20950000Y-22730000D02*
X69270000Y-22730000D01*
X18350000Y-17530000D02*
X69270000Y-17530000D01*
X20950000Y-22730000D02*
X20950000Y-20130000D01*
X20950000Y-20130000D02*
X18350000Y-20130000D01*
X18350000Y-20130000D02*
X18350000Y-17530000D01*
X19680000Y-22730000D02*
X18350000Y-22730000D01*
X18350000Y-22730000D02*
X18350000Y-21400000D01*
G04 #@! TO.C,J4*
X41170000Y-56650000D02*
X51330000Y-56650000D01*
X51330000Y-56650000D02*
X51330000Y-65540000D01*
X51330000Y-65540000D02*
X41170000Y-65540000D01*
X41170000Y-65540000D02*
X41170000Y-56650000D01*
G04 #@! TO.C,J5*
X57970000Y-65540000D02*
X57970000Y-56650000D01*
X68130000Y-65540000D02*
X57970000Y-65540000D01*
X68130000Y-56650000D02*
X68130000Y-65540000D01*
X57970000Y-56650000D02*
X68130000Y-56650000D01*
G04 #@! TO.C,R14*
X32190000Y-42137221D02*
X32190000Y-42462779D01*
X33210000Y-42137221D02*
X33210000Y-42462779D01*
G04 #@! TO.C,R19*
X45590000Y-30062779D02*
X45590000Y-29737221D01*
X46610000Y-30062779D02*
X46610000Y-29737221D01*
G04 #@! TO.C,R22*
X56490000Y-29662779D02*
X56490000Y-29337221D01*
X57510000Y-29662779D02*
X57510000Y-29337221D01*
G04 #@! TO.C,R27*
X36337221Y-28590000D02*
X36662779Y-28590000D01*
X36337221Y-29610000D02*
X36662779Y-29610000D01*
D13*
G04 #@! TO.C,U1*
X31474900Y-31823300D02*
X26725100Y-31823300D01*
X26725100Y-39976700D02*
X31474900Y-39976700D01*
X33259999Y-35090499D02*
X33259999Y-34709499D01*
X33259999Y-34709499D02*
X33005999Y-34709499D01*
X33005999Y-34709499D02*
X33005999Y-35090499D01*
X33005999Y-35090499D02*
X33259999Y-35090499D01*
X24940001Y-34590500D02*
X24940001Y-34209500D01*
X24940001Y-34209500D02*
X25194001Y-34209500D01*
X25194001Y-34209500D02*
X25194001Y-34590500D01*
X25194001Y-34590500D02*
X24940001Y-34590500D01*
X24940001Y-39590501D02*
X24940001Y-39209501D01*
X24940001Y-39209501D02*
X25194001Y-39209501D01*
X25194001Y-39209501D02*
X25194001Y-39590501D01*
X25194001Y-39590501D02*
X24940001Y-39590501D01*
D11*
G04 #@! TO.C,U2*
X49000000Y-26810000D02*
X51450000Y-26810000D01*
X50800000Y-23590000D02*
X49000000Y-23590000D01*
G04 #@! TO.C,U3*
X35200000Y-23690000D02*
X32750000Y-23690000D01*
X33400000Y-26910000D02*
X35200000Y-26910000D01*
G04 #@! TO.C,U5*
X56600000Y-42290000D02*
X54800000Y-42290000D01*
X54800000Y-45510000D02*
X57250000Y-45510000D01*
G04 #@! TO.C,R3*
X24710000Y-32862779D02*
X24710000Y-32537221D01*
X23690000Y-32862779D02*
X23690000Y-32537221D01*
G04 #@! TO.C,R4*
X27910000Y-42137221D02*
X27910000Y-42462779D01*
X26890000Y-42137221D02*
X26890000Y-42462779D01*
G04 #@! TO.C,R12*
X30690000Y-42137221D02*
X30690000Y-42462779D01*
X31710000Y-42137221D02*
X31710000Y-42462779D01*
G04 #@! TO.C,R9*
X28390000Y-42137221D02*
X28390000Y-42462779D01*
X29410000Y-42137221D02*
X29410000Y-42462779D01*
G04 #@! TO.C,X1*
X49550000Y-32800000D02*
X49550000Y-33940000D01*
G04 #@! TO.C,X2*
X54750000Y-32800000D02*
X54750000Y-33940000D01*
G04 #@! TO.C,J3*
D14*
X20866666Y-54952380D02*
X20866666Y-55666666D01*
X20819047Y-55809523D01*
X20723809Y-55904761D01*
X20580952Y-55952380D01*
X20485714Y-55952380D01*
X21247619Y-54952380D02*
X21866666Y-54952380D01*
X21533333Y-55333333D01*
X21676190Y-55333333D01*
X21771428Y-55380952D01*
X21819047Y-55428571D01*
X21866666Y-55523809D01*
X21866666Y-55761904D01*
X21819047Y-55857142D01*
X21771428Y-55904761D01*
X21676190Y-55952380D01*
X21390476Y-55952380D01*
X21295238Y-55904761D01*
X21247619Y-55857142D01*
G04 #@! TO.C,R23*
D15*
X52807142Y-39035714D02*
X52707142Y-38892857D01*
X52635714Y-39035714D02*
X52635714Y-38735714D01*
X52750000Y-38735714D01*
X52778571Y-38750000D01*
X52792857Y-38764285D01*
X52807142Y-38792857D01*
X52807142Y-38835714D01*
X52792857Y-38864285D01*
X52778571Y-38878571D01*
X52750000Y-38892857D01*
X52635714Y-38892857D01*
X52921428Y-38764285D02*
X52935714Y-38750000D01*
X52964285Y-38735714D01*
X53035714Y-38735714D01*
X53064285Y-38750000D01*
X53078571Y-38764285D01*
X53092857Y-38792857D01*
X53092857Y-38821428D01*
X53078571Y-38864285D01*
X52907142Y-39035714D01*
X53092857Y-39035714D01*
X53192857Y-38735714D02*
X53378571Y-38735714D01*
X53278571Y-38850000D01*
X53321428Y-38850000D01*
X53350000Y-38864285D01*
X53364285Y-38878571D01*
X53378571Y-38907142D01*
X53378571Y-38978571D01*
X53364285Y-39007142D01*
X53350000Y-39021428D01*
X53321428Y-39035714D01*
X53235714Y-39035714D01*
X53207142Y-39021428D01*
X53192857Y-39007142D01*
G04 #@! TO.C,R24*
X52807142Y-37135714D02*
X52707142Y-36992857D01*
X52635714Y-37135714D02*
X52635714Y-36835714D01*
X52750000Y-36835714D01*
X52778571Y-36850000D01*
X52792857Y-36864285D01*
X52807142Y-36892857D01*
X52807142Y-36935714D01*
X52792857Y-36964285D01*
X52778571Y-36978571D01*
X52750000Y-36992857D01*
X52635714Y-36992857D01*
X52921428Y-36864285D02*
X52935714Y-36850000D01*
X52964285Y-36835714D01*
X53035714Y-36835714D01*
X53064285Y-36850000D01*
X53078571Y-36864285D01*
X53092857Y-36892857D01*
X53092857Y-36921428D01*
X53078571Y-36964285D01*
X52907142Y-37135714D01*
X53092857Y-37135714D01*
X53350000Y-36935714D02*
X53350000Y-37135714D01*
X53278571Y-36821428D02*
X53207142Y-37035714D01*
X53392857Y-37035714D01*
G04 #@! TO.C,R21*
X55307142Y-27935714D02*
X55207142Y-27792857D01*
X55135714Y-27935714D02*
X55135714Y-27635714D01*
X55250000Y-27635714D01*
X55278571Y-27650000D01*
X55292857Y-27664285D01*
X55307142Y-27692857D01*
X55307142Y-27735714D01*
X55292857Y-27764285D01*
X55278571Y-27778571D01*
X55250000Y-27792857D01*
X55135714Y-27792857D01*
X55421428Y-27664285D02*
X55435714Y-27650000D01*
X55464285Y-27635714D01*
X55535714Y-27635714D01*
X55564285Y-27650000D01*
X55578571Y-27664285D01*
X55592857Y-27692857D01*
X55592857Y-27721428D01*
X55578571Y-27764285D01*
X55407142Y-27935714D01*
X55592857Y-27935714D01*
X55878571Y-27935714D02*
X55707142Y-27935714D01*
X55792857Y-27935714D02*
X55792857Y-27635714D01*
X55764285Y-27678571D01*
X55735714Y-27707142D01*
X55707142Y-27721428D01*
G04 #@! TO.C,R25*
X44407142Y-28335714D02*
X44307142Y-28192857D01*
X44235714Y-28335714D02*
X44235714Y-28035714D01*
X44350000Y-28035714D01*
X44378571Y-28050000D01*
X44392857Y-28064285D01*
X44407142Y-28092857D01*
X44407142Y-28135714D01*
X44392857Y-28164285D01*
X44378571Y-28178571D01*
X44350000Y-28192857D01*
X44235714Y-28192857D01*
X44521428Y-28064285D02*
X44535714Y-28050000D01*
X44564285Y-28035714D01*
X44635714Y-28035714D01*
X44664285Y-28050000D01*
X44678571Y-28064285D01*
X44692857Y-28092857D01*
X44692857Y-28121428D01*
X44678571Y-28164285D01*
X44507142Y-28335714D01*
X44692857Y-28335714D01*
X44964285Y-28035714D02*
X44821428Y-28035714D01*
X44807142Y-28178571D01*
X44821428Y-28164285D01*
X44850000Y-28150000D01*
X44921428Y-28150000D01*
X44950000Y-28164285D01*
X44964285Y-28178571D01*
X44978571Y-28207142D01*
X44978571Y-28278571D01*
X44964285Y-28307142D01*
X44950000Y-28321428D01*
X44921428Y-28335714D01*
X44850000Y-28335714D01*
X44821428Y-28321428D01*
X44807142Y-28307142D01*
G04 #@! TO.C,C9*
X53950000Y-41207142D02*
X53935714Y-41221428D01*
X53892857Y-41235714D01*
X53864285Y-41235714D01*
X53821428Y-41221428D01*
X53792857Y-41192857D01*
X53778571Y-41164285D01*
X53764285Y-41107142D01*
X53764285Y-41064285D01*
X53778571Y-41007142D01*
X53792857Y-40978571D01*
X53821428Y-40950000D01*
X53864285Y-40935714D01*
X53892857Y-40935714D01*
X53935714Y-40950000D01*
X53950000Y-40964285D01*
X54092857Y-41235714D02*
X54150000Y-41235714D01*
X54178571Y-41221428D01*
X54192857Y-41207142D01*
X54221428Y-41164285D01*
X54235714Y-41107142D01*
X54235714Y-40992857D01*
X54221428Y-40964285D01*
X54207142Y-40950000D01*
X54178571Y-40935714D01*
X54121428Y-40935714D01*
X54092857Y-40950000D01*
X54078571Y-40964285D01*
X54064285Y-40992857D01*
X54064285Y-41064285D01*
X54078571Y-41092857D01*
X54092857Y-41107142D01*
X54121428Y-41121428D01*
X54178571Y-41121428D01*
X54207142Y-41107142D01*
X54221428Y-41092857D01*
X54235714Y-41064285D01*
G04 #@! TO.C,C18*
D16*
X43619285Y-38769285D02*
X43607380Y-38781190D01*
X43571666Y-38793095D01*
X43547857Y-38793095D01*
X43512142Y-38781190D01*
X43488333Y-38757380D01*
X43476428Y-38733571D01*
X43464523Y-38685952D01*
X43464523Y-38650238D01*
X43476428Y-38602619D01*
X43488333Y-38578809D01*
X43512142Y-38555000D01*
X43547857Y-38543095D01*
X43571666Y-38543095D01*
X43607380Y-38555000D01*
X43619285Y-38566904D01*
X43857380Y-38793095D02*
X43714523Y-38793095D01*
X43785952Y-38793095D02*
X43785952Y-38543095D01*
X43762142Y-38578809D01*
X43738333Y-38602619D01*
X43714523Y-38614523D01*
X44000238Y-38650238D02*
X43976428Y-38638333D01*
X43964523Y-38626428D01*
X43952619Y-38602619D01*
X43952619Y-38590714D01*
X43964523Y-38566904D01*
X43976428Y-38555000D01*
X44000238Y-38543095D01*
X44047857Y-38543095D01*
X44071666Y-38555000D01*
X44083571Y-38566904D01*
X44095476Y-38590714D01*
X44095476Y-38602619D01*
X44083571Y-38626428D01*
X44071666Y-38638333D01*
X44047857Y-38650238D01*
X44000238Y-38650238D01*
X43976428Y-38662142D01*
X43964523Y-38674047D01*
X43952619Y-38697857D01*
X43952619Y-38745476D01*
X43964523Y-38769285D01*
X43976428Y-38781190D01*
X44000238Y-38793095D01*
X44047857Y-38793095D01*
X44071666Y-38781190D01*
X44083571Y-38769285D01*
X44095476Y-38745476D01*
X44095476Y-38697857D01*
X44083571Y-38674047D01*
X44071666Y-38662142D01*
X44047857Y-38650238D01*
G04 #@! TO.C,U6*
D17*
X45969047Y-36326190D02*
X45969047Y-35826190D01*
X46159523Y-35826190D01*
X46207142Y-35850000D01*
X46230952Y-35873809D01*
X46254761Y-35921428D01*
X46254761Y-35992857D01*
X46230952Y-36040476D01*
X46207142Y-36064285D01*
X46159523Y-36088095D01*
X45969047Y-36088095D01*
X46754761Y-36278571D02*
X46730952Y-36302380D01*
X46659523Y-36326190D01*
X46611904Y-36326190D01*
X46540476Y-36302380D01*
X46492857Y-36254761D01*
X46469047Y-36207142D01*
X46445238Y-36111904D01*
X46445238Y-36040476D01*
X46469047Y-35945238D01*
X46492857Y-35897619D01*
X46540476Y-35850000D01*
X46611904Y-35826190D01*
X46659523Y-35826190D01*
X46730952Y-35850000D01*
X46754761Y-35873809D01*
X46969047Y-36326190D02*
X46969047Y-35826190D01*
X47135714Y-36183333D01*
X47302380Y-35826190D01*
X47302380Y-36326190D01*
X47778571Y-35826190D02*
X47540476Y-35826190D01*
X47516666Y-36064285D01*
X47540476Y-36040476D01*
X47588095Y-36016666D01*
X47707142Y-36016666D01*
X47754761Y-36040476D01*
X47778571Y-36064285D01*
X47802380Y-36111904D01*
X47802380Y-36230952D01*
X47778571Y-36278571D01*
X47754761Y-36302380D01*
X47707142Y-36326190D01*
X47588095Y-36326190D01*
X47540476Y-36302380D01*
X47516666Y-36278571D01*
X47992857Y-35873809D02*
X48016666Y-35850000D01*
X48064285Y-35826190D01*
X48183333Y-35826190D01*
X48230952Y-35850000D01*
X48254761Y-35873809D01*
X48278571Y-35921428D01*
X48278571Y-35969047D01*
X48254761Y-36040476D01*
X47969047Y-36326190D01*
X48278571Y-36326190D01*
X48707142Y-35992857D02*
X48707142Y-36326190D01*
X48588095Y-35802380D02*
X48469047Y-36159523D01*
X48778571Y-36159523D01*
X48945238Y-35873809D02*
X48969047Y-35850000D01*
X49016666Y-35826190D01*
X49135714Y-35826190D01*
X49183333Y-35850000D01*
X49207142Y-35873809D01*
X49230952Y-35921428D01*
X49230952Y-35969047D01*
X49207142Y-36040476D01*
X48921428Y-36326190D01*
X49230952Y-36326190D01*
X49730952Y-36326190D02*
X49564285Y-36088095D01*
X49445238Y-36326190D02*
X49445238Y-35826190D01*
X49635714Y-35826190D01*
X49683333Y-35850000D01*
X49707142Y-35873809D01*
X49730952Y-35921428D01*
X49730952Y-35992857D01*
X49707142Y-36040476D01*
X49683333Y-36064285D01*
X49635714Y-36088095D01*
X49445238Y-36088095D01*
X49945238Y-36326190D02*
X49945238Y-35826190D01*
X49945238Y-36064285D02*
X50230952Y-36064285D01*
X50230952Y-36326190D02*
X50230952Y-35826190D01*
X50635714Y-36064285D02*
X50707142Y-36088095D01*
X50730952Y-36111904D01*
X50754761Y-36159523D01*
X50754761Y-36230952D01*
X50730952Y-36278571D01*
X50707142Y-36302380D01*
X50659523Y-36326190D01*
X50469047Y-36326190D01*
X50469047Y-35826190D01*
X50635714Y-35826190D01*
X50683333Y-35850000D01*
X50707142Y-35873809D01*
X50730952Y-35921428D01*
X50730952Y-35969047D01*
X50707142Y-36016666D01*
X50683333Y-36040476D01*
X50635714Y-36064285D01*
X50469047Y-36064285D01*
X51254761Y-36326190D02*
X51088095Y-36088095D01*
X50969047Y-36326190D02*
X50969047Y-35826190D01*
X51159523Y-35826190D01*
X51207142Y-35850000D01*
X51230952Y-35873809D01*
X51254761Y-35921428D01*
X51254761Y-35992857D01*
X51230952Y-36040476D01*
X51207142Y-36064285D01*
X51159523Y-36088095D01*
X50969047Y-36088095D01*
D14*
X46000000Y-37352380D02*
X46000000Y-37590476D01*
X45761904Y-37495238D02*
X46000000Y-37590476D01*
X46238095Y-37495238D01*
X45857142Y-37780952D02*
X46000000Y-37590476D01*
X46142857Y-37780952D01*
X46000000Y-36552380D02*
X46000000Y-36790476D01*
X45761904Y-36695238D02*
X46000000Y-36790476D01*
X46238095Y-36695238D01*
X45857142Y-36980952D02*
X46000000Y-36790476D01*
X46142857Y-36980952D01*
G04 #@! TO.C,J2*
X15666666Y-51552380D02*
X15666666Y-52266666D01*
X15619047Y-52409523D01*
X15523809Y-52504761D01*
X15380952Y-52552380D01*
X15285714Y-52552380D01*
X16095238Y-51647619D02*
X16142857Y-51600000D01*
X16238095Y-51552380D01*
X16476190Y-51552380D01*
X16571428Y-51600000D01*
X16619047Y-51647619D01*
X16666666Y-51742857D01*
X16666666Y-51838095D01*
X16619047Y-51980952D01*
X16047619Y-52552380D01*
X16666666Y-52552380D01*
G04 #@! TO.C,U4*
D18*
X35919047Y-41726190D02*
X35919047Y-42130952D01*
X35942857Y-42178571D01*
X35966666Y-42202380D01*
X36014285Y-42226190D01*
X36109523Y-42226190D01*
X36157142Y-42202380D01*
X36180952Y-42178571D01*
X36204761Y-42130952D01*
X36204761Y-41726190D01*
X36657142Y-41892857D02*
X36657142Y-42226190D01*
X36538095Y-41702380D02*
X36419047Y-42059523D01*
X36728571Y-42059523D01*
G04 #@! TO.C,C7*
D15*
X37950000Y-45307142D02*
X37935714Y-45321428D01*
X37892857Y-45335714D01*
X37864285Y-45335714D01*
X37821428Y-45321428D01*
X37792857Y-45292857D01*
X37778571Y-45264285D01*
X37764285Y-45207142D01*
X37764285Y-45164285D01*
X37778571Y-45107142D01*
X37792857Y-45078571D01*
X37821428Y-45050000D01*
X37864285Y-45035714D01*
X37892857Y-45035714D01*
X37935714Y-45050000D01*
X37950000Y-45064285D01*
X38050000Y-45035714D02*
X38250000Y-45035714D01*
X38121428Y-45335714D01*
G04 #@! TO.C,C1*
X26850000Y-47507142D02*
X26835714Y-47521428D01*
X26792857Y-47535714D01*
X26764285Y-47535714D01*
X26721428Y-47521428D01*
X26692857Y-47492857D01*
X26678571Y-47464285D01*
X26664285Y-47407142D01*
X26664285Y-47364285D01*
X26678571Y-47307142D01*
X26692857Y-47278571D01*
X26721428Y-47250000D01*
X26764285Y-47235714D01*
X26792857Y-47235714D01*
X26835714Y-47250000D01*
X26850000Y-47264285D01*
X27135714Y-47535714D02*
X26964285Y-47535714D01*
X27050000Y-47535714D02*
X27050000Y-47235714D01*
X27021428Y-47278571D01*
X26992857Y-47307142D01*
X26964285Y-47321428D01*
G04 #@! TO.C,C2*
X28650000Y-47507142D02*
X28635714Y-47521428D01*
X28592857Y-47535714D01*
X28564285Y-47535714D01*
X28521428Y-47521428D01*
X28492857Y-47492857D01*
X28478571Y-47464285D01*
X28464285Y-47407142D01*
X28464285Y-47364285D01*
X28478571Y-47307142D01*
X28492857Y-47278571D01*
X28521428Y-47250000D01*
X28564285Y-47235714D01*
X28592857Y-47235714D01*
X28635714Y-47250000D01*
X28650000Y-47264285D01*
X28764285Y-47264285D02*
X28778571Y-47250000D01*
X28807142Y-47235714D01*
X28878571Y-47235714D01*
X28907142Y-47250000D01*
X28921428Y-47264285D01*
X28935714Y-47292857D01*
X28935714Y-47321428D01*
X28921428Y-47364285D01*
X28750000Y-47535714D01*
X28935714Y-47535714D01*
G04 #@! TO.C,C3*
X31250000Y-47507142D02*
X31235714Y-47521428D01*
X31192857Y-47535714D01*
X31164285Y-47535714D01*
X31121428Y-47521428D01*
X31092857Y-47492857D01*
X31078571Y-47464285D01*
X31064285Y-47407142D01*
X31064285Y-47364285D01*
X31078571Y-47307142D01*
X31092857Y-47278571D01*
X31121428Y-47250000D01*
X31164285Y-47235714D01*
X31192857Y-47235714D01*
X31235714Y-47250000D01*
X31250000Y-47264285D01*
X31350000Y-47235714D02*
X31535714Y-47235714D01*
X31435714Y-47350000D01*
X31478571Y-47350000D01*
X31507142Y-47364285D01*
X31521428Y-47378571D01*
X31535714Y-47407142D01*
X31535714Y-47478571D01*
X31521428Y-47507142D01*
X31507142Y-47521428D01*
X31478571Y-47535714D01*
X31392857Y-47535714D01*
X31364285Y-47521428D01*
X31350000Y-47507142D01*
G04 #@! TO.C,C4*
X31250000Y-27307142D02*
X31235714Y-27321428D01*
X31192857Y-27335714D01*
X31164285Y-27335714D01*
X31121428Y-27321428D01*
X31092857Y-27292857D01*
X31078571Y-27264285D01*
X31064285Y-27207142D01*
X31064285Y-27164285D01*
X31078571Y-27107142D01*
X31092857Y-27078571D01*
X31121428Y-27050000D01*
X31164285Y-27035714D01*
X31192857Y-27035714D01*
X31235714Y-27050000D01*
X31250000Y-27064285D01*
X31507142Y-27135714D02*
X31507142Y-27335714D01*
X31435714Y-27021428D02*
X31364285Y-27235714D01*
X31550000Y-27235714D01*
G04 #@! TO.C,C5*
X38550000Y-25307142D02*
X38535714Y-25321428D01*
X38492857Y-25335714D01*
X38464285Y-25335714D01*
X38421428Y-25321428D01*
X38392857Y-25292857D01*
X38378571Y-25264285D01*
X38364285Y-25207142D01*
X38364285Y-25164285D01*
X38378571Y-25107142D01*
X38392857Y-25078571D01*
X38421428Y-25050000D01*
X38464285Y-25035714D01*
X38492857Y-25035714D01*
X38535714Y-25050000D01*
X38550000Y-25064285D01*
X38821428Y-25035714D02*
X38678571Y-25035714D01*
X38664285Y-25178571D01*
X38678571Y-25164285D01*
X38707142Y-25150000D01*
X38778571Y-25150000D01*
X38807142Y-25164285D01*
X38821428Y-25178571D01*
X38835714Y-25207142D01*
X38835714Y-25278571D01*
X38821428Y-25307142D01*
X38807142Y-25321428D01*
X38778571Y-25335714D01*
X38707142Y-25335714D01*
X38678571Y-25321428D01*
X38664285Y-25307142D01*
G04 #@! TO.C,C6*
X33150000Y-47507142D02*
X33135714Y-47521428D01*
X33092857Y-47535714D01*
X33064285Y-47535714D01*
X33021428Y-47521428D01*
X32992857Y-47492857D01*
X32978571Y-47464285D01*
X32964285Y-47407142D01*
X32964285Y-47364285D01*
X32978571Y-47307142D01*
X32992857Y-47278571D01*
X33021428Y-47250000D01*
X33064285Y-47235714D01*
X33092857Y-47235714D01*
X33135714Y-47250000D01*
X33150000Y-47264285D01*
X33407142Y-47235714D02*
X33350000Y-47235714D01*
X33321428Y-47250000D01*
X33307142Y-47264285D01*
X33278571Y-47307142D01*
X33264285Y-47364285D01*
X33264285Y-47478571D01*
X33278571Y-47507142D01*
X33292857Y-47521428D01*
X33321428Y-47535714D01*
X33378571Y-47535714D01*
X33407142Y-47521428D01*
X33421428Y-47507142D01*
X33435714Y-47478571D01*
X33435714Y-47407142D01*
X33421428Y-47378571D01*
X33407142Y-47364285D01*
X33378571Y-47350000D01*
X33321428Y-47350000D01*
X33292857Y-47364285D01*
X33278571Y-47378571D01*
X33264285Y-47407142D01*
G04 #@! TO.C,C8*
X39350000Y-36307142D02*
X39335714Y-36321428D01*
X39292857Y-36335714D01*
X39264285Y-36335714D01*
X39221428Y-36321428D01*
X39192857Y-36292857D01*
X39178571Y-36264285D01*
X39164285Y-36207142D01*
X39164285Y-36164285D01*
X39178571Y-36107142D01*
X39192857Y-36078571D01*
X39221428Y-36050000D01*
X39264285Y-36035714D01*
X39292857Y-36035714D01*
X39335714Y-36050000D01*
X39350000Y-36064285D01*
X39521428Y-36164285D02*
X39492857Y-36150000D01*
X39478571Y-36135714D01*
X39464285Y-36107142D01*
X39464285Y-36092857D01*
X39478571Y-36064285D01*
X39492857Y-36050000D01*
X39521428Y-36035714D01*
X39578571Y-36035714D01*
X39607142Y-36050000D01*
X39621428Y-36064285D01*
X39635714Y-36092857D01*
X39635714Y-36107142D01*
X39621428Y-36135714D01*
X39607142Y-36150000D01*
X39578571Y-36164285D01*
X39521428Y-36164285D01*
X39492857Y-36178571D01*
X39478571Y-36192857D01*
X39464285Y-36221428D01*
X39464285Y-36278571D01*
X39478571Y-36307142D01*
X39492857Y-36321428D01*
X39521428Y-36335714D01*
X39578571Y-36335714D01*
X39607142Y-36321428D01*
X39621428Y-36307142D01*
X39635714Y-36278571D01*
X39635714Y-36221428D01*
X39621428Y-36192857D01*
X39607142Y-36178571D01*
X39578571Y-36164285D01*
G04 #@! TO.C,C10*
D16*
X44539285Y-49189285D02*
X44527380Y-49201190D01*
X44491666Y-49213095D01*
X44467857Y-49213095D01*
X44432142Y-49201190D01*
X44408333Y-49177380D01*
X44396428Y-49153571D01*
X44384523Y-49105952D01*
X44384523Y-49070238D01*
X44396428Y-49022619D01*
X44408333Y-48998809D01*
X44432142Y-48975000D01*
X44467857Y-48963095D01*
X44491666Y-48963095D01*
X44527380Y-48975000D01*
X44539285Y-48986904D01*
X44777380Y-49213095D02*
X44634523Y-49213095D01*
X44705952Y-49213095D02*
X44705952Y-48963095D01*
X44682142Y-48998809D01*
X44658333Y-49022619D01*
X44634523Y-49034523D01*
X44932142Y-48963095D02*
X44955952Y-48963095D01*
X44979761Y-48975000D01*
X44991666Y-48986904D01*
X45003571Y-49010714D01*
X45015476Y-49058333D01*
X45015476Y-49117857D01*
X45003571Y-49165476D01*
X44991666Y-49189285D01*
X44979761Y-49201190D01*
X44955952Y-49213095D01*
X44932142Y-49213095D01*
X44908333Y-49201190D01*
X44896428Y-49189285D01*
X44884523Y-49165476D01*
X44872619Y-49117857D01*
X44872619Y-49058333D01*
X44884523Y-49010714D01*
X44896428Y-48986904D01*
X44908333Y-48975000D01*
X44932142Y-48963095D01*
G04 #@! TO.C,C11*
X45739285Y-49189285D02*
X45727380Y-49201190D01*
X45691666Y-49213095D01*
X45667857Y-49213095D01*
X45632142Y-49201190D01*
X45608333Y-49177380D01*
X45596428Y-49153571D01*
X45584523Y-49105952D01*
X45584523Y-49070238D01*
X45596428Y-49022619D01*
X45608333Y-48998809D01*
X45632142Y-48975000D01*
X45667857Y-48963095D01*
X45691666Y-48963095D01*
X45727380Y-48975000D01*
X45739285Y-48986904D01*
X45977380Y-49213095D02*
X45834523Y-49213095D01*
X45905952Y-49213095D02*
X45905952Y-48963095D01*
X45882142Y-48998809D01*
X45858333Y-49022619D01*
X45834523Y-49034523D01*
X46215476Y-49213095D02*
X46072619Y-49213095D01*
X46144047Y-49213095D02*
X46144047Y-48963095D01*
X46120238Y-48998809D01*
X46096428Y-49022619D01*
X46072619Y-49034523D01*
G04 #@! TO.C,C12*
D15*
X35307142Y-34607142D02*
X35292857Y-34621428D01*
X35250000Y-34635714D01*
X35221428Y-34635714D01*
X35178571Y-34621428D01*
X35150000Y-34592857D01*
X35135714Y-34564285D01*
X35121428Y-34507142D01*
X35121428Y-34464285D01*
X35135714Y-34407142D01*
X35150000Y-34378571D01*
X35178571Y-34350000D01*
X35221428Y-34335714D01*
X35250000Y-34335714D01*
X35292857Y-34350000D01*
X35307142Y-34364285D01*
X35592857Y-34635714D02*
X35421428Y-34635714D01*
X35507142Y-34635714D02*
X35507142Y-34335714D01*
X35478571Y-34378571D01*
X35450000Y-34407142D01*
X35421428Y-34421428D01*
X35707142Y-34364285D02*
X35721428Y-34350000D01*
X35750000Y-34335714D01*
X35821428Y-34335714D01*
X35850000Y-34350000D01*
X35864285Y-34364285D01*
X35878571Y-34392857D01*
X35878571Y-34421428D01*
X35864285Y-34464285D01*
X35692857Y-34635714D01*
X35878571Y-34635714D01*
G04 #@! TO.C,C13*
X52607142Y-46907142D02*
X52592857Y-46921428D01*
X52550000Y-46935714D01*
X52521428Y-46935714D01*
X52478571Y-46921428D01*
X52450000Y-46892857D01*
X52435714Y-46864285D01*
X52421428Y-46807142D01*
X52421428Y-46764285D01*
X52435714Y-46707142D01*
X52450000Y-46678571D01*
X52478571Y-46650000D01*
X52521428Y-46635714D01*
X52550000Y-46635714D01*
X52592857Y-46650000D01*
X52607142Y-46664285D01*
X52892857Y-46935714D02*
X52721428Y-46935714D01*
X52807142Y-46935714D02*
X52807142Y-46635714D01*
X52778571Y-46678571D01*
X52750000Y-46707142D01*
X52721428Y-46721428D01*
X52992857Y-46635714D02*
X53178571Y-46635714D01*
X53078571Y-46750000D01*
X53121428Y-46750000D01*
X53150000Y-46764285D01*
X53164285Y-46778571D01*
X53178571Y-46807142D01*
X53178571Y-46878571D01*
X53164285Y-46907142D01*
X53150000Y-46921428D01*
X53121428Y-46935714D01*
X53035714Y-46935714D01*
X53007142Y-46921428D01*
X52992857Y-46907142D01*
G04 #@! TO.C,C14*
X35807142Y-38207142D02*
X35792857Y-38221428D01*
X35750000Y-38235714D01*
X35721428Y-38235714D01*
X35678571Y-38221428D01*
X35650000Y-38192857D01*
X35635714Y-38164285D01*
X35621428Y-38107142D01*
X35621428Y-38064285D01*
X35635714Y-38007142D01*
X35650000Y-37978571D01*
X35678571Y-37950000D01*
X35721428Y-37935714D01*
X35750000Y-37935714D01*
X35792857Y-37950000D01*
X35807142Y-37964285D01*
X36092857Y-38235714D02*
X35921428Y-38235714D01*
X36007142Y-38235714D02*
X36007142Y-37935714D01*
X35978571Y-37978571D01*
X35950000Y-38007142D01*
X35921428Y-38021428D01*
X36350000Y-38035714D02*
X36350000Y-38235714D01*
X36278571Y-37921428D02*
X36207142Y-38135714D01*
X36392857Y-38135714D01*
G04 #@! TO.C,C15*
X35007142Y-40007142D02*
X34992857Y-40021428D01*
X34950000Y-40035714D01*
X34921428Y-40035714D01*
X34878571Y-40021428D01*
X34850000Y-39992857D01*
X34835714Y-39964285D01*
X34821428Y-39907142D01*
X34821428Y-39864285D01*
X34835714Y-39807142D01*
X34850000Y-39778571D01*
X34878571Y-39750000D01*
X34921428Y-39735714D01*
X34950000Y-39735714D01*
X34992857Y-39750000D01*
X35007142Y-39764285D01*
X35292857Y-40035714D02*
X35121428Y-40035714D01*
X35207142Y-40035714D02*
X35207142Y-39735714D01*
X35178571Y-39778571D01*
X35150000Y-39807142D01*
X35121428Y-39821428D01*
X35564285Y-39735714D02*
X35421428Y-39735714D01*
X35407142Y-39878571D01*
X35421428Y-39864285D01*
X35450000Y-39850000D01*
X35521428Y-39850000D01*
X35550000Y-39864285D01*
X35564285Y-39878571D01*
X35578571Y-39907142D01*
X35578571Y-39978571D01*
X35564285Y-40007142D01*
X35550000Y-40021428D01*
X35521428Y-40035714D01*
X35450000Y-40035714D01*
X35421428Y-40021428D01*
X35407142Y-40007142D01*
G04 #@! TO.C,C16*
D16*
X46939285Y-49189285D02*
X46927380Y-49201190D01*
X46891666Y-49213095D01*
X46867857Y-49213095D01*
X46832142Y-49201190D01*
X46808333Y-49177380D01*
X46796428Y-49153571D01*
X46784523Y-49105952D01*
X46784523Y-49070238D01*
X46796428Y-49022619D01*
X46808333Y-48998809D01*
X46832142Y-48975000D01*
X46867857Y-48963095D01*
X46891666Y-48963095D01*
X46927380Y-48975000D01*
X46939285Y-48986904D01*
X47177380Y-49213095D02*
X47034523Y-49213095D01*
X47105952Y-49213095D02*
X47105952Y-48963095D01*
X47082142Y-48998809D01*
X47058333Y-49022619D01*
X47034523Y-49034523D01*
X47391666Y-48963095D02*
X47344047Y-48963095D01*
X47320238Y-48975000D01*
X47308333Y-48986904D01*
X47284523Y-49022619D01*
X47272619Y-49070238D01*
X47272619Y-49165476D01*
X47284523Y-49189285D01*
X47296428Y-49201190D01*
X47320238Y-49213095D01*
X47367857Y-49213095D01*
X47391666Y-49201190D01*
X47403571Y-49189285D01*
X47415476Y-49165476D01*
X47415476Y-49105952D01*
X47403571Y-49082142D01*
X47391666Y-49070238D01*
X47367857Y-49058333D01*
X47320238Y-49058333D01*
X47296428Y-49070238D01*
X47284523Y-49082142D01*
X47272619Y-49105952D01*
G04 #@! TO.C,C17*
D15*
X38807142Y-33307142D02*
X38792857Y-33321428D01*
X38750000Y-33335714D01*
X38721428Y-33335714D01*
X38678571Y-33321428D01*
X38650000Y-33292857D01*
X38635714Y-33264285D01*
X38621428Y-33207142D01*
X38621428Y-33164285D01*
X38635714Y-33107142D01*
X38650000Y-33078571D01*
X38678571Y-33050000D01*
X38721428Y-33035714D01*
X38750000Y-33035714D01*
X38792857Y-33050000D01*
X38807142Y-33064285D01*
X39092857Y-33335714D02*
X38921428Y-33335714D01*
X39007142Y-33335714D02*
X39007142Y-33035714D01*
X38978571Y-33078571D01*
X38950000Y-33107142D01*
X38921428Y-33121428D01*
X39192857Y-33035714D02*
X39392857Y-33035714D01*
X39264285Y-33335714D01*
G04 #@! TO.C,C19*
D16*
X33539285Y-34489285D02*
X33527380Y-34501190D01*
X33491666Y-34513095D01*
X33467857Y-34513095D01*
X33432142Y-34501190D01*
X33408333Y-34477380D01*
X33396428Y-34453571D01*
X33384523Y-34405952D01*
X33384523Y-34370238D01*
X33396428Y-34322619D01*
X33408333Y-34298809D01*
X33432142Y-34275000D01*
X33467857Y-34263095D01*
X33491666Y-34263095D01*
X33527380Y-34275000D01*
X33539285Y-34286904D01*
X33777380Y-34513095D02*
X33634523Y-34513095D01*
X33705952Y-34513095D02*
X33705952Y-34263095D01*
X33682142Y-34298809D01*
X33658333Y-34322619D01*
X33634523Y-34334523D01*
X33896428Y-34513095D02*
X33944047Y-34513095D01*
X33967857Y-34501190D01*
X33979761Y-34489285D01*
X34003571Y-34453571D01*
X34015476Y-34405952D01*
X34015476Y-34310714D01*
X34003571Y-34286904D01*
X33991666Y-34275000D01*
X33967857Y-34263095D01*
X33920238Y-34263095D01*
X33896428Y-34275000D01*
X33884523Y-34286904D01*
X33872619Y-34310714D01*
X33872619Y-34370238D01*
X33884523Y-34394047D01*
X33896428Y-34405952D01*
X33920238Y-34417857D01*
X33967857Y-34417857D01*
X33991666Y-34405952D01*
X34003571Y-34394047D01*
X34015476Y-34370238D01*
G04 #@! TO.C,C20*
X48139285Y-49189285D02*
X48127380Y-49201190D01*
X48091666Y-49213095D01*
X48067857Y-49213095D01*
X48032142Y-49201190D01*
X48008333Y-49177380D01*
X47996428Y-49153571D01*
X47984523Y-49105952D01*
X47984523Y-49070238D01*
X47996428Y-49022619D01*
X48008333Y-48998809D01*
X48032142Y-48975000D01*
X48067857Y-48963095D01*
X48091666Y-48963095D01*
X48127380Y-48975000D01*
X48139285Y-48986904D01*
X48234523Y-48986904D02*
X48246428Y-48975000D01*
X48270238Y-48963095D01*
X48329761Y-48963095D01*
X48353571Y-48975000D01*
X48365476Y-48986904D01*
X48377380Y-49010714D01*
X48377380Y-49034523D01*
X48365476Y-49070238D01*
X48222619Y-49213095D01*
X48377380Y-49213095D01*
X48532142Y-48963095D02*
X48555952Y-48963095D01*
X48579761Y-48975000D01*
X48591666Y-48986904D01*
X48603571Y-49010714D01*
X48615476Y-49058333D01*
X48615476Y-49117857D01*
X48603571Y-49165476D01*
X48591666Y-49189285D01*
X48579761Y-49201190D01*
X48555952Y-49213095D01*
X48532142Y-49213095D01*
X48508333Y-49201190D01*
X48496428Y-49189285D01*
X48484523Y-49165476D01*
X48472619Y-49117857D01*
X48472619Y-49058333D01*
X48484523Y-49010714D01*
X48496428Y-48986904D01*
X48508333Y-48975000D01*
X48532142Y-48963095D01*
G04 #@! TO.C,C21*
X33539285Y-36989285D02*
X33527380Y-37001190D01*
X33491666Y-37013095D01*
X33467857Y-37013095D01*
X33432142Y-37001190D01*
X33408333Y-36977380D01*
X33396428Y-36953571D01*
X33384523Y-36905952D01*
X33384523Y-36870238D01*
X33396428Y-36822619D01*
X33408333Y-36798809D01*
X33432142Y-36775000D01*
X33467857Y-36763095D01*
X33491666Y-36763095D01*
X33527380Y-36775000D01*
X33539285Y-36786904D01*
X33634523Y-36786904D02*
X33646428Y-36775000D01*
X33670238Y-36763095D01*
X33729761Y-36763095D01*
X33753571Y-36775000D01*
X33765476Y-36786904D01*
X33777380Y-36810714D01*
X33777380Y-36834523D01*
X33765476Y-36870238D01*
X33622619Y-37013095D01*
X33777380Y-37013095D01*
X34015476Y-37013095D02*
X33872619Y-37013095D01*
X33944047Y-37013095D02*
X33944047Y-36763095D01*
X33920238Y-36798809D01*
X33896428Y-36822619D01*
X33872619Y-36834523D01*
G04 #@! TO.C,C22*
D15*
X41057142Y-40307142D02*
X41042857Y-40321428D01*
X41000000Y-40335714D01*
X40971428Y-40335714D01*
X40928571Y-40321428D01*
X40900000Y-40292857D01*
X40885714Y-40264285D01*
X40871428Y-40207142D01*
X40871428Y-40164285D01*
X40885714Y-40107142D01*
X40900000Y-40078571D01*
X40928571Y-40050000D01*
X40971428Y-40035714D01*
X41000000Y-40035714D01*
X41042857Y-40050000D01*
X41057142Y-40064285D01*
X41171428Y-40064285D02*
X41185714Y-40050000D01*
X41214285Y-40035714D01*
X41285714Y-40035714D01*
X41314285Y-40050000D01*
X41328571Y-40064285D01*
X41342857Y-40092857D01*
X41342857Y-40121428D01*
X41328571Y-40164285D01*
X41157142Y-40335714D01*
X41342857Y-40335714D01*
X41457142Y-40064285D02*
X41471428Y-40050000D01*
X41500000Y-40035714D01*
X41571428Y-40035714D01*
X41600000Y-40050000D01*
X41614285Y-40064285D01*
X41628571Y-40092857D01*
X41628571Y-40121428D01*
X41614285Y-40164285D01*
X41442857Y-40335714D01*
X41628571Y-40335714D01*
G04 #@! TO.C,C23*
X51007142Y-43907142D02*
X50992857Y-43921428D01*
X50950000Y-43935714D01*
X50921428Y-43935714D01*
X50878571Y-43921428D01*
X50850000Y-43892857D01*
X50835714Y-43864285D01*
X50821428Y-43807142D01*
X50821428Y-43764285D01*
X50835714Y-43707142D01*
X50850000Y-43678571D01*
X50878571Y-43650000D01*
X50921428Y-43635714D01*
X50950000Y-43635714D01*
X50992857Y-43650000D01*
X51007142Y-43664285D01*
X51121428Y-43664285D02*
X51135714Y-43650000D01*
X51164285Y-43635714D01*
X51235714Y-43635714D01*
X51264285Y-43650000D01*
X51278571Y-43664285D01*
X51292857Y-43692857D01*
X51292857Y-43721428D01*
X51278571Y-43764285D01*
X51107142Y-43935714D01*
X51292857Y-43935714D01*
X51392857Y-43635714D02*
X51578571Y-43635714D01*
X51478571Y-43750000D01*
X51521428Y-43750000D01*
X51550000Y-43764285D01*
X51564285Y-43778571D01*
X51578571Y-43807142D01*
X51578571Y-43878571D01*
X51564285Y-43907142D01*
X51550000Y-43921428D01*
X51521428Y-43935714D01*
X51435714Y-43935714D01*
X51407142Y-43921428D01*
X51392857Y-43907142D01*
G04 #@! TO.C,C24*
X42337142Y-44937142D02*
X42322857Y-44951428D01*
X42280000Y-44965714D01*
X42251428Y-44965714D01*
X42208571Y-44951428D01*
X42180000Y-44922857D01*
X42165714Y-44894285D01*
X42151428Y-44837142D01*
X42151428Y-44794285D01*
X42165714Y-44737142D01*
X42180000Y-44708571D01*
X42208571Y-44680000D01*
X42251428Y-44665714D01*
X42280000Y-44665714D01*
X42322857Y-44680000D01*
X42337142Y-44694285D01*
X42451428Y-44694285D02*
X42465714Y-44680000D01*
X42494285Y-44665714D01*
X42565714Y-44665714D01*
X42594285Y-44680000D01*
X42608571Y-44694285D01*
X42622857Y-44722857D01*
X42622857Y-44751428D01*
X42608571Y-44794285D01*
X42437142Y-44965714D01*
X42622857Y-44965714D01*
X42880000Y-44765714D02*
X42880000Y-44965714D01*
X42808571Y-44651428D02*
X42737142Y-44865714D01*
X42922857Y-44865714D01*
G04 #@! TO.C,C25*
X43407142Y-35507142D02*
X43392857Y-35521428D01*
X43350000Y-35535714D01*
X43321428Y-35535714D01*
X43278571Y-35521428D01*
X43250000Y-35492857D01*
X43235714Y-35464285D01*
X43221428Y-35407142D01*
X43221428Y-35364285D01*
X43235714Y-35307142D01*
X43250000Y-35278571D01*
X43278571Y-35250000D01*
X43321428Y-35235714D01*
X43350000Y-35235714D01*
X43392857Y-35250000D01*
X43407142Y-35264285D01*
X43521428Y-35264285D02*
X43535714Y-35250000D01*
X43564285Y-35235714D01*
X43635714Y-35235714D01*
X43664285Y-35250000D01*
X43678571Y-35264285D01*
X43692857Y-35292857D01*
X43692857Y-35321428D01*
X43678571Y-35364285D01*
X43507142Y-35535714D01*
X43692857Y-35535714D01*
X43964285Y-35235714D02*
X43821428Y-35235714D01*
X43807142Y-35378571D01*
X43821428Y-35364285D01*
X43850000Y-35350000D01*
X43921428Y-35350000D01*
X43950000Y-35364285D01*
X43964285Y-35378571D01*
X43978571Y-35407142D01*
X43978571Y-35478571D01*
X43964285Y-35507142D01*
X43950000Y-35521428D01*
X43921428Y-35535714D01*
X43850000Y-35535714D01*
X43821428Y-35521428D01*
X43807142Y-35507142D01*
G04 #@! TO.C,C26*
X43927142Y-43947142D02*
X43912857Y-43961428D01*
X43870000Y-43975714D01*
X43841428Y-43975714D01*
X43798571Y-43961428D01*
X43770000Y-43932857D01*
X43755714Y-43904285D01*
X43741428Y-43847142D01*
X43741428Y-43804285D01*
X43755714Y-43747142D01*
X43770000Y-43718571D01*
X43798571Y-43690000D01*
X43841428Y-43675714D01*
X43870000Y-43675714D01*
X43912857Y-43690000D01*
X43927142Y-43704285D01*
X44041428Y-43704285D02*
X44055714Y-43690000D01*
X44084285Y-43675714D01*
X44155714Y-43675714D01*
X44184285Y-43690000D01*
X44198571Y-43704285D01*
X44212857Y-43732857D01*
X44212857Y-43761428D01*
X44198571Y-43804285D01*
X44027142Y-43975714D01*
X44212857Y-43975714D01*
X44470000Y-43675714D02*
X44412857Y-43675714D01*
X44384285Y-43690000D01*
X44370000Y-43704285D01*
X44341428Y-43747142D01*
X44327142Y-43804285D01*
X44327142Y-43918571D01*
X44341428Y-43947142D01*
X44355714Y-43961428D01*
X44384285Y-43975714D01*
X44441428Y-43975714D01*
X44470000Y-43961428D01*
X44484285Y-43947142D01*
X44498571Y-43918571D01*
X44498571Y-43847142D01*
X44484285Y-43818571D01*
X44470000Y-43804285D01*
X44441428Y-43790000D01*
X44384285Y-43790000D01*
X44355714Y-43804285D01*
X44341428Y-43818571D01*
X44327142Y-43847142D01*
G04 #@! TO.C,C30*
X47207142Y-25607142D02*
X47192857Y-25621428D01*
X47150000Y-25635714D01*
X47121428Y-25635714D01*
X47078571Y-25621428D01*
X47050000Y-25592857D01*
X47035714Y-25564285D01*
X47021428Y-25507142D01*
X47021428Y-25464285D01*
X47035714Y-25407142D01*
X47050000Y-25378571D01*
X47078571Y-25350000D01*
X47121428Y-25335714D01*
X47150000Y-25335714D01*
X47192857Y-25350000D01*
X47207142Y-25364285D01*
X47307142Y-25335714D02*
X47492857Y-25335714D01*
X47392857Y-25450000D01*
X47435714Y-25450000D01*
X47464285Y-25464285D01*
X47478571Y-25478571D01*
X47492857Y-25507142D01*
X47492857Y-25578571D01*
X47478571Y-25607142D01*
X47464285Y-25621428D01*
X47435714Y-25635714D01*
X47350000Y-25635714D01*
X47321428Y-25621428D01*
X47307142Y-25607142D01*
X47678571Y-25335714D02*
X47707142Y-25335714D01*
X47735714Y-25350000D01*
X47750000Y-25364285D01*
X47764285Y-25392857D01*
X47778571Y-25450000D01*
X47778571Y-25521428D01*
X47764285Y-25578571D01*
X47750000Y-25607142D01*
X47735714Y-25621428D01*
X47707142Y-25635714D01*
X47678571Y-25635714D01*
X47650000Y-25621428D01*
X47635714Y-25607142D01*
X47621428Y-25578571D01*
X47607142Y-25521428D01*
X47607142Y-25450000D01*
X47621428Y-25392857D01*
X47635714Y-25364285D01*
X47650000Y-25350000D01*
X47678571Y-25335714D01*
G04 #@! TO.C,C31*
D16*
X44629285Y-37759285D02*
X44617380Y-37771190D01*
X44581666Y-37783095D01*
X44557857Y-37783095D01*
X44522142Y-37771190D01*
X44498333Y-37747380D01*
X44486428Y-37723571D01*
X44474523Y-37675952D01*
X44474523Y-37640238D01*
X44486428Y-37592619D01*
X44498333Y-37568809D01*
X44522142Y-37545000D01*
X44557857Y-37533095D01*
X44581666Y-37533095D01*
X44617380Y-37545000D01*
X44629285Y-37556904D01*
X44712619Y-37533095D02*
X44867380Y-37533095D01*
X44784047Y-37628333D01*
X44819761Y-37628333D01*
X44843571Y-37640238D01*
X44855476Y-37652142D01*
X44867380Y-37675952D01*
X44867380Y-37735476D01*
X44855476Y-37759285D01*
X44843571Y-37771190D01*
X44819761Y-37783095D01*
X44748333Y-37783095D01*
X44724523Y-37771190D01*
X44712619Y-37759285D01*
X45105476Y-37783095D02*
X44962619Y-37783095D01*
X45034047Y-37783095D02*
X45034047Y-37533095D01*
X45010238Y-37568809D01*
X44986428Y-37592619D01*
X44962619Y-37604523D01*
G04 #@! TO.C,C33*
D15*
X50107142Y-46007142D02*
X50092857Y-46021428D01*
X50050000Y-46035714D01*
X50021428Y-46035714D01*
X49978571Y-46021428D01*
X49950000Y-45992857D01*
X49935714Y-45964285D01*
X49921428Y-45907142D01*
X49921428Y-45864285D01*
X49935714Y-45807142D01*
X49950000Y-45778571D01*
X49978571Y-45750000D01*
X50021428Y-45735714D01*
X50050000Y-45735714D01*
X50092857Y-45750000D01*
X50107142Y-45764285D01*
X50207142Y-45735714D02*
X50392857Y-45735714D01*
X50292857Y-45850000D01*
X50335714Y-45850000D01*
X50364285Y-45864285D01*
X50378571Y-45878571D01*
X50392857Y-45907142D01*
X50392857Y-45978571D01*
X50378571Y-46007142D01*
X50364285Y-46021428D01*
X50335714Y-46035714D01*
X50250000Y-46035714D01*
X50221428Y-46021428D01*
X50207142Y-46007142D01*
X50492857Y-45735714D02*
X50678571Y-45735714D01*
X50578571Y-45850000D01*
X50621428Y-45850000D01*
X50650000Y-45864285D01*
X50664285Y-45878571D01*
X50678571Y-45907142D01*
X50678571Y-45978571D01*
X50664285Y-46007142D01*
X50650000Y-46021428D01*
X50621428Y-46035714D01*
X50535714Y-46035714D01*
X50507142Y-46021428D01*
X50492857Y-46007142D01*
G04 #@! TO.C,C34*
X34507142Y-30707142D02*
X34492857Y-30721428D01*
X34450000Y-30735714D01*
X34421428Y-30735714D01*
X34378571Y-30721428D01*
X34350000Y-30692857D01*
X34335714Y-30664285D01*
X34321428Y-30607142D01*
X34321428Y-30564285D01*
X34335714Y-30507142D01*
X34350000Y-30478571D01*
X34378571Y-30450000D01*
X34421428Y-30435714D01*
X34450000Y-30435714D01*
X34492857Y-30450000D01*
X34507142Y-30464285D01*
X34607142Y-30435714D02*
X34792857Y-30435714D01*
X34692857Y-30550000D01*
X34735714Y-30550000D01*
X34764285Y-30564285D01*
X34778571Y-30578571D01*
X34792857Y-30607142D01*
X34792857Y-30678571D01*
X34778571Y-30707142D01*
X34764285Y-30721428D01*
X34735714Y-30735714D01*
X34650000Y-30735714D01*
X34621428Y-30721428D01*
X34607142Y-30707142D01*
X35050000Y-30535714D02*
X35050000Y-30735714D01*
X34978571Y-30421428D02*
X34907142Y-30635714D01*
X35092857Y-30635714D01*
G04 #@! TO.C,C35*
X37407142Y-35307142D02*
X37392857Y-35321428D01*
X37350000Y-35335714D01*
X37321428Y-35335714D01*
X37278571Y-35321428D01*
X37250000Y-35292857D01*
X37235714Y-35264285D01*
X37221428Y-35207142D01*
X37221428Y-35164285D01*
X37235714Y-35107142D01*
X37250000Y-35078571D01*
X37278571Y-35050000D01*
X37321428Y-35035714D01*
X37350000Y-35035714D01*
X37392857Y-35050000D01*
X37407142Y-35064285D01*
X37507142Y-35035714D02*
X37692857Y-35035714D01*
X37592857Y-35150000D01*
X37635714Y-35150000D01*
X37664285Y-35164285D01*
X37678571Y-35178571D01*
X37692857Y-35207142D01*
X37692857Y-35278571D01*
X37678571Y-35307142D01*
X37664285Y-35321428D01*
X37635714Y-35335714D01*
X37550000Y-35335714D01*
X37521428Y-35321428D01*
X37507142Y-35307142D01*
X37964285Y-35035714D02*
X37821428Y-35035714D01*
X37807142Y-35178571D01*
X37821428Y-35164285D01*
X37850000Y-35150000D01*
X37921428Y-35150000D01*
X37950000Y-35164285D01*
X37964285Y-35178571D01*
X37978571Y-35207142D01*
X37978571Y-35278571D01*
X37964285Y-35307142D01*
X37950000Y-35321428D01*
X37921428Y-35335714D01*
X37850000Y-35335714D01*
X37821428Y-35321428D01*
X37807142Y-35307142D01*
G04 #@! TO.C,D1*
X21807142Y-32635714D02*
X21664285Y-32635714D01*
X21664285Y-32335714D01*
X21907142Y-32478571D02*
X22007142Y-32478571D01*
X22050000Y-32635714D02*
X21907142Y-32635714D01*
X21907142Y-32335714D01*
X22050000Y-32335714D01*
X22178571Y-32635714D02*
X22178571Y-32335714D01*
X22250000Y-32335714D01*
X22292857Y-32350000D01*
X22321428Y-32378571D01*
X22335714Y-32407142D01*
X22350000Y-32464285D01*
X22350000Y-32507142D01*
X22335714Y-32564285D01*
X22321428Y-32592857D01*
X22292857Y-32621428D01*
X22250000Y-32635714D01*
X22178571Y-32635714D01*
G04 #@! TO.C,D2*
X54607142Y-38035714D02*
X54464285Y-38035714D01*
X54464285Y-37735714D01*
X54707142Y-37878571D02*
X54807142Y-37878571D01*
X54850000Y-38035714D02*
X54707142Y-38035714D01*
X54707142Y-37735714D01*
X54850000Y-37735714D01*
X54978571Y-38035714D02*
X54978571Y-37735714D01*
X55050000Y-37735714D01*
X55092857Y-37750000D01*
X55121428Y-37778571D01*
X55135714Y-37807142D01*
X55150000Y-37864285D01*
X55150000Y-37907142D01*
X55135714Y-37964285D01*
X55121428Y-37992857D01*
X55092857Y-38021428D01*
X55050000Y-38035714D01*
X54978571Y-38035714D01*
G04 #@! TO.C,J1*
D14*
X16666666Y-21052380D02*
X16666666Y-21766666D01*
X16619047Y-21909523D01*
X16523809Y-22004761D01*
X16380952Y-22052380D01*
X16285714Y-22052380D01*
X17666666Y-22052380D02*
X17095238Y-22052380D01*
X17380952Y-22052380D02*
X17380952Y-21052380D01*
X17285714Y-21195238D01*
X17190476Y-21290476D01*
X17095238Y-21338095D01*
G04 #@! TO.C,J4*
X45916666Y-54832380D02*
X45916666Y-55546666D01*
X45869047Y-55689523D01*
X45773809Y-55784761D01*
X45630952Y-55832380D01*
X45535714Y-55832380D01*
X46821428Y-55165714D02*
X46821428Y-55832380D01*
X46583333Y-54784761D02*
X46345238Y-55499047D01*
X46964285Y-55499047D01*
G04 #@! TO.C,J5*
X62716666Y-54832380D02*
X62716666Y-55546666D01*
X62669047Y-55689523D01*
X62573809Y-55784761D01*
X62430952Y-55832380D01*
X62335714Y-55832380D01*
X63669047Y-54832380D02*
X63192857Y-54832380D01*
X63145238Y-55308571D01*
X63192857Y-55260952D01*
X63288095Y-55213333D01*
X63526190Y-55213333D01*
X63621428Y-55260952D01*
X63669047Y-55308571D01*
X63716666Y-55403809D01*
X63716666Y-55641904D01*
X63669047Y-55737142D01*
X63621428Y-55784761D01*
X63526190Y-55832380D01*
X63288095Y-55832380D01*
X63192857Y-55784761D01*
X63145238Y-55737142D01*
G04 #@! TO.C,R1*
D15*
X45050000Y-35335714D02*
X44950000Y-35192857D01*
X44878571Y-35335714D02*
X44878571Y-35035714D01*
X44992857Y-35035714D01*
X45021428Y-35050000D01*
X45035714Y-35064285D01*
X45050000Y-35092857D01*
X45050000Y-35135714D01*
X45035714Y-35164285D01*
X45021428Y-35178571D01*
X44992857Y-35192857D01*
X44878571Y-35192857D01*
X45335714Y-35335714D02*
X45164285Y-35335714D01*
X45250000Y-35335714D02*
X45250000Y-35035714D01*
X45221428Y-35078571D01*
X45192857Y-35107142D01*
X45164285Y-35121428D01*
G04 #@! TO.C,R2*
D16*
X20458333Y-35113095D02*
X20375000Y-34994047D01*
X20315476Y-35113095D02*
X20315476Y-34863095D01*
X20410714Y-34863095D01*
X20434523Y-34875000D01*
X20446428Y-34886904D01*
X20458333Y-34910714D01*
X20458333Y-34946428D01*
X20446428Y-34970238D01*
X20434523Y-34982142D01*
X20410714Y-34994047D01*
X20315476Y-34994047D01*
X20553571Y-34886904D02*
X20565476Y-34875000D01*
X20589285Y-34863095D01*
X20648809Y-34863095D01*
X20672619Y-34875000D01*
X20684523Y-34886904D01*
X20696428Y-34910714D01*
X20696428Y-34934523D01*
X20684523Y-34970238D01*
X20541666Y-35113095D01*
X20696428Y-35113095D01*
G04 #@! TO.C,R5*
D15*
X54250000Y-25535714D02*
X54150000Y-25392857D01*
X54078571Y-25535714D02*
X54078571Y-25235714D01*
X54192857Y-25235714D01*
X54221428Y-25250000D01*
X54235714Y-25264285D01*
X54250000Y-25292857D01*
X54250000Y-25335714D01*
X54235714Y-25364285D01*
X54221428Y-25378571D01*
X54192857Y-25392857D01*
X54078571Y-25392857D01*
X54521428Y-25235714D02*
X54378571Y-25235714D01*
X54364285Y-25378571D01*
X54378571Y-25364285D01*
X54407142Y-25350000D01*
X54478571Y-25350000D01*
X54507142Y-25364285D01*
X54521428Y-25378571D01*
X54535714Y-25407142D01*
X54535714Y-25478571D01*
X54521428Y-25507142D01*
X54507142Y-25521428D01*
X54478571Y-25535714D01*
X54407142Y-25535714D01*
X54378571Y-25521428D01*
X54364285Y-25507142D01*
G04 #@! TO.C,R6*
X54250000Y-24535714D02*
X54150000Y-24392857D01*
X54078571Y-24535714D02*
X54078571Y-24235714D01*
X54192857Y-24235714D01*
X54221428Y-24250000D01*
X54235714Y-24264285D01*
X54250000Y-24292857D01*
X54250000Y-24335714D01*
X54235714Y-24364285D01*
X54221428Y-24378571D01*
X54192857Y-24392857D01*
X54078571Y-24392857D01*
X54507142Y-24235714D02*
X54450000Y-24235714D01*
X54421428Y-24250000D01*
X54407142Y-24264285D01*
X54378571Y-24307142D01*
X54364285Y-24364285D01*
X54364285Y-24478571D01*
X54378571Y-24507142D01*
X54392857Y-24521428D01*
X54421428Y-24535714D01*
X54478571Y-24535714D01*
X54507142Y-24521428D01*
X54521428Y-24507142D01*
X54535714Y-24478571D01*
X54535714Y-24407142D01*
X54521428Y-24378571D01*
X54507142Y-24364285D01*
X54478571Y-24350000D01*
X54421428Y-24350000D01*
X54392857Y-24364285D01*
X54378571Y-24378571D01*
X54364285Y-24407142D01*
G04 #@! TO.C,R7*
X46350000Y-26435714D02*
X46250000Y-26292857D01*
X46178571Y-26435714D02*
X46178571Y-26135714D01*
X46292857Y-26135714D01*
X46321428Y-26150000D01*
X46335714Y-26164285D01*
X46350000Y-26192857D01*
X46350000Y-26235714D01*
X46335714Y-26264285D01*
X46321428Y-26278571D01*
X46292857Y-26292857D01*
X46178571Y-26292857D01*
X46450000Y-26135714D02*
X46650000Y-26135714D01*
X46521428Y-26435714D01*
G04 #@! TO.C,R8*
D16*
X23558333Y-46613095D02*
X23475000Y-46494047D01*
X23415476Y-46613095D02*
X23415476Y-46363095D01*
X23510714Y-46363095D01*
X23534523Y-46375000D01*
X23546428Y-46386904D01*
X23558333Y-46410714D01*
X23558333Y-46446428D01*
X23546428Y-46470238D01*
X23534523Y-46482142D01*
X23510714Y-46494047D01*
X23415476Y-46494047D01*
X23701190Y-46470238D02*
X23677380Y-46458333D01*
X23665476Y-46446428D01*
X23653571Y-46422619D01*
X23653571Y-46410714D01*
X23665476Y-46386904D01*
X23677380Y-46375000D01*
X23701190Y-46363095D01*
X23748809Y-46363095D01*
X23772619Y-46375000D01*
X23784523Y-46386904D01*
X23796428Y-46410714D01*
X23796428Y-46422619D01*
X23784523Y-46446428D01*
X23772619Y-46458333D01*
X23748809Y-46470238D01*
X23701190Y-46470238D01*
X23677380Y-46482142D01*
X23665476Y-46494047D01*
X23653571Y-46517857D01*
X23653571Y-46565476D01*
X23665476Y-46589285D01*
X23677380Y-46601190D01*
X23701190Y-46613095D01*
X23748809Y-46613095D01*
X23772619Y-46601190D01*
X23784523Y-46589285D01*
X23796428Y-46565476D01*
X23796428Y-46517857D01*
X23784523Y-46494047D01*
X23772619Y-46482142D01*
X23748809Y-46470238D01*
G04 #@! TO.C,R10*
X23339285Y-45613095D02*
X23255952Y-45494047D01*
X23196428Y-45613095D02*
X23196428Y-45363095D01*
X23291666Y-45363095D01*
X23315476Y-45375000D01*
X23327380Y-45386904D01*
X23339285Y-45410714D01*
X23339285Y-45446428D01*
X23327380Y-45470238D01*
X23315476Y-45482142D01*
X23291666Y-45494047D01*
X23196428Y-45494047D01*
X23577380Y-45613095D02*
X23434523Y-45613095D01*
X23505952Y-45613095D02*
X23505952Y-45363095D01*
X23482142Y-45398809D01*
X23458333Y-45422619D01*
X23434523Y-45434523D01*
X23732142Y-45363095D02*
X23755952Y-45363095D01*
X23779761Y-45375000D01*
X23791666Y-45386904D01*
X23803571Y-45410714D01*
X23815476Y-45458333D01*
X23815476Y-45517857D01*
X23803571Y-45565476D01*
X23791666Y-45589285D01*
X23779761Y-45601190D01*
X23755952Y-45613095D01*
X23732142Y-45613095D01*
X23708333Y-45601190D01*
X23696428Y-45589285D01*
X23684523Y-45565476D01*
X23672619Y-45517857D01*
X23672619Y-45458333D01*
X23684523Y-45410714D01*
X23696428Y-45386904D01*
X23708333Y-45375000D01*
X23732142Y-45363095D01*
G04 #@! TO.C,R11*
X36439285Y-45613095D02*
X36355952Y-45494047D01*
X36296428Y-45613095D02*
X36296428Y-45363095D01*
X36391666Y-45363095D01*
X36415476Y-45375000D01*
X36427380Y-45386904D01*
X36439285Y-45410714D01*
X36439285Y-45446428D01*
X36427380Y-45470238D01*
X36415476Y-45482142D01*
X36391666Y-45494047D01*
X36296428Y-45494047D01*
X36677380Y-45613095D02*
X36534523Y-45613095D01*
X36605952Y-45613095D02*
X36605952Y-45363095D01*
X36582142Y-45398809D01*
X36558333Y-45422619D01*
X36534523Y-45434523D01*
X36915476Y-45613095D02*
X36772619Y-45613095D01*
X36844047Y-45613095D02*
X36844047Y-45363095D01*
X36820238Y-45398809D01*
X36796428Y-45422619D01*
X36772619Y-45434523D01*
G04 #@! TO.C,R13*
X36439285Y-46613095D02*
X36355952Y-46494047D01*
X36296428Y-46613095D02*
X36296428Y-46363095D01*
X36391666Y-46363095D01*
X36415476Y-46375000D01*
X36427380Y-46386904D01*
X36439285Y-46410714D01*
X36439285Y-46446428D01*
X36427380Y-46470238D01*
X36415476Y-46482142D01*
X36391666Y-46494047D01*
X36296428Y-46494047D01*
X36677380Y-46613095D02*
X36534523Y-46613095D01*
X36605952Y-46613095D02*
X36605952Y-46363095D01*
X36582142Y-46398809D01*
X36558333Y-46422619D01*
X36534523Y-46434523D01*
X36760714Y-46363095D02*
X36915476Y-46363095D01*
X36832142Y-46458333D01*
X36867857Y-46458333D01*
X36891666Y-46470238D01*
X36903571Y-46482142D01*
X36915476Y-46505952D01*
X36915476Y-46565476D01*
X36903571Y-46589285D01*
X36891666Y-46601190D01*
X36867857Y-46613095D01*
X36796428Y-46613095D01*
X36772619Y-46601190D01*
X36760714Y-46589285D01*
G04 #@! TO.C,R14*
D15*
X32507142Y-40735714D02*
X32407142Y-40592857D01*
X32335714Y-40735714D02*
X32335714Y-40435714D01*
X32450000Y-40435714D01*
X32478571Y-40450000D01*
X32492857Y-40464285D01*
X32507142Y-40492857D01*
X32507142Y-40535714D01*
X32492857Y-40564285D01*
X32478571Y-40578571D01*
X32450000Y-40592857D01*
X32335714Y-40592857D01*
X32792857Y-40735714D02*
X32621428Y-40735714D01*
X32707142Y-40735714D02*
X32707142Y-40435714D01*
X32678571Y-40478571D01*
X32650000Y-40507142D01*
X32621428Y-40521428D01*
X33050000Y-40535714D02*
X33050000Y-40735714D01*
X32978571Y-40421428D02*
X32907142Y-40635714D01*
X33092857Y-40635714D01*
G04 #@! TO.C,R15*
D16*
X44639285Y-44413095D02*
X44555952Y-44294047D01*
X44496428Y-44413095D02*
X44496428Y-44163095D01*
X44591666Y-44163095D01*
X44615476Y-44175000D01*
X44627380Y-44186904D01*
X44639285Y-44210714D01*
X44639285Y-44246428D01*
X44627380Y-44270238D01*
X44615476Y-44282142D01*
X44591666Y-44294047D01*
X44496428Y-44294047D01*
X44877380Y-44413095D02*
X44734523Y-44413095D01*
X44805952Y-44413095D02*
X44805952Y-44163095D01*
X44782142Y-44198809D01*
X44758333Y-44222619D01*
X44734523Y-44234523D01*
X45103571Y-44163095D02*
X44984523Y-44163095D01*
X44972619Y-44282142D01*
X44984523Y-44270238D01*
X45008333Y-44258333D01*
X45067857Y-44258333D01*
X45091666Y-44270238D01*
X45103571Y-44282142D01*
X45115476Y-44305952D01*
X45115476Y-44365476D01*
X45103571Y-44389285D01*
X45091666Y-44401190D01*
X45067857Y-44413095D01*
X45008333Y-44413095D01*
X44984523Y-44401190D01*
X44972619Y-44389285D01*
G04 #@! TO.C,R16*
X45639285Y-44413095D02*
X45555952Y-44294047D01*
X45496428Y-44413095D02*
X45496428Y-44163095D01*
X45591666Y-44163095D01*
X45615476Y-44175000D01*
X45627380Y-44186904D01*
X45639285Y-44210714D01*
X45639285Y-44246428D01*
X45627380Y-44270238D01*
X45615476Y-44282142D01*
X45591666Y-44294047D01*
X45496428Y-44294047D01*
X45877380Y-44413095D02*
X45734523Y-44413095D01*
X45805952Y-44413095D02*
X45805952Y-44163095D01*
X45782142Y-44198809D01*
X45758333Y-44222619D01*
X45734523Y-44234523D01*
X46091666Y-44163095D02*
X46044047Y-44163095D01*
X46020238Y-44175000D01*
X46008333Y-44186904D01*
X45984523Y-44222619D01*
X45972619Y-44270238D01*
X45972619Y-44365476D01*
X45984523Y-44389285D01*
X45996428Y-44401190D01*
X46020238Y-44413095D01*
X46067857Y-44413095D01*
X46091666Y-44401190D01*
X46103571Y-44389285D01*
X46115476Y-44365476D01*
X46115476Y-44305952D01*
X46103571Y-44282142D01*
X46091666Y-44270238D01*
X46067857Y-44258333D01*
X46020238Y-44258333D01*
X45996428Y-44270238D01*
X45984523Y-44282142D01*
X45972619Y-44305952D01*
G04 #@! TO.C,R17*
X47039285Y-44413095D02*
X46955952Y-44294047D01*
X46896428Y-44413095D02*
X46896428Y-44163095D01*
X46991666Y-44163095D01*
X47015476Y-44175000D01*
X47027380Y-44186904D01*
X47039285Y-44210714D01*
X47039285Y-44246428D01*
X47027380Y-44270238D01*
X47015476Y-44282142D01*
X46991666Y-44294047D01*
X46896428Y-44294047D01*
X47277380Y-44413095D02*
X47134523Y-44413095D01*
X47205952Y-44413095D02*
X47205952Y-44163095D01*
X47182142Y-44198809D01*
X47158333Y-44222619D01*
X47134523Y-44234523D01*
X47360714Y-44163095D02*
X47527380Y-44163095D01*
X47420238Y-44413095D01*
G04 #@! TO.C,R18*
X48039285Y-44413095D02*
X47955952Y-44294047D01*
X47896428Y-44413095D02*
X47896428Y-44163095D01*
X47991666Y-44163095D01*
X48015476Y-44175000D01*
X48027380Y-44186904D01*
X48039285Y-44210714D01*
X48039285Y-44246428D01*
X48027380Y-44270238D01*
X48015476Y-44282142D01*
X47991666Y-44294047D01*
X47896428Y-44294047D01*
X48277380Y-44413095D02*
X48134523Y-44413095D01*
X48205952Y-44413095D02*
X48205952Y-44163095D01*
X48182142Y-44198809D01*
X48158333Y-44222619D01*
X48134523Y-44234523D01*
X48420238Y-44270238D02*
X48396428Y-44258333D01*
X48384523Y-44246428D01*
X48372619Y-44222619D01*
X48372619Y-44210714D01*
X48384523Y-44186904D01*
X48396428Y-44175000D01*
X48420238Y-44163095D01*
X48467857Y-44163095D01*
X48491666Y-44175000D01*
X48503571Y-44186904D01*
X48515476Y-44210714D01*
X48515476Y-44222619D01*
X48503571Y-44246428D01*
X48491666Y-44258333D01*
X48467857Y-44270238D01*
X48420238Y-44270238D01*
X48396428Y-44282142D01*
X48384523Y-44294047D01*
X48372619Y-44317857D01*
X48372619Y-44365476D01*
X48384523Y-44389285D01*
X48396428Y-44401190D01*
X48420238Y-44413095D01*
X48467857Y-44413095D01*
X48491666Y-44401190D01*
X48503571Y-44389285D01*
X48515476Y-44365476D01*
X48515476Y-44317857D01*
X48503571Y-44294047D01*
X48491666Y-44282142D01*
X48467857Y-44270238D01*
G04 #@! TO.C,R19*
D15*
X45807142Y-28335714D02*
X45707142Y-28192857D01*
X45635714Y-28335714D02*
X45635714Y-28035714D01*
X45750000Y-28035714D01*
X45778571Y-28050000D01*
X45792857Y-28064285D01*
X45807142Y-28092857D01*
X45807142Y-28135714D01*
X45792857Y-28164285D01*
X45778571Y-28178571D01*
X45750000Y-28192857D01*
X45635714Y-28192857D01*
X46092857Y-28335714D02*
X45921428Y-28335714D01*
X46007142Y-28335714D02*
X46007142Y-28035714D01*
X45978571Y-28078571D01*
X45950000Y-28107142D01*
X45921428Y-28121428D01*
X46235714Y-28335714D02*
X46292857Y-28335714D01*
X46321428Y-28321428D01*
X46335714Y-28307142D01*
X46364285Y-28264285D01*
X46378571Y-28207142D01*
X46378571Y-28092857D01*
X46364285Y-28064285D01*
X46350000Y-28050000D01*
X46321428Y-28035714D01*
X46264285Y-28035714D01*
X46235714Y-28050000D01*
X46221428Y-28064285D01*
X46207142Y-28092857D01*
X46207142Y-28164285D01*
X46221428Y-28192857D01*
X46235714Y-28207142D01*
X46264285Y-28221428D01*
X46321428Y-28221428D01*
X46350000Y-28207142D01*
X46364285Y-28192857D01*
X46378571Y-28164285D01*
G04 #@! TO.C,R20*
X56607142Y-38035714D02*
X56507142Y-37892857D01*
X56435714Y-38035714D02*
X56435714Y-37735714D01*
X56550000Y-37735714D01*
X56578571Y-37750000D01*
X56592857Y-37764285D01*
X56607142Y-37792857D01*
X56607142Y-37835714D01*
X56592857Y-37864285D01*
X56578571Y-37878571D01*
X56550000Y-37892857D01*
X56435714Y-37892857D01*
X56721428Y-37764285D02*
X56735714Y-37750000D01*
X56764285Y-37735714D01*
X56835714Y-37735714D01*
X56864285Y-37750000D01*
X56878571Y-37764285D01*
X56892857Y-37792857D01*
X56892857Y-37821428D01*
X56878571Y-37864285D01*
X56707142Y-38035714D01*
X56892857Y-38035714D01*
X57078571Y-37735714D02*
X57107142Y-37735714D01*
X57135714Y-37750000D01*
X57150000Y-37764285D01*
X57164285Y-37792857D01*
X57178571Y-37850000D01*
X57178571Y-37921428D01*
X57164285Y-37978571D01*
X57150000Y-38007142D01*
X57135714Y-38021428D01*
X57107142Y-38035714D01*
X57078571Y-38035714D01*
X57050000Y-38021428D01*
X57035714Y-38007142D01*
X57021428Y-37978571D01*
X57007142Y-37921428D01*
X57007142Y-37850000D01*
X57021428Y-37792857D01*
X57035714Y-37764285D01*
X57050000Y-37750000D01*
X57078571Y-37735714D01*
G04 #@! TO.C,R22*
X56807142Y-27935714D02*
X56707142Y-27792857D01*
X56635714Y-27935714D02*
X56635714Y-27635714D01*
X56750000Y-27635714D01*
X56778571Y-27650000D01*
X56792857Y-27664285D01*
X56807142Y-27692857D01*
X56807142Y-27735714D01*
X56792857Y-27764285D01*
X56778571Y-27778571D01*
X56750000Y-27792857D01*
X56635714Y-27792857D01*
X56921428Y-27664285D02*
X56935714Y-27650000D01*
X56964285Y-27635714D01*
X57035714Y-27635714D01*
X57064285Y-27650000D01*
X57078571Y-27664285D01*
X57092857Y-27692857D01*
X57092857Y-27721428D01*
X57078571Y-27764285D01*
X56907142Y-27935714D01*
X57092857Y-27935714D01*
X57207142Y-27664285D02*
X57221428Y-27650000D01*
X57250000Y-27635714D01*
X57321428Y-27635714D01*
X57350000Y-27650000D01*
X57364285Y-27664285D01*
X57378571Y-27692857D01*
X57378571Y-27721428D01*
X57364285Y-27764285D01*
X57192857Y-27935714D01*
X57378571Y-27935714D01*
G04 #@! TO.C,R27*
X36407142Y-28235714D02*
X36307142Y-28092857D01*
X36235714Y-28235714D02*
X36235714Y-27935714D01*
X36350000Y-27935714D01*
X36378571Y-27950000D01*
X36392857Y-27964285D01*
X36407142Y-27992857D01*
X36407142Y-28035714D01*
X36392857Y-28064285D01*
X36378571Y-28078571D01*
X36350000Y-28092857D01*
X36235714Y-28092857D01*
X36521428Y-27964285D02*
X36535714Y-27950000D01*
X36564285Y-27935714D01*
X36635714Y-27935714D01*
X36664285Y-27950000D01*
X36678571Y-27964285D01*
X36692857Y-27992857D01*
X36692857Y-28021428D01*
X36678571Y-28064285D01*
X36507142Y-28235714D01*
X36692857Y-28235714D01*
X36792857Y-27935714D02*
X36992857Y-27935714D01*
X36864285Y-28235714D01*
G04 #@! TO.C,R28*
X45107142Y-26435714D02*
X45007142Y-26292857D01*
X44935714Y-26435714D02*
X44935714Y-26135714D01*
X45050000Y-26135714D01*
X45078571Y-26150000D01*
X45092857Y-26164285D01*
X45107142Y-26192857D01*
X45107142Y-26235714D01*
X45092857Y-26264285D01*
X45078571Y-26278571D01*
X45050000Y-26292857D01*
X44935714Y-26292857D01*
X45221428Y-26164285D02*
X45235714Y-26150000D01*
X45264285Y-26135714D01*
X45335714Y-26135714D01*
X45364285Y-26150000D01*
X45378571Y-26164285D01*
X45392857Y-26192857D01*
X45392857Y-26221428D01*
X45378571Y-26264285D01*
X45207142Y-26435714D01*
X45392857Y-26435714D01*
X45564285Y-26264285D02*
X45535714Y-26250000D01*
X45521428Y-26235714D01*
X45507142Y-26207142D01*
X45507142Y-26192857D01*
X45521428Y-26164285D01*
X45535714Y-26150000D01*
X45564285Y-26135714D01*
X45621428Y-26135714D01*
X45650000Y-26150000D01*
X45664285Y-26164285D01*
X45678571Y-26192857D01*
X45678571Y-26207142D01*
X45664285Y-26235714D01*
X45650000Y-26250000D01*
X45621428Y-26264285D01*
X45564285Y-26264285D01*
X45535714Y-26278571D01*
X45521428Y-26292857D01*
X45507142Y-26321428D01*
X45507142Y-26378571D01*
X45521428Y-26407142D01*
X45535714Y-26421428D01*
X45564285Y-26435714D01*
X45621428Y-26435714D01*
X45650000Y-26421428D01*
X45664285Y-26407142D01*
X45678571Y-26378571D01*
X45678571Y-26321428D01*
X45664285Y-26292857D01*
X45650000Y-26278571D01*
X45621428Y-26264285D01*
G04 #@! TO.C,U1*
D17*
X26790476Y-31226190D02*
X26790476Y-30726190D01*
X26980952Y-30726190D01*
X27028571Y-30750000D01*
X27052380Y-30773809D01*
X27076190Y-30821428D01*
X27076190Y-30892857D01*
X27052380Y-30940476D01*
X27028571Y-30964285D01*
X26980952Y-30988095D01*
X26790476Y-30988095D01*
X27576190Y-31178571D02*
X27552380Y-31202380D01*
X27480952Y-31226190D01*
X27433333Y-31226190D01*
X27361904Y-31202380D01*
X27314285Y-31154761D01*
X27290476Y-31107142D01*
X27266666Y-31011904D01*
X27266666Y-30940476D01*
X27290476Y-30845238D01*
X27314285Y-30797619D01*
X27361904Y-30750000D01*
X27433333Y-30726190D01*
X27480952Y-30726190D01*
X27552380Y-30750000D01*
X27576190Y-30773809D01*
X27790476Y-31226190D02*
X27790476Y-30726190D01*
X27957142Y-31083333D01*
X28123809Y-30726190D01*
X28123809Y-31226190D01*
X28623809Y-31226190D02*
X28338095Y-31226190D01*
X28480952Y-31226190D02*
X28480952Y-30726190D01*
X28433333Y-30797619D01*
X28385714Y-30845238D01*
X28338095Y-30869047D01*
X28909523Y-30940476D02*
X28861904Y-30916666D01*
X28838095Y-30892857D01*
X28814285Y-30845238D01*
X28814285Y-30821428D01*
X28838095Y-30773809D01*
X28861904Y-30750000D01*
X28909523Y-30726190D01*
X29004761Y-30726190D01*
X29052380Y-30750000D01*
X29076190Y-30773809D01*
X29100000Y-30821428D01*
X29100000Y-30845238D01*
X29076190Y-30892857D01*
X29052380Y-30916666D01*
X29004761Y-30940476D01*
X28909523Y-30940476D01*
X28861904Y-30964285D01*
X28838095Y-30988095D01*
X28814285Y-31035714D01*
X28814285Y-31130952D01*
X28838095Y-31178571D01*
X28861904Y-31202380D01*
X28909523Y-31226190D01*
X29004761Y-31226190D01*
X29052380Y-31202380D01*
X29076190Y-31178571D01*
X29100000Y-31130952D01*
X29100000Y-31035714D01*
X29076190Y-30988095D01*
X29052380Y-30964285D01*
X29004761Y-30940476D01*
X29528571Y-30726190D02*
X29433333Y-30726190D01*
X29385714Y-30750000D01*
X29361904Y-30773809D01*
X29314285Y-30845238D01*
X29290476Y-30940476D01*
X29290476Y-31130952D01*
X29314285Y-31178571D01*
X29338095Y-31202380D01*
X29385714Y-31226190D01*
X29480952Y-31226190D01*
X29528571Y-31202380D01*
X29552380Y-31178571D01*
X29576190Y-31130952D01*
X29576190Y-31011904D01*
X29552380Y-30964285D01*
X29528571Y-30940476D01*
X29480952Y-30916666D01*
X29385714Y-30916666D01*
X29338095Y-30940476D01*
X29314285Y-30964285D01*
X29290476Y-31011904D01*
X29742857Y-30726190D02*
X30052380Y-30726190D01*
X29885714Y-30916666D01*
X29957142Y-30916666D01*
X30004761Y-30940476D01*
X30028571Y-30964285D01*
X30052380Y-31011904D01*
X30052380Y-31130952D01*
X30028571Y-31178571D01*
X30004761Y-31202380D01*
X29957142Y-31226190D01*
X29814285Y-31226190D01*
X29766666Y-31202380D01*
X29742857Y-31178571D01*
X30266666Y-31226190D02*
X30266666Y-30726190D01*
X30385714Y-30726190D01*
X30457142Y-30750000D01*
X30504761Y-30797619D01*
X30528571Y-30845238D01*
X30552380Y-30940476D01*
X30552380Y-31011904D01*
X30528571Y-31107142D01*
X30504761Y-31154761D01*
X30457142Y-31202380D01*
X30385714Y-31226190D01*
X30266666Y-31226190D01*
X30933333Y-30964285D02*
X31004761Y-30988095D01*
X31028571Y-31011904D01*
X31052380Y-31059523D01*
X31052380Y-31130952D01*
X31028571Y-31178571D01*
X31004761Y-31202380D01*
X30957142Y-31226190D01*
X30766666Y-31226190D01*
X30766666Y-30726190D01*
X30933333Y-30726190D01*
X30980952Y-30750000D01*
X31004761Y-30773809D01*
X31028571Y-30821428D01*
X31028571Y-30869047D01*
X31004761Y-30916666D01*
X30980952Y-30940476D01*
X30933333Y-30964285D01*
X30766666Y-30964285D01*
X31195238Y-30726190D02*
X31480952Y-30726190D01*
X31338095Y-31226190D02*
X31338095Y-30726190D01*
D14*
X31000000Y-39252380D02*
X31000000Y-39490476D01*
X30761904Y-39395238D02*
X31000000Y-39490476D01*
X31238095Y-39395238D01*
X30857142Y-39680952D02*
X31000000Y-39490476D01*
X31142857Y-39680952D01*
X31900000Y-39752380D02*
X31900000Y-39990476D01*
X31661904Y-39895238D02*
X31900000Y-39990476D01*
X32138095Y-39895238D01*
X31757142Y-40180952D02*
X31900000Y-39990476D01*
X32042857Y-40180952D01*
G04 #@! TO.C,U2*
D18*
X49619047Y-27126190D02*
X49619047Y-27530952D01*
X49642857Y-27578571D01*
X49666666Y-27602380D01*
X49714285Y-27626190D01*
X49809523Y-27626190D01*
X49857142Y-27602380D01*
X49880952Y-27578571D01*
X49904761Y-27530952D01*
X49904761Y-27126190D01*
X50119047Y-27173809D02*
X50142857Y-27150000D01*
X50190476Y-27126190D01*
X50309523Y-27126190D01*
X50357142Y-27150000D01*
X50380952Y-27173809D01*
X50404761Y-27221428D01*
X50404761Y-27269047D01*
X50380952Y-27340476D01*
X50095238Y-27626190D01*
X50404761Y-27626190D01*
G04 #@! TO.C,U3*
X33919047Y-27226190D02*
X33919047Y-27630952D01*
X33942857Y-27678571D01*
X33966666Y-27702380D01*
X34014285Y-27726190D01*
X34109523Y-27726190D01*
X34157142Y-27702380D01*
X34180952Y-27678571D01*
X34204761Y-27630952D01*
X34204761Y-27226190D01*
X34395238Y-27226190D02*
X34704761Y-27226190D01*
X34538095Y-27416666D01*
X34609523Y-27416666D01*
X34657142Y-27440476D01*
X34680952Y-27464285D01*
X34704761Y-27511904D01*
X34704761Y-27630952D01*
X34680952Y-27678571D01*
X34657142Y-27702380D01*
X34609523Y-27726190D01*
X34466666Y-27726190D01*
X34419047Y-27702380D01*
X34395238Y-27678571D01*
G04 #@! TO.C,U5*
X55519047Y-45726190D02*
X55519047Y-46130952D01*
X55542857Y-46178571D01*
X55566666Y-46202380D01*
X55614285Y-46226190D01*
X55709523Y-46226190D01*
X55757142Y-46202380D01*
X55780952Y-46178571D01*
X55804761Y-46130952D01*
X55804761Y-45726190D01*
X56280952Y-45726190D02*
X56042857Y-45726190D01*
X56019047Y-45964285D01*
X56042857Y-45940476D01*
X56090476Y-45916666D01*
X56209523Y-45916666D01*
X56257142Y-45940476D01*
X56280952Y-45964285D01*
X56304761Y-46011904D01*
X56304761Y-46130952D01*
X56280952Y-46178571D01*
X56257142Y-46202380D01*
X56209523Y-46226190D01*
X56090476Y-46226190D01*
X56042857Y-46202380D01*
X56019047Y-46178571D01*
G04 #@! TO.C,J6*
D14*
X16666666Y-15952380D02*
X16666666Y-16666666D01*
X16619047Y-16809523D01*
X16523809Y-16904761D01*
X16380952Y-16952380D01*
X16285714Y-16952380D01*
X17571428Y-15952380D02*
X17380952Y-15952380D01*
X17285714Y-16000000D01*
X17238095Y-16047619D01*
X17142857Y-16190476D01*
X17095238Y-16380952D01*
X17095238Y-16761904D01*
X17142857Y-16857142D01*
X17190476Y-16904761D01*
X17285714Y-16952380D01*
X17476190Y-16952380D01*
X17571428Y-16904761D01*
X17619047Y-16857142D01*
X17666666Y-16761904D01*
X17666666Y-16523809D01*
X17619047Y-16428571D01*
X17571428Y-16380952D01*
X17476190Y-16333333D01*
X17285714Y-16333333D01*
X17190476Y-16380952D01*
X17142857Y-16428571D01*
X17095238Y-16523809D01*
G04 #@! TO.C,R3*
D15*
X24150000Y-31135714D02*
X24050000Y-30992857D01*
X23978571Y-31135714D02*
X23978571Y-30835714D01*
X24092857Y-30835714D01*
X24121428Y-30850000D01*
X24135714Y-30864285D01*
X24150000Y-30892857D01*
X24150000Y-30935714D01*
X24135714Y-30964285D01*
X24121428Y-30978571D01*
X24092857Y-30992857D01*
X23978571Y-30992857D01*
X24250000Y-30835714D02*
X24435714Y-30835714D01*
X24335714Y-30950000D01*
X24378571Y-30950000D01*
X24407142Y-30964285D01*
X24421428Y-30978571D01*
X24435714Y-31007142D01*
X24435714Y-31078571D01*
X24421428Y-31107142D01*
X24407142Y-31121428D01*
X24378571Y-31135714D01*
X24292857Y-31135714D01*
X24264285Y-31121428D01*
X24250000Y-31107142D01*
G04 #@! TO.C,R4*
X27350000Y-40735714D02*
X27250000Y-40592857D01*
X27178571Y-40735714D02*
X27178571Y-40435714D01*
X27292857Y-40435714D01*
X27321428Y-40450000D01*
X27335714Y-40464285D01*
X27350000Y-40492857D01*
X27350000Y-40535714D01*
X27335714Y-40564285D01*
X27321428Y-40578571D01*
X27292857Y-40592857D01*
X27178571Y-40592857D01*
X27607142Y-40535714D02*
X27607142Y-40735714D01*
X27535714Y-40421428D02*
X27464285Y-40635714D01*
X27650000Y-40635714D01*
G04 #@! TO.C,R12*
X31107142Y-40735714D02*
X31007142Y-40592857D01*
X30935714Y-40735714D02*
X30935714Y-40435714D01*
X31050000Y-40435714D01*
X31078571Y-40450000D01*
X31092857Y-40464285D01*
X31107142Y-40492857D01*
X31107142Y-40535714D01*
X31092857Y-40564285D01*
X31078571Y-40578571D01*
X31050000Y-40592857D01*
X30935714Y-40592857D01*
X31392857Y-40735714D02*
X31221428Y-40735714D01*
X31307142Y-40735714D02*
X31307142Y-40435714D01*
X31278571Y-40478571D01*
X31250000Y-40507142D01*
X31221428Y-40521428D01*
X31507142Y-40464285D02*
X31521428Y-40450000D01*
X31550000Y-40435714D01*
X31621428Y-40435714D01*
X31650000Y-40450000D01*
X31664285Y-40464285D01*
X31678571Y-40492857D01*
X31678571Y-40521428D01*
X31664285Y-40564285D01*
X31492857Y-40735714D01*
X31678571Y-40735714D01*
G04 #@! TO.C,R9*
X28850000Y-40735714D02*
X28750000Y-40592857D01*
X28678571Y-40735714D02*
X28678571Y-40435714D01*
X28792857Y-40435714D01*
X28821428Y-40450000D01*
X28835714Y-40464285D01*
X28850000Y-40492857D01*
X28850000Y-40535714D01*
X28835714Y-40564285D01*
X28821428Y-40578571D01*
X28792857Y-40592857D01*
X28678571Y-40592857D01*
X28992857Y-40735714D02*
X29050000Y-40735714D01*
X29078571Y-40721428D01*
X29092857Y-40707142D01*
X29121428Y-40664285D01*
X29135714Y-40607142D01*
X29135714Y-40492857D01*
X29121428Y-40464285D01*
X29107142Y-40450000D01*
X29078571Y-40435714D01*
X29021428Y-40435714D01*
X28992857Y-40450000D01*
X28978571Y-40464285D01*
X28964285Y-40492857D01*
X28964285Y-40564285D01*
X28978571Y-40592857D01*
X28992857Y-40607142D01*
X29021428Y-40621428D01*
X29078571Y-40621428D01*
X29107142Y-40607142D01*
X29121428Y-40592857D01*
X29135714Y-40564285D01*
G04 #@! TO.C,X1*
D19*
X50576190Y-34580952D02*
X50842857Y-34980952D01*
X50842857Y-34580952D02*
X50576190Y-34980952D01*
X51204761Y-34980952D02*
X50976190Y-34980952D01*
X51090476Y-34980952D02*
X51090476Y-34580952D01*
X51052380Y-34638095D01*
X51014285Y-34676190D01*
X50976190Y-34695238D01*
G04 #@! TO.C,X2*
X55776190Y-34580952D02*
X56042857Y-34980952D01*
X56042857Y-34580952D02*
X55776190Y-34980952D01*
X56176190Y-34619047D02*
X56195238Y-34600000D01*
X56233333Y-34580952D01*
X56328571Y-34580952D01*
X56366666Y-34600000D01*
X56385714Y-34619047D01*
X56404761Y-34657142D01*
X56404761Y-34695238D01*
X56385714Y-34752380D01*
X56157142Y-34980952D01*
X56404761Y-34980952D01*
G04 #@! TD*
M02*
