M48
; DRILL file {KiCad 5.1.7-a382d34a8~88~ubuntu18.04.1} date Thu Mar 11 03:45:42 2021
; FORMAT={-:-/ absolute / metric / decimal}
; #@! TF.CreationDate,2021-03-11T03:45:42+01:00
; #@! TF.GenerationSoftware,Kicad,Pcbnew,5.1.7-a382d34a8~88~ubuntu18.04.1
; #@! TF.FileFunction,Plated,1,2,PTH
FMAT,2
METRIC
T1C0.300
T2C0.400
T3C0.500
T4C1.000
T5C1.200
T6C1.280
%
G90
G05
T1
X14.4Y-21.7
X14.4Y-27.5
X20.6Y-24.1
X20.6Y-26.3
X21.6Y-24.1
X21.6Y-26.3
X22.0Y-27.9
X22.0Y-30.8
X24.1Y-41.8
X24.8Y-35.1
X27.7Y-30.1
X28.1Y-35.1
X28.5Y-30.4
X28.5Y-34.4
X29.8Y-36.4
X29.9Y-29.4
X30.1Y-54.3
X30.7Y-33.5
X32.3Y-27.6
X34.6Y-29.0
X34.7Y-32.6
X35.2Y-43.3
X36.185Y-40.815
X37.2Y-31.2
X37.5Y-27.0
X37.7Y-53.7
X37.8Y-47.2
X39.0Y-24.1
X39.3Y-56.0
X40.7Y-33.9
X41.3Y-22.5
X41.3Y-24.6
X41.5Y-33.1
X42.5Y-26.2
X43.3Y-30.2
X43.3Y-31.3
X43.6Y-51.4
X43.6Y-55.6
X44.2Y-32.4
X45.0Y-32.9
X45.2Y-49.4
X45.9Y-36.4
X46.9Y-31.8
X47.3Y-38.9
X47.3Y-40.1
X47.3Y-41.3
X47.8Y-32.1
X47.8Y-50.0
X48.5Y-38.9
X48.5Y-41.3
X49.6Y-30.2
X49.7Y-38.9
X49.7Y-40.1
X49.7Y-41.3
X51.2Y-37.4
X52.0Y-41.1
X52.6Y-26.2
X52.6Y-41.7
X53.8Y-41.8
X55.3Y-24.1
X57.9Y-40.6
X58.2Y-50.7
X58.4Y-27.2
X58.4Y-38.7
X60.0Y-41.8
X61.6Y-23.3
X61.7Y-30.5
X66.6Y-28.7
X67.0Y-25.0
T2
X30.1Y-47.7
X30.6Y-40.1
X40.4Y-26.1
X40.8Y-31.0
X42.4Y-38.1
X43.0Y-45.5
X45.8Y-46.7
X47.3Y-46.7
X48.4Y-46.7
X51.5Y-30.5
X53.5Y-31.1
X53.5Y-34.3
X58.4Y-34.6
T3
X48.5Y-40.1
T4
X19.68Y-13.74
X19.68Y-16.28
X22.22Y-13.74
X22.22Y-16.28
X24.76Y-13.74
X24.76Y-16.28
X27.3Y-13.74
X27.3Y-16.28
X29.84Y-13.74
X29.84Y-16.28
X32.38Y-13.74
X32.38Y-16.28
X34.92Y-13.74
X34.92Y-16.28
X37.46Y-13.74
X37.46Y-16.28
X40.0Y-13.74
X40.0Y-16.28
X42.54Y-13.74
X42.54Y-16.28
X45.08Y-13.74
X45.08Y-16.28
X47.62Y-13.74
X47.62Y-16.28
X50.16Y-13.74
X50.16Y-16.28
X52.7Y-13.74
X52.7Y-16.28
X55.24Y-13.74
X55.24Y-16.28
X57.78Y-13.74
X57.78Y-16.28
X60.32Y-13.74
X60.32Y-16.28
X62.86Y-13.74
X62.86Y-16.28
X65.4Y-13.74
X65.4Y-16.28
X67.94Y-13.74
X67.94Y-16.28
X19.68Y-18.86
X19.68Y-21.4
X22.22Y-18.86
X22.22Y-21.4
X24.76Y-18.86
X24.76Y-21.4
X27.3Y-18.86
X27.3Y-21.4
X29.84Y-18.86
X29.84Y-21.4
X32.38Y-18.86
X32.38Y-21.4
X34.92Y-18.86
X34.92Y-21.4
X37.46Y-18.86
X37.46Y-21.4
X40.0Y-18.86
X40.0Y-21.4
X42.54Y-18.86
X42.54Y-21.4
X45.08Y-18.86
X45.08Y-21.4
X47.62Y-18.86
X47.62Y-21.4
X50.16Y-18.86
X50.16Y-21.4
X52.7Y-18.86
X52.7Y-21.4
X55.24Y-18.86
X55.24Y-21.4
X57.78Y-18.86
X57.78Y-21.4
X60.32Y-18.86
X60.32Y-21.4
X62.86Y-18.86
X62.86Y-21.4
X65.4Y-18.86
X65.4Y-21.4
X67.94Y-18.86
X67.94Y-21.4
X18.68Y-49.11
X18.68Y-51.65
X21.22Y-49.11
X21.22Y-51.65
X23.76Y-49.11
X23.76Y-51.65
X26.3Y-49.11
X26.3Y-51.65
X28.84Y-49.11
X28.84Y-51.65
X31.38Y-49.11
X31.38Y-51.65
X33.92Y-49.11
X33.92Y-51.65
X36.46Y-49.11
X36.46Y-51.65
X39.0Y-49.11
X39.0Y-51.65
X41.54Y-49.11
X41.54Y-51.65
T5
X23.77Y-63.53
X23.77Y-66.07
X28.85Y-58.45
X33.93Y-63.53
X33.93Y-66.07
T6
X23.77Y-58.45
X26.31Y-58.45
X28.85Y-63.53
X31.39Y-58.45
X33.93Y-58.45
T6
G00X42.44Y-59.83
M15
G01X42.44Y-58.55
M16
G05
G00X45.61Y-63.0
M15
G01X46.89Y-63.0
M16
G05
G00X50.06Y-59.83
M15
G01X50.06Y-58.55
M16
G05
G00X59.24Y-59.83
M15
G01X59.24Y-58.55
M16
G05
G00X62.41Y-63.0
M15
G01X63.69Y-63.0
M16
G05
G00X66.86Y-59.83
M15
G01X66.86Y-58.55
M16
G05
T0
M30
