G04 #@! TF.FileFunction,Legend,Top*
%FSLAX46Y46*%
G04 Gerber Fmt 4.6, Leading zero omitted, Abs format (unit mm)*
G04 Created by KiCad (PCBNEW 4.0.6) date Tue Sep 25 18:00:22 2018*
%MOMM*%
%LPD*%
G01*
G04 APERTURE LIST*
%ADD10C,0.100000*%
%ADD11C,0.120000*%
%ADD12C,0.150000*%
G04 APERTURE END LIST*
D10*
D11*
X156424000Y-104175800D02*
X156424000Y-103175800D01*
X155924000Y-103675800D02*
X156924000Y-103675800D01*
X159924000Y-97575800D02*
X162324000Y-97575800D01*
X155124000Y-97575800D02*
X157724000Y-97575800D01*
X150524000Y-97575800D02*
X152924000Y-97575800D01*
X152324000Y-110875800D02*
X152624000Y-111175800D01*
X152324000Y-111475800D02*
X152324000Y-110875800D01*
X152624000Y-111175800D02*
X152324000Y-111475800D01*
X150524000Y-109775800D02*
X162324000Y-109775800D01*
X150524000Y-105675800D02*
X150524000Y-109775800D01*
X162324000Y-105675800D02*
X162324000Y-109775800D01*
X162324000Y-97575800D02*
X162324000Y-101675800D01*
X150524000Y-101675800D02*
X150524000Y-97575800D01*
X159424000Y-103675800D02*
G75*
G03X159424000Y-103675800I-3000000J0D01*
G01*
X160282000Y-115404000D02*
X161282000Y-115404000D01*
X161282000Y-113704000D02*
X160282000Y-113704000D01*
X155964000Y-115404000D02*
X156964000Y-115404000D01*
X156964000Y-113704000D02*
X155964000Y-113704000D01*
X151646000Y-115404000D02*
X152646000Y-115404000D01*
X152646000Y-113704000D02*
X151646000Y-113704000D01*
D12*
X159194667Y-109116762D02*
X159337524Y-109164381D01*
X159575620Y-109164381D01*
X159670858Y-109116762D01*
X159718477Y-109069143D01*
X159766096Y-108973905D01*
X159766096Y-108878667D01*
X159718477Y-108783429D01*
X159670858Y-108735810D01*
X159575620Y-108688190D01*
X159385143Y-108640571D01*
X159289905Y-108592952D01*
X159242286Y-108545333D01*
X159194667Y-108450095D01*
X159194667Y-108354857D01*
X159242286Y-108259619D01*
X159289905Y-108212000D01*
X159385143Y-108164381D01*
X159623239Y-108164381D01*
X159766096Y-108212000D01*
X160099429Y-108164381D02*
X160337524Y-109164381D01*
X160528001Y-108450095D01*
X160718477Y-109164381D01*
X160956572Y-108164381D01*
X161861334Y-109164381D02*
X161289905Y-109164381D01*
X161575619Y-109164381D02*
X161575619Y-108164381D01*
X161480381Y-108307238D01*
X161385143Y-108402476D01*
X161289905Y-108450095D01*
X160615334Y-116411143D02*
X160567715Y-116458762D01*
X160424858Y-116506381D01*
X160329620Y-116506381D01*
X160186762Y-116458762D01*
X160091524Y-116363524D01*
X160043905Y-116268286D01*
X159996286Y-116077810D01*
X159996286Y-115934952D01*
X160043905Y-115744476D01*
X160091524Y-115649238D01*
X160186762Y-115554000D01*
X160329620Y-115506381D01*
X160424858Y-115506381D01*
X160567715Y-115554000D01*
X160615334Y-115601619D01*
X161567715Y-116506381D02*
X160996286Y-116506381D01*
X161282000Y-116506381D02*
X161282000Y-115506381D01*
X161186762Y-115649238D01*
X161091524Y-115744476D01*
X160996286Y-115792095D01*
X156297334Y-116411143D02*
X156249715Y-116458762D01*
X156106858Y-116506381D01*
X156011620Y-116506381D01*
X155868762Y-116458762D01*
X155773524Y-116363524D01*
X155725905Y-116268286D01*
X155678286Y-116077810D01*
X155678286Y-115934952D01*
X155725905Y-115744476D01*
X155773524Y-115649238D01*
X155868762Y-115554000D01*
X156011620Y-115506381D01*
X156106858Y-115506381D01*
X156249715Y-115554000D01*
X156297334Y-115601619D01*
X156678286Y-115601619D02*
X156725905Y-115554000D01*
X156821143Y-115506381D01*
X157059239Y-115506381D01*
X157154477Y-115554000D01*
X157202096Y-115601619D01*
X157249715Y-115696857D01*
X157249715Y-115792095D01*
X157202096Y-115934952D01*
X156630667Y-116506381D01*
X157249715Y-116506381D01*
X151979334Y-116411143D02*
X151931715Y-116458762D01*
X151788858Y-116506381D01*
X151693620Y-116506381D01*
X151550762Y-116458762D01*
X151455524Y-116363524D01*
X151407905Y-116268286D01*
X151360286Y-116077810D01*
X151360286Y-115934952D01*
X151407905Y-115744476D01*
X151455524Y-115649238D01*
X151550762Y-115554000D01*
X151693620Y-115506381D01*
X151788858Y-115506381D01*
X151931715Y-115554000D01*
X151979334Y-115601619D01*
X152312667Y-115506381D02*
X152931715Y-115506381D01*
X152598381Y-115887333D01*
X152741239Y-115887333D01*
X152836477Y-115934952D01*
X152884096Y-115982571D01*
X152931715Y-116077810D01*
X152931715Y-116315905D01*
X152884096Y-116411143D01*
X152836477Y-116458762D01*
X152741239Y-116506381D01*
X152455524Y-116506381D01*
X152360286Y-116458762D01*
X152312667Y-116411143D01*
M02*
