G04 #@! TF.FileFunction,Copper,L1,Top,Signal*
%FSLAX46Y46*%
G04 Gerber Fmt 4.6, Leading zero omitted, Abs format (unit mm)*
G04 Created by KiCad (PCBNEW 4.0.6) date Tue Sep 25 18:00:22 2018*
%MOMM*%
%LPD*%
G01*
G04 APERTURE LIST*
%ADD10C,0.100000*%
%ADD11C,2.000000*%
%ADD12R,2.000000X3.200000*%
%ADD13R,2.000000X2.000000*%
%ADD14R,1.000000X1.250000*%
%ADD15R,1.750000X1.750000*%
%ADD16C,1.750000*%
%ADD17C,0.600000*%
%ADD18C,0.250000*%
%ADD19C,0.254000*%
G04 APERTURE END LIST*
D10*
D11*
X158924000Y-96675800D03*
X153924000Y-96675800D03*
D12*
X162024000Y-103675800D03*
X150824000Y-103675800D03*
D11*
X158924000Y-111175800D03*
X156424000Y-111175800D03*
D13*
X153924000Y-111175800D03*
D14*
X161782000Y-114554000D03*
X159782000Y-114554000D03*
X157464000Y-114554000D03*
X155464000Y-114554000D03*
X153146000Y-114554000D03*
X151146000Y-114554000D03*
D15*
X152717500Y-118491000D03*
D16*
X155217500Y-118491000D03*
X157717500Y-118491000D03*
X160217500Y-118491000D03*
D17*
X161163000Y-112014000D03*
X156718000Y-117221000D03*
D18*
X157464000Y-114554000D02*
X157861000Y-114554000D01*
X157861000Y-114554000D02*
X158877000Y-113538000D01*
X158877000Y-113538000D02*
X159639000Y-113538000D01*
X159639000Y-113538000D02*
X161163000Y-112014000D01*
X158924000Y-111175800D02*
X158877000Y-111125000D01*
X158877000Y-111125000D02*
X157480000Y-112522000D01*
X157480000Y-112522000D02*
X157480000Y-114554000D01*
X157480000Y-114554000D02*
X157464000Y-114554000D01*
X153924000Y-111175800D02*
X153924000Y-111125000D01*
X153924000Y-111125000D02*
X153162000Y-111887000D01*
X153162000Y-111887000D02*
X153162000Y-114554000D01*
X153162000Y-114554000D02*
X153146000Y-114554000D01*
X153146000Y-114554000D02*
X153035000Y-114554000D01*
X153035000Y-114554000D02*
X152019000Y-113538000D01*
X152019000Y-113538000D02*
X150241000Y-113538000D01*
X150241000Y-113538000D02*
X150241000Y-115570000D01*
X150241000Y-115570000D02*
X152781000Y-118110000D01*
X152781000Y-118110000D02*
X152781000Y-118491000D01*
X152781000Y-118491000D02*
X152717500Y-118491000D01*
X161782000Y-114554000D02*
X161798000Y-114554000D01*
X161798000Y-114554000D02*
X161798000Y-111633000D01*
X161798000Y-111633000D02*
X158877000Y-108712000D01*
X158877000Y-108712000D02*
X158877000Y-96647000D01*
X158877000Y-96647000D02*
X158924000Y-96675800D01*
X157717500Y-118491000D02*
X157734000Y-118491000D01*
X157734000Y-118491000D02*
X161671000Y-114554000D01*
X161671000Y-114554000D02*
X161782000Y-114554000D01*
X156424000Y-111175800D02*
X156464000Y-111125000D01*
X156464000Y-111125000D02*
X155321000Y-109982000D01*
X155321000Y-109982000D02*
X155321000Y-109728000D01*
X155321000Y-109728000D02*
X153924000Y-108331000D01*
X153924000Y-108331000D02*
X153924000Y-96675800D01*
X155464000Y-114554000D02*
X155448000Y-114554000D01*
X155448000Y-114554000D02*
X156464000Y-113538000D01*
X156464000Y-113538000D02*
X156464000Y-111125000D01*
X156464000Y-111125000D02*
X156424000Y-111175800D01*
X159782000Y-114554000D02*
X159766000Y-114554000D01*
X159766000Y-114554000D02*
X159131000Y-115189000D01*
X159131000Y-115189000D02*
X159131000Y-115697000D01*
X159131000Y-115697000D02*
X158877000Y-115951000D01*
X158877000Y-115951000D02*
X158877000Y-116078000D01*
X158877000Y-116078000D02*
X158750000Y-116078000D01*
X158750000Y-116078000D02*
X158623000Y-116205000D01*
X158623000Y-116205000D02*
X157734000Y-116205000D01*
X157734000Y-116205000D02*
X156718000Y-117221000D01*
X159782000Y-114554000D02*
X159385000Y-114554000D01*
X159385000Y-114554000D02*
X158369000Y-115570000D01*
X158369000Y-115570000D02*
X156464000Y-115570000D01*
X156464000Y-115570000D02*
X155448000Y-114554000D01*
X155448000Y-114554000D02*
X155464000Y-114554000D01*
X155464000Y-114554000D02*
X155067000Y-114554000D01*
X155067000Y-114554000D02*
X154051000Y-115570000D01*
X154051000Y-115570000D02*
X152146000Y-115570000D01*
X152146000Y-115570000D02*
X151130000Y-114554000D01*
X151130000Y-114554000D02*
X151146000Y-114554000D01*
D19*
G36*
X163374000Y-101546405D02*
X163275890Y-101479369D01*
X163024000Y-101428360D01*
X161024000Y-101428360D01*
X160788683Y-101472638D01*
X160572559Y-101611710D01*
X160427569Y-101823910D01*
X160376560Y-102075800D01*
X160376560Y-105275800D01*
X160420838Y-105511117D01*
X160559910Y-105727241D01*
X160772110Y-105872231D01*
X161024000Y-105923240D01*
X163024000Y-105923240D01*
X163259317Y-105878962D01*
X163374000Y-105805166D01*
X163374000Y-119178000D01*
X161574300Y-119178000D01*
X161739090Y-118725694D01*
X161713079Y-118125542D01*
X161533453Y-117691884D01*
X161279560Y-117608545D01*
X160397105Y-118491000D01*
X160411248Y-118505143D01*
X160231643Y-118684748D01*
X160217500Y-118670605D01*
X160203358Y-118684748D01*
X160023753Y-118505143D01*
X160037895Y-118491000D01*
X160023753Y-118476858D01*
X160203358Y-118297253D01*
X160217500Y-118311395D01*
X161099955Y-117428940D01*
X161016616Y-117175047D01*
X160452194Y-116969410D01*
X160324874Y-116974928D01*
X161473362Y-115826440D01*
X162282000Y-115826440D01*
X162517317Y-115782162D01*
X162733441Y-115643090D01*
X162878431Y-115430890D01*
X162929440Y-115179000D01*
X162929440Y-113929000D01*
X162885162Y-113693683D01*
X162746090Y-113477559D01*
X162558000Y-113349043D01*
X162558000Y-111633000D01*
X162500148Y-111342161D01*
X162335401Y-111095599D01*
X159637000Y-108397198D01*
X159637000Y-98150267D01*
X159848943Y-98062694D01*
X160309278Y-97603163D01*
X160558716Y-97002448D01*
X160559284Y-96352005D01*
X160310894Y-95750857D01*
X160266115Y-95706000D01*
X163374000Y-95706000D01*
X163374000Y-101546405D01*
X163374000Y-101546405D01*
G37*
X163374000Y-101546405D02*
X163275890Y-101479369D01*
X163024000Y-101428360D01*
X161024000Y-101428360D01*
X160788683Y-101472638D01*
X160572559Y-101611710D01*
X160427569Y-101823910D01*
X160376560Y-102075800D01*
X160376560Y-105275800D01*
X160420838Y-105511117D01*
X160559910Y-105727241D01*
X160772110Y-105872231D01*
X161024000Y-105923240D01*
X163024000Y-105923240D01*
X163259317Y-105878962D01*
X163374000Y-105805166D01*
X163374000Y-119178000D01*
X161574300Y-119178000D01*
X161739090Y-118725694D01*
X161713079Y-118125542D01*
X161533453Y-117691884D01*
X161279560Y-117608545D01*
X160397105Y-118491000D01*
X160411248Y-118505143D01*
X160231643Y-118684748D01*
X160217500Y-118670605D01*
X160203358Y-118684748D01*
X160023753Y-118505143D01*
X160037895Y-118491000D01*
X160023753Y-118476858D01*
X160203358Y-118297253D01*
X160217500Y-118311395D01*
X161099955Y-117428940D01*
X161016616Y-117175047D01*
X160452194Y-116969410D01*
X160324874Y-116974928D01*
X161473362Y-115826440D01*
X162282000Y-115826440D01*
X162517317Y-115782162D01*
X162733441Y-115643090D01*
X162878431Y-115430890D01*
X162929440Y-115179000D01*
X162929440Y-113929000D01*
X162885162Y-113693683D01*
X162746090Y-113477559D01*
X162558000Y-113349043D01*
X162558000Y-111633000D01*
X162500148Y-111342161D01*
X162335401Y-111095599D01*
X159637000Y-108397198D01*
X159637000Y-98150267D01*
X159848943Y-98062694D01*
X160309278Y-97603163D01*
X160558716Y-97002448D01*
X160559284Y-96352005D01*
X160310894Y-95750857D01*
X160266115Y-95706000D01*
X163374000Y-95706000D01*
X163374000Y-101546405D01*
G36*
X155549736Y-112595187D02*
X156159461Y-112821708D01*
X156720000Y-112800966D01*
X156720000Y-113331425D01*
X156512559Y-113464910D01*
X156466031Y-113533006D01*
X156323698Y-113390673D01*
X156090309Y-113294000D01*
X155749750Y-113294000D01*
X155591000Y-113452750D01*
X155591000Y-114427000D01*
X155611000Y-114427000D01*
X155611000Y-114681000D01*
X155591000Y-114681000D01*
X155591000Y-115655250D01*
X155749750Y-115814000D01*
X156090309Y-115814000D01*
X156323698Y-115717327D01*
X156464936Y-115576090D01*
X156499910Y-115630441D01*
X156712110Y-115775431D01*
X156964000Y-115826440D01*
X157964000Y-115826440D01*
X158199317Y-115782162D01*
X158415441Y-115643090D01*
X158560431Y-115430890D01*
X158611440Y-115179000D01*
X158611440Y-114878362D01*
X158647000Y-114842802D01*
X158647000Y-115305310D01*
X158743673Y-115538699D01*
X158922302Y-115717327D01*
X159155691Y-115814000D01*
X159336198Y-115814000D01*
X158124996Y-117025202D01*
X158019175Y-116981262D01*
X157418460Y-116980738D01*
X156863271Y-117210138D01*
X156467182Y-117605536D01*
X156073963Y-117211630D01*
X155519175Y-116981262D01*
X154918460Y-116980738D01*
X154363271Y-117210138D01*
X154194397Y-117378717D01*
X154056590Y-117164559D01*
X153844390Y-117019569D01*
X153592500Y-116968560D01*
X152714362Y-116968560D01*
X151559802Y-115814000D01*
X151772309Y-115814000D01*
X152005698Y-115717327D01*
X152146936Y-115576090D01*
X152181910Y-115630441D01*
X152394110Y-115775431D01*
X152646000Y-115826440D01*
X153646000Y-115826440D01*
X153881317Y-115782162D01*
X154097441Y-115643090D01*
X154242431Y-115430890D01*
X154293440Y-115179000D01*
X154293440Y-114839750D01*
X154329000Y-114839750D01*
X154329000Y-115305310D01*
X154425673Y-115538699D01*
X154604302Y-115717327D01*
X154837691Y-115814000D01*
X155178250Y-115814000D01*
X155337000Y-115655250D01*
X155337000Y-114681000D01*
X154487750Y-114681000D01*
X154329000Y-114839750D01*
X154293440Y-114839750D01*
X154293440Y-113929000D01*
X154269674Y-113802690D01*
X154329000Y-113802690D01*
X154329000Y-114268250D01*
X154487750Y-114427000D01*
X155337000Y-114427000D01*
X155337000Y-113452750D01*
X155178250Y-113294000D01*
X154837691Y-113294000D01*
X154604302Y-113390673D01*
X154425673Y-113569301D01*
X154329000Y-113802690D01*
X154269674Y-113802690D01*
X154249162Y-113693683D01*
X154110090Y-113477559D01*
X153922000Y-113349043D01*
X153922000Y-112823240D01*
X154924000Y-112823240D01*
X155159317Y-112778962D01*
X155375441Y-112639890D01*
X155499263Y-112458671D01*
X155549736Y-112595187D01*
X155549736Y-112595187D01*
G37*
X155549736Y-112595187D02*
X156159461Y-112821708D01*
X156720000Y-112800966D01*
X156720000Y-113331425D01*
X156512559Y-113464910D01*
X156466031Y-113533006D01*
X156323698Y-113390673D01*
X156090309Y-113294000D01*
X155749750Y-113294000D01*
X155591000Y-113452750D01*
X155591000Y-114427000D01*
X155611000Y-114427000D01*
X155611000Y-114681000D01*
X155591000Y-114681000D01*
X155591000Y-115655250D01*
X155749750Y-115814000D01*
X156090309Y-115814000D01*
X156323698Y-115717327D01*
X156464936Y-115576090D01*
X156499910Y-115630441D01*
X156712110Y-115775431D01*
X156964000Y-115826440D01*
X157964000Y-115826440D01*
X158199317Y-115782162D01*
X158415441Y-115643090D01*
X158560431Y-115430890D01*
X158611440Y-115179000D01*
X158611440Y-114878362D01*
X158647000Y-114842802D01*
X158647000Y-115305310D01*
X158743673Y-115538699D01*
X158922302Y-115717327D01*
X159155691Y-115814000D01*
X159336198Y-115814000D01*
X158124996Y-117025202D01*
X158019175Y-116981262D01*
X157418460Y-116980738D01*
X156863271Y-117210138D01*
X156467182Y-117605536D01*
X156073963Y-117211630D01*
X155519175Y-116981262D01*
X154918460Y-116980738D01*
X154363271Y-117210138D01*
X154194397Y-117378717D01*
X154056590Y-117164559D01*
X153844390Y-117019569D01*
X153592500Y-116968560D01*
X152714362Y-116968560D01*
X151559802Y-115814000D01*
X151772309Y-115814000D01*
X152005698Y-115717327D01*
X152146936Y-115576090D01*
X152181910Y-115630441D01*
X152394110Y-115775431D01*
X152646000Y-115826440D01*
X153646000Y-115826440D01*
X153881317Y-115782162D01*
X154097441Y-115643090D01*
X154242431Y-115430890D01*
X154293440Y-115179000D01*
X154293440Y-114839750D01*
X154329000Y-114839750D01*
X154329000Y-115305310D01*
X154425673Y-115538699D01*
X154604302Y-115717327D01*
X154837691Y-115814000D01*
X155178250Y-115814000D01*
X155337000Y-115655250D01*
X155337000Y-114681000D01*
X154487750Y-114681000D01*
X154329000Y-114839750D01*
X154293440Y-114839750D01*
X154293440Y-113929000D01*
X154269674Y-113802690D01*
X154329000Y-113802690D01*
X154329000Y-114268250D01*
X154487750Y-114427000D01*
X155337000Y-114427000D01*
X155337000Y-113452750D01*
X155178250Y-113294000D01*
X154837691Y-113294000D01*
X154604302Y-113390673D01*
X154425673Y-113569301D01*
X154329000Y-113802690D01*
X154269674Y-113802690D01*
X154249162Y-113693683D01*
X154110090Y-113477559D01*
X153922000Y-113349043D01*
X153922000Y-112823240D01*
X154924000Y-112823240D01*
X155159317Y-112778962D01*
X155375441Y-112639890D01*
X155499263Y-112458671D01*
X155549736Y-112595187D01*
G36*
X159909000Y-114427000D02*
X159929000Y-114427000D01*
X159929000Y-114681000D01*
X159909000Y-114681000D01*
X159909000Y-114701000D01*
X159655000Y-114701000D01*
X159655000Y-114681000D01*
X159635000Y-114681000D01*
X159635000Y-114427000D01*
X159655000Y-114427000D01*
X159655000Y-114407000D01*
X159909000Y-114407000D01*
X159909000Y-114427000D01*
X159909000Y-114427000D01*
G37*
X159909000Y-114427000D02*
X159929000Y-114427000D01*
X159929000Y-114681000D01*
X159909000Y-114681000D01*
X159909000Y-114701000D01*
X159655000Y-114701000D01*
X159655000Y-114681000D01*
X159635000Y-114681000D01*
X159635000Y-114427000D01*
X159655000Y-114427000D01*
X159655000Y-114407000D01*
X159909000Y-114407000D01*
X159909000Y-114427000D01*
G36*
X151273000Y-114427000D02*
X151293000Y-114427000D01*
X151293000Y-114681000D01*
X151273000Y-114681000D01*
X151273000Y-114701000D01*
X151019000Y-114701000D01*
X151019000Y-114681000D01*
X151001000Y-114681000D01*
X151001000Y-114427000D01*
X151019000Y-114427000D01*
X151019000Y-114407000D01*
X151273000Y-114407000D01*
X151273000Y-114427000D01*
X151273000Y-114427000D01*
G37*
X151273000Y-114427000D02*
X151293000Y-114427000D01*
X151293000Y-114681000D01*
X151273000Y-114681000D01*
X151273000Y-114701000D01*
X151019000Y-114701000D01*
X151019000Y-114681000D01*
X151001000Y-114681000D01*
X151001000Y-114427000D01*
X151019000Y-114427000D01*
X151019000Y-114407000D01*
X151273000Y-114407000D01*
X151273000Y-114427000D01*
G36*
X152504613Y-95801536D02*
X152278092Y-96411261D01*
X152302144Y-97061260D01*
X152504613Y-97550064D01*
X152771468Y-97648727D01*
X153744395Y-96675800D01*
X153730253Y-96661658D01*
X153909858Y-96482053D01*
X153924000Y-96496195D01*
X153938143Y-96482053D01*
X154117748Y-96661658D01*
X154103605Y-96675800D01*
X155076532Y-97648727D01*
X155343387Y-97550064D01*
X155569908Y-96940339D01*
X155545856Y-96290340D01*
X155343387Y-95801536D01*
X155084990Y-95706000D01*
X157581233Y-95706000D01*
X157538722Y-95748437D01*
X157289284Y-96349152D01*
X157288716Y-96999595D01*
X157537106Y-97600743D01*
X157996637Y-98061078D01*
X158117000Y-98111057D01*
X158117000Y-108712000D01*
X158174852Y-109002839D01*
X158339599Y-109249401D01*
X158630741Y-109540543D01*
X158600205Y-109540516D01*
X157999057Y-109788906D01*
X157582248Y-110204987D01*
X157576532Y-110202873D01*
X156603605Y-111175800D01*
X156617748Y-111189943D01*
X156438143Y-111369548D01*
X156424000Y-111355405D01*
X156409858Y-111369548D01*
X156230253Y-111189943D01*
X156244395Y-111175800D01*
X156230253Y-111161658D01*
X156409858Y-110982053D01*
X156424000Y-110996195D01*
X157396927Y-110023268D01*
X157298264Y-109756413D01*
X156688539Y-109529892D01*
X156038540Y-109553944D01*
X155549736Y-109756413D01*
X155498277Y-109895595D01*
X155388090Y-109724359D01*
X155175890Y-109579369D01*
X154924000Y-109528360D01*
X152924000Y-109528360D01*
X152688683Y-109572638D01*
X152472559Y-109711710D01*
X152327569Y-109923910D01*
X152276560Y-110175800D01*
X152276560Y-112175800D01*
X152320838Y-112411117D01*
X152402000Y-112537246D01*
X152402000Y-112897432D01*
X152309839Y-112835852D01*
X152019000Y-112778000D01*
X150241000Y-112778000D01*
X149950161Y-112835852D01*
X149703599Y-113000599D01*
X149554000Y-113224490D01*
X149554000Y-105859857D01*
X149572110Y-105872231D01*
X149824000Y-105923240D01*
X151824000Y-105923240D01*
X152059317Y-105878962D01*
X152275441Y-105739890D01*
X152420431Y-105527690D01*
X152471440Y-105275800D01*
X152471440Y-102075800D01*
X152427162Y-101840483D01*
X152288090Y-101624359D01*
X152075890Y-101479369D01*
X151824000Y-101428360D01*
X149824000Y-101428360D01*
X149588683Y-101472638D01*
X149554000Y-101494956D01*
X149554000Y-97828332D01*
X152951073Y-97828332D01*
X153049736Y-98095187D01*
X153659461Y-98321708D01*
X154309460Y-98297656D01*
X154798264Y-98095187D01*
X154896927Y-97828332D01*
X153924000Y-96855405D01*
X152951073Y-97828332D01*
X149554000Y-97828332D01*
X149554000Y-95706000D01*
X152763010Y-95706000D01*
X152504613Y-95801536D01*
X152504613Y-95801536D01*
G37*
X152504613Y-95801536D02*
X152278092Y-96411261D01*
X152302144Y-97061260D01*
X152504613Y-97550064D01*
X152771468Y-97648727D01*
X153744395Y-96675800D01*
X153730253Y-96661658D01*
X153909858Y-96482053D01*
X153924000Y-96496195D01*
X153938143Y-96482053D01*
X154117748Y-96661658D01*
X154103605Y-96675800D01*
X155076532Y-97648727D01*
X155343387Y-97550064D01*
X155569908Y-96940339D01*
X155545856Y-96290340D01*
X155343387Y-95801536D01*
X155084990Y-95706000D01*
X157581233Y-95706000D01*
X157538722Y-95748437D01*
X157289284Y-96349152D01*
X157288716Y-96999595D01*
X157537106Y-97600743D01*
X157996637Y-98061078D01*
X158117000Y-98111057D01*
X158117000Y-108712000D01*
X158174852Y-109002839D01*
X158339599Y-109249401D01*
X158630741Y-109540543D01*
X158600205Y-109540516D01*
X157999057Y-109788906D01*
X157582248Y-110204987D01*
X157576532Y-110202873D01*
X156603605Y-111175800D01*
X156617748Y-111189943D01*
X156438143Y-111369548D01*
X156424000Y-111355405D01*
X156409858Y-111369548D01*
X156230253Y-111189943D01*
X156244395Y-111175800D01*
X156230253Y-111161658D01*
X156409858Y-110982053D01*
X156424000Y-110996195D01*
X157396927Y-110023268D01*
X157298264Y-109756413D01*
X156688539Y-109529892D01*
X156038540Y-109553944D01*
X155549736Y-109756413D01*
X155498277Y-109895595D01*
X155388090Y-109724359D01*
X155175890Y-109579369D01*
X154924000Y-109528360D01*
X152924000Y-109528360D01*
X152688683Y-109572638D01*
X152472559Y-109711710D01*
X152327569Y-109923910D01*
X152276560Y-110175800D01*
X152276560Y-112175800D01*
X152320838Y-112411117D01*
X152402000Y-112537246D01*
X152402000Y-112897432D01*
X152309839Y-112835852D01*
X152019000Y-112778000D01*
X150241000Y-112778000D01*
X149950161Y-112835852D01*
X149703599Y-113000599D01*
X149554000Y-113224490D01*
X149554000Y-105859857D01*
X149572110Y-105872231D01*
X149824000Y-105923240D01*
X151824000Y-105923240D01*
X152059317Y-105878962D01*
X152275441Y-105739890D01*
X152420431Y-105527690D01*
X152471440Y-105275800D01*
X152471440Y-102075800D01*
X152427162Y-101840483D01*
X152288090Y-101624359D01*
X152075890Y-101479369D01*
X151824000Y-101428360D01*
X149824000Y-101428360D01*
X149588683Y-101472638D01*
X149554000Y-101494956D01*
X149554000Y-97828332D01*
X152951073Y-97828332D01*
X153049736Y-98095187D01*
X153659461Y-98321708D01*
X154309460Y-98297656D01*
X154798264Y-98095187D01*
X154896927Y-97828332D01*
X153924000Y-96855405D01*
X152951073Y-97828332D01*
X149554000Y-97828332D01*
X149554000Y-95706000D01*
X152763010Y-95706000D01*
X152504613Y-95801536D01*
M02*
