G04 #@! TF.FileFunction,Copper,L2,Bot,Signal*
%FSLAX46Y46*%
G04 Gerber Fmt 4.6, Leading zero omitted, Abs format (unit mm)*
G04 Created by KiCad (PCBNEW 4.0.6) date Tue Sep 25 18:00:22 2018*
%MOMM*%
%LPD*%
G01*
G04 APERTURE LIST*
%ADD10C,0.100000*%
%ADD11C,2.000000*%
%ADD12R,2.000000X3.200000*%
%ADD13R,2.000000X2.000000*%
%ADD14R,1.750000X1.750000*%
%ADD15C,1.750000*%
%ADD16C,0.600000*%
%ADD17C,0.250000*%
%ADD18C,0.254000*%
G04 APERTURE END LIST*
D10*
D11*
X158924000Y-96675800D03*
X153924000Y-96675800D03*
D12*
X162024000Y-103675800D03*
X150824000Y-103675800D03*
D11*
X158924000Y-111175800D03*
X156424000Y-111175800D03*
D13*
X153924000Y-111175800D03*
D14*
X152717500Y-118491000D03*
D15*
X155217500Y-118491000D03*
X157717500Y-118491000D03*
X160217500Y-118491000D03*
D16*
X161163000Y-112014000D03*
X156718000Y-117221000D03*
D17*
X161163000Y-112014000D02*
X156591000Y-116586000D01*
X156591000Y-116586000D02*
X156337000Y-116586000D01*
X156337000Y-116586000D02*
X156083000Y-116840000D01*
X156083000Y-116840000D02*
X156083000Y-117602000D01*
X156083000Y-117602000D02*
X155194000Y-118491000D01*
X155194000Y-118491000D02*
X155217500Y-118491000D01*
X156718000Y-117221000D02*
X158115000Y-117221000D01*
X158115000Y-117221000D02*
X158242000Y-117348000D01*
X158242000Y-117348000D02*
X158369000Y-117348000D01*
X158369000Y-117348000D02*
X158496000Y-117475000D01*
X158496000Y-117475000D02*
X158623000Y-117475000D01*
X158623000Y-117475000D02*
X159639000Y-118491000D01*
X159639000Y-118491000D02*
X160217500Y-118491000D01*
D18*
G36*
X152504613Y-95801536D02*
X152278092Y-96411261D01*
X152302144Y-97061260D01*
X152504613Y-97550064D01*
X152771468Y-97648727D01*
X153744395Y-96675800D01*
X153730253Y-96661658D01*
X153909858Y-96482053D01*
X153924000Y-96496195D01*
X153938143Y-96482053D01*
X154117748Y-96661658D01*
X154103605Y-96675800D01*
X155076532Y-97648727D01*
X155343387Y-97550064D01*
X155569908Y-96940339D01*
X155545856Y-96290340D01*
X155343387Y-95801536D01*
X155084990Y-95706000D01*
X157581233Y-95706000D01*
X157538722Y-95748437D01*
X157289284Y-96349152D01*
X157288716Y-96999595D01*
X157537106Y-97600743D01*
X157996637Y-98061078D01*
X158597352Y-98310516D01*
X159247795Y-98311084D01*
X159848943Y-98062694D01*
X160309278Y-97603163D01*
X160558716Y-97002448D01*
X160559284Y-96352005D01*
X160310894Y-95750857D01*
X160266115Y-95706000D01*
X163374000Y-95706000D01*
X163374000Y-101546405D01*
X163275890Y-101479369D01*
X163024000Y-101428360D01*
X161024000Y-101428360D01*
X160788683Y-101472638D01*
X160572559Y-101611710D01*
X160427569Y-101823910D01*
X160376560Y-102075800D01*
X160376560Y-105275800D01*
X160420838Y-105511117D01*
X160559910Y-105727241D01*
X160772110Y-105872231D01*
X161024000Y-105923240D01*
X163024000Y-105923240D01*
X163259317Y-105878962D01*
X163374000Y-105805166D01*
X163374000Y-119178000D01*
X161574300Y-119178000D01*
X161739090Y-118725694D01*
X161713079Y-118125542D01*
X161533453Y-117691884D01*
X161279560Y-117608545D01*
X160397105Y-118491000D01*
X160411248Y-118505143D01*
X160231643Y-118684748D01*
X160217500Y-118670605D01*
X160203358Y-118684748D01*
X160023753Y-118505143D01*
X160037895Y-118491000D01*
X159155440Y-117608545D01*
X159006852Y-117657318D01*
X158998362Y-117636771D01*
X158790894Y-117428940D01*
X159335045Y-117428940D01*
X160217500Y-118311395D01*
X161099955Y-117428940D01*
X161016616Y-117175047D01*
X160452194Y-116969410D01*
X159852042Y-116995421D01*
X159418384Y-117175047D01*
X159335045Y-117428940D01*
X158790894Y-117428940D01*
X158573963Y-117211630D01*
X158019175Y-116981262D01*
X157418460Y-116980738D01*
X157167277Y-117084525D01*
X161302680Y-112949122D01*
X161348167Y-112949162D01*
X161691943Y-112807117D01*
X161955192Y-112544327D01*
X162097838Y-112200799D01*
X162098162Y-111828833D01*
X161956117Y-111485057D01*
X161693327Y-111221808D01*
X161349799Y-111079162D01*
X160977833Y-111078838D01*
X160634057Y-111220883D01*
X160558896Y-111295913D01*
X160559284Y-110852005D01*
X160310894Y-110250857D01*
X159851363Y-109790522D01*
X159250648Y-109541084D01*
X158600205Y-109540516D01*
X157999057Y-109788906D01*
X157582248Y-110204987D01*
X157576532Y-110202873D01*
X156603605Y-111175800D01*
X157576532Y-112148727D01*
X157582722Y-112146439D01*
X157996637Y-112561078D01*
X158597352Y-112810516D01*
X159247795Y-112811084D01*
X159321617Y-112780581D01*
X156261101Y-115841097D01*
X156046160Y-115883852D01*
X155799599Y-116048599D01*
X155545599Y-116302599D01*
X155380852Y-116549161D01*
X155323000Y-116840000D01*
X155323000Y-116981091D01*
X154918460Y-116980738D01*
X154363271Y-117210138D01*
X154194397Y-117378717D01*
X154056590Y-117164559D01*
X153844390Y-117019569D01*
X153592500Y-116968560D01*
X151842500Y-116968560D01*
X151607183Y-117012838D01*
X151391059Y-117151910D01*
X151246069Y-117364110D01*
X151195060Y-117616000D01*
X151195060Y-119178000D01*
X149554000Y-119178000D01*
X149554000Y-110175800D01*
X152276560Y-110175800D01*
X152276560Y-112175800D01*
X152320838Y-112411117D01*
X152459910Y-112627241D01*
X152672110Y-112772231D01*
X152924000Y-112823240D01*
X154924000Y-112823240D01*
X155159317Y-112778962D01*
X155375441Y-112639890D01*
X155499263Y-112458671D01*
X155549736Y-112595187D01*
X156159461Y-112821708D01*
X156809460Y-112797656D01*
X157298264Y-112595187D01*
X157396927Y-112328332D01*
X156424000Y-111355405D01*
X156409858Y-111369548D01*
X156230253Y-111189943D01*
X156244395Y-111175800D01*
X156230253Y-111161658D01*
X156409858Y-110982053D01*
X156424000Y-110996195D01*
X157396927Y-110023268D01*
X157298264Y-109756413D01*
X156688539Y-109529892D01*
X156038540Y-109553944D01*
X155549736Y-109756413D01*
X155498277Y-109895595D01*
X155388090Y-109724359D01*
X155175890Y-109579369D01*
X154924000Y-109528360D01*
X152924000Y-109528360D01*
X152688683Y-109572638D01*
X152472559Y-109711710D01*
X152327569Y-109923910D01*
X152276560Y-110175800D01*
X149554000Y-110175800D01*
X149554000Y-105859857D01*
X149572110Y-105872231D01*
X149824000Y-105923240D01*
X151824000Y-105923240D01*
X152059317Y-105878962D01*
X152275441Y-105739890D01*
X152420431Y-105527690D01*
X152471440Y-105275800D01*
X152471440Y-102075800D01*
X152427162Y-101840483D01*
X152288090Y-101624359D01*
X152075890Y-101479369D01*
X151824000Y-101428360D01*
X149824000Y-101428360D01*
X149588683Y-101472638D01*
X149554000Y-101494956D01*
X149554000Y-97828332D01*
X152951073Y-97828332D01*
X153049736Y-98095187D01*
X153659461Y-98321708D01*
X154309460Y-98297656D01*
X154798264Y-98095187D01*
X154896927Y-97828332D01*
X153924000Y-96855405D01*
X152951073Y-97828332D01*
X149554000Y-97828332D01*
X149554000Y-95706000D01*
X152763010Y-95706000D01*
X152504613Y-95801536D01*
X152504613Y-95801536D01*
G37*
X152504613Y-95801536D02*
X152278092Y-96411261D01*
X152302144Y-97061260D01*
X152504613Y-97550064D01*
X152771468Y-97648727D01*
X153744395Y-96675800D01*
X153730253Y-96661658D01*
X153909858Y-96482053D01*
X153924000Y-96496195D01*
X153938143Y-96482053D01*
X154117748Y-96661658D01*
X154103605Y-96675800D01*
X155076532Y-97648727D01*
X155343387Y-97550064D01*
X155569908Y-96940339D01*
X155545856Y-96290340D01*
X155343387Y-95801536D01*
X155084990Y-95706000D01*
X157581233Y-95706000D01*
X157538722Y-95748437D01*
X157289284Y-96349152D01*
X157288716Y-96999595D01*
X157537106Y-97600743D01*
X157996637Y-98061078D01*
X158597352Y-98310516D01*
X159247795Y-98311084D01*
X159848943Y-98062694D01*
X160309278Y-97603163D01*
X160558716Y-97002448D01*
X160559284Y-96352005D01*
X160310894Y-95750857D01*
X160266115Y-95706000D01*
X163374000Y-95706000D01*
X163374000Y-101546405D01*
X163275890Y-101479369D01*
X163024000Y-101428360D01*
X161024000Y-101428360D01*
X160788683Y-101472638D01*
X160572559Y-101611710D01*
X160427569Y-101823910D01*
X160376560Y-102075800D01*
X160376560Y-105275800D01*
X160420838Y-105511117D01*
X160559910Y-105727241D01*
X160772110Y-105872231D01*
X161024000Y-105923240D01*
X163024000Y-105923240D01*
X163259317Y-105878962D01*
X163374000Y-105805166D01*
X163374000Y-119178000D01*
X161574300Y-119178000D01*
X161739090Y-118725694D01*
X161713079Y-118125542D01*
X161533453Y-117691884D01*
X161279560Y-117608545D01*
X160397105Y-118491000D01*
X160411248Y-118505143D01*
X160231643Y-118684748D01*
X160217500Y-118670605D01*
X160203358Y-118684748D01*
X160023753Y-118505143D01*
X160037895Y-118491000D01*
X159155440Y-117608545D01*
X159006852Y-117657318D01*
X158998362Y-117636771D01*
X158790894Y-117428940D01*
X159335045Y-117428940D01*
X160217500Y-118311395D01*
X161099955Y-117428940D01*
X161016616Y-117175047D01*
X160452194Y-116969410D01*
X159852042Y-116995421D01*
X159418384Y-117175047D01*
X159335045Y-117428940D01*
X158790894Y-117428940D01*
X158573963Y-117211630D01*
X158019175Y-116981262D01*
X157418460Y-116980738D01*
X157167277Y-117084525D01*
X161302680Y-112949122D01*
X161348167Y-112949162D01*
X161691943Y-112807117D01*
X161955192Y-112544327D01*
X162097838Y-112200799D01*
X162098162Y-111828833D01*
X161956117Y-111485057D01*
X161693327Y-111221808D01*
X161349799Y-111079162D01*
X160977833Y-111078838D01*
X160634057Y-111220883D01*
X160558896Y-111295913D01*
X160559284Y-110852005D01*
X160310894Y-110250857D01*
X159851363Y-109790522D01*
X159250648Y-109541084D01*
X158600205Y-109540516D01*
X157999057Y-109788906D01*
X157582248Y-110204987D01*
X157576532Y-110202873D01*
X156603605Y-111175800D01*
X157576532Y-112148727D01*
X157582722Y-112146439D01*
X157996637Y-112561078D01*
X158597352Y-112810516D01*
X159247795Y-112811084D01*
X159321617Y-112780581D01*
X156261101Y-115841097D01*
X156046160Y-115883852D01*
X155799599Y-116048599D01*
X155545599Y-116302599D01*
X155380852Y-116549161D01*
X155323000Y-116840000D01*
X155323000Y-116981091D01*
X154918460Y-116980738D01*
X154363271Y-117210138D01*
X154194397Y-117378717D01*
X154056590Y-117164559D01*
X153844390Y-117019569D01*
X153592500Y-116968560D01*
X151842500Y-116968560D01*
X151607183Y-117012838D01*
X151391059Y-117151910D01*
X151246069Y-117364110D01*
X151195060Y-117616000D01*
X151195060Y-119178000D01*
X149554000Y-119178000D01*
X149554000Y-110175800D01*
X152276560Y-110175800D01*
X152276560Y-112175800D01*
X152320838Y-112411117D01*
X152459910Y-112627241D01*
X152672110Y-112772231D01*
X152924000Y-112823240D01*
X154924000Y-112823240D01*
X155159317Y-112778962D01*
X155375441Y-112639890D01*
X155499263Y-112458671D01*
X155549736Y-112595187D01*
X156159461Y-112821708D01*
X156809460Y-112797656D01*
X157298264Y-112595187D01*
X157396927Y-112328332D01*
X156424000Y-111355405D01*
X156409858Y-111369548D01*
X156230253Y-111189943D01*
X156244395Y-111175800D01*
X156230253Y-111161658D01*
X156409858Y-110982053D01*
X156424000Y-110996195D01*
X157396927Y-110023268D01*
X157298264Y-109756413D01*
X156688539Y-109529892D01*
X156038540Y-109553944D01*
X155549736Y-109756413D01*
X155498277Y-109895595D01*
X155388090Y-109724359D01*
X155175890Y-109579369D01*
X154924000Y-109528360D01*
X152924000Y-109528360D01*
X152688683Y-109572638D01*
X152472559Y-109711710D01*
X152327569Y-109923910D01*
X152276560Y-110175800D01*
X149554000Y-110175800D01*
X149554000Y-105859857D01*
X149572110Y-105872231D01*
X149824000Y-105923240D01*
X151824000Y-105923240D01*
X152059317Y-105878962D01*
X152275441Y-105739890D01*
X152420431Y-105527690D01*
X152471440Y-105275800D01*
X152471440Y-102075800D01*
X152427162Y-101840483D01*
X152288090Y-101624359D01*
X152075890Y-101479369D01*
X151824000Y-101428360D01*
X149824000Y-101428360D01*
X149588683Y-101472638D01*
X149554000Y-101494956D01*
X149554000Y-97828332D01*
X152951073Y-97828332D01*
X153049736Y-98095187D01*
X153659461Y-98321708D01*
X154309460Y-98297656D01*
X154798264Y-98095187D01*
X154896927Y-97828332D01*
X153924000Y-96855405D01*
X152951073Y-97828332D01*
X149554000Y-97828332D01*
X149554000Y-95706000D01*
X152763010Y-95706000D01*
X152504613Y-95801536D01*
M02*
