G04 MADE WITH FRITZING*
G04 WWW.FRITZING.ORG*
G04 DOUBLE SIDED*
G04 HOLES PLATED*
G04 CONTOUR ON CENTER OF CONTOUR VECTOR*
%ASAXBY*%
%FSLAX23Y23*%
%MOIN*%
%OFA0B0*%
%SFA1.0B1.0*%
%ADD10C,0.075000*%
%ADD11C,0.078000*%
%ADD12C,0.074000*%
%ADD13C,0.070000*%
%ADD14C,0.082000*%
%ADD15R,0.075000X0.075000*%
%ADD16R,0.082000X0.082000*%
%ADD17C,0.024000*%
%ADD18R,0.001000X0.001000*%
%LNCOPPER1*%
G90*
G70*
G54D10*
X469Y454D03*
X93Y292D03*
G54D11*
X927Y98D03*
X1027Y98D03*
X1127Y98D03*
X1227Y98D03*
X1327Y98D03*
X1427Y98D03*
X1527Y98D03*
X1627Y98D03*
X1969Y100D03*
X1969Y200D03*
X1969Y300D03*
X1969Y400D03*
X1969Y500D03*
X1969Y600D03*
G54D10*
X299Y395D03*
X599Y395D03*
X299Y295D03*
X599Y295D03*
X299Y195D03*
X599Y195D03*
X299Y95D03*
X599Y95D03*
X1725Y604D03*
X1625Y604D03*
X1525Y604D03*
X1425Y604D03*
X1325Y604D03*
X1225Y604D03*
X1125Y604D03*
X1025Y604D03*
X925Y604D03*
X925Y304D03*
X1025Y304D03*
X1125Y304D03*
X1225Y304D03*
X1325Y304D03*
X1425Y304D03*
X1525Y304D03*
X1625Y304D03*
X1725Y304D03*
G54D12*
X507Y581D03*
X397Y581D03*
X507Y581D03*
X397Y581D03*
G54D13*
X1856Y487D03*
X1856Y587D03*
X716Y583D03*
X616Y583D03*
G54D10*
X806Y168D03*
X806Y568D03*
X721Y100D03*
X721Y500D03*
G54D14*
X173Y383D03*
X173Y85D03*
G54D10*
X69Y583D03*
X69Y183D03*
G54D15*
X299Y395D03*
X1725Y604D03*
G54D16*
X173Y384D03*
G54D17*
X1845Y241D02*
X1070Y234D01*
D02*
X1940Y210D02*
X1845Y241D01*
D02*
X1070Y234D02*
X806Y168D01*
D02*
X171Y238D02*
X173Y351D01*
D02*
X94Y196D02*
X171Y238D01*
D02*
X450Y640D02*
X430Y662D01*
D02*
X157Y663D02*
X90Y602D01*
D02*
X430Y662D02*
X157Y663D01*
D02*
X485Y603D02*
X450Y640D01*
D02*
X198Y106D02*
X277Y177D01*
D02*
X397Y550D02*
X396Y254D01*
D02*
X396Y254D02*
X324Y210D01*
D02*
X1939Y403D02*
X1788Y417D01*
X1788Y417D02*
X1788Y561D01*
X1788Y561D02*
X1748Y588D01*
D02*
X1940Y309D02*
X1740Y369D01*
X1740Y369D02*
X1637Y579D01*
D02*
X779Y178D02*
X780Y177D01*
X780Y177D02*
X636Y177D01*
X636Y177D02*
X625Y183D01*
D02*
X719Y529D02*
X718Y557D01*
D02*
X1318Y577D02*
X1308Y537D01*
X1308Y537D02*
X948Y537D01*
X948Y537D02*
X934Y577D01*
D02*
X1496Y604D02*
X1453Y604D01*
D02*
X1939Y597D02*
X1882Y590D01*
D02*
X614Y557D02*
X602Y424D01*
D02*
X792Y593D02*
X756Y657D01*
X756Y657D02*
X660Y657D01*
X660Y657D02*
X629Y605D01*
G36*
X40Y653D02*
X40Y629D01*
X88Y629D01*
X88Y631D01*
X90Y631D01*
X90Y633D01*
X92Y633D01*
X92Y653D01*
X40Y653D01*
G37*
D02*
G36*
X486Y653D02*
X486Y633D01*
X488Y633D01*
X488Y631D01*
X490Y631D01*
X490Y629D01*
X492Y629D01*
X492Y627D01*
X554Y627D01*
X554Y595D01*
X574Y595D01*
X574Y601D01*
X576Y601D01*
X576Y603D01*
X578Y603D01*
X578Y607D01*
X580Y607D01*
X580Y609D01*
X582Y609D01*
X582Y613D01*
X584Y613D01*
X584Y615D01*
X586Y615D01*
X586Y617D01*
X590Y617D01*
X590Y619D01*
X592Y619D01*
X592Y621D01*
X596Y621D01*
X596Y623D01*
X600Y623D01*
X600Y625D01*
X606Y625D01*
X606Y627D01*
X618Y627D01*
X618Y631D01*
X620Y631D01*
X620Y653D01*
X486Y653D01*
G37*
D02*
G36*
X1772Y653D02*
X1772Y631D01*
X1868Y631D01*
X1868Y629D01*
X1874Y629D01*
X1874Y627D01*
X1878Y627D01*
X1878Y625D01*
X1882Y625D01*
X1882Y623D01*
X1884Y623D01*
X1884Y621D01*
X1886Y621D01*
X1886Y619D01*
X1888Y619D01*
X1888Y617D01*
X1890Y617D01*
X1890Y615D01*
X1892Y615D01*
X1892Y613D01*
X1894Y613D01*
X1894Y609D01*
X1896Y609D01*
X1896Y605D01*
X1898Y605D01*
X1898Y601D01*
X1900Y601D01*
X1900Y593D01*
X1920Y593D01*
X1920Y611D01*
X1922Y611D01*
X1922Y617D01*
X1924Y617D01*
X1924Y621D01*
X1926Y621D01*
X1926Y625D01*
X1928Y625D01*
X1928Y629D01*
X1930Y629D01*
X1930Y631D01*
X1932Y631D01*
X1932Y633D01*
X1934Y633D01*
X1934Y653D01*
X1772Y653D01*
G37*
D02*
G36*
X1772Y631D02*
X1772Y597D01*
X1776Y597D01*
X1776Y595D01*
X1778Y595D01*
X1778Y593D01*
X1782Y593D01*
X1782Y591D01*
X1784Y591D01*
X1784Y589D01*
X1788Y589D01*
X1788Y587D01*
X1790Y587D01*
X1790Y585D01*
X1812Y585D01*
X1812Y597D01*
X1814Y597D01*
X1814Y603D01*
X1816Y603D01*
X1816Y607D01*
X1818Y607D01*
X1818Y611D01*
X1820Y611D01*
X1820Y613D01*
X1822Y613D01*
X1822Y617D01*
X1824Y617D01*
X1824Y619D01*
X1826Y619D01*
X1826Y621D01*
X1830Y621D01*
X1830Y623D01*
X1832Y623D01*
X1832Y625D01*
X1836Y625D01*
X1836Y627D01*
X1840Y627D01*
X1840Y629D01*
X1846Y629D01*
X1846Y631D01*
X1772Y631D01*
G37*
D02*
G36*
X1902Y589D02*
X1902Y581D01*
X1900Y581D01*
X1900Y573D01*
X1898Y573D01*
X1898Y567D01*
X1896Y567D01*
X1896Y563D01*
X1894Y563D01*
X1894Y561D01*
X1892Y561D01*
X1892Y557D01*
X1890Y557D01*
X1890Y555D01*
X1888Y555D01*
X1888Y553D01*
X1886Y553D01*
X1886Y551D01*
X1882Y551D01*
X1882Y549D01*
X1880Y549D01*
X1880Y547D01*
X1876Y547D01*
X1876Y527D01*
X1878Y527D01*
X1878Y525D01*
X1880Y525D01*
X1880Y523D01*
X1884Y523D01*
X1884Y521D01*
X1886Y521D01*
X1886Y519D01*
X1888Y519D01*
X1888Y517D01*
X1890Y517D01*
X1890Y515D01*
X1892Y515D01*
X1892Y513D01*
X1894Y513D01*
X1894Y509D01*
X1896Y509D01*
X1896Y505D01*
X1898Y505D01*
X1898Y501D01*
X1900Y501D01*
X1900Y493D01*
X1920Y493D01*
X1920Y511D01*
X1922Y511D01*
X1922Y517D01*
X1924Y517D01*
X1924Y521D01*
X1926Y521D01*
X1926Y525D01*
X1928Y525D01*
X1928Y529D01*
X1930Y529D01*
X1930Y531D01*
X1932Y531D01*
X1932Y533D01*
X1934Y533D01*
X1934Y535D01*
X1936Y535D01*
X1936Y537D01*
X1938Y537D01*
X1938Y539D01*
X1942Y539D01*
X1942Y559D01*
X1940Y559D01*
X1940Y561D01*
X1938Y561D01*
X1938Y563D01*
X1936Y563D01*
X1936Y565D01*
X1934Y565D01*
X1934Y567D01*
X1932Y567D01*
X1932Y569D01*
X1930Y569D01*
X1930Y571D01*
X1928Y571D01*
X1928Y575D01*
X1926Y575D01*
X1926Y577D01*
X1924Y577D01*
X1924Y583D01*
X1922Y583D01*
X1922Y589D01*
X1902Y589D01*
G37*
D02*
G36*
X554Y571D02*
X554Y533D01*
X590Y533D01*
X590Y547D01*
X588Y547D01*
X588Y549D01*
X586Y549D01*
X586Y551D01*
X584Y551D01*
X584Y553D01*
X582Y553D01*
X582Y555D01*
X580Y555D01*
X580Y557D01*
X578Y557D01*
X578Y561D01*
X576Y561D01*
X576Y565D01*
X574Y565D01*
X574Y571D01*
X554Y571D01*
G37*
D02*
G36*
X440Y565D02*
X440Y559D01*
X438Y559D01*
X438Y555D01*
X436Y555D01*
X436Y553D01*
X434Y553D01*
X434Y551D01*
X432Y551D01*
X432Y547D01*
X428Y547D01*
X428Y545D01*
X426Y545D01*
X426Y543D01*
X424Y543D01*
X424Y541D01*
X420Y541D01*
X420Y539D01*
X418Y539D01*
X418Y533D01*
X460Y533D01*
X460Y565D01*
X440Y565D01*
G37*
D02*
G36*
X418Y533D02*
X418Y531D01*
X590Y531D01*
X590Y533D01*
X418Y533D01*
G37*
D02*
G36*
X418Y533D02*
X418Y531D01*
X590Y531D01*
X590Y533D01*
X418Y533D01*
G37*
D02*
G36*
X418Y531D02*
X418Y245D01*
X416Y245D01*
X416Y241D01*
X414Y241D01*
X414Y239D01*
X412Y239D01*
X412Y237D01*
X410Y237D01*
X410Y235D01*
X408Y235D01*
X408Y233D01*
X404Y233D01*
X404Y231D01*
X400Y231D01*
X400Y229D01*
X398Y229D01*
X398Y227D01*
X394Y227D01*
X394Y225D01*
X390Y225D01*
X390Y223D01*
X388Y223D01*
X388Y221D01*
X384Y221D01*
X384Y219D01*
X380Y219D01*
X380Y217D01*
X378Y217D01*
X378Y215D01*
X374Y215D01*
X374Y213D01*
X370Y213D01*
X370Y211D01*
X366Y211D01*
X366Y209D01*
X364Y209D01*
X364Y207D01*
X360Y207D01*
X360Y205D01*
X356Y205D01*
X356Y203D01*
X354Y203D01*
X354Y201D01*
X350Y201D01*
X350Y199D01*
X346Y199D01*
X346Y185D01*
X344Y185D01*
X344Y177D01*
X342Y177D01*
X342Y173D01*
X340Y173D01*
X340Y169D01*
X338Y169D01*
X338Y167D01*
X336Y167D01*
X336Y165D01*
X334Y165D01*
X334Y161D01*
X330Y161D01*
X330Y159D01*
X328Y159D01*
X328Y157D01*
X326Y157D01*
X326Y155D01*
X322Y155D01*
X322Y135D01*
X326Y135D01*
X326Y133D01*
X328Y133D01*
X328Y131D01*
X330Y131D01*
X330Y129D01*
X334Y129D01*
X334Y125D01*
X336Y125D01*
X336Y123D01*
X338Y123D01*
X338Y121D01*
X340Y121D01*
X340Y117D01*
X342Y117D01*
X342Y113D01*
X344Y113D01*
X344Y105D01*
X346Y105D01*
X346Y85D01*
X344Y85D01*
X344Y77D01*
X342Y77D01*
X342Y73D01*
X340Y73D01*
X340Y69D01*
X338Y69D01*
X338Y67D01*
X336Y67D01*
X336Y65D01*
X334Y65D01*
X334Y61D01*
X330Y61D01*
X330Y41D01*
X568Y41D01*
X568Y61D01*
X564Y61D01*
X564Y65D01*
X562Y65D01*
X562Y67D01*
X560Y67D01*
X560Y69D01*
X558Y69D01*
X558Y73D01*
X556Y73D01*
X556Y77D01*
X554Y77D01*
X554Y83D01*
X552Y83D01*
X552Y107D01*
X554Y107D01*
X554Y113D01*
X556Y113D01*
X556Y117D01*
X558Y117D01*
X558Y121D01*
X560Y121D01*
X560Y123D01*
X562Y123D01*
X562Y125D01*
X564Y125D01*
X564Y129D01*
X568Y129D01*
X568Y131D01*
X570Y131D01*
X570Y133D01*
X572Y133D01*
X572Y135D01*
X576Y135D01*
X576Y155D01*
X572Y155D01*
X572Y157D01*
X570Y157D01*
X570Y159D01*
X568Y159D01*
X568Y161D01*
X564Y161D01*
X564Y165D01*
X562Y165D01*
X562Y167D01*
X560Y167D01*
X560Y169D01*
X558Y169D01*
X558Y173D01*
X556Y173D01*
X556Y177D01*
X554Y177D01*
X554Y183D01*
X552Y183D01*
X552Y207D01*
X554Y207D01*
X554Y213D01*
X556Y213D01*
X556Y217D01*
X558Y217D01*
X558Y221D01*
X560Y221D01*
X560Y223D01*
X562Y223D01*
X562Y225D01*
X564Y225D01*
X564Y229D01*
X568Y229D01*
X568Y231D01*
X570Y231D01*
X570Y233D01*
X572Y233D01*
X572Y235D01*
X576Y235D01*
X576Y255D01*
X572Y255D01*
X572Y257D01*
X570Y257D01*
X570Y259D01*
X568Y259D01*
X568Y261D01*
X564Y261D01*
X564Y265D01*
X562Y265D01*
X562Y267D01*
X560Y267D01*
X560Y269D01*
X558Y269D01*
X558Y273D01*
X556Y273D01*
X556Y277D01*
X554Y277D01*
X554Y283D01*
X552Y283D01*
X552Y307D01*
X554Y307D01*
X554Y313D01*
X556Y313D01*
X556Y317D01*
X558Y317D01*
X558Y321D01*
X560Y321D01*
X560Y323D01*
X562Y323D01*
X562Y325D01*
X564Y325D01*
X564Y329D01*
X568Y329D01*
X568Y331D01*
X570Y331D01*
X570Y333D01*
X572Y333D01*
X572Y335D01*
X576Y335D01*
X576Y355D01*
X572Y355D01*
X572Y357D01*
X570Y357D01*
X570Y359D01*
X568Y359D01*
X568Y361D01*
X564Y361D01*
X564Y365D01*
X562Y365D01*
X562Y367D01*
X560Y367D01*
X560Y369D01*
X558Y369D01*
X558Y373D01*
X556Y373D01*
X556Y377D01*
X554Y377D01*
X554Y383D01*
X552Y383D01*
X552Y407D01*
X554Y407D01*
X554Y413D01*
X556Y413D01*
X556Y417D01*
X558Y417D01*
X558Y421D01*
X560Y421D01*
X560Y423D01*
X562Y423D01*
X562Y425D01*
X564Y425D01*
X564Y429D01*
X568Y429D01*
X568Y431D01*
X570Y431D01*
X570Y433D01*
X572Y433D01*
X572Y435D01*
X576Y435D01*
X576Y437D01*
X580Y437D01*
X580Y439D01*
X582Y439D01*
X582Y461D01*
X584Y461D01*
X584Y483D01*
X586Y483D01*
X586Y505D01*
X588Y505D01*
X588Y527D01*
X590Y527D01*
X590Y531D01*
X418Y531D01*
G37*
D02*
G36*
X794Y653D02*
X794Y633D01*
X796Y633D01*
X796Y629D01*
X798Y629D01*
X798Y625D01*
X800Y625D01*
X800Y621D01*
X802Y621D01*
X802Y619D01*
X804Y619D01*
X804Y615D01*
X816Y615D01*
X816Y613D01*
X822Y613D01*
X822Y611D01*
X828Y611D01*
X828Y609D01*
X830Y609D01*
X830Y607D01*
X834Y607D01*
X834Y605D01*
X836Y605D01*
X836Y603D01*
X838Y603D01*
X838Y601D01*
X840Y601D01*
X840Y599D01*
X842Y599D01*
X842Y597D01*
X844Y597D01*
X844Y595D01*
X846Y595D01*
X846Y591D01*
X848Y591D01*
X848Y587D01*
X850Y587D01*
X850Y583D01*
X852Y583D01*
X852Y573D01*
X854Y573D01*
X854Y561D01*
X852Y561D01*
X852Y557D01*
X914Y557D01*
X914Y559D01*
X908Y559D01*
X908Y561D01*
X904Y561D01*
X904Y563D01*
X900Y563D01*
X900Y565D01*
X896Y565D01*
X896Y567D01*
X894Y567D01*
X894Y569D01*
X892Y569D01*
X892Y571D01*
X890Y571D01*
X890Y573D01*
X888Y573D01*
X888Y575D01*
X886Y575D01*
X886Y579D01*
X884Y579D01*
X884Y581D01*
X882Y581D01*
X882Y585D01*
X880Y585D01*
X880Y591D01*
X878Y591D01*
X878Y617D01*
X880Y617D01*
X880Y623D01*
X882Y623D01*
X882Y627D01*
X884Y627D01*
X884Y631D01*
X886Y631D01*
X886Y633D01*
X888Y633D01*
X888Y653D01*
X794Y653D01*
G37*
D02*
G36*
X964Y579D02*
X964Y577D01*
X962Y577D01*
X962Y575D01*
X960Y575D01*
X960Y571D01*
X958Y571D01*
X958Y569D01*
X956Y569D01*
X956Y567D01*
X952Y567D01*
X952Y565D01*
X950Y565D01*
X950Y563D01*
X946Y563D01*
X946Y561D01*
X942Y561D01*
X942Y559D01*
X936Y559D01*
X936Y557D01*
X1014Y557D01*
X1014Y559D01*
X1008Y559D01*
X1008Y561D01*
X1004Y561D01*
X1004Y563D01*
X1000Y563D01*
X1000Y565D01*
X996Y565D01*
X996Y567D01*
X994Y567D01*
X994Y569D01*
X992Y569D01*
X992Y571D01*
X990Y571D01*
X990Y573D01*
X988Y573D01*
X988Y575D01*
X986Y575D01*
X986Y579D01*
X964Y579D01*
G37*
D02*
G36*
X1064Y579D02*
X1064Y577D01*
X1062Y577D01*
X1062Y575D01*
X1060Y575D01*
X1060Y571D01*
X1058Y571D01*
X1058Y569D01*
X1056Y569D01*
X1056Y567D01*
X1052Y567D01*
X1052Y565D01*
X1050Y565D01*
X1050Y563D01*
X1046Y563D01*
X1046Y561D01*
X1042Y561D01*
X1042Y559D01*
X1036Y559D01*
X1036Y557D01*
X1114Y557D01*
X1114Y559D01*
X1108Y559D01*
X1108Y561D01*
X1104Y561D01*
X1104Y563D01*
X1100Y563D01*
X1100Y565D01*
X1096Y565D01*
X1096Y567D01*
X1094Y567D01*
X1094Y569D01*
X1092Y569D01*
X1092Y571D01*
X1090Y571D01*
X1090Y573D01*
X1088Y573D01*
X1088Y575D01*
X1086Y575D01*
X1086Y579D01*
X1064Y579D01*
G37*
D02*
G36*
X1164Y579D02*
X1164Y577D01*
X1162Y577D01*
X1162Y575D01*
X1160Y575D01*
X1160Y571D01*
X1158Y571D01*
X1158Y569D01*
X1156Y569D01*
X1156Y567D01*
X1152Y567D01*
X1152Y565D01*
X1150Y565D01*
X1150Y563D01*
X1146Y563D01*
X1146Y561D01*
X1142Y561D01*
X1142Y559D01*
X1136Y559D01*
X1136Y557D01*
X1214Y557D01*
X1214Y559D01*
X1208Y559D01*
X1208Y561D01*
X1204Y561D01*
X1204Y563D01*
X1200Y563D01*
X1200Y565D01*
X1196Y565D01*
X1196Y567D01*
X1194Y567D01*
X1194Y569D01*
X1192Y569D01*
X1192Y571D01*
X1190Y571D01*
X1190Y573D01*
X1188Y573D01*
X1188Y575D01*
X1186Y575D01*
X1186Y579D01*
X1164Y579D01*
G37*
D02*
G36*
X1264Y579D02*
X1264Y577D01*
X1262Y577D01*
X1262Y575D01*
X1260Y575D01*
X1260Y571D01*
X1258Y571D01*
X1258Y569D01*
X1256Y569D01*
X1256Y567D01*
X1252Y567D01*
X1252Y565D01*
X1250Y565D01*
X1250Y563D01*
X1246Y563D01*
X1246Y561D01*
X1242Y561D01*
X1242Y559D01*
X1236Y559D01*
X1236Y557D01*
X1314Y557D01*
X1314Y559D01*
X1308Y559D01*
X1308Y561D01*
X1304Y561D01*
X1304Y563D01*
X1300Y563D01*
X1300Y565D01*
X1296Y565D01*
X1296Y567D01*
X1294Y567D01*
X1294Y569D01*
X1292Y569D01*
X1292Y571D01*
X1290Y571D01*
X1290Y573D01*
X1288Y573D01*
X1288Y575D01*
X1286Y575D01*
X1286Y579D01*
X1264Y579D01*
G37*
D02*
G36*
X1364Y579D02*
X1364Y577D01*
X1362Y577D01*
X1362Y575D01*
X1360Y575D01*
X1360Y571D01*
X1358Y571D01*
X1358Y569D01*
X1356Y569D01*
X1356Y567D01*
X1352Y567D01*
X1352Y565D01*
X1350Y565D01*
X1350Y563D01*
X1346Y563D01*
X1346Y561D01*
X1342Y561D01*
X1342Y559D01*
X1336Y559D01*
X1336Y557D01*
X1414Y557D01*
X1414Y559D01*
X1408Y559D01*
X1408Y561D01*
X1404Y561D01*
X1404Y563D01*
X1400Y563D01*
X1400Y565D01*
X1396Y565D01*
X1396Y567D01*
X1394Y567D01*
X1394Y569D01*
X1392Y569D01*
X1392Y571D01*
X1390Y571D01*
X1390Y573D01*
X1388Y573D01*
X1388Y575D01*
X1386Y575D01*
X1386Y579D01*
X1364Y579D01*
G37*
D02*
G36*
X1464Y579D02*
X1464Y577D01*
X1462Y577D01*
X1462Y575D01*
X1460Y575D01*
X1460Y571D01*
X1458Y571D01*
X1458Y569D01*
X1456Y569D01*
X1456Y567D01*
X1452Y567D01*
X1452Y565D01*
X1450Y565D01*
X1450Y563D01*
X1446Y563D01*
X1446Y561D01*
X1442Y561D01*
X1442Y559D01*
X1436Y559D01*
X1436Y557D01*
X1514Y557D01*
X1514Y559D01*
X1508Y559D01*
X1508Y561D01*
X1504Y561D01*
X1504Y563D01*
X1500Y563D01*
X1500Y565D01*
X1496Y565D01*
X1496Y567D01*
X1494Y567D01*
X1494Y569D01*
X1492Y569D01*
X1492Y571D01*
X1490Y571D01*
X1490Y573D01*
X1488Y573D01*
X1488Y575D01*
X1486Y575D01*
X1486Y579D01*
X1464Y579D01*
G37*
D02*
G36*
X1564Y579D02*
X1564Y577D01*
X1562Y577D01*
X1562Y575D01*
X1560Y575D01*
X1560Y571D01*
X1558Y571D01*
X1558Y569D01*
X1556Y569D01*
X1556Y567D01*
X1552Y567D01*
X1552Y565D01*
X1550Y565D01*
X1550Y563D01*
X1546Y563D01*
X1546Y561D01*
X1542Y561D01*
X1542Y559D01*
X1536Y559D01*
X1536Y557D01*
X1614Y557D01*
X1614Y559D01*
X1608Y559D01*
X1608Y561D01*
X1604Y561D01*
X1604Y563D01*
X1600Y563D01*
X1600Y565D01*
X1596Y565D01*
X1596Y567D01*
X1594Y567D01*
X1594Y569D01*
X1592Y569D01*
X1592Y571D01*
X1590Y571D01*
X1590Y573D01*
X1588Y573D01*
X1588Y575D01*
X1586Y575D01*
X1586Y579D01*
X1564Y579D01*
G37*
D02*
G36*
X656Y563D02*
X656Y561D01*
X654Y561D01*
X654Y557D01*
X652Y557D01*
X652Y555D01*
X650Y555D01*
X650Y551D01*
X648Y551D01*
X648Y549D01*
X644Y549D01*
X644Y547D01*
X642Y547D01*
X642Y545D01*
X640Y545D01*
X640Y543D01*
X636Y543D01*
X636Y541D01*
X634Y541D01*
X634Y525D01*
X632Y525D01*
X632Y503D01*
X630Y503D01*
X630Y481D01*
X628Y481D01*
X628Y459D01*
X626Y459D01*
X626Y453D01*
X710Y453D01*
X710Y455D01*
X702Y455D01*
X702Y457D01*
X700Y457D01*
X700Y459D01*
X696Y459D01*
X696Y461D01*
X692Y461D01*
X692Y463D01*
X690Y463D01*
X690Y465D01*
X688Y465D01*
X688Y467D01*
X686Y467D01*
X686Y469D01*
X684Y469D01*
X684Y471D01*
X682Y471D01*
X682Y475D01*
X680Y475D01*
X680Y477D01*
X678Y477D01*
X678Y481D01*
X676Y481D01*
X676Y487D01*
X674Y487D01*
X674Y513D01*
X676Y513D01*
X676Y519D01*
X678Y519D01*
X678Y523D01*
X680Y523D01*
X680Y525D01*
X682Y525D01*
X682Y529D01*
X684Y529D01*
X684Y531D01*
X686Y531D01*
X686Y551D01*
X684Y551D01*
X684Y553D01*
X682Y553D01*
X682Y555D01*
X680Y555D01*
X680Y557D01*
X678Y557D01*
X678Y561D01*
X676Y561D01*
X676Y563D01*
X656Y563D01*
G37*
D02*
G36*
X852Y557D02*
X852Y555D01*
X1624Y555D01*
X1624Y557D01*
X852Y557D01*
G37*
D02*
G36*
X852Y557D02*
X852Y555D01*
X1624Y555D01*
X1624Y557D01*
X852Y557D01*
G37*
D02*
G36*
X852Y557D02*
X852Y555D01*
X1624Y555D01*
X1624Y557D01*
X852Y557D01*
G37*
D02*
G36*
X852Y557D02*
X852Y555D01*
X1624Y555D01*
X1624Y557D01*
X852Y557D01*
G37*
D02*
G36*
X852Y557D02*
X852Y555D01*
X1624Y555D01*
X1624Y557D01*
X852Y557D01*
G37*
D02*
G36*
X852Y557D02*
X852Y555D01*
X1624Y555D01*
X1624Y557D01*
X852Y557D01*
G37*
D02*
G36*
X852Y557D02*
X852Y555D01*
X1624Y555D01*
X1624Y557D01*
X852Y557D01*
G37*
D02*
G36*
X852Y557D02*
X852Y555D01*
X1624Y555D01*
X1624Y557D01*
X852Y557D01*
G37*
D02*
G36*
X852Y555D02*
X852Y553D01*
X850Y553D01*
X850Y547D01*
X848Y547D01*
X848Y545D01*
X846Y545D01*
X846Y541D01*
X844Y541D01*
X844Y539D01*
X842Y539D01*
X842Y535D01*
X840Y535D01*
X840Y533D01*
X836Y533D01*
X836Y531D01*
X834Y531D01*
X834Y529D01*
X832Y529D01*
X832Y527D01*
X828Y527D01*
X828Y525D01*
X824Y525D01*
X824Y523D01*
X818Y523D01*
X818Y521D01*
X1640Y521D01*
X1640Y525D01*
X1638Y525D01*
X1638Y529D01*
X1636Y529D01*
X1636Y533D01*
X1634Y533D01*
X1634Y537D01*
X1632Y537D01*
X1632Y541D01*
X1630Y541D01*
X1630Y545D01*
X1628Y545D01*
X1628Y549D01*
X1626Y549D01*
X1626Y553D01*
X1624Y553D01*
X1624Y555D01*
X852Y555D01*
G37*
D02*
G36*
X756Y533D02*
X756Y531D01*
X758Y531D01*
X758Y527D01*
X760Y527D01*
X760Y525D01*
X762Y525D01*
X762Y521D01*
X794Y521D01*
X794Y523D01*
X788Y523D01*
X788Y525D01*
X784Y525D01*
X784Y527D01*
X780Y527D01*
X780Y529D01*
X778Y529D01*
X778Y531D01*
X776Y531D01*
X776Y533D01*
X756Y533D01*
G37*
D02*
G36*
X764Y521D02*
X764Y519D01*
X1642Y519D01*
X1642Y521D01*
X764Y521D01*
G37*
D02*
G36*
X764Y521D02*
X764Y519D01*
X1642Y519D01*
X1642Y521D01*
X764Y521D01*
G37*
D02*
G36*
X764Y519D02*
X764Y517D01*
X766Y517D01*
X766Y509D01*
X768Y509D01*
X768Y491D01*
X766Y491D01*
X766Y483D01*
X764Y483D01*
X764Y479D01*
X762Y479D01*
X762Y475D01*
X760Y475D01*
X760Y473D01*
X758Y473D01*
X758Y469D01*
X756Y469D01*
X756Y467D01*
X754Y467D01*
X754Y465D01*
X752Y465D01*
X752Y463D01*
X748Y463D01*
X748Y461D01*
X746Y461D01*
X746Y459D01*
X742Y459D01*
X742Y457D01*
X738Y457D01*
X738Y455D01*
X732Y455D01*
X732Y453D01*
X1674Y453D01*
X1674Y455D01*
X1672Y455D01*
X1672Y459D01*
X1670Y459D01*
X1670Y463D01*
X1668Y463D01*
X1668Y467D01*
X1666Y467D01*
X1666Y471D01*
X1664Y471D01*
X1664Y475D01*
X1662Y475D01*
X1662Y481D01*
X1660Y481D01*
X1660Y485D01*
X1658Y485D01*
X1658Y489D01*
X1656Y489D01*
X1656Y493D01*
X1654Y493D01*
X1654Y497D01*
X1652Y497D01*
X1652Y501D01*
X1650Y501D01*
X1650Y505D01*
X1648Y505D01*
X1648Y509D01*
X1646Y509D01*
X1646Y513D01*
X1644Y513D01*
X1644Y517D01*
X1642Y517D01*
X1642Y519D01*
X764Y519D01*
G37*
D02*
G36*
X626Y453D02*
X626Y451D01*
X1674Y451D01*
X1674Y453D01*
X626Y453D01*
G37*
D02*
G36*
X626Y453D02*
X626Y451D01*
X1674Y451D01*
X1674Y453D01*
X626Y453D01*
G37*
D02*
G36*
X626Y451D02*
X626Y433D01*
X628Y433D01*
X628Y431D01*
X630Y431D01*
X630Y429D01*
X634Y429D01*
X634Y425D01*
X636Y425D01*
X636Y423D01*
X638Y423D01*
X638Y421D01*
X640Y421D01*
X640Y417D01*
X642Y417D01*
X642Y413D01*
X644Y413D01*
X644Y405D01*
X646Y405D01*
X646Y385D01*
X644Y385D01*
X644Y377D01*
X642Y377D01*
X642Y373D01*
X640Y373D01*
X640Y369D01*
X638Y369D01*
X638Y367D01*
X636Y367D01*
X636Y365D01*
X634Y365D01*
X634Y361D01*
X630Y361D01*
X630Y359D01*
X628Y359D01*
X628Y357D01*
X626Y357D01*
X626Y355D01*
X622Y355D01*
X622Y351D01*
X1636Y351D01*
X1636Y349D01*
X1642Y349D01*
X1642Y347D01*
X1646Y347D01*
X1646Y345D01*
X1650Y345D01*
X1650Y343D01*
X1652Y343D01*
X1652Y341D01*
X1656Y341D01*
X1656Y339D01*
X1658Y339D01*
X1658Y337D01*
X1660Y337D01*
X1660Y335D01*
X1662Y335D01*
X1662Y331D01*
X1664Y331D01*
X1664Y329D01*
X1684Y329D01*
X1684Y331D01*
X1686Y331D01*
X1686Y333D01*
X1688Y333D01*
X1688Y335D01*
X1690Y335D01*
X1690Y337D01*
X1692Y337D01*
X1692Y339D01*
X1694Y339D01*
X1694Y341D01*
X1696Y341D01*
X1696Y343D01*
X1700Y343D01*
X1700Y345D01*
X1702Y345D01*
X1702Y347D01*
X1706Y347D01*
X1706Y349D01*
X1714Y349D01*
X1714Y375D01*
X1712Y375D01*
X1712Y379D01*
X1710Y379D01*
X1710Y383D01*
X1708Y383D01*
X1708Y387D01*
X1706Y387D01*
X1706Y391D01*
X1704Y391D01*
X1704Y395D01*
X1702Y395D01*
X1702Y399D01*
X1700Y399D01*
X1700Y403D01*
X1698Y403D01*
X1698Y407D01*
X1696Y407D01*
X1696Y411D01*
X1694Y411D01*
X1694Y415D01*
X1692Y415D01*
X1692Y419D01*
X1690Y419D01*
X1690Y423D01*
X1688Y423D01*
X1688Y427D01*
X1686Y427D01*
X1686Y431D01*
X1684Y431D01*
X1684Y435D01*
X1682Y435D01*
X1682Y439D01*
X1680Y439D01*
X1680Y443D01*
X1678Y443D01*
X1678Y447D01*
X1676Y447D01*
X1676Y451D01*
X626Y451D01*
G37*
D02*
G36*
X622Y351D02*
X622Y335D01*
X626Y335D01*
X626Y333D01*
X628Y333D01*
X628Y331D01*
X630Y331D01*
X630Y329D01*
X634Y329D01*
X634Y325D01*
X636Y325D01*
X636Y323D01*
X638Y323D01*
X638Y321D01*
X640Y321D01*
X640Y317D01*
X642Y317D01*
X642Y313D01*
X644Y313D01*
X644Y305D01*
X646Y305D01*
X646Y285D01*
X644Y285D01*
X644Y277D01*
X642Y277D01*
X642Y273D01*
X640Y273D01*
X640Y269D01*
X638Y269D01*
X638Y267D01*
X636Y267D01*
X636Y265D01*
X634Y265D01*
X634Y261D01*
X630Y261D01*
X630Y259D01*
X628Y259D01*
X628Y257D01*
X914Y257D01*
X914Y259D01*
X908Y259D01*
X908Y261D01*
X904Y261D01*
X904Y263D01*
X900Y263D01*
X900Y265D01*
X896Y265D01*
X896Y267D01*
X894Y267D01*
X894Y269D01*
X892Y269D01*
X892Y271D01*
X890Y271D01*
X890Y273D01*
X888Y273D01*
X888Y275D01*
X886Y275D01*
X886Y279D01*
X884Y279D01*
X884Y281D01*
X882Y281D01*
X882Y285D01*
X880Y285D01*
X880Y291D01*
X878Y291D01*
X878Y317D01*
X880Y317D01*
X880Y323D01*
X882Y323D01*
X882Y327D01*
X884Y327D01*
X884Y331D01*
X886Y331D01*
X886Y333D01*
X888Y333D01*
X888Y335D01*
X890Y335D01*
X890Y337D01*
X892Y337D01*
X892Y339D01*
X894Y339D01*
X894Y341D01*
X896Y341D01*
X896Y343D01*
X900Y343D01*
X900Y345D01*
X902Y345D01*
X902Y347D01*
X906Y347D01*
X906Y349D01*
X914Y349D01*
X914Y351D01*
X622Y351D01*
G37*
D02*
G36*
X936Y351D02*
X936Y349D01*
X942Y349D01*
X942Y347D01*
X946Y347D01*
X946Y345D01*
X950Y345D01*
X950Y343D01*
X952Y343D01*
X952Y341D01*
X956Y341D01*
X956Y339D01*
X958Y339D01*
X958Y337D01*
X960Y337D01*
X960Y335D01*
X962Y335D01*
X962Y331D01*
X964Y331D01*
X964Y329D01*
X984Y329D01*
X984Y331D01*
X986Y331D01*
X986Y333D01*
X988Y333D01*
X988Y335D01*
X990Y335D01*
X990Y337D01*
X992Y337D01*
X992Y339D01*
X994Y339D01*
X994Y341D01*
X996Y341D01*
X996Y343D01*
X1000Y343D01*
X1000Y345D01*
X1002Y345D01*
X1002Y347D01*
X1006Y347D01*
X1006Y349D01*
X1014Y349D01*
X1014Y351D01*
X936Y351D01*
G37*
D02*
G36*
X1036Y351D02*
X1036Y349D01*
X1042Y349D01*
X1042Y347D01*
X1046Y347D01*
X1046Y345D01*
X1050Y345D01*
X1050Y343D01*
X1052Y343D01*
X1052Y341D01*
X1056Y341D01*
X1056Y339D01*
X1058Y339D01*
X1058Y337D01*
X1060Y337D01*
X1060Y335D01*
X1062Y335D01*
X1062Y331D01*
X1064Y331D01*
X1064Y329D01*
X1084Y329D01*
X1084Y331D01*
X1086Y331D01*
X1086Y333D01*
X1088Y333D01*
X1088Y335D01*
X1090Y335D01*
X1090Y337D01*
X1092Y337D01*
X1092Y339D01*
X1094Y339D01*
X1094Y341D01*
X1096Y341D01*
X1096Y343D01*
X1100Y343D01*
X1100Y345D01*
X1102Y345D01*
X1102Y347D01*
X1106Y347D01*
X1106Y349D01*
X1114Y349D01*
X1114Y351D01*
X1036Y351D01*
G37*
D02*
G36*
X1136Y351D02*
X1136Y349D01*
X1142Y349D01*
X1142Y347D01*
X1146Y347D01*
X1146Y345D01*
X1150Y345D01*
X1150Y343D01*
X1152Y343D01*
X1152Y341D01*
X1156Y341D01*
X1156Y339D01*
X1158Y339D01*
X1158Y337D01*
X1160Y337D01*
X1160Y335D01*
X1162Y335D01*
X1162Y331D01*
X1164Y331D01*
X1164Y329D01*
X1184Y329D01*
X1184Y331D01*
X1186Y331D01*
X1186Y333D01*
X1188Y333D01*
X1188Y335D01*
X1190Y335D01*
X1190Y337D01*
X1192Y337D01*
X1192Y339D01*
X1194Y339D01*
X1194Y341D01*
X1196Y341D01*
X1196Y343D01*
X1200Y343D01*
X1200Y345D01*
X1202Y345D01*
X1202Y347D01*
X1206Y347D01*
X1206Y349D01*
X1214Y349D01*
X1214Y351D01*
X1136Y351D01*
G37*
D02*
G36*
X1236Y351D02*
X1236Y349D01*
X1242Y349D01*
X1242Y347D01*
X1246Y347D01*
X1246Y345D01*
X1250Y345D01*
X1250Y343D01*
X1252Y343D01*
X1252Y341D01*
X1256Y341D01*
X1256Y339D01*
X1258Y339D01*
X1258Y337D01*
X1260Y337D01*
X1260Y335D01*
X1262Y335D01*
X1262Y331D01*
X1264Y331D01*
X1264Y329D01*
X1284Y329D01*
X1284Y331D01*
X1286Y331D01*
X1286Y333D01*
X1288Y333D01*
X1288Y335D01*
X1290Y335D01*
X1290Y337D01*
X1292Y337D01*
X1292Y339D01*
X1294Y339D01*
X1294Y341D01*
X1296Y341D01*
X1296Y343D01*
X1300Y343D01*
X1300Y345D01*
X1302Y345D01*
X1302Y347D01*
X1306Y347D01*
X1306Y349D01*
X1314Y349D01*
X1314Y351D01*
X1236Y351D01*
G37*
D02*
G36*
X1336Y351D02*
X1336Y349D01*
X1342Y349D01*
X1342Y347D01*
X1346Y347D01*
X1346Y345D01*
X1350Y345D01*
X1350Y343D01*
X1352Y343D01*
X1352Y341D01*
X1356Y341D01*
X1356Y339D01*
X1358Y339D01*
X1358Y337D01*
X1360Y337D01*
X1360Y335D01*
X1362Y335D01*
X1362Y331D01*
X1364Y331D01*
X1364Y329D01*
X1384Y329D01*
X1384Y331D01*
X1386Y331D01*
X1386Y333D01*
X1388Y333D01*
X1388Y335D01*
X1390Y335D01*
X1390Y337D01*
X1392Y337D01*
X1392Y339D01*
X1394Y339D01*
X1394Y341D01*
X1396Y341D01*
X1396Y343D01*
X1400Y343D01*
X1400Y345D01*
X1402Y345D01*
X1402Y347D01*
X1406Y347D01*
X1406Y349D01*
X1414Y349D01*
X1414Y351D01*
X1336Y351D01*
G37*
D02*
G36*
X1436Y351D02*
X1436Y349D01*
X1442Y349D01*
X1442Y347D01*
X1446Y347D01*
X1446Y345D01*
X1450Y345D01*
X1450Y343D01*
X1452Y343D01*
X1452Y341D01*
X1456Y341D01*
X1456Y339D01*
X1458Y339D01*
X1458Y337D01*
X1460Y337D01*
X1460Y335D01*
X1462Y335D01*
X1462Y331D01*
X1464Y331D01*
X1464Y329D01*
X1484Y329D01*
X1484Y331D01*
X1486Y331D01*
X1486Y333D01*
X1488Y333D01*
X1488Y335D01*
X1490Y335D01*
X1490Y337D01*
X1492Y337D01*
X1492Y339D01*
X1494Y339D01*
X1494Y341D01*
X1496Y341D01*
X1496Y343D01*
X1500Y343D01*
X1500Y345D01*
X1502Y345D01*
X1502Y347D01*
X1506Y347D01*
X1506Y349D01*
X1514Y349D01*
X1514Y351D01*
X1436Y351D01*
G37*
D02*
G36*
X1536Y351D02*
X1536Y349D01*
X1542Y349D01*
X1542Y347D01*
X1546Y347D01*
X1546Y345D01*
X1550Y345D01*
X1550Y343D01*
X1552Y343D01*
X1552Y341D01*
X1556Y341D01*
X1556Y339D01*
X1558Y339D01*
X1558Y337D01*
X1560Y337D01*
X1560Y335D01*
X1562Y335D01*
X1562Y331D01*
X1564Y331D01*
X1564Y329D01*
X1584Y329D01*
X1584Y331D01*
X1586Y331D01*
X1586Y333D01*
X1588Y333D01*
X1588Y335D01*
X1590Y335D01*
X1590Y337D01*
X1592Y337D01*
X1592Y339D01*
X1594Y339D01*
X1594Y341D01*
X1596Y341D01*
X1596Y343D01*
X1600Y343D01*
X1600Y345D01*
X1602Y345D01*
X1602Y347D01*
X1606Y347D01*
X1606Y349D01*
X1614Y349D01*
X1614Y351D01*
X1536Y351D01*
G37*
D02*
G36*
X964Y279D02*
X964Y277D01*
X962Y277D01*
X962Y275D01*
X960Y275D01*
X960Y271D01*
X958Y271D01*
X958Y269D01*
X956Y269D01*
X956Y267D01*
X952Y267D01*
X952Y265D01*
X950Y265D01*
X950Y263D01*
X946Y263D01*
X946Y261D01*
X942Y261D01*
X942Y259D01*
X936Y259D01*
X936Y257D01*
X1008Y257D01*
X1008Y261D01*
X1004Y261D01*
X1004Y263D01*
X1000Y263D01*
X1000Y265D01*
X996Y265D01*
X996Y267D01*
X994Y267D01*
X994Y269D01*
X992Y269D01*
X992Y271D01*
X990Y271D01*
X990Y273D01*
X988Y273D01*
X988Y275D01*
X986Y275D01*
X986Y279D01*
X964Y279D01*
G37*
D02*
G36*
X626Y257D02*
X626Y255D01*
X1008Y255D01*
X1008Y257D01*
X626Y257D01*
G37*
D02*
G36*
X626Y257D02*
X626Y255D01*
X1008Y255D01*
X1008Y257D01*
X626Y257D01*
G37*
D02*
G36*
X622Y255D02*
X622Y235D01*
X626Y235D01*
X626Y233D01*
X628Y233D01*
X628Y231D01*
X630Y231D01*
X630Y229D01*
X634Y229D01*
X634Y225D01*
X636Y225D01*
X636Y223D01*
X638Y223D01*
X638Y221D01*
X640Y221D01*
X640Y217D01*
X642Y217D01*
X642Y215D01*
X816Y215D01*
X816Y213D01*
X822Y213D01*
X822Y211D01*
X828Y211D01*
X828Y209D01*
X830Y209D01*
X830Y207D01*
X834Y207D01*
X834Y205D01*
X836Y205D01*
X836Y203D01*
X860Y203D01*
X860Y205D01*
X868Y205D01*
X868Y207D01*
X876Y207D01*
X876Y209D01*
X884Y209D01*
X884Y211D01*
X892Y211D01*
X892Y213D01*
X900Y213D01*
X900Y215D01*
X908Y215D01*
X908Y217D01*
X916Y217D01*
X916Y219D01*
X924Y219D01*
X924Y221D01*
X932Y221D01*
X932Y223D01*
X940Y223D01*
X940Y225D01*
X948Y225D01*
X948Y227D01*
X956Y227D01*
X956Y229D01*
X964Y229D01*
X964Y231D01*
X972Y231D01*
X972Y233D01*
X980Y233D01*
X980Y235D01*
X988Y235D01*
X988Y237D01*
X996Y237D01*
X996Y239D01*
X1004Y239D01*
X1004Y241D01*
X1008Y241D01*
X1008Y255D01*
X622Y255D01*
G37*
D02*
G36*
X642Y215D02*
X642Y213D01*
X644Y213D01*
X644Y205D01*
X646Y205D01*
X646Y199D01*
X772Y199D01*
X772Y201D01*
X774Y201D01*
X774Y203D01*
X776Y203D01*
X776Y205D01*
X778Y205D01*
X778Y207D01*
X782Y207D01*
X782Y209D01*
X784Y209D01*
X784Y211D01*
X790Y211D01*
X790Y213D01*
X796Y213D01*
X796Y215D01*
X642Y215D01*
G37*
D02*
G36*
X1682Y557D02*
X1682Y535D01*
X1684Y535D01*
X1684Y531D01*
X1686Y531D01*
X1686Y527D01*
X1688Y527D01*
X1688Y523D01*
X1690Y523D01*
X1690Y519D01*
X1692Y519D01*
X1692Y515D01*
X1694Y515D01*
X1694Y511D01*
X1696Y511D01*
X1696Y507D01*
X1698Y507D01*
X1698Y503D01*
X1700Y503D01*
X1700Y499D01*
X1702Y499D01*
X1702Y495D01*
X1704Y495D01*
X1704Y491D01*
X1706Y491D01*
X1706Y487D01*
X1708Y487D01*
X1708Y483D01*
X1710Y483D01*
X1710Y479D01*
X1712Y479D01*
X1712Y473D01*
X1714Y473D01*
X1714Y469D01*
X1716Y469D01*
X1716Y465D01*
X1718Y465D01*
X1718Y461D01*
X1720Y461D01*
X1720Y457D01*
X1722Y457D01*
X1722Y453D01*
X1724Y453D01*
X1724Y449D01*
X1726Y449D01*
X1726Y445D01*
X1728Y445D01*
X1728Y441D01*
X1730Y441D01*
X1730Y437D01*
X1732Y437D01*
X1732Y433D01*
X1734Y433D01*
X1734Y429D01*
X1736Y429D01*
X1736Y425D01*
X1738Y425D01*
X1738Y421D01*
X1740Y421D01*
X1740Y417D01*
X1742Y417D01*
X1742Y413D01*
X1744Y413D01*
X1744Y409D01*
X1746Y409D01*
X1746Y405D01*
X1748Y405D01*
X1748Y401D01*
X1750Y401D01*
X1750Y397D01*
X1752Y397D01*
X1752Y393D01*
X1754Y393D01*
X1754Y389D01*
X1774Y389D01*
X1774Y401D01*
X1772Y401D01*
X1772Y403D01*
X1770Y403D01*
X1770Y407D01*
X1768Y407D01*
X1768Y411D01*
X1766Y411D01*
X1766Y551D01*
X1762Y551D01*
X1762Y553D01*
X1760Y553D01*
X1760Y555D01*
X1756Y555D01*
X1756Y557D01*
X1682Y557D01*
G37*
D02*
G36*
X1902Y489D02*
X1902Y481D01*
X1900Y481D01*
X1900Y473D01*
X1898Y473D01*
X1898Y467D01*
X1896Y467D01*
X1896Y463D01*
X1894Y463D01*
X1894Y461D01*
X1892Y461D01*
X1892Y457D01*
X1890Y457D01*
X1890Y455D01*
X1888Y455D01*
X1888Y453D01*
X1886Y453D01*
X1886Y451D01*
X1882Y451D01*
X1882Y431D01*
X1884Y431D01*
X1884Y429D01*
X1904Y429D01*
X1904Y427D01*
X1928Y427D01*
X1928Y429D01*
X1930Y429D01*
X1930Y431D01*
X1932Y431D01*
X1932Y433D01*
X1934Y433D01*
X1934Y435D01*
X1936Y435D01*
X1936Y437D01*
X1938Y437D01*
X1938Y439D01*
X1942Y439D01*
X1942Y459D01*
X1940Y459D01*
X1940Y461D01*
X1938Y461D01*
X1938Y463D01*
X1936Y463D01*
X1936Y465D01*
X1934Y465D01*
X1934Y467D01*
X1932Y467D01*
X1932Y469D01*
X1930Y469D01*
X1930Y471D01*
X1928Y471D01*
X1928Y475D01*
X1926Y475D01*
X1926Y477D01*
X1924Y477D01*
X1924Y483D01*
X1922Y483D01*
X1922Y489D01*
X1902Y489D01*
G37*
D02*
G36*
X1800Y391D02*
X1800Y373D01*
X1806Y373D01*
X1806Y371D01*
X1812Y371D01*
X1812Y369D01*
X1820Y369D01*
X1820Y367D01*
X1826Y367D01*
X1826Y365D01*
X1832Y365D01*
X1832Y363D01*
X1838Y363D01*
X1838Y361D01*
X1846Y361D01*
X1846Y359D01*
X1852Y359D01*
X1852Y357D01*
X1858Y357D01*
X1858Y355D01*
X1866Y355D01*
X1866Y353D01*
X1872Y353D01*
X1872Y351D01*
X1878Y351D01*
X1878Y349D01*
X1886Y349D01*
X1886Y347D01*
X1892Y347D01*
X1892Y345D01*
X1898Y345D01*
X1898Y343D01*
X1904Y343D01*
X1904Y341D01*
X1912Y341D01*
X1912Y339D01*
X1918Y339D01*
X1918Y337D01*
X1938Y337D01*
X1938Y339D01*
X1942Y339D01*
X1942Y359D01*
X1940Y359D01*
X1940Y361D01*
X1938Y361D01*
X1938Y363D01*
X1936Y363D01*
X1936Y365D01*
X1934Y365D01*
X1934Y367D01*
X1932Y367D01*
X1932Y369D01*
X1930Y369D01*
X1930Y371D01*
X1928Y371D01*
X1928Y375D01*
X1926Y375D01*
X1926Y377D01*
X1924Y377D01*
X1924Y381D01*
X1922Y381D01*
X1922Y383D01*
X1902Y383D01*
X1902Y385D01*
X1880Y385D01*
X1880Y387D01*
X1860Y387D01*
X1860Y389D01*
X1840Y389D01*
X1840Y391D01*
X1800Y391D01*
G37*
D02*
G36*
X1770Y331D02*
X1770Y313D01*
X1772Y313D01*
X1772Y295D01*
X1770Y295D01*
X1770Y287D01*
X1768Y287D01*
X1768Y283D01*
X1766Y283D01*
X1766Y263D01*
X1850Y263D01*
X1850Y261D01*
X1856Y261D01*
X1856Y259D01*
X1862Y259D01*
X1862Y257D01*
X1868Y257D01*
X1868Y255D01*
X1874Y255D01*
X1874Y253D01*
X1880Y253D01*
X1880Y251D01*
X1886Y251D01*
X1886Y249D01*
X1892Y249D01*
X1892Y247D01*
X1898Y247D01*
X1898Y245D01*
X1904Y245D01*
X1904Y243D01*
X1910Y243D01*
X1910Y241D01*
X1916Y241D01*
X1916Y239D01*
X1942Y239D01*
X1942Y259D01*
X1940Y259D01*
X1940Y261D01*
X1938Y261D01*
X1938Y263D01*
X1936Y263D01*
X1936Y265D01*
X1934Y265D01*
X1934Y267D01*
X1932Y267D01*
X1932Y269D01*
X1930Y269D01*
X1930Y271D01*
X1928Y271D01*
X1928Y275D01*
X1926Y275D01*
X1926Y277D01*
X1924Y277D01*
X1924Y283D01*
X1922Y283D01*
X1922Y289D01*
X1920Y289D01*
X1920Y291D01*
X1918Y291D01*
X1918Y293D01*
X1912Y293D01*
X1912Y295D01*
X1904Y295D01*
X1904Y297D01*
X1898Y297D01*
X1898Y299D01*
X1892Y299D01*
X1892Y301D01*
X1886Y301D01*
X1886Y303D01*
X1878Y303D01*
X1878Y305D01*
X1872Y305D01*
X1872Y307D01*
X1866Y307D01*
X1866Y309D01*
X1858Y309D01*
X1858Y311D01*
X1852Y311D01*
X1852Y313D01*
X1846Y313D01*
X1846Y315D01*
X1838Y315D01*
X1838Y317D01*
X1832Y317D01*
X1832Y319D01*
X1826Y319D01*
X1826Y321D01*
X1820Y321D01*
X1820Y323D01*
X1812Y323D01*
X1812Y325D01*
X1806Y325D01*
X1806Y327D01*
X1800Y327D01*
X1800Y329D01*
X1792Y329D01*
X1792Y331D01*
X1770Y331D01*
G37*
D02*
G36*
X622Y155D02*
X622Y135D01*
X626Y135D01*
X626Y133D01*
X628Y133D01*
X628Y131D01*
X630Y131D01*
X630Y129D01*
X634Y129D01*
X634Y125D01*
X636Y125D01*
X636Y123D01*
X638Y123D01*
X638Y121D01*
X640Y121D01*
X640Y117D01*
X642Y117D01*
X642Y113D01*
X644Y113D01*
X644Y105D01*
X646Y105D01*
X646Y85D01*
X644Y85D01*
X644Y77D01*
X642Y77D01*
X642Y73D01*
X640Y73D01*
X640Y69D01*
X638Y69D01*
X638Y67D01*
X636Y67D01*
X636Y65D01*
X634Y65D01*
X634Y61D01*
X630Y61D01*
X630Y41D01*
X696Y41D01*
X696Y61D01*
X692Y61D01*
X692Y63D01*
X690Y63D01*
X690Y65D01*
X688Y65D01*
X688Y67D01*
X686Y67D01*
X686Y69D01*
X684Y69D01*
X684Y71D01*
X682Y71D01*
X682Y75D01*
X680Y75D01*
X680Y77D01*
X678Y77D01*
X678Y81D01*
X676Y81D01*
X676Y87D01*
X674Y87D01*
X674Y113D01*
X676Y113D01*
X676Y119D01*
X678Y119D01*
X678Y123D01*
X680Y123D01*
X680Y125D01*
X682Y125D01*
X682Y129D01*
X684Y129D01*
X684Y131D01*
X686Y131D01*
X686Y133D01*
X688Y133D01*
X688Y135D01*
X690Y135D01*
X690Y155D01*
X622Y155D01*
G37*
D02*
G36*
X164Y641D02*
X164Y639D01*
X162Y639D01*
X162Y637D01*
X160Y637D01*
X160Y635D01*
X158Y635D01*
X158Y633D01*
X156Y633D01*
X156Y631D01*
X154Y631D01*
X154Y629D01*
X152Y629D01*
X152Y627D01*
X150Y627D01*
X150Y625D01*
X148Y625D01*
X148Y623D01*
X146Y623D01*
X146Y621D01*
X142Y621D01*
X142Y619D01*
X140Y619D01*
X140Y617D01*
X138Y617D01*
X138Y615D01*
X136Y615D01*
X136Y613D01*
X134Y613D01*
X134Y611D01*
X132Y611D01*
X132Y609D01*
X130Y609D01*
X130Y607D01*
X128Y607D01*
X128Y605D01*
X126Y605D01*
X126Y603D01*
X124Y603D01*
X124Y601D01*
X122Y601D01*
X122Y599D01*
X118Y599D01*
X118Y597D01*
X236Y597D01*
X236Y595D01*
X242Y595D01*
X242Y593D01*
X246Y593D01*
X246Y591D01*
X250Y591D01*
X250Y589D01*
X254Y589D01*
X254Y587D01*
X256Y587D01*
X256Y585D01*
X260Y585D01*
X260Y583D01*
X262Y583D01*
X262Y581D01*
X264Y581D01*
X264Y579D01*
X266Y579D01*
X266Y577D01*
X268Y577D01*
X268Y575D01*
X270Y575D01*
X270Y571D01*
X272Y571D01*
X272Y569D01*
X274Y569D01*
X274Y565D01*
X276Y565D01*
X276Y561D01*
X278Y561D01*
X278Y557D01*
X280Y557D01*
X280Y551D01*
X282Y551D01*
X282Y537D01*
X284Y537D01*
X284Y533D01*
X282Y533D01*
X282Y519D01*
X280Y519D01*
X280Y513D01*
X278Y513D01*
X278Y509D01*
X276Y509D01*
X276Y505D01*
X274Y505D01*
X274Y501D01*
X272Y501D01*
X272Y497D01*
X270Y497D01*
X270Y495D01*
X268Y495D01*
X268Y493D01*
X266Y493D01*
X266Y491D01*
X264Y491D01*
X264Y489D01*
X262Y489D01*
X262Y487D01*
X260Y487D01*
X260Y485D01*
X258Y485D01*
X258Y483D01*
X254Y483D01*
X254Y481D01*
X250Y481D01*
X250Y479D01*
X246Y479D01*
X246Y477D01*
X242Y477D01*
X242Y475D01*
X236Y475D01*
X236Y473D01*
X224Y473D01*
X224Y471D01*
X374Y471D01*
X374Y541D01*
X370Y541D01*
X370Y543D01*
X368Y543D01*
X368Y545D01*
X366Y545D01*
X366Y547D01*
X364Y547D01*
X364Y549D01*
X362Y549D01*
X362Y551D01*
X360Y551D01*
X360Y553D01*
X358Y553D01*
X358Y557D01*
X356Y557D01*
X356Y559D01*
X354Y559D01*
X354Y565D01*
X352Y565D01*
X352Y571D01*
X350Y571D01*
X350Y589D01*
X352Y589D01*
X352Y597D01*
X354Y597D01*
X354Y601D01*
X356Y601D01*
X356Y605D01*
X358Y605D01*
X358Y607D01*
X360Y607D01*
X360Y611D01*
X362Y611D01*
X362Y613D01*
X364Y613D01*
X364Y615D01*
X366Y615D01*
X366Y617D01*
X370Y617D01*
X370Y619D01*
X372Y619D01*
X372Y639D01*
X318Y639D01*
X318Y641D01*
X164Y641D01*
G37*
D02*
G36*
X116Y597D02*
X116Y571D01*
X114Y571D01*
X114Y565D01*
X112Y565D01*
X112Y561D01*
X110Y561D01*
X110Y557D01*
X108Y557D01*
X108Y555D01*
X106Y555D01*
X106Y551D01*
X104Y551D01*
X104Y549D01*
X102Y549D01*
X102Y547D01*
X100Y547D01*
X100Y545D01*
X96Y545D01*
X96Y543D01*
X94Y543D01*
X94Y541D01*
X90Y541D01*
X90Y539D01*
X86Y539D01*
X86Y537D01*
X78Y537D01*
X78Y535D01*
X156Y535D01*
X156Y539D01*
X158Y539D01*
X158Y551D01*
X160Y551D01*
X160Y557D01*
X162Y557D01*
X162Y561D01*
X164Y561D01*
X164Y565D01*
X166Y565D01*
X166Y569D01*
X168Y569D01*
X168Y573D01*
X170Y573D01*
X170Y575D01*
X172Y575D01*
X172Y577D01*
X174Y577D01*
X174Y579D01*
X176Y579D01*
X176Y581D01*
X178Y581D01*
X178Y583D01*
X180Y583D01*
X180Y585D01*
X184Y585D01*
X184Y587D01*
X186Y587D01*
X186Y589D01*
X190Y589D01*
X190Y591D01*
X194Y591D01*
X194Y593D01*
X198Y593D01*
X198Y595D01*
X204Y595D01*
X204Y597D01*
X116Y597D01*
G37*
D02*
G36*
X40Y537D02*
X40Y535D01*
X60Y535D01*
X60Y537D01*
X40Y537D01*
G37*
D02*
G36*
X40Y535D02*
X40Y533D01*
X156Y533D01*
X156Y535D01*
X40Y535D01*
G37*
D02*
G36*
X40Y535D02*
X40Y533D01*
X156Y533D01*
X156Y535D01*
X40Y535D01*
G37*
D02*
G36*
X40Y533D02*
X40Y471D01*
X216Y471D01*
X216Y473D01*
X204Y473D01*
X204Y475D01*
X198Y475D01*
X198Y477D01*
X194Y477D01*
X194Y479D01*
X190Y479D01*
X190Y481D01*
X186Y481D01*
X186Y483D01*
X182Y483D01*
X182Y485D01*
X180Y485D01*
X180Y487D01*
X178Y487D01*
X178Y489D01*
X176Y489D01*
X176Y491D01*
X174Y491D01*
X174Y493D01*
X172Y493D01*
X172Y495D01*
X170Y495D01*
X170Y497D01*
X168Y497D01*
X168Y501D01*
X166Y501D01*
X166Y505D01*
X164Y505D01*
X164Y509D01*
X162Y509D01*
X162Y513D01*
X160Y513D01*
X160Y519D01*
X158Y519D01*
X158Y531D01*
X156Y531D01*
X156Y533D01*
X40Y533D01*
G37*
D02*
G36*
X40Y471D02*
X40Y469D01*
X374Y469D01*
X374Y471D01*
X40Y471D01*
G37*
D02*
G36*
X40Y471D02*
X40Y469D01*
X374Y469D01*
X374Y471D01*
X40Y471D01*
G37*
D02*
G36*
X40Y469D02*
X40Y443D01*
X346Y443D01*
X346Y347D01*
X334Y347D01*
X334Y325D01*
X336Y325D01*
X336Y323D01*
X338Y323D01*
X338Y321D01*
X340Y321D01*
X340Y317D01*
X342Y317D01*
X342Y313D01*
X344Y313D01*
X344Y305D01*
X346Y305D01*
X346Y285D01*
X344Y285D01*
X344Y277D01*
X342Y277D01*
X342Y273D01*
X340Y273D01*
X340Y269D01*
X338Y269D01*
X338Y267D01*
X336Y267D01*
X336Y265D01*
X334Y265D01*
X334Y261D01*
X330Y261D01*
X330Y259D01*
X328Y259D01*
X328Y257D01*
X326Y257D01*
X326Y249D01*
X348Y249D01*
X348Y251D01*
X352Y251D01*
X352Y253D01*
X354Y253D01*
X354Y255D01*
X358Y255D01*
X358Y257D01*
X362Y257D01*
X362Y259D01*
X364Y259D01*
X364Y261D01*
X368Y261D01*
X368Y263D01*
X372Y263D01*
X372Y265D01*
X374Y265D01*
X374Y469D01*
X40Y469D01*
G37*
D02*
G36*
X40Y443D02*
X40Y435D01*
X224Y435D01*
X224Y333D01*
X194Y333D01*
X194Y235D01*
X192Y235D01*
X192Y229D01*
X190Y229D01*
X190Y225D01*
X188Y225D01*
X188Y223D01*
X186Y223D01*
X186Y221D01*
X184Y221D01*
X184Y219D01*
X180Y219D01*
X180Y217D01*
X178Y217D01*
X178Y215D01*
X174Y215D01*
X174Y213D01*
X170Y213D01*
X170Y211D01*
X166Y211D01*
X166Y209D01*
X162Y209D01*
X162Y207D01*
X158Y207D01*
X158Y205D01*
X156Y205D01*
X156Y203D01*
X152Y203D01*
X152Y201D01*
X148Y201D01*
X148Y199D01*
X144Y199D01*
X144Y197D01*
X140Y197D01*
X140Y195D01*
X136Y195D01*
X136Y193D01*
X132Y193D01*
X132Y191D01*
X130Y191D01*
X130Y189D01*
X126Y189D01*
X126Y187D01*
X122Y187D01*
X122Y185D01*
X118Y185D01*
X118Y183D01*
X116Y183D01*
X116Y171D01*
X114Y171D01*
X114Y165D01*
X112Y165D01*
X112Y161D01*
X110Y161D01*
X110Y157D01*
X108Y157D01*
X108Y155D01*
X106Y155D01*
X106Y151D01*
X104Y151D01*
X104Y149D01*
X102Y149D01*
X102Y147D01*
X100Y147D01*
X100Y145D01*
X96Y145D01*
X96Y143D01*
X94Y143D01*
X94Y141D01*
X90Y141D01*
X90Y139D01*
X86Y139D01*
X86Y137D01*
X78Y137D01*
X78Y135D01*
X198Y135D01*
X198Y137D01*
X200Y137D01*
X200Y139D01*
X202Y139D01*
X202Y141D01*
X206Y141D01*
X206Y143D01*
X208Y143D01*
X208Y145D01*
X210Y145D01*
X210Y147D01*
X212Y147D01*
X212Y149D01*
X214Y149D01*
X214Y151D01*
X216Y151D01*
X216Y153D01*
X218Y153D01*
X218Y155D01*
X222Y155D01*
X222Y157D01*
X224Y157D01*
X224Y159D01*
X226Y159D01*
X226Y161D01*
X228Y161D01*
X228Y163D01*
X230Y163D01*
X230Y165D01*
X232Y165D01*
X232Y167D01*
X234Y167D01*
X234Y169D01*
X238Y169D01*
X238Y171D01*
X240Y171D01*
X240Y173D01*
X242Y173D01*
X242Y175D01*
X244Y175D01*
X244Y177D01*
X246Y177D01*
X246Y179D01*
X248Y179D01*
X248Y181D01*
X250Y181D01*
X250Y183D01*
X252Y183D01*
X252Y207D01*
X254Y207D01*
X254Y213D01*
X256Y213D01*
X256Y217D01*
X258Y217D01*
X258Y221D01*
X260Y221D01*
X260Y223D01*
X262Y223D01*
X262Y225D01*
X264Y225D01*
X264Y229D01*
X268Y229D01*
X268Y231D01*
X270Y231D01*
X270Y233D01*
X272Y233D01*
X272Y235D01*
X276Y235D01*
X276Y255D01*
X272Y255D01*
X272Y257D01*
X270Y257D01*
X270Y259D01*
X268Y259D01*
X268Y261D01*
X264Y261D01*
X264Y265D01*
X262Y265D01*
X262Y267D01*
X260Y267D01*
X260Y269D01*
X258Y269D01*
X258Y273D01*
X256Y273D01*
X256Y277D01*
X254Y277D01*
X254Y283D01*
X252Y283D01*
X252Y307D01*
X254Y307D01*
X254Y313D01*
X256Y313D01*
X256Y317D01*
X258Y317D01*
X258Y321D01*
X260Y321D01*
X260Y323D01*
X262Y323D01*
X262Y325D01*
X264Y325D01*
X264Y347D01*
X252Y347D01*
X252Y443D01*
X40Y443D01*
G37*
D02*
G36*
X40Y435D02*
X40Y229D01*
X82Y229D01*
X82Y227D01*
X108Y227D01*
X108Y229D01*
X110Y229D01*
X110Y231D01*
X114Y231D01*
X114Y233D01*
X118Y233D01*
X118Y235D01*
X122Y235D01*
X122Y237D01*
X126Y237D01*
X126Y239D01*
X130Y239D01*
X130Y241D01*
X132Y241D01*
X132Y243D01*
X136Y243D01*
X136Y245D01*
X140Y245D01*
X140Y247D01*
X144Y247D01*
X144Y249D01*
X148Y249D01*
X148Y251D01*
X150Y251D01*
X150Y333D01*
X122Y333D01*
X122Y435D01*
X40Y435D01*
G37*
D02*
G36*
X40Y137D02*
X40Y135D01*
X60Y135D01*
X60Y137D01*
X40Y137D01*
G37*
D02*
G36*
X40Y135D02*
X40Y133D01*
X160Y133D01*
X160Y135D01*
X40Y135D01*
G37*
D02*
G36*
X40Y135D02*
X40Y133D01*
X160Y133D01*
X160Y135D01*
X40Y135D01*
G37*
D02*
G36*
X40Y133D02*
X40Y41D01*
X130Y41D01*
X130Y61D01*
X128Y61D01*
X128Y65D01*
X126Y65D01*
X126Y69D01*
X124Y69D01*
X124Y79D01*
X122Y79D01*
X122Y91D01*
X124Y91D01*
X124Y101D01*
X126Y101D01*
X126Y105D01*
X128Y105D01*
X128Y109D01*
X130Y109D01*
X130Y113D01*
X132Y113D01*
X132Y115D01*
X134Y115D01*
X134Y119D01*
X136Y119D01*
X136Y121D01*
X138Y121D01*
X138Y123D01*
X142Y123D01*
X142Y125D01*
X144Y125D01*
X144Y127D01*
X146Y127D01*
X146Y129D01*
X150Y129D01*
X150Y131D01*
X154Y131D01*
X154Y133D01*
X40Y133D01*
G37*
D02*
G36*
X1772Y219D02*
X1772Y217D01*
X1552Y217D01*
X1552Y215D01*
X1330Y215D01*
X1330Y213D01*
X1108Y213D01*
X1108Y211D01*
X1066Y211D01*
X1066Y209D01*
X1058Y209D01*
X1058Y207D01*
X1050Y207D01*
X1050Y205D01*
X1042Y205D01*
X1042Y203D01*
X1034Y203D01*
X1034Y201D01*
X1026Y201D01*
X1026Y199D01*
X1018Y199D01*
X1018Y197D01*
X1010Y197D01*
X1010Y195D01*
X1002Y195D01*
X1002Y193D01*
X994Y193D01*
X994Y191D01*
X986Y191D01*
X986Y189D01*
X978Y189D01*
X978Y187D01*
X970Y187D01*
X970Y185D01*
X962Y185D01*
X962Y183D01*
X954Y183D01*
X954Y181D01*
X946Y181D01*
X946Y179D01*
X938Y179D01*
X938Y177D01*
X930Y177D01*
X930Y175D01*
X922Y175D01*
X922Y173D01*
X914Y173D01*
X914Y171D01*
X906Y171D01*
X906Y169D01*
X898Y169D01*
X898Y167D01*
X890Y167D01*
X890Y165D01*
X1776Y165D01*
X1776Y163D01*
X1790Y163D01*
X1790Y161D01*
X1796Y161D01*
X1796Y159D01*
X1800Y159D01*
X1800Y157D01*
X1804Y157D01*
X1804Y155D01*
X1808Y155D01*
X1808Y153D01*
X1810Y153D01*
X1810Y151D01*
X1814Y151D01*
X1814Y149D01*
X1816Y149D01*
X1816Y147D01*
X1818Y147D01*
X1818Y145D01*
X1820Y145D01*
X1820Y143D01*
X1822Y143D01*
X1822Y141D01*
X1824Y141D01*
X1824Y137D01*
X1826Y137D01*
X1826Y135D01*
X1828Y135D01*
X1828Y131D01*
X1830Y131D01*
X1830Y127D01*
X1832Y127D01*
X1832Y121D01*
X1834Y121D01*
X1834Y115D01*
X1836Y115D01*
X1836Y87D01*
X1834Y87D01*
X1834Y81D01*
X1832Y81D01*
X1832Y75D01*
X1830Y75D01*
X1830Y71D01*
X1828Y71D01*
X1828Y67D01*
X1826Y67D01*
X1826Y65D01*
X1824Y65D01*
X1824Y61D01*
X1822Y61D01*
X1822Y41D01*
X1940Y41D01*
X1940Y61D01*
X1938Y61D01*
X1938Y63D01*
X1936Y63D01*
X1936Y65D01*
X1934Y65D01*
X1934Y67D01*
X1932Y67D01*
X1932Y69D01*
X1930Y69D01*
X1930Y71D01*
X1928Y71D01*
X1928Y75D01*
X1926Y75D01*
X1926Y77D01*
X1924Y77D01*
X1924Y83D01*
X1922Y83D01*
X1922Y89D01*
X1920Y89D01*
X1920Y111D01*
X1922Y111D01*
X1922Y117D01*
X1924Y117D01*
X1924Y121D01*
X1926Y121D01*
X1926Y125D01*
X1928Y125D01*
X1928Y129D01*
X1930Y129D01*
X1930Y131D01*
X1932Y131D01*
X1932Y133D01*
X1934Y133D01*
X1934Y135D01*
X1936Y135D01*
X1936Y137D01*
X1938Y137D01*
X1938Y139D01*
X1942Y139D01*
X1942Y159D01*
X1940Y159D01*
X1940Y161D01*
X1938Y161D01*
X1938Y163D01*
X1936Y163D01*
X1936Y165D01*
X1934Y165D01*
X1934Y167D01*
X1932Y167D01*
X1932Y169D01*
X1930Y169D01*
X1930Y171D01*
X1928Y171D01*
X1928Y175D01*
X1926Y175D01*
X1926Y177D01*
X1924Y177D01*
X1924Y183D01*
X1922Y183D01*
X1922Y189D01*
X1920Y189D01*
X1920Y193D01*
X1916Y193D01*
X1916Y195D01*
X1910Y195D01*
X1910Y197D01*
X1904Y197D01*
X1904Y199D01*
X1898Y199D01*
X1898Y201D01*
X1892Y201D01*
X1892Y203D01*
X1886Y203D01*
X1886Y205D01*
X1880Y205D01*
X1880Y207D01*
X1874Y207D01*
X1874Y209D01*
X1868Y209D01*
X1868Y211D01*
X1862Y211D01*
X1862Y213D01*
X1856Y213D01*
X1856Y215D01*
X1850Y215D01*
X1850Y217D01*
X1844Y217D01*
X1844Y219D01*
X1772Y219D01*
G37*
D02*
G36*
X882Y165D02*
X882Y163D01*
X874Y163D01*
X874Y161D01*
X866Y161D01*
X866Y159D01*
X858Y159D01*
X858Y157D01*
X852Y157D01*
X852Y153D01*
X850Y153D01*
X850Y147D01*
X1632Y147D01*
X1632Y145D01*
X1642Y145D01*
X1642Y143D01*
X1646Y143D01*
X1646Y141D01*
X1650Y141D01*
X1650Y139D01*
X1654Y139D01*
X1654Y137D01*
X1656Y137D01*
X1656Y135D01*
X1660Y135D01*
X1660Y133D01*
X1662Y133D01*
X1662Y131D01*
X1664Y131D01*
X1664Y127D01*
X1666Y127D01*
X1666Y125D01*
X1668Y125D01*
X1668Y121D01*
X1670Y121D01*
X1670Y119D01*
X1672Y119D01*
X1672Y113D01*
X1674Y113D01*
X1674Y105D01*
X1676Y105D01*
X1676Y91D01*
X1674Y91D01*
X1674Y83D01*
X1672Y83D01*
X1672Y77D01*
X1670Y77D01*
X1670Y73D01*
X1668Y73D01*
X1668Y69D01*
X1666Y69D01*
X1666Y67D01*
X1664Y67D01*
X1664Y65D01*
X1662Y65D01*
X1662Y63D01*
X1660Y63D01*
X1660Y61D01*
X1658Y61D01*
X1658Y41D01*
X1726Y41D01*
X1726Y61D01*
X1724Y61D01*
X1724Y63D01*
X1722Y63D01*
X1722Y67D01*
X1720Y67D01*
X1720Y69D01*
X1718Y69D01*
X1718Y73D01*
X1716Y73D01*
X1716Y79D01*
X1714Y79D01*
X1714Y83D01*
X1712Y83D01*
X1712Y93D01*
X1710Y93D01*
X1710Y109D01*
X1712Y109D01*
X1712Y119D01*
X1714Y119D01*
X1714Y123D01*
X1716Y123D01*
X1716Y129D01*
X1718Y129D01*
X1718Y133D01*
X1720Y133D01*
X1720Y135D01*
X1722Y135D01*
X1722Y139D01*
X1724Y139D01*
X1724Y141D01*
X1726Y141D01*
X1726Y143D01*
X1728Y143D01*
X1728Y145D01*
X1730Y145D01*
X1730Y147D01*
X1732Y147D01*
X1732Y149D01*
X1734Y149D01*
X1734Y151D01*
X1736Y151D01*
X1736Y153D01*
X1740Y153D01*
X1740Y155D01*
X1742Y155D01*
X1742Y157D01*
X1748Y157D01*
X1748Y159D01*
X1752Y159D01*
X1752Y161D01*
X1758Y161D01*
X1758Y163D01*
X1772Y163D01*
X1772Y165D01*
X882Y165D01*
G37*
D02*
G36*
X848Y147D02*
X848Y145D01*
X846Y145D01*
X846Y141D01*
X844Y141D01*
X844Y139D01*
X842Y139D01*
X842Y135D01*
X840Y135D01*
X840Y133D01*
X836Y133D01*
X836Y131D01*
X834Y131D01*
X834Y129D01*
X832Y129D01*
X832Y127D01*
X828Y127D01*
X828Y125D01*
X824Y125D01*
X824Y123D01*
X818Y123D01*
X818Y121D01*
X884Y121D01*
X884Y123D01*
X886Y123D01*
X886Y125D01*
X888Y125D01*
X888Y129D01*
X890Y129D01*
X890Y131D01*
X892Y131D01*
X892Y133D01*
X894Y133D01*
X894Y135D01*
X896Y135D01*
X896Y137D01*
X900Y137D01*
X900Y139D01*
X902Y139D01*
X902Y141D01*
X906Y141D01*
X906Y143D01*
X912Y143D01*
X912Y145D01*
X920Y145D01*
X920Y147D01*
X848Y147D01*
G37*
D02*
G36*
X932Y147D02*
X932Y145D01*
X942Y145D01*
X942Y143D01*
X946Y143D01*
X946Y141D01*
X950Y141D01*
X950Y139D01*
X954Y139D01*
X954Y137D01*
X956Y137D01*
X956Y135D01*
X960Y135D01*
X960Y133D01*
X962Y133D01*
X962Y131D01*
X964Y131D01*
X964Y127D01*
X966Y127D01*
X966Y125D01*
X988Y125D01*
X988Y129D01*
X990Y129D01*
X990Y131D01*
X992Y131D01*
X992Y133D01*
X994Y133D01*
X994Y135D01*
X996Y135D01*
X996Y137D01*
X1000Y137D01*
X1000Y139D01*
X1002Y139D01*
X1002Y141D01*
X1006Y141D01*
X1006Y143D01*
X1012Y143D01*
X1012Y145D01*
X1020Y145D01*
X1020Y147D01*
X932Y147D01*
G37*
D02*
G36*
X1032Y147D02*
X1032Y145D01*
X1042Y145D01*
X1042Y143D01*
X1046Y143D01*
X1046Y141D01*
X1050Y141D01*
X1050Y139D01*
X1054Y139D01*
X1054Y137D01*
X1056Y137D01*
X1056Y135D01*
X1060Y135D01*
X1060Y133D01*
X1062Y133D01*
X1062Y131D01*
X1064Y131D01*
X1064Y127D01*
X1066Y127D01*
X1066Y125D01*
X1088Y125D01*
X1088Y129D01*
X1090Y129D01*
X1090Y131D01*
X1092Y131D01*
X1092Y133D01*
X1094Y133D01*
X1094Y135D01*
X1096Y135D01*
X1096Y137D01*
X1100Y137D01*
X1100Y139D01*
X1102Y139D01*
X1102Y141D01*
X1106Y141D01*
X1106Y143D01*
X1112Y143D01*
X1112Y145D01*
X1120Y145D01*
X1120Y147D01*
X1032Y147D01*
G37*
D02*
G36*
X1132Y147D02*
X1132Y145D01*
X1142Y145D01*
X1142Y143D01*
X1146Y143D01*
X1146Y141D01*
X1150Y141D01*
X1150Y139D01*
X1154Y139D01*
X1154Y137D01*
X1156Y137D01*
X1156Y135D01*
X1160Y135D01*
X1160Y133D01*
X1162Y133D01*
X1162Y131D01*
X1164Y131D01*
X1164Y127D01*
X1166Y127D01*
X1166Y125D01*
X1188Y125D01*
X1188Y129D01*
X1190Y129D01*
X1190Y131D01*
X1192Y131D01*
X1192Y133D01*
X1194Y133D01*
X1194Y135D01*
X1196Y135D01*
X1196Y137D01*
X1200Y137D01*
X1200Y139D01*
X1202Y139D01*
X1202Y141D01*
X1206Y141D01*
X1206Y143D01*
X1212Y143D01*
X1212Y145D01*
X1220Y145D01*
X1220Y147D01*
X1132Y147D01*
G37*
D02*
G36*
X1232Y147D02*
X1232Y145D01*
X1242Y145D01*
X1242Y143D01*
X1246Y143D01*
X1246Y141D01*
X1250Y141D01*
X1250Y139D01*
X1254Y139D01*
X1254Y137D01*
X1256Y137D01*
X1256Y135D01*
X1260Y135D01*
X1260Y133D01*
X1262Y133D01*
X1262Y131D01*
X1264Y131D01*
X1264Y127D01*
X1266Y127D01*
X1266Y125D01*
X1288Y125D01*
X1288Y129D01*
X1290Y129D01*
X1290Y131D01*
X1292Y131D01*
X1292Y133D01*
X1294Y133D01*
X1294Y135D01*
X1296Y135D01*
X1296Y137D01*
X1300Y137D01*
X1300Y139D01*
X1302Y139D01*
X1302Y141D01*
X1306Y141D01*
X1306Y143D01*
X1312Y143D01*
X1312Y145D01*
X1320Y145D01*
X1320Y147D01*
X1232Y147D01*
G37*
D02*
G36*
X1332Y147D02*
X1332Y145D01*
X1342Y145D01*
X1342Y143D01*
X1346Y143D01*
X1346Y141D01*
X1350Y141D01*
X1350Y139D01*
X1354Y139D01*
X1354Y137D01*
X1356Y137D01*
X1356Y135D01*
X1360Y135D01*
X1360Y133D01*
X1362Y133D01*
X1362Y131D01*
X1364Y131D01*
X1364Y127D01*
X1366Y127D01*
X1366Y125D01*
X1388Y125D01*
X1388Y129D01*
X1390Y129D01*
X1390Y131D01*
X1392Y131D01*
X1392Y133D01*
X1394Y133D01*
X1394Y135D01*
X1396Y135D01*
X1396Y137D01*
X1400Y137D01*
X1400Y139D01*
X1402Y139D01*
X1402Y141D01*
X1406Y141D01*
X1406Y143D01*
X1412Y143D01*
X1412Y145D01*
X1420Y145D01*
X1420Y147D01*
X1332Y147D01*
G37*
D02*
G36*
X1432Y147D02*
X1432Y145D01*
X1442Y145D01*
X1442Y143D01*
X1446Y143D01*
X1446Y141D01*
X1450Y141D01*
X1450Y139D01*
X1454Y139D01*
X1454Y137D01*
X1456Y137D01*
X1456Y135D01*
X1460Y135D01*
X1460Y133D01*
X1462Y133D01*
X1462Y131D01*
X1464Y131D01*
X1464Y127D01*
X1466Y127D01*
X1466Y125D01*
X1488Y125D01*
X1488Y129D01*
X1490Y129D01*
X1490Y131D01*
X1492Y131D01*
X1492Y133D01*
X1494Y133D01*
X1494Y135D01*
X1496Y135D01*
X1496Y137D01*
X1500Y137D01*
X1500Y139D01*
X1502Y139D01*
X1502Y141D01*
X1506Y141D01*
X1506Y143D01*
X1512Y143D01*
X1512Y145D01*
X1520Y145D01*
X1520Y147D01*
X1432Y147D01*
G37*
D02*
G36*
X1532Y147D02*
X1532Y145D01*
X1542Y145D01*
X1542Y143D01*
X1546Y143D01*
X1546Y141D01*
X1550Y141D01*
X1550Y139D01*
X1554Y139D01*
X1554Y137D01*
X1556Y137D01*
X1556Y135D01*
X1560Y135D01*
X1560Y133D01*
X1562Y133D01*
X1562Y131D01*
X1564Y131D01*
X1564Y127D01*
X1566Y127D01*
X1566Y125D01*
X1588Y125D01*
X1588Y129D01*
X1590Y129D01*
X1590Y131D01*
X1592Y131D01*
X1592Y133D01*
X1594Y133D01*
X1594Y135D01*
X1596Y135D01*
X1596Y137D01*
X1600Y137D01*
X1600Y139D01*
X1602Y139D01*
X1602Y141D01*
X1606Y141D01*
X1606Y143D01*
X1612Y143D01*
X1612Y145D01*
X1620Y145D01*
X1620Y147D01*
X1532Y147D01*
G37*
D02*
G36*
X756Y133D02*
X756Y131D01*
X758Y131D01*
X758Y127D01*
X760Y127D01*
X760Y125D01*
X762Y125D01*
X762Y121D01*
X794Y121D01*
X794Y123D01*
X788Y123D01*
X788Y125D01*
X784Y125D01*
X784Y127D01*
X780Y127D01*
X780Y129D01*
X778Y129D01*
X778Y131D01*
X776Y131D01*
X776Y133D01*
X756Y133D01*
G37*
D02*
G36*
X764Y121D02*
X764Y119D01*
X884Y119D01*
X884Y121D01*
X764Y121D01*
G37*
D02*
G36*
X764Y121D02*
X764Y119D01*
X884Y119D01*
X884Y121D01*
X764Y121D01*
G37*
D02*
G36*
X764Y119D02*
X764Y117D01*
X766Y117D01*
X766Y109D01*
X768Y109D01*
X768Y91D01*
X766Y91D01*
X766Y83D01*
X764Y83D01*
X764Y79D01*
X762Y79D01*
X762Y75D01*
X760Y75D01*
X760Y73D01*
X758Y73D01*
X758Y69D01*
X756Y69D01*
X756Y67D01*
X754Y67D01*
X754Y65D01*
X752Y65D01*
X752Y63D01*
X748Y63D01*
X748Y61D01*
X746Y61D01*
X746Y41D01*
X896Y41D01*
X896Y61D01*
X894Y61D01*
X894Y63D01*
X892Y63D01*
X892Y65D01*
X890Y65D01*
X890Y67D01*
X888Y67D01*
X888Y69D01*
X886Y69D01*
X886Y73D01*
X884Y73D01*
X884Y75D01*
X882Y75D01*
X882Y81D01*
X880Y81D01*
X880Y87D01*
X878Y87D01*
X878Y109D01*
X880Y109D01*
X880Y115D01*
X882Y115D01*
X882Y119D01*
X764Y119D01*
G37*
D02*
G36*
X230Y107D02*
X230Y105D01*
X228Y105D01*
X228Y103D01*
X226Y103D01*
X226Y101D01*
X224Y101D01*
X224Y73D01*
X222Y73D01*
X222Y67D01*
X220Y67D01*
X220Y63D01*
X218Y63D01*
X218Y41D01*
X268Y41D01*
X268Y61D01*
X264Y61D01*
X264Y65D01*
X262Y65D01*
X262Y67D01*
X260Y67D01*
X260Y69D01*
X258Y69D01*
X258Y73D01*
X256Y73D01*
X256Y77D01*
X254Y77D01*
X254Y83D01*
X252Y83D01*
X252Y107D01*
X230Y107D01*
G37*
D02*
G36*
X576Y81D02*
X619Y81D01*
X619Y47D01*
X576Y47D01*
X576Y81D01*
G37*
D02*
G36*
X548Y119D02*
X580Y119D01*
X580Y76D01*
X548Y76D01*
X548Y119D01*
G37*
D02*
G36*
X698Y485D02*
X741Y485D01*
X741Y453D01*
X698Y453D01*
X698Y485D01*
G37*
D02*
G36*
X1833Y635D02*
X1874Y635D01*
X1874Y603D01*
X1833Y603D01*
X1833Y635D01*
G37*
D02*
G36*
X1943Y653D02*
X1988Y653D01*
X1988Y621D01*
X1943Y621D01*
X1943Y653D01*
G37*
D02*
G36*
X1984Y624D02*
X2018Y624D01*
X2018Y579D01*
X1984Y579D01*
X1984Y624D01*
G37*
D02*
G36*
X902Y655D02*
X945Y655D01*
X945Y623D01*
X902Y623D01*
X902Y655D01*
G37*
D02*
G36*
X1500Y655D02*
X1543Y655D01*
X1543Y623D01*
X1500Y623D01*
X1500Y655D01*
G37*
D02*
G36*
X1500Y589D02*
X1543Y589D01*
X1543Y557D01*
X1500Y557D01*
X1500Y589D01*
G37*
D02*
G36*
X1300Y655D02*
X1343Y655D01*
X1343Y623D01*
X1300Y623D01*
X1300Y655D01*
G37*
D02*
G36*
X1400Y655D02*
X1443Y655D01*
X1443Y623D01*
X1400Y623D01*
X1400Y655D01*
G37*
D02*
G36*
X1400Y589D02*
X1443Y589D01*
X1443Y557D01*
X1400Y557D01*
X1400Y589D01*
G37*
D02*
G54D18*
X470Y617D02*
X543Y617D01*
X470Y616D02*
X543Y616D01*
X470Y615D02*
X543Y615D01*
X470Y614D02*
X543Y614D01*
X470Y613D02*
X543Y613D01*
X470Y612D02*
X543Y612D01*
X470Y611D02*
X543Y611D01*
X470Y610D02*
X543Y610D01*
X470Y609D02*
X543Y609D01*
X470Y608D02*
X543Y608D01*
X470Y607D02*
X543Y607D01*
X470Y606D02*
X543Y606D01*
X470Y605D02*
X543Y605D01*
X470Y604D02*
X543Y604D01*
X470Y603D02*
X543Y603D01*
X470Y602D02*
X543Y602D01*
X470Y601D02*
X543Y601D01*
X470Y600D02*
X500Y600D01*
X513Y600D02*
X543Y600D01*
X470Y599D02*
X498Y599D01*
X515Y599D02*
X543Y599D01*
X470Y598D02*
X496Y598D01*
X517Y598D02*
X543Y598D01*
X470Y597D02*
X494Y597D01*
X519Y597D02*
X543Y597D01*
X470Y596D02*
X493Y596D01*
X520Y596D02*
X543Y596D01*
X470Y595D02*
X492Y595D01*
X521Y595D02*
X543Y595D01*
X470Y594D02*
X491Y594D01*
X522Y594D02*
X543Y594D01*
X470Y593D02*
X490Y593D01*
X523Y593D02*
X543Y593D01*
X470Y592D02*
X489Y592D01*
X524Y592D02*
X543Y592D01*
X470Y591D02*
X489Y591D01*
X524Y591D02*
X543Y591D01*
X470Y590D02*
X488Y590D01*
X525Y590D02*
X543Y590D01*
X470Y589D02*
X488Y589D01*
X525Y589D02*
X543Y589D01*
X470Y588D02*
X487Y588D01*
X526Y588D02*
X543Y588D01*
X470Y587D02*
X487Y587D01*
X526Y587D02*
X543Y587D01*
X470Y586D02*
X487Y586D01*
X526Y586D02*
X543Y586D01*
X470Y585D02*
X486Y585D01*
X527Y585D02*
X543Y585D01*
X470Y584D02*
X486Y584D01*
X527Y584D02*
X543Y584D01*
X470Y583D02*
X486Y583D01*
X527Y583D02*
X543Y583D01*
X470Y582D02*
X486Y582D01*
X527Y582D02*
X543Y582D01*
X470Y581D02*
X486Y581D01*
X527Y581D02*
X543Y581D01*
X470Y580D02*
X486Y580D01*
X527Y580D02*
X543Y580D01*
X470Y579D02*
X486Y579D01*
X527Y579D02*
X543Y579D01*
X470Y578D02*
X486Y578D01*
X527Y578D02*
X543Y578D01*
X470Y577D02*
X486Y577D01*
X527Y577D02*
X543Y577D01*
X470Y576D02*
X487Y576D01*
X526Y576D02*
X543Y576D01*
X470Y575D02*
X487Y575D01*
X526Y575D02*
X543Y575D01*
X470Y574D02*
X487Y574D01*
X526Y574D02*
X543Y574D01*
X470Y573D02*
X488Y573D01*
X525Y573D02*
X543Y573D01*
X470Y572D02*
X488Y572D01*
X525Y572D02*
X543Y572D01*
X470Y571D02*
X489Y571D01*
X524Y571D02*
X543Y571D01*
X470Y570D02*
X489Y570D01*
X524Y570D02*
X543Y570D01*
X470Y569D02*
X490Y569D01*
X523Y569D02*
X543Y569D01*
X470Y568D02*
X491Y568D01*
X522Y568D02*
X543Y568D01*
X470Y567D02*
X492Y567D01*
X521Y567D02*
X543Y567D01*
X470Y566D02*
X493Y566D01*
X520Y566D02*
X543Y566D01*
X470Y565D02*
X494Y565D01*
X519Y565D02*
X543Y565D01*
X470Y564D02*
X496Y564D01*
X518Y564D02*
X543Y564D01*
X470Y563D02*
X497Y563D01*
X516Y563D02*
X543Y563D01*
X470Y562D02*
X500Y562D01*
X513Y562D02*
X543Y562D01*
X470Y561D02*
X505Y561D01*
X508Y561D02*
X543Y561D01*
X470Y560D02*
X543Y560D01*
X470Y559D02*
X543Y559D01*
X470Y558D02*
X543Y558D01*
X470Y557D02*
X543Y557D01*
X470Y556D02*
X543Y556D01*
X470Y555D02*
X543Y555D01*
X470Y554D02*
X543Y554D01*
X470Y553D02*
X543Y553D01*
X470Y552D02*
X543Y552D01*
X470Y551D02*
X543Y551D01*
X470Y550D02*
X543Y550D01*
X470Y549D02*
X543Y549D01*
X470Y548D02*
X543Y548D01*
X470Y547D02*
X543Y547D01*
X470Y546D02*
X543Y546D01*
X470Y545D02*
X543Y545D01*
X470Y544D02*
X543Y544D01*
D02*
G04 End of Copper1*
M02*