G04 MADE WITH FRITZING*
G04 WWW.FRITZING.ORG*
G04 DOUBLE SIDED*
G04 HOLES PLATED*
G04 CONTOUR ON CENTER OF CONTOUR VECTOR*
%ASAXBY*%
%FSLAX23Y23*%
%MOIN*%
%OFA0B0*%
%SFA1.0B1.0*%
%ADD10C,0.005000*%
%ADD11R,0.001000X0.001000*%
%LNSILK1*%
G90*
G70*
G54D10*
X40Y275D02*
X40Y55D01*
D02*
X640Y275D02*
X640Y55D01*
D02*
X640Y275D02*
X40Y275D01*
D02*
X640Y55D02*
X590Y55D01*
D02*
X590Y55D02*
X90Y55D01*
D02*
X90Y55D02*
X40Y55D01*
D02*
X90Y55D02*
X90Y105D01*
G54D11*
X0Y2461D02*
X707Y2461D01*
X0Y2460D02*
X707Y2460D01*
X0Y2459D02*
X707Y2459D01*
X0Y2458D02*
X707Y2458D01*
X0Y2457D02*
X707Y2457D01*
X0Y2456D02*
X707Y2456D01*
X0Y2455D02*
X707Y2455D01*
X0Y2454D02*
X707Y2454D01*
X0Y2453D02*
X7Y2453D01*
X700Y2453D02*
X707Y2453D01*
X0Y2452D02*
X7Y2452D01*
X700Y2452D02*
X707Y2452D01*
X0Y2451D02*
X7Y2451D01*
X700Y2451D02*
X707Y2451D01*
X0Y2450D02*
X7Y2450D01*
X700Y2450D02*
X707Y2450D01*
X0Y2449D02*
X7Y2449D01*
X700Y2449D02*
X707Y2449D01*
X0Y2448D02*
X7Y2448D01*
X700Y2448D02*
X707Y2448D01*
X0Y2447D02*
X7Y2447D01*
X700Y2447D02*
X707Y2447D01*
X0Y2439D02*
X7Y2439D01*
X700Y2439D02*
X707Y2439D01*
X0Y2438D02*
X7Y2438D01*
X700Y2438D02*
X707Y2438D01*
X0Y2437D02*
X7Y2437D01*
X700Y2437D02*
X707Y2437D01*
X0Y2436D02*
X7Y2436D01*
X700Y2436D02*
X707Y2436D01*
X0Y2435D02*
X7Y2435D01*
X700Y2435D02*
X707Y2435D01*
X0Y2434D02*
X7Y2434D01*
X700Y2434D02*
X707Y2434D01*
X0Y2433D02*
X7Y2433D01*
X700Y2433D02*
X707Y2433D01*
X0Y2432D02*
X7Y2432D01*
X700Y2432D02*
X707Y2432D01*
X0Y2431D02*
X7Y2431D01*
X700Y2431D02*
X707Y2431D01*
X0Y2430D02*
X7Y2430D01*
X700Y2430D02*
X707Y2430D01*
X0Y2429D02*
X7Y2429D01*
X700Y2429D02*
X707Y2429D01*
X0Y2428D02*
X7Y2428D01*
X700Y2428D02*
X707Y2428D01*
X0Y2427D02*
X7Y2427D01*
X700Y2427D02*
X707Y2427D01*
X0Y2426D02*
X7Y2426D01*
X700Y2426D02*
X707Y2426D01*
X0Y2425D02*
X7Y2425D01*
X700Y2425D02*
X707Y2425D01*
X0Y2424D02*
X7Y2424D01*
X700Y2424D02*
X707Y2424D01*
X0Y2423D02*
X7Y2423D01*
X700Y2423D02*
X707Y2423D01*
X0Y2422D02*
X7Y2422D01*
X700Y2422D02*
X707Y2422D01*
X0Y2421D02*
X7Y2421D01*
X700Y2421D02*
X707Y2421D01*
X0Y2420D02*
X7Y2420D01*
X700Y2420D02*
X707Y2420D01*
X0Y2419D02*
X7Y2419D01*
X700Y2419D02*
X707Y2419D01*
X0Y2418D02*
X7Y2418D01*
X700Y2418D02*
X707Y2418D01*
X0Y2417D02*
X7Y2417D01*
X700Y2417D02*
X707Y2417D01*
X0Y2416D02*
X7Y2416D01*
X700Y2416D02*
X707Y2416D01*
X0Y2415D02*
X7Y2415D01*
X700Y2415D02*
X707Y2415D01*
X0Y2414D02*
X7Y2414D01*
X700Y2414D02*
X707Y2414D01*
X0Y2413D02*
X7Y2413D01*
X700Y2413D02*
X707Y2413D01*
X0Y2412D02*
X7Y2412D01*
X700Y2412D02*
X707Y2412D01*
X0Y2411D02*
X7Y2411D01*
X700Y2411D02*
X707Y2411D01*
X0Y2410D02*
X7Y2410D01*
X700Y2410D02*
X707Y2410D01*
X0Y2409D02*
X7Y2409D01*
X700Y2409D02*
X707Y2409D01*
X0Y2408D02*
X7Y2408D01*
X700Y2408D02*
X707Y2408D01*
X0Y2407D02*
X7Y2407D01*
X700Y2407D02*
X707Y2407D01*
X0Y2406D02*
X7Y2406D01*
X700Y2406D02*
X707Y2406D01*
X0Y2405D02*
X7Y2405D01*
X700Y2405D02*
X707Y2405D01*
X0Y2404D02*
X7Y2404D01*
X700Y2404D02*
X707Y2404D01*
X0Y2403D02*
X7Y2403D01*
X700Y2403D02*
X707Y2403D01*
X0Y2402D02*
X7Y2402D01*
X700Y2402D02*
X707Y2402D01*
X0Y2401D02*
X7Y2401D01*
X700Y2401D02*
X707Y2401D01*
X0Y2400D02*
X7Y2400D01*
X700Y2400D02*
X707Y2400D01*
X0Y2399D02*
X7Y2399D01*
X700Y2399D02*
X707Y2399D01*
X0Y2398D02*
X7Y2398D01*
X700Y2398D02*
X707Y2398D01*
X0Y2397D02*
X7Y2397D01*
X700Y2397D02*
X707Y2397D01*
X0Y2396D02*
X7Y2396D01*
X700Y2396D02*
X707Y2396D01*
X0Y2395D02*
X7Y2395D01*
X700Y2395D02*
X707Y2395D01*
X0Y2394D02*
X7Y2394D01*
X700Y2394D02*
X707Y2394D01*
X0Y2393D02*
X7Y2393D01*
X700Y2393D02*
X707Y2393D01*
X0Y2392D02*
X7Y2392D01*
X700Y2392D02*
X707Y2392D01*
X0Y2391D02*
X7Y2391D01*
X700Y2391D02*
X707Y2391D01*
X0Y2390D02*
X7Y2390D01*
X700Y2390D02*
X707Y2390D01*
X0Y2389D02*
X7Y2389D01*
X700Y2389D02*
X707Y2389D01*
X0Y2388D02*
X7Y2388D01*
X700Y2388D02*
X707Y2388D01*
X0Y2387D02*
X7Y2387D01*
X700Y2387D02*
X707Y2387D01*
X0Y2386D02*
X7Y2386D01*
X700Y2386D02*
X707Y2386D01*
X0Y2385D02*
X7Y2385D01*
X700Y2385D02*
X707Y2385D01*
X0Y2384D02*
X7Y2384D01*
X700Y2384D02*
X707Y2384D01*
X0Y2383D02*
X7Y2383D01*
X700Y2383D02*
X707Y2383D01*
X0Y2382D02*
X7Y2382D01*
X700Y2382D02*
X707Y2382D01*
X0Y2381D02*
X7Y2381D01*
X700Y2381D02*
X707Y2381D01*
X0Y2380D02*
X7Y2380D01*
X700Y2380D02*
X707Y2380D01*
X0Y2379D02*
X7Y2379D01*
X700Y2379D02*
X707Y2379D01*
X0Y2378D02*
X7Y2378D01*
X700Y2378D02*
X707Y2378D01*
X0Y2377D02*
X7Y2377D01*
X700Y2377D02*
X707Y2377D01*
X0Y2376D02*
X7Y2376D01*
X700Y2376D02*
X707Y2376D01*
X0Y2375D02*
X7Y2375D01*
X700Y2375D02*
X707Y2375D01*
X0Y2374D02*
X7Y2374D01*
X700Y2374D02*
X707Y2374D01*
X0Y2373D02*
X7Y2373D01*
X700Y2373D02*
X707Y2373D01*
X0Y2372D02*
X7Y2372D01*
X700Y2372D02*
X707Y2372D01*
X0Y2371D02*
X7Y2371D01*
X700Y2371D02*
X707Y2371D01*
X0Y2370D02*
X7Y2370D01*
X700Y2370D02*
X707Y2370D01*
X0Y2369D02*
X7Y2369D01*
X700Y2369D02*
X707Y2369D01*
X0Y2368D02*
X7Y2368D01*
X700Y2368D02*
X707Y2368D01*
X0Y2367D02*
X7Y2367D01*
X700Y2367D02*
X707Y2367D01*
X0Y2366D02*
X7Y2366D01*
X700Y2366D02*
X707Y2366D01*
X0Y2365D02*
X7Y2365D01*
X700Y2365D02*
X707Y2365D01*
X0Y2364D02*
X7Y2364D01*
X700Y2364D02*
X707Y2364D01*
X0Y2363D02*
X7Y2363D01*
X700Y2363D02*
X707Y2363D01*
X0Y2362D02*
X7Y2362D01*
X700Y2362D02*
X707Y2362D01*
X0Y2361D02*
X7Y2361D01*
X700Y2361D02*
X707Y2361D01*
X0Y2360D02*
X7Y2360D01*
X700Y2360D02*
X707Y2360D01*
X0Y2359D02*
X7Y2359D01*
X700Y2359D02*
X707Y2359D01*
X0Y2358D02*
X7Y2358D01*
X700Y2358D02*
X707Y2358D01*
X0Y2357D02*
X7Y2357D01*
X700Y2357D02*
X707Y2357D01*
X0Y2356D02*
X7Y2356D01*
X700Y2356D02*
X707Y2356D01*
X0Y2355D02*
X7Y2355D01*
X700Y2355D02*
X707Y2355D01*
X0Y2354D02*
X7Y2354D01*
X700Y2354D02*
X707Y2354D01*
X0Y2353D02*
X7Y2353D01*
X700Y2353D02*
X707Y2353D01*
X0Y2352D02*
X7Y2352D01*
X700Y2352D02*
X707Y2352D01*
X0Y2351D02*
X7Y2351D01*
X700Y2351D02*
X707Y2351D01*
X0Y2350D02*
X7Y2350D01*
X276Y2350D02*
X292Y2350D01*
X370Y2350D02*
X386Y2350D01*
X700Y2350D02*
X707Y2350D01*
X0Y2349D02*
X7Y2349D01*
X276Y2349D02*
X293Y2349D01*
X369Y2349D02*
X386Y2349D01*
X700Y2349D02*
X707Y2349D01*
X0Y2348D02*
X7Y2348D01*
X276Y2348D02*
X293Y2348D01*
X369Y2348D02*
X386Y2348D01*
X700Y2348D02*
X707Y2348D01*
X0Y2347D02*
X7Y2347D01*
X276Y2347D02*
X293Y2347D01*
X369Y2347D02*
X386Y2347D01*
X700Y2347D02*
X707Y2347D01*
X0Y2346D02*
X7Y2346D01*
X276Y2346D02*
X292Y2346D01*
X370Y2346D02*
X386Y2346D01*
X700Y2346D02*
X707Y2346D01*
X0Y2345D02*
X7Y2345D01*
X700Y2345D02*
X707Y2345D01*
X0Y2344D02*
X7Y2344D01*
X700Y2344D02*
X707Y2344D01*
X0Y2343D02*
X7Y2343D01*
X700Y2343D02*
X707Y2343D01*
X0Y2342D02*
X7Y2342D01*
X700Y2342D02*
X707Y2342D01*
X0Y2341D02*
X7Y2341D01*
X700Y2341D02*
X707Y2341D01*
X0Y2340D02*
X7Y2340D01*
X298Y2340D02*
X301Y2340D01*
X303Y2340D02*
X303Y2340D01*
X307Y2340D02*
X308Y2340D01*
X311Y2340D02*
X311Y2340D01*
X700Y2340D02*
X707Y2340D01*
X0Y2339D02*
X7Y2339D01*
X297Y2339D02*
X297Y2339D01*
X304Y2339D02*
X304Y2339D01*
X307Y2339D02*
X308Y2339D01*
X311Y2339D02*
X311Y2339D01*
X700Y2339D02*
X707Y2339D01*
X0Y2338D02*
X7Y2338D01*
X297Y2338D02*
X298Y2338D01*
X304Y2338D02*
X304Y2338D01*
X308Y2338D02*
X308Y2338D01*
X311Y2338D02*
X311Y2338D01*
X700Y2338D02*
X707Y2338D01*
X0Y2337D02*
X7Y2337D01*
X298Y2337D02*
X300Y2337D01*
X304Y2337D02*
X304Y2337D01*
X306Y2337D02*
X306Y2337D01*
X308Y2337D02*
X308Y2337D01*
X311Y2337D02*
X311Y2337D01*
X700Y2337D02*
X707Y2337D01*
X0Y2336D02*
X7Y2336D01*
X301Y2336D02*
X301Y2336D01*
X304Y2336D02*
X304Y2336D01*
X306Y2336D02*
X306Y2336D01*
X309Y2336D02*
X310Y2336D01*
X700Y2336D02*
X707Y2336D01*
X0Y2335D02*
X7Y2335D01*
X301Y2335D02*
X301Y2335D01*
X305Y2335D02*
X306Y2335D01*
X309Y2335D02*
X310Y2335D01*
X700Y2335D02*
X707Y2335D01*
X0Y2334D02*
X7Y2334D01*
X297Y2334D02*
X298Y2334D01*
X300Y2334D02*
X301Y2334D01*
X305Y2334D02*
X306Y2334D01*
X309Y2334D02*
X310Y2334D01*
X700Y2334D02*
X707Y2334D01*
X0Y2333D02*
X7Y2333D01*
X700Y2333D02*
X707Y2333D01*
X0Y2332D02*
X7Y2332D01*
X700Y2332D02*
X707Y2332D01*
X0Y2331D02*
X7Y2331D01*
X700Y2331D02*
X707Y2331D01*
X0Y2330D02*
X7Y2330D01*
X700Y2330D02*
X707Y2330D01*
X0Y2329D02*
X7Y2329D01*
X700Y2329D02*
X707Y2329D01*
X0Y2328D02*
X7Y2328D01*
X700Y2328D02*
X707Y2328D01*
X0Y2327D02*
X7Y2327D01*
X700Y2327D02*
X707Y2327D01*
X0Y2326D02*
X7Y2326D01*
X700Y2326D02*
X707Y2326D01*
X0Y2325D02*
X7Y2325D01*
X700Y2325D02*
X707Y2325D01*
X0Y2324D02*
X7Y2324D01*
X700Y2324D02*
X707Y2324D01*
X0Y2323D02*
X7Y2323D01*
X700Y2323D02*
X707Y2323D01*
X0Y2322D02*
X7Y2322D01*
X700Y2322D02*
X707Y2322D01*
X0Y2321D02*
X7Y2321D01*
X700Y2321D02*
X707Y2321D01*
X0Y2320D02*
X7Y2320D01*
X700Y2320D02*
X707Y2320D01*
X0Y2319D02*
X7Y2319D01*
X700Y2319D02*
X707Y2319D01*
X0Y2318D02*
X7Y2318D01*
X700Y2318D02*
X707Y2318D01*
X0Y2317D02*
X7Y2317D01*
X700Y2317D02*
X707Y2317D01*
X0Y2316D02*
X7Y2316D01*
X700Y2316D02*
X707Y2316D01*
X0Y2315D02*
X7Y2315D01*
X700Y2315D02*
X707Y2315D01*
X0Y2314D02*
X7Y2314D01*
X700Y2314D02*
X707Y2314D01*
X0Y2313D02*
X7Y2313D01*
X700Y2313D02*
X707Y2313D01*
X0Y2312D02*
X7Y2312D01*
X700Y2312D02*
X707Y2312D01*
X0Y2311D02*
X7Y2311D01*
X700Y2311D02*
X707Y2311D01*
X0Y2310D02*
X7Y2310D01*
X700Y2310D02*
X707Y2310D01*
X0Y2309D02*
X7Y2309D01*
X700Y2309D02*
X707Y2309D01*
X0Y2308D02*
X7Y2308D01*
X700Y2308D02*
X707Y2308D01*
X0Y2307D02*
X7Y2307D01*
X700Y2307D02*
X707Y2307D01*
X0Y2306D02*
X7Y2306D01*
X700Y2306D02*
X707Y2306D01*
X0Y2305D02*
X7Y2305D01*
X700Y2305D02*
X707Y2305D01*
X0Y2304D02*
X7Y2304D01*
X700Y2304D02*
X707Y2304D01*
X0Y2303D02*
X7Y2303D01*
X700Y2303D02*
X707Y2303D01*
X0Y2302D02*
X7Y2302D01*
X700Y2302D02*
X707Y2302D01*
X0Y2301D02*
X7Y2301D01*
X700Y2301D02*
X707Y2301D01*
X0Y2300D02*
X7Y2300D01*
X700Y2300D02*
X707Y2300D01*
X0Y2299D02*
X7Y2299D01*
X700Y2299D02*
X707Y2299D01*
X0Y2298D02*
X7Y2298D01*
X700Y2298D02*
X707Y2298D01*
X0Y2297D02*
X7Y2297D01*
X700Y2297D02*
X707Y2297D01*
X0Y2296D02*
X7Y2296D01*
X700Y2296D02*
X707Y2296D01*
X0Y2295D02*
X7Y2295D01*
X700Y2295D02*
X707Y2295D01*
X0Y2294D02*
X7Y2294D01*
X700Y2294D02*
X707Y2294D01*
X0Y2293D02*
X7Y2293D01*
X700Y2293D02*
X707Y2293D01*
X0Y2292D02*
X7Y2292D01*
X700Y2292D02*
X707Y2292D01*
X0Y2291D02*
X7Y2291D01*
X700Y2291D02*
X707Y2291D01*
X0Y2290D02*
X7Y2290D01*
X700Y2290D02*
X707Y2290D01*
X0Y2289D02*
X7Y2289D01*
X700Y2289D02*
X707Y2289D01*
X0Y2288D02*
X7Y2288D01*
X700Y2288D02*
X707Y2288D01*
X0Y2287D02*
X7Y2287D01*
X700Y2287D02*
X707Y2287D01*
X0Y2286D02*
X7Y2286D01*
X700Y2286D02*
X707Y2286D01*
X0Y2285D02*
X7Y2285D01*
X700Y2285D02*
X707Y2285D01*
X0Y2284D02*
X7Y2284D01*
X700Y2284D02*
X707Y2284D01*
X0Y2283D02*
X7Y2283D01*
X700Y2283D02*
X707Y2283D01*
X0Y2282D02*
X7Y2282D01*
X700Y2282D02*
X707Y2282D01*
X0Y2281D02*
X7Y2281D01*
X700Y2281D02*
X707Y2281D01*
X0Y2280D02*
X7Y2280D01*
X700Y2280D02*
X707Y2280D01*
X0Y2279D02*
X7Y2279D01*
X700Y2279D02*
X707Y2279D01*
X0Y2278D02*
X7Y2278D01*
X700Y2278D02*
X707Y2278D01*
X0Y2277D02*
X7Y2277D01*
X700Y2277D02*
X707Y2277D01*
X0Y2276D02*
X7Y2276D01*
X700Y2276D02*
X707Y2276D01*
X0Y2275D02*
X7Y2275D01*
X700Y2275D02*
X707Y2275D01*
X0Y2274D02*
X7Y2274D01*
X700Y2274D02*
X707Y2274D01*
X0Y2273D02*
X7Y2273D01*
X700Y2273D02*
X707Y2273D01*
X0Y2272D02*
X7Y2272D01*
X700Y2272D02*
X707Y2272D01*
X0Y2271D02*
X7Y2271D01*
X700Y2271D02*
X707Y2271D01*
X0Y2270D02*
X7Y2270D01*
X700Y2270D02*
X707Y2270D01*
X0Y2269D02*
X7Y2269D01*
X700Y2269D02*
X707Y2269D01*
X0Y2268D02*
X7Y2268D01*
X700Y2268D02*
X707Y2268D01*
X0Y2267D02*
X7Y2267D01*
X700Y2267D02*
X707Y2267D01*
X0Y2266D02*
X7Y2266D01*
X700Y2266D02*
X707Y2266D01*
X0Y2265D02*
X7Y2265D01*
X700Y2265D02*
X707Y2265D01*
X0Y2264D02*
X7Y2264D01*
X700Y2264D02*
X707Y2264D01*
X0Y2263D02*
X7Y2263D01*
X700Y2263D02*
X707Y2263D01*
X0Y2262D02*
X7Y2262D01*
X700Y2262D02*
X707Y2262D01*
X0Y2261D02*
X7Y2261D01*
X700Y2261D02*
X707Y2261D01*
X0Y2260D02*
X7Y2260D01*
X700Y2260D02*
X707Y2260D01*
X0Y2259D02*
X7Y2259D01*
X700Y2259D02*
X707Y2259D01*
X0Y2258D02*
X7Y2258D01*
X700Y2258D02*
X707Y2258D01*
X0Y2257D02*
X7Y2257D01*
X700Y2257D02*
X707Y2257D01*
X0Y2256D02*
X7Y2256D01*
X700Y2256D02*
X707Y2256D01*
X0Y2255D02*
X7Y2255D01*
X700Y2255D02*
X707Y2255D01*
X0Y2254D02*
X7Y2254D01*
X700Y2254D02*
X707Y2254D01*
X0Y2253D02*
X7Y2253D01*
X700Y2253D02*
X707Y2253D01*
X0Y2252D02*
X7Y2252D01*
X700Y2252D02*
X707Y2252D01*
X0Y2251D02*
X7Y2251D01*
X700Y2251D02*
X707Y2251D01*
X0Y2250D02*
X7Y2250D01*
X700Y2250D02*
X707Y2250D01*
X0Y2249D02*
X7Y2249D01*
X700Y2249D02*
X707Y2249D01*
X0Y2248D02*
X7Y2248D01*
X700Y2248D02*
X707Y2248D01*
X0Y2247D02*
X7Y2247D01*
X700Y2247D02*
X707Y2247D01*
X0Y2246D02*
X7Y2246D01*
X700Y2246D02*
X707Y2246D01*
X0Y2245D02*
X7Y2245D01*
X700Y2245D02*
X707Y2245D01*
X0Y2244D02*
X7Y2244D01*
X700Y2244D02*
X707Y2244D01*
X0Y2243D02*
X7Y2243D01*
X700Y2243D02*
X707Y2243D01*
X0Y2242D02*
X7Y2242D01*
X700Y2242D02*
X707Y2242D01*
X0Y2241D02*
X7Y2241D01*
X700Y2241D02*
X707Y2241D01*
X0Y2240D02*
X7Y2240D01*
X700Y2240D02*
X707Y2240D01*
X0Y2239D02*
X7Y2239D01*
X700Y2239D02*
X707Y2239D01*
X0Y2238D02*
X7Y2238D01*
X700Y2238D02*
X707Y2238D01*
X0Y2237D02*
X7Y2237D01*
X700Y2237D02*
X707Y2237D01*
X0Y2236D02*
X7Y2236D01*
X700Y2236D02*
X707Y2236D01*
X0Y2235D02*
X7Y2235D01*
X700Y2235D02*
X707Y2235D01*
X0Y2234D02*
X7Y2234D01*
X700Y2234D02*
X707Y2234D01*
X0Y2233D02*
X7Y2233D01*
X700Y2233D02*
X707Y2233D01*
X0Y2232D02*
X7Y2232D01*
X700Y2232D02*
X707Y2232D01*
X0Y2231D02*
X7Y2231D01*
X700Y2231D02*
X707Y2231D01*
X0Y2230D02*
X7Y2230D01*
X700Y2230D02*
X707Y2230D01*
X0Y2229D02*
X7Y2229D01*
X700Y2229D02*
X707Y2229D01*
X0Y2228D02*
X7Y2228D01*
X700Y2228D02*
X707Y2228D01*
X0Y2227D02*
X7Y2227D01*
X700Y2227D02*
X707Y2227D01*
X0Y2226D02*
X7Y2226D01*
X700Y2226D02*
X707Y2226D01*
X0Y2225D02*
X7Y2225D01*
X700Y2225D02*
X707Y2225D01*
X0Y2224D02*
X7Y2224D01*
X700Y2224D02*
X707Y2224D01*
X0Y2223D02*
X7Y2223D01*
X700Y2223D02*
X707Y2223D01*
X0Y2222D02*
X7Y2222D01*
X700Y2222D02*
X707Y2222D01*
X0Y2221D02*
X7Y2221D01*
X700Y2221D02*
X707Y2221D01*
X0Y2220D02*
X7Y2220D01*
X700Y2220D02*
X707Y2220D01*
X0Y2219D02*
X7Y2219D01*
X700Y2219D02*
X707Y2219D01*
X0Y2218D02*
X7Y2218D01*
X700Y2218D02*
X707Y2218D01*
X0Y2217D02*
X7Y2217D01*
X700Y2217D02*
X707Y2217D01*
X0Y2216D02*
X7Y2216D01*
X700Y2216D02*
X707Y2216D01*
X0Y2215D02*
X7Y2215D01*
X700Y2215D02*
X707Y2215D01*
X0Y2214D02*
X7Y2214D01*
X700Y2214D02*
X707Y2214D01*
X0Y2213D02*
X7Y2213D01*
X700Y2213D02*
X707Y2213D01*
X0Y2212D02*
X7Y2212D01*
X700Y2212D02*
X707Y2212D01*
X0Y2211D02*
X7Y2211D01*
X700Y2211D02*
X707Y2211D01*
X0Y2210D02*
X7Y2210D01*
X700Y2210D02*
X707Y2210D01*
X0Y2209D02*
X7Y2209D01*
X700Y2209D02*
X707Y2209D01*
X0Y2208D02*
X7Y2208D01*
X700Y2208D02*
X707Y2208D01*
X0Y2207D02*
X7Y2207D01*
X700Y2207D02*
X707Y2207D01*
X0Y2206D02*
X7Y2206D01*
X700Y2206D02*
X707Y2206D01*
X0Y2205D02*
X7Y2205D01*
X700Y2205D02*
X707Y2205D01*
X0Y2204D02*
X7Y2204D01*
X700Y2204D02*
X707Y2204D01*
X0Y2203D02*
X7Y2203D01*
X700Y2203D02*
X707Y2203D01*
X0Y2202D02*
X7Y2202D01*
X700Y2202D02*
X707Y2202D01*
X0Y2201D02*
X7Y2201D01*
X700Y2201D02*
X707Y2201D01*
X0Y2200D02*
X7Y2200D01*
X700Y2200D02*
X707Y2200D01*
X0Y2199D02*
X7Y2199D01*
X700Y2199D02*
X707Y2199D01*
X0Y2198D02*
X7Y2198D01*
X700Y2198D02*
X707Y2198D01*
X0Y2197D02*
X7Y2197D01*
X700Y2197D02*
X707Y2197D01*
X0Y2196D02*
X7Y2196D01*
X700Y2196D02*
X707Y2196D01*
X0Y2195D02*
X7Y2195D01*
X700Y2195D02*
X707Y2195D01*
X0Y2194D02*
X7Y2194D01*
X700Y2194D02*
X707Y2194D01*
X0Y2193D02*
X7Y2193D01*
X700Y2193D02*
X707Y2193D01*
X0Y2192D02*
X7Y2192D01*
X700Y2192D02*
X707Y2192D01*
X0Y2191D02*
X7Y2191D01*
X700Y2191D02*
X707Y2191D01*
X0Y2190D02*
X7Y2190D01*
X700Y2190D02*
X707Y2190D01*
X0Y2189D02*
X7Y2189D01*
X700Y2189D02*
X707Y2189D01*
X0Y2188D02*
X7Y2188D01*
X700Y2188D02*
X707Y2188D01*
X0Y2187D02*
X7Y2187D01*
X700Y2187D02*
X707Y2187D01*
X0Y2186D02*
X7Y2186D01*
X700Y2186D02*
X707Y2186D01*
X0Y2185D02*
X7Y2185D01*
X700Y2185D02*
X707Y2185D01*
X0Y2184D02*
X7Y2184D01*
X700Y2184D02*
X707Y2184D01*
X0Y2183D02*
X7Y2183D01*
X700Y2183D02*
X707Y2183D01*
X0Y2182D02*
X7Y2182D01*
X700Y2182D02*
X707Y2182D01*
X0Y2181D02*
X7Y2181D01*
X700Y2181D02*
X707Y2181D01*
X0Y2180D02*
X7Y2180D01*
X700Y2180D02*
X707Y2180D01*
X0Y2179D02*
X7Y2179D01*
X700Y2179D02*
X707Y2179D01*
X0Y2178D02*
X7Y2178D01*
X700Y2178D02*
X707Y2178D01*
X0Y2177D02*
X7Y2177D01*
X700Y2177D02*
X707Y2177D01*
X0Y2176D02*
X7Y2176D01*
X700Y2176D02*
X707Y2176D01*
X0Y2175D02*
X7Y2175D01*
X700Y2175D02*
X707Y2175D01*
X0Y2174D02*
X7Y2174D01*
X700Y2174D02*
X707Y2174D01*
X0Y2173D02*
X7Y2173D01*
X700Y2173D02*
X707Y2173D01*
X0Y2172D02*
X7Y2172D01*
X700Y2172D02*
X707Y2172D01*
X0Y2171D02*
X7Y2171D01*
X700Y2171D02*
X707Y2171D01*
X0Y2170D02*
X7Y2170D01*
X700Y2170D02*
X707Y2170D01*
X0Y2169D02*
X7Y2169D01*
X700Y2169D02*
X707Y2169D01*
X0Y2168D02*
X7Y2168D01*
X700Y2168D02*
X707Y2168D01*
X0Y2167D02*
X7Y2167D01*
X700Y2167D02*
X707Y2167D01*
X0Y2166D02*
X7Y2166D01*
X700Y2166D02*
X707Y2166D01*
X0Y2165D02*
X7Y2165D01*
X700Y2165D02*
X707Y2165D01*
X0Y2164D02*
X7Y2164D01*
X700Y2164D02*
X707Y2164D01*
X0Y2163D02*
X7Y2163D01*
X700Y2163D02*
X707Y2163D01*
X0Y2162D02*
X7Y2162D01*
X700Y2162D02*
X707Y2162D01*
X0Y2161D02*
X7Y2161D01*
X700Y2161D02*
X707Y2161D01*
X0Y2160D02*
X7Y2160D01*
X700Y2160D02*
X707Y2160D01*
X0Y2159D02*
X7Y2159D01*
X700Y2159D02*
X707Y2159D01*
X0Y2158D02*
X7Y2158D01*
X700Y2158D02*
X707Y2158D01*
X0Y2157D02*
X7Y2157D01*
X700Y2157D02*
X707Y2157D01*
X0Y2156D02*
X7Y2156D01*
X700Y2156D02*
X707Y2156D01*
X0Y2155D02*
X7Y2155D01*
X700Y2155D02*
X707Y2155D01*
X0Y2154D02*
X7Y2154D01*
X700Y2154D02*
X707Y2154D01*
X0Y2153D02*
X7Y2153D01*
X700Y2153D02*
X707Y2153D01*
X0Y2152D02*
X7Y2152D01*
X700Y2152D02*
X707Y2152D01*
X0Y2151D02*
X7Y2151D01*
X700Y2151D02*
X707Y2151D01*
X0Y2150D02*
X7Y2150D01*
X700Y2150D02*
X707Y2150D01*
X0Y2149D02*
X7Y2149D01*
X700Y2149D02*
X707Y2149D01*
X0Y2148D02*
X7Y2148D01*
X700Y2148D02*
X707Y2148D01*
X0Y2147D02*
X7Y2147D01*
X700Y2147D02*
X707Y2147D01*
X0Y2146D02*
X7Y2146D01*
X700Y2146D02*
X707Y2146D01*
X0Y2145D02*
X7Y2145D01*
X700Y2145D02*
X707Y2145D01*
X0Y2144D02*
X7Y2144D01*
X700Y2144D02*
X707Y2144D01*
X0Y2143D02*
X7Y2143D01*
X700Y2143D02*
X707Y2143D01*
X0Y2142D02*
X7Y2142D01*
X700Y2142D02*
X707Y2142D01*
X0Y2141D02*
X7Y2141D01*
X700Y2141D02*
X707Y2141D01*
X0Y2140D02*
X7Y2140D01*
X700Y2140D02*
X707Y2140D01*
X0Y2139D02*
X7Y2139D01*
X700Y2139D02*
X707Y2139D01*
X0Y2138D02*
X7Y2138D01*
X700Y2138D02*
X707Y2138D01*
X0Y2137D02*
X7Y2137D01*
X700Y2137D02*
X707Y2137D01*
X0Y2136D02*
X7Y2136D01*
X700Y2136D02*
X707Y2136D01*
X0Y2135D02*
X7Y2135D01*
X700Y2135D02*
X707Y2135D01*
X0Y2134D02*
X7Y2134D01*
X700Y2134D02*
X707Y2134D01*
X0Y2133D02*
X7Y2133D01*
X700Y2133D02*
X707Y2133D01*
X0Y2132D02*
X7Y2132D01*
X700Y2132D02*
X707Y2132D01*
X0Y2131D02*
X7Y2131D01*
X700Y2131D02*
X707Y2131D01*
X0Y2130D02*
X7Y2130D01*
X700Y2130D02*
X707Y2130D01*
X0Y2129D02*
X7Y2129D01*
X700Y2129D02*
X707Y2129D01*
X0Y2128D02*
X7Y2128D01*
X700Y2128D02*
X707Y2128D01*
X0Y2127D02*
X7Y2127D01*
X700Y2127D02*
X707Y2127D01*
X0Y2126D02*
X7Y2126D01*
X700Y2126D02*
X707Y2126D01*
X0Y2125D02*
X7Y2125D01*
X700Y2125D02*
X707Y2125D01*
X0Y2124D02*
X7Y2124D01*
X700Y2124D02*
X707Y2124D01*
X0Y2123D02*
X7Y2123D01*
X700Y2123D02*
X707Y2123D01*
X0Y2122D02*
X7Y2122D01*
X700Y2122D02*
X707Y2122D01*
X0Y2121D02*
X7Y2121D01*
X700Y2121D02*
X707Y2121D01*
X0Y2120D02*
X7Y2120D01*
X700Y2120D02*
X707Y2120D01*
X0Y2119D02*
X7Y2119D01*
X700Y2119D02*
X707Y2119D01*
X0Y2118D02*
X7Y2118D01*
X700Y2118D02*
X707Y2118D01*
X0Y2117D02*
X7Y2117D01*
X700Y2117D02*
X707Y2117D01*
X0Y2116D02*
X7Y2116D01*
X700Y2116D02*
X707Y2116D01*
X0Y2115D02*
X7Y2115D01*
X700Y2115D02*
X707Y2115D01*
X0Y2114D02*
X7Y2114D01*
X700Y2114D02*
X707Y2114D01*
X0Y2113D02*
X7Y2113D01*
X700Y2113D02*
X707Y2113D01*
X0Y2112D02*
X7Y2112D01*
X700Y2112D02*
X707Y2112D01*
X0Y2111D02*
X7Y2111D01*
X700Y2111D02*
X707Y2111D01*
X0Y2110D02*
X7Y2110D01*
X700Y2110D02*
X707Y2110D01*
X0Y2109D02*
X7Y2109D01*
X700Y2109D02*
X707Y2109D01*
X0Y2108D02*
X7Y2108D01*
X700Y2108D02*
X707Y2108D01*
X0Y2107D02*
X7Y2107D01*
X700Y2107D02*
X707Y2107D01*
X0Y2106D02*
X7Y2106D01*
X700Y2106D02*
X707Y2106D01*
X0Y2105D02*
X7Y2105D01*
X700Y2105D02*
X707Y2105D01*
X0Y2104D02*
X7Y2104D01*
X700Y2104D02*
X707Y2104D01*
X0Y2103D02*
X7Y2103D01*
X700Y2103D02*
X707Y2103D01*
X0Y2102D02*
X7Y2102D01*
X700Y2102D02*
X707Y2102D01*
X0Y2101D02*
X7Y2101D01*
X700Y2101D02*
X707Y2101D01*
X0Y2100D02*
X7Y2100D01*
X700Y2100D02*
X707Y2100D01*
X0Y2099D02*
X7Y2099D01*
X700Y2099D02*
X707Y2099D01*
X0Y2098D02*
X7Y2098D01*
X700Y2098D02*
X707Y2098D01*
X0Y2097D02*
X7Y2097D01*
X700Y2097D02*
X707Y2097D01*
X0Y2096D02*
X7Y2096D01*
X700Y2096D02*
X707Y2096D01*
X0Y2095D02*
X7Y2095D01*
X700Y2095D02*
X707Y2095D01*
X0Y2094D02*
X7Y2094D01*
X700Y2094D02*
X707Y2094D01*
X0Y2093D02*
X7Y2093D01*
X700Y2093D02*
X707Y2093D01*
X0Y2092D02*
X7Y2092D01*
X700Y2092D02*
X707Y2092D01*
X0Y2091D02*
X7Y2091D01*
X700Y2091D02*
X707Y2091D01*
X0Y2090D02*
X7Y2090D01*
X700Y2090D02*
X707Y2090D01*
X0Y2089D02*
X7Y2089D01*
X700Y2089D02*
X707Y2089D01*
X0Y2088D02*
X7Y2088D01*
X700Y2088D02*
X707Y2088D01*
X0Y2087D02*
X7Y2087D01*
X700Y2087D02*
X707Y2087D01*
X0Y2086D02*
X7Y2086D01*
X700Y2086D02*
X707Y2086D01*
X0Y2085D02*
X7Y2085D01*
X700Y2085D02*
X707Y2085D01*
X0Y2084D02*
X7Y2084D01*
X700Y2084D02*
X707Y2084D01*
X0Y2083D02*
X7Y2083D01*
X700Y2083D02*
X707Y2083D01*
X0Y2082D02*
X7Y2082D01*
X700Y2082D02*
X707Y2082D01*
X0Y2081D02*
X7Y2081D01*
X700Y2081D02*
X707Y2081D01*
X0Y2080D02*
X7Y2080D01*
X700Y2080D02*
X707Y2080D01*
X0Y2079D02*
X7Y2079D01*
X700Y2079D02*
X707Y2079D01*
X0Y2078D02*
X7Y2078D01*
X700Y2078D02*
X707Y2078D01*
X0Y2077D02*
X7Y2077D01*
X700Y2077D02*
X707Y2077D01*
X0Y2076D02*
X7Y2076D01*
X700Y2076D02*
X707Y2076D01*
X0Y2075D02*
X7Y2075D01*
X700Y2075D02*
X707Y2075D01*
X0Y2074D02*
X7Y2074D01*
X700Y2074D02*
X707Y2074D01*
X0Y2073D02*
X7Y2073D01*
X700Y2073D02*
X707Y2073D01*
X0Y2072D02*
X7Y2072D01*
X700Y2072D02*
X707Y2072D01*
X0Y2071D02*
X7Y2071D01*
X700Y2071D02*
X707Y2071D01*
X0Y2070D02*
X7Y2070D01*
X700Y2070D02*
X707Y2070D01*
X0Y2069D02*
X7Y2069D01*
X700Y2069D02*
X707Y2069D01*
X0Y2068D02*
X7Y2068D01*
X700Y2068D02*
X707Y2068D01*
X0Y2067D02*
X7Y2067D01*
X700Y2067D02*
X707Y2067D01*
X0Y2066D02*
X7Y2066D01*
X700Y2066D02*
X707Y2066D01*
X0Y2065D02*
X7Y2065D01*
X700Y2065D02*
X707Y2065D01*
X0Y2064D02*
X7Y2064D01*
X700Y2064D02*
X707Y2064D01*
X0Y2063D02*
X7Y2063D01*
X700Y2063D02*
X707Y2063D01*
X0Y2062D02*
X7Y2062D01*
X700Y2062D02*
X707Y2062D01*
X0Y2061D02*
X7Y2061D01*
X700Y2061D02*
X707Y2061D01*
X0Y2060D02*
X7Y2060D01*
X700Y2060D02*
X707Y2060D01*
X0Y2059D02*
X7Y2059D01*
X700Y2059D02*
X707Y2059D01*
X0Y2058D02*
X7Y2058D01*
X700Y2058D02*
X707Y2058D01*
X0Y2057D02*
X7Y2057D01*
X700Y2057D02*
X707Y2057D01*
X0Y2056D02*
X7Y2056D01*
X700Y2056D02*
X707Y2056D01*
X0Y2055D02*
X7Y2055D01*
X700Y2055D02*
X707Y2055D01*
X0Y2054D02*
X7Y2054D01*
X700Y2054D02*
X707Y2054D01*
X0Y2053D02*
X7Y2053D01*
X700Y2053D02*
X707Y2053D01*
X0Y2052D02*
X7Y2052D01*
X700Y2052D02*
X707Y2052D01*
X0Y2051D02*
X7Y2051D01*
X700Y2051D02*
X707Y2051D01*
X0Y2050D02*
X7Y2050D01*
X700Y2050D02*
X707Y2050D01*
X0Y2049D02*
X7Y2049D01*
X700Y2049D02*
X707Y2049D01*
X0Y2048D02*
X7Y2048D01*
X700Y2048D02*
X707Y2048D01*
X0Y2047D02*
X7Y2047D01*
X700Y2047D02*
X707Y2047D01*
X0Y2046D02*
X7Y2046D01*
X700Y2046D02*
X707Y2046D01*
X0Y2045D02*
X7Y2045D01*
X700Y2045D02*
X707Y2045D01*
X0Y2044D02*
X7Y2044D01*
X700Y2044D02*
X707Y2044D01*
X0Y2043D02*
X7Y2043D01*
X700Y2043D02*
X707Y2043D01*
X0Y2042D02*
X7Y2042D01*
X700Y2042D02*
X707Y2042D01*
X0Y2041D02*
X7Y2041D01*
X700Y2041D02*
X707Y2041D01*
X0Y2040D02*
X7Y2040D01*
X700Y2040D02*
X707Y2040D01*
X0Y2039D02*
X7Y2039D01*
X700Y2039D02*
X707Y2039D01*
X0Y2038D02*
X7Y2038D01*
X700Y2038D02*
X707Y2038D01*
X0Y2037D02*
X7Y2037D01*
X700Y2037D02*
X707Y2037D01*
X0Y2036D02*
X7Y2036D01*
X700Y2036D02*
X707Y2036D01*
X0Y2035D02*
X7Y2035D01*
X700Y2035D02*
X707Y2035D01*
X0Y2034D02*
X7Y2034D01*
X700Y2034D02*
X707Y2034D01*
X0Y2033D02*
X7Y2033D01*
X700Y2033D02*
X707Y2033D01*
X0Y2032D02*
X7Y2032D01*
X700Y2032D02*
X707Y2032D01*
X0Y2031D02*
X7Y2031D01*
X700Y2031D02*
X707Y2031D01*
X0Y2030D02*
X7Y2030D01*
X700Y2030D02*
X707Y2030D01*
X0Y2029D02*
X7Y2029D01*
X700Y2029D02*
X707Y2029D01*
X0Y2028D02*
X7Y2028D01*
X700Y2028D02*
X707Y2028D01*
X0Y2027D02*
X7Y2027D01*
X700Y2027D02*
X707Y2027D01*
X0Y2026D02*
X7Y2026D01*
X700Y2026D02*
X707Y2026D01*
X0Y2025D02*
X7Y2025D01*
X700Y2025D02*
X707Y2025D01*
X0Y2024D02*
X7Y2024D01*
X700Y2024D02*
X707Y2024D01*
X0Y2023D02*
X7Y2023D01*
X700Y2023D02*
X707Y2023D01*
X0Y2022D02*
X7Y2022D01*
X700Y2022D02*
X707Y2022D01*
X0Y2021D02*
X7Y2021D01*
X700Y2021D02*
X707Y2021D01*
X0Y2020D02*
X7Y2020D01*
X700Y2020D02*
X707Y2020D01*
X0Y2019D02*
X7Y2019D01*
X700Y2019D02*
X707Y2019D01*
X0Y2018D02*
X7Y2018D01*
X700Y2018D02*
X707Y2018D01*
X0Y2017D02*
X7Y2017D01*
X700Y2017D02*
X707Y2017D01*
X0Y2016D02*
X7Y2016D01*
X700Y2016D02*
X707Y2016D01*
X0Y2015D02*
X7Y2015D01*
X700Y2015D02*
X707Y2015D01*
X0Y2014D02*
X7Y2014D01*
X700Y2014D02*
X707Y2014D01*
X0Y2013D02*
X7Y2013D01*
X700Y2013D02*
X707Y2013D01*
X0Y2012D02*
X7Y2012D01*
X700Y2012D02*
X707Y2012D01*
X0Y2011D02*
X7Y2011D01*
X700Y2011D02*
X707Y2011D01*
X0Y2010D02*
X7Y2010D01*
X700Y2010D02*
X707Y2010D01*
X0Y2009D02*
X7Y2009D01*
X700Y2009D02*
X707Y2009D01*
X0Y2008D02*
X7Y2008D01*
X700Y2008D02*
X707Y2008D01*
X0Y2007D02*
X7Y2007D01*
X700Y2007D02*
X707Y2007D01*
X0Y2006D02*
X7Y2006D01*
X700Y2006D02*
X707Y2006D01*
X0Y2005D02*
X7Y2005D01*
X700Y2005D02*
X707Y2005D01*
X0Y2004D02*
X7Y2004D01*
X700Y2004D02*
X707Y2004D01*
X0Y2003D02*
X7Y2003D01*
X700Y2003D02*
X707Y2003D01*
X0Y2002D02*
X7Y2002D01*
X700Y2002D02*
X707Y2002D01*
X0Y2001D02*
X7Y2001D01*
X700Y2001D02*
X707Y2001D01*
X0Y2000D02*
X7Y2000D01*
X700Y2000D02*
X707Y2000D01*
X0Y1999D02*
X7Y1999D01*
X700Y1999D02*
X707Y1999D01*
X0Y1998D02*
X7Y1998D01*
X700Y1998D02*
X707Y1998D01*
X0Y1997D02*
X7Y1997D01*
X700Y1997D02*
X707Y1997D01*
X0Y1996D02*
X7Y1996D01*
X700Y1996D02*
X707Y1996D01*
X0Y1995D02*
X7Y1995D01*
X700Y1995D02*
X707Y1995D01*
X0Y1994D02*
X7Y1994D01*
X700Y1994D02*
X707Y1994D01*
X0Y1993D02*
X7Y1993D01*
X700Y1993D02*
X707Y1993D01*
X0Y1992D02*
X7Y1992D01*
X700Y1992D02*
X707Y1992D01*
X0Y1991D02*
X7Y1991D01*
X700Y1991D02*
X707Y1991D01*
X0Y1990D02*
X7Y1990D01*
X700Y1990D02*
X707Y1990D01*
X0Y1989D02*
X7Y1989D01*
X700Y1989D02*
X707Y1989D01*
X0Y1988D02*
X7Y1988D01*
X700Y1988D02*
X707Y1988D01*
X0Y1987D02*
X7Y1987D01*
X700Y1987D02*
X707Y1987D01*
X0Y1986D02*
X7Y1986D01*
X700Y1986D02*
X707Y1986D01*
X0Y1985D02*
X7Y1985D01*
X700Y1985D02*
X707Y1985D01*
X0Y1984D02*
X7Y1984D01*
X700Y1984D02*
X707Y1984D01*
X0Y1983D02*
X7Y1983D01*
X700Y1983D02*
X707Y1983D01*
X0Y1982D02*
X7Y1982D01*
X700Y1982D02*
X707Y1982D01*
X0Y1981D02*
X7Y1981D01*
X700Y1981D02*
X707Y1981D01*
X0Y1980D02*
X7Y1980D01*
X700Y1980D02*
X707Y1980D01*
X0Y1979D02*
X7Y1979D01*
X700Y1979D02*
X707Y1979D01*
X0Y1978D02*
X7Y1978D01*
X700Y1978D02*
X707Y1978D01*
X0Y1977D02*
X7Y1977D01*
X700Y1977D02*
X707Y1977D01*
X0Y1976D02*
X7Y1976D01*
X700Y1976D02*
X707Y1976D01*
X0Y1975D02*
X7Y1975D01*
X700Y1975D02*
X707Y1975D01*
X0Y1974D02*
X7Y1974D01*
X700Y1974D02*
X707Y1974D01*
X0Y1973D02*
X7Y1973D01*
X700Y1973D02*
X707Y1973D01*
X0Y1972D02*
X7Y1972D01*
X700Y1972D02*
X707Y1972D01*
X0Y1971D02*
X7Y1971D01*
X700Y1971D02*
X707Y1971D01*
X0Y1970D02*
X7Y1970D01*
X700Y1970D02*
X707Y1970D01*
X0Y1969D02*
X7Y1969D01*
X700Y1969D02*
X707Y1969D01*
X0Y1968D02*
X7Y1968D01*
X700Y1968D02*
X707Y1968D01*
X0Y1967D02*
X7Y1967D01*
X700Y1967D02*
X707Y1967D01*
X0Y1966D02*
X7Y1966D01*
X700Y1966D02*
X707Y1966D01*
X0Y1965D02*
X7Y1965D01*
X700Y1965D02*
X707Y1965D01*
X0Y1964D02*
X7Y1964D01*
X700Y1964D02*
X707Y1964D01*
X0Y1963D02*
X7Y1963D01*
X700Y1963D02*
X707Y1963D01*
X0Y1962D02*
X7Y1962D01*
X700Y1962D02*
X707Y1962D01*
X0Y1961D02*
X7Y1961D01*
X700Y1961D02*
X707Y1961D01*
X0Y1960D02*
X7Y1960D01*
X700Y1960D02*
X707Y1960D01*
X0Y1959D02*
X7Y1959D01*
X700Y1959D02*
X707Y1959D01*
X0Y1958D02*
X7Y1958D01*
X700Y1958D02*
X707Y1958D01*
X0Y1957D02*
X7Y1957D01*
X700Y1957D02*
X707Y1957D01*
X0Y1956D02*
X7Y1956D01*
X700Y1956D02*
X707Y1956D01*
X0Y1955D02*
X7Y1955D01*
X700Y1955D02*
X707Y1955D01*
X0Y1954D02*
X7Y1954D01*
X700Y1954D02*
X707Y1954D01*
X0Y1953D02*
X7Y1953D01*
X700Y1953D02*
X707Y1953D01*
X0Y1952D02*
X7Y1952D01*
X700Y1952D02*
X707Y1952D01*
X0Y1951D02*
X7Y1951D01*
X700Y1951D02*
X707Y1951D01*
X0Y1950D02*
X7Y1950D01*
X700Y1950D02*
X707Y1950D01*
X0Y1949D02*
X7Y1949D01*
X700Y1949D02*
X707Y1949D01*
X0Y1948D02*
X7Y1948D01*
X700Y1948D02*
X707Y1948D01*
X0Y1947D02*
X7Y1947D01*
X700Y1947D02*
X707Y1947D01*
X0Y1946D02*
X7Y1946D01*
X700Y1946D02*
X707Y1946D01*
X0Y1945D02*
X7Y1945D01*
X700Y1945D02*
X707Y1945D01*
X0Y1944D02*
X7Y1944D01*
X700Y1944D02*
X707Y1944D01*
X0Y1943D02*
X7Y1943D01*
X700Y1943D02*
X707Y1943D01*
X0Y1942D02*
X7Y1942D01*
X700Y1942D02*
X707Y1942D01*
X0Y1941D02*
X7Y1941D01*
X700Y1941D02*
X707Y1941D01*
X0Y1940D02*
X7Y1940D01*
X700Y1940D02*
X707Y1940D01*
X0Y1939D02*
X7Y1939D01*
X700Y1939D02*
X707Y1939D01*
X0Y1938D02*
X7Y1938D01*
X700Y1938D02*
X707Y1938D01*
X0Y1937D02*
X7Y1937D01*
X700Y1937D02*
X707Y1937D01*
X0Y1936D02*
X7Y1936D01*
X700Y1936D02*
X707Y1936D01*
X0Y1935D02*
X7Y1935D01*
X700Y1935D02*
X707Y1935D01*
X0Y1934D02*
X7Y1934D01*
X700Y1934D02*
X707Y1934D01*
X0Y1933D02*
X7Y1933D01*
X700Y1933D02*
X707Y1933D01*
X0Y1932D02*
X7Y1932D01*
X700Y1932D02*
X707Y1932D01*
X0Y1931D02*
X7Y1931D01*
X700Y1931D02*
X707Y1931D01*
X0Y1930D02*
X7Y1930D01*
X700Y1930D02*
X707Y1930D01*
X0Y1929D02*
X7Y1929D01*
X700Y1929D02*
X707Y1929D01*
X0Y1928D02*
X7Y1928D01*
X700Y1928D02*
X707Y1928D01*
X0Y1927D02*
X7Y1927D01*
X700Y1927D02*
X707Y1927D01*
X0Y1926D02*
X7Y1926D01*
X700Y1926D02*
X707Y1926D01*
X0Y1925D02*
X7Y1925D01*
X700Y1925D02*
X707Y1925D01*
X0Y1924D02*
X7Y1924D01*
X700Y1924D02*
X707Y1924D01*
X0Y1923D02*
X7Y1923D01*
X700Y1923D02*
X707Y1923D01*
X0Y1922D02*
X7Y1922D01*
X700Y1922D02*
X707Y1922D01*
X0Y1921D02*
X7Y1921D01*
X700Y1921D02*
X707Y1921D01*
X0Y1920D02*
X7Y1920D01*
X700Y1920D02*
X707Y1920D01*
X0Y1919D02*
X7Y1919D01*
X700Y1919D02*
X707Y1919D01*
X0Y1918D02*
X7Y1918D01*
X700Y1918D02*
X707Y1918D01*
X0Y1917D02*
X7Y1917D01*
X700Y1917D02*
X707Y1917D01*
X0Y1916D02*
X7Y1916D01*
X700Y1916D02*
X707Y1916D01*
X0Y1915D02*
X7Y1915D01*
X700Y1915D02*
X707Y1915D01*
X0Y1914D02*
X7Y1914D01*
X700Y1914D02*
X707Y1914D01*
X0Y1913D02*
X7Y1913D01*
X700Y1913D02*
X707Y1913D01*
X0Y1912D02*
X7Y1912D01*
X700Y1912D02*
X707Y1912D01*
X0Y1911D02*
X7Y1911D01*
X700Y1911D02*
X707Y1911D01*
X0Y1910D02*
X7Y1910D01*
X700Y1910D02*
X707Y1910D01*
X0Y1909D02*
X7Y1909D01*
X700Y1909D02*
X707Y1909D01*
X0Y1908D02*
X7Y1908D01*
X700Y1908D02*
X707Y1908D01*
X0Y1907D02*
X7Y1907D01*
X700Y1907D02*
X707Y1907D01*
X0Y1906D02*
X7Y1906D01*
X700Y1906D02*
X707Y1906D01*
X0Y1905D02*
X7Y1905D01*
X700Y1905D02*
X707Y1905D01*
X0Y1904D02*
X7Y1904D01*
X700Y1904D02*
X707Y1904D01*
X0Y1903D02*
X7Y1903D01*
X700Y1903D02*
X707Y1903D01*
X0Y1902D02*
X7Y1902D01*
X700Y1902D02*
X707Y1902D01*
X0Y1901D02*
X7Y1901D01*
X700Y1901D02*
X707Y1901D01*
X0Y1900D02*
X7Y1900D01*
X700Y1900D02*
X707Y1900D01*
X0Y1899D02*
X7Y1899D01*
X700Y1899D02*
X707Y1899D01*
X0Y1898D02*
X7Y1898D01*
X700Y1898D02*
X707Y1898D01*
X0Y1897D02*
X7Y1897D01*
X700Y1897D02*
X707Y1897D01*
X0Y1896D02*
X7Y1896D01*
X700Y1896D02*
X707Y1896D01*
X0Y1895D02*
X7Y1895D01*
X700Y1895D02*
X707Y1895D01*
X0Y1894D02*
X7Y1894D01*
X700Y1894D02*
X707Y1894D01*
X0Y1893D02*
X7Y1893D01*
X700Y1893D02*
X707Y1893D01*
X0Y1892D02*
X7Y1892D01*
X700Y1892D02*
X707Y1892D01*
X0Y1891D02*
X7Y1891D01*
X700Y1891D02*
X707Y1891D01*
X0Y1890D02*
X7Y1890D01*
X700Y1890D02*
X707Y1890D01*
X0Y1889D02*
X7Y1889D01*
X700Y1889D02*
X707Y1889D01*
X0Y1888D02*
X7Y1888D01*
X700Y1888D02*
X707Y1888D01*
X0Y1887D02*
X7Y1887D01*
X700Y1887D02*
X707Y1887D01*
X0Y1886D02*
X7Y1886D01*
X700Y1886D02*
X707Y1886D01*
X0Y1885D02*
X7Y1885D01*
X700Y1885D02*
X707Y1885D01*
X0Y1884D02*
X7Y1884D01*
X700Y1884D02*
X707Y1884D01*
X0Y1883D02*
X7Y1883D01*
X700Y1883D02*
X707Y1883D01*
X0Y1882D02*
X7Y1882D01*
X700Y1882D02*
X707Y1882D01*
X0Y1881D02*
X7Y1881D01*
X700Y1881D02*
X707Y1881D01*
X0Y1880D02*
X7Y1880D01*
X700Y1880D02*
X707Y1880D01*
X0Y1879D02*
X7Y1879D01*
X700Y1879D02*
X707Y1879D01*
X0Y1878D02*
X7Y1878D01*
X700Y1878D02*
X707Y1878D01*
X0Y1877D02*
X7Y1877D01*
X700Y1877D02*
X707Y1877D01*
X0Y1876D02*
X7Y1876D01*
X700Y1876D02*
X707Y1876D01*
X0Y1875D02*
X7Y1875D01*
X700Y1875D02*
X707Y1875D01*
X0Y1874D02*
X7Y1874D01*
X255Y1874D02*
X287Y1874D01*
X305Y1874D02*
X314Y1874D01*
X334Y1874D02*
X337Y1874D01*
X369Y1874D02*
X387Y1874D01*
X406Y1874D02*
X425Y1874D01*
X700Y1874D02*
X707Y1874D01*
X0Y1873D02*
X7Y1873D01*
X255Y1873D02*
X288Y1873D01*
X305Y1873D02*
X314Y1873D01*
X333Y1873D02*
X338Y1873D01*
X367Y1873D02*
X388Y1873D01*
X405Y1873D02*
X425Y1873D01*
X700Y1873D02*
X707Y1873D01*
X0Y1872D02*
X7Y1872D01*
X255Y1872D02*
X289Y1872D01*
X305Y1872D02*
X315Y1872D01*
X333Y1872D02*
X339Y1872D01*
X366Y1872D02*
X389Y1872D01*
X405Y1872D02*
X425Y1872D01*
X700Y1872D02*
X707Y1872D01*
X0Y1871D02*
X7Y1871D01*
X255Y1871D02*
X289Y1871D01*
X305Y1871D02*
X315Y1871D01*
X333Y1871D02*
X339Y1871D01*
X365Y1871D02*
X389Y1871D01*
X405Y1871D02*
X425Y1871D01*
X700Y1871D02*
X707Y1871D01*
X0Y1870D02*
X7Y1870D01*
X255Y1870D02*
X288Y1870D01*
X305Y1870D02*
X315Y1870D01*
X333Y1870D02*
X339Y1870D01*
X364Y1870D02*
X388Y1870D01*
X405Y1870D02*
X425Y1870D01*
X700Y1870D02*
X707Y1870D01*
X0Y1869D02*
X7Y1869D01*
X255Y1869D02*
X288Y1869D01*
X305Y1869D02*
X316Y1869D01*
X333Y1869D02*
X339Y1869D01*
X364Y1869D02*
X388Y1869D01*
X406Y1869D02*
X425Y1869D01*
X700Y1869D02*
X707Y1869D01*
X0Y1868D02*
X7Y1868D01*
X255Y1868D02*
X286Y1868D01*
X305Y1868D02*
X316Y1868D01*
X333Y1868D02*
X339Y1868D01*
X363Y1868D02*
X386Y1868D01*
X407Y1868D02*
X425Y1868D01*
X700Y1868D02*
X707Y1868D01*
X0Y1867D02*
X7Y1867D01*
X255Y1867D02*
X261Y1867D01*
X305Y1867D02*
X317Y1867D01*
X333Y1867D02*
X339Y1867D01*
X363Y1867D02*
X370Y1867D01*
X419Y1867D02*
X425Y1867D01*
X700Y1867D02*
X707Y1867D01*
X0Y1866D02*
X7Y1866D01*
X255Y1866D02*
X261Y1866D01*
X305Y1866D02*
X317Y1866D01*
X333Y1866D02*
X339Y1866D01*
X362Y1866D02*
X369Y1866D01*
X419Y1866D02*
X425Y1866D01*
X700Y1866D02*
X707Y1866D01*
X0Y1865D02*
X7Y1865D01*
X255Y1865D02*
X261Y1865D01*
X305Y1865D02*
X318Y1865D01*
X333Y1865D02*
X339Y1865D01*
X362Y1865D02*
X369Y1865D01*
X419Y1865D02*
X425Y1865D01*
X700Y1865D02*
X707Y1865D01*
X0Y1864D02*
X7Y1864D01*
X255Y1864D02*
X261Y1864D01*
X305Y1864D02*
X318Y1864D01*
X333Y1864D02*
X339Y1864D01*
X361Y1864D02*
X368Y1864D01*
X419Y1864D02*
X425Y1864D01*
X700Y1864D02*
X707Y1864D01*
X0Y1863D02*
X7Y1863D01*
X255Y1863D02*
X261Y1863D01*
X305Y1863D02*
X319Y1863D01*
X333Y1863D02*
X339Y1863D01*
X361Y1863D02*
X368Y1863D01*
X419Y1863D02*
X425Y1863D01*
X700Y1863D02*
X707Y1863D01*
X0Y1862D02*
X7Y1862D01*
X255Y1862D02*
X261Y1862D01*
X305Y1862D02*
X319Y1862D01*
X333Y1862D02*
X339Y1862D01*
X360Y1862D02*
X367Y1862D01*
X419Y1862D02*
X425Y1862D01*
X700Y1862D02*
X707Y1862D01*
X0Y1861D02*
X7Y1861D01*
X255Y1861D02*
X261Y1861D01*
X305Y1861D02*
X311Y1861D01*
X313Y1861D02*
X319Y1861D01*
X333Y1861D02*
X339Y1861D01*
X360Y1861D02*
X367Y1861D01*
X419Y1861D02*
X425Y1861D01*
X700Y1861D02*
X707Y1861D01*
X0Y1860D02*
X7Y1860D01*
X255Y1860D02*
X261Y1860D01*
X305Y1860D02*
X311Y1860D01*
X313Y1860D02*
X320Y1860D01*
X333Y1860D02*
X339Y1860D01*
X359Y1860D02*
X366Y1860D01*
X419Y1860D02*
X425Y1860D01*
X700Y1860D02*
X707Y1860D01*
X0Y1859D02*
X7Y1859D01*
X255Y1859D02*
X261Y1859D01*
X305Y1859D02*
X311Y1859D01*
X314Y1859D02*
X320Y1859D01*
X333Y1859D02*
X339Y1859D01*
X359Y1859D02*
X366Y1859D01*
X419Y1859D02*
X425Y1859D01*
X700Y1859D02*
X707Y1859D01*
X0Y1858D02*
X7Y1858D01*
X255Y1858D02*
X261Y1858D01*
X305Y1858D02*
X311Y1858D01*
X314Y1858D02*
X321Y1858D01*
X333Y1858D02*
X339Y1858D01*
X358Y1858D02*
X365Y1858D01*
X419Y1858D02*
X425Y1858D01*
X700Y1858D02*
X707Y1858D01*
X0Y1857D02*
X7Y1857D01*
X255Y1857D02*
X261Y1857D01*
X305Y1857D02*
X311Y1857D01*
X314Y1857D02*
X321Y1857D01*
X333Y1857D02*
X339Y1857D01*
X358Y1857D02*
X365Y1857D01*
X419Y1857D02*
X425Y1857D01*
X700Y1857D02*
X707Y1857D01*
X0Y1856D02*
X7Y1856D01*
X255Y1856D02*
X261Y1856D01*
X305Y1856D02*
X311Y1856D01*
X315Y1856D02*
X322Y1856D01*
X333Y1856D02*
X339Y1856D01*
X357Y1856D02*
X364Y1856D01*
X419Y1856D02*
X425Y1856D01*
X700Y1856D02*
X707Y1856D01*
X0Y1855D02*
X7Y1855D01*
X255Y1855D02*
X261Y1855D01*
X305Y1855D02*
X311Y1855D01*
X315Y1855D02*
X322Y1855D01*
X333Y1855D02*
X339Y1855D01*
X357Y1855D02*
X364Y1855D01*
X419Y1855D02*
X425Y1855D01*
X700Y1855D02*
X707Y1855D01*
X0Y1854D02*
X7Y1854D01*
X255Y1854D02*
X261Y1854D01*
X305Y1854D02*
X311Y1854D01*
X316Y1854D02*
X322Y1854D01*
X333Y1854D02*
X339Y1854D01*
X356Y1854D02*
X363Y1854D01*
X419Y1854D02*
X425Y1854D01*
X700Y1854D02*
X707Y1854D01*
X0Y1853D02*
X7Y1853D01*
X255Y1853D02*
X261Y1853D01*
X305Y1853D02*
X311Y1853D01*
X316Y1853D02*
X323Y1853D01*
X333Y1853D02*
X339Y1853D01*
X356Y1853D02*
X363Y1853D01*
X419Y1853D02*
X425Y1853D01*
X700Y1853D02*
X707Y1853D01*
X0Y1852D02*
X7Y1852D01*
X255Y1852D02*
X261Y1852D01*
X305Y1852D02*
X311Y1852D01*
X317Y1852D02*
X323Y1852D01*
X333Y1852D02*
X339Y1852D01*
X356Y1852D02*
X362Y1852D01*
X419Y1852D02*
X425Y1852D01*
X700Y1852D02*
X707Y1852D01*
X0Y1851D02*
X7Y1851D01*
X255Y1851D02*
X273Y1851D01*
X305Y1851D02*
X311Y1851D01*
X317Y1851D02*
X324Y1851D01*
X333Y1851D02*
X339Y1851D01*
X355Y1851D02*
X362Y1851D01*
X419Y1851D02*
X425Y1851D01*
X700Y1851D02*
X707Y1851D01*
X0Y1850D02*
X7Y1850D01*
X255Y1850D02*
X274Y1850D01*
X305Y1850D02*
X311Y1850D01*
X318Y1850D02*
X324Y1850D01*
X333Y1850D02*
X339Y1850D01*
X355Y1850D02*
X361Y1850D01*
X419Y1850D02*
X425Y1850D01*
X700Y1850D02*
X707Y1850D01*
X0Y1849D02*
X7Y1849D01*
X255Y1849D02*
X275Y1849D01*
X305Y1849D02*
X311Y1849D01*
X318Y1849D02*
X325Y1849D01*
X333Y1849D02*
X339Y1849D01*
X355Y1849D02*
X361Y1849D01*
X419Y1849D02*
X425Y1849D01*
X700Y1849D02*
X707Y1849D01*
X0Y1848D02*
X7Y1848D01*
X255Y1848D02*
X275Y1848D01*
X305Y1848D02*
X311Y1848D01*
X318Y1848D02*
X325Y1848D01*
X333Y1848D02*
X339Y1848D01*
X355Y1848D02*
X361Y1848D01*
X419Y1848D02*
X425Y1848D01*
X700Y1848D02*
X707Y1848D01*
X0Y1847D02*
X7Y1847D01*
X255Y1847D02*
X275Y1847D01*
X305Y1847D02*
X311Y1847D01*
X319Y1847D02*
X326Y1847D01*
X333Y1847D02*
X339Y1847D01*
X355Y1847D02*
X361Y1847D01*
X419Y1847D02*
X425Y1847D01*
X700Y1847D02*
X707Y1847D01*
X0Y1846D02*
X7Y1846D01*
X255Y1846D02*
X274Y1846D01*
X305Y1846D02*
X311Y1846D01*
X319Y1846D02*
X326Y1846D01*
X333Y1846D02*
X339Y1846D01*
X355Y1846D02*
X361Y1846D01*
X419Y1846D02*
X425Y1846D01*
X700Y1846D02*
X707Y1846D01*
X0Y1845D02*
X7Y1845D01*
X255Y1845D02*
X274Y1845D01*
X305Y1845D02*
X311Y1845D01*
X320Y1845D02*
X326Y1845D01*
X333Y1845D02*
X339Y1845D01*
X355Y1845D02*
X361Y1845D01*
X419Y1845D02*
X425Y1845D01*
X435Y1845D02*
X437Y1845D01*
X700Y1845D02*
X707Y1845D01*
X0Y1844D02*
X7Y1844D01*
X255Y1844D02*
X261Y1844D01*
X305Y1844D02*
X311Y1844D01*
X320Y1844D02*
X327Y1844D01*
X333Y1844D02*
X339Y1844D01*
X356Y1844D02*
X362Y1844D01*
X419Y1844D02*
X425Y1844D01*
X433Y1844D02*
X438Y1844D01*
X700Y1844D02*
X707Y1844D01*
X0Y1843D02*
X7Y1843D01*
X255Y1843D02*
X261Y1843D01*
X305Y1843D02*
X311Y1843D01*
X321Y1843D02*
X327Y1843D01*
X333Y1843D02*
X339Y1843D01*
X356Y1843D02*
X362Y1843D01*
X419Y1843D02*
X425Y1843D01*
X433Y1843D02*
X438Y1843D01*
X700Y1843D02*
X707Y1843D01*
X0Y1842D02*
X7Y1842D01*
X255Y1842D02*
X261Y1842D01*
X305Y1842D02*
X311Y1842D01*
X321Y1842D02*
X328Y1842D01*
X333Y1842D02*
X339Y1842D01*
X356Y1842D02*
X363Y1842D01*
X419Y1842D02*
X425Y1842D01*
X433Y1842D02*
X439Y1842D01*
X700Y1842D02*
X707Y1842D01*
X0Y1841D02*
X7Y1841D01*
X255Y1841D02*
X261Y1841D01*
X305Y1841D02*
X311Y1841D01*
X321Y1841D02*
X328Y1841D01*
X333Y1841D02*
X339Y1841D01*
X357Y1841D02*
X363Y1841D01*
X419Y1841D02*
X425Y1841D01*
X433Y1841D02*
X439Y1841D01*
X700Y1841D02*
X707Y1841D01*
X0Y1840D02*
X7Y1840D01*
X255Y1840D02*
X261Y1840D01*
X305Y1840D02*
X311Y1840D01*
X322Y1840D02*
X329Y1840D01*
X333Y1840D02*
X339Y1840D01*
X357Y1840D02*
X364Y1840D01*
X419Y1840D02*
X425Y1840D01*
X433Y1840D02*
X439Y1840D01*
X700Y1840D02*
X707Y1840D01*
X0Y1839D02*
X7Y1839D01*
X255Y1839D02*
X261Y1839D01*
X305Y1839D02*
X311Y1839D01*
X322Y1839D02*
X329Y1839D01*
X333Y1839D02*
X339Y1839D01*
X357Y1839D02*
X364Y1839D01*
X419Y1839D02*
X425Y1839D01*
X433Y1839D02*
X439Y1839D01*
X700Y1839D02*
X707Y1839D01*
X0Y1838D02*
X7Y1838D01*
X255Y1838D02*
X261Y1838D01*
X305Y1838D02*
X311Y1838D01*
X323Y1838D02*
X329Y1838D01*
X333Y1838D02*
X339Y1838D01*
X358Y1838D02*
X365Y1838D01*
X419Y1838D02*
X425Y1838D01*
X433Y1838D02*
X439Y1838D01*
X700Y1838D02*
X707Y1838D01*
X0Y1837D02*
X7Y1837D01*
X255Y1837D02*
X261Y1837D01*
X305Y1837D02*
X311Y1837D01*
X323Y1837D02*
X330Y1837D01*
X333Y1837D02*
X339Y1837D01*
X358Y1837D02*
X365Y1837D01*
X419Y1837D02*
X425Y1837D01*
X433Y1837D02*
X439Y1837D01*
X700Y1837D02*
X707Y1837D01*
X0Y1836D02*
X7Y1836D01*
X255Y1836D02*
X261Y1836D01*
X305Y1836D02*
X311Y1836D01*
X324Y1836D02*
X330Y1836D01*
X333Y1836D02*
X339Y1836D01*
X359Y1836D02*
X366Y1836D01*
X419Y1836D02*
X425Y1836D01*
X433Y1836D02*
X439Y1836D01*
X700Y1836D02*
X707Y1836D01*
X0Y1835D02*
X7Y1835D01*
X255Y1835D02*
X261Y1835D01*
X305Y1835D02*
X311Y1835D01*
X324Y1835D02*
X331Y1835D01*
X333Y1835D02*
X339Y1835D01*
X359Y1835D02*
X366Y1835D01*
X419Y1835D02*
X425Y1835D01*
X433Y1835D02*
X439Y1835D01*
X700Y1835D02*
X707Y1835D01*
X0Y1834D02*
X7Y1834D01*
X255Y1834D02*
X261Y1834D01*
X305Y1834D02*
X311Y1834D01*
X325Y1834D02*
X339Y1834D01*
X360Y1834D02*
X367Y1834D01*
X419Y1834D02*
X425Y1834D01*
X433Y1834D02*
X439Y1834D01*
X700Y1834D02*
X707Y1834D01*
X0Y1833D02*
X7Y1833D01*
X255Y1833D02*
X261Y1833D01*
X305Y1833D02*
X311Y1833D01*
X325Y1833D02*
X339Y1833D01*
X360Y1833D02*
X367Y1833D01*
X419Y1833D02*
X425Y1833D01*
X433Y1833D02*
X439Y1833D01*
X700Y1833D02*
X707Y1833D01*
X0Y1832D02*
X7Y1832D01*
X255Y1832D02*
X261Y1832D01*
X305Y1832D02*
X311Y1832D01*
X325Y1832D02*
X339Y1832D01*
X361Y1832D02*
X368Y1832D01*
X419Y1832D02*
X425Y1832D01*
X433Y1832D02*
X439Y1832D01*
X700Y1832D02*
X707Y1832D01*
X0Y1831D02*
X7Y1831D01*
X255Y1831D02*
X261Y1831D01*
X305Y1831D02*
X311Y1831D01*
X326Y1831D02*
X339Y1831D01*
X361Y1831D02*
X368Y1831D01*
X419Y1831D02*
X425Y1831D01*
X433Y1831D02*
X439Y1831D01*
X700Y1831D02*
X707Y1831D01*
X0Y1830D02*
X7Y1830D01*
X255Y1830D02*
X261Y1830D01*
X305Y1830D02*
X311Y1830D01*
X326Y1830D02*
X339Y1830D01*
X362Y1830D02*
X369Y1830D01*
X419Y1830D02*
X425Y1830D01*
X433Y1830D02*
X439Y1830D01*
X700Y1830D02*
X707Y1830D01*
X0Y1829D02*
X7Y1829D01*
X255Y1829D02*
X261Y1829D01*
X305Y1829D02*
X311Y1829D01*
X327Y1829D02*
X339Y1829D01*
X362Y1829D02*
X369Y1829D01*
X419Y1829D02*
X425Y1829D01*
X433Y1829D02*
X439Y1829D01*
X700Y1829D02*
X707Y1829D01*
X0Y1828D02*
X7Y1828D01*
X255Y1828D02*
X261Y1828D01*
X305Y1828D02*
X311Y1828D01*
X327Y1828D02*
X339Y1828D01*
X363Y1828D02*
X371Y1828D01*
X419Y1828D02*
X425Y1828D01*
X433Y1828D02*
X439Y1828D01*
X700Y1828D02*
X707Y1828D01*
X0Y1827D02*
X7Y1827D01*
X255Y1827D02*
X287Y1827D01*
X305Y1827D02*
X311Y1827D01*
X328Y1827D02*
X339Y1827D01*
X364Y1827D02*
X387Y1827D01*
X407Y1827D02*
X439Y1827D01*
X700Y1827D02*
X707Y1827D01*
X0Y1826D02*
X7Y1826D01*
X255Y1826D02*
X288Y1826D01*
X305Y1826D02*
X311Y1826D01*
X328Y1826D02*
X339Y1826D01*
X364Y1826D02*
X388Y1826D01*
X406Y1826D02*
X439Y1826D01*
X700Y1826D02*
X707Y1826D01*
X0Y1825D02*
X7Y1825D01*
X255Y1825D02*
X289Y1825D01*
X305Y1825D02*
X311Y1825D01*
X328Y1825D02*
X339Y1825D01*
X365Y1825D02*
X389Y1825D01*
X405Y1825D02*
X439Y1825D01*
X700Y1825D02*
X707Y1825D01*
X0Y1824D02*
X7Y1824D01*
X255Y1824D02*
X289Y1824D01*
X305Y1824D02*
X311Y1824D01*
X329Y1824D02*
X339Y1824D01*
X366Y1824D02*
X389Y1824D01*
X405Y1824D02*
X439Y1824D01*
X700Y1824D02*
X707Y1824D01*
X0Y1823D02*
X7Y1823D01*
X255Y1823D02*
X289Y1823D01*
X305Y1823D02*
X311Y1823D01*
X329Y1823D02*
X339Y1823D01*
X367Y1823D02*
X388Y1823D01*
X405Y1823D02*
X438Y1823D01*
X700Y1823D02*
X707Y1823D01*
X0Y1822D02*
X7Y1822D01*
X255Y1822D02*
X288Y1822D01*
X306Y1822D02*
X310Y1822D01*
X330Y1822D02*
X339Y1822D01*
X368Y1822D02*
X388Y1822D01*
X406Y1822D02*
X438Y1822D01*
X700Y1822D02*
X707Y1822D01*
X0Y1821D02*
X7Y1821D01*
X255Y1821D02*
X287Y1821D01*
X307Y1821D02*
X309Y1821D01*
X330Y1821D02*
X339Y1821D01*
X370Y1821D02*
X387Y1821D01*
X407Y1821D02*
X437Y1821D01*
X700Y1821D02*
X707Y1821D01*
X0Y1820D02*
X7Y1820D01*
X700Y1820D02*
X707Y1820D01*
X0Y1819D02*
X7Y1819D01*
X700Y1819D02*
X707Y1819D01*
X0Y1818D02*
X7Y1818D01*
X700Y1818D02*
X707Y1818D01*
X0Y1817D02*
X7Y1817D01*
X700Y1817D02*
X707Y1817D01*
X0Y1816D02*
X7Y1816D01*
X700Y1816D02*
X707Y1816D01*
X0Y1815D02*
X7Y1815D01*
X700Y1815D02*
X707Y1815D01*
X0Y1814D02*
X7Y1814D01*
X700Y1814D02*
X707Y1814D01*
X0Y1813D02*
X7Y1813D01*
X700Y1813D02*
X707Y1813D01*
X0Y1812D02*
X7Y1812D01*
X700Y1812D02*
X707Y1812D01*
X0Y1811D02*
X7Y1811D01*
X700Y1811D02*
X707Y1811D01*
X0Y1810D02*
X7Y1810D01*
X700Y1810D02*
X707Y1810D01*
X0Y1809D02*
X7Y1809D01*
X700Y1809D02*
X707Y1809D01*
X0Y1808D02*
X7Y1808D01*
X700Y1808D02*
X707Y1808D01*
X0Y1807D02*
X7Y1807D01*
X700Y1807D02*
X707Y1807D01*
X0Y1806D02*
X7Y1806D01*
X700Y1806D02*
X707Y1806D01*
X0Y1805D02*
X7Y1805D01*
X700Y1805D02*
X707Y1805D01*
X0Y1804D02*
X7Y1804D01*
X700Y1804D02*
X707Y1804D01*
X0Y1803D02*
X7Y1803D01*
X700Y1803D02*
X707Y1803D01*
X0Y1802D02*
X7Y1802D01*
X700Y1802D02*
X707Y1802D01*
X0Y1801D02*
X7Y1801D01*
X700Y1801D02*
X707Y1801D01*
X0Y1800D02*
X7Y1800D01*
X700Y1800D02*
X707Y1800D01*
X0Y1799D02*
X7Y1799D01*
X700Y1799D02*
X707Y1799D01*
X0Y1798D02*
X7Y1798D01*
X700Y1798D02*
X707Y1798D01*
X0Y1797D02*
X7Y1797D01*
X700Y1797D02*
X707Y1797D01*
X0Y1796D02*
X7Y1796D01*
X700Y1796D02*
X707Y1796D01*
X0Y1795D02*
X7Y1795D01*
X700Y1795D02*
X707Y1795D01*
X0Y1794D02*
X7Y1794D01*
X700Y1794D02*
X707Y1794D01*
X0Y1793D02*
X7Y1793D01*
X700Y1793D02*
X707Y1793D01*
X0Y1792D02*
X7Y1792D01*
X700Y1792D02*
X707Y1792D01*
X0Y1791D02*
X7Y1791D01*
X700Y1791D02*
X707Y1791D01*
X0Y1790D02*
X7Y1790D01*
X700Y1790D02*
X707Y1790D01*
X0Y1789D02*
X7Y1789D01*
X700Y1789D02*
X707Y1789D01*
X0Y1788D02*
X7Y1788D01*
X700Y1788D02*
X707Y1788D01*
X0Y1787D02*
X7Y1787D01*
X700Y1787D02*
X707Y1787D01*
X0Y1786D02*
X7Y1786D01*
X700Y1786D02*
X707Y1786D01*
X0Y1785D02*
X7Y1785D01*
X700Y1785D02*
X707Y1785D01*
X0Y1784D02*
X7Y1784D01*
X700Y1784D02*
X707Y1784D01*
X0Y1783D02*
X7Y1783D01*
X700Y1783D02*
X707Y1783D01*
X0Y1782D02*
X7Y1782D01*
X700Y1782D02*
X707Y1782D01*
X0Y1781D02*
X7Y1781D01*
X700Y1781D02*
X707Y1781D01*
X0Y1780D02*
X7Y1780D01*
X700Y1780D02*
X707Y1780D01*
X0Y1779D02*
X7Y1779D01*
X700Y1779D02*
X707Y1779D01*
X0Y1778D02*
X7Y1778D01*
X700Y1778D02*
X707Y1778D01*
X0Y1777D02*
X7Y1777D01*
X700Y1777D02*
X707Y1777D01*
X0Y1776D02*
X7Y1776D01*
X700Y1776D02*
X707Y1776D01*
X0Y1775D02*
X7Y1775D01*
X700Y1775D02*
X707Y1775D01*
X0Y1774D02*
X7Y1774D01*
X700Y1774D02*
X707Y1774D01*
X0Y1773D02*
X7Y1773D01*
X700Y1773D02*
X707Y1773D01*
X0Y1772D02*
X7Y1772D01*
X700Y1772D02*
X707Y1772D01*
X0Y1771D02*
X7Y1771D01*
X700Y1771D02*
X707Y1771D01*
X0Y1770D02*
X7Y1770D01*
X700Y1770D02*
X707Y1770D01*
X0Y1769D02*
X7Y1769D01*
X700Y1769D02*
X707Y1769D01*
X0Y1768D02*
X7Y1768D01*
X700Y1768D02*
X707Y1768D01*
X0Y1767D02*
X7Y1767D01*
X700Y1767D02*
X707Y1767D01*
X0Y1766D02*
X7Y1766D01*
X700Y1766D02*
X707Y1766D01*
X0Y1765D02*
X7Y1765D01*
X700Y1765D02*
X707Y1765D01*
X0Y1764D02*
X7Y1764D01*
X700Y1764D02*
X707Y1764D01*
X0Y1763D02*
X7Y1763D01*
X700Y1763D02*
X707Y1763D01*
X0Y1762D02*
X7Y1762D01*
X700Y1762D02*
X707Y1762D01*
X0Y1761D02*
X7Y1761D01*
X700Y1761D02*
X707Y1761D01*
X0Y1760D02*
X7Y1760D01*
X700Y1760D02*
X707Y1760D01*
X0Y1759D02*
X7Y1759D01*
X700Y1759D02*
X707Y1759D01*
X0Y1758D02*
X7Y1758D01*
X700Y1758D02*
X707Y1758D01*
X0Y1757D02*
X7Y1757D01*
X700Y1757D02*
X707Y1757D01*
X0Y1756D02*
X7Y1756D01*
X700Y1756D02*
X707Y1756D01*
X0Y1755D02*
X7Y1755D01*
X700Y1755D02*
X707Y1755D01*
X0Y1754D02*
X7Y1754D01*
X700Y1754D02*
X707Y1754D01*
X0Y1753D02*
X7Y1753D01*
X700Y1753D02*
X707Y1753D01*
X0Y1752D02*
X7Y1752D01*
X700Y1752D02*
X707Y1752D01*
X0Y1751D02*
X7Y1751D01*
X700Y1751D02*
X707Y1751D01*
X0Y1750D02*
X7Y1750D01*
X700Y1750D02*
X707Y1750D01*
X0Y1749D02*
X7Y1749D01*
X700Y1749D02*
X707Y1749D01*
X0Y1748D02*
X7Y1748D01*
X700Y1748D02*
X707Y1748D01*
X0Y1747D02*
X7Y1747D01*
X700Y1747D02*
X707Y1747D01*
X0Y1746D02*
X7Y1746D01*
X700Y1746D02*
X707Y1746D01*
X0Y1745D02*
X7Y1745D01*
X700Y1745D02*
X707Y1745D01*
X0Y1744D02*
X7Y1744D01*
X700Y1744D02*
X707Y1744D01*
X0Y1743D02*
X7Y1743D01*
X700Y1743D02*
X707Y1743D01*
X0Y1742D02*
X7Y1742D01*
X700Y1742D02*
X707Y1742D01*
X0Y1741D02*
X7Y1741D01*
X700Y1741D02*
X707Y1741D01*
X0Y1740D02*
X7Y1740D01*
X700Y1740D02*
X707Y1740D01*
X0Y1739D02*
X7Y1739D01*
X700Y1739D02*
X707Y1739D01*
X0Y1738D02*
X7Y1738D01*
X700Y1738D02*
X707Y1738D01*
X0Y1737D02*
X7Y1737D01*
X700Y1737D02*
X707Y1737D01*
X0Y1736D02*
X7Y1736D01*
X700Y1736D02*
X707Y1736D01*
X0Y1735D02*
X7Y1735D01*
X700Y1735D02*
X707Y1735D01*
X0Y1734D02*
X7Y1734D01*
X700Y1734D02*
X707Y1734D01*
X0Y1733D02*
X7Y1733D01*
X700Y1733D02*
X707Y1733D01*
X0Y1732D02*
X7Y1732D01*
X700Y1732D02*
X707Y1732D01*
X0Y1731D02*
X7Y1731D01*
X700Y1731D02*
X707Y1731D01*
X0Y1730D02*
X7Y1730D01*
X700Y1730D02*
X707Y1730D01*
X0Y1729D02*
X7Y1729D01*
X700Y1729D02*
X707Y1729D01*
X0Y1728D02*
X7Y1728D01*
X700Y1728D02*
X707Y1728D01*
X0Y1727D02*
X7Y1727D01*
X700Y1727D02*
X707Y1727D01*
X0Y1726D02*
X7Y1726D01*
X700Y1726D02*
X707Y1726D01*
X0Y1725D02*
X7Y1725D01*
X700Y1725D02*
X707Y1725D01*
X0Y1724D02*
X7Y1724D01*
X700Y1724D02*
X707Y1724D01*
X0Y1723D02*
X7Y1723D01*
X700Y1723D02*
X707Y1723D01*
X0Y1722D02*
X7Y1722D01*
X700Y1722D02*
X707Y1722D01*
X0Y1721D02*
X7Y1721D01*
X700Y1721D02*
X707Y1721D01*
X0Y1720D02*
X7Y1720D01*
X700Y1720D02*
X707Y1720D01*
X0Y1719D02*
X7Y1719D01*
X700Y1719D02*
X707Y1719D01*
X0Y1718D02*
X7Y1718D01*
X700Y1718D02*
X707Y1718D01*
X0Y1717D02*
X7Y1717D01*
X700Y1717D02*
X707Y1717D01*
X0Y1716D02*
X7Y1716D01*
X700Y1716D02*
X707Y1716D01*
X0Y1715D02*
X7Y1715D01*
X700Y1715D02*
X707Y1715D01*
X0Y1714D02*
X7Y1714D01*
X700Y1714D02*
X707Y1714D01*
X0Y1713D02*
X7Y1713D01*
X700Y1713D02*
X707Y1713D01*
X0Y1712D02*
X7Y1712D01*
X700Y1712D02*
X707Y1712D01*
X0Y1711D02*
X7Y1711D01*
X700Y1711D02*
X707Y1711D01*
X0Y1710D02*
X7Y1710D01*
X700Y1710D02*
X707Y1710D01*
X0Y1709D02*
X7Y1709D01*
X700Y1709D02*
X707Y1709D01*
X0Y1708D02*
X7Y1708D01*
X700Y1708D02*
X707Y1708D01*
X0Y1707D02*
X7Y1707D01*
X700Y1707D02*
X707Y1707D01*
X0Y1706D02*
X7Y1706D01*
X700Y1706D02*
X707Y1706D01*
X0Y1705D02*
X7Y1705D01*
X700Y1705D02*
X707Y1705D01*
X0Y1704D02*
X7Y1704D01*
X700Y1704D02*
X707Y1704D01*
X0Y1703D02*
X7Y1703D01*
X700Y1703D02*
X707Y1703D01*
X0Y1702D02*
X7Y1702D01*
X700Y1702D02*
X707Y1702D01*
X0Y1701D02*
X7Y1701D01*
X700Y1701D02*
X707Y1701D01*
X0Y1700D02*
X7Y1700D01*
X700Y1700D02*
X707Y1700D01*
X0Y1699D02*
X7Y1699D01*
X700Y1699D02*
X707Y1699D01*
X0Y1698D02*
X7Y1698D01*
X700Y1698D02*
X707Y1698D01*
X0Y1697D02*
X7Y1697D01*
X700Y1697D02*
X707Y1697D01*
X0Y1696D02*
X7Y1696D01*
X700Y1696D02*
X707Y1696D01*
X0Y1695D02*
X7Y1695D01*
X700Y1695D02*
X707Y1695D01*
X0Y1694D02*
X7Y1694D01*
X700Y1694D02*
X707Y1694D01*
X0Y1693D02*
X7Y1693D01*
X700Y1693D02*
X707Y1693D01*
X0Y1692D02*
X7Y1692D01*
X700Y1692D02*
X707Y1692D01*
X0Y1691D02*
X7Y1691D01*
X700Y1691D02*
X707Y1691D01*
X0Y1690D02*
X7Y1690D01*
X700Y1690D02*
X707Y1690D01*
X0Y1689D02*
X7Y1689D01*
X700Y1689D02*
X707Y1689D01*
X0Y1688D02*
X7Y1688D01*
X700Y1688D02*
X707Y1688D01*
X0Y1687D02*
X7Y1687D01*
X700Y1687D02*
X707Y1687D01*
X0Y1686D02*
X7Y1686D01*
X700Y1686D02*
X707Y1686D01*
X0Y1685D02*
X7Y1685D01*
X700Y1685D02*
X707Y1685D01*
X0Y1684D02*
X7Y1684D01*
X700Y1684D02*
X707Y1684D01*
X0Y1683D02*
X7Y1683D01*
X700Y1683D02*
X707Y1683D01*
X0Y1682D02*
X7Y1682D01*
X231Y1682D02*
X231Y1682D01*
X429Y1682D02*
X432Y1682D01*
X700Y1682D02*
X707Y1682D01*
X0Y1681D02*
X7Y1681D01*
X230Y1681D02*
X231Y1681D01*
X323Y1681D02*
X325Y1681D01*
X330Y1681D02*
X331Y1681D01*
X336Y1681D02*
X337Y1681D01*
X339Y1681D02*
X340Y1681D01*
X429Y1681D02*
X429Y1681D01*
X432Y1681D02*
X432Y1681D01*
X700Y1681D02*
X707Y1681D01*
X0Y1680D02*
X7Y1680D01*
X230Y1680D02*
X231Y1680D01*
X322Y1680D02*
X322Y1680D01*
X329Y1680D02*
X330Y1680D01*
X332Y1680D02*
X332Y1680D01*
X336Y1680D02*
X340Y1680D01*
X429Y1680D02*
X429Y1680D01*
X432Y1680D02*
X432Y1680D01*
X700Y1680D02*
X707Y1680D01*
X0Y1679D02*
X7Y1679D01*
X230Y1679D02*
X232Y1679D01*
X322Y1679D02*
X322Y1679D01*
X329Y1679D02*
X329Y1679D01*
X332Y1679D02*
X332Y1679D01*
X336Y1679D02*
X336Y1679D01*
X338Y1679D02*
X338Y1679D01*
X340Y1679D02*
X340Y1679D01*
X429Y1679D02*
X429Y1679D01*
X432Y1679D02*
X432Y1679D01*
X700Y1679D02*
X707Y1679D01*
X0Y1678D02*
X7Y1678D01*
X230Y1678D02*
X230Y1678D01*
X232Y1678D02*
X232Y1678D01*
X321Y1678D02*
X321Y1678D01*
X329Y1678D02*
X329Y1678D01*
X333Y1678D02*
X333Y1678D01*
X336Y1678D02*
X336Y1678D01*
X340Y1678D02*
X340Y1678D01*
X429Y1678D02*
X432Y1678D01*
X700Y1678D02*
X707Y1678D01*
X0Y1677D02*
X7Y1677D01*
X229Y1677D02*
X232Y1677D01*
X322Y1677D02*
X322Y1677D01*
X329Y1677D02*
X329Y1677D01*
X332Y1677D02*
X332Y1677D01*
X336Y1677D02*
X336Y1677D01*
X340Y1677D02*
X340Y1677D01*
X429Y1677D02*
X429Y1677D01*
X432Y1677D02*
X432Y1677D01*
X700Y1677D02*
X707Y1677D01*
X0Y1676D02*
X7Y1676D01*
X229Y1676D02*
X229Y1676D01*
X232Y1676D02*
X232Y1676D01*
X322Y1676D02*
X322Y1676D01*
X329Y1676D02*
X329Y1676D01*
X332Y1676D02*
X332Y1676D01*
X336Y1676D02*
X336Y1676D01*
X340Y1676D02*
X340Y1676D01*
X429Y1676D02*
X429Y1676D01*
X432Y1676D02*
X432Y1676D01*
X700Y1676D02*
X707Y1676D01*
X0Y1675D02*
X7Y1675D01*
X229Y1675D02*
X229Y1675D01*
X233Y1675D02*
X233Y1675D01*
X323Y1675D02*
X325Y1675D01*
X330Y1675D02*
X331Y1675D01*
X336Y1675D02*
X336Y1675D01*
X340Y1675D02*
X340Y1675D01*
X429Y1675D02*
X432Y1675D01*
X700Y1675D02*
X707Y1675D01*
X0Y1674D02*
X7Y1674D01*
X700Y1674D02*
X707Y1674D01*
X0Y1673D02*
X7Y1673D01*
X700Y1673D02*
X707Y1673D01*
X0Y1672D02*
X7Y1672D01*
X700Y1672D02*
X707Y1672D01*
X0Y1671D02*
X7Y1671D01*
X700Y1671D02*
X707Y1671D01*
X0Y1670D02*
X7Y1670D01*
X700Y1670D02*
X707Y1670D01*
X0Y1669D02*
X7Y1669D01*
X700Y1669D02*
X707Y1669D01*
X0Y1668D02*
X7Y1668D01*
X700Y1668D02*
X707Y1668D01*
X0Y1667D02*
X7Y1667D01*
X700Y1667D02*
X707Y1667D01*
X0Y1666D02*
X7Y1666D01*
X700Y1666D02*
X707Y1666D01*
X0Y1665D02*
X7Y1665D01*
X700Y1665D02*
X707Y1665D01*
X0Y1664D02*
X7Y1664D01*
X700Y1664D02*
X707Y1664D01*
X0Y1663D02*
X7Y1663D01*
X700Y1663D02*
X707Y1663D01*
X0Y1662D02*
X7Y1662D01*
X700Y1662D02*
X707Y1662D01*
X0Y1661D02*
X7Y1661D01*
X700Y1661D02*
X707Y1661D01*
X0Y1660D02*
X7Y1660D01*
X700Y1660D02*
X707Y1660D01*
X0Y1659D02*
X7Y1659D01*
X700Y1659D02*
X707Y1659D01*
X0Y1658D02*
X7Y1658D01*
X700Y1658D02*
X707Y1658D01*
X0Y1657D02*
X7Y1657D01*
X700Y1657D02*
X707Y1657D01*
X0Y1649D02*
X7Y1649D01*
X700Y1649D02*
X707Y1649D01*
X0Y1648D02*
X7Y1648D01*
X700Y1648D02*
X707Y1648D01*
X0Y1647D02*
X7Y1647D01*
X700Y1647D02*
X707Y1647D01*
X0Y1646D02*
X7Y1646D01*
X700Y1646D02*
X707Y1646D01*
X0Y1645D02*
X7Y1645D01*
X700Y1645D02*
X707Y1645D01*
X0Y1644D02*
X7Y1644D01*
X700Y1644D02*
X707Y1644D01*
X0Y1643D02*
X7Y1643D01*
X700Y1643D02*
X707Y1643D01*
X0Y1642D02*
X7Y1642D01*
X700Y1642D02*
X707Y1642D01*
X0Y1641D02*
X7Y1641D01*
X700Y1641D02*
X707Y1641D01*
X0Y1640D02*
X7Y1640D01*
X700Y1640D02*
X707Y1640D01*
X0Y1639D02*
X7Y1639D01*
X700Y1639D02*
X707Y1639D01*
X0Y1638D02*
X7Y1638D01*
X700Y1638D02*
X707Y1638D01*
X0Y1637D02*
X7Y1637D01*
X700Y1637D02*
X707Y1637D01*
X0Y1636D02*
X7Y1636D01*
X700Y1636D02*
X707Y1636D01*
X0Y1635D02*
X7Y1635D01*
X700Y1635D02*
X707Y1635D01*
X0Y1634D02*
X7Y1634D01*
X700Y1634D02*
X707Y1634D01*
X0Y1633D02*
X7Y1633D01*
X700Y1633D02*
X707Y1633D01*
X0Y1632D02*
X7Y1632D01*
X700Y1632D02*
X707Y1632D01*
X0Y1631D02*
X7Y1631D01*
X700Y1631D02*
X707Y1631D01*
X0Y1630D02*
X7Y1630D01*
X700Y1630D02*
X707Y1630D01*
X0Y1629D02*
X7Y1629D01*
X700Y1629D02*
X707Y1629D01*
X0Y1628D02*
X7Y1628D01*
X700Y1628D02*
X707Y1628D01*
X0Y1627D02*
X7Y1627D01*
X700Y1627D02*
X707Y1627D01*
X0Y1626D02*
X7Y1626D01*
X700Y1626D02*
X707Y1626D01*
X0Y1625D02*
X7Y1625D01*
X700Y1625D02*
X707Y1625D01*
X0Y1624D02*
X7Y1624D01*
X700Y1624D02*
X707Y1624D01*
X0Y1623D02*
X7Y1623D01*
X700Y1623D02*
X707Y1623D01*
X0Y1622D02*
X7Y1622D01*
X700Y1622D02*
X707Y1622D01*
X0Y1621D02*
X7Y1621D01*
X700Y1621D02*
X707Y1621D01*
X0Y1620D02*
X7Y1620D01*
X700Y1620D02*
X707Y1620D01*
X0Y1619D02*
X7Y1619D01*
X700Y1619D02*
X707Y1619D01*
X0Y1618D02*
X7Y1618D01*
X700Y1618D02*
X707Y1618D01*
X0Y1617D02*
X7Y1617D01*
X700Y1617D02*
X707Y1617D01*
X0Y1616D02*
X7Y1616D01*
X700Y1616D02*
X707Y1616D01*
X0Y1615D02*
X7Y1615D01*
X700Y1615D02*
X707Y1615D01*
X0Y1614D02*
X7Y1614D01*
X700Y1614D02*
X707Y1614D01*
X0Y1613D02*
X7Y1613D01*
X700Y1613D02*
X707Y1613D01*
X0Y1612D02*
X7Y1612D01*
X700Y1612D02*
X707Y1612D01*
X0Y1611D02*
X7Y1611D01*
X700Y1611D02*
X707Y1611D01*
X0Y1610D02*
X7Y1610D01*
X700Y1610D02*
X707Y1610D01*
X0Y1609D02*
X7Y1609D01*
X700Y1609D02*
X707Y1609D01*
X0Y1608D02*
X7Y1608D01*
X700Y1608D02*
X707Y1608D01*
X0Y1607D02*
X7Y1607D01*
X700Y1607D02*
X707Y1607D01*
X0Y1606D02*
X7Y1606D01*
X700Y1606D02*
X707Y1606D01*
X0Y1605D02*
X7Y1605D01*
X700Y1605D02*
X707Y1605D01*
X0Y1604D02*
X7Y1604D01*
X700Y1604D02*
X707Y1604D01*
X0Y1603D02*
X7Y1603D01*
X700Y1603D02*
X707Y1603D01*
X0Y1602D02*
X7Y1602D01*
X700Y1602D02*
X707Y1602D01*
X0Y1601D02*
X7Y1601D01*
X700Y1601D02*
X707Y1601D01*
X0Y1600D02*
X7Y1600D01*
X700Y1600D02*
X707Y1600D01*
X0Y1599D02*
X7Y1599D01*
X700Y1599D02*
X707Y1599D01*
X0Y1598D02*
X7Y1598D01*
X700Y1598D02*
X707Y1598D01*
X0Y1597D02*
X7Y1597D01*
X700Y1597D02*
X707Y1597D01*
X0Y1596D02*
X7Y1596D01*
X700Y1596D02*
X707Y1596D01*
X0Y1595D02*
X7Y1595D01*
X700Y1595D02*
X707Y1595D01*
X0Y1594D02*
X7Y1594D01*
X700Y1594D02*
X707Y1594D01*
X0Y1593D02*
X7Y1593D01*
X700Y1593D02*
X707Y1593D01*
X0Y1592D02*
X7Y1592D01*
X700Y1592D02*
X707Y1592D01*
X0Y1591D02*
X7Y1591D01*
X700Y1591D02*
X707Y1591D01*
X0Y1590D02*
X7Y1590D01*
X700Y1590D02*
X707Y1590D01*
X0Y1589D02*
X7Y1589D01*
X700Y1589D02*
X707Y1589D01*
X0Y1588D02*
X7Y1588D01*
X700Y1588D02*
X707Y1588D01*
X0Y1587D02*
X7Y1587D01*
X700Y1587D02*
X707Y1587D01*
X0Y1586D02*
X7Y1586D01*
X700Y1586D02*
X707Y1586D01*
X0Y1585D02*
X7Y1585D01*
X700Y1585D02*
X707Y1585D01*
X0Y1584D02*
X7Y1584D01*
X700Y1584D02*
X707Y1584D01*
X0Y1583D02*
X7Y1583D01*
X700Y1583D02*
X707Y1583D01*
X0Y1582D02*
X7Y1582D01*
X700Y1582D02*
X707Y1582D01*
X0Y1581D02*
X7Y1581D01*
X700Y1581D02*
X707Y1581D01*
X0Y1580D02*
X7Y1580D01*
X700Y1580D02*
X707Y1580D01*
X0Y1579D02*
X7Y1579D01*
X700Y1579D02*
X707Y1579D01*
X0Y1578D02*
X7Y1578D01*
X700Y1578D02*
X707Y1578D01*
X0Y1577D02*
X7Y1577D01*
X700Y1577D02*
X707Y1577D01*
X0Y1576D02*
X7Y1576D01*
X700Y1576D02*
X707Y1576D01*
X0Y1575D02*
X7Y1575D01*
X700Y1575D02*
X707Y1575D01*
X0Y1574D02*
X7Y1574D01*
X700Y1574D02*
X707Y1574D01*
X0Y1573D02*
X7Y1573D01*
X700Y1573D02*
X707Y1573D01*
X0Y1572D02*
X7Y1572D01*
X700Y1572D02*
X707Y1572D01*
X0Y1571D02*
X7Y1571D01*
X700Y1571D02*
X707Y1571D01*
X0Y1570D02*
X7Y1570D01*
X700Y1570D02*
X707Y1570D01*
X0Y1569D02*
X7Y1569D01*
X700Y1569D02*
X707Y1569D01*
X0Y1568D02*
X7Y1568D01*
X700Y1568D02*
X707Y1568D01*
X0Y1567D02*
X7Y1567D01*
X700Y1567D02*
X707Y1567D01*
X0Y1566D02*
X7Y1566D01*
X700Y1566D02*
X707Y1566D01*
X0Y1565D02*
X7Y1565D01*
X700Y1565D02*
X707Y1565D01*
X0Y1564D02*
X7Y1564D01*
X700Y1564D02*
X707Y1564D01*
X0Y1563D02*
X7Y1563D01*
X700Y1563D02*
X707Y1563D01*
X0Y1562D02*
X7Y1562D01*
X700Y1562D02*
X707Y1562D01*
X0Y1561D02*
X7Y1561D01*
X700Y1561D02*
X707Y1561D01*
X0Y1560D02*
X7Y1560D01*
X700Y1560D02*
X707Y1560D01*
X0Y1559D02*
X7Y1559D01*
X700Y1559D02*
X707Y1559D01*
X0Y1558D02*
X7Y1558D01*
X700Y1558D02*
X707Y1558D01*
X0Y1557D02*
X7Y1557D01*
X700Y1557D02*
X707Y1557D01*
X0Y1556D02*
X7Y1556D01*
X700Y1556D02*
X707Y1556D01*
X0Y1555D02*
X7Y1555D01*
X700Y1555D02*
X707Y1555D01*
X0Y1554D02*
X7Y1554D01*
X700Y1554D02*
X707Y1554D01*
X0Y1553D02*
X7Y1553D01*
X700Y1553D02*
X707Y1553D01*
X0Y1552D02*
X7Y1552D01*
X700Y1552D02*
X707Y1552D01*
X0Y1551D02*
X7Y1551D01*
X700Y1551D02*
X707Y1551D01*
X0Y1550D02*
X7Y1550D01*
X700Y1550D02*
X707Y1550D01*
X0Y1549D02*
X7Y1549D01*
X700Y1549D02*
X707Y1549D01*
X0Y1548D02*
X7Y1548D01*
X700Y1548D02*
X707Y1548D01*
X0Y1547D02*
X7Y1547D01*
X700Y1547D02*
X707Y1547D01*
X0Y1546D02*
X7Y1546D01*
X700Y1546D02*
X707Y1546D01*
X0Y1545D02*
X7Y1545D01*
X700Y1545D02*
X707Y1545D01*
X0Y1544D02*
X7Y1544D01*
X700Y1544D02*
X707Y1544D01*
X0Y1543D02*
X7Y1543D01*
X700Y1543D02*
X707Y1543D01*
X0Y1542D02*
X7Y1542D01*
X700Y1542D02*
X707Y1542D01*
X0Y1541D02*
X7Y1541D01*
X700Y1541D02*
X707Y1541D01*
X0Y1540D02*
X7Y1540D01*
X700Y1540D02*
X707Y1540D01*
X0Y1539D02*
X7Y1539D01*
X700Y1539D02*
X707Y1539D01*
X0Y1538D02*
X7Y1538D01*
X700Y1538D02*
X707Y1538D01*
X0Y1537D02*
X7Y1537D01*
X700Y1537D02*
X707Y1537D01*
X0Y1536D02*
X7Y1536D01*
X700Y1536D02*
X707Y1536D01*
X0Y1535D02*
X7Y1535D01*
X700Y1535D02*
X707Y1535D01*
X0Y1534D02*
X7Y1534D01*
X700Y1534D02*
X707Y1534D01*
X0Y1533D02*
X7Y1533D01*
X700Y1533D02*
X707Y1533D01*
X0Y1532D02*
X7Y1532D01*
X700Y1532D02*
X707Y1532D01*
X0Y1531D02*
X7Y1531D01*
X700Y1531D02*
X707Y1531D01*
X0Y1530D02*
X7Y1530D01*
X700Y1530D02*
X707Y1530D01*
X0Y1529D02*
X7Y1529D01*
X700Y1529D02*
X707Y1529D01*
X0Y1528D02*
X7Y1528D01*
X700Y1528D02*
X707Y1528D01*
X0Y1527D02*
X7Y1527D01*
X700Y1527D02*
X707Y1527D01*
X0Y1526D02*
X7Y1526D01*
X700Y1526D02*
X707Y1526D01*
X0Y1525D02*
X7Y1525D01*
X700Y1525D02*
X707Y1525D01*
X0Y1524D02*
X7Y1524D01*
X700Y1524D02*
X707Y1524D01*
X0Y1523D02*
X7Y1523D01*
X700Y1523D02*
X707Y1523D01*
X0Y1522D02*
X7Y1522D01*
X700Y1522D02*
X707Y1522D01*
X0Y1521D02*
X7Y1521D01*
X700Y1521D02*
X707Y1521D01*
X0Y1520D02*
X7Y1520D01*
X700Y1520D02*
X707Y1520D01*
X0Y1519D02*
X7Y1519D01*
X700Y1519D02*
X707Y1519D01*
X0Y1518D02*
X7Y1518D01*
X700Y1518D02*
X707Y1518D01*
X0Y1517D02*
X7Y1517D01*
X700Y1517D02*
X707Y1517D01*
X0Y1516D02*
X7Y1516D01*
X700Y1516D02*
X707Y1516D01*
X0Y1515D02*
X7Y1515D01*
X700Y1515D02*
X707Y1515D01*
X0Y1514D02*
X7Y1514D01*
X700Y1514D02*
X707Y1514D01*
X0Y1513D02*
X7Y1513D01*
X700Y1513D02*
X707Y1513D01*
X0Y1512D02*
X7Y1512D01*
X700Y1512D02*
X707Y1512D01*
X0Y1511D02*
X7Y1511D01*
X700Y1511D02*
X707Y1511D01*
X0Y1510D02*
X7Y1510D01*
X700Y1510D02*
X707Y1510D01*
X0Y1509D02*
X7Y1509D01*
X700Y1509D02*
X707Y1509D01*
X0Y1508D02*
X7Y1508D01*
X700Y1508D02*
X707Y1508D01*
X0Y1507D02*
X7Y1507D01*
X700Y1507D02*
X707Y1507D01*
X0Y1506D02*
X7Y1506D01*
X700Y1506D02*
X707Y1506D01*
X0Y1505D02*
X7Y1505D01*
X700Y1505D02*
X707Y1505D01*
X0Y1504D02*
X7Y1504D01*
X700Y1504D02*
X707Y1504D01*
X0Y1503D02*
X7Y1503D01*
X700Y1503D02*
X707Y1503D01*
X0Y1502D02*
X7Y1502D01*
X700Y1502D02*
X707Y1502D01*
X0Y1501D02*
X7Y1501D01*
X700Y1501D02*
X707Y1501D01*
X0Y1500D02*
X7Y1500D01*
X700Y1500D02*
X707Y1500D01*
X0Y1499D02*
X7Y1499D01*
X700Y1499D02*
X707Y1499D01*
X0Y1498D02*
X7Y1498D01*
X700Y1498D02*
X707Y1498D01*
X0Y1497D02*
X7Y1497D01*
X700Y1497D02*
X707Y1497D01*
X0Y1496D02*
X7Y1496D01*
X700Y1496D02*
X707Y1496D01*
X0Y1495D02*
X7Y1495D01*
X700Y1495D02*
X707Y1495D01*
X0Y1494D02*
X7Y1494D01*
X700Y1494D02*
X707Y1494D01*
X0Y1493D02*
X7Y1493D01*
X700Y1493D02*
X707Y1493D01*
X0Y1492D02*
X7Y1492D01*
X700Y1492D02*
X707Y1492D01*
X0Y1491D02*
X7Y1491D01*
X700Y1491D02*
X707Y1491D01*
X0Y1490D02*
X7Y1490D01*
X700Y1490D02*
X707Y1490D01*
X0Y1489D02*
X7Y1489D01*
X700Y1489D02*
X707Y1489D01*
X0Y1488D02*
X7Y1488D01*
X700Y1488D02*
X707Y1488D01*
X0Y1487D02*
X7Y1487D01*
X700Y1487D02*
X707Y1487D01*
X0Y1486D02*
X7Y1486D01*
X700Y1486D02*
X707Y1486D01*
X0Y1485D02*
X7Y1485D01*
X700Y1485D02*
X707Y1485D01*
X0Y1484D02*
X7Y1484D01*
X700Y1484D02*
X707Y1484D01*
X0Y1483D02*
X7Y1483D01*
X700Y1483D02*
X707Y1483D01*
X0Y1482D02*
X7Y1482D01*
X700Y1482D02*
X707Y1482D01*
X0Y1481D02*
X7Y1481D01*
X700Y1481D02*
X707Y1481D01*
X0Y1480D02*
X7Y1480D01*
X700Y1480D02*
X707Y1480D01*
X0Y1479D02*
X7Y1479D01*
X700Y1479D02*
X707Y1479D01*
X0Y1478D02*
X7Y1478D01*
X700Y1478D02*
X707Y1478D01*
X0Y1477D02*
X7Y1477D01*
X700Y1477D02*
X707Y1477D01*
X0Y1476D02*
X7Y1476D01*
X700Y1476D02*
X707Y1476D01*
X0Y1475D02*
X7Y1475D01*
X700Y1475D02*
X707Y1475D01*
X0Y1474D02*
X7Y1474D01*
X700Y1474D02*
X707Y1474D01*
X0Y1473D02*
X7Y1473D01*
X700Y1473D02*
X707Y1473D01*
X0Y1472D02*
X7Y1472D01*
X700Y1472D02*
X707Y1472D01*
X0Y1471D02*
X7Y1471D01*
X700Y1471D02*
X707Y1471D01*
X0Y1470D02*
X7Y1470D01*
X700Y1470D02*
X707Y1470D01*
X0Y1469D02*
X7Y1469D01*
X700Y1469D02*
X707Y1469D01*
X0Y1468D02*
X7Y1468D01*
X700Y1468D02*
X707Y1468D01*
X0Y1467D02*
X7Y1467D01*
X700Y1467D02*
X707Y1467D01*
X0Y1466D02*
X7Y1466D01*
X700Y1466D02*
X707Y1466D01*
X0Y1465D02*
X7Y1465D01*
X700Y1465D02*
X707Y1465D01*
X0Y1464D02*
X7Y1464D01*
X700Y1464D02*
X707Y1464D01*
X0Y1463D02*
X7Y1463D01*
X700Y1463D02*
X707Y1463D01*
X0Y1462D02*
X7Y1462D01*
X700Y1462D02*
X707Y1462D01*
X0Y1461D02*
X7Y1461D01*
X700Y1461D02*
X707Y1461D01*
X0Y1460D02*
X7Y1460D01*
X700Y1460D02*
X707Y1460D01*
X0Y1459D02*
X7Y1459D01*
X700Y1459D02*
X707Y1459D01*
X0Y1458D02*
X7Y1458D01*
X700Y1458D02*
X707Y1458D01*
X0Y1457D02*
X7Y1457D01*
X700Y1457D02*
X707Y1457D01*
X0Y1456D02*
X7Y1456D01*
X700Y1456D02*
X707Y1456D01*
X0Y1455D02*
X7Y1455D01*
X700Y1455D02*
X707Y1455D01*
X0Y1454D02*
X7Y1454D01*
X700Y1454D02*
X707Y1454D01*
X0Y1453D02*
X7Y1453D01*
X700Y1453D02*
X707Y1453D01*
X0Y1452D02*
X7Y1452D01*
X700Y1452D02*
X707Y1452D01*
X0Y1451D02*
X7Y1451D01*
X700Y1451D02*
X707Y1451D01*
X0Y1450D02*
X7Y1450D01*
X700Y1450D02*
X707Y1450D01*
X0Y1449D02*
X7Y1449D01*
X700Y1449D02*
X707Y1449D01*
X0Y1448D02*
X7Y1448D01*
X700Y1448D02*
X707Y1448D01*
X0Y1447D02*
X7Y1447D01*
X700Y1447D02*
X707Y1447D01*
X0Y1446D02*
X7Y1446D01*
X700Y1446D02*
X707Y1446D01*
X0Y1445D02*
X7Y1445D01*
X700Y1445D02*
X707Y1445D01*
X0Y1444D02*
X7Y1444D01*
X700Y1444D02*
X707Y1444D01*
X0Y1443D02*
X7Y1443D01*
X700Y1443D02*
X707Y1443D01*
X0Y1442D02*
X7Y1442D01*
X700Y1442D02*
X707Y1442D01*
X0Y1441D02*
X7Y1441D01*
X700Y1441D02*
X707Y1441D01*
X0Y1440D02*
X7Y1440D01*
X700Y1440D02*
X707Y1440D01*
X0Y1439D02*
X7Y1439D01*
X700Y1439D02*
X707Y1439D01*
X0Y1438D02*
X7Y1438D01*
X700Y1438D02*
X707Y1438D01*
X0Y1437D02*
X7Y1437D01*
X700Y1437D02*
X707Y1437D01*
X0Y1436D02*
X7Y1436D01*
X700Y1436D02*
X707Y1436D01*
X0Y1435D02*
X7Y1435D01*
X700Y1435D02*
X707Y1435D01*
X0Y1434D02*
X7Y1434D01*
X700Y1434D02*
X707Y1434D01*
X0Y1433D02*
X7Y1433D01*
X700Y1433D02*
X707Y1433D01*
X0Y1432D02*
X7Y1432D01*
X700Y1432D02*
X707Y1432D01*
X0Y1431D02*
X7Y1431D01*
X700Y1431D02*
X707Y1431D01*
X0Y1430D02*
X7Y1430D01*
X700Y1430D02*
X707Y1430D01*
X0Y1429D02*
X7Y1429D01*
X700Y1429D02*
X707Y1429D01*
X0Y1428D02*
X7Y1428D01*
X700Y1428D02*
X707Y1428D01*
X0Y1427D02*
X7Y1427D01*
X700Y1427D02*
X707Y1427D01*
X0Y1426D02*
X7Y1426D01*
X700Y1426D02*
X707Y1426D01*
X0Y1425D02*
X7Y1425D01*
X700Y1425D02*
X707Y1425D01*
X0Y1424D02*
X7Y1424D01*
X700Y1424D02*
X707Y1424D01*
X0Y1423D02*
X7Y1423D01*
X700Y1423D02*
X707Y1423D01*
X0Y1422D02*
X7Y1422D01*
X700Y1422D02*
X707Y1422D01*
X0Y1421D02*
X7Y1421D01*
X700Y1421D02*
X707Y1421D01*
X0Y1420D02*
X7Y1420D01*
X700Y1420D02*
X707Y1420D01*
X0Y1419D02*
X7Y1419D01*
X700Y1419D02*
X707Y1419D01*
X0Y1418D02*
X7Y1418D01*
X700Y1418D02*
X707Y1418D01*
X0Y1417D02*
X7Y1417D01*
X700Y1417D02*
X707Y1417D01*
X0Y1416D02*
X7Y1416D01*
X700Y1416D02*
X707Y1416D01*
X0Y1415D02*
X7Y1415D01*
X700Y1415D02*
X707Y1415D01*
X0Y1414D02*
X7Y1414D01*
X700Y1414D02*
X707Y1414D01*
X0Y1413D02*
X7Y1413D01*
X700Y1413D02*
X707Y1413D01*
X0Y1412D02*
X7Y1412D01*
X700Y1412D02*
X707Y1412D01*
X0Y1411D02*
X7Y1411D01*
X700Y1411D02*
X707Y1411D01*
X0Y1410D02*
X7Y1410D01*
X700Y1410D02*
X707Y1410D01*
X0Y1409D02*
X7Y1409D01*
X700Y1409D02*
X707Y1409D01*
X0Y1408D02*
X7Y1408D01*
X700Y1408D02*
X707Y1408D01*
X0Y1407D02*
X7Y1407D01*
X700Y1407D02*
X707Y1407D01*
X0Y1406D02*
X7Y1406D01*
X700Y1406D02*
X707Y1406D01*
X0Y1405D02*
X7Y1405D01*
X700Y1405D02*
X707Y1405D01*
X0Y1404D02*
X7Y1404D01*
X700Y1404D02*
X707Y1404D01*
X0Y1403D02*
X7Y1403D01*
X700Y1403D02*
X707Y1403D01*
X0Y1402D02*
X7Y1402D01*
X700Y1402D02*
X707Y1402D01*
X0Y1401D02*
X7Y1401D01*
X700Y1401D02*
X707Y1401D01*
X0Y1400D02*
X7Y1400D01*
X700Y1400D02*
X707Y1400D01*
X0Y1399D02*
X7Y1399D01*
X700Y1399D02*
X707Y1399D01*
X0Y1398D02*
X7Y1398D01*
X700Y1398D02*
X707Y1398D01*
X0Y1397D02*
X7Y1397D01*
X700Y1397D02*
X707Y1397D01*
X0Y1396D02*
X7Y1396D01*
X700Y1396D02*
X707Y1396D01*
X0Y1395D02*
X7Y1395D01*
X700Y1395D02*
X707Y1395D01*
X0Y1394D02*
X7Y1394D01*
X700Y1394D02*
X707Y1394D01*
X0Y1393D02*
X7Y1393D01*
X700Y1393D02*
X707Y1393D01*
X0Y1392D02*
X7Y1392D01*
X700Y1392D02*
X707Y1392D01*
X0Y1391D02*
X7Y1391D01*
X700Y1391D02*
X707Y1391D01*
X0Y1390D02*
X7Y1390D01*
X700Y1390D02*
X707Y1390D01*
X0Y1389D02*
X7Y1389D01*
X700Y1389D02*
X707Y1389D01*
X0Y1388D02*
X7Y1388D01*
X700Y1388D02*
X707Y1388D01*
X0Y1387D02*
X7Y1387D01*
X700Y1387D02*
X707Y1387D01*
X0Y1386D02*
X7Y1386D01*
X700Y1386D02*
X707Y1386D01*
X0Y1385D02*
X7Y1385D01*
X700Y1385D02*
X707Y1385D01*
X0Y1384D02*
X7Y1384D01*
X700Y1384D02*
X707Y1384D01*
X0Y1383D02*
X7Y1383D01*
X700Y1383D02*
X707Y1383D01*
X0Y1382D02*
X7Y1382D01*
X700Y1382D02*
X707Y1382D01*
X0Y1381D02*
X7Y1381D01*
X700Y1381D02*
X707Y1381D01*
X0Y1380D02*
X7Y1380D01*
X700Y1380D02*
X707Y1380D01*
X0Y1379D02*
X7Y1379D01*
X700Y1379D02*
X707Y1379D01*
X0Y1378D02*
X7Y1378D01*
X700Y1378D02*
X707Y1378D01*
X0Y1377D02*
X7Y1377D01*
X553Y1377D02*
X561Y1377D01*
X700Y1377D02*
X707Y1377D01*
X0Y1376D02*
X7Y1376D01*
X548Y1376D02*
X566Y1376D01*
X700Y1376D02*
X707Y1376D01*
X0Y1375D02*
X7Y1375D01*
X545Y1375D02*
X569Y1375D01*
X700Y1375D02*
X707Y1375D01*
X0Y1374D02*
X7Y1374D01*
X543Y1374D02*
X571Y1374D01*
X700Y1374D02*
X707Y1374D01*
X0Y1373D02*
X7Y1373D01*
X541Y1373D02*
X573Y1373D01*
X700Y1373D02*
X707Y1373D01*
X0Y1372D02*
X7Y1372D01*
X539Y1372D02*
X575Y1372D01*
X700Y1372D02*
X707Y1372D01*
X0Y1371D02*
X7Y1371D01*
X538Y1371D02*
X576Y1371D01*
X700Y1371D02*
X707Y1371D01*
X0Y1370D02*
X7Y1370D01*
X537Y1370D02*
X577Y1370D01*
X700Y1370D02*
X707Y1370D01*
X0Y1369D02*
X7Y1369D01*
X537Y1369D02*
X551Y1369D01*
X563Y1369D02*
X577Y1369D01*
X700Y1369D02*
X707Y1369D01*
X0Y1368D02*
X7Y1368D01*
X538Y1368D02*
X548Y1368D01*
X566Y1368D02*
X577Y1368D01*
X700Y1368D02*
X707Y1368D01*
X0Y1367D02*
X7Y1367D01*
X539Y1367D02*
X546Y1367D01*
X569Y1367D02*
X576Y1367D01*
X700Y1367D02*
X707Y1367D01*
X0Y1366D02*
X7Y1366D01*
X539Y1366D02*
X544Y1366D01*
X570Y1366D02*
X575Y1366D01*
X700Y1366D02*
X707Y1366D01*
X0Y1365D02*
X7Y1365D01*
X540Y1365D02*
X542Y1365D01*
X572Y1365D02*
X574Y1365D01*
X700Y1365D02*
X707Y1365D01*
X0Y1364D02*
X7Y1364D01*
X541Y1364D02*
X541Y1364D01*
X573Y1364D02*
X574Y1364D01*
X700Y1364D02*
X707Y1364D01*
X0Y1363D02*
X7Y1363D01*
X700Y1363D02*
X707Y1363D01*
X0Y1362D02*
X7Y1362D01*
X700Y1362D02*
X707Y1362D01*
X0Y1361D02*
X7Y1361D01*
X700Y1361D02*
X707Y1361D01*
X0Y1360D02*
X7Y1360D01*
X700Y1360D02*
X707Y1360D01*
X0Y1359D02*
X7Y1359D01*
X700Y1359D02*
X707Y1359D01*
X0Y1358D02*
X7Y1358D01*
X700Y1358D02*
X707Y1358D01*
X0Y1357D02*
X7Y1357D01*
X700Y1357D02*
X707Y1357D01*
X0Y1356D02*
X7Y1356D01*
X700Y1356D02*
X707Y1356D01*
X0Y1355D02*
X7Y1355D01*
X700Y1355D02*
X707Y1355D01*
X0Y1354D02*
X7Y1354D01*
X700Y1354D02*
X707Y1354D01*
X0Y1353D02*
X7Y1353D01*
X700Y1353D02*
X707Y1353D01*
X0Y1352D02*
X7Y1352D01*
X700Y1352D02*
X707Y1352D01*
X0Y1351D02*
X7Y1351D01*
X700Y1351D02*
X707Y1351D01*
X0Y1350D02*
X7Y1350D01*
X700Y1350D02*
X707Y1350D01*
X0Y1349D02*
X7Y1349D01*
X700Y1349D02*
X707Y1349D01*
X0Y1348D02*
X7Y1348D01*
X700Y1348D02*
X707Y1348D01*
X0Y1347D02*
X7Y1347D01*
X700Y1347D02*
X707Y1347D01*
X0Y1346D02*
X7Y1346D01*
X700Y1346D02*
X707Y1346D01*
X0Y1345D02*
X7Y1345D01*
X700Y1345D02*
X707Y1345D01*
X0Y1344D02*
X7Y1344D01*
X700Y1344D02*
X707Y1344D01*
X0Y1343D02*
X7Y1343D01*
X700Y1343D02*
X707Y1343D01*
X0Y1342D02*
X7Y1342D01*
X700Y1342D02*
X707Y1342D01*
X0Y1341D02*
X7Y1341D01*
X700Y1341D02*
X707Y1341D01*
X0Y1340D02*
X7Y1340D01*
X700Y1340D02*
X707Y1340D01*
X0Y1339D02*
X7Y1339D01*
X700Y1339D02*
X707Y1339D01*
X0Y1338D02*
X7Y1338D01*
X700Y1338D02*
X707Y1338D01*
X0Y1337D02*
X7Y1337D01*
X700Y1337D02*
X707Y1337D01*
X0Y1336D02*
X7Y1336D01*
X700Y1336D02*
X707Y1336D01*
X0Y1335D02*
X7Y1335D01*
X700Y1335D02*
X707Y1335D01*
X0Y1334D02*
X7Y1334D01*
X700Y1334D02*
X707Y1334D01*
X0Y1333D02*
X7Y1333D01*
X700Y1333D02*
X707Y1333D01*
X0Y1332D02*
X7Y1332D01*
X700Y1332D02*
X707Y1332D01*
X0Y1331D02*
X7Y1331D01*
X700Y1331D02*
X707Y1331D01*
X0Y1330D02*
X7Y1330D01*
X700Y1330D02*
X707Y1330D01*
X0Y1329D02*
X7Y1329D01*
X700Y1329D02*
X707Y1329D01*
X0Y1328D02*
X7Y1328D01*
X700Y1328D02*
X707Y1328D01*
X0Y1327D02*
X7Y1327D01*
X700Y1327D02*
X707Y1327D01*
X0Y1326D02*
X7Y1326D01*
X700Y1326D02*
X707Y1326D01*
X0Y1325D02*
X7Y1325D01*
X700Y1325D02*
X707Y1325D01*
X0Y1324D02*
X7Y1324D01*
X700Y1324D02*
X707Y1324D01*
X0Y1323D02*
X7Y1323D01*
X541Y1323D02*
X541Y1323D01*
X573Y1323D02*
X573Y1323D01*
X700Y1323D02*
X707Y1323D01*
X0Y1322D02*
X7Y1322D01*
X540Y1322D02*
X542Y1322D01*
X572Y1322D02*
X574Y1322D01*
X700Y1322D02*
X707Y1322D01*
X0Y1321D02*
X7Y1321D01*
X540Y1321D02*
X544Y1321D01*
X571Y1321D02*
X575Y1321D01*
X700Y1321D02*
X707Y1321D01*
X0Y1320D02*
X7Y1320D01*
X539Y1320D02*
X546Y1320D01*
X569Y1320D02*
X576Y1320D01*
X700Y1320D02*
X707Y1320D01*
X0Y1319D02*
X7Y1319D01*
X538Y1319D02*
X548Y1319D01*
X567Y1319D02*
X577Y1319D01*
X700Y1319D02*
X707Y1319D01*
X0Y1318D02*
X7Y1318D01*
X537Y1318D02*
X551Y1318D01*
X563Y1318D02*
X577Y1318D01*
X700Y1318D02*
X707Y1318D01*
X0Y1317D02*
X7Y1317D01*
X537Y1317D02*
X577Y1317D01*
X700Y1317D02*
X707Y1317D01*
X0Y1316D02*
X7Y1316D01*
X538Y1316D02*
X576Y1316D01*
X700Y1316D02*
X707Y1316D01*
X0Y1315D02*
X7Y1315D01*
X539Y1315D02*
X575Y1315D01*
X700Y1315D02*
X707Y1315D01*
X0Y1314D02*
X7Y1314D01*
X541Y1314D02*
X573Y1314D01*
X700Y1314D02*
X707Y1314D01*
X0Y1313D02*
X7Y1313D01*
X543Y1313D02*
X571Y1313D01*
X700Y1313D02*
X707Y1313D01*
X0Y1312D02*
X7Y1312D01*
X545Y1312D02*
X569Y1312D01*
X700Y1312D02*
X707Y1312D01*
X0Y1311D02*
X7Y1311D01*
X548Y1311D02*
X566Y1311D01*
X700Y1311D02*
X707Y1311D01*
X0Y1310D02*
X7Y1310D01*
X553Y1310D02*
X561Y1310D01*
X700Y1310D02*
X707Y1310D01*
X0Y1309D02*
X7Y1309D01*
X700Y1309D02*
X707Y1309D01*
X0Y1308D02*
X7Y1308D01*
X700Y1308D02*
X707Y1308D01*
X0Y1307D02*
X7Y1307D01*
X700Y1307D02*
X707Y1307D01*
X0Y1306D02*
X7Y1306D01*
X700Y1306D02*
X707Y1306D01*
X0Y1305D02*
X7Y1305D01*
X700Y1305D02*
X707Y1305D01*
X0Y1304D02*
X7Y1304D01*
X700Y1304D02*
X707Y1304D01*
X0Y1303D02*
X7Y1303D01*
X700Y1303D02*
X707Y1303D01*
X0Y1302D02*
X7Y1302D01*
X700Y1302D02*
X707Y1302D01*
X0Y1301D02*
X7Y1301D01*
X700Y1301D02*
X707Y1301D01*
X0Y1300D02*
X7Y1300D01*
X700Y1300D02*
X707Y1300D01*
X0Y1299D02*
X7Y1299D01*
X700Y1299D02*
X707Y1299D01*
X0Y1298D02*
X7Y1298D01*
X700Y1298D02*
X707Y1298D01*
X0Y1297D02*
X7Y1297D01*
X700Y1297D02*
X707Y1297D01*
X0Y1296D02*
X7Y1296D01*
X700Y1296D02*
X707Y1296D01*
X0Y1295D02*
X7Y1295D01*
X700Y1295D02*
X707Y1295D01*
X0Y1294D02*
X7Y1294D01*
X700Y1294D02*
X707Y1294D01*
X0Y1293D02*
X7Y1293D01*
X700Y1293D02*
X707Y1293D01*
X0Y1292D02*
X7Y1292D01*
X700Y1292D02*
X707Y1292D01*
X0Y1291D02*
X7Y1291D01*
X700Y1291D02*
X707Y1291D01*
X0Y1290D02*
X7Y1290D01*
X700Y1290D02*
X707Y1290D01*
X0Y1289D02*
X7Y1289D01*
X700Y1289D02*
X707Y1289D01*
X0Y1288D02*
X7Y1288D01*
X700Y1288D02*
X707Y1288D01*
X0Y1287D02*
X7Y1287D01*
X700Y1287D02*
X707Y1287D01*
X0Y1286D02*
X7Y1286D01*
X700Y1286D02*
X707Y1286D01*
X0Y1285D02*
X7Y1285D01*
X700Y1285D02*
X707Y1285D01*
X0Y1284D02*
X7Y1284D01*
X700Y1284D02*
X707Y1284D01*
X0Y1283D02*
X7Y1283D01*
X700Y1283D02*
X707Y1283D01*
X0Y1282D02*
X7Y1282D01*
X700Y1282D02*
X707Y1282D01*
X0Y1281D02*
X7Y1281D01*
X700Y1281D02*
X707Y1281D01*
X0Y1280D02*
X7Y1280D01*
X700Y1280D02*
X707Y1280D01*
X0Y1279D02*
X7Y1279D01*
X535Y1279D02*
X553Y1279D01*
X572Y1279D02*
X590Y1279D01*
X700Y1279D02*
X707Y1279D01*
X0Y1278D02*
X7Y1278D01*
X533Y1278D02*
X554Y1278D01*
X571Y1278D02*
X590Y1278D01*
X700Y1278D02*
X707Y1278D01*
X0Y1277D02*
X7Y1277D01*
X532Y1277D02*
X554Y1277D01*
X571Y1277D02*
X590Y1277D01*
X700Y1277D02*
X707Y1277D01*
X0Y1276D02*
X7Y1276D01*
X531Y1276D02*
X554Y1276D01*
X571Y1276D02*
X590Y1276D01*
X700Y1276D02*
X707Y1276D01*
X0Y1275D02*
X7Y1275D01*
X530Y1275D02*
X554Y1275D01*
X571Y1275D02*
X590Y1275D01*
X700Y1275D02*
X707Y1275D01*
X0Y1274D02*
X7Y1274D01*
X529Y1274D02*
X553Y1274D01*
X571Y1274D02*
X590Y1274D01*
X700Y1274D02*
X707Y1274D01*
X0Y1273D02*
X7Y1273D01*
X529Y1273D02*
X552Y1273D01*
X573Y1273D02*
X590Y1273D01*
X700Y1273D02*
X707Y1273D01*
X0Y1272D02*
X7Y1272D01*
X528Y1272D02*
X536Y1272D01*
X584Y1272D02*
X590Y1272D01*
X700Y1272D02*
X707Y1272D01*
X0Y1271D02*
X7Y1271D01*
X528Y1271D02*
X535Y1271D01*
X584Y1271D02*
X590Y1271D01*
X700Y1271D02*
X707Y1271D01*
X0Y1270D02*
X7Y1270D01*
X527Y1270D02*
X534Y1270D01*
X584Y1270D02*
X590Y1270D01*
X700Y1270D02*
X707Y1270D01*
X0Y1269D02*
X7Y1269D01*
X527Y1269D02*
X534Y1269D01*
X584Y1269D02*
X590Y1269D01*
X700Y1269D02*
X707Y1269D01*
X0Y1268D02*
X7Y1268D01*
X526Y1268D02*
X533Y1268D01*
X584Y1268D02*
X590Y1268D01*
X700Y1268D02*
X707Y1268D01*
X0Y1267D02*
X7Y1267D01*
X526Y1267D02*
X533Y1267D01*
X584Y1267D02*
X590Y1267D01*
X700Y1267D02*
X707Y1267D01*
X0Y1266D02*
X7Y1266D01*
X525Y1266D02*
X532Y1266D01*
X584Y1266D02*
X590Y1266D01*
X700Y1266D02*
X707Y1266D01*
X0Y1265D02*
X7Y1265D01*
X525Y1265D02*
X532Y1265D01*
X584Y1265D02*
X590Y1265D01*
X700Y1265D02*
X707Y1265D01*
X0Y1264D02*
X7Y1264D01*
X524Y1264D02*
X531Y1264D01*
X584Y1264D02*
X590Y1264D01*
X700Y1264D02*
X707Y1264D01*
X0Y1263D02*
X7Y1263D01*
X524Y1263D02*
X531Y1263D01*
X584Y1263D02*
X590Y1263D01*
X700Y1263D02*
X707Y1263D01*
X0Y1262D02*
X7Y1262D01*
X523Y1262D02*
X530Y1262D01*
X584Y1262D02*
X590Y1262D01*
X700Y1262D02*
X707Y1262D01*
X0Y1261D02*
X7Y1261D01*
X523Y1261D02*
X530Y1261D01*
X584Y1261D02*
X590Y1261D01*
X700Y1261D02*
X707Y1261D01*
X0Y1260D02*
X7Y1260D01*
X522Y1260D02*
X529Y1260D01*
X584Y1260D02*
X590Y1260D01*
X700Y1260D02*
X707Y1260D01*
X0Y1259D02*
X7Y1259D01*
X522Y1259D02*
X529Y1259D01*
X584Y1259D02*
X590Y1259D01*
X700Y1259D02*
X707Y1259D01*
X0Y1258D02*
X7Y1258D01*
X522Y1258D02*
X528Y1258D01*
X584Y1258D02*
X590Y1258D01*
X700Y1258D02*
X707Y1258D01*
X0Y1257D02*
X7Y1257D01*
X521Y1257D02*
X528Y1257D01*
X584Y1257D02*
X590Y1257D01*
X700Y1257D02*
X707Y1257D01*
X0Y1256D02*
X7Y1256D01*
X521Y1256D02*
X527Y1256D01*
X584Y1256D02*
X590Y1256D01*
X700Y1256D02*
X707Y1256D01*
X0Y1255D02*
X7Y1255D01*
X521Y1255D02*
X527Y1255D01*
X584Y1255D02*
X590Y1255D01*
X700Y1255D02*
X707Y1255D01*
X0Y1254D02*
X7Y1254D01*
X521Y1254D02*
X527Y1254D01*
X584Y1254D02*
X590Y1254D01*
X700Y1254D02*
X707Y1254D01*
X0Y1253D02*
X7Y1253D01*
X521Y1253D02*
X527Y1253D01*
X584Y1253D02*
X590Y1253D01*
X700Y1253D02*
X707Y1253D01*
X0Y1252D02*
X7Y1252D01*
X521Y1252D02*
X527Y1252D01*
X584Y1252D02*
X590Y1252D01*
X700Y1252D02*
X707Y1252D01*
X0Y1251D02*
X7Y1251D01*
X521Y1251D02*
X527Y1251D01*
X584Y1251D02*
X590Y1251D01*
X700Y1251D02*
X707Y1251D01*
X0Y1250D02*
X7Y1250D01*
X521Y1250D02*
X527Y1250D01*
X584Y1250D02*
X590Y1250D01*
X600Y1250D02*
X602Y1250D01*
X700Y1250D02*
X707Y1250D01*
X0Y1249D02*
X7Y1249D01*
X521Y1249D02*
X527Y1249D01*
X584Y1249D02*
X590Y1249D01*
X599Y1249D02*
X603Y1249D01*
X700Y1249D02*
X707Y1249D01*
X0Y1248D02*
X7Y1248D01*
X521Y1248D02*
X528Y1248D01*
X584Y1248D02*
X590Y1248D01*
X598Y1248D02*
X604Y1248D01*
X700Y1248D02*
X707Y1248D01*
X0Y1247D02*
X7Y1247D01*
X522Y1247D02*
X528Y1247D01*
X584Y1247D02*
X590Y1247D01*
X598Y1247D02*
X604Y1247D01*
X700Y1247D02*
X707Y1247D01*
X0Y1246D02*
X7Y1246D01*
X522Y1246D02*
X529Y1246D01*
X584Y1246D02*
X590Y1246D01*
X598Y1246D02*
X604Y1246D01*
X700Y1246D02*
X707Y1246D01*
X0Y1245D02*
X7Y1245D01*
X522Y1245D02*
X529Y1245D01*
X584Y1245D02*
X590Y1245D01*
X598Y1245D02*
X604Y1245D01*
X700Y1245D02*
X707Y1245D01*
X0Y1244D02*
X7Y1244D01*
X523Y1244D02*
X530Y1244D01*
X584Y1244D02*
X590Y1244D01*
X598Y1244D02*
X604Y1244D01*
X700Y1244D02*
X707Y1244D01*
X0Y1243D02*
X7Y1243D01*
X523Y1243D02*
X530Y1243D01*
X584Y1243D02*
X590Y1243D01*
X598Y1243D02*
X604Y1243D01*
X700Y1243D02*
X707Y1243D01*
X0Y1242D02*
X7Y1242D01*
X524Y1242D02*
X531Y1242D01*
X584Y1242D02*
X590Y1242D01*
X598Y1242D02*
X604Y1242D01*
X700Y1242D02*
X707Y1242D01*
X0Y1241D02*
X7Y1241D01*
X524Y1241D02*
X531Y1241D01*
X584Y1241D02*
X590Y1241D01*
X598Y1241D02*
X604Y1241D01*
X700Y1241D02*
X707Y1241D01*
X0Y1240D02*
X7Y1240D01*
X525Y1240D02*
X532Y1240D01*
X584Y1240D02*
X590Y1240D01*
X598Y1240D02*
X604Y1240D01*
X700Y1240D02*
X707Y1240D01*
X0Y1239D02*
X7Y1239D01*
X525Y1239D02*
X532Y1239D01*
X584Y1239D02*
X590Y1239D01*
X598Y1239D02*
X604Y1239D01*
X700Y1239D02*
X707Y1239D01*
X0Y1238D02*
X7Y1238D01*
X526Y1238D02*
X533Y1238D01*
X584Y1238D02*
X590Y1238D01*
X598Y1238D02*
X604Y1238D01*
X700Y1238D02*
X707Y1238D01*
X0Y1237D02*
X7Y1237D01*
X526Y1237D02*
X533Y1237D01*
X584Y1237D02*
X590Y1237D01*
X598Y1237D02*
X604Y1237D01*
X700Y1237D02*
X707Y1237D01*
X0Y1236D02*
X7Y1236D01*
X527Y1236D02*
X534Y1236D01*
X584Y1236D02*
X590Y1236D01*
X598Y1236D02*
X604Y1236D01*
X700Y1236D02*
X707Y1236D01*
X0Y1235D02*
X7Y1235D01*
X527Y1235D02*
X534Y1235D01*
X584Y1235D02*
X590Y1235D01*
X598Y1235D02*
X604Y1235D01*
X700Y1235D02*
X707Y1235D01*
X0Y1234D02*
X7Y1234D01*
X528Y1234D02*
X535Y1234D01*
X584Y1234D02*
X590Y1234D01*
X598Y1234D02*
X604Y1234D01*
X700Y1234D02*
X707Y1234D01*
X0Y1233D02*
X7Y1233D01*
X528Y1233D02*
X536Y1233D01*
X584Y1233D02*
X590Y1233D01*
X598Y1233D02*
X604Y1233D01*
X700Y1233D02*
X707Y1233D01*
X0Y1232D02*
X7Y1232D01*
X529Y1232D02*
X552Y1232D01*
X572Y1232D02*
X604Y1232D01*
X700Y1232D02*
X707Y1232D01*
X0Y1231D02*
X7Y1231D01*
X530Y1231D02*
X553Y1231D01*
X571Y1231D02*
X604Y1231D01*
X700Y1231D02*
X707Y1231D01*
X0Y1230D02*
X7Y1230D01*
X530Y1230D02*
X554Y1230D01*
X571Y1230D02*
X604Y1230D01*
X700Y1230D02*
X707Y1230D01*
X0Y1229D02*
X7Y1229D01*
X531Y1229D02*
X554Y1229D01*
X571Y1229D02*
X604Y1229D01*
X700Y1229D02*
X707Y1229D01*
X0Y1228D02*
X7Y1228D01*
X532Y1228D02*
X554Y1228D01*
X571Y1228D02*
X604Y1228D01*
X700Y1228D02*
X707Y1228D01*
X0Y1227D02*
X7Y1227D01*
X533Y1227D02*
X553Y1227D01*
X571Y1227D02*
X603Y1227D01*
X700Y1227D02*
X707Y1227D01*
X0Y1226D02*
X7Y1226D01*
X536Y1226D02*
X552Y1226D01*
X572Y1226D02*
X602Y1226D01*
X700Y1226D02*
X707Y1226D01*
X0Y1225D02*
X7Y1225D01*
X700Y1225D02*
X707Y1225D01*
X0Y1224D02*
X7Y1224D01*
X700Y1224D02*
X707Y1224D01*
X0Y1223D02*
X7Y1223D01*
X700Y1223D02*
X707Y1223D01*
X0Y1222D02*
X7Y1222D01*
X700Y1222D02*
X707Y1222D01*
X0Y1221D02*
X7Y1221D01*
X700Y1221D02*
X707Y1221D01*
X0Y1220D02*
X7Y1220D01*
X700Y1220D02*
X707Y1220D01*
X0Y1219D02*
X7Y1219D01*
X700Y1219D02*
X707Y1219D01*
X0Y1218D02*
X7Y1218D01*
X700Y1218D02*
X707Y1218D01*
X0Y1217D02*
X7Y1217D01*
X700Y1217D02*
X707Y1217D01*
X0Y1216D02*
X7Y1216D01*
X700Y1216D02*
X707Y1216D01*
X0Y1215D02*
X7Y1215D01*
X700Y1215D02*
X707Y1215D01*
X0Y1214D02*
X7Y1214D01*
X700Y1214D02*
X707Y1214D01*
X0Y1213D02*
X7Y1213D01*
X700Y1213D02*
X707Y1213D01*
X0Y1212D02*
X7Y1212D01*
X700Y1212D02*
X707Y1212D01*
X0Y1211D02*
X7Y1211D01*
X700Y1211D02*
X707Y1211D01*
X0Y1210D02*
X7Y1210D01*
X700Y1210D02*
X707Y1210D01*
X0Y1209D02*
X7Y1209D01*
X700Y1209D02*
X707Y1209D01*
X0Y1208D02*
X7Y1208D01*
X700Y1208D02*
X707Y1208D01*
X0Y1207D02*
X7Y1207D01*
X700Y1207D02*
X707Y1207D01*
X0Y1206D02*
X7Y1206D01*
X700Y1206D02*
X707Y1206D01*
X0Y1205D02*
X7Y1205D01*
X320Y1205D02*
X326Y1205D01*
X700Y1205D02*
X707Y1205D01*
X0Y1204D02*
X7Y1204D01*
X315Y1204D02*
X332Y1204D01*
X700Y1204D02*
X707Y1204D01*
X0Y1203D02*
X7Y1203D01*
X312Y1203D02*
X335Y1203D01*
X700Y1203D02*
X707Y1203D01*
X0Y1202D02*
X7Y1202D01*
X309Y1202D02*
X337Y1202D01*
X700Y1202D02*
X707Y1202D01*
X0Y1201D02*
X7Y1201D01*
X307Y1201D02*
X339Y1201D01*
X700Y1201D02*
X707Y1201D01*
X0Y1200D02*
X7Y1200D01*
X306Y1200D02*
X341Y1200D01*
X700Y1200D02*
X707Y1200D01*
X0Y1199D02*
X7Y1199D01*
X304Y1199D02*
X342Y1199D01*
X700Y1199D02*
X707Y1199D01*
X0Y1198D02*
X7Y1198D01*
X303Y1198D02*
X343Y1198D01*
X700Y1198D02*
X707Y1198D01*
X0Y1197D02*
X7Y1197D01*
X303Y1197D02*
X318Y1197D01*
X329Y1197D02*
X344Y1197D01*
X700Y1197D02*
X707Y1197D01*
X0Y1196D02*
X7Y1196D01*
X304Y1196D02*
X314Y1196D01*
X332Y1196D02*
X343Y1196D01*
X700Y1196D02*
X707Y1196D01*
X0Y1195D02*
X7Y1195D01*
X305Y1195D02*
X312Y1195D01*
X335Y1195D02*
X342Y1195D01*
X700Y1195D02*
X707Y1195D01*
X0Y1194D02*
X7Y1194D01*
X306Y1194D02*
X310Y1194D01*
X337Y1194D02*
X341Y1194D01*
X700Y1194D02*
X707Y1194D01*
X0Y1193D02*
X7Y1193D01*
X306Y1193D02*
X309Y1193D01*
X338Y1193D02*
X341Y1193D01*
X700Y1193D02*
X707Y1193D01*
X0Y1192D02*
X7Y1192D01*
X307Y1192D02*
X307Y1192D01*
X339Y1192D02*
X340Y1192D01*
X700Y1192D02*
X707Y1192D01*
X0Y1191D02*
X7Y1191D01*
X700Y1191D02*
X707Y1191D01*
X0Y1190D02*
X7Y1190D01*
X700Y1190D02*
X707Y1190D01*
X0Y1189D02*
X7Y1189D01*
X700Y1189D02*
X707Y1189D01*
X0Y1188D02*
X7Y1188D01*
X700Y1188D02*
X707Y1188D01*
X0Y1187D02*
X7Y1187D01*
X700Y1187D02*
X707Y1187D01*
X0Y1186D02*
X7Y1186D01*
X700Y1186D02*
X707Y1186D01*
X0Y1185D02*
X7Y1185D01*
X700Y1185D02*
X707Y1185D01*
X0Y1184D02*
X7Y1184D01*
X700Y1184D02*
X707Y1184D01*
X0Y1183D02*
X7Y1183D01*
X700Y1183D02*
X707Y1183D01*
X0Y1182D02*
X7Y1182D01*
X700Y1182D02*
X707Y1182D01*
X0Y1181D02*
X7Y1181D01*
X700Y1181D02*
X707Y1181D01*
X0Y1180D02*
X7Y1180D01*
X700Y1180D02*
X707Y1180D01*
X0Y1179D02*
X7Y1179D01*
X700Y1179D02*
X707Y1179D01*
X0Y1178D02*
X7Y1178D01*
X700Y1178D02*
X707Y1178D01*
X0Y1177D02*
X7Y1177D01*
X700Y1177D02*
X707Y1177D01*
X0Y1176D02*
X7Y1176D01*
X700Y1176D02*
X707Y1176D01*
X0Y1175D02*
X7Y1175D01*
X700Y1175D02*
X707Y1175D01*
X0Y1174D02*
X7Y1174D01*
X700Y1174D02*
X707Y1174D01*
X0Y1173D02*
X7Y1173D01*
X700Y1173D02*
X707Y1173D01*
X0Y1172D02*
X7Y1172D01*
X700Y1172D02*
X707Y1172D01*
X0Y1171D02*
X7Y1171D01*
X700Y1171D02*
X707Y1171D01*
X0Y1170D02*
X7Y1170D01*
X700Y1170D02*
X707Y1170D01*
X0Y1169D02*
X7Y1169D01*
X700Y1169D02*
X707Y1169D01*
X0Y1168D02*
X7Y1168D01*
X700Y1168D02*
X707Y1168D01*
X0Y1167D02*
X7Y1167D01*
X700Y1167D02*
X707Y1167D01*
X0Y1166D02*
X7Y1166D01*
X700Y1166D02*
X707Y1166D01*
X0Y1165D02*
X7Y1165D01*
X700Y1165D02*
X707Y1165D01*
X0Y1164D02*
X7Y1164D01*
X700Y1164D02*
X707Y1164D01*
X0Y1163D02*
X7Y1163D01*
X700Y1163D02*
X707Y1163D01*
X0Y1162D02*
X7Y1162D01*
X700Y1162D02*
X707Y1162D01*
X0Y1161D02*
X7Y1161D01*
X700Y1161D02*
X707Y1161D01*
X0Y1160D02*
X7Y1160D01*
X700Y1160D02*
X707Y1160D01*
X0Y1159D02*
X7Y1159D01*
X700Y1159D02*
X707Y1159D01*
X0Y1158D02*
X7Y1158D01*
X700Y1158D02*
X707Y1158D01*
X0Y1157D02*
X7Y1157D01*
X700Y1157D02*
X707Y1157D01*
X0Y1156D02*
X7Y1156D01*
X700Y1156D02*
X707Y1156D01*
X0Y1155D02*
X7Y1155D01*
X700Y1155D02*
X707Y1155D01*
X0Y1154D02*
X7Y1154D01*
X700Y1154D02*
X707Y1154D01*
X0Y1153D02*
X7Y1153D01*
X700Y1153D02*
X707Y1153D01*
X0Y1152D02*
X7Y1152D01*
X700Y1152D02*
X707Y1152D01*
X0Y1151D02*
X7Y1151D01*
X307Y1151D02*
X307Y1151D01*
X340Y1151D02*
X340Y1151D01*
X700Y1151D02*
X707Y1151D01*
X0Y1150D02*
X7Y1150D01*
X307Y1150D02*
X308Y1150D01*
X338Y1150D02*
X340Y1150D01*
X700Y1150D02*
X707Y1150D01*
X0Y1149D02*
X7Y1149D01*
X306Y1149D02*
X310Y1149D01*
X337Y1149D02*
X341Y1149D01*
X700Y1149D02*
X707Y1149D01*
X0Y1148D02*
X7Y1148D01*
X305Y1148D02*
X312Y1148D01*
X335Y1148D02*
X342Y1148D01*
X700Y1148D02*
X707Y1148D01*
X0Y1147D02*
X7Y1147D01*
X304Y1147D02*
X314Y1147D01*
X333Y1147D02*
X343Y1147D01*
X700Y1147D02*
X707Y1147D01*
X0Y1146D02*
X7Y1146D01*
X303Y1146D02*
X317Y1146D01*
X330Y1146D02*
X344Y1146D01*
X700Y1146D02*
X707Y1146D01*
X0Y1145D02*
X7Y1145D01*
X303Y1145D02*
X344Y1145D01*
X700Y1145D02*
X707Y1145D01*
X0Y1144D02*
X7Y1144D01*
X304Y1144D02*
X343Y1144D01*
X700Y1144D02*
X707Y1144D01*
X0Y1143D02*
X7Y1143D01*
X305Y1143D02*
X341Y1143D01*
X700Y1143D02*
X707Y1143D01*
X0Y1142D02*
X7Y1142D01*
X307Y1142D02*
X340Y1142D01*
X700Y1142D02*
X707Y1142D01*
X0Y1141D02*
X7Y1141D01*
X309Y1141D02*
X338Y1141D01*
X700Y1141D02*
X707Y1141D01*
X0Y1140D02*
X7Y1140D01*
X311Y1140D02*
X336Y1140D01*
X700Y1140D02*
X707Y1140D01*
X0Y1139D02*
X7Y1139D01*
X314Y1139D02*
X333Y1139D01*
X700Y1139D02*
X707Y1139D01*
X0Y1138D02*
X7Y1138D01*
X319Y1138D02*
X328Y1138D01*
X700Y1138D02*
X707Y1138D01*
X0Y1137D02*
X7Y1137D01*
X700Y1137D02*
X707Y1137D01*
X0Y1136D02*
X7Y1136D01*
X700Y1136D02*
X707Y1136D01*
X0Y1135D02*
X7Y1135D01*
X700Y1135D02*
X707Y1135D01*
X0Y1134D02*
X7Y1134D01*
X700Y1134D02*
X707Y1134D01*
X0Y1133D02*
X7Y1133D01*
X700Y1133D02*
X707Y1133D01*
X0Y1132D02*
X7Y1132D01*
X700Y1132D02*
X707Y1132D01*
X0Y1131D02*
X7Y1131D01*
X700Y1131D02*
X707Y1131D01*
X0Y1130D02*
X7Y1130D01*
X700Y1130D02*
X707Y1130D01*
X0Y1129D02*
X7Y1129D01*
X700Y1129D02*
X707Y1129D01*
X0Y1128D02*
X7Y1128D01*
X700Y1128D02*
X707Y1128D01*
X0Y1127D02*
X7Y1127D01*
X700Y1127D02*
X707Y1127D01*
X0Y1126D02*
X7Y1126D01*
X700Y1126D02*
X707Y1126D01*
X0Y1125D02*
X7Y1125D01*
X700Y1125D02*
X707Y1125D01*
X0Y1124D02*
X7Y1124D01*
X700Y1124D02*
X707Y1124D01*
X0Y1123D02*
X7Y1123D01*
X700Y1123D02*
X707Y1123D01*
X0Y1122D02*
X7Y1122D01*
X700Y1122D02*
X707Y1122D01*
X0Y1121D02*
X7Y1121D01*
X700Y1121D02*
X707Y1121D01*
X0Y1120D02*
X7Y1120D01*
X300Y1120D02*
X317Y1120D01*
X337Y1120D02*
X364Y1120D01*
X700Y1120D02*
X707Y1120D01*
X0Y1119D02*
X7Y1119D01*
X298Y1119D02*
X318Y1119D01*
X336Y1119D02*
X366Y1119D01*
X700Y1119D02*
X707Y1119D01*
X0Y1118D02*
X7Y1118D01*
X296Y1118D02*
X318Y1118D01*
X335Y1118D02*
X367Y1118D01*
X700Y1118D02*
X707Y1118D01*
X0Y1117D02*
X7Y1117D01*
X295Y1117D02*
X319Y1117D01*
X335Y1117D02*
X368Y1117D01*
X700Y1117D02*
X707Y1117D01*
X0Y1116D02*
X7Y1116D01*
X295Y1116D02*
X319Y1116D01*
X335Y1116D02*
X368Y1116D01*
X700Y1116D02*
X707Y1116D01*
X0Y1115D02*
X7Y1115D01*
X294Y1115D02*
X318Y1115D01*
X336Y1115D02*
X368Y1115D01*
X700Y1115D02*
X707Y1115D01*
X0Y1114D02*
X7Y1114D01*
X293Y1114D02*
X317Y1114D01*
X337Y1114D02*
X369Y1114D01*
X700Y1114D02*
X707Y1114D01*
X0Y1113D02*
X7Y1113D01*
X293Y1113D02*
X301Y1113D01*
X363Y1113D02*
X369Y1113D01*
X700Y1113D02*
X707Y1113D01*
X0Y1112D02*
X7Y1112D01*
X292Y1112D02*
X299Y1112D01*
X363Y1112D02*
X369Y1112D01*
X700Y1112D02*
X707Y1112D01*
X0Y1111D02*
X7Y1111D01*
X292Y1111D02*
X299Y1111D01*
X363Y1111D02*
X369Y1111D01*
X700Y1111D02*
X707Y1111D01*
X0Y1110D02*
X7Y1110D01*
X291Y1110D02*
X298Y1110D01*
X363Y1110D02*
X369Y1110D01*
X700Y1110D02*
X707Y1110D01*
X0Y1109D02*
X7Y1109D01*
X291Y1109D02*
X298Y1109D01*
X363Y1109D02*
X369Y1109D01*
X700Y1109D02*
X707Y1109D01*
X0Y1108D02*
X7Y1108D01*
X290Y1108D02*
X297Y1108D01*
X363Y1108D02*
X369Y1108D01*
X700Y1108D02*
X707Y1108D01*
X0Y1107D02*
X7Y1107D01*
X290Y1107D02*
X297Y1107D01*
X363Y1107D02*
X369Y1107D01*
X700Y1107D02*
X707Y1107D01*
X0Y1106D02*
X7Y1106D01*
X289Y1106D02*
X296Y1106D01*
X363Y1106D02*
X369Y1106D01*
X700Y1106D02*
X707Y1106D01*
X0Y1105D02*
X7Y1105D01*
X289Y1105D02*
X296Y1105D01*
X363Y1105D02*
X369Y1105D01*
X700Y1105D02*
X707Y1105D01*
X0Y1104D02*
X7Y1104D01*
X288Y1104D02*
X295Y1104D01*
X363Y1104D02*
X369Y1104D01*
X700Y1104D02*
X707Y1104D01*
X0Y1103D02*
X7Y1103D01*
X288Y1103D02*
X295Y1103D01*
X363Y1103D02*
X369Y1103D01*
X700Y1103D02*
X707Y1103D01*
X0Y1102D02*
X7Y1102D01*
X287Y1102D02*
X294Y1102D01*
X363Y1102D02*
X369Y1102D01*
X700Y1102D02*
X707Y1102D01*
X0Y1101D02*
X7Y1101D01*
X287Y1101D02*
X294Y1101D01*
X363Y1101D02*
X369Y1101D01*
X700Y1101D02*
X707Y1101D01*
X0Y1100D02*
X7Y1100D01*
X287Y1100D02*
X293Y1100D01*
X363Y1100D02*
X369Y1100D01*
X700Y1100D02*
X707Y1100D01*
X0Y1099D02*
X7Y1099D01*
X286Y1099D02*
X293Y1099D01*
X363Y1099D02*
X369Y1099D01*
X700Y1099D02*
X707Y1099D01*
X0Y1098D02*
X7Y1098D01*
X286Y1098D02*
X292Y1098D01*
X363Y1098D02*
X369Y1098D01*
X700Y1098D02*
X707Y1098D01*
X0Y1097D02*
X7Y1097D01*
X286Y1097D02*
X292Y1097D01*
X362Y1097D02*
X369Y1097D01*
X700Y1097D02*
X707Y1097D01*
X0Y1096D02*
X7Y1096D01*
X285Y1096D02*
X291Y1096D01*
X339Y1096D02*
X369Y1096D01*
X700Y1096D02*
X707Y1096D01*
X0Y1095D02*
X7Y1095D01*
X285Y1095D02*
X291Y1095D01*
X337Y1095D02*
X368Y1095D01*
X700Y1095D02*
X707Y1095D01*
X0Y1094D02*
X7Y1094D01*
X285Y1094D02*
X291Y1094D01*
X336Y1094D02*
X368Y1094D01*
X700Y1094D02*
X707Y1094D01*
X0Y1093D02*
X7Y1093D01*
X285Y1093D02*
X291Y1093D01*
X336Y1093D02*
X367Y1093D01*
X700Y1093D02*
X707Y1093D01*
X0Y1092D02*
X7Y1092D01*
X285Y1092D02*
X291Y1092D01*
X335Y1092D02*
X367Y1092D01*
X700Y1092D02*
X707Y1092D01*
X0Y1091D02*
X7Y1091D01*
X285Y1091D02*
X291Y1091D01*
X335Y1091D02*
X365Y1091D01*
X700Y1091D02*
X707Y1091D01*
X0Y1090D02*
X7Y1090D01*
X285Y1090D02*
X292Y1090D01*
X335Y1090D02*
X363Y1090D01*
X700Y1090D02*
X707Y1090D01*
X0Y1089D02*
X7Y1089D01*
X286Y1089D02*
X292Y1089D01*
X335Y1089D02*
X341Y1089D01*
X700Y1089D02*
X707Y1089D01*
X0Y1088D02*
X7Y1088D01*
X286Y1088D02*
X293Y1088D01*
X335Y1088D02*
X341Y1088D01*
X700Y1088D02*
X707Y1088D01*
X0Y1087D02*
X7Y1087D01*
X286Y1087D02*
X293Y1087D01*
X335Y1087D02*
X341Y1087D01*
X700Y1087D02*
X707Y1087D01*
X0Y1086D02*
X7Y1086D01*
X287Y1086D02*
X294Y1086D01*
X335Y1086D02*
X341Y1086D01*
X700Y1086D02*
X707Y1086D01*
X0Y1085D02*
X7Y1085D01*
X287Y1085D02*
X294Y1085D01*
X335Y1085D02*
X341Y1085D01*
X700Y1085D02*
X707Y1085D01*
X0Y1084D02*
X7Y1084D01*
X288Y1084D02*
X295Y1084D01*
X335Y1084D02*
X341Y1084D01*
X700Y1084D02*
X707Y1084D01*
X0Y1083D02*
X7Y1083D01*
X288Y1083D02*
X295Y1083D01*
X335Y1083D02*
X341Y1083D01*
X700Y1083D02*
X707Y1083D01*
X0Y1082D02*
X7Y1082D01*
X289Y1082D02*
X296Y1082D01*
X335Y1082D02*
X341Y1082D01*
X700Y1082D02*
X707Y1082D01*
X0Y1081D02*
X7Y1081D01*
X289Y1081D02*
X296Y1081D01*
X335Y1081D02*
X341Y1081D01*
X700Y1081D02*
X707Y1081D01*
X0Y1080D02*
X7Y1080D01*
X290Y1080D02*
X297Y1080D01*
X335Y1080D02*
X341Y1080D01*
X700Y1080D02*
X707Y1080D01*
X0Y1079D02*
X7Y1079D01*
X290Y1079D02*
X297Y1079D01*
X335Y1079D02*
X341Y1079D01*
X700Y1079D02*
X707Y1079D01*
X0Y1078D02*
X7Y1078D01*
X291Y1078D02*
X298Y1078D01*
X335Y1078D02*
X341Y1078D01*
X700Y1078D02*
X707Y1078D01*
X0Y1077D02*
X7Y1077D01*
X291Y1077D02*
X298Y1077D01*
X335Y1077D02*
X341Y1077D01*
X700Y1077D02*
X707Y1077D01*
X0Y1076D02*
X7Y1076D01*
X292Y1076D02*
X299Y1076D01*
X335Y1076D02*
X341Y1076D01*
X700Y1076D02*
X707Y1076D01*
X0Y1075D02*
X7Y1075D01*
X292Y1075D02*
X299Y1075D01*
X335Y1075D02*
X341Y1075D01*
X700Y1075D02*
X707Y1075D01*
X0Y1074D02*
X7Y1074D01*
X293Y1074D02*
X300Y1074D01*
X335Y1074D02*
X341Y1074D01*
X700Y1074D02*
X707Y1074D01*
X0Y1073D02*
X7Y1073D01*
X293Y1073D02*
X316Y1073D01*
X335Y1073D02*
X366Y1073D01*
X700Y1073D02*
X707Y1073D01*
X0Y1072D02*
X7Y1072D01*
X294Y1072D02*
X318Y1072D01*
X335Y1072D02*
X368Y1072D01*
X700Y1072D02*
X707Y1072D01*
X0Y1071D02*
X7Y1071D01*
X294Y1071D02*
X318Y1071D01*
X335Y1071D02*
X368Y1071D01*
X700Y1071D02*
X707Y1071D01*
X0Y1070D02*
X7Y1070D01*
X295Y1070D02*
X319Y1070D01*
X335Y1070D02*
X369Y1070D01*
X700Y1070D02*
X707Y1070D01*
X0Y1069D02*
X7Y1069D01*
X296Y1069D02*
X319Y1069D01*
X335Y1069D02*
X368Y1069D01*
X700Y1069D02*
X707Y1069D01*
X0Y1068D02*
X7Y1068D01*
X298Y1068D02*
X318Y1068D01*
X335Y1068D02*
X368Y1068D01*
X700Y1068D02*
X707Y1068D01*
X0Y1067D02*
X7Y1067D01*
X299Y1067D02*
X317Y1067D01*
X335Y1067D02*
X367Y1067D01*
X700Y1067D02*
X707Y1067D01*
X0Y1066D02*
X7Y1066D01*
X700Y1066D02*
X707Y1066D01*
X0Y1065D02*
X7Y1065D01*
X700Y1065D02*
X707Y1065D01*
X0Y1064D02*
X7Y1064D01*
X700Y1064D02*
X707Y1064D01*
X0Y1063D02*
X7Y1063D01*
X700Y1063D02*
X707Y1063D01*
X0Y1062D02*
X7Y1062D01*
X700Y1062D02*
X707Y1062D01*
X0Y1061D02*
X7Y1061D01*
X700Y1061D02*
X707Y1061D01*
X0Y1060D02*
X7Y1060D01*
X700Y1060D02*
X707Y1060D01*
X0Y1059D02*
X7Y1059D01*
X700Y1059D02*
X707Y1059D01*
X0Y1058D02*
X7Y1058D01*
X700Y1058D02*
X707Y1058D01*
X0Y1057D02*
X7Y1057D01*
X700Y1057D02*
X707Y1057D01*
X0Y1056D02*
X7Y1056D01*
X700Y1056D02*
X707Y1056D01*
X0Y1055D02*
X7Y1055D01*
X700Y1055D02*
X707Y1055D01*
X0Y1054D02*
X7Y1054D01*
X700Y1054D02*
X707Y1054D01*
X0Y1053D02*
X7Y1053D01*
X700Y1053D02*
X707Y1053D01*
X0Y1052D02*
X7Y1052D01*
X700Y1052D02*
X707Y1052D01*
X0Y1051D02*
X7Y1051D01*
X700Y1051D02*
X707Y1051D01*
X0Y1050D02*
X7Y1050D01*
X700Y1050D02*
X707Y1050D01*
X0Y1049D02*
X7Y1049D01*
X700Y1049D02*
X707Y1049D01*
X0Y1048D02*
X7Y1048D01*
X700Y1048D02*
X707Y1048D01*
X0Y1047D02*
X7Y1047D01*
X700Y1047D02*
X707Y1047D01*
X0Y1046D02*
X7Y1046D01*
X700Y1046D02*
X707Y1046D01*
X0Y1045D02*
X7Y1045D01*
X700Y1045D02*
X707Y1045D01*
X0Y1037D02*
X7Y1037D01*
X700Y1037D02*
X707Y1037D01*
X0Y1036D02*
X7Y1036D01*
X700Y1036D02*
X707Y1036D01*
X0Y1035D02*
X7Y1035D01*
X700Y1035D02*
X707Y1035D01*
X0Y1034D02*
X7Y1034D01*
X700Y1034D02*
X707Y1034D01*
X0Y1033D02*
X7Y1033D01*
X700Y1033D02*
X707Y1033D01*
X0Y1032D02*
X7Y1032D01*
X700Y1032D02*
X707Y1032D01*
X0Y1031D02*
X7Y1031D01*
X700Y1031D02*
X707Y1031D01*
X0Y1030D02*
X7Y1030D01*
X700Y1030D02*
X707Y1030D01*
X0Y1029D02*
X7Y1029D01*
X700Y1029D02*
X707Y1029D01*
X0Y1028D02*
X7Y1028D01*
X700Y1028D02*
X707Y1028D01*
X0Y1027D02*
X7Y1027D01*
X700Y1027D02*
X707Y1027D01*
X0Y1026D02*
X7Y1026D01*
X700Y1026D02*
X707Y1026D01*
X0Y1025D02*
X7Y1025D01*
X700Y1025D02*
X707Y1025D01*
X0Y1024D02*
X7Y1024D01*
X700Y1024D02*
X707Y1024D01*
X0Y1023D02*
X7Y1023D01*
X700Y1023D02*
X707Y1023D01*
X0Y1022D02*
X7Y1022D01*
X700Y1022D02*
X707Y1022D01*
X0Y1021D02*
X7Y1021D01*
X700Y1021D02*
X707Y1021D01*
X0Y1020D02*
X7Y1020D01*
X700Y1020D02*
X707Y1020D01*
X0Y1019D02*
X7Y1019D01*
X700Y1019D02*
X707Y1019D01*
X0Y1018D02*
X7Y1018D01*
X700Y1018D02*
X707Y1018D01*
X0Y1017D02*
X7Y1017D01*
X700Y1017D02*
X707Y1017D01*
X0Y1016D02*
X7Y1016D01*
X700Y1016D02*
X707Y1016D01*
X0Y1015D02*
X7Y1015D01*
X700Y1015D02*
X707Y1015D01*
X0Y1014D02*
X7Y1014D01*
X700Y1014D02*
X707Y1014D01*
X0Y1013D02*
X7Y1013D01*
X700Y1013D02*
X707Y1013D01*
X0Y1012D02*
X7Y1012D01*
X700Y1012D02*
X707Y1012D01*
X0Y1011D02*
X7Y1011D01*
X700Y1011D02*
X707Y1011D01*
X0Y1010D02*
X7Y1010D01*
X700Y1010D02*
X707Y1010D01*
X0Y1009D02*
X7Y1009D01*
X700Y1009D02*
X707Y1009D01*
X0Y1008D02*
X7Y1008D01*
X700Y1008D02*
X707Y1008D01*
X0Y1007D02*
X7Y1007D01*
X700Y1007D02*
X707Y1007D01*
X0Y1006D02*
X7Y1006D01*
X700Y1006D02*
X707Y1006D01*
X0Y1005D02*
X7Y1005D01*
X700Y1005D02*
X707Y1005D01*
X0Y1004D02*
X7Y1004D01*
X700Y1004D02*
X707Y1004D01*
X0Y1003D02*
X7Y1003D01*
X700Y1003D02*
X707Y1003D01*
X0Y1002D02*
X7Y1002D01*
X700Y1002D02*
X707Y1002D01*
X0Y1001D02*
X7Y1001D01*
X700Y1001D02*
X707Y1001D01*
X0Y1000D02*
X7Y1000D01*
X700Y1000D02*
X707Y1000D01*
X0Y999D02*
X7Y999D01*
X700Y999D02*
X707Y999D01*
X0Y998D02*
X7Y998D01*
X700Y998D02*
X707Y998D01*
X0Y997D02*
X7Y997D01*
X700Y997D02*
X707Y997D01*
X0Y996D02*
X7Y996D01*
X700Y996D02*
X707Y996D01*
X0Y995D02*
X7Y995D01*
X700Y995D02*
X707Y995D01*
X0Y994D02*
X7Y994D01*
X700Y994D02*
X707Y994D01*
X0Y993D02*
X7Y993D01*
X700Y993D02*
X707Y993D01*
X0Y992D02*
X7Y992D01*
X700Y992D02*
X707Y992D01*
X0Y991D02*
X7Y991D01*
X700Y991D02*
X707Y991D01*
X0Y990D02*
X7Y990D01*
X700Y990D02*
X707Y990D01*
X0Y989D02*
X7Y989D01*
X700Y989D02*
X707Y989D01*
X0Y988D02*
X7Y988D01*
X700Y988D02*
X707Y988D01*
X0Y987D02*
X7Y987D01*
X700Y987D02*
X707Y987D01*
X0Y986D02*
X7Y986D01*
X700Y986D02*
X707Y986D01*
X0Y985D02*
X7Y985D01*
X700Y985D02*
X707Y985D01*
X0Y984D02*
X7Y984D01*
X700Y984D02*
X707Y984D01*
X0Y983D02*
X7Y983D01*
X700Y983D02*
X707Y983D01*
X0Y982D02*
X7Y982D01*
X700Y982D02*
X707Y982D01*
X0Y981D02*
X7Y981D01*
X700Y981D02*
X707Y981D01*
X0Y980D02*
X7Y980D01*
X700Y980D02*
X707Y980D01*
X0Y979D02*
X7Y979D01*
X700Y979D02*
X707Y979D01*
X0Y978D02*
X7Y978D01*
X700Y978D02*
X707Y978D01*
X0Y977D02*
X7Y977D01*
X700Y977D02*
X707Y977D01*
X0Y976D02*
X7Y976D01*
X700Y976D02*
X707Y976D01*
X0Y975D02*
X7Y975D01*
X700Y975D02*
X707Y975D01*
X0Y974D02*
X7Y974D01*
X700Y974D02*
X707Y974D01*
X0Y973D02*
X7Y973D01*
X700Y973D02*
X707Y973D01*
X0Y972D02*
X7Y972D01*
X700Y972D02*
X707Y972D01*
X0Y971D02*
X7Y971D01*
X700Y971D02*
X707Y971D01*
X0Y970D02*
X7Y970D01*
X700Y970D02*
X707Y970D01*
X0Y969D02*
X7Y969D01*
X700Y969D02*
X707Y969D01*
X0Y968D02*
X7Y968D01*
X700Y968D02*
X707Y968D01*
X0Y967D02*
X7Y967D01*
X700Y967D02*
X707Y967D01*
X0Y966D02*
X7Y966D01*
X700Y966D02*
X707Y966D01*
X0Y965D02*
X7Y965D01*
X700Y965D02*
X707Y965D01*
X0Y964D02*
X7Y964D01*
X700Y964D02*
X707Y964D01*
X0Y963D02*
X7Y963D01*
X700Y963D02*
X707Y963D01*
X0Y962D02*
X7Y962D01*
X700Y962D02*
X707Y962D01*
X0Y961D02*
X7Y961D01*
X700Y961D02*
X707Y961D01*
X0Y960D02*
X7Y960D01*
X700Y960D02*
X707Y960D01*
X0Y959D02*
X7Y959D01*
X700Y959D02*
X707Y959D01*
X0Y958D02*
X7Y958D01*
X700Y958D02*
X707Y958D01*
X0Y957D02*
X7Y957D01*
X700Y957D02*
X707Y957D01*
X0Y956D02*
X7Y956D01*
X700Y956D02*
X707Y956D01*
X0Y955D02*
X7Y955D01*
X700Y955D02*
X707Y955D01*
X0Y954D02*
X7Y954D01*
X700Y954D02*
X707Y954D01*
X0Y953D02*
X7Y953D01*
X700Y953D02*
X707Y953D01*
X0Y952D02*
X7Y952D01*
X700Y952D02*
X707Y952D01*
X0Y951D02*
X7Y951D01*
X700Y951D02*
X707Y951D01*
X0Y950D02*
X7Y950D01*
X700Y950D02*
X707Y950D01*
X0Y949D02*
X7Y949D01*
X700Y949D02*
X707Y949D01*
X0Y948D02*
X7Y948D01*
X276Y948D02*
X292Y948D01*
X370Y948D02*
X386Y948D01*
X700Y948D02*
X707Y948D01*
X0Y947D02*
X7Y947D01*
X276Y947D02*
X293Y947D01*
X369Y947D02*
X386Y947D01*
X700Y947D02*
X707Y947D01*
X0Y946D02*
X7Y946D01*
X276Y946D02*
X293Y946D01*
X369Y946D02*
X386Y946D01*
X700Y946D02*
X707Y946D01*
X0Y945D02*
X7Y945D01*
X276Y945D02*
X293Y945D01*
X369Y945D02*
X386Y945D01*
X700Y945D02*
X707Y945D01*
X0Y944D02*
X7Y944D01*
X275Y944D02*
X292Y944D01*
X370Y944D02*
X386Y944D01*
X700Y944D02*
X707Y944D01*
X0Y943D02*
X7Y943D01*
X700Y943D02*
X707Y943D01*
X0Y942D02*
X7Y942D01*
X700Y942D02*
X707Y942D01*
X0Y941D02*
X7Y941D01*
X700Y941D02*
X707Y941D01*
X0Y940D02*
X7Y940D01*
X700Y940D02*
X707Y940D01*
X0Y939D02*
X7Y939D01*
X700Y939D02*
X707Y939D01*
X0Y938D02*
X7Y938D01*
X298Y938D02*
X301Y938D01*
X303Y938D02*
X303Y938D01*
X307Y938D02*
X307Y938D01*
X700Y938D02*
X707Y938D01*
X0Y937D02*
X7Y937D01*
X297Y937D02*
X298Y937D01*
X304Y937D02*
X304Y937D01*
X307Y937D02*
X308Y937D01*
X311Y937D02*
X311Y937D01*
X700Y937D02*
X707Y937D01*
X0Y936D02*
X7Y936D01*
X297Y936D02*
X297Y936D01*
X304Y936D02*
X304Y936D01*
X307Y936D02*
X308Y936D01*
X311Y936D02*
X311Y936D01*
X700Y936D02*
X707Y936D01*
X0Y935D02*
X7Y935D01*
X298Y935D02*
X300Y935D01*
X304Y935D02*
X304Y935D01*
X306Y935D02*
X306Y935D01*
X308Y935D02*
X308Y935D01*
X311Y935D02*
X311Y935D01*
X700Y935D02*
X707Y935D01*
X0Y934D02*
X7Y934D01*
X301Y934D02*
X301Y934D01*
X304Y934D02*
X304Y934D01*
X306Y934D02*
X306Y934D01*
X310Y934D02*
X310Y934D01*
X700Y934D02*
X707Y934D01*
X0Y933D02*
X7Y933D01*
X301Y933D02*
X301Y933D01*
X305Y933D02*
X306Y933D01*
X309Y933D02*
X310Y933D01*
X700Y933D02*
X707Y933D01*
X0Y932D02*
X7Y932D01*
X301Y932D02*
X301Y932D01*
X305Y932D02*
X306Y932D01*
X309Y932D02*
X310Y932D01*
X700Y932D02*
X707Y932D01*
X0Y931D02*
X7Y931D01*
X298Y931D02*
X300Y931D01*
X305Y931D02*
X305Y931D01*
X700Y931D02*
X707Y931D01*
X0Y930D02*
X7Y930D01*
X700Y930D02*
X707Y930D01*
X0Y929D02*
X7Y929D01*
X700Y929D02*
X707Y929D01*
X0Y928D02*
X7Y928D01*
X700Y928D02*
X707Y928D01*
X0Y927D02*
X7Y927D01*
X700Y927D02*
X707Y927D01*
X0Y926D02*
X7Y926D01*
X700Y926D02*
X707Y926D01*
X0Y925D02*
X7Y925D01*
X700Y925D02*
X707Y925D01*
X0Y924D02*
X7Y924D01*
X700Y924D02*
X707Y924D01*
X0Y923D02*
X7Y923D01*
X700Y923D02*
X707Y923D01*
X0Y922D02*
X7Y922D01*
X700Y922D02*
X707Y922D01*
X0Y921D02*
X7Y921D01*
X700Y921D02*
X707Y921D01*
X0Y920D02*
X7Y920D01*
X700Y920D02*
X707Y920D01*
X0Y919D02*
X7Y919D01*
X700Y919D02*
X707Y919D01*
X0Y918D02*
X7Y918D01*
X700Y918D02*
X707Y918D01*
X0Y917D02*
X7Y917D01*
X700Y917D02*
X707Y917D01*
X0Y916D02*
X7Y916D01*
X700Y916D02*
X707Y916D01*
X0Y915D02*
X7Y915D01*
X700Y915D02*
X707Y915D01*
X0Y914D02*
X7Y914D01*
X700Y914D02*
X707Y914D01*
X0Y913D02*
X7Y913D01*
X700Y913D02*
X707Y913D01*
X0Y912D02*
X7Y912D01*
X700Y912D02*
X707Y912D01*
X0Y911D02*
X7Y911D01*
X700Y911D02*
X707Y911D01*
X0Y910D02*
X7Y910D01*
X700Y910D02*
X707Y910D01*
X0Y909D02*
X7Y909D01*
X700Y909D02*
X707Y909D01*
X0Y908D02*
X7Y908D01*
X700Y908D02*
X707Y908D01*
X0Y907D02*
X7Y907D01*
X700Y907D02*
X707Y907D01*
X0Y906D02*
X7Y906D01*
X700Y906D02*
X707Y906D01*
X0Y905D02*
X7Y905D01*
X700Y905D02*
X707Y905D01*
X0Y904D02*
X7Y904D01*
X700Y904D02*
X707Y904D01*
X0Y903D02*
X7Y903D01*
X700Y903D02*
X707Y903D01*
X0Y902D02*
X7Y902D01*
X700Y902D02*
X707Y902D01*
X0Y901D02*
X7Y901D01*
X700Y901D02*
X707Y901D01*
X0Y900D02*
X7Y900D01*
X700Y900D02*
X707Y900D01*
X0Y899D02*
X7Y899D01*
X700Y899D02*
X707Y899D01*
X0Y898D02*
X7Y898D01*
X700Y898D02*
X707Y898D01*
X0Y897D02*
X7Y897D01*
X700Y897D02*
X707Y897D01*
X0Y896D02*
X7Y896D01*
X700Y896D02*
X707Y896D01*
X0Y895D02*
X7Y895D01*
X700Y895D02*
X707Y895D01*
X0Y894D02*
X7Y894D01*
X700Y894D02*
X707Y894D01*
X0Y893D02*
X7Y893D01*
X700Y893D02*
X707Y893D01*
X0Y892D02*
X7Y892D01*
X700Y892D02*
X707Y892D01*
X0Y891D02*
X7Y891D01*
X700Y891D02*
X707Y891D01*
X0Y890D02*
X7Y890D01*
X700Y890D02*
X707Y890D01*
X0Y889D02*
X7Y889D01*
X700Y889D02*
X707Y889D01*
X0Y888D02*
X7Y888D01*
X700Y888D02*
X707Y888D01*
X0Y887D02*
X7Y887D01*
X700Y887D02*
X707Y887D01*
X0Y886D02*
X7Y886D01*
X700Y886D02*
X707Y886D01*
X0Y885D02*
X7Y885D01*
X700Y885D02*
X707Y885D01*
X0Y884D02*
X7Y884D01*
X700Y884D02*
X707Y884D01*
X0Y883D02*
X7Y883D01*
X700Y883D02*
X707Y883D01*
X0Y882D02*
X7Y882D01*
X700Y882D02*
X707Y882D01*
X0Y881D02*
X7Y881D01*
X700Y881D02*
X707Y881D01*
X0Y880D02*
X7Y880D01*
X700Y880D02*
X707Y880D01*
X0Y879D02*
X7Y879D01*
X700Y879D02*
X707Y879D01*
X0Y878D02*
X7Y878D01*
X700Y878D02*
X707Y878D01*
X0Y877D02*
X7Y877D01*
X700Y877D02*
X707Y877D01*
X0Y876D02*
X7Y876D01*
X700Y876D02*
X707Y876D01*
X0Y875D02*
X7Y875D01*
X700Y875D02*
X707Y875D01*
X0Y874D02*
X7Y874D01*
X700Y874D02*
X707Y874D01*
X0Y873D02*
X7Y873D01*
X700Y873D02*
X707Y873D01*
X0Y872D02*
X7Y872D01*
X700Y872D02*
X707Y872D01*
X0Y871D02*
X7Y871D01*
X700Y871D02*
X707Y871D01*
X0Y870D02*
X7Y870D01*
X700Y870D02*
X707Y870D01*
X0Y869D02*
X7Y869D01*
X700Y869D02*
X707Y869D01*
X0Y868D02*
X7Y868D01*
X700Y868D02*
X707Y868D01*
X0Y867D02*
X7Y867D01*
X700Y867D02*
X707Y867D01*
X0Y866D02*
X7Y866D01*
X700Y866D02*
X707Y866D01*
X0Y865D02*
X7Y865D01*
X700Y865D02*
X707Y865D01*
X0Y864D02*
X7Y864D01*
X700Y864D02*
X707Y864D01*
X0Y863D02*
X7Y863D01*
X700Y863D02*
X707Y863D01*
X0Y862D02*
X7Y862D01*
X700Y862D02*
X707Y862D01*
X0Y861D02*
X7Y861D01*
X700Y861D02*
X707Y861D01*
X0Y860D02*
X7Y860D01*
X700Y860D02*
X707Y860D01*
X0Y859D02*
X7Y859D01*
X700Y859D02*
X707Y859D01*
X0Y858D02*
X7Y858D01*
X700Y858D02*
X707Y858D01*
X0Y857D02*
X7Y857D01*
X700Y857D02*
X707Y857D01*
X0Y856D02*
X7Y856D01*
X700Y856D02*
X707Y856D01*
X0Y855D02*
X7Y855D01*
X700Y855D02*
X707Y855D01*
X0Y854D02*
X7Y854D01*
X700Y854D02*
X707Y854D01*
X0Y853D02*
X7Y853D01*
X700Y853D02*
X707Y853D01*
X0Y852D02*
X7Y852D01*
X700Y852D02*
X707Y852D01*
X0Y851D02*
X7Y851D01*
X700Y851D02*
X707Y851D01*
X0Y850D02*
X7Y850D01*
X700Y850D02*
X707Y850D01*
X0Y849D02*
X7Y849D01*
X700Y849D02*
X707Y849D01*
X0Y848D02*
X7Y848D01*
X700Y848D02*
X707Y848D01*
X0Y847D02*
X7Y847D01*
X700Y847D02*
X707Y847D01*
X0Y846D02*
X7Y846D01*
X700Y846D02*
X707Y846D01*
X0Y845D02*
X7Y845D01*
X700Y845D02*
X707Y845D01*
X0Y844D02*
X7Y844D01*
X700Y844D02*
X707Y844D01*
X0Y843D02*
X7Y843D01*
X700Y843D02*
X707Y843D01*
X0Y842D02*
X7Y842D01*
X700Y842D02*
X707Y842D01*
X0Y841D02*
X7Y841D01*
X700Y841D02*
X707Y841D01*
X0Y840D02*
X7Y840D01*
X700Y840D02*
X707Y840D01*
X0Y839D02*
X7Y839D01*
X700Y839D02*
X707Y839D01*
X0Y838D02*
X7Y838D01*
X700Y838D02*
X707Y838D01*
X0Y837D02*
X7Y837D01*
X700Y837D02*
X707Y837D01*
X0Y836D02*
X7Y836D01*
X700Y836D02*
X707Y836D01*
X0Y835D02*
X7Y835D01*
X700Y835D02*
X707Y835D01*
X0Y834D02*
X7Y834D01*
X700Y834D02*
X707Y834D01*
X0Y833D02*
X7Y833D01*
X700Y833D02*
X707Y833D01*
X0Y832D02*
X7Y832D01*
X700Y832D02*
X707Y832D01*
X0Y831D02*
X7Y831D01*
X700Y831D02*
X707Y831D01*
X0Y830D02*
X7Y830D01*
X700Y830D02*
X707Y830D01*
X0Y829D02*
X7Y829D01*
X700Y829D02*
X707Y829D01*
X0Y828D02*
X7Y828D01*
X700Y828D02*
X707Y828D01*
X0Y827D02*
X7Y827D01*
X700Y827D02*
X707Y827D01*
X0Y826D02*
X7Y826D01*
X700Y826D02*
X707Y826D01*
X0Y825D02*
X7Y825D01*
X700Y825D02*
X707Y825D01*
X0Y824D02*
X7Y824D01*
X700Y824D02*
X707Y824D01*
X0Y823D02*
X7Y823D01*
X700Y823D02*
X707Y823D01*
X0Y822D02*
X7Y822D01*
X700Y822D02*
X707Y822D01*
X0Y821D02*
X7Y821D01*
X700Y821D02*
X707Y821D01*
X0Y820D02*
X7Y820D01*
X700Y820D02*
X707Y820D01*
X0Y819D02*
X7Y819D01*
X700Y819D02*
X707Y819D01*
X0Y818D02*
X7Y818D01*
X700Y818D02*
X707Y818D01*
X0Y817D02*
X7Y817D01*
X700Y817D02*
X707Y817D01*
X0Y816D02*
X7Y816D01*
X700Y816D02*
X707Y816D01*
X0Y815D02*
X7Y815D01*
X700Y815D02*
X707Y815D01*
X0Y814D02*
X7Y814D01*
X700Y814D02*
X707Y814D01*
X0Y813D02*
X7Y813D01*
X700Y813D02*
X707Y813D01*
X0Y812D02*
X7Y812D01*
X700Y812D02*
X707Y812D01*
X0Y811D02*
X7Y811D01*
X700Y811D02*
X707Y811D01*
X0Y810D02*
X7Y810D01*
X700Y810D02*
X707Y810D01*
X0Y809D02*
X7Y809D01*
X700Y809D02*
X707Y809D01*
X0Y808D02*
X7Y808D01*
X700Y808D02*
X707Y808D01*
X0Y807D02*
X7Y807D01*
X700Y807D02*
X707Y807D01*
X0Y806D02*
X7Y806D01*
X700Y806D02*
X707Y806D01*
X0Y805D02*
X7Y805D01*
X700Y805D02*
X707Y805D01*
X0Y804D02*
X7Y804D01*
X700Y804D02*
X707Y804D01*
X0Y803D02*
X7Y803D01*
X700Y803D02*
X707Y803D01*
X0Y802D02*
X7Y802D01*
X700Y802D02*
X707Y802D01*
X0Y801D02*
X7Y801D01*
X700Y801D02*
X707Y801D01*
X0Y800D02*
X7Y800D01*
X700Y800D02*
X707Y800D01*
X0Y799D02*
X7Y799D01*
X700Y799D02*
X707Y799D01*
X0Y798D02*
X7Y798D01*
X700Y798D02*
X707Y798D01*
X0Y797D02*
X7Y797D01*
X700Y797D02*
X707Y797D01*
X0Y796D02*
X7Y796D01*
X700Y796D02*
X707Y796D01*
X0Y795D02*
X7Y795D01*
X700Y795D02*
X707Y795D01*
X0Y794D02*
X7Y794D01*
X700Y794D02*
X707Y794D01*
X0Y793D02*
X7Y793D01*
X700Y793D02*
X707Y793D01*
X0Y792D02*
X7Y792D01*
X700Y792D02*
X707Y792D01*
X0Y791D02*
X7Y791D01*
X700Y791D02*
X707Y791D01*
X0Y790D02*
X7Y790D01*
X700Y790D02*
X707Y790D01*
X0Y789D02*
X7Y789D01*
X700Y789D02*
X707Y789D01*
X0Y788D02*
X7Y788D01*
X700Y788D02*
X707Y788D01*
X0Y787D02*
X7Y787D01*
X700Y787D02*
X707Y787D01*
X0Y786D02*
X7Y786D01*
X700Y786D02*
X707Y786D01*
X0Y785D02*
X7Y785D01*
X700Y785D02*
X707Y785D01*
X0Y784D02*
X7Y784D01*
X700Y784D02*
X707Y784D01*
X0Y783D02*
X7Y783D01*
X700Y783D02*
X707Y783D01*
X0Y782D02*
X7Y782D01*
X700Y782D02*
X707Y782D01*
X0Y781D02*
X7Y781D01*
X700Y781D02*
X707Y781D01*
X0Y780D02*
X7Y780D01*
X700Y780D02*
X707Y780D01*
X0Y779D02*
X7Y779D01*
X700Y779D02*
X707Y779D01*
X0Y778D02*
X7Y778D01*
X700Y778D02*
X707Y778D01*
X0Y777D02*
X7Y777D01*
X700Y777D02*
X707Y777D01*
X0Y776D02*
X7Y776D01*
X700Y776D02*
X707Y776D01*
X0Y775D02*
X7Y775D01*
X700Y775D02*
X707Y775D01*
X0Y774D02*
X7Y774D01*
X700Y774D02*
X707Y774D01*
X0Y773D02*
X7Y773D01*
X700Y773D02*
X707Y773D01*
X0Y772D02*
X7Y772D01*
X700Y772D02*
X707Y772D01*
X0Y771D02*
X7Y771D01*
X700Y771D02*
X707Y771D01*
X0Y770D02*
X7Y770D01*
X700Y770D02*
X707Y770D01*
X0Y769D02*
X7Y769D01*
X700Y769D02*
X707Y769D01*
X0Y768D02*
X7Y768D01*
X700Y768D02*
X707Y768D01*
X0Y767D02*
X7Y767D01*
X700Y767D02*
X707Y767D01*
X0Y766D02*
X7Y766D01*
X700Y766D02*
X707Y766D01*
X0Y765D02*
X7Y765D01*
X700Y765D02*
X707Y765D01*
X0Y764D02*
X7Y764D01*
X700Y764D02*
X707Y764D01*
X0Y763D02*
X7Y763D01*
X700Y763D02*
X707Y763D01*
X0Y762D02*
X7Y762D01*
X700Y762D02*
X707Y762D01*
X0Y761D02*
X7Y761D01*
X700Y761D02*
X707Y761D01*
X0Y760D02*
X7Y760D01*
X700Y760D02*
X707Y760D01*
X0Y759D02*
X7Y759D01*
X700Y759D02*
X707Y759D01*
X0Y758D02*
X7Y758D01*
X700Y758D02*
X707Y758D01*
X0Y757D02*
X7Y757D01*
X700Y757D02*
X707Y757D01*
X0Y756D02*
X7Y756D01*
X700Y756D02*
X707Y756D01*
X0Y755D02*
X7Y755D01*
X700Y755D02*
X707Y755D01*
X0Y754D02*
X7Y754D01*
X700Y754D02*
X707Y754D01*
X0Y753D02*
X7Y753D01*
X700Y753D02*
X707Y753D01*
X0Y752D02*
X7Y752D01*
X700Y752D02*
X707Y752D01*
X0Y751D02*
X7Y751D01*
X700Y751D02*
X707Y751D01*
X0Y750D02*
X7Y750D01*
X700Y750D02*
X707Y750D01*
X0Y749D02*
X7Y749D01*
X700Y749D02*
X707Y749D01*
X0Y748D02*
X7Y748D01*
X700Y748D02*
X707Y748D01*
X0Y747D02*
X7Y747D01*
X700Y747D02*
X707Y747D01*
X0Y746D02*
X7Y746D01*
X700Y746D02*
X707Y746D01*
X0Y745D02*
X7Y745D01*
X700Y745D02*
X707Y745D01*
X0Y744D02*
X7Y744D01*
X700Y744D02*
X707Y744D01*
X0Y743D02*
X7Y743D01*
X700Y743D02*
X707Y743D01*
X0Y742D02*
X7Y742D01*
X700Y742D02*
X707Y742D01*
X0Y741D02*
X7Y741D01*
X700Y741D02*
X707Y741D01*
X0Y740D02*
X7Y740D01*
X700Y740D02*
X707Y740D01*
X0Y739D02*
X7Y739D01*
X700Y739D02*
X707Y739D01*
X0Y738D02*
X7Y738D01*
X700Y738D02*
X707Y738D01*
X0Y737D02*
X7Y737D01*
X700Y737D02*
X707Y737D01*
X0Y736D02*
X7Y736D01*
X700Y736D02*
X707Y736D01*
X0Y735D02*
X7Y735D01*
X700Y735D02*
X707Y735D01*
X0Y734D02*
X7Y734D01*
X700Y734D02*
X707Y734D01*
X0Y733D02*
X7Y733D01*
X700Y733D02*
X707Y733D01*
X0Y732D02*
X7Y732D01*
X700Y732D02*
X707Y732D01*
X0Y731D02*
X7Y731D01*
X700Y731D02*
X707Y731D01*
X0Y730D02*
X7Y730D01*
X700Y730D02*
X707Y730D01*
X0Y729D02*
X7Y729D01*
X700Y729D02*
X707Y729D01*
X0Y728D02*
X7Y728D01*
X700Y728D02*
X707Y728D01*
X0Y727D02*
X7Y727D01*
X700Y727D02*
X707Y727D01*
X0Y726D02*
X7Y726D01*
X700Y726D02*
X707Y726D01*
X0Y725D02*
X7Y725D01*
X700Y725D02*
X707Y725D01*
X0Y724D02*
X7Y724D01*
X700Y724D02*
X707Y724D01*
X0Y723D02*
X7Y723D01*
X700Y723D02*
X707Y723D01*
X0Y722D02*
X7Y722D01*
X700Y722D02*
X707Y722D01*
X0Y721D02*
X7Y721D01*
X700Y721D02*
X707Y721D01*
X0Y720D02*
X7Y720D01*
X700Y720D02*
X707Y720D01*
X0Y719D02*
X7Y719D01*
X700Y719D02*
X707Y719D01*
X0Y718D02*
X7Y718D01*
X700Y718D02*
X707Y718D01*
X0Y717D02*
X7Y717D01*
X700Y717D02*
X707Y717D01*
X0Y716D02*
X7Y716D01*
X700Y716D02*
X707Y716D01*
X0Y715D02*
X7Y715D01*
X700Y715D02*
X707Y715D01*
X0Y714D02*
X7Y714D01*
X700Y714D02*
X707Y714D01*
X0Y713D02*
X7Y713D01*
X700Y713D02*
X707Y713D01*
X0Y712D02*
X7Y712D01*
X700Y712D02*
X707Y712D01*
X0Y711D02*
X7Y711D01*
X700Y711D02*
X707Y711D01*
X0Y710D02*
X7Y710D01*
X700Y710D02*
X707Y710D01*
X0Y709D02*
X7Y709D01*
X700Y709D02*
X707Y709D01*
X0Y708D02*
X7Y708D01*
X700Y708D02*
X707Y708D01*
X0Y707D02*
X7Y707D01*
X700Y707D02*
X707Y707D01*
X0Y706D02*
X7Y706D01*
X700Y706D02*
X707Y706D01*
X0Y705D02*
X7Y705D01*
X700Y705D02*
X707Y705D01*
X0Y704D02*
X7Y704D01*
X700Y704D02*
X707Y704D01*
X0Y703D02*
X7Y703D01*
X700Y703D02*
X707Y703D01*
X0Y702D02*
X7Y702D01*
X700Y702D02*
X707Y702D01*
X0Y701D02*
X7Y701D01*
X700Y701D02*
X707Y701D01*
X0Y700D02*
X7Y700D01*
X700Y700D02*
X707Y700D01*
X0Y699D02*
X7Y699D01*
X700Y699D02*
X707Y699D01*
X0Y698D02*
X7Y698D01*
X700Y698D02*
X707Y698D01*
X0Y697D02*
X7Y697D01*
X700Y697D02*
X707Y697D01*
X0Y696D02*
X7Y696D01*
X700Y696D02*
X707Y696D01*
X0Y695D02*
X7Y695D01*
X700Y695D02*
X707Y695D01*
X0Y694D02*
X7Y694D01*
X700Y694D02*
X707Y694D01*
X0Y693D02*
X7Y693D01*
X700Y693D02*
X707Y693D01*
X0Y692D02*
X7Y692D01*
X700Y692D02*
X707Y692D01*
X0Y691D02*
X7Y691D01*
X700Y691D02*
X707Y691D01*
X0Y690D02*
X7Y690D01*
X700Y690D02*
X707Y690D01*
X0Y689D02*
X7Y689D01*
X700Y689D02*
X707Y689D01*
X0Y688D02*
X7Y688D01*
X700Y688D02*
X707Y688D01*
X0Y687D02*
X7Y687D01*
X700Y687D02*
X707Y687D01*
X0Y686D02*
X7Y686D01*
X700Y686D02*
X707Y686D01*
X0Y685D02*
X7Y685D01*
X700Y685D02*
X707Y685D01*
X0Y684D02*
X7Y684D01*
X700Y684D02*
X707Y684D01*
X0Y683D02*
X7Y683D01*
X700Y683D02*
X707Y683D01*
X0Y682D02*
X7Y682D01*
X700Y682D02*
X707Y682D01*
X0Y681D02*
X7Y681D01*
X700Y681D02*
X707Y681D01*
X0Y680D02*
X7Y680D01*
X700Y680D02*
X707Y680D01*
X0Y679D02*
X7Y679D01*
X700Y679D02*
X707Y679D01*
X0Y678D02*
X7Y678D01*
X700Y678D02*
X707Y678D01*
X0Y677D02*
X7Y677D01*
X700Y677D02*
X707Y677D01*
X0Y676D02*
X7Y676D01*
X700Y676D02*
X707Y676D01*
X0Y675D02*
X7Y675D01*
X700Y675D02*
X707Y675D01*
X0Y674D02*
X7Y674D01*
X700Y674D02*
X707Y674D01*
X0Y673D02*
X7Y673D01*
X700Y673D02*
X707Y673D01*
X0Y672D02*
X7Y672D01*
X700Y672D02*
X707Y672D01*
X0Y671D02*
X7Y671D01*
X700Y671D02*
X707Y671D01*
X0Y670D02*
X7Y670D01*
X700Y670D02*
X707Y670D01*
X0Y669D02*
X7Y669D01*
X700Y669D02*
X707Y669D01*
X0Y668D02*
X7Y668D01*
X700Y668D02*
X707Y668D01*
X0Y667D02*
X7Y667D01*
X700Y667D02*
X707Y667D01*
X0Y666D02*
X7Y666D01*
X700Y666D02*
X707Y666D01*
X0Y665D02*
X7Y665D01*
X700Y665D02*
X707Y665D01*
X0Y664D02*
X7Y664D01*
X700Y664D02*
X707Y664D01*
X0Y663D02*
X7Y663D01*
X700Y663D02*
X707Y663D01*
X0Y662D02*
X7Y662D01*
X700Y662D02*
X707Y662D01*
X0Y661D02*
X7Y661D01*
X700Y661D02*
X707Y661D01*
X0Y660D02*
X7Y660D01*
X700Y660D02*
X707Y660D01*
X0Y659D02*
X7Y659D01*
X700Y659D02*
X707Y659D01*
X0Y658D02*
X7Y658D01*
X700Y658D02*
X707Y658D01*
X0Y657D02*
X7Y657D01*
X700Y657D02*
X707Y657D01*
X0Y656D02*
X7Y656D01*
X700Y656D02*
X707Y656D01*
X0Y655D02*
X7Y655D01*
X700Y655D02*
X707Y655D01*
X0Y654D02*
X7Y654D01*
X700Y654D02*
X707Y654D01*
X0Y653D02*
X7Y653D01*
X700Y653D02*
X707Y653D01*
X0Y652D02*
X7Y652D01*
X700Y652D02*
X707Y652D01*
X0Y651D02*
X7Y651D01*
X700Y651D02*
X707Y651D01*
X0Y650D02*
X7Y650D01*
X700Y650D02*
X707Y650D01*
X0Y649D02*
X7Y649D01*
X700Y649D02*
X707Y649D01*
X0Y648D02*
X7Y648D01*
X700Y648D02*
X707Y648D01*
X0Y647D02*
X7Y647D01*
X700Y647D02*
X707Y647D01*
X0Y646D02*
X7Y646D01*
X700Y646D02*
X707Y646D01*
X0Y645D02*
X7Y645D01*
X700Y645D02*
X707Y645D01*
X0Y644D02*
X7Y644D01*
X700Y644D02*
X707Y644D01*
X0Y643D02*
X7Y643D01*
X700Y643D02*
X707Y643D01*
X0Y642D02*
X7Y642D01*
X700Y642D02*
X707Y642D01*
X0Y641D02*
X7Y641D01*
X700Y641D02*
X707Y641D01*
X0Y640D02*
X7Y640D01*
X700Y640D02*
X707Y640D01*
X0Y639D02*
X7Y639D01*
X700Y639D02*
X707Y639D01*
X0Y638D02*
X7Y638D01*
X700Y638D02*
X707Y638D01*
X0Y637D02*
X7Y637D01*
X700Y637D02*
X707Y637D01*
X0Y636D02*
X7Y636D01*
X700Y636D02*
X707Y636D01*
X0Y635D02*
X7Y635D01*
X700Y635D02*
X707Y635D01*
X0Y634D02*
X7Y634D01*
X700Y634D02*
X707Y634D01*
X0Y633D02*
X7Y633D01*
X700Y633D02*
X707Y633D01*
X0Y632D02*
X7Y632D01*
X700Y632D02*
X707Y632D01*
X0Y631D02*
X7Y631D01*
X700Y631D02*
X707Y631D01*
X0Y630D02*
X7Y630D01*
X700Y630D02*
X707Y630D01*
X0Y629D02*
X7Y629D01*
X700Y629D02*
X707Y629D01*
X0Y628D02*
X7Y628D01*
X700Y628D02*
X707Y628D01*
X0Y627D02*
X7Y627D01*
X700Y627D02*
X707Y627D01*
X0Y626D02*
X7Y626D01*
X700Y626D02*
X707Y626D01*
X0Y625D02*
X7Y625D01*
X700Y625D02*
X707Y625D01*
X0Y624D02*
X7Y624D01*
X700Y624D02*
X707Y624D01*
X0Y623D02*
X7Y623D01*
X700Y623D02*
X707Y623D01*
X0Y622D02*
X7Y622D01*
X700Y622D02*
X707Y622D01*
X0Y621D02*
X7Y621D01*
X700Y621D02*
X707Y621D01*
X0Y620D02*
X7Y620D01*
X700Y620D02*
X707Y620D01*
X0Y619D02*
X7Y619D01*
X700Y619D02*
X707Y619D01*
X0Y618D02*
X7Y618D01*
X700Y618D02*
X707Y618D01*
X0Y617D02*
X7Y617D01*
X700Y617D02*
X707Y617D01*
X0Y616D02*
X7Y616D01*
X700Y616D02*
X707Y616D01*
X0Y615D02*
X7Y615D01*
X700Y615D02*
X707Y615D01*
X0Y614D02*
X7Y614D01*
X700Y614D02*
X707Y614D01*
X0Y613D02*
X7Y613D01*
X700Y613D02*
X707Y613D01*
X0Y612D02*
X7Y612D01*
X700Y612D02*
X707Y612D01*
X0Y611D02*
X7Y611D01*
X700Y611D02*
X707Y611D01*
X0Y610D02*
X7Y610D01*
X700Y610D02*
X707Y610D01*
X0Y609D02*
X7Y609D01*
X700Y609D02*
X707Y609D01*
X0Y608D02*
X7Y608D01*
X700Y608D02*
X707Y608D01*
X0Y607D02*
X7Y607D01*
X700Y607D02*
X707Y607D01*
X0Y606D02*
X7Y606D01*
X700Y606D02*
X707Y606D01*
X0Y605D02*
X7Y605D01*
X700Y605D02*
X707Y605D01*
X0Y604D02*
X7Y604D01*
X700Y604D02*
X707Y604D01*
X0Y603D02*
X7Y603D01*
X700Y603D02*
X707Y603D01*
X0Y602D02*
X7Y602D01*
X700Y602D02*
X707Y602D01*
X0Y601D02*
X7Y601D01*
X700Y601D02*
X707Y601D01*
X0Y600D02*
X7Y600D01*
X700Y600D02*
X707Y600D01*
X0Y599D02*
X7Y599D01*
X700Y599D02*
X707Y599D01*
X0Y598D02*
X7Y598D01*
X700Y598D02*
X707Y598D01*
X0Y597D02*
X7Y597D01*
X700Y597D02*
X707Y597D01*
X0Y596D02*
X7Y596D01*
X700Y596D02*
X707Y596D01*
X0Y595D02*
X7Y595D01*
X700Y595D02*
X707Y595D01*
X0Y594D02*
X7Y594D01*
X700Y594D02*
X707Y594D01*
X0Y593D02*
X7Y593D01*
X700Y593D02*
X707Y593D01*
X0Y592D02*
X7Y592D01*
X700Y592D02*
X707Y592D01*
X0Y591D02*
X7Y591D01*
X700Y591D02*
X707Y591D01*
X0Y590D02*
X7Y590D01*
X700Y590D02*
X707Y590D01*
X0Y589D02*
X7Y589D01*
X700Y589D02*
X707Y589D01*
X0Y588D02*
X7Y588D01*
X700Y588D02*
X707Y588D01*
X0Y587D02*
X7Y587D01*
X700Y587D02*
X707Y587D01*
X0Y586D02*
X7Y586D01*
X700Y586D02*
X707Y586D01*
X0Y585D02*
X7Y585D01*
X700Y585D02*
X707Y585D01*
X0Y584D02*
X7Y584D01*
X700Y584D02*
X707Y584D01*
X0Y583D02*
X7Y583D01*
X700Y583D02*
X707Y583D01*
X0Y582D02*
X7Y582D01*
X700Y582D02*
X707Y582D01*
X0Y581D02*
X7Y581D01*
X700Y581D02*
X707Y581D01*
X0Y580D02*
X7Y580D01*
X700Y580D02*
X707Y580D01*
X0Y579D02*
X7Y579D01*
X700Y579D02*
X707Y579D01*
X0Y578D02*
X7Y578D01*
X700Y578D02*
X707Y578D01*
X0Y577D02*
X7Y577D01*
X700Y577D02*
X707Y577D01*
X0Y576D02*
X7Y576D01*
X700Y576D02*
X707Y576D01*
X0Y575D02*
X7Y575D01*
X700Y575D02*
X707Y575D01*
X0Y574D02*
X7Y574D01*
X700Y574D02*
X707Y574D01*
X0Y573D02*
X7Y573D01*
X700Y573D02*
X707Y573D01*
X0Y572D02*
X7Y572D01*
X700Y572D02*
X707Y572D01*
X0Y571D02*
X7Y571D01*
X700Y571D02*
X707Y571D01*
X0Y570D02*
X7Y570D01*
X700Y570D02*
X707Y570D01*
X0Y569D02*
X7Y569D01*
X700Y569D02*
X707Y569D01*
X0Y568D02*
X7Y568D01*
X700Y568D02*
X707Y568D01*
X0Y567D02*
X7Y567D01*
X700Y567D02*
X707Y567D01*
X0Y566D02*
X7Y566D01*
X700Y566D02*
X707Y566D01*
X0Y565D02*
X7Y565D01*
X700Y565D02*
X707Y565D01*
X0Y564D02*
X7Y564D01*
X700Y564D02*
X707Y564D01*
X0Y563D02*
X7Y563D01*
X700Y563D02*
X707Y563D01*
X0Y562D02*
X7Y562D01*
X700Y562D02*
X707Y562D01*
X0Y561D02*
X7Y561D01*
X700Y561D02*
X707Y561D01*
X0Y560D02*
X7Y560D01*
X700Y560D02*
X707Y560D01*
X0Y559D02*
X7Y559D01*
X700Y559D02*
X707Y559D01*
X0Y558D02*
X7Y558D01*
X700Y558D02*
X707Y558D01*
X0Y557D02*
X7Y557D01*
X700Y557D02*
X707Y557D01*
X0Y556D02*
X7Y556D01*
X700Y556D02*
X707Y556D01*
X0Y555D02*
X7Y555D01*
X700Y555D02*
X707Y555D01*
X0Y554D02*
X7Y554D01*
X700Y554D02*
X707Y554D01*
X0Y553D02*
X7Y553D01*
X700Y553D02*
X707Y553D01*
X0Y552D02*
X7Y552D01*
X700Y552D02*
X707Y552D01*
X0Y551D02*
X7Y551D01*
X700Y551D02*
X707Y551D01*
X0Y550D02*
X7Y550D01*
X700Y550D02*
X707Y550D01*
X0Y549D02*
X7Y549D01*
X700Y549D02*
X707Y549D01*
X0Y548D02*
X7Y548D01*
X700Y548D02*
X707Y548D01*
X0Y547D02*
X7Y547D01*
X700Y547D02*
X707Y547D01*
X0Y546D02*
X7Y546D01*
X700Y546D02*
X707Y546D01*
X0Y545D02*
X7Y545D01*
X700Y545D02*
X707Y545D01*
X0Y544D02*
X7Y544D01*
X700Y544D02*
X707Y544D01*
X0Y543D02*
X7Y543D01*
X700Y543D02*
X707Y543D01*
X0Y542D02*
X7Y542D01*
X700Y542D02*
X707Y542D01*
X0Y541D02*
X7Y541D01*
X700Y541D02*
X707Y541D01*
X0Y540D02*
X7Y540D01*
X700Y540D02*
X707Y540D01*
X0Y539D02*
X7Y539D01*
X700Y539D02*
X707Y539D01*
X0Y538D02*
X7Y538D01*
X700Y538D02*
X707Y538D01*
X0Y537D02*
X7Y537D01*
X700Y537D02*
X707Y537D01*
X0Y536D02*
X7Y536D01*
X700Y536D02*
X707Y536D01*
X0Y535D02*
X7Y535D01*
X700Y535D02*
X707Y535D01*
X0Y534D02*
X7Y534D01*
X700Y534D02*
X707Y534D01*
X0Y533D02*
X7Y533D01*
X700Y533D02*
X707Y533D01*
X0Y532D02*
X7Y532D01*
X700Y532D02*
X707Y532D01*
X0Y531D02*
X7Y531D01*
X700Y531D02*
X707Y531D01*
X0Y530D02*
X7Y530D01*
X700Y530D02*
X707Y530D01*
X0Y529D02*
X7Y529D01*
X700Y529D02*
X707Y529D01*
X0Y528D02*
X7Y528D01*
X700Y528D02*
X707Y528D01*
X0Y527D02*
X7Y527D01*
X700Y527D02*
X707Y527D01*
X0Y526D02*
X7Y526D01*
X700Y526D02*
X707Y526D01*
X0Y525D02*
X7Y525D01*
X700Y525D02*
X707Y525D01*
X0Y524D02*
X7Y524D01*
X700Y524D02*
X707Y524D01*
X0Y523D02*
X7Y523D01*
X700Y523D02*
X707Y523D01*
X0Y522D02*
X7Y522D01*
X700Y522D02*
X707Y522D01*
X0Y521D02*
X7Y521D01*
X700Y521D02*
X707Y521D01*
X0Y520D02*
X7Y520D01*
X700Y520D02*
X707Y520D01*
X0Y519D02*
X7Y519D01*
X700Y519D02*
X707Y519D01*
X0Y518D02*
X7Y518D01*
X700Y518D02*
X707Y518D01*
X0Y517D02*
X7Y517D01*
X700Y517D02*
X707Y517D01*
X0Y516D02*
X7Y516D01*
X700Y516D02*
X707Y516D01*
X0Y515D02*
X7Y515D01*
X700Y515D02*
X707Y515D01*
X0Y514D02*
X7Y514D01*
X700Y514D02*
X707Y514D01*
X0Y513D02*
X7Y513D01*
X700Y513D02*
X707Y513D01*
X0Y512D02*
X7Y512D01*
X700Y512D02*
X707Y512D01*
X0Y511D02*
X7Y511D01*
X700Y511D02*
X707Y511D01*
X0Y510D02*
X7Y510D01*
X700Y510D02*
X707Y510D01*
X0Y509D02*
X7Y509D01*
X700Y509D02*
X707Y509D01*
X0Y508D02*
X7Y508D01*
X700Y508D02*
X707Y508D01*
X0Y507D02*
X7Y507D01*
X700Y507D02*
X707Y507D01*
X0Y506D02*
X7Y506D01*
X700Y506D02*
X707Y506D01*
X0Y505D02*
X7Y505D01*
X700Y505D02*
X707Y505D01*
X0Y504D02*
X7Y504D01*
X700Y504D02*
X707Y504D01*
X0Y503D02*
X7Y503D01*
X700Y503D02*
X707Y503D01*
X0Y502D02*
X7Y502D01*
X700Y502D02*
X707Y502D01*
X0Y501D02*
X7Y501D01*
X700Y501D02*
X707Y501D01*
X0Y500D02*
X7Y500D01*
X700Y500D02*
X707Y500D01*
X0Y499D02*
X7Y499D01*
X700Y499D02*
X707Y499D01*
X0Y498D02*
X7Y498D01*
X700Y498D02*
X707Y498D01*
X0Y497D02*
X7Y497D01*
X700Y497D02*
X707Y497D01*
X0Y496D02*
X7Y496D01*
X700Y496D02*
X707Y496D01*
X0Y495D02*
X7Y495D01*
X700Y495D02*
X707Y495D01*
X0Y494D02*
X7Y494D01*
X700Y494D02*
X707Y494D01*
X0Y493D02*
X7Y493D01*
X700Y493D02*
X707Y493D01*
X0Y492D02*
X7Y492D01*
X700Y492D02*
X707Y492D01*
X0Y491D02*
X7Y491D01*
X700Y491D02*
X707Y491D01*
X0Y490D02*
X7Y490D01*
X700Y490D02*
X707Y490D01*
X0Y489D02*
X7Y489D01*
X700Y489D02*
X707Y489D01*
X0Y488D02*
X7Y488D01*
X700Y488D02*
X707Y488D01*
X0Y487D02*
X7Y487D01*
X700Y487D02*
X707Y487D01*
X0Y486D02*
X7Y486D01*
X700Y486D02*
X707Y486D01*
X0Y485D02*
X7Y485D01*
X700Y485D02*
X707Y485D01*
X0Y484D02*
X7Y484D01*
X700Y484D02*
X707Y484D01*
X0Y483D02*
X7Y483D01*
X700Y483D02*
X707Y483D01*
X0Y482D02*
X7Y482D01*
X700Y482D02*
X707Y482D01*
X0Y481D02*
X7Y481D01*
X700Y481D02*
X707Y481D01*
X0Y480D02*
X7Y480D01*
X700Y480D02*
X707Y480D01*
X0Y479D02*
X7Y479D01*
X700Y479D02*
X707Y479D01*
X0Y478D02*
X7Y478D01*
X700Y478D02*
X707Y478D01*
X0Y477D02*
X7Y477D01*
X700Y477D02*
X707Y477D01*
X0Y476D02*
X7Y476D01*
X700Y476D02*
X707Y476D01*
X0Y475D02*
X7Y475D01*
X700Y475D02*
X707Y475D01*
X0Y474D02*
X7Y474D01*
X700Y474D02*
X707Y474D01*
X0Y473D02*
X7Y473D01*
X700Y473D02*
X707Y473D01*
X0Y472D02*
X7Y472D01*
X700Y472D02*
X707Y472D01*
X0Y471D02*
X7Y471D01*
X700Y471D02*
X707Y471D01*
X0Y470D02*
X7Y470D01*
X700Y470D02*
X707Y470D01*
X0Y469D02*
X7Y469D01*
X700Y469D02*
X707Y469D01*
X0Y468D02*
X7Y468D01*
X259Y468D02*
X290Y468D01*
X309Y468D02*
X317Y468D01*
X339Y468D02*
X340Y468D01*
X375Y468D02*
X390Y468D01*
X411Y468D02*
X437Y468D01*
X700Y468D02*
X707Y468D01*
X0Y467D02*
X7Y467D01*
X259Y467D02*
X292Y467D01*
X309Y467D02*
X318Y467D01*
X337Y467D02*
X342Y467D01*
X372Y467D02*
X391Y467D01*
X410Y467D02*
X439Y467D01*
X700Y467D02*
X707Y467D01*
X0Y466D02*
X7Y466D01*
X259Y466D02*
X292Y466D01*
X309Y466D02*
X318Y466D01*
X337Y466D02*
X342Y466D01*
X370Y466D02*
X392Y466D01*
X409Y466D02*
X440Y466D01*
X700Y466D02*
X707Y466D01*
X0Y465D02*
X7Y465D01*
X259Y465D02*
X292Y465D01*
X309Y465D02*
X319Y465D01*
X336Y465D02*
X342Y465D01*
X369Y465D02*
X392Y465D01*
X409Y465D02*
X441Y465D01*
X700Y465D02*
X707Y465D01*
X0Y464D02*
X7Y464D01*
X259Y464D02*
X292Y464D01*
X309Y464D02*
X319Y464D01*
X336Y464D02*
X342Y464D01*
X368Y464D02*
X392Y464D01*
X409Y464D02*
X442Y464D01*
X700Y464D02*
X707Y464D01*
X0Y463D02*
X7Y463D01*
X259Y463D02*
X292Y463D01*
X309Y463D02*
X319Y463D01*
X336Y463D02*
X342Y463D01*
X368Y463D02*
X392Y463D01*
X409Y463D02*
X442Y463D01*
X700Y463D02*
X707Y463D01*
X0Y462D02*
X7Y462D01*
X259Y462D02*
X291Y462D01*
X309Y462D02*
X320Y462D01*
X336Y462D02*
X342Y462D01*
X367Y462D02*
X391Y462D01*
X410Y462D02*
X442Y462D01*
X700Y462D02*
X707Y462D01*
X0Y461D02*
X7Y461D01*
X259Y461D02*
X265Y461D01*
X309Y461D02*
X320Y461D01*
X336Y461D02*
X342Y461D01*
X367Y461D02*
X375Y461D01*
X436Y461D02*
X442Y461D01*
X700Y461D02*
X707Y461D01*
X0Y460D02*
X7Y460D01*
X259Y460D02*
X265Y460D01*
X309Y460D02*
X321Y460D01*
X336Y460D02*
X342Y460D01*
X366Y460D02*
X373Y460D01*
X436Y460D02*
X442Y460D01*
X700Y460D02*
X707Y460D01*
X0Y459D02*
X7Y459D01*
X259Y459D02*
X265Y459D01*
X309Y459D02*
X321Y459D01*
X336Y459D02*
X342Y459D01*
X366Y459D02*
X373Y459D01*
X436Y459D02*
X442Y459D01*
X700Y459D02*
X707Y459D01*
X0Y458D02*
X7Y458D01*
X259Y458D02*
X265Y458D01*
X309Y458D02*
X322Y458D01*
X336Y458D02*
X342Y458D01*
X365Y458D02*
X372Y458D01*
X436Y458D02*
X442Y458D01*
X700Y458D02*
X707Y458D01*
X0Y457D02*
X7Y457D01*
X259Y457D02*
X265Y457D01*
X309Y457D02*
X322Y457D01*
X336Y457D02*
X342Y457D01*
X365Y457D02*
X372Y457D01*
X436Y457D02*
X442Y457D01*
X700Y457D02*
X707Y457D01*
X0Y456D02*
X7Y456D01*
X259Y456D02*
X265Y456D01*
X309Y456D02*
X322Y456D01*
X336Y456D02*
X342Y456D01*
X364Y456D02*
X371Y456D01*
X436Y456D02*
X442Y456D01*
X700Y456D02*
X707Y456D01*
X0Y455D02*
X7Y455D01*
X259Y455D02*
X265Y455D01*
X309Y455D02*
X323Y455D01*
X336Y455D02*
X342Y455D01*
X364Y455D02*
X371Y455D01*
X436Y455D02*
X442Y455D01*
X700Y455D02*
X707Y455D01*
X0Y454D02*
X7Y454D01*
X259Y454D02*
X265Y454D01*
X309Y454D02*
X315Y454D01*
X317Y454D02*
X323Y454D01*
X336Y454D02*
X342Y454D01*
X363Y454D02*
X370Y454D01*
X436Y454D02*
X442Y454D01*
X700Y454D02*
X707Y454D01*
X0Y453D02*
X7Y453D01*
X259Y453D02*
X265Y453D01*
X309Y453D02*
X315Y453D01*
X317Y453D02*
X324Y453D01*
X336Y453D02*
X342Y453D01*
X363Y453D02*
X370Y453D01*
X436Y453D02*
X442Y453D01*
X700Y453D02*
X707Y453D01*
X0Y452D02*
X7Y452D01*
X259Y452D02*
X265Y452D01*
X309Y452D02*
X315Y452D01*
X318Y452D02*
X324Y452D01*
X336Y452D02*
X342Y452D01*
X362Y452D02*
X369Y452D01*
X436Y452D02*
X442Y452D01*
X700Y452D02*
X707Y452D01*
X0Y451D02*
X7Y451D01*
X259Y451D02*
X265Y451D01*
X309Y451D02*
X315Y451D01*
X318Y451D02*
X325Y451D01*
X336Y451D02*
X342Y451D01*
X362Y451D02*
X369Y451D01*
X436Y451D02*
X442Y451D01*
X700Y451D02*
X707Y451D01*
X0Y450D02*
X7Y450D01*
X259Y450D02*
X265Y450D01*
X309Y450D02*
X315Y450D01*
X318Y450D02*
X325Y450D01*
X336Y450D02*
X342Y450D01*
X361Y450D02*
X368Y450D01*
X436Y450D02*
X442Y450D01*
X700Y450D02*
X707Y450D01*
X0Y449D02*
X7Y449D01*
X259Y449D02*
X265Y449D01*
X309Y449D02*
X315Y449D01*
X319Y449D02*
X326Y449D01*
X336Y449D02*
X342Y449D01*
X361Y449D02*
X368Y449D01*
X436Y449D02*
X442Y449D01*
X700Y449D02*
X707Y449D01*
X0Y448D02*
X7Y448D01*
X259Y448D02*
X265Y448D01*
X309Y448D02*
X315Y448D01*
X319Y448D02*
X326Y448D01*
X336Y448D02*
X342Y448D01*
X360Y448D02*
X367Y448D01*
X436Y448D02*
X442Y448D01*
X700Y448D02*
X707Y448D01*
X0Y447D02*
X7Y447D01*
X259Y447D02*
X265Y447D01*
X309Y447D02*
X315Y447D01*
X320Y447D02*
X326Y447D01*
X336Y447D02*
X342Y447D01*
X360Y447D02*
X367Y447D01*
X436Y447D02*
X442Y447D01*
X700Y447D02*
X707Y447D01*
X0Y446D02*
X7Y446D01*
X259Y446D02*
X265Y446D01*
X309Y446D02*
X315Y446D01*
X320Y446D02*
X327Y446D01*
X336Y446D02*
X342Y446D01*
X360Y446D02*
X366Y446D01*
X436Y446D02*
X442Y446D01*
X700Y446D02*
X707Y446D01*
X0Y445D02*
X7Y445D01*
X259Y445D02*
X265Y445D01*
X309Y445D02*
X315Y445D01*
X321Y445D02*
X327Y445D01*
X336Y445D02*
X342Y445D01*
X359Y445D02*
X366Y445D01*
X436Y445D02*
X442Y445D01*
X700Y445D02*
X707Y445D01*
X0Y444D02*
X7Y444D01*
X259Y444D02*
X277Y444D01*
X309Y444D02*
X315Y444D01*
X321Y444D02*
X328Y444D01*
X336Y444D02*
X342Y444D01*
X359Y444D02*
X365Y444D01*
X413Y444D02*
X442Y444D01*
X700Y444D02*
X707Y444D01*
X0Y443D02*
X7Y443D01*
X259Y443D02*
X278Y443D01*
X309Y443D02*
X315Y443D01*
X321Y443D02*
X328Y443D01*
X336Y443D02*
X342Y443D01*
X359Y443D02*
X365Y443D01*
X411Y443D02*
X442Y443D01*
X700Y443D02*
X707Y443D01*
X0Y442D02*
X7Y442D01*
X259Y442D02*
X279Y442D01*
X309Y442D02*
X315Y442D01*
X322Y442D02*
X329Y442D01*
X336Y442D02*
X342Y442D01*
X359Y442D02*
X365Y442D01*
X410Y442D02*
X442Y442D01*
X700Y442D02*
X707Y442D01*
X0Y441D02*
X7Y441D01*
X259Y441D02*
X279Y441D01*
X309Y441D02*
X315Y441D01*
X322Y441D02*
X329Y441D01*
X336Y441D02*
X342Y441D01*
X359Y441D02*
X365Y441D01*
X410Y441D02*
X441Y441D01*
X700Y441D02*
X707Y441D01*
X0Y440D02*
X7Y440D01*
X259Y440D02*
X278Y440D01*
X309Y440D02*
X315Y440D01*
X323Y440D02*
X329Y440D01*
X336Y440D02*
X342Y440D01*
X359Y440D02*
X365Y440D01*
X409Y440D02*
X441Y440D01*
X700Y440D02*
X707Y440D01*
X0Y439D02*
X7Y439D01*
X259Y439D02*
X278Y439D01*
X309Y439D02*
X315Y439D01*
X323Y439D02*
X330Y439D01*
X336Y439D02*
X342Y439D01*
X359Y439D02*
X365Y439D01*
X409Y439D02*
X439Y439D01*
X700Y439D02*
X707Y439D01*
X0Y438D02*
X7Y438D01*
X259Y438D02*
X277Y438D01*
X309Y438D02*
X315Y438D01*
X324Y438D02*
X330Y438D01*
X336Y438D02*
X342Y438D01*
X359Y438D02*
X365Y438D01*
X409Y438D02*
X438Y438D01*
X700Y438D02*
X707Y438D01*
X0Y437D02*
X7Y437D01*
X259Y437D02*
X265Y437D01*
X309Y437D02*
X315Y437D01*
X324Y437D02*
X331Y437D01*
X336Y437D02*
X342Y437D01*
X359Y437D02*
X366Y437D01*
X409Y437D02*
X415Y437D01*
X700Y437D02*
X707Y437D01*
X0Y436D02*
X7Y436D01*
X259Y436D02*
X265Y436D01*
X309Y436D02*
X315Y436D01*
X325Y436D02*
X331Y436D01*
X336Y436D02*
X342Y436D01*
X360Y436D02*
X366Y436D01*
X409Y436D02*
X415Y436D01*
X700Y436D02*
X707Y436D01*
X0Y435D02*
X7Y435D01*
X259Y435D02*
X265Y435D01*
X309Y435D02*
X315Y435D01*
X325Y435D02*
X332Y435D01*
X336Y435D02*
X342Y435D01*
X360Y435D02*
X367Y435D01*
X409Y435D02*
X415Y435D01*
X700Y435D02*
X707Y435D01*
X0Y434D02*
X7Y434D01*
X259Y434D02*
X265Y434D01*
X309Y434D02*
X315Y434D01*
X325Y434D02*
X332Y434D01*
X336Y434D02*
X342Y434D01*
X360Y434D02*
X367Y434D01*
X409Y434D02*
X415Y434D01*
X700Y434D02*
X707Y434D01*
X0Y433D02*
X7Y433D01*
X259Y433D02*
X265Y433D01*
X309Y433D02*
X315Y433D01*
X326Y433D02*
X333Y433D01*
X336Y433D02*
X342Y433D01*
X361Y433D02*
X368Y433D01*
X409Y433D02*
X415Y433D01*
X700Y433D02*
X707Y433D01*
X0Y432D02*
X7Y432D01*
X259Y432D02*
X265Y432D01*
X309Y432D02*
X315Y432D01*
X326Y432D02*
X333Y432D01*
X336Y432D02*
X342Y432D01*
X361Y432D02*
X368Y432D01*
X409Y432D02*
X415Y432D01*
X700Y432D02*
X707Y432D01*
X0Y431D02*
X7Y431D01*
X259Y431D02*
X265Y431D01*
X309Y431D02*
X315Y431D01*
X327Y431D02*
X333Y431D01*
X336Y431D02*
X342Y431D01*
X362Y431D02*
X369Y431D01*
X409Y431D02*
X415Y431D01*
X700Y431D02*
X707Y431D01*
X0Y430D02*
X7Y430D01*
X259Y430D02*
X265Y430D01*
X309Y430D02*
X315Y430D01*
X327Y430D02*
X334Y430D01*
X336Y430D02*
X342Y430D01*
X362Y430D02*
X369Y430D01*
X409Y430D02*
X415Y430D01*
X700Y430D02*
X707Y430D01*
X0Y429D02*
X7Y429D01*
X259Y429D02*
X265Y429D01*
X309Y429D02*
X315Y429D01*
X328Y429D02*
X334Y429D01*
X336Y429D02*
X342Y429D01*
X363Y429D02*
X370Y429D01*
X409Y429D02*
X415Y429D01*
X700Y429D02*
X707Y429D01*
X0Y428D02*
X7Y428D01*
X259Y428D02*
X265Y428D01*
X309Y428D02*
X315Y428D01*
X328Y428D02*
X342Y428D01*
X363Y428D02*
X370Y428D01*
X409Y428D02*
X415Y428D01*
X700Y428D02*
X707Y428D01*
X0Y427D02*
X7Y427D01*
X259Y427D02*
X265Y427D01*
X309Y427D02*
X315Y427D01*
X328Y427D02*
X342Y427D01*
X364Y427D02*
X371Y427D01*
X409Y427D02*
X415Y427D01*
X700Y427D02*
X707Y427D01*
X0Y426D02*
X7Y426D01*
X259Y426D02*
X265Y426D01*
X309Y426D02*
X315Y426D01*
X329Y426D02*
X342Y426D01*
X364Y426D02*
X371Y426D01*
X409Y426D02*
X415Y426D01*
X700Y426D02*
X707Y426D01*
X0Y425D02*
X7Y425D01*
X259Y425D02*
X265Y425D01*
X309Y425D02*
X315Y425D01*
X329Y425D02*
X342Y425D01*
X365Y425D02*
X372Y425D01*
X409Y425D02*
X415Y425D01*
X700Y425D02*
X707Y425D01*
X0Y424D02*
X7Y424D01*
X259Y424D02*
X265Y424D01*
X309Y424D02*
X315Y424D01*
X330Y424D02*
X342Y424D01*
X365Y424D02*
X372Y424D01*
X409Y424D02*
X415Y424D01*
X700Y424D02*
X707Y424D01*
X0Y423D02*
X7Y423D01*
X259Y423D02*
X265Y423D01*
X309Y423D02*
X315Y423D01*
X330Y423D02*
X342Y423D01*
X366Y423D02*
X373Y423D01*
X409Y423D02*
X415Y423D01*
X700Y423D02*
X707Y423D01*
X0Y422D02*
X7Y422D01*
X259Y422D02*
X265Y422D01*
X309Y422D02*
X315Y422D01*
X331Y422D02*
X342Y422D01*
X366Y422D02*
X374Y422D01*
X409Y422D02*
X415Y422D01*
X700Y422D02*
X707Y422D01*
X0Y421D02*
X7Y421D01*
X259Y421D02*
X290Y421D01*
X309Y421D02*
X315Y421D01*
X331Y421D02*
X342Y421D01*
X367Y421D02*
X389Y421D01*
X409Y421D02*
X439Y421D01*
X700Y421D02*
X707Y421D01*
X0Y420D02*
X7Y420D01*
X259Y420D02*
X291Y420D01*
X309Y420D02*
X315Y420D01*
X332Y420D02*
X342Y420D01*
X368Y420D02*
X391Y420D01*
X409Y420D02*
X441Y420D01*
X700Y420D02*
X707Y420D01*
X0Y419D02*
X7Y419D01*
X259Y419D02*
X292Y419D01*
X309Y419D02*
X315Y419D01*
X332Y419D02*
X342Y419D01*
X368Y419D02*
X392Y419D01*
X409Y419D02*
X442Y419D01*
X700Y419D02*
X707Y419D01*
X0Y418D02*
X7Y418D01*
X259Y418D02*
X292Y418D01*
X309Y418D02*
X315Y418D01*
X332Y418D02*
X342Y418D01*
X369Y418D02*
X392Y418D01*
X409Y418D02*
X442Y418D01*
X700Y418D02*
X707Y418D01*
X0Y417D02*
X7Y417D01*
X259Y417D02*
X292Y417D01*
X309Y417D02*
X315Y417D01*
X333Y417D02*
X342Y417D01*
X370Y417D02*
X392Y417D01*
X409Y417D02*
X442Y417D01*
X700Y417D02*
X707Y417D01*
X0Y416D02*
X7Y416D01*
X259Y416D02*
X292Y416D01*
X309Y416D02*
X315Y416D01*
X333Y416D02*
X342Y416D01*
X371Y416D02*
X392Y416D01*
X409Y416D02*
X442Y416D01*
X700Y416D02*
X707Y416D01*
X0Y415D02*
X7Y415D01*
X259Y415D02*
X291Y415D01*
X310Y415D02*
X314Y415D01*
X334Y415D02*
X342Y415D01*
X373Y415D02*
X391Y415D01*
X409Y415D02*
X441Y415D01*
X700Y415D02*
X707Y415D01*
X0Y414D02*
X7Y414D01*
X700Y414D02*
X707Y414D01*
X0Y413D02*
X7Y413D01*
X700Y413D02*
X707Y413D01*
X0Y412D02*
X7Y412D01*
X700Y412D02*
X707Y412D01*
X0Y411D02*
X7Y411D01*
X700Y411D02*
X707Y411D01*
X0Y410D02*
X7Y410D01*
X700Y410D02*
X707Y410D01*
X0Y409D02*
X7Y409D01*
X700Y409D02*
X707Y409D01*
X0Y408D02*
X7Y408D01*
X700Y408D02*
X707Y408D01*
X0Y407D02*
X7Y407D01*
X700Y407D02*
X707Y407D01*
X0Y406D02*
X7Y406D01*
X700Y406D02*
X707Y406D01*
X0Y405D02*
X7Y405D01*
X700Y405D02*
X707Y405D01*
X0Y404D02*
X7Y404D01*
X700Y404D02*
X707Y404D01*
X0Y403D02*
X7Y403D01*
X700Y403D02*
X707Y403D01*
X0Y402D02*
X7Y402D01*
X700Y402D02*
X707Y402D01*
X0Y401D02*
X7Y401D01*
X700Y401D02*
X707Y401D01*
X0Y400D02*
X7Y400D01*
X700Y400D02*
X707Y400D01*
X0Y399D02*
X7Y399D01*
X700Y399D02*
X707Y399D01*
X0Y398D02*
X7Y398D01*
X700Y398D02*
X707Y398D01*
X0Y397D02*
X7Y397D01*
X700Y397D02*
X707Y397D01*
X0Y396D02*
X7Y396D01*
X700Y396D02*
X707Y396D01*
X0Y395D02*
X7Y395D01*
X700Y395D02*
X707Y395D01*
X0Y394D02*
X7Y394D01*
X700Y394D02*
X707Y394D01*
X0Y393D02*
X7Y393D01*
X700Y393D02*
X707Y393D01*
X0Y392D02*
X7Y392D01*
X700Y392D02*
X707Y392D01*
X0Y391D02*
X7Y391D01*
X700Y391D02*
X707Y391D01*
X0Y390D02*
X7Y390D01*
X700Y390D02*
X707Y390D01*
X0Y389D02*
X7Y389D01*
X700Y389D02*
X707Y389D01*
X0Y388D02*
X7Y388D01*
X700Y388D02*
X707Y388D01*
X0Y387D02*
X7Y387D01*
X700Y387D02*
X707Y387D01*
X0Y386D02*
X7Y386D01*
X700Y386D02*
X707Y386D01*
X0Y385D02*
X7Y385D01*
X700Y385D02*
X707Y385D01*
X0Y384D02*
X7Y384D01*
X700Y384D02*
X707Y384D01*
X0Y383D02*
X7Y383D01*
X700Y383D02*
X707Y383D01*
X0Y382D02*
X7Y382D01*
X700Y382D02*
X707Y382D01*
X0Y381D02*
X7Y381D01*
X700Y381D02*
X707Y381D01*
X0Y380D02*
X7Y380D01*
X700Y380D02*
X707Y380D01*
X0Y379D02*
X7Y379D01*
X700Y379D02*
X707Y379D01*
X0Y378D02*
X7Y378D01*
X700Y378D02*
X707Y378D01*
X0Y377D02*
X7Y377D01*
X700Y377D02*
X707Y377D01*
X0Y376D02*
X7Y376D01*
X700Y376D02*
X707Y376D01*
X0Y375D02*
X7Y375D01*
X700Y375D02*
X707Y375D01*
X0Y374D02*
X7Y374D01*
X700Y374D02*
X707Y374D01*
X0Y373D02*
X7Y373D01*
X700Y373D02*
X707Y373D01*
X0Y372D02*
X7Y372D01*
X700Y372D02*
X707Y372D01*
X0Y371D02*
X7Y371D01*
X700Y371D02*
X707Y371D01*
X0Y370D02*
X7Y370D01*
X700Y370D02*
X707Y370D01*
X0Y369D02*
X7Y369D01*
X700Y369D02*
X707Y369D01*
X0Y368D02*
X7Y368D01*
X700Y368D02*
X707Y368D01*
X0Y367D02*
X7Y367D01*
X700Y367D02*
X707Y367D01*
X0Y366D02*
X7Y366D01*
X700Y366D02*
X707Y366D01*
X0Y365D02*
X7Y365D01*
X700Y365D02*
X707Y365D01*
X0Y364D02*
X7Y364D01*
X700Y364D02*
X707Y364D01*
X0Y363D02*
X7Y363D01*
X700Y363D02*
X707Y363D01*
X0Y362D02*
X7Y362D01*
X700Y362D02*
X707Y362D01*
X0Y361D02*
X7Y361D01*
X700Y361D02*
X707Y361D01*
X0Y360D02*
X7Y360D01*
X700Y360D02*
X707Y360D01*
X0Y359D02*
X7Y359D01*
X700Y359D02*
X707Y359D01*
X0Y358D02*
X7Y358D01*
X700Y358D02*
X707Y358D01*
X0Y357D02*
X7Y357D01*
X700Y357D02*
X707Y357D01*
X0Y356D02*
X7Y356D01*
X700Y356D02*
X707Y356D01*
X0Y355D02*
X7Y355D01*
X700Y355D02*
X707Y355D01*
X0Y354D02*
X7Y354D01*
X700Y354D02*
X707Y354D01*
X0Y353D02*
X7Y353D01*
X700Y353D02*
X707Y353D01*
X0Y352D02*
X7Y352D01*
X700Y352D02*
X707Y352D01*
X0Y351D02*
X7Y351D01*
X700Y351D02*
X707Y351D01*
X0Y350D02*
X7Y350D01*
X700Y350D02*
X707Y350D01*
X0Y349D02*
X7Y349D01*
X700Y349D02*
X707Y349D01*
X0Y348D02*
X7Y348D01*
X700Y348D02*
X707Y348D01*
X0Y347D02*
X7Y347D01*
X700Y347D02*
X707Y347D01*
X0Y346D02*
X7Y346D01*
X700Y346D02*
X707Y346D01*
X0Y345D02*
X7Y345D01*
X700Y345D02*
X707Y345D01*
X0Y344D02*
X7Y344D01*
X700Y344D02*
X707Y344D01*
X0Y343D02*
X7Y343D01*
X700Y343D02*
X707Y343D01*
X0Y342D02*
X7Y342D01*
X700Y342D02*
X707Y342D01*
X0Y341D02*
X7Y341D01*
X700Y341D02*
X707Y341D01*
X0Y340D02*
X7Y340D01*
X700Y340D02*
X707Y340D01*
X0Y339D02*
X7Y339D01*
X700Y339D02*
X707Y339D01*
X0Y338D02*
X7Y338D01*
X700Y338D02*
X707Y338D01*
X0Y337D02*
X7Y337D01*
X700Y337D02*
X707Y337D01*
X0Y336D02*
X7Y336D01*
X700Y336D02*
X707Y336D01*
X0Y335D02*
X7Y335D01*
X700Y335D02*
X707Y335D01*
X0Y334D02*
X7Y334D01*
X700Y334D02*
X707Y334D01*
X0Y333D02*
X7Y333D01*
X700Y333D02*
X707Y333D01*
X0Y332D02*
X7Y332D01*
X700Y332D02*
X707Y332D01*
X0Y331D02*
X7Y331D01*
X700Y331D02*
X707Y331D01*
X0Y330D02*
X7Y330D01*
X700Y330D02*
X707Y330D01*
X0Y329D02*
X7Y329D01*
X700Y329D02*
X707Y329D01*
X0Y328D02*
X7Y328D01*
X700Y328D02*
X707Y328D01*
X0Y327D02*
X7Y327D01*
X700Y327D02*
X707Y327D01*
X0Y326D02*
X7Y326D01*
X700Y326D02*
X707Y326D01*
X0Y325D02*
X7Y325D01*
X700Y325D02*
X707Y325D01*
X0Y324D02*
X7Y324D01*
X700Y324D02*
X707Y324D01*
X0Y323D02*
X7Y323D01*
X700Y323D02*
X707Y323D01*
X0Y322D02*
X7Y322D01*
X700Y322D02*
X707Y322D01*
X0Y321D02*
X7Y321D01*
X700Y321D02*
X707Y321D01*
X0Y320D02*
X7Y320D01*
X700Y320D02*
X707Y320D01*
X0Y319D02*
X7Y319D01*
X700Y319D02*
X707Y319D01*
X0Y318D02*
X7Y318D01*
X700Y318D02*
X707Y318D01*
X0Y317D02*
X7Y317D01*
X700Y317D02*
X707Y317D01*
X0Y316D02*
X7Y316D01*
X700Y316D02*
X707Y316D01*
X0Y315D02*
X7Y315D01*
X700Y315D02*
X707Y315D01*
X0Y314D02*
X7Y314D01*
X700Y314D02*
X707Y314D01*
X0Y313D02*
X7Y313D01*
X700Y313D02*
X707Y313D01*
X0Y312D02*
X7Y312D01*
X700Y312D02*
X707Y312D01*
X0Y311D02*
X7Y311D01*
X700Y311D02*
X707Y311D01*
X0Y310D02*
X7Y310D01*
X700Y310D02*
X707Y310D01*
X0Y309D02*
X7Y309D01*
X700Y309D02*
X707Y309D01*
X0Y308D02*
X7Y308D01*
X700Y308D02*
X707Y308D01*
X0Y307D02*
X7Y307D01*
X700Y307D02*
X707Y307D01*
X0Y306D02*
X7Y306D01*
X700Y306D02*
X707Y306D01*
X0Y305D02*
X7Y305D01*
X700Y305D02*
X707Y305D01*
X0Y304D02*
X7Y304D01*
X700Y304D02*
X707Y304D01*
X0Y303D02*
X7Y303D01*
X700Y303D02*
X707Y303D01*
X0Y302D02*
X7Y302D01*
X700Y302D02*
X707Y302D01*
X0Y301D02*
X7Y301D01*
X700Y301D02*
X707Y301D01*
X0Y300D02*
X7Y300D01*
X700Y300D02*
X707Y300D01*
X0Y299D02*
X7Y299D01*
X700Y299D02*
X707Y299D01*
X0Y298D02*
X7Y298D01*
X700Y298D02*
X707Y298D01*
X0Y297D02*
X7Y297D01*
X700Y297D02*
X707Y297D01*
X0Y296D02*
X7Y296D01*
X700Y296D02*
X707Y296D01*
X0Y295D02*
X7Y295D01*
X700Y295D02*
X707Y295D01*
X0Y294D02*
X7Y294D01*
X700Y294D02*
X707Y294D01*
X0Y293D02*
X7Y293D01*
X700Y293D02*
X707Y293D01*
X0Y292D02*
X7Y292D01*
X700Y292D02*
X707Y292D01*
X0Y291D02*
X7Y291D01*
X700Y291D02*
X707Y291D01*
X0Y290D02*
X7Y290D01*
X700Y290D02*
X707Y290D01*
X0Y289D02*
X7Y289D01*
X700Y289D02*
X707Y289D01*
X0Y288D02*
X7Y288D01*
X700Y288D02*
X707Y288D01*
X0Y287D02*
X7Y287D01*
X700Y287D02*
X707Y287D01*
X0Y286D02*
X7Y286D01*
X700Y286D02*
X707Y286D01*
X0Y285D02*
X7Y285D01*
X700Y285D02*
X707Y285D01*
X0Y284D02*
X7Y284D01*
X700Y284D02*
X707Y284D01*
X0Y283D02*
X7Y283D01*
X700Y283D02*
X707Y283D01*
X0Y282D02*
X7Y282D01*
X700Y282D02*
X707Y282D01*
X0Y281D02*
X7Y281D01*
X700Y281D02*
X707Y281D01*
X0Y280D02*
X7Y280D01*
X429Y280D02*
X431Y280D01*
X700Y280D02*
X707Y280D01*
X0Y279D02*
X7Y279D01*
X230Y279D02*
X231Y279D01*
X323Y279D02*
X325Y279D01*
X330Y279D02*
X331Y279D01*
X336Y279D02*
X336Y279D01*
X339Y279D02*
X340Y279D01*
X429Y279D02*
X429Y279D01*
X432Y279D02*
X432Y279D01*
X700Y279D02*
X707Y279D01*
X0Y278D02*
X7Y278D01*
X230Y278D02*
X231Y278D01*
X322Y278D02*
X322Y278D01*
X330Y278D02*
X330Y278D01*
X332Y278D02*
X332Y278D01*
X336Y278D02*
X340Y278D01*
X429Y278D02*
X429Y278D01*
X432Y278D02*
X432Y278D01*
X700Y278D02*
X707Y278D01*
X0Y277D02*
X7Y277D01*
X230Y277D02*
X231Y277D01*
X322Y277D02*
X322Y277D01*
X329Y277D02*
X329Y277D01*
X332Y277D02*
X332Y277D01*
X336Y277D02*
X336Y277D01*
X338Y277D02*
X338Y277D01*
X340Y277D02*
X340Y277D01*
X429Y277D02*
X429Y277D01*
X432Y277D02*
X432Y277D01*
X700Y277D02*
X707Y277D01*
X0Y276D02*
X7Y276D01*
X230Y276D02*
X230Y276D01*
X232Y276D02*
X232Y276D01*
X321Y276D02*
X322Y276D01*
X329Y276D02*
X329Y276D01*
X333Y276D02*
X333Y276D01*
X336Y276D02*
X336Y276D01*
X340Y276D02*
X340Y276D01*
X429Y276D02*
X432Y276D01*
X700Y276D02*
X707Y276D01*
X0Y275D02*
X7Y275D01*
X229Y275D02*
X232Y275D01*
X322Y275D02*
X322Y275D01*
X329Y275D02*
X329Y275D01*
X332Y275D02*
X332Y275D01*
X336Y275D02*
X336Y275D01*
X340Y275D02*
X340Y275D01*
X429Y275D02*
X429Y275D01*
X432Y275D02*
X432Y275D01*
X700Y275D02*
X707Y275D01*
X0Y274D02*
X7Y274D01*
X229Y274D02*
X232Y274D01*
X322Y274D02*
X322Y274D01*
X329Y274D02*
X329Y274D01*
X332Y274D02*
X332Y274D01*
X336Y274D02*
X336Y274D01*
X340Y274D02*
X340Y274D01*
X429Y274D02*
X429Y274D01*
X432Y274D02*
X432Y274D01*
X700Y274D02*
X707Y274D01*
X0Y273D02*
X7Y273D01*
X229Y273D02*
X229Y273D01*
X233Y273D02*
X233Y273D01*
X322Y273D02*
X323Y273D01*
X330Y273D02*
X332Y273D01*
X336Y273D02*
X336Y273D01*
X340Y273D02*
X340Y273D01*
X429Y273D02*
X432Y273D01*
X700Y273D02*
X707Y273D01*
X0Y272D02*
X7Y272D01*
X323Y272D02*
X325Y272D01*
X330Y272D02*
X331Y272D01*
X336Y272D02*
X336Y272D01*
X340Y272D02*
X340Y272D01*
X700Y272D02*
X707Y272D01*
X0Y271D02*
X7Y271D01*
X700Y271D02*
X707Y271D01*
X0Y270D02*
X7Y270D01*
X700Y270D02*
X707Y270D01*
X0Y269D02*
X7Y269D01*
X700Y269D02*
X707Y269D01*
X0Y268D02*
X7Y268D01*
X700Y268D02*
X707Y268D01*
X0Y267D02*
X7Y267D01*
X700Y267D02*
X707Y267D01*
X0Y266D02*
X7Y266D01*
X700Y266D02*
X707Y266D01*
X0Y265D02*
X7Y265D01*
X700Y265D02*
X707Y265D01*
X0Y264D02*
X7Y264D01*
X700Y264D02*
X707Y264D01*
X0Y263D02*
X7Y263D01*
X700Y263D02*
X707Y263D01*
X0Y262D02*
X7Y262D01*
X700Y262D02*
X707Y262D01*
X0Y261D02*
X7Y261D01*
X700Y261D02*
X707Y261D01*
X0Y260D02*
X7Y260D01*
X700Y260D02*
X707Y260D01*
X0Y259D02*
X7Y259D01*
X700Y259D02*
X707Y259D01*
X0Y258D02*
X7Y258D01*
X700Y258D02*
X707Y258D01*
X0Y257D02*
X7Y257D01*
X700Y257D02*
X707Y257D01*
X0Y256D02*
X7Y256D01*
X700Y256D02*
X707Y256D01*
X0Y255D02*
X7Y255D01*
X700Y255D02*
X707Y255D01*
X0Y247D02*
X7Y247D01*
X700Y247D02*
X707Y247D01*
X0Y246D02*
X7Y246D01*
X700Y246D02*
X707Y246D01*
X0Y245D02*
X7Y245D01*
X700Y245D02*
X707Y245D01*
X0Y244D02*
X7Y244D01*
X700Y244D02*
X707Y244D01*
X0Y243D02*
X7Y243D01*
X700Y243D02*
X707Y243D01*
X0Y242D02*
X7Y242D01*
X700Y242D02*
X707Y242D01*
X0Y241D02*
X7Y241D01*
X700Y241D02*
X707Y241D01*
X0Y240D02*
X7Y240D01*
X700Y240D02*
X707Y240D01*
X0Y239D02*
X7Y239D01*
X700Y239D02*
X707Y239D01*
X0Y238D02*
X7Y238D01*
X700Y238D02*
X707Y238D01*
X0Y237D02*
X7Y237D01*
X700Y237D02*
X707Y237D01*
X0Y236D02*
X7Y236D01*
X700Y236D02*
X707Y236D01*
X0Y235D02*
X7Y235D01*
X700Y235D02*
X707Y235D01*
X0Y234D02*
X7Y234D01*
X700Y234D02*
X707Y234D01*
X0Y233D02*
X7Y233D01*
X700Y233D02*
X707Y233D01*
X0Y232D02*
X7Y232D01*
X700Y232D02*
X707Y232D01*
X0Y231D02*
X7Y231D01*
X700Y231D02*
X707Y231D01*
X0Y230D02*
X7Y230D01*
X700Y230D02*
X707Y230D01*
X0Y229D02*
X7Y229D01*
X700Y229D02*
X707Y229D01*
X0Y228D02*
X7Y228D01*
X700Y228D02*
X707Y228D01*
X0Y227D02*
X7Y227D01*
X700Y227D02*
X707Y227D01*
X0Y226D02*
X7Y226D01*
X700Y226D02*
X707Y226D01*
X0Y225D02*
X7Y225D01*
X700Y225D02*
X707Y225D01*
X0Y224D02*
X7Y224D01*
X700Y224D02*
X707Y224D01*
X0Y223D02*
X7Y223D01*
X700Y223D02*
X707Y223D01*
X0Y222D02*
X7Y222D01*
X700Y222D02*
X707Y222D01*
X0Y221D02*
X7Y221D01*
X700Y221D02*
X707Y221D01*
X0Y220D02*
X7Y220D01*
X700Y220D02*
X707Y220D01*
X0Y219D02*
X7Y219D01*
X700Y219D02*
X707Y219D01*
X0Y218D02*
X7Y218D01*
X700Y218D02*
X707Y218D01*
X0Y217D02*
X7Y217D01*
X700Y217D02*
X707Y217D01*
X0Y216D02*
X7Y216D01*
X700Y216D02*
X707Y216D01*
X0Y215D02*
X7Y215D01*
X700Y215D02*
X707Y215D01*
X0Y214D02*
X7Y214D01*
X700Y214D02*
X707Y214D01*
X0Y213D02*
X7Y213D01*
X700Y213D02*
X707Y213D01*
X0Y212D02*
X7Y212D01*
X700Y212D02*
X707Y212D01*
X0Y211D02*
X7Y211D01*
X700Y211D02*
X707Y211D01*
X0Y210D02*
X7Y210D01*
X700Y210D02*
X707Y210D01*
X0Y209D02*
X7Y209D01*
X700Y209D02*
X707Y209D01*
X0Y208D02*
X7Y208D01*
X700Y208D02*
X707Y208D01*
X0Y207D02*
X7Y207D01*
X700Y207D02*
X707Y207D01*
X0Y206D02*
X7Y206D01*
X700Y206D02*
X707Y206D01*
X0Y205D02*
X7Y205D01*
X700Y205D02*
X707Y205D01*
X0Y204D02*
X7Y204D01*
X700Y204D02*
X707Y204D01*
X0Y203D02*
X7Y203D01*
X700Y203D02*
X707Y203D01*
X0Y202D02*
X7Y202D01*
X700Y202D02*
X707Y202D01*
X0Y201D02*
X7Y201D01*
X700Y201D02*
X707Y201D01*
X0Y200D02*
X7Y200D01*
X700Y200D02*
X707Y200D01*
X0Y199D02*
X7Y199D01*
X700Y199D02*
X707Y199D01*
X0Y198D02*
X7Y198D01*
X700Y198D02*
X707Y198D01*
X0Y197D02*
X7Y197D01*
X700Y197D02*
X707Y197D01*
X0Y196D02*
X7Y196D01*
X700Y196D02*
X707Y196D01*
X0Y195D02*
X7Y195D01*
X700Y195D02*
X707Y195D01*
X0Y194D02*
X7Y194D01*
X700Y194D02*
X707Y194D01*
X0Y193D02*
X7Y193D01*
X700Y193D02*
X707Y193D01*
X0Y192D02*
X7Y192D01*
X700Y192D02*
X707Y192D01*
X0Y191D02*
X7Y191D01*
X700Y191D02*
X707Y191D01*
X0Y190D02*
X7Y190D01*
X700Y190D02*
X707Y190D01*
X0Y189D02*
X7Y189D01*
X700Y189D02*
X707Y189D01*
X0Y188D02*
X7Y188D01*
X700Y188D02*
X707Y188D01*
X0Y187D02*
X7Y187D01*
X700Y187D02*
X707Y187D01*
X0Y186D02*
X7Y186D01*
X700Y186D02*
X707Y186D01*
X0Y185D02*
X7Y185D01*
X700Y185D02*
X707Y185D01*
X0Y184D02*
X7Y184D01*
X700Y184D02*
X707Y184D01*
X0Y183D02*
X7Y183D01*
X700Y183D02*
X707Y183D01*
X0Y182D02*
X7Y182D01*
X700Y182D02*
X707Y182D01*
X0Y181D02*
X7Y181D01*
X700Y181D02*
X707Y181D01*
X0Y180D02*
X7Y180D01*
X700Y180D02*
X707Y180D01*
X0Y179D02*
X7Y179D01*
X700Y179D02*
X707Y179D01*
X0Y178D02*
X7Y178D01*
X700Y178D02*
X707Y178D01*
X0Y177D02*
X7Y177D01*
X700Y177D02*
X707Y177D01*
X0Y176D02*
X7Y176D01*
X700Y176D02*
X707Y176D01*
X0Y175D02*
X7Y175D01*
X700Y175D02*
X707Y175D01*
X0Y174D02*
X7Y174D01*
X700Y174D02*
X707Y174D01*
X0Y173D02*
X7Y173D01*
X700Y173D02*
X707Y173D01*
X0Y172D02*
X7Y172D01*
X700Y172D02*
X707Y172D01*
X0Y171D02*
X7Y171D01*
X700Y171D02*
X707Y171D01*
X0Y170D02*
X7Y170D01*
X700Y170D02*
X707Y170D01*
X0Y169D02*
X7Y169D01*
X700Y169D02*
X707Y169D01*
X0Y168D02*
X7Y168D01*
X700Y168D02*
X707Y168D01*
X0Y167D02*
X7Y167D01*
X700Y167D02*
X707Y167D01*
X0Y166D02*
X7Y166D01*
X700Y166D02*
X707Y166D01*
X0Y165D02*
X7Y165D01*
X700Y165D02*
X707Y165D01*
X0Y164D02*
X7Y164D01*
X700Y164D02*
X707Y164D01*
X0Y163D02*
X7Y163D01*
X700Y163D02*
X707Y163D01*
X0Y162D02*
X7Y162D01*
X700Y162D02*
X707Y162D01*
X0Y161D02*
X7Y161D01*
X700Y161D02*
X707Y161D01*
X0Y160D02*
X7Y160D01*
X700Y160D02*
X707Y160D01*
X0Y159D02*
X7Y159D01*
X700Y159D02*
X707Y159D01*
X0Y158D02*
X7Y158D01*
X700Y158D02*
X707Y158D01*
X0Y157D02*
X7Y157D01*
X700Y157D02*
X707Y157D01*
X0Y156D02*
X7Y156D01*
X700Y156D02*
X707Y156D01*
X0Y155D02*
X7Y155D01*
X700Y155D02*
X707Y155D01*
X0Y154D02*
X7Y154D01*
X700Y154D02*
X707Y154D01*
X0Y153D02*
X7Y153D01*
X700Y153D02*
X707Y153D01*
X0Y152D02*
X7Y152D01*
X700Y152D02*
X707Y152D01*
X0Y151D02*
X7Y151D01*
X700Y151D02*
X707Y151D01*
X0Y150D02*
X7Y150D01*
X700Y150D02*
X707Y150D01*
X0Y149D02*
X7Y149D01*
X700Y149D02*
X707Y149D01*
X0Y148D02*
X7Y148D01*
X700Y148D02*
X707Y148D01*
X0Y147D02*
X7Y147D01*
X700Y147D02*
X707Y147D01*
X0Y146D02*
X7Y146D01*
X700Y146D02*
X707Y146D01*
X0Y145D02*
X7Y145D01*
X700Y145D02*
X707Y145D01*
X0Y144D02*
X7Y144D01*
X700Y144D02*
X707Y144D01*
X0Y143D02*
X7Y143D01*
X700Y143D02*
X707Y143D01*
X0Y142D02*
X7Y142D01*
X700Y142D02*
X707Y142D01*
X0Y141D02*
X7Y141D01*
X700Y141D02*
X707Y141D01*
X0Y140D02*
X7Y140D01*
X700Y140D02*
X707Y140D01*
X0Y139D02*
X7Y139D01*
X700Y139D02*
X707Y139D01*
X0Y138D02*
X7Y138D01*
X700Y138D02*
X707Y138D01*
X0Y137D02*
X7Y137D01*
X700Y137D02*
X707Y137D01*
X0Y136D02*
X7Y136D01*
X700Y136D02*
X707Y136D01*
X0Y135D02*
X7Y135D01*
X700Y135D02*
X707Y135D01*
X0Y134D02*
X7Y134D01*
X700Y134D02*
X707Y134D01*
X0Y133D02*
X7Y133D01*
X700Y133D02*
X707Y133D01*
X0Y132D02*
X7Y132D01*
X700Y132D02*
X707Y132D01*
X0Y131D02*
X7Y131D01*
X700Y131D02*
X707Y131D01*
X0Y130D02*
X7Y130D01*
X700Y130D02*
X707Y130D01*
X0Y129D02*
X7Y129D01*
X700Y129D02*
X707Y129D01*
X0Y128D02*
X7Y128D01*
X700Y128D02*
X707Y128D01*
X0Y127D02*
X7Y127D01*
X700Y127D02*
X707Y127D01*
X0Y126D02*
X7Y126D01*
X700Y126D02*
X707Y126D01*
X0Y125D02*
X7Y125D01*
X700Y125D02*
X707Y125D01*
X0Y124D02*
X7Y124D01*
X700Y124D02*
X707Y124D01*
X0Y123D02*
X7Y123D01*
X700Y123D02*
X707Y123D01*
X0Y122D02*
X7Y122D01*
X700Y122D02*
X707Y122D01*
X0Y121D02*
X7Y121D01*
X700Y121D02*
X707Y121D01*
X0Y120D02*
X7Y120D01*
X700Y120D02*
X707Y120D01*
X0Y119D02*
X7Y119D01*
X700Y119D02*
X707Y119D01*
X0Y118D02*
X7Y118D01*
X700Y118D02*
X707Y118D01*
X0Y117D02*
X7Y117D01*
X700Y117D02*
X707Y117D01*
X0Y116D02*
X7Y116D01*
X700Y116D02*
X707Y116D01*
X0Y115D02*
X7Y115D01*
X700Y115D02*
X707Y115D01*
X0Y114D02*
X7Y114D01*
X700Y114D02*
X707Y114D01*
X0Y113D02*
X7Y113D01*
X700Y113D02*
X707Y113D01*
X0Y112D02*
X7Y112D01*
X700Y112D02*
X707Y112D01*
X0Y111D02*
X7Y111D01*
X700Y111D02*
X707Y111D01*
X0Y110D02*
X7Y110D01*
X409Y110D02*
X413Y110D01*
X700Y110D02*
X707Y110D01*
X0Y109D02*
X7Y109D01*
X408Y109D02*
X414Y109D01*
X700Y109D02*
X707Y109D01*
X0Y108D02*
X7Y108D01*
X88Y108D02*
X173Y108D01*
X206Y108D02*
X373Y108D01*
X406Y108D02*
X572Y108D01*
X700Y108D02*
X707Y108D01*
X0Y107D02*
X7Y107D01*
X88Y107D02*
X175Y107D01*
X204Y107D02*
X375Y107D01*
X403Y107D02*
X575Y107D01*
X700Y107D02*
X707Y107D01*
X0Y106D02*
X7Y106D01*
X88Y106D02*
X178Y106D01*
X201Y106D02*
X378Y106D01*
X401Y106D02*
X577Y106D01*
X700Y106D02*
X707Y106D01*
X0Y105D02*
X7Y105D01*
X88Y105D02*
X182Y105D01*
X197Y105D02*
X381Y105D01*
X397Y105D02*
X581Y105D01*
X700Y105D02*
X707Y105D01*
X0Y104D02*
X7Y104D01*
X89Y104D02*
X591Y104D01*
X700Y104D02*
X707Y104D01*
X0Y103D02*
X7Y103D01*
X245Y103D02*
X277Y103D01*
X295Y103D02*
X325Y103D01*
X345Y103D02*
X377Y103D01*
X406Y103D02*
X414Y103D01*
X587Y103D02*
X591Y103D01*
X700Y103D02*
X707Y103D01*
X0Y102D02*
X7Y102D01*
X245Y102D02*
X278Y102D01*
X295Y102D02*
X326Y102D01*
X345Y102D02*
X378Y102D01*
X406Y102D02*
X414Y102D01*
X587Y102D02*
X591Y102D01*
X700Y102D02*
X707Y102D01*
X0Y101D02*
X7Y101D01*
X245Y101D02*
X278Y101D01*
X295Y101D02*
X327Y101D01*
X345Y101D02*
X378Y101D01*
X408Y101D02*
X412Y101D01*
X587Y101D02*
X591Y101D01*
X700Y101D02*
X707Y101D01*
X0Y100D02*
X7Y100D01*
X245Y100D02*
X251Y100D01*
X271Y100D02*
X278Y100D01*
X295Y100D02*
X301Y100D01*
X319Y100D02*
X327Y100D01*
X345Y100D02*
X351Y100D01*
X371Y100D02*
X378Y100D01*
X587Y100D02*
X591Y100D01*
X700Y100D02*
X707Y100D01*
X0Y99D02*
X7Y99D01*
X245Y99D02*
X251Y99D01*
X272Y99D02*
X279Y99D01*
X295Y99D02*
X301Y99D01*
X320Y99D02*
X328Y99D01*
X345Y99D02*
X351Y99D01*
X372Y99D02*
X378Y99D01*
X587Y99D02*
X591Y99D01*
X700Y99D02*
X707Y99D01*
X0Y98D02*
X7Y98D01*
X245Y98D02*
X251Y98D01*
X273Y98D02*
X279Y98D01*
X295Y98D02*
X301Y98D01*
X321Y98D02*
X328Y98D01*
X345Y98D02*
X351Y98D01*
X373Y98D02*
X379Y98D01*
X587Y98D02*
X591Y98D01*
X700Y98D02*
X707Y98D01*
X0Y97D02*
X7Y97D01*
X245Y97D02*
X251Y97D01*
X273Y97D02*
X279Y97D01*
X295Y97D02*
X301Y97D01*
X322Y97D02*
X328Y97D01*
X345Y97D02*
X351Y97D01*
X373Y97D02*
X379Y97D01*
X587Y97D02*
X591Y97D01*
X700Y97D02*
X707Y97D01*
X0Y96D02*
X7Y96D01*
X245Y96D02*
X251Y96D01*
X273Y96D02*
X279Y96D01*
X295Y96D02*
X301Y96D01*
X322Y96D02*
X328Y96D01*
X345Y96D02*
X351Y96D01*
X373Y96D02*
X379Y96D01*
X587Y96D02*
X591Y96D01*
X700Y96D02*
X707Y96D01*
X0Y95D02*
X7Y95D01*
X245Y95D02*
X251Y95D01*
X273Y95D02*
X279Y95D01*
X295Y95D02*
X301Y95D01*
X323Y95D02*
X329Y95D01*
X345Y95D02*
X351Y95D01*
X373Y95D02*
X379Y95D01*
X587Y95D02*
X591Y95D01*
X700Y95D02*
X707Y95D01*
X0Y94D02*
X7Y94D01*
X245Y94D02*
X251Y94D01*
X273Y94D02*
X279Y94D01*
X295Y94D02*
X301Y94D01*
X323Y94D02*
X329Y94D01*
X345Y94D02*
X351Y94D01*
X373Y94D02*
X379Y94D01*
X587Y94D02*
X591Y94D01*
X700Y94D02*
X707Y94D01*
X0Y93D02*
X7Y93D01*
X245Y93D02*
X251Y93D01*
X273Y93D02*
X279Y93D01*
X295Y93D02*
X301Y93D01*
X323Y93D02*
X329Y93D01*
X345Y93D02*
X351Y93D01*
X373Y93D02*
X379Y93D01*
X401Y93D02*
X412Y93D01*
X587Y93D02*
X591Y93D01*
X700Y93D02*
X707Y93D01*
X0Y92D02*
X7Y92D01*
X245Y92D02*
X251Y92D01*
X272Y92D02*
X279Y92D01*
X295Y92D02*
X301Y92D01*
X323Y92D02*
X329Y92D01*
X345Y92D02*
X351Y92D01*
X373Y92D02*
X379Y92D01*
X399Y92D02*
X414Y92D01*
X587Y92D02*
X591Y92D01*
X700Y92D02*
X707Y92D01*
X0Y91D02*
X7Y91D01*
X245Y91D02*
X251Y91D01*
X271Y91D02*
X278Y91D01*
X295Y91D02*
X301Y91D01*
X323Y91D02*
X329Y91D01*
X345Y91D02*
X351Y91D01*
X373Y91D02*
X379Y91D01*
X399Y91D02*
X414Y91D01*
X587Y91D02*
X591Y91D01*
X700Y91D02*
X707Y91D01*
X0Y90D02*
X7Y90D01*
X245Y90D02*
X278Y90D01*
X295Y90D02*
X301Y90D01*
X323Y90D02*
X329Y90D01*
X345Y90D02*
X351Y90D01*
X373Y90D02*
X379Y90D01*
X398Y90D02*
X415Y90D01*
X587Y90D02*
X591Y90D01*
X700Y90D02*
X707Y90D01*
X0Y89D02*
X7Y89D01*
X245Y89D02*
X278Y89D01*
X295Y89D02*
X301Y89D01*
X322Y89D02*
X328Y89D01*
X345Y89D02*
X351Y89D01*
X373Y89D02*
X379Y89D01*
X398Y89D02*
X415Y89D01*
X587Y89D02*
X591Y89D01*
X700Y89D02*
X707Y89D01*
X0Y88D02*
X7Y88D01*
X245Y88D02*
X277Y88D01*
X295Y88D02*
X301Y88D01*
X322Y88D02*
X328Y88D01*
X345Y88D02*
X351Y88D01*
X373Y88D02*
X379Y88D01*
X399Y88D02*
X415Y88D01*
X587Y88D02*
X591Y88D01*
X700Y88D02*
X707Y88D01*
X0Y87D02*
X7Y87D01*
X245Y87D02*
X276Y87D01*
X295Y87D02*
X301Y87D01*
X321Y87D02*
X328Y87D01*
X345Y87D02*
X351Y87D01*
X373Y87D02*
X379Y87D01*
X400Y87D02*
X415Y87D01*
X587Y87D02*
X591Y87D01*
X700Y87D02*
X707Y87D01*
X0Y86D02*
X7Y86D01*
X245Y86D02*
X275Y86D01*
X295Y86D02*
X301Y86D01*
X320Y86D02*
X328Y86D01*
X345Y86D02*
X351Y86D01*
X373Y86D02*
X379Y86D01*
X408Y86D02*
X415Y86D01*
X587Y86D02*
X591Y86D01*
X700Y86D02*
X707Y86D01*
X0Y85D02*
X7Y85D01*
X245Y85D02*
X274Y85D01*
X295Y85D02*
X301Y85D01*
X319Y85D02*
X327Y85D01*
X345Y85D02*
X351Y85D01*
X373Y85D02*
X379Y85D01*
X409Y85D02*
X415Y85D01*
X587Y85D02*
X591Y85D01*
X700Y85D02*
X707Y85D01*
X0Y84D02*
X7Y84D01*
X245Y84D02*
X272Y84D01*
X295Y84D02*
X327Y84D01*
X345Y84D02*
X351Y84D01*
X372Y84D02*
X379Y84D01*
X409Y84D02*
X415Y84D01*
X587Y84D02*
X591Y84D01*
X700Y84D02*
X707Y84D01*
X0Y83D02*
X7Y83D01*
X245Y83D02*
X251Y83D01*
X257Y83D02*
X265Y83D01*
X295Y83D02*
X326Y83D01*
X345Y83D02*
X351Y83D01*
X372Y83D02*
X378Y83D01*
X409Y83D02*
X415Y83D01*
X587Y83D02*
X591Y83D01*
X700Y83D02*
X707Y83D01*
X0Y82D02*
X7Y82D01*
X245Y82D02*
X251Y82D01*
X258Y82D02*
X265Y82D01*
X295Y82D02*
X325Y82D01*
X345Y82D02*
X351Y82D01*
X371Y82D02*
X378Y82D01*
X409Y82D02*
X415Y82D01*
X587Y82D02*
X591Y82D01*
X700Y82D02*
X707Y82D01*
X0Y81D02*
X7Y81D01*
X245Y81D02*
X251Y81D01*
X258Y81D02*
X265Y81D01*
X295Y81D02*
X324Y81D01*
X345Y81D02*
X378Y81D01*
X409Y81D02*
X415Y81D01*
X587Y81D02*
X591Y81D01*
X700Y81D02*
X707Y81D01*
X0Y80D02*
X7Y80D01*
X245Y80D02*
X251Y80D01*
X259Y80D02*
X266Y80D01*
X295Y80D02*
X325Y80D01*
X345Y80D02*
X377Y80D01*
X409Y80D02*
X415Y80D01*
X587Y80D02*
X591Y80D01*
X700Y80D02*
X707Y80D01*
X0Y79D02*
X7Y79D01*
X245Y79D02*
X251Y79D01*
X259Y79D02*
X267Y79D01*
X295Y79D02*
X326Y79D01*
X345Y79D02*
X377Y79D01*
X409Y79D02*
X415Y79D01*
X587Y79D02*
X591Y79D01*
X700Y79D02*
X707Y79D01*
X0Y78D02*
X7Y78D01*
X245Y78D02*
X251Y78D01*
X260Y78D02*
X267Y78D01*
X295Y78D02*
X326Y78D01*
X345Y78D02*
X376Y78D01*
X409Y78D02*
X415Y78D01*
X587Y78D02*
X591Y78D01*
X700Y78D02*
X707Y78D01*
X0Y77D02*
X7Y77D01*
X245Y77D02*
X251Y77D01*
X261Y77D02*
X268Y77D01*
X295Y77D02*
X301Y77D01*
X318Y77D02*
X327Y77D01*
X345Y77D02*
X375Y77D01*
X409Y77D02*
X415Y77D01*
X587Y77D02*
X591Y77D01*
X700Y77D02*
X707Y77D01*
X0Y76D02*
X7Y76D01*
X245Y76D02*
X251Y76D01*
X261Y76D02*
X268Y76D01*
X295Y76D02*
X301Y76D01*
X320Y76D02*
X327Y76D01*
X345Y76D02*
X374Y76D01*
X409Y76D02*
X415Y76D01*
X587Y76D02*
X591Y76D01*
X700Y76D02*
X707Y76D01*
X0Y75D02*
X7Y75D01*
X245Y75D02*
X251Y75D01*
X262Y75D02*
X269Y75D01*
X295Y75D02*
X301Y75D01*
X321Y75D02*
X328Y75D01*
X345Y75D02*
X372Y75D01*
X409Y75D02*
X415Y75D01*
X587Y75D02*
X591Y75D01*
X700Y75D02*
X707Y75D01*
X0Y74D02*
X7Y74D01*
X245Y74D02*
X251Y74D01*
X262Y74D02*
X269Y74D01*
X295Y74D02*
X301Y74D01*
X322Y74D02*
X328Y74D01*
X345Y74D02*
X351Y74D01*
X409Y74D02*
X415Y74D01*
X587Y74D02*
X591Y74D01*
X700Y74D02*
X707Y74D01*
X0Y73D02*
X7Y73D01*
X245Y73D02*
X251Y73D01*
X263Y73D02*
X270Y73D01*
X295Y73D02*
X301Y73D01*
X322Y73D02*
X328Y73D01*
X345Y73D02*
X351Y73D01*
X409Y73D02*
X415Y73D01*
X587Y73D02*
X591Y73D01*
X700Y73D02*
X707Y73D01*
X0Y72D02*
X7Y72D01*
X245Y72D02*
X251Y72D01*
X263Y72D02*
X271Y72D01*
X295Y72D02*
X301Y72D01*
X322Y72D02*
X329Y72D01*
X345Y72D02*
X351Y72D01*
X409Y72D02*
X415Y72D01*
X587Y72D02*
X591Y72D01*
X700Y72D02*
X707Y72D01*
X0Y71D02*
X7Y71D01*
X245Y71D02*
X251Y71D01*
X264Y71D02*
X271Y71D01*
X295Y71D02*
X301Y71D01*
X323Y71D02*
X329Y71D01*
X345Y71D02*
X351Y71D01*
X409Y71D02*
X415Y71D01*
X587Y71D02*
X591Y71D01*
X700Y71D02*
X707Y71D01*
X0Y70D02*
X7Y70D01*
X245Y70D02*
X251Y70D01*
X265Y70D02*
X272Y70D01*
X295Y70D02*
X301Y70D01*
X323Y70D02*
X329Y70D01*
X345Y70D02*
X351Y70D01*
X409Y70D02*
X415Y70D01*
X587Y70D02*
X591Y70D01*
X700Y70D02*
X707Y70D01*
X0Y69D02*
X7Y69D01*
X245Y69D02*
X251Y69D01*
X265Y69D02*
X272Y69D01*
X295Y69D02*
X301Y69D01*
X323Y69D02*
X329Y69D01*
X345Y69D02*
X351Y69D01*
X409Y69D02*
X415Y69D01*
X587Y69D02*
X591Y69D01*
X700Y69D02*
X707Y69D01*
X0Y68D02*
X7Y68D01*
X245Y68D02*
X251Y68D01*
X266Y68D02*
X273Y68D01*
X295Y68D02*
X301Y68D01*
X323Y68D02*
X329Y68D01*
X345Y68D02*
X351Y68D01*
X409Y68D02*
X415Y68D01*
X587Y68D02*
X591Y68D01*
X700Y68D02*
X707Y68D01*
X0Y67D02*
X7Y67D01*
X245Y67D02*
X251Y67D01*
X266Y67D02*
X274Y67D01*
X295Y67D02*
X301Y67D01*
X323Y67D02*
X329Y67D01*
X345Y67D02*
X351Y67D01*
X409Y67D02*
X415Y67D01*
X587Y67D02*
X591Y67D01*
X700Y67D02*
X707Y67D01*
X0Y66D02*
X7Y66D01*
X245Y66D02*
X251Y66D01*
X267Y66D02*
X274Y66D01*
X295Y66D02*
X301Y66D01*
X322Y66D02*
X329Y66D01*
X345Y66D02*
X351Y66D01*
X409Y66D02*
X415Y66D01*
X587Y66D02*
X591Y66D01*
X700Y66D02*
X707Y66D01*
X0Y65D02*
X7Y65D01*
X245Y65D02*
X251Y65D01*
X268Y65D02*
X275Y65D01*
X295Y65D02*
X301Y65D01*
X322Y65D02*
X328Y65D01*
X345Y65D02*
X351Y65D01*
X409Y65D02*
X415Y65D01*
X587Y65D02*
X591Y65D01*
X700Y65D02*
X707Y65D01*
X0Y64D02*
X7Y64D01*
X245Y64D02*
X251Y64D01*
X268Y64D02*
X275Y64D01*
X295Y64D02*
X301Y64D01*
X322Y64D02*
X328Y64D01*
X345Y64D02*
X351Y64D01*
X409Y64D02*
X415Y64D01*
X587Y64D02*
X591Y64D01*
X700Y64D02*
X707Y64D01*
X0Y63D02*
X7Y63D01*
X245Y63D02*
X251Y63D01*
X269Y63D02*
X276Y63D01*
X295Y63D02*
X301Y63D01*
X321Y63D02*
X328Y63D01*
X345Y63D02*
X351Y63D01*
X409Y63D02*
X415Y63D01*
X587Y63D02*
X591Y63D01*
X700Y63D02*
X707Y63D01*
X0Y62D02*
X7Y62D01*
X245Y62D02*
X251Y62D01*
X269Y62D02*
X276Y62D01*
X295Y62D02*
X301Y62D01*
X320Y62D02*
X327Y62D01*
X345Y62D02*
X351Y62D01*
X409Y62D02*
X415Y62D01*
X587Y62D02*
X591Y62D01*
X700Y62D02*
X707Y62D01*
X0Y61D02*
X7Y61D01*
X245Y61D02*
X251Y61D01*
X270Y61D02*
X277Y61D01*
X295Y61D02*
X301Y61D01*
X318Y61D02*
X327Y61D01*
X345Y61D02*
X351Y61D01*
X409Y61D02*
X415Y61D01*
X587Y61D02*
X591Y61D01*
X700Y61D02*
X707Y61D01*
X0Y60D02*
X7Y60D01*
X245Y60D02*
X251Y60D01*
X270Y60D02*
X278Y60D01*
X295Y60D02*
X326Y60D01*
X345Y60D02*
X351Y60D01*
X400Y60D02*
X424Y60D01*
X587Y60D02*
X591Y60D01*
X700Y60D02*
X707Y60D01*
X0Y59D02*
X7Y59D01*
X245Y59D02*
X251Y59D01*
X271Y59D02*
X278Y59D01*
X295Y59D02*
X326Y59D01*
X345Y59D02*
X351Y59D01*
X399Y59D02*
X425Y59D01*
X587Y59D02*
X591Y59D01*
X700Y59D02*
X707Y59D01*
X0Y58D02*
X7Y58D01*
X245Y58D02*
X251Y58D01*
X272Y58D02*
X279Y58D01*
X295Y58D02*
X325Y58D01*
X345Y58D02*
X351Y58D01*
X399Y58D02*
X425Y58D01*
X587Y58D02*
X591Y58D01*
X700Y58D02*
X707Y58D01*
X0Y57D02*
X7Y57D01*
X245Y57D02*
X251Y57D01*
X272Y57D02*
X279Y57D01*
X295Y57D02*
X324Y57D01*
X345Y57D02*
X351Y57D01*
X398Y57D02*
X425Y57D01*
X587Y57D02*
X591Y57D01*
X700Y57D02*
X707Y57D01*
X0Y56D02*
X7Y56D01*
X245Y56D02*
X251Y56D01*
X273Y56D02*
X278Y56D01*
X295Y56D02*
X322Y56D01*
X345Y56D02*
X351Y56D01*
X399Y56D02*
X425Y56D01*
X587Y56D02*
X591Y56D01*
X700Y56D02*
X707Y56D01*
X0Y55D02*
X7Y55D01*
X246Y55D02*
X250Y55D01*
X273Y55D02*
X278Y55D01*
X295Y55D02*
X321Y55D01*
X346Y55D02*
X350Y55D01*
X399Y55D02*
X424Y55D01*
X587Y55D02*
X591Y55D01*
X700Y55D02*
X707Y55D01*
X0Y54D02*
X7Y54D01*
X247Y54D02*
X249Y54D01*
X275Y54D02*
X277Y54D01*
X295Y54D02*
X318Y54D01*
X347Y54D02*
X349Y54D01*
X400Y54D02*
X423Y54D01*
X588Y54D02*
X590Y54D01*
X700Y54D02*
X707Y54D01*
X0Y53D02*
X7Y53D01*
X700Y53D02*
X707Y53D01*
X0Y52D02*
X7Y52D01*
X700Y52D02*
X707Y52D01*
X0Y51D02*
X7Y51D01*
X700Y51D02*
X707Y51D01*
X0Y50D02*
X7Y50D01*
X700Y50D02*
X707Y50D01*
X0Y49D02*
X7Y49D01*
X700Y49D02*
X707Y49D01*
X0Y48D02*
X7Y48D01*
X700Y48D02*
X707Y48D01*
X0Y47D02*
X7Y47D01*
X700Y47D02*
X707Y47D01*
X0Y46D02*
X7Y46D01*
X700Y46D02*
X707Y46D01*
X0Y45D02*
X7Y45D01*
X700Y45D02*
X707Y45D01*
X0Y44D02*
X7Y44D01*
X700Y44D02*
X707Y44D01*
X0Y43D02*
X7Y43D01*
X700Y43D02*
X707Y43D01*
X0Y42D02*
X7Y42D01*
X700Y42D02*
X707Y42D01*
X0Y41D02*
X7Y41D01*
X700Y41D02*
X707Y41D01*
X0Y40D02*
X7Y40D01*
X700Y40D02*
X707Y40D01*
X0Y39D02*
X7Y39D01*
X700Y39D02*
X707Y39D01*
X0Y38D02*
X7Y38D01*
X700Y38D02*
X707Y38D01*
X0Y37D02*
X7Y37D01*
X700Y37D02*
X707Y37D01*
X0Y36D02*
X7Y36D01*
X700Y36D02*
X707Y36D01*
X0Y35D02*
X7Y35D01*
X700Y35D02*
X707Y35D01*
X0Y34D02*
X7Y34D01*
X700Y34D02*
X707Y34D01*
X0Y33D02*
X7Y33D01*
X700Y33D02*
X707Y33D01*
X0Y32D02*
X7Y32D01*
X700Y32D02*
X707Y32D01*
X0Y31D02*
X7Y31D01*
X700Y31D02*
X707Y31D01*
X0Y30D02*
X7Y30D01*
X700Y30D02*
X707Y30D01*
X0Y29D02*
X7Y29D01*
X700Y29D02*
X707Y29D01*
X0Y28D02*
X7Y28D01*
X700Y28D02*
X707Y28D01*
X0Y27D02*
X7Y27D01*
X700Y27D02*
X707Y27D01*
X0Y26D02*
X7Y26D01*
X700Y26D02*
X707Y26D01*
X0Y25D02*
X7Y25D01*
X700Y25D02*
X707Y25D01*
X0Y24D02*
X7Y24D01*
X700Y24D02*
X707Y24D01*
X0Y23D02*
X7Y23D01*
X700Y23D02*
X707Y23D01*
X0Y22D02*
X7Y22D01*
X700Y22D02*
X707Y22D01*
X0Y21D02*
X7Y21D01*
X700Y21D02*
X707Y21D01*
X0Y20D02*
X7Y20D01*
X700Y20D02*
X707Y20D01*
X0Y19D02*
X7Y19D01*
X700Y19D02*
X707Y19D01*
X0Y18D02*
X7Y18D01*
X700Y18D02*
X707Y18D01*
X0Y17D02*
X7Y17D01*
X700Y17D02*
X707Y17D01*
X0Y16D02*
X7Y16D01*
X700Y16D02*
X707Y16D01*
X0Y15D02*
X7Y15D01*
X700Y15D02*
X707Y15D01*
X0Y14D02*
X7Y14D01*
X700Y14D02*
X707Y14D01*
X0Y13D02*
X7Y13D01*
X700Y13D02*
X707Y13D01*
X0Y12D02*
X7Y12D01*
X700Y12D02*
X707Y12D01*
X0Y11D02*
X7Y11D01*
X700Y11D02*
X707Y11D01*
X0Y10D02*
X7Y10D01*
X700Y10D02*
X707Y10D01*
X0Y9D02*
X707Y9D01*
X0Y8D02*
X707Y8D01*
X0Y7D02*
X707Y7D01*
X0Y6D02*
X707Y6D01*
X0Y5D02*
X707Y5D01*
X0Y4D02*
X707Y4D01*
X0Y3D02*
X707Y3D01*
X0Y2D02*
X707Y2D01*
D02*
G04 End of Silk1*
M02*