G04 MADE WITH FRITZING*
G04 WWW.FRITZING.ORG*
G04 DOUBLE SIDED*
G04 HOLES PLATED*
G04 CONTOUR ON CENTER OF CONTOUR VECTOR*
%ASAXBY*%
%FSLAX23Y23*%
%MOIN*%
%OFA0B0*%
%SFA1.0B1.0*%
%ADD10C,0.075000*%
%ADD11C,0.070000*%
%ADD12C,0.074000*%
%ADD13C,0.078889*%
%ADD14C,0.024000*%
%ADD15R,0.001000X0.001000*%
%LNCOPPER0*%
G90*
G70*
G54D10*
X256Y1615D03*
X528Y2364D03*
G54D11*
X508Y1342D03*
X608Y1342D03*
X274Y1170D03*
X374Y1170D03*
G54D12*
X272Y1400D03*
X272Y1290D03*
X272Y1400D03*
X272Y1290D03*
X272Y1400D03*
X272Y1290D03*
G54D13*
X231Y1747D03*
X331Y1747D03*
X431Y1747D03*
X231Y2347D03*
X431Y2347D03*
X231Y345D03*
X331Y345D03*
X431Y345D03*
X231Y945D03*
X431Y945D03*
G54D12*
X90Y155D03*
X190Y145D03*
X290Y155D03*
X390Y145D03*
X490Y155D03*
X590Y145D03*
G54D14*
X481Y184D02*
X440Y316D01*
D02*
X237Y975D02*
X269Y1145D01*
D02*
X371Y169D02*
X250Y321D01*
D02*
X353Y1359D02*
X371Y1196D01*
D02*
X299Y1386D02*
X353Y1359D01*
D02*
X424Y974D02*
X381Y1145D01*
D02*
X426Y2317D02*
X336Y1778D01*
D02*
X82Y1453D02*
X218Y1720D01*
D02*
X58Y346D02*
X82Y1453D01*
D02*
X85Y185D02*
X58Y346D01*
D02*
X135Y343D02*
X170Y1455D01*
D02*
X182Y175D02*
X135Y343D01*
D02*
X423Y1610D02*
X430Y1717D01*
D02*
X170Y1455D02*
X423Y1610D01*
D02*
X584Y175D02*
X437Y915D01*
G36*
X270Y1721D02*
X270Y1717D01*
X268Y1717D01*
X268Y1715D01*
X266Y1715D01*
X266Y1713D01*
X264Y1713D01*
X264Y1711D01*
X262Y1711D01*
X262Y1709D01*
X258Y1709D01*
X258Y1707D01*
X256Y1707D01*
X256Y1705D01*
X252Y1705D01*
X252Y1703D01*
X248Y1703D01*
X248Y1701D01*
X242Y1701D01*
X242Y1699D01*
X320Y1699D01*
X320Y1701D01*
X314Y1701D01*
X314Y1703D01*
X310Y1703D01*
X310Y1705D01*
X308Y1705D01*
X308Y1707D01*
X304Y1707D01*
X304Y1709D01*
X302Y1709D01*
X302Y1711D01*
X300Y1711D01*
X300Y1713D01*
X298Y1713D01*
X298Y1715D01*
X296Y1715D01*
X296Y1717D01*
X294Y1717D01*
X294Y1719D01*
X292Y1719D01*
X292Y1721D01*
X270Y1721D01*
G37*
D02*
G36*
X370Y1721D02*
X370Y1717D01*
X368Y1717D01*
X368Y1715D01*
X366Y1715D01*
X366Y1713D01*
X364Y1713D01*
X364Y1711D01*
X362Y1711D01*
X362Y1709D01*
X358Y1709D01*
X358Y1707D01*
X356Y1707D01*
X356Y1705D01*
X352Y1705D01*
X352Y1703D01*
X348Y1703D01*
X348Y1701D01*
X342Y1701D01*
X342Y1699D01*
X406Y1699D01*
X406Y1707D01*
X404Y1707D01*
X404Y1709D01*
X402Y1709D01*
X402Y1711D01*
X400Y1711D01*
X400Y1713D01*
X398Y1713D01*
X398Y1715D01*
X396Y1715D01*
X396Y1717D01*
X394Y1717D01*
X394Y1719D01*
X392Y1719D01*
X392Y1721D01*
X370Y1721D01*
G37*
D02*
G36*
X230Y1699D02*
X230Y1697D01*
X406Y1697D01*
X406Y1699D01*
X230Y1699D01*
G37*
D02*
G36*
X230Y1699D02*
X230Y1697D01*
X406Y1697D01*
X406Y1699D01*
X230Y1699D01*
G37*
D02*
G36*
X230Y1697D02*
X230Y1695D01*
X228Y1695D01*
X228Y1691D01*
X226Y1691D01*
X226Y1687D01*
X224Y1687D01*
X224Y1683D01*
X222Y1683D01*
X222Y1679D01*
X220Y1679D01*
X220Y1675D01*
X218Y1675D01*
X218Y1671D01*
X216Y1671D01*
X216Y1667D01*
X214Y1667D01*
X214Y1663D01*
X212Y1663D01*
X212Y1659D01*
X210Y1659D01*
X210Y1655D01*
X208Y1655D01*
X208Y1651D01*
X206Y1651D01*
X206Y1647D01*
X204Y1647D01*
X204Y1643D01*
X202Y1643D01*
X202Y1639D01*
X200Y1639D01*
X200Y1635D01*
X198Y1635D01*
X198Y1631D01*
X196Y1631D01*
X196Y1627D01*
X194Y1627D01*
X194Y1623D01*
X192Y1623D01*
X192Y1619D01*
X190Y1619D01*
X190Y1615D01*
X188Y1615D01*
X188Y1611D01*
X186Y1611D01*
X186Y1607D01*
X184Y1607D01*
X184Y1603D01*
X182Y1603D01*
X182Y1599D01*
X180Y1599D01*
X180Y1595D01*
X178Y1595D01*
X178Y1591D01*
X176Y1591D01*
X176Y1587D01*
X174Y1587D01*
X174Y1583D01*
X172Y1583D01*
X172Y1579D01*
X170Y1579D01*
X170Y1575D01*
X168Y1575D01*
X168Y1571D01*
X166Y1571D01*
X166Y1567D01*
X164Y1567D01*
X164Y1565D01*
X162Y1565D01*
X162Y1561D01*
X160Y1561D01*
X160Y1557D01*
X158Y1557D01*
X158Y1553D01*
X156Y1553D01*
X156Y1549D01*
X154Y1549D01*
X154Y1545D01*
X152Y1545D01*
X152Y1541D01*
X150Y1541D01*
X150Y1537D01*
X148Y1537D01*
X148Y1533D01*
X146Y1533D01*
X146Y1529D01*
X144Y1529D01*
X144Y1525D01*
X142Y1525D01*
X142Y1521D01*
X140Y1521D01*
X140Y1517D01*
X138Y1517D01*
X138Y1513D01*
X136Y1513D01*
X136Y1509D01*
X134Y1509D01*
X134Y1505D01*
X132Y1505D01*
X132Y1501D01*
X130Y1501D01*
X130Y1497D01*
X128Y1497D01*
X128Y1493D01*
X126Y1493D01*
X126Y1489D01*
X124Y1489D01*
X124Y1485D01*
X122Y1485D01*
X122Y1481D01*
X120Y1481D01*
X120Y1477D01*
X118Y1477D01*
X118Y1473D01*
X116Y1473D01*
X116Y1469D01*
X114Y1469D01*
X114Y1465D01*
X112Y1465D01*
X112Y1461D01*
X110Y1461D01*
X110Y1457D01*
X108Y1457D01*
X108Y1453D01*
X106Y1453D01*
X106Y1449D01*
X104Y1449D01*
X104Y1403D01*
X102Y1403D01*
X102Y1311D01*
X100Y1311D01*
X100Y1219D01*
X98Y1219D01*
X98Y1127D01*
X96Y1127D01*
X96Y1035D01*
X94Y1035D01*
X94Y943D01*
X92Y943D01*
X92Y851D01*
X90Y851D01*
X90Y757D01*
X88Y757D01*
X88Y665D01*
X86Y665D01*
X86Y573D01*
X84Y573D01*
X84Y481D01*
X82Y481D01*
X82Y389D01*
X80Y389D01*
X80Y343D01*
X82Y343D01*
X82Y331D01*
X84Y331D01*
X84Y319D01*
X86Y319D01*
X86Y307D01*
X88Y307D01*
X88Y295D01*
X90Y295D01*
X90Y283D01*
X92Y283D01*
X92Y271D01*
X94Y271D01*
X94Y259D01*
X96Y259D01*
X96Y247D01*
X98Y247D01*
X98Y235D01*
X100Y235D01*
X100Y223D01*
X102Y223D01*
X102Y211D01*
X104Y211D01*
X104Y199D01*
X108Y199D01*
X108Y197D01*
X112Y197D01*
X112Y195D01*
X114Y195D01*
X114Y193D01*
X118Y193D01*
X118Y191D01*
X120Y191D01*
X120Y189D01*
X122Y189D01*
X122Y187D01*
X124Y187D01*
X124Y185D01*
X126Y185D01*
X126Y183D01*
X128Y183D01*
X128Y179D01*
X130Y179D01*
X130Y177D01*
X132Y177D01*
X132Y173D01*
X134Y173D01*
X134Y171D01*
X154Y171D01*
X154Y197D01*
X152Y197D01*
X152Y205D01*
X150Y205D01*
X150Y211D01*
X148Y211D01*
X148Y219D01*
X146Y219D01*
X146Y225D01*
X144Y225D01*
X144Y233D01*
X142Y233D01*
X142Y241D01*
X140Y241D01*
X140Y247D01*
X138Y247D01*
X138Y255D01*
X136Y255D01*
X136Y263D01*
X134Y263D01*
X134Y269D01*
X132Y269D01*
X132Y277D01*
X130Y277D01*
X130Y283D01*
X128Y283D01*
X128Y291D01*
X126Y291D01*
X126Y299D01*
X124Y299D01*
X124Y305D01*
X122Y305D01*
X122Y313D01*
X120Y313D01*
X120Y321D01*
X118Y321D01*
X118Y327D01*
X116Y327D01*
X116Y335D01*
X114Y335D01*
X114Y395D01*
X116Y395D01*
X116Y459D01*
X118Y459D01*
X118Y523D01*
X120Y523D01*
X120Y587D01*
X122Y587D01*
X122Y653D01*
X124Y653D01*
X124Y717D01*
X126Y717D01*
X126Y781D01*
X128Y781D01*
X128Y845D01*
X130Y845D01*
X130Y909D01*
X132Y909D01*
X132Y973D01*
X134Y973D01*
X134Y1037D01*
X136Y1037D01*
X136Y1101D01*
X138Y1101D01*
X138Y1165D01*
X140Y1165D01*
X140Y1229D01*
X142Y1229D01*
X142Y1293D01*
X144Y1293D01*
X144Y1357D01*
X146Y1357D01*
X146Y1421D01*
X148Y1421D01*
X148Y1461D01*
X150Y1461D01*
X150Y1467D01*
X152Y1467D01*
X152Y1469D01*
X154Y1469D01*
X154Y1471D01*
X156Y1471D01*
X156Y1473D01*
X158Y1473D01*
X158Y1475D01*
X162Y1475D01*
X162Y1477D01*
X164Y1477D01*
X164Y1479D01*
X168Y1479D01*
X168Y1481D01*
X170Y1481D01*
X170Y1483D01*
X174Y1483D01*
X174Y1485D01*
X178Y1485D01*
X178Y1487D01*
X180Y1487D01*
X180Y1489D01*
X184Y1489D01*
X184Y1491D01*
X188Y1491D01*
X188Y1493D01*
X190Y1493D01*
X190Y1495D01*
X194Y1495D01*
X194Y1497D01*
X198Y1497D01*
X198Y1499D01*
X200Y1499D01*
X200Y1501D01*
X204Y1501D01*
X204Y1503D01*
X206Y1503D01*
X206Y1505D01*
X210Y1505D01*
X210Y1507D01*
X214Y1507D01*
X214Y1509D01*
X216Y1509D01*
X216Y1511D01*
X220Y1511D01*
X220Y1513D01*
X224Y1513D01*
X224Y1515D01*
X226Y1515D01*
X226Y1517D01*
X230Y1517D01*
X230Y1519D01*
X234Y1519D01*
X234Y1521D01*
X236Y1521D01*
X236Y1523D01*
X240Y1523D01*
X240Y1525D01*
X242Y1525D01*
X242Y1527D01*
X246Y1527D01*
X246Y1529D01*
X250Y1529D01*
X250Y1531D01*
X252Y1531D01*
X252Y1533D01*
X256Y1533D01*
X256Y1535D01*
X260Y1535D01*
X260Y1537D01*
X262Y1537D01*
X262Y1539D01*
X266Y1539D01*
X266Y1541D01*
X270Y1541D01*
X270Y1543D01*
X272Y1543D01*
X272Y1545D01*
X276Y1545D01*
X276Y1547D01*
X278Y1547D01*
X278Y1549D01*
X282Y1549D01*
X282Y1551D01*
X286Y1551D01*
X286Y1553D01*
X288Y1553D01*
X288Y1555D01*
X292Y1555D01*
X292Y1557D01*
X296Y1557D01*
X296Y1559D01*
X298Y1559D01*
X298Y1561D01*
X302Y1561D01*
X302Y1563D01*
X306Y1563D01*
X306Y1565D01*
X308Y1565D01*
X308Y1567D01*
X312Y1567D01*
X312Y1569D01*
X314Y1569D01*
X314Y1571D01*
X318Y1571D01*
X318Y1573D01*
X322Y1573D01*
X322Y1575D01*
X324Y1575D01*
X324Y1577D01*
X328Y1577D01*
X328Y1579D01*
X332Y1579D01*
X332Y1581D01*
X334Y1581D01*
X334Y1583D01*
X338Y1583D01*
X338Y1585D01*
X342Y1585D01*
X342Y1587D01*
X344Y1587D01*
X344Y1589D01*
X348Y1589D01*
X348Y1591D01*
X350Y1591D01*
X350Y1593D01*
X354Y1593D01*
X354Y1595D01*
X358Y1595D01*
X358Y1597D01*
X360Y1597D01*
X360Y1599D01*
X364Y1599D01*
X364Y1601D01*
X368Y1601D01*
X368Y1603D01*
X370Y1603D01*
X370Y1605D01*
X374Y1605D01*
X374Y1607D01*
X378Y1607D01*
X378Y1609D01*
X380Y1609D01*
X380Y1611D01*
X384Y1611D01*
X384Y1613D01*
X386Y1613D01*
X386Y1615D01*
X390Y1615D01*
X390Y1617D01*
X394Y1617D01*
X394Y1619D01*
X396Y1619D01*
X396Y1621D01*
X400Y1621D01*
X400Y1623D01*
X402Y1623D01*
X402Y1641D01*
X404Y1641D01*
X404Y1675D01*
X406Y1675D01*
X406Y1697D01*
X230Y1697D01*
G37*
D02*
G36*
X372Y319D02*
X372Y317D01*
X370Y317D01*
X370Y315D01*
X368Y315D01*
X368Y313D01*
X366Y313D01*
X366Y311D01*
X364Y311D01*
X364Y309D01*
X362Y309D01*
X362Y307D01*
X360Y307D01*
X360Y305D01*
X356Y305D01*
X356Y303D01*
X354Y303D01*
X354Y301D01*
X350Y301D01*
X350Y299D01*
X344Y299D01*
X344Y297D01*
X336Y297D01*
X336Y295D01*
X308Y295D01*
X308Y283D01*
X310Y283D01*
X310Y281D01*
X312Y281D01*
X312Y277D01*
X314Y277D01*
X314Y275D01*
X316Y275D01*
X316Y273D01*
X318Y273D01*
X318Y271D01*
X320Y271D01*
X320Y267D01*
X322Y267D01*
X322Y265D01*
X324Y265D01*
X324Y263D01*
X326Y263D01*
X326Y259D01*
X328Y259D01*
X328Y257D01*
X330Y257D01*
X330Y255D01*
X332Y255D01*
X332Y253D01*
X334Y253D01*
X334Y249D01*
X336Y249D01*
X336Y247D01*
X338Y247D01*
X338Y245D01*
X340Y245D01*
X340Y243D01*
X342Y243D01*
X342Y239D01*
X344Y239D01*
X344Y237D01*
X346Y237D01*
X346Y235D01*
X348Y235D01*
X348Y233D01*
X350Y233D01*
X350Y229D01*
X352Y229D01*
X352Y227D01*
X354Y227D01*
X354Y225D01*
X356Y225D01*
X356Y223D01*
X358Y223D01*
X358Y219D01*
X360Y219D01*
X360Y217D01*
X362Y217D01*
X362Y215D01*
X364Y215D01*
X364Y213D01*
X366Y213D01*
X366Y209D01*
X368Y209D01*
X368Y207D01*
X370Y207D01*
X370Y205D01*
X372Y205D01*
X372Y203D01*
X374Y203D01*
X374Y199D01*
X376Y199D01*
X376Y197D01*
X378Y197D01*
X378Y195D01*
X380Y195D01*
X380Y193D01*
X392Y193D01*
X392Y191D01*
X402Y191D01*
X402Y189D01*
X408Y189D01*
X408Y187D01*
X412Y187D01*
X412Y185D01*
X414Y185D01*
X414Y183D01*
X418Y183D01*
X418Y181D01*
X420Y181D01*
X420Y179D01*
X422Y179D01*
X422Y177D01*
X424Y177D01*
X424Y175D01*
X426Y175D01*
X426Y173D01*
X448Y173D01*
X448Y175D01*
X450Y175D01*
X450Y179D01*
X452Y179D01*
X452Y181D01*
X454Y181D01*
X454Y201D01*
X452Y201D01*
X452Y207D01*
X450Y207D01*
X450Y213D01*
X448Y213D01*
X448Y219D01*
X446Y219D01*
X446Y227D01*
X444Y227D01*
X444Y233D01*
X442Y233D01*
X442Y239D01*
X440Y239D01*
X440Y245D01*
X438Y245D01*
X438Y253D01*
X436Y253D01*
X436Y259D01*
X434Y259D01*
X434Y265D01*
X432Y265D01*
X432Y271D01*
X430Y271D01*
X430Y279D01*
X428Y279D01*
X428Y285D01*
X426Y285D01*
X426Y291D01*
X424Y291D01*
X424Y297D01*
X418Y297D01*
X418Y299D01*
X414Y299D01*
X414Y301D01*
X410Y301D01*
X410Y303D01*
X406Y303D01*
X406Y305D01*
X404Y305D01*
X404Y307D01*
X400Y307D01*
X400Y309D01*
X398Y309D01*
X398Y311D01*
X396Y311D01*
X396Y313D01*
X394Y313D01*
X394Y317D01*
X392Y317D01*
X392Y319D01*
X372Y319D01*
G37*
D02*
G36*
X40Y2421D02*
X40Y2397D01*
X440Y2397D01*
X440Y2395D01*
X446Y2395D01*
X446Y2393D01*
X452Y2393D01*
X452Y2391D01*
X454Y2391D01*
X454Y2389D01*
X458Y2389D01*
X458Y2387D01*
X460Y2387D01*
X460Y2385D01*
X462Y2385D01*
X462Y2383D01*
X464Y2383D01*
X464Y2381D01*
X466Y2381D01*
X466Y2379D01*
X468Y2379D01*
X468Y2377D01*
X470Y2377D01*
X470Y2375D01*
X472Y2375D01*
X472Y2373D01*
X474Y2373D01*
X474Y2369D01*
X476Y2369D01*
X476Y2365D01*
X478Y2365D01*
X478Y2359D01*
X480Y2359D01*
X480Y2335D01*
X478Y2335D01*
X478Y2331D01*
X476Y2331D01*
X476Y2327D01*
X474Y2327D01*
X474Y2323D01*
X472Y2323D01*
X472Y2321D01*
X470Y2321D01*
X470Y2317D01*
X468Y2317D01*
X468Y2315D01*
X466Y2315D01*
X466Y2313D01*
X464Y2313D01*
X464Y2311D01*
X462Y2311D01*
X462Y2309D01*
X458Y2309D01*
X458Y2307D01*
X456Y2307D01*
X456Y2305D01*
X452Y2305D01*
X452Y2303D01*
X448Y2303D01*
X448Y2301D01*
X442Y2301D01*
X442Y2299D01*
X668Y2299D01*
X668Y2421D01*
X40Y2421D01*
G37*
D02*
G36*
X40Y2397D02*
X40Y2299D01*
X220Y2299D01*
X220Y2301D01*
X214Y2301D01*
X214Y2303D01*
X210Y2303D01*
X210Y2305D01*
X208Y2305D01*
X208Y2307D01*
X204Y2307D01*
X204Y2309D01*
X202Y2309D01*
X202Y2311D01*
X200Y2311D01*
X200Y2313D01*
X198Y2313D01*
X198Y2315D01*
X196Y2315D01*
X196Y2317D01*
X194Y2317D01*
X194Y2319D01*
X192Y2319D01*
X192Y2321D01*
X190Y2321D01*
X190Y2325D01*
X188Y2325D01*
X188Y2329D01*
X186Y2329D01*
X186Y2333D01*
X184Y2333D01*
X184Y2339D01*
X182Y2339D01*
X182Y2357D01*
X184Y2357D01*
X184Y2363D01*
X186Y2363D01*
X186Y2367D01*
X188Y2367D01*
X188Y2371D01*
X190Y2371D01*
X190Y2373D01*
X192Y2373D01*
X192Y2377D01*
X194Y2377D01*
X194Y2379D01*
X196Y2379D01*
X196Y2381D01*
X198Y2381D01*
X198Y2383D01*
X200Y2383D01*
X200Y2385D01*
X202Y2385D01*
X202Y2387D01*
X204Y2387D01*
X204Y2389D01*
X208Y2389D01*
X208Y2391D01*
X212Y2391D01*
X212Y2393D01*
X216Y2393D01*
X216Y2395D01*
X222Y2395D01*
X222Y2397D01*
X40Y2397D01*
G37*
D02*
G36*
X240Y2397D02*
X240Y2395D01*
X246Y2395D01*
X246Y2393D01*
X252Y2393D01*
X252Y2391D01*
X254Y2391D01*
X254Y2389D01*
X258Y2389D01*
X258Y2387D01*
X260Y2387D01*
X260Y2385D01*
X262Y2385D01*
X262Y2383D01*
X264Y2383D01*
X264Y2381D01*
X266Y2381D01*
X266Y2379D01*
X268Y2379D01*
X268Y2377D01*
X270Y2377D01*
X270Y2375D01*
X272Y2375D01*
X272Y2373D01*
X274Y2373D01*
X274Y2369D01*
X276Y2369D01*
X276Y2365D01*
X278Y2365D01*
X278Y2359D01*
X280Y2359D01*
X280Y2335D01*
X278Y2335D01*
X278Y2331D01*
X276Y2331D01*
X276Y2327D01*
X274Y2327D01*
X274Y2323D01*
X272Y2323D01*
X272Y2321D01*
X270Y2321D01*
X270Y2317D01*
X268Y2317D01*
X268Y2315D01*
X266Y2315D01*
X266Y2313D01*
X264Y2313D01*
X264Y2311D01*
X262Y2311D01*
X262Y2309D01*
X258Y2309D01*
X258Y2307D01*
X256Y2307D01*
X256Y2305D01*
X252Y2305D01*
X252Y2303D01*
X248Y2303D01*
X248Y2301D01*
X242Y2301D01*
X242Y2299D01*
X420Y2299D01*
X420Y2301D01*
X414Y2301D01*
X414Y2303D01*
X410Y2303D01*
X410Y2305D01*
X408Y2305D01*
X408Y2307D01*
X404Y2307D01*
X404Y2309D01*
X402Y2309D01*
X402Y2311D01*
X400Y2311D01*
X400Y2313D01*
X398Y2313D01*
X398Y2315D01*
X396Y2315D01*
X396Y2317D01*
X394Y2317D01*
X394Y2319D01*
X392Y2319D01*
X392Y2321D01*
X390Y2321D01*
X390Y2325D01*
X388Y2325D01*
X388Y2329D01*
X386Y2329D01*
X386Y2333D01*
X384Y2333D01*
X384Y2339D01*
X382Y2339D01*
X382Y2357D01*
X384Y2357D01*
X384Y2363D01*
X386Y2363D01*
X386Y2367D01*
X388Y2367D01*
X388Y2371D01*
X390Y2371D01*
X390Y2373D01*
X392Y2373D01*
X392Y2377D01*
X394Y2377D01*
X394Y2379D01*
X396Y2379D01*
X396Y2381D01*
X398Y2381D01*
X398Y2383D01*
X400Y2383D01*
X400Y2385D01*
X402Y2385D01*
X402Y2387D01*
X404Y2387D01*
X404Y2389D01*
X408Y2389D01*
X408Y2391D01*
X412Y2391D01*
X412Y2393D01*
X416Y2393D01*
X416Y2395D01*
X422Y2395D01*
X422Y2397D01*
X240Y2397D01*
G37*
D02*
G36*
X40Y2299D02*
X40Y2297D01*
X668Y2297D01*
X668Y2299D01*
X40Y2299D01*
G37*
D02*
G36*
X40Y2299D02*
X40Y2297D01*
X668Y2297D01*
X668Y2299D01*
X40Y2299D01*
G37*
D02*
G36*
X40Y2299D02*
X40Y2297D01*
X668Y2297D01*
X668Y2299D01*
X40Y2299D01*
G37*
D02*
G36*
X40Y2297D02*
X40Y1797D01*
X440Y1797D01*
X440Y1795D01*
X448Y1795D01*
X448Y1793D01*
X452Y1793D01*
X452Y1791D01*
X454Y1791D01*
X454Y1789D01*
X458Y1789D01*
X458Y1787D01*
X460Y1787D01*
X460Y1785D01*
X462Y1785D01*
X462Y1783D01*
X464Y1783D01*
X464Y1781D01*
X466Y1781D01*
X466Y1779D01*
X468Y1779D01*
X468Y1777D01*
X470Y1777D01*
X470Y1775D01*
X472Y1775D01*
X472Y1773D01*
X474Y1773D01*
X474Y1769D01*
X476Y1769D01*
X476Y1765D01*
X478Y1765D01*
X478Y1759D01*
X480Y1759D01*
X480Y1737D01*
X478Y1737D01*
X478Y1731D01*
X476Y1731D01*
X476Y1727D01*
X474Y1727D01*
X474Y1723D01*
X472Y1723D01*
X472Y1721D01*
X470Y1721D01*
X470Y1717D01*
X468Y1717D01*
X468Y1715D01*
X466Y1715D01*
X466Y1713D01*
X464Y1713D01*
X464Y1711D01*
X462Y1711D01*
X462Y1709D01*
X458Y1709D01*
X458Y1707D01*
X456Y1707D01*
X456Y1705D01*
X452Y1705D01*
X452Y1703D01*
X450Y1703D01*
X450Y1673D01*
X448Y1673D01*
X448Y1639D01*
X446Y1639D01*
X446Y1607D01*
X444Y1607D01*
X444Y1601D01*
X442Y1601D01*
X442Y1597D01*
X440Y1597D01*
X440Y1595D01*
X438Y1595D01*
X438Y1593D01*
X436Y1593D01*
X436Y1591D01*
X432Y1591D01*
X432Y1589D01*
X428Y1589D01*
X428Y1587D01*
X426Y1587D01*
X426Y1585D01*
X422Y1585D01*
X422Y1583D01*
X418Y1583D01*
X418Y1581D01*
X416Y1581D01*
X416Y1579D01*
X412Y1579D01*
X412Y1577D01*
X410Y1577D01*
X410Y1575D01*
X406Y1575D01*
X406Y1573D01*
X402Y1573D01*
X402Y1571D01*
X400Y1571D01*
X400Y1569D01*
X396Y1569D01*
X396Y1567D01*
X392Y1567D01*
X392Y1565D01*
X390Y1565D01*
X390Y1563D01*
X386Y1563D01*
X386Y1561D01*
X382Y1561D01*
X382Y1559D01*
X380Y1559D01*
X380Y1557D01*
X376Y1557D01*
X376Y1555D01*
X374Y1555D01*
X374Y1553D01*
X370Y1553D01*
X370Y1551D01*
X366Y1551D01*
X366Y1549D01*
X364Y1549D01*
X364Y1547D01*
X360Y1547D01*
X360Y1545D01*
X356Y1545D01*
X356Y1543D01*
X354Y1543D01*
X354Y1541D01*
X350Y1541D01*
X350Y1539D01*
X346Y1539D01*
X346Y1537D01*
X344Y1537D01*
X344Y1535D01*
X340Y1535D01*
X340Y1533D01*
X338Y1533D01*
X338Y1531D01*
X334Y1531D01*
X334Y1529D01*
X330Y1529D01*
X330Y1527D01*
X328Y1527D01*
X328Y1525D01*
X324Y1525D01*
X324Y1523D01*
X320Y1523D01*
X320Y1521D01*
X318Y1521D01*
X318Y1519D01*
X314Y1519D01*
X314Y1517D01*
X312Y1517D01*
X312Y1515D01*
X308Y1515D01*
X308Y1513D01*
X304Y1513D01*
X304Y1511D01*
X302Y1511D01*
X302Y1509D01*
X298Y1509D01*
X298Y1507D01*
X294Y1507D01*
X294Y1505D01*
X292Y1505D01*
X292Y1503D01*
X288Y1503D01*
X288Y1501D01*
X284Y1501D01*
X284Y1499D01*
X282Y1499D01*
X282Y1497D01*
X278Y1497D01*
X278Y1495D01*
X276Y1495D01*
X276Y1493D01*
X272Y1493D01*
X272Y1491D01*
X268Y1491D01*
X268Y1489D01*
X266Y1489D01*
X266Y1487D01*
X262Y1487D01*
X262Y1485D01*
X258Y1485D01*
X258Y1483D01*
X256Y1483D01*
X256Y1481D01*
X252Y1481D01*
X252Y1479D01*
X248Y1479D01*
X248Y1477D01*
X246Y1477D01*
X246Y1475D01*
X242Y1475D01*
X242Y1473D01*
X240Y1473D01*
X240Y1471D01*
X236Y1471D01*
X236Y1469D01*
X232Y1469D01*
X232Y1467D01*
X230Y1467D01*
X230Y1447D01*
X318Y1447D01*
X318Y1387D01*
X618Y1387D01*
X618Y1385D01*
X624Y1385D01*
X624Y1383D01*
X628Y1383D01*
X628Y1381D01*
X632Y1381D01*
X632Y1379D01*
X634Y1379D01*
X634Y1377D01*
X636Y1377D01*
X636Y1375D01*
X638Y1375D01*
X638Y1373D01*
X640Y1373D01*
X640Y1371D01*
X642Y1371D01*
X642Y1369D01*
X644Y1369D01*
X644Y1367D01*
X646Y1367D01*
X646Y1363D01*
X648Y1363D01*
X648Y1359D01*
X668Y1359D01*
X668Y2297D01*
X40Y2297D01*
G37*
D02*
G36*
X40Y1797D02*
X40Y1405D01*
X60Y1405D01*
X60Y1459D01*
X62Y1459D01*
X62Y1465D01*
X64Y1465D01*
X64Y1467D01*
X66Y1467D01*
X66Y1471D01*
X68Y1471D01*
X68Y1475D01*
X70Y1475D01*
X70Y1479D01*
X72Y1479D01*
X72Y1483D01*
X74Y1483D01*
X74Y1487D01*
X76Y1487D01*
X76Y1491D01*
X78Y1491D01*
X78Y1495D01*
X80Y1495D01*
X80Y1499D01*
X82Y1499D01*
X82Y1503D01*
X84Y1503D01*
X84Y1507D01*
X86Y1507D01*
X86Y1511D01*
X88Y1511D01*
X88Y1515D01*
X90Y1515D01*
X90Y1519D01*
X92Y1519D01*
X92Y1523D01*
X94Y1523D01*
X94Y1527D01*
X96Y1527D01*
X96Y1531D01*
X98Y1531D01*
X98Y1535D01*
X100Y1535D01*
X100Y1539D01*
X102Y1539D01*
X102Y1543D01*
X104Y1543D01*
X104Y1547D01*
X106Y1547D01*
X106Y1551D01*
X108Y1551D01*
X108Y1555D01*
X110Y1555D01*
X110Y1559D01*
X112Y1559D01*
X112Y1563D01*
X114Y1563D01*
X114Y1567D01*
X116Y1567D01*
X116Y1571D01*
X118Y1571D01*
X118Y1575D01*
X120Y1575D01*
X120Y1579D01*
X122Y1579D01*
X122Y1583D01*
X124Y1583D01*
X124Y1587D01*
X126Y1587D01*
X126Y1591D01*
X128Y1591D01*
X128Y1595D01*
X130Y1595D01*
X130Y1599D01*
X132Y1599D01*
X132Y1603D01*
X134Y1603D01*
X134Y1607D01*
X136Y1607D01*
X136Y1611D01*
X138Y1611D01*
X138Y1615D01*
X140Y1615D01*
X140Y1619D01*
X142Y1619D01*
X142Y1621D01*
X144Y1621D01*
X144Y1625D01*
X146Y1625D01*
X146Y1629D01*
X148Y1629D01*
X148Y1633D01*
X150Y1633D01*
X150Y1637D01*
X152Y1637D01*
X152Y1641D01*
X154Y1641D01*
X154Y1645D01*
X156Y1645D01*
X156Y1649D01*
X158Y1649D01*
X158Y1653D01*
X160Y1653D01*
X160Y1657D01*
X162Y1657D01*
X162Y1661D01*
X164Y1661D01*
X164Y1665D01*
X166Y1665D01*
X166Y1669D01*
X168Y1669D01*
X168Y1673D01*
X170Y1673D01*
X170Y1677D01*
X172Y1677D01*
X172Y1681D01*
X174Y1681D01*
X174Y1685D01*
X176Y1685D01*
X176Y1689D01*
X178Y1689D01*
X178Y1693D01*
X180Y1693D01*
X180Y1697D01*
X182Y1697D01*
X182Y1701D01*
X184Y1701D01*
X184Y1705D01*
X186Y1705D01*
X186Y1709D01*
X188Y1709D01*
X188Y1729D01*
X186Y1729D01*
X186Y1733D01*
X184Y1733D01*
X184Y1739D01*
X182Y1739D01*
X182Y1757D01*
X184Y1757D01*
X184Y1763D01*
X186Y1763D01*
X186Y1767D01*
X188Y1767D01*
X188Y1771D01*
X190Y1771D01*
X190Y1775D01*
X192Y1775D01*
X192Y1777D01*
X194Y1777D01*
X194Y1779D01*
X196Y1779D01*
X196Y1781D01*
X198Y1781D01*
X198Y1783D01*
X200Y1783D01*
X200Y1785D01*
X202Y1785D01*
X202Y1787D01*
X204Y1787D01*
X204Y1789D01*
X208Y1789D01*
X208Y1791D01*
X212Y1791D01*
X212Y1793D01*
X216Y1793D01*
X216Y1795D01*
X222Y1795D01*
X222Y1797D01*
X40Y1797D01*
G37*
D02*
G36*
X240Y1797D02*
X240Y1795D01*
X248Y1795D01*
X248Y1793D01*
X252Y1793D01*
X252Y1791D01*
X254Y1791D01*
X254Y1789D01*
X258Y1789D01*
X258Y1787D01*
X260Y1787D01*
X260Y1785D01*
X262Y1785D01*
X262Y1783D01*
X264Y1783D01*
X264Y1781D01*
X266Y1781D01*
X266Y1779D01*
X268Y1779D01*
X268Y1777D01*
X270Y1777D01*
X270Y1775D01*
X292Y1775D01*
X292Y1777D01*
X294Y1777D01*
X294Y1779D01*
X296Y1779D01*
X296Y1781D01*
X298Y1781D01*
X298Y1783D01*
X300Y1783D01*
X300Y1785D01*
X302Y1785D01*
X302Y1787D01*
X304Y1787D01*
X304Y1789D01*
X308Y1789D01*
X308Y1791D01*
X312Y1791D01*
X312Y1793D01*
X316Y1793D01*
X316Y1795D01*
X322Y1795D01*
X322Y1797D01*
X240Y1797D01*
G37*
D02*
G36*
X340Y1797D02*
X340Y1795D01*
X348Y1795D01*
X348Y1793D01*
X352Y1793D01*
X352Y1791D01*
X354Y1791D01*
X354Y1789D01*
X358Y1789D01*
X358Y1787D01*
X360Y1787D01*
X360Y1785D01*
X362Y1785D01*
X362Y1783D01*
X364Y1783D01*
X364Y1781D01*
X366Y1781D01*
X366Y1779D01*
X368Y1779D01*
X368Y1777D01*
X370Y1777D01*
X370Y1775D01*
X392Y1775D01*
X392Y1777D01*
X394Y1777D01*
X394Y1779D01*
X396Y1779D01*
X396Y1781D01*
X398Y1781D01*
X398Y1783D01*
X400Y1783D01*
X400Y1785D01*
X402Y1785D01*
X402Y1787D01*
X404Y1787D01*
X404Y1789D01*
X408Y1789D01*
X408Y1791D01*
X412Y1791D01*
X412Y1793D01*
X416Y1793D01*
X416Y1795D01*
X422Y1795D01*
X422Y1797D01*
X340Y1797D01*
G37*
D02*
G36*
X204Y1451D02*
X204Y1449D01*
X200Y1449D01*
X200Y1447D01*
X196Y1447D01*
X196Y1445D01*
X194Y1445D01*
X194Y1443D01*
X192Y1443D01*
X192Y1421D01*
X190Y1421D01*
X190Y1357D01*
X188Y1357D01*
X188Y1293D01*
X186Y1293D01*
X186Y1243D01*
X266Y1243D01*
X266Y1245D01*
X258Y1245D01*
X258Y1247D01*
X254Y1247D01*
X254Y1249D01*
X250Y1249D01*
X250Y1251D01*
X246Y1251D01*
X246Y1253D01*
X244Y1253D01*
X244Y1255D01*
X242Y1255D01*
X242Y1257D01*
X240Y1257D01*
X240Y1259D01*
X238Y1259D01*
X238Y1261D01*
X236Y1261D01*
X236Y1263D01*
X234Y1263D01*
X234Y1265D01*
X232Y1265D01*
X232Y1269D01*
X230Y1269D01*
X230Y1273D01*
X228Y1273D01*
X228Y1277D01*
X226Y1277D01*
X226Y1287D01*
X224Y1287D01*
X224Y1295D01*
X226Y1295D01*
X226Y1303D01*
X228Y1303D01*
X228Y1309D01*
X230Y1309D01*
X230Y1311D01*
X232Y1311D01*
X232Y1315D01*
X234Y1315D01*
X234Y1317D01*
X236Y1317D01*
X236Y1321D01*
X238Y1321D01*
X238Y1323D01*
X240Y1323D01*
X240Y1325D01*
X242Y1325D01*
X242Y1327D01*
X246Y1327D01*
X246Y1329D01*
X248Y1329D01*
X248Y1331D01*
X252Y1331D01*
X252Y1333D01*
X256Y1333D01*
X256Y1353D01*
X226Y1353D01*
X226Y1355D01*
X224Y1355D01*
X224Y1451D01*
X204Y1451D01*
G37*
D02*
G36*
X318Y1387D02*
X318Y1353D01*
X288Y1353D01*
X288Y1333D01*
X292Y1333D01*
X292Y1331D01*
X296Y1331D01*
X296Y1329D01*
X298Y1329D01*
X298Y1327D01*
X300Y1327D01*
X300Y1325D01*
X302Y1325D01*
X302Y1323D01*
X304Y1323D01*
X304Y1321D01*
X306Y1321D01*
X306Y1319D01*
X308Y1319D01*
X308Y1317D01*
X310Y1317D01*
X310Y1315D01*
X312Y1315D01*
X312Y1311D01*
X314Y1311D01*
X314Y1307D01*
X316Y1307D01*
X316Y1301D01*
X318Y1301D01*
X318Y1297D01*
X504Y1297D01*
X504Y1299D01*
X496Y1299D01*
X496Y1301D01*
X492Y1301D01*
X492Y1303D01*
X488Y1303D01*
X488Y1305D01*
X484Y1305D01*
X484Y1307D01*
X482Y1307D01*
X482Y1309D01*
X480Y1309D01*
X480Y1311D01*
X478Y1311D01*
X478Y1313D01*
X476Y1313D01*
X476Y1315D01*
X474Y1315D01*
X474Y1317D01*
X472Y1317D01*
X472Y1319D01*
X470Y1319D01*
X470Y1323D01*
X468Y1323D01*
X468Y1327D01*
X466Y1327D01*
X466Y1331D01*
X464Y1331D01*
X464Y1353D01*
X466Y1353D01*
X466Y1359D01*
X468Y1359D01*
X468Y1363D01*
X470Y1363D01*
X470Y1365D01*
X472Y1365D01*
X472Y1369D01*
X474Y1369D01*
X474Y1371D01*
X476Y1371D01*
X476Y1373D01*
X478Y1373D01*
X478Y1375D01*
X480Y1375D01*
X480Y1377D01*
X482Y1377D01*
X482Y1379D01*
X486Y1379D01*
X486Y1381D01*
X488Y1381D01*
X488Y1383D01*
X492Y1383D01*
X492Y1385D01*
X498Y1385D01*
X498Y1387D01*
X318Y1387D01*
G37*
D02*
G36*
X518Y1387D02*
X518Y1385D01*
X524Y1385D01*
X524Y1383D01*
X528Y1383D01*
X528Y1381D01*
X532Y1381D01*
X532Y1379D01*
X534Y1379D01*
X534Y1377D01*
X536Y1377D01*
X536Y1375D01*
X538Y1375D01*
X538Y1373D01*
X540Y1373D01*
X540Y1371D01*
X542Y1371D01*
X542Y1369D01*
X544Y1369D01*
X544Y1367D01*
X546Y1367D01*
X546Y1363D01*
X548Y1363D01*
X548Y1359D01*
X568Y1359D01*
X568Y1363D01*
X570Y1363D01*
X570Y1365D01*
X572Y1365D01*
X572Y1369D01*
X574Y1369D01*
X574Y1371D01*
X576Y1371D01*
X576Y1373D01*
X578Y1373D01*
X578Y1375D01*
X580Y1375D01*
X580Y1377D01*
X582Y1377D01*
X582Y1379D01*
X586Y1379D01*
X586Y1381D01*
X588Y1381D01*
X588Y1383D01*
X592Y1383D01*
X592Y1385D01*
X598Y1385D01*
X598Y1387D01*
X518Y1387D01*
G37*
D02*
G36*
X548Y1325D02*
X548Y1323D01*
X546Y1323D01*
X546Y1319D01*
X544Y1319D01*
X544Y1317D01*
X542Y1317D01*
X542Y1315D01*
X540Y1315D01*
X540Y1311D01*
X536Y1311D01*
X536Y1309D01*
X534Y1309D01*
X534Y1307D01*
X532Y1307D01*
X532Y1305D01*
X528Y1305D01*
X528Y1303D01*
X526Y1303D01*
X526Y1301D01*
X520Y1301D01*
X520Y1299D01*
X512Y1299D01*
X512Y1297D01*
X604Y1297D01*
X604Y1299D01*
X596Y1299D01*
X596Y1301D01*
X592Y1301D01*
X592Y1303D01*
X588Y1303D01*
X588Y1305D01*
X584Y1305D01*
X584Y1307D01*
X582Y1307D01*
X582Y1309D01*
X580Y1309D01*
X580Y1311D01*
X578Y1311D01*
X578Y1313D01*
X576Y1313D01*
X576Y1315D01*
X574Y1315D01*
X574Y1317D01*
X572Y1317D01*
X572Y1319D01*
X570Y1319D01*
X570Y1323D01*
X568Y1323D01*
X568Y1325D01*
X548Y1325D01*
G37*
D02*
G36*
X648Y1325D02*
X648Y1321D01*
X646Y1321D01*
X646Y1319D01*
X644Y1319D01*
X644Y1317D01*
X642Y1317D01*
X642Y1313D01*
X640Y1313D01*
X640Y1311D01*
X638Y1311D01*
X638Y1309D01*
X634Y1309D01*
X634Y1307D01*
X632Y1307D01*
X632Y1305D01*
X630Y1305D01*
X630Y1303D01*
X626Y1303D01*
X626Y1301D01*
X620Y1301D01*
X620Y1299D01*
X612Y1299D01*
X612Y1297D01*
X668Y1297D01*
X668Y1325D01*
X648Y1325D01*
G37*
D02*
G36*
X318Y1297D02*
X318Y1295D01*
X668Y1295D01*
X668Y1297D01*
X318Y1297D01*
G37*
D02*
G36*
X318Y1297D02*
X318Y1295D01*
X668Y1295D01*
X668Y1297D01*
X318Y1297D01*
G37*
D02*
G36*
X318Y1297D02*
X318Y1295D01*
X668Y1295D01*
X668Y1297D01*
X318Y1297D01*
G37*
D02*
G36*
X318Y1295D02*
X318Y1279D01*
X316Y1279D01*
X316Y1275D01*
X314Y1275D01*
X314Y1271D01*
X312Y1271D01*
X312Y1267D01*
X310Y1267D01*
X310Y1265D01*
X308Y1265D01*
X308Y1261D01*
X306Y1261D01*
X306Y1259D01*
X304Y1259D01*
X304Y1257D01*
X302Y1257D01*
X302Y1255D01*
X300Y1255D01*
X300Y1253D01*
X296Y1253D01*
X296Y1251D01*
X294Y1251D01*
X294Y1249D01*
X290Y1249D01*
X290Y1247D01*
X286Y1247D01*
X286Y1245D01*
X278Y1245D01*
X278Y1243D01*
X668Y1243D01*
X668Y1295D01*
X318Y1295D01*
G37*
D02*
G36*
X186Y1243D02*
X186Y1241D01*
X668Y1241D01*
X668Y1243D01*
X186Y1243D01*
G37*
D02*
G36*
X186Y1243D02*
X186Y1241D01*
X668Y1241D01*
X668Y1243D01*
X186Y1243D01*
G37*
D02*
G36*
X186Y1241D02*
X186Y1229D01*
X184Y1229D01*
X184Y1215D01*
X384Y1215D01*
X384Y1213D01*
X390Y1213D01*
X390Y1211D01*
X394Y1211D01*
X394Y1209D01*
X398Y1209D01*
X398Y1207D01*
X400Y1207D01*
X400Y1205D01*
X402Y1205D01*
X402Y1203D01*
X404Y1203D01*
X404Y1201D01*
X406Y1201D01*
X406Y1199D01*
X408Y1199D01*
X408Y1197D01*
X410Y1197D01*
X410Y1195D01*
X412Y1195D01*
X412Y1191D01*
X414Y1191D01*
X414Y1187D01*
X416Y1187D01*
X416Y1183D01*
X418Y1183D01*
X418Y1175D01*
X420Y1175D01*
X420Y1165D01*
X418Y1165D01*
X418Y1157D01*
X416Y1157D01*
X416Y1153D01*
X414Y1153D01*
X414Y1149D01*
X412Y1149D01*
X412Y1147D01*
X410Y1147D01*
X410Y1145D01*
X408Y1145D01*
X408Y1141D01*
X406Y1141D01*
X406Y1139D01*
X404Y1139D01*
X404Y1137D01*
X400Y1137D01*
X400Y1135D01*
X398Y1135D01*
X398Y1133D01*
X396Y1133D01*
X396Y1131D01*
X392Y1131D01*
X392Y1129D01*
X388Y1129D01*
X388Y1127D01*
X380Y1127D01*
X380Y1125D01*
X668Y1125D01*
X668Y1241D01*
X186Y1241D01*
G37*
D02*
G36*
X184Y1215D02*
X184Y1165D01*
X182Y1165D01*
X182Y1099D01*
X180Y1099D01*
X180Y1035D01*
X178Y1035D01*
X178Y979D01*
X198Y979D01*
X198Y981D01*
X200Y981D01*
X200Y983D01*
X204Y983D01*
X204Y985D01*
X206Y985D01*
X206Y987D01*
X210Y987D01*
X210Y989D01*
X212Y989D01*
X212Y991D01*
X218Y991D01*
X218Y997D01*
X220Y997D01*
X220Y1009D01*
X222Y1009D01*
X222Y1019D01*
X224Y1019D01*
X224Y1029D01*
X226Y1029D01*
X226Y1041D01*
X228Y1041D01*
X228Y1051D01*
X230Y1051D01*
X230Y1061D01*
X232Y1061D01*
X232Y1071D01*
X234Y1071D01*
X234Y1083D01*
X236Y1083D01*
X236Y1093D01*
X238Y1093D01*
X238Y1103D01*
X240Y1103D01*
X240Y1113D01*
X242Y1113D01*
X242Y1143D01*
X240Y1143D01*
X240Y1145D01*
X238Y1145D01*
X238Y1147D01*
X236Y1147D01*
X236Y1151D01*
X234Y1151D01*
X234Y1155D01*
X232Y1155D01*
X232Y1159D01*
X230Y1159D01*
X230Y1181D01*
X232Y1181D01*
X232Y1187D01*
X234Y1187D01*
X234Y1191D01*
X236Y1191D01*
X236Y1193D01*
X238Y1193D01*
X238Y1197D01*
X240Y1197D01*
X240Y1199D01*
X242Y1199D01*
X242Y1201D01*
X244Y1201D01*
X244Y1203D01*
X246Y1203D01*
X246Y1205D01*
X248Y1205D01*
X248Y1207D01*
X252Y1207D01*
X252Y1209D01*
X254Y1209D01*
X254Y1211D01*
X258Y1211D01*
X258Y1213D01*
X264Y1213D01*
X264Y1215D01*
X184Y1215D01*
G37*
D02*
G36*
X284Y1215D02*
X284Y1213D01*
X290Y1213D01*
X290Y1211D01*
X294Y1211D01*
X294Y1209D01*
X296Y1209D01*
X296Y1207D01*
X300Y1207D01*
X300Y1205D01*
X302Y1205D01*
X302Y1203D01*
X304Y1203D01*
X304Y1201D01*
X306Y1201D01*
X306Y1199D01*
X308Y1199D01*
X308Y1197D01*
X310Y1197D01*
X310Y1195D01*
X312Y1195D01*
X312Y1191D01*
X314Y1191D01*
X314Y1187D01*
X334Y1187D01*
X334Y1191D01*
X336Y1191D01*
X336Y1193D01*
X338Y1193D01*
X338Y1197D01*
X340Y1197D01*
X340Y1199D01*
X342Y1199D01*
X342Y1201D01*
X344Y1201D01*
X344Y1203D01*
X346Y1203D01*
X346Y1205D01*
X348Y1205D01*
X348Y1207D01*
X352Y1207D01*
X352Y1209D01*
X354Y1209D01*
X354Y1211D01*
X358Y1211D01*
X358Y1213D01*
X364Y1213D01*
X364Y1215D01*
X284Y1215D01*
G37*
D02*
G36*
X314Y1153D02*
X314Y1151D01*
X312Y1151D01*
X312Y1147D01*
X310Y1147D01*
X310Y1145D01*
X308Y1145D01*
X308Y1141D01*
X306Y1141D01*
X306Y1139D01*
X304Y1139D01*
X304Y1137D01*
X300Y1137D01*
X300Y1135D01*
X298Y1135D01*
X298Y1133D01*
X296Y1133D01*
X296Y1131D01*
X292Y1131D01*
X292Y1129D01*
X288Y1129D01*
X288Y1125D01*
X370Y1125D01*
X370Y1127D01*
X362Y1127D01*
X362Y1129D01*
X358Y1129D01*
X358Y1131D01*
X354Y1131D01*
X354Y1133D01*
X350Y1133D01*
X350Y1135D01*
X348Y1135D01*
X348Y1137D01*
X346Y1137D01*
X346Y1139D01*
X344Y1139D01*
X344Y1141D01*
X342Y1141D01*
X342Y1143D01*
X340Y1143D01*
X340Y1145D01*
X338Y1145D01*
X338Y1147D01*
X336Y1147D01*
X336Y1151D01*
X334Y1151D01*
X334Y1153D01*
X314Y1153D01*
G37*
D02*
G36*
X288Y1125D02*
X288Y1123D01*
X668Y1123D01*
X668Y1125D01*
X288Y1125D01*
G37*
D02*
G36*
X288Y1125D02*
X288Y1123D01*
X668Y1123D01*
X668Y1125D01*
X288Y1125D01*
G37*
D02*
G36*
X288Y1123D02*
X288Y1121D01*
X286Y1121D01*
X286Y1109D01*
X284Y1109D01*
X284Y1099D01*
X282Y1099D01*
X282Y1089D01*
X280Y1089D01*
X280Y1079D01*
X278Y1079D01*
X278Y1067D01*
X276Y1067D01*
X276Y1057D01*
X274Y1057D01*
X274Y1047D01*
X272Y1047D01*
X272Y1035D01*
X270Y1035D01*
X270Y1025D01*
X268Y1025D01*
X268Y1015D01*
X266Y1015D01*
X266Y1005D01*
X264Y1005D01*
X264Y995D01*
X438Y995D01*
X438Y993D01*
X446Y993D01*
X446Y991D01*
X450Y991D01*
X450Y989D01*
X454Y989D01*
X454Y987D01*
X456Y987D01*
X456Y985D01*
X460Y985D01*
X460Y983D01*
X462Y983D01*
X462Y981D01*
X464Y981D01*
X464Y979D01*
X466Y979D01*
X466Y977D01*
X468Y977D01*
X468Y975D01*
X470Y975D01*
X470Y973D01*
X472Y973D01*
X472Y969D01*
X474Y969D01*
X474Y967D01*
X476Y967D01*
X476Y963D01*
X478Y963D01*
X478Y957D01*
X480Y957D01*
X480Y933D01*
X478Y933D01*
X478Y927D01*
X476Y927D01*
X476Y923D01*
X474Y923D01*
X474Y921D01*
X472Y921D01*
X472Y917D01*
X470Y917D01*
X470Y915D01*
X468Y915D01*
X468Y913D01*
X466Y913D01*
X466Y911D01*
X464Y911D01*
X464Y909D01*
X462Y909D01*
X462Y907D01*
X460Y907D01*
X460Y905D01*
X456Y905D01*
X456Y903D01*
X454Y903D01*
X454Y901D01*
X450Y901D01*
X450Y899D01*
X444Y899D01*
X444Y897D01*
X436Y897D01*
X436Y895D01*
X668Y895D01*
X668Y1123D01*
X288Y1123D01*
G37*
D02*
G36*
X264Y995D02*
X264Y979D01*
X266Y979D01*
X266Y977D01*
X268Y977D01*
X268Y975D01*
X270Y975D01*
X270Y973D01*
X272Y973D01*
X272Y969D01*
X274Y969D01*
X274Y967D01*
X276Y967D01*
X276Y963D01*
X278Y963D01*
X278Y957D01*
X280Y957D01*
X280Y933D01*
X278Y933D01*
X278Y927D01*
X276Y927D01*
X276Y923D01*
X274Y923D01*
X274Y921D01*
X272Y921D01*
X272Y917D01*
X270Y917D01*
X270Y915D01*
X268Y915D01*
X268Y913D01*
X266Y913D01*
X266Y911D01*
X264Y911D01*
X264Y909D01*
X262Y909D01*
X262Y907D01*
X260Y907D01*
X260Y905D01*
X256Y905D01*
X256Y903D01*
X254Y903D01*
X254Y901D01*
X250Y901D01*
X250Y899D01*
X244Y899D01*
X244Y897D01*
X236Y897D01*
X236Y895D01*
X426Y895D01*
X426Y897D01*
X418Y897D01*
X418Y899D01*
X414Y899D01*
X414Y901D01*
X410Y901D01*
X410Y903D01*
X406Y903D01*
X406Y905D01*
X404Y905D01*
X404Y907D01*
X400Y907D01*
X400Y909D01*
X398Y909D01*
X398Y911D01*
X396Y911D01*
X396Y913D01*
X394Y913D01*
X394Y917D01*
X392Y917D01*
X392Y919D01*
X390Y919D01*
X390Y921D01*
X388Y921D01*
X388Y925D01*
X386Y925D01*
X386Y929D01*
X384Y929D01*
X384Y937D01*
X382Y937D01*
X382Y955D01*
X384Y955D01*
X384Y961D01*
X386Y961D01*
X386Y965D01*
X388Y965D01*
X388Y969D01*
X390Y969D01*
X390Y971D01*
X392Y971D01*
X392Y975D01*
X394Y975D01*
X394Y977D01*
X396Y977D01*
X396Y979D01*
X398Y979D01*
X398Y981D01*
X400Y981D01*
X400Y983D01*
X404Y983D01*
X404Y985D01*
X406Y985D01*
X406Y987D01*
X410Y987D01*
X410Y989D01*
X412Y989D01*
X412Y991D01*
X418Y991D01*
X418Y993D01*
X426Y993D01*
X426Y995D01*
X264Y995D01*
G37*
D02*
G36*
X176Y913D02*
X176Y907D01*
X174Y907D01*
X174Y895D01*
X226Y895D01*
X226Y897D01*
X218Y897D01*
X218Y899D01*
X214Y899D01*
X214Y901D01*
X210Y901D01*
X210Y903D01*
X206Y903D01*
X206Y905D01*
X204Y905D01*
X204Y907D01*
X200Y907D01*
X200Y909D01*
X198Y909D01*
X198Y911D01*
X196Y911D01*
X196Y913D01*
X176Y913D01*
G37*
D02*
G36*
X174Y895D02*
X174Y893D01*
X668Y893D01*
X668Y895D01*
X174Y895D01*
G37*
D02*
G36*
X174Y895D02*
X174Y893D01*
X668Y893D01*
X668Y895D01*
X174Y895D01*
G37*
D02*
G36*
X174Y895D02*
X174Y893D01*
X668Y893D01*
X668Y895D01*
X174Y895D01*
G37*
D02*
G36*
X174Y893D02*
X174Y843D01*
X172Y843D01*
X172Y779D01*
X170Y779D01*
X170Y715D01*
X168Y715D01*
X168Y651D01*
X166Y651D01*
X166Y587D01*
X164Y587D01*
X164Y523D01*
X162Y523D01*
X162Y459D01*
X160Y459D01*
X160Y395D01*
X438Y395D01*
X438Y393D01*
X446Y393D01*
X446Y391D01*
X450Y391D01*
X450Y389D01*
X454Y389D01*
X454Y387D01*
X456Y387D01*
X456Y385D01*
X460Y385D01*
X460Y383D01*
X462Y383D01*
X462Y381D01*
X464Y381D01*
X464Y379D01*
X466Y379D01*
X466Y377D01*
X468Y377D01*
X468Y375D01*
X470Y375D01*
X470Y373D01*
X472Y373D01*
X472Y369D01*
X474Y369D01*
X474Y367D01*
X476Y367D01*
X476Y363D01*
X478Y363D01*
X478Y357D01*
X480Y357D01*
X480Y333D01*
X478Y333D01*
X478Y329D01*
X476Y329D01*
X476Y325D01*
X474Y325D01*
X474Y321D01*
X472Y321D01*
X472Y317D01*
X470Y317D01*
X470Y291D01*
X472Y291D01*
X472Y285D01*
X474Y285D01*
X474Y279D01*
X476Y279D01*
X476Y271D01*
X478Y271D01*
X478Y265D01*
X480Y265D01*
X480Y259D01*
X482Y259D01*
X482Y253D01*
X484Y253D01*
X484Y247D01*
X486Y247D01*
X486Y239D01*
X488Y239D01*
X488Y233D01*
X490Y233D01*
X490Y227D01*
X492Y227D01*
X492Y221D01*
X494Y221D01*
X494Y213D01*
X496Y213D01*
X496Y207D01*
X498Y207D01*
X498Y201D01*
X502Y201D01*
X502Y199D01*
X508Y199D01*
X508Y197D01*
X512Y197D01*
X512Y195D01*
X514Y195D01*
X514Y193D01*
X592Y193D01*
X592Y191D01*
X602Y191D01*
X602Y189D01*
X608Y189D01*
X608Y187D01*
X612Y187D01*
X612Y185D01*
X614Y185D01*
X614Y183D01*
X618Y183D01*
X618Y181D01*
X620Y181D01*
X620Y179D01*
X622Y179D01*
X622Y177D01*
X624Y177D01*
X624Y175D01*
X626Y175D01*
X626Y173D01*
X628Y173D01*
X628Y169D01*
X630Y169D01*
X630Y167D01*
X632Y167D01*
X632Y163D01*
X634Y163D01*
X634Y157D01*
X636Y157D01*
X636Y147D01*
X638Y147D01*
X638Y143D01*
X636Y143D01*
X636Y133D01*
X634Y133D01*
X634Y127D01*
X632Y127D01*
X632Y125D01*
X630Y125D01*
X630Y121D01*
X628Y121D01*
X628Y119D01*
X626Y119D01*
X626Y115D01*
X624Y115D01*
X624Y113D01*
X622Y113D01*
X622Y111D01*
X620Y111D01*
X620Y109D01*
X616Y109D01*
X616Y107D01*
X614Y107D01*
X614Y105D01*
X610Y105D01*
X610Y103D01*
X606Y103D01*
X606Y101D01*
X602Y101D01*
X602Y99D01*
X668Y99D01*
X668Y893D01*
X174Y893D01*
G37*
D02*
G36*
X160Y395D02*
X160Y393D01*
X158Y393D01*
X158Y341D01*
X160Y341D01*
X160Y333D01*
X162Y333D01*
X162Y327D01*
X164Y327D01*
X164Y319D01*
X166Y319D01*
X166Y311D01*
X168Y311D01*
X168Y305D01*
X170Y305D01*
X170Y297D01*
X172Y297D01*
X172Y289D01*
X174Y289D01*
X174Y283D01*
X176Y283D01*
X176Y275D01*
X178Y275D01*
X178Y269D01*
X180Y269D01*
X180Y261D01*
X182Y261D01*
X182Y253D01*
X184Y253D01*
X184Y247D01*
X186Y247D01*
X186Y239D01*
X188Y239D01*
X188Y231D01*
X190Y231D01*
X190Y225D01*
X192Y225D01*
X192Y217D01*
X194Y217D01*
X194Y209D01*
X196Y209D01*
X196Y203D01*
X198Y203D01*
X198Y195D01*
X200Y195D01*
X200Y191D01*
X202Y191D01*
X202Y189D01*
X208Y189D01*
X208Y187D01*
X212Y187D01*
X212Y185D01*
X214Y185D01*
X214Y183D01*
X218Y183D01*
X218Y181D01*
X220Y181D01*
X220Y179D01*
X222Y179D01*
X222Y177D01*
X224Y177D01*
X224Y175D01*
X226Y175D01*
X226Y173D01*
X248Y173D01*
X248Y175D01*
X250Y175D01*
X250Y179D01*
X252Y179D01*
X252Y181D01*
X254Y181D01*
X254Y185D01*
X256Y185D01*
X256Y187D01*
X258Y187D01*
X258Y189D01*
X260Y189D01*
X260Y191D01*
X262Y191D01*
X262Y193D01*
X266Y193D01*
X266Y195D01*
X268Y195D01*
X268Y197D01*
X272Y197D01*
X272Y199D01*
X278Y199D01*
X278Y201D01*
X288Y201D01*
X288Y203D01*
X304Y203D01*
X304Y219D01*
X302Y219D01*
X302Y221D01*
X300Y221D01*
X300Y225D01*
X298Y225D01*
X298Y227D01*
X296Y227D01*
X296Y229D01*
X294Y229D01*
X294Y233D01*
X292Y233D01*
X292Y235D01*
X290Y235D01*
X290Y237D01*
X288Y237D01*
X288Y239D01*
X286Y239D01*
X286Y243D01*
X284Y243D01*
X284Y245D01*
X282Y245D01*
X282Y247D01*
X280Y247D01*
X280Y249D01*
X278Y249D01*
X278Y253D01*
X276Y253D01*
X276Y255D01*
X274Y255D01*
X274Y257D01*
X272Y257D01*
X272Y259D01*
X270Y259D01*
X270Y263D01*
X268Y263D01*
X268Y265D01*
X266Y265D01*
X266Y267D01*
X264Y267D01*
X264Y269D01*
X262Y269D01*
X262Y273D01*
X260Y273D01*
X260Y275D01*
X258Y275D01*
X258Y277D01*
X256Y277D01*
X256Y279D01*
X254Y279D01*
X254Y283D01*
X252Y283D01*
X252Y285D01*
X250Y285D01*
X250Y287D01*
X248Y287D01*
X248Y291D01*
X246Y291D01*
X246Y293D01*
X244Y293D01*
X244Y295D01*
X226Y295D01*
X226Y297D01*
X218Y297D01*
X218Y299D01*
X214Y299D01*
X214Y301D01*
X210Y301D01*
X210Y303D01*
X206Y303D01*
X206Y305D01*
X204Y305D01*
X204Y307D01*
X200Y307D01*
X200Y309D01*
X198Y309D01*
X198Y311D01*
X196Y311D01*
X196Y313D01*
X194Y313D01*
X194Y317D01*
X192Y317D01*
X192Y319D01*
X190Y319D01*
X190Y321D01*
X188Y321D01*
X188Y325D01*
X186Y325D01*
X186Y329D01*
X184Y329D01*
X184Y337D01*
X182Y337D01*
X182Y355D01*
X184Y355D01*
X184Y361D01*
X186Y361D01*
X186Y365D01*
X188Y365D01*
X188Y369D01*
X190Y369D01*
X190Y371D01*
X192Y371D01*
X192Y375D01*
X194Y375D01*
X194Y377D01*
X196Y377D01*
X196Y379D01*
X198Y379D01*
X198Y381D01*
X200Y381D01*
X200Y383D01*
X204Y383D01*
X204Y385D01*
X206Y385D01*
X206Y387D01*
X208Y387D01*
X208Y389D01*
X212Y389D01*
X212Y391D01*
X218Y391D01*
X218Y393D01*
X224Y393D01*
X224Y395D01*
X160Y395D01*
G37*
D02*
G36*
X238Y395D02*
X238Y393D01*
X246Y393D01*
X246Y391D01*
X250Y391D01*
X250Y389D01*
X254Y389D01*
X254Y387D01*
X256Y387D01*
X256Y385D01*
X260Y385D01*
X260Y383D01*
X262Y383D01*
X262Y381D01*
X264Y381D01*
X264Y379D01*
X266Y379D01*
X266Y377D01*
X268Y377D01*
X268Y375D01*
X270Y375D01*
X270Y373D01*
X272Y373D01*
X272Y371D01*
X292Y371D01*
X292Y375D01*
X294Y375D01*
X294Y377D01*
X296Y377D01*
X296Y379D01*
X298Y379D01*
X298Y381D01*
X300Y381D01*
X300Y383D01*
X304Y383D01*
X304Y385D01*
X306Y385D01*
X306Y387D01*
X308Y387D01*
X308Y389D01*
X312Y389D01*
X312Y391D01*
X318Y391D01*
X318Y393D01*
X324Y393D01*
X324Y395D01*
X238Y395D01*
G37*
D02*
G36*
X338Y395D02*
X338Y393D01*
X346Y393D01*
X346Y391D01*
X350Y391D01*
X350Y389D01*
X354Y389D01*
X354Y387D01*
X356Y387D01*
X356Y385D01*
X360Y385D01*
X360Y383D01*
X362Y383D01*
X362Y381D01*
X364Y381D01*
X364Y379D01*
X366Y379D01*
X366Y377D01*
X368Y377D01*
X368Y375D01*
X370Y375D01*
X370Y373D01*
X372Y373D01*
X372Y371D01*
X392Y371D01*
X392Y375D01*
X394Y375D01*
X394Y377D01*
X396Y377D01*
X396Y379D01*
X398Y379D01*
X398Y381D01*
X400Y381D01*
X400Y383D01*
X404Y383D01*
X404Y385D01*
X406Y385D01*
X406Y387D01*
X408Y387D01*
X408Y389D01*
X412Y389D01*
X412Y391D01*
X418Y391D01*
X418Y393D01*
X424Y393D01*
X424Y395D01*
X338Y395D01*
G37*
D02*
G36*
X518Y193D02*
X518Y191D01*
X520Y191D01*
X520Y189D01*
X522Y189D01*
X522Y187D01*
X524Y187D01*
X524Y185D01*
X526Y185D01*
X526Y183D01*
X528Y183D01*
X528Y179D01*
X530Y179D01*
X530Y177D01*
X532Y177D01*
X532Y173D01*
X534Y173D01*
X534Y171D01*
X554Y171D01*
X554Y175D01*
X556Y175D01*
X556Y177D01*
X558Y177D01*
X558Y179D01*
X560Y179D01*
X560Y181D01*
X562Y181D01*
X562Y183D01*
X566Y183D01*
X566Y185D01*
X568Y185D01*
X568Y187D01*
X572Y187D01*
X572Y189D01*
X578Y189D01*
X578Y191D01*
X588Y191D01*
X588Y193D01*
X518Y193D01*
G37*
D02*
G36*
X126Y129D02*
X126Y125D01*
X124Y125D01*
X124Y123D01*
X122Y123D01*
X122Y121D01*
X120Y121D01*
X120Y119D01*
X116Y119D01*
X116Y117D01*
X114Y117D01*
X114Y115D01*
X110Y115D01*
X110Y113D01*
X106Y113D01*
X106Y111D01*
X102Y111D01*
X102Y109D01*
X160Y109D01*
X160Y111D01*
X158Y111D01*
X158Y113D01*
X156Y113D01*
X156Y115D01*
X154Y115D01*
X154Y119D01*
X152Y119D01*
X152Y121D01*
X150Y121D01*
X150Y125D01*
X148Y125D01*
X148Y129D01*
X126Y129D01*
G37*
D02*
G36*
X234Y129D02*
X234Y127D01*
X232Y127D01*
X232Y125D01*
X230Y125D01*
X230Y121D01*
X228Y121D01*
X228Y119D01*
X226Y119D01*
X226Y115D01*
X224Y115D01*
X224Y113D01*
X222Y113D01*
X222Y111D01*
X220Y111D01*
X220Y109D01*
X278Y109D01*
X278Y111D01*
X274Y111D01*
X274Y113D01*
X270Y113D01*
X270Y115D01*
X266Y115D01*
X266Y117D01*
X264Y117D01*
X264Y119D01*
X260Y119D01*
X260Y121D01*
X258Y121D01*
X258Y123D01*
X256Y123D01*
X256Y125D01*
X254Y125D01*
X254Y129D01*
X234Y129D01*
G37*
D02*
G36*
X326Y129D02*
X326Y125D01*
X324Y125D01*
X324Y123D01*
X322Y123D01*
X322Y121D01*
X320Y121D01*
X320Y119D01*
X316Y119D01*
X316Y117D01*
X314Y117D01*
X314Y115D01*
X310Y115D01*
X310Y113D01*
X306Y113D01*
X306Y111D01*
X302Y111D01*
X302Y109D01*
X360Y109D01*
X360Y111D01*
X358Y111D01*
X358Y113D01*
X356Y113D01*
X356Y115D01*
X354Y115D01*
X354Y119D01*
X352Y119D01*
X352Y121D01*
X350Y121D01*
X350Y125D01*
X348Y125D01*
X348Y129D01*
X326Y129D01*
G37*
D02*
G36*
X434Y129D02*
X434Y127D01*
X432Y127D01*
X432Y125D01*
X430Y125D01*
X430Y121D01*
X428Y121D01*
X428Y119D01*
X426Y119D01*
X426Y115D01*
X424Y115D01*
X424Y113D01*
X422Y113D01*
X422Y111D01*
X420Y111D01*
X420Y109D01*
X478Y109D01*
X478Y111D01*
X474Y111D01*
X474Y113D01*
X470Y113D01*
X470Y115D01*
X466Y115D01*
X466Y117D01*
X464Y117D01*
X464Y119D01*
X460Y119D01*
X460Y121D01*
X458Y121D01*
X458Y123D01*
X456Y123D01*
X456Y125D01*
X454Y125D01*
X454Y129D01*
X434Y129D01*
G37*
D02*
G36*
X526Y129D02*
X526Y125D01*
X524Y125D01*
X524Y123D01*
X522Y123D01*
X522Y121D01*
X520Y121D01*
X520Y119D01*
X516Y119D01*
X516Y117D01*
X514Y117D01*
X514Y115D01*
X510Y115D01*
X510Y113D01*
X506Y113D01*
X506Y111D01*
X502Y111D01*
X502Y109D01*
X560Y109D01*
X560Y111D01*
X558Y111D01*
X558Y113D01*
X556Y113D01*
X556Y115D01*
X554Y115D01*
X554Y119D01*
X552Y119D01*
X552Y121D01*
X550Y121D01*
X550Y125D01*
X548Y125D01*
X548Y129D01*
X526Y129D01*
G37*
D02*
G36*
X40Y121D02*
X40Y109D01*
X78Y109D01*
X78Y111D01*
X74Y111D01*
X74Y113D01*
X70Y113D01*
X70Y115D01*
X66Y115D01*
X66Y117D01*
X64Y117D01*
X64Y119D01*
X60Y119D01*
X60Y121D01*
X40Y121D01*
G37*
D02*
G36*
X40Y109D02*
X40Y107D01*
X164Y107D01*
X164Y109D01*
X40Y109D01*
G37*
D02*
G36*
X40Y109D02*
X40Y107D01*
X164Y107D01*
X164Y109D01*
X40Y109D01*
G37*
D02*
G36*
X216Y109D02*
X216Y107D01*
X364Y107D01*
X364Y109D01*
X216Y109D01*
G37*
D02*
G36*
X216Y109D02*
X216Y107D01*
X364Y107D01*
X364Y109D01*
X216Y109D01*
G37*
D02*
G36*
X416Y109D02*
X416Y107D01*
X564Y107D01*
X564Y109D01*
X416Y109D01*
G37*
D02*
G36*
X416Y109D02*
X416Y107D01*
X564Y107D01*
X564Y109D01*
X416Y109D01*
G37*
D02*
G36*
X40Y107D02*
X40Y99D01*
X178Y99D01*
X178Y101D01*
X174Y101D01*
X174Y103D01*
X170Y103D01*
X170Y105D01*
X166Y105D01*
X166Y107D01*
X40Y107D01*
G37*
D02*
G36*
X214Y107D02*
X214Y105D01*
X210Y105D01*
X210Y103D01*
X206Y103D01*
X206Y101D01*
X202Y101D01*
X202Y99D01*
X378Y99D01*
X378Y101D01*
X374Y101D01*
X374Y103D01*
X370Y103D01*
X370Y105D01*
X366Y105D01*
X366Y107D01*
X214Y107D01*
G37*
D02*
G36*
X414Y107D02*
X414Y105D01*
X410Y105D01*
X410Y103D01*
X406Y103D01*
X406Y101D01*
X402Y101D01*
X402Y99D01*
X578Y99D01*
X578Y101D01*
X574Y101D01*
X574Y103D01*
X570Y103D01*
X570Y105D01*
X566Y105D01*
X566Y107D01*
X414Y107D01*
G37*
D02*
G36*
X40Y99D02*
X40Y97D01*
X668Y97D01*
X668Y99D01*
X40Y99D01*
G37*
D02*
G36*
X40Y99D02*
X40Y97D01*
X668Y97D01*
X668Y99D01*
X40Y99D01*
G37*
D02*
G36*
X40Y99D02*
X40Y97D01*
X668Y97D01*
X668Y99D01*
X40Y99D01*
G37*
D02*
G36*
X40Y99D02*
X40Y97D01*
X668Y97D01*
X668Y99D01*
X40Y99D01*
G37*
D02*
G36*
X40Y97D02*
X40Y41D01*
X668Y41D01*
X668Y97D01*
X40Y97D01*
G37*
D02*
G36*
X410Y2401D02*
X449Y2401D01*
X449Y2369D01*
X410Y2369D01*
X410Y2401D01*
G37*
D02*
G36*
X378Y2369D02*
X410Y2369D01*
X410Y2330D01*
X378Y2330D01*
X378Y2369D01*
G37*
D02*
G36*
X448Y2369D02*
X480Y2369D01*
X480Y2330D01*
X448Y2330D01*
X448Y2369D01*
G37*
D02*
G36*
X310Y1731D02*
X349Y1731D01*
X349Y1699D01*
X310Y1699D01*
X310Y1731D01*
G37*
D02*
G36*
X488Y1391D02*
X523Y1391D01*
X523Y1359D01*
X488Y1359D01*
X488Y1391D01*
G37*
D02*
G36*
X488Y1329D02*
X523Y1329D01*
X523Y1297D01*
X488Y1297D01*
X488Y1329D01*
G37*
D02*
G36*
X460Y1361D02*
X490Y1361D01*
X490Y1326D01*
X460Y1326D01*
X460Y1361D01*
G37*
D02*
G36*
X378Y967D02*
X410Y967D01*
X410Y928D01*
X378Y928D01*
X378Y967D01*
G37*
D02*
G36*
X448Y967D02*
X480Y967D01*
X480Y928D01*
X448Y928D01*
X448Y967D01*
G37*
D02*
G36*
X388Y1189D02*
X420Y1189D01*
X420Y1154D01*
X388Y1154D01*
X388Y1189D01*
G37*
D02*
G36*
X569Y129D02*
X606Y129D01*
X606Y99D01*
X569Y99D01*
X569Y129D01*
G37*
D02*
G36*
X606Y166D02*
X638Y166D01*
X638Y129D01*
X606Y129D01*
X606Y166D01*
G37*
D02*
G36*
X310Y399D02*
X349Y399D01*
X349Y367D01*
X310Y367D01*
X310Y399D01*
G37*
D02*
G54D15*
X225Y2387D02*
X237Y2387D01*
X424Y2387D02*
X437Y2387D01*
X221Y2386D02*
X241Y2386D01*
X420Y2386D02*
X440Y2386D01*
X218Y2385D02*
X243Y2385D01*
X418Y2385D02*
X443Y2385D01*
X216Y2384D02*
X246Y2384D01*
X415Y2384D02*
X446Y2384D01*
X214Y2383D02*
X248Y2383D01*
X414Y2383D02*
X447Y2383D01*
X212Y2382D02*
X249Y2382D01*
X412Y2382D02*
X449Y2382D01*
X210Y2381D02*
X251Y2381D01*
X410Y2381D02*
X451Y2381D01*
X209Y2380D02*
X252Y2380D01*
X409Y2380D02*
X452Y2380D01*
X208Y2379D02*
X254Y2379D01*
X407Y2379D02*
X454Y2379D01*
X206Y2378D02*
X255Y2378D01*
X406Y2378D02*
X455Y2378D01*
X205Y2377D02*
X256Y2377D01*
X405Y2377D02*
X456Y2377D01*
X204Y2376D02*
X257Y2376D01*
X404Y2376D02*
X457Y2376D01*
X203Y2375D02*
X258Y2375D01*
X403Y2375D02*
X458Y2375D01*
X202Y2374D02*
X259Y2374D01*
X402Y2374D02*
X459Y2374D01*
X201Y2373D02*
X260Y2373D01*
X401Y2373D02*
X460Y2373D01*
X201Y2372D02*
X261Y2372D01*
X400Y2372D02*
X461Y2372D01*
X200Y2371D02*
X262Y2371D01*
X400Y2371D02*
X461Y2371D01*
X199Y2370D02*
X262Y2370D01*
X399Y2370D02*
X462Y2370D01*
X198Y2369D02*
X263Y2369D01*
X398Y2369D02*
X463Y2369D01*
X198Y2368D02*
X264Y2368D01*
X398Y2368D02*
X463Y2368D01*
X197Y2367D02*
X224Y2367D01*
X237Y2367D02*
X264Y2367D01*
X397Y2367D02*
X424Y2367D01*
X437Y2367D02*
X464Y2367D01*
X197Y2366D02*
X221Y2366D01*
X240Y2366D02*
X265Y2366D01*
X396Y2366D02*
X421Y2366D01*
X440Y2366D02*
X465Y2366D01*
X196Y2365D02*
X219Y2365D01*
X242Y2365D02*
X265Y2365D01*
X396Y2365D02*
X419Y2365D01*
X442Y2365D02*
X465Y2365D01*
X196Y2364D02*
X218Y2364D01*
X244Y2364D02*
X266Y2364D01*
X395Y2364D02*
X417Y2364D01*
X443Y2364D02*
X466Y2364D01*
X195Y2363D02*
X216Y2363D01*
X245Y2363D02*
X266Y2363D01*
X395Y2363D02*
X416Y2363D01*
X445Y2363D02*
X466Y2363D01*
X195Y2362D02*
X215Y2362D01*
X246Y2362D02*
X267Y2362D01*
X394Y2362D02*
X415Y2362D01*
X446Y2362D02*
X467Y2362D01*
X194Y2361D02*
X215Y2361D01*
X247Y2361D02*
X267Y2361D01*
X394Y2361D02*
X414Y2361D01*
X447Y2361D02*
X467Y2361D01*
X194Y2360D02*
X214Y2360D01*
X247Y2360D02*
X267Y2360D01*
X394Y2360D02*
X414Y2360D01*
X447Y2360D02*
X467Y2360D01*
X194Y2359D02*
X213Y2359D01*
X248Y2359D02*
X268Y2359D01*
X393Y2359D02*
X413Y2359D01*
X448Y2359D02*
X468Y2359D01*
X193Y2358D02*
X213Y2358D01*
X249Y2358D02*
X268Y2358D01*
X393Y2358D02*
X413Y2358D01*
X448Y2358D02*
X468Y2358D01*
X193Y2357D02*
X212Y2357D01*
X249Y2357D02*
X268Y2357D01*
X393Y2357D02*
X412Y2357D01*
X449Y2357D02*
X468Y2357D01*
X193Y2356D02*
X212Y2356D01*
X249Y2356D02*
X269Y2356D01*
X393Y2356D02*
X412Y2356D01*
X449Y2356D02*
X468Y2356D01*
X192Y2355D02*
X212Y2355D01*
X250Y2355D02*
X269Y2355D01*
X392Y2355D02*
X411Y2355D01*
X450Y2355D02*
X469Y2355D01*
X192Y2354D02*
X211Y2354D01*
X250Y2354D02*
X269Y2354D01*
X392Y2354D02*
X411Y2354D01*
X450Y2354D02*
X469Y2354D01*
X192Y2353D02*
X211Y2353D01*
X250Y2353D02*
X269Y2353D01*
X392Y2353D02*
X411Y2353D01*
X450Y2353D02*
X469Y2353D01*
X192Y2352D02*
X211Y2352D01*
X250Y2352D02*
X269Y2352D01*
X392Y2352D02*
X411Y2352D01*
X450Y2352D02*
X469Y2352D01*
X192Y2351D02*
X211Y2351D01*
X250Y2351D02*
X269Y2351D01*
X392Y2351D02*
X411Y2351D01*
X450Y2351D02*
X469Y2351D01*
X192Y2350D02*
X211Y2350D01*
X251Y2350D02*
X270Y2350D01*
X392Y2350D02*
X411Y2350D01*
X450Y2350D02*
X469Y2350D01*
X192Y2349D02*
X211Y2349D01*
X251Y2349D02*
X270Y2349D01*
X392Y2349D02*
X411Y2349D01*
X450Y2349D02*
X469Y2349D01*
X192Y2348D02*
X211Y2348D01*
X251Y2348D02*
X270Y2348D01*
X392Y2348D02*
X411Y2348D01*
X450Y2348D02*
X469Y2348D01*
X192Y2347D02*
X211Y2347D01*
X251Y2347D02*
X270Y2347D01*
X392Y2347D02*
X411Y2347D01*
X450Y2347D02*
X469Y2347D01*
X192Y2346D02*
X211Y2346D01*
X251Y2346D02*
X270Y2346D01*
X392Y2346D02*
X411Y2346D01*
X450Y2346D02*
X469Y2346D01*
X192Y2345D02*
X211Y2345D01*
X250Y2345D02*
X269Y2345D01*
X392Y2345D02*
X411Y2345D01*
X450Y2345D02*
X469Y2345D01*
X192Y2344D02*
X211Y2344D01*
X250Y2344D02*
X269Y2344D01*
X392Y2344D02*
X411Y2344D01*
X450Y2344D02*
X469Y2344D01*
X192Y2343D02*
X211Y2343D01*
X250Y2343D02*
X269Y2343D01*
X392Y2343D02*
X411Y2343D01*
X450Y2343D02*
X469Y2343D01*
X192Y2342D02*
X211Y2342D01*
X250Y2342D02*
X269Y2342D01*
X392Y2342D02*
X411Y2342D01*
X450Y2342D02*
X469Y2342D01*
X193Y2341D02*
X212Y2341D01*
X250Y2341D02*
X269Y2341D01*
X392Y2341D02*
X412Y2341D01*
X449Y2341D02*
X469Y2341D01*
X193Y2340D02*
X212Y2340D01*
X249Y2340D02*
X269Y2340D01*
X393Y2340D02*
X412Y2340D01*
X449Y2340D02*
X468Y2340D01*
X193Y2339D02*
X213Y2339D01*
X249Y2339D02*
X268Y2339D01*
X393Y2339D02*
X412Y2339D01*
X449Y2339D02*
X468Y2339D01*
X193Y2338D02*
X213Y2338D01*
X248Y2338D02*
X268Y2338D01*
X393Y2338D02*
X413Y2338D01*
X448Y2338D02*
X468Y2338D01*
X194Y2337D02*
X214Y2337D01*
X248Y2337D02*
X268Y2337D01*
X393Y2337D02*
X413Y2337D01*
X448Y2337D02*
X467Y2337D01*
X194Y2336D02*
X214Y2336D01*
X247Y2336D02*
X267Y2336D01*
X394Y2336D02*
X414Y2336D01*
X447Y2336D02*
X467Y2336D01*
X194Y2335D02*
X215Y2335D01*
X246Y2335D02*
X267Y2335D01*
X394Y2335D02*
X415Y2335D01*
X446Y2335D02*
X467Y2335D01*
X195Y2334D02*
X216Y2334D01*
X245Y2334D02*
X267Y2334D01*
X395Y2334D02*
X416Y2334D01*
X445Y2334D02*
X466Y2334D01*
X195Y2333D02*
X217Y2333D01*
X244Y2333D02*
X266Y2333D01*
X395Y2333D02*
X417Y2333D01*
X444Y2333D02*
X466Y2333D01*
X196Y2332D02*
X218Y2332D01*
X243Y2332D02*
X266Y2332D01*
X396Y2332D02*
X418Y2332D01*
X443Y2332D02*
X465Y2332D01*
X196Y2331D02*
X220Y2331D01*
X241Y2331D02*
X265Y2331D01*
X396Y2331D02*
X420Y2331D01*
X441Y2331D02*
X465Y2331D01*
X197Y2330D02*
X222Y2330D01*
X239Y2330D02*
X265Y2330D01*
X397Y2330D02*
X422Y2330D01*
X439Y2330D02*
X464Y2330D01*
X197Y2329D02*
X227Y2329D01*
X235Y2329D02*
X264Y2329D01*
X397Y2329D02*
X427Y2329D01*
X434Y2329D02*
X464Y2329D01*
X198Y2328D02*
X263Y2328D01*
X398Y2328D02*
X463Y2328D01*
X199Y2327D02*
X263Y2327D01*
X399Y2327D02*
X462Y2327D01*
X199Y2326D02*
X262Y2326D01*
X399Y2326D02*
X462Y2326D01*
X200Y2325D02*
X261Y2325D01*
X400Y2325D02*
X461Y2325D01*
X201Y2324D02*
X260Y2324D01*
X401Y2324D02*
X460Y2324D01*
X202Y2323D02*
X260Y2323D01*
X402Y2323D02*
X459Y2323D01*
X203Y2322D02*
X259Y2322D01*
X403Y2322D02*
X458Y2322D01*
X204Y2321D02*
X258Y2321D01*
X404Y2321D02*
X457Y2321D01*
X205Y2320D02*
X257Y2320D01*
X405Y2320D02*
X456Y2320D01*
X206Y2319D02*
X256Y2319D01*
X406Y2319D02*
X455Y2319D01*
X207Y2318D02*
X254Y2318D01*
X407Y2318D02*
X454Y2318D01*
X208Y2317D02*
X253Y2317D01*
X408Y2317D02*
X453Y2317D01*
X210Y2316D02*
X252Y2316D01*
X409Y2316D02*
X452Y2316D01*
X211Y2315D02*
X250Y2315D01*
X411Y2315D02*
X450Y2315D01*
X213Y2314D02*
X249Y2314D01*
X413Y2314D02*
X448Y2314D01*
X215Y2313D02*
X247Y2313D01*
X414Y2313D02*
X447Y2313D01*
X217Y2312D02*
X245Y2312D01*
X416Y2312D02*
X445Y2312D01*
X219Y2311D02*
X242Y2311D01*
X419Y2311D02*
X442Y2311D01*
X222Y2310D02*
X239Y2310D01*
X422Y2310D02*
X439Y2310D01*
X228Y2309D02*
X234Y2309D01*
X427Y2309D02*
X434Y2309D01*
X224Y1787D02*
X238Y1787D01*
X324Y1787D02*
X338Y1787D01*
X423Y1787D02*
X438Y1787D01*
X220Y1786D02*
X241Y1786D01*
X320Y1786D02*
X341Y1786D01*
X420Y1786D02*
X441Y1786D01*
X217Y1785D02*
X244Y1785D01*
X317Y1785D02*
X344Y1785D01*
X417Y1785D02*
X444Y1785D01*
X215Y1784D02*
X246Y1784D01*
X315Y1784D02*
X346Y1784D01*
X415Y1784D02*
X446Y1784D01*
X213Y1783D02*
X248Y1783D01*
X313Y1783D02*
X348Y1783D01*
X413Y1783D02*
X448Y1783D01*
X212Y1782D02*
X250Y1782D01*
X312Y1782D02*
X350Y1782D01*
X411Y1782D02*
X450Y1782D01*
X210Y1781D02*
X251Y1781D01*
X310Y1781D02*
X351Y1781D01*
X410Y1781D02*
X451Y1781D01*
X209Y1780D02*
X253Y1780D01*
X309Y1780D02*
X353Y1780D01*
X409Y1780D02*
X452Y1780D01*
X207Y1779D02*
X254Y1779D01*
X307Y1779D02*
X354Y1779D01*
X407Y1779D02*
X454Y1779D01*
X206Y1778D02*
X255Y1778D01*
X306Y1778D02*
X355Y1778D01*
X406Y1778D02*
X455Y1778D01*
X205Y1777D02*
X256Y1777D01*
X305Y1777D02*
X356Y1777D01*
X405Y1777D02*
X456Y1777D01*
X204Y1776D02*
X257Y1776D01*
X304Y1776D02*
X357Y1776D01*
X404Y1776D02*
X457Y1776D01*
X203Y1775D02*
X258Y1775D01*
X303Y1775D02*
X358Y1775D01*
X403Y1775D02*
X458Y1775D01*
X202Y1774D02*
X259Y1774D01*
X302Y1774D02*
X359Y1774D01*
X402Y1774D02*
X459Y1774D01*
X201Y1773D02*
X260Y1773D01*
X301Y1773D02*
X360Y1773D01*
X401Y1773D02*
X460Y1773D01*
X200Y1772D02*
X261Y1772D01*
X300Y1772D02*
X361Y1772D01*
X400Y1772D02*
X461Y1772D01*
X200Y1771D02*
X262Y1771D01*
X300Y1771D02*
X362Y1771D01*
X399Y1771D02*
X461Y1771D01*
X199Y1770D02*
X262Y1770D01*
X299Y1770D02*
X362Y1770D01*
X399Y1770D02*
X462Y1770D01*
X198Y1769D02*
X263Y1769D01*
X298Y1769D02*
X363Y1769D01*
X398Y1769D02*
X463Y1769D01*
X198Y1768D02*
X264Y1768D01*
X298Y1768D02*
X364Y1768D01*
X397Y1768D02*
X464Y1768D01*
X197Y1767D02*
X223Y1767D01*
X238Y1767D02*
X264Y1767D01*
X297Y1767D02*
X323Y1767D01*
X338Y1767D02*
X364Y1767D01*
X397Y1767D02*
X423Y1767D01*
X438Y1767D02*
X464Y1767D01*
X196Y1766D02*
X221Y1766D01*
X241Y1766D02*
X265Y1766D01*
X296Y1766D02*
X321Y1766D01*
X341Y1766D02*
X365Y1766D01*
X396Y1766D02*
X421Y1766D01*
X440Y1766D02*
X465Y1766D01*
X196Y1765D02*
X219Y1765D01*
X243Y1765D02*
X265Y1765D01*
X296Y1765D02*
X319Y1765D01*
X342Y1765D02*
X365Y1765D01*
X396Y1765D02*
X419Y1765D01*
X442Y1765D02*
X465Y1765D01*
X195Y1764D02*
X217Y1764D01*
X244Y1764D02*
X266Y1764D01*
X295Y1764D02*
X317Y1764D01*
X344Y1764D02*
X366Y1764D01*
X395Y1764D02*
X417Y1764D01*
X444Y1764D02*
X466Y1764D01*
X195Y1763D02*
X216Y1763D01*
X245Y1763D02*
X266Y1763D01*
X295Y1763D02*
X316Y1763D01*
X345Y1763D02*
X366Y1763D01*
X395Y1763D02*
X416Y1763D01*
X445Y1763D02*
X466Y1763D01*
X195Y1762D02*
X215Y1762D01*
X246Y1762D02*
X267Y1762D01*
X294Y1762D02*
X315Y1762D01*
X346Y1762D02*
X367Y1762D01*
X394Y1762D02*
X415Y1762D01*
X446Y1762D02*
X467Y1762D01*
X194Y1761D02*
X214Y1761D01*
X247Y1761D02*
X267Y1761D01*
X294Y1761D02*
X314Y1761D01*
X347Y1761D02*
X367Y1761D01*
X394Y1761D02*
X414Y1761D01*
X447Y1761D02*
X467Y1761D01*
X194Y1760D02*
X214Y1760D01*
X248Y1760D02*
X268Y1760D01*
X294Y1760D02*
X314Y1760D01*
X347Y1760D02*
X367Y1760D01*
X394Y1760D02*
X414Y1760D01*
X447Y1760D02*
X467Y1760D01*
X193Y1759D02*
X213Y1759D01*
X248Y1759D02*
X268Y1759D01*
X293Y1759D02*
X313Y1759D01*
X348Y1759D02*
X368Y1759D01*
X393Y1759D02*
X413Y1759D01*
X448Y1759D02*
X468Y1759D01*
X193Y1758D02*
X213Y1758D01*
X249Y1758D02*
X268Y1758D01*
X293Y1758D02*
X313Y1758D01*
X349Y1758D02*
X368Y1758D01*
X393Y1758D02*
X412Y1758D01*
X448Y1758D02*
X468Y1758D01*
X193Y1757D02*
X212Y1757D01*
X249Y1757D02*
X268Y1757D01*
X293Y1757D02*
X312Y1757D01*
X349Y1757D02*
X368Y1757D01*
X393Y1757D02*
X412Y1757D01*
X449Y1757D02*
X468Y1757D01*
X193Y1756D02*
X212Y1756D01*
X249Y1756D02*
X269Y1756D01*
X293Y1756D02*
X312Y1756D01*
X349Y1756D02*
X369Y1756D01*
X392Y1756D02*
X412Y1756D01*
X449Y1756D02*
X469Y1756D01*
X192Y1755D02*
X212Y1755D01*
X250Y1755D02*
X269Y1755D01*
X292Y1755D02*
X311Y1755D01*
X350Y1755D02*
X369Y1755D01*
X392Y1755D02*
X411Y1755D01*
X450Y1755D02*
X469Y1755D01*
X192Y1754D02*
X211Y1754D01*
X250Y1754D02*
X269Y1754D01*
X292Y1754D02*
X311Y1754D01*
X350Y1754D02*
X369Y1754D01*
X392Y1754D02*
X411Y1754D01*
X450Y1754D02*
X469Y1754D01*
X192Y1753D02*
X211Y1753D01*
X250Y1753D02*
X269Y1753D01*
X292Y1753D02*
X311Y1753D01*
X350Y1753D02*
X369Y1753D01*
X392Y1753D02*
X411Y1753D01*
X450Y1753D02*
X469Y1753D01*
X192Y1752D02*
X211Y1752D01*
X250Y1752D02*
X269Y1752D01*
X292Y1752D02*
X311Y1752D01*
X350Y1752D02*
X369Y1752D01*
X392Y1752D02*
X411Y1752D01*
X450Y1752D02*
X469Y1752D01*
X192Y1751D02*
X211Y1751D01*
X250Y1751D02*
X269Y1751D01*
X292Y1751D02*
X311Y1751D01*
X350Y1751D02*
X369Y1751D01*
X392Y1751D02*
X411Y1751D01*
X450Y1751D02*
X469Y1751D01*
X192Y1750D02*
X211Y1750D01*
X251Y1750D02*
X270Y1750D01*
X292Y1750D02*
X311Y1750D01*
X350Y1750D02*
X369Y1750D01*
X392Y1750D02*
X411Y1750D01*
X450Y1750D02*
X469Y1750D01*
X192Y1749D02*
X211Y1749D01*
X251Y1749D02*
X270Y1749D01*
X292Y1749D02*
X311Y1749D01*
X350Y1749D02*
X369Y1749D01*
X392Y1749D02*
X411Y1749D01*
X450Y1749D02*
X469Y1749D01*
X192Y1748D02*
X211Y1748D01*
X251Y1748D02*
X270Y1748D01*
X292Y1748D02*
X311Y1748D01*
X351Y1748D02*
X369Y1748D01*
X392Y1748D02*
X411Y1748D01*
X450Y1748D02*
X469Y1748D01*
X192Y1747D02*
X211Y1747D01*
X251Y1747D02*
X270Y1747D01*
X292Y1747D02*
X311Y1747D01*
X350Y1747D02*
X369Y1747D01*
X392Y1747D02*
X411Y1747D01*
X450Y1747D02*
X469Y1747D01*
X192Y1746D02*
X211Y1746D01*
X250Y1746D02*
X269Y1746D01*
X292Y1746D02*
X311Y1746D01*
X350Y1746D02*
X369Y1746D01*
X392Y1746D02*
X411Y1746D01*
X450Y1746D02*
X469Y1746D01*
X192Y1745D02*
X211Y1745D01*
X250Y1745D02*
X269Y1745D01*
X292Y1745D02*
X311Y1745D01*
X350Y1745D02*
X369Y1745D01*
X392Y1745D02*
X411Y1745D01*
X450Y1745D02*
X469Y1745D01*
X192Y1744D02*
X211Y1744D01*
X250Y1744D02*
X269Y1744D01*
X292Y1744D02*
X311Y1744D01*
X350Y1744D02*
X369Y1744D01*
X392Y1744D02*
X411Y1744D01*
X450Y1744D02*
X469Y1744D01*
X192Y1743D02*
X211Y1743D01*
X250Y1743D02*
X269Y1743D01*
X292Y1743D02*
X311Y1743D01*
X350Y1743D02*
X369Y1743D01*
X392Y1743D02*
X411Y1743D01*
X450Y1743D02*
X469Y1743D01*
X192Y1742D02*
X212Y1742D01*
X250Y1742D02*
X269Y1742D01*
X292Y1742D02*
X311Y1742D01*
X350Y1742D02*
X369Y1742D01*
X392Y1742D02*
X411Y1742D01*
X450Y1742D02*
X469Y1742D01*
X193Y1741D02*
X212Y1741D01*
X250Y1741D02*
X269Y1741D01*
X293Y1741D02*
X312Y1741D01*
X349Y1741D02*
X369Y1741D01*
X392Y1741D02*
X412Y1741D01*
X449Y1741D02*
X469Y1741D01*
X193Y1740D02*
X212Y1740D01*
X249Y1740D02*
X269Y1740D01*
X293Y1740D02*
X312Y1740D01*
X349Y1740D02*
X368Y1740D01*
X393Y1740D02*
X412Y1740D01*
X449Y1740D02*
X468Y1740D01*
X193Y1739D02*
X213Y1739D01*
X249Y1739D02*
X268Y1739D01*
X293Y1739D02*
X313Y1739D01*
X349Y1739D02*
X368Y1739D01*
X393Y1739D02*
X412Y1739D01*
X449Y1739D02*
X468Y1739D01*
X193Y1738D02*
X213Y1738D01*
X248Y1738D02*
X268Y1738D01*
X293Y1738D02*
X313Y1738D01*
X348Y1738D02*
X368Y1738D01*
X393Y1738D02*
X413Y1738D01*
X448Y1738D02*
X468Y1738D01*
X194Y1737D02*
X214Y1737D01*
X248Y1737D02*
X268Y1737D01*
X294Y1737D02*
X314Y1737D01*
X348Y1737D02*
X368Y1737D01*
X394Y1737D02*
X414Y1737D01*
X447Y1737D02*
X467Y1737D01*
X194Y1736D02*
X214Y1736D01*
X247Y1736D02*
X267Y1736D01*
X294Y1736D02*
X314Y1736D01*
X347Y1736D02*
X367Y1736D01*
X394Y1736D02*
X414Y1736D01*
X447Y1736D02*
X467Y1736D01*
X194Y1735D02*
X215Y1735D01*
X246Y1735D02*
X267Y1735D01*
X294Y1735D02*
X315Y1735D01*
X346Y1735D02*
X367Y1735D01*
X394Y1735D02*
X415Y1735D01*
X446Y1735D02*
X467Y1735D01*
X195Y1734D02*
X216Y1734D01*
X245Y1734D02*
X266Y1734D01*
X295Y1734D02*
X316Y1734D01*
X345Y1734D02*
X366Y1734D01*
X395Y1734D02*
X416Y1734D01*
X445Y1734D02*
X466Y1734D01*
X195Y1733D02*
X217Y1733D01*
X244Y1733D02*
X266Y1733D01*
X295Y1733D02*
X317Y1733D01*
X344Y1733D02*
X366Y1733D01*
X395Y1733D02*
X417Y1733D01*
X444Y1733D02*
X466Y1733D01*
X196Y1732D02*
X219Y1732D01*
X243Y1732D02*
X265Y1732D01*
X296Y1732D02*
X319Y1732D01*
X343Y1732D02*
X365Y1732D01*
X396Y1732D02*
X418Y1732D01*
X443Y1732D02*
X465Y1732D01*
X196Y1731D02*
X220Y1731D01*
X241Y1731D02*
X265Y1731D01*
X296Y1731D02*
X320Y1731D01*
X341Y1731D02*
X365Y1731D01*
X396Y1731D02*
X420Y1731D01*
X441Y1731D02*
X465Y1731D01*
X197Y1730D02*
X223Y1730D01*
X238Y1730D02*
X264Y1730D01*
X297Y1730D02*
X323Y1730D01*
X338Y1730D02*
X364Y1730D01*
X397Y1730D02*
X423Y1730D01*
X438Y1730D02*
X464Y1730D01*
X198Y1729D02*
X230Y1729D01*
X232Y1729D02*
X264Y1729D01*
X297Y1729D02*
X330Y1729D01*
X332Y1729D02*
X364Y1729D01*
X397Y1729D02*
X429Y1729D01*
X432Y1729D02*
X464Y1729D01*
X198Y1728D02*
X263Y1728D01*
X298Y1728D02*
X363Y1728D01*
X398Y1728D02*
X463Y1728D01*
X199Y1727D02*
X262Y1727D01*
X299Y1727D02*
X362Y1727D01*
X399Y1727D02*
X462Y1727D01*
X200Y1726D02*
X262Y1726D01*
X299Y1726D02*
X362Y1726D01*
X399Y1726D02*
X462Y1726D01*
X200Y1725D02*
X261Y1725D01*
X300Y1725D02*
X361Y1725D01*
X400Y1725D02*
X461Y1725D01*
X201Y1724D02*
X260Y1724D01*
X301Y1724D02*
X360Y1724D01*
X401Y1724D02*
X460Y1724D01*
X202Y1723D02*
X259Y1723D01*
X302Y1723D02*
X359Y1723D01*
X402Y1723D02*
X459Y1723D01*
X203Y1722D02*
X258Y1722D01*
X303Y1722D02*
X358Y1722D01*
X403Y1722D02*
X458Y1722D01*
X204Y1721D02*
X257Y1721D01*
X304Y1721D02*
X357Y1721D01*
X404Y1721D02*
X457Y1721D01*
X205Y1720D02*
X256Y1720D01*
X305Y1720D02*
X356Y1720D01*
X405Y1720D02*
X456Y1720D01*
X206Y1719D02*
X255Y1719D01*
X306Y1719D02*
X355Y1719D01*
X406Y1719D02*
X455Y1719D01*
X207Y1718D02*
X254Y1718D01*
X307Y1718D02*
X354Y1718D01*
X407Y1718D02*
X454Y1718D01*
X209Y1717D02*
X253Y1717D01*
X308Y1717D02*
X353Y1717D01*
X408Y1717D02*
X453Y1717D01*
X210Y1716D02*
X251Y1716D01*
X310Y1716D02*
X351Y1716D01*
X410Y1716D02*
X451Y1716D01*
X211Y1715D02*
X250Y1715D01*
X311Y1715D02*
X350Y1715D01*
X411Y1715D02*
X450Y1715D01*
X213Y1714D02*
X248Y1714D01*
X313Y1714D02*
X348Y1714D01*
X413Y1714D02*
X448Y1714D01*
X215Y1713D02*
X246Y1713D01*
X315Y1713D02*
X346Y1713D01*
X415Y1713D02*
X446Y1713D01*
X217Y1712D02*
X244Y1712D01*
X317Y1712D02*
X344Y1712D01*
X417Y1712D02*
X444Y1712D01*
X220Y1711D02*
X242Y1711D01*
X320Y1711D02*
X342Y1711D01*
X420Y1711D02*
X441Y1711D01*
X223Y1710D02*
X238Y1710D01*
X323Y1710D02*
X338Y1710D01*
X423Y1710D02*
X438Y1710D01*
X235Y1438D02*
X307Y1438D01*
X235Y1437D02*
X307Y1437D01*
X235Y1436D02*
X307Y1436D01*
X235Y1435D02*
X307Y1435D01*
X235Y1434D02*
X307Y1434D01*
X235Y1433D02*
X307Y1433D01*
X235Y1432D02*
X307Y1432D01*
X235Y1431D02*
X307Y1431D01*
X235Y1430D02*
X307Y1430D01*
X235Y1429D02*
X307Y1429D01*
X235Y1428D02*
X307Y1428D01*
X235Y1427D02*
X307Y1427D01*
X235Y1426D02*
X307Y1426D01*
X235Y1425D02*
X307Y1425D01*
X235Y1424D02*
X307Y1424D01*
X235Y1423D02*
X307Y1423D01*
X235Y1422D02*
X307Y1422D01*
X235Y1421D02*
X267Y1421D01*
X275Y1421D02*
X307Y1421D01*
X235Y1420D02*
X263Y1420D01*
X278Y1420D02*
X307Y1420D01*
X235Y1419D02*
X261Y1419D01*
X281Y1419D02*
X307Y1419D01*
X235Y1418D02*
X260Y1418D01*
X282Y1418D02*
X307Y1418D01*
X235Y1417D02*
X258Y1417D01*
X284Y1417D02*
X307Y1417D01*
X235Y1416D02*
X257Y1416D01*
X285Y1416D02*
X307Y1416D01*
X235Y1415D02*
X256Y1415D01*
X286Y1415D02*
X307Y1415D01*
X235Y1414D02*
X255Y1414D01*
X287Y1414D02*
X307Y1414D01*
X235Y1413D02*
X254Y1413D01*
X288Y1413D02*
X307Y1413D01*
X235Y1412D02*
X254Y1412D01*
X288Y1412D02*
X307Y1412D01*
X235Y1411D02*
X253Y1411D01*
X289Y1411D02*
X307Y1411D01*
X235Y1410D02*
X252Y1410D01*
X289Y1410D02*
X307Y1410D01*
X235Y1409D02*
X252Y1409D01*
X290Y1409D02*
X307Y1409D01*
X235Y1408D02*
X252Y1408D01*
X290Y1408D02*
X307Y1408D01*
X235Y1407D02*
X251Y1407D01*
X291Y1407D02*
X307Y1407D01*
X235Y1406D02*
X251Y1406D01*
X291Y1406D02*
X307Y1406D01*
X235Y1405D02*
X251Y1405D01*
X291Y1405D02*
X307Y1405D01*
X235Y1404D02*
X251Y1404D01*
X291Y1404D02*
X307Y1404D01*
X235Y1403D02*
X251Y1403D01*
X291Y1403D02*
X307Y1403D01*
X235Y1402D02*
X251Y1402D01*
X291Y1402D02*
X307Y1402D01*
X235Y1401D02*
X251Y1401D01*
X291Y1401D02*
X307Y1401D01*
X235Y1400D02*
X251Y1400D01*
X291Y1400D02*
X307Y1400D01*
X235Y1399D02*
X251Y1399D01*
X291Y1399D02*
X307Y1399D01*
X235Y1398D02*
X251Y1398D01*
X291Y1398D02*
X307Y1398D01*
X235Y1397D02*
X251Y1397D01*
X291Y1397D02*
X307Y1397D01*
X235Y1396D02*
X251Y1396D01*
X291Y1396D02*
X307Y1396D01*
X235Y1395D02*
X251Y1395D01*
X290Y1395D02*
X307Y1395D01*
X235Y1394D02*
X252Y1394D01*
X290Y1394D02*
X307Y1394D01*
X235Y1393D02*
X252Y1393D01*
X290Y1393D02*
X307Y1393D01*
X235Y1392D02*
X253Y1392D01*
X289Y1392D02*
X307Y1392D01*
X235Y1391D02*
X253Y1391D01*
X289Y1391D02*
X307Y1391D01*
X235Y1390D02*
X254Y1390D01*
X288Y1390D02*
X307Y1390D01*
X235Y1389D02*
X255Y1389D01*
X287Y1389D02*
X307Y1389D01*
X235Y1388D02*
X256Y1388D01*
X286Y1388D02*
X307Y1388D01*
X235Y1387D02*
X256Y1387D01*
X285Y1387D02*
X307Y1387D01*
X235Y1386D02*
X258Y1386D01*
X284Y1386D02*
X307Y1386D01*
X235Y1385D02*
X259Y1385D01*
X283Y1385D02*
X307Y1385D01*
X235Y1384D02*
X260Y1384D01*
X282Y1384D02*
X307Y1384D01*
X235Y1383D02*
X262Y1383D01*
X280Y1383D02*
X307Y1383D01*
X235Y1382D02*
X265Y1382D01*
X277Y1382D02*
X307Y1382D01*
X235Y1381D02*
X307Y1381D01*
X235Y1380D02*
X307Y1380D01*
X235Y1379D02*
X307Y1379D01*
X235Y1378D02*
X307Y1378D01*
X235Y1377D02*
X307Y1377D01*
X235Y1376D02*
X307Y1376D01*
X235Y1375D02*
X307Y1375D01*
X235Y1374D02*
X307Y1374D01*
X235Y1373D02*
X307Y1373D01*
X235Y1372D02*
X307Y1372D01*
X235Y1371D02*
X307Y1371D01*
X235Y1370D02*
X307Y1370D01*
X235Y1369D02*
X307Y1369D01*
X235Y1368D02*
X307Y1368D01*
X235Y1367D02*
X307Y1367D01*
X235Y1366D02*
X307Y1366D01*
X235Y1365D02*
X307Y1365D01*
X226Y985D02*
X235Y985D01*
X426Y985D02*
X435Y985D01*
X221Y984D02*
X240Y984D01*
X421Y984D02*
X440Y984D01*
X219Y983D02*
X243Y983D01*
X418Y983D02*
X443Y983D01*
X216Y982D02*
X245Y982D01*
X416Y982D02*
X445Y982D01*
X214Y981D02*
X247Y981D01*
X414Y981D02*
X447Y981D01*
X212Y980D02*
X249Y980D01*
X412Y980D02*
X449Y980D01*
X211Y979D02*
X251Y979D01*
X411Y979D02*
X450Y979D01*
X209Y978D02*
X252Y978D01*
X409Y978D02*
X452Y978D01*
X208Y977D02*
X253Y977D01*
X408Y977D02*
X453Y977D01*
X207Y976D02*
X255Y976D01*
X407Y976D02*
X454Y976D01*
X206Y975D02*
X256Y975D01*
X405Y975D02*
X456Y975D01*
X205Y974D02*
X257Y974D01*
X404Y974D02*
X457Y974D01*
X204Y973D02*
X258Y973D01*
X403Y973D02*
X458Y973D01*
X203Y972D02*
X259Y972D01*
X402Y972D02*
X459Y972D01*
X202Y971D02*
X260Y971D01*
X401Y971D02*
X460Y971D01*
X201Y970D02*
X261Y970D01*
X401Y970D02*
X460Y970D01*
X200Y969D02*
X261Y969D01*
X400Y969D02*
X461Y969D01*
X199Y968D02*
X262Y968D01*
X399Y968D02*
X462Y968D01*
X199Y967D02*
X263Y967D01*
X398Y967D02*
X463Y967D01*
X198Y966D02*
X263Y966D01*
X398Y966D02*
X463Y966D01*
X197Y965D02*
X225Y965D01*
X236Y965D02*
X264Y965D01*
X397Y965D02*
X425Y965D01*
X436Y965D02*
X464Y965D01*
X197Y964D02*
X222Y964D01*
X240Y964D02*
X265Y964D01*
X397Y964D02*
X422Y964D01*
X439Y964D02*
X464Y964D01*
X196Y963D02*
X220Y963D01*
X242Y963D02*
X265Y963D01*
X396Y963D02*
X419Y963D01*
X442Y963D02*
X465Y963D01*
X196Y962D02*
X218Y962D01*
X243Y962D02*
X266Y962D01*
X395Y962D02*
X418Y962D01*
X443Y962D02*
X466Y962D01*
X195Y961D02*
X217Y961D01*
X245Y961D02*
X266Y961D01*
X395Y961D02*
X417Y961D01*
X444Y961D02*
X466Y961D01*
X195Y960D02*
X216Y960D01*
X246Y960D02*
X267Y960D01*
X395Y960D02*
X416Y960D01*
X445Y960D02*
X466Y960D01*
X194Y959D02*
X215Y959D01*
X247Y959D02*
X267Y959D01*
X394Y959D02*
X415Y959D01*
X446Y959D02*
X467Y959D01*
X194Y958D02*
X214Y958D01*
X247Y958D02*
X267Y958D01*
X394Y958D02*
X414Y958D01*
X447Y958D02*
X467Y958D01*
X194Y957D02*
X213Y957D01*
X248Y957D02*
X268Y957D01*
X393Y957D02*
X413Y957D01*
X448Y957D02*
X468Y957D01*
X193Y956D02*
X213Y956D01*
X248Y956D02*
X268Y956D01*
X393Y956D02*
X413Y956D01*
X448Y956D02*
X468Y956D01*
X193Y955D02*
X212Y955D01*
X249Y955D02*
X268Y955D01*
X393Y955D02*
X412Y955D01*
X449Y955D02*
X468Y955D01*
X193Y954D02*
X212Y954D01*
X249Y954D02*
X269Y954D01*
X393Y954D02*
X412Y954D01*
X449Y954D02*
X468Y954D01*
X193Y953D02*
X212Y953D01*
X250Y953D02*
X269Y953D01*
X392Y953D02*
X412Y953D01*
X449Y953D02*
X469Y953D01*
X192Y952D02*
X211Y952D01*
X250Y952D02*
X269Y952D01*
X392Y952D02*
X411Y952D01*
X450Y952D02*
X469Y952D01*
X192Y951D02*
X211Y951D01*
X250Y951D02*
X269Y951D01*
X392Y951D02*
X411Y951D01*
X450Y951D02*
X469Y951D01*
X192Y950D02*
X211Y950D01*
X250Y950D02*
X269Y950D01*
X392Y950D02*
X411Y950D01*
X450Y950D02*
X469Y950D01*
X192Y949D02*
X211Y949D01*
X250Y949D02*
X269Y949D01*
X392Y949D02*
X411Y949D01*
X450Y949D02*
X469Y949D01*
X192Y948D02*
X211Y948D01*
X251Y948D02*
X270Y948D01*
X392Y948D02*
X411Y948D01*
X450Y948D02*
X469Y948D01*
X192Y947D02*
X211Y947D01*
X251Y947D02*
X270Y947D01*
X392Y947D02*
X411Y947D01*
X450Y947D02*
X469Y947D01*
X192Y946D02*
X211Y946D01*
X251Y946D02*
X270Y946D01*
X392Y946D02*
X411Y946D01*
X450Y946D02*
X469Y946D01*
X192Y945D02*
X211Y945D01*
X251Y945D02*
X270Y945D01*
X392Y945D02*
X411Y945D01*
X450Y945D02*
X469Y945D01*
X192Y944D02*
X211Y944D01*
X251Y944D02*
X270Y944D01*
X392Y944D02*
X411Y944D01*
X450Y944D02*
X469Y944D01*
X192Y943D02*
X211Y943D01*
X250Y943D02*
X269Y943D01*
X392Y943D02*
X411Y943D01*
X450Y943D02*
X469Y943D01*
X192Y942D02*
X211Y942D01*
X250Y942D02*
X269Y942D01*
X392Y942D02*
X411Y942D01*
X450Y942D02*
X469Y942D01*
X192Y941D02*
X211Y941D01*
X250Y941D02*
X269Y941D01*
X392Y941D02*
X411Y941D01*
X450Y941D02*
X469Y941D01*
X192Y940D02*
X211Y940D01*
X250Y940D02*
X269Y940D01*
X392Y940D02*
X411Y940D01*
X450Y940D02*
X469Y940D01*
X193Y939D02*
X212Y939D01*
X250Y939D02*
X269Y939D01*
X392Y939D02*
X412Y939D01*
X449Y939D02*
X469Y939D01*
X193Y938D02*
X212Y938D01*
X249Y938D02*
X269Y938D01*
X393Y938D02*
X412Y938D01*
X449Y938D02*
X468Y938D01*
X193Y937D02*
X212Y937D01*
X249Y937D02*
X268Y937D01*
X393Y937D02*
X412Y937D01*
X449Y937D02*
X468Y937D01*
X193Y936D02*
X213Y936D01*
X248Y936D02*
X268Y936D01*
X393Y936D02*
X413Y936D01*
X448Y936D02*
X468Y936D01*
X194Y935D02*
X213Y935D01*
X248Y935D02*
X268Y935D01*
X393Y935D02*
X413Y935D01*
X448Y935D02*
X468Y935D01*
X194Y934D02*
X214Y934D01*
X247Y934D02*
X267Y934D01*
X394Y934D02*
X414Y934D01*
X447Y934D02*
X467Y934D01*
X194Y933D02*
X215Y933D01*
X247Y933D02*
X267Y933D01*
X394Y933D02*
X415Y933D01*
X446Y933D02*
X467Y933D01*
X195Y932D02*
X216Y932D01*
X246Y932D02*
X267Y932D01*
X395Y932D02*
X415Y932D01*
X446Y932D02*
X466Y932D01*
X195Y931D02*
X217Y931D01*
X245Y931D02*
X266Y931D01*
X395Y931D02*
X417Y931D01*
X444Y931D02*
X466Y931D01*
X196Y930D02*
X218Y930D01*
X243Y930D02*
X266Y930D01*
X395Y930D02*
X418Y930D01*
X443Y930D02*
X466Y930D01*
X196Y929D02*
X220Y929D01*
X242Y929D02*
X265Y929D01*
X396Y929D02*
X419Y929D01*
X442Y929D02*
X465Y929D01*
X197Y928D02*
X222Y928D01*
X240Y928D02*
X265Y928D01*
X396Y928D02*
X422Y928D01*
X439Y928D02*
X464Y928D01*
X197Y927D02*
X225Y927D01*
X236Y927D02*
X264Y927D01*
X397Y927D02*
X425Y927D01*
X436Y927D02*
X464Y927D01*
X198Y926D02*
X263Y926D01*
X398Y926D02*
X463Y926D01*
X199Y925D02*
X263Y925D01*
X398Y925D02*
X463Y925D01*
X199Y924D02*
X262Y924D01*
X399Y924D02*
X462Y924D01*
X200Y923D02*
X261Y923D01*
X400Y923D02*
X461Y923D01*
X201Y922D02*
X261Y922D01*
X401Y922D02*
X460Y922D01*
X202Y921D02*
X260Y921D01*
X401Y921D02*
X460Y921D01*
X202Y920D02*
X259Y920D01*
X402Y920D02*
X459Y920D01*
X203Y919D02*
X258Y919D01*
X403Y919D02*
X458Y919D01*
X204Y918D02*
X257Y918D01*
X404Y918D02*
X457Y918D01*
X206Y917D02*
X256Y917D01*
X405Y917D02*
X456Y917D01*
X207Y916D02*
X255Y916D01*
X406Y916D02*
X454Y916D01*
X208Y915D02*
X253Y915D01*
X408Y915D02*
X453Y915D01*
X209Y914D02*
X252Y914D01*
X409Y914D02*
X452Y914D01*
X211Y913D02*
X251Y913D01*
X411Y913D02*
X450Y913D01*
X212Y912D02*
X249Y912D01*
X412Y912D02*
X449Y912D01*
X214Y911D02*
X247Y911D01*
X414Y911D02*
X447Y911D01*
X216Y910D02*
X245Y910D01*
X416Y910D02*
X445Y910D01*
X218Y909D02*
X243Y909D01*
X418Y909D02*
X443Y909D01*
X221Y908D02*
X240Y908D01*
X421Y908D02*
X440Y908D01*
X226Y907D02*
X236Y907D01*
X425Y907D02*
X436Y907D01*
X225Y385D02*
X237Y385D01*
X325Y385D02*
X336Y385D01*
X425Y385D02*
X436Y385D01*
X221Y384D02*
X241Y384D01*
X321Y384D02*
X340Y384D01*
X421Y384D02*
X440Y384D01*
X218Y383D02*
X243Y383D01*
X318Y383D02*
X343Y383D01*
X418Y383D02*
X443Y383D01*
X216Y382D02*
X246Y382D01*
X316Y382D02*
X346Y382D01*
X416Y382D02*
X445Y382D01*
X214Y381D02*
X248Y381D01*
X314Y381D02*
X348Y381D01*
X414Y381D02*
X447Y381D01*
X212Y380D02*
X249Y380D01*
X312Y380D02*
X349Y380D01*
X412Y380D02*
X449Y380D01*
X210Y379D02*
X251Y379D01*
X310Y379D02*
X351Y379D01*
X410Y379D02*
X451Y379D01*
X209Y378D02*
X252Y378D01*
X309Y378D02*
X352Y378D01*
X409Y378D02*
X452Y378D01*
X208Y377D02*
X254Y377D01*
X308Y377D02*
X354Y377D01*
X408Y377D02*
X453Y377D01*
X206Y376D02*
X255Y376D01*
X306Y376D02*
X355Y376D01*
X406Y376D02*
X455Y376D01*
X205Y375D02*
X256Y375D01*
X305Y375D02*
X356Y375D01*
X405Y375D02*
X456Y375D01*
X204Y374D02*
X257Y374D01*
X304Y374D02*
X357Y374D01*
X404Y374D02*
X457Y374D01*
X203Y373D02*
X258Y373D01*
X303Y373D02*
X358Y373D01*
X403Y373D02*
X458Y373D01*
X202Y372D02*
X259Y372D01*
X302Y372D02*
X359Y372D01*
X402Y372D02*
X459Y372D01*
X201Y371D02*
X260Y371D01*
X301Y371D02*
X360Y371D01*
X401Y371D02*
X460Y371D01*
X201Y370D02*
X261Y370D01*
X301Y370D02*
X361Y370D01*
X400Y370D02*
X461Y370D01*
X200Y369D02*
X261Y369D01*
X300Y369D02*
X361Y369D01*
X400Y369D02*
X461Y369D01*
X199Y368D02*
X262Y368D01*
X299Y368D02*
X362Y368D01*
X399Y368D02*
X462Y368D01*
X198Y367D02*
X263Y367D01*
X298Y367D02*
X363Y367D01*
X398Y367D02*
X463Y367D01*
X198Y366D02*
X264Y366D01*
X298Y366D02*
X363Y366D01*
X398Y366D02*
X463Y366D01*
X197Y365D02*
X224Y365D01*
X237Y365D02*
X264Y365D01*
X297Y365D02*
X324Y365D01*
X337Y365D02*
X364Y365D01*
X397Y365D02*
X424Y365D01*
X437Y365D02*
X464Y365D01*
X197Y364D02*
X221Y364D01*
X240Y364D02*
X265Y364D01*
X297Y364D02*
X321Y364D01*
X340Y364D02*
X365Y364D01*
X396Y364D02*
X421Y364D01*
X440Y364D02*
X465Y364D01*
X196Y363D02*
X219Y363D01*
X242Y363D02*
X265Y363D01*
X296Y363D02*
X319Y363D01*
X342Y363D02*
X365Y363D01*
X396Y363D02*
X419Y363D01*
X442Y363D02*
X465Y363D01*
X196Y362D02*
X218Y362D01*
X244Y362D02*
X266Y362D01*
X295Y362D02*
X318Y362D01*
X344Y362D02*
X366Y362D01*
X395Y362D02*
X418Y362D01*
X443Y362D02*
X466Y362D01*
X195Y361D02*
X217Y361D01*
X245Y361D02*
X266Y361D01*
X295Y361D02*
X316Y361D01*
X345Y361D02*
X366Y361D01*
X395Y361D02*
X416Y361D01*
X445Y361D02*
X466Y361D01*
X195Y360D02*
X216Y360D01*
X246Y360D02*
X267Y360D01*
X295Y360D02*
X315Y360D01*
X346Y360D02*
X367Y360D01*
X394Y360D02*
X415Y360D01*
X446Y360D02*
X467Y360D01*
X194Y359D02*
X215Y359D01*
X247Y359D02*
X267Y359D01*
X294Y359D02*
X315Y359D01*
X347Y359D02*
X367Y359D01*
X394Y359D02*
X414Y359D01*
X447Y359D02*
X467Y359D01*
X194Y358D02*
X214Y358D01*
X247Y358D02*
X267Y358D01*
X294Y358D02*
X314Y358D01*
X347Y358D02*
X367Y358D01*
X394Y358D02*
X414Y358D01*
X447Y358D02*
X467Y358D01*
X194Y357D02*
X213Y357D01*
X248Y357D02*
X268Y357D01*
X293Y357D02*
X313Y357D01*
X348Y357D02*
X368Y357D01*
X393Y357D02*
X413Y357D01*
X448Y357D02*
X468Y357D01*
X193Y356D02*
X213Y356D01*
X249Y356D02*
X268Y356D01*
X293Y356D02*
X313Y356D01*
X348Y356D02*
X368Y356D01*
X393Y356D02*
X413Y356D01*
X448Y356D02*
X468Y356D01*
X193Y355D02*
X212Y355D01*
X249Y355D02*
X268Y355D01*
X293Y355D02*
X312Y355D01*
X349Y355D02*
X368Y355D01*
X393Y355D02*
X412Y355D01*
X449Y355D02*
X468Y355D01*
X193Y354D02*
X212Y354D01*
X249Y354D02*
X269Y354D01*
X293Y354D02*
X312Y354D01*
X349Y354D02*
X369Y354D01*
X393Y354D02*
X412Y354D01*
X449Y354D02*
X468Y354D01*
X192Y353D02*
X212Y353D01*
X250Y353D02*
X269Y353D01*
X292Y353D02*
X312Y353D01*
X350Y353D02*
X369Y353D01*
X392Y353D02*
X411Y353D01*
X450Y353D02*
X469Y353D01*
X192Y352D02*
X211Y352D01*
X250Y352D02*
X269Y352D01*
X292Y352D02*
X311Y352D01*
X350Y352D02*
X369Y352D01*
X392Y352D02*
X411Y352D01*
X450Y352D02*
X469Y352D01*
X192Y351D02*
X211Y351D01*
X250Y351D02*
X269Y351D01*
X292Y351D02*
X311Y351D01*
X350Y351D02*
X369Y351D01*
X392Y351D02*
X411Y351D01*
X450Y351D02*
X469Y351D01*
X192Y350D02*
X211Y350D01*
X250Y350D02*
X269Y350D01*
X292Y350D02*
X311Y350D01*
X350Y350D02*
X369Y350D01*
X392Y350D02*
X411Y350D01*
X450Y350D02*
X469Y350D01*
X192Y349D02*
X211Y349D01*
X250Y349D02*
X269Y349D01*
X292Y349D02*
X311Y349D01*
X350Y349D02*
X369Y349D01*
X392Y349D02*
X411Y349D01*
X450Y349D02*
X469Y349D01*
X192Y348D02*
X211Y348D01*
X251Y348D02*
X270Y348D01*
X292Y348D02*
X311Y348D01*
X350Y348D02*
X369Y348D01*
X392Y348D02*
X411Y348D01*
X450Y348D02*
X469Y348D01*
X192Y347D02*
X211Y347D01*
X251Y347D02*
X270Y347D01*
X292Y347D02*
X311Y347D01*
X350Y347D02*
X369Y347D01*
X392Y347D02*
X411Y347D01*
X450Y347D02*
X469Y347D01*
X192Y346D02*
X211Y346D01*
X251Y346D02*
X270Y346D01*
X292Y346D02*
X311Y346D01*
X351Y346D02*
X369Y346D01*
X392Y346D02*
X411Y346D01*
X450Y346D02*
X469Y346D01*
X192Y345D02*
X211Y345D01*
X251Y345D02*
X270Y345D01*
X292Y345D02*
X311Y345D01*
X350Y345D02*
X369Y345D01*
X392Y345D02*
X411Y345D01*
X450Y345D02*
X469Y345D01*
X192Y344D02*
X211Y344D01*
X251Y344D02*
X270Y344D01*
X292Y344D02*
X311Y344D01*
X350Y344D02*
X369Y344D01*
X392Y344D02*
X411Y344D01*
X450Y344D02*
X469Y344D01*
X192Y343D02*
X211Y343D01*
X250Y343D02*
X269Y343D01*
X292Y343D02*
X311Y343D01*
X350Y343D02*
X369Y343D01*
X392Y343D02*
X411Y343D01*
X450Y343D02*
X469Y343D01*
X192Y342D02*
X211Y342D01*
X250Y342D02*
X269Y342D01*
X292Y342D02*
X311Y342D01*
X350Y342D02*
X369Y342D01*
X392Y342D02*
X411Y342D01*
X450Y342D02*
X469Y342D01*
X192Y341D02*
X211Y341D01*
X250Y341D02*
X269Y341D01*
X292Y341D02*
X311Y341D01*
X350Y341D02*
X369Y341D01*
X392Y341D02*
X411Y341D01*
X450Y341D02*
X469Y341D01*
X192Y340D02*
X211Y340D01*
X250Y340D02*
X269Y340D01*
X292Y340D02*
X311Y340D01*
X350Y340D02*
X369Y340D01*
X392Y340D02*
X411Y340D01*
X450Y340D02*
X469Y340D01*
X193Y339D02*
X212Y339D01*
X250Y339D02*
X269Y339D01*
X292Y339D02*
X312Y339D01*
X350Y339D02*
X369Y339D01*
X392Y339D02*
X412Y339D01*
X449Y339D02*
X469Y339D01*
X193Y338D02*
X212Y338D01*
X249Y338D02*
X269Y338D01*
X293Y338D02*
X312Y338D01*
X349Y338D02*
X368Y338D01*
X393Y338D02*
X412Y338D01*
X449Y338D02*
X468Y338D01*
X193Y337D02*
X212Y337D01*
X249Y337D02*
X268Y337D01*
X293Y337D02*
X312Y337D01*
X349Y337D02*
X368Y337D01*
X393Y337D02*
X412Y337D01*
X449Y337D02*
X468Y337D01*
X193Y336D02*
X213Y336D01*
X248Y336D02*
X268Y336D01*
X293Y336D02*
X313Y336D01*
X348Y336D02*
X368Y336D01*
X393Y336D02*
X413Y336D01*
X448Y336D02*
X468Y336D01*
X194Y335D02*
X214Y335D01*
X248Y335D02*
X268Y335D01*
X294Y335D02*
X313Y335D01*
X348Y335D02*
X368Y335D01*
X393Y335D02*
X413Y335D01*
X448Y335D02*
X468Y335D01*
X194Y334D02*
X214Y334D01*
X247Y334D02*
X267Y334D01*
X294Y334D02*
X314Y334D01*
X347Y334D02*
X367Y334D01*
X394Y334D02*
X414Y334D01*
X447Y334D02*
X467Y334D01*
X194Y333D02*
X215Y333D01*
X246Y333D02*
X267Y333D01*
X294Y333D02*
X315Y333D01*
X346Y333D02*
X367Y333D01*
X394Y333D02*
X415Y333D01*
X446Y333D02*
X467Y333D01*
X195Y332D02*
X216Y332D01*
X246Y332D02*
X267Y332D01*
X295Y332D02*
X316Y332D01*
X345Y332D02*
X366Y332D01*
X395Y332D02*
X416Y332D01*
X445Y332D02*
X466Y332D01*
X195Y331D02*
X217Y331D01*
X244Y331D02*
X266Y331D01*
X295Y331D02*
X317Y331D01*
X344Y331D02*
X366Y331D01*
X395Y331D02*
X417Y331D01*
X444Y331D02*
X466Y331D01*
X196Y330D02*
X218Y330D01*
X243Y330D02*
X266Y330D01*
X296Y330D02*
X318Y330D01*
X343Y330D02*
X366Y330D01*
X396Y330D02*
X418Y330D01*
X443Y330D02*
X465Y330D01*
X196Y329D02*
X220Y329D01*
X241Y329D02*
X265Y329D01*
X296Y329D02*
X320Y329D01*
X341Y329D02*
X365Y329D01*
X396Y329D02*
X420Y329D01*
X441Y329D02*
X465Y329D01*
X197Y328D02*
X222Y328D01*
X239Y328D02*
X265Y328D01*
X297Y328D02*
X322Y328D01*
X339Y328D02*
X364Y328D01*
X397Y328D02*
X422Y328D01*
X439Y328D02*
X464Y328D01*
X197Y327D02*
X226Y327D01*
X235Y327D02*
X264Y327D01*
X297Y327D02*
X326Y327D01*
X335Y327D02*
X364Y327D01*
X397Y327D02*
X426Y327D01*
X435Y327D02*
X464Y327D01*
X198Y326D02*
X263Y326D01*
X298Y326D02*
X363Y326D01*
X398Y326D02*
X463Y326D01*
X199Y325D02*
X263Y325D01*
X299Y325D02*
X363Y325D01*
X398Y325D02*
X462Y325D01*
X199Y324D02*
X262Y324D01*
X299Y324D02*
X362Y324D01*
X399Y324D02*
X462Y324D01*
X200Y323D02*
X261Y323D01*
X300Y323D02*
X361Y323D01*
X400Y323D02*
X461Y323D01*
X201Y322D02*
X260Y322D01*
X301Y322D02*
X360Y322D01*
X401Y322D02*
X460Y322D01*
X202Y321D02*
X260Y321D01*
X302Y321D02*
X359Y321D01*
X402Y321D02*
X459Y321D01*
X203Y320D02*
X259Y320D01*
X303Y320D02*
X359Y320D01*
X402Y320D02*
X458Y320D01*
X204Y319D02*
X258Y319D01*
X304Y319D02*
X358Y319D01*
X403Y319D02*
X458Y319D01*
X205Y318D02*
X257Y318D01*
X305Y318D02*
X357Y318D01*
X404Y318D02*
X457Y318D01*
X206Y317D02*
X256Y317D01*
X306Y317D02*
X356Y317D01*
X406Y317D02*
X455Y317D01*
X207Y316D02*
X254Y316D01*
X307Y316D02*
X354Y316D01*
X407Y316D02*
X454Y316D01*
X208Y315D02*
X253Y315D01*
X308Y315D02*
X353Y315D01*
X408Y315D02*
X453Y315D01*
X210Y314D02*
X252Y314D01*
X309Y314D02*
X352Y314D01*
X409Y314D02*
X452Y314D01*
X211Y313D02*
X250Y313D01*
X311Y313D02*
X350Y313D01*
X411Y313D02*
X450Y313D01*
X213Y312D02*
X249Y312D01*
X313Y312D02*
X349Y312D01*
X412Y312D02*
X449Y312D01*
X214Y311D02*
X247Y311D01*
X314Y311D02*
X347Y311D01*
X414Y311D02*
X447Y311D01*
X216Y310D02*
X245Y310D01*
X316Y310D02*
X345Y310D01*
X416Y310D02*
X445Y310D01*
X219Y309D02*
X242Y309D01*
X319Y309D02*
X342Y309D01*
X419Y309D02*
X442Y309D01*
X222Y308D02*
X239Y308D01*
X322Y308D02*
X339Y308D01*
X422Y308D02*
X439Y308D01*
X227Y307D02*
X234Y307D01*
X327Y307D02*
X334Y307D01*
X427Y307D02*
X434Y307D01*
D02*
G04 End of Copper0*
M02*