G04 #@! TF.FileFunction,Copper,L2,Bot,Signal*
%FSLAX46Y46*%
G04 Gerber Fmt 4.6, Leading zero omitted, Abs format (unit mm)*
G04 Created by KiCad (PCBNEW 4.0.6) date Tue Nov  6 18:34:32 2018*
%MOMM*%
%LPD*%
G01*
G04 APERTURE LIST*
%ADD10C,0.100000*%
%ADD11C,2.000000*%
%ADD12R,2.000000X3.200000*%
%ADD13R,2.000000X2.000000*%
%ADD14C,1.600000*%
%ADD15R,1.750000X1.750000*%
%ADD16C,1.750000*%
%ADD17C,0.250000*%
%ADD18C,0.254000*%
G04 APERTURE END LIST*
D10*
D11*
X158924000Y-96675800D03*
X153924000Y-96675800D03*
D12*
X162024000Y-103675800D03*
X150824000Y-103675800D03*
D11*
X158924000Y-111175800D03*
X156424000Y-111175800D03*
D13*
X153924000Y-111175800D03*
D14*
X162560000Y-114808000D03*
X160060000Y-114808000D03*
X157734000Y-114808000D03*
X155234000Y-114808000D03*
X152908000Y-114808000D03*
X150408000Y-114808000D03*
D15*
X152704800Y-118491000D03*
D16*
X155204800Y-118491000D03*
X157704800Y-118491000D03*
X160204800Y-118491000D03*
D17*
X157704800Y-118491000D02*
X157734000Y-118618000D01*
X157734000Y-118618000D02*
X160274000Y-116078000D01*
X160274000Y-116078000D02*
X160782000Y-116078000D01*
X160782000Y-116078000D02*
X162052000Y-114808000D01*
X162052000Y-114808000D02*
X162560000Y-114808000D01*
X160060000Y-114808000D02*
X160020000Y-114808000D01*
X160020000Y-114808000D02*
X158750000Y-116078000D01*
X158750000Y-116078000D02*
X157226000Y-116078000D01*
X157226000Y-116078000D02*
X156972000Y-115824000D01*
X156972000Y-115824000D02*
X156718000Y-115824000D01*
X156718000Y-115824000D02*
X155702000Y-114808000D01*
X155702000Y-114808000D02*
X155234000Y-114808000D01*
X155234000Y-114808000D02*
X155194000Y-114808000D01*
X155194000Y-114808000D02*
X153924000Y-116078000D01*
X153924000Y-116078000D02*
X152400000Y-116078000D01*
X152400000Y-116078000D02*
X152146000Y-115824000D01*
X152146000Y-115824000D02*
X151892000Y-115824000D01*
X151892000Y-115824000D02*
X150876000Y-114808000D01*
X150876000Y-114808000D02*
X150408000Y-114808000D01*
D18*
G36*
X163374000Y-119178000D02*
X161561600Y-119178000D01*
X161726390Y-118725694D01*
X161700379Y-118125542D01*
X161520753Y-117691884D01*
X161266860Y-117608545D01*
X160384405Y-118491000D01*
X160398548Y-118505143D01*
X160218943Y-118684748D01*
X160204800Y-118670605D01*
X160190658Y-118684748D01*
X160011053Y-118505143D01*
X160025195Y-118491000D01*
X160011053Y-118476858D01*
X160190658Y-118297253D01*
X160204800Y-118311395D01*
X161087255Y-117428940D01*
X161003916Y-117175047D01*
X160452613Y-116974189D01*
X160588802Y-116838000D01*
X160782000Y-116838000D01*
X161072839Y-116780148D01*
X161319401Y-116615401D01*
X161862595Y-116072207D01*
X162273309Y-116242750D01*
X162844187Y-116243248D01*
X163371800Y-116025243D01*
X163374000Y-116023047D01*
X163374000Y-119178000D01*
X163374000Y-119178000D01*
G37*
X163374000Y-119178000D02*
X161561600Y-119178000D01*
X161726390Y-118725694D01*
X161700379Y-118125542D01*
X161520753Y-117691884D01*
X161266860Y-117608545D01*
X160384405Y-118491000D01*
X160398548Y-118505143D01*
X160218943Y-118684748D01*
X160204800Y-118670605D01*
X160190658Y-118684748D01*
X160011053Y-118505143D01*
X160025195Y-118491000D01*
X160011053Y-118476858D01*
X160190658Y-118297253D01*
X160204800Y-118311395D01*
X161087255Y-117428940D01*
X161003916Y-117175047D01*
X160452613Y-116974189D01*
X160588802Y-116838000D01*
X160782000Y-116838000D01*
X161072839Y-116780148D01*
X161319401Y-116615401D01*
X161862595Y-116072207D01*
X162273309Y-116242750D01*
X162844187Y-116243248D01*
X163371800Y-116025243D01*
X163374000Y-116023047D01*
X163374000Y-119178000D01*
G36*
X152504613Y-95801536D02*
X152278092Y-96411261D01*
X152302144Y-97061260D01*
X152504613Y-97550064D01*
X152771468Y-97648727D01*
X153744395Y-96675800D01*
X153730253Y-96661658D01*
X153909858Y-96482053D01*
X153924000Y-96496195D01*
X153938143Y-96482053D01*
X154117748Y-96661658D01*
X154103605Y-96675800D01*
X155076532Y-97648727D01*
X155343387Y-97550064D01*
X155569908Y-96940339D01*
X155545856Y-96290340D01*
X155343387Y-95801536D01*
X155084990Y-95706000D01*
X157581233Y-95706000D01*
X157538722Y-95748437D01*
X157289284Y-96349152D01*
X157288716Y-96999595D01*
X157537106Y-97600743D01*
X157996637Y-98061078D01*
X158597352Y-98310516D01*
X159247795Y-98311084D01*
X159848943Y-98062694D01*
X160309278Y-97603163D01*
X160558716Y-97002448D01*
X160559284Y-96352005D01*
X160310894Y-95750857D01*
X160266115Y-95706000D01*
X163374000Y-95706000D01*
X163374000Y-101546405D01*
X163275890Y-101479369D01*
X163024000Y-101428360D01*
X161024000Y-101428360D01*
X160788683Y-101472638D01*
X160572559Y-101611710D01*
X160427569Y-101823910D01*
X160376560Y-102075800D01*
X160376560Y-105275800D01*
X160420838Y-105511117D01*
X160559910Y-105727241D01*
X160772110Y-105872231D01*
X161024000Y-105923240D01*
X163024000Y-105923240D01*
X163259317Y-105878962D01*
X163374000Y-105805166D01*
X163374000Y-113592253D01*
X163373923Y-113592176D01*
X162846691Y-113373250D01*
X162275813Y-113372752D01*
X161748200Y-113590757D01*
X161344176Y-113994077D01*
X161316577Y-114060544D01*
X161313864Y-114053995D01*
X161067745Y-113979861D01*
X160239605Y-114808000D01*
X160253748Y-114822142D01*
X160074143Y-115001748D01*
X160060000Y-114987605D01*
X159231861Y-115815745D01*
X159285008Y-115992190D01*
X158211007Y-117066191D01*
X158006475Y-116981262D01*
X157405760Y-116980738D01*
X156850571Y-117210138D01*
X156454482Y-117605536D01*
X156061263Y-117211630D01*
X155506475Y-116981262D01*
X154905760Y-116980738D01*
X154350571Y-117210138D01*
X154181697Y-117378717D01*
X154043890Y-117164559D01*
X153831690Y-117019569D01*
X153579800Y-116968560D01*
X151829800Y-116968560D01*
X151594483Y-117012838D01*
X151378359Y-117151910D01*
X151233369Y-117364110D01*
X151182360Y-117616000D01*
X151182360Y-119178000D01*
X149554000Y-119178000D01*
X149554000Y-115841608D01*
X149579861Y-115815747D01*
X149653995Y-116061864D01*
X150191223Y-116254965D01*
X150761454Y-116227778D01*
X151162005Y-116061864D01*
X151236139Y-115815745D01*
X150408000Y-114987605D01*
X150393858Y-115001748D01*
X150214252Y-114822142D01*
X150228395Y-114808000D01*
X150587605Y-114808000D01*
X151415745Y-115636139D01*
X151661864Y-115562005D01*
X151664196Y-115555517D01*
X151690757Y-115619800D01*
X152094077Y-116023824D01*
X152621309Y-116242750D01*
X153192187Y-116243248D01*
X153719800Y-116025243D01*
X153929663Y-115815745D01*
X154405861Y-115815745D01*
X154479995Y-116061864D01*
X155017223Y-116254965D01*
X155587454Y-116227778D01*
X155988005Y-116061864D01*
X156062139Y-115815745D01*
X155234000Y-114987605D01*
X154405861Y-115815745D01*
X153929663Y-115815745D01*
X154123824Y-115621923D01*
X154129964Y-115607135D01*
X154226255Y-115636139D01*
X155054395Y-114808000D01*
X155413605Y-114808000D01*
X156241745Y-115636139D01*
X156487864Y-115562005D01*
X156490196Y-115555517D01*
X156516757Y-115619800D01*
X156920077Y-116023824D01*
X157447309Y-116242750D01*
X158018187Y-116243248D01*
X158545800Y-116025243D01*
X158949824Y-115621923D01*
X158955964Y-115607135D01*
X159052255Y-115636139D01*
X159880395Y-114808000D01*
X159052255Y-113979861D01*
X158956419Y-114008728D01*
X158951243Y-113996200D01*
X158755640Y-113800255D01*
X159231861Y-113800255D01*
X160060000Y-114628395D01*
X160888139Y-113800255D01*
X160814005Y-113554136D01*
X160276777Y-113361035D01*
X159706546Y-113388222D01*
X159305995Y-113554136D01*
X159231861Y-113800255D01*
X158755640Y-113800255D01*
X158547923Y-113592176D01*
X158020691Y-113373250D01*
X157449813Y-113372752D01*
X156922200Y-113590757D01*
X156518176Y-113994077D01*
X156490577Y-114060544D01*
X156487864Y-114053995D01*
X156241745Y-113979861D01*
X155413605Y-114808000D01*
X155054395Y-114808000D01*
X154226255Y-113979861D01*
X154130419Y-114008728D01*
X154125243Y-113996200D01*
X153929640Y-113800255D01*
X154405861Y-113800255D01*
X155234000Y-114628395D01*
X156062139Y-113800255D01*
X155988005Y-113554136D01*
X155450777Y-113361035D01*
X154880546Y-113388222D01*
X154479995Y-113554136D01*
X154405861Y-113800255D01*
X153929640Y-113800255D01*
X153721923Y-113592176D01*
X153194691Y-113373250D01*
X152623813Y-113372752D01*
X152096200Y-113590757D01*
X151692176Y-113994077D01*
X151664577Y-114060544D01*
X151661864Y-114053995D01*
X151415745Y-113979861D01*
X150587605Y-114808000D01*
X150228395Y-114808000D01*
X150214252Y-114793858D01*
X150393858Y-114614252D01*
X150408000Y-114628395D01*
X151236139Y-113800255D01*
X151162005Y-113554136D01*
X150624777Y-113361035D01*
X150054546Y-113388222D01*
X149653995Y-113554136D01*
X149579861Y-113800253D01*
X149554000Y-113774392D01*
X149554000Y-110175800D01*
X152276560Y-110175800D01*
X152276560Y-112175800D01*
X152320838Y-112411117D01*
X152459910Y-112627241D01*
X152672110Y-112772231D01*
X152924000Y-112823240D01*
X154924000Y-112823240D01*
X155159317Y-112778962D01*
X155375441Y-112639890D01*
X155499263Y-112458671D01*
X155549736Y-112595187D01*
X156159461Y-112821708D01*
X156809460Y-112797656D01*
X157298264Y-112595187D01*
X157396927Y-112328332D01*
X156424000Y-111355405D01*
X156409858Y-111369548D01*
X156230253Y-111189943D01*
X156244395Y-111175800D01*
X156603605Y-111175800D01*
X157576532Y-112148727D01*
X157582722Y-112146439D01*
X157996637Y-112561078D01*
X158597352Y-112810516D01*
X159247795Y-112811084D01*
X159848943Y-112562694D01*
X160309278Y-112103163D01*
X160558716Y-111502448D01*
X160559284Y-110852005D01*
X160310894Y-110250857D01*
X159851363Y-109790522D01*
X159250648Y-109541084D01*
X158600205Y-109540516D01*
X157999057Y-109788906D01*
X157582248Y-110204987D01*
X157576532Y-110202873D01*
X156603605Y-111175800D01*
X156244395Y-111175800D01*
X156230253Y-111161658D01*
X156409858Y-110982053D01*
X156424000Y-110996195D01*
X157396927Y-110023268D01*
X157298264Y-109756413D01*
X156688539Y-109529892D01*
X156038540Y-109553944D01*
X155549736Y-109756413D01*
X155498277Y-109895595D01*
X155388090Y-109724359D01*
X155175890Y-109579369D01*
X154924000Y-109528360D01*
X152924000Y-109528360D01*
X152688683Y-109572638D01*
X152472559Y-109711710D01*
X152327569Y-109923910D01*
X152276560Y-110175800D01*
X149554000Y-110175800D01*
X149554000Y-105859857D01*
X149572110Y-105872231D01*
X149824000Y-105923240D01*
X151824000Y-105923240D01*
X152059317Y-105878962D01*
X152275441Y-105739890D01*
X152420431Y-105527690D01*
X152471440Y-105275800D01*
X152471440Y-102075800D01*
X152427162Y-101840483D01*
X152288090Y-101624359D01*
X152075890Y-101479369D01*
X151824000Y-101428360D01*
X149824000Y-101428360D01*
X149588683Y-101472638D01*
X149554000Y-101494956D01*
X149554000Y-97828332D01*
X152951073Y-97828332D01*
X153049736Y-98095187D01*
X153659461Y-98321708D01*
X154309460Y-98297656D01*
X154798264Y-98095187D01*
X154896927Y-97828332D01*
X153924000Y-96855405D01*
X152951073Y-97828332D01*
X149554000Y-97828332D01*
X149554000Y-95706000D01*
X152763010Y-95706000D01*
X152504613Y-95801536D01*
X152504613Y-95801536D01*
G37*
X152504613Y-95801536D02*
X152278092Y-96411261D01*
X152302144Y-97061260D01*
X152504613Y-97550064D01*
X152771468Y-97648727D01*
X153744395Y-96675800D01*
X153730253Y-96661658D01*
X153909858Y-96482053D01*
X153924000Y-96496195D01*
X153938143Y-96482053D01*
X154117748Y-96661658D01*
X154103605Y-96675800D01*
X155076532Y-97648727D01*
X155343387Y-97550064D01*
X155569908Y-96940339D01*
X155545856Y-96290340D01*
X155343387Y-95801536D01*
X155084990Y-95706000D01*
X157581233Y-95706000D01*
X157538722Y-95748437D01*
X157289284Y-96349152D01*
X157288716Y-96999595D01*
X157537106Y-97600743D01*
X157996637Y-98061078D01*
X158597352Y-98310516D01*
X159247795Y-98311084D01*
X159848943Y-98062694D01*
X160309278Y-97603163D01*
X160558716Y-97002448D01*
X160559284Y-96352005D01*
X160310894Y-95750857D01*
X160266115Y-95706000D01*
X163374000Y-95706000D01*
X163374000Y-101546405D01*
X163275890Y-101479369D01*
X163024000Y-101428360D01*
X161024000Y-101428360D01*
X160788683Y-101472638D01*
X160572559Y-101611710D01*
X160427569Y-101823910D01*
X160376560Y-102075800D01*
X160376560Y-105275800D01*
X160420838Y-105511117D01*
X160559910Y-105727241D01*
X160772110Y-105872231D01*
X161024000Y-105923240D01*
X163024000Y-105923240D01*
X163259317Y-105878962D01*
X163374000Y-105805166D01*
X163374000Y-113592253D01*
X163373923Y-113592176D01*
X162846691Y-113373250D01*
X162275813Y-113372752D01*
X161748200Y-113590757D01*
X161344176Y-113994077D01*
X161316577Y-114060544D01*
X161313864Y-114053995D01*
X161067745Y-113979861D01*
X160239605Y-114808000D01*
X160253748Y-114822142D01*
X160074143Y-115001748D01*
X160060000Y-114987605D01*
X159231861Y-115815745D01*
X159285008Y-115992190D01*
X158211007Y-117066191D01*
X158006475Y-116981262D01*
X157405760Y-116980738D01*
X156850571Y-117210138D01*
X156454482Y-117605536D01*
X156061263Y-117211630D01*
X155506475Y-116981262D01*
X154905760Y-116980738D01*
X154350571Y-117210138D01*
X154181697Y-117378717D01*
X154043890Y-117164559D01*
X153831690Y-117019569D01*
X153579800Y-116968560D01*
X151829800Y-116968560D01*
X151594483Y-117012838D01*
X151378359Y-117151910D01*
X151233369Y-117364110D01*
X151182360Y-117616000D01*
X151182360Y-119178000D01*
X149554000Y-119178000D01*
X149554000Y-115841608D01*
X149579861Y-115815747D01*
X149653995Y-116061864D01*
X150191223Y-116254965D01*
X150761454Y-116227778D01*
X151162005Y-116061864D01*
X151236139Y-115815745D01*
X150408000Y-114987605D01*
X150393858Y-115001748D01*
X150214252Y-114822142D01*
X150228395Y-114808000D01*
X150587605Y-114808000D01*
X151415745Y-115636139D01*
X151661864Y-115562005D01*
X151664196Y-115555517D01*
X151690757Y-115619800D01*
X152094077Y-116023824D01*
X152621309Y-116242750D01*
X153192187Y-116243248D01*
X153719800Y-116025243D01*
X153929663Y-115815745D01*
X154405861Y-115815745D01*
X154479995Y-116061864D01*
X155017223Y-116254965D01*
X155587454Y-116227778D01*
X155988005Y-116061864D01*
X156062139Y-115815745D01*
X155234000Y-114987605D01*
X154405861Y-115815745D01*
X153929663Y-115815745D01*
X154123824Y-115621923D01*
X154129964Y-115607135D01*
X154226255Y-115636139D01*
X155054395Y-114808000D01*
X155413605Y-114808000D01*
X156241745Y-115636139D01*
X156487864Y-115562005D01*
X156490196Y-115555517D01*
X156516757Y-115619800D01*
X156920077Y-116023824D01*
X157447309Y-116242750D01*
X158018187Y-116243248D01*
X158545800Y-116025243D01*
X158949824Y-115621923D01*
X158955964Y-115607135D01*
X159052255Y-115636139D01*
X159880395Y-114808000D01*
X159052255Y-113979861D01*
X158956419Y-114008728D01*
X158951243Y-113996200D01*
X158755640Y-113800255D01*
X159231861Y-113800255D01*
X160060000Y-114628395D01*
X160888139Y-113800255D01*
X160814005Y-113554136D01*
X160276777Y-113361035D01*
X159706546Y-113388222D01*
X159305995Y-113554136D01*
X159231861Y-113800255D01*
X158755640Y-113800255D01*
X158547923Y-113592176D01*
X158020691Y-113373250D01*
X157449813Y-113372752D01*
X156922200Y-113590757D01*
X156518176Y-113994077D01*
X156490577Y-114060544D01*
X156487864Y-114053995D01*
X156241745Y-113979861D01*
X155413605Y-114808000D01*
X155054395Y-114808000D01*
X154226255Y-113979861D01*
X154130419Y-114008728D01*
X154125243Y-113996200D01*
X153929640Y-113800255D01*
X154405861Y-113800255D01*
X155234000Y-114628395D01*
X156062139Y-113800255D01*
X155988005Y-113554136D01*
X155450777Y-113361035D01*
X154880546Y-113388222D01*
X154479995Y-113554136D01*
X154405861Y-113800255D01*
X153929640Y-113800255D01*
X153721923Y-113592176D01*
X153194691Y-113373250D01*
X152623813Y-113372752D01*
X152096200Y-113590757D01*
X151692176Y-113994077D01*
X151664577Y-114060544D01*
X151661864Y-114053995D01*
X151415745Y-113979861D01*
X150587605Y-114808000D01*
X150228395Y-114808000D01*
X150214252Y-114793858D01*
X150393858Y-114614252D01*
X150408000Y-114628395D01*
X151236139Y-113800255D01*
X151162005Y-113554136D01*
X150624777Y-113361035D01*
X150054546Y-113388222D01*
X149653995Y-113554136D01*
X149579861Y-113800253D01*
X149554000Y-113774392D01*
X149554000Y-110175800D01*
X152276560Y-110175800D01*
X152276560Y-112175800D01*
X152320838Y-112411117D01*
X152459910Y-112627241D01*
X152672110Y-112772231D01*
X152924000Y-112823240D01*
X154924000Y-112823240D01*
X155159317Y-112778962D01*
X155375441Y-112639890D01*
X155499263Y-112458671D01*
X155549736Y-112595187D01*
X156159461Y-112821708D01*
X156809460Y-112797656D01*
X157298264Y-112595187D01*
X157396927Y-112328332D01*
X156424000Y-111355405D01*
X156409858Y-111369548D01*
X156230253Y-111189943D01*
X156244395Y-111175800D01*
X156603605Y-111175800D01*
X157576532Y-112148727D01*
X157582722Y-112146439D01*
X157996637Y-112561078D01*
X158597352Y-112810516D01*
X159247795Y-112811084D01*
X159848943Y-112562694D01*
X160309278Y-112103163D01*
X160558716Y-111502448D01*
X160559284Y-110852005D01*
X160310894Y-110250857D01*
X159851363Y-109790522D01*
X159250648Y-109541084D01*
X158600205Y-109540516D01*
X157999057Y-109788906D01*
X157582248Y-110204987D01*
X157576532Y-110202873D01*
X156603605Y-111175800D01*
X156244395Y-111175800D01*
X156230253Y-111161658D01*
X156409858Y-110982053D01*
X156424000Y-110996195D01*
X157396927Y-110023268D01*
X157298264Y-109756413D01*
X156688539Y-109529892D01*
X156038540Y-109553944D01*
X155549736Y-109756413D01*
X155498277Y-109895595D01*
X155388090Y-109724359D01*
X155175890Y-109579369D01*
X154924000Y-109528360D01*
X152924000Y-109528360D01*
X152688683Y-109572638D01*
X152472559Y-109711710D01*
X152327569Y-109923910D01*
X152276560Y-110175800D01*
X149554000Y-110175800D01*
X149554000Y-105859857D01*
X149572110Y-105872231D01*
X149824000Y-105923240D01*
X151824000Y-105923240D01*
X152059317Y-105878962D01*
X152275441Y-105739890D01*
X152420431Y-105527690D01*
X152471440Y-105275800D01*
X152471440Y-102075800D01*
X152427162Y-101840483D01*
X152288090Y-101624359D01*
X152075890Y-101479369D01*
X151824000Y-101428360D01*
X149824000Y-101428360D01*
X149588683Y-101472638D01*
X149554000Y-101494956D01*
X149554000Y-97828332D01*
X152951073Y-97828332D01*
X153049736Y-98095187D01*
X153659461Y-98321708D01*
X154309460Y-98297656D01*
X154798264Y-98095187D01*
X154896927Y-97828332D01*
X153924000Y-96855405D01*
X152951073Y-97828332D01*
X149554000Y-97828332D01*
X149554000Y-95706000D01*
X152763010Y-95706000D01*
X152504613Y-95801536D01*
M02*
