G04 #@! TF.FileFunction,Legend,Top*
%FSLAX46Y46*%
G04 Gerber Fmt 4.6, Leading zero omitted, Abs format (unit mm)*
G04 Created by KiCad (PCBNEW 4.0.6) date Tue Nov  6 18:34:32 2018*
%MOMM*%
%LPD*%
G01*
G04 APERTURE LIST*
%ADD10C,0.100000*%
%ADD11C,0.120000*%
%ADD12C,0.150000*%
G04 APERTURE END LIST*
D10*
D11*
X156424000Y-104175800D02*
X156424000Y-103175800D01*
X155924000Y-103675800D02*
X156924000Y-103675800D01*
X159924000Y-97575800D02*
X162324000Y-97575800D01*
X155124000Y-97575800D02*
X157724000Y-97575800D01*
X150524000Y-97575800D02*
X152924000Y-97575800D01*
X152324000Y-110875800D02*
X152624000Y-111175800D01*
X152324000Y-111475800D02*
X152324000Y-110875800D01*
X152624000Y-111175800D02*
X152324000Y-111475800D01*
X150524000Y-109775800D02*
X162324000Y-109775800D01*
X150524000Y-105675800D02*
X150524000Y-109775800D01*
X162324000Y-105675800D02*
X162324000Y-109775800D01*
X162324000Y-97575800D02*
X162324000Y-101675800D01*
X150524000Y-101675800D02*
X150524000Y-97575800D01*
X159424000Y-103675800D02*
G75*
G03X159424000Y-103675800I-3000000J0D01*
G01*
X162870000Y-115868000D02*
X159750000Y-115868000D01*
X162870000Y-113748000D02*
X159750000Y-113748000D01*
X162870000Y-115868000D02*
X162870000Y-115804000D01*
X162870000Y-113812000D02*
X162870000Y-113748000D01*
X159750000Y-115868000D02*
X159750000Y-115804000D01*
X159750000Y-113812000D02*
X159750000Y-113748000D01*
X158044000Y-115868000D02*
X154924000Y-115868000D01*
X158044000Y-113748000D02*
X154924000Y-113748000D01*
X158044000Y-115868000D02*
X158044000Y-115804000D01*
X158044000Y-113812000D02*
X158044000Y-113748000D01*
X154924000Y-115868000D02*
X154924000Y-115804000D01*
X154924000Y-113812000D02*
X154924000Y-113748000D01*
X153218000Y-115868000D02*
X150098000Y-115868000D01*
X153218000Y-113748000D02*
X150098000Y-113748000D01*
X153218000Y-115868000D02*
X153218000Y-115804000D01*
X153218000Y-113812000D02*
X153218000Y-113748000D01*
X150098000Y-115868000D02*
X150098000Y-115804000D01*
X150098000Y-113812000D02*
X150098000Y-113748000D01*
D12*
X159194667Y-109116762D02*
X159337524Y-109164381D01*
X159575620Y-109164381D01*
X159670858Y-109116762D01*
X159718477Y-109069143D01*
X159766096Y-108973905D01*
X159766096Y-108878667D01*
X159718477Y-108783429D01*
X159670858Y-108735810D01*
X159575620Y-108688190D01*
X159385143Y-108640571D01*
X159289905Y-108592952D01*
X159242286Y-108545333D01*
X159194667Y-108450095D01*
X159194667Y-108354857D01*
X159242286Y-108259619D01*
X159289905Y-108212000D01*
X159385143Y-108164381D01*
X159623239Y-108164381D01*
X159766096Y-108212000D01*
X160099429Y-108164381D02*
X160337524Y-109164381D01*
X160528001Y-108450095D01*
X160718477Y-109164381D01*
X160956572Y-108164381D01*
X161861334Y-109164381D02*
X161289905Y-109164381D01*
X161575619Y-109164381D02*
X161575619Y-108164381D01*
X161480381Y-108307238D01*
X161385143Y-108402476D01*
X161289905Y-108450095D01*
X161143334Y-117225143D02*
X161095715Y-117272762D01*
X160952858Y-117320381D01*
X160857620Y-117320381D01*
X160714762Y-117272762D01*
X160619524Y-117177524D01*
X160571905Y-117082286D01*
X160524286Y-116891810D01*
X160524286Y-116748952D01*
X160571905Y-116558476D01*
X160619524Y-116463238D01*
X160714762Y-116368000D01*
X160857620Y-116320381D01*
X160952858Y-116320381D01*
X161095715Y-116368000D01*
X161143334Y-116415619D01*
X162095715Y-117320381D02*
X161524286Y-117320381D01*
X161810000Y-117320381D02*
X161810000Y-116320381D01*
X161714762Y-116463238D01*
X161619524Y-116558476D01*
X161524286Y-116606095D01*
X156317334Y-117225143D02*
X156269715Y-117272762D01*
X156126858Y-117320381D01*
X156031620Y-117320381D01*
X155888762Y-117272762D01*
X155793524Y-117177524D01*
X155745905Y-117082286D01*
X155698286Y-116891810D01*
X155698286Y-116748952D01*
X155745905Y-116558476D01*
X155793524Y-116463238D01*
X155888762Y-116368000D01*
X156031620Y-116320381D01*
X156126858Y-116320381D01*
X156269715Y-116368000D01*
X156317334Y-116415619D01*
X156698286Y-116415619D02*
X156745905Y-116368000D01*
X156841143Y-116320381D01*
X157079239Y-116320381D01*
X157174477Y-116368000D01*
X157222096Y-116415619D01*
X157269715Y-116510857D01*
X157269715Y-116606095D01*
X157222096Y-116748952D01*
X156650667Y-117320381D01*
X157269715Y-117320381D01*
X151491334Y-117225143D02*
X151443715Y-117272762D01*
X151300858Y-117320381D01*
X151205620Y-117320381D01*
X151062762Y-117272762D01*
X150967524Y-117177524D01*
X150919905Y-117082286D01*
X150872286Y-116891810D01*
X150872286Y-116748952D01*
X150919905Y-116558476D01*
X150967524Y-116463238D01*
X151062762Y-116368000D01*
X151205620Y-116320381D01*
X151300858Y-116320381D01*
X151443715Y-116368000D01*
X151491334Y-116415619D01*
X151824667Y-116320381D02*
X152443715Y-116320381D01*
X152110381Y-116701333D01*
X152253239Y-116701333D01*
X152348477Y-116748952D01*
X152396096Y-116796571D01*
X152443715Y-116891810D01*
X152443715Y-117129905D01*
X152396096Y-117225143D01*
X152348477Y-117272762D01*
X152253239Y-117320381D01*
X151967524Y-117320381D01*
X151872286Y-117272762D01*
X151824667Y-117225143D01*
M02*
