G04 #@! TF.GenerationSoftware,KiCad,Pcbnew,5.0.2-5.fc29*
G04 #@! TF.CreationDate,2022-04-25T14:20:45+02:00*
G04 #@! TF.ProjectId,zynthian_controller_single2_smd_sh,7a796e74-6869-4616-9e5f-636f6e74726f,rev?*
G04 #@! TF.SameCoordinates,Original*
G04 #@! TF.FileFunction,Soldermask,Top*
G04 #@! TF.FilePolarity,Negative*
%FSLAX46Y46*%
G04 Gerber Fmt 4.6, Leading zero omitted, Abs format (unit mm)*
G04 Created by KiCad (PCBNEW 5.0.2-5.fc29) date lun 25 abr 2022 14:20:45 CEST*
%MOMM*%
%LPD*%
G01*
G04 APERTURE LIST*
%ADD10C,0.100000*%
G04 APERTURE END LIST*
D10*
G36*
X159854269Y-116731597D02*
X159903009Y-116746382D01*
X159947931Y-116770393D01*
X159987298Y-116802702D01*
X160019607Y-116842069D01*
X160043618Y-116886991D01*
X160058403Y-116935731D01*
X160064000Y-116992557D01*
X160064000Y-118659443D01*
X160058403Y-118716269D01*
X160043618Y-118765009D01*
X160019607Y-118809931D01*
X159987298Y-118849298D01*
X159947931Y-118881607D01*
X159903009Y-118905618D01*
X159854269Y-118920403D01*
X159797443Y-118926000D01*
X158730557Y-118926000D01*
X158673731Y-118920403D01*
X158624991Y-118905618D01*
X158580069Y-118881607D01*
X158540702Y-118849298D01*
X158508393Y-118809931D01*
X158484382Y-118765009D01*
X158469597Y-118716269D01*
X158464000Y-118659443D01*
X158464000Y-116992557D01*
X158469597Y-116935731D01*
X158484382Y-116886991D01*
X158508393Y-116842069D01*
X158540702Y-116802702D01*
X158580069Y-116770393D01*
X158624991Y-116746382D01*
X158673731Y-116731597D01*
X158730557Y-116726000D01*
X159797443Y-116726000D01*
X159854269Y-116731597D01*
X159854269Y-116731597D01*
G37*
G36*
X154254269Y-116731597D02*
X154303009Y-116746382D01*
X154347931Y-116770393D01*
X154387298Y-116802702D01*
X154419607Y-116842069D01*
X154443618Y-116886991D01*
X154458403Y-116935731D01*
X154464000Y-116992557D01*
X154464000Y-118659443D01*
X154458403Y-118716269D01*
X154443618Y-118765009D01*
X154419607Y-118809931D01*
X154387298Y-118849298D01*
X154347931Y-118881607D01*
X154303009Y-118905618D01*
X154254269Y-118920403D01*
X154197443Y-118926000D01*
X153130557Y-118926000D01*
X153073731Y-118920403D01*
X153024991Y-118905618D01*
X152980069Y-118881607D01*
X152940702Y-118849298D01*
X152908393Y-118809931D01*
X152884382Y-118765009D01*
X152869597Y-118716269D01*
X152864000Y-118659443D01*
X152864000Y-116992557D01*
X152869597Y-116935731D01*
X152884382Y-116886991D01*
X152908393Y-116842069D01*
X152940702Y-116802702D01*
X152980069Y-116770393D01*
X153024991Y-116746382D01*
X153073731Y-116731597D01*
X153130557Y-116726000D01*
X154197443Y-116726000D01*
X154254269Y-116731597D01*
X154254269Y-116731597D01*
G37*
G36*
X162471497Y-117540497D02*
X162524153Y-117556470D01*
X162572665Y-117582400D01*
X162615196Y-117617304D01*
X162650100Y-117659835D01*
X162676030Y-117708347D01*
X162692003Y-117761003D01*
X162698000Y-117821890D01*
X162698000Y-118622110D01*
X162692003Y-118682997D01*
X162676030Y-118735653D01*
X162650100Y-118784165D01*
X162615196Y-118826696D01*
X162572665Y-118861600D01*
X162524153Y-118887530D01*
X162471497Y-118903503D01*
X162410610Y-118909500D01*
X161185390Y-118909500D01*
X161124503Y-118903503D01*
X161071847Y-118887530D01*
X161023335Y-118861600D01*
X160980804Y-118826696D01*
X160945900Y-118784165D01*
X160919970Y-118735653D01*
X160903997Y-118682997D01*
X160898000Y-118622110D01*
X160898000Y-117821890D01*
X160903997Y-117761003D01*
X160919970Y-117708347D01*
X160945900Y-117659835D01*
X160980804Y-117617304D01*
X161023335Y-117582400D01*
X161071847Y-117556470D01*
X161124503Y-117540497D01*
X161185390Y-117534500D01*
X162410610Y-117534500D01*
X162471497Y-117540497D01*
X162471497Y-117540497D01*
G37*
G36*
X162471497Y-115665497D02*
X162524153Y-115681470D01*
X162572665Y-115707400D01*
X162615196Y-115742304D01*
X162650100Y-115784835D01*
X162676030Y-115833347D01*
X162692003Y-115886003D01*
X162698000Y-115946890D01*
X162698000Y-116747110D01*
X162692003Y-116807997D01*
X162676030Y-116860653D01*
X162650100Y-116909165D01*
X162615196Y-116951696D01*
X162572665Y-116986600D01*
X162524153Y-117012530D01*
X162471497Y-117028503D01*
X162410610Y-117034500D01*
X161185390Y-117034500D01*
X161124503Y-117028503D01*
X161071847Y-117012530D01*
X161023335Y-116986600D01*
X160980804Y-116951696D01*
X160945900Y-116909165D01*
X160919970Y-116860653D01*
X160903997Y-116807997D01*
X160898000Y-116747110D01*
X160898000Y-115946890D01*
X160903997Y-115886003D01*
X160919970Y-115833347D01*
X160945900Y-115784835D01*
X160980804Y-115742304D01*
X161023335Y-115707400D01*
X161071847Y-115681470D01*
X161124503Y-115665497D01*
X161185390Y-115659500D01*
X162410610Y-115659500D01*
X162471497Y-115665497D01*
X162471497Y-115665497D01*
G37*
G36*
X151485997Y-114809997D02*
X151538653Y-114825970D01*
X151587165Y-114851900D01*
X151629696Y-114886804D01*
X151664600Y-114929335D01*
X151690530Y-114977847D01*
X151706503Y-115030503D01*
X151712500Y-115091390D01*
X151712500Y-115891610D01*
X151706503Y-115952497D01*
X151690530Y-116005153D01*
X151664600Y-116053665D01*
X151629696Y-116096196D01*
X151587165Y-116131100D01*
X151538653Y-116157030D01*
X151485997Y-116173003D01*
X151425110Y-116179000D01*
X150199890Y-116179000D01*
X150139003Y-116173003D01*
X150086347Y-116157030D01*
X150037835Y-116131100D01*
X149995304Y-116096196D01*
X149960400Y-116053665D01*
X149934470Y-116005153D01*
X149918497Y-115952497D01*
X149912500Y-115891610D01*
X149912500Y-115091390D01*
X149918497Y-115030503D01*
X149934470Y-114977847D01*
X149960400Y-114929335D01*
X149995304Y-114886804D01*
X150037835Y-114851900D01*
X150086347Y-114825970D01*
X150139003Y-114809997D01*
X150199890Y-114804000D01*
X151425110Y-114804000D01*
X151485997Y-114809997D01*
X151485997Y-114809997D01*
G37*
G36*
X162471497Y-113603497D02*
X162524153Y-113619470D01*
X162572665Y-113645400D01*
X162615196Y-113680304D01*
X162650100Y-113722835D01*
X162676030Y-113771347D01*
X162692003Y-113824003D01*
X162698000Y-113884890D01*
X162698000Y-114685110D01*
X162692003Y-114745997D01*
X162676030Y-114798653D01*
X162650100Y-114847165D01*
X162615196Y-114889696D01*
X162572665Y-114924600D01*
X162524153Y-114950530D01*
X162471497Y-114966503D01*
X162410610Y-114972500D01*
X161185390Y-114972500D01*
X161124503Y-114966503D01*
X161071847Y-114950530D01*
X161023335Y-114924600D01*
X160980804Y-114889696D01*
X160945900Y-114847165D01*
X160919970Y-114798653D01*
X160903997Y-114745997D01*
X160898000Y-114685110D01*
X160898000Y-113884890D01*
X160903997Y-113824003D01*
X160919970Y-113771347D01*
X160945900Y-113722835D01*
X160980804Y-113680304D01*
X161023335Y-113645400D01*
X161071847Y-113619470D01*
X161124503Y-113603497D01*
X161185390Y-113597500D01*
X162410610Y-113597500D01*
X162471497Y-113603497D01*
X162471497Y-113603497D01*
G37*
G36*
X155312960Y-112980196D02*
X155348023Y-112990832D01*
X155380336Y-113008104D01*
X155384702Y-113011687D01*
X155405077Y-113025301D01*
X155427716Y-113034678D01*
X155451749Y-113039458D01*
X155476254Y-113039458D01*
X155500287Y-113034677D01*
X155522926Y-113025299D01*
X155543298Y-113011687D01*
X155547664Y-113008104D01*
X155579977Y-112990832D01*
X155615040Y-112980196D01*
X155657641Y-112976000D01*
X156270359Y-112976000D01*
X156312960Y-112980196D01*
X156348023Y-112990832D01*
X156380336Y-113008104D01*
X156384702Y-113011687D01*
X156405077Y-113025301D01*
X156427716Y-113034678D01*
X156451749Y-113039458D01*
X156476254Y-113039458D01*
X156500287Y-113034677D01*
X156522926Y-113025299D01*
X156543298Y-113011687D01*
X156547664Y-113008104D01*
X156579977Y-112990832D01*
X156615040Y-112980196D01*
X156657641Y-112976000D01*
X157270359Y-112976000D01*
X157312960Y-112980196D01*
X157348023Y-112990832D01*
X157380336Y-113008104D01*
X157384702Y-113011687D01*
X157405077Y-113025301D01*
X157427716Y-113034678D01*
X157451749Y-113039458D01*
X157476254Y-113039458D01*
X157500287Y-113034677D01*
X157522926Y-113025299D01*
X157543298Y-113011687D01*
X157547664Y-113008104D01*
X157579977Y-112990832D01*
X157615040Y-112980196D01*
X157657641Y-112976000D01*
X158270359Y-112976000D01*
X158312960Y-112980196D01*
X158348023Y-112990832D01*
X158380332Y-113008102D01*
X158408655Y-113031345D01*
X158431898Y-113059668D01*
X158449168Y-113091977D01*
X158459804Y-113127040D01*
X158464000Y-113169641D01*
X158464000Y-114732359D01*
X158459804Y-114774960D01*
X158449168Y-114810023D01*
X158431898Y-114842332D01*
X158408655Y-114870655D01*
X158380332Y-114893898D01*
X158348023Y-114911168D01*
X158312960Y-114921804D01*
X158270359Y-114926000D01*
X157657641Y-114926000D01*
X157615040Y-114921804D01*
X157579977Y-114911168D01*
X157547664Y-114893896D01*
X157543298Y-114890313D01*
X157522923Y-114876699D01*
X157500284Y-114867322D01*
X157476251Y-114862542D01*
X157451746Y-114862542D01*
X157427713Y-114867323D01*
X157405074Y-114876701D01*
X157384702Y-114890313D01*
X157380336Y-114893896D01*
X157348023Y-114911168D01*
X157312960Y-114921804D01*
X157270359Y-114926000D01*
X156657641Y-114926000D01*
X156615040Y-114921804D01*
X156579977Y-114911168D01*
X156547664Y-114893896D01*
X156543298Y-114890313D01*
X156522923Y-114876699D01*
X156500284Y-114867322D01*
X156476251Y-114862542D01*
X156451746Y-114862542D01*
X156427713Y-114867323D01*
X156405074Y-114876701D01*
X156384702Y-114890313D01*
X156380336Y-114893896D01*
X156348023Y-114911168D01*
X156312960Y-114921804D01*
X156270359Y-114926000D01*
X155657641Y-114926000D01*
X155615040Y-114921804D01*
X155579977Y-114911168D01*
X155547664Y-114893896D01*
X155543298Y-114890313D01*
X155522923Y-114876699D01*
X155500284Y-114867322D01*
X155476251Y-114862542D01*
X155451746Y-114862542D01*
X155427713Y-114867323D01*
X155405074Y-114876701D01*
X155384702Y-114890313D01*
X155380336Y-114893896D01*
X155348023Y-114911168D01*
X155312960Y-114921804D01*
X155270359Y-114926000D01*
X154657641Y-114926000D01*
X154615040Y-114921804D01*
X154579977Y-114911168D01*
X154547668Y-114893898D01*
X154519345Y-114870655D01*
X154496102Y-114842332D01*
X154478832Y-114810023D01*
X154468196Y-114774960D01*
X154464000Y-114732359D01*
X154464000Y-113169641D01*
X154468196Y-113127040D01*
X154478832Y-113091977D01*
X154496102Y-113059668D01*
X154519345Y-113031345D01*
X154547668Y-113008102D01*
X154579977Y-112990832D01*
X154615040Y-112980196D01*
X154657641Y-112976000D01*
X155270359Y-112976000D01*
X155312960Y-112980196D01*
X155312960Y-112980196D01*
G37*
G36*
X151485997Y-112934997D02*
X151538653Y-112950970D01*
X151587165Y-112976900D01*
X151629696Y-113011804D01*
X151664600Y-113054335D01*
X151690530Y-113102847D01*
X151706503Y-113155503D01*
X151712500Y-113216390D01*
X151712500Y-114016610D01*
X151706503Y-114077497D01*
X151690530Y-114130153D01*
X151664600Y-114178665D01*
X151629696Y-114221196D01*
X151587165Y-114256100D01*
X151538653Y-114282030D01*
X151485997Y-114298003D01*
X151425110Y-114304000D01*
X150199890Y-114304000D01*
X150139003Y-114298003D01*
X150086347Y-114282030D01*
X150037835Y-114256100D01*
X149995304Y-114221196D01*
X149960400Y-114178665D01*
X149934470Y-114130153D01*
X149918497Y-114077497D01*
X149912500Y-114016610D01*
X149912500Y-113216390D01*
X149918497Y-113155503D01*
X149934470Y-113102847D01*
X149960400Y-113054335D01*
X149995304Y-113011804D01*
X150037835Y-112976900D01*
X150086347Y-112950970D01*
X150139003Y-112934997D01*
X150199890Y-112929000D01*
X151425110Y-112929000D01*
X151485997Y-112934997D01*
X151485997Y-112934997D01*
G37*
G36*
X162471497Y-111728497D02*
X162524153Y-111744470D01*
X162572665Y-111770400D01*
X162615196Y-111805304D01*
X162650100Y-111847835D01*
X162676030Y-111896347D01*
X162692003Y-111949003D01*
X162698000Y-112009890D01*
X162698000Y-112810110D01*
X162692003Y-112870997D01*
X162676030Y-112923653D01*
X162650100Y-112972165D01*
X162615196Y-113014696D01*
X162572665Y-113049600D01*
X162524153Y-113075530D01*
X162471497Y-113091503D01*
X162410610Y-113097500D01*
X161185390Y-113097500D01*
X161124503Y-113091503D01*
X161071847Y-113075530D01*
X161023335Y-113049600D01*
X160980804Y-113014696D01*
X160945900Y-112972165D01*
X160919970Y-112923653D01*
X160903997Y-112870997D01*
X160898000Y-112810110D01*
X160898000Y-112009890D01*
X160903997Y-111949003D01*
X160919970Y-111896347D01*
X160945900Y-111847835D01*
X160980804Y-111805304D01*
X161023335Y-111770400D01*
X161071847Y-111744470D01*
X161124503Y-111728497D01*
X161185390Y-111722500D01*
X162410610Y-111722500D01*
X162471497Y-111728497D01*
X162471497Y-111728497D01*
G37*
G36*
X155124000Y-110550108D02*
X155126402Y-110574494D01*
X155133515Y-110597943D01*
X155145066Y-110619554D01*
X155160612Y-110638496D01*
X155179554Y-110654042D01*
X155201165Y-110665593D01*
X155224614Y-110672706D01*
X155249000Y-110675108D01*
X155273386Y-110672706D01*
X155296835Y-110665593D01*
X155318446Y-110654042D01*
X155337388Y-110638496D01*
X155352934Y-110619554D01*
X155354895Y-110615885D01*
X155491901Y-110410842D01*
X155659042Y-110243701D01*
X155855588Y-110112373D01*
X156073974Y-110021915D01*
X156305809Y-109975800D01*
X156542191Y-109975800D01*
X156774026Y-110021915D01*
X156992412Y-110112373D01*
X157188958Y-110243701D01*
X157356099Y-110410842D01*
X157487427Y-110607388D01*
X157558515Y-110779010D01*
X157570066Y-110800621D01*
X157585612Y-110819563D01*
X157604554Y-110835109D01*
X157626164Y-110846660D01*
X157649614Y-110853773D01*
X157674000Y-110856175D01*
X157698386Y-110853773D01*
X157721835Y-110846660D01*
X157743446Y-110835109D01*
X157762388Y-110819563D01*
X157777934Y-110800621D01*
X157789485Y-110779010D01*
X157860573Y-110607388D01*
X157991901Y-110410842D01*
X158159042Y-110243701D01*
X158355588Y-110112373D01*
X158573974Y-110021915D01*
X158805809Y-109975800D01*
X159042191Y-109975800D01*
X159274026Y-110021915D01*
X159492412Y-110112373D01*
X159688958Y-110243701D01*
X159856099Y-110410842D01*
X159987427Y-110607388D01*
X160077885Y-110825774D01*
X160124000Y-111057609D01*
X160124000Y-111293991D01*
X160077885Y-111525826D01*
X159987427Y-111744212D01*
X159856099Y-111940758D01*
X159688958Y-112107899D01*
X159492412Y-112239227D01*
X159274026Y-112329685D01*
X159042191Y-112375800D01*
X158805809Y-112375800D01*
X158573974Y-112329685D01*
X158355588Y-112239227D01*
X158159042Y-112107899D01*
X157991901Y-111940758D01*
X157860573Y-111744212D01*
X157789485Y-111572590D01*
X157777934Y-111550979D01*
X157762388Y-111532037D01*
X157743446Y-111516491D01*
X157721836Y-111504940D01*
X157698386Y-111497827D01*
X157674000Y-111495425D01*
X157649614Y-111497827D01*
X157626165Y-111504940D01*
X157604554Y-111516491D01*
X157585612Y-111532037D01*
X157570066Y-111550979D01*
X157558515Y-111572590D01*
X157487427Y-111744212D01*
X157356099Y-111940758D01*
X157188958Y-112107899D01*
X156992412Y-112239227D01*
X156774026Y-112329685D01*
X156542191Y-112375800D01*
X156305809Y-112375800D01*
X156073974Y-112329685D01*
X155855588Y-112239227D01*
X155659042Y-112107899D01*
X155491901Y-111940758D01*
X155354890Y-111735707D01*
X155352929Y-111732039D01*
X155337382Y-111713098D01*
X155318439Y-111697554D01*
X155296828Y-111686004D01*
X155273378Y-111678892D01*
X155248992Y-111676492D01*
X155224605Y-111678895D01*
X155201157Y-111686010D01*
X155179547Y-111697563D01*
X155160606Y-111713110D01*
X155145062Y-111732053D01*
X155133512Y-111753664D01*
X155126400Y-111777114D01*
X155124000Y-111801492D01*
X155124000Y-112375800D01*
X152724000Y-112375800D01*
X152724000Y-109975800D01*
X155124000Y-109975800D01*
X155124000Y-110550108D01*
X155124000Y-110550108D01*
G37*
G36*
X163224000Y-105475800D02*
X160824000Y-105475800D01*
X160824000Y-101875800D01*
X163224000Y-101875800D01*
X163224000Y-105475800D01*
X163224000Y-105475800D01*
G37*
G36*
X152024000Y-105475800D02*
X149624000Y-105475800D01*
X149624000Y-101875800D01*
X152024000Y-101875800D01*
X152024000Y-105475800D01*
X152024000Y-105475800D01*
G37*
G36*
X154274026Y-95521915D02*
X154492412Y-95612373D01*
X154688958Y-95743701D01*
X154856099Y-95910842D01*
X154987427Y-96107388D01*
X155077885Y-96325774D01*
X155124000Y-96557609D01*
X155124000Y-96793991D01*
X155077885Y-97025826D01*
X154987427Y-97244212D01*
X154856099Y-97440758D01*
X154688958Y-97607899D01*
X154492412Y-97739227D01*
X154274026Y-97829685D01*
X154042191Y-97875800D01*
X153805809Y-97875800D01*
X153573974Y-97829685D01*
X153355588Y-97739227D01*
X153159042Y-97607899D01*
X152991901Y-97440758D01*
X152860573Y-97244212D01*
X152770115Y-97025826D01*
X152724000Y-96793991D01*
X152724000Y-96557609D01*
X152770115Y-96325774D01*
X152860573Y-96107388D01*
X152991901Y-95910842D01*
X153159042Y-95743701D01*
X153355588Y-95612373D01*
X153573974Y-95521915D01*
X153805809Y-95475800D01*
X154042191Y-95475800D01*
X154274026Y-95521915D01*
X154274026Y-95521915D01*
G37*
G36*
X159274026Y-95521915D02*
X159492412Y-95612373D01*
X159688958Y-95743701D01*
X159856099Y-95910842D01*
X159987427Y-96107388D01*
X160077885Y-96325774D01*
X160124000Y-96557609D01*
X160124000Y-96793991D01*
X160077885Y-97025826D01*
X159987427Y-97244212D01*
X159856099Y-97440758D01*
X159688958Y-97607899D01*
X159492412Y-97739227D01*
X159274026Y-97829685D01*
X159042191Y-97875800D01*
X158805809Y-97875800D01*
X158573974Y-97829685D01*
X158355588Y-97739227D01*
X158159042Y-97607899D01*
X157991901Y-97440758D01*
X157860573Y-97244212D01*
X157770115Y-97025826D01*
X157724000Y-96793991D01*
X157724000Y-96557609D01*
X157770115Y-96325774D01*
X157860573Y-96107388D01*
X157991901Y-95910842D01*
X158159042Y-95743701D01*
X158355588Y-95612373D01*
X158573974Y-95521915D01*
X158805809Y-95475800D01*
X159042191Y-95475800D01*
X159274026Y-95521915D01*
X159274026Y-95521915D01*
G37*
M02*
