G04 #@! TF.GenerationSoftware,KiCad,Pcbnew,5.0.2-5.fc29*
G04 #@! TF.CreationDate,2022-04-25T14:20:45+02:00*
G04 #@! TF.ProjectId,zynthian_controller_single2_smd_sh,7a796e74-6869-4616-9e5f-636f6e74726f,rev?*
G04 #@! TF.SameCoordinates,Original*
G04 #@! TF.FileFunction,Paste,Top*
G04 #@! TF.FilePolarity,Positive*
%FSLAX46Y46*%
G04 Gerber Fmt 4.6, Leading zero omitted, Abs format (unit mm)*
G04 Created by KiCad (PCBNEW 5.0.2-5.fc29) date lun 25 abr 2022 14:20:45 CEST*
%MOMM*%
%LPD*%
G01*
G04 APERTURE LIST*
%ADD10C,0.100000*%
%ADD11C,0.975000*%
%ADD12C,1.200000*%
%ADD13C,0.600000*%
G04 APERTURE END LIST*
D10*
G04 #@! TO.C,C1*
G36*
X162278142Y-113798674D02*
X162301803Y-113802184D01*
X162325007Y-113807996D01*
X162347529Y-113816054D01*
X162369153Y-113826282D01*
X162389670Y-113838579D01*
X162408883Y-113852829D01*
X162426607Y-113868893D01*
X162442671Y-113886617D01*
X162456921Y-113905830D01*
X162469218Y-113926347D01*
X162479446Y-113947971D01*
X162487504Y-113970493D01*
X162493316Y-113993697D01*
X162496826Y-114017358D01*
X162498000Y-114041250D01*
X162498000Y-114528750D01*
X162496826Y-114552642D01*
X162493316Y-114576303D01*
X162487504Y-114599507D01*
X162479446Y-114622029D01*
X162469218Y-114643653D01*
X162456921Y-114664170D01*
X162442671Y-114683383D01*
X162426607Y-114701107D01*
X162408883Y-114717171D01*
X162389670Y-114731421D01*
X162369153Y-114743718D01*
X162347529Y-114753946D01*
X162325007Y-114762004D01*
X162301803Y-114767816D01*
X162278142Y-114771326D01*
X162254250Y-114772500D01*
X161341750Y-114772500D01*
X161317858Y-114771326D01*
X161294197Y-114767816D01*
X161270993Y-114762004D01*
X161248471Y-114753946D01*
X161226847Y-114743718D01*
X161206330Y-114731421D01*
X161187117Y-114717171D01*
X161169393Y-114701107D01*
X161153329Y-114683383D01*
X161139079Y-114664170D01*
X161126782Y-114643653D01*
X161116554Y-114622029D01*
X161108496Y-114599507D01*
X161102684Y-114576303D01*
X161099174Y-114552642D01*
X161098000Y-114528750D01*
X161098000Y-114041250D01*
X161099174Y-114017358D01*
X161102684Y-113993697D01*
X161108496Y-113970493D01*
X161116554Y-113947971D01*
X161126782Y-113926347D01*
X161139079Y-113905830D01*
X161153329Y-113886617D01*
X161169393Y-113868893D01*
X161187117Y-113852829D01*
X161206330Y-113838579D01*
X161226847Y-113826282D01*
X161248471Y-113816054D01*
X161270993Y-113807996D01*
X161294197Y-113802184D01*
X161317858Y-113798674D01*
X161341750Y-113797500D01*
X162254250Y-113797500D01*
X162278142Y-113798674D01*
X162278142Y-113798674D01*
G37*
D11*
X161798000Y-114285000D03*
D10*
G36*
X162278142Y-111923674D02*
X162301803Y-111927184D01*
X162325007Y-111932996D01*
X162347529Y-111941054D01*
X162369153Y-111951282D01*
X162389670Y-111963579D01*
X162408883Y-111977829D01*
X162426607Y-111993893D01*
X162442671Y-112011617D01*
X162456921Y-112030830D01*
X162469218Y-112051347D01*
X162479446Y-112072971D01*
X162487504Y-112095493D01*
X162493316Y-112118697D01*
X162496826Y-112142358D01*
X162498000Y-112166250D01*
X162498000Y-112653750D01*
X162496826Y-112677642D01*
X162493316Y-112701303D01*
X162487504Y-112724507D01*
X162479446Y-112747029D01*
X162469218Y-112768653D01*
X162456921Y-112789170D01*
X162442671Y-112808383D01*
X162426607Y-112826107D01*
X162408883Y-112842171D01*
X162389670Y-112856421D01*
X162369153Y-112868718D01*
X162347529Y-112878946D01*
X162325007Y-112887004D01*
X162301803Y-112892816D01*
X162278142Y-112896326D01*
X162254250Y-112897500D01*
X161341750Y-112897500D01*
X161317858Y-112896326D01*
X161294197Y-112892816D01*
X161270993Y-112887004D01*
X161248471Y-112878946D01*
X161226847Y-112868718D01*
X161206330Y-112856421D01*
X161187117Y-112842171D01*
X161169393Y-112826107D01*
X161153329Y-112808383D01*
X161139079Y-112789170D01*
X161126782Y-112768653D01*
X161116554Y-112747029D01*
X161108496Y-112724507D01*
X161102684Y-112701303D01*
X161099174Y-112677642D01*
X161098000Y-112653750D01*
X161098000Y-112166250D01*
X161099174Y-112142358D01*
X161102684Y-112118697D01*
X161108496Y-112095493D01*
X161116554Y-112072971D01*
X161126782Y-112051347D01*
X161139079Y-112030830D01*
X161153329Y-112011617D01*
X161169393Y-111993893D01*
X161187117Y-111977829D01*
X161206330Y-111963579D01*
X161226847Y-111951282D01*
X161248471Y-111941054D01*
X161270993Y-111932996D01*
X161294197Y-111927184D01*
X161317858Y-111923674D01*
X161341750Y-111922500D01*
X162254250Y-111922500D01*
X162278142Y-111923674D01*
X162278142Y-111923674D01*
G37*
D11*
X161798000Y-112410000D03*
G04 #@! TD*
D10*
G04 #@! TO.C,C2*
G36*
X162278142Y-117735674D02*
X162301803Y-117739184D01*
X162325007Y-117744996D01*
X162347529Y-117753054D01*
X162369153Y-117763282D01*
X162389670Y-117775579D01*
X162408883Y-117789829D01*
X162426607Y-117805893D01*
X162442671Y-117823617D01*
X162456921Y-117842830D01*
X162469218Y-117863347D01*
X162479446Y-117884971D01*
X162487504Y-117907493D01*
X162493316Y-117930697D01*
X162496826Y-117954358D01*
X162498000Y-117978250D01*
X162498000Y-118465750D01*
X162496826Y-118489642D01*
X162493316Y-118513303D01*
X162487504Y-118536507D01*
X162479446Y-118559029D01*
X162469218Y-118580653D01*
X162456921Y-118601170D01*
X162442671Y-118620383D01*
X162426607Y-118638107D01*
X162408883Y-118654171D01*
X162389670Y-118668421D01*
X162369153Y-118680718D01*
X162347529Y-118690946D01*
X162325007Y-118699004D01*
X162301803Y-118704816D01*
X162278142Y-118708326D01*
X162254250Y-118709500D01*
X161341750Y-118709500D01*
X161317858Y-118708326D01*
X161294197Y-118704816D01*
X161270993Y-118699004D01*
X161248471Y-118690946D01*
X161226847Y-118680718D01*
X161206330Y-118668421D01*
X161187117Y-118654171D01*
X161169393Y-118638107D01*
X161153329Y-118620383D01*
X161139079Y-118601170D01*
X161126782Y-118580653D01*
X161116554Y-118559029D01*
X161108496Y-118536507D01*
X161102684Y-118513303D01*
X161099174Y-118489642D01*
X161098000Y-118465750D01*
X161098000Y-117978250D01*
X161099174Y-117954358D01*
X161102684Y-117930697D01*
X161108496Y-117907493D01*
X161116554Y-117884971D01*
X161126782Y-117863347D01*
X161139079Y-117842830D01*
X161153329Y-117823617D01*
X161169393Y-117805893D01*
X161187117Y-117789829D01*
X161206330Y-117775579D01*
X161226847Y-117763282D01*
X161248471Y-117753054D01*
X161270993Y-117744996D01*
X161294197Y-117739184D01*
X161317858Y-117735674D01*
X161341750Y-117734500D01*
X162254250Y-117734500D01*
X162278142Y-117735674D01*
X162278142Y-117735674D01*
G37*
D11*
X161798000Y-118222000D03*
D10*
G36*
X162278142Y-115860674D02*
X162301803Y-115864184D01*
X162325007Y-115869996D01*
X162347529Y-115878054D01*
X162369153Y-115888282D01*
X162389670Y-115900579D01*
X162408883Y-115914829D01*
X162426607Y-115930893D01*
X162442671Y-115948617D01*
X162456921Y-115967830D01*
X162469218Y-115988347D01*
X162479446Y-116009971D01*
X162487504Y-116032493D01*
X162493316Y-116055697D01*
X162496826Y-116079358D01*
X162498000Y-116103250D01*
X162498000Y-116590750D01*
X162496826Y-116614642D01*
X162493316Y-116638303D01*
X162487504Y-116661507D01*
X162479446Y-116684029D01*
X162469218Y-116705653D01*
X162456921Y-116726170D01*
X162442671Y-116745383D01*
X162426607Y-116763107D01*
X162408883Y-116779171D01*
X162389670Y-116793421D01*
X162369153Y-116805718D01*
X162347529Y-116815946D01*
X162325007Y-116824004D01*
X162301803Y-116829816D01*
X162278142Y-116833326D01*
X162254250Y-116834500D01*
X161341750Y-116834500D01*
X161317858Y-116833326D01*
X161294197Y-116829816D01*
X161270993Y-116824004D01*
X161248471Y-116815946D01*
X161226847Y-116805718D01*
X161206330Y-116793421D01*
X161187117Y-116779171D01*
X161169393Y-116763107D01*
X161153329Y-116745383D01*
X161139079Y-116726170D01*
X161126782Y-116705653D01*
X161116554Y-116684029D01*
X161108496Y-116661507D01*
X161102684Y-116638303D01*
X161099174Y-116614642D01*
X161098000Y-116590750D01*
X161098000Y-116103250D01*
X161099174Y-116079358D01*
X161102684Y-116055697D01*
X161108496Y-116032493D01*
X161116554Y-116009971D01*
X161126782Y-115988347D01*
X161139079Y-115967830D01*
X161153329Y-115948617D01*
X161169393Y-115930893D01*
X161187117Y-115914829D01*
X161206330Y-115900579D01*
X161226847Y-115888282D01*
X161248471Y-115878054D01*
X161270993Y-115869996D01*
X161294197Y-115864184D01*
X161317858Y-115860674D01*
X161341750Y-115859500D01*
X162254250Y-115859500D01*
X162278142Y-115860674D01*
X162278142Y-115860674D01*
G37*
D11*
X161798000Y-116347000D03*
G04 #@! TD*
D10*
G04 #@! TO.C,C3*
G36*
X151292642Y-115005174D02*
X151316303Y-115008684D01*
X151339507Y-115014496D01*
X151362029Y-115022554D01*
X151383653Y-115032782D01*
X151404170Y-115045079D01*
X151423383Y-115059329D01*
X151441107Y-115075393D01*
X151457171Y-115093117D01*
X151471421Y-115112330D01*
X151483718Y-115132847D01*
X151493946Y-115154471D01*
X151502004Y-115176993D01*
X151507816Y-115200197D01*
X151511326Y-115223858D01*
X151512500Y-115247750D01*
X151512500Y-115735250D01*
X151511326Y-115759142D01*
X151507816Y-115782803D01*
X151502004Y-115806007D01*
X151493946Y-115828529D01*
X151483718Y-115850153D01*
X151471421Y-115870670D01*
X151457171Y-115889883D01*
X151441107Y-115907607D01*
X151423383Y-115923671D01*
X151404170Y-115937921D01*
X151383653Y-115950218D01*
X151362029Y-115960446D01*
X151339507Y-115968504D01*
X151316303Y-115974316D01*
X151292642Y-115977826D01*
X151268750Y-115979000D01*
X150356250Y-115979000D01*
X150332358Y-115977826D01*
X150308697Y-115974316D01*
X150285493Y-115968504D01*
X150262971Y-115960446D01*
X150241347Y-115950218D01*
X150220830Y-115937921D01*
X150201617Y-115923671D01*
X150183893Y-115907607D01*
X150167829Y-115889883D01*
X150153579Y-115870670D01*
X150141282Y-115850153D01*
X150131054Y-115828529D01*
X150122996Y-115806007D01*
X150117184Y-115782803D01*
X150113674Y-115759142D01*
X150112500Y-115735250D01*
X150112500Y-115247750D01*
X150113674Y-115223858D01*
X150117184Y-115200197D01*
X150122996Y-115176993D01*
X150131054Y-115154471D01*
X150141282Y-115132847D01*
X150153579Y-115112330D01*
X150167829Y-115093117D01*
X150183893Y-115075393D01*
X150201617Y-115059329D01*
X150220830Y-115045079D01*
X150241347Y-115032782D01*
X150262971Y-115022554D01*
X150285493Y-115014496D01*
X150308697Y-115008684D01*
X150332358Y-115005174D01*
X150356250Y-115004000D01*
X151268750Y-115004000D01*
X151292642Y-115005174D01*
X151292642Y-115005174D01*
G37*
D11*
X150812500Y-115491500D03*
D10*
G36*
X151292642Y-113130174D02*
X151316303Y-113133684D01*
X151339507Y-113139496D01*
X151362029Y-113147554D01*
X151383653Y-113157782D01*
X151404170Y-113170079D01*
X151423383Y-113184329D01*
X151441107Y-113200393D01*
X151457171Y-113218117D01*
X151471421Y-113237330D01*
X151483718Y-113257847D01*
X151493946Y-113279471D01*
X151502004Y-113301993D01*
X151507816Y-113325197D01*
X151511326Y-113348858D01*
X151512500Y-113372750D01*
X151512500Y-113860250D01*
X151511326Y-113884142D01*
X151507816Y-113907803D01*
X151502004Y-113931007D01*
X151493946Y-113953529D01*
X151483718Y-113975153D01*
X151471421Y-113995670D01*
X151457171Y-114014883D01*
X151441107Y-114032607D01*
X151423383Y-114048671D01*
X151404170Y-114062921D01*
X151383653Y-114075218D01*
X151362029Y-114085446D01*
X151339507Y-114093504D01*
X151316303Y-114099316D01*
X151292642Y-114102826D01*
X151268750Y-114104000D01*
X150356250Y-114104000D01*
X150332358Y-114102826D01*
X150308697Y-114099316D01*
X150285493Y-114093504D01*
X150262971Y-114085446D01*
X150241347Y-114075218D01*
X150220830Y-114062921D01*
X150201617Y-114048671D01*
X150183893Y-114032607D01*
X150167829Y-114014883D01*
X150153579Y-113995670D01*
X150141282Y-113975153D01*
X150131054Y-113953529D01*
X150122996Y-113931007D01*
X150117184Y-113907803D01*
X150113674Y-113884142D01*
X150112500Y-113860250D01*
X150112500Y-113372750D01*
X150113674Y-113348858D01*
X150117184Y-113325197D01*
X150122996Y-113301993D01*
X150131054Y-113279471D01*
X150141282Y-113257847D01*
X150153579Y-113237330D01*
X150167829Y-113218117D01*
X150183893Y-113200393D01*
X150201617Y-113184329D01*
X150220830Y-113170079D01*
X150241347Y-113157782D01*
X150262971Y-113147554D01*
X150285493Y-113139496D01*
X150308697Y-113133684D01*
X150332358Y-113130174D01*
X150356250Y-113129000D01*
X151268750Y-113129000D01*
X151292642Y-113130174D01*
X151292642Y-113130174D01*
G37*
D11*
X150812500Y-113616500D03*
G04 #@! TD*
D10*
G04 #@! TO.C,J1*
G36*
X159638505Y-116927204D02*
X159662773Y-116930804D01*
X159686572Y-116936765D01*
X159709671Y-116945030D01*
X159731850Y-116955520D01*
X159752893Y-116968132D01*
X159772599Y-116982747D01*
X159790777Y-116999223D01*
X159807253Y-117017401D01*
X159821868Y-117037107D01*
X159834480Y-117058150D01*
X159844970Y-117080329D01*
X159853235Y-117103428D01*
X159859196Y-117127227D01*
X159862796Y-117151495D01*
X159864000Y-117175999D01*
X159864000Y-118476001D01*
X159862796Y-118500505D01*
X159859196Y-118524773D01*
X159853235Y-118548572D01*
X159844970Y-118571671D01*
X159834480Y-118593850D01*
X159821868Y-118614893D01*
X159807253Y-118634599D01*
X159790777Y-118652777D01*
X159772599Y-118669253D01*
X159752893Y-118683868D01*
X159731850Y-118696480D01*
X159709671Y-118706970D01*
X159686572Y-118715235D01*
X159662773Y-118721196D01*
X159638505Y-118724796D01*
X159614001Y-118726000D01*
X158913999Y-118726000D01*
X158889495Y-118724796D01*
X158865227Y-118721196D01*
X158841428Y-118715235D01*
X158818329Y-118706970D01*
X158796150Y-118696480D01*
X158775107Y-118683868D01*
X158755401Y-118669253D01*
X158737223Y-118652777D01*
X158720747Y-118634599D01*
X158706132Y-118614893D01*
X158693520Y-118593850D01*
X158683030Y-118571671D01*
X158674765Y-118548572D01*
X158668804Y-118524773D01*
X158665204Y-118500505D01*
X158664000Y-118476001D01*
X158664000Y-117175999D01*
X158665204Y-117151495D01*
X158668804Y-117127227D01*
X158674765Y-117103428D01*
X158683030Y-117080329D01*
X158693520Y-117058150D01*
X158706132Y-117037107D01*
X158720747Y-117017401D01*
X158737223Y-116999223D01*
X158755401Y-116982747D01*
X158775107Y-116968132D01*
X158796150Y-116955520D01*
X158818329Y-116945030D01*
X158841428Y-116936765D01*
X158865227Y-116930804D01*
X158889495Y-116927204D01*
X158913999Y-116926000D01*
X159614001Y-116926000D01*
X159638505Y-116927204D01*
X159638505Y-116927204D01*
G37*
D12*
X159264000Y-117826000D03*
D10*
G36*
X154038505Y-116927204D02*
X154062773Y-116930804D01*
X154086572Y-116936765D01*
X154109671Y-116945030D01*
X154131850Y-116955520D01*
X154152893Y-116968132D01*
X154172599Y-116982747D01*
X154190777Y-116999223D01*
X154207253Y-117017401D01*
X154221868Y-117037107D01*
X154234480Y-117058150D01*
X154244970Y-117080329D01*
X154253235Y-117103428D01*
X154259196Y-117127227D01*
X154262796Y-117151495D01*
X154264000Y-117175999D01*
X154264000Y-118476001D01*
X154262796Y-118500505D01*
X154259196Y-118524773D01*
X154253235Y-118548572D01*
X154244970Y-118571671D01*
X154234480Y-118593850D01*
X154221868Y-118614893D01*
X154207253Y-118634599D01*
X154190777Y-118652777D01*
X154172599Y-118669253D01*
X154152893Y-118683868D01*
X154131850Y-118696480D01*
X154109671Y-118706970D01*
X154086572Y-118715235D01*
X154062773Y-118721196D01*
X154038505Y-118724796D01*
X154014001Y-118726000D01*
X153313999Y-118726000D01*
X153289495Y-118724796D01*
X153265227Y-118721196D01*
X153241428Y-118715235D01*
X153218329Y-118706970D01*
X153196150Y-118696480D01*
X153175107Y-118683868D01*
X153155401Y-118669253D01*
X153137223Y-118652777D01*
X153120747Y-118634599D01*
X153106132Y-118614893D01*
X153093520Y-118593850D01*
X153083030Y-118571671D01*
X153074765Y-118548572D01*
X153068804Y-118524773D01*
X153065204Y-118500505D01*
X153064000Y-118476001D01*
X153064000Y-117175999D01*
X153065204Y-117151495D01*
X153068804Y-117127227D01*
X153074765Y-117103428D01*
X153083030Y-117080329D01*
X153093520Y-117058150D01*
X153106132Y-117037107D01*
X153120747Y-117017401D01*
X153137223Y-116999223D01*
X153155401Y-116982747D01*
X153175107Y-116968132D01*
X153196150Y-116955520D01*
X153218329Y-116945030D01*
X153241428Y-116936765D01*
X153265227Y-116930804D01*
X153289495Y-116927204D01*
X153313999Y-116926000D01*
X154014001Y-116926000D01*
X154038505Y-116927204D01*
X154038505Y-116927204D01*
G37*
D12*
X153664000Y-117826000D03*
D10*
G36*
X158128703Y-113176722D02*
X158143264Y-113178882D01*
X158157543Y-113182459D01*
X158171403Y-113187418D01*
X158184710Y-113193712D01*
X158197336Y-113201280D01*
X158209159Y-113210048D01*
X158220066Y-113219934D01*
X158229952Y-113230841D01*
X158238720Y-113242664D01*
X158246288Y-113255290D01*
X158252582Y-113268597D01*
X158257541Y-113282457D01*
X158261118Y-113296736D01*
X158263278Y-113311297D01*
X158264000Y-113326000D01*
X158264000Y-114576000D01*
X158263278Y-114590703D01*
X158261118Y-114605264D01*
X158257541Y-114619543D01*
X158252582Y-114633403D01*
X158246288Y-114646710D01*
X158238720Y-114659336D01*
X158229952Y-114671159D01*
X158220066Y-114682066D01*
X158209159Y-114691952D01*
X158197336Y-114700720D01*
X158184710Y-114708288D01*
X158171403Y-114714582D01*
X158157543Y-114719541D01*
X158143264Y-114723118D01*
X158128703Y-114725278D01*
X158114000Y-114726000D01*
X157814000Y-114726000D01*
X157799297Y-114725278D01*
X157784736Y-114723118D01*
X157770457Y-114719541D01*
X157756597Y-114714582D01*
X157743290Y-114708288D01*
X157730664Y-114700720D01*
X157718841Y-114691952D01*
X157707934Y-114682066D01*
X157698048Y-114671159D01*
X157689280Y-114659336D01*
X157681712Y-114646710D01*
X157675418Y-114633403D01*
X157670459Y-114619543D01*
X157666882Y-114605264D01*
X157664722Y-114590703D01*
X157664000Y-114576000D01*
X157664000Y-113326000D01*
X157664722Y-113311297D01*
X157666882Y-113296736D01*
X157670459Y-113282457D01*
X157675418Y-113268597D01*
X157681712Y-113255290D01*
X157689280Y-113242664D01*
X157698048Y-113230841D01*
X157707934Y-113219934D01*
X157718841Y-113210048D01*
X157730664Y-113201280D01*
X157743290Y-113193712D01*
X157756597Y-113187418D01*
X157770457Y-113182459D01*
X157784736Y-113178882D01*
X157799297Y-113176722D01*
X157814000Y-113176000D01*
X158114000Y-113176000D01*
X158128703Y-113176722D01*
X158128703Y-113176722D01*
G37*
D13*
X157964000Y-113951000D03*
D10*
G36*
X157128703Y-113176722D02*
X157143264Y-113178882D01*
X157157543Y-113182459D01*
X157171403Y-113187418D01*
X157184710Y-113193712D01*
X157197336Y-113201280D01*
X157209159Y-113210048D01*
X157220066Y-113219934D01*
X157229952Y-113230841D01*
X157238720Y-113242664D01*
X157246288Y-113255290D01*
X157252582Y-113268597D01*
X157257541Y-113282457D01*
X157261118Y-113296736D01*
X157263278Y-113311297D01*
X157264000Y-113326000D01*
X157264000Y-114576000D01*
X157263278Y-114590703D01*
X157261118Y-114605264D01*
X157257541Y-114619543D01*
X157252582Y-114633403D01*
X157246288Y-114646710D01*
X157238720Y-114659336D01*
X157229952Y-114671159D01*
X157220066Y-114682066D01*
X157209159Y-114691952D01*
X157197336Y-114700720D01*
X157184710Y-114708288D01*
X157171403Y-114714582D01*
X157157543Y-114719541D01*
X157143264Y-114723118D01*
X157128703Y-114725278D01*
X157114000Y-114726000D01*
X156814000Y-114726000D01*
X156799297Y-114725278D01*
X156784736Y-114723118D01*
X156770457Y-114719541D01*
X156756597Y-114714582D01*
X156743290Y-114708288D01*
X156730664Y-114700720D01*
X156718841Y-114691952D01*
X156707934Y-114682066D01*
X156698048Y-114671159D01*
X156689280Y-114659336D01*
X156681712Y-114646710D01*
X156675418Y-114633403D01*
X156670459Y-114619543D01*
X156666882Y-114605264D01*
X156664722Y-114590703D01*
X156664000Y-114576000D01*
X156664000Y-113326000D01*
X156664722Y-113311297D01*
X156666882Y-113296736D01*
X156670459Y-113282457D01*
X156675418Y-113268597D01*
X156681712Y-113255290D01*
X156689280Y-113242664D01*
X156698048Y-113230841D01*
X156707934Y-113219934D01*
X156718841Y-113210048D01*
X156730664Y-113201280D01*
X156743290Y-113193712D01*
X156756597Y-113187418D01*
X156770457Y-113182459D01*
X156784736Y-113178882D01*
X156799297Y-113176722D01*
X156814000Y-113176000D01*
X157114000Y-113176000D01*
X157128703Y-113176722D01*
X157128703Y-113176722D01*
G37*
D13*
X156964000Y-113951000D03*
D10*
G36*
X156128703Y-113176722D02*
X156143264Y-113178882D01*
X156157543Y-113182459D01*
X156171403Y-113187418D01*
X156184710Y-113193712D01*
X156197336Y-113201280D01*
X156209159Y-113210048D01*
X156220066Y-113219934D01*
X156229952Y-113230841D01*
X156238720Y-113242664D01*
X156246288Y-113255290D01*
X156252582Y-113268597D01*
X156257541Y-113282457D01*
X156261118Y-113296736D01*
X156263278Y-113311297D01*
X156264000Y-113326000D01*
X156264000Y-114576000D01*
X156263278Y-114590703D01*
X156261118Y-114605264D01*
X156257541Y-114619543D01*
X156252582Y-114633403D01*
X156246288Y-114646710D01*
X156238720Y-114659336D01*
X156229952Y-114671159D01*
X156220066Y-114682066D01*
X156209159Y-114691952D01*
X156197336Y-114700720D01*
X156184710Y-114708288D01*
X156171403Y-114714582D01*
X156157543Y-114719541D01*
X156143264Y-114723118D01*
X156128703Y-114725278D01*
X156114000Y-114726000D01*
X155814000Y-114726000D01*
X155799297Y-114725278D01*
X155784736Y-114723118D01*
X155770457Y-114719541D01*
X155756597Y-114714582D01*
X155743290Y-114708288D01*
X155730664Y-114700720D01*
X155718841Y-114691952D01*
X155707934Y-114682066D01*
X155698048Y-114671159D01*
X155689280Y-114659336D01*
X155681712Y-114646710D01*
X155675418Y-114633403D01*
X155670459Y-114619543D01*
X155666882Y-114605264D01*
X155664722Y-114590703D01*
X155664000Y-114576000D01*
X155664000Y-113326000D01*
X155664722Y-113311297D01*
X155666882Y-113296736D01*
X155670459Y-113282457D01*
X155675418Y-113268597D01*
X155681712Y-113255290D01*
X155689280Y-113242664D01*
X155698048Y-113230841D01*
X155707934Y-113219934D01*
X155718841Y-113210048D01*
X155730664Y-113201280D01*
X155743290Y-113193712D01*
X155756597Y-113187418D01*
X155770457Y-113182459D01*
X155784736Y-113178882D01*
X155799297Y-113176722D01*
X155814000Y-113176000D01*
X156114000Y-113176000D01*
X156128703Y-113176722D01*
X156128703Y-113176722D01*
G37*
D13*
X155964000Y-113951000D03*
D10*
G36*
X155128703Y-113176722D02*
X155143264Y-113178882D01*
X155157543Y-113182459D01*
X155171403Y-113187418D01*
X155184710Y-113193712D01*
X155197336Y-113201280D01*
X155209159Y-113210048D01*
X155220066Y-113219934D01*
X155229952Y-113230841D01*
X155238720Y-113242664D01*
X155246288Y-113255290D01*
X155252582Y-113268597D01*
X155257541Y-113282457D01*
X155261118Y-113296736D01*
X155263278Y-113311297D01*
X155264000Y-113326000D01*
X155264000Y-114576000D01*
X155263278Y-114590703D01*
X155261118Y-114605264D01*
X155257541Y-114619543D01*
X155252582Y-114633403D01*
X155246288Y-114646710D01*
X155238720Y-114659336D01*
X155229952Y-114671159D01*
X155220066Y-114682066D01*
X155209159Y-114691952D01*
X155197336Y-114700720D01*
X155184710Y-114708288D01*
X155171403Y-114714582D01*
X155157543Y-114719541D01*
X155143264Y-114723118D01*
X155128703Y-114725278D01*
X155114000Y-114726000D01*
X154814000Y-114726000D01*
X154799297Y-114725278D01*
X154784736Y-114723118D01*
X154770457Y-114719541D01*
X154756597Y-114714582D01*
X154743290Y-114708288D01*
X154730664Y-114700720D01*
X154718841Y-114691952D01*
X154707934Y-114682066D01*
X154698048Y-114671159D01*
X154689280Y-114659336D01*
X154681712Y-114646710D01*
X154675418Y-114633403D01*
X154670459Y-114619543D01*
X154666882Y-114605264D01*
X154664722Y-114590703D01*
X154664000Y-114576000D01*
X154664000Y-113326000D01*
X154664722Y-113311297D01*
X154666882Y-113296736D01*
X154670459Y-113282457D01*
X154675418Y-113268597D01*
X154681712Y-113255290D01*
X154689280Y-113242664D01*
X154698048Y-113230841D01*
X154707934Y-113219934D01*
X154718841Y-113210048D01*
X154730664Y-113201280D01*
X154743290Y-113193712D01*
X154756597Y-113187418D01*
X154770457Y-113182459D01*
X154784736Y-113178882D01*
X154799297Y-113176722D01*
X154814000Y-113176000D01*
X155114000Y-113176000D01*
X155128703Y-113176722D01*
X155128703Y-113176722D01*
G37*
D13*
X154964000Y-113951000D03*
G04 #@! TD*
M02*
