G04 #@! TF.GenerationSoftware,KiCad,Pcbnew,5.0.2-5.fc29*
G04 #@! TF.CreationDate,2022-04-25T14:20:45+02:00*
G04 #@! TF.ProjectId,zynthian_controller_single2_smd_sh,7a796e74-6869-4616-9e5f-636f6e74726f,rev?*
G04 #@! TF.SameCoordinates,Original*
G04 #@! TF.FileFunction,Soldermask,Bot*
G04 #@! TF.FilePolarity,Negative*
%FSLAX46Y46*%
G04 Gerber Fmt 4.6, Leading zero omitted, Abs format (unit mm)*
G04 Created by KiCad (PCBNEW 5.0.2-5.fc29) date lun 25 abr 2022 14:20:45 CEST*
%MOMM*%
%LPD*%
G01*
G04 APERTURE LIST*
%ADD10C,0.100000*%
G04 APERTURE END LIST*
D10*
G36*
X155124000Y-110550108D02*
X155126402Y-110574494D01*
X155133515Y-110597943D01*
X155145066Y-110619554D01*
X155160612Y-110638496D01*
X155179554Y-110654042D01*
X155201165Y-110665593D01*
X155224614Y-110672706D01*
X155249000Y-110675108D01*
X155273386Y-110672706D01*
X155296835Y-110665593D01*
X155318446Y-110654042D01*
X155337388Y-110638496D01*
X155352934Y-110619554D01*
X155354895Y-110615885D01*
X155491901Y-110410842D01*
X155659042Y-110243701D01*
X155855588Y-110112373D01*
X156073974Y-110021915D01*
X156305809Y-109975800D01*
X156542191Y-109975800D01*
X156774026Y-110021915D01*
X156992412Y-110112373D01*
X157188958Y-110243701D01*
X157356099Y-110410842D01*
X157487427Y-110607388D01*
X157558515Y-110779010D01*
X157570066Y-110800621D01*
X157585612Y-110819563D01*
X157604554Y-110835109D01*
X157626164Y-110846660D01*
X157649614Y-110853773D01*
X157674000Y-110856175D01*
X157698386Y-110853773D01*
X157721835Y-110846660D01*
X157743446Y-110835109D01*
X157762388Y-110819563D01*
X157777934Y-110800621D01*
X157789485Y-110779010D01*
X157860573Y-110607388D01*
X157991901Y-110410842D01*
X158159042Y-110243701D01*
X158355588Y-110112373D01*
X158573974Y-110021915D01*
X158805809Y-109975800D01*
X159042191Y-109975800D01*
X159274026Y-110021915D01*
X159492412Y-110112373D01*
X159688958Y-110243701D01*
X159856099Y-110410842D01*
X159987427Y-110607388D01*
X160077885Y-110825774D01*
X160124000Y-111057609D01*
X160124000Y-111293991D01*
X160077885Y-111525826D01*
X159987427Y-111744212D01*
X159856099Y-111940758D01*
X159688958Y-112107899D01*
X159492412Y-112239227D01*
X159274026Y-112329685D01*
X159042191Y-112375800D01*
X158805809Y-112375800D01*
X158573974Y-112329685D01*
X158355588Y-112239227D01*
X158159042Y-112107899D01*
X157991901Y-111940758D01*
X157860573Y-111744212D01*
X157789485Y-111572590D01*
X157777934Y-111550979D01*
X157762388Y-111532037D01*
X157743446Y-111516491D01*
X157721836Y-111504940D01*
X157698386Y-111497827D01*
X157674000Y-111495425D01*
X157649614Y-111497827D01*
X157626165Y-111504940D01*
X157604554Y-111516491D01*
X157585612Y-111532037D01*
X157570066Y-111550979D01*
X157558515Y-111572590D01*
X157487427Y-111744212D01*
X157356099Y-111940758D01*
X157188958Y-112107899D01*
X156992412Y-112239227D01*
X156774026Y-112329685D01*
X156542191Y-112375800D01*
X156305809Y-112375800D01*
X156073974Y-112329685D01*
X155855588Y-112239227D01*
X155659042Y-112107899D01*
X155491901Y-111940758D01*
X155354890Y-111735707D01*
X155352929Y-111732039D01*
X155337382Y-111713098D01*
X155318439Y-111697554D01*
X155296828Y-111686004D01*
X155273378Y-111678892D01*
X155248992Y-111676492D01*
X155224605Y-111678895D01*
X155201157Y-111686010D01*
X155179547Y-111697563D01*
X155160606Y-111713110D01*
X155145062Y-111732053D01*
X155133512Y-111753664D01*
X155126400Y-111777114D01*
X155124000Y-111801492D01*
X155124000Y-112375800D01*
X152724000Y-112375800D01*
X152724000Y-109975800D01*
X155124000Y-109975800D01*
X155124000Y-110550108D01*
X155124000Y-110550108D01*
G37*
G36*
X163224000Y-105475800D02*
X160824000Y-105475800D01*
X160824000Y-101875800D01*
X163224000Y-101875800D01*
X163224000Y-105475800D01*
X163224000Y-105475800D01*
G37*
G36*
X152024000Y-105475800D02*
X149624000Y-105475800D01*
X149624000Y-101875800D01*
X152024000Y-101875800D01*
X152024000Y-105475800D01*
X152024000Y-105475800D01*
G37*
G36*
X159274026Y-95521915D02*
X159492412Y-95612373D01*
X159688958Y-95743701D01*
X159856099Y-95910842D01*
X159987427Y-96107388D01*
X160077885Y-96325774D01*
X160124000Y-96557609D01*
X160124000Y-96793991D01*
X160077885Y-97025826D01*
X159987427Y-97244212D01*
X159856099Y-97440758D01*
X159688958Y-97607899D01*
X159492412Y-97739227D01*
X159274026Y-97829685D01*
X159042191Y-97875800D01*
X158805809Y-97875800D01*
X158573974Y-97829685D01*
X158355588Y-97739227D01*
X158159042Y-97607899D01*
X157991901Y-97440758D01*
X157860573Y-97244212D01*
X157770115Y-97025826D01*
X157724000Y-96793991D01*
X157724000Y-96557609D01*
X157770115Y-96325774D01*
X157860573Y-96107388D01*
X157991901Y-95910842D01*
X158159042Y-95743701D01*
X158355588Y-95612373D01*
X158573974Y-95521915D01*
X158805809Y-95475800D01*
X159042191Y-95475800D01*
X159274026Y-95521915D01*
X159274026Y-95521915D01*
G37*
G36*
X154274026Y-95521915D02*
X154492412Y-95612373D01*
X154688958Y-95743701D01*
X154856099Y-95910842D01*
X154987427Y-96107388D01*
X155077885Y-96325774D01*
X155124000Y-96557609D01*
X155124000Y-96793991D01*
X155077885Y-97025826D01*
X154987427Y-97244212D01*
X154856099Y-97440758D01*
X154688958Y-97607899D01*
X154492412Y-97739227D01*
X154274026Y-97829685D01*
X154042191Y-97875800D01*
X153805809Y-97875800D01*
X153573974Y-97829685D01*
X153355588Y-97739227D01*
X153159042Y-97607899D01*
X152991901Y-97440758D01*
X152860573Y-97244212D01*
X152770115Y-97025826D01*
X152724000Y-96793991D01*
X152724000Y-96557609D01*
X152770115Y-96325774D01*
X152860573Y-96107388D01*
X152991901Y-95910842D01*
X153159042Y-95743701D01*
X153355588Y-95612373D01*
X153573974Y-95521915D01*
X153805809Y-95475800D01*
X154042191Y-95475800D01*
X154274026Y-95521915D01*
X154274026Y-95521915D01*
G37*
M02*
