G04 #@! TF.GenerationSoftware,KiCad,Pcbnew,5.0.2-5.fc29*
G04 #@! TF.CreationDate,2022-04-25T14:20:45+02:00*
G04 #@! TF.ProjectId,zynthian_controller_single2_smd_sh,7a796e74-6869-4616-9e5f-636f6e74726f,rev?*
G04 #@! TF.SameCoordinates,Original*
G04 #@! TF.FileFunction,Copper,L1,Top*
G04 #@! TF.FilePolarity,Positive*
%FSLAX46Y46*%
G04 Gerber Fmt 4.6, Leading zero omitted, Abs format (unit mm)*
G04 Created by KiCad (PCBNEW 5.0.2-5.fc29) date lun 25 abr 2022 14:20:45 CEST*
%MOMM*%
%LPD*%
G01*
G04 APERTURE LIST*
G04 #@! TA.AperFunction,ComponentPad*
%ADD10R,2.000000X2.000000*%
G04 #@! TD*
G04 #@! TA.AperFunction,ComponentPad*
%ADD11C,2.000000*%
G04 #@! TD*
G04 #@! TA.AperFunction,ComponentPad*
%ADD12R,2.000000X3.200000*%
G04 #@! TD*
G04 #@! TA.AperFunction,Conductor*
%ADD13C,0.100000*%
G04 #@! TD*
G04 #@! TA.AperFunction,SMDPad,CuDef*
%ADD14C,0.975000*%
G04 #@! TD*
G04 #@! TA.AperFunction,SMDPad,CuDef*
%ADD15C,1.200000*%
G04 #@! TD*
G04 #@! TA.AperFunction,SMDPad,CuDef*
%ADD16C,0.600000*%
G04 #@! TD*
G04 #@! TA.AperFunction,ViaPad*
%ADD17C,0.600000*%
G04 #@! TD*
G04 #@! TA.AperFunction,Conductor*
%ADD18C,0.250000*%
G04 #@! TD*
G04 #@! TA.AperFunction,Conductor*
%ADD19C,0.254000*%
G04 #@! TD*
G04 APERTURE END LIST*
D10*
G04 #@! TO.P,SW1,A*
G04 #@! TO.N,N/C*
X153924000Y-111175800D03*
D11*
G04 #@! TO.P,SW1,C*
X156424000Y-111175800D03*
G04 #@! TO.P,SW1,B*
X158924000Y-111175800D03*
D12*
G04 #@! TO.P,SW1,MP*
X150824000Y-103675800D03*
X162024000Y-103675800D03*
D11*
G04 #@! TO.P,SW1,S2*
X153924000Y-96675800D03*
G04 #@! TO.P,SW1,S1*
X158924000Y-96675800D03*
G04 #@! TD*
D13*
G04 #@! TO.N,CON-4*
G04 #@! TO.C,C1*
G36*
X162278142Y-113798674D02*
X162301803Y-113802184D01*
X162325007Y-113807996D01*
X162347529Y-113816054D01*
X162369153Y-113826282D01*
X162389670Y-113838579D01*
X162408883Y-113852829D01*
X162426607Y-113868893D01*
X162442671Y-113886617D01*
X162456921Y-113905830D01*
X162469218Y-113926347D01*
X162479446Y-113947971D01*
X162487504Y-113970493D01*
X162493316Y-113993697D01*
X162496826Y-114017358D01*
X162498000Y-114041250D01*
X162498000Y-114528750D01*
X162496826Y-114552642D01*
X162493316Y-114576303D01*
X162487504Y-114599507D01*
X162479446Y-114622029D01*
X162469218Y-114643653D01*
X162456921Y-114664170D01*
X162442671Y-114683383D01*
X162426607Y-114701107D01*
X162408883Y-114717171D01*
X162389670Y-114731421D01*
X162369153Y-114743718D01*
X162347529Y-114753946D01*
X162325007Y-114762004D01*
X162301803Y-114767816D01*
X162278142Y-114771326D01*
X162254250Y-114772500D01*
X161341750Y-114772500D01*
X161317858Y-114771326D01*
X161294197Y-114767816D01*
X161270993Y-114762004D01*
X161248471Y-114753946D01*
X161226847Y-114743718D01*
X161206330Y-114731421D01*
X161187117Y-114717171D01*
X161169393Y-114701107D01*
X161153329Y-114683383D01*
X161139079Y-114664170D01*
X161126782Y-114643653D01*
X161116554Y-114622029D01*
X161108496Y-114599507D01*
X161102684Y-114576303D01*
X161099174Y-114552642D01*
X161098000Y-114528750D01*
X161098000Y-114041250D01*
X161099174Y-114017358D01*
X161102684Y-113993697D01*
X161108496Y-113970493D01*
X161116554Y-113947971D01*
X161126782Y-113926347D01*
X161139079Y-113905830D01*
X161153329Y-113886617D01*
X161169393Y-113868893D01*
X161187117Y-113852829D01*
X161206330Y-113838579D01*
X161226847Y-113826282D01*
X161248471Y-113816054D01*
X161270993Y-113807996D01*
X161294197Y-113802184D01*
X161317858Y-113798674D01*
X161341750Y-113797500D01*
X162254250Y-113797500D01*
X162278142Y-113798674D01*
X162278142Y-113798674D01*
G37*
D14*
G04 #@! TD*
G04 #@! TO.P,C1,2*
G04 #@! TO.N,CON-4*
X161798000Y-114285000D03*
D13*
G04 #@! TO.N,CON-3*
G04 #@! TO.C,C1*
G36*
X162278142Y-111923674D02*
X162301803Y-111927184D01*
X162325007Y-111932996D01*
X162347529Y-111941054D01*
X162369153Y-111951282D01*
X162389670Y-111963579D01*
X162408883Y-111977829D01*
X162426607Y-111993893D01*
X162442671Y-112011617D01*
X162456921Y-112030830D01*
X162469218Y-112051347D01*
X162479446Y-112072971D01*
X162487504Y-112095493D01*
X162493316Y-112118697D01*
X162496826Y-112142358D01*
X162498000Y-112166250D01*
X162498000Y-112653750D01*
X162496826Y-112677642D01*
X162493316Y-112701303D01*
X162487504Y-112724507D01*
X162479446Y-112747029D01*
X162469218Y-112768653D01*
X162456921Y-112789170D01*
X162442671Y-112808383D01*
X162426607Y-112826107D01*
X162408883Y-112842171D01*
X162389670Y-112856421D01*
X162369153Y-112868718D01*
X162347529Y-112878946D01*
X162325007Y-112887004D01*
X162301803Y-112892816D01*
X162278142Y-112896326D01*
X162254250Y-112897500D01*
X161341750Y-112897500D01*
X161317858Y-112896326D01*
X161294197Y-112892816D01*
X161270993Y-112887004D01*
X161248471Y-112878946D01*
X161226847Y-112868718D01*
X161206330Y-112856421D01*
X161187117Y-112842171D01*
X161169393Y-112826107D01*
X161153329Y-112808383D01*
X161139079Y-112789170D01*
X161126782Y-112768653D01*
X161116554Y-112747029D01*
X161108496Y-112724507D01*
X161102684Y-112701303D01*
X161099174Y-112677642D01*
X161098000Y-112653750D01*
X161098000Y-112166250D01*
X161099174Y-112142358D01*
X161102684Y-112118697D01*
X161108496Y-112095493D01*
X161116554Y-112072971D01*
X161126782Y-112051347D01*
X161139079Y-112030830D01*
X161153329Y-112011617D01*
X161169393Y-111993893D01*
X161187117Y-111977829D01*
X161206330Y-111963579D01*
X161226847Y-111951282D01*
X161248471Y-111941054D01*
X161270993Y-111932996D01*
X161294197Y-111927184D01*
X161317858Y-111923674D01*
X161341750Y-111922500D01*
X162254250Y-111922500D01*
X162278142Y-111923674D01*
X162278142Y-111923674D01*
G37*
D14*
G04 #@! TD*
G04 #@! TO.P,C1,1*
G04 #@! TO.N,CON-3*
X161798000Y-112410000D03*
D13*
G04 #@! TO.N,CON-4*
G04 #@! TO.C,C2*
G36*
X162278142Y-117735674D02*
X162301803Y-117739184D01*
X162325007Y-117744996D01*
X162347529Y-117753054D01*
X162369153Y-117763282D01*
X162389670Y-117775579D01*
X162408883Y-117789829D01*
X162426607Y-117805893D01*
X162442671Y-117823617D01*
X162456921Y-117842830D01*
X162469218Y-117863347D01*
X162479446Y-117884971D01*
X162487504Y-117907493D01*
X162493316Y-117930697D01*
X162496826Y-117954358D01*
X162498000Y-117978250D01*
X162498000Y-118465750D01*
X162496826Y-118489642D01*
X162493316Y-118513303D01*
X162487504Y-118536507D01*
X162479446Y-118559029D01*
X162469218Y-118580653D01*
X162456921Y-118601170D01*
X162442671Y-118620383D01*
X162426607Y-118638107D01*
X162408883Y-118654171D01*
X162389670Y-118668421D01*
X162369153Y-118680718D01*
X162347529Y-118690946D01*
X162325007Y-118699004D01*
X162301803Y-118704816D01*
X162278142Y-118708326D01*
X162254250Y-118709500D01*
X161341750Y-118709500D01*
X161317858Y-118708326D01*
X161294197Y-118704816D01*
X161270993Y-118699004D01*
X161248471Y-118690946D01*
X161226847Y-118680718D01*
X161206330Y-118668421D01*
X161187117Y-118654171D01*
X161169393Y-118638107D01*
X161153329Y-118620383D01*
X161139079Y-118601170D01*
X161126782Y-118580653D01*
X161116554Y-118559029D01*
X161108496Y-118536507D01*
X161102684Y-118513303D01*
X161099174Y-118489642D01*
X161098000Y-118465750D01*
X161098000Y-117978250D01*
X161099174Y-117954358D01*
X161102684Y-117930697D01*
X161108496Y-117907493D01*
X161116554Y-117884971D01*
X161126782Y-117863347D01*
X161139079Y-117842830D01*
X161153329Y-117823617D01*
X161169393Y-117805893D01*
X161187117Y-117789829D01*
X161206330Y-117775579D01*
X161226847Y-117763282D01*
X161248471Y-117753054D01*
X161270993Y-117744996D01*
X161294197Y-117739184D01*
X161317858Y-117735674D01*
X161341750Y-117734500D01*
X162254250Y-117734500D01*
X162278142Y-117735674D01*
X162278142Y-117735674D01*
G37*
D14*
G04 #@! TD*
G04 #@! TO.P,C2,2*
G04 #@! TO.N,CON-4*
X161798000Y-118222000D03*
D13*
G04 #@! TO.N,CON-2*
G04 #@! TO.C,C2*
G36*
X162278142Y-115860674D02*
X162301803Y-115864184D01*
X162325007Y-115869996D01*
X162347529Y-115878054D01*
X162369153Y-115888282D01*
X162389670Y-115900579D01*
X162408883Y-115914829D01*
X162426607Y-115930893D01*
X162442671Y-115948617D01*
X162456921Y-115967830D01*
X162469218Y-115988347D01*
X162479446Y-116009971D01*
X162487504Y-116032493D01*
X162493316Y-116055697D01*
X162496826Y-116079358D01*
X162498000Y-116103250D01*
X162498000Y-116590750D01*
X162496826Y-116614642D01*
X162493316Y-116638303D01*
X162487504Y-116661507D01*
X162479446Y-116684029D01*
X162469218Y-116705653D01*
X162456921Y-116726170D01*
X162442671Y-116745383D01*
X162426607Y-116763107D01*
X162408883Y-116779171D01*
X162389670Y-116793421D01*
X162369153Y-116805718D01*
X162347529Y-116815946D01*
X162325007Y-116824004D01*
X162301803Y-116829816D01*
X162278142Y-116833326D01*
X162254250Y-116834500D01*
X161341750Y-116834500D01*
X161317858Y-116833326D01*
X161294197Y-116829816D01*
X161270993Y-116824004D01*
X161248471Y-116815946D01*
X161226847Y-116805718D01*
X161206330Y-116793421D01*
X161187117Y-116779171D01*
X161169393Y-116763107D01*
X161153329Y-116745383D01*
X161139079Y-116726170D01*
X161126782Y-116705653D01*
X161116554Y-116684029D01*
X161108496Y-116661507D01*
X161102684Y-116638303D01*
X161099174Y-116614642D01*
X161098000Y-116590750D01*
X161098000Y-116103250D01*
X161099174Y-116079358D01*
X161102684Y-116055697D01*
X161108496Y-116032493D01*
X161116554Y-116009971D01*
X161126782Y-115988347D01*
X161139079Y-115967830D01*
X161153329Y-115948617D01*
X161169393Y-115930893D01*
X161187117Y-115914829D01*
X161206330Y-115900579D01*
X161226847Y-115888282D01*
X161248471Y-115878054D01*
X161270993Y-115869996D01*
X161294197Y-115864184D01*
X161317858Y-115860674D01*
X161341750Y-115859500D01*
X162254250Y-115859500D01*
X162278142Y-115860674D01*
X162278142Y-115860674D01*
G37*
D14*
G04 #@! TD*
G04 #@! TO.P,C2,1*
G04 #@! TO.N,CON-2*
X161798000Y-116347000D03*
D13*
G04 #@! TO.N,CON-4*
G04 #@! TO.C,C3*
G36*
X151292642Y-115005174D02*
X151316303Y-115008684D01*
X151339507Y-115014496D01*
X151362029Y-115022554D01*
X151383653Y-115032782D01*
X151404170Y-115045079D01*
X151423383Y-115059329D01*
X151441107Y-115075393D01*
X151457171Y-115093117D01*
X151471421Y-115112330D01*
X151483718Y-115132847D01*
X151493946Y-115154471D01*
X151502004Y-115176993D01*
X151507816Y-115200197D01*
X151511326Y-115223858D01*
X151512500Y-115247750D01*
X151512500Y-115735250D01*
X151511326Y-115759142D01*
X151507816Y-115782803D01*
X151502004Y-115806007D01*
X151493946Y-115828529D01*
X151483718Y-115850153D01*
X151471421Y-115870670D01*
X151457171Y-115889883D01*
X151441107Y-115907607D01*
X151423383Y-115923671D01*
X151404170Y-115937921D01*
X151383653Y-115950218D01*
X151362029Y-115960446D01*
X151339507Y-115968504D01*
X151316303Y-115974316D01*
X151292642Y-115977826D01*
X151268750Y-115979000D01*
X150356250Y-115979000D01*
X150332358Y-115977826D01*
X150308697Y-115974316D01*
X150285493Y-115968504D01*
X150262971Y-115960446D01*
X150241347Y-115950218D01*
X150220830Y-115937921D01*
X150201617Y-115923671D01*
X150183893Y-115907607D01*
X150167829Y-115889883D01*
X150153579Y-115870670D01*
X150141282Y-115850153D01*
X150131054Y-115828529D01*
X150122996Y-115806007D01*
X150117184Y-115782803D01*
X150113674Y-115759142D01*
X150112500Y-115735250D01*
X150112500Y-115247750D01*
X150113674Y-115223858D01*
X150117184Y-115200197D01*
X150122996Y-115176993D01*
X150131054Y-115154471D01*
X150141282Y-115132847D01*
X150153579Y-115112330D01*
X150167829Y-115093117D01*
X150183893Y-115075393D01*
X150201617Y-115059329D01*
X150220830Y-115045079D01*
X150241347Y-115032782D01*
X150262971Y-115022554D01*
X150285493Y-115014496D01*
X150308697Y-115008684D01*
X150332358Y-115005174D01*
X150356250Y-115004000D01*
X151268750Y-115004000D01*
X151292642Y-115005174D01*
X151292642Y-115005174D01*
G37*
D14*
G04 #@! TD*
G04 #@! TO.P,C3,2*
G04 #@! TO.N,CON-4*
X150812500Y-115491500D03*
D13*
G04 #@! TO.N,CON-1*
G04 #@! TO.C,C3*
G36*
X151292642Y-113130174D02*
X151316303Y-113133684D01*
X151339507Y-113139496D01*
X151362029Y-113147554D01*
X151383653Y-113157782D01*
X151404170Y-113170079D01*
X151423383Y-113184329D01*
X151441107Y-113200393D01*
X151457171Y-113218117D01*
X151471421Y-113237330D01*
X151483718Y-113257847D01*
X151493946Y-113279471D01*
X151502004Y-113301993D01*
X151507816Y-113325197D01*
X151511326Y-113348858D01*
X151512500Y-113372750D01*
X151512500Y-113860250D01*
X151511326Y-113884142D01*
X151507816Y-113907803D01*
X151502004Y-113931007D01*
X151493946Y-113953529D01*
X151483718Y-113975153D01*
X151471421Y-113995670D01*
X151457171Y-114014883D01*
X151441107Y-114032607D01*
X151423383Y-114048671D01*
X151404170Y-114062921D01*
X151383653Y-114075218D01*
X151362029Y-114085446D01*
X151339507Y-114093504D01*
X151316303Y-114099316D01*
X151292642Y-114102826D01*
X151268750Y-114104000D01*
X150356250Y-114104000D01*
X150332358Y-114102826D01*
X150308697Y-114099316D01*
X150285493Y-114093504D01*
X150262971Y-114085446D01*
X150241347Y-114075218D01*
X150220830Y-114062921D01*
X150201617Y-114048671D01*
X150183893Y-114032607D01*
X150167829Y-114014883D01*
X150153579Y-113995670D01*
X150141282Y-113975153D01*
X150131054Y-113953529D01*
X150122996Y-113931007D01*
X150117184Y-113907803D01*
X150113674Y-113884142D01*
X150112500Y-113860250D01*
X150112500Y-113372750D01*
X150113674Y-113348858D01*
X150117184Y-113325197D01*
X150122996Y-113301993D01*
X150131054Y-113279471D01*
X150141282Y-113257847D01*
X150153579Y-113237330D01*
X150167829Y-113218117D01*
X150183893Y-113200393D01*
X150201617Y-113184329D01*
X150220830Y-113170079D01*
X150241347Y-113157782D01*
X150262971Y-113147554D01*
X150285493Y-113139496D01*
X150308697Y-113133684D01*
X150332358Y-113130174D01*
X150356250Y-113129000D01*
X151268750Y-113129000D01*
X151292642Y-113130174D01*
X151292642Y-113130174D01*
G37*
D14*
G04 #@! TD*
G04 #@! TO.P,C3,1*
G04 #@! TO.N,CON-1*
X150812500Y-113616500D03*
D13*
G04 #@! TO.N,N/C*
G04 #@! TO.C,J1*
G36*
X159638505Y-116927204D02*
X159662773Y-116930804D01*
X159686572Y-116936765D01*
X159709671Y-116945030D01*
X159731850Y-116955520D01*
X159752893Y-116968132D01*
X159772599Y-116982747D01*
X159790777Y-116999223D01*
X159807253Y-117017401D01*
X159821868Y-117037107D01*
X159834480Y-117058150D01*
X159844970Y-117080329D01*
X159853235Y-117103428D01*
X159859196Y-117127227D01*
X159862796Y-117151495D01*
X159864000Y-117175999D01*
X159864000Y-118476001D01*
X159862796Y-118500505D01*
X159859196Y-118524773D01*
X159853235Y-118548572D01*
X159844970Y-118571671D01*
X159834480Y-118593850D01*
X159821868Y-118614893D01*
X159807253Y-118634599D01*
X159790777Y-118652777D01*
X159772599Y-118669253D01*
X159752893Y-118683868D01*
X159731850Y-118696480D01*
X159709671Y-118706970D01*
X159686572Y-118715235D01*
X159662773Y-118721196D01*
X159638505Y-118724796D01*
X159614001Y-118726000D01*
X158913999Y-118726000D01*
X158889495Y-118724796D01*
X158865227Y-118721196D01*
X158841428Y-118715235D01*
X158818329Y-118706970D01*
X158796150Y-118696480D01*
X158775107Y-118683868D01*
X158755401Y-118669253D01*
X158737223Y-118652777D01*
X158720747Y-118634599D01*
X158706132Y-118614893D01*
X158693520Y-118593850D01*
X158683030Y-118571671D01*
X158674765Y-118548572D01*
X158668804Y-118524773D01*
X158665204Y-118500505D01*
X158664000Y-118476001D01*
X158664000Y-117175999D01*
X158665204Y-117151495D01*
X158668804Y-117127227D01*
X158674765Y-117103428D01*
X158683030Y-117080329D01*
X158693520Y-117058150D01*
X158706132Y-117037107D01*
X158720747Y-117017401D01*
X158737223Y-116999223D01*
X158755401Y-116982747D01*
X158775107Y-116968132D01*
X158796150Y-116955520D01*
X158818329Y-116945030D01*
X158841428Y-116936765D01*
X158865227Y-116930804D01*
X158889495Y-116927204D01*
X158913999Y-116926000D01*
X159614001Y-116926000D01*
X159638505Y-116927204D01*
X159638505Y-116927204D01*
G37*
D15*
G04 #@! TD*
G04 #@! TO.P,J1,MP*
G04 #@! TO.N,N/C*
X159264000Y-117826000D03*
D13*
G04 #@! TO.N,N/C*
G04 #@! TO.C,J1*
G36*
X154038505Y-116927204D02*
X154062773Y-116930804D01*
X154086572Y-116936765D01*
X154109671Y-116945030D01*
X154131850Y-116955520D01*
X154152893Y-116968132D01*
X154172599Y-116982747D01*
X154190777Y-116999223D01*
X154207253Y-117017401D01*
X154221868Y-117037107D01*
X154234480Y-117058150D01*
X154244970Y-117080329D01*
X154253235Y-117103428D01*
X154259196Y-117127227D01*
X154262796Y-117151495D01*
X154264000Y-117175999D01*
X154264000Y-118476001D01*
X154262796Y-118500505D01*
X154259196Y-118524773D01*
X154253235Y-118548572D01*
X154244970Y-118571671D01*
X154234480Y-118593850D01*
X154221868Y-118614893D01*
X154207253Y-118634599D01*
X154190777Y-118652777D01*
X154172599Y-118669253D01*
X154152893Y-118683868D01*
X154131850Y-118696480D01*
X154109671Y-118706970D01*
X154086572Y-118715235D01*
X154062773Y-118721196D01*
X154038505Y-118724796D01*
X154014001Y-118726000D01*
X153313999Y-118726000D01*
X153289495Y-118724796D01*
X153265227Y-118721196D01*
X153241428Y-118715235D01*
X153218329Y-118706970D01*
X153196150Y-118696480D01*
X153175107Y-118683868D01*
X153155401Y-118669253D01*
X153137223Y-118652777D01*
X153120747Y-118634599D01*
X153106132Y-118614893D01*
X153093520Y-118593850D01*
X153083030Y-118571671D01*
X153074765Y-118548572D01*
X153068804Y-118524773D01*
X153065204Y-118500505D01*
X153064000Y-118476001D01*
X153064000Y-117175999D01*
X153065204Y-117151495D01*
X153068804Y-117127227D01*
X153074765Y-117103428D01*
X153083030Y-117080329D01*
X153093520Y-117058150D01*
X153106132Y-117037107D01*
X153120747Y-117017401D01*
X153137223Y-116999223D01*
X153155401Y-116982747D01*
X153175107Y-116968132D01*
X153196150Y-116955520D01*
X153218329Y-116945030D01*
X153241428Y-116936765D01*
X153265227Y-116930804D01*
X153289495Y-116927204D01*
X153313999Y-116926000D01*
X154014001Y-116926000D01*
X154038505Y-116927204D01*
X154038505Y-116927204D01*
G37*
D15*
G04 #@! TD*
G04 #@! TO.P,J1,MP*
G04 #@! TO.N,N/C*
X153664000Y-117826000D03*
D13*
G04 #@! TO.N,CON-4*
G04 #@! TO.C,J1*
G36*
X158128703Y-113176722D02*
X158143264Y-113178882D01*
X158157543Y-113182459D01*
X158171403Y-113187418D01*
X158184710Y-113193712D01*
X158197336Y-113201280D01*
X158209159Y-113210048D01*
X158220066Y-113219934D01*
X158229952Y-113230841D01*
X158238720Y-113242664D01*
X158246288Y-113255290D01*
X158252582Y-113268597D01*
X158257541Y-113282457D01*
X158261118Y-113296736D01*
X158263278Y-113311297D01*
X158264000Y-113326000D01*
X158264000Y-114576000D01*
X158263278Y-114590703D01*
X158261118Y-114605264D01*
X158257541Y-114619543D01*
X158252582Y-114633403D01*
X158246288Y-114646710D01*
X158238720Y-114659336D01*
X158229952Y-114671159D01*
X158220066Y-114682066D01*
X158209159Y-114691952D01*
X158197336Y-114700720D01*
X158184710Y-114708288D01*
X158171403Y-114714582D01*
X158157543Y-114719541D01*
X158143264Y-114723118D01*
X158128703Y-114725278D01*
X158114000Y-114726000D01*
X157814000Y-114726000D01*
X157799297Y-114725278D01*
X157784736Y-114723118D01*
X157770457Y-114719541D01*
X157756597Y-114714582D01*
X157743290Y-114708288D01*
X157730664Y-114700720D01*
X157718841Y-114691952D01*
X157707934Y-114682066D01*
X157698048Y-114671159D01*
X157689280Y-114659336D01*
X157681712Y-114646710D01*
X157675418Y-114633403D01*
X157670459Y-114619543D01*
X157666882Y-114605264D01*
X157664722Y-114590703D01*
X157664000Y-114576000D01*
X157664000Y-113326000D01*
X157664722Y-113311297D01*
X157666882Y-113296736D01*
X157670459Y-113282457D01*
X157675418Y-113268597D01*
X157681712Y-113255290D01*
X157689280Y-113242664D01*
X157698048Y-113230841D01*
X157707934Y-113219934D01*
X157718841Y-113210048D01*
X157730664Y-113201280D01*
X157743290Y-113193712D01*
X157756597Y-113187418D01*
X157770457Y-113182459D01*
X157784736Y-113178882D01*
X157799297Y-113176722D01*
X157814000Y-113176000D01*
X158114000Y-113176000D01*
X158128703Y-113176722D01*
X158128703Y-113176722D01*
G37*
D16*
G04 #@! TD*
G04 #@! TO.P,J1,4*
G04 #@! TO.N,CON-4*
X157964000Y-113951000D03*
D13*
G04 #@! TO.N,CON-3*
G04 #@! TO.C,J1*
G36*
X157128703Y-113176722D02*
X157143264Y-113178882D01*
X157157543Y-113182459D01*
X157171403Y-113187418D01*
X157184710Y-113193712D01*
X157197336Y-113201280D01*
X157209159Y-113210048D01*
X157220066Y-113219934D01*
X157229952Y-113230841D01*
X157238720Y-113242664D01*
X157246288Y-113255290D01*
X157252582Y-113268597D01*
X157257541Y-113282457D01*
X157261118Y-113296736D01*
X157263278Y-113311297D01*
X157264000Y-113326000D01*
X157264000Y-114576000D01*
X157263278Y-114590703D01*
X157261118Y-114605264D01*
X157257541Y-114619543D01*
X157252582Y-114633403D01*
X157246288Y-114646710D01*
X157238720Y-114659336D01*
X157229952Y-114671159D01*
X157220066Y-114682066D01*
X157209159Y-114691952D01*
X157197336Y-114700720D01*
X157184710Y-114708288D01*
X157171403Y-114714582D01*
X157157543Y-114719541D01*
X157143264Y-114723118D01*
X157128703Y-114725278D01*
X157114000Y-114726000D01*
X156814000Y-114726000D01*
X156799297Y-114725278D01*
X156784736Y-114723118D01*
X156770457Y-114719541D01*
X156756597Y-114714582D01*
X156743290Y-114708288D01*
X156730664Y-114700720D01*
X156718841Y-114691952D01*
X156707934Y-114682066D01*
X156698048Y-114671159D01*
X156689280Y-114659336D01*
X156681712Y-114646710D01*
X156675418Y-114633403D01*
X156670459Y-114619543D01*
X156666882Y-114605264D01*
X156664722Y-114590703D01*
X156664000Y-114576000D01*
X156664000Y-113326000D01*
X156664722Y-113311297D01*
X156666882Y-113296736D01*
X156670459Y-113282457D01*
X156675418Y-113268597D01*
X156681712Y-113255290D01*
X156689280Y-113242664D01*
X156698048Y-113230841D01*
X156707934Y-113219934D01*
X156718841Y-113210048D01*
X156730664Y-113201280D01*
X156743290Y-113193712D01*
X156756597Y-113187418D01*
X156770457Y-113182459D01*
X156784736Y-113178882D01*
X156799297Y-113176722D01*
X156814000Y-113176000D01*
X157114000Y-113176000D01*
X157128703Y-113176722D01*
X157128703Y-113176722D01*
G37*
D16*
G04 #@! TD*
G04 #@! TO.P,J1,3*
G04 #@! TO.N,CON-3*
X156964000Y-113951000D03*
D13*
G04 #@! TO.N,CON-2*
G04 #@! TO.C,J1*
G36*
X156128703Y-113176722D02*
X156143264Y-113178882D01*
X156157543Y-113182459D01*
X156171403Y-113187418D01*
X156184710Y-113193712D01*
X156197336Y-113201280D01*
X156209159Y-113210048D01*
X156220066Y-113219934D01*
X156229952Y-113230841D01*
X156238720Y-113242664D01*
X156246288Y-113255290D01*
X156252582Y-113268597D01*
X156257541Y-113282457D01*
X156261118Y-113296736D01*
X156263278Y-113311297D01*
X156264000Y-113326000D01*
X156264000Y-114576000D01*
X156263278Y-114590703D01*
X156261118Y-114605264D01*
X156257541Y-114619543D01*
X156252582Y-114633403D01*
X156246288Y-114646710D01*
X156238720Y-114659336D01*
X156229952Y-114671159D01*
X156220066Y-114682066D01*
X156209159Y-114691952D01*
X156197336Y-114700720D01*
X156184710Y-114708288D01*
X156171403Y-114714582D01*
X156157543Y-114719541D01*
X156143264Y-114723118D01*
X156128703Y-114725278D01*
X156114000Y-114726000D01*
X155814000Y-114726000D01*
X155799297Y-114725278D01*
X155784736Y-114723118D01*
X155770457Y-114719541D01*
X155756597Y-114714582D01*
X155743290Y-114708288D01*
X155730664Y-114700720D01*
X155718841Y-114691952D01*
X155707934Y-114682066D01*
X155698048Y-114671159D01*
X155689280Y-114659336D01*
X155681712Y-114646710D01*
X155675418Y-114633403D01*
X155670459Y-114619543D01*
X155666882Y-114605264D01*
X155664722Y-114590703D01*
X155664000Y-114576000D01*
X155664000Y-113326000D01*
X155664722Y-113311297D01*
X155666882Y-113296736D01*
X155670459Y-113282457D01*
X155675418Y-113268597D01*
X155681712Y-113255290D01*
X155689280Y-113242664D01*
X155698048Y-113230841D01*
X155707934Y-113219934D01*
X155718841Y-113210048D01*
X155730664Y-113201280D01*
X155743290Y-113193712D01*
X155756597Y-113187418D01*
X155770457Y-113182459D01*
X155784736Y-113178882D01*
X155799297Y-113176722D01*
X155814000Y-113176000D01*
X156114000Y-113176000D01*
X156128703Y-113176722D01*
X156128703Y-113176722D01*
G37*
D16*
G04 #@! TD*
G04 #@! TO.P,J1,2*
G04 #@! TO.N,CON-2*
X155964000Y-113951000D03*
D13*
G04 #@! TO.N,CON-1*
G04 #@! TO.C,J1*
G36*
X155128703Y-113176722D02*
X155143264Y-113178882D01*
X155157543Y-113182459D01*
X155171403Y-113187418D01*
X155184710Y-113193712D01*
X155197336Y-113201280D01*
X155209159Y-113210048D01*
X155220066Y-113219934D01*
X155229952Y-113230841D01*
X155238720Y-113242664D01*
X155246288Y-113255290D01*
X155252582Y-113268597D01*
X155257541Y-113282457D01*
X155261118Y-113296736D01*
X155263278Y-113311297D01*
X155264000Y-113326000D01*
X155264000Y-114576000D01*
X155263278Y-114590703D01*
X155261118Y-114605264D01*
X155257541Y-114619543D01*
X155252582Y-114633403D01*
X155246288Y-114646710D01*
X155238720Y-114659336D01*
X155229952Y-114671159D01*
X155220066Y-114682066D01*
X155209159Y-114691952D01*
X155197336Y-114700720D01*
X155184710Y-114708288D01*
X155171403Y-114714582D01*
X155157543Y-114719541D01*
X155143264Y-114723118D01*
X155128703Y-114725278D01*
X155114000Y-114726000D01*
X154814000Y-114726000D01*
X154799297Y-114725278D01*
X154784736Y-114723118D01*
X154770457Y-114719541D01*
X154756597Y-114714582D01*
X154743290Y-114708288D01*
X154730664Y-114700720D01*
X154718841Y-114691952D01*
X154707934Y-114682066D01*
X154698048Y-114671159D01*
X154689280Y-114659336D01*
X154681712Y-114646710D01*
X154675418Y-114633403D01*
X154670459Y-114619543D01*
X154666882Y-114605264D01*
X154664722Y-114590703D01*
X154664000Y-114576000D01*
X154664000Y-113326000D01*
X154664722Y-113311297D01*
X154666882Y-113296736D01*
X154670459Y-113282457D01*
X154675418Y-113268597D01*
X154681712Y-113255290D01*
X154689280Y-113242664D01*
X154698048Y-113230841D01*
X154707934Y-113219934D01*
X154718841Y-113210048D01*
X154730664Y-113201280D01*
X154743290Y-113193712D01*
X154756597Y-113187418D01*
X154770457Y-113182459D01*
X154784736Y-113178882D01*
X154799297Y-113176722D01*
X154814000Y-113176000D01*
X155114000Y-113176000D01*
X155128703Y-113176722D01*
X155128703Y-113176722D01*
G37*
D16*
G04 #@! TD*
G04 #@! TO.P,J1,1*
G04 #@! TO.N,CON-1*
X154964000Y-113951000D03*
D17*
G04 #@! TO.N,CON-4*
X162600640Y-96710500D03*
G04 #@! TO.N,CON-2*
X155956000Y-115443000D03*
X157988000Y-117348000D03*
G04 #@! TO.N,CON-3*
X159639000Y-113538000D03*
X157480000Y-115443000D03*
G04 #@! TO.N,CON-4*
X157480000Y-116459000D03*
X151892000Y-116967000D03*
G04 #@! TD*
D18*
G04 #@! TO.N,CON-2*
X155956000Y-115443000D02*
X155956000Y-114046000D01*
X155956000Y-114046000D02*
X155964000Y-114013500D01*
X161798000Y-116284500D02*
X161798000Y-116332000D01*
X161798000Y-116332000D02*
X158496000Y-116332000D01*
X158496000Y-116332000D02*
X158115000Y-116713000D01*
X158115000Y-116713000D02*
X158115000Y-116840000D01*
X158115000Y-116840000D02*
X157988000Y-116967000D01*
X157988000Y-116967000D02*
X157988000Y-117348000D01*
G04 #@! TO.N,CON-1*
X153924000Y-111175800D02*
X153924000Y-111125000D01*
X153924000Y-111125000D02*
X154940000Y-112141000D01*
X154940000Y-112141000D02*
X154940000Y-114046000D01*
X154940000Y-114046000D02*
X154964000Y-114013500D01*
X154964000Y-114013500D02*
X154940000Y-114046000D01*
X154940000Y-114046000D02*
X151384000Y-114046000D01*
X151384000Y-114046000D02*
X150876000Y-113538000D01*
X150876000Y-113538000D02*
X150812500Y-113554000D01*
G04 #@! TO.N,CON-3*
X158924000Y-96675800D02*
X158877000Y-96647000D01*
X158877000Y-96647000D02*
X160655000Y-98425000D01*
X160655000Y-98425000D02*
X160655000Y-105664000D01*
X160655000Y-105664000D02*
X161798000Y-106807000D01*
X161798000Y-106807000D02*
X161798000Y-112347500D01*
X161798000Y-112347500D02*
X161798000Y-112395000D01*
X161798000Y-112395000D02*
X160782000Y-112395000D01*
X160782000Y-112395000D02*
X159639000Y-113538000D01*
X157480000Y-115443000D02*
X156972000Y-114935000D01*
X156972000Y-114935000D02*
X156972000Y-114046000D01*
X156972000Y-114046000D02*
X156964000Y-114013500D01*
G04 #@! TO.N,CON-4*
X156424000Y-111175800D02*
X156464000Y-111125000D01*
X156464000Y-111125000D02*
X155321000Y-109982000D01*
X155321000Y-109982000D02*
X155321000Y-109728000D01*
X155321000Y-109728000D02*
X153924000Y-108331000D01*
X153924000Y-108331000D02*
X153924000Y-96675800D01*
X157964000Y-114013500D02*
X157988000Y-114046000D01*
X157988000Y-114046000D02*
X158115000Y-114173000D01*
X158115000Y-114173000D02*
X158115000Y-115824000D01*
X158115000Y-115824000D02*
X157480000Y-116459000D01*
X151892000Y-116967000D02*
X150876000Y-115951000D01*
X150876000Y-115951000D02*
X150876000Y-115570000D01*
X150876000Y-115570000D02*
X150812500Y-115554000D01*
X157964000Y-114013500D02*
X157988000Y-114046000D01*
X157988000Y-114046000D02*
X157607000Y-113665000D01*
X157607000Y-113665000D02*
X157607000Y-112903000D01*
X157607000Y-112903000D02*
X156464000Y-111760000D01*
X156464000Y-111760000D02*
X156464000Y-111125000D01*
X156464000Y-111125000D02*
X156424000Y-111175800D01*
X161798000Y-114347500D02*
X161798000Y-114300000D01*
X161798000Y-114300000D02*
X158242000Y-114300000D01*
X158242000Y-114300000D02*
X157988000Y-114046000D01*
X157988000Y-114046000D02*
X157964000Y-114013500D01*
X161798000Y-118284500D02*
X161798000Y-118237000D01*
X161798000Y-118237000D02*
X162814000Y-117221000D01*
X162814000Y-117221000D02*
X162814000Y-115443000D01*
X162814000Y-115443000D02*
X161798000Y-114427000D01*
X161798000Y-114427000D02*
X161798000Y-114347500D01*
G04 #@! TD*
D19*
G04 #@! TO.N,CON-4*
G36*
X163374001Y-119178000D02*
X162927526Y-119178000D01*
X163036327Y-119069198D01*
X163133000Y-118835809D01*
X163133000Y-118507750D01*
X162974250Y-118349000D01*
X161925000Y-118349000D01*
X161925000Y-118369000D01*
X161671000Y-118369000D01*
X161671000Y-118349000D01*
X161651000Y-118349000D01*
X161651000Y-118095000D01*
X161671000Y-118095000D01*
X161671000Y-118075000D01*
X161925000Y-118075000D01*
X161925000Y-118095000D01*
X162974250Y-118095000D01*
X163133000Y-117936250D01*
X163133000Y-117608191D01*
X163036327Y-117374802D01*
X162883233Y-117221707D01*
X162884416Y-117220916D01*
X163077602Y-116931794D01*
X163145440Y-116590750D01*
X163145440Y-116103250D01*
X163077602Y-115762206D01*
X162884416Y-115473084D01*
X162724286Y-115366088D01*
X162857699Y-115310827D01*
X163036327Y-115132198D01*
X163133000Y-114898809D01*
X163133000Y-114570750D01*
X162974250Y-114412000D01*
X161925000Y-114412000D01*
X161925000Y-114432000D01*
X161671000Y-114432000D01*
X161671000Y-114412000D01*
X160621750Y-114412000D01*
X160463000Y-114570750D01*
X160463000Y-114898809D01*
X160559673Y-115132198D01*
X160738301Y-115310827D01*
X160871714Y-115366088D01*
X160711584Y-115473084D01*
X160645490Y-115572000D01*
X158570846Y-115572000D01*
X158495999Y-115557112D01*
X158421152Y-115572000D01*
X158421148Y-115572000D01*
X158415000Y-115573223D01*
X158415000Y-115350773D01*
X158623698Y-115264327D01*
X158802327Y-115085699D01*
X158899000Y-114852310D01*
X158899000Y-114236750D01*
X158740252Y-114078002D01*
X158856712Y-114078002D01*
X159109365Y-114330655D01*
X159453017Y-114473000D01*
X159824983Y-114473000D01*
X160168635Y-114330655D01*
X160431655Y-114067635D01*
X160463000Y-113991961D01*
X160463000Y-113999250D01*
X160621750Y-114158000D01*
X161671000Y-114158000D01*
X161671000Y-114138000D01*
X161925000Y-114138000D01*
X161925000Y-114158000D01*
X162974250Y-114158000D01*
X163133000Y-113999250D01*
X163133000Y-113671191D01*
X163036327Y-113437802D01*
X162883233Y-113284707D01*
X162884416Y-113283916D01*
X163077602Y-112994794D01*
X163145440Y-112653750D01*
X163145440Y-112166250D01*
X163077602Y-111825206D01*
X162884416Y-111536084D01*
X162595294Y-111342898D01*
X162558000Y-111335480D01*
X162558000Y-106881846D01*
X162572888Y-106806999D01*
X162558000Y-106732152D01*
X162558000Y-106732148D01*
X162513904Y-106510463D01*
X162345929Y-106259071D01*
X162282473Y-106216671D01*
X161989042Y-105923240D01*
X163024000Y-105923240D01*
X163271765Y-105873957D01*
X163374000Y-105805645D01*
X163374001Y-119178000D01*
X163374001Y-119178000D01*
G37*
X163374001Y-119178000D02*
X162927526Y-119178000D01*
X163036327Y-119069198D01*
X163133000Y-118835809D01*
X163133000Y-118507750D01*
X162974250Y-118349000D01*
X161925000Y-118349000D01*
X161925000Y-118369000D01*
X161671000Y-118369000D01*
X161671000Y-118349000D01*
X161651000Y-118349000D01*
X161651000Y-118095000D01*
X161671000Y-118095000D01*
X161671000Y-118075000D01*
X161925000Y-118075000D01*
X161925000Y-118095000D01*
X162974250Y-118095000D01*
X163133000Y-117936250D01*
X163133000Y-117608191D01*
X163036327Y-117374802D01*
X162883233Y-117221707D01*
X162884416Y-117220916D01*
X163077602Y-116931794D01*
X163145440Y-116590750D01*
X163145440Y-116103250D01*
X163077602Y-115762206D01*
X162884416Y-115473084D01*
X162724286Y-115366088D01*
X162857699Y-115310827D01*
X163036327Y-115132198D01*
X163133000Y-114898809D01*
X163133000Y-114570750D01*
X162974250Y-114412000D01*
X161925000Y-114412000D01*
X161925000Y-114432000D01*
X161671000Y-114432000D01*
X161671000Y-114412000D01*
X160621750Y-114412000D01*
X160463000Y-114570750D01*
X160463000Y-114898809D01*
X160559673Y-115132198D01*
X160738301Y-115310827D01*
X160871714Y-115366088D01*
X160711584Y-115473084D01*
X160645490Y-115572000D01*
X158570846Y-115572000D01*
X158495999Y-115557112D01*
X158421152Y-115572000D01*
X158421148Y-115572000D01*
X158415000Y-115573223D01*
X158415000Y-115350773D01*
X158623698Y-115264327D01*
X158802327Y-115085699D01*
X158899000Y-114852310D01*
X158899000Y-114236750D01*
X158740252Y-114078002D01*
X158856712Y-114078002D01*
X159109365Y-114330655D01*
X159453017Y-114473000D01*
X159824983Y-114473000D01*
X160168635Y-114330655D01*
X160431655Y-114067635D01*
X160463000Y-113991961D01*
X160463000Y-113999250D01*
X160621750Y-114158000D01*
X161671000Y-114158000D01*
X161671000Y-114138000D01*
X161925000Y-114138000D01*
X161925000Y-114158000D01*
X162974250Y-114158000D01*
X163133000Y-113999250D01*
X163133000Y-113671191D01*
X163036327Y-113437802D01*
X162883233Y-113284707D01*
X162884416Y-113283916D01*
X163077602Y-112994794D01*
X163145440Y-112653750D01*
X163145440Y-112166250D01*
X163077602Y-111825206D01*
X162884416Y-111536084D01*
X162595294Y-111342898D01*
X162558000Y-111335480D01*
X162558000Y-106881846D01*
X162572888Y-106806999D01*
X162558000Y-106732152D01*
X162558000Y-106732148D01*
X162513904Y-106510463D01*
X162345929Y-106259071D01*
X162282473Y-106216671D01*
X161989042Y-105923240D01*
X163024000Y-105923240D01*
X163271765Y-105873957D01*
X163374000Y-105805645D01*
X163374001Y-119178000D01*
G36*
X154077262Y-114881167D02*
X154250125Y-115139875D01*
X154508833Y-115312738D01*
X154814000Y-115373440D01*
X155021000Y-115373440D01*
X155021000Y-115628983D01*
X155163345Y-115972635D01*
X155426365Y-116235655D01*
X155770017Y-116378000D01*
X156141983Y-116378000D01*
X156485635Y-116235655D01*
X156718000Y-116003290D01*
X156950365Y-116235655D01*
X157294017Y-116378000D01*
X157424797Y-116378000D01*
X157399096Y-116416464D01*
X157380989Y-116507494D01*
X157272096Y-116670464D01*
X157254429Y-116759281D01*
X157195345Y-116818365D01*
X157053000Y-117162017D01*
X157053000Y-117533983D01*
X157195345Y-117877635D01*
X157458365Y-118140655D01*
X157802017Y-118283000D01*
X158016560Y-118283000D01*
X158016560Y-118476001D01*
X158084873Y-118819436D01*
X158279414Y-119110586D01*
X158380306Y-119178000D01*
X154547694Y-119178000D01*
X154648586Y-119110586D01*
X154843127Y-118819436D01*
X154911440Y-118476001D01*
X154911440Y-117175999D01*
X154843127Y-116832564D01*
X154648586Y-116541414D01*
X154357436Y-116346873D01*
X154014001Y-116278560D01*
X153313999Y-116278560D01*
X152970564Y-116346873D01*
X152679414Y-116541414D01*
X152484873Y-116832564D01*
X152416560Y-117175999D01*
X152416560Y-118476001D01*
X152484873Y-118819436D01*
X152679414Y-119110586D01*
X152780306Y-119178000D01*
X149554000Y-119178000D01*
X149554000Y-116289996D01*
X149574173Y-116338698D01*
X149752801Y-116517327D01*
X149986190Y-116614000D01*
X150526750Y-116614000D01*
X150685500Y-116455250D01*
X150685500Y-115618500D01*
X150939500Y-115618500D01*
X150939500Y-116455250D01*
X151098250Y-116614000D01*
X151638810Y-116614000D01*
X151872199Y-116517327D01*
X152050827Y-116338698D01*
X152147500Y-116105309D01*
X152147500Y-115777250D01*
X151988750Y-115618500D01*
X150939500Y-115618500D01*
X150685500Y-115618500D01*
X150665500Y-115618500D01*
X150665500Y-115364500D01*
X150685500Y-115364500D01*
X150685500Y-115344500D01*
X150939500Y-115344500D01*
X150939500Y-115364500D01*
X151988750Y-115364500D01*
X152147500Y-115205750D01*
X152147500Y-114877691D01*
X152117805Y-114806000D01*
X154062310Y-114806000D01*
X154077262Y-114881167D01*
X154077262Y-114881167D01*
G37*
X154077262Y-114881167D02*
X154250125Y-115139875D01*
X154508833Y-115312738D01*
X154814000Y-115373440D01*
X155021000Y-115373440D01*
X155021000Y-115628983D01*
X155163345Y-115972635D01*
X155426365Y-116235655D01*
X155770017Y-116378000D01*
X156141983Y-116378000D01*
X156485635Y-116235655D01*
X156718000Y-116003290D01*
X156950365Y-116235655D01*
X157294017Y-116378000D01*
X157424797Y-116378000D01*
X157399096Y-116416464D01*
X157380989Y-116507494D01*
X157272096Y-116670464D01*
X157254429Y-116759281D01*
X157195345Y-116818365D01*
X157053000Y-117162017D01*
X157053000Y-117533983D01*
X157195345Y-117877635D01*
X157458365Y-118140655D01*
X157802017Y-118283000D01*
X158016560Y-118283000D01*
X158016560Y-118476001D01*
X158084873Y-118819436D01*
X158279414Y-119110586D01*
X158380306Y-119178000D01*
X154547694Y-119178000D01*
X154648586Y-119110586D01*
X154843127Y-118819436D01*
X154911440Y-118476001D01*
X154911440Y-117175999D01*
X154843127Y-116832564D01*
X154648586Y-116541414D01*
X154357436Y-116346873D01*
X154014001Y-116278560D01*
X153313999Y-116278560D01*
X152970564Y-116346873D01*
X152679414Y-116541414D01*
X152484873Y-116832564D01*
X152416560Y-117175999D01*
X152416560Y-118476001D01*
X152484873Y-118819436D01*
X152679414Y-119110586D01*
X152780306Y-119178000D01*
X149554000Y-119178000D01*
X149554000Y-116289996D01*
X149574173Y-116338698D01*
X149752801Y-116517327D01*
X149986190Y-116614000D01*
X150526750Y-116614000D01*
X150685500Y-116455250D01*
X150685500Y-115618500D01*
X150939500Y-115618500D01*
X150939500Y-116455250D01*
X151098250Y-116614000D01*
X151638810Y-116614000D01*
X151872199Y-116517327D01*
X152050827Y-116338698D01*
X152147500Y-116105309D01*
X152147500Y-115777250D01*
X151988750Y-115618500D01*
X150939500Y-115618500D01*
X150685500Y-115618500D01*
X150665500Y-115618500D01*
X150665500Y-115364500D01*
X150685500Y-115364500D01*
X150685500Y-115344500D01*
X150939500Y-115344500D01*
X150939500Y-115364500D01*
X151988750Y-115364500D01*
X152147500Y-115205750D01*
X152147500Y-114877691D01*
X152117805Y-114806000D01*
X154062310Y-114806000D01*
X154077262Y-114881167D01*
G36*
X157997847Y-112561886D02*
X158161201Y-112629549D01*
X158091000Y-112699750D01*
X158091000Y-113824000D01*
X158111000Y-113824000D01*
X158111000Y-114078000D01*
X158091000Y-114078000D01*
X158091000Y-114098000D01*
X157911440Y-114098000D01*
X157911440Y-113326000D01*
X157850738Y-113020833D01*
X157837000Y-113000273D01*
X157837000Y-112699750D01*
X157678250Y-112541000D01*
X157537691Y-112541000D01*
X157419936Y-112589776D01*
X157419167Y-112589262D01*
X157327893Y-112571106D01*
X157350153Y-112561886D01*
X157674000Y-112238039D01*
X157997847Y-112561886D01*
X157997847Y-112561886D01*
G37*
X157997847Y-112561886D02*
X158161201Y-112629549D01*
X158091000Y-112699750D01*
X158091000Y-113824000D01*
X158111000Y-113824000D01*
X158111000Y-114078000D01*
X158091000Y-114078000D01*
X158091000Y-114098000D01*
X157911440Y-114098000D01*
X157911440Y-113326000D01*
X157850738Y-113020833D01*
X157837000Y-113000273D01*
X157837000Y-112699750D01*
X157678250Y-112541000D01*
X157537691Y-112541000D01*
X157419936Y-112589776D01*
X157419167Y-112589262D01*
X157327893Y-112571106D01*
X157350153Y-112561886D01*
X157674000Y-112238039D01*
X157997847Y-112561886D01*
G36*
X152537914Y-95749647D02*
X152289000Y-96350578D01*
X152289000Y-97001022D01*
X152537914Y-97601953D01*
X152997847Y-98061886D01*
X153598778Y-98310800D01*
X154249222Y-98310800D01*
X154850153Y-98061886D01*
X155310086Y-97601953D01*
X155559000Y-97001022D01*
X155559000Y-96350578D01*
X155310086Y-95749647D01*
X155266439Y-95706000D01*
X157581561Y-95706000D01*
X157537914Y-95749647D01*
X157289000Y-96350578D01*
X157289000Y-97001022D01*
X157537914Y-97601953D01*
X157997847Y-98061886D01*
X158598778Y-98310800D01*
X159249222Y-98310800D01*
X159402506Y-98247308D01*
X159895000Y-98739802D01*
X159895001Y-105589148D01*
X159880112Y-105664000D01*
X159895001Y-105738852D01*
X159939097Y-105960537D01*
X160107072Y-106211929D01*
X160170528Y-106254329D01*
X161038000Y-107121802D01*
X161038001Y-111335480D01*
X161000706Y-111342898D01*
X160711584Y-111536084D01*
X160636039Y-111649144D01*
X160485463Y-111679096D01*
X160485154Y-111679303D01*
X160559000Y-111501022D01*
X160559000Y-110850578D01*
X160310086Y-110249647D01*
X159850153Y-109789714D01*
X159249222Y-109540800D01*
X158598778Y-109540800D01*
X157997847Y-109789714D01*
X157674000Y-110113561D01*
X157350153Y-109789714D01*
X156749222Y-109540800D01*
X156098778Y-109540800D01*
X155497847Y-109789714D01*
X155457016Y-109830545D01*
X155381809Y-109717991D01*
X155171765Y-109577643D01*
X154924000Y-109528360D01*
X152924000Y-109528360D01*
X152676235Y-109577643D01*
X152466191Y-109717991D01*
X152325843Y-109928035D01*
X152276560Y-110175800D01*
X152276560Y-112175800D01*
X152325843Y-112423565D01*
X152466191Y-112633609D01*
X152676235Y-112773957D01*
X152924000Y-112823240D01*
X154180000Y-112823240D01*
X154180000Y-112867074D01*
X154077262Y-113020833D01*
X154024517Y-113286000D01*
X152142684Y-113286000D01*
X152092102Y-113031706D01*
X151898916Y-112742584D01*
X151609794Y-112549398D01*
X151268750Y-112481560D01*
X150356250Y-112481560D01*
X150015206Y-112549398D01*
X149726084Y-112742584D01*
X149554000Y-113000125D01*
X149554000Y-105859100D01*
X149576235Y-105873957D01*
X149824000Y-105923240D01*
X151824000Y-105923240D01*
X152071765Y-105873957D01*
X152281809Y-105733609D01*
X152422157Y-105523565D01*
X152471440Y-105275800D01*
X152471440Y-102075800D01*
X152422157Y-101828035D01*
X152281809Y-101617991D01*
X152071765Y-101477643D01*
X151824000Y-101428360D01*
X149824000Y-101428360D01*
X149576235Y-101477643D01*
X149554000Y-101492500D01*
X149554000Y-95706000D01*
X152581561Y-95706000D01*
X152537914Y-95749647D01*
X152537914Y-95749647D01*
G37*
X152537914Y-95749647D02*
X152289000Y-96350578D01*
X152289000Y-97001022D01*
X152537914Y-97601953D01*
X152997847Y-98061886D01*
X153598778Y-98310800D01*
X154249222Y-98310800D01*
X154850153Y-98061886D01*
X155310086Y-97601953D01*
X155559000Y-97001022D01*
X155559000Y-96350578D01*
X155310086Y-95749647D01*
X155266439Y-95706000D01*
X157581561Y-95706000D01*
X157537914Y-95749647D01*
X157289000Y-96350578D01*
X157289000Y-97001022D01*
X157537914Y-97601953D01*
X157997847Y-98061886D01*
X158598778Y-98310800D01*
X159249222Y-98310800D01*
X159402506Y-98247308D01*
X159895000Y-98739802D01*
X159895001Y-105589148D01*
X159880112Y-105664000D01*
X159895001Y-105738852D01*
X159939097Y-105960537D01*
X160107072Y-106211929D01*
X160170528Y-106254329D01*
X161038000Y-107121802D01*
X161038001Y-111335480D01*
X161000706Y-111342898D01*
X160711584Y-111536084D01*
X160636039Y-111649144D01*
X160485463Y-111679096D01*
X160485154Y-111679303D01*
X160559000Y-111501022D01*
X160559000Y-110850578D01*
X160310086Y-110249647D01*
X159850153Y-109789714D01*
X159249222Y-109540800D01*
X158598778Y-109540800D01*
X157997847Y-109789714D01*
X157674000Y-110113561D01*
X157350153Y-109789714D01*
X156749222Y-109540800D01*
X156098778Y-109540800D01*
X155497847Y-109789714D01*
X155457016Y-109830545D01*
X155381809Y-109717991D01*
X155171765Y-109577643D01*
X154924000Y-109528360D01*
X152924000Y-109528360D01*
X152676235Y-109577643D01*
X152466191Y-109717991D01*
X152325843Y-109928035D01*
X152276560Y-110175800D01*
X152276560Y-112175800D01*
X152325843Y-112423565D01*
X152466191Y-112633609D01*
X152676235Y-112773957D01*
X152924000Y-112823240D01*
X154180000Y-112823240D01*
X154180000Y-112867074D01*
X154077262Y-113020833D01*
X154024517Y-113286000D01*
X152142684Y-113286000D01*
X152092102Y-113031706D01*
X151898916Y-112742584D01*
X151609794Y-112549398D01*
X151268750Y-112481560D01*
X150356250Y-112481560D01*
X150015206Y-112549398D01*
X149726084Y-112742584D01*
X149554000Y-113000125D01*
X149554000Y-105859100D01*
X149576235Y-105873957D01*
X149824000Y-105923240D01*
X151824000Y-105923240D01*
X152071765Y-105873957D01*
X152281809Y-105733609D01*
X152422157Y-105523565D01*
X152471440Y-105275800D01*
X152471440Y-102075800D01*
X152422157Y-101828035D01*
X152281809Y-101617991D01*
X152071765Y-101477643D01*
X151824000Y-101428360D01*
X149824000Y-101428360D01*
X149576235Y-101477643D01*
X149554000Y-101492500D01*
X149554000Y-95706000D01*
X152581561Y-95706000D01*
X152537914Y-95749647D01*
G36*
X163374000Y-101545955D02*
X163271765Y-101477643D01*
X163024000Y-101428360D01*
X161415000Y-101428360D01*
X161415000Y-98499848D01*
X161429888Y-98425000D01*
X161415000Y-98350152D01*
X161415000Y-98350148D01*
X161370904Y-98128463D01*
X161370904Y-98128462D01*
X161245329Y-97940527D01*
X161202929Y-97877071D01*
X161139473Y-97834671D01*
X160484846Y-97180045D01*
X160559000Y-97001022D01*
X160559000Y-96350578D01*
X160310086Y-95749647D01*
X160266439Y-95706000D01*
X163374000Y-95706000D01*
X163374000Y-101545955D01*
X163374000Y-101545955D01*
G37*
X163374000Y-101545955D02*
X163271765Y-101477643D01*
X163024000Y-101428360D01*
X161415000Y-101428360D01*
X161415000Y-98499848D01*
X161429888Y-98425000D01*
X161415000Y-98350152D01*
X161415000Y-98350148D01*
X161370904Y-98128463D01*
X161370904Y-98128462D01*
X161245329Y-97940527D01*
X161202929Y-97877071D01*
X161139473Y-97834671D01*
X160484846Y-97180045D01*
X160559000Y-97001022D01*
X160559000Y-96350578D01*
X160310086Y-95749647D01*
X160266439Y-95706000D01*
X163374000Y-95706000D01*
X163374000Y-101545955D01*
G04 #@! TD*
M02*
