G04 #@! TF.GenerationSoftware,KiCad,Pcbnew,5.0.2-5.fc29*
G04 #@! TF.CreationDate,2021-07-15T17:32:54+02:00*
G04 #@! TF.ProjectId,ZynAudioCon,5a796e41-7564-4696-9f43-6f6e2e6b6963,rev?*
G04 #@! TF.SameCoordinates,Original*
G04 #@! TF.FileFunction,Copper,L1,Top*
G04 #@! TF.FilePolarity,Positive*
%FSLAX46Y46*%
G04 Gerber Fmt 4.6, Leading zero omitted, Abs format (unit mm)*
G04 Created by KiCad (PCBNEW 5.0.2-5.fc29) date jue 15 jul 2021 17:32:54 CEST*
%MOMM*%
%LPD*%
G01*
G04 APERTURE LIST*
G04 #@! TA.AperFunction,ComponentPad*
%ADD10O,1.750000X3.500000*%
G04 #@! TD*
G04 #@! TA.AperFunction,ComponentPad*
%ADD11R,3.500000X2.500000*%
G04 #@! TD*
G04 #@! TA.AperFunction,ComponentPad*
%ADD12C,1.280000*%
G04 #@! TD*
G04 #@! TA.AperFunction,ComponentPad*
%ADD13R,1.524000X1.524000*%
G04 #@! TD*
G04 #@! TA.AperFunction,ComponentPad*
%ADD14R,1.350000X1.350000*%
G04 #@! TD*
G04 #@! TA.AperFunction,ComponentPad*
%ADD15O,1.350000X1.350000*%
G04 #@! TD*
G04 #@! TA.AperFunction,ComponentPad*
%ADD16C,4.700000*%
G04 #@! TD*
G04 #@! TA.AperFunction,ComponentPad*
%ADD17O,1.700000X1.700000*%
G04 #@! TD*
G04 #@! TA.AperFunction,ComponentPad*
%ADD18R,1.700000X1.700000*%
G04 #@! TD*
G04 #@! TA.AperFunction,ComponentPad*
%ADD19C,3.000000*%
G04 #@! TD*
G04 #@! TA.AperFunction,ViaPad*
%ADD20C,0.800000*%
G04 #@! TD*
G04 #@! TA.AperFunction,Conductor*
%ADD21C,0.400000*%
G04 #@! TD*
G04 #@! TA.AperFunction,Conductor*
%ADD22C,0.500000*%
G04 #@! TD*
G04 #@! TA.AperFunction,Conductor*
%ADD23C,0.254000*%
G04 #@! TD*
G04 APERTURE END LIST*
D10*
G04 #@! TO.P,PHONE1,RN*
G04 #@! TO.N,Net-(PHONE1-PadRN)*
X87750000Y-57508000D03*
G04 #@! TO.P,PHONE1,TN*
G04 #@! TO.N,Net-(PHONE1-PadTN)*
X82750000Y-57508000D03*
G04 #@! TO.P,PHONE1,T*
G04 #@! TO.N,PHONE-R*
X80250000Y-57508000D03*
D11*
G04 #@! TO.P,PHONE1,S*
G04 #@! TO.N,GND*
X85250000Y-52502000D03*
D10*
G04 #@! TO.P,PHONE1,R*
G04 #@! TO.N,PHONE-L*
X90250000Y-57508000D03*
D12*
G04 #@! TO.P,PHONE1,*
G04 #@! TO.N,*
X90330000Y-49907000D03*
X90330000Y-52447000D03*
X80170000Y-49907000D03*
X80170000Y-52447000D03*
X85250000Y-57527000D03*
G04 #@! TD*
D13*
G04 #@! TO.P,RV1,M2*
G04 #@! TO.N,N/C*
X104758000Y-50198000D03*
G04 #@! TO.P,RV1,M1*
X94758000Y-50198000D03*
D14*
G04 #@! TO.P,RV1,3*
G04 #@! TO.N,GND*
X95758000Y-60198000D03*
D15*
G04 #@! TO.P,RV1,1*
G04 #@! TO.N,NOUTR+*
X97758000Y-60198000D03*
G04 #@! TO.P,RV1,4*
G04 #@! TO.N,NOUTL+*
X99758000Y-60198000D03*
G04 #@! TO.P,RV1,5*
G04 #@! TO.N,PHONE-L*
X101758000Y-60198000D03*
G04 #@! TO.P,RV1,2*
G04 #@! TO.N,PHONE-R*
X103758000Y-60198000D03*
G04 #@! TD*
D16*
G04 #@! TO.P,REF\002A\002A,1*
G04 #@! TO.N,N/C*
X109160000Y-51890000D03*
G04 #@! TD*
G04 #@! TO.P,REF\002A\002A,1*
G04 #@! TO.N,N/C*
X109160000Y-119890000D03*
G04 #@! TD*
D17*
G04 #@! TO.P,J1,20*
G04 #@! TO.N,OUTL-*
X83500000Y-115030000D03*
G04 #@! TO.P,J1,19*
G04 #@! TO.N,OUTL+*
X83500000Y-112490000D03*
G04 #@! TO.P,J1,18*
G04 #@! TO.N,OUTR-*
X86040000Y-115030000D03*
G04 #@! TO.P,J1,17*
G04 #@! TO.N,OUTR+*
X86040000Y-112490000D03*
G04 #@! TO.P,J1,16*
G04 #@! TO.N,Net-(J1-Pad16)*
X88580000Y-115030000D03*
G04 #@! TO.P,J1,15*
G04 #@! TO.N,Net-(J1-Pad15)*
X88580000Y-112490000D03*
G04 #@! TO.P,J1,14*
G04 #@! TO.N,GND*
X91120000Y-115030000D03*
G04 #@! TO.P,J1,13*
X91120000Y-112490000D03*
G04 #@! TO.P,J1,12*
G04 #@! TO.N,INL-*
X93660000Y-115030000D03*
G04 #@! TO.P,J1,11*
G04 #@! TO.N,INL+*
X93660000Y-112490000D03*
G04 #@! TO.P,J1,10*
G04 #@! TO.N,INR-*
X96200000Y-115030000D03*
G04 #@! TO.P,J1,9*
G04 #@! TO.N,INR+*
X96200000Y-112490000D03*
G04 #@! TO.P,J1,8*
G04 #@! TO.N,GND*
X98740000Y-115030000D03*
G04 #@! TO.P,J1,7*
X98740000Y-112490000D03*
G04 #@! TO.P,J1,6*
G04 #@! TO.N,Net-(J1-Pad6)*
X101280000Y-115030000D03*
G04 #@! TO.P,J1,5*
G04 #@! TO.N,Net-(J1-Pad5)*
X101280000Y-112490000D03*
G04 #@! TO.P,J1,4*
G04 #@! TO.N,Net-(J1-Pad4)*
X103820000Y-115030000D03*
G04 #@! TO.P,J1,3*
G04 #@! TO.N,Net-(J1-Pad3)*
X103820000Y-112490000D03*
G04 #@! TO.P,J1,2*
G04 #@! TO.N,+5V*
X106360000Y-115030000D03*
D18*
G04 #@! TO.P,J1,1*
X106360000Y-112490000D03*
G04 #@! TD*
D19*
G04 #@! TO.P,AudioIN-1,T*
G04 #@! TO.N,INR-*
X73660000Y-73890000D03*
G04 #@! TO.P,AudioIN-1,S*
G04 #@! TO.N,GND*
X60960000Y-73890000D03*
G04 #@! TO.P,AudioIN-1,SN*
X60960000Y-85320000D03*
G04 #@! TO.P,AudioIN-1,TN*
X73660000Y-85320000D03*
G04 #@! TO.P,AudioIN-1,R*
G04 #@! TO.N,INR+*
X67310000Y-73890000D03*
G04 #@! TO.P,AudioIN-1,RN*
G04 #@! TO.N,GND*
X67310000Y-85320000D03*
G04 #@! TD*
G04 #@! TO.P,AudioIN-2,RN*
G04 #@! TO.N,GND*
X67310000Y-67820000D03*
G04 #@! TO.P,AudioIN-2,R*
G04 #@! TO.N,INL+*
X67310000Y-56390000D03*
G04 #@! TO.P,AudioIN-2,TN*
G04 #@! TO.N,GND*
X73660000Y-67820000D03*
G04 #@! TO.P,AudioIN-2,SN*
X60960000Y-67820000D03*
G04 #@! TO.P,AudioIN-2,S*
X60960000Y-56390000D03*
G04 #@! TO.P,AudioIN-2,T*
G04 #@! TO.N,INL-*
X73660000Y-56390000D03*
G04 #@! TD*
G04 #@! TO.P,AudioOUT-1,RN*
G04 #@! TO.N,NOUTR+*
X67310000Y-120320000D03*
G04 #@! TO.P,AudioOUT-1,R*
G04 #@! TO.N,OUTR+*
X67310000Y-108890000D03*
G04 #@! TO.P,AudioOUT-1,TN*
G04 #@! TO.N,GND*
X73660000Y-120320000D03*
G04 #@! TO.P,AudioOUT-1,SN*
X60960000Y-120320000D03*
G04 #@! TO.P,AudioOUT-1,S*
X60960000Y-108890000D03*
G04 #@! TO.P,AudioOUT-1,T*
G04 #@! TO.N,OUTR-*
X73660000Y-108890000D03*
G04 #@! TD*
G04 #@! TO.P,AudioOUT-2,RN*
G04 #@! TO.N,NOUTL+*
X67310000Y-102820000D03*
G04 #@! TO.P,AudioOUT-2,R*
G04 #@! TO.N,OUTL+*
X67310000Y-91390000D03*
G04 #@! TO.P,AudioOUT-2,TN*
G04 #@! TO.N,GND*
X73660000Y-102820000D03*
G04 #@! TO.P,AudioOUT-2,SN*
X60960000Y-102820000D03*
G04 #@! TO.P,AudioOUT-2,S*
X60960000Y-91390000D03*
G04 #@! TO.P,AudioOUT-2,T*
G04 #@! TO.N,OUTL-*
X73660000Y-91390000D03*
G04 #@! TD*
D20*
G04 #@! TO.N,GND*
X85090000Y-60960000D03*
X88646000Y-60960000D03*
X70612000Y-56642000D03*
X92964000Y-59182000D03*
G04 #@! TD*
D21*
G04 #@! TO.N,INR+*
X96200000Y-102780000D02*
X73165026Y-79745026D01*
X73165026Y-79745026D02*
X67310000Y-73890000D01*
X96200000Y-112490000D02*
X96200000Y-102780000D01*
D22*
G04 #@! TO.N,GND*
X71709999Y-122270001D02*
X73660000Y-120320000D01*
X62910001Y-122270001D02*
X71709999Y-122270001D01*
X60960000Y-120320000D02*
X62910001Y-122270001D01*
X60960000Y-108890000D02*
X60960000Y-120320000D01*
X60960000Y-91390000D02*
X60960000Y-102820000D01*
X60960000Y-73890000D02*
X60960000Y-85320000D01*
X60960000Y-56390000D02*
X60960000Y-67820000D01*
X60960000Y-67820000D02*
X67310000Y-67820000D01*
X67310000Y-67820000D02*
X73660000Y-67820000D01*
X60960000Y-85320000D02*
X67310000Y-85320000D01*
X67310000Y-85320000D02*
X73660000Y-85320000D01*
X60960000Y-102820000D02*
X60960000Y-108890000D01*
X71709999Y-104770001D02*
X73660000Y-102820000D01*
X62910001Y-104770001D02*
X71709999Y-104770001D01*
X60960000Y-102820000D02*
X62910001Y-104770001D01*
X85830000Y-120320000D02*
X73660000Y-120320000D01*
X91120000Y-115030000D02*
X85830000Y-120320000D01*
X91120000Y-115030000D02*
X91120000Y-112490000D01*
X98740000Y-115030000D02*
X98740000Y-112490000D01*
X60960000Y-85320000D02*
X60960000Y-91390000D01*
X60960000Y-67820000D02*
X60960000Y-73890000D01*
X95800000Y-59700000D02*
X95800000Y-58800000D01*
X95800000Y-58800000D02*
X92100000Y-55100000D01*
X92100000Y-55100000D02*
X89700000Y-55100000D01*
X87102000Y-52502000D02*
X85400000Y-52502000D01*
X89700000Y-55100000D02*
X87102000Y-52502000D01*
X84004999Y-53897001D02*
X85400000Y-52502000D01*
X75610001Y-58189999D02*
X79902999Y-53897001D01*
X75610001Y-65869999D02*
X75610001Y-58189999D01*
X79902999Y-53897001D02*
X84004999Y-53897001D01*
X73660000Y-67820000D02*
X75610001Y-65869999D01*
D21*
G04 #@! TO.N,INR-*
X96900000Y-102490050D02*
X73660000Y-79250050D01*
X96900000Y-111339998D02*
X96900000Y-102490050D01*
X97450001Y-111889999D02*
X96900000Y-111339998D01*
X97450001Y-113090001D02*
X97450001Y-111889999D01*
X73660000Y-79250050D02*
X73660000Y-73890000D01*
X96200000Y-115030000D02*
X96900000Y-114330000D01*
X96900000Y-114330000D02*
X96900000Y-113640002D01*
X96900000Y-113640002D02*
X97450001Y-113090001D01*
G04 #@! TO.N,OUTR+*
X86740000Y-113190000D02*
X86740000Y-113879998D01*
X86040000Y-112490000D02*
X86740000Y-113190000D01*
X86740000Y-113879998D02*
X87290001Y-114429999D01*
X87290001Y-114429999D02*
X87290001Y-115630001D01*
X87290001Y-115630001D02*
X86740000Y-116180002D01*
X86740000Y-116180002D02*
X86740000Y-117054976D01*
X86740000Y-117054976D02*
X85844976Y-117950000D01*
X73165026Y-114745026D02*
X67310000Y-108890000D01*
X85844976Y-117950000D02*
X76370000Y-117950000D01*
X76370000Y-117950000D02*
X73165026Y-114745026D01*
G04 #@! TO.N,OUTR-*
X86040000Y-115030000D02*
X86040000Y-116765024D01*
X86040000Y-116765024D02*
X85555024Y-117250000D01*
X73660000Y-114250050D02*
X73660000Y-108890000D01*
X76659950Y-117250000D02*
X73660000Y-114250050D01*
X85555024Y-117250000D02*
X76659950Y-117250000D01*
G04 #@! TO.N,OUTL-*
X84200000Y-107290050D02*
X73660000Y-96750050D01*
X84200000Y-111339998D02*
X84200000Y-107290050D01*
X84750001Y-111889999D02*
X84200000Y-111339998D01*
X84750001Y-113090001D02*
X84750001Y-111889999D01*
X73660000Y-96750050D02*
X73660000Y-91390000D01*
X83500000Y-115030000D02*
X84200000Y-114330000D01*
X84200000Y-114330000D02*
X84200000Y-113640002D01*
X84200000Y-113640002D02*
X84750001Y-113090001D01*
G04 #@! TO.N,OUTL+*
X83500000Y-107580000D02*
X73165026Y-97245026D01*
X83500000Y-112490000D02*
X83500000Y-107580000D01*
X73165026Y-97245026D02*
X67310000Y-91390000D01*
D22*
G04 #@! TO.N,+5V*
X106360000Y-115030000D02*
X106360000Y-112490000D01*
G04 #@! TD*
D23*
G04 #@! TO.N,GND*
G36*
X59126353Y-49575000D02*
X78936061Y-49575000D01*
X78895000Y-49781423D01*
X78895000Y-50032577D01*
X78943998Y-50278904D01*
X79040110Y-50510939D01*
X79179643Y-50719765D01*
X79357235Y-50897357D01*
X79566061Y-51036890D01*
X79798096Y-51133002D01*
X80019287Y-51177000D01*
X79798096Y-51220998D01*
X79566061Y-51317110D01*
X79357235Y-51456643D01*
X79179643Y-51634235D01*
X79040110Y-51843061D01*
X78943998Y-52075096D01*
X78895000Y-52321423D01*
X78895000Y-52572577D01*
X78943998Y-52818904D01*
X79040110Y-53050939D01*
X79179643Y-53259765D01*
X79357235Y-53437357D01*
X79566061Y-53576890D01*
X79798096Y-53673002D01*
X80044423Y-53722000D01*
X80295577Y-53722000D01*
X80541904Y-53673002D01*
X80773939Y-53576890D01*
X80982765Y-53437357D01*
X81160357Y-53259765D01*
X81299890Y-53050939D01*
X81396002Y-52818904D01*
X81402198Y-52787750D01*
X82865000Y-52787750D01*
X82865000Y-53814542D01*
X82889403Y-53937223D01*
X82937270Y-54052785D01*
X83006763Y-54156789D01*
X83095211Y-54245237D01*
X83199215Y-54314730D01*
X83314777Y-54362597D01*
X83437458Y-54387000D01*
X84964250Y-54387000D01*
X85123000Y-54228250D01*
X85123000Y-52629000D01*
X85377000Y-52629000D01*
X85377000Y-54228250D01*
X85535750Y-54387000D01*
X87062542Y-54387000D01*
X87185223Y-54362597D01*
X87300785Y-54314730D01*
X87404789Y-54245237D01*
X87493237Y-54156789D01*
X87562730Y-54052785D01*
X87610597Y-53937223D01*
X87635000Y-53814542D01*
X87635000Y-52787750D01*
X87476250Y-52629000D01*
X85377000Y-52629000D01*
X85123000Y-52629000D01*
X83023750Y-52629000D01*
X82865000Y-52787750D01*
X81402198Y-52787750D01*
X81445000Y-52572577D01*
X81445000Y-52321423D01*
X81396002Y-52075096D01*
X81299890Y-51843061D01*
X81160357Y-51634235D01*
X80982765Y-51456643D01*
X80773939Y-51317110D01*
X80541904Y-51220998D01*
X80383344Y-51189458D01*
X82865000Y-51189458D01*
X82865000Y-52216250D01*
X83023750Y-52375000D01*
X85123000Y-52375000D01*
X85123000Y-50775750D01*
X85377000Y-50775750D01*
X85377000Y-52375000D01*
X87476250Y-52375000D01*
X87635000Y-52216250D01*
X87635000Y-51189458D01*
X87610597Y-51066777D01*
X87562730Y-50951215D01*
X87493237Y-50847211D01*
X87404789Y-50758763D01*
X87300785Y-50689270D01*
X87185223Y-50641403D01*
X87062542Y-50617000D01*
X85535750Y-50617000D01*
X85377000Y-50775750D01*
X85123000Y-50775750D01*
X84964250Y-50617000D01*
X83437458Y-50617000D01*
X83314777Y-50641403D01*
X83199215Y-50689270D01*
X83095211Y-50758763D01*
X83006763Y-50847211D01*
X82937270Y-50951215D01*
X82889403Y-51066777D01*
X82865000Y-51189458D01*
X80383344Y-51189458D01*
X80320713Y-51177000D01*
X80541904Y-51133002D01*
X80773939Y-51036890D01*
X80982765Y-50897357D01*
X81160357Y-50719765D01*
X81299890Y-50510939D01*
X81396002Y-50278904D01*
X81445000Y-50032577D01*
X81445000Y-49781423D01*
X81403939Y-49575000D01*
X89096061Y-49575000D01*
X89055000Y-49781423D01*
X89055000Y-50032577D01*
X89103998Y-50278904D01*
X89200110Y-50510939D01*
X89339643Y-50719765D01*
X89517235Y-50897357D01*
X89726061Y-51036890D01*
X89958096Y-51133002D01*
X90179287Y-51177000D01*
X89958096Y-51220998D01*
X89726061Y-51317110D01*
X89517235Y-51456643D01*
X89339643Y-51634235D01*
X89200110Y-51843061D01*
X89103998Y-52075096D01*
X89055000Y-52321423D01*
X89055000Y-52572577D01*
X89103998Y-52818904D01*
X89200110Y-53050939D01*
X89339643Y-53259765D01*
X89517235Y-53437357D01*
X89726061Y-53576890D01*
X89958096Y-53673002D01*
X90204423Y-53722000D01*
X90455577Y-53722000D01*
X90701904Y-53673002D01*
X90933939Y-53576890D01*
X91142765Y-53437357D01*
X91320357Y-53259765D01*
X91459890Y-53050939D01*
X91556002Y-52818904D01*
X91605000Y-52572577D01*
X91605000Y-52321423D01*
X91556002Y-52075096D01*
X91459890Y-51843061D01*
X91320357Y-51634235D01*
X91142765Y-51456643D01*
X90933939Y-51317110D01*
X90701904Y-51220998D01*
X90480713Y-51177000D01*
X90701904Y-51133002D01*
X90933939Y-51036890D01*
X91142765Y-50897357D01*
X91320357Y-50719765D01*
X91459890Y-50510939D01*
X91556002Y-50278904D01*
X91605000Y-50032577D01*
X91605000Y-49781423D01*
X91563939Y-49575000D01*
X93357928Y-49575000D01*
X93357928Y-50960000D01*
X93370188Y-51084482D01*
X93406498Y-51204180D01*
X93465463Y-51314494D01*
X93544815Y-51411185D01*
X93641506Y-51490537D01*
X93751820Y-51549502D01*
X93871518Y-51585812D01*
X93996000Y-51598072D01*
X95520000Y-51598072D01*
X95644482Y-51585812D01*
X95764180Y-51549502D01*
X95874494Y-51490537D01*
X95971185Y-51411185D01*
X96050537Y-51314494D01*
X96109502Y-51204180D01*
X96145812Y-51084482D01*
X96158072Y-50960000D01*
X96158072Y-49575000D01*
X103357928Y-49575000D01*
X103357928Y-50960000D01*
X103370188Y-51084482D01*
X103406498Y-51204180D01*
X103465463Y-51314494D01*
X103544815Y-51411185D01*
X103641506Y-51490537D01*
X103751820Y-51549502D01*
X103871518Y-51585812D01*
X103996000Y-51598072D01*
X105520000Y-51598072D01*
X105644482Y-51585812D01*
X105764180Y-51549502D01*
X105874494Y-51490537D01*
X105971185Y-51411185D01*
X106050537Y-51314494D01*
X106109502Y-51204180D01*
X106145812Y-51084482D01*
X106158072Y-50960000D01*
X106158072Y-49575000D01*
X107253573Y-49575000D01*
X106841399Y-49987174D01*
X106514727Y-50476072D01*
X106289712Y-51019308D01*
X106175000Y-51596003D01*
X106175000Y-52183997D01*
X106289712Y-52760692D01*
X106514727Y-53303928D01*
X106841399Y-53792826D01*
X107257174Y-54208601D01*
X107746072Y-54535273D01*
X108289308Y-54760288D01*
X108866003Y-54875000D01*
X109453997Y-54875000D01*
X110030692Y-54760288D01*
X110573928Y-54535273D01*
X111062826Y-54208601D01*
X111475000Y-53796427D01*
X111475001Y-117983574D01*
X111062826Y-117571399D01*
X110573928Y-117244727D01*
X110030692Y-117019712D01*
X109453997Y-116905000D01*
X108866003Y-116905000D01*
X108289308Y-117019712D01*
X107746072Y-117244727D01*
X107257174Y-117571399D01*
X106841399Y-117987174D01*
X106514727Y-118476072D01*
X106289712Y-119019308D01*
X106175000Y-119596003D01*
X106175000Y-120183997D01*
X106289712Y-120760692D01*
X106514727Y-121303928D01*
X106841399Y-121792826D01*
X107253573Y-122205000D01*
X74670509Y-122205000D01*
X74816038Y-122127214D01*
X74972048Y-121811653D01*
X73660000Y-120499605D01*
X72347952Y-121811653D01*
X72503962Y-122127214D01*
X72656750Y-122205000D01*
X68331796Y-122205000D01*
X68670983Y-121978363D01*
X68968363Y-121680983D01*
X69202012Y-121331302D01*
X69362953Y-120942756D01*
X69445000Y-120530279D01*
X69445000Y-120362824D01*
X71515098Y-120362824D01*
X71564666Y-120780451D01*
X71694757Y-121180383D01*
X71852786Y-121476038D01*
X72168347Y-121632048D01*
X73480395Y-120320000D01*
X73839605Y-120320000D01*
X75151653Y-121632048D01*
X75467214Y-121476038D01*
X75658020Y-121101255D01*
X75772044Y-120696449D01*
X75804902Y-120277176D01*
X75755334Y-119859549D01*
X75625243Y-119459617D01*
X75467214Y-119163962D01*
X75151653Y-119007952D01*
X73839605Y-120320000D01*
X73480395Y-120320000D01*
X72168347Y-119007952D01*
X71852786Y-119163962D01*
X71661980Y-119538745D01*
X71547956Y-119943551D01*
X71515098Y-120362824D01*
X69445000Y-120362824D01*
X69445000Y-120109721D01*
X69362953Y-119697244D01*
X69202012Y-119308698D01*
X68968363Y-118959017D01*
X68837693Y-118828347D01*
X72347952Y-118828347D01*
X73660000Y-120140395D01*
X74972048Y-118828347D01*
X74816038Y-118512786D01*
X74441255Y-118321980D01*
X74036449Y-118207956D01*
X73617176Y-118175098D01*
X73199549Y-118224666D01*
X72799617Y-118354757D01*
X72503962Y-118512786D01*
X72347952Y-118828347D01*
X68837693Y-118828347D01*
X68670983Y-118661637D01*
X68321302Y-118427988D01*
X67932756Y-118267047D01*
X67520279Y-118185000D01*
X67099721Y-118185000D01*
X66687244Y-118267047D01*
X66298698Y-118427988D01*
X65949017Y-118661637D01*
X65651637Y-118959017D01*
X65417988Y-119308698D01*
X65257047Y-119697244D01*
X65175000Y-120109721D01*
X65175000Y-120530279D01*
X65257047Y-120942756D01*
X65417988Y-121331302D01*
X65651637Y-121680983D01*
X65949017Y-121978363D01*
X66288204Y-122205000D01*
X61970509Y-122205000D01*
X62116038Y-122127214D01*
X62272048Y-121811653D01*
X60960000Y-120499605D01*
X59647952Y-121811653D01*
X59803962Y-122127214D01*
X59956750Y-122205000D01*
X56845000Y-122205000D01*
X56845000Y-120362824D01*
X58815098Y-120362824D01*
X58864666Y-120780451D01*
X58994757Y-121180383D01*
X59152786Y-121476038D01*
X59468347Y-121632048D01*
X60780395Y-120320000D01*
X61139605Y-120320000D01*
X62451653Y-121632048D01*
X62767214Y-121476038D01*
X62958020Y-121101255D01*
X63072044Y-120696449D01*
X63104902Y-120277176D01*
X63055334Y-119859549D01*
X62925243Y-119459617D01*
X62767214Y-119163962D01*
X62451653Y-119007952D01*
X61139605Y-120320000D01*
X60780395Y-120320000D01*
X59468347Y-119007952D01*
X59152786Y-119163962D01*
X58961980Y-119538745D01*
X58847956Y-119943551D01*
X58815098Y-120362824D01*
X56845000Y-120362824D01*
X56845000Y-118828347D01*
X59647952Y-118828347D01*
X60960000Y-120140395D01*
X62272048Y-118828347D01*
X62116038Y-118512786D01*
X61741255Y-118321980D01*
X61336449Y-118207956D01*
X60917176Y-118175098D01*
X60499549Y-118224666D01*
X60099617Y-118354757D01*
X59803962Y-118512786D01*
X59647952Y-118828347D01*
X56845000Y-118828347D01*
X56845000Y-110381653D01*
X59647952Y-110381653D01*
X59803962Y-110697214D01*
X60178745Y-110888020D01*
X60583551Y-111002044D01*
X61002824Y-111034902D01*
X61420451Y-110985334D01*
X61820383Y-110855243D01*
X62116038Y-110697214D01*
X62272048Y-110381653D01*
X60960000Y-109069605D01*
X59647952Y-110381653D01*
X56845000Y-110381653D01*
X56845000Y-108932824D01*
X58815098Y-108932824D01*
X58864666Y-109350451D01*
X58994757Y-109750383D01*
X59152786Y-110046038D01*
X59468347Y-110202048D01*
X60780395Y-108890000D01*
X61139605Y-108890000D01*
X62451653Y-110202048D01*
X62767214Y-110046038D01*
X62958020Y-109671255D01*
X63072044Y-109266449D01*
X63104902Y-108847176D01*
X63055334Y-108429549D01*
X62925243Y-108029617D01*
X62767214Y-107733962D01*
X62451653Y-107577952D01*
X61139605Y-108890000D01*
X60780395Y-108890000D01*
X59468347Y-107577952D01*
X59152786Y-107733962D01*
X58961980Y-108108745D01*
X58847956Y-108513551D01*
X58815098Y-108932824D01*
X56845000Y-108932824D01*
X56845000Y-107398347D01*
X59647952Y-107398347D01*
X60960000Y-108710395D01*
X62272048Y-107398347D01*
X62116038Y-107082786D01*
X61741255Y-106891980D01*
X61336449Y-106777956D01*
X60917176Y-106745098D01*
X60499549Y-106794666D01*
X60099617Y-106924757D01*
X59803962Y-107082786D01*
X59647952Y-107398347D01*
X56845000Y-107398347D01*
X56845000Y-104311653D01*
X59647952Y-104311653D01*
X59803962Y-104627214D01*
X60178745Y-104818020D01*
X60583551Y-104932044D01*
X61002824Y-104964902D01*
X61420451Y-104915334D01*
X61820383Y-104785243D01*
X62116038Y-104627214D01*
X62272048Y-104311653D01*
X60960000Y-102999605D01*
X59647952Y-104311653D01*
X56845000Y-104311653D01*
X56845000Y-102862824D01*
X58815098Y-102862824D01*
X58864666Y-103280451D01*
X58994757Y-103680383D01*
X59152786Y-103976038D01*
X59468347Y-104132048D01*
X60780395Y-102820000D01*
X61139605Y-102820000D01*
X62451653Y-104132048D01*
X62767214Y-103976038D01*
X62958020Y-103601255D01*
X63072044Y-103196449D01*
X63104902Y-102777176D01*
X63085027Y-102609721D01*
X65175000Y-102609721D01*
X65175000Y-103030279D01*
X65257047Y-103442756D01*
X65417988Y-103831302D01*
X65651637Y-104180983D01*
X65949017Y-104478363D01*
X66298698Y-104712012D01*
X66687244Y-104872953D01*
X67099721Y-104955000D01*
X67520279Y-104955000D01*
X67932756Y-104872953D01*
X68321302Y-104712012D01*
X68670983Y-104478363D01*
X68837693Y-104311653D01*
X72347952Y-104311653D01*
X72503962Y-104627214D01*
X72878745Y-104818020D01*
X73283551Y-104932044D01*
X73702824Y-104964902D01*
X74120451Y-104915334D01*
X74520383Y-104785243D01*
X74816038Y-104627214D01*
X74972048Y-104311653D01*
X73660000Y-102999605D01*
X72347952Y-104311653D01*
X68837693Y-104311653D01*
X68968363Y-104180983D01*
X69202012Y-103831302D01*
X69362953Y-103442756D01*
X69445000Y-103030279D01*
X69445000Y-102862824D01*
X71515098Y-102862824D01*
X71564666Y-103280451D01*
X71694757Y-103680383D01*
X71852786Y-103976038D01*
X72168347Y-104132048D01*
X73480395Y-102820000D01*
X73839605Y-102820000D01*
X75151653Y-104132048D01*
X75467214Y-103976038D01*
X75658020Y-103601255D01*
X75772044Y-103196449D01*
X75804902Y-102777176D01*
X75755334Y-102359549D01*
X75625243Y-101959617D01*
X75467214Y-101663962D01*
X75151653Y-101507952D01*
X73839605Y-102820000D01*
X73480395Y-102820000D01*
X72168347Y-101507952D01*
X71852786Y-101663962D01*
X71661980Y-102038745D01*
X71547956Y-102443551D01*
X71515098Y-102862824D01*
X69445000Y-102862824D01*
X69445000Y-102609721D01*
X69362953Y-102197244D01*
X69202012Y-101808698D01*
X68968363Y-101459017D01*
X68837693Y-101328347D01*
X72347952Y-101328347D01*
X73660000Y-102640395D01*
X74972048Y-101328347D01*
X74816038Y-101012786D01*
X74441255Y-100821980D01*
X74036449Y-100707956D01*
X73617176Y-100675098D01*
X73199549Y-100724666D01*
X72799617Y-100854757D01*
X72503962Y-101012786D01*
X72347952Y-101328347D01*
X68837693Y-101328347D01*
X68670983Y-101161637D01*
X68321302Y-100927988D01*
X67932756Y-100767047D01*
X67520279Y-100685000D01*
X67099721Y-100685000D01*
X66687244Y-100767047D01*
X66298698Y-100927988D01*
X65949017Y-101161637D01*
X65651637Y-101459017D01*
X65417988Y-101808698D01*
X65257047Y-102197244D01*
X65175000Y-102609721D01*
X63085027Y-102609721D01*
X63055334Y-102359549D01*
X62925243Y-101959617D01*
X62767214Y-101663962D01*
X62451653Y-101507952D01*
X61139605Y-102820000D01*
X60780395Y-102820000D01*
X59468347Y-101507952D01*
X59152786Y-101663962D01*
X58961980Y-102038745D01*
X58847956Y-102443551D01*
X58815098Y-102862824D01*
X56845000Y-102862824D01*
X56845000Y-101328347D01*
X59647952Y-101328347D01*
X60960000Y-102640395D01*
X62272048Y-101328347D01*
X62116038Y-101012786D01*
X61741255Y-100821980D01*
X61336449Y-100707956D01*
X60917176Y-100675098D01*
X60499549Y-100724666D01*
X60099617Y-100854757D01*
X59803962Y-101012786D01*
X59647952Y-101328347D01*
X56845000Y-101328347D01*
X56845000Y-92881653D01*
X59647952Y-92881653D01*
X59803962Y-93197214D01*
X60178745Y-93388020D01*
X60583551Y-93502044D01*
X61002824Y-93534902D01*
X61420451Y-93485334D01*
X61820383Y-93355243D01*
X62116038Y-93197214D01*
X62272048Y-92881653D01*
X60960000Y-91569605D01*
X59647952Y-92881653D01*
X56845000Y-92881653D01*
X56845000Y-91432824D01*
X58815098Y-91432824D01*
X58864666Y-91850451D01*
X58994757Y-92250383D01*
X59152786Y-92546038D01*
X59468347Y-92702048D01*
X60780395Y-91390000D01*
X61139605Y-91390000D01*
X62451653Y-92702048D01*
X62767214Y-92546038D01*
X62958020Y-92171255D01*
X63072044Y-91766449D01*
X63104902Y-91347176D01*
X63085027Y-91179721D01*
X65175000Y-91179721D01*
X65175000Y-91600279D01*
X65257047Y-92012756D01*
X65417988Y-92401302D01*
X65651637Y-92750983D01*
X65949017Y-93048363D01*
X66298698Y-93282012D01*
X66687244Y-93442953D01*
X67099721Y-93525000D01*
X67520279Y-93525000D01*
X67932756Y-93442953D01*
X68109059Y-93369926D01*
X72603596Y-97864464D01*
X72603602Y-97864469D01*
X82665001Y-107925869D01*
X82665000Y-111254206D01*
X82444866Y-111434866D01*
X82259294Y-111660986D01*
X82121401Y-111918966D01*
X82036487Y-112198889D01*
X82007815Y-112490000D01*
X82036487Y-112781111D01*
X82121401Y-113061034D01*
X82259294Y-113319014D01*
X82444866Y-113545134D01*
X82670986Y-113730706D01*
X82725791Y-113760000D01*
X82670986Y-113789294D01*
X82444866Y-113974866D01*
X82259294Y-114200986D01*
X82121401Y-114458966D01*
X82036487Y-114738889D01*
X82007815Y-115030000D01*
X82036487Y-115321111D01*
X82121401Y-115601034D01*
X82259294Y-115859014D01*
X82444866Y-116085134D01*
X82670986Y-116270706D01*
X82928966Y-116408599D01*
X82950067Y-116415000D01*
X77005818Y-116415000D01*
X74495000Y-113904183D01*
X74495000Y-110855039D01*
X74671302Y-110782012D01*
X75020983Y-110548363D01*
X75318363Y-110250983D01*
X75552012Y-109901302D01*
X75712953Y-109512756D01*
X75795000Y-109100279D01*
X75795000Y-108679721D01*
X75712953Y-108267244D01*
X75552012Y-107878698D01*
X75318363Y-107529017D01*
X75020983Y-107231637D01*
X74671302Y-106997988D01*
X74282756Y-106837047D01*
X73870279Y-106755000D01*
X73449721Y-106755000D01*
X73037244Y-106837047D01*
X72648698Y-106997988D01*
X72299017Y-107231637D01*
X72001637Y-107529017D01*
X71767988Y-107878698D01*
X71607047Y-108267244D01*
X71525000Y-108679721D01*
X71525000Y-109100279D01*
X71607047Y-109512756D01*
X71767988Y-109901302D01*
X72001637Y-110250983D01*
X72299017Y-110548363D01*
X72648698Y-110782012D01*
X72825001Y-110855039D01*
X72825000Y-113224132D01*
X69289926Y-109689059D01*
X69362953Y-109512756D01*
X69445000Y-109100279D01*
X69445000Y-108679721D01*
X69362953Y-108267244D01*
X69202012Y-107878698D01*
X68968363Y-107529017D01*
X68670983Y-107231637D01*
X68321302Y-106997988D01*
X67932756Y-106837047D01*
X67520279Y-106755000D01*
X67099721Y-106755000D01*
X66687244Y-106837047D01*
X66298698Y-106997988D01*
X65949017Y-107231637D01*
X65651637Y-107529017D01*
X65417988Y-107878698D01*
X65257047Y-108267244D01*
X65175000Y-108679721D01*
X65175000Y-109100279D01*
X65257047Y-109512756D01*
X65417988Y-109901302D01*
X65651637Y-110250983D01*
X65949017Y-110548363D01*
X66298698Y-110782012D01*
X66687244Y-110942953D01*
X67099721Y-111025000D01*
X67520279Y-111025000D01*
X67932756Y-110942953D01*
X68109059Y-110869926D01*
X72603596Y-115364464D01*
X72603601Y-115364468D01*
X75750563Y-118511432D01*
X75776709Y-118543291D01*
X75903854Y-118647636D01*
X76048913Y-118725172D01*
X76206311Y-118772918D01*
X76328981Y-118785000D01*
X76328982Y-118785000D01*
X76370000Y-118789040D01*
X76411018Y-118785000D01*
X85803958Y-118785000D01*
X85844976Y-118789040D01*
X85885994Y-118785000D01*
X85885995Y-118785000D01*
X86008665Y-118772918D01*
X86166063Y-118725172D01*
X86311122Y-118647636D01*
X86438267Y-118543291D01*
X86464422Y-118511421D01*
X87301426Y-117674418D01*
X87333291Y-117648267D01*
X87437636Y-117521122D01*
X87515172Y-117376063D01*
X87562918Y-117218665D01*
X87575000Y-117095995D01*
X87579040Y-117054977D01*
X87575000Y-117013958D01*
X87575000Y-116525869D01*
X87802584Y-116298286D01*
X88008966Y-116408599D01*
X88288889Y-116493513D01*
X88507050Y-116515000D01*
X88652950Y-116515000D01*
X88871111Y-116493513D01*
X89151034Y-116408599D01*
X89409014Y-116270706D01*
X89635134Y-116085134D01*
X89820706Y-115859014D01*
X89855201Y-115794477D01*
X89924822Y-115911355D01*
X90119731Y-116127588D01*
X90353080Y-116301641D01*
X90615901Y-116426825D01*
X90763110Y-116471476D01*
X90993000Y-116350155D01*
X90993000Y-115157000D01*
X90973000Y-115157000D01*
X90973000Y-114903000D01*
X90993000Y-114903000D01*
X90993000Y-112617000D01*
X90973000Y-112617000D01*
X90973000Y-112363000D01*
X90993000Y-112363000D01*
X90993000Y-111169845D01*
X90763110Y-111048524D01*
X90615901Y-111093175D01*
X90353080Y-111218359D01*
X90119731Y-111392412D01*
X89924822Y-111608645D01*
X89855201Y-111725523D01*
X89820706Y-111660986D01*
X89635134Y-111434866D01*
X89409014Y-111249294D01*
X89151034Y-111111401D01*
X88871111Y-111026487D01*
X88652950Y-111005000D01*
X88507050Y-111005000D01*
X88288889Y-111026487D01*
X88008966Y-111111401D01*
X87750986Y-111249294D01*
X87524866Y-111434866D01*
X87339294Y-111660986D01*
X87310000Y-111715791D01*
X87280706Y-111660986D01*
X87095134Y-111434866D01*
X86869014Y-111249294D01*
X86611034Y-111111401D01*
X86331111Y-111026487D01*
X86112950Y-111005000D01*
X85967050Y-111005000D01*
X85748889Y-111026487D01*
X85468966Y-111111401D01*
X85262584Y-111221714D01*
X85035000Y-110994131D01*
X85035000Y-107331068D01*
X85039040Y-107290050D01*
X85022918Y-107126361D01*
X84975172Y-106968963D01*
X84897636Y-106823904D01*
X84819439Y-106728620D01*
X84819437Y-106728618D01*
X84793291Y-106696759D01*
X84761432Y-106670613D01*
X74495000Y-96404183D01*
X74495000Y-93355039D01*
X74671302Y-93282012D01*
X75020983Y-93048363D01*
X75318363Y-92750983D01*
X75552012Y-92401302D01*
X75712953Y-92012756D01*
X75795000Y-91600279D01*
X75795000Y-91179721D01*
X75712953Y-90767244D01*
X75552012Y-90378698D01*
X75318363Y-90029017D01*
X75020983Y-89731637D01*
X74671302Y-89497988D01*
X74282756Y-89337047D01*
X73870279Y-89255000D01*
X73449721Y-89255000D01*
X73037244Y-89337047D01*
X72648698Y-89497988D01*
X72299017Y-89731637D01*
X72001637Y-90029017D01*
X71767988Y-90378698D01*
X71607047Y-90767244D01*
X71525000Y-91179721D01*
X71525000Y-91600279D01*
X71607047Y-92012756D01*
X71767988Y-92401302D01*
X72001637Y-92750983D01*
X72299017Y-93048363D01*
X72648698Y-93282012D01*
X72825001Y-93355039D01*
X72825000Y-95724132D01*
X69289926Y-92189059D01*
X69362953Y-92012756D01*
X69445000Y-91600279D01*
X69445000Y-91179721D01*
X69362953Y-90767244D01*
X69202012Y-90378698D01*
X68968363Y-90029017D01*
X68670983Y-89731637D01*
X68321302Y-89497988D01*
X67932756Y-89337047D01*
X67520279Y-89255000D01*
X67099721Y-89255000D01*
X66687244Y-89337047D01*
X66298698Y-89497988D01*
X65949017Y-89731637D01*
X65651637Y-90029017D01*
X65417988Y-90378698D01*
X65257047Y-90767244D01*
X65175000Y-91179721D01*
X63085027Y-91179721D01*
X63055334Y-90929549D01*
X62925243Y-90529617D01*
X62767214Y-90233962D01*
X62451653Y-90077952D01*
X61139605Y-91390000D01*
X60780395Y-91390000D01*
X59468347Y-90077952D01*
X59152786Y-90233962D01*
X58961980Y-90608745D01*
X58847956Y-91013551D01*
X58815098Y-91432824D01*
X56845000Y-91432824D01*
X56845000Y-89898347D01*
X59647952Y-89898347D01*
X60960000Y-91210395D01*
X62272048Y-89898347D01*
X62116038Y-89582786D01*
X61741255Y-89391980D01*
X61336449Y-89277956D01*
X60917176Y-89245098D01*
X60499549Y-89294666D01*
X60099617Y-89424757D01*
X59803962Y-89582786D01*
X59647952Y-89898347D01*
X56845000Y-89898347D01*
X56845000Y-86811653D01*
X59647952Y-86811653D01*
X59803962Y-87127214D01*
X60178745Y-87318020D01*
X60583551Y-87432044D01*
X61002824Y-87464902D01*
X61420451Y-87415334D01*
X61820383Y-87285243D01*
X62116038Y-87127214D01*
X62272048Y-86811653D01*
X65997952Y-86811653D01*
X66153962Y-87127214D01*
X66528745Y-87318020D01*
X66933551Y-87432044D01*
X67352824Y-87464902D01*
X67770451Y-87415334D01*
X68170383Y-87285243D01*
X68466038Y-87127214D01*
X68622048Y-86811653D01*
X72347952Y-86811653D01*
X72503962Y-87127214D01*
X72878745Y-87318020D01*
X73283551Y-87432044D01*
X73702824Y-87464902D01*
X74120451Y-87415334D01*
X74520383Y-87285243D01*
X74816038Y-87127214D01*
X74972048Y-86811653D01*
X73660000Y-85499605D01*
X72347952Y-86811653D01*
X68622048Y-86811653D01*
X67310000Y-85499605D01*
X65997952Y-86811653D01*
X62272048Y-86811653D01*
X60960000Y-85499605D01*
X59647952Y-86811653D01*
X56845000Y-86811653D01*
X56845000Y-85362824D01*
X58815098Y-85362824D01*
X58864666Y-85780451D01*
X58994757Y-86180383D01*
X59152786Y-86476038D01*
X59468347Y-86632048D01*
X60780395Y-85320000D01*
X61139605Y-85320000D01*
X62451653Y-86632048D01*
X62767214Y-86476038D01*
X62958020Y-86101255D01*
X63072044Y-85696449D01*
X63098189Y-85362824D01*
X65165098Y-85362824D01*
X65214666Y-85780451D01*
X65344757Y-86180383D01*
X65502786Y-86476038D01*
X65818347Y-86632048D01*
X67130395Y-85320000D01*
X67489605Y-85320000D01*
X68801653Y-86632048D01*
X69117214Y-86476038D01*
X69308020Y-86101255D01*
X69422044Y-85696449D01*
X69448189Y-85362824D01*
X71515098Y-85362824D01*
X71564666Y-85780451D01*
X71694757Y-86180383D01*
X71852786Y-86476038D01*
X72168347Y-86632048D01*
X73480395Y-85320000D01*
X73839605Y-85320000D01*
X75151653Y-86632048D01*
X75467214Y-86476038D01*
X75658020Y-86101255D01*
X75772044Y-85696449D01*
X75804902Y-85277176D01*
X75755334Y-84859549D01*
X75625243Y-84459617D01*
X75467214Y-84163962D01*
X75151653Y-84007952D01*
X73839605Y-85320000D01*
X73480395Y-85320000D01*
X72168347Y-84007952D01*
X71852786Y-84163962D01*
X71661980Y-84538745D01*
X71547956Y-84943551D01*
X71515098Y-85362824D01*
X69448189Y-85362824D01*
X69454902Y-85277176D01*
X69405334Y-84859549D01*
X69275243Y-84459617D01*
X69117214Y-84163962D01*
X68801653Y-84007952D01*
X67489605Y-85320000D01*
X67130395Y-85320000D01*
X65818347Y-84007952D01*
X65502786Y-84163962D01*
X65311980Y-84538745D01*
X65197956Y-84943551D01*
X65165098Y-85362824D01*
X63098189Y-85362824D01*
X63104902Y-85277176D01*
X63055334Y-84859549D01*
X62925243Y-84459617D01*
X62767214Y-84163962D01*
X62451653Y-84007952D01*
X61139605Y-85320000D01*
X60780395Y-85320000D01*
X59468347Y-84007952D01*
X59152786Y-84163962D01*
X58961980Y-84538745D01*
X58847956Y-84943551D01*
X58815098Y-85362824D01*
X56845000Y-85362824D01*
X56845000Y-83828347D01*
X59647952Y-83828347D01*
X60960000Y-85140395D01*
X62272048Y-83828347D01*
X65997952Y-83828347D01*
X67310000Y-85140395D01*
X68622048Y-83828347D01*
X72347952Y-83828347D01*
X73660000Y-85140395D01*
X74972048Y-83828347D01*
X74816038Y-83512786D01*
X74441255Y-83321980D01*
X74036449Y-83207956D01*
X73617176Y-83175098D01*
X73199549Y-83224666D01*
X72799617Y-83354757D01*
X72503962Y-83512786D01*
X72347952Y-83828347D01*
X68622048Y-83828347D01*
X68466038Y-83512786D01*
X68091255Y-83321980D01*
X67686449Y-83207956D01*
X67267176Y-83175098D01*
X66849549Y-83224666D01*
X66449617Y-83354757D01*
X66153962Y-83512786D01*
X65997952Y-83828347D01*
X62272048Y-83828347D01*
X62116038Y-83512786D01*
X61741255Y-83321980D01*
X61336449Y-83207956D01*
X60917176Y-83175098D01*
X60499549Y-83224666D01*
X60099617Y-83354757D01*
X59803962Y-83512786D01*
X59647952Y-83828347D01*
X56845000Y-83828347D01*
X56845000Y-75381653D01*
X59647952Y-75381653D01*
X59803962Y-75697214D01*
X60178745Y-75888020D01*
X60583551Y-76002044D01*
X61002824Y-76034902D01*
X61420451Y-75985334D01*
X61820383Y-75855243D01*
X62116038Y-75697214D01*
X62272048Y-75381653D01*
X60960000Y-74069605D01*
X59647952Y-75381653D01*
X56845000Y-75381653D01*
X56845000Y-73932824D01*
X58815098Y-73932824D01*
X58864666Y-74350451D01*
X58994757Y-74750383D01*
X59152786Y-75046038D01*
X59468347Y-75202048D01*
X60780395Y-73890000D01*
X61139605Y-73890000D01*
X62451653Y-75202048D01*
X62767214Y-75046038D01*
X62958020Y-74671255D01*
X63072044Y-74266449D01*
X63104902Y-73847176D01*
X63085027Y-73679721D01*
X65175000Y-73679721D01*
X65175000Y-74100279D01*
X65257047Y-74512756D01*
X65417988Y-74901302D01*
X65651637Y-75250983D01*
X65949017Y-75548363D01*
X66298698Y-75782012D01*
X66687244Y-75942953D01*
X67099721Y-76025000D01*
X67520279Y-76025000D01*
X67932756Y-75942953D01*
X68109059Y-75869926D01*
X72603596Y-80364464D01*
X72603602Y-80364469D01*
X95365001Y-103125870D01*
X95365000Y-111254206D01*
X95144866Y-111434866D01*
X94959294Y-111660986D01*
X94930000Y-111715791D01*
X94900706Y-111660986D01*
X94715134Y-111434866D01*
X94489014Y-111249294D01*
X94231034Y-111111401D01*
X93951111Y-111026487D01*
X93732950Y-111005000D01*
X93587050Y-111005000D01*
X93368889Y-111026487D01*
X93088966Y-111111401D01*
X92830986Y-111249294D01*
X92604866Y-111434866D01*
X92419294Y-111660986D01*
X92384799Y-111725523D01*
X92315178Y-111608645D01*
X92120269Y-111392412D01*
X91886920Y-111218359D01*
X91624099Y-111093175D01*
X91476890Y-111048524D01*
X91247000Y-111169845D01*
X91247000Y-112363000D01*
X91267000Y-112363000D01*
X91267000Y-112617000D01*
X91247000Y-112617000D01*
X91247000Y-114903000D01*
X91267000Y-114903000D01*
X91267000Y-115157000D01*
X91247000Y-115157000D01*
X91247000Y-116350155D01*
X91476890Y-116471476D01*
X91624099Y-116426825D01*
X91886920Y-116301641D01*
X92120269Y-116127588D01*
X92315178Y-115911355D01*
X92384799Y-115794477D01*
X92419294Y-115859014D01*
X92604866Y-116085134D01*
X92830986Y-116270706D01*
X93088966Y-116408599D01*
X93368889Y-116493513D01*
X93587050Y-116515000D01*
X93732950Y-116515000D01*
X93951111Y-116493513D01*
X94231034Y-116408599D01*
X94489014Y-116270706D01*
X94715134Y-116085134D01*
X94900706Y-115859014D01*
X94930000Y-115804209D01*
X94959294Y-115859014D01*
X95144866Y-116085134D01*
X95370986Y-116270706D01*
X95628966Y-116408599D01*
X95908889Y-116493513D01*
X96127050Y-116515000D01*
X96272950Y-116515000D01*
X96491111Y-116493513D01*
X96771034Y-116408599D01*
X97029014Y-116270706D01*
X97255134Y-116085134D01*
X97440706Y-115859014D01*
X97475201Y-115794477D01*
X97544822Y-115911355D01*
X97739731Y-116127588D01*
X97973080Y-116301641D01*
X98235901Y-116426825D01*
X98383110Y-116471476D01*
X98613000Y-116350155D01*
X98613000Y-115157000D01*
X98593000Y-115157000D01*
X98593000Y-114903000D01*
X98613000Y-114903000D01*
X98613000Y-112617000D01*
X98593000Y-112617000D01*
X98593000Y-112363000D01*
X98613000Y-112363000D01*
X98613000Y-111169845D01*
X98867000Y-111169845D01*
X98867000Y-112363000D01*
X98887000Y-112363000D01*
X98887000Y-112617000D01*
X98867000Y-112617000D01*
X98867000Y-114903000D01*
X98887000Y-114903000D01*
X98887000Y-115157000D01*
X98867000Y-115157000D01*
X98867000Y-116350155D01*
X99096890Y-116471476D01*
X99244099Y-116426825D01*
X99506920Y-116301641D01*
X99740269Y-116127588D01*
X99935178Y-115911355D01*
X100004799Y-115794477D01*
X100039294Y-115859014D01*
X100224866Y-116085134D01*
X100450986Y-116270706D01*
X100708966Y-116408599D01*
X100988889Y-116493513D01*
X101207050Y-116515000D01*
X101352950Y-116515000D01*
X101571111Y-116493513D01*
X101851034Y-116408599D01*
X102109014Y-116270706D01*
X102335134Y-116085134D01*
X102520706Y-115859014D01*
X102550000Y-115804209D01*
X102579294Y-115859014D01*
X102764866Y-116085134D01*
X102990986Y-116270706D01*
X103248966Y-116408599D01*
X103528889Y-116493513D01*
X103747050Y-116515000D01*
X103892950Y-116515000D01*
X104111111Y-116493513D01*
X104391034Y-116408599D01*
X104649014Y-116270706D01*
X104875134Y-116085134D01*
X105060706Y-115859014D01*
X105090000Y-115804209D01*
X105119294Y-115859014D01*
X105304866Y-116085134D01*
X105530986Y-116270706D01*
X105788966Y-116408599D01*
X106068889Y-116493513D01*
X106287050Y-116515000D01*
X106432950Y-116515000D01*
X106651111Y-116493513D01*
X106931034Y-116408599D01*
X107189014Y-116270706D01*
X107415134Y-116085134D01*
X107600706Y-115859014D01*
X107738599Y-115601034D01*
X107823513Y-115321111D01*
X107852185Y-115030000D01*
X107823513Y-114738889D01*
X107738599Y-114458966D01*
X107600706Y-114200986D01*
X107415134Y-113974866D01*
X107385313Y-113950393D01*
X107454180Y-113929502D01*
X107564494Y-113870537D01*
X107661185Y-113791185D01*
X107740537Y-113694494D01*
X107799502Y-113584180D01*
X107835812Y-113464482D01*
X107848072Y-113340000D01*
X107848072Y-111640000D01*
X107835812Y-111515518D01*
X107799502Y-111395820D01*
X107740537Y-111285506D01*
X107661185Y-111188815D01*
X107564494Y-111109463D01*
X107454180Y-111050498D01*
X107334482Y-111014188D01*
X107210000Y-111001928D01*
X105510000Y-111001928D01*
X105385518Y-111014188D01*
X105265820Y-111050498D01*
X105155506Y-111109463D01*
X105058815Y-111188815D01*
X104979463Y-111285506D01*
X104920498Y-111395820D01*
X104899607Y-111464687D01*
X104875134Y-111434866D01*
X104649014Y-111249294D01*
X104391034Y-111111401D01*
X104111111Y-111026487D01*
X103892950Y-111005000D01*
X103747050Y-111005000D01*
X103528889Y-111026487D01*
X103248966Y-111111401D01*
X102990986Y-111249294D01*
X102764866Y-111434866D01*
X102579294Y-111660986D01*
X102550000Y-111715791D01*
X102520706Y-111660986D01*
X102335134Y-111434866D01*
X102109014Y-111249294D01*
X101851034Y-111111401D01*
X101571111Y-111026487D01*
X101352950Y-111005000D01*
X101207050Y-111005000D01*
X100988889Y-111026487D01*
X100708966Y-111111401D01*
X100450986Y-111249294D01*
X100224866Y-111434866D01*
X100039294Y-111660986D01*
X100004799Y-111725523D01*
X99935178Y-111608645D01*
X99740269Y-111392412D01*
X99506920Y-111218359D01*
X99244099Y-111093175D01*
X99096890Y-111048524D01*
X98867000Y-111169845D01*
X98613000Y-111169845D01*
X98383110Y-111048524D01*
X98235901Y-111093175D01*
X97973080Y-111218359D01*
X97965146Y-111224277D01*
X97735000Y-110994131D01*
X97735000Y-102531068D01*
X97739040Y-102490049D01*
X97722918Y-102326361D01*
X97675172Y-102168963D01*
X97597636Y-102023904D01*
X97544877Y-101959617D01*
X97493291Y-101896759D01*
X97461427Y-101870609D01*
X74495000Y-78904183D01*
X74495000Y-75855039D01*
X74671302Y-75782012D01*
X75020983Y-75548363D01*
X75318363Y-75250983D01*
X75552012Y-74901302D01*
X75712953Y-74512756D01*
X75795000Y-74100279D01*
X75795000Y-73679721D01*
X75712953Y-73267244D01*
X75552012Y-72878698D01*
X75318363Y-72529017D01*
X75020983Y-72231637D01*
X74671302Y-71997988D01*
X74282756Y-71837047D01*
X73870279Y-71755000D01*
X73449721Y-71755000D01*
X73037244Y-71837047D01*
X72648698Y-71997988D01*
X72299017Y-72231637D01*
X72001637Y-72529017D01*
X71767988Y-72878698D01*
X71607047Y-73267244D01*
X71525000Y-73679721D01*
X71525000Y-74100279D01*
X71607047Y-74512756D01*
X71767988Y-74901302D01*
X72001637Y-75250983D01*
X72299017Y-75548363D01*
X72648698Y-75782012D01*
X72825001Y-75855039D01*
X72825000Y-78224132D01*
X69289926Y-74689059D01*
X69362953Y-74512756D01*
X69445000Y-74100279D01*
X69445000Y-73679721D01*
X69362953Y-73267244D01*
X69202012Y-72878698D01*
X68968363Y-72529017D01*
X68670983Y-72231637D01*
X68321302Y-71997988D01*
X67932756Y-71837047D01*
X67520279Y-71755000D01*
X67099721Y-71755000D01*
X66687244Y-71837047D01*
X66298698Y-71997988D01*
X65949017Y-72231637D01*
X65651637Y-72529017D01*
X65417988Y-72878698D01*
X65257047Y-73267244D01*
X65175000Y-73679721D01*
X63085027Y-73679721D01*
X63055334Y-73429549D01*
X62925243Y-73029617D01*
X62767214Y-72733962D01*
X62451653Y-72577952D01*
X61139605Y-73890000D01*
X60780395Y-73890000D01*
X59468347Y-72577952D01*
X59152786Y-72733962D01*
X58961980Y-73108745D01*
X58847956Y-73513551D01*
X58815098Y-73932824D01*
X56845000Y-73932824D01*
X56845000Y-72398347D01*
X59647952Y-72398347D01*
X60960000Y-73710395D01*
X62272048Y-72398347D01*
X62116038Y-72082786D01*
X61741255Y-71891980D01*
X61336449Y-71777956D01*
X60917176Y-71745098D01*
X60499549Y-71794666D01*
X60099617Y-71924757D01*
X59803962Y-72082786D01*
X59647952Y-72398347D01*
X56845000Y-72398347D01*
X56845000Y-69311653D01*
X59647952Y-69311653D01*
X59803962Y-69627214D01*
X60178745Y-69818020D01*
X60583551Y-69932044D01*
X61002824Y-69964902D01*
X61420451Y-69915334D01*
X61820383Y-69785243D01*
X62116038Y-69627214D01*
X62272048Y-69311653D01*
X65997952Y-69311653D01*
X66153962Y-69627214D01*
X66528745Y-69818020D01*
X66933551Y-69932044D01*
X67352824Y-69964902D01*
X67770451Y-69915334D01*
X68170383Y-69785243D01*
X68466038Y-69627214D01*
X68622048Y-69311653D01*
X72347952Y-69311653D01*
X72503962Y-69627214D01*
X72878745Y-69818020D01*
X73283551Y-69932044D01*
X73702824Y-69964902D01*
X74120451Y-69915334D01*
X74520383Y-69785243D01*
X74816038Y-69627214D01*
X74972048Y-69311653D01*
X73660000Y-67999605D01*
X72347952Y-69311653D01*
X68622048Y-69311653D01*
X67310000Y-67999605D01*
X65997952Y-69311653D01*
X62272048Y-69311653D01*
X60960000Y-67999605D01*
X59647952Y-69311653D01*
X56845000Y-69311653D01*
X56845000Y-67862824D01*
X58815098Y-67862824D01*
X58864666Y-68280451D01*
X58994757Y-68680383D01*
X59152786Y-68976038D01*
X59468347Y-69132048D01*
X60780395Y-67820000D01*
X61139605Y-67820000D01*
X62451653Y-69132048D01*
X62767214Y-68976038D01*
X62958020Y-68601255D01*
X63072044Y-68196449D01*
X63098189Y-67862824D01*
X65165098Y-67862824D01*
X65214666Y-68280451D01*
X65344757Y-68680383D01*
X65502786Y-68976038D01*
X65818347Y-69132048D01*
X67130395Y-67820000D01*
X67489605Y-67820000D01*
X68801653Y-69132048D01*
X69117214Y-68976038D01*
X69308020Y-68601255D01*
X69422044Y-68196449D01*
X69448189Y-67862824D01*
X71515098Y-67862824D01*
X71564666Y-68280451D01*
X71694757Y-68680383D01*
X71852786Y-68976038D01*
X72168347Y-69132048D01*
X73480395Y-67820000D01*
X73839605Y-67820000D01*
X75151653Y-69132048D01*
X75467214Y-68976038D01*
X75658020Y-68601255D01*
X75772044Y-68196449D01*
X75804902Y-67777176D01*
X75755334Y-67359549D01*
X75625243Y-66959617D01*
X75467214Y-66663962D01*
X75151653Y-66507952D01*
X73839605Y-67820000D01*
X73480395Y-67820000D01*
X72168347Y-66507952D01*
X71852786Y-66663962D01*
X71661980Y-67038745D01*
X71547956Y-67443551D01*
X71515098Y-67862824D01*
X69448189Y-67862824D01*
X69454902Y-67777176D01*
X69405334Y-67359549D01*
X69275243Y-66959617D01*
X69117214Y-66663962D01*
X68801653Y-66507952D01*
X67489605Y-67820000D01*
X67130395Y-67820000D01*
X65818347Y-66507952D01*
X65502786Y-66663962D01*
X65311980Y-67038745D01*
X65197956Y-67443551D01*
X65165098Y-67862824D01*
X63098189Y-67862824D01*
X63104902Y-67777176D01*
X63055334Y-67359549D01*
X62925243Y-66959617D01*
X62767214Y-66663962D01*
X62451653Y-66507952D01*
X61139605Y-67820000D01*
X60780395Y-67820000D01*
X59468347Y-66507952D01*
X59152786Y-66663962D01*
X58961980Y-67038745D01*
X58847956Y-67443551D01*
X58815098Y-67862824D01*
X56845000Y-67862824D01*
X56845000Y-66328347D01*
X59647952Y-66328347D01*
X60960000Y-67640395D01*
X62272048Y-66328347D01*
X65997952Y-66328347D01*
X67310000Y-67640395D01*
X68622048Y-66328347D01*
X72347952Y-66328347D01*
X73660000Y-67640395D01*
X74972048Y-66328347D01*
X74816038Y-66012786D01*
X74441255Y-65821980D01*
X74036449Y-65707956D01*
X73617176Y-65675098D01*
X73199549Y-65724666D01*
X72799617Y-65854757D01*
X72503962Y-66012786D01*
X72347952Y-66328347D01*
X68622048Y-66328347D01*
X68466038Y-66012786D01*
X68091255Y-65821980D01*
X67686449Y-65707956D01*
X67267176Y-65675098D01*
X66849549Y-65724666D01*
X66449617Y-65854757D01*
X66153962Y-66012786D01*
X65997952Y-66328347D01*
X62272048Y-66328347D01*
X62116038Y-66012786D01*
X61741255Y-65821980D01*
X61336449Y-65707956D01*
X60917176Y-65675098D01*
X60499549Y-65724666D01*
X60099617Y-65854757D01*
X59803962Y-66012786D01*
X59647952Y-66328347D01*
X56845000Y-66328347D01*
X56845000Y-60483750D01*
X94448000Y-60483750D01*
X94448000Y-60935542D01*
X94472403Y-61058223D01*
X94520270Y-61173785D01*
X94589763Y-61277789D01*
X94678211Y-61366237D01*
X94782215Y-61435730D01*
X94897777Y-61483597D01*
X95020458Y-61508000D01*
X95472250Y-61508000D01*
X95631000Y-61349250D01*
X95631000Y-60325000D01*
X94606750Y-60325000D01*
X94448000Y-60483750D01*
X56845000Y-60483750D01*
X56845000Y-57881653D01*
X59647952Y-57881653D01*
X59803962Y-58197214D01*
X60178745Y-58388020D01*
X60583551Y-58502044D01*
X61002824Y-58534902D01*
X61420451Y-58485334D01*
X61820383Y-58355243D01*
X62116038Y-58197214D01*
X62272048Y-57881653D01*
X60960000Y-56569605D01*
X59647952Y-57881653D01*
X56845000Y-57881653D01*
X56845000Y-56432824D01*
X58815098Y-56432824D01*
X58864666Y-56850451D01*
X58994757Y-57250383D01*
X59152786Y-57546038D01*
X59468347Y-57702048D01*
X60780395Y-56390000D01*
X61139605Y-56390000D01*
X62451653Y-57702048D01*
X62767214Y-57546038D01*
X62958020Y-57171255D01*
X63072044Y-56766449D01*
X63104902Y-56347176D01*
X63085027Y-56179721D01*
X65175000Y-56179721D01*
X65175000Y-56600279D01*
X65257047Y-57012756D01*
X65417988Y-57401302D01*
X65651637Y-57750983D01*
X65949017Y-58048363D01*
X66298698Y-58282012D01*
X66687244Y-58442953D01*
X67099721Y-58525000D01*
X67520279Y-58525000D01*
X67932756Y-58442953D01*
X68321302Y-58282012D01*
X68670983Y-58048363D01*
X68968363Y-57750983D01*
X69202012Y-57401302D01*
X69362953Y-57012756D01*
X69445000Y-56600279D01*
X69445000Y-56179721D01*
X71525000Y-56179721D01*
X71525000Y-56600279D01*
X71607047Y-57012756D01*
X71767988Y-57401302D01*
X72001637Y-57750983D01*
X72299017Y-58048363D01*
X72648698Y-58282012D01*
X73037244Y-58442953D01*
X73449721Y-58525000D01*
X73870279Y-58525000D01*
X74282756Y-58442953D01*
X74671302Y-58282012D01*
X75020983Y-58048363D01*
X75318363Y-57750983D01*
X75552012Y-57401302D01*
X75712953Y-57012756D01*
X75795000Y-56600279D01*
X75795000Y-56558823D01*
X78740000Y-56558823D01*
X78740000Y-58457178D01*
X78761850Y-58679012D01*
X78848193Y-58963648D01*
X78988407Y-59225970D01*
X79177104Y-59455897D01*
X79407031Y-59644594D01*
X79669353Y-59784808D01*
X79953989Y-59871151D01*
X80250000Y-59900306D01*
X80546012Y-59871151D01*
X80830648Y-59784808D01*
X81092970Y-59644594D01*
X81322897Y-59455897D01*
X81500001Y-59240097D01*
X81677104Y-59455897D01*
X81907031Y-59644594D01*
X82169353Y-59784808D01*
X82453989Y-59871151D01*
X82750000Y-59900306D01*
X83046012Y-59871151D01*
X83330648Y-59784808D01*
X83592970Y-59644594D01*
X83822897Y-59455897D01*
X84011594Y-59225970D01*
X84151808Y-58963648D01*
X84238151Y-58679012D01*
X84260000Y-58457178D01*
X84260000Y-58340122D01*
X84437235Y-58517357D01*
X84646061Y-58656890D01*
X84878096Y-58753002D01*
X85124423Y-58802000D01*
X85375577Y-58802000D01*
X85621904Y-58753002D01*
X85853939Y-58656890D01*
X86062765Y-58517357D01*
X86240000Y-58340122D01*
X86240000Y-58457178D01*
X86261850Y-58679012D01*
X86348193Y-58963648D01*
X86488407Y-59225970D01*
X86677104Y-59455897D01*
X86907031Y-59644594D01*
X87169353Y-59784808D01*
X87453989Y-59871151D01*
X87750000Y-59900306D01*
X88046012Y-59871151D01*
X88330648Y-59784808D01*
X88592970Y-59644594D01*
X88822897Y-59455897D01*
X89000001Y-59240097D01*
X89177104Y-59455897D01*
X89407031Y-59644594D01*
X89669353Y-59784808D01*
X89953989Y-59871151D01*
X90250000Y-59900306D01*
X90546012Y-59871151D01*
X90830648Y-59784808D01*
X91092970Y-59644594D01*
X91317339Y-59460458D01*
X94448000Y-59460458D01*
X94448000Y-59912250D01*
X94606750Y-60071000D01*
X95631000Y-60071000D01*
X95631000Y-59046750D01*
X95885000Y-59046750D01*
X95885000Y-60071000D01*
X95905000Y-60071000D01*
X95905000Y-60325000D01*
X95885000Y-60325000D01*
X95885000Y-61349250D01*
X96043750Y-61508000D01*
X96495542Y-61508000D01*
X96618223Y-61483597D01*
X96733785Y-61435730D01*
X96837789Y-61366237D01*
X96926237Y-61277789D01*
X96955464Y-61234048D01*
X97026682Y-61292495D01*
X97254259Y-61414138D01*
X97501195Y-61489045D01*
X97693649Y-61508000D01*
X97822351Y-61508000D01*
X98014805Y-61489045D01*
X98261741Y-61414138D01*
X98489318Y-61292495D01*
X98688792Y-61128792D01*
X98758000Y-61044461D01*
X98827208Y-61128792D01*
X99026682Y-61292495D01*
X99254259Y-61414138D01*
X99501195Y-61489045D01*
X99693649Y-61508000D01*
X99822351Y-61508000D01*
X100014805Y-61489045D01*
X100261741Y-61414138D01*
X100489318Y-61292495D01*
X100688792Y-61128792D01*
X100758000Y-61044461D01*
X100827208Y-61128792D01*
X101026682Y-61292495D01*
X101254259Y-61414138D01*
X101501195Y-61489045D01*
X101693649Y-61508000D01*
X101822351Y-61508000D01*
X102014805Y-61489045D01*
X102261741Y-61414138D01*
X102489318Y-61292495D01*
X102688792Y-61128792D01*
X102758000Y-61044461D01*
X102827208Y-61128792D01*
X103026682Y-61292495D01*
X103254259Y-61414138D01*
X103501195Y-61489045D01*
X103693649Y-61508000D01*
X103822351Y-61508000D01*
X104014805Y-61489045D01*
X104261741Y-61414138D01*
X104489318Y-61292495D01*
X104688792Y-61128792D01*
X104852495Y-60929318D01*
X104974138Y-60701741D01*
X105049045Y-60454805D01*
X105074338Y-60198000D01*
X105049045Y-59941195D01*
X104974138Y-59694259D01*
X104852495Y-59466682D01*
X104688792Y-59267208D01*
X104489318Y-59103505D01*
X104261741Y-58981862D01*
X104014805Y-58906955D01*
X103822351Y-58888000D01*
X103693649Y-58888000D01*
X103501195Y-58906955D01*
X103254259Y-58981862D01*
X103026682Y-59103505D01*
X102827208Y-59267208D01*
X102758000Y-59351539D01*
X102688792Y-59267208D01*
X102489318Y-59103505D01*
X102261741Y-58981862D01*
X102014805Y-58906955D01*
X101822351Y-58888000D01*
X101693649Y-58888000D01*
X101501195Y-58906955D01*
X101254259Y-58981862D01*
X101026682Y-59103505D01*
X100827208Y-59267208D01*
X100758000Y-59351539D01*
X100688792Y-59267208D01*
X100489318Y-59103505D01*
X100261741Y-58981862D01*
X100014805Y-58906955D01*
X99822351Y-58888000D01*
X99693649Y-58888000D01*
X99501195Y-58906955D01*
X99254259Y-58981862D01*
X99026682Y-59103505D01*
X98827208Y-59267208D01*
X98758000Y-59351539D01*
X98688792Y-59267208D01*
X98489318Y-59103505D01*
X98261741Y-58981862D01*
X98014805Y-58906955D01*
X97822351Y-58888000D01*
X97693649Y-58888000D01*
X97501195Y-58906955D01*
X97254259Y-58981862D01*
X97026682Y-59103505D01*
X96955464Y-59161952D01*
X96926237Y-59118211D01*
X96837789Y-59029763D01*
X96733785Y-58960270D01*
X96618223Y-58912403D01*
X96495542Y-58888000D01*
X96043750Y-58888000D01*
X95885000Y-59046750D01*
X95631000Y-59046750D01*
X95472250Y-58888000D01*
X95020458Y-58888000D01*
X94897777Y-58912403D01*
X94782215Y-58960270D01*
X94678211Y-59029763D01*
X94589763Y-59118211D01*
X94520270Y-59222215D01*
X94472403Y-59337777D01*
X94448000Y-59460458D01*
X91317339Y-59460458D01*
X91322897Y-59455897D01*
X91511594Y-59225970D01*
X91651808Y-58963648D01*
X91738151Y-58679012D01*
X91760000Y-58457178D01*
X91760000Y-56558822D01*
X91738151Y-56336988D01*
X91651808Y-56052352D01*
X91511594Y-55790030D01*
X91322897Y-55560103D01*
X91092969Y-55371406D01*
X90830647Y-55231192D01*
X90546011Y-55144849D01*
X90250000Y-55115694D01*
X89953988Y-55144849D01*
X89669352Y-55231192D01*
X89407030Y-55371406D01*
X89177103Y-55560103D01*
X89000000Y-55775903D01*
X88822897Y-55560103D01*
X88592969Y-55371406D01*
X88330647Y-55231192D01*
X88046011Y-55144849D01*
X87750000Y-55115694D01*
X87453988Y-55144849D01*
X87169352Y-55231192D01*
X86907030Y-55371406D01*
X86677103Y-55560103D01*
X86488406Y-55790031D01*
X86348192Y-56052353D01*
X86261849Y-56336989D01*
X86240000Y-56558823D01*
X86240000Y-56713878D01*
X86062765Y-56536643D01*
X85853939Y-56397110D01*
X85621904Y-56300998D01*
X85375577Y-56252000D01*
X85124423Y-56252000D01*
X84878096Y-56300998D01*
X84646061Y-56397110D01*
X84437235Y-56536643D01*
X84260000Y-56713878D01*
X84260000Y-56558822D01*
X84238151Y-56336988D01*
X84151808Y-56052352D01*
X84011594Y-55790030D01*
X83822897Y-55560103D01*
X83592969Y-55371406D01*
X83330647Y-55231192D01*
X83046011Y-55144849D01*
X82750000Y-55115694D01*
X82453988Y-55144849D01*
X82169352Y-55231192D01*
X81907030Y-55371406D01*
X81677103Y-55560103D01*
X81500000Y-55775903D01*
X81322897Y-55560103D01*
X81092969Y-55371406D01*
X80830647Y-55231192D01*
X80546011Y-55144849D01*
X80250000Y-55115694D01*
X79953988Y-55144849D01*
X79669352Y-55231192D01*
X79407030Y-55371406D01*
X79177103Y-55560103D01*
X78988406Y-55790031D01*
X78848192Y-56052353D01*
X78761849Y-56336989D01*
X78740000Y-56558823D01*
X75795000Y-56558823D01*
X75795000Y-56179721D01*
X75712953Y-55767244D01*
X75552012Y-55378698D01*
X75318363Y-55029017D01*
X75020983Y-54731637D01*
X74671302Y-54497988D01*
X74282756Y-54337047D01*
X73870279Y-54255000D01*
X73449721Y-54255000D01*
X73037244Y-54337047D01*
X72648698Y-54497988D01*
X72299017Y-54731637D01*
X72001637Y-55029017D01*
X71767988Y-55378698D01*
X71607047Y-55767244D01*
X71525000Y-56179721D01*
X69445000Y-56179721D01*
X69362953Y-55767244D01*
X69202012Y-55378698D01*
X68968363Y-55029017D01*
X68670983Y-54731637D01*
X68321302Y-54497988D01*
X67932756Y-54337047D01*
X67520279Y-54255000D01*
X67099721Y-54255000D01*
X66687244Y-54337047D01*
X66298698Y-54497988D01*
X65949017Y-54731637D01*
X65651637Y-55029017D01*
X65417988Y-55378698D01*
X65257047Y-55767244D01*
X65175000Y-56179721D01*
X63085027Y-56179721D01*
X63055334Y-55929549D01*
X62925243Y-55529617D01*
X62767214Y-55233962D01*
X62451653Y-55077952D01*
X61139605Y-56390000D01*
X60780395Y-56390000D01*
X59468347Y-55077952D01*
X59152786Y-55233962D01*
X58961980Y-55608745D01*
X58847956Y-56013551D01*
X58815098Y-56432824D01*
X56845000Y-56432824D01*
X56845000Y-54898347D01*
X59647952Y-54898347D01*
X60960000Y-56210395D01*
X62272048Y-54898347D01*
X62116038Y-54582786D01*
X61741255Y-54391980D01*
X61336449Y-54277956D01*
X60917176Y-54245098D01*
X60499549Y-54294666D01*
X60099617Y-54424757D01*
X59803962Y-54582786D01*
X59647952Y-54898347D01*
X56845000Y-54898347D01*
X56845000Y-51856353D01*
X56835711Y-51762045D01*
X56867670Y-51436107D01*
X56999489Y-50999502D01*
X57213600Y-50596815D01*
X57501848Y-50243388D01*
X57853261Y-49952673D01*
X58254439Y-49735758D01*
X58690113Y-49600894D01*
X59028335Y-49565346D01*
X59126353Y-49575000D01*
X59126353Y-49575000D01*
G37*
X59126353Y-49575000D02*
X78936061Y-49575000D01*
X78895000Y-49781423D01*
X78895000Y-50032577D01*
X78943998Y-50278904D01*
X79040110Y-50510939D01*
X79179643Y-50719765D01*
X79357235Y-50897357D01*
X79566061Y-51036890D01*
X79798096Y-51133002D01*
X80019287Y-51177000D01*
X79798096Y-51220998D01*
X79566061Y-51317110D01*
X79357235Y-51456643D01*
X79179643Y-51634235D01*
X79040110Y-51843061D01*
X78943998Y-52075096D01*
X78895000Y-52321423D01*
X78895000Y-52572577D01*
X78943998Y-52818904D01*
X79040110Y-53050939D01*
X79179643Y-53259765D01*
X79357235Y-53437357D01*
X79566061Y-53576890D01*
X79798096Y-53673002D01*
X80044423Y-53722000D01*
X80295577Y-53722000D01*
X80541904Y-53673002D01*
X80773939Y-53576890D01*
X80982765Y-53437357D01*
X81160357Y-53259765D01*
X81299890Y-53050939D01*
X81396002Y-52818904D01*
X81402198Y-52787750D01*
X82865000Y-52787750D01*
X82865000Y-53814542D01*
X82889403Y-53937223D01*
X82937270Y-54052785D01*
X83006763Y-54156789D01*
X83095211Y-54245237D01*
X83199215Y-54314730D01*
X83314777Y-54362597D01*
X83437458Y-54387000D01*
X84964250Y-54387000D01*
X85123000Y-54228250D01*
X85123000Y-52629000D01*
X85377000Y-52629000D01*
X85377000Y-54228250D01*
X85535750Y-54387000D01*
X87062542Y-54387000D01*
X87185223Y-54362597D01*
X87300785Y-54314730D01*
X87404789Y-54245237D01*
X87493237Y-54156789D01*
X87562730Y-54052785D01*
X87610597Y-53937223D01*
X87635000Y-53814542D01*
X87635000Y-52787750D01*
X87476250Y-52629000D01*
X85377000Y-52629000D01*
X85123000Y-52629000D01*
X83023750Y-52629000D01*
X82865000Y-52787750D01*
X81402198Y-52787750D01*
X81445000Y-52572577D01*
X81445000Y-52321423D01*
X81396002Y-52075096D01*
X81299890Y-51843061D01*
X81160357Y-51634235D01*
X80982765Y-51456643D01*
X80773939Y-51317110D01*
X80541904Y-51220998D01*
X80383344Y-51189458D01*
X82865000Y-51189458D01*
X82865000Y-52216250D01*
X83023750Y-52375000D01*
X85123000Y-52375000D01*
X85123000Y-50775750D01*
X85377000Y-50775750D01*
X85377000Y-52375000D01*
X87476250Y-52375000D01*
X87635000Y-52216250D01*
X87635000Y-51189458D01*
X87610597Y-51066777D01*
X87562730Y-50951215D01*
X87493237Y-50847211D01*
X87404789Y-50758763D01*
X87300785Y-50689270D01*
X87185223Y-50641403D01*
X87062542Y-50617000D01*
X85535750Y-50617000D01*
X85377000Y-50775750D01*
X85123000Y-50775750D01*
X84964250Y-50617000D01*
X83437458Y-50617000D01*
X83314777Y-50641403D01*
X83199215Y-50689270D01*
X83095211Y-50758763D01*
X83006763Y-50847211D01*
X82937270Y-50951215D01*
X82889403Y-51066777D01*
X82865000Y-51189458D01*
X80383344Y-51189458D01*
X80320713Y-51177000D01*
X80541904Y-51133002D01*
X80773939Y-51036890D01*
X80982765Y-50897357D01*
X81160357Y-50719765D01*
X81299890Y-50510939D01*
X81396002Y-50278904D01*
X81445000Y-50032577D01*
X81445000Y-49781423D01*
X81403939Y-49575000D01*
X89096061Y-49575000D01*
X89055000Y-49781423D01*
X89055000Y-50032577D01*
X89103998Y-50278904D01*
X89200110Y-50510939D01*
X89339643Y-50719765D01*
X89517235Y-50897357D01*
X89726061Y-51036890D01*
X89958096Y-51133002D01*
X90179287Y-51177000D01*
X89958096Y-51220998D01*
X89726061Y-51317110D01*
X89517235Y-51456643D01*
X89339643Y-51634235D01*
X89200110Y-51843061D01*
X89103998Y-52075096D01*
X89055000Y-52321423D01*
X89055000Y-52572577D01*
X89103998Y-52818904D01*
X89200110Y-53050939D01*
X89339643Y-53259765D01*
X89517235Y-53437357D01*
X89726061Y-53576890D01*
X89958096Y-53673002D01*
X90204423Y-53722000D01*
X90455577Y-53722000D01*
X90701904Y-53673002D01*
X90933939Y-53576890D01*
X91142765Y-53437357D01*
X91320357Y-53259765D01*
X91459890Y-53050939D01*
X91556002Y-52818904D01*
X91605000Y-52572577D01*
X91605000Y-52321423D01*
X91556002Y-52075096D01*
X91459890Y-51843061D01*
X91320357Y-51634235D01*
X91142765Y-51456643D01*
X90933939Y-51317110D01*
X90701904Y-51220998D01*
X90480713Y-51177000D01*
X90701904Y-51133002D01*
X90933939Y-51036890D01*
X91142765Y-50897357D01*
X91320357Y-50719765D01*
X91459890Y-50510939D01*
X91556002Y-50278904D01*
X91605000Y-50032577D01*
X91605000Y-49781423D01*
X91563939Y-49575000D01*
X93357928Y-49575000D01*
X93357928Y-50960000D01*
X93370188Y-51084482D01*
X93406498Y-51204180D01*
X93465463Y-51314494D01*
X93544815Y-51411185D01*
X93641506Y-51490537D01*
X93751820Y-51549502D01*
X93871518Y-51585812D01*
X93996000Y-51598072D01*
X95520000Y-51598072D01*
X95644482Y-51585812D01*
X95764180Y-51549502D01*
X95874494Y-51490537D01*
X95971185Y-51411185D01*
X96050537Y-51314494D01*
X96109502Y-51204180D01*
X96145812Y-51084482D01*
X96158072Y-50960000D01*
X96158072Y-49575000D01*
X103357928Y-49575000D01*
X103357928Y-50960000D01*
X103370188Y-51084482D01*
X103406498Y-51204180D01*
X103465463Y-51314494D01*
X103544815Y-51411185D01*
X103641506Y-51490537D01*
X103751820Y-51549502D01*
X103871518Y-51585812D01*
X103996000Y-51598072D01*
X105520000Y-51598072D01*
X105644482Y-51585812D01*
X105764180Y-51549502D01*
X105874494Y-51490537D01*
X105971185Y-51411185D01*
X106050537Y-51314494D01*
X106109502Y-51204180D01*
X106145812Y-51084482D01*
X106158072Y-50960000D01*
X106158072Y-49575000D01*
X107253573Y-49575000D01*
X106841399Y-49987174D01*
X106514727Y-50476072D01*
X106289712Y-51019308D01*
X106175000Y-51596003D01*
X106175000Y-52183997D01*
X106289712Y-52760692D01*
X106514727Y-53303928D01*
X106841399Y-53792826D01*
X107257174Y-54208601D01*
X107746072Y-54535273D01*
X108289308Y-54760288D01*
X108866003Y-54875000D01*
X109453997Y-54875000D01*
X110030692Y-54760288D01*
X110573928Y-54535273D01*
X111062826Y-54208601D01*
X111475000Y-53796427D01*
X111475001Y-117983574D01*
X111062826Y-117571399D01*
X110573928Y-117244727D01*
X110030692Y-117019712D01*
X109453997Y-116905000D01*
X108866003Y-116905000D01*
X108289308Y-117019712D01*
X107746072Y-117244727D01*
X107257174Y-117571399D01*
X106841399Y-117987174D01*
X106514727Y-118476072D01*
X106289712Y-119019308D01*
X106175000Y-119596003D01*
X106175000Y-120183997D01*
X106289712Y-120760692D01*
X106514727Y-121303928D01*
X106841399Y-121792826D01*
X107253573Y-122205000D01*
X74670509Y-122205000D01*
X74816038Y-122127214D01*
X74972048Y-121811653D01*
X73660000Y-120499605D01*
X72347952Y-121811653D01*
X72503962Y-122127214D01*
X72656750Y-122205000D01*
X68331796Y-122205000D01*
X68670983Y-121978363D01*
X68968363Y-121680983D01*
X69202012Y-121331302D01*
X69362953Y-120942756D01*
X69445000Y-120530279D01*
X69445000Y-120362824D01*
X71515098Y-120362824D01*
X71564666Y-120780451D01*
X71694757Y-121180383D01*
X71852786Y-121476038D01*
X72168347Y-121632048D01*
X73480395Y-120320000D01*
X73839605Y-120320000D01*
X75151653Y-121632048D01*
X75467214Y-121476038D01*
X75658020Y-121101255D01*
X75772044Y-120696449D01*
X75804902Y-120277176D01*
X75755334Y-119859549D01*
X75625243Y-119459617D01*
X75467214Y-119163962D01*
X75151653Y-119007952D01*
X73839605Y-120320000D01*
X73480395Y-120320000D01*
X72168347Y-119007952D01*
X71852786Y-119163962D01*
X71661980Y-119538745D01*
X71547956Y-119943551D01*
X71515098Y-120362824D01*
X69445000Y-120362824D01*
X69445000Y-120109721D01*
X69362953Y-119697244D01*
X69202012Y-119308698D01*
X68968363Y-118959017D01*
X68837693Y-118828347D01*
X72347952Y-118828347D01*
X73660000Y-120140395D01*
X74972048Y-118828347D01*
X74816038Y-118512786D01*
X74441255Y-118321980D01*
X74036449Y-118207956D01*
X73617176Y-118175098D01*
X73199549Y-118224666D01*
X72799617Y-118354757D01*
X72503962Y-118512786D01*
X72347952Y-118828347D01*
X68837693Y-118828347D01*
X68670983Y-118661637D01*
X68321302Y-118427988D01*
X67932756Y-118267047D01*
X67520279Y-118185000D01*
X67099721Y-118185000D01*
X66687244Y-118267047D01*
X66298698Y-118427988D01*
X65949017Y-118661637D01*
X65651637Y-118959017D01*
X65417988Y-119308698D01*
X65257047Y-119697244D01*
X65175000Y-120109721D01*
X65175000Y-120530279D01*
X65257047Y-120942756D01*
X65417988Y-121331302D01*
X65651637Y-121680983D01*
X65949017Y-121978363D01*
X66288204Y-122205000D01*
X61970509Y-122205000D01*
X62116038Y-122127214D01*
X62272048Y-121811653D01*
X60960000Y-120499605D01*
X59647952Y-121811653D01*
X59803962Y-122127214D01*
X59956750Y-122205000D01*
X56845000Y-122205000D01*
X56845000Y-120362824D01*
X58815098Y-120362824D01*
X58864666Y-120780451D01*
X58994757Y-121180383D01*
X59152786Y-121476038D01*
X59468347Y-121632048D01*
X60780395Y-120320000D01*
X61139605Y-120320000D01*
X62451653Y-121632048D01*
X62767214Y-121476038D01*
X62958020Y-121101255D01*
X63072044Y-120696449D01*
X63104902Y-120277176D01*
X63055334Y-119859549D01*
X62925243Y-119459617D01*
X62767214Y-119163962D01*
X62451653Y-119007952D01*
X61139605Y-120320000D01*
X60780395Y-120320000D01*
X59468347Y-119007952D01*
X59152786Y-119163962D01*
X58961980Y-119538745D01*
X58847956Y-119943551D01*
X58815098Y-120362824D01*
X56845000Y-120362824D01*
X56845000Y-118828347D01*
X59647952Y-118828347D01*
X60960000Y-120140395D01*
X62272048Y-118828347D01*
X62116038Y-118512786D01*
X61741255Y-118321980D01*
X61336449Y-118207956D01*
X60917176Y-118175098D01*
X60499549Y-118224666D01*
X60099617Y-118354757D01*
X59803962Y-118512786D01*
X59647952Y-118828347D01*
X56845000Y-118828347D01*
X56845000Y-110381653D01*
X59647952Y-110381653D01*
X59803962Y-110697214D01*
X60178745Y-110888020D01*
X60583551Y-111002044D01*
X61002824Y-111034902D01*
X61420451Y-110985334D01*
X61820383Y-110855243D01*
X62116038Y-110697214D01*
X62272048Y-110381653D01*
X60960000Y-109069605D01*
X59647952Y-110381653D01*
X56845000Y-110381653D01*
X56845000Y-108932824D01*
X58815098Y-108932824D01*
X58864666Y-109350451D01*
X58994757Y-109750383D01*
X59152786Y-110046038D01*
X59468347Y-110202048D01*
X60780395Y-108890000D01*
X61139605Y-108890000D01*
X62451653Y-110202048D01*
X62767214Y-110046038D01*
X62958020Y-109671255D01*
X63072044Y-109266449D01*
X63104902Y-108847176D01*
X63055334Y-108429549D01*
X62925243Y-108029617D01*
X62767214Y-107733962D01*
X62451653Y-107577952D01*
X61139605Y-108890000D01*
X60780395Y-108890000D01*
X59468347Y-107577952D01*
X59152786Y-107733962D01*
X58961980Y-108108745D01*
X58847956Y-108513551D01*
X58815098Y-108932824D01*
X56845000Y-108932824D01*
X56845000Y-107398347D01*
X59647952Y-107398347D01*
X60960000Y-108710395D01*
X62272048Y-107398347D01*
X62116038Y-107082786D01*
X61741255Y-106891980D01*
X61336449Y-106777956D01*
X60917176Y-106745098D01*
X60499549Y-106794666D01*
X60099617Y-106924757D01*
X59803962Y-107082786D01*
X59647952Y-107398347D01*
X56845000Y-107398347D01*
X56845000Y-104311653D01*
X59647952Y-104311653D01*
X59803962Y-104627214D01*
X60178745Y-104818020D01*
X60583551Y-104932044D01*
X61002824Y-104964902D01*
X61420451Y-104915334D01*
X61820383Y-104785243D01*
X62116038Y-104627214D01*
X62272048Y-104311653D01*
X60960000Y-102999605D01*
X59647952Y-104311653D01*
X56845000Y-104311653D01*
X56845000Y-102862824D01*
X58815098Y-102862824D01*
X58864666Y-103280451D01*
X58994757Y-103680383D01*
X59152786Y-103976038D01*
X59468347Y-104132048D01*
X60780395Y-102820000D01*
X61139605Y-102820000D01*
X62451653Y-104132048D01*
X62767214Y-103976038D01*
X62958020Y-103601255D01*
X63072044Y-103196449D01*
X63104902Y-102777176D01*
X63085027Y-102609721D01*
X65175000Y-102609721D01*
X65175000Y-103030279D01*
X65257047Y-103442756D01*
X65417988Y-103831302D01*
X65651637Y-104180983D01*
X65949017Y-104478363D01*
X66298698Y-104712012D01*
X66687244Y-104872953D01*
X67099721Y-104955000D01*
X67520279Y-104955000D01*
X67932756Y-104872953D01*
X68321302Y-104712012D01*
X68670983Y-104478363D01*
X68837693Y-104311653D01*
X72347952Y-104311653D01*
X72503962Y-104627214D01*
X72878745Y-104818020D01*
X73283551Y-104932044D01*
X73702824Y-104964902D01*
X74120451Y-104915334D01*
X74520383Y-104785243D01*
X74816038Y-104627214D01*
X74972048Y-104311653D01*
X73660000Y-102999605D01*
X72347952Y-104311653D01*
X68837693Y-104311653D01*
X68968363Y-104180983D01*
X69202012Y-103831302D01*
X69362953Y-103442756D01*
X69445000Y-103030279D01*
X69445000Y-102862824D01*
X71515098Y-102862824D01*
X71564666Y-103280451D01*
X71694757Y-103680383D01*
X71852786Y-103976038D01*
X72168347Y-104132048D01*
X73480395Y-102820000D01*
X73839605Y-102820000D01*
X75151653Y-104132048D01*
X75467214Y-103976038D01*
X75658020Y-103601255D01*
X75772044Y-103196449D01*
X75804902Y-102777176D01*
X75755334Y-102359549D01*
X75625243Y-101959617D01*
X75467214Y-101663962D01*
X75151653Y-101507952D01*
X73839605Y-102820000D01*
X73480395Y-102820000D01*
X72168347Y-101507952D01*
X71852786Y-101663962D01*
X71661980Y-102038745D01*
X71547956Y-102443551D01*
X71515098Y-102862824D01*
X69445000Y-102862824D01*
X69445000Y-102609721D01*
X69362953Y-102197244D01*
X69202012Y-101808698D01*
X68968363Y-101459017D01*
X68837693Y-101328347D01*
X72347952Y-101328347D01*
X73660000Y-102640395D01*
X74972048Y-101328347D01*
X74816038Y-101012786D01*
X74441255Y-100821980D01*
X74036449Y-100707956D01*
X73617176Y-100675098D01*
X73199549Y-100724666D01*
X72799617Y-100854757D01*
X72503962Y-101012786D01*
X72347952Y-101328347D01*
X68837693Y-101328347D01*
X68670983Y-101161637D01*
X68321302Y-100927988D01*
X67932756Y-100767047D01*
X67520279Y-100685000D01*
X67099721Y-100685000D01*
X66687244Y-100767047D01*
X66298698Y-100927988D01*
X65949017Y-101161637D01*
X65651637Y-101459017D01*
X65417988Y-101808698D01*
X65257047Y-102197244D01*
X65175000Y-102609721D01*
X63085027Y-102609721D01*
X63055334Y-102359549D01*
X62925243Y-101959617D01*
X62767214Y-101663962D01*
X62451653Y-101507952D01*
X61139605Y-102820000D01*
X60780395Y-102820000D01*
X59468347Y-101507952D01*
X59152786Y-101663962D01*
X58961980Y-102038745D01*
X58847956Y-102443551D01*
X58815098Y-102862824D01*
X56845000Y-102862824D01*
X56845000Y-101328347D01*
X59647952Y-101328347D01*
X60960000Y-102640395D01*
X62272048Y-101328347D01*
X62116038Y-101012786D01*
X61741255Y-100821980D01*
X61336449Y-100707956D01*
X60917176Y-100675098D01*
X60499549Y-100724666D01*
X60099617Y-100854757D01*
X59803962Y-101012786D01*
X59647952Y-101328347D01*
X56845000Y-101328347D01*
X56845000Y-92881653D01*
X59647952Y-92881653D01*
X59803962Y-93197214D01*
X60178745Y-93388020D01*
X60583551Y-93502044D01*
X61002824Y-93534902D01*
X61420451Y-93485334D01*
X61820383Y-93355243D01*
X62116038Y-93197214D01*
X62272048Y-92881653D01*
X60960000Y-91569605D01*
X59647952Y-92881653D01*
X56845000Y-92881653D01*
X56845000Y-91432824D01*
X58815098Y-91432824D01*
X58864666Y-91850451D01*
X58994757Y-92250383D01*
X59152786Y-92546038D01*
X59468347Y-92702048D01*
X60780395Y-91390000D01*
X61139605Y-91390000D01*
X62451653Y-92702048D01*
X62767214Y-92546038D01*
X62958020Y-92171255D01*
X63072044Y-91766449D01*
X63104902Y-91347176D01*
X63085027Y-91179721D01*
X65175000Y-91179721D01*
X65175000Y-91600279D01*
X65257047Y-92012756D01*
X65417988Y-92401302D01*
X65651637Y-92750983D01*
X65949017Y-93048363D01*
X66298698Y-93282012D01*
X66687244Y-93442953D01*
X67099721Y-93525000D01*
X67520279Y-93525000D01*
X67932756Y-93442953D01*
X68109059Y-93369926D01*
X72603596Y-97864464D01*
X72603602Y-97864469D01*
X82665001Y-107925869D01*
X82665000Y-111254206D01*
X82444866Y-111434866D01*
X82259294Y-111660986D01*
X82121401Y-111918966D01*
X82036487Y-112198889D01*
X82007815Y-112490000D01*
X82036487Y-112781111D01*
X82121401Y-113061034D01*
X82259294Y-113319014D01*
X82444866Y-113545134D01*
X82670986Y-113730706D01*
X82725791Y-113760000D01*
X82670986Y-113789294D01*
X82444866Y-113974866D01*
X82259294Y-114200986D01*
X82121401Y-114458966D01*
X82036487Y-114738889D01*
X82007815Y-115030000D01*
X82036487Y-115321111D01*
X82121401Y-115601034D01*
X82259294Y-115859014D01*
X82444866Y-116085134D01*
X82670986Y-116270706D01*
X82928966Y-116408599D01*
X82950067Y-116415000D01*
X77005818Y-116415000D01*
X74495000Y-113904183D01*
X74495000Y-110855039D01*
X74671302Y-110782012D01*
X75020983Y-110548363D01*
X75318363Y-110250983D01*
X75552012Y-109901302D01*
X75712953Y-109512756D01*
X75795000Y-109100279D01*
X75795000Y-108679721D01*
X75712953Y-108267244D01*
X75552012Y-107878698D01*
X75318363Y-107529017D01*
X75020983Y-107231637D01*
X74671302Y-106997988D01*
X74282756Y-106837047D01*
X73870279Y-106755000D01*
X73449721Y-106755000D01*
X73037244Y-106837047D01*
X72648698Y-106997988D01*
X72299017Y-107231637D01*
X72001637Y-107529017D01*
X71767988Y-107878698D01*
X71607047Y-108267244D01*
X71525000Y-108679721D01*
X71525000Y-109100279D01*
X71607047Y-109512756D01*
X71767988Y-109901302D01*
X72001637Y-110250983D01*
X72299017Y-110548363D01*
X72648698Y-110782012D01*
X72825001Y-110855039D01*
X72825000Y-113224132D01*
X69289926Y-109689059D01*
X69362953Y-109512756D01*
X69445000Y-109100279D01*
X69445000Y-108679721D01*
X69362953Y-108267244D01*
X69202012Y-107878698D01*
X68968363Y-107529017D01*
X68670983Y-107231637D01*
X68321302Y-106997988D01*
X67932756Y-106837047D01*
X67520279Y-106755000D01*
X67099721Y-106755000D01*
X66687244Y-106837047D01*
X66298698Y-106997988D01*
X65949017Y-107231637D01*
X65651637Y-107529017D01*
X65417988Y-107878698D01*
X65257047Y-108267244D01*
X65175000Y-108679721D01*
X65175000Y-109100279D01*
X65257047Y-109512756D01*
X65417988Y-109901302D01*
X65651637Y-110250983D01*
X65949017Y-110548363D01*
X66298698Y-110782012D01*
X66687244Y-110942953D01*
X67099721Y-111025000D01*
X67520279Y-111025000D01*
X67932756Y-110942953D01*
X68109059Y-110869926D01*
X72603596Y-115364464D01*
X72603601Y-115364468D01*
X75750563Y-118511432D01*
X75776709Y-118543291D01*
X75903854Y-118647636D01*
X76048913Y-118725172D01*
X76206311Y-118772918D01*
X76328981Y-118785000D01*
X76328982Y-118785000D01*
X76370000Y-118789040D01*
X76411018Y-118785000D01*
X85803958Y-118785000D01*
X85844976Y-118789040D01*
X85885994Y-118785000D01*
X85885995Y-118785000D01*
X86008665Y-118772918D01*
X86166063Y-118725172D01*
X86311122Y-118647636D01*
X86438267Y-118543291D01*
X86464422Y-118511421D01*
X87301426Y-117674418D01*
X87333291Y-117648267D01*
X87437636Y-117521122D01*
X87515172Y-117376063D01*
X87562918Y-117218665D01*
X87575000Y-117095995D01*
X87579040Y-117054977D01*
X87575000Y-117013958D01*
X87575000Y-116525869D01*
X87802584Y-116298286D01*
X88008966Y-116408599D01*
X88288889Y-116493513D01*
X88507050Y-116515000D01*
X88652950Y-116515000D01*
X88871111Y-116493513D01*
X89151034Y-116408599D01*
X89409014Y-116270706D01*
X89635134Y-116085134D01*
X89820706Y-115859014D01*
X89855201Y-115794477D01*
X89924822Y-115911355D01*
X90119731Y-116127588D01*
X90353080Y-116301641D01*
X90615901Y-116426825D01*
X90763110Y-116471476D01*
X90993000Y-116350155D01*
X90993000Y-115157000D01*
X90973000Y-115157000D01*
X90973000Y-114903000D01*
X90993000Y-114903000D01*
X90993000Y-112617000D01*
X90973000Y-112617000D01*
X90973000Y-112363000D01*
X90993000Y-112363000D01*
X90993000Y-111169845D01*
X90763110Y-111048524D01*
X90615901Y-111093175D01*
X90353080Y-111218359D01*
X90119731Y-111392412D01*
X89924822Y-111608645D01*
X89855201Y-111725523D01*
X89820706Y-111660986D01*
X89635134Y-111434866D01*
X89409014Y-111249294D01*
X89151034Y-111111401D01*
X88871111Y-111026487D01*
X88652950Y-111005000D01*
X88507050Y-111005000D01*
X88288889Y-111026487D01*
X88008966Y-111111401D01*
X87750986Y-111249294D01*
X87524866Y-111434866D01*
X87339294Y-111660986D01*
X87310000Y-111715791D01*
X87280706Y-111660986D01*
X87095134Y-111434866D01*
X86869014Y-111249294D01*
X86611034Y-111111401D01*
X86331111Y-111026487D01*
X86112950Y-111005000D01*
X85967050Y-111005000D01*
X85748889Y-111026487D01*
X85468966Y-111111401D01*
X85262584Y-111221714D01*
X85035000Y-110994131D01*
X85035000Y-107331068D01*
X85039040Y-107290050D01*
X85022918Y-107126361D01*
X84975172Y-106968963D01*
X84897636Y-106823904D01*
X84819439Y-106728620D01*
X84819437Y-106728618D01*
X84793291Y-106696759D01*
X84761432Y-106670613D01*
X74495000Y-96404183D01*
X74495000Y-93355039D01*
X74671302Y-93282012D01*
X75020983Y-93048363D01*
X75318363Y-92750983D01*
X75552012Y-92401302D01*
X75712953Y-92012756D01*
X75795000Y-91600279D01*
X75795000Y-91179721D01*
X75712953Y-90767244D01*
X75552012Y-90378698D01*
X75318363Y-90029017D01*
X75020983Y-89731637D01*
X74671302Y-89497988D01*
X74282756Y-89337047D01*
X73870279Y-89255000D01*
X73449721Y-89255000D01*
X73037244Y-89337047D01*
X72648698Y-89497988D01*
X72299017Y-89731637D01*
X72001637Y-90029017D01*
X71767988Y-90378698D01*
X71607047Y-90767244D01*
X71525000Y-91179721D01*
X71525000Y-91600279D01*
X71607047Y-92012756D01*
X71767988Y-92401302D01*
X72001637Y-92750983D01*
X72299017Y-93048363D01*
X72648698Y-93282012D01*
X72825001Y-93355039D01*
X72825000Y-95724132D01*
X69289926Y-92189059D01*
X69362953Y-92012756D01*
X69445000Y-91600279D01*
X69445000Y-91179721D01*
X69362953Y-90767244D01*
X69202012Y-90378698D01*
X68968363Y-90029017D01*
X68670983Y-89731637D01*
X68321302Y-89497988D01*
X67932756Y-89337047D01*
X67520279Y-89255000D01*
X67099721Y-89255000D01*
X66687244Y-89337047D01*
X66298698Y-89497988D01*
X65949017Y-89731637D01*
X65651637Y-90029017D01*
X65417988Y-90378698D01*
X65257047Y-90767244D01*
X65175000Y-91179721D01*
X63085027Y-91179721D01*
X63055334Y-90929549D01*
X62925243Y-90529617D01*
X62767214Y-90233962D01*
X62451653Y-90077952D01*
X61139605Y-91390000D01*
X60780395Y-91390000D01*
X59468347Y-90077952D01*
X59152786Y-90233962D01*
X58961980Y-90608745D01*
X58847956Y-91013551D01*
X58815098Y-91432824D01*
X56845000Y-91432824D01*
X56845000Y-89898347D01*
X59647952Y-89898347D01*
X60960000Y-91210395D01*
X62272048Y-89898347D01*
X62116038Y-89582786D01*
X61741255Y-89391980D01*
X61336449Y-89277956D01*
X60917176Y-89245098D01*
X60499549Y-89294666D01*
X60099617Y-89424757D01*
X59803962Y-89582786D01*
X59647952Y-89898347D01*
X56845000Y-89898347D01*
X56845000Y-86811653D01*
X59647952Y-86811653D01*
X59803962Y-87127214D01*
X60178745Y-87318020D01*
X60583551Y-87432044D01*
X61002824Y-87464902D01*
X61420451Y-87415334D01*
X61820383Y-87285243D01*
X62116038Y-87127214D01*
X62272048Y-86811653D01*
X65997952Y-86811653D01*
X66153962Y-87127214D01*
X66528745Y-87318020D01*
X66933551Y-87432044D01*
X67352824Y-87464902D01*
X67770451Y-87415334D01*
X68170383Y-87285243D01*
X68466038Y-87127214D01*
X68622048Y-86811653D01*
X72347952Y-86811653D01*
X72503962Y-87127214D01*
X72878745Y-87318020D01*
X73283551Y-87432044D01*
X73702824Y-87464902D01*
X74120451Y-87415334D01*
X74520383Y-87285243D01*
X74816038Y-87127214D01*
X74972048Y-86811653D01*
X73660000Y-85499605D01*
X72347952Y-86811653D01*
X68622048Y-86811653D01*
X67310000Y-85499605D01*
X65997952Y-86811653D01*
X62272048Y-86811653D01*
X60960000Y-85499605D01*
X59647952Y-86811653D01*
X56845000Y-86811653D01*
X56845000Y-85362824D01*
X58815098Y-85362824D01*
X58864666Y-85780451D01*
X58994757Y-86180383D01*
X59152786Y-86476038D01*
X59468347Y-86632048D01*
X60780395Y-85320000D01*
X61139605Y-85320000D01*
X62451653Y-86632048D01*
X62767214Y-86476038D01*
X62958020Y-86101255D01*
X63072044Y-85696449D01*
X63098189Y-85362824D01*
X65165098Y-85362824D01*
X65214666Y-85780451D01*
X65344757Y-86180383D01*
X65502786Y-86476038D01*
X65818347Y-86632048D01*
X67130395Y-85320000D01*
X67489605Y-85320000D01*
X68801653Y-86632048D01*
X69117214Y-86476038D01*
X69308020Y-86101255D01*
X69422044Y-85696449D01*
X69448189Y-85362824D01*
X71515098Y-85362824D01*
X71564666Y-85780451D01*
X71694757Y-86180383D01*
X71852786Y-86476038D01*
X72168347Y-86632048D01*
X73480395Y-85320000D01*
X73839605Y-85320000D01*
X75151653Y-86632048D01*
X75467214Y-86476038D01*
X75658020Y-86101255D01*
X75772044Y-85696449D01*
X75804902Y-85277176D01*
X75755334Y-84859549D01*
X75625243Y-84459617D01*
X75467214Y-84163962D01*
X75151653Y-84007952D01*
X73839605Y-85320000D01*
X73480395Y-85320000D01*
X72168347Y-84007952D01*
X71852786Y-84163962D01*
X71661980Y-84538745D01*
X71547956Y-84943551D01*
X71515098Y-85362824D01*
X69448189Y-85362824D01*
X69454902Y-85277176D01*
X69405334Y-84859549D01*
X69275243Y-84459617D01*
X69117214Y-84163962D01*
X68801653Y-84007952D01*
X67489605Y-85320000D01*
X67130395Y-85320000D01*
X65818347Y-84007952D01*
X65502786Y-84163962D01*
X65311980Y-84538745D01*
X65197956Y-84943551D01*
X65165098Y-85362824D01*
X63098189Y-85362824D01*
X63104902Y-85277176D01*
X63055334Y-84859549D01*
X62925243Y-84459617D01*
X62767214Y-84163962D01*
X62451653Y-84007952D01*
X61139605Y-85320000D01*
X60780395Y-85320000D01*
X59468347Y-84007952D01*
X59152786Y-84163962D01*
X58961980Y-84538745D01*
X58847956Y-84943551D01*
X58815098Y-85362824D01*
X56845000Y-85362824D01*
X56845000Y-83828347D01*
X59647952Y-83828347D01*
X60960000Y-85140395D01*
X62272048Y-83828347D01*
X65997952Y-83828347D01*
X67310000Y-85140395D01*
X68622048Y-83828347D01*
X72347952Y-83828347D01*
X73660000Y-85140395D01*
X74972048Y-83828347D01*
X74816038Y-83512786D01*
X74441255Y-83321980D01*
X74036449Y-83207956D01*
X73617176Y-83175098D01*
X73199549Y-83224666D01*
X72799617Y-83354757D01*
X72503962Y-83512786D01*
X72347952Y-83828347D01*
X68622048Y-83828347D01*
X68466038Y-83512786D01*
X68091255Y-83321980D01*
X67686449Y-83207956D01*
X67267176Y-83175098D01*
X66849549Y-83224666D01*
X66449617Y-83354757D01*
X66153962Y-83512786D01*
X65997952Y-83828347D01*
X62272048Y-83828347D01*
X62116038Y-83512786D01*
X61741255Y-83321980D01*
X61336449Y-83207956D01*
X60917176Y-83175098D01*
X60499549Y-83224666D01*
X60099617Y-83354757D01*
X59803962Y-83512786D01*
X59647952Y-83828347D01*
X56845000Y-83828347D01*
X56845000Y-75381653D01*
X59647952Y-75381653D01*
X59803962Y-75697214D01*
X60178745Y-75888020D01*
X60583551Y-76002044D01*
X61002824Y-76034902D01*
X61420451Y-75985334D01*
X61820383Y-75855243D01*
X62116038Y-75697214D01*
X62272048Y-75381653D01*
X60960000Y-74069605D01*
X59647952Y-75381653D01*
X56845000Y-75381653D01*
X56845000Y-73932824D01*
X58815098Y-73932824D01*
X58864666Y-74350451D01*
X58994757Y-74750383D01*
X59152786Y-75046038D01*
X59468347Y-75202048D01*
X60780395Y-73890000D01*
X61139605Y-73890000D01*
X62451653Y-75202048D01*
X62767214Y-75046038D01*
X62958020Y-74671255D01*
X63072044Y-74266449D01*
X63104902Y-73847176D01*
X63085027Y-73679721D01*
X65175000Y-73679721D01*
X65175000Y-74100279D01*
X65257047Y-74512756D01*
X65417988Y-74901302D01*
X65651637Y-75250983D01*
X65949017Y-75548363D01*
X66298698Y-75782012D01*
X66687244Y-75942953D01*
X67099721Y-76025000D01*
X67520279Y-76025000D01*
X67932756Y-75942953D01*
X68109059Y-75869926D01*
X72603596Y-80364464D01*
X72603602Y-80364469D01*
X95365001Y-103125870D01*
X95365000Y-111254206D01*
X95144866Y-111434866D01*
X94959294Y-111660986D01*
X94930000Y-111715791D01*
X94900706Y-111660986D01*
X94715134Y-111434866D01*
X94489014Y-111249294D01*
X94231034Y-111111401D01*
X93951111Y-111026487D01*
X93732950Y-111005000D01*
X93587050Y-111005000D01*
X93368889Y-111026487D01*
X93088966Y-111111401D01*
X92830986Y-111249294D01*
X92604866Y-111434866D01*
X92419294Y-111660986D01*
X92384799Y-111725523D01*
X92315178Y-111608645D01*
X92120269Y-111392412D01*
X91886920Y-111218359D01*
X91624099Y-111093175D01*
X91476890Y-111048524D01*
X91247000Y-111169845D01*
X91247000Y-112363000D01*
X91267000Y-112363000D01*
X91267000Y-112617000D01*
X91247000Y-112617000D01*
X91247000Y-114903000D01*
X91267000Y-114903000D01*
X91267000Y-115157000D01*
X91247000Y-115157000D01*
X91247000Y-116350155D01*
X91476890Y-116471476D01*
X91624099Y-116426825D01*
X91886920Y-116301641D01*
X92120269Y-116127588D01*
X92315178Y-115911355D01*
X92384799Y-115794477D01*
X92419294Y-115859014D01*
X92604866Y-116085134D01*
X92830986Y-116270706D01*
X93088966Y-116408599D01*
X93368889Y-116493513D01*
X93587050Y-116515000D01*
X93732950Y-116515000D01*
X93951111Y-116493513D01*
X94231034Y-116408599D01*
X94489014Y-116270706D01*
X94715134Y-116085134D01*
X94900706Y-115859014D01*
X94930000Y-115804209D01*
X94959294Y-115859014D01*
X95144866Y-116085134D01*
X95370986Y-116270706D01*
X95628966Y-116408599D01*
X95908889Y-116493513D01*
X96127050Y-116515000D01*
X96272950Y-116515000D01*
X96491111Y-116493513D01*
X96771034Y-116408599D01*
X97029014Y-116270706D01*
X97255134Y-116085134D01*
X97440706Y-115859014D01*
X97475201Y-115794477D01*
X97544822Y-115911355D01*
X97739731Y-116127588D01*
X97973080Y-116301641D01*
X98235901Y-116426825D01*
X98383110Y-116471476D01*
X98613000Y-116350155D01*
X98613000Y-115157000D01*
X98593000Y-115157000D01*
X98593000Y-114903000D01*
X98613000Y-114903000D01*
X98613000Y-112617000D01*
X98593000Y-112617000D01*
X98593000Y-112363000D01*
X98613000Y-112363000D01*
X98613000Y-111169845D01*
X98867000Y-111169845D01*
X98867000Y-112363000D01*
X98887000Y-112363000D01*
X98887000Y-112617000D01*
X98867000Y-112617000D01*
X98867000Y-114903000D01*
X98887000Y-114903000D01*
X98887000Y-115157000D01*
X98867000Y-115157000D01*
X98867000Y-116350155D01*
X99096890Y-116471476D01*
X99244099Y-116426825D01*
X99506920Y-116301641D01*
X99740269Y-116127588D01*
X99935178Y-115911355D01*
X100004799Y-115794477D01*
X100039294Y-115859014D01*
X100224866Y-116085134D01*
X100450986Y-116270706D01*
X100708966Y-116408599D01*
X100988889Y-116493513D01*
X101207050Y-116515000D01*
X101352950Y-116515000D01*
X101571111Y-116493513D01*
X101851034Y-116408599D01*
X102109014Y-116270706D01*
X102335134Y-116085134D01*
X102520706Y-115859014D01*
X102550000Y-115804209D01*
X102579294Y-115859014D01*
X102764866Y-116085134D01*
X102990986Y-116270706D01*
X103248966Y-116408599D01*
X103528889Y-116493513D01*
X103747050Y-116515000D01*
X103892950Y-116515000D01*
X104111111Y-116493513D01*
X104391034Y-116408599D01*
X104649014Y-116270706D01*
X104875134Y-116085134D01*
X105060706Y-115859014D01*
X105090000Y-115804209D01*
X105119294Y-115859014D01*
X105304866Y-116085134D01*
X105530986Y-116270706D01*
X105788966Y-116408599D01*
X106068889Y-116493513D01*
X106287050Y-116515000D01*
X106432950Y-116515000D01*
X106651111Y-116493513D01*
X106931034Y-116408599D01*
X107189014Y-116270706D01*
X107415134Y-116085134D01*
X107600706Y-115859014D01*
X107738599Y-115601034D01*
X107823513Y-115321111D01*
X107852185Y-115030000D01*
X107823513Y-114738889D01*
X107738599Y-114458966D01*
X107600706Y-114200986D01*
X107415134Y-113974866D01*
X107385313Y-113950393D01*
X107454180Y-113929502D01*
X107564494Y-113870537D01*
X107661185Y-113791185D01*
X107740537Y-113694494D01*
X107799502Y-113584180D01*
X107835812Y-113464482D01*
X107848072Y-113340000D01*
X107848072Y-111640000D01*
X107835812Y-111515518D01*
X107799502Y-111395820D01*
X107740537Y-111285506D01*
X107661185Y-111188815D01*
X107564494Y-111109463D01*
X107454180Y-111050498D01*
X107334482Y-111014188D01*
X107210000Y-111001928D01*
X105510000Y-111001928D01*
X105385518Y-111014188D01*
X105265820Y-111050498D01*
X105155506Y-111109463D01*
X105058815Y-111188815D01*
X104979463Y-111285506D01*
X104920498Y-111395820D01*
X104899607Y-111464687D01*
X104875134Y-111434866D01*
X104649014Y-111249294D01*
X104391034Y-111111401D01*
X104111111Y-111026487D01*
X103892950Y-111005000D01*
X103747050Y-111005000D01*
X103528889Y-111026487D01*
X103248966Y-111111401D01*
X102990986Y-111249294D01*
X102764866Y-111434866D01*
X102579294Y-111660986D01*
X102550000Y-111715791D01*
X102520706Y-111660986D01*
X102335134Y-111434866D01*
X102109014Y-111249294D01*
X101851034Y-111111401D01*
X101571111Y-111026487D01*
X101352950Y-111005000D01*
X101207050Y-111005000D01*
X100988889Y-111026487D01*
X100708966Y-111111401D01*
X100450986Y-111249294D01*
X100224866Y-111434866D01*
X100039294Y-111660986D01*
X100004799Y-111725523D01*
X99935178Y-111608645D01*
X99740269Y-111392412D01*
X99506920Y-111218359D01*
X99244099Y-111093175D01*
X99096890Y-111048524D01*
X98867000Y-111169845D01*
X98613000Y-111169845D01*
X98383110Y-111048524D01*
X98235901Y-111093175D01*
X97973080Y-111218359D01*
X97965146Y-111224277D01*
X97735000Y-110994131D01*
X97735000Y-102531068D01*
X97739040Y-102490049D01*
X97722918Y-102326361D01*
X97675172Y-102168963D01*
X97597636Y-102023904D01*
X97544877Y-101959617D01*
X97493291Y-101896759D01*
X97461427Y-101870609D01*
X74495000Y-78904183D01*
X74495000Y-75855039D01*
X74671302Y-75782012D01*
X75020983Y-75548363D01*
X75318363Y-75250983D01*
X75552012Y-74901302D01*
X75712953Y-74512756D01*
X75795000Y-74100279D01*
X75795000Y-73679721D01*
X75712953Y-73267244D01*
X75552012Y-72878698D01*
X75318363Y-72529017D01*
X75020983Y-72231637D01*
X74671302Y-71997988D01*
X74282756Y-71837047D01*
X73870279Y-71755000D01*
X73449721Y-71755000D01*
X73037244Y-71837047D01*
X72648698Y-71997988D01*
X72299017Y-72231637D01*
X72001637Y-72529017D01*
X71767988Y-72878698D01*
X71607047Y-73267244D01*
X71525000Y-73679721D01*
X71525000Y-74100279D01*
X71607047Y-74512756D01*
X71767988Y-74901302D01*
X72001637Y-75250983D01*
X72299017Y-75548363D01*
X72648698Y-75782012D01*
X72825001Y-75855039D01*
X72825000Y-78224132D01*
X69289926Y-74689059D01*
X69362953Y-74512756D01*
X69445000Y-74100279D01*
X69445000Y-73679721D01*
X69362953Y-73267244D01*
X69202012Y-72878698D01*
X68968363Y-72529017D01*
X68670983Y-72231637D01*
X68321302Y-71997988D01*
X67932756Y-71837047D01*
X67520279Y-71755000D01*
X67099721Y-71755000D01*
X66687244Y-71837047D01*
X66298698Y-71997988D01*
X65949017Y-72231637D01*
X65651637Y-72529017D01*
X65417988Y-72878698D01*
X65257047Y-73267244D01*
X65175000Y-73679721D01*
X63085027Y-73679721D01*
X63055334Y-73429549D01*
X62925243Y-73029617D01*
X62767214Y-72733962D01*
X62451653Y-72577952D01*
X61139605Y-73890000D01*
X60780395Y-73890000D01*
X59468347Y-72577952D01*
X59152786Y-72733962D01*
X58961980Y-73108745D01*
X58847956Y-73513551D01*
X58815098Y-73932824D01*
X56845000Y-73932824D01*
X56845000Y-72398347D01*
X59647952Y-72398347D01*
X60960000Y-73710395D01*
X62272048Y-72398347D01*
X62116038Y-72082786D01*
X61741255Y-71891980D01*
X61336449Y-71777956D01*
X60917176Y-71745098D01*
X60499549Y-71794666D01*
X60099617Y-71924757D01*
X59803962Y-72082786D01*
X59647952Y-72398347D01*
X56845000Y-72398347D01*
X56845000Y-69311653D01*
X59647952Y-69311653D01*
X59803962Y-69627214D01*
X60178745Y-69818020D01*
X60583551Y-69932044D01*
X61002824Y-69964902D01*
X61420451Y-69915334D01*
X61820383Y-69785243D01*
X62116038Y-69627214D01*
X62272048Y-69311653D01*
X65997952Y-69311653D01*
X66153962Y-69627214D01*
X66528745Y-69818020D01*
X66933551Y-69932044D01*
X67352824Y-69964902D01*
X67770451Y-69915334D01*
X68170383Y-69785243D01*
X68466038Y-69627214D01*
X68622048Y-69311653D01*
X72347952Y-69311653D01*
X72503962Y-69627214D01*
X72878745Y-69818020D01*
X73283551Y-69932044D01*
X73702824Y-69964902D01*
X74120451Y-69915334D01*
X74520383Y-69785243D01*
X74816038Y-69627214D01*
X74972048Y-69311653D01*
X73660000Y-67999605D01*
X72347952Y-69311653D01*
X68622048Y-69311653D01*
X67310000Y-67999605D01*
X65997952Y-69311653D01*
X62272048Y-69311653D01*
X60960000Y-67999605D01*
X59647952Y-69311653D01*
X56845000Y-69311653D01*
X56845000Y-67862824D01*
X58815098Y-67862824D01*
X58864666Y-68280451D01*
X58994757Y-68680383D01*
X59152786Y-68976038D01*
X59468347Y-69132048D01*
X60780395Y-67820000D01*
X61139605Y-67820000D01*
X62451653Y-69132048D01*
X62767214Y-68976038D01*
X62958020Y-68601255D01*
X63072044Y-68196449D01*
X63098189Y-67862824D01*
X65165098Y-67862824D01*
X65214666Y-68280451D01*
X65344757Y-68680383D01*
X65502786Y-68976038D01*
X65818347Y-69132048D01*
X67130395Y-67820000D01*
X67489605Y-67820000D01*
X68801653Y-69132048D01*
X69117214Y-68976038D01*
X69308020Y-68601255D01*
X69422044Y-68196449D01*
X69448189Y-67862824D01*
X71515098Y-67862824D01*
X71564666Y-68280451D01*
X71694757Y-68680383D01*
X71852786Y-68976038D01*
X72168347Y-69132048D01*
X73480395Y-67820000D01*
X73839605Y-67820000D01*
X75151653Y-69132048D01*
X75467214Y-68976038D01*
X75658020Y-68601255D01*
X75772044Y-68196449D01*
X75804902Y-67777176D01*
X75755334Y-67359549D01*
X75625243Y-66959617D01*
X75467214Y-66663962D01*
X75151653Y-66507952D01*
X73839605Y-67820000D01*
X73480395Y-67820000D01*
X72168347Y-66507952D01*
X71852786Y-66663962D01*
X71661980Y-67038745D01*
X71547956Y-67443551D01*
X71515098Y-67862824D01*
X69448189Y-67862824D01*
X69454902Y-67777176D01*
X69405334Y-67359549D01*
X69275243Y-66959617D01*
X69117214Y-66663962D01*
X68801653Y-66507952D01*
X67489605Y-67820000D01*
X67130395Y-67820000D01*
X65818347Y-66507952D01*
X65502786Y-66663962D01*
X65311980Y-67038745D01*
X65197956Y-67443551D01*
X65165098Y-67862824D01*
X63098189Y-67862824D01*
X63104902Y-67777176D01*
X63055334Y-67359549D01*
X62925243Y-66959617D01*
X62767214Y-66663962D01*
X62451653Y-66507952D01*
X61139605Y-67820000D01*
X60780395Y-67820000D01*
X59468347Y-66507952D01*
X59152786Y-66663962D01*
X58961980Y-67038745D01*
X58847956Y-67443551D01*
X58815098Y-67862824D01*
X56845000Y-67862824D01*
X56845000Y-66328347D01*
X59647952Y-66328347D01*
X60960000Y-67640395D01*
X62272048Y-66328347D01*
X65997952Y-66328347D01*
X67310000Y-67640395D01*
X68622048Y-66328347D01*
X72347952Y-66328347D01*
X73660000Y-67640395D01*
X74972048Y-66328347D01*
X74816038Y-66012786D01*
X74441255Y-65821980D01*
X74036449Y-65707956D01*
X73617176Y-65675098D01*
X73199549Y-65724666D01*
X72799617Y-65854757D01*
X72503962Y-66012786D01*
X72347952Y-66328347D01*
X68622048Y-66328347D01*
X68466038Y-66012786D01*
X68091255Y-65821980D01*
X67686449Y-65707956D01*
X67267176Y-65675098D01*
X66849549Y-65724666D01*
X66449617Y-65854757D01*
X66153962Y-66012786D01*
X65997952Y-66328347D01*
X62272048Y-66328347D01*
X62116038Y-66012786D01*
X61741255Y-65821980D01*
X61336449Y-65707956D01*
X60917176Y-65675098D01*
X60499549Y-65724666D01*
X60099617Y-65854757D01*
X59803962Y-66012786D01*
X59647952Y-66328347D01*
X56845000Y-66328347D01*
X56845000Y-60483750D01*
X94448000Y-60483750D01*
X94448000Y-60935542D01*
X94472403Y-61058223D01*
X94520270Y-61173785D01*
X94589763Y-61277789D01*
X94678211Y-61366237D01*
X94782215Y-61435730D01*
X94897777Y-61483597D01*
X95020458Y-61508000D01*
X95472250Y-61508000D01*
X95631000Y-61349250D01*
X95631000Y-60325000D01*
X94606750Y-60325000D01*
X94448000Y-60483750D01*
X56845000Y-60483750D01*
X56845000Y-57881653D01*
X59647952Y-57881653D01*
X59803962Y-58197214D01*
X60178745Y-58388020D01*
X60583551Y-58502044D01*
X61002824Y-58534902D01*
X61420451Y-58485334D01*
X61820383Y-58355243D01*
X62116038Y-58197214D01*
X62272048Y-57881653D01*
X60960000Y-56569605D01*
X59647952Y-57881653D01*
X56845000Y-57881653D01*
X56845000Y-56432824D01*
X58815098Y-56432824D01*
X58864666Y-56850451D01*
X58994757Y-57250383D01*
X59152786Y-57546038D01*
X59468347Y-57702048D01*
X60780395Y-56390000D01*
X61139605Y-56390000D01*
X62451653Y-57702048D01*
X62767214Y-57546038D01*
X62958020Y-57171255D01*
X63072044Y-56766449D01*
X63104902Y-56347176D01*
X63085027Y-56179721D01*
X65175000Y-56179721D01*
X65175000Y-56600279D01*
X65257047Y-57012756D01*
X65417988Y-57401302D01*
X65651637Y-57750983D01*
X65949017Y-58048363D01*
X66298698Y-58282012D01*
X66687244Y-58442953D01*
X67099721Y-58525000D01*
X67520279Y-58525000D01*
X67932756Y-58442953D01*
X68321302Y-58282012D01*
X68670983Y-58048363D01*
X68968363Y-57750983D01*
X69202012Y-57401302D01*
X69362953Y-57012756D01*
X69445000Y-56600279D01*
X69445000Y-56179721D01*
X71525000Y-56179721D01*
X71525000Y-56600279D01*
X71607047Y-57012756D01*
X71767988Y-57401302D01*
X72001637Y-57750983D01*
X72299017Y-58048363D01*
X72648698Y-58282012D01*
X73037244Y-58442953D01*
X73449721Y-58525000D01*
X73870279Y-58525000D01*
X74282756Y-58442953D01*
X74671302Y-58282012D01*
X75020983Y-58048363D01*
X75318363Y-57750983D01*
X75552012Y-57401302D01*
X75712953Y-57012756D01*
X75795000Y-56600279D01*
X75795000Y-56558823D01*
X78740000Y-56558823D01*
X78740000Y-58457178D01*
X78761850Y-58679012D01*
X78848193Y-58963648D01*
X78988407Y-59225970D01*
X79177104Y-59455897D01*
X79407031Y-59644594D01*
X79669353Y-59784808D01*
X79953989Y-59871151D01*
X80250000Y-59900306D01*
X80546012Y-59871151D01*
X80830648Y-59784808D01*
X81092970Y-59644594D01*
X81322897Y-59455897D01*
X81500001Y-59240097D01*
X81677104Y-59455897D01*
X81907031Y-59644594D01*
X82169353Y-59784808D01*
X82453989Y-59871151D01*
X82750000Y-59900306D01*
X83046012Y-59871151D01*
X83330648Y-59784808D01*
X83592970Y-59644594D01*
X83822897Y-59455897D01*
X84011594Y-59225970D01*
X84151808Y-58963648D01*
X84238151Y-58679012D01*
X84260000Y-58457178D01*
X84260000Y-58340122D01*
X84437235Y-58517357D01*
X84646061Y-58656890D01*
X84878096Y-58753002D01*
X85124423Y-58802000D01*
X85375577Y-58802000D01*
X85621904Y-58753002D01*
X85853939Y-58656890D01*
X86062765Y-58517357D01*
X86240000Y-58340122D01*
X86240000Y-58457178D01*
X86261850Y-58679012D01*
X86348193Y-58963648D01*
X86488407Y-59225970D01*
X86677104Y-59455897D01*
X86907031Y-59644594D01*
X87169353Y-59784808D01*
X87453989Y-59871151D01*
X87750000Y-59900306D01*
X88046012Y-59871151D01*
X88330648Y-59784808D01*
X88592970Y-59644594D01*
X88822897Y-59455897D01*
X89000001Y-59240097D01*
X89177104Y-59455897D01*
X89407031Y-59644594D01*
X89669353Y-59784808D01*
X89953989Y-59871151D01*
X90250000Y-59900306D01*
X90546012Y-59871151D01*
X90830648Y-59784808D01*
X91092970Y-59644594D01*
X91317339Y-59460458D01*
X94448000Y-59460458D01*
X94448000Y-59912250D01*
X94606750Y-60071000D01*
X95631000Y-60071000D01*
X95631000Y-59046750D01*
X95885000Y-59046750D01*
X95885000Y-60071000D01*
X95905000Y-60071000D01*
X95905000Y-60325000D01*
X95885000Y-60325000D01*
X95885000Y-61349250D01*
X96043750Y-61508000D01*
X96495542Y-61508000D01*
X96618223Y-61483597D01*
X96733785Y-61435730D01*
X96837789Y-61366237D01*
X96926237Y-61277789D01*
X96955464Y-61234048D01*
X97026682Y-61292495D01*
X97254259Y-61414138D01*
X97501195Y-61489045D01*
X97693649Y-61508000D01*
X97822351Y-61508000D01*
X98014805Y-61489045D01*
X98261741Y-61414138D01*
X98489318Y-61292495D01*
X98688792Y-61128792D01*
X98758000Y-61044461D01*
X98827208Y-61128792D01*
X99026682Y-61292495D01*
X99254259Y-61414138D01*
X99501195Y-61489045D01*
X99693649Y-61508000D01*
X99822351Y-61508000D01*
X100014805Y-61489045D01*
X100261741Y-61414138D01*
X100489318Y-61292495D01*
X100688792Y-61128792D01*
X100758000Y-61044461D01*
X100827208Y-61128792D01*
X101026682Y-61292495D01*
X101254259Y-61414138D01*
X101501195Y-61489045D01*
X101693649Y-61508000D01*
X101822351Y-61508000D01*
X102014805Y-61489045D01*
X102261741Y-61414138D01*
X102489318Y-61292495D01*
X102688792Y-61128792D01*
X102758000Y-61044461D01*
X102827208Y-61128792D01*
X103026682Y-61292495D01*
X103254259Y-61414138D01*
X103501195Y-61489045D01*
X103693649Y-61508000D01*
X103822351Y-61508000D01*
X104014805Y-61489045D01*
X104261741Y-61414138D01*
X104489318Y-61292495D01*
X104688792Y-61128792D01*
X104852495Y-60929318D01*
X104974138Y-60701741D01*
X105049045Y-60454805D01*
X105074338Y-60198000D01*
X105049045Y-59941195D01*
X104974138Y-59694259D01*
X104852495Y-59466682D01*
X104688792Y-59267208D01*
X104489318Y-59103505D01*
X104261741Y-58981862D01*
X104014805Y-58906955D01*
X103822351Y-58888000D01*
X103693649Y-58888000D01*
X103501195Y-58906955D01*
X103254259Y-58981862D01*
X103026682Y-59103505D01*
X102827208Y-59267208D01*
X102758000Y-59351539D01*
X102688792Y-59267208D01*
X102489318Y-59103505D01*
X102261741Y-58981862D01*
X102014805Y-58906955D01*
X101822351Y-58888000D01*
X101693649Y-58888000D01*
X101501195Y-58906955D01*
X101254259Y-58981862D01*
X101026682Y-59103505D01*
X100827208Y-59267208D01*
X100758000Y-59351539D01*
X100688792Y-59267208D01*
X100489318Y-59103505D01*
X100261741Y-58981862D01*
X100014805Y-58906955D01*
X99822351Y-58888000D01*
X99693649Y-58888000D01*
X99501195Y-58906955D01*
X99254259Y-58981862D01*
X99026682Y-59103505D01*
X98827208Y-59267208D01*
X98758000Y-59351539D01*
X98688792Y-59267208D01*
X98489318Y-59103505D01*
X98261741Y-58981862D01*
X98014805Y-58906955D01*
X97822351Y-58888000D01*
X97693649Y-58888000D01*
X97501195Y-58906955D01*
X97254259Y-58981862D01*
X97026682Y-59103505D01*
X96955464Y-59161952D01*
X96926237Y-59118211D01*
X96837789Y-59029763D01*
X96733785Y-58960270D01*
X96618223Y-58912403D01*
X96495542Y-58888000D01*
X96043750Y-58888000D01*
X95885000Y-59046750D01*
X95631000Y-59046750D01*
X95472250Y-58888000D01*
X95020458Y-58888000D01*
X94897777Y-58912403D01*
X94782215Y-58960270D01*
X94678211Y-59029763D01*
X94589763Y-59118211D01*
X94520270Y-59222215D01*
X94472403Y-59337777D01*
X94448000Y-59460458D01*
X91317339Y-59460458D01*
X91322897Y-59455897D01*
X91511594Y-59225970D01*
X91651808Y-58963648D01*
X91738151Y-58679012D01*
X91760000Y-58457178D01*
X91760000Y-56558822D01*
X91738151Y-56336988D01*
X91651808Y-56052352D01*
X91511594Y-55790030D01*
X91322897Y-55560103D01*
X91092969Y-55371406D01*
X90830647Y-55231192D01*
X90546011Y-55144849D01*
X90250000Y-55115694D01*
X89953988Y-55144849D01*
X89669352Y-55231192D01*
X89407030Y-55371406D01*
X89177103Y-55560103D01*
X89000000Y-55775903D01*
X88822897Y-55560103D01*
X88592969Y-55371406D01*
X88330647Y-55231192D01*
X88046011Y-55144849D01*
X87750000Y-55115694D01*
X87453988Y-55144849D01*
X87169352Y-55231192D01*
X86907030Y-55371406D01*
X86677103Y-55560103D01*
X86488406Y-55790031D01*
X86348192Y-56052353D01*
X86261849Y-56336989D01*
X86240000Y-56558823D01*
X86240000Y-56713878D01*
X86062765Y-56536643D01*
X85853939Y-56397110D01*
X85621904Y-56300998D01*
X85375577Y-56252000D01*
X85124423Y-56252000D01*
X84878096Y-56300998D01*
X84646061Y-56397110D01*
X84437235Y-56536643D01*
X84260000Y-56713878D01*
X84260000Y-56558822D01*
X84238151Y-56336988D01*
X84151808Y-56052352D01*
X84011594Y-55790030D01*
X83822897Y-55560103D01*
X83592969Y-55371406D01*
X83330647Y-55231192D01*
X83046011Y-55144849D01*
X82750000Y-55115694D01*
X82453988Y-55144849D01*
X82169352Y-55231192D01*
X81907030Y-55371406D01*
X81677103Y-55560103D01*
X81500000Y-55775903D01*
X81322897Y-55560103D01*
X81092969Y-55371406D01*
X80830647Y-55231192D01*
X80546011Y-55144849D01*
X80250000Y-55115694D01*
X79953988Y-55144849D01*
X79669352Y-55231192D01*
X79407030Y-55371406D01*
X79177103Y-55560103D01*
X78988406Y-55790031D01*
X78848192Y-56052353D01*
X78761849Y-56336989D01*
X78740000Y-56558823D01*
X75795000Y-56558823D01*
X75795000Y-56179721D01*
X75712953Y-55767244D01*
X75552012Y-55378698D01*
X75318363Y-55029017D01*
X75020983Y-54731637D01*
X74671302Y-54497988D01*
X74282756Y-54337047D01*
X73870279Y-54255000D01*
X73449721Y-54255000D01*
X73037244Y-54337047D01*
X72648698Y-54497988D01*
X72299017Y-54731637D01*
X72001637Y-55029017D01*
X71767988Y-55378698D01*
X71607047Y-55767244D01*
X71525000Y-56179721D01*
X69445000Y-56179721D01*
X69362953Y-55767244D01*
X69202012Y-55378698D01*
X68968363Y-55029017D01*
X68670983Y-54731637D01*
X68321302Y-54497988D01*
X67932756Y-54337047D01*
X67520279Y-54255000D01*
X67099721Y-54255000D01*
X66687244Y-54337047D01*
X66298698Y-54497988D01*
X65949017Y-54731637D01*
X65651637Y-55029017D01*
X65417988Y-55378698D01*
X65257047Y-55767244D01*
X65175000Y-56179721D01*
X63085027Y-56179721D01*
X63055334Y-55929549D01*
X62925243Y-55529617D01*
X62767214Y-55233962D01*
X62451653Y-55077952D01*
X61139605Y-56390000D01*
X60780395Y-56390000D01*
X59468347Y-55077952D01*
X59152786Y-55233962D01*
X58961980Y-55608745D01*
X58847956Y-56013551D01*
X58815098Y-56432824D01*
X56845000Y-56432824D01*
X56845000Y-54898347D01*
X59647952Y-54898347D01*
X60960000Y-56210395D01*
X62272048Y-54898347D01*
X62116038Y-54582786D01*
X61741255Y-54391980D01*
X61336449Y-54277956D01*
X60917176Y-54245098D01*
X60499549Y-54294666D01*
X60099617Y-54424757D01*
X59803962Y-54582786D01*
X59647952Y-54898347D01*
X56845000Y-54898347D01*
X56845000Y-51856353D01*
X56835711Y-51762045D01*
X56867670Y-51436107D01*
X56999489Y-50999502D01*
X57213600Y-50596815D01*
X57501848Y-50243388D01*
X57853261Y-49952673D01*
X58254439Y-49735758D01*
X58690113Y-49600894D01*
X59028335Y-49565346D01*
X59126353Y-49575000D01*
G04 #@! TD*
M02*
