G04 #@! TF.GenerationSoftware,KiCad,Pcbnew,5.0.2-5.fc29*
G04 #@! TF.CreationDate,2021-07-15T17:32:54+02:00*
G04 #@! TF.ProjectId,ZynAudioCon,5a796e41-7564-4696-9f43-6f6e2e6b6963,rev?*
G04 #@! TF.SameCoordinates,Original*
G04 #@! TF.FileFunction,Soldermask,Top*
G04 #@! TF.FilePolarity,Negative*
%FSLAX46Y46*%
G04 Gerber Fmt 4.6, Leading zero omitted, Abs format (unit mm)*
G04 Created by KiCad (PCBNEW 5.0.2-5.fc29) date jue 15 jul 2021 17:32:54 CEST*
%MOMM*%
%LPD*%
G01*
G04 APERTURE LIST*
%ADD10C,0.010000*%
%ADD11C,0.100000*%
G04 APERTURE END LIST*
D10*
G04 #@! TO.C,G\002A\002A\002A*
G36*
X101711122Y-117441058D02*
X101746275Y-117478566D01*
X101758750Y-117533320D01*
X101745673Y-117584075D01*
X101712134Y-117618543D01*
X101666667Y-117633367D01*
X101617807Y-117625190D01*
X101584125Y-117602000D01*
X101555835Y-117555449D01*
X101554089Y-117506654D01*
X101575427Y-117463758D01*
X101616388Y-117434904D01*
X101658320Y-117427375D01*
X101711122Y-117441058D01*
X101711122Y-117441058D01*
G37*
X101711122Y-117441058D02*
X101746275Y-117478566D01*
X101758750Y-117533320D01*
X101745673Y-117584075D01*
X101712134Y-117618543D01*
X101666667Y-117633367D01*
X101617807Y-117625190D01*
X101584125Y-117602000D01*
X101555835Y-117555449D01*
X101554089Y-117506654D01*
X101575427Y-117463758D01*
X101616388Y-117434904D01*
X101658320Y-117427375D01*
X101711122Y-117441058D01*
G36*
X104946862Y-117848644D02*
X105029061Y-117849794D01*
X105090681Y-117852284D01*
X105137306Y-117856636D01*
X105174521Y-117863372D01*
X105207912Y-117873016D01*
X105243062Y-117886089D01*
X105243312Y-117886188D01*
X105343925Y-117940858D01*
X105425954Y-118015964D01*
X105484354Y-118106413D01*
X105499784Y-118145192D01*
X105505799Y-118165805D01*
X105510937Y-118190332D01*
X105515288Y-118221416D01*
X105518943Y-118261701D01*
X105521991Y-118313832D01*
X105524522Y-118380451D01*
X105526626Y-118464204D01*
X105528393Y-118567733D01*
X105529912Y-118693683D01*
X105531274Y-118844699D01*
X105532569Y-119023422D01*
X105533256Y-119129968D01*
X105538901Y-120030875D01*
X105410000Y-120030875D01*
X105410000Y-119182343D01*
X105409661Y-118971945D01*
X105408658Y-118785974D01*
X105407014Y-118625589D01*
X105404748Y-118491945D01*
X105401882Y-118386200D01*
X105398437Y-118309512D01*
X105394435Y-118263036D01*
X105393019Y-118254635D01*
X105360090Y-118169966D01*
X105302974Y-118092635D01*
X105229209Y-118031326D01*
X105175552Y-118004045D01*
X105142576Y-117993214D01*
X105104622Y-117985378D01*
X105056137Y-117980093D01*
X104991570Y-117976911D01*
X104905368Y-117975387D01*
X104814687Y-117975062D01*
X104692473Y-117976201D01*
X104596767Y-117980485D01*
X104522379Y-117989217D01*
X104464120Y-118003700D01*
X104416803Y-118025236D01*
X104375237Y-118055127D01*
X104334233Y-118094676D01*
X104333014Y-118095965D01*
X104312882Y-118117972D01*
X104295721Y-118139746D01*
X104281296Y-118163890D01*
X104269368Y-118193006D01*
X104259700Y-118229698D01*
X104252055Y-118276570D01*
X104246196Y-118336225D01*
X104241885Y-118411266D01*
X104238885Y-118504296D01*
X104236960Y-118617918D01*
X104235870Y-118754736D01*
X104235381Y-118917354D01*
X104235253Y-119108374D01*
X104235250Y-119168568D01*
X104235250Y-120030875D01*
X104124125Y-120030875D01*
X104124125Y-119146885D01*
X104124154Y-118941753D01*
X104124442Y-118765794D01*
X104125286Y-118616430D01*
X104126987Y-118491085D01*
X104129841Y-118387180D01*
X104134149Y-118302139D01*
X104140209Y-118233385D01*
X104148320Y-118178340D01*
X104158780Y-118134427D01*
X104171888Y-118099069D01*
X104187943Y-118069689D01*
X104207244Y-118043709D01*
X104230089Y-118018551D01*
X104256777Y-117991640D01*
X104258203Y-117990217D01*
X104305198Y-117946737D01*
X104351764Y-117912980D01*
X104402732Y-117887763D01*
X104462929Y-117869905D01*
X104537185Y-117858227D01*
X104630329Y-117851547D01*
X104747190Y-117848684D01*
X104838500Y-117848311D01*
X104946862Y-117848644D01*
X104946862Y-117848644D01*
G37*
X104946862Y-117848644D02*
X105029061Y-117849794D01*
X105090681Y-117852284D01*
X105137306Y-117856636D01*
X105174521Y-117863372D01*
X105207912Y-117873016D01*
X105243062Y-117886089D01*
X105243312Y-117886188D01*
X105343925Y-117940858D01*
X105425954Y-118015964D01*
X105484354Y-118106413D01*
X105499784Y-118145192D01*
X105505799Y-118165805D01*
X105510937Y-118190332D01*
X105515288Y-118221416D01*
X105518943Y-118261701D01*
X105521991Y-118313832D01*
X105524522Y-118380451D01*
X105526626Y-118464204D01*
X105528393Y-118567733D01*
X105529912Y-118693683D01*
X105531274Y-118844699D01*
X105532569Y-119023422D01*
X105533256Y-119129968D01*
X105538901Y-120030875D01*
X105410000Y-120030875D01*
X105410000Y-119182343D01*
X105409661Y-118971945D01*
X105408658Y-118785974D01*
X105407014Y-118625589D01*
X105404748Y-118491945D01*
X105401882Y-118386200D01*
X105398437Y-118309512D01*
X105394435Y-118263036D01*
X105393019Y-118254635D01*
X105360090Y-118169966D01*
X105302974Y-118092635D01*
X105229209Y-118031326D01*
X105175552Y-118004045D01*
X105142576Y-117993214D01*
X105104622Y-117985378D01*
X105056137Y-117980093D01*
X104991570Y-117976911D01*
X104905368Y-117975387D01*
X104814687Y-117975062D01*
X104692473Y-117976201D01*
X104596767Y-117980485D01*
X104522379Y-117989217D01*
X104464120Y-118003700D01*
X104416803Y-118025236D01*
X104375237Y-118055127D01*
X104334233Y-118094676D01*
X104333014Y-118095965D01*
X104312882Y-118117972D01*
X104295721Y-118139746D01*
X104281296Y-118163890D01*
X104269368Y-118193006D01*
X104259700Y-118229698D01*
X104252055Y-118276570D01*
X104246196Y-118336225D01*
X104241885Y-118411266D01*
X104238885Y-118504296D01*
X104236960Y-118617918D01*
X104235870Y-118754736D01*
X104235381Y-118917354D01*
X104235253Y-119108374D01*
X104235250Y-119168568D01*
X104235250Y-120030875D01*
X104124125Y-120030875D01*
X104124125Y-119146885D01*
X104124154Y-118941753D01*
X104124442Y-118765794D01*
X104125286Y-118616430D01*
X104126987Y-118491085D01*
X104129841Y-118387180D01*
X104134149Y-118302139D01*
X104140209Y-118233385D01*
X104148320Y-118178340D01*
X104158780Y-118134427D01*
X104171888Y-118099069D01*
X104187943Y-118069689D01*
X104207244Y-118043709D01*
X104230089Y-118018551D01*
X104256777Y-117991640D01*
X104258203Y-117990217D01*
X104305198Y-117946737D01*
X104351764Y-117912980D01*
X104402732Y-117887763D01*
X104462929Y-117869905D01*
X104537185Y-117858227D01*
X104630329Y-117851547D01*
X104747190Y-117848684D01*
X104838500Y-117848311D01*
X104946862Y-117848644D01*
G36*
X102723156Y-117843427D02*
X102861214Y-117845141D01*
X102971506Y-117846882D01*
X103058011Y-117848945D01*
X103124712Y-117851626D01*
X103175589Y-117855217D01*
X103214625Y-117860014D01*
X103245801Y-117866311D01*
X103273099Y-117874402D01*
X103300499Y-117884581D01*
X103305273Y-117886469D01*
X103411277Y-117943504D01*
X103499110Y-118021243D01*
X103563164Y-118114537D01*
X103570670Y-118130208D01*
X103608187Y-118213187D01*
X103608187Y-119689562D01*
X103561021Y-119774719D01*
X103491843Y-119869717D01*
X103401522Y-119948673D01*
X103321213Y-119994131D01*
X103276292Y-120006238D01*
X103206610Y-120015839D01*
X103119067Y-120022816D01*
X103020562Y-120027050D01*
X102917995Y-120028420D01*
X102818266Y-120026808D01*
X102728274Y-120022095D01*
X102654919Y-120014162D01*
X102616000Y-120006313D01*
X102494569Y-119958676D01*
X102394001Y-119889172D01*
X102316457Y-119799817D01*
X102264104Y-119692628D01*
X102257838Y-119672687D01*
X102249154Y-119636488D01*
X102242899Y-119593274D01*
X102238850Y-119538189D01*
X102236781Y-119466377D01*
X102236470Y-119373735D01*
X102347374Y-119373735D01*
X102349190Y-119480221D01*
X102354995Y-119564045D01*
X102365663Y-119629710D01*
X102382069Y-119681720D01*
X102405087Y-119724579D01*
X102435590Y-119762792D01*
X102453734Y-119781379D01*
X102500306Y-119822487D01*
X102548056Y-119853370D01*
X102602455Y-119875415D01*
X102668977Y-119890010D01*
X102753097Y-119898544D01*
X102860287Y-119902403D01*
X102933500Y-119903043D01*
X103026799Y-119902213D01*
X103113714Y-119899493D01*
X103187183Y-119895249D01*
X103240143Y-119889845D01*
X103258937Y-119886253D01*
X103318509Y-119857537D01*
X103379630Y-119808144D01*
X103433103Y-119747272D01*
X103469731Y-119684118D01*
X103474747Y-119670421D01*
X103481512Y-119632301D01*
X103487472Y-119563244D01*
X103492589Y-119464053D01*
X103496824Y-119335532D01*
X103500137Y-119178485D01*
X103500905Y-119128821D01*
X103507809Y-118647455D01*
X103073811Y-118653181D01*
X102939340Y-118655242D01*
X102832841Y-118657637D01*
X102750536Y-118660608D01*
X102688645Y-118664398D01*
X102643390Y-118669251D01*
X102610993Y-118675407D01*
X102587676Y-118683112D01*
X102584250Y-118684636D01*
X102496144Y-118737123D01*
X102428692Y-118806411D01*
X102397707Y-118853317D01*
X102382749Y-118879674D01*
X102371581Y-118904093D01*
X102363551Y-118931713D01*
X102358008Y-118967673D01*
X102354301Y-119017110D01*
X102351778Y-119085165D01*
X102349787Y-119176975D01*
X102348673Y-119240081D01*
X102347374Y-119373735D01*
X102236470Y-119373735D01*
X102236467Y-119372982D01*
X102237684Y-119253148D01*
X102237858Y-119241148D01*
X102239808Y-119125511D01*
X102242113Y-119036785D01*
X102245218Y-118970134D01*
X102249569Y-118920718D01*
X102255612Y-118883701D01*
X102263794Y-118854245D01*
X102274560Y-118827511D01*
X102276364Y-118823568D01*
X102341383Y-118717870D01*
X102428165Y-118635224D01*
X102501992Y-118590855D01*
X102592187Y-118546562D01*
X103044625Y-118538625D01*
X103497062Y-118530687D01*
X103493010Y-118395750D01*
X103480846Y-118276235D01*
X103451079Y-118180461D01*
X103401841Y-118104592D01*
X103331268Y-118044792D01*
X103318303Y-118036717D01*
X103262046Y-118007457D01*
X103205793Y-117985157D01*
X103175881Y-117977361D01*
X103144431Y-117974745D01*
X103086029Y-117972377D01*
X103005474Y-117970352D01*
X102907562Y-117968767D01*
X102797093Y-117967717D01*
X102678863Y-117967301D01*
X102675531Y-117967299D01*
X102235000Y-117967125D01*
X102235000Y-117837703D01*
X102723156Y-117843427D01*
X102723156Y-117843427D01*
G37*
X102723156Y-117843427D02*
X102861214Y-117845141D01*
X102971506Y-117846882D01*
X103058011Y-117848945D01*
X103124712Y-117851626D01*
X103175589Y-117855217D01*
X103214625Y-117860014D01*
X103245801Y-117866311D01*
X103273099Y-117874402D01*
X103300499Y-117884581D01*
X103305273Y-117886469D01*
X103411277Y-117943504D01*
X103499110Y-118021243D01*
X103563164Y-118114537D01*
X103570670Y-118130208D01*
X103608187Y-118213187D01*
X103608187Y-119689562D01*
X103561021Y-119774719D01*
X103491843Y-119869717D01*
X103401522Y-119948673D01*
X103321213Y-119994131D01*
X103276292Y-120006238D01*
X103206610Y-120015839D01*
X103119067Y-120022816D01*
X103020562Y-120027050D01*
X102917995Y-120028420D01*
X102818266Y-120026808D01*
X102728274Y-120022095D01*
X102654919Y-120014162D01*
X102616000Y-120006313D01*
X102494569Y-119958676D01*
X102394001Y-119889172D01*
X102316457Y-119799817D01*
X102264104Y-119692628D01*
X102257838Y-119672687D01*
X102249154Y-119636488D01*
X102242899Y-119593274D01*
X102238850Y-119538189D01*
X102236781Y-119466377D01*
X102236470Y-119373735D01*
X102347374Y-119373735D01*
X102349190Y-119480221D01*
X102354995Y-119564045D01*
X102365663Y-119629710D01*
X102382069Y-119681720D01*
X102405087Y-119724579D01*
X102435590Y-119762792D01*
X102453734Y-119781379D01*
X102500306Y-119822487D01*
X102548056Y-119853370D01*
X102602455Y-119875415D01*
X102668977Y-119890010D01*
X102753097Y-119898544D01*
X102860287Y-119902403D01*
X102933500Y-119903043D01*
X103026799Y-119902213D01*
X103113714Y-119899493D01*
X103187183Y-119895249D01*
X103240143Y-119889845D01*
X103258937Y-119886253D01*
X103318509Y-119857537D01*
X103379630Y-119808144D01*
X103433103Y-119747272D01*
X103469731Y-119684118D01*
X103474747Y-119670421D01*
X103481512Y-119632301D01*
X103487472Y-119563244D01*
X103492589Y-119464053D01*
X103496824Y-119335532D01*
X103500137Y-119178485D01*
X103500905Y-119128821D01*
X103507809Y-118647455D01*
X103073811Y-118653181D01*
X102939340Y-118655242D01*
X102832841Y-118657637D01*
X102750536Y-118660608D01*
X102688645Y-118664398D01*
X102643390Y-118669251D01*
X102610993Y-118675407D01*
X102587676Y-118683112D01*
X102584250Y-118684636D01*
X102496144Y-118737123D01*
X102428692Y-118806411D01*
X102397707Y-118853317D01*
X102382749Y-118879674D01*
X102371581Y-118904093D01*
X102363551Y-118931713D01*
X102358008Y-118967673D01*
X102354301Y-119017110D01*
X102351778Y-119085165D01*
X102349787Y-119176975D01*
X102348673Y-119240081D01*
X102347374Y-119373735D01*
X102236470Y-119373735D01*
X102236467Y-119372982D01*
X102237684Y-119253148D01*
X102237858Y-119241148D01*
X102239808Y-119125511D01*
X102242113Y-119036785D01*
X102245218Y-118970134D01*
X102249569Y-118920718D01*
X102255612Y-118883701D01*
X102263794Y-118854245D01*
X102274560Y-118827511D01*
X102276364Y-118823568D01*
X102341383Y-118717870D01*
X102428165Y-118635224D01*
X102501992Y-118590855D01*
X102592187Y-118546562D01*
X103044625Y-118538625D01*
X103497062Y-118530687D01*
X103493010Y-118395750D01*
X103480846Y-118276235D01*
X103451079Y-118180461D01*
X103401841Y-118104592D01*
X103331268Y-118044792D01*
X103318303Y-118036717D01*
X103262046Y-118007457D01*
X103205793Y-117985157D01*
X103175881Y-117977361D01*
X103144431Y-117974745D01*
X103086029Y-117972377D01*
X103005474Y-117970352D01*
X102907562Y-117968767D01*
X102797093Y-117967717D01*
X102678863Y-117967301D01*
X102675531Y-117967299D01*
X102235000Y-117967125D01*
X102235000Y-117837703D01*
X102723156Y-117843427D01*
G36*
X101727000Y-120030875D02*
X101584125Y-120030875D01*
X101584125Y-117840125D01*
X101727000Y-117840125D01*
X101727000Y-120030875D01*
X101727000Y-120030875D01*
G37*
X101727000Y-120030875D02*
X101584125Y-120030875D01*
X101584125Y-117840125D01*
X101727000Y-117840125D01*
X101727000Y-120030875D01*
G36*
X99853750Y-117840125D02*
X100206968Y-117840400D01*
X100365825Y-117841830D01*
X100497039Y-117846418D01*
X100604634Y-117855021D01*
X100692632Y-117868498D01*
X100765059Y-117887706D01*
X100825936Y-117913501D01*
X100879288Y-117946740D01*
X100929138Y-117988282D01*
X100937320Y-117996008D01*
X100977989Y-118044765D01*
X101016108Y-118106297D01*
X101032570Y-118141102D01*
X101040155Y-118160401D01*
X101046593Y-118179608D01*
X101051994Y-118201400D01*
X101056467Y-118228450D01*
X101060119Y-118263433D01*
X101063061Y-118309023D01*
X101065400Y-118367896D01*
X101067246Y-118442725D01*
X101068706Y-118536186D01*
X101069891Y-118650952D01*
X101070908Y-118789699D01*
X101071866Y-118955101D01*
X101072774Y-119129968D01*
X101077361Y-120030875D01*
X100950380Y-120030875D01*
X100945784Y-119145392D01*
X100941187Y-118259909D01*
X100901428Y-118182678D01*
X100867976Y-118125146D01*
X100830506Y-118078614D01*
X100785430Y-118041970D01*
X100729161Y-118014100D01*
X100658108Y-117993893D01*
X100568685Y-117980236D01*
X100457303Y-117972016D01*
X100320373Y-117968122D01*
X100206968Y-117967372D01*
X99853750Y-117967125D01*
X99853750Y-120030875D01*
X99726750Y-120030875D01*
X99726750Y-117173375D01*
X99853750Y-117173375D01*
X99853750Y-117840125D01*
X99853750Y-117840125D01*
G37*
X99853750Y-117840125D02*
X100206968Y-117840400D01*
X100365825Y-117841830D01*
X100497039Y-117846418D01*
X100604634Y-117855021D01*
X100692632Y-117868498D01*
X100765059Y-117887706D01*
X100825936Y-117913501D01*
X100879288Y-117946740D01*
X100929138Y-117988282D01*
X100937320Y-117996008D01*
X100977989Y-118044765D01*
X101016108Y-118106297D01*
X101032570Y-118141102D01*
X101040155Y-118160401D01*
X101046593Y-118179608D01*
X101051994Y-118201400D01*
X101056467Y-118228450D01*
X101060119Y-118263433D01*
X101063061Y-118309023D01*
X101065400Y-118367896D01*
X101067246Y-118442725D01*
X101068706Y-118536186D01*
X101069891Y-118650952D01*
X101070908Y-118789699D01*
X101071866Y-118955101D01*
X101072774Y-119129968D01*
X101077361Y-120030875D01*
X100950380Y-120030875D01*
X100945784Y-119145392D01*
X100941187Y-118259909D01*
X100901428Y-118182678D01*
X100867976Y-118125146D01*
X100830506Y-118078614D01*
X100785430Y-118041970D01*
X100729161Y-118014100D01*
X100658108Y-117993893D01*
X100568685Y-117980236D01*
X100457303Y-117972016D01*
X100320373Y-117968122D01*
X100206968Y-117967372D01*
X99853750Y-117967125D01*
X99853750Y-120030875D01*
X99726750Y-120030875D01*
X99726750Y-117173375D01*
X99853750Y-117173375D01*
X99853750Y-117840125D01*
G36*
X98948875Y-117840125D02*
X99536250Y-117840125D01*
X99536250Y-117967125D01*
X98948875Y-117967125D01*
X98948875Y-120030875D01*
X98806000Y-120030875D01*
X98806000Y-117173375D01*
X98948875Y-117173375D01*
X98948875Y-117840125D01*
X98948875Y-117840125D01*
G37*
X98948875Y-117840125D02*
X99536250Y-117840125D01*
X99536250Y-117967125D01*
X98948875Y-117967125D01*
X98948875Y-120030875D01*
X98806000Y-120030875D01*
X98806000Y-117173375D01*
X98948875Y-117173375D01*
X98948875Y-117840125D01*
G36*
X97704002Y-117843098D02*
X97809398Y-117848289D01*
X97905601Y-117856311D01*
X97985135Y-117866908D01*
X98040520Y-117879822D01*
X98040828Y-117879928D01*
X98142947Y-117930762D01*
X98227629Y-118004688D01*
X98289555Y-118096749D01*
X98301020Y-118122420D01*
X98308792Y-118142083D01*
X98315394Y-118161288D01*
X98320935Y-118182702D01*
X98325526Y-118208990D01*
X98329278Y-118242816D01*
X98332300Y-118286846D01*
X98334703Y-118343745D01*
X98336596Y-118416178D01*
X98338092Y-118506811D01*
X98339299Y-118618308D01*
X98340328Y-118753335D01*
X98341289Y-118914557D01*
X98342293Y-119104640D01*
X98342382Y-119122031D01*
X98347078Y-120030875D01*
X98218625Y-120030875D01*
X98218625Y-119168568D01*
X98218552Y-118969007D01*
X98218183Y-118798589D01*
X98217286Y-118654711D01*
X98215631Y-118534767D01*
X98212988Y-118436150D01*
X98209128Y-118356257D01*
X98203819Y-118292480D01*
X98196833Y-118242215D01*
X98187938Y-118202857D01*
X98176905Y-118171800D01*
X98163503Y-118146438D01*
X98147503Y-118124166D01*
X98128674Y-118102378D01*
X98124008Y-118097260D01*
X98079390Y-118058334D01*
X98023167Y-118021654D01*
X98000477Y-118010017D01*
X97970207Y-117997260D01*
X97939429Y-117988039D01*
X97902407Y-117981789D01*
X97853407Y-117977943D01*
X97786694Y-117975935D01*
X97696533Y-117975199D01*
X97647125Y-117975132D01*
X97524811Y-117975996D01*
X97429068Y-117979478D01*
X97354747Y-117986807D01*
X97296698Y-117999211D01*
X97249773Y-118017920D01*
X97208822Y-118044163D01*
X97168697Y-118079169D01*
X97155009Y-118092603D01*
X97107649Y-118145281D01*
X97079171Y-118193225D01*
X97062008Y-118249273D01*
X97061630Y-118251019D01*
X97056886Y-118290728D01*
X97052878Y-118362178D01*
X97049605Y-118465369D01*
X97047069Y-118600300D01*
X97045268Y-118766972D01*
X97044204Y-118965384D01*
X97043875Y-119182343D01*
X97043875Y-120030875D01*
X96931763Y-120030875D01*
X96936225Y-119114093D01*
X96940687Y-118197312D01*
X96977257Y-118117937D01*
X97035755Y-118021278D01*
X97113177Y-117946844D01*
X97212301Y-117892631D01*
X97335900Y-117856631D01*
X97340064Y-117855802D01*
X97407446Y-117847091D01*
X97495548Y-117842242D01*
X97596893Y-117840996D01*
X97704002Y-117843098D01*
X97704002Y-117843098D01*
G37*
X97704002Y-117843098D02*
X97809398Y-117848289D01*
X97905601Y-117856311D01*
X97985135Y-117866908D01*
X98040520Y-117879822D01*
X98040828Y-117879928D01*
X98142947Y-117930762D01*
X98227629Y-118004688D01*
X98289555Y-118096749D01*
X98301020Y-118122420D01*
X98308792Y-118142083D01*
X98315394Y-118161288D01*
X98320935Y-118182702D01*
X98325526Y-118208990D01*
X98329278Y-118242816D01*
X98332300Y-118286846D01*
X98334703Y-118343745D01*
X98336596Y-118416178D01*
X98338092Y-118506811D01*
X98339299Y-118618308D01*
X98340328Y-118753335D01*
X98341289Y-118914557D01*
X98342293Y-119104640D01*
X98342382Y-119122031D01*
X98347078Y-120030875D01*
X98218625Y-120030875D01*
X98218625Y-119168568D01*
X98218552Y-118969007D01*
X98218183Y-118798589D01*
X98217286Y-118654711D01*
X98215631Y-118534767D01*
X98212988Y-118436150D01*
X98209128Y-118356257D01*
X98203819Y-118292480D01*
X98196833Y-118242215D01*
X98187938Y-118202857D01*
X98176905Y-118171800D01*
X98163503Y-118146438D01*
X98147503Y-118124166D01*
X98128674Y-118102378D01*
X98124008Y-118097260D01*
X98079390Y-118058334D01*
X98023167Y-118021654D01*
X98000477Y-118010017D01*
X97970207Y-117997260D01*
X97939429Y-117988039D01*
X97902407Y-117981789D01*
X97853407Y-117977943D01*
X97786694Y-117975935D01*
X97696533Y-117975199D01*
X97647125Y-117975132D01*
X97524811Y-117975996D01*
X97429068Y-117979478D01*
X97354747Y-117986807D01*
X97296698Y-117999211D01*
X97249773Y-118017920D01*
X97208822Y-118044163D01*
X97168697Y-118079169D01*
X97155009Y-118092603D01*
X97107649Y-118145281D01*
X97079171Y-118193225D01*
X97062008Y-118249273D01*
X97061630Y-118251019D01*
X97056886Y-118290728D01*
X97052878Y-118362178D01*
X97049605Y-118465369D01*
X97047069Y-118600300D01*
X97045268Y-118766972D01*
X97044204Y-118965384D01*
X97043875Y-119182343D01*
X97043875Y-120030875D01*
X96931763Y-120030875D01*
X96936225Y-119114093D01*
X96940687Y-118197312D01*
X96977257Y-118117937D01*
X97035755Y-118021278D01*
X97113177Y-117946844D01*
X97212301Y-117892631D01*
X97335900Y-117856631D01*
X97340064Y-117855802D01*
X97407446Y-117847091D01*
X97495548Y-117842242D01*
X97596893Y-117840996D01*
X97704002Y-117843098D01*
G36*
X93899952Y-117843582D02*
X94060757Y-117844741D01*
X94192783Y-117845894D01*
X94299001Y-117847202D01*
X94382379Y-117848824D01*
X94445889Y-117850920D01*
X94492500Y-117853649D01*
X94525184Y-117857172D01*
X94546910Y-117861647D01*
X94560648Y-117867235D01*
X94569369Y-117874095D01*
X94574135Y-117879812D01*
X94584824Y-117894867D01*
X94592650Y-117910154D01*
X94596579Y-117927636D01*
X94595578Y-117949275D01*
X94588614Y-117977034D01*
X94574653Y-118012877D01*
X94552662Y-118058765D01*
X94521609Y-118116663D01*
X94480460Y-118188531D01*
X94428182Y-118276334D01*
X94363742Y-118382034D01*
X94286107Y-118507594D01*
X94194243Y-118654976D01*
X94087117Y-118826144D01*
X94017791Y-118936764D01*
X93920158Y-119092628D01*
X93827449Y-119240837D01*
X93741050Y-119379162D01*
X93662349Y-119505373D01*
X93592730Y-119617242D01*
X93533581Y-119712537D01*
X93486288Y-119789032D01*
X93452237Y-119844495D01*
X93432815Y-119876698D01*
X93428718Y-119884031D01*
X93441596Y-119889379D01*
X93481656Y-119893967D01*
X93544337Y-119897778D01*
X93625078Y-119900796D01*
X93719320Y-119903002D01*
X93822502Y-119904382D01*
X93930063Y-119904916D01*
X94037445Y-119904589D01*
X94140086Y-119903384D01*
X94233426Y-119901282D01*
X94312905Y-119898269D01*
X94373963Y-119894325D01*
X94412040Y-119889435D01*
X94418489Y-119887716D01*
X94451911Y-119872647D01*
X94476393Y-119850976D01*
X94493505Y-119817835D01*
X94504816Y-119768353D01*
X94511895Y-119697660D01*
X94516312Y-119600888D01*
X94516884Y-119582406D01*
X94523353Y-119364125D01*
X94649599Y-119364125D01*
X94644113Y-119606218D01*
X94640610Y-119714601D01*
X94634802Y-119796437D01*
X94625355Y-119856912D01*
X94610935Y-119901216D01*
X94590206Y-119934534D01*
X94561835Y-119962056D01*
X94550271Y-119970969D01*
X94506676Y-119995006D01*
X94453843Y-120013992D01*
X94447083Y-120015675D01*
X94410231Y-120020459D01*
X94348058Y-120024322D01*
X94265197Y-120027284D01*
X94166282Y-120029367D01*
X94055947Y-120030593D01*
X93938826Y-120030982D01*
X93819552Y-120030557D01*
X93702759Y-120029339D01*
X93593080Y-120027349D01*
X93495150Y-120024609D01*
X93413602Y-120021139D01*
X93353069Y-120016963D01*
X93318186Y-120012100D01*
X93313250Y-120010429D01*
X93279048Y-119977349D01*
X93268291Y-119928625D01*
X93282215Y-119871302D01*
X93287092Y-119861272D01*
X93299292Y-119840470D01*
X93326862Y-119795055D01*
X93368364Y-119727352D01*
X93422362Y-119639684D01*
X93487419Y-119534377D01*
X93562099Y-119413754D01*
X93644964Y-119280139D01*
X93734577Y-119135857D01*
X93829502Y-118983233D01*
X93883930Y-118895812D01*
X94457395Y-117975062D01*
X93853572Y-117970905D01*
X93249750Y-117966747D01*
X93249750Y-117839103D01*
X93899952Y-117843582D01*
X93899952Y-117843582D01*
G37*
X93899952Y-117843582D02*
X94060757Y-117844741D01*
X94192783Y-117845894D01*
X94299001Y-117847202D01*
X94382379Y-117848824D01*
X94445889Y-117850920D01*
X94492500Y-117853649D01*
X94525184Y-117857172D01*
X94546910Y-117861647D01*
X94560648Y-117867235D01*
X94569369Y-117874095D01*
X94574135Y-117879812D01*
X94584824Y-117894867D01*
X94592650Y-117910154D01*
X94596579Y-117927636D01*
X94595578Y-117949275D01*
X94588614Y-117977034D01*
X94574653Y-118012877D01*
X94552662Y-118058765D01*
X94521609Y-118116663D01*
X94480460Y-118188531D01*
X94428182Y-118276334D01*
X94363742Y-118382034D01*
X94286107Y-118507594D01*
X94194243Y-118654976D01*
X94087117Y-118826144D01*
X94017791Y-118936764D01*
X93920158Y-119092628D01*
X93827449Y-119240837D01*
X93741050Y-119379162D01*
X93662349Y-119505373D01*
X93592730Y-119617242D01*
X93533581Y-119712537D01*
X93486288Y-119789032D01*
X93452237Y-119844495D01*
X93432815Y-119876698D01*
X93428718Y-119884031D01*
X93441596Y-119889379D01*
X93481656Y-119893967D01*
X93544337Y-119897778D01*
X93625078Y-119900796D01*
X93719320Y-119903002D01*
X93822502Y-119904382D01*
X93930063Y-119904916D01*
X94037445Y-119904589D01*
X94140086Y-119903384D01*
X94233426Y-119901282D01*
X94312905Y-119898269D01*
X94373963Y-119894325D01*
X94412040Y-119889435D01*
X94418489Y-119887716D01*
X94451911Y-119872647D01*
X94476393Y-119850976D01*
X94493505Y-119817835D01*
X94504816Y-119768353D01*
X94511895Y-119697660D01*
X94516312Y-119600888D01*
X94516884Y-119582406D01*
X94523353Y-119364125D01*
X94649599Y-119364125D01*
X94644113Y-119606218D01*
X94640610Y-119714601D01*
X94634802Y-119796437D01*
X94625355Y-119856912D01*
X94610935Y-119901216D01*
X94590206Y-119934534D01*
X94561835Y-119962056D01*
X94550271Y-119970969D01*
X94506676Y-119995006D01*
X94453843Y-120013992D01*
X94447083Y-120015675D01*
X94410231Y-120020459D01*
X94348058Y-120024322D01*
X94265197Y-120027284D01*
X94166282Y-120029367D01*
X94055947Y-120030593D01*
X93938826Y-120030982D01*
X93819552Y-120030557D01*
X93702759Y-120029339D01*
X93593080Y-120027349D01*
X93495150Y-120024609D01*
X93413602Y-120021139D01*
X93353069Y-120016963D01*
X93318186Y-120012100D01*
X93313250Y-120010429D01*
X93279048Y-119977349D01*
X93268291Y-119928625D01*
X93282215Y-119871302D01*
X93287092Y-119861272D01*
X93299292Y-119840470D01*
X93326862Y-119795055D01*
X93368364Y-119727352D01*
X93422362Y-119639684D01*
X93487419Y-119534377D01*
X93562099Y-119413754D01*
X93644964Y-119280139D01*
X93734577Y-119135857D01*
X93829502Y-118983233D01*
X93883930Y-118895812D01*
X94457395Y-117975062D01*
X93853572Y-117970905D01*
X93249750Y-117966747D01*
X93249750Y-117839103D01*
X93899952Y-117843582D01*
G36*
X91884500Y-117397415D02*
X91993346Y-117466263D01*
X92081695Y-117558449D01*
X92136709Y-117649625D01*
X92178187Y-117736937D01*
X92178187Y-118895812D01*
X92178176Y-119115258D01*
X92178099Y-119305238D01*
X92177892Y-119468037D01*
X92177492Y-119605939D01*
X92176835Y-119721230D01*
X92175856Y-119816192D01*
X92174491Y-119893111D01*
X92172676Y-119954270D01*
X92170347Y-120001955D01*
X92167440Y-120038450D01*
X92163892Y-120066040D01*
X92159637Y-120087008D01*
X92154612Y-120103639D01*
X92148753Y-120118217D01*
X92143591Y-120129573D01*
X92092878Y-120213551D01*
X92023419Y-120293695D01*
X91944611Y-120360426D01*
X91879956Y-120398261D01*
X91797187Y-120435687D01*
X90376375Y-120439256D01*
X90131428Y-120439853D01*
X89916171Y-120440312D01*
X89728547Y-120440593D01*
X89566496Y-120440659D01*
X89427959Y-120440472D01*
X89310877Y-120439994D01*
X89213190Y-120439186D01*
X89132841Y-120438012D01*
X89067770Y-120436432D01*
X89015918Y-120434410D01*
X88975226Y-120431906D01*
X88943635Y-120428883D01*
X88919087Y-120425303D01*
X88899522Y-120421128D01*
X88882881Y-120416320D01*
X88868734Y-120411431D01*
X88762011Y-120359446D01*
X88674379Y-120285688D01*
X88618434Y-120214791D01*
X88601404Y-120189673D01*
X88586630Y-120166447D01*
X88573950Y-120142778D01*
X88563206Y-120116331D01*
X88554236Y-120084769D01*
X88546881Y-120045759D01*
X88540980Y-119996964D01*
X88536374Y-119936048D01*
X88532903Y-119860677D01*
X88530406Y-119768515D01*
X88528723Y-119657226D01*
X88527695Y-119524475D01*
X88527220Y-119385056D01*
X88630124Y-119385056D01*
X88630327Y-119550727D01*
X88631228Y-119687994D01*
X88633270Y-119800203D01*
X88636892Y-119890700D01*
X88642536Y-119962830D01*
X88650644Y-120019938D01*
X88661655Y-120065371D01*
X88676012Y-120102472D01*
X88694154Y-120134589D01*
X88716524Y-120165066D01*
X88736040Y-120188509D01*
X88786464Y-120236502D01*
X88847181Y-120279749D01*
X88875304Y-120294996D01*
X88955562Y-120332548D01*
X90376375Y-120328555D01*
X91797187Y-120324562D01*
X91863605Y-120281370D01*
X91934630Y-120229230D01*
X91985682Y-120174911D01*
X92027101Y-120106793D01*
X92037072Y-120086437D01*
X92046713Y-120065545D01*
X92054549Y-120045378D01*
X92060767Y-120022554D01*
X92065556Y-119993693D01*
X92069104Y-119955415D01*
X92071599Y-119904337D01*
X92073228Y-119837081D01*
X92074182Y-119750264D01*
X92074647Y-119640507D01*
X92074811Y-119504428D01*
X92074844Y-119407781D01*
X92075000Y-118808500D01*
X91845371Y-118808500D01*
X91755023Y-118808817D01*
X91691276Y-118810196D01*
X91648979Y-118813280D01*
X91622987Y-118818711D01*
X91608149Y-118827131D01*
X91599320Y-118839184D01*
X91599308Y-118839206D01*
X91593021Y-118866335D01*
X91587844Y-118917961D01*
X91584293Y-118986834D01*
X91582880Y-119065707D01*
X91582875Y-119070963D01*
X91581207Y-119175890D01*
X91574963Y-119254447D01*
X91562278Y-119311894D01*
X91541287Y-119353494D01*
X91510126Y-119384511D01*
X91466932Y-119410206D01*
X91461814Y-119412717D01*
X91382404Y-119437112D01*
X91308461Y-119430381D01*
X91251244Y-119401660D01*
X91228102Y-119383050D01*
X91209792Y-119360807D01*
X91195756Y-119331218D01*
X91185438Y-119290569D01*
X91178280Y-119235145D01*
X91173725Y-119161234D01*
X91171215Y-119065121D01*
X91170195Y-118943093D01*
X91170065Y-118860603D01*
X91169878Y-118734651D01*
X91169180Y-118636390D01*
X91167705Y-118561759D01*
X91165185Y-118506701D01*
X91161355Y-118467156D01*
X91155946Y-118439065D01*
X91148694Y-118418370D01*
X91139932Y-118401992D01*
X91098713Y-118357208D01*
X91051123Y-118341900D01*
X91002309Y-118355956D01*
X90957414Y-118399264D01*
X90952769Y-118406064D01*
X90945477Y-118419394D01*
X90939432Y-118437138D01*
X90934467Y-118462394D01*
X90930411Y-118498260D01*
X90927097Y-118547834D01*
X90924354Y-118614214D01*
X90922016Y-118700499D01*
X90919911Y-118809786D01*
X90917872Y-118945175D01*
X90916125Y-119078378D01*
X90914002Y-119237860D01*
X90911940Y-119368676D01*
X90909773Y-119473906D01*
X90907336Y-119556635D01*
X90904465Y-119619943D01*
X90900995Y-119666914D01*
X90896759Y-119700629D01*
X90891594Y-119724172D01*
X90885334Y-119740623D01*
X90880185Y-119749614D01*
X90825856Y-119808239D01*
X90756315Y-119839752D01*
X90693875Y-119846480D01*
X90613116Y-119834714D01*
X90551079Y-119798188D01*
X90507674Y-119741006D01*
X90501239Y-119727116D01*
X90495821Y-119709148D01*
X90491312Y-119684341D01*
X90487605Y-119649933D01*
X90484591Y-119603164D01*
X90482163Y-119541272D01*
X90480214Y-119461496D01*
X90478634Y-119361073D01*
X90477318Y-119237244D01*
X90476156Y-119087247D01*
X90475041Y-118908320D01*
X90475017Y-118904160D01*
X90473961Y-118726121D01*
X90472947Y-118577105D01*
X90471847Y-118454383D01*
X90470533Y-118355229D01*
X90468877Y-118276914D01*
X90466752Y-118216712D01*
X90464029Y-118171894D01*
X90460582Y-118139733D01*
X90456282Y-118117503D01*
X90451002Y-118102475D01*
X90444613Y-118091921D01*
X90436989Y-118083116D01*
X90436531Y-118082628D01*
X90388775Y-118052054D01*
X90334941Y-118049894D01*
X90282842Y-118076014D01*
X90272465Y-118085465D01*
X90233500Y-118124431D01*
X90233475Y-118899059D01*
X90233444Y-119083889D01*
X90233164Y-119239698D01*
X90232336Y-119369218D01*
X90230661Y-119475178D01*
X90227840Y-119560308D01*
X90223573Y-119627338D01*
X90217563Y-119678999D01*
X90209509Y-119718020D01*
X90199112Y-119747132D01*
X90186074Y-119769065D01*
X90170096Y-119786548D01*
X90150878Y-119802312D01*
X90133087Y-119815434D01*
X90073667Y-119841493D01*
X90002382Y-119847558D01*
X89931871Y-119833821D01*
X89888557Y-119811691D01*
X89864509Y-119793388D01*
X89844675Y-119773863D01*
X89828652Y-119750030D01*
X89816033Y-119718805D01*
X89806414Y-119677101D01*
X89799389Y-119621833D01*
X89794553Y-119549917D01*
X89791501Y-119458266D01*
X89789829Y-119343795D01*
X89789130Y-119203418D01*
X89789000Y-119053452D01*
X89788841Y-118889412D01*
X89788130Y-118754175D01*
X89786515Y-118644798D01*
X89783644Y-118558335D01*
X89779165Y-118491840D01*
X89772727Y-118442369D01*
X89763978Y-118406976D01*
X89752566Y-118382717D01*
X89738138Y-118366645D01*
X89720344Y-118355817D01*
X89704907Y-118349486D01*
X89653297Y-118345271D01*
X89604513Y-118365153D01*
X89571036Y-118403701D01*
X89568887Y-118408686D01*
X89563779Y-118437178D01*
X89559009Y-118493437D01*
X89554763Y-118573478D01*
X89551228Y-118673319D01*
X89548591Y-118788976D01*
X89547520Y-118864062D01*
X89545744Y-118999779D01*
X89543292Y-119107611D01*
X89539399Y-119191425D01*
X89533300Y-119255085D01*
X89524230Y-119302458D01*
X89511424Y-119337409D01*
X89494116Y-119363804D01*
X89471543Y-119385508D01*
X89442938Y-119406386D01*
X89439750Y-119408554D01*
X89372959Y-119436265D01*
X89301858Y-119436066D01*
X89233408Y-119409729D01*
X89174567Y-119359027D01*
X89158189Y-119336861D01*
X89146311Y-119312864D01*
X89137708Y-119279080D01*
X89131677Y-119229917D01*
X89127512Y-119159784D01*
X89124704Y-119071175D01*
X89121605Y-118989055D01*
X89116885Y-118917613D01*
X89111117Y-118863213D01*
X89104870Y-118832216D01*
X89102916Y-118828343D01*
X89084343Y-118819639D01*
X89043319Y-118813594D01*
X88976970Y-118809973D01*
X88882416Y-118808543D01*
X88858368Y-118808500D01*
X88630125Y-118808500D01*
X88630124Y-119385056D01*
X88527220Y-119385056D01*
X88527161Y-119367926D01*
X88526961Y-119185244D01*
X88526935Y-118974093D01*
X88526937Y-118879937D01*
X88526937Y-118252075D01*
X88630124Y-118252075D01*
X88630124Y-118694585D01*
X88883793Y-118699949D01*
X88978748Y-118702094D01*
X89047343Y-118704476D01*
X89094960Y-118707988D01*
X89126981Y-118713521D01*
X89148789Y-118721969D01*
X89165767Y-118734224D01*
X89181419Y-118749298D01*
X89198409Y-118767340D01*
X89210542Y-118785672D01*
X89218866Y-118809953D01*
X89224429Y-118845841D01*
X89228280Y-118898996D01*
X89231468Y-118975076D01*
X89233344Y-119029478D01*
X89237005Y-119123508D01*
X89241141Y-119191156D01*
X89246511Y-119237789D01*
X89253878Y-119268775D01*
X89264002Y-119289481D01*
X89271554Y-119299023D01*
X89314458Y-119327263D01*
X89360350Y-119328366D01*
X89401088Y-119304929D01*
X89428530Y-119259550D01*
X89431741Y-119247921D01*
X89434025Y-119223121D01*
X89436363Y-119171200D01*
X89438631Y-119096785D01*
X89440707Y-119004503D01*
X89442468Y-118898981D01*
X89443671Y-118797720D01*
X89445018Y-118671494D01*
X89446539Y-118573041D01*
X89448552Y-118498384D01*
X89451375Y-118443546D01*
X89455325Y-118404550D01*
X89460721Y-118377420D01*
X89467881Y-118358178D01*
X89477124Y-118342847D01*
X89480418Y-118338325D01*
X89539623Y-118275708D01*
X89603781Y-118242069D01*
X89658442Y-118234182D01*
X89740334Y-118247614D01*
X89808755Y-118289240D01*
X89861101Y-118357423D01*
X89864406Y-118363758D01*
X89873470Y-118382367D01*
X89880855Y-118401084D01*
X89886732Y-118423205D01*
X89891274Y-118452022D01*
X89894652Y-118490833D01*
X89897039Y-118542931D01*
X89898606Y-118611612D01*
X89899526Y-118700169D01*
X89899971Y-118811899D01*
X89900113Y-118950096D01*
X89900125Y-119047670D01*
X89900125Y-119661113D01*
X89939054Y-119703119D01*
X89986515Y-119737196D01*
X90035102Y-119741778D01*
X90079579Y-119716555D01*
X90084195Y-119711728D01*
X90091070Y-119702781D01*
X90096868Y-119690600D01*
X90101715Y-119672476D01*
X90105737Y-119645700D01*
X90109061Y-119607566D01*
X90111811Y-119555364D01*
X90114114Y-119486386D01*
X90116096Y-119397924D01*
X90117882Y-119287269D01*
X90119599Y-119151715D01*
X90121372Y-118988551D01*
X90122375Y-118890197D01*
X90124225Y-118711310D01*
X90125951Y-118561389D01*
X90127684Y-118437651D01*
X90129554Y-118337312D01*
X90131694Y-118257591D01*
X90134233Y-118195704D01*
X90137304Y-118148868D01*
X90141037Y-118114299D01*
X90145564Y-118089216D01*
X90151016Y-118070834D01*
X90157523Y-118056372D01*
X90162062Y-118048295D01*
X90213824Y-117988469D01*
X90280950Y-117950822D01*
X90355696Y-117937266D01*
X90430318Y-117949714D01*
X90473246Y-117971410D01*
X90497384Y-117987704D01*
X90517685Y-118003456D01*
X90534481Y-118021412D01*
X90548103Y-118044321D01*
X90558885Y-118074929D01*
X90567158Y-118115984D01*
X90573254Y-118170233D01*
X90577506Y-118240423D01*
X90580246Y-118329302D01*
X90581806Y-118439617D01*
X90582518Y-118574116D01*
X90582715Y-118735546D01*
X90582725Y-118876757D01*
X90582805Y-119061400D01*
X90583210Y-119216879D01*
X90584200Y-119345782D01*
X90586040Y-119450695D01*
X90588992Y-119534204D01*
X90593319Y-119598896D01*
X90599284Y-119647358D01*
X90607149Y-119682176D01*
X90617178Y-119705936D01*
X90629633Y-119721226D01*
X90644778Y-119730632D01*
X90662874Y-119736741D01*
X90670315Y-119738669D01*
X90718562Y-119742358D01*
X90756177Y-119722235D01*
X90784231Y-119687035D01*
X90791570Y-119673813D01*
X90797548Y-119656725D01*
X90802302Y-119632612D01*
X90805971Y-119598319D01*
X90808693Y-119550688D01*
X90810606Y-119486562D01*
X90811849Y-119402784D01*
X90812559Y-119296197D01*
X90812875Y-119163642D01*
X90812937Y-119031339D01*
X90812996Y-118875533D01*
X90813282Y-118748205D01*
X90813955Y-118646084D01*
X90815177Y-118565898D01*
X90817109Y-118504375D01*
X90819913Y-118458243D01*
X90823749Y-118424231D01*
X90828780Y-118399067D01*
X90835166Y-118379479D01*
X90843069Y-118362196D01*
X90846235Y-118356062D01*
X90895872Y-118290963D01*
X90959454Y-118250222D01*
X91030563Y-118233839D01*
X91102779Y-118241815D01*
X91169684Y-118274149D01*
X91224859Y-118330842D01*
X91240014Y-118356062D01*
X91250033Y-118377016D01*
X91257907Y-118399895D01*
X91263958Y-118428783D01*
X91268504Y-118467767D01*
X91271866Y-118520931D01*
X91274365Y-118592363D01*
X91276320Y-118686148D01*
X91278052Y-118806371D01*
X91278575Y-118848187D01*
X91280460Y-118984793D01*
X91282836Y-119092963D01*
X91286385Y-119176012D01*
X91291789Y-119237253D01*
X91299726Y-119280000D01*
X91310879Y-119307567D01*
X91325929Y-119323268D01*
X91345556Y-119330417D01*
X91370441Y-119332327D01*
X91378060Y-119332375D01*
X91413891Y-119327109D01*
X91439695Y-119308606D01*
X91456994Y-119272804D01*
X91467308Y-119215640D01*
X91472159Y-119133053D01*
X91473027Y-119078811D01*
X91475398Y-118959151D01*
X91483070Y-118867486D01*
X91499712Y-118800100D01*
X91528990Y-118753282D01*
X91574571Y-118723316D01*
X91640122Y-118706490D01*
X91729311Y-118699089D01*
X91845803Y-118697400D01*
X91849639Y-118697399D01*
X92076716Y-118697375D01*
X92071889Y-118215324D01*
X92067062Y-117733274D01*
X92011500Y-117651024D01*
X91947515Y-117574969D01*
X91870962Y-117513212D01*
X91790841Y-117472447D01*
X91759186Y-117463384D01*
X91734931Y-117461548D01*
X91681341Y-117459796D01*
X91600828Y-117458148D01*
X91495807Y-117456626D01*
X91368692Y-117455248D01*
X91221896Y-117454037D01*
X91057834Y-117453013D01*
X90878920Y-117452196D01*
X90687568Y-117451607D01*
X90486190Y-117451267D01*
X90328750Y-117451187D01*
X88955562Y-117451187D01*
X88884125Y-117488589D01*
X88784857Y-117555271D01*
X88708513Y-117637890D01*
X88661772Y-117724979D01*
X88652348Y-117752508D01*
X88644990Y-117781543D01*
X88639447Y-117816282D01*
X88635467Y-117860920D01*
X88632797Y-117919656D01*
X88631185Y-117996687D01*
X88630380Y-118096209D01*
X88630130Y-118222419D01*
X88630124Y-118252075D01*
X88526937Y-118252075D01*
X88526937Y-117752812D01*
X88568770Y-117663594D01*
X88638312Y-117548485D01*
X88727140Y-117457692D01*
X88818076Y-117400066D01*
X88907937Y-117355937D01*
X91797187Y-117355937D01*
X91884500Y-117397415D01*
X91884500Y-117397415D01*
G37*
X91884500Y-117397415D02*
X91993346Y-117466263D01*
X92081695Y-117558449D01*
X92136709Y-117649625D01*
X92178187Y-117736937D01*
X92178187Y-118895812D01*
X92178176Y-119115258D01*
X92178099Y-119305238D01*
X92177892Y-119468037D01*
X92177492Y-119605939D01*
X92176835Y-119721230D01*
X92175856Y-119816192D01*
X92174491Y-119893111D01*
X92172676Y-119954270D01*
X92170347Y-120001955D01*
X92167440Y-120038450D01*
X92163892Y-120066040D01*
X92159637Y-120087008D01*
X92154612Y-120103639D01*
X92148753Y-120118217D01*
X92143591Y-120129573D01*
X92092878Y-120213551D01*
X92023419Y-120293695D01*
X91944611Y-120360426D01*
X91879956Y-120398261D01*
X91797187Y-120435687D01*
X90376375Y-120439256D01*
X90131428Y-120439853D01*
X89916171Y-120440312D01*
X89728547Y-120440593D01*
X89566496Y-120440659D01*
X89427959Y-120440472D01*
X89310877Y-120439994D01*
X89213190Y-120439186D01*
X89132841Y-120438012D01*
X89067770Y-120436432D01*
X89015918Y-120434410D01*
X88975226Y-120431906D01*
X88943635Y-120428883D01*
X88919087Y-120425303D01*
X88899522Y-120421128D01*
X88882881Y-120416320D01*
X88868734Y-120411431D01*
X88762011Y-120359446D01*
X88674379Y-120285688D01*
X88618434Y-120214791D01*
X88601404Y-120189673D01*
X88586630Y-120166447D01*
X88573950Y-120142778D01*
X88563206Y-120116331D01*
X88554236Y-120084769D01*
X88546881Y-120045759D01*
X88540980Y-119996964D01*
X88536374Y-119936048D01*
X88532903Y-119860677D01*
X88530406Y-119768515D01*
X88528723Y-119657226D01*
X88527695Y-119524475D01*
X88527220Y-119385056D01*
X88630124Y-119385056D01*
X88630327Y-119550727D01*
X88631228Y-119687994D01*
X88633270Y-119800203D01*
X88636892Y-119890700D01*
X88642536Y-119962830D01*
X88650644Y-120019938D01*
X88661655Y-120065371D01*
X88676012Y-120102472D01*
X88694154Y-120134589D01*
X88716524Y-120165066D01*
X88736040Y-120188509D01*
X88786464Y-120236502D01*
X88847181Y-120279749D01*
X88875304Y-120294996D01*
X88955562Y-120332548D01*
X90376375Y-120328555D01*
X91797187Y-120324562D01*
X91863605Y-120281370D01*
X91934630Y-120229230D01*
X91985682Y-120174911D01*
X92027101Y-120106793D01*
X92037072Y-120086437D01*
X92046713Y-120065545D01*
X92054549Y-120045378D01*
X92060767Y-120022554D01*
X92065556Y-119993693D01*
X92069104Y-119955415D01*
X92071599Y-119904337D01*
X92073228Y-119837081D01*
X92074182Y-119750264D01*
X92074647Y-119640507D01*
X92074811Y-119504428D01*
X92074844Y-119407781D01*
X92075000Y-118808500D01*
X91845371Y-118808500D01*
X91755023Y-118808817D01*
X91691276Y-118810196D01*
X91648979Y-118813280D01*
X91622987Y-118818711D01*
X91608149Y-118827131D01*
X91599320Y-118839184D01*
X91599308Y-118839206D01*
X91593021Y-118866335D01*
X91587844Y-118917961D01*
X91584293Y-118986834D01*
X91582880Y-119065707D01*
X91582875Y-119070963D01*
X91581207Y-119175890D01*
X91574963Y-119254447D01*
X91562278Y-119311894D01*
X91541287Y-119353494D01*
X91510126Y-119384511D01*
X91466932Y-119410206D01*
X91461814Y-119412717D01*
X91382404Y-119437112D01*
X91308461Y-119430381D01*
X91251244Y-119401660D01*
X91228102Y-119383050D01*
X91209792Y-119360807D01*
X91195756Y-119331218D01*
X91185438Y-119290569D01*
X91178280Y-119235145D01*
X91173725Y-119161234D01*
X91171215Y-119065121D01*
X91170195Y-118943093D01*
X91170065Y-118860603D01*
X91169878Y-118734651D01*
X91169180Y-118636390D01*
X91167705Y-118561759D01*
X91165185Y-118506701D01*
X91161355Y-118467156D01*
X91155946Y-118439065D01*
X91148694Y-118418370D01*
X91139932Y-118401992D01*
X91098713Y-118357208D01*
X91051123Y-118341900D01*
X91002309Y-118355956D01*
X90957414Y-118399264D01*
X90952769Y-118406064D01*
X90945477Y-118419394D01*
X90939432Y-118437138D01*
X90934467Y-118462394D01*
X90930411Y-118498260D01*
X90927097Y-118547834D01*
X90924354Y-118614214D01*
X90922016Y-118700499D01*
X90919911Y-118809786D01*
X90917872Y-118945175D01*
X90916125Y-119078378D01*
X90914002Y-119237860D01*
X90911940Y-119368676D01*
X90909773Y-119473906D01*
X90907336Y-119556635D01*
X90904465Y-119619943D01*
X90900995Y-119666914D01*
X90896759Y-119700629D01*
X90891594Y-119724172D01*
X90885334Y-119740623D01*
X90880185Y-119749614D01*
X90825856Y-119808239D01*
X90756315Y-119839752D01*
X90693875Y-119846480D01*
X90613116Y-119834714D01*
X90551079Y-119798188D01*
X90507674Y-119741006D01*
X90501239Y-119727116D01*
X90495821Y-119709148D01*
X90491312Y-119684341D01*
X90487605Y-119649933D01*
X90484591Y-119603164D01*
X90482163Y-119541272D01*
X90480214Y-119461496D01*
X90478634Y-119361073D01*
X90477318Y-119237244D01*
X90476156Y-119087247D01*
X90475041Y-118908320D01*
X90475017Y-118904160D01*
X90473961Y-118726121D01*
X90472947Y-118577105D01*
X90471847Y-118454383D01*
X90470533Y-118355229D01*
X90468877Y-118276914D01*
X90466752Y-118216712D01*
X90464029Y-118171894D01*
X90460582Y-118139733D01*
X90456282Y-118117503D01*
X90451002Y-118102475D01*
X90444613Y-118091921D01*
X90436989Y-118083116D01*
X90436531Y-118082628D01*
X90388775Y-118052054D01*
X90334941Y-118049894D01*
X90282842Y-118076014D01*
X90272465Y-118085465D01*
X90233500Y-118124431D01*
X90233475Y-118899059D01*
X90233444Y-119083889D01*
X90233164Y-119239698D01*
X90232336Y-119369218D01*
X90230661Y-119475178D01*
X90227840Y-119560308D01*
X90223573Y-119627338D01*
X90217563Y-119678999D01*
X90209509Y-119718020D01*
X90199112Y-119747132D01*
X90186074Y-119769065D01*
X90170096Y-119786548D01*
X90150878Y-119802312D01*
X90133087Y-119815434D01*
X90073667Y-119841493D01*
X90002382Y-119847558D01*
X89931871Y-119833821D01*
X89888557Y-119811691D01*
X89864509Y-119793388D01*
X89844675Y-119773863D01*
X89828652Y-119750030D01*
X89816033Y-119718805D01*
X89806414Y-119677101D01*
X89799389Y-119621833D01*
X89794553Y-119549917D01*
X89791501Y-119458266D01*
X89789829Y-119343795D01*
X89789130Y-119203418D01*
X89789000Y-119053452D01*
X89788841Y-118889412D01*
X89788130Y-118754175D01*
X89786515Y-118644798D01*
X89783644Y-118558335D01*
X89779165Y-118491840D01*
X89772727Y-118442369D01*
X89763978Y-118406976D01*
X89752566Y-118382717D01*
X89738138Y-118366645D01*
X89720344Y-118355817D01*
X89704907Y-118349486D01*
X89653297Y-118345271D01*
X89604513Y-118365153D01*
X89571036Y-118403701D01*
X89568887Y-118408686D01*
X89563779Y-118437178D01*
X89559009Y-118493437D01*
X89554763Y-118573478D01*
X89551228Y-118673319D01*
X89548591Y-118788976D01*
X89547520Y-118864062D01*
X89545744Y-118999779D01*
X89543292Y-119107611D01*
X89539399Y-119191425D01*
X89533300Y-119255085D01*
X89524230Y-119302458D01*
X89511424Y-119337409D01*
X89494116Y-119363804D01*
X89471543Y-119385508D01*
X89442938Y-119406386D01*
X89439750Y-119408554D01*
X89372959Y-119436265D01*
X89301858Y-119436066D01*
X89233408Y-119409729D01*
X89174567Y-119359027D01*
X89158189Y-119336861D01*
X89146311Y-119312864D01*
X89137708Y-119279080D01*
X89131677Y-119229917D01*
X89127512Y-119159784D01*
X89124704Y-119071175D01*
X89121605Y-118989055D01*
X89116885Y-118917613D01*
X89111117Y-118863213D01*
X89104870Y-118832216D01*
X89102916Y-118828343D01*
X89084343Y-118819639D01*
X89043319Y-118813594D01*
X88976970Y-118809973D01*
X88882416Y-118808543D01*
X88858368Y-118808500D01*
X88630125Y-118808500D01*
X88630124Y-119385056D01*
X88527220Y-119385056D01*
X88527161Y-119367926D01*
X88526961Y-119185244D01*
X88526935Y-118974093D01*
X88526937Y-118879937D01*
X88526937Y-118252075D01*
X88630124Y-118252075D01*
X88630124Y-118694585D01*
X88883793Y-118699949D01*
X88978748Y-118702094D01*
X89047343Y-118704476D01*
X89094960Y-118707988D01*
X89126981Y-118713521D01*
X89148789Y-118721969D01*
X89165767Y-118734224D01*
X89181419Y-118749298D01*
X89198409Y-118767340D01*
X89210542Y-118785672D01*
X89218866Y-118809953D01*
X89224429Y-118845841D01*
X89228280Y-118898996D01*
X89231468Y-118975076D01*
X89233344Y-119029478D01*
X89237005Y-119123508D01*
X89241141Y-119191156D01*
X89246511Y-119237789D01*
X89253878Y-119268775D01*
X89264002Y-119289481D01*
X89271554Y-119299023D01*
X89314458Y-119327263D01*
X89360350Y-119328366D01*
X89401088Y-119304929D01*
X89428530Y-119259550D01*
X89431741Y-119247921D01*
X89434025Y-119223121D01*
X89436363Y-119171200D01*
X89438631Y-119096785D01*
X89440707Y-119004503D01*
X89442468Y-118898981D01*
X89443671Y-118797720D01*
X89445018Y-118671494D01*
X89446539Y-118573041D01*
X89448552Y-118498384D01*
X89451375Y-118443546D01*
X89455325Y-118404550D01*
X89460721Y-118377420D01*
X89467881Y-118358178D01*
X89477124Y-118342847D01*
X89480418Y-118338325D01*
X89539623Y-118275708D01*
X89603781Y-118242069D01*
X89658442Y-118234182D01*
X89740334Y-118247614D01*
X89808755Y-118289240D01*
X89861101Y-118357423D01*
X89864406Y-118363758D01*
X89873470Y-118382367D01*
X89880855Y-118401084D01*
X89886732Y-118423205D01*
X89891274Y-118452022D01*
X89894652Y-118490833D01*
X89897039Y-118542931D01*
X89898606Y-118611612D01*
X89899526Y-118700169D01*
X89899971Y-118811899D01*
X89900113Y-118950096D01*
X89900125Y-119047670D01*
X89900125Y-119661113D01*
X89939054Y-119703119D01*
X89986515Y-119737196D01*
X90035102Y-119741778D01*
X90079579Y-119716555D01*
X90084195Y-119711728D01*
X90091070Y-119702781D01*
X90096868Y-119690600D01*
X90101715Y-119672476D01*
X90105737Y-119645700D01*
X90109061Y-119607566D01*
X90111811Y-119555364D01*
X90114114Y-119486386D01*
X90116096Y-119397924D01*
X90117882Y-119287269D01*
X90119599Y-119151715D01*
X90121372Y-118988551D01*
X90122375Y-118890197D01*
X90124225Y-118711310D01*
X90125951Y-118561389D01*
X90127684Y-118437651D01*
X90129554Y-118337312D01*
X90131694Y-118257591D01*
X90134233Y-118195704D01*
X90137304Y-118148868D01*
X90141037Y-118114299D01*
X90145564Y-118089216D01*
X90151016Y-118070834D01*
X90157523Y-118056372D01*
X90162062Y-118048295D01*
X90213824Y-117988469D01*
X90280950Y-117950822D01*
X90355696Y-117937266D01*
X90430318Y-117949714D01*
X90473246Y-117971410D01*
X90497384Y-117987704D01*
X90517685Y-118003456D01*
X90534481Y-118021412D01*
X90548103Y-118044321D01*
X90558885Y-118074929D01*
X90567158Y-118115984D01*
X90573254Y-118170233D01*
X90577506Y-118240423D01*
X90580246Y-118329302D01*
X90581806Y-118439617D01*
X90582518Y-118574116D01*
X90582715Y-118735546D01*
X90582725Y-118876757D01*
X90582805Y-119061400D01*
X90583210Y-119216879D01*
X90584200Y-119345782D01*
X90586040Y-119450695D01*
X90588992Y-119534204D01*
X90593319Y-119598896D01*
X90599284Y-119647358D01*
X90607149Y-119682176D01*
X90617178Y-119705936D01*
X90629633Y-119721226D01*
X90644778Y-119730632D01*
X90662874Y-119736741D01*
X90670315Y-119738669D01*
X90718562Y-119742358D01*
X90756177Y-119722235D01*
X90784231Y-119687035D01*
X90791570Y-119673813D01*
X90797548Y-119656725D01*
X90802302Y-119632612D01*
X90805971Y-119598319D01*
X90808693Y-119550688D01*
X90810606Y-119486562D01*
X90811849Y-119402784D01*
X90812559Y-119296197D01*
X90812875Y-119163642D01*
X90812937Y-119031339D01*
X90812996Y-118875533D01*
X90813282Y-118748205D01*
X90813955Y-118646084D01*
X90815177Y-118565898D01*
X90817109Y-118504375D01*
X90819913Y-118458243D01*
X90823749Y-118424231D01*
X90828780Y-118399067D01*
X90835166Y-118379479D01*
X90843069Y-118362196D01*
X90846235Y-118356062D01*
X90895872Y-118290963D01*
X90959454Y-118250222D01*
X91030563Y-118233839D01*
X91102779Y-118241815D01*
X91169684Y-118274149D01*
X91224859Y-118330842D01*
X91240014Y-118356062D01*
X91250033Y-118377016D01*
X91257907Y-118399895D01*
X91263958Y-118428783D01*
X91268504Y-118467767D01*
X91271866Y-118520931D01*
X91274365Y-118592363D01*
X91276320Y-118686148D01*
X91278052Y-118806371D01*
X91278575Y-118848187D01*
X91280460Y-118984793D01*
X91282836Y-119092963D01*
X91286385Y-119176012D01*
X91291789Y-119237253D01*
X91299726Y-119280000D01*
X91310879Y-119307567D01*
X91325929Y-119323268D01*
X91345556Y-119330417D01*
X91370441Y-119332327D01*
X91378060Y-119332375D01*
X91413891Y-119327109D01*
X91439695Y-119308606D01*
X91456994Y-119272804D01*
X91467308Y-119215640D01*
X91472159Y-119133053D01*
X91473027Y-119078811D01*
X91475398Y-118959151D01*
X91483070Y-118867486D01*
X91499712Y-118800100D01*
X91528990Y-118753282D01*
X91574571Y-118723316D01*
X91640122Y-118706490D01*
X91729311Y-118699089D01*
X91845803Y-118697400D01*
X91849639Y-118697399D01*
X92076716Y-118697375D01*
X92071889Y-118215324D01*
X92067062Y-117733274D01*
X92011500Y-117651024D01*
X91947515Y-117574969D01*
X91870962Y-117513212D01*
X91790841Y-117472447D01*
X91759186Y-117463384D01*
X91734931Y-117461548D01*
X91681341Y-117459796D01*
X91600828Y-117458148D01*
X91495807Y-117456626D01*
X91368692Y-117455248D01*
X91221896Y-117454037D01*
X91057834Y-117453013D01*
X90878920Y-117452196D01*
X90687568Y-117451607D01*
X90486190Y-117451267D01*
X90328750Y-117451187D01*
X88955562Y-117451187D01*
X88884125Y-117488589D01*
X88784857Y-117555271D01*
X88708513Y-117637890D01*
X88661772Y-117724979D01*
X88652348Y-117752508D01*
X88644990Y-117781543D01*
X88639447Y-117816282D01*
X88635467Y-117860920D01*
X88632797Y-117919656D01*
X88631185Y-117996687D01*
X88630380Y-118096209D01*
X88630130Y-118222419D01*
X88630124Y-118252075D01*
X88526937Y-118252075D01*
X88526937Y-117752812D01*
X88568770Y-117663594D01*
X88638312Y-117548485D01*
X88727140Y-117457692D01*
X88818076Y-117400066D01*
X88907937Y-117355937D01*
X91797187Y-117355937D01*
X91884500Y-117397415D01*
G36*
X95158090Y-118725156D02*
X95159102Y-118915149D01*
X95160074Y-119076028D01*
X95161115Y-119210425D01*
X95162333Y-119320976D01*
X95163836Y-119410316D01*
X95165732Y-119481077D01*
X95168130Y-119535896D01*
X95171136Y-119577406D01*
X95174861Y-119608241D01*
X95179411Y-119631037D01*
X95184895Y-119648428D01*
X95191421Y-119663047D01*
X95197015Y-119673687D01*
X95263941Y-119765910D01*
X95352351Y-119839986D01*
X95408750Y-119870878D01*
X95433071Y-119880900D01*
X95459074Y-119888623D01*
X95491113Y-119894349D01*
X95533542Y-119898377D01*
X95590712Y-119901009D01*
X95666978Y-119902545D01*
X95766692Y-119903287D01*
X95881031Y-119903526D01*
X96281875Y-119903875D01*
X96281875Y-117840125D01*
X96409976Y-117840125D01*
X96405457Y-119082343D01*
X96400937Y-120324562D01*
X96356421Y-120419812D01*
X96303495Y-120513698D01*
X96240476Y-120584213D01*
X96159095Y-120639686D01*
X96117363Y-120660542D01*
X96019937Y-120705562D01*
X95531781Y-120710742D01*
X95043625Y-120715921D01*
X95043625Y-120588921D01*
X95531781Y-120583742D01*
X96019937Y-120578562D01*
X96092489Y-120535909D01*
X96168348Y-120475869D01*
X96229522Y-120397495D01*
X96266366Y-120315348D01*
X96274302Y-120271502D01*
X96279894Y-120209724D01*
X96281875Y-120147209D01*
X96281875Y-120033146D01*
X95849281Y-120028042D01*
X95720067Y-120026400D01*
X95618403Y-120024656D01*
X95540090Y-120022466D01*
X95480929Y-120019489D01*
X95436720Y-120015383D01*
X95403266Y-120009807D01*
X95376366Y-120002418D01*
X95351822Y-119992874D01*
X95337312Y-119986356D01*
X95241617Y-119925983D01*
X95159544Y-119842511D01*
X95098016Y-119743875D01*
X95075495Y-119686213D01*
X95068578Y-119662514D01*
X95062740Y-119638034D01*
X95057888Y-119609990D01*
X95053933Y-119575599D01*
X95050782Y-119532081D01*
X95048345Y-119476654D01*
X95046532Y-119406533D01*
X95045250Y-119318939D01*
X95044410Y-119211089D01*
X95043919Y-119080200D01*
X95043688Y-118923490D01*
X95043625Y-118738178D01*
X95043625Y-117840125D01*
X95153494Y-117840125D01*
X95158090Y-118725156D01*
X95158090Y-118725156D01*
G37*
X95158090Y-118725156D02*
X95159102Y-118915149D01*
X95160074Y-119076028D01*
X95161115Y-119210425D01*
X95162333Y-119320976D01*
X95163836Y-119410316D01*
X95165732Y-119481077D01*
X95168130Y-119535896D01*
X95171136Y-119577406D01*
X95174861Y-119608241D01*
X95179411Y-119631037D01*
X95184895Y-119648428D01*
X95191421Y-119663047D01*
X95197015Y-119673687D01*
X95263941Y-119765910D01*
X95352351Y-119839986D01*
X95408750Y-119870878D01*
X95433071Y-119880900D01*
X95459074Y-119888623D01*
X95491113Y-119894349D01*
X95533542Y-119898377D01*
X95590712Y-119901009D01*
X95666978Y-119902545D01*
X95766692Y-119903287D01*
X95881031Y-119903526D01*
X96281875Y-119903875D01*
X96281875Y-117840125D01*
X96409976Y-117840125D01*
X96405457Y-119082343D01*
X96400937Y-120324562D01*
X96356421Y-120419812D01*
X96303495Y-120513698D01*
X96240476Y-120584213D01*
X96159095Y-120639686D01*
X96117363Y-120660542D01*
X96019937Y-120705562D01*
X95531781Y-120710742D01*
X95043625Y-120715921D01*
X95043625Y-120588921D01*
X95531781Y-120583742D01*
X96019937Y-120578562D01*
X96092489Y-120535909D01*
X96168348Y-120475869D01*
X96229522Y-120397495D01*
X96266366Y-120315348D01*
X96274302Y-120271502D01*
X96279894Y-120209724D01*
X96281875Y-120147209D01*
X96281875Y-120033146D01*
X95849281Y-120028042D01*
X95720067Y-120026400D01*
X95618403Y-120024656D01*
X95540090Y-120022466D01*
X95480929Y-120019489D01*
X95436720Y-120015383D01*
X95403266Y-120009807D01*
X95376366Y-120002418D01*
X95351822Y-119992874D01*
X95337312Y-119986356D01*
X95241617Y-119925983D01*
X95159544Y-119842511D01*
X95098016Y-119743875D01*
X95075495Y-119686213D01*
X95068578Y-119662514D01*
X95062740Y-119638034D01*
X95057888Y-119609990D01*
X95053933Y-119575599D01*
X95050782Y-119532081D01*
X95048345Y-119476654D01*
X95046532Y-119406533D01*
X95045250Y-119318939D01*
X95044410Y-119211089D01*
X95043919Y-119080200D01*
X95043688Y-118923490D01*
X95043625Y-118738178D01*
X95043625Y-117840125D01*
X95153494Y-117840125D01*
X95158090Y-118725156D01*
D11*
G36*
X109504959Y-117562577D02*
X109845470Y-117630309D01*
X110273143Y-117807457D01*
X110658038Y-118064636D01*
X110985364Y-118391962D01*
X111242543Y-118776857D01*
X111419691Y-119204530D01*
X111510000Y-119658545D01*
X111510000Y-120121455D01*
X111419691Y-120575470D01*
X111242543Y-121003143D01*
X110985364Y-121388038D01*
X110658038Y-121715364D01*
X110273143Y-121972543D01*
X109845470Y-122149691D01*
X109504959Y-122217423D01*
X109391456Y-122240000D01*
X108928544Y-122240000D01*
X108815041Y-122217423D01*
X108474530Y-122149691D01*
X108046857Y-121972543D01*
X107661962Y-121715364D01*
X107334636Y-121388038D01*
X107077457Y-121003143D01*
X106900309Y-120575470D01*
X106810000Y-120121455D01*
X106810000Y-119658545D01*
X106900309Y-119204530D01*
X107077457Y-118776857D01*
X107334636Y-118391962D01*
X107661962Y-118064636D01*
X108046857Y-117807457D01*
X108474530Y-117630309D01*
X108815041Y-117562577D01*
X108928544Y-117540000D01*
X109391456Y-117540000D01*
X109504959Y-117562577D01*
X109504959Y-117562577D01*
G37*
G36*
X74000935Y-118858429D02*
X74097534Y-118877644D01*
X74370517Y-118990717D01*
X74612920Y-119152687D01*
X74616197Y-119154876D01*
X74825124Y-119363803D01*
X74989284Y-119609485D01*
X75102356Y-119882467D01*
X75160000Y-120172261D01*
X75160000Y-120467739D01*
X75102356Y-120757533D01*
X74989284Y-121030515D01*
X74825124Y-121276197D01*
X74616197Y-121485124D01*
X74616194Y-121485126D01*
X74370517Y-121649283D01*
X74097534Y-121762356D01*
X74000935Y-121781571D01*
X73807739Y-121820000D01*
X73512261Y-121820000D01*
X73319065Y-121781571D01*
X73222466Y-121762356D01*
X72949483Y-121649283D01*
X72703806Y-121485126D01*
X72703803Y-121485124D01*
X72494876Y-121276197D01*
X72330716Y-121030515D01*
X72217644Y-120757533D01*
X72160000Y-120467739D01*
X72160000Y-120172261D01*
X72217644Y-119882467D01*
X72330716Y-119609485D01*
X72494876Y-119363803D01*
X72703803Y-119154876D01*
X72707080Y-119152687D01*
X72949483Y-118990717D01*
X73222466Y-118877644D01*
X73319065Y-118858429D01*
X73512261Y-118820000D01*
X73807739Y-118820000D01*
X74000935Y-118858429D01*
X74000935Y-118858429D01*
G37*
G36*
X61300935Y-118858429D02*
X61397534Y-118877644D01*
X61670517Y-118990717D01*
X61912920Y-119152687D01*
X61916197Y-119154876D01*
X62125124Y-119363803D01*
X62289284Y-119609485D01*
X62402356Y-119882467D01*
X62460000Y-120172261D01*
X62460000Y-120467739D01*
X62402356Y-120757533D01*
X62289284Y-121030515D01*
X62125124Y-121276197D01*
X61916197Y-121485124D01*
X61916194Y-121485126D01*
X61670517Y-121649283D01*
X61397534Y-121762356D01*
X61300935Y-121781571D01*
X61107739Y-121820000D01*
X60812261Y-121820000D01*
X60619065Y-121781571D01*
X60522466Y-121762356D01*
X60249483Y-121649283D01*
X60003806Y-121485126D01*
X60003803Y-121485124D01*
X59794876Y-121276197D01*
X59630716Y-121030515D01*
X59517644Y-120757533D01*
X59460000Y-120467739D01*
X59460000Y-120172261D01*
X59517644Y-119882467D01*
X59630716Y-119609485D01*
X59794876Y-119363803D01*
X60003803Y-119154876D01*
X60007080Y-119152687D01*
X60249483Y-118990717D01*
X60522466Y-118877644D01*
X60619065Y-118858429D01*
X60812261Y-118820000D01*
X61107739Y-118820000D01*
X61300935Y-118858429D01*
X61300935Y-118858429D01*
G37*
G36*
X67650935Y-118858429D02*
X67747534Y-118877644D01*
X68020517Y-118990717D01*
X68262920Y-119152687D01*
X68266197Y-119154876D01*
X68475124Y-119363803D01*
X68639284Y-119609485D01*
X68752356Y-119882467D01*
X68810000Y-120172261D01*
X68810000Y-120467739D01*
X68752356Y-120757533D01*
X68639284Y-121030515D01*
X68475124Y-121276197D01*
X68266197Y-121485124D01*
X68266194Y-121485126D01*
X68020517Y-121649283D01*
X67747534Y-121762356D01*
X67650935Y-121781571D01*
X67457739Y-121820000D01*
X67162261Y-121820000D01*
X66969065Y-121781571D01*
X66872466Y-121762356D01*
X66599483Y-121649283D01*
X66353806Y-121485126D01*
X66353803Y-121485124D01*
X66144876Y-121276197D01*
X65980716Y-121030515D01*
X65867644Y-120757533D01*
X65810000Y-120467739D01*
X65810000Y-120172261D01*
X65867644Y-119882467D01*
X65980716Y-119609485D01*
X66144876Y-119363803D01*
X66353803Y-119154876D01*
X66357080Y-119152687D01*
X66599483Y-118990717D01*
X66872466Y-118877644D01*
X66969065Y-118858429D01*
X67162261Y-118820000D01*
X67457739Y-118820000D01*
X67650935Y-118858429D01*
X67650935Y-118858429D01*
G37*
G36*
X96366630Y-114192299D02*
X96526855Y-114240903D01*
X96674520Y-114319831D01*
X96803949Y-114426051D01*
X96910169Y-114555480D01*
X96989097Y-114703145D01*
X97037701Y-114863370D01*
X97054112Y-115030000D01*
X97037701Y-115196630D01*
X96989097Y-115356855D01*
X96910169Y-115504520D01*
X96803949Y-115633949D01*
X96674520Y-115740169D01*
X96526855Y-115819097D01*
X96366630Y-115867701D01*
X96241752Y-115880000D01*
X96158248Y-115880000D01*
X96033370Y-115867701D01*
X95873145Y-115819097D01*
X95725480Y-115740169D01*
X95596051Y-115633949D01*
X95489831Y-115504520D01*
X95410903Y-115356855D01*
X95362299Y-115196630D01*
X95345888Y-115030000D01*
X95362299Y-114863370D01*
X95410903Y-114703145D01*
X95489831Y-114555480D01*
X95596051Y-114426051D01*
X95725480Y-114319831D01*
X95873145Y-114240903D01*
X96033370Y-114192299D01*
X96158248Y-114180000D01*
X96241752Y-114180000D01*
X96366630Y-114192299D01*
X96366630Y-114192299D01*
G37*
G36*
X106526630Y-114192299D02*
X106686855Y-114240903D01*
X106834520Y-114319831D01*
X106963949Y-114426051D01*
X107070169Y-114555480D01*
X107149097Y-114703145D01*
X107197701Y-114863370D01*
X107214112Y-115030000D01*
X107197701Y-115196630D01*
X107149097Y-115356855D01*
X107070169Y-115504520D01*
X106963949Y-115633949D01*
X106834520Y-115740169D01*
X106686855Y-115819097D01*
X106526630Y-115867701D01*
X106401752Y-115880000D01*
X106318248Y-115880000D01*
X106193370Y-115867701D01*
X106033145Y-115819097D01*
X105885480Y-115740169D01*
X105756051Y-115633949D01*
X105649831Y-115504520D01*
X105570903Y-115356855D01*
X105522299Y-115196630D01*
X105505888Y-115030000D01*
X105522299Y-114863370D01*
X105570903Y-114703145D01*
X105649831Y-114555480D01*
X105756051Y-114426051D01*
X105885480Y-114319831D01*
X106033145Y-114240903D01*
X106193370Y-114192299D01*
X106318248Y-114180000D01*
X106401752Y-114180000D01*
X106526630Y-114192299D01*
X106526630Y-114192299D01*
G37*
G36*
X83666630Y-114192299D02*
X83826855Y-114240903D01*
X83974520Y-114319831D01*
X84103949Y-114426051D01*
X84210169Y-114555480D01*
X84289097Y-114703145D01*
X84337701Y-114863370D01*
X84354112Y-115030000D01*
X84337701Y-115196630D01*
X84289097Y-115356855D01*
X84210169Y-115504520D01*
X84103949Y-115633949D01*
X83974520Y-115740169D01*
X83826855Y-115819097D01*
X83666630Y-115867701D01*
X83541752Y-115880000D01*
X83458248Y-115880000D01*
X83333370Y-115867701D01*
X83173145Y-115819097D01*
X83025480Y-115740169D01*
X82896051Y-115633949D01*
X82789831Y-115504520D01*
X82710903Y-115356855D01*
X82662299Y-115196630D01*
X82645888Y-115030000D01*
X82662299Y-114863370D01*
X82710903Y-114703145D01*
X82789831Y-114555480D01*
X82896051Y-114426051D01*
X83025480Y-114319831D01*
X83173145Y-114240903D01*
X83333370Y-114192299D01*
X83458248Y-114180000D01*
X83541752Y-114180000D01*
X83666630Y-114192299D01*
X83666630Y-114192299D01*
G37*
G36*
X101446630Y-114192299D02*
X101606855Y-114240903D01*
X101754520Y-114319831D01*
X101883949Y-114426051D01*
X101990169Y-114555480D01*
X102069097Y-114703145D01*
X102117701Y-114863370D01*
X102134112Y-115030000D01*
X102117701Y-115196630D01*
X102069097Y-115356855D01*
X101990169Y-115504520D01*
X101883949Y-115633949D01*
X101754520Y-115740169D01*
X101606855Y-115819097D01*
X101446630Y-115867701D01*
X101321752Y-115880000D01*
X101238248Y-115880000D01*
X101113370Y-115867701D01*
X100953145Y-115819097D01*
X100805480Y-115740169D01*
X100676051Y-115633949D01*
X100569831Y-115504520D01*
X100490903Y-115356855D01*
X100442299Y-115196630D01*
X100425888Y-115030000D01*
X100442299Y-114863370D01*
X100490903Y-114703145D01*
X100569831Y-114555480D01*
X100676051Y-114426051D01*
X100805480Y-114319831D01*
X100953145Y-114240903D01*
X101113370Y-114192299D01*
X101238248Y-114180000D01*
X101321752Y-114180000D01*
X101446630Y-114192299D01*
X101446630Y-114192299D01*
G37*
G36*
X103986630Y-114192299D02*
X104146855Y-114240903D01*
X104294520Y-114319831D01*
X104423949Y-114426051D01*
X104530169Y-114555480D01*
X104609097Y-114703145D01*
X104657701Y-114863370D01*
X104674112Y-115030000D01*
X104657701Y-115196630D01*
X104609097Y-115356855D01*
X104530169Y-115504520D01*
X104423949Y-115633949D01*
X104294520Y-115740169D01*
X104146855Y-115819097D01*
X103986630Y-115867701D01*
X103861752Y-115880000D01*
X103778248Y-115880000D01*
X103653370Y-115867701D01*
X103493145Y-115819097D01*
X103345480Y-115740169D01*
X103216051Y-115633949D01*
X103109831Y-115504520D01*
X103030903Y-115356855D01*
X102982299Y-115196630D01*
X102965888Y-115030000D01*
X102982299Y-114863370D01*
X103030903Y-114703145D01*
X103109831Y-114555480D01*
X103216051Y-114426051D01*
X103345480Y-114319831D01*
X103493145Y-114240903D01*
X103653370Y-114192299D01*
X103778248Y-114180000D01*
X103861752Y-114180000D01*
X103986630Y-114192299D01*
X103986630Y-114192299D01*
G37*
G36*
X98906630Y-114192299D02*
X99066855Y-114240903D01*
X99214520Y-114319831D01*
X99343949Y-114426051D01*
X99450169Y-114555480D01*
X99529097Y-114703145D01*
X99577701Y-114863370D01*
X99594112Y-115030000D01*
X99577701Y-115196630D01*
X99529097Y-115356855D01*
X99450169Y-115504520D01*
X99343949Y-115633949D01*
X99214520Y-115740169D01*
X99066855Y-115819097D01*
X98906630Y-115867701D01*
X98781752Y-115880000D01*
X98698248Y-115880000D01*
X98573370Y-115867701D01*
X98413145Y-115819097D01*
X98265480Y-115740169D01*
X98136051Y-115633949D01*
X98029831Y-115504520D01*
X97950903Y-115356855D01*
X97902299Y-115196630D01*
X97885888Y-115030000D01*
X97902299Y-114863370D01*
X97950903Y-114703145D01*
X98029831Y-114555480D01*
X98136051Y-114426051D01*
X98265480Y-114319831D01*
X98413145Y-114240903D01*
X98573370Y-114192299D01*
X98698248Y-114180000D01*
X98781752Y-114180000D01*
X98906630Y-114192299D01*
X98906630Y-114192299D01*
G37*
G36*
X93826630Y-114192299D02*
X93986855Y-114240903D01*
X94134520Y-114319831D01*
X94263949Y-114426051D01*
X94370169Y-114555480D01*
X94449097Y-114703145D01*
X94497701Y-114863370D01*
X94514112Y-115030000D01*
X94497701Y-115196630D01*
X94449097Y-115356855D01*
X94370169Y-115504520D01*
X94263949Y-115633949D01*
X94134520Y-115740169D01*
X93986855Y-115819097D01*
X93826630Y-115867701D01*
X93701752Y-115880000D01*
X93618248Y-115880000D01*
X93493370Y-115867701D01*
X93333145Y-115819097D01*
X93185480Y-115740169D01*
X93056051Y-115633949D01*
X92949831Y-115504520D01*
X92870903Y-115356855D01*
X92822299Y-115196630D01*
X92805888Y-115030000D01*
X92822299Y-114863370D01*
X92870903Y-114703145D01*
X92949831Y-114555480D01*
X93056051Y-114426051D01*
X93185480Y-114319831D01*
X93333145Y-114240903D01*
X93493370Y-114192299D01*
X93618248Y-114180000D01*
X93701752Y-114180000D01*
X93826630Y-114192299D01*
X93826630Y-114192299D01*
G37*
G36*
X86206630Y-114192299D02*
X86366855Y-114240903D01*
X86514520Y-114319831D01*
X86643949Y-114426051D01*
X86750169Y-114555480D01*
X86829097Y-114703145D01*
X86877701Y-114863370D01*
X86894112Y-115030000D01*
X86877701Y-115196630D01*
X86829097Y-115356855D01*
X86750169Y-115504520D01*
X86643949Y-115633949D01*
X86514520Y-115740169D01*
X86366855Y-115819097D01*
X86206630Y-115867701D01*
X86081752Y-115880000D01*
X85998248Y-115880000D01*
X85873370Y-115867701D01*
X85713145Y-115819097D01*
X85565480Y-115740169D01*
X85436051Y-115633949D01*
X85329831Y-115504520D01*
X85250903Y-115356855D01*
X85202299Y-115196630D01*
X85185888Y-115030000D01*
X85202299Y-114863370D01*
X85250903Y-114703145D01*
X85329831Y-114555480D01*
X85436051Y-114426051D01*
X85565480Y-114319831D01*
X85713145Y-114240903D01*
X85873370Y-114192299D01*
X85998248Y-114180000D01*
X86081752Y-114180000D01*
X86206630Y-114192299D01*
X86206630Y-114192299D01*
G37*
G36*
X91286630Y-114192299D02*
X91446855Y-114240903D01*
X91594520Y-114319831D01*
X91723949Y-114426051D01*
X91830169Y-114555480D01*
X91909097Y-114703145D01*
X91957701Y-114863370D01*
X91974112Y-115030000D01*
X91957701Y-115196630D01*
X91909097Y-115356855D01*
X91830169Y-115504520D01*
X91723949Y-115633949D01*
X91594520Y-115740169D01*
X91446855Y-115819097D01*
X91286630Y-115867701D01*
X91161752Y-115880000D01*
X91078248Y-115880000D01*
X90953370Y-115867701D01*
X90793145Y-115819097D01*
X90645480Y-115740169D01*
X90516051Y-115633949D01*
X90409831Y-115504520D01*
X90330903Y-115356855D01*
X90282299Y-115196630D01*
X90265888Y-115030000D01*
X90282299Y-114863370D01*
X90330903Y-114703145D01*
X90409831Y-114555480D01*
X90516051Y-114426051D01*
X90645480Y-114319831D01*
X90793145Y-114240903D01*
X90953370Y-114192299D01*
X91078248Y-114180000D01*
X91161752Y-114180000D01*
X91286630Y-114192299D01*
X91286630Y-114192299D01*
G37*
G36*
X88746630Y-114192299D02*
X88906855Y-114240903D01*
X89054520Y-114319831D01*
X89183949Y-114426051D01*
X89290169Y-114555480D01*
X89369097Y-114703145D01*
X89417701Y-114863370D01*
X89434112Y-115030000D01*
X89417701Y-115196630D01*
X89369097Y-115356855D01*
X89290169Y-115504520D01*
X89183949Y-115633949D01*
X89054520Y-115740169D01*
X88906855Y-115819097D01*
X88746630Y-115867701D01*
X88621752Y-115880000D01*
X88538248Y-115880000D01*
X88413370Y-115867701D01*
X88253145Y-115819097D01*
X88105480Y-115740169D01*
X87976051Y-115633949D01*
X87869831Y-115504520D01*
X87790903Y-115356855D01*
X87742299Y-115196630D01*
X87725888Y-115030000D01*
X87742299Y-114863370D01*
X87790903Y-114703145D01*
X87869831Y-114555480D01*
X87976051Y-114426051D01*
X88105480Y-114319831D01*
X88253145Y-114240903D01*
X88413370Y-114192299D01*
X88538248Y-114180000D01*
X88621752Y-114180000D01*
X88746630Y-114192299D01*
X88746630Y-114192299D01*
G37*
G36*
X98906630Y-111652299D02*
X99066855Y-111700903D01*
X99214520Y-111779831D01*
X99343949Y-111886051D01*
X99450169Y-112015480D01*
X99529097Y-112163145D01*
X99577701Y-112323370D01*
X99594112Y-112490000D01*
X99577701Y-112656630D01*
X99529097Y-112816855D01*
X99450169Y-112964520D01*
X99343949Y-113093949D01*
X99214520Y-113200169D01*
X99066855Y-113279097D01*
X98906630Y-113327701D01*
X98781752Y-113340000D01*
X98698248Y-113340000D01*
X98573370Y-113327701D01*
X98413145Y-113279097D01*
X98265480Y-113200169D01*
X98136051Y-113093949D01*
X98029831Y-112964520D01*
X97950903Y-112816855D01*
X97902299Y-112656630D01*
X97885888Y-112490000D01*
X97902299Y-112323370D01*
X97950903Y-112163145D01*
X98029831Y-112015480D01*
X98136051Y-111886051D01*
X98265480Y-111779831D01*
X98413145Y-111700903D01*
X98573370Y-111652299D01*
X98698248Y-111640000D01*
X98781752Y-111640000D01*
X98906630Y-111652299D01*
X98906630Y-111652299D01*
G37*
G36*
X91286630Y-111652299D02*
X91446855Y-111700903D01*
X91594520Y-111779831D01*
X91723949Y-111886051D01*
X91830169Y-112015480D01*
X91909097Y-112163145D01*
X91957701Y-112323370D01*
X91974112Y-112490000D01*
X91957701Y-112656630D01*
X91909097Y-112816855D01*
X91830169Y-112964520D01*
X91723949Y-113093949D01*
X91594520Y-113200169D01*
X91446855Y-113279097D01*
X91286630Y-113327701D01*
X91161752Y-113340000D01*
X91078248Y-113340000D01*
X90953370Y-113327701D01*
X90793145Y-113279097D01*
X90645480Y-113200169D01*
X90516051Y-113093949D01*
X90409831Y-112964520D01*
X90330903Y-112816855D01*
X90282299Y-112656630D01*
X90265888Y-112490000D01*
X90282299Y-112323370D01*
X90330903Y-112163145D01*
X90409831Y-112015480D01*
X90516051Y-111886051D01*
X90645480Y-111779831D01*
X90793145Y-111700903D01*
X90953370Y-111652299D01*
X91078248Y-111640000D01*
X91161752Y-111640000D01*
X91286630Y-111652299D01*
X91286630Y-111652299D01*
G37*
G36*
X88746630Y-111652299D02*
X88906855Y-111700903D01*
X89054520Y-111779831D01*
X89183949Y-111886051D01*
X89290169Y-112015480D01*
X89369097Y-112163145D01*
X89417701Y-112323370D01*
X89434112Y-112490000D01*
X89417701Y-112656630D01*
X89369097Y-112816855D01*
X89290169Y-112964520D01*
X89183949Y-113093949D01*
X89054520Y-113200169D01*
X88906855Y-113279097D01*
X88746630Y-113327701D01*
X88621752Y-113340000D01*
X88538248Y-113340000D01*
X88413370Y-113327701D01*
X88253145Y-113279097D01*
X88105480Y-113200169D01*
X87976051Y-113093949D01*
X87869831Y-112964520D01*
X87790903Y-112816855D01*
X87742299Y-112656630D01*
X87725888Y-112490000D01*
X87742299Y-112323370D01*
X87790903Y-112163145D01*
X87869831Y-112015480D01*
X87976051Y-111886051D01*
X88105480Y-111779831D01*
X88253145Y-111700903D01*
X88413370Y-111652299D01*
X88538248Y-111640000D01*
X88621752Y-111640000D01*
X88746630Y-111652299D01*
X88746630Y-111652299D01*
G37*
G36*
X93826630Y-111652299D02*
X93986855Y-111700903D01*
X94134520Y-111779831D01*
X94263949Y-111886051D01*
X94370169Y-112015480D01*
X94449097Y-112163145D01*
X94497701Y-112323370D01*
X94514112Y-112490000D01*
X94497701Y-112656630D01*
X94449097Y-112816855D01*
X94370169Y-112964520D01*
X94263949Y-113093949D01*
X94134520Y-113200169D01*
X93986855Y-113279097D01*
X93826630Y-113327701D01*
X93701752Y-113340000D01*
X93618248Y-113340000D01*
X93493370Y-113327701D01*
X93333145Y-113279097D01*
X93185480Y-113200169D01*
X93056051Y-113093949D01*
X92949831Y-112964520D01*
X92870903Y-112816855D01*
X92822299Y-112656630D01*
X92805888Y-112490000D01*
X92822299Y-112323370D01*
X92870903Y-112163145D01*
X92949831Y-112015480D01*
X93056051Y-111886051D01*
X93185480Y-111779831D01*
X93333145Y-111700903D01*
X93493370Y-111652299D01*
X93618248Y-111640000D01*
X93701752Y-111640000D01*
X93826630Y-111652299D01*
X93826630Y-111652299D01*
G37*
G36*
X83666630Y-111652299D02*
X83826855Y-111700903D01*
X83974520Y-111779831D01*
X84103949Y-111886051D01*
X84210169Y-112015480D01*
X84289097Y-112163145D01*
X84337701Y-112323370D01*
X84354112Y-112490000D01*
X84337701Y-112656630D01*
X84289097Y-112816855D01*
X84210169Y-112964520D01*
X84103949Y-113093949D01*
X83974520Y-113200169D01*
X83826855Y-113279097D01*
X83666630Y-113327701D01*
X83541752Y-113340000D01*
X83458248Y-113340000D01*
X83333370Y-113327701D01*
X83173145Y-113279097D01*
X83025480Y-113200169D01*
X82896051Y-113093949D01*
X82789831Y-112964520D01*
X82710903Y-112816855D01*
X82662299Y-112656630D01*
X82645888Y-112490000D01*
X82662299Y-112323370D01*
X82710903Y-112163145D01*
X82789831Y-112015480D01*
X82896051Y-111886051D01*
X83025480Y-111779831D01*
X83173145Y-111700903D01*
X83333370Y-111652299D01*
X83458248Y-111640000D01*
X83541752Y-111640000D01*
X83666630Y-111652299D01*
X83666630Y-111652299D01*
G37*
G36*
X107210000Y-113340000D02*
X105510000Y-113340000D01*
X105510000Y-111640000D01*
X107210000Y-111640000D01*
X107210000Y-113340000D01*
X107210000Y-113340000D01*
G37*
G36*
X96366630Y-111652299D02*
X96526855Y-111700903D01*
X96674520Y-111779831D01*
X96803949Y-111886051D01*
X96910169Y-112015480D01*
X96989097Y-112163145D01*
X97037701Y-112323370D01*
X97054112Y-112490000D01*
X97037701Y-112656630D01*
X96989097Y-112816855D01*
X96910169Y-112964520D01*
X96803949Y-113093949D01*
X96674520Y-113200169D01*
X96526855Y-113279097D01*
X96366630Y-113327701D01*
X96241752Y-113340000D01*
X96158248Y-113340000D01*
X96033370Y-113327701D01*
X95873145Y-113279097D01*
X95725480Y-113200169D01*
X95596051Y-113093949D01*
X95489831Y-112964520D01*
X95410903Y-112816855D01*
X95362299Y-112656630D01*
X95345888Y-112490000D01*
X95362299Y-112323370D01*
X95410903Y-112163145D01*
X95489831Y-112015480D01*
X95596051Y-111886051D01*
X95725480Y-111779831D01*
X95873145Y-111700903D01*
X96033370Y-111652299D01*
X96158248Y-111640000D01*
X96241752Y-111640000D01*
X96366630Y-111652299D01*
X96366630Y-111652299D01*
G37*
G36*
X103986630Y-111652299D02*
X104146855Y-111700903D01*
X104294520Y-111779831D01*
X104423949Y-111886051D01*
X104530169Y-112015480D01*
X104609097Y-112163145D01*
X104657701Y-112323370D01*
X104674112Y-112490000D01*
X104657701Y-112656630D01*
X104609097Y-112816855D01*
X104530169Y-112964520D01*
X104423949Y-113093949D01*
X104294520Y-113200169D01*
X104146855Y-113279097D01*
X103986630Y-113327701D01*
X103861752Y-113340000D01*
X103778248Y-113340000D01*
X103653370Y-113327701D01*
X103493145Y-113279097D01*
X103345480Y-113200169D01*
X103216051Y-113093949D01*
X103109831Y-112964520D01*
X103030903Y-112816855D01*
X102982299Y-112656630D01*
X102965888Y-112490000D01*
X102982299Y-112323370D01*
X103030903Y-112163145D01*
X103109831Y-112015480D01*
X103216051Y-111886051D01*
X103345480Y-111779831D01*
X103493145Y-111700903D01*
X103653370Y-111652299D01*
X103778248Y-111640000D01*
X103861752Y-111640000D01*
X103986630Y-111652299D01*
X103986630Y-111652299D01*
G37*
G36*
X86206630Y-111652299D02*
X86366855Y-111700903D01*
X86514520Y-111779831D01*
X86643949Y-111886051D01*
X86750169Y-112015480D01*
X86829097Y-112163145D01*
X86877701Y-112323370D01*
X86894112Y-112490000D01*
X86877701Y-112656630D01*
X86829097Y-112816855D01*
X86750169Y-112964520D01*
X86643949Y-113093949D01*
X86514520Y-113200169D01*
X86366855Y-113279097D01*
X86206630Y-113327701D01*
X86081752Y-113340000D01*
X85998248Y-113340000D01*
X85873370Y-113327701D01*
X85713145Y-113279097D01*
X85565480Y-113200169D01*
X85436051Y-113093949D01*
X85329831Y-112964520D01*
X85250903Y-112816855D01*
X85202299Y-112656630D01*
X85185888Y-112490000D01*
X85202299Y-112323370D01*
X85250903Y-112163145D01*
X85329831Y-112015480D01*
X85436051Y-111886051D01*
X85565480Y-111779831D01*
X85713145Y-111700903D01*
X85873370Y-111652299D01*
X85998248Y-111640000D01*
X86081752Y-111640000D01*
X86206630Y-111652299D01*
X86206630Y-111652299D01*
G37*
G36*
X101446630Y-111652299D02*
X101606855Y-111700903D01*
X101754520Y-111779831D01*
X101883949Y-111886051D01*
X101990169Y-112015480D01*
X102069097Y-112163145D01*
X102117701Y-112323370D01*
X102134112Y-112490000D01*
X102117701Y-112656630D01*
X102069097Y-112816855D01*
X101990169Y-112964520D01*
X101883949Y-113093949D01*
X101754520Y-113200169D01*
X101606855Y-113279097D01*
X101446630Y-113327701D01*
X101321752Y-113340000D01*
X101238248Y-113340000D01*
X101113370Y-113327701D01*
X100953145Y-113279097D01*
X100805480Y-113200169D01*
X100676051Y-113093949D01*
X100569831Y-112964520D01*
X100490903Y-112816855D01*
X100442299Y-112656630D01*
X100425888Y-112490000D01*
X100442299Y-112323370D01*
X100490903Y-112163145D01*
X100569831Y-112015480D01*
X100676051Y-111886051D01*
X100805480Y-111779831D01*
X100953145Y-111700903D01*
X101113370Y-111652299D01*
X101238248Y-111640000D01*
X101321752Y-111640000D01*
X101446630Y-111652299D01*
X101446630Y-111652299D01*
G37*
G36*
X74000935Y-107428429D02*
X74097534Y-107447644D01*
X74370517Y-107560717D01*
X74612920Y-107722687D01*
X74616197Y-107724876D01*
X74825124Y-107933803D01*
X74989284Y-108179485D01*
X75102356Y-108452467D01*
X75160000Y-108742261D01*
X75160000Y-109037739D01*
X75102356Y-109327533D01*
X74989284Y-109600515D01*
X74825124Y-109846197D01*
X74616197Y-110055124D01*
X74616194Y-110055126D01*
X74370517Y-110219283D01*
X74097534Y-110332356D01*
X74000935Y-110351571D01*
X73807739Y-110390000D01*
X73512261Y-110390000D01*
X73319065Y-110351571D01*
X73222466Y-110332356D01*
X72949483Y-110219283D01*
X72703806Y-110055126D01*
X72703803Y-110055124D01*
X72494876Y-109846197D01*
X72330716Y-109600515D01*
X72217644Y-109327533D01*
X72160000Y-109037739D01*
X72160000Y-108742261D01*
X72217644Y-108452467D01*
X72330716Y-108179485D01*
X72494876Y-107933803D01*
X72703803Y-107724876D01*
X72707080Y-107722687D01*
X72949483Y-107560717D01*
X73222466Y-107447644D01*
X73319065Y-107428429D01*
X73512261Y-107390000D01*
X73807739Y-107390000D01*
X74000935Y-107428429D01*
X74000935Y-107428429D01*
G37*
G36*
X67650935Y-107428429D02*
X67747534Y-107447644D01*
X68020517Y-107560717D01*
X68262920Y-107722687D01*
X68266197Y-107724876D01*
X68475124Y-107933803D01*
X68639284Y-108179485D01*
X68752356Y-108452467D01*
X68810000Y-108742261D01*
X68810000Y-109037739D01*
X68752356Y-109327533D01*
X68639284Y-109600515D01*
X68475124Y-109846197D01*
X68266197Y-110055124D01*
X68266194Y-110055126D01*
X68020517Y-110219283D01*
X67747534Y-110332356D01*
X67650935Y-110351571D01*
X67457739Y-110390000D01*
X67162261Y-110390000D01*
X66969065Y-110351571D01*
X66872466Y-110332356D01*
X66599483Y-110219283D01*
X66353806Y-110055126D01*
X66353803Y-110055124D01*
X66144876Y-109846197D01*
X65980716Y-109600515D01*
X65867644Y-109327533D01*
X65810000Y-109037739D01*
X65810000Y-108742261D01*
X65867644Y-108452467D01*
X65980716Y-108179485D01*
X66144876Y-107933803D01*
X66353803Y-107724876D01*
X66357080Y-107722687D01*
X66599483Y-107560717D01*
X66872466Y-107447644D01*
X66969065Y-107428429D01*
X67162261Y-107390000D01*
X67457739Y-107390000D01*
X67650935Y-107428429D01*
X67650935Y-107428429D01*
G37*
G36*
X61300935Y-107428429D02*
X61397534Y-107447644D01*
X61670517Y-107560717D01*
X61912920Y-107722687D01*
X61916197Y-107724876D01*
X62125124Y-107933803D01*
X62289284Y-108179485D01*
X62402356Y-108452467D01*
X62460000Y-108742261D01*
X62460000Y-109037739D01*
X62402356Y-109327533D01*
X62289284Y-109600515D01*
X62125124Y-109846197D01*
X61916197Y-110055124D01*
X61916194Y-110055126D01*
X61670517Y-110219283D01*
X61397534Y-110332356D01*
X61300935Y-110351571D01*
X61107739Y-110390000D01*
X60812261Y-110390000D01*
X60619065Y-110351571D01*
X60522466Y-110332356D01*
X60249483Y-110219283D01*
X60003806Y-110055126D01*
X60003803Y-110055124D01*
X59794876Y-109846197D01*
X59630716Y-109600515D01*
X59517644Y-109327533D01*
X59460000Y-109037739D01*
X59460000Y-108742261D01*
X59517644Y-108452467D01*
X59630716Y-108179485D01*
X59794876Y-107933803D01*
X60003803Y-107724876D01*
X60007080Y-107722687D01*
X60249483Y-107560717D01*
X60522466Y-107447644D01*
X60619065Y-107428429D01*
X60812261Y-107390000D01*
X61107739Y-107390000D01*
X61300935Y-107428429D01*
X61300935Y-107428429D01*
G37*
G36*
X74000935Y-101358429D02*
X74097534Y-101377644D01*
X74370517Y-101490717D01*
X74612920Y-101652687D01*
X74616197Y-101654876D01*
X74825124Y-101863803D01*
X74989284Y-102109485D01*
X75102356Y-102382467D01*
X75160000Y-102672261D01*
X75160000Y-102967739D01*
X75102356Y-103257533D01*
X74989284Y-103530515D01*
X74825124Y-103776197D01*
X74616197Y-103985124D01*
X74616194Y-103985126D01*
X74370517Y-104149283D01*
X74097534Y-104262356D01*
X74000935Y-104281571D01*
X73807739Y-104320000D01*
X73512261Y-104320000D01*
X73319065Y-104281571D01*
X73222466Y-104262356D01*
X72949483Y-104149283D01*
X72703806Y-103985126D01*
X72703803Y-103985124D01*
X72494876Y-103776197D01*
X72330716Y-103530515D01*
X72217644Y-103257533D01*
X72160000Y-102967739D01*
X72160000Y-102672261D01*
X72217644Y-102382467D01*
X72330716Y-102109485D01*
X72494876Y-101863803D01*
X72703803Y-101654876D01*
X72707080Y-101652687D01*
X72949483Y-101490717D01*
X73222466Y-101377644D01*
X73319065Y-101358429D01*
X73512261Y-101320000D01*
X73807739Y-101320000D01*
X74000935Y-101358429D01*
X74000935Y-101358429D01*
G37*
G36*
X67650935Y-101358429D02*
X67747534Y-101377644D01*
X68020517Y-101490717D01*
X68262920Y-101652687D01*
X68266197Y-101654876D01*
X68475124Y-101863803D01*
X68639284Y-102109485D01*
X68752356Y-102382467D01*
X68810000Y-102672261D01*
X68810000Y-102967739D01*
X68752356Y-103257533D01*
X68639284Y-103530515D01*
X68475124Y-103776197D01*
X68266197Y-103985124D01*
X68266194Y-103985126D01*
X68020517Y-104149283D01*
X67747534Y-104262356D01*
X67650935Y-104281571D01*
X67457739Y-104320000D01*
X67162261Y-104320000D01*
X66969065Y-104281571D01*
X66872466Y-104262356D01*
X66599483Y-104149283D01*
X66353806Y-103985126D01*
X66353803Y-103985124D01*
X66144876Y-103776197D01*
X65980716Y-103530515D01*
X65867644Y-103257533D01*
X65810000Y-102967739D01*
X65810000Y-102672261D01*
X65867644Y-102382467D01*
X65980716Y-102109485D01*
X66144876Y-101863803D01*
X66353803Y-101654876D01*
X66357080Y-101652687D01*
X66599483Y-101490717D01*
X66872466Y-101377644D01*
X66969065Y-101358429D01*
X67162261Y-101320000D01*
X67457739Y-101320000D01*
X67650935Y-101358429D01*
X67650935Y-101358429D01*
G37*
G36*
X61300935Y-101358429D02*
X61397534Y-101377644D01*
X61670517Y-101490717D01*
X61912920Y-101652687D01*
X61916197Y-101654876D01*
X62125124Y-101863803D01*
X62289284Y-102109485D01*
X62402356Y-102382467D01*
X62460000Y-102672261D01*
X62460000Y-102967739D01*
X62402356Y-103257533D01*
X62289284Y-103530515D01*
X62125124Y-103776197D01*
X61916197Y-103985124D01*
X61916194Y-103985126D01*
X61670517Y-104149283D01*
X61397534Y-104262356D01*
X61300935Y-104281571D01*
X61107739Y-104320000D01*
X60812261Y-104320000D01*
X60619065Y-104281571D01*
X60522466Y-104262356D01*
X60249483Y-104149283D01*
X60003806Y-103985126D01*
X60003803Y-103985124D01*
X59794876Y-103776197D01*
X59630716Y-103530515D01*
X59517644Y-103257533D01*
X59460000Y-102967739D01*
X59460000Y-102672261D01*
X59517644Y-102382467D01*
X59630716Y-102109485D01*
X59794876Y-101863803D01*
X60003803Y-101654876D01*
X60007080Y-101652687D01*
X60249483Y-101490717D01*
X60522466Y-101377644D01*
X60619065Y-101358429D01*
X60812261Y-101320000D01*
X61107739Y-101320000D01*
X61300935Y-101358429D01*
X61300935Y-101358429D01*
G37*
G36*
X61300935Y-89928429D02*
X61397534Y-89947644D01*
X61670517Y-90060717D01*
X61912920Y-90222687D01*
X61916197Y-90224876D01*
X62125124Y-90433803D01*
X62289284Y-90679485D01*
X62402356Y-90952467D01*
X62460000Y-91242261D01*
X62460000Y-91537739D01*
X62402356Y-91827533D01*
X62289284Y-92100515D01*
X62125124Y-92346197D01*
X61916197Y-92555124D01*
X61916194Y-92555126D01*
X61670517Y-92719283D01*
X61397534Y-92832356D01*
X61300935Y-92851571D01*
X61107739Y-92890000D01*
X60812261Y-92890000D01*
X60619065Y-92851571D01*
X60522466Y-92832356D01*
X60249483Y-92719283D01*
X60003806Y-92555126D01*
X60003803Y-92555124D01*
X59794876Y-92346197D01*
X59630716Y-92100515D01*
X59517644Y-91827533D01*
X59460000Y-91537739D01*
X59460000Y-91242261D01*
X59517644Y-90952467D01*
X59630716Y-90679485D01*
X59794876Y-90433803D01*
X60003803Y-90224876D01*
X60007080Y-90222687D01*
X60249483Y-90060717D01*
X60522466Y-89947644D01*
X60619065Y-89928429D01*
X60812261Y-89890000D01*
X61107739Y-89890000D01*
X61300935Y-89928429D01*
X61300935Y-89928429D01*
G37*
G36*
X67650935Y-89928429D02*
X67747534Y-89947644D01*
X68020517Y-90060717D01*
X68262920Y-90222687D01*
X68266197Y-90224876D01*
X68475124Y-90433803D01*
X68639284Y-90679485D01*
X68752356Y-90952467D01*
X68810000Y-91242261D01*
X68810000Y-91537739D01*
X68752356Y-91827533D01*
X68639284Y-92100515D01*
X68475124Y-92346197D01*
X68266197Y-92555124D01*
X68266194Y-92555126D01*
X68020517Y-92719283D01*
X67747534Y-92832356D01*
X67650935Y-92851571D01*
X67457739Y-92890000D01*
X67162261Y-92890000D01*
X66969065Y-92851571D01*
X66872466Y-92832356D01*
X66599483Y-92719283D01*
X66353806Y-92555126D01*
X66353803Y-92555124D01*
X66144876Y-92346197D01*
X65980716Y-92100515D01*
X65867644Y-91827533D01*
X65810000Y-91537739D01*
X65810000Y-91242261D01*
X65867644Y-90952467D01*
X65980716Y-90679485D01*
X66144876Y-90433803D01*
X66353803Y-90224876D01*
X66357080Y-90222687D01*
X66599483Y-90060717D01*
X66872466Y-89947644D01*
X66969065Y-89928429D01*
X67162261Y-89890000D01*
X67457739Y-89890000D01*
X67650935Y-89928429D01*
X67650935Y-89928429D01*
G37*
G36*
X74000935Y-89928429D02*
X74097534Y-89947644D01*
X74370517Y-90060717D01*
X74612920Y-90222687D01*
X74616197Y-90224876D01*
X74825124Y-90433803D01*
X74989284Y-90679485D01*
X75102356Y-90952467D01*
X75160000Y-91242261D01*
X75160000Y-91537739D01*
X75102356Y-91827533D01*
X74989284Y-92100515D01*
X74825124Y-92346197D01*
X74616197Y-92555124D01*
X74616194Y-92555126D01*
X74370517Y-92719283D01*
X74097534Y-92832356D01*
X74000935Y-92851571D01*
X73807739Y-92890000D01*
X73512261Y-92890000D01*
X73319065Y-92851571D01*
X73222466Y-92832356D01*
X72949483Y-92719283D01*
X72703806Y-92555126D01*
X72703803Y-92555124D01*
X72494876Y-92346197D01*
X72330716Y-92100515D01*
X72217644Y-91827533D01*
X72160000Y-91537739D01*
X72160000Y-91242261D01*
X72217644Y-90952467D01*
X72330716Y-90679485D01*
X72494876Y-90433803D01*
X72703803Y-90224876D01*
X72707080Y-90222687D01*
X72949483Y-90060717D01*
X73222466Y-89947644D01*
X73319065Y-89928429D01*
X73512261Y-89890000D01*
X73807739Y-89890000D01*
X74000935Y-89928429D01*
X74000935Y-89928429D01*
G37*
G36*
X74000935Y-83858429D02*
X74097534Y-83877644D01*
X74370517Y-83990717D01*
X74612920Y-84152687D01*
X74616197Y-84154876D01*
X74825124Y-84363803D01*
X74989284Y-84609485D01*
X75102356Y-84882467D01*
X75160000Y-85172261D01*
X75160000Y-85467739D01*
X75102356Y-85757533D01*
X74989284Y-86030515D01*
X74825124Y-86276197D01*
X74616197Y-86485124D01*
X74616194Y-86485126D01*
X74370517Y-86649283D01*
X74097534Y-86762356D01*
X74000935Y-86781571D01*
X73807739Y-86820000D01*
X73512261Y-86820000D01*
X73319065Y-86781571D01*
X73222466Y-86762356D01*
X72949483Y-86649283D01*
X72703806Y-86485126D01*
X72703803Y-86485124D01*
X72494876Y-86276197D01*
X72330716Y-86030515D01*
X72217644Y-85757533D01*
X72160000Y-85467739D01*
X72160000Y-85172261D01*
X72217644Y-84882467D01*
X72330716Y-84609485D01*
X72494876Y-84363803D01*
X72703803Y-84154876D01*
X72707080Y-84152687D01*
X72949483Y-83990717D01*
X73222466Y-83877644D01*
X73319065Y-83858429D01*
X73512261Y-83820000D01*
X73807739Y-83820000D01*
X74000935Y-83858429D01*
X74000935Y-83858429D01*
G37*
G36*
X67650935Y-83858429D02*
X67747534Y-83877644D01*
X68020517Y-83990717D01*
X68262920Y-84152687D01*
X68266197Y-84154876D01*
X68475124Y-84363803D01*
X68639284Y-84609485D01*
X68752356Y-84882467D01*
X68810000Y-85172261D01*
X68810000Y-85467739D01*
X68752356Y-85757533D01*
X68639284Y-86030515D01*
X68475124Y-86276197D01*
X68266197Y-86485124D01*
X68266194Y-86485126D01*
X68020517Y-86649283D01*
X67747534Y-86762356D01*
X67650935Y-86781571D01*
X67457739Y-86820000D01*
X67162261Y-86820000D01*
X66969065Y-86781571D01*
X66872466Y-86762356D01*
X66599483Y-86649283D01*
X66353806Y-86485126D01*
X66353803Y-86485124D01*
X66144876Y-86276197D01*
X65980716Y-86030515D01*
X65867644Y-85757533D01*
X65810000Y-85467739D01*
X65810000Y-85172261D01*
X65867644Y-84882467D01*
X65980716Y-84609485D01*
X66144876Y-84363803D01*
X66353803Y-84154876D01*
X66357080Y-84152687D01*
X66599483Y-83990717D01*
X66872466Y-83877644D01*
X66969065Y-83858429D01*
X67162261Y-83820000D01*
X67457739Y-83820000D01*
X67650935Y-83858429D01*
X67650935Y-83858429D01*
G37*
G36*
X61300935Y-83858429D02*
X61397534Y-83877644D01*
X61670517Y-83990717D01*
X61912920Y-84152687D01*
X61916197Y-84154876D01*
X62125124Y-84363803D01*
X62289284Y-84609485D01*
X62402356Y-84882467D01*
X62460000Y-85172261D01*
X62460000Y-85467739D01*
X62402356Y-85757533D01*
X62289284Y-86030515D01*
X62125124Y-86276197D01*
X61916197Y-86485124D01*
X61916194Y-86485126D01*
X61670517Y-86649283D01*
X61397534Y-86762356D01*
X61300935Y-86781571D01*
X61107739Y-86820000D01*
X60812261Y-86820000D01*
X60619065Y-86781571D01*
X60522466Y-86762356D01*
X60249483Y-86649283D01*
X60003806Y-86485126D01*
X60003803Y-86485124D01*
X59794876Y-86276197D01*
X59630716Y-86030515D01*
X59517644Y-85757533D01*
X59460000Y-85467739D01*
X59460000Y-85172261D01*
X59517644Y-84882467D01*
X59630716Y-84609485D01*
X59794876Y-84363803D01*
X60003803Y-84154876D01*
X60007080Y-84152687D01*
X60249483Y-83990717D01*
X60522466Y-83877644D01*
X60619065Y-83858429D01*
X60812261Y-83820000D01*
X61107739Y-83820000D01*
X61300935Y-83858429D01*
X61300935Y-83858429D01*
G37*
G36*
X74000935Y-72428429D02*
X74097534Y-72447644D01*
X74370517Y-72560717D01*
X74612920Y-72722687D01*
X74616197Y-72724876D01*
X74825124Y-72933803D01*
X74989284Y-73179485D01*
X75102356Y-73452467D01*
X75160000Y-73742261D01*
X75160000Y-74037739D01*
X75102356Y-74327533D01*
X74989284Y-74600515D01*
X74825124Y-74846197D01*
X74616197Y-75055124D01*
X74616194Y-75055126D01*
X74370517Y-75219283D01*
X74097534Y-75332356D01*
X74000935Y-75351571D01*
X73807739Y-75390000D01*
X73512261Y-75390000D01*
X73319065Y-75351571D01*
X73222466Y-75332356D01*
X72949483Y-75219283D01*
X72703806Y-75055126D01*
X72703803Y-75055124D01*
X72494876Y-74846197D01*
X72330716Y-74600515D01*
X72217644Y-74327533D01*
X72160000Y-74037739D01*
X72160000Y-73742261D01*
X72217644Y-73452467D01*
X72330716Y-73179485D01*
X72494876Y-72933803D01*
X72703803Y-72724876D01*
X72707080Y-72722687D01*
X72949483Y-72560717D01*
X73222466Y-72447644D01*
X73319065Y-72428429D01*
X73512261Y-72390000D01*
X73807739Y-72390000D01*
X74000935Y-72428429D01*
X74000935Y-72428429D01*
G37*
G36*
X61300935Y-72428429D02*
X61397534Y-72447644D01*
X61670517Y-72560717D01*
X61912920Y-72722687D01*
X61916197Y-72724876D01*
X62125124Y-72933803D01*
X62289284Y-73179485D01*
X62402356Y-73452467D01*
X62460000Y-73742261D01*
X62460000Y-74037739D01*
X62402356Y-74327533D01*
X62289284Y-74600515D01*
X62125124Y-74846197D01*
X61916197Y-75055124D01*
X61916194Y-75055126D01*
X61670517Y-75219283D01*
X61397534Y-75332356D01*
X61300935Y-75351571D01*
X61107739Y-75390000D01*
X60812261Y-75390000D01*
X60619065Y-75351571D01*
X60522466Y-75332356D01*
X60249483Y-75219283D01*
X60003806Y-75055126D01*
X60003803Y-75055124D01*
X59794876Y-74846197D01*
X59630716Y-74600515D01*
X59517644Y-74327533D01*
X59460000Y-74037739D01*
X59460000Y-73742261D01*
X59517644Y-73452467D01*
X59630716Y-73179485D01*
X59794876Y-72933803D01*
X60003803Y-72724876D01*
X60007080Y-72722687D01*
X60249483Y-72560717D01*
X60522466Y-72447644D01*
X60619065Y-72428429D01*
X60812261Y-72390000D01*
X61107739Y-72390000D01*
X61300935Y-72428429D01*
X61300935Y-72428429D01*
G37*
G36*
X67650935Y-72428429D02*
X67747534Y-72447644D01*
X68020517Y-72560717D01*
X68262920Y-72722687D01*
X68266197Y-72724876D01*
X68475124Y-72933803D01*
X68639284Y-73179485D01*
X68752356Y-73452467D01*
X68810000Y-73742261D01*
X68810000Y-74037739D01*
X68752356Y-74327533D01*
X68639284Y-74600515D01*
X68475124Y-74846197D01*
X68266197Y-75055124D01*
X68266194Y-75055126D01*
X68020517Y-75219283D01*
X67747534Y-75332356D01*
X67650935Y-75351571D01*
X67457739Y-75390000D01*
X67162261Y-75390000D01*
X66969065Y-75351571D01*
X66872466Y-75332356D01*
X66599483Y-75219283D01*
X66353806Y-75055126D01*
X66353803Y-75055124D01*
X66144876Y-74846197D01*
X65980716Y-74600515D01*
X65867644Y-74327533D01*
X65810000Y-74037739D01*
X65810000Y-73742261D01*
X65867644Y-73452467D01*
X65980716Y-73179485D01*
X66144876Y-72933803D01*
X66353803Y-72724876D01*
X66357080Y-72722687D01*
X66599483Y-72560717D01*
X66872466Y-72447644D01*
X66969065Y-72428429D01*
X67162261Y-72390000D01*
X67457739Y-72390000D01*
X67650935Y-72428429D01*
X67650935Y-72428429D01*
G37*
G36*
X74000935Y-66358429D02*
X74097534Y-66377644D01*
X74370517Y-66490717D01*
X74612920Y-66652687D01*
X74616197Y-66654876D01*
X74825124Y-66863803D01*
X74989284Y-67109485D01*
X75102356Y-67382467D01*
X75160000Y-67672261D01*
X75160000Y-67967739D01*
X75102356Y-68257533D01*
X74989284Y-68530515D01*
X74825124Y-68776197D01*
X74616197Y-68985124D01*
X74616194Y-68985126D01*
X74370517Y-69149283D01*
X74097534Y-69262356D01*
X74000935Y-69281571D01*
X73807739Y-69320000D01*
X73512261Y-69320000D01*
X73319065Y-69281571D01*
X73222466Y-69262356D01*
X72949483Y-69149283D01*
X72703806Y-68985126D01*
X72703803Y-68985124D01*
X72494876Y-68776197D01*
X72330716Y-68530515D01*
X72217644Y-68257533D01*
X72160000Y-67967739D01*
X72160000Y-67672261D01*
X72217644Y-67382467D01*
X72330716Y-67109485D01*
X72494876Y-66863803D01*
X72703803Y-66654876D01*
X72707080Y-66652687D01*
X72949483Y-66490717D01*
X73222466Y-66377644D01*
X73319065Y-66358429D01*
X73512261Y-66320000D01*
X73807739Y-66320000D01*
X74000935Y-66358429D01*
X74000935Y-66358429D01*
G37*
G36*
X67650935Y-66358429D02*
X67747534Y-66377644D01*
X68020517Y-66490717D01*
X68262920Y-66652687D01*
X68266197Y-66654876D01*
X68475124Y-66863803D01*
X68639284Y-67109485D01*
X68752356Y-67382467D01*
X68810000Y-67672261D01*
X68810000Y-67967739D01*
X68752356Y-68257533D01*
X68639284Y-68530515D01*
X68475124Y-68776197D01*
X68266197Y-68985124D01*
X68266194Y-68985126D01*
X68020517Y-69149283D01*
X67747534Y-69262356D01*
X67650935Y-69281571D01*
X67457739Y-69320000D01*
X67162261Y-69320000D01*
X66969065Y-69281571D01*
X66872466Y-69262356D01*
X66599483Y-69149283D01*
X66353806Y-68985126D01*
X66353803Y-68985124D01*
X66144876Y-68776197D01*
X65980716Y-68530515D01*
X65867644Y-68257533D01*
X65810000Y-67967739D01*
X65810000Y-67672261D01*
X65867644Y-67382467D01*
X65980716Y-67109485D01*
X66144876Y-66863803D01*
X66353803Y-66654876D01*
X66357080Y-66652687D01*
X66599483Y-66490717D01*
X66872466Y-66377644D01*
X66969065Y-66358429D01*
X67162261Y-66320000D01*
X67457739Y-66320000D01*
X67650935Y-66358429D01*
X67650935Y-66358429D01*
G37*
G36*
X61300935Y-66358429D02*
X61397534Y-66377644D01*
X61670517Y-66490717D01*
X61912920Y-66652687D01*
X61916197Y-66654876D01*
X62125124Y-66863803D01*
X62289284Y-67109485D01*
X62402356Y-67382467D01*
X62460000Y-67672261D01*
X62460000Y-67967739D01*
X62402356Y-68257533D01*
X62289284Y-68530515D01*
X62125124Y-68776197D01*
X61916197Y-68985124D01*
X61916194Y-68985126D01*
X61670517Y-69149283D01*
X61397534Y-69262356D01*
X61300935Y-69281571D01*
X61107739Y-69320000D01*
X60812261Y-69320000D01*
X60619065Y-69281571D01*
X60522466Y-69262356D01*
X60249483Y-69149283D01*
X60003806Y-68985126D01*
X60003803Y-68985124D01*
X59794876Y-68776197D01*
X59630716Y-68530515D01*
X59517644Y-68257533D01*
X59460000Y-67967739D01*
X59460000Y-67672261D01*
X59517644Y-67382467D01*
X59630716Y-67109485D01*
X59794876Y-66863803D01*
X60003803Y-66654876D01*
X60007080Y-66652687D01*
X60249483Y-66490717D01*
X60522466Y-66377644D01*
X60619065Y-66358429D01*
X60812261Y-66320000D01*
X61107739Y-66320000D01*
X61300935Y-66358429D01*
X61300935Y-66358429D01*
G37*
G36*
X96433000Y-60873000D02*
X95083000Y-60873000D01*
X95083000Y-59523000D01*
X96433000Y-59523000D01*
X96433000Y-60873000D01*
X96433000Y-60873000D01*
G37*
G36*
X97890323Y-59532767D02*
X98017561Y-59571364D01*
X98134824Y-59634042D01*
X98237606Y-59718394D01*
X98321958Y-59821176D01*
X98384636Y-59938439D01*
X98423233Y-60065677D01*
X98436266Y-60198000D01*
X98423233Y-60330323D01*
X98384636Y-60457561D01*
X98321958Y-60574824D01*
X98237606Y-60677606D01*
X98134824Y-60761958D01*
X98017561Y-60824636D01*
X97890323Y-60863233D01*
X97791159Y-60873000D01*
X97724841Y-60873000D01*
X97625677Y-60863233D01*
X97498439Y-60824636D01*
X97381176Y-60761958D01*
X97278394Y-60677606D01*
X97194042Y-60574824D01*
X97131364Y-60457561D01*
X97092767Y-60330323D01*
X97079734Y-60198000D01*
X97092767Y-60065677D01*
X97131364Y-59938439D01*
X97194042Y-59821176D01*
X97278394Y-59718394D01*
X97381176Y-59634042D01*
X97498439Y-59571364D01*
X97625677Y-59532767D01*
X97724841Y-59523000D01*
X97791159Y-59523000D01*
X97890323Y-59532767D01*
X97890323Y-59532767D01*
G37*
G36*
X99890323Y-59532767D02*
X100017561Y-59571364D01*
X100134824Y-59634042D01*
X100237606Y-59718394D01*
X100321958Y-59821176D01*
X100384636Y-59938439D01*
X100423233Y-60065677D01*
X100436266Y-60198000D01*
X100423233Y-60330323D01*
X100384636Y-60457561D01*
X100321958Y-60574824D01*
X100237606Y-60677606D01*
X100134824Y-60761958D01*
X100017561Y-60824636D01*
X99890323Y-60863233D01*
X99791159Y-60873000D01*
X99724841Y-60873000D01*
X99625677Y-60863233D01*
X99498439Y-60824636D01*
X99381176Y-60761958D01*
X99278394Y-60677606D01*
X99194042Y-60574824D01*
X99131364Y-60457561D01*
X99092767Y-60330323D01*
X99079734Y-60198000D01*
X99092767Y-60065677D01*
X99131364Y-59938439D01*
X99194042Y-59821176D01*
X99278394Y-59718394D01*
X99381176Y-59634042D01*
X99498439Y-59571364D01*
X99625677Y-59532767D01*
X99724841Y-59523000D01*
X99791159Y-59523000D01*
X99890323Y-59532767D01*
X99890323Y-59532767D01*
G37*
G36*
X101890323Y-59532767D02*
X102017561Y-59571364D01*
X102134824Y-59634042D01*
X102237606Y-59718394D01*
X102321958Y-59821176D01*
X102384636Y-59938439D01*
X102423233Y-60065677D01*
X102436266Y-60198000D01*
X102423233Y-60330323D01*
X102384636Y-60457561D01*
X102321958Y-60574824D01*
X102237606Y-60677606D01*
X102134824Y-60761958D01*
X102017561Y-60824636D01*
X101890323Y-60863233D01*
X101791159Y-60873000D01*
X101724841Y-60873000D01*
X101625677Y-60863233D01*
X101498439Y-60824636D01*
X101381176Y-60761958D01*
X101278394Y-60677606D01*
X101194042Y-60574824D01*
X101131364Y-60457561D01*
X101092767Y-60330323D01*
X101079734Y-60198000D01*
X101092767Y-60065677D01*
X101131364Y-59938439D01*
X101194042Y-59821176D01*
X101278394Y-59718394D01*
X101381176Y-59634042D01*
X101498439Y-59571364D01*
X101625677Y-59532767D01*
X101724841Y-59523000D01*
X101791159Y-59523000D01*
X101890323Y-59532767D01*
X101890323Y-59532767D01*
G37*
G36*
X103890323Y-59532767D02*
X104017561Y-59571364D01*
X104134824Y-59634042D01*
X104237606Y-59718394D01*
X104321958Y-59821176D01*
X104384636Y-59938439D01*
X104423233Y-60065677D01*
X104436266Y-60198000D01*
X104423233Y-60330323D01*
X104384636Y-60457561D01*
X104321958Y-60574824D01*
X104237606Y-60677606D01*
X104134824Y-60761958D01*
X104017561Y-60824636D01*
X103890323Y-60863233D01*
X103791159Y-60873000D01*
X103724841Y-60873000D01*
X103625677Y-60863233D01*
X103498439Y-60824636D01*
X103381176Y-60761958D01*
X103278394Y-60677606D01*
X103194042Y-60574824D01*
X103131364Y-60457561D01*
X103092767Y-60330323D01*
X103079734Y-60198000D01*
X103092767Y-60065677D01*
X103131364Y-59938439D01*
X103194042Y-59821176D01*
X103278394Y-59718394D01*
X103381176Y-59634042D01*
X103498439Y-59571364D01*
X103625677Y-59532767D01*
X103724841Y-59523000D01*
X103791159Y-59523000D01*
X103890323Y-59532767D01*
X103890323Y-59532767D01*
G37*
G36*
X87921529Y-55770661D02*
X88043550Y-55807676D01*
X88086471Y-55820696D01*
X88238472Y-55901942D01*
X88238473Y-55901943D01*
X88238475Y-55901944D01*
X88371712Y-56011288D01*
X88481056Y-56144524D01*
X88533297Y-56242261D01*
X88562305Y-56296531D01*
X88578983Y-56351511D01*
X88612339Y-56461470D01*
X88625000Y-56590021D01*
X88625000Y-58425979D01*
X88612339Y-58554530D01*
X88578983Y-58664489D01*
X88562305Y-58719469D01*
X88535222Y-58770137D01*
X88481056Y-58871476D01*
X88371712Y-59004712D01*
X88238476Y-59114056D01*
X88137137Y-59168222D01*
X88086469Y-59195305D01*
X88031489Y-59211983D01*
X87921530Y-59245339D01*
X87750000Y-59262233D01*
X87578471Y-59245339D01*
X87468512Y-59211983D01*
X87413532Y-59195305D01*
X87362864Y-59168222D01*
X87261525Y-59114056D01*
X87128289Y-59004712D01*
X87018945Y-58871476D01*
X86964779Y-58770137D01*
X86937696Y-58719469D01*
X86921018Y-58664489D01*
X86887662Y-58554530D01*
X86875001Y-58425979D01*
X86875000Y-56590022D01*
X86887661Y-56461471D01*
X86937695Y-56296533D01*
X86937696Y-56296529D01*
X87018942Y-56144528D01*
X87018943Y-56144527D01*
X87018944Y-56144525D01*
X87128288Y-56011288D01*
X87261524Y-55901944D01*
X87362863Y-55847778D01*
X87413531Y-55820695D01*
X87468511Y-55804017D01*
X87578470Y-55770661D01*
X87750000Y-55753767D01*
X87921529Y-55770661D01*
X87921529Y-55770661D01*
G37*
G36*
X90421529Y-55770661D02*
X90543550Y-55807676D01*
X90586471Y-55820696D01*
X90738472Y-55901942D01*
X90738473Y-55901943D01*
X90738475Y-55901944D01*
X90871712Y-56011288D01*
X90981056Y-56144524D01*
X91033297Y-56242261D01*
X91062305Y-56296531D01*
X91078983Y-56351511D01*
X91112339Y-56461470D01*
X91125000Y-56590021D01*
X91125000Y-58425979D01*
X91112339Y-58554530D01*
X91078983Y-58664489D01*
X91062305Y-58719469D01*
X91035222Y-58770137D01*
X90981056Y-58871476D01*
X90871712Y-59004712D01*
X90738476Y-59114056D01*
X90637137Y-59168222D01*
X90586469Y-59195305D01*
X90531489Y-59211983D01*
X90421530Y-59245339D01*
X90250000Y-59262233D01*
X90078471Y-59245339D01*
X89968512Y-59211983D01*
X89913532Y-59195305D01*
X89862864Y-59168222D01*
X89761525Y-59114056D01*
X89628289Y-59004712D01*
X89518945Y-58871476D01*
X89464779Y-58770137D01*
X89437696Y-58719469D01*
X89421018Y-58664489D01*
X89387662Y-58554530D01*
X89375001Y-58425979D01*
X89375000Y-56590022D01*
X89387661Y-56461471D01*
X89437695Y-56296533D01*
X89437696Y-56296529D01*
X89518942Y-56144528D01*
X89518943Y-56144527D01*
X89518944Y-56144525D01*
X89628288Y-56011288D01*
X89761524Y-55901944D01*
X89862863Y-55847778D01*
X89913531Y-55820695D01*
X89968511Y-55804017D01*
X90078470Y-55770661D01*
X90250000Y-55753767D01*
X90421529Y-55770661D01*
X90421529Y-55770661D01*
G37*
G36*
X82921529Y-55770661D02*
X83043550Y-55807676D01*
X83086471Y-55820696D01*
X83238472Y-55901942D01*
X83238473Y-55901943D01*
X83238475Y-55901944D01*
X83371712Y-56011288D01*
X83481056Y-56144524D01*
X83533297Y-56242261D01*
X83562305Y-56296531D01*
X83578983Y-56351511D01*
X83612339Y-56461470D01*
X83625000Y-56590021D01*
X83625000Y-58425979D01*
X83612339Y-58554530D01*
X83578983Y-58664489D01*
X83562305Y-58719469D01*
X83535222Y-58770137D01*
X83481056Y-58871476D01*
X83371712Y-59004712D01*
X83238476Y-59114056D01*
X83137137Y-59168222D01*
X83086469Y-59195305D01*
X83031489Y-59211983D01*
X82921530Y-59245339D01*
X82750000Y-59262233D01*
X82578471Y-59245339D01*
X82468512Y-59211983D01*
X82413532Y-59195305D01*
X82362864Y-59168222D01*
X82261525Y-59114056D01*
X82128289Y-59004712D01*
X82018945Y-58871476D01*
X81964779Y-58770137D01*
X81937696Y-58719469D01*
X81921018Y-58664489D01*
X81887662Y-58554530D01*
X81875001Y-58425979D01*
X81875000Y-56590022D01*
X81887661Y-56461471D01*
X81937695Y-56296533D01*
X81937696Y-56296529D01*
X82018942Y-56144528D01*
X82018943Y-56144527D01*
X82018944Y-56144525D01*
X82128288Y-56011288D01*
X82261524Y-55901944D01*
X82362863Y-55847778D01*
X82413531Y-55820695D01*
X82468511Y-55804017D01*
X82578470Y-55770661D01*
X82750000Y-55753767D01*
X82921529Y-55770661D01*
X82921529Y-55770661D01*
G37*
G36*
X80421529Y-55770661D02*
X80543550Y-55807676D01*
X80586471Y-55820696D01*
X80738472Y-55901942D01*
X80738473Y-55901943D01*
X80738475Y-55901944D01*
X80871712Y-56011288D01*
X80981056Y-56144524D01*
X81033297Y-56242261D01*
X81062305Y-56296531D01*
X81078983Y-56351511D01*
X81112339Y-56461470D01*
X81125000Y-56590021D01*
X81125000Y-58425979D01*
X81112339Y-58554530D01*
X81078983Y-58664489D01*
X81062305Y-58719469D01*
X81035222Y-58770137D01*
X80981056Y-58871476D01*
X80871712Y-59004712D01*
X80738476Y-59114056D01*
X80637137Y-59168222D01*
X80586469Y-59195305D01*
X80531489Y-59211983D01*
X80421530Y-59245339D01*
X80250000Y-59262233D01*
X80078471Y-59245339D01*
X79968512Y-59211983D01*
X79913532Y-59195305D01*
X79862864Y-59168222D01*
X79761525Y-59114056D01*
X79628289Y-59004712D01*
X79518945Y-58871476D01*
X79464779Y-58770137D01*
X79437696Y-58719469D01*
X79421018Y-58664489D01*
X79387662Y-58554530D01*
X79375001Y-58425979D01*
X79375000Y-56590022D01*
X79387661Y-56461471D01*
X79437695Y-56296533D01*
X79437696Y-56296529D01*
X79518942Y-56144528D01*
X79518943Y-56144527D01*
X79518944Y-56144525D01*
X79628288Y-56011288D01*
X79761524Y-55901944D01*
X79862863Y-55847778D01*
X79913531Y-55820695D01*
X79968511Y-55804017D01*
X80078470Y-55770661D01*
X80250000Y-55753767D01*
X80421529Y-55770661D01*
X80421529Y-55770661D01*
G37*
G36*
X85436681Y-56911594D02*
X85553155Y-56959839D01*
X85657977Y-57029879D01*
X85747121Y-57119023D01*
X85817161Y-57223845D01*
X85865406Y-57340319D01*
X85890000Y-57463964D01*
X85890000Y-57590036D01*
X85865406Y-57713681D01*
X85817161Y-57830155D01*
X85747121Y-57934977D01*
X85657977Y-58024121D01*
X85553155Y-58094161D01*
X85436681Y-58142406D01*
X85313036Y-58167000D01*
X85186964Y-58167000D01*
X85063319Y-58142406D01*
X84946845Y-58094161D01*
X84842023Y-58024121D01*
X84752879Y-57934977D01*
X84682839Y-57830155D01*
X84634594Y-57713681D01*
X84610000Y-57590036D01*
X84610000Y-57463964D01*
X84634594Y-57340319D01*
X84682839Y-57223845D01*
X84752879Y-57119023D01*
X84842023Y-57029879D01*
X84946845Y-56959839D01*
X85063319Y-56911594D01*
X85186964Y-56887000D01*
X85313036Y-56887000D01*
X85436681Y-56911594D01*
X85436681Y-56911594D01*
G37*
G36*
X74000935Y-54928429D02*
X74097534Y-54947644D01*
X74370517Y-55060717D01*
X74612920Y-55222687D01*
X74616197Y-55224876D01*
X74825124Y-55433803D01*
X74989284Y-55679485D01*
X75102356Y-55952467D01*
X75160000Y-56242261D01*
X75160000Y-56537739D01*
X75149600Y-56590021D01*
X75102356Y-56827534D01*
X74989283Y-57100517D01*
X74976917Y-57119024D01*
X74825124Y-57346197D01*
X74616197Y-57555124D01*
X74616194Y-57555126D01*
X74370517Y-57719283D01*
X74097534Y-57832356D01*
X74000935Y-57851571D01*
X73807739Y-57890000D01*
X73512261Y-57890000D01*
X73319065Y-57851571D01*
X73222466Y-57832356D01*
X72949483Y-57719283D01*
X72703806Y-57555126D01*
X72703803Y-57555124D01*
X72494876Y-57346197D01*
X72343083Y-57119024D01*
X72330717Y-57100517D01*
X72217644Y-56827534D01*
X72170400Y-56590021D01*
X72160000Y-56537739D01*
X72160000Y-56242261D01*
X72217644Y-55952467D01*
X72330716Y-55679485D01*
X72494876Y-55433803D01*
X72703803Y-55224876D01*
X72707080Y-55222687D01*
X72949483Y-55060717D01*
X73222466Y-54947644D01*
X73319065Y-54928429D01*
X73512261Y-54890000D01*
X73807739Y-54890000D01*
X74000935Y-54928429D01*
X74000935Y-54928429D01*
G37*
G36*
X61300935Y-54928429D02*
X61397534Y-54947644D01*
X61670517Y-55060717D01*
X61912920Y-55222687D01*
X61916197Y-55224876D01*
X62125124Y-55433803D01*
X62289284Y-55679485D01*
X62402356Y-55952467D01*
X62460000Y-56242261D01*
X62460000Y-56537739D01*
X62449600Y-56590021D01*
X62402356Y-56827534D01*
X62289283Y-57100517D01*
X62276917Y-57119024D01*
X62125124Y-57346197D01*
X61916197Y-57555124D01*
X61916194Y-57555126D01*
X61670517Y-57719283D01*
X61397534Y-57832356D01*
X61300935Y-57851571D01*
X61107739Y-57890000D01*
X60812261Y-57890000D01*
X60619065Y-57851571D01*
X60522466Y-57832356D01*
X60249483Y-57719283D01*
X60003806Y-57555126D01*
X60003803Y-57555124D01*
X59794876Y-57346197D01*
X59643083Y-57119024D01*
X59630717Y-57100517D01*
X59517644Y-56827534D01*
X59470400Y-56590021D01*
X59460000Y-56537739D01*
X59460000Y-56242261D01*
X59517644Y-55952467D01*
X59630716Y-55679485D01*
X59794876Y-55433803D01*
X60003803Y-55224876D01*
X60007080Y-55222687D01*
X60249483Y-55060717D01*
X60522466Y-54947644D01*
X60619065Y-54928429D01*
X60812261Y-54890000D01*
X61107739Y-54890000D01*
X61300935Y-54928429D01*
X61300935Y-54928429D01*
G37*
G36*
X67650935Y-54928429D02*
X67747534Y-54947644D01*
X68020517Y-55060717D01*
X68262920Y-55222687D01*
X68266197Y-55224876D01*
X68475124Y-55433803D01*
X68639284Y-55679485D01*
X68752356Y-55952467D01*
X68810000Y-56242261D01*
X68810000Y-56537739D01*
X68799600Y-56590021D01*
X68752356Y-56827534D01*
X68639283Y-57100517D01*
X68626917Y-57119024D01*
X68475124Y-57346197D01*
X68266197Y-57555124D01*
X68266194Y-57555126D01*
X68020517Y-57719283D01*
X67747534Y-57832356D01*
X67650935Y-57851571D01*
X67457739Y-57890000D01*
X67162261Y-57890000D01*
X66969065Y-57851571D01*
X66872466Y-57832356D01*
X66599483Y-57719283D01*
X66353806Y-57555126D01*
X66353803Y-57555124D01*
X66144876Y-57346197D01*
X65993083Y-57119024D01*
X65980717Y-57100517D01*
X65867644Y-56827534D01*
X65820400Y-56590021D01*
X65810000Y-56537739D01*
X65810000Y-56242261D01*
X65867644Y-55952467D01*
X65980716Y-55679485D01*
X66144876Y-55433803D01*
X66353803Y-55224876D01*
X66357080Y-55222687D01*
X66599483Y-55060717D01*
X66872466Y-54947644D01*
X66969065Y-54928429D01*
X67162261Y-54890000D01*
X67457739Y-54890000D01*
X67650935Y-54928429D01*
X67650935Y-54928429D01*
G37*
G36*
X109504959Y-49562577D02*
X109845470Y-49630309D01*
X110273143Y-49807457D01*
X110658038Y-50064636D01*
X110985364Y-50391962D01*
X111242543Y-50776857D01*
X111419691Y-51204530D01*
X111429133Y-51252000D01*
X111510000Y-51658544D01*
X111510000Y-52121456D01*
X111505546Y-52143846D01*
X111419691Y-52575470D01*
X111242543Y-53003143D01*
X110985364Y-53388038D01*
X110658038Y-53715364D01*
X110273143Y-53972543D01*
X109845470Y-54149691D01*
X109504959Y-54217423D01*
X109391456Y-54240000D01*
X108928544Y-54240000D01*
X108815041Y-54217423D01*
X108474530Y-54149691D01*
X108046857Y-53972543D01*
X107661962Y-53715364D01*
X107334636Y-53388038D01*
X107077457Y-53003143D01*
X106900309Y-52575470D01*
X106814454Y-52143846D01*
X106810000Y-52121456D01*
X106810000Y-51658544D01*
X106890867Y-51252000D01*
X106900309Y-51204530D01*
X107077457Y-50776857D01*
X107334636Y-50391962D01*
X107661962Y-50064636D01*
X108046857Y-49807457D01*
X108474530Y-49630309D01*
X108815041Y-49562577D01*
X108928544Y-49540000D01*
X109391456Y-49540000D01*
X109504959Y-49562577D01*
X109504959Y-49562577D01*
G37*
G36*
X87000000Y-53752000D02*
X83500000Y-53752000D01*
X83500000Y-51252000D01*
X87000000Y-51252000D01*
X87000000Y-53752000D01*
X87000000Y-53752000D01*
G37*
G36*
X90516681Y-51831594D02*
X90633155Y-51879839D01*
X90737977Y-51949879D01*
X90827121Y-52039023D01*
X90897161Y-52143845D01*
X90945406Y-52260319D01*
X90970000Y-52383964D01*
X90970000Y-52510036D01*
X90945406Y-52633681D01*
X90897161Y-52750155D01*
X90827121Y-52854977D01*
X90737977Y-52944121D01*
X90633155Y-53014161D01*
X90516681Y-53062406D01*
X90393036Y-53087000D01*
X90266964Y-53087000D01*
X90143319Y-53062406D01*
X90026845Y-53014161D01*
X89922023Y-52944121D01*
X89832879Y-52854977D01*
X89762839Y-52750155D01*
X89714594Y-52633681D01*
X89690000Y-52510036D01*
X89690000Y-52383964D01*
X89714594Y-52260319D01*
X89762839Y-52143845D01*
X89832879Y-52039023D01*
X89922023Y-51949879D01*
X90026845Y-51879839D01*
X90143319Y-51831594D01*
X90266964Y-51807000D01*
X90393036Y-51807000D01*
X90516681Y-51831594D01*
X90516681Y-51831594D01*
G37*
G36*
X80356681Y-51831594D02*
X80473155Y-51879839D01*
X80577977Y-51949879D01*
X80667121Y-52039023D01*
X80737161Y-52143845D01*
X80785406Y-52260319D01*
X80810000Y-52383964D01*
X80810000Y-52510036D01*
X80785406Y-52633681D01*
X80737161Y-52750155D01*
X80667121Y-52854977D01*
X80577977Y-52944121D01*
X80473155Y-53014161D01*
X80356681Y-53062406D01*
X80233036Y-53087000D01*
X80106964Y-53087000D01*
X79983319Y-53062406D01*
X79866845Y-53014161D01*
X79762023Y-52944121D01*
X79672879Y-52854977D01*
X79602839Y-52750155D01*
X79554594Y-52633681D01*
X79530000Y-52510036D01*
X79530000Y-52383964D01*
X79554594Y-52260319D01*
X79602839Y-52143845D01*
X79672879Y-52039023D01*
X79762023Y-51949879D01*
X79866845Y-51879839D01*
X79983319Y-51831594D01*
X80106964Y-51807000D01*
X80233036Y-51807000D01*
X80356681Y-51831594D01*
X80356681Y-51831594D01*
G37*
G36*
X95520000Y-50960000D02*
X93996000Y-50960000D01*
X93996000Y-49436000D01*
X95520000Y-49436000D01*
X95520000Y-50960000D01*
X95520000Y-50960000D01*
G37*
G36*
X105520000Y-50960000D02*
X103996000Y-50960000D01*
X103996000Y-49436000D01*
X105520000Y-49436000D01*
X105520000Y-50960000D01*
X105520000Y-50960000D01*
G37*
G36*
X80356681Y-49291594D02*
X80473155Y-49339839D01*
X80577977Y-49409879D01*
X80667121Y-49499023D01*
X80737161Y-49603845D01*
X80785406Y-49720319D01*
X80810000Y-49843964D01*
X80810000Y-49970036D01*
X80785406Y-50093681D01*
X80737161Y-50210155D01*
X80667121Y-50314977D01*
X80577977Y-50404121D01*
X80473155Y-50474161D01*
X80356681Y-50522406D01*
X80233036Y-50547000D01*
X80106964Y-50547000D01*
X79983319Y-50522406D01*
X79866845Y-50474161D01*
X79762023Y-50404121D01*
X79672879Y-50314977D01*
X79602839Y-50210155D01*
X79554594Y-50093681D01*
X79530000Y-49970036D01*
X79530000Y-49843964D01*
X79554594Y-49720319D01*
X79602839Y-49603845D01*
X79672879Y-49499023D01*
X79762023Y-49409879D01*
X79866845Y-49339839D01*
X79983319Y-49291594D01*
X80106964Y-49267000D01*
X80233036Y-49267000D01*
X80356681Y-49291594D01*
X80356681Y-49291594D01*
G37*
G36*
X90516681Y-49291594D02*
X90633155Y-49339839D01*
X90737977Y-49409879D01*
X90827121Y-49499023D01*
X90897161Y-49603845D01*
X90945406Y-49720319D01*
X90970000Y-49843964D01*
X90970000Y-49970036D01*
X90945406Y-50093681D01*
X90897161Y-50210155D01*
X90827121Y-50314977D01*
X90737977Y-50404121D01*
X90633155Y-50474161D01*
X90516681Y-50522406D01*
X90393036Y-50547000D01*
X90266964Y-50547000D01*
X90143319Y-50522406D01*
X90026845Y-50474161D01*
X89922023Y-50404121D01*
X89832879Y-50314977D01*
X89762839Y-50210155D01*
X89714594Y-50093681D01*
X89690000Y-49970036D01*
X89690000Y-49843964D01*
X89714594Y-49720319D01*
X89762839Y-49603845D01*
X89832879Y-49499023D01*
X89922023Y-49409879D01*
X90026845Y-49339839D01*
X90143319Y-49291594D01*
X90266964Y-49267000D01*
X90393036Y-49267000D01*
X90516681Y-49291594D01*
X90516681Y-49291594D01*
G37*
M02*
