M48
;DRILL file {KiCad 5.0.2-5.fc29} date jue 15 jul 2021 17:32:52 CEST
;FORMAT={-:-/ absolute / metric / decimal}
FMAT,2
METRIC,TZ
T1C0.400
T2C0.800
T3C1.000
T4C1.200
T5C1.500
T6C2.700
%
G90
G05
T1
X70.612Y-56.642
X85.09Y-60.96
X88.646Y-60.96
X92.964Y-59.182
T2
X95.758Y-60.198
X97.758Y-60.198
X99.758Y-60.198
X101.758Y-60.198
X103.758Y-60.198
T3
X83.5Y-112.49
X83.5Y-115.03
X86.04Y-112.49
X86.04Y-115.03
X88.58Y-112.49
X88.58Y-115.03
X91.12Y-112.49
X91.12Y-115.03
X93.66Y-112.49
X93.66Y-115.03
X96.2Y-112.49
X96.2Y-115.03
X98.74Y-112.49
X98.74Y-115.03
X101.28Y-112.49
X101.28Y-115.03
X103.82Y-112.49
X103.82Y-115.03
X106.36Y-112.49
X106.36Y-115.03
T4
X94.758Y-50.198
X104.758Y-50.198
X80.17Y-49.907
X80.17Y-52.447
X80.25Y-57.508
X82.75Y-57.508
X85.25Y-52.502
X85.25Y-57.527
X87.75Y-57.508
X90.25Y-57.508
X90.33Y-49.907
X90.33Y-52.447
T5
X60.96Y-108.89
X60.96Y-120.32
X67.31Y-108.89
X67.31Y-120.32
X73.66Y-108.89
X73.66Y-120.32
X60.96Y-73.89
X60.96Y-85.32
X67.31Y-73.89
X67.31Y-85.32
X73.66Y-73.89
X73.66Y-85.32
X60.96Y-91.39
X60.96Y-102.82
X67.31Y-91.39
X67.31Y-102.82
X73.66Y-91.39
X73.66Y-102.82
X60.96Y-56.39
X60.96Y-67.82
X67.31Y-56.39
X67.31Y-67.82
X73.66Y-56.39
X73.66Y-67.82
T6
X109.16Y-51.89
X109.16Y-119.89
T0
M30
