G04 #@! TF.GenerationSoftware,KiCad,Pcbnew,5.0.2-5.fc29*
G04 #@! TF.CreationDate,2021-07-15T17:32:54+02:00*
G04 #@! TF.ProjectId,ZynAudioCon,5a796e41-7564-4696-9f43-6f6e2e6b6963,rev?*
G04 #@! TF.SameCoordinates,Original*
G04 #@! TF.FileFunction,Legend,Bot*
G04 #@! TF.FilePolarity,Positive*
%FSLAX46Y46*%
G04 Gerber Fmt 4.6, Leading zero omitted, Abs format (unit mm)*
G04 Created by KiCad (PCBNEW 5.0.2-5.fc29) date jue 15 jul 2021 17:32:54 CEST*
%MOMM*%
%LPD*%
G01*
G04 APERTURE LIST*
%ADD10C,0.120000*%
%ADD11C,0.150000*%
G04 APERTURE END LIST*
D10*
G04 #@! TO.C,AudioIN-1*
X81130000Y-71680000D02*
X56090000Y-71680000D01*
X56090000Y-71680000D02*
X56090000Y-87670000D01*
X47890000Y-75500000D02*
X56090000Y-75500000D01*
X47890000Y-86740000D02*
X47890000Y-75500000D01*
X47890000Y-86740000D02*
X56090000Y-86740000D01*
X81130000Y-87670000D02*
X81130000Y-71680000D01*
X81130000Y-87670000D02*
X56090000Y-87670000D01*
G04 #@! TO.C,AudioIN-2*
X81130000Y-70170000D02*
X56090000Y-70170000D01*
X81130000Y-70170000D02*
X81130000Y-54180000D01*
X47890000Y-69240000D02*
X56090000Y-69240000D01*
X47890000Y-69240000D02*
X47890000Y-58000000D01*
X47890000Y-58000000D02*
X56090000Y-58000000D01*
X56090000Y-54180000D02*
X56090000Y-70170000D01*
X81130000Y-54180000D02*
X56090000Y-54180000D01*
G04 #@! TO.C,AudioOUT-1*
X81130000Y-122670000D02*
X56090000Y-122670000D01*
X81130000Y-122670000D02*
X81130000Y-106680000D01*
X47890000Y-121740000D02*
X56090000Y-121740000D01*
X47890000Y-121740000D02*
X47890000Y-110500000D01*
X47890000Y-110500000D02*
X56090000Y-110500000D01*
X56090000Y-106680000D02*
X56090000Y-122670000D01*
X81130000Y-106680000D02*
X56090000Y-106680000D01*
G04 #@! TO.C,AudioOUT-2*
X81130000Y-105170000D02*
X56090000Y-105170000D01*
X81130000Y-105170000D02*
X81130000Y-89180000D01*
X47890000Y-104240000D02*
X56090000Y-104240000D01*
X47890000Y-104240000D02*
X47890000Y-93000000D01*
X47890000Y-93000000D02*
X56090000Y-93000000D01*
X56090000Y-89180000D02*
X56090000Y-105170000D01*
X81130000Y-89180000D02*
X56090000Y-89180000D01*
G04 #@! TO.C,AudioIN-1*
D11*
X71000476Y-79644666D02*
X70524285Y-79644666D01*
X71095714Y-79930380D02*
X70762380Y-78930380D01*
X70429047Y-79930380D01*
X69667142Y-79263714D02*
X69667142Y-79930380D01*
X70095714Y-79263714D02*
X70095714Y-79787523D01*
X70048095Y-79882761D01*
X69952857Y-79930380D01*
X69810000Y-79930380D01*
X69714761Y-79882761D01*
X69667142Y-79835142D01*
X68762380Y-79930380D02*
X68762380Y-78930380D01*
X68762380Y-79882761D02*
X68857619Y-79930380D01*
X69048095Y-79930380D01*
X69143333Y-79882761D01*
X69190952Y-79835142D01*
X69238571Y-79739904D01*
X69238571Y-79454190D01*
X69190952Y-79358952D01*
X69143333Y-79311333D01*
X69048095Y-79263714D01*
X68857619Y-79263714D01*
X68762380Y-79311333D01*
X68286190Y-79930380D02*
X68286190Y-79263714D01*
X68286190Y-78930380D02*
X68333809Y-78978000D01*
X68286190Y-79025619D01*
X68238571Y-78978000D01*
X68286190Y-78930380D01*
X68286190Y-79025619D01*
X67667142Y-79930380D02*
X67762380Y-79882761D01*
X67810000Y-79835142D01*
X67857619Y-79739904D01*
X67857619Y-79454190D01*
X67810000Y-79358952D01*
X67762380Y-79311333D01*
X67667142Y-79263714D01*
X67524285Y-79263714D01*
X67429047Y-79311333D01*
X67381428Y-79358952D01*
X67333809Y-79454190D01*
X67333809Y-79739904D01*
X67381428Y-79835142D01*
X67429047Y-79882761D01*
X67524285Y-79930380D01*
X67667142Y-79930380D01*
X66905238Y-79930380D02*
X66905238Y-78930380D01*
X66429047Y-79930380D02*
X66429047Y-78930380D01*
X65857619Y-79930380D01*
X65857619Y-78930380D01*
X65381428Y-79549428D02*
X64619523Y-79549428D01*
X63619523Y-79930380D02*
X64190952Y-79930380D01*
X63905238Y-79930380D02*
X63905238Y-78930380D01*
X64000476Y-79073238D01*
X64095714Y-79168476D01*
X64190952Y-79216095D01*
G04 #@! TO.C,AudioIN-2*
X71000476Y-62144666D02*
X70524285Y-62144666D01*
X71095714Y-62430380D02*
X70762380Y-61430380D01*
X70429047Y-62430380D01*
X69667142Y-61763714D02*
X69667142Y-62430380D01*
X70095714Y-61763714D02*
X70095714Y-62287523D01*
X70048095Y-62382761D01*
X69952857Y-62430380D01*
X69810000Y-62430380D01*
X69714761Y-62382761D01*
X69667142Y-62335142D01*
X68762380Y-62430380D02*
X68762380Y-61430380D01*
X68762380Y-62382761D02*
X68857619Y-62430380D01*
X69048095Y-62430380D01*
X69143333Y-62382761D01*
X69190952Y-62335142D01*
X69238571Y-62239904D01*
X69238571Y-61954190D01*
X69190952Y-61858952D01*
X69143333Y-61811333D01*
X69048095Y-61763714D01*
X68857619Y-61763714D01*
X68762380Y-61811333D01*
X68286190Y-62430380D02*
X68286190Y-61763714D01*
X68286190Y-61430380D02*
X68333809Y-61478000D01*
X68286190Y-61525619D01*
X68238571Y-61478000D01*
X68286190Y-61430380D01*
X68286190Y-61525619D01*
X67667142Y-62430380D02*
X67762380Y-62382761D01*
X67810000Y-62335142D01*
X67857619Y-62239904D01*
X67857619Y-61954190D01*
X67810000Y-61858952D01*
X67762380Y-61811333D01*
X67667142Y-61763714D01*
X67524285Y-61763714D01*
X67429047Y-61811333D01*
X67381428Y-61858952D01*
X67333809Y-61954190D01*
X67333809Y-62239904D01*
X67381428Y-62335142D01*
X67429047Y-62382761D01*
X67524285Y-62430380D01*
X67667142Y-62430380D01*
X66905238Y-62430380D02*
X66905238Y-61430380D01*
X66429047Y-62430380D02*
X66429047Y-61430380D01*
X65857619Y-62430380D01*
X65857619Y-61430380D01*
X65381428Y-62049428D02*
X64619523Y-62049428D01*
X64190952Y-61525619D02*
X64143333Y-61478000D01*
X64048095Y-61430380D01*
X63810000Y-61430380D01*
X63714761Y-61478000D01*
X63667142Y-61525619D01*
X63619523Y-61620857D01*
X63619523Y-61716095D01*
X63667142Y-61858952D01*
X64238571Y-62430380D01*
X63619523Y-62430380D01*
G04 #@! TO.C,AudioOUT-1*
X71667142Y-114644666D02*
X71190952Y-114644666D01*
X71762380Y-114930380D02*
X71429047Y-113930380D01*
X71095714Y-114930380D01*
X70333809Y-114263714D02*
X70333809Y-114930380D01*
X70762380Y-114263714D02*
X70762380Y-114787523D01*
X70714761Y-114882761D01*
X70619523Y-114930380D01*
X70476666Y-114930380D01*
X70381428Y-114882761D01*
X70333809Y-114835142D01*
X69429047Y-114930380D02*
X69429047Y-113930380D01*
X69429047Y-114882761D02*
X69524285Y-114930380D01*
X69714761Y-114930380D01*
X69810000Y-114882761D01*
X69857619Y-114835142D01*
X69905238Y-114739904D01*
X69905238Y-114454190D01*
X69857619Y-114358952D01*
X69810000Y-114311333D01*
X69714761Y-114263714D01*
X69524285Y-114263714D01*
X69429047Y-114311333D01*
X68952857Y-114930380D02*
X68952857Y-114263714D01*
X68952857Y-113930380D02*
X69000476Y-113978000D01*
X68952857Y-114025619D01*
X68905238Y-113978000D01*
X68952857Y-113930380D01*
X68952857Y-114025619D01*
X68333809Y-114930380D02*
X68429047Y-114882761D01*
X68476666Y-114835142D01*
X68524285Y-114739904D01*
X68524285Y-114454190D01*
X68476666Y-114358952D01*
X68429047Y-114311333D01*
X68333809Y-114263714D01*
X68190952Y-114263714D01*
X68095714Y-114311333D01*
X68048095Y-114358952D01*
X68000476Y-114454190D01*
X68000476Y-114739904D01*
X68048095Y-114835142D01*
X68095714Y-114882761D01*
X68190952Y-114930380D01*
X68333809Y-114930380D01*
X67381428Y-113930380D02*
X67190952Y-113930380D01*
X67095714Y-113978000D01*
X67000476Y-114073238D01*
X66952857Y-114263714D01*
X66952857Y-114597047D01*
X67000476Y-114787523D01*
X67095714Y-114882761D01*
X67190952Y-114930380D01*
X67381428Y-114930380D01*
X67476666Y-114882761D01*
X67571904Y-114787523D01*
X67619523Y-114597047D01*
X67619523Y-114263714D01*
X67571904Y-114073238D01*
X67476666Y-113978000D01*
X67381428Y-113930380D01*
X66524285Y-113930380D02*
X66524285Y-114739904D01*
X66476666Y-114835142D01*
X66429047Y-114882761D01*
X66333809Y-114930380D01*
X66143333Y-114930380D01*
X66048095Y-114882761D01*
X66000476Y-114835142D01*
X65952857Y-114739904D01*
X65952857Y-113930380D01*
X65619523Y-113930380D02*
X65048095Y-113930380D01*
X65333809Y-114930380D02*
X65333809Y-113930380D01*
X64714761Y-114549428D02*
X63952857Y-114549428D01*
X62952857Y-114930380D02*
X63524285Y-114930380D01*
X63238571Y-114930380D02*
X63238571Y-113930380D01*
X63333809Y-114073238D01*
X63429047Y-114168476D01*
X63524285Y-114216095D01*
G04 #@! TO.C,AudioOUT-2*
X71667142Y-97144666D02*
X71190952Y-97144666D01*
X71762380Y-97430380D02*
X71429047Y-96430380D01*
X71095714Y-97430380D01*
X70333809Y-96763714D02*
X70333809Y-97430380D01*
X70762380Y-96763714D02*
X70762380Y-97287523D01*
X70714761Y-97382761D01*
X70619523Y-97430380D01*
X70476666Y-97430380D01*
X70381428Y-97382761D01*
X70333809Y-97335142D01*
X69429047Y-97430380D02*
X69429047Y-96430380D01*
X69429047Y-97382761D02*
X69524285Y-97430380D01*
X69714761Y-97430380D01*
X69810000Y-97382761D01*
X69857619Y-97335142D01*
X69905238Y-97239904D01*
X69905238Y-96954190D01*
X69857619Y-96858952D01*
X69810000Y-96811333D01*
X69714761Y-96763714D01*
X69524285Y-96763714D01*
X69429047Y-96811333D01*
X68952857Y-97430380D02*
X68952857Y-96763714D01*
X68952857Y-96430380D02*
X69000476Y-96478000D01*
X68952857Y-96525619D01*
X68905238Y-96478000D01*
X68952857Y-96430380D01*
X68952857Y-96525619D01*
X68333809Y-97430380D02*
X68429047Y-97382761D01*
X68476666Y-97335142D01*
X68524285Y-97239904D01*
X68524285Y-96954190D01*
X68476666Y-96858952D01*
X68429047Y-96811333D01*
X68333809Y-96763714D01*
X68190952Y-96763714D01*
X68095714Y-96811333D01*
X68048095Y-96858952D01*
X68000476Y-96954190D01*
X68000476Y-97239904D01*
X68048095Y-97335142D01*
X68095714Y-97382761D01*
X68190952Y-97430380D01*
X68333809Y-97430380D01*
X67381428Y-96430380D02*
X67190952Y-96430380D01*
X67095714Y-96478000D01*
X67000476Y-96573238D01*
X66952857Y-96763714D01*
X66952857Y-97097047D01*
X67000476Y-97287523D01*
X67095714Y-97382761D01*
X67190952Y-97430380D01*
X67381428Y-97430380D01*
X67476666Y-97382761D01*
X67571904Y-97287523D01*
X67619523Y-97097047D01*
X67619523Y-96763714D01*
X67571904Y-96573238D01*
X67476666Y-96478000D01*
X67381428Y-96430380D01*
X66524285Y-96430380D02*
X66524285Y-97239904D01*
X66476666Y-97335142D01*
X66429047Y-97382761D01*
X66333809Y-97430380D01*
X66143333Y-97430380D01*
X66048095Y-97382761D01*
X66000476Y-97335142D01*
X65952857Y-97239904D01*
X65952857Y-96430380D01*
X65619523Y-96430380D02*
X65048095Y-96430380D01*
X65333809Y-97430380D02*
X65333809Y-96430380D01*
X64714761Y-97049428D02*
X63952857Y-97049428D01*
X63524285Y-96525619D02*
X63476666Y-96478000D01*
X63381428Y-96430380D01*
X63143333Y-96430380D01*
X63048095Y-96478000D01*
X63000476Y-96525619D01*
X62952857Y-96620857D01*
X62952857Y-96716095D01*
X63000476Y-96858952D01*
X63571904Y-97430380D01*
X62952857Y-97430380D01*
G04 #@! TD*
M02*
