M48
; DRILL file {KiCad 5.1.7-a382d34a8~88~ubuntu18.04.1} date Thu Mar 11 03:59:38 2021
; FORMAT={-:-/ absolute / metric / decimal}
; #@! TF.CreationDate,2021-03-11T03:59:38+01:00
; #@! TF.GenerationSoftware,Kicad,Pcbnew,5.1.7-a382d34a8~88~ubuntu18.04.1
; #@! TF.FileFunction,Plated,1,2,PTH
FMAT,2
METRIC
T1C0.800
T2C1.000
T3C1.200
T4C1.500
T5C2.700
%
G90
G05
T1
X95.8Y-59.7
X97.8Y-59.7
X99.8Y-59.7
X101.8Y-59.7
X103.8Y-59.7
T2
X83.5Y-112.49
X83.5Y-115.03
X86.04Y-112.49
X86.04Y-115.03
X88.58Y-112.49
X88.58Y-115.03
X91.12Y-112.49
X91.12Y-115.03
X93.66Y-112.49
X93.66Y-115.03
X96.2Y-112.49
X96.2Y-115.03
X98.74Y-112.49
X98.74Y-115.03
X101.28Y-112.49
X101.28Y-115.03
X103.82Y-112.49
X103.82Y-115.03
X106.36Y-112.49
X106.36Y-115.03
T3
X94.8Y-49.7
X104.8Y-49.7
X80.32Y-49.907
X80.32Y-52.447
X80.4Y-57.508
X82.9Y-57.508
X85.4Y-52.502
X85.4Y-57.527
X87.9Y-57.508
X90.4Y-57.508
X90.48Y-49.907
X90.48Y-52.447
T4
X60.96Y-108.89
X60.96Y-120.32
X67.31Y-108.89
X67.31Y-120.32
X73.66Y-108.89
X73.66Y-120.32
X60.96Y-91.39
X60.96Y-102.82
X67.31Y-91.39
X67.31Y-102.82
X73.66Y-91.39
X73.66Y-102.82
X60.96Y-56.39
X60.96Y-67.82
X67.31Y-56.39
X67.31Y-67.82
X73.66Y-56.39
X73.66Y-67.82
X60.96Y-73.89
X60.96Y-85.32
X67.31Y-73.89
X67.31Y-85.32
X73.66Y-73.89
X73.66Y-85.32
T5
X109.16Y-119.89
X109.16Y-51.89
T0
M30
