G04 #@! TF.GenerationSoftware,KiCad,Pcbnew,5.1.7-a382d34a8~88~ubuntu18.04.1*
G04 #@! TF.CreationDate,2021-03-11T03:59:41+01:00*
G04 #@! TF.ProjectId,ZynAudioCon,5a796e41-7564-4696-9f43-6f6e2e6b6963,rev?*
G04 #@! TF.SameCoordinates,Original*
G04 #@! TF.FileFunction,Copper,L2,Bot*
G04 #@! TF.FilePolarity,Positive*
%FSLAX46Y46*%
G04 Gerber Fmt 4.6, Leading zero omitted, Abs format (unit mm)*
G04 Created by KiCad (PCBNEW 5.1.7-a382d34a8~88~ubuntu18.04.1) date 2021-03-11 03:59:41*
%MOMM*%
%LPD*%
G01*
G04 APERTURE LIST*
G04 #@! TA.AperFunction,ComponentPad*
%ADD10O,1.750000X3.500000*%
G04 #@! TD*
G04 #@! TA.AperFunction,ComponentPad*
%ADD11R,3.500000X2.500000*%
G04 #@! TD*
G04 #@! TA.AperFunction,ComponentPad*
%ADD12C,1.280000*%
G04 #@! TD*
G04 #@! TA.AperFunction,ComponentPad*
%ADD13R,1.524000X1.524000*%
G04 #@! TD*
G04 #@! TA.AperFunction,ComponentPad*
%ADD14R,1.350000X1.350000*%
G04 #@! TD*
G04 #@! TA.AperFunction,ComponentPad*
%ADD15O,1.350000X1.350000*%
G04 #@! TD*
G04 #@! TA.AperFunction,ComponentPad*
%ADD16C,4.700000*%
G04 #@! TD*
G04 #@! TA.AperFunction,ComponentPad*
%ADD17O,1.700000X1.700000*%
G04 #@! TD*
G04 #@! TA.AperFunction,ComponentPad*
%ADD18R,1.700000X1.700000*%
G04 #@! TD*
G04 #@! TA.AperFunction,ComponentPad*
%ADD19C,3.000000*%
G04 #@! TD*
G04 #@! TA.AperFunction,Conductor*
%ADD20C,0.400000*%
G04 #@! TD*
G04 #@! TA.AperFunction,Conductor*
%ADD21C,0.254000*%
G04 #@! TD*
G04 #@! TA.AperFunction,Conductor*
%ADD22C,0.100000*%
G04 #@! TD*
G04 APERTURE END LIST*
D10*
G04 #@! TO.P,PHONE1,RN*
G04 #@! TO.N,Net-(PHONE1-PadRN)*
X87900000Y-57508000D03*
G04 #@! TO.P,PHONE1,TN*
G04 #@! TO.N,Net-(PHONE1-PadTN)*
X82900000Y-57508000D03*
G04 #@! TO.P,PHONE1,T*
G04 #@! TO.N,PHONE-R*
X80400000Y-57508000D03*
D11*
G04 #@! TO.P,PHONE1,S*
G04 #@! TO.N,GND*
X85400000Y-52502000D03*
D10*
G04 #@! TO.P,PHONE1,R*
G04 #@! TO.N,PHONE-L*
X90400000Y-57508000D03*
D12*
G04 #@! TO.P,PHONE1,*
G04 #@! TO.N,*
X90480000Y-49907000D03*
X90480000Y-52447000D03*
X80320000Y-49907000D03*
X80320000Y-52447000D03*
X85400000Y-57527000D03*
G04 #@! TD*
D13*
G04 #@! TO.P,RV1,M2*
G04 #@! TO.N,N/C*
X104800000Y-49700000D03*
G04 #@! TO.P,RV1,M1*
X94800000Y-49700000D03*
D14*
G04 #@! TO.P,RV1,3*
G04 #@! TO.N,GND*
X95800000Y-59700000D03*
D15*
G04 #@! TO.P,RV1,1*
G04 #@! TO.N,NOUTR+*
X97800000Y-59700000D03*
G04 #@! TO.P,RV1,4*
G04 #@! TO.N,NOUTL+*
X99800000Y-59700000D03*
G04 #@! TO.P,RV1,5*
G04 #@! TO.N,PHONE-L*
X101800000Y-59700000D03*
G04 #@! TO.P,RV1,2*
G04 #@! TO.N,PHONE-R*
X103800000Y-59700000D03*
G04 #@! TD*
D16*
G04 #@! TO.P,REF\u002A\u002A,1*
G04 #@! TO.N,N/C*
X109160000Y-51890000D03*
G04 #@! TD*
G04 #@! TO.P,REF\u002A\u002A,1*
G04 #@! TO.N,N/C*
X109160000Y-119890000D03*
G04 #@! TD*
D17*
G04 #@! TO.P,J1,20*
G04 #@! TO.N,OUTL-*
X83500000Y-115030000D03*
G04 #@! TO.P,J1,19*
G04 #@! TO.N,OUTL+*
X83500000Y-112490000D03*
G04 #@! TO.P,J1,18*
G04 #@! TO.N,OUTR-*
X86040000Y-115030000D03*
G04 #@! TO.P,J1,17*
G04 #@! TO.N,OUTR+*
X86040000Y-112490000D03*
G04 #@! TO.P,J1,16*
G04 #@! TO.N,Net-(J1-Pad16)*
X88580000Y-115030000D03*
G04 #@! TO.P,J1,15*
G04 #@! TO.N,Net-(J1-Pad15)*
X88580000Y-112490000D03*
G04 #@! TO.P,J1,14*
G04 #@! TO.N,GND*
X91120000Y-115030000D03*
G04 #@! TO.P,J1,13*
X91120000Y-112490000D03*
G04 #@! TO.P,J1,12*
G04 #@! TO.N,INL-*
X93660000Y-115030000D03*
G04 #@! TO.P,J1,11*
G04 #@! TO.N,INL+*
X93660000Y-112490000D03*
G04 #@! TO.P,J1,10*
G04 #@! TO.N,INR-*
X96200000Y-115030000D03*
G04 #@! TO.P,J1,9*
G04 #@! TO.N,INR+*
X96200000Y-112490000D03*
G04 #@! TO.P,J1,8*
G04 #@! TO.N,GND*
X98740000Y-115030000D03*
G04 #@! TO.P,J1,7*
X98740000Y-112490000D03*
G04 #@! TO.P,J1,6*
G04 #@! TO.N,Net-(J1-Pad6)*
X101280000Y-115030000D03*
G04 #@! TO.P,J1,5*
G04 #@! TO.N,Net-(J1-Pad5)*
X101280000Y-112490000D03*
G04 #@! TO.P,J1,4*
G04 #@! TO.N,Net-(J1-Pad4)*
X103820000Y-115030000D03*
G04 #@! TO.P,J1,3*
G04 #@! TO.N,Net-(J1-Pad3)*
X103820000Y-112490000D03*
G04 #@! TO.P,J1,2*
G04 #@! TO.N,+5V*
X106360000Y-115030000D03*
D18*
G04 #@! TO.P,J1,1*
X106360000Y-112490000D03*
G04 #@! TD*
D19*
G04 #@! TO.P,AudioIN-1,T*
G04 #@! TO.N,INR-*
X73660000Y-73890000D03*
G04 #@! TO.P,AudioIN-1,S*
G04 #@! TO.N,GND*
X60960000Y-73890000D03*
G04 #@! TO.P,AudioIN-1,SN*
X60960000Y-85320000D03*
G04 #@! TO.P,AudioIN-1,TN*
X73660000Y-85320000D03*
G04 #@! TO.P,AudioIN-1,R*
G04 #@! TO.N,INR+*
X67310000Y-73890000D03*
G04 #@! TO.P,AudioIN-1,RN*
G04 #@! TO.N,GND*
X67310000Y-85320000D03*
G04 #@! TD*
G04 #@! TO.P,AudioIN-2,RN*
G04 #@! TO.N,GND*
X67310000Y-67820000D03*
G04 #@! TO.P,AudioIN-2,R*
G04 #@! TO.N,INL+*
X67310000Y-56390000D03*
G04 #@! TO.P,AudioIN-2,TN*
G04 #@! TO.N,GND*
X73660000Y-67820000D03*
G04 #@! TO.P,AudioIN-2,SN*
X60960000Y-67820000D03*
G04 #@! TO.P,AudioIN-2,S*
X60960000Y-56390000D03*
G04 #@! TO.P,AudioIN-2,T*
G04 #@! TO.N,INL-*
X73660000Y-56390000D03*
G04 #@! TD*
G04 #@! TO.P,AudioOUT-1,RN*
G04 #@! TO.N,NOUTR+*
X67310000Y-120320000D03*
G04 #@! TO.P,AudioOUT-1,R*
G04 #@! TO.N,OUTR+*
X67310000Y-108890000D03*
G04 #@! TO.P,AudioOUT-1,TN*
G04 #@! TO.N,GND*
X73660000Y-120320000D03*
G04 #@! TO.P,AudioOUT-1,SN*
X60960000Y-120320000D03*
G04 #@! TO.P,AudioOUT-1,S*
X60960000Y-108890000D03*
G04 #@! TO.P,AudioOUT-1,T*
G04 #@! TO.N,OUTR-*
X73660000Y-108890000D03*
G04 #@! TD*
G04 #@! TO.P,AudioOUT-2,RN*
G04 #@! TO.N,NOUTL+*
X67310000Y-102820000D03*
G04 #@! TO.P,AudioOUT-2,R*
G04 #@! TO.N,OUTL+*
X67310000Y-91390000D03*
G04 #@! TO.P,AudioOUT-2,TN*
G04 #@! TO.N,GND*
X73660000Y-102820000D03*
G04 #@! TO.P,AudioOUT-2,SN*
X60960000Y-102820000D03*
G04 #@! TO.P,AudioOUT-2,S*
X60960000Y-91390000D03*
G04 #@! TO.P,AudioOUT-2,T*
G04 #@! TO.N,OUTL-*
X73660000Y-91390000D03*
G04 #@! TD*
D20*
G04 #@! TO.N,GND*
X97489999Y-116280001D02*
X98740000Y-115030000D01*
X92370001Y-116280001D02*
X97489999Y-116280001D01*
X91120000Y-115030000D02*
X92370001Y-116280001D01*
G04 #@! TO.N,INL-*
X94360000Y-111339998D02*
X94360000Y-109665024D01*
X93660000Y-115030000D02*
X94360000Y-114330000D01*
X94360000Y-114330000D02*
X94360000Y-113640002D01*
X94360000Y-113640002D02*
X94910001Y-113090001D01*
X94910001Y-113090001D02*
X94910001Y-111889999D01*
X94910001Y-111889999D02*
X94360000Y-111339998D01*
X94360000Y-109665024D02*
X78050000Y-93355024D01*
X78050000Y-93355024D02*
X78050000Y-65355024D01*
X78050000Y-65355024D02*
X74844976Y-62150000D01*
X73660000Y-61750050D02*
X73660000Y-56390000D01*
X74059950Y-62150000D02*
X73660000Y-61750050D01*
X74844976Y-62150000D02*
X74059950Y-62150000D01*
G04 #@! TO.N,INL+*
X93660000Y-112490000D02*
X93660000Y-109954976D01*
X93660000Y-109954976D02*
X77350000Y-93644976D01*
X77350000Y-93644976D02*
X77350000Y-65644976D01*
X77350000Y-65644976D02*
X74555024Y-62850000D01*
X73165026Y-62245026D02*
X67310000Y-56390000D01*
X74555024Y-62850000D02*
X73770000Y-62850000D01*
X73770000Y-62850000D02*
X73165026Y-62245026D01*
G04 #@! TO.N,NOUTR+*
X92857980Y-54757980D02*
X97800000Y-59700000D01*
X67310000Y-120320000D02*
X58100000Y-111110000D01*
X61200000Y-51600000D02*
X77400998Y-51600000D01*
X58100000Y-111110000D02*
X58100000Y-54700000D01*
X77400998Y-51600000D02*
X80558978Y-54757980D01*
X58100000Y-54700000D02*
X61200000Y-51600000D01*
X80558978Y-54757980D02*
X92857980Y-54757980D01*
G04 #@! TO.N,NOUTL+*
X98724999Y-60775001D02*
X99800000Y-59700000D01*
X94804999Y-60775001D02*
X98724999Y-60775001D01*
X94724999Y-60695001D02*
X94804999Y-60775001D01*
X94724999Y-59154863D02*
X94724999Y-60695001D01*
X90928126Y-55357990D02*
X94724999Y-59154863D01*
X79957990Y-55357990D02*
X90928126Y-55357990D01*
X78200000Y-53600000D02*
X79957990Y-55357990D01*
X64600000Y-53600000D02*
X78200000Y-53600000D01*
X64100000Y-54100000D02*
X64600000Y-53600000D01*
X64100000Y-99610000D02*
X64100000Y-54100000D01*
X67310000Y-102820000D02*
X64100000Y-99610000D01*
G04 #@! TO.N,PHONE-L*
X94267010Y-61375010D02*
X90400000Y-57508000D01*
X100124990Y-61375010D02*
X94267010Y-61375010D01*
X101800000Y-59700000D02*
X100124990Y-61375010D01*
G04 #@! TO.N,PHONE-R*
X82717019Y-61975019D02*
X80400000Y-59658000D01*
X80400000Y-59658000D02*
X80400000Y-57508000D01*
X101524981Y-61975019D02*
X82717019Y-61975019D01*
X103800000Y-59700000D02*
X101524981Y-61975019D01*
G04 #@! TD*
D21*
G04 #@! TO.N,GND*
X59126353Y-49575000D02*
X79086061Y-49575000D01*
X79045000Y-49781423D01*
X79045000Y-50032577D01*
X79093998Y-50278904D01*
X79190110Y-50510939D01*
X79329643Y-50719765D01*
X79507235Y-50897357D01*
X79716061Y-51036890D01*
X79948096Y-51133002D01*
X80169287Y-51177000D01*
X79948096Y-51220998D01*
X79716061Y-51317110D01*
X79507235Y-51456643D01*
X79329643Y-51634235D01*
X79190110Y-51843061D01*
X79093998Y-52075096D01*
X79087853Y-52105988D01*
X78020444Y-51038579D01*
X77994289Y-51006709D01*
X77867144Y-50902364D01*
X77722085Y-50824828D01*
X77564687Y-50777082D01*
X77442017Y-50765000D01*
X77442016Y-50765000D01*
X77400998Y-50760960D01*
X77359980Y-50765000D01*
X61241018Y-50765000D01*
X61199999Y-50760960D01*
X61054373Y-50775303D01*
X61036311Y-50777082D01*
X60878913Y-50824828D01*
X60733854Y-50902364D01*
X60606709Y-51006709D01*
X60580559Y-51038573D01*
X57538574Y-54080559D01*
X57506710Y-54106709D01*
X57435654Y-54193291D01*
X57402364Y-54233855D01*
X57324828Y-54378914D01*
X57277082Y-54536312D01*
X57260960Y-54700000D01*
X57265001Y-54741029D01*
X57265000Y-111068982D01*
X57260960Y-111110000D01*
X57267491Y-111176310D01*
X57277082Y-111273688D01*
X57324828Y-111431086D01*
X57402364Y-111576145D01*
X57506709Y-111703291D01*
X57538579Y-111729446D01*
X65330074Y-119520942D01*
X65257047Y-119697244D01*
X65175000Y-120109721D01*
X65175000Y-120530279D01*
X65257047Y-120942756D01*
X65417988Y-121331302D01*
X65651637Y-121680983D01*
X65949017Y-121978363D01*
X66288204Y-122205000D01*
X61970509Y-122205000D01*
X62116038Y-122127214D01*
X62272048Y-121811653D01*
X60960000Y-120499605D01*
X59647952Y-121811653D01*
X59803962Y-122127214D01*
X59956750Y-122205000D01*
X56845000Y-122205000D01*
X56845000Y-120362824D01*
X58815098Y-120362824D01*
X58864666Y-120780451D01*
X58994757Y-121180383D01*
X59152786Y-121476038D01*
X59468347Y-121632048D01*
X60780395Y-120320000D01*
X61139605Y-120320000D01*
X62451653Y-121632048D01*
X62767214Y-121476038D01*
X62958020Y-121101255D01*
X63072044Y-120696449D01*
X63104902Y-120277176D01*
X63055334Y-119859549D01*
X62925243Y-119459617D01*
X62767214Y-119163962D01*
X62451653Y-119007952D01*
X61139605Y-120320000D01*
X60780395Y-120320000D01*
X59468347Y-119007952D01*
X59152786Y-119163962D01*
X58961980Y-119538745D01*
X58847956Y-119943551D01*
X58815098Y-120362824D01*
X56845000Y-120362824D01*
X56845000Y-118828347D01*
X59647952Y-118828347D01*
X60960000Y-120140395D01*
X62272048Y-118828347D01*
X62116038Y-118512786D01*
X61741255Y-118321980D01*
X61336449Y-118207956D01*
X60917176Y-118175098D01*
X60499549Y-118224666D01*
X60099617Y-118354757D01*
X59803962Y-118512786D01*
X59647952Y-118828347D01*
X56845000Y-118828347D01*
X56845000Y-51856353D01*
X56835711Y-51762045D01*
X56867670Y-51436107D01*
X56999489Y-50999502D01*
X57213600Y-50596815D01*
X57501848Y-50243388D01*
X57853261Y-49952673D01*
X58254439Y-49735758D01*
X58690113Y-49600894D01*
X59028335Y-49565346D01*
X59126353Y-49575000D01*
G04 #@! TA.AperFunction,Conductor*
D22*
G36*
X59126353Y-49575000D02*
G01*
X79086061Y-49575000D01*
X79045000Y-49781423D01*
X79045000Y-50032577D01*
X79093998Y-50278904D01*
X79190110Y-50510939D01*
X79329643Y-50719765D01*
X79507235Y-50897357D01*
X79716061Y-51036890D01*
X79948096Y-51133002D01*
X80169287Y-51177000D01*
X79948096Y-51220998D01*
X79716061Y-51317110D01*
X79507235Y-51456643D01*
X79329643Y-51634235D01*
X79190110Y-51843061D01*
X79093998Y-52075096D01*
X79087853Y-52105988D01*
X78020444Y-51038579D01*
X77994289Y-51006709D01*
X77867144Y-50902364D01*
X77722085Y-50824828D01*
X77564687Y-50777082D01*
X77442017Y-50765000D01*
X77442016Y-50765000D01*
X77400998Y-50760960D01*
X77359980Y-50765000D01*
X61241018Y-50765000D01*
X61199999Y-50760960D01*
X61054373Y-50775303D01*
X61036311Y-50777082D01*
X60878913Y-50824828D01*
X60733854Y-50902364D01*
X60606709Y-51006709D01*
X60580559Y-51038573D01*
X57538574Y-54080559D01*
X57506710Y-54106709D01*
X57435654Y-54193291D01*
X57402364Y-54233855D01*
X57324828Y-54378914D01*
X57277082Y-54536312D01*
X57260960Y-54700000D01*
X57265001Y-54741029D01*
X57265000Y-111068982D01*
X57260960Y-111110000D01*
X57267491Y-111176310D01*
X57277082Y-111273688D01*
X57324828Y-111431086D01*
X57402364Y-111576145D01*
X57506709Y-111703291D01*
X57538579Y-111729446D01*
X65330074Y-119520942D01*
X65257047Y-119697244D01*
X65175000Y-120109721D01*
X65175000Y-120530279D01*
X65257047Y-120942756D01*
X65417988Y-121331302D01*
X65651637Y-121680983D01*
X65949017Y-121978363D01*
X66288204Y-122205000D01*
X61970509Y-122205000D01*
X62116038Y-122127214D01*
X62272048Y-121811653D01*
X60960000Y-120499605D01*
X59647952Y-121811653D01*
X59803962Y-122127214D01*
X59956750Y-122205000D01*
X56845000Y-122205000D01*
X56845000Y-120362824D01*
X58815098Y-120362824D01*
X58864666Y-120780451D01*
X58994757Y-121180383D01*
X59152786Y-121476038D01*
X59468347Y-121632048D01*
X60780395Y-120320000D01*
X61139605Y-120320000D01*
X62451653Y-121632048D01*
X62767214Y-121476038D01*
X62958020Y-121101255D01*
X63072044Y-120696449D01*
X63104902Y-120277176D01*
X63055334Y-119859549D01*
X62925243Y-119459617D01*
X62767214Y-119163962D01*
X62451653Y-119007952D01*
X61139605Y-120320000D01*
X60780395Y-120320000D01*
X59468347Y-119007952D01*
X59152786Y-119163962D01*
X58961980Y-119538745D01*
X58847956Y-119943551D01*
X58815098Y-120362824D01*
X56845000Y-120362824D01*
X56845000Y-118828347D01*
X59647952Y-118828347D01*
X60960000Y-120140395D01*
X62272048Y-118828347D01*
X62116038Y-118512786D01*
X61741255Y-118321980D01*
X61336449Y-118207956D01*
X60917176Y-118175098D01*
X60499549Y-118224666D01*
X60099617Y-118354757D01*
X59803962Y-118512786D01*
X59647952Y-118828347D01*
X56845000Y-118828347D01*
X56845000Y-51856353D01*
X56835711Y-51762045D01*
X56867670Y-51436107D01*
X56999489Y-50999502D01*
X57213600Y-50596815D01*
X57501848Y-50243388D01*
X57853261Y-49952673D01*
X58254439Y-49735758D01*
X58690113Y-49600894D01*
X59028335Y-49565346D01*
X59126353Y-49575000D01*
G37*
G04 #@! TD.AperFunction*
D21*
X89205000Y-49781423D02*
X89205000Y-50032577D01*
X89253998Y-50278904D01*
X89350110Y-50510939D01*
X89489643Y-50719765D01*
X89667235Y-50897357D01*
X89876061Y-51036890D01*
X90108096Y-51133002D01*
X90329287Y-51177000D01*
X90108096Y-51220998D01*
X89876061Y-51317110D01*
X89667235Y-51456643D01*
X89489643Y-51634235D01*
X89350110Y-51843061D01*
X89253998Y-52075096D01*
X89205000Y-52321423D01*
X89205000Y-52572577D01*
X89253998Y-52818904D01*
X89350110Y-53050939D01*
X89489643Y-53259765D01*
X89667235Y-53437357D01*
X89876061Y-53576890D01*
X90108096Y-53673002D01*
X90354423Y-53722000D01*
X90605577Y-53722000D01*
X90851904Y-53673002D01*
X91083939Y-53576890D01*
X91292765Y-53437357D01*
X91470357Y-53259765D01*
X91609890Y-53050939D01*
X91706002Y-52818904D01*
X91755000Y-52572577D01*
X91755000Y-52321423D01*
X91706002Y-52075096D01*
X91609890Y-51843061D01*
X91470357Y-51634235D01*
X91292765Y-51456643D01*
X91083939Y-51317110D01*
X90851904Y-51220998D01*
X90630713Y-51177000D01*
X90851904Y-51133002D01*
X91083939Y-51036890D01*
X91292765Y-50897357D01*
X91470357Y-50719765D01*
X91609890Y-50510939D01*
X91706002Y-50278904D01*
X91755000Y-50032577D01*
X91755000Y-49781423D01*
X91713939Y-49575000D01*
X93399928Y-49575000D01*
X93399928Y-50462000D01*
X93412188Y-50586482D01*
X93448498Y-50706180D01*
X93507463Y-50816494D01*
X93586815Y-50913185D01*
X93683506Y-50992537D01*
X93793820Y-51051502D01*
X93913518Y-51087812D01*
X94038000Y-51100072D01*
X95562000Y-51100072D01*
X95686482Y-51087812D01*
X95806180Y-51051502D01*
X95916494Y-50992537D01*
X96013185Y-50913185D01*
X96092537Y-50816494D01*
X96151502Y-50706180D01*
X96187812Y-50586482D01*
X96200072Y-50462000D01*
X96200072Y-49575000D01*
X103399928Y-49575000D01*
X103399928Y-50462000D01*
X103412188Y-50586482D01*
X103448498Y-50706180D01*
X103507463Y-50816494D01*
X103586815Y-50913185D01*
X103683506Y-50992537D01*
X103793820Y-51051502D01*
X103913518Y-51087812D01*
X104038000Y-51100072D01*
X105562000Y-51100072D01*
X105686482Y-51087812D01*
X105806180Y-51051502D01*
X105916494Y-50992537D01*
X106013185Y-50913185D01*
X106092537Y-50816494D01*
X106151502Y-50706180D01*
X106187812Y-50586482D01*
X106200072Y-50462000D01*
X106200072Y-49575000D01*
X107253573Y-49575000D01*
X106841399Y-49987174D01*
X106514727Y-50476072D01*
X106289712Y-51019308D01*
X106175000Y-51596003D01*
X106175000Y-52183997D01*
X106289712Y-52760692D01*
X106514727Y-53303928D01*
X106841399Y-53792826D01*
X107257174Y-54208601D01*
X107746072Y-54535273D01*
X108289308Y-54760288D01*
X108866003Y-54875000D01*
X109453997Y-54875000D01*
X110030692Y-54760288D01*
X110573928Y-54535273D01*
X111062826Y-54208601D01*
X111475000Y-53796427D01*
X111475001Y-117983574D01*
X111062826Y-117571399D01*
X110573928Y-117244727D01*
X110030692Y-117019712D01*
X109453997Y-116905000D01*
X108866003Y-116905000D01*
X108289308Y-117019712D01*
X107746072Y-117244727D01*
X107257174Y-117571399D01*
X106841399Y-117987174D01*
X106514727Y-118476072D01*
X106289712Y-119019308D01*
X106175000Y-119596003D01*
X106175000Y-120183997D01*
X106289712Y-120760692D01*
X106514727Y-121303928D01*
X106841399Y-121792826D01*
X107253573Y-122205000D01*
X74670509Y-122205000D01*
X74816038Y-122127214D01*
X74972048Y-121811653D01*
X73660000Y-120499605D01*
X72347952Y-121811653D01*
X72503962Y-122127214D01*
X72656750Y-122205000D01*
X68331796Y-122205000D01*
X68670983Y-121978363D01*
X68968363Y-121680983D01*
X69202012Y-121331302D01*
X69362953Y-120942756D01*
X69445000Y-120530279D01*
X69445000Y-120362824D01*
X71515098Y-120362824D01*
X71564666Y-120780451D01*
X71694757Y-121180383D01*
X71852786Y-121476038D01*
X72168347Y-121632048D01*
X73480395Y-120320000D01*
X73839605Y-120320000D01*
X75151653Y-121632048D01*
X75467214Y-121476038D01*
X75658020Y-121101255D01*
X75772044Y-120696449D01*
X75804902Y-120277176D01*
X75755334Y-119859549D01*
X75625243Y-119459617D01*
X75467214Y-119163962D01*
X75151653Y-119007952D01*
X73839605Y-120320000D01*
X73480395Y-120320000D01*
X72168347Y-119007952D01*
X71852786Y-119163962D01*
X71661980Y-119538745D01*
X71547956Y-119943551D01*
X71515098Y-120362824D01*
X69445000Y-120362824D01*
X69445000Y-120109721D01*
X69362953Y-119697244D01*
X69202012Y-119308698D01*
X68968363Y-118959017D01*
X68837693Y-118828347D01*
X72347952Y-118828347D01*
X73660000Y-120140395D01*
X74972048Y-118828347D01*
X74816038Y-118512786D01*
X74441255Y-118321980D01*
X74036449Y-118207956D01*
X73617176Y-118175098D01*
X73199549Y-118224666D01*
X72799617Y-118354757D01*
X72503962Y-118512786D01*
X72347952Y-118828347D01*
X68837693Y-118828347D01*
X68670983Y-118661637D01*
X68321302Y-118427988D01*
X67932756Y-118267047D01*
X67520279Y-118185000D01*
X67099721Y-118185000D01*
X66687244Y-118267047D01*
X66510942Y-118340074D01*
X60514608Y-112343740D01*
X82015000Y-112343740D01*
X82015000Y-112636260D01*
X82072068Y-112923158D01*
X82184010Y-113193411D01*
X82346525Y-113436632D01*
X82553368Y-113643475D01*
X82727760Y-113760000D01*
X82553368Y-113876525D01*
X82346525Y-114083368D01*
X82184010Y-114326589D01*
X82072068Y-114596842D01*
X82015000Y-114883740D01*
X82015000Y-115176260D01*
X82072068Y-115463158D01*
X82184010Y-115733411D01*
X82346525Y-115976632D01*
X82553368Y-116183475D01*
X82796589Y-116345990D01*
X83066842Y-116457932D01*
X83353740Y-116515000D01*
X83646260Y-116515000D01*
X83933158Y-116457932D01*
X84203411Y-116345990D01*
X84446632Y-116183475D01*
X84653475Y-115976632D01*
X84770000Y-115802240D01*
X84886525Y-115976632D01*
X85093368Y-116183475D01*
X85336589Y-116345990D01*
X85606842Y-116457932D01*
X85893740Y-116515000D01*
X86186260Y-116515000D01*
X86473158Y-116457932D01*
X86743411Y-116345990D01*
X86986632Y-116183475D01*
X87193475Y-115976632D01*
X87310000Y-115802240D01*
X87426525Y-115976632D01*
X87633368Y-116183475D01*
X87876589Y-116345990D01*
X88146842Y-116457932D01*
X88433740Y-116515000D01*
X88726260Y-116515000D01*
X89013158Y-116457932D01*
X89283411Y-116345990D01*
X89526632Y-116183475D01*
X89733475Y-115976632D01*
X89855195Y-115794466D01*
X89924822Y-115911355D01*
X90119731Y-116127588D01*
X90353080Y-116301641D01*
X90615901Y-116426825D01*
X90763110Y-116471476D01*
X90993000Y-116350155D01*
X90993000Y-115157000D01*
X90973000Y-115157000D01*
X90973000Y-114903000D01*
X90993000Y-114903000D01*
X90993000Y-112617000D01*
X90973000Y-112617000D01*
X90973000Y-112363000D01*
X90993000Y-112363000D01*
X90993000Y-111169845D01*
X90763110Y-111048524D01*
X90615901Y-111093175D01*
X90353080Y-111218359D01*
X90119731Y-111392412D01*
X89924822Y-111608645D01*
X89855195Y-111725534D01*
X89733475Y-111543368D01*
X89526632Y-111336525D01*
X89283411Y-111174010D01*
X89013158Y-111062068D01*
X88726260Y-111005000D01*
X88433740Y-111005000D01*
X88146842Y-111062068D01*
X87876589Y-111174010D01*
X87633368Y-111336525D01*
X87426525Y-111543368D01*
X87310000Y-111717760D01*
X87193475Y-111543368D01*
X86986632Y-111336525D01*
X86743411Y-111174010D01*
X86473158Y-111062068D01*
X86186260Y-111005000D01*
X85893740Y-111005000D01*
X85606842Y-111062068D01*
X85336589Y-111174010D01*
X85093368Y-111336525D01*
X84886525Y-111543368D01*
X84770000Y-111717760D01*
X84653475Y-111543368D01*
X84446632Y-111336525D01*
X84203411Y-111174010D01*
X83933158Y-111062068D01*
X83646260Y-111005000D01*
X83353740Y-111005000D01*
X83066842Y-111062068D01*
X82796589Y-111174010D01*
X82553368Y-111336525D01*
X82346525Y-111543368D01*
X82184010Y-111786589D01*
X82072068Y-112056842D01*
X82015000Y-112343740D01*
X60514608Y-112343740D01*
X58935000Y-110764133D01*
X58935000Y-110381653D01*
X59647952Y-110381653D01*
X59803962Y-110697214D01*
X60178745Y-110888020D01*
X60583551Y-111002044D01*
X61002824Y-111034902D01*
X61420451Y-110985334D01*
X61820383Y-110855243D01*
X62116038Y-110697214D01*
X62272048Y-110381653D01*
X60960000Y-109069605D01*
X59647952Y-110381653D01*
X58935000Y-110381653D01*
X58935000Y-109566675D01*
X58994757Y-109750383D01*
X59152786Y-110046038D01*
X59468347Y-110202048D01*
X60780395Y-108890000D01*
X61139605Y-108890000D01*
X62451653Y-110202048D01*
X62767214Y-110046038D01*
X62958020Y-109671255D01*
X63072044Y-109266449D01*
X63104902Y-108847176D01*
X63085027Y-108679721D01*
X65175000Y-108679721D01*
X65175000Y-109100279D01*
X65257047Y-109512756D01*
X65417988Y-109901302D01*
X65651637Y-110250983D01*
X65949017Y-110548363D01*
X66298698Y-110782012D01*
X66687244Y-110942953D01*
X67099721Y-111025000D01*
X67520279Y-111025000D01*
X67932756Y-110942953D01*
X68321302Y-110782012D01*
X68670983Y-110548363D01*
X68968363Y-110250983D01*
X69202012Y-109901302D01*
X69362953Y-109512756D01*
X69445000Y-109100279D01*
X69445000Y-108679721D01*
X71525000Y-108679721D01*
X71525000Y-109100279D01*
X71607047Y-109512756D01*
X71767988Y-109901302D01*
X72001637Y-110250983D01*
X72299017Y-110548363D01*
X72648698Y-110782012D01*
X73037244Y-110942953D01*
X73449721Y-111025000D01*
X73870279Y-111025000D01*
X74282756Y-110942953D01*
X74671302Y-110782012D01*
X75020983Y-110548363D01*
X75318363Y-110250983D01*
X75552012Y-109901302D01*
X75712953Y-109512756D01*
X75795000Y-109100279D01*
X75795000Y-108679721D01*
X75712953Y-108267244D01*
X75552012Y-107878698D01*
X75318363Y-107529017D01*
X75020983Y-107231637D01*
X74671302Y-106997988D01*
X74282756Y-106837047D01*
X73870279Y-106755000D01*
X73449721Y-106755000D01*
X73037244Y-106837047D01*
X72648698Y-106997988D01*
X72299017Y-107231637D01*
X72001637Y-107529017D01*
X71767988Y-107878698D01*
X71607047Y-108267244D01*
X71525000Y-108679721D01*
X69445000Y-108679721D01*
X69362953Y-108267244D01*
X69202012Y-107878698D01*
X68968363Y-107529017D01*
X68670983Y-107231637D01*
X68321302Y-106997988D01*
X67932756Y-106837047D01*
X67520279Y-106755000D01*
X67099721Y-106755000D01*
X66687244Y-106837047D01*
X66298698Y-106997988D01*
X65949017Y-107231637D01*
X65651637Y-107529017D01*
X65417988Y-107878698D01*
X65257047Y-108267244D01*
X65175000Y-108679721D01*
X63085027Y-108679721D01*
X63055334Y-108429549D01*
X62925243Y-108029617D01*
X62767214Y-107733962D01*
X62451653Y-107577952D01*
X61139605Y-108890000D01*
X60780395Y-108890000D01*
X59468347Y-107577952D01*
X59152786Y-107733962D01*
X58961980Y-108108745D01*
X58935000Y-108204529D01*
X58935000Y-107398347D01*
X59647952Y-107398347D01*
X60960000Y-108710395D01*
X62272048Y-107398347D01*
X62116038Y-107082786D01*
X61741255Y-106891980D01*
X61336449Y-106777956D01*
X60917176Y-106745098D01*
X60499549Y-106794666D01*
X60099617Y-106924757D01*
X59803962Y-107082786D01*
X59647952Y-107398347D01*
X58935000Y-107398347D01*
X58935000Y-104311653D01*
X59647952Y-104311653D01*
X59803962Y-104627214D01*
X60178745Y-104818020D01*
X60583551Y-104932044D01*
X61002824Y-104964902D01*
X61420451Y-104915334D01*
X61820383Y-104785243D01*
X62116038Y-104627214D01*
X62272048Y-104311653D01*
X60960000Y-102999605D01*
X59647952Y-104311653D01*
X58935000Y-104311653D01*
X58935000Y-103496675D01*
X58994757Y-103680383D01*
X59152786Y-103976038D01*
X59468347Y-104132048D01*
X60780395Y-102820000D01*
X61139605Y-102820000D01*
X62451653Y-104132048D01*
X62767214Y-103976038D01*
X62958020Y-103601255D01*
X63072044Y-103196449D01*
X63104902Y-102777176D01*
X63055334Y-102359549D01*
X62925243Y-101959617D01*
X62767214Y-101663962D01*
X62451653Y-101507952D01*
X61139605Y-102820000D01*
X60780395Y-102820000D01*
X59468347Y-101507952D01*
X59152786Y-101663962D01*
X58961980Y-102038745D01*
X58935000Y-102134529D01*
X58935000Y-101328347D01*
X59647952Y-101328347D01*
X60960000Y-102640395D01*
X62272048Y-101328347D01*
X62116038Y-101012786D01*
X61741255Y-100821980D01*
X61336449Y-100707956D01*
X60917176Y-100675098D01*
X60499549Y-100724666D01*
X60099617Y-100854757D01*
X59803962Y-101012786D01*
X59647952Y-101328347D01*
X58935000Y-101328347D01*
X58935000Y-92881653D01*
X59647952Y-92881653D01*
X59803962Y-93197214D01*
X60178745Y-93388020D01*
X60583551Y-93502044D01*
X61002824Y-93534902D01*
X61420451Y-93485334D01*
X61820383Y-93355243D01*
X62116038Y-93197214D01*
X62272048Y-92881653D01*
X60960000Y-91569605D01*
X59647952Y-92881653D01*
X58935000Y-92881653D01*
X58935000Y-92066675D01*
X58994757Y-92250383D01*
X59152786Y-92546038D01*
X59468347Y-92702048D01*
X60780395Y-91390000D01*
X61139605Y-91390000D01*
X62451653Y-92702048D01*
X62767214Y-92546038D01*
X62958020Y-92171255D01*
X63072044Y-91766449D01*
X63104902Y-91347176D01*
X63055334Y-90929549D01*
X62925243Y-90529617D01*
X62767214Y-90233962D01*
X62451653Y-90077952D01*
X61139605Y-91390000D01*
X60780395Y-91390000D01*
X59468347Y-90077952D01*
X59152786Y-90233962D01*
X58961980Y-90608745D01*
X58935000Y-90704529D01*
X58935000Y-89898347D01*
X59647952Y-89898347D01*
X60960000Y-91210395D01*
X62272048Y-89898347D01*
X62116038Y-89582786D01*
X61741255Y-89391980D01*
X61336449Y-89277956D01*
X60917176Y-89245098D01*
X60499549Y-89294666D01*
X60099617Y-89424757D01*
X59803962Y-89582786D01*
X59647952Y-89898347D01*
X58935000Y-89898347D01*
X58935000Y-86811653D01*
X59647952Y-86811653D01*
X59803962Y-87127214D01*
X60178745Y-87318020D01*
X60583551Y-87432044D01*
X61002824Y-87464902D01*
X61420451Y-87415334D01*
X61820383Y-87285243D01*
X62116038Y-87127214D01*
X62272048Y-86811653D01*
X60960000Y-85499605D01*
X59647952Y-86811653D01*
X58935000Y-86811653D01*
X58935000Y-85996675D01*
X58994757Y-86180383D01*
X59152786Y-86476038D01*
X59468347Y-86632048D01*
X60780395Y-85320000D01*
X61139605Y-85320000D01*
X62451653Y-86632048D01*
X62767214Y-86476038D01*
X62958020Y-86101255D01*
X63072044Y-85696449D01*
X63104902Y-85277176D01*
X63055334Y-84859549D01*
X62925243Y-84459617D01*
X62767214Y-84163962D01*
X62451653Y-84007952D01*
X61139605Y-85320000D01*
X60780395Y-85320000D01*
X59468347Y-84007952D01*
X59152786Y-84163962D01*
X58961980Y-84538745D01*
X58935000Y-84634529D01*
X58935000Y-83828347D01*
X59647952Y-83828347D01*
X60960000Y-85140395D01*
X62272048Y-83828347D01*
X62116038Y-83512786D01*
X61741255Y-83321980D01*
X61336449Y-83207956D01*
X60917176Y-83175098D01*
X60499549Y-83224666D01*
X60099617Y-83354757D01*
X59803962Y-83512786D01*
X59647952Y-83828347D01*
X58935000Y-83828347D01*
X58935000Y-75381653D01*
X59647952Y-75381653D01*
X59803962Y-75697214D01*
X60178745Y-75888020D01*
X60583551Y-76002044D01*
X61002824Y-76034902D01*
X61420451Y-75985334D01*
X61820383Y-75855243D01*
X62116038Y-75697214D01*
X62272048Y-75381653D01*
X60960000Y-74069605D01*
X59647952Y-75381653D01*
X58935000Y-75381653D01*
X58935000Y-74566675D01*
X58994757Y-74750383D01*
X59152786Y-75046038D01*
X59468347Y-75202048D01*
X60780395Y-73890000D01*
X61139605Y-73890000D01*
X62451653Y-75202048D01*
X62767214Y-75046038D01*
X62958020Y-74671255D01*
X63072044Y-74266449D01*
X63104902Y-73847176D01*
X63055334Y-73429549D01*
X62925243Y-73029617D01*
X62767214Y-72733962D01*
X62451653Y-72577952D01*
X61139605Y-73890000D01*
X60780395Y-73890000D01*
X59468347Y-72577952D01*
X59152786Y-72733962D01*
X58961980Y-73108745D01*
X58935000Y-73204529D01*
X58935000Y-72398347D01*
X59647952Y-72398347D01*
X60960000Y-73710395D01*
X62272048Y-72398347D01*
X62116038Y-72082786D01*
X61741255Y-71891980D01*
X61336449Y-71777956D01*
X60917176Y-71745098D01*
X60499549Y-71794666D01*
X60099617Y-71924757D01*
X59803962Y-72082786D01*
X59647952Y-72398347D01*
X58935000Y-72398347D01*
X58935000Y-69311653D01*
X59647952Y-69311653D01*
X59803962Y-69627214D01*
X60178745Y-69818020D01*
X60583551Y-69932044D01*
X61002824Y-69964902D01*
X61420451Y-69915334D01*
X61820383Y-69785243D01*
X62116038Y-69627214D01*
X62272048Y-69311653D01*
X60960000Y-67999605D01*
X59647952Y-69311653D01*
X58935000Y-69311653D01*
X58935000Y-68496675D01*
X58994757Y-68680383D01*
X59152786Y-68976038D01*
X59468347Y-69132048D01*
X60780395Y-67820000D01*
X61139605Y-67820000D01*
X62451653Y-69132048D01*
X62767214Y-68976038D01*
X62958020Y-68601255D01*
X63072044Y-68196449D01*
X63104902Y-67777176D01*
X63055334Y-67359549D01*
X62925243Y-66959617D01*
X62767214Y-66663962D01*
X62451653Y-66507952D01*
X61139605Y-67820000D01*
X60780395Y-67820000D01*
X59468347Y-66507952D01*
X59152786Y-66663962D01*
X58961980Y-67038745D01*
X58935000Y-67134529D01*
X58935000Y-66328347D01*
X59647952Y-66328347D01*
X60960000Y-67640395D01*
X62272048Y-66328347D01*
X62116038Y-66012786D01*
X61741255Y-65821980D01*
X61336449Y-65707956D01*
X60917176Y-65675098D01*
X60499549Y-65724666D01*
X60099617Y-65854757D01*
X59803962Y-66012786D01*
X59647952Y-66328347D01*
X58935000Y-66328347D01*
X58935000Y-57881653D01*
X59647952Y-57881653D01*
X59803962Y-58197214D01*
X60178745Y-58388020D01*
X60583551Y-58502044D01*
X61002824Y-58534902D01*
X61420451Y-58485334D01*
X61820383Y-58355243D01*
X62116038Y-58197214D01*
X62272048Y-57881653D01*
X60960000Y-56569605D01*
X59647952Y-57881653D01*
X58935000Y-57881653D01*
X58935000Y-57066675D01*
X58994757Y-57250383D01*
X59152786Y-57546038D01*
X59468347Y-57702048D01*
X60780395Y-56390000D01*
X61139605Y-56390000D01*
X62451653Y-57702048D01*
X62767214Y-57546038D01*
X62958020Y-57171255D01*
X63072044Y-56766449D01*
X63104902Y-56347176D01*
X63055334Y-55929549D01*
X62925243Y-55529617D01*
X62767214Y-55233962D01*
X62451653Y-55077952D01*
X61139605Y-56390000D01*
X60780395Y-56390000D01*
X59468347Y-55077952D01*
X59152786Y-55233962D01*
X58961980Y-55608745D01*
X58935000Y-55704529D01*
X58935000Y-55045867D01*
X59082520Y-54898347D01*
X59647952Y-54898347D01*
X60960000Y-56210395D01*
X62272048Y-54898347D01*
X62116038Y-54582786D01*
X61741255Y-54391980D01*
X61336449Y-54277956D01*
X60917176Y-54245098D01*
X60499549Y-54294666D01*
X60099617Y-54424757D01*
X59803962Y-54582786D01*
X59647952Y-54898347D01*
X59082520Y-54898347D01*
X61545868Y-52435000D01*
X77055131Y-52435000D01*
X77385131Y-52765000D01*
X64641018Y-52765000D01*
X64600000Y-52760960D01*
X64558982Y-52765000D01*
X64558981Y-52765000D01*
X64436311Y-52777082D01*
X64278913Y-52824828D01*
X64133854Y-52902364D01*
X64006709Y-53006709D01*
X63980558Y-53038574D01*
X63538574Y-53480559D01*
X63506710Y-53506709D01*
X63480562Y-53538571D01*
X63402364Y-53633855D01*
X63324828Y-53778914D01*
X63277082Y-53936312D01*
X63260960Y-54100000D01*
X63265001Y-54141029D01*
X63265000Y-99568982D01*
X63260960Y-99610000D01*
X63265000Y-99651018D01*
X63277082Y-99773688D01*
X63324828Y-99931086D01*
X63402364Y-100076145D01*
X63506709Y-100203291D01*
X63538579Y-100229446D01*
X65330074Y-102020942D01*
X65257047Y-102197244D01*
X65175000Y-102609721D01*
X65175000Y-103030279D01*
X65257047Y-103442756D01*
X65417988Y-103831302D01*
X65651637Y-104180983D01*
X65949017Y-104478363D01*
X66298698Y-104712012D01*
X66687244Y-104872953D01*
X67099721Y-104955000D01*
X67520279Y-104955000D01*
X67932756Y-104872953D01*
X68321302Y-104712012D01*
X68670983Y-104478363D01*
X68837693Y-104311653D01*
X72347952Y-104311653D01*
X72503962Y-104627214D01*
X72878745Y-104818020D01*
X73283551Y-104932044D01*
X73702824Y-104964902D01*
X74120451Y-104915334D01*
X74520383Y-104785243D01*
X74816038Y-104627214D01*
X74972048Y-104311653D01*
X73660000Y-102999605D01*
X72347952Y-104311653D01*
X68837693Y-104311653D01*
X68968363Y-104180983D01*
X69202012Y-103831302D01*
X69362953Y-103442756D01*
X69445000Y-103030279D01*
X69445000Y-102862824D01*
X71515098Y-102862824D01*
X71564666Y-103280451D01*
X71694757Y-103680383D01*
X71852786Y-103976038D01*
X72168347Y-104132048D01*
X73480395Y-102820000D01*
X73839605Y-102820000D01*
X75151653Y-104132048D01*
X75467214Y-103976038D01*
X75658020Y-103601255D01*
X75772044Y-103196449D01*
X75804902Y-102777176D01*
X75755334Y-102359549D01*
X75625243Y-101959617D01*
X75467214Y-101663962D01*
X75151653Y-101507952D01*
X73839605Y-102820000D01*
X73480395Y-102820000D01*
X72168347Y-101507952D01*
X71852786Y-101663962D01*
X71661980Y-102038745D01*
X71547956Y-102443551D01*
X71515098Y-102862824D01*
X69445000Y-102862824D01*
X69445000Y-102609721D01*
X69362953Y-102197244D01*
X69202012Y-101808698D01*
X68968363Y-101459017D01*
X68837693Y-101328347D01*
X72347952Y-101328347D01*
X73660000Y-102640395D01*
X74972048Y-101328347D01*
X74816038Y-101012786D01*
X74441255Y-100821980D01*
X74036449Y-100707956D01*
X73617176Y-100675098D01*
X73199549Y-100724666D01*
X72799617Y-100854757D01*
X72503962Y-101012786D01*
X72347952Y-101328347D01*
X68837693Y-101328347D01*
X68670983Y-101161637D01*
X68321302Y-100927988D01*
X67932756Y-100767047D01*
X67520279Y-100685000D01*
X67099721Y-100685000D01*
X66687244Y-100767047D01*
X66510942Y-100840074D01*
X64935000Y-99264133D01*
X64935000Y-91179721D01*
X65175000Y-91179721D01*
X65175000Y-91600279D01*
X65257047Y-92012756D01*
X65417988Y-92401302D01*
X65651637Y-92750983D01*
X65949017Y-93048363D01*
X66298698Y-93282012D01*
X66687244Y-93442953D01*
X67099721Y-93525000D01*
X67520279Y-93525000D01*
X67932756Y-93442953D01*
X68321302Y-93282012D01*
X68670983Y-93048363D01*
X68968363Y-92750983D01*
X69202012Y-92401302D01*
X69362953Y-92012756D01*
X69445000Y-91600279D01*
X69445000Y-91179721D01*
X71525000Y-91179721D01*
X71525000Y-91600279D01*
X71607047Y-92012756D01*
X71767988Y-92401302D01*
X72001637Y-92750983D01*
X72299017Y-93048363D01*
X72648698Y-93282012D01*
X73037244Y-93442953D01*
X73449721Y-93525000D01*
X73870279Y-93525000D01*
X74282756Y-93442953D01*
X74671302Y-93282012D01*
X75020983Y-93048363D01*
X75318363Y-92750983D01*
X75552012Y-92401302D01*
X75712953Y-92012756D01*
X75795000Y-91600279D01*
X75795000Y-91179721D01*
X75712953Y-90767244D01*
X75552012Y-90378698D01*
X75318363Y-90029017D01*
X75020983Y-89731637D01*
X74671302Y-89497988D01*
X74282756Y-89337047D01*
X73870279Y-89255000D01*
X73449721Y-89255000D01*
X73037244Y-89337047D01*
X72648698Y-89497988D01*
X72299017Y-89731637D01*
X72001637Y-90029017D01*
X71767988Y-90378698D01*
X71607047Y-90767244D01*
X71525000Y-91179721D01*
X69445000Y-91179721D01*
X69362953Y-90767244D01*
X69202012Y-90378698D01*
X68968363Y-90029017D01*
X68670983Y-89731637D01*
X68321302Y-89497988D01*
X67932756Y-89337047D01*
X67520279Y-89255000D01*
X67099721Y-89255000D01*
X66687244Y-89337047D01*
X66298698Y-89497988D01*
X65949017Y-89731637D01*
X65651637Y-90029017D01*
X65417988Y-90378698D01*
X65257047Y-90767244D01*
X65175000Y-91179721D01*
X64935000Y-91179721D01*
X64935000Y-86811653D01*
X65997952Y-86811653D01*
X66153962Y-87127214D01*
X66528745Y-87318020D01*
X66933551Y-87432044D01*
X67352824Y-87464902D01*
X67770451Y-87415334D01*
X68170383Y-87285243D01*
X68466038Y-87127214D01*
X68622048Y-86811653D01*
X72347952Y-86811653D01*
X72503962Y-87127214D01*
X72878745Y-87318020D01*
X73283551Y-87432044D01*
X73702824Y-87464902D01*
X74120451Y-87415334D01*
X74520383Y-87285243D01*
X74816038Y-87127214D01*
X74972048Y-86811653D01*
X73660000Y-85499605D01*
X72347952Y-86811653D01*
X68622048Y-86811653D01*
X67310000Y-85499605D01*
X65997952Y-86811653D01*
X64935000Y-86811653D01*
X64935000Y-85362824D01*
X65165098Y-85362824D01*
X65214666Y-85780451D01*
X65344757Y-86180383D01*
X65502786Y-86476038D01*
X65818347Y-86632048D01*
X67130395Y-85320000D01*
X67489605Y-85320000D01*
X68801653Y-86632048D01*
X69117214Y-86476038D01*
X69308020Y-86101255D01*
X69422044Y-85696449D01*
X69448189Y-85362824D01*
X71515098Y-85362824D01*
X71564666Y-85780451D01*
X71694757Y-86180383D01*
X71852786Y-86476038D01*
X72168347Y-86632048D01*
X73480395Y-85320000D01*
X73839605Y-85320000D01*
X75151653Y-86632048D01*
X75467214Y-86476038D01*
X75658020Y-86101255D01*
X75772044Y-85696449D01*
X75804902Y-85277176D01*
X75755334Y-84859549D01*
X75625243Y-84459617D01*
X75467214Y-84163962D01*
X75151653Y-84007952D01*
X73839605Y-85320000D01*
X73480395Y-85320000D01*
X72168347Y-84007952D01*
X71852786Y-84163962D01*
X71661980Y-84538745D01*
X71547956Y-84943551D01*
X71515098Y-85362824D01*
X69448189Y-85362824D01*
X69454902Y-85277176D01*
X69405334Y-84859549D01*
X69275243Y-84459617D01*
X69117214Y-84163962D01*
X68801653Y-84007952D01*
X67489605Y-85320000D01*
X67130395Y-85320000D01*
X65818347Y-84007952D01*
X65502786Y-84163962D01*
X65311980Y-84538745D01*
X65197956Y-84943551D01*
X65165098Y-85362824D01*
X64935000Y-85362824D01*
X64935000Y-83828347D01*
X65997952Y-83828347D01*
X67310000Y-85140395D01*
X68622048Y-83828347D01*
X72347952Y-83828347D01*
X73660000Y-85140395D01*
X74972048Y-83828347D01*
X74816038Y-83512786D01*
X74441255Y-83321980D01*
X74036449Y-83207956D01*
X73617176Y-83175098D01*
X73199549Y-83224666D01*
X72799617Y-83354757D01*
X72503962Y-83512786D01*
X72347952Y-83828347D01*
X68622048Y-83828347D01*
X68466038Y-83512786D01*
X68091255Y-83321980D01*
X67686449Y-83207956D01*
X67267176Y-83175098D01*
X66849549Y-83224666D01*
X66449617Y-83354757D01*
X66153962Y-83512786D01*
X65997952Y-83828347D01*
X64935000Y-83828347D01*
X64935000Y-73679721D01*
X65175000Y-73679721D01*
X65175000Y-74100279D01*
X65257047Y-74512756D01*
X65417988Y-74901302D01*
X65651637Y-75250983D01*
X65949017Y-75548363D01*
X66298698Y-75782012D01*
X66687244Y-75942953D01*
X67099721Y-76025000D01*
X67520279Y-76025000D01*
X67932756Y-75942953D01*
X68321302Y-75782012D01*
X68670983Y-75548363D01*
X68968363Y-75250983D01*
X69202012Y-74901302D01*
X69362953Y-74512756D01*
X69445000Y-74100279D01*
X69445000Y-73679721D01*
X71525000Y-73679721D01*
X71525000Y-74100279D01*
X71607047Y-74512756D01*
X71767988Y-74901302D01*
X72001637Y-75250983D01*
X72299017Y-75548363D01*
X72648698Y-75782012D01*
X73037244Y-75942953D01*
X73449721Y-76025000D01*
X73870279Y-76025000D01*
X74282756Y-75942953D01*
X74671302Y-75782012D01*
X75020983Y-75548363D01*
X75318363Y-75250983D01*
X75552012Y-74901302D01*
X75712953Y-74512756D01*
X75795000Y-74100279D01*
X75795000Y-73679721D01*
X75712953Y-73267244D01*
X75552012Y-72878698D01*
X75318363Y-72529017D01*
X75020983Y-72231637D01*
X74671302Y-71997988D01*
X74282756Y-71837047D01*
X73870279Y-71755000D01*
X73449721Y-71755000D01*
X73037244Y-71837047D01*
X72648698Y-71997988D01*
X72299017Y-72231637D01*
X72001637Y-72529017D01*
X71767988Y-72878698D01*
X71607047Y-73267244D01*
X71525000Y-73679721D01*
X69445000Y-73679721D01*
X69362953Y-73267244D01*
X69202012Y-72878698D01*
X68968363Y-72529017D01*
X68670983Y-72231637D01*
X68321302Y-71997988D01*
X67932756Y-71837047D01*
X67520279Y-71755000D01*
X67099721Y-71755000D01*
X66687244Y-71837047D01*
X66298698Y-71997988D01*
X65949017Y-72231637D01*
X65651637Y-72529017D01*
X65417988Y-72878698D01*
X65257047Y-73267244D01*
X65175000Y-73679721D01*
X64935000Y-73679721D01*
X64935000Y-69311653D01*
X65997952Y-69311653D01*
X66153962Y-69627214D01*
X66528745Y-69818020D01*
X66933551Y-69932044D01*
X67352824Y-69964902D01*
X67770451Y-69915334D01*
X68170383Y-69785243D01*
X68466038Y-69627214D01*
X68622048Y-69311653D01*
X72347952Y-69311653D01*
X72503962Y-69627214D01*
X72878745Y-69818020D01*
X73283551Y-69932044D01*
X73702824Y-69964902D01*
X74120451Y-69915334D01*
X74520383Y-69785243D01*
X74816038Y-69627214D01*
X74972048Y-69311653D01*
X73660000Y-67999605D01*
X72347952Y-69311653D01*
X68622048Y-69311653D01*
X67310000Y-67999605D01*
X65997952Y-69311653D01*
X64935000Y-69311653D01*
X64935000Y-67862824D01*
X65165098Y-67862824D01*
X65214666Y-68280451D01*
X65344757Y-68680383D01*
X65502786Y-68976038D01*
X65818347Y-69132048D01*
X67130395Y-67820000D01*
X67489605Y-67820000D01*
X68801653Y-69132048D01*
X69117214Y-68976038D01*
X69308020Y-68601255D01*
X69422044Y-68196449D01*
X69448189Y-67862824D01*
X71515098Y-67862824D01*
X71564666Y-68280451D01*
X71694757Y-68680383D01*
X71852786Y-68976038D01*
X72168347Y-69132048D01*
X73480395Y-67820000D01*
X73839605Y-67820000D01*
X75151653Y-69132048D01*
X75467214Y-68976038D01*
X75658020Y-68601255D01*
X75772044Y-68196449D01*
X75804902Y-67777176D01*
X75755334Y-67359549D01*
X75625243Y-66959617D01*
X75467214Y-66663962D01*
X75151653Y-66507952D01*
X73839605Y-67820000D01*
X73480395Y-67820000D01*
X72168347Y-66507952D01*
X71852786Y-66663962D01*
X71661980Y-67038745D01*
X71547956Y-67443551D01*
X71515098Y-67862824D01*
X69448189Y-67862824D01*
X69454902Y-67777176D01*
X69405334Y-67359549D01*
X69275243Y-66959617D01*
X69117214Y-66663962D01*
X68801653Y-66507952D01*
X67489605Y-67820000D01*
X67130395Y-67820000D01*
X65818347Y-66507952D01*
X65502786Y-66663962D01*
X65311980Y-67038745D01*
X65197956Y-67443551D01*
X65165098Y-67862824D01*
X64935000Y-67862824D01*
X64935000Y-66328347D01*
X65997952Y-66328347D01*
X67310000Y-67640395D01*
X68622048Y-66328347D01*
X72347952Y-66328347D01*
X73660000Y-67640395D01*
X74972048Y-66328347D01*
X74816038Y-66012786D01*
X74441255Y-65821980D01*
X74036449Y-65707956D01*
X73617176Y-65675098D01*
X73199549Y-65724666D01*
X72799617Y-65854757D01*
X72503962Y-66012786D01*
X72347952Y-66328347D01*
X68622048Y-66328347D01*
X68466038Y-66012786D01*
X68091255Y-65821980D01*
X67686449Y-65707956D01*
X67267176Y-65675098D01*
X66849549Y-65724666D01*
X66449617Y-65854757D01*
X66153962Y-66012786D01*
X65997952Y-66328347D01*
X64935000Y-66328347D01*
X64935000Y-54445867D01*
X64945868Y-54435000D01*
X66450765Y-54435000D01*
X66298698Y-54497988D01*
X65949017Y-54731637D01*
X65651637Y-55029017D01*
X65417988Y-55378698D01*
X65257047Y-55767244D01*
X65175000Y-56179721D01*
X65175000Y-56600279D01*
X65257047Y-57012756D01*
X65417988Y-57401302D01*
X65651637Y-57750983D01*
X65949017Y-58048363D01*
X66298698Y-58282012D01*
X66687244Y-58442953D01*
X67099721Y-58525000D01*
X67520279Y-58525000D01*
X67932756Y-58442953D01*
X68109059Y-58369926D01*
X72603596Y-62864464D01*
X72603601Y-62864468D01*
X73150558Y-63411426D01*
X73176709Y-63443291D01*
X73303854Y-63547636D01*
X73448913Y-63625172D01*
X73606311Y-63672918D01*
X73728981Y-63685000D01*
X73728991Y-63685000D01*
X73769999Y-63689039D01*
X73811007Y-63685000D01*
X74209157Y-63685000D01*
X76515001Y-65990845D01*
X76515000Y-93603958D01*
X76510960Y-93644976D01*
X76515000Y-93685994D01*
X76527082Y-93808664D01*
X76574828Y-93966062D01*
X76652364Y-94111121D01*
X76756709Y-94238267D01*
X76788579Y-94264422D01*
X92825001Y-110300845D01*
X92825000Y-111261935D01*
X92713368Y-111336525D01*
X92506525Y-111543368D01*
X92384805Y-111725534D01*
X92315178Y-111608645D01*
X92120269Y-111392412D01*
X91886920Y-111218359D01*
X91624099Y-111093175D01*
X91476890Y-111048524D01*
X91247000Y-111169845D01*
X91247000Y-112363000D01*
X91267000Y-112363000D01*
X91267000Y-112617000D01*
X91247000Y-112617000D01*
X91247000Y-114903000D01*
X91267000Y-114903000D01*
X91267000Y-115157000D01*
X91247000Y-115157000D01*
X91247000Y-116350155D01*
X91476890Y-116471476D01*
X91624099Y-116426825D01*
X91886920Y-116301641D01*
X92120269Y-116127588D01*
X92315178Y-115911355D01*
X92384805Y-115794466D01*
X92506525Y-115976632D01*
X92713368Y-116183475D01*
X92956589Y-116345990D01*
X93226842Y-116457932D01*
X93513740Y-116515000D01*
X93806260Y-116515000D01*
X94093158Y-116457932D01*
X94363411Y-116345990D01*
X94606632Y-116183475D01*
X94813475Y-115976632D01*
X94930000Y-115802240D01*
X95046525Y-115976632D01*
X95253368Y-116183475D01*
X95496589Y-116345990D01*
X95766842Y-116457932D01*
X96053740Y-116515000D01*
X96346260Y-116515000D01*
X96633158Y-116457932D01*
X96903411Y-116345990D01*
X97146632Y-116183475D01*
X97353475Y-115976632D01*
X97475195Y-115794466D01*
X97544822Y-115911355D01*
X97739731Y-116127588D01*
X97973080Y-116301641D01*
X98235901Y-116426825D01*
X98383110Y-116471476D01*
X98613000Y-116350155D01*
X98613000Y-115157000D01*
X98593000Y-115157000D01*
X98593000Y-114903000D01*
X98613000Y-114903000D01*
X98613000Y-112617000D01*
X98593000Y-112617000D01*
X98593000Y-112363000D01*
X98613000Y-112363000D01*
X98613000Y-111169845D01*
X98867000Y-111169845D01*
X98867000Y-112363000D01*
X98887000Y-112363000D01*
X98887000Y-112617000D01*
X98867000Y-112617000D01*
X98867000Y-114903000D01*
X98887000Y-114903000D01*
X98887000Y-115157000D01*
X98867000Y-115157000D01*
X98867000Y-116350155D01*
X99096890Y-116471476D01*
X99244099Y-116426825D01*
X99506920Y-116301641D01*
X99740269Y-116127588D01*
X99935178Y-115911355D01*
X100004805Y-115794466D01*
X100126525Y-115976632D01*
X100333368Y-116183475D01*
X100576589Y-116345990D01*
X100846842Y-116457932D01*
X101133740Y-116515000D01*
X101426260Y-116515000D01*
X101713158Y-116457932D01*
X101983411Y-116345990D01*
X102226632Y-116183475D01*
X102433475Y-115976632D01*
X102550000Y-115802240D01*
X102666525Y-115976632D01*
X102873368Y-116183475D01*
X103116589Y-116345990D01*
X103386842Y-116457932D01*
X103673740Y-116515000D01*
X103966260Y-116515000D01*
X104253158Y-116457932D01*
X104523411Y-116345990D01*
X104766632Y-116183475D01*
X104973475Y-115976632D01*
X105090000Y-115802240D01*
X105206525Y-115976632D01*
X105413368Y-116183475D01*
X105656589Y-116345990D01*
X105926842Y-116457932D01*
X106213740Y-116515000D01*
X106506260Y-116515000D01*
X106793158Y-116457932D01*
X107063411Y-116345990D01*
X107306632Y-116183475D01*
X107513475Y-115976632D01*
X107675990Y-115733411D01*
X107787932Y-115463158D01*
X107845000Y-115176260D01*
X107845000Y-114883740D01*
X107787932Y-114596842D01*
X107675990Y-114326589D01*
X107513475Y-114083368D01*
X107381620Y-113951513D01*
X107454180Y-113929502D01*
X107564494Y-113870537D01*
X107661185Y-113791185D01*
X107740537Y-113694494D01*
X107799502Y-113584180D01*
X107835812Y-113464482D01*
X107848072Y-113340000D01*
X107848072Y-111640000D01*
X107835812Y-111515518D01*
X107799502Y-111395820D01*
X107740537Y-111285506D01*
X107661185Y-111188815D01*
X107564494Y-111109463D01*
X107454180Y-111050498D01*
X107334482Y-111014188D01*
X107210000Y-111001928D01*
X105510000Y-111001928D01*
X105385518Y-111014188D01*
X105265820Y-111050498D01*
X105155506Y-111109463D01*
X105058815Y-111188815D01*
X104979463Y-111285506D01*
X104920498Y-111395820D01*
X104898487Y-111468380D01*
X104766632Y-111336525D01*
X104523411Y-111174010D01*
X104253158Y-111062068D01*
X103966260Y-111005000D01*
X103673740Y-111005000D01*
X103386842Y-111062068D01*
X103116589Y-111174010D01*
X102873368Y-111336525D01*
X102666525Y-111543368D01*
X102550000Y-111717760D01*
X102433475Y-111543368D01*
X102226632Y-111336525D01*
X101983411Y-111174010D01*
X101713158Y-111062068D01*
X101426260Y-111005000D01*
X101133740Y-111005000D01*
X100846842Y-111062068D01*
X100576589Y-111174010D01*
X100333368Y-111336525D01*
X100126525Y-111543368D01*
X100004805Y-111725534D01*
X99935178Y-111608645D01*
X99740269Y-111392412D01*
X99506920Y-111218359D01*
X99244099Y-111093175D01*
X99096890Y-111048524D01*
X98867000Y-111169845D01*
X98613000Y-111169845D01*
X98383110Y-111048524D01*
X98235901Y-111093175D01*
X97973080Y-111218359D01*
X97739731Y-111392412D01*
X97544822Y-111608645D01*
X97475195Y-111725534D01*
X97353475Y-111543368D01*
X97146632Y-111336525D01*
X96903411Y-111174010D01*
X96633158Y-111062068D01*
X96346260Y-111005000D01*
X96053740Y-111005000D01*
X95766842Y-111062068D01*
X95496589Y-111174010D01*
X95423630Y-111222760D01*
X95195000Y-110994131D01*
X95195000Y-109706042D01*
X95199040Y-109665023D01*
X95182918Y-109501335D01*
X95135172Y-109343937D01*
X95057636Y-109198878D01*
X94989567Y-109115936D01*
X94953291Y-109071733D01*
X94921427Y-109045583D01*
X78885000Y-93009157D01*
X78885000Y-65396031D01*
X78889039Y-65355023D01*
X78885000Y-65314015D01*
X78885000Y-65314005D01*
X78872918Y-65191335D01*
X78825172Y-65033937D01*
X78747636Y-64888878D01*
X78643291Y-64761733D01*
X78611427Y-64735583D01*
X75464422Y-61588579D01*
X75438267Y-61556709D01*
X75311122Y-61452364D01*
X75166063Y-61374828D01*
X75008665Y-61327082D01*
X74885995Y-61315000D01*
X74885994Y-61315000D01*
X74844976Y-61310960D01*
X74803958Y-61315000D01*
X74495000Y-61315000D01*
X74495000Y-58355039D01*
X74671302Y-58282012D01*
X75020983Y-58048363D01*
X75318363Y-57750983D01*
X75552012Y-57401302D01*
X75712953Y-57012756D01*
X75795000Y-56600279D01*
X75795000Y-56179721D01*
X75712953Y-55767244D01*
X75552012Y-55378698D01*
X75318363Y-55029017D01*
X75020983Y-54731637D01*
X74671302Y-54497988D01*
X74519235Y-54435000D01*
X77854133Y-54435000D01*
X79170300Y-55751168D01*
X79138406Y-55790031D01*
X78998192Y-56052353D01*
X78911849Y-56336989D01*
X78890000Y-56558823D01*
X78890000Y-58457178D01*
X78911850Y-58679012D01*
X78998193Y-58963648D01*
X79138407Y-59225970D01*
X79327104Y-59455897D01*
X79557031Y-59644594D01*
X79562018Y-59647260D01*
X79560960Y-59658000D01*
X79565000Y-59699018D01*
X79577082Y-59821688D01*
X79624828Y-59979086D01*
X79702364Y-60124145D01*
X79806709Y-60251291D01*
X79838579Y-60277446D01*
X82097582Y-62536451D01*
X82123728Y-62568310D01*
X82250873Y-62672655D01*
X82395932Y-62750191D01*
X82553330Y-62797937D01*
X82676000Y-62810019D01*
X82676001Y-62810019D01*
X82717019Y-62814059D01*
X82758037Y-62810019D01*
X101483963Y-62810019D01*
X101524981Y-62814059D01*
X101565999Y-62810019D01*
X101566000Y-62810019D01*
X101688670Y-62797937D01*
X101846068Y-62750191D01*
X101991127Y-62672655D01*
X102118272Y-62568310D01*
X102144427Y-62536440D01*
X103670886Y-61009982D01*
X103670976Y-61010000D01*
X103929024Y-61010000D01*
X104182113Y-60959658D01*
X104420518Y-60860907D01*
X104635077Y-60717544D01*
X104817544Y-60535077D01*
X104960907Y-60320518D01*
X105059658Y-60082113D01*
X105110000Y-59829024D01*
X105110000Y-59570976D01*
X105059658Y-59317887D01*
X104960907Y-59079482D01*
X104817544Y-58864923D01*
X104635077Y-58682456D01*
X104420518Y-58539093D01*
X104182113Y-58440342D01*
X103929024Y-58390000D01*
X103670976Y-58390000D01*
X103417887Y-58440342D01*
X103179482Y-58539093D01*
X102964923Y-58682456D01*
X102800000Y-58847379D01*
X102635077Y-58682456D01*
X102420518Y-58539093D01*
X102182113Y-58440342D01*
X101929024Y-58390000D01*
X101670976Y-58390000D01*
X101417887Y-58440342D01*
X101179482Y-58539093D01*
X100964923Y-58682456D01*
X100800000Y-58847379D01*
X100635077Y-58682456D01*
X100420518Y-58539093D01*
X100182113Y-58440342D01*
X99929024Y-58390000D01*
X99670976Y-58390000D01*
X99417887Y-58440342D01*
X99179482Y-58539093D01*
X98964923Y-58682456D01*
X98800000Y-58847379D01*
X98635077Y-58682456D01*
X98420518Y-58539093D01*
X98182113Y-58440342D01*
X97929024Y-58390000D01*
X97670976Y-58390000D01*
X97670887Y-58390018D01*
X93477426Y-54196559D01*
X93451271Y-54164689D01*
X93324126Y-54060344D01*
X93179067Y-53982808D01*
X93021669Y-53935062D01*
X92898999Y-53922980D01*
X92898998Y-53922980D01*
X92857980Y-53918940D01*
X92816962Y-53922980D01*
X87761707Y-53922980D01*
X87775812Y-53876482D01*
X87788072Y-53752000D01*
X87785000Y-52787750D01*
X87626250Y-52629000D01*
X85527000Y-52629000D01*
X85527000Y-52649000D01*
X85273000Y-52649000D01*
X85273000Y-52629000D01*
X83173750Y-52629000D01*
X83015000Y-52787750D01*
X83011928Y-53752000D01*
X83024188Y-53876482D01*
X83038293Y-53922980D01*
X80904846Y-53922980D01*
X80661013Y-53679147D01*
X80691904Y-53673002D01*
X80923939Y-53576890D01*
X81132765Y-53437357D01*
X81310357Y-53259765D01*
X81449890Y-53050939D01*
X81546002Y-52818904D01*
X81595000Y-52572577D01*
X81595000Y-52321423D01*
X81546002Y-52075096D01*
X81449890Y-51843061D01*
X81310357Y-51634235D01*
X81132765Y-51456643D01*
X80923939Y-51317110D01*
X80766750Y-51252000D01*
X83011928Y-51252000D01*
X83015000Y-52216250D01*
X83173750Y-52375000D01*
X85273000Y-52375000D01*
X85273000Y-50775750D01*
X85527000Y-50775750D01*
X85527000Y-52375000D01*
X87626250Y-52375000D01*
X87785000Y-52216250D01*
X87788072Y-51252000D01*
X87775812Y-51127518D01*
X87739502Y-51007820D01*
X87680537Y-50897506D01*
X87601185Y-50800815D01*
X87504494Y-50721463D01*
X87394180Y-50662498D01*
X87274482Y-50626188D01*
X87150000Y-50613928D01*
X85685750Y-50617000D01*
X85527000Y-50775750D01*
X85273000Y-50775750D01*
X85114250Y-50617000D01*
X83650000Y-50613928D01*
X83525518Y-50626188D01*
X83405820Y-50662498D01*
X83295506Y-50721463D01*
X83198815Y-50800815D01*
X83119463Y-50897506D01*
X83060498Y-51007820D01*
X83024188Y-51127518D01*
X83011928Y-51252000D01*
X80766750Y-51252000D01*
X80691904Y-51220998D01*
X80470713Y-51177000D01*
X80691904Y-51133002D01*
X80923939Y-51036890D01*
X81132765Y-50897357D01*
X81310357Y-50719765D01*
X81449890Y-50510939D01*
X81546002Y-50278904D01*
X81595000Y-50032577D01*
X81595000Y-49781423D01*
X81553939Y-49575000D01*
X89246061Y-49575000D01*
X89205000Y-49781423D01*
G04 #@! TA.AperFunction,Conductor*
D22*
G36*
X89205000Y-49781423D02*
G01*
X89205000Y-50032577D01*
X89253998Y-50278904D01*
X89350110Y-50510939D01*
X89489643Y-50719765D01*
X89667235Y-50897357D01*
X89876061Y-51036890D01*
X90108096Y-51133002D01*
X90329287Y-51177000D01*
X90108096Y-51220998D01*
X89876061Y-51317110D01*
X89667235Y-51456643D01*
X89489643Y-51634235D01*
X89350110Y-51843061D01*
X89253998Y-52075096D01*
X89205000Y-52321423D01*
X89205000Y-52572577D01*
X89253998Y-52818904D01*
X89350110Y-53050939D01*
X89489643Y-53259765D01*
X89667235Y-53437357D01*
X89876061Y-53576890D01*
X90108096Y-53673002D01*
X90354423Y-53722000D01*
X90605577Y-53722000D01*
X90851904Y-53673002D01*
X91083939Y-53576890D01*
X91292765Y-53437357D01*
X91470357Y-53259765D01*
X91609890Y-53050939D01*
X91706002Y-52818904D01*
X91755000Y-52572577D01*
X91755000Y-52321423D01*
X91706002Y-52075096D01*
X91609890Y-51843061D01*
X91470357Y-51634235D01*
X91292765Y-51456643D01*
X91083939Y-51317110D01*
X90851904Y-51220998D01*
X90630713Y-51177000D01*
X90851904Y-51133002D01*
X91083939Y-51036890D01*
X91292765Y-50897357D01*
X91470357Y-50719765D01*
X91609890Y-50510939D01*
X91706002Y-50278904D01*
X91755000Y-50032577D01*
X91755000Y-49781423D01*
X91713939Y-49575000D01*
X93399928Y-49575000D01*
X93399928Y-50462000D01*
X93412188Y-50586482D01*
X93448498Y-50706180D01*
X93507463Y-50816494D01*
X93586815Y-50913185D01*
X93683506Y-50992537D01*
X93793820Y-51051502D01*
X93913518Y-51087812D01*
X94038000Y-51100072D01*
X95562000Y-51100072D01*
X95686482Y-51087812D01*
X95806180Y-51051502D01*
X95916494Y-50992537D01*
X96013185Y-50913185D01*
X96092537Y-50816494D01*
X96151502Y-50706180D01*
X96187812Y-50586482D01*
X96200072Y-50462000D01*
X96200072Y-49575000D01*
X103399928Y-49575000D01*
X103399928Y-50462000D01*
X103412188Y-50586482D01*
X103448498Y-50706180D01*
X103507463Y-50816494D01*
X103586815Y-50913185D01*
X103683506Y-50992537D01*
X103793820Y-51051502D01*
X103913518Y-51087812D01*
X104038000Y-51100072D01*
X105562000Y-51100072D01*
X105686482Y-51087812D01*
X105806180Y-51051502D01*
X105916494Y-50992537D01*
X106013185Y-50913185D01*
X106092537Y-50816494D01*
X106151502Y-50706180D01*
X106187812Y-50586482D01*
X106200072Y-50462000D01*
X106200072Y-49575000D01*
X107253573Y-49575000D01*
X106841399Y-49987174D01*
X106514727Y-50476072D01*
X106289712Y-51019308D01*
X106175000Y-51596003D01*
X106175000Y-52183997D01*
X106289712Y-52760692D01*
X106514727Y-53303928D01*
X106841399Y-53792826D01*
X107257174Y-54208601D01*
X107746072Y-54535273D01*
X108289308Y-54760288D01*
X108866003Y-54875000D01*
X109453997Y-54875000D01*
X110030692Y-54760288D01*
X110573928Y-54535273D01*
X111062826Y-54208601D01*
X111475000Y-53796427D01*
X111475001Y-117983574D01*
X111062826Y-117571399D01*
X110573928Y-117244727D01*
X110030692Y-117019712D01*
X109453997Y-116905000D01*
X108866003Y-116905000D01*
X108289308Y-117019712D01*
X107746072Y-117244727D01*
X107257174Y-117571399D01*
X106841399Y-117987174D01*
X106514727Y-118476072D01*
X106289712Y-119019308D01*
X106175000Y-119596003D01*
X106175000Y-120183997D01*
X106289712Y-120760692D01*
X106514727Y-121303928D01*
X106841399Y-121792826D01*
X107253573Y-122205000D01*
X74670509Y-122205000D01*
X74816038Y-122127214D01*
X74972048Y-121811653D01*
X73660000Y-120499605D01*
X72347952Y-121811653D01*
X72503962Y-122127214D01*
X72656750Y-122205000D01*
X68331796Y-122205000D01*
X68670983Y-121978363D01*
X68968363Y-121680983D01*
X69202012Y-121331302D01*
X69362953Y-120942756D01*
X69445000Y-120530279D01*
X69445000Y-120362824D01*
X71515098Y-120362824D01*
X71564666Y-120780451D01*
X71694757Y-121180383D01*
X71852786Y-121476038D01*
X72168347Y-121632048D01*
X73480395Y-120320000D01*
X73839605Y-120320000D01*
X75151653Y-121632048D01*
X75467214Y-121476038D01*
X75658020Y-121101255D01*
X75772044Y-120696449D01*
X75804902Y-120277176D01*
X75755334Y-119859549D01*
X75625243Y-119459617D01*
X75467214Y-119163962D01*
X75151653Y-119007952D01*
X73839605Y-120320000D01*
X73480395Y-120320000D01*
X72168347Y-119007952D01*
X71852786Y-119163962D01*
X71661980Y-119538745D01*
X71547956Y-119943551D01*
X71515098Y-120362824D01*
X69445000Y-120362824D01*
X69445000Y-120109721D01*
X69362953Y-119697244D01*
X69202012Y-119308698D01*
X68968363Y-118959017D01*
X68837693Y-118828347D01*
X72347952Y-118828347D01*
X73660000Y-120140395D01*
X74972048Y-118828347D01*
X74816038Y-118512786D01*
X74441255Y-118321980D01*
X74036449Y-118207956D01*
X73617176Y-118175098D01*
X73199549Y-118224666D01*
X72799617Y-118354757D01*
X72503962Y-118512786D01*
X72347952Y-118828347D01*
X68837693Y-118828347D01*
X68670983Y-118661637D01*
X68321302Y-118427988D01*
X67932756Y-118267047D01*
X67520279Y-118185000D01*
X67099721Y-118185000D01*
X66687244Y-118267047D01*
X66510942Y-118340074D01*
X60514608Y-112343740D01*
X82015000Y-112343740D01*
X82015000Y-112636260D01*
X82072068Y-112923158D01*
X82184010Y-113193411D01*
X82346525Y-113436632D01*
X82553368Y-113643475D01*
X82727760Y-113760000D01*
X82553368Y-113876525D01*
X82346525Y-114083368D01*
X82184010Y-114326589D01*
X82072068Y-114596842D01*
X82015000Y-114883740D01*
X82015000Y-115176260D01*
X82072068Y-115463158D01*
X82184010Y-115733411D01*
X82346525Y-115976632D01*
X82553368Y-116183475D01*
X82796589Y-116345990D01*
X83066842Y-116457932D01*
X83353740Y-116515000D01*
X83646260Y-116515000D01*
X83933158Y-116457932D01*
X84203411Y-116345990D01*
X84446632Y-116183475D01*
X84653475Y-115976632D01*
X84770000Y-115802240D01*
X84886525Y-115976632D01*
X85093368Y-116183475D01*
X85336589Y-116345990D01*
X85606842Y-116457932D01*
X85893740Y-116515000D01*
X86186260Y-116515000D01*
X86473158Y-116457932D01*
X86743411Y-116345990D01*
X86986632Y-116183475D01*
X87193475Y-115976632D01*
X87310000Y-115802240D01*
X87426525Y-115976632D01*
X87633368Y-116183475D01*
X87876589Y-116345990D01*
X88146842Y-116457932D01*
X88433740Y-116515000D01*
X88726260Y-116515000D01*
X89013158Y-116457932D01*
X89283411Y-116345990D01*
X89526632Y-116183475D01*
X89733475Y-115976632D01*
X89855195Y-115794466D01*
X89924822Y-115911355D01*
X90119731Y-116127588D01*
X90353080Y-116301641D01*
X90615901Y-116426825D01*
X90763110Y-116471476D01*
X90993000Y-116350155D01*
X90993000Y-115157000D01*
X90973000Y-115157000D01*
X90973000Y-114903000D01*
X90993000Y-114903000D01*
X90993000Y-112617000D01*
X90973000Y-112617000D01*
X90973000Y-112363000D01*
X90993000Y-112363000D01*
X90993000Y-111169845D01*
X90763110Y-111048524D01*
X90615901Y-111093175D01*
X90353080Y-111218359D01*
X90119731Y-111392412D01*
X89924822Y-111608645D01*
X89855195Y-111725534D01*
X89733475Y-111543368D01*
X89526632Y-111336525D01*
X89283411Y-111174010D01*
X89013158Y-111062068D01*
X88726260Y-111005000D01*
X88433740Y-111005000D01*
X88146842Y-111062068D01*
X87876589Y-111174010D01*
X87633368Y-111336525D01*
X87426525Y-111543368D01*
X87310000Y-111717760D01*
X87193475Y-111543368D01*
X86986632Y-111336525D01*
X86743411Y-111174010D01*
X86473158Y-111062068D01*
X86186260Y-111005000D01*
X85893740Y-111005000D01*
X85606842Y-111062068D01*
X85336589Y-111174010D01*
X85093368Y-111336525D01*
X84886525Y-111543368D01*
X84770000Y-111717760D01*
X84653475Y-111543368D01*
X84446632Y-111336525D01*
X84203411Y-111174010D01*
X83933158Y-111062068D01*
X83646260Y-111005000D01*
X83353740Y-111005000D01*
X83066842Y-111062068D01*
X82796589Y-111174010D01*
X82553368Y-111336525D01*
X82346525Y-111543368D01*
X82184010Y-111786589D01*
X82072068Y-112056842D01*
X82015000Y-112343740D01*
X60514608Y-112343740D01*
X58935000Y-110764133D01*
X58935000Y-110381653D01*
X59647952Y-110381653D01*
X59803962Y-110697214D01*
X60178745Y-110888020D01*
X60583551Y-111002044D01*
X61002824Y-111034902D01*
X61420451Y-110985334D01*
X61820383Y-110855243D01*
X62116038Y-110697214D01*
X62272048Y-110381653D01*
X60960000Y-109069605D01*
X59647952Y-110381653D01*
X58935000Y-110381653D01*
X58935000Y-109566675D01*
X58994757Y-109750383D01*
X59152786Y-110046038D01*
X59468347Y-110202048D01*
X60780395Y-108890000D01*
X61139605Y-108890000D01*
X62451653Y-110202048D01*
X62767214Y-110046038D01*
X62958020Y-109671255D01*
X63072044Y-109266449D01*
X63104902Y-108847176D01*
X63085027Y-108679721D01*
X65175000Y-108679721D01*
X65175000Y-109100279D01*
X65257047Y-109512756D01*
X65417988Y-109901302D01*
X65651637Y-110250983D01*
X65949017Y-110548363D01*
X66298698Y-110782012D01*
X66687244Y-110942953D01*
X67099721Y-111025000D01*
X67520279Y-111025000D01*
X67932756Y-110942953D01*
X68321302Y-110782012D01*
X68670983Y-110548363D01*
X68968363Y-110250983D01*
X69202012Y-109901302D01*
X69362953Y-109512756D01*
X69445000Y-109100279D01*
X69445000Y-108679721D01*
X71525000Y-108679721D01*
X71525000Y-109100279D01*
X71607047Y-109512756D01*
X71767988Y-109901302D01*
X72001637Y-110250983D01*
X72299017Y-110548363D01*
X72648698Y-110782012D01*
X73037244Y-110942953D01*
X73449721Y-111025000D01*
X73870279Y-111025000D01*
X74282756Y-110942953D01*
X74671302Y-110782012D01*
X75020983Y-110548363D01*
X75318363Y-110250983D01*
X75552012Y-109901302D01*
X75712953Y-109512756D01*
X75795000Y-109100279D01*
X75795000Y-108679721D01*
X75712953Y-108267244D01*
X75552012Y-107878698D01*
X75318363Y-107529017D01*
X75020983Y-107231637D01*
X74671302Y-106997988D01*
X74282756Y-106837047D01*
X73870279Y-106755000D01*
X73449721Y-106755000D01*
X73037244Y-106837047D01*
X72648698Y-106997988D01*
X72299017Y-107231637D01*
X72001637Y-107529017D01*
X71767988Y-107878698D01*
X71607047Y-108267244D01*
X71525000Y-108679721D01*
X69445000Y-108679721D01*
X69362953Y-108267244D01*
X69202012Y-107878698D01*
X68968363Y-107529017D01*
X68670983Y-107231637D01*
X68321302Y-106997988D01*
X67932756Y-106837047D01*
X67520279Y-106755000D01*
X67099721Y-106755000D01*
X66687244Y-106837047D01*
X66298698Y-106997988D01*
X65949017Y-107231637D01*
X65651637Y-107529017D01*
X65417988Y-107878698D01*
X65257047Y-108267244D01*
X65175000Y-108679721D01*
X63085027Y-108679721D01*
X63055334Y-108429549D01*
X62925243Y-108029617D01*
X62767214Y-107733962D01*
X62451653Y-107577952D01*
X61139605Y-108890000D01*
X60780395Y-108890000D01*
X59468347Y-107577952D01*
X59152786Y-107733962D01*
X58961980Y-108108745D01*
X58935000Y-108204529D01*
X58935000Y-107398347D01*
X59647952Y-107398347D01*
X60960000Y-108710395D01*
X62272048Y-107398347D01*
X62116038Y-107082786D01*
X61741255Y-106891980D01*
X61336449Y-106777956D01*
X60917176Y-106745098D01*
X60499549Y-106794666D01*
X60099617Y-106924757D01*
X59803962Y-107082786D01*
X59647952Y-107398347D01*
X58935000Y-107398347D01*
X58935000Y-104311653D01*
X59647952Y-104311653D01*
X59803962Y-104627214D01*
X60178745Y-104818020D01*
X60583551Y-104932044D01*
X61002824Y-104964902D01*
X61420451Y-104915334D01*
X61820383Y-104785243D01*
X62116038Y-104627214D01*
X62272048Y-104311653D01*
X60960000Y-102999605D01*
X59647952Y-104311653D01*
X58935000Y-104311653D01*
X58935000Y-103496675D01*
X58994757Y-103680383D01*
X59152786Y-103976038D01*
X59468347Y-104132048D01*
X60780395Y-102820000D01*
X61139605Y-102820000D01*
X62451653Y-104132048D01*
X62767214Y-103976038D01*
X62958020Y-103601255D01*
X63072044Y-103196449D01*
X63104902Y-102777176D01*
X63055334Y-102359549D01*
X62925243Y-101959617D01*
X62767214Y-101663962D01*
X62451653Y-101507952D01*
X61139605Y-102820000D01*
X60780395Y-102820000D01*
X59468347Y-101507952D01*
X59152786Y-101663962D01*
X58961980Y-102038745D01*
X58935000Y-102134529D01*
X58935000Y-101328347D01*
X59647952Y-101328347D01*
X60960000Y-102640395D01*
X62272048Y-101328347D01*
X62116038Y-101012786D01*
X61741255Y-100821980D01*
X61336449Y-100707956D01*
X60917176Y-100675098D01*
X60499549Y-100724666D01*
X60099617Y-100854757D01*
X59803962Y-101012786D01*
X59647952Y-101328347D01*
X58935000Y-101328347D01*
X58935000Y-92881653D01*
X59647952Y-92881653D01*
X59803962Y-93197214D01*
X60178745Y-93388020D01*
X60583551Y-93502044D01*
X61002824Y-93534902D01*
X61420451Y-93485334D01*
X61820383Y-93355243D01*
X62116038Y-93197214D01*
X62272048Y-92881653D01*
X60960000Y-91569605D01*
X59647952Y-92881653D01*
X58935000Y-92881653D01*
X58935000Y-92066675D01*
X58994757Y-92250383D01*
X59152786Y-92546038D01*
X59468347Y-92702048D01*
X60780395Y-91390000D01*
X61139605Y-91390000D01*
X62451653Y-92702048D01*
X62767214Y-92546038D01*
X62958020Y-92171255D01*
X63072044Y-91766449D01*
X63104902Y-91347176D01*
X63055334Y-90929549D01*
X62925243Y-90529617D01*
X62767214Y-90233962D01*
X62451653Y-90077952D01*
X61139605Y-91390000D01*
X60780395Y-91390000D01*
X59468347Y-90077952D01*
X59152786Y-90233962D01*
X58961980Y-90608745D01*
X58935000Y-90704529D01*
X58935000Y-89898347D01*
X59647952Y-89898347D01*
X60960000Y-91210395D01*
X62272048Y-89898347D01*
X62116038Y-89582786D01*
X61741255Y-89391980D01*
X61336449Y-89277956D01*
X60917176Y-89245098D01*
X60499549Y-89294666D01*
X60099617Y-89424757D01*
X59803962Y-89582786D01*
X59647952Y-89898347D01*
X58935000Y-89898347D01*
X58935000Y-86811653D01*
X59647952Y-86811653D01*
X59803962Y-87127214D01*
X60178745Y-87318020D01*
X60583551Y-87432044D01*
X61002824Y-87464902D01*
X61420451Y-87415334D01*
X61820383Y-87285243D01*
X62116038Y-87127214D01*
X62272048Y-86811653D01*
X60960000Y-85499605D01*
X59647952Y-86811653D01*
X58935000Y-86811653D01*
X58935000Y-85996675D01*
X58994757Y-86180383D01*
X59152786Y-86476038D01*
X59468347Y-86632048D01*
X60780395Y-85320000D01*
X61139605Y-85320000D01*
X62451653Y-86632048D01*
X62767214Y-86476038D01*
X62958020Y-86101255D01*
X63072044Y-85696449D01*
X63104902Y-85277176D01*
X63055334Y-84859549D01*
X62925243Y-84459617D01*
X62767214Y-84163962D01*
X62451653Y-84007952D01*
X61139605Y-85320000D01*
X60780395Y-85320000D01*
X59468347Y-84007952D01*
X59152786Y-84163962D01*
X58961980Y-84538745D01*
X58935000Y-84634529D01*
X58935000Y-83828347D01*
X59647952Y-83828347D01*
X60960000Y-85140395D01*
X62272048Y-83828347D01*
X62116038Y-83512786D01*
X61741255Y-83321980D01*
X61336449Y-83207956D01*
X60917176Y-83175098D01*
X60499549Y-83224666D01*
X60099617Y-83354757D01*
X59803962Y-83512786D01*
X59647952Y-83828347D01*
X58935000Y-83828347D01*
X58935000Y-75381653D01*
X59647952Y-75381653D01*
X59803962Y-75697214D01*
X60178745Y-75888020D01*
X60583551Y-76002044D01*
X61002824Y-76034902D01*
X61420451Y-75985334D01*
X61820383Y-75855243D01*
X62116038Y-75697214D01*
X62272048Y-75381653D01*
X60960000Y-74069605D01*
X59647952Y-75381653D01*
X58935000Y-75381653D01*
X58935000Y-74566675D01*
X58994757Y-74750383D01*
X59152786Y-75046038D01*
X59468347Y-75202048D01*
X60780395Y-73890000D01*
X61139605Y-73890000D01*
X62451653Y-75202048D01*
X62767214Y-75046038D01*
X62958020Y-74671255D01*
X63072044Y-74266449D01*
X63104902Y-73847176D01*
X63055334Y-73429549D01*
X62925243Y-73029617D01*
X62767214Y-72733962D01*
X62451653Y-72577952D01*
X61139605Y-73890000D01*
X60780395Y-73890000D01*
X59468347Y-72577952D01*
X59152786Y-72733962D01*
X58961980Y-73108745D01*
X58935000Y-73204529D01*
X58935000Y-72398347D01*
X59647952Y-72398347D01*
X60960000Y-73710395D01*
X62272048Y-72398347D01*
X62116038Y-72082786D01*
X61741255Y-71891980D01*
X61336449Y-71777956D01*
X60917176Y-71745098D01*
X60499549Y-71794666D01*
X60099617Y-71924757D01*
X59803962Y-72082786D01*
X59647952Y-72398347D01*
X58935000Y-72398347D01*
X58935000Y-69311653D01*
X59647952Y-69311653D01*
X59803962Y-69627214D01*
X60178745Y-69818020D01*
X60583551Y-69932044D01*
X61002824Y-69964902D01*
X61420451Y-69915334D01*
X61820383Y-69785243D01*
X62116038Y-69627214D01*
X62272048Y-69311653D01*
X60960000Y-67999605D01*
X59647952Y-69311653D01*
X58935000Y-69311653D01*
X58935000Y-68496675D01*
X58994757Y-68680383D01*
X59152786Y-68976038D01*
X59468347Y-69132048D01*
X60780395Y-67820000D01*
X61139605Y-67820000D01*
X62451653Y-69132048D01*
X62767214Y-68976038D01*
X62958020Y-68601255D01*
X63072044Y-68196449D01*
X63104902Y-67777176D01*
X63055334Y-67359549D01*
X62925243Y-66959617D01*
X62767214Y-66663962D01*
X62451653Y-66507952D01*
X61139605Y-67820000D01*
X60780395Y-67820000D01*
X59468347Y-66507952D01*
X59152786Y-66663962D01*
X58961980Y-67038745D01*
X58935000Y-67134529D01*
X58935000Y-66328347D01*
X59647952Y-66328347D01*
X60960000Y-67640395D01*
X62272048Y-66328347D01*
X62116038Y-66012786D01*
X61741255Y-65821980D01*
X61336449Y-65707956D01*
X60917176Y-65675098D01*
X60499549Y-65724666D01*
X60099617Y-65854757D01*
X59803962Y-66012786D01*
X59647952Y-66328347D01*
X58935000Y-66328347D01*
X58935000Y-57881653D01*
X59647952Y-57881653D01*
X59803962Y-58197214D01*
X60178745Y-58388020D01*
X60583551Y-58502044D01*
X61002824Y-58534902D01*
X61420451Y-58485334D01*
X61820383Y-58355243D01*
X62116038Y-58197214D01*
X62272048Y-57881653D01*
X60960000Y-56569605D01*
X59647952Y-57881653D01*
X58935000Y-57881653D01*
X58935000Y-57066675D01*
X58994757Y-57250383D01*
X59152786Y-57546038D01*
X59468347Y-57702048D01*
X60780395Y-56390000D01*
X61139605Y-56390000D01*
X62451653Y-57702048D01*
X62767214Y-57546038D01*
X62958020Y-57171255D01*
X63072044Y-56766449D01*
X63104902Y-56347176D01*
X63055334Y-55929549D01*
X62925243Y-55529617D01*
X62767214Y-55233962D01*
X62451653Y-55077952D01*
X61139605Y-56390000D01*
X60780395Y-56390000D01*
X59468347Y-55077952D01*
X59152786Y-55233962D01*
X58961980Y-55608745D01*
X58935000Y-55704529D01*
X58935000Y-55045867D01*
X59082520Y-54898347D01*
X59647952Y-54898347D01*
X60960000Y-56210395D01*
X62272048Y-54898347D01*
X62116038Y-54582786D01*
X61741255Y-54391980D01*
X61336449Y-54277956D01*
X60917176Y-54245098D01*
X60499549Y-54294666D01*
X60099617Y-54424757D01*
X59803962Y-54582786D01*
X59647952Y-54898347D01*
X59082520Y-54898347D01*
X61545868Y-52435000D01*
X77055131Y-52435000D01*
X77385131Y-52765000D01*
X64641018Y-52765000D01*
X64600000Y-52760960D01*
X64558982Y-52765000D01*
X64558981Y-52765000D01*
X64436311Y-52777082D01*
X64278913Y-52824828D01*
X64133854Y-52902364D01*
X64006709Y-53006709D01*
X63980558Y-53038574D01*
X63538574Y-53480559D01*
X63506710Y-53506709D01*
X63480562Y-53538571D01*
X63402364Y-53633855D01*
X63324828Y-53778914D01*
X63277082Y-53936312D01*
X63260960Y-54100000D01*
X63265001Y-54141029D01*
X63265000Y-99568982D01*
X63260960Y-99610000D01*
X63265000Y-99651018D01*
X63277082Y-99773688D01*
X63324828Y-99931086D01*
X63402364Y-100076145D01*
X63506709Y-100203291D01*
X63538579Y-100229446D01*
X65330074Y-102020942D01*
X65257047Y-102197244D01*
X65175000Y-102609721D01*
X65175000Y-103030279D01*
X65257047Y-103442756D01*
X65417988Y-103831302D01*
X65651637Y-104180983D01*
X65949017Y-104478363D01*
X66298698Y-104712012D01*
X66687244Y-104872953D01*
X67099721Y-104955000D01*
X67520279Y-104955000D01*
X67932756Y-104872953D01*
X68321302Y-104712012D01*
X68670983Y-104478363D01*
X68837693Y-104311653D01*
X72347952Y-104311653D01*
X72503962Y-104627214D01*
X72878745Y-104818020D01*
X73283551Y-104932044D01*
X73702824Y-104964902D01*
X74120451Y-104915334D01*
X74520383Y-104785243D01*
X74816038Y-104627214D01*
X74972048Y-104311653D01*
X73660000Y-102999605D01*
X72347952Y-104311653D01*
X68837693Y-104311653D01*
X68968363Y-104180983D01*
X69202012Y-103831302D01*
X69362953Y-103442756D01*
X69445000Y-103030279D01*
X69445000Y-102862824D01*
X71515098Y-102862824D01*
X71564666Y-103280451D01*
X71694757Y-103680383D01*
X71852786Y-103976038D01*
X72168347Y-104132048D01*
X73480395Y-102820000D01*
X73839605Y-102820000D01*
X75151653Y-104132048D01*
X75467214Y-103976038D01*
X75658020Y-103601255D01*
X75772044Y-103196449D01*
X75804902Y-102777176D01*
X75755334Y-102359549D01*
X75625243Y-101959617D01*
X75467214Y-101663962D01*
X75151653Y-101507952D01*
X73839605Y-102820000D01*
X73480395Y-102820000D01*
X72168347Y-101507952D01*
X71852786Y-101663962D01*
X71661980Y-102038745D01*
X71547956Y-102443551D01*
X71515098Y-102862824D01*
X69445000Y-102862824D01*
X69445000Y-102609721D01*
X69362953Y-102197244D01*
X69202012Y-101808698D01*
X68968363Y-101459017D01*
X68837693Y-101328347D01*
X72347952Y-101328347D01*
X73660000Y-102640395D01*
X74972048Y-101328347D01*
X74816038Y-101012786D01*
X74441255Y-100821980D01*
X74036449Y-100707956D01*
X73617176Y-100675098D01*
X73199549Y-100724666D01*
X72799617Y-100854757D01*
X72503962Y-101012786D01*
X72347952Y-101328347D01*
X68837693Y-101328347D01*
X68670983Y-101161637D01*
X68321302Y-100927988D01*
X67932756Y-100767047D01*
X67520279Y-100685000D01*
X67099721Y-100685000D01*
X66687244Y-100767047D01*
X66510942Y-100840074D01*
X64935000Y-99264133D01*
X64935000Y-91179721D01*
X65175000Y-91179721D01*
X65175000Y-91600279D01*
X65257047Y-92012756D01*
X65417988Y-92401302D01*
X65651637Y-92750983D01*
X65949017Y-93048363D01*
X66298698Y-93282012D01*
X66687244Y-93442953D01*
X67099721Y-93525000D01*
X67520279Y-93525000D01*
X67932756Y-93442953D01*
X68321302Y-93282012D01*
X68670983Y-93048363D01*
X68968363Y-92750983D01*
X69202012Y-92401302D01*
X69362953Y-92012756D01*
X69445000Y-91600279D01*
X69445000Y-91179721D01*
X71525000Y-91179721D01*
X71525000Y-91600279D01*
X71607047Y-92012756D01*
X71767988Y-92401302D01*
X72001637Y-92750983D01*
X72299017Y-93048363D01*
X72648698Y-93282012D01*
X73037244Y-93442953D01*
X73449721Y-93525000D01*
X73870279Y-93525000D01*
X74282756Y-93442953D01*
X74671302Y-93282012D01*
X75020983Y-93048363D01*
X75318363Y-92750983D01*
X75552012Y-92401302D01*
X75712953Y-92012756D01*
X75795000Y-91600279D01*
X75795000Y-91179721D01*
X75712953Y-90767244D01*
X75552012Y-90378698D01*
X75318363Y-90029017D01*
X75020983Y-89731637D01*
X74671302Y-89497988D01*
X74282756Y-89337047D01*
X73870279Y-89255000D01*
X73449721Y-89255000D01*
X73037244Y-89337047D01*
X72648698Y-89497988D01*
X72299017Y-89731637D01*
X72001637Y-90029017D01*
X71767988Y-90378698D01*
X71607047Y-90767244D01*
X71525000Y-91179721D01*
X69445000Y-91179721D01*
X69362953Y-90767244D01*
X69202012Y-90378698D01*
X68968363Y-90029017D01*
X68670983Y-89731637D01*
X68321302Y-89497988D01*
X67932756Y-89337047D01*
X67520279Y-89255000D01*
X67099721Y-89255000D01*
X66687244Y-89337047D01*
X66298698Y-89497988D01*
X65949017Y-89731637D01*
X65651637Y-90029017D01*
X65417988Y-90378698D01*
X65257047Y-90767244D01*
X65175000Y-91179721D01*
X64935000Y-91179721D01*
X64935000Y-86811653D01*
X65997952Y-86811653D01*
X66153962Y-87127214D01*
X66528745Y-87318020D01*
X66933551Y-87432044D01*
X67352824Y-87464902D01*
X67770451Y-87415334D01*
X68170383Y-87285243D01*
X68466038Y-87127214D01*
X68622048Y-86811653D01*
X72347952Y-86811653D01*
X72503962Y-87127214D01*
X72878745Y-87318020D01*
X73283551Y-87432044D01*
X73702824Y-87464902D01*
X74120451Y-87415334D01*
X74520383Y-87285243D01*
X74816038Y-87127214D01*
X74972048Y-86811653D01*
X73660000Y-85499605D01*
X72347952Y-86811653D01*
X68622048Y-86811653D01*
X67310000Y-85499605D01*
X65997952Y-86811653D01*
X64935000Y-86811653D01*
X64935000Y-85362824D01*
X65165098Y-85362824D01*
X65214666Y-85780451D01*
X65344757Y-86180383D01*
X65502786Y-86476038D01*
X65818347Y-86632048D01*
X67130395Y-85320000D01*
X67489605Y-85320000D01*
X68801653Y-86632048D01*
X69117214Y-86476038D01*
X69308020Y-86101255D01*
X69422044Y-85696449D01*
X69448189Y-85362824D01*
X71515098Y-85362824D01*
X71564666Y-85780451D01*
X71694757Y-86180383D01*
X71852786Y-86476038D01*
X72168347Y-86632048D01*
X73480395Y-85320000D01*
X73839605Y-85320000D01*
X75151653Y-86632048D01*
X75467214Y-86476038D01*
X75658020Y-86101255D01*
X75772044Y-85696449D01*
X75804902Y-85277176D01*
X75755334Y-84859549D01*
X75625243Y-84459617D01*
X75467214Y-84163962D01*
X75151653Y-84007952D01*
X73839605Y-85320000D01*
X73480395Y-85320000D01*
X72168347Y-84007952D01*
X71852786Y-84163962D01*
X71661980Y-84538745D01*
X71547956Y-84943551D01*
X71515098Y-85362824D01*
X69448189Y-85362824D01*
X69454902Y-85277176D01*
X69405334Y-84859549D01*
X69275243Y-84459617D01*
X69117214Y-84163962D01*
X68801653Y-84007952D01*
X67489605Y-85320000D01*
X67130395Y-85320000D01*
X65818347Y-84007952D01*
X65502786Y-84163962D01*
X65311980Y-84538745D01*
X65197956Y-84943551D01*
X65165098Y-85362824D01*
X64935000Y-85362824D01*
X64935000Y-83828347D01*
X65997952Y-83828347D01*
X67310000Y-85140395D01*
X68622048Y-83828347D01*
X72347952Y-83828347D01*
X73660000Y-85140395D01*
X74972048Y-83828347D01*
X74816038Y-83512786D01*
X74441255Y-83321980D01*
X74036449Y-83207956D01*
X73617176Y-83175098D01*
X73199549Y-83224666D01*
X72799617Y-83354757D01*
X72503962Y-83512786D01*
X72347952Y-83828347D01*
X68622048Y-83828347D01*
X68466038Y-83512786D01*
X68091255Y-83321980D01*
X67686449Y-83207956D01*
X67267176Y-83175098D01*
X66849549Y-83224666D01*
X66449617Y-83354757D01*
X66153962Y-83512786D01*
X65997952Y-83828347D01*
X64935000Y-83828347D01*
X64935000Y-73679721D01*
X65175000Y-73679721D01*
X65175000Y-74100279D01*
X65257047Y-74512756D01*
X65417988Y-74901302D01*
X65651637Y-75250983D01*
X65949017Y-75548363D01*
X66298698Y-75782012D01*
X66687244Y-75942953D01*
X67099721Y-76025000D01*
X67520279Y-76025000D01*
X67932756Y-75942953D01*
X68321302Y-75782012D01*
X68670983Y-75548363D01*
X68968363Y-75250983D01*
X69202012Y-74901302D01*
X69362953Y-74512756D01*
X69445000Y-74100279D01*
X69445000Y-73679721D01*
X71525000Y-73679721D01*
X71525000Y-74100279D01*
X71607047Y-74512756D01*
X71767988Y-74901302D01*
X72001637Y-75250983D01*
X72299017Y-75548363D01*
X72648698Y-75782012D01*
X73037244Y-75942953D01*
X73449721Y-76025000D01*
X73870279Y-76025000D01*
X74282756Y-75942953D01*
X74671302Y-75782012D01*
X75020983Y-75548363D01*
X75318363Y-75250983D01*
X75552012Y-74901302D01*
X75712953Y-74512756D01*
X75795000Y-74100279D01*
X75795000Y-73679721D01*
X75712953Y-73267244D01*
X75552012Y-72878698D01*
X75318363Y-72529017D01*
X75020983Y-72231637D01*
X74671302Y-71997988D01*
X74282756Y-71837047D01*
X73870279Y-71755000D01*
X73449721Y-71755000D01*
X73037244Y-71837047D01*
X72648698Y-71997988D01*
X72299017Y-72231637D01*
X72001637Y-72529017D01*
X71767988Y-72878698D01*
X71607047Y-73267244D01*
X71525000Y-73679721D01*
X69445000Y-73679721D01*
X69362953Y-73267244D01*
X69202012Y-72878698D01*
X68968363Y-72529017D01*
X68670983Y-72231637D01*
X68321302Y-71997988D01*
X67932756Y-71837047D01*
X67520279Y-71755000D01*
X67099721Y-71755000D01*
X66687244Y-71837047D01*
X66298698Y-71997988D01*
X65949017Y-72231637D01*
X65651637Y-72529017D01*
X65417988Y-72878698D01*
X65257047Y-73267244D01*
X65175000Y-73679721D01*
X64935000Y-73679721D01*
X64935000Y-69311653D01*
X65997952Y-69311653D01*
X66153962Y-69627214D01*
X66528745Y-69818020D01*
X66933551Y-69932044D01*
X67352824Y-69964902D01*
X67770451Y-69915334D01*
X68170383Y-69785243D01*
X68466038Y-69627214D01*
X68622048Y-69311653D01*
X72347952Y-69311653D01*
X72503962Y-69627214D01*
X72878745Y-69818020D01*
X73283551Y-69932044D01*
X73702824Y-69964902D01*
X74120451Y-69915334D01*
X74520383Y-69785243D01*
X74816038Y-69627214D01*
X74972048Y-69311653D01*
X73660000Y-67999605D01*
X72347952Y-69311653D01*
X68622048Y-69311653D01*
X67310000Y-67999605D01*
X65997952Y-69311653D01*
X64935000Y-69311653D01*
X64935000Y-67862824D01*
X65165098Y-67862824D01*
X65214666Y-68280451D01*
X65344757Y-68680383D01*
X65502786Y-68976038D01*
X65818347Y-69132048D01*
X67130395Y-67820000D01*
X67489605Y-67820000D01*
X68801653Y-69132048D01*
X69117214Y-68976038D01*
X69308020Y-68601255D01*
X69422044Y-68196449D01*
X69448189Y-67862824D01*
X71515098Y-67862824D01*
X71564666Y-68280451D01*
X71694757Y-68680383D01*
X71852786Y-68976038D01*
X72168347Y-69132048D01*
X73480395Y-67820000D01*
X73839605Y-67820000D01*
X75151653Y-69132048D01*
X75467214Y-68976038D01*
X75658020Y-68601255D01*
X75772044Y-68196449D01*
X75804902Y-67777176D01*
X75755334Y-67359549D01*
X75625243Y-66959617D01*
X75467214Y-66663962D01*
X75151653Y-66507952D01*
X73839605Y-67820000D01*
X73480395Y-67820000D01*
X72168347Y-66507952D01*
X71852786Y-66663962D01*
X71661980Y-67038745D01*
X71547956Y-67443551D01*
X71515098Y-67862824D01*
X69448189Y-67862824D01*
X69454902Y-67777176D01*
X69405334Y-67359549D01*
X69275243Y-66959617D01*
X69117214Y-66663962D01*
X68801653Y-66507952D01*
X67489605Y-67820000D01*
X67130395Y-67820000D01*
X65818347Y-66507952D01*
X65502786Y-66663962D01*
X65311980Y-67038745D01*
X65197956Y-67443551D01*
X65165098Y-67862824D01*
X64935000Y-67862824D01*
X64935000Y-66328347D01*
X65997952Y-66328347D01*
X67310000Y-67640395D01*
X68622048Y-66328347D01*
X72347952Y-66328347D01*
X73660000Y-67640395D01*
X74972048Y-66328347D01*
X74816038Y-66012786D01*
X74441255Y-65821980D01*
X74036449Y-65707956D01*
X73617176Y-65675098D01*
X73199549Y-65724666D01*
X72799617Y-65854757D01*
X72503962Y-66012786D01*
X72347952Y-66328347D01*
X68622048Y-66328347D01*
X68466038Y-66012786D01*
X68091255Y-65821980D01*
X67686449Y-65707956D01*
X67267176Y-65675098D01*
X66849549Y-65724666D01*
X66449617Y-65854757D01*
X66153962Y-66012786D01*
X65997952Y-66328347D01*
X64935000Y-66328347D01*
X64935000Y-54445867D01*
X64945868Y-54435000D01*
X66450765Y-54435000D01*
X66298698Y-54497988D01*
X65949017Y-54731637D01*
X65651637Y-55029017D01*
X65417988Y-55378698D01*
X65257047Y-55767244D01*
X65175000Y-56179721D01*
X65175000Y-56600279D01*
X65257047Y-57012756D01*
X65417988Y-57401302D01*
X65651637Y-57750983D01*
X65949017Y-58048363D01*
X66298698Y-58282012D01*
X66687244Y-58442953D01*
X67099721Y-58525000D01*
X67520279Y-58525000D01*
X67932756Y-58442953D01*
X68109059Y-58369926D01*
X72603596Y-62864464D01*
X72603601Y-62864468D01*
X73150558Y-63411426D01*
X73176709Y-63443291D01*
X73303854Y-63547636D01*
X73448913Y-63625172D01*
X73606311Y-63672918D01*
X73728981Y-63685000D01*
X73728991Y-63685000D01*
X73769999Y-63689039D01*
X73811007Y-63685000D01*
X74209157Y-63685000D01*
X76515001Y-65990845D01*
X76515000Y-93603958D01*
X76510960Y-93644976D01*
X76515000Y-93685994D01*
X76527082Y-93808664D01*
X76574828Y-93966062D01*
X76652364Y-94111121D01*
X76756709Y-94238267D01*
X76788579Y-94264422D01*
X92825001Y-110300845D01*
X92825000Y-111261935D01*
X92713368Y-111336525D01*
X92506525Y-111543368D01*
X92384805Y-111725534D01*
X92315178Y-111608645D01*
X92120269Y-111392412D01*
X91886920Y-111218359D01*
X91624099Y-111093175D01*
X91476890Y-111048524D01*
X91247000Y-111169845D01*
X91247000Y-112363000D01*
X91267000Y-112363000D01*
X91267000Y-112617000D01*
X91247000Y-112617000D01*
X91247000Y-114903000D01*
X91267000Y-114903000D01*
X91267000Y-115157000D01*
X91247000Y-115157000D01*
X91247000Y-116350155D01*
X91476890Y-116471476D01*
X91624099Y-116426825D01*
X91886920Y-116301641D01*
X92120269Y-116127588D01*
X92315178Y-115911355D01*
X92384805Y-115794466D01*
X92506525Y-115976632D01*
X92713368Y-116183475D01*
X92956589Y-116345990D01*
X93226842Y-116457932D01*
X93513740Y-116515000D01*
X93806260Y-116515000D01*
X94093158Y-116457932D01*
X94363411Y-116345990D01*
X94606632Y-116183475D01*
X94813475Y-115976632D01*
X94930000Y-115802240D01*
X95046525Y-115976632D01*
X95253368Y-116183475D01*
X95496589Y-116345990D01*
X95766842Y-116457932D01*
X96053740Y-116515000D01*
X96346260Y-116515000D01*
X96633158Y-116457932D01*
X96903411Y-116345990D01*
X97146632Y-116183475D01*
X97353475Y-115976632D01*
X97475195Y-115794466D01*
X97544822Y-115911355D01*
X97739731Y-116127588D01*
X97973080Y-116301641D01*
X98235901Y-116426825D01*
X98383110Y-116471476D01*
X98613000Y-116350155D01*
X98613000Y-115157000D01*
X98593000Y-115157000D01*
X98593000Y-114903000D01*
X98613000Y-114903000D01*
X98613000Y-112617000D01*
X98593000Y-112617000D01*
X98593000Y-112363000D01*
X98613000Y-112363000D01*
X98613000Y-111169845D01*
X98867000Y-111169845D01*
X98867000Y-112363000D01*
X98887000Y-112363000D01*
X98887000Y-112617000D01*
X98867000Y-112617000D01*
X98867000Y-114903000D01*
X98887000Y-114903000D01*
X98887000Y-115157000D01*
X98867000Y-115157000D01*
X98867000Y-116350155D01*
X99096890Y-116471476D01*
X99244099Y-116426825D01*
X99506920Y-116301641D01*
X99740269Y-116127588D01*
X99935178Y-115911355D01*
X100004805Y-115794466D01*
X100126525Y-115976632D01*
X100333368Y-116183475D01*
X100576589Y-116345990D01*
X100846842Y-116457932D01*
X101133740Y-116515000D01*
X101426260Y-116515000D01*
X101713158Y-116457932D01*
X101983411Y-116345990D01*
X102226632Y-116183475D01*
X102433475Y-115976632D01*
X102550000Y-115802240D01*
X102666525Y-115976632D01*
X102873368Y-116183475D01*
X103116589Y-116345990D01*
X103386842Y-116457932D01*
X103673740Y-116515000D01*
X103966260Y-116515000D01*
X104253158Y-116457932D01*
X104523411Y-116345990D01*
X104766632Y-116183475D01*
X104973475Y-115976632D01*
X105090000Y-115802240D01*
X105206525Y-115976632D01*
X105413368Y-116183475D01*
X105656589Y-116345990D01*
X105926842Y-116457932D01*
X106213740Y-116515000D01*
X106506260Y-116515000D01*
X106793158Y-116457932D01*
X107063411Y-116345990D01*
X107306632Y-116183475D01*
X107513475Y-115976632D01*
X107675990Y-115733411D01*
X107787932Y-115463158D01*
X107845000Y-115176260D01*
X107845000Y-114883740D01*
X107787932Y-114596842D01*
X107675990Y-114326589D01*
X107513475Y-114083368D01*
X107381620Y-113951513D01*
X107454180Y-113929502D01*
X107564494Y-113870537D01*
X107661185Y-113791185D01*
X107740537Y-113694494D01*
X107799502Y-113584180D01*
X107835812Y-113464482D01*
X107848072Y-113340000D01*
X107848072Y-111640000D01*
X107835812Y-111515518D01*
X107799502Y-111395820D01*
X107740537Y-111285506D01*
X107661185Y-111188815D01*
X107564494Y-111109463D01*
X107454180Y-111050498D01*
X107334482Y-111014188D01*
X107210000Y-111001928D01*
X105510000Y-111001928D01*
X105385518Y-111014188D01*
X105265820Y-111050498D01*
X105155506Y-111109463D01*
X105058815Y-111188815D01*
X104979463Y-111285506D01*
X104920498Y-111395820D01*
X104898487Y-111468380D01*
X104766632Y-111336525D01*
X104523411Y-111174010D01*
X104253158Y-111062068D01*
X103966260Y-111005000D01*
X103673740Y-111005000D01*
X103386842Y-111062068D01*
X103116589Y-111174010D01*
X102873368Y-111336525D01*
X102666525Y-111543368D01*
X102550000Y-111717760D01*
X102433475Y-111543368D01*
X102226632Y-111336525D01*
X101983411Y-111174010D01*
X101713158Y-111062068D01*
X101426260Y-111005000D01*
X101133740Y-111005000D01*
X100846842Y-111062068D01*
X100576589Y-111174010D01*
X100333368Y-111336525D01*
X100126525Y-111543368D01*
X100004805Y-111725534D01*
X99935178Y-111608645D01*
X99740269Y-111392412D01*
X99506920Y-111218359D01*
X99244099Y-111093175D01*
X99096890Y-111048524D01*
X98867000Y-111169845D01*
X98613000Y-111169845D01*
X98383110Y-111048524D01*
X98235901Y-111093175D01*
X97973080Y-111218359D01*
X97739731Y-111392412D01*
X97544822Y-111608645D01*
X97475195Y-111725534D01*
X97353475Y-111543368D01*
X97146632Y-111336525D01*
X96903411Y-111174010D01*
X96633158Y-111062068D01*
X96346260Y-111005000D01*
X96053740Y-111005000D01*
X95766842Y-111062068D01*
X95496589Y-111174010D01*
X95423630Y-111222760D01*
X95195000Y-110994131D01*
X95195000Y-109706042D01*
X95199040Y-109665023D01*
X95182918Y-109501335D01*
X95135172Y-109343937D01*
X95057636Y-109198878D01*
X94989567Y-109115936D01*
X94953291Y-109071733D01*
X94921427Y-109045583D01*
X78885000Y-93009157D01*
X78885000Y-65396031D01*
X78889039Y-65355023D01*
X78885000Y-65314015D01*
X78885000Y-65314005D01*
X78872918Y-65191335D01*
X78825172Y-65033937D01*
X78747636Y-64888878D01*
X78643291Y-64761733D01*
X78611427Y-64735583D01*
X75464422Y-61588579D01*
X75438267Y-61556709D01*
X75311122Y-61452364D01*
X75166063Y-61374828D01*
X75008665Y-61327082D01*
X74885995Y-61315000D01*
X74885994Y-61315000D01*
X74844976Y-61310960D01*
X74803958Y-61315000D01*
X74495000Y-61315000D01*
X74495000Y-58355039D01*
X74671302Y-58282012D01*
X75020983Y-58048363D01*
X75318363Y-57750983D01*
X75552012Y-57401302D01*
X75712953Y-57012756D01*
X75795000Y-56600279D01*
X75795000Y-56179721D01*
X75712953Y-55767244D01*
X75552012Y-55378698D01*
X75318363Y-55029017D01*
X75020983Y-54731637D01*
X74671302Y-54497988D01*
X74519235Y-54435000D01*
X77854133Y-54435000D01*
X79170300Y-55751168D01*
X79138406Y-55790031D01*
X78998192Y-56052353D01*
X78911849Y-56336989D01*
X78890000Y-56558823D01*
X78890000Y-58457178D01*
X78911850Y-58679012D01*
X78998193Y-58963648D01*
X79138407Y-59225970D01*
X79327104Y-59455897D01*
X79557031Y-59644594D01*
X79562018Y-59647260D01*
X79560960Y-59658000D01*
X79565000Y-59699018D01*
X79577082Y-59821688D01*
X79624828Y-59979086D01*
X79702364Y-60124145D01*
X79806709Y-60251291D01*
X79838579Y-60277446D01*
X82097582Y-62536451D01*
X82123728Y-62568310D01*
X82250873Y-62672655D01*
X82395932Y-62750191D01*
X82553330Y-62797937D01*
X82676000Y-62810019D01*
X82676001Y-62810019D01*
X82717019Y-62814059D01*
X82758037Y-62810019D01*
X101483963Y-62810019D01*
X101524981Y-62814059D01*
X101565999Y-62810019D01*
X101566000Y-62810019D01*
X101688670Y-62797937D01*
X101846068Y-62750191D01*
X101991127Y-62672655D01*
X102118272Y-62568310D01*
X102144427Y-62536440D01*
X103670886Y-61009982D01*
X103670976Y-61010000D01*
X103929024Y-61010000D01*
X104182113Y-60959658D01*
X104420518Y-60860907D01*
X104635077Y-60717544D01*
X104817544Y-60535077D01*
X104960907Y-60320518D01*
X105059658Y-60082113D01*
X105110000Y-59829024D01*
X105110000Y-59570976D01*
X105059658Y-59317887D01*
X104960907Y-59079482D01*
X104817544Y-58864923D01*
X104635077Y-58682456D01*
X104420518Y-58539093D01*
X104182113Y-58440342D01*
X103929024Y-58390000D01*
X103670976Y-58390000D01*
X103417887Y-58440342D01*
X103179482Y-58539093D01*
X102964923Y-58682456D01*
X102800000Y-58847379D01*
X102635077Y-58682456D01*
X102420518Y-58539093D01*
X102182113Y-58440342D01*
X101929024Y-58390000D01*
X101670976Y-58390000D01*
X101417887Y-58440342D01*
X101179482Y-58539093D01*
X100964923Y-58682456D01*
X100800000Y-58847379D01*
X100635077Y-58682456D01*
X100420518Y-58539093D01*
X100182113Y-58440342D01*
X99929024Y-58390000D01*
X99670976Y-58390000D01*
X99417887Y-58440342D01*
X99179482Y-58539093D01*
X98964923Y-58682456D01*
X98800000Y-58847379D01*
X98635077Y-58682456D01*
X98420518Y-58539093D01*
X98182113Y-58440342D01*
X97929024Y-58390000D01*
X97670976Y-58390000D01*
X97670887Y-58390018D01*
X93477426Y-54196559D01*
X93451271Y-54164689D01*
X93324126Y-54060344D01*
X93179067Y-53982808D01*
X93021669Y-53935062D01*
X92898999Y-53922980D01*
X92898998Y-53922980D01*
X92857980Y-53918940D01*
X92816962Y-53922980D01*
X87761707Y-53922980D01*
X87775812Y-53876482D01*
X87788072Y-53752000D01*
X87785000Y-52787750D01*
X87626250Y-52629000D01*
X85527000Y-52629000D01*
X85527000Y-52649000D01*
X85273000Y-52649000D01*
X85273000Y-52629000D01*
X83173750Y-52629000D01*
X83015000Y-52787750D01*
X83011928Y-53752000D01*
X83024188Y-53876482D01*
X83038293Y-53922980D01*
X80904846Y-53922980D01*
X80661013Y-53679147D01*
X80691904Y-53673002D01*
X80923939Y-53576890D01*
X81132765Y-53437357D01*
X81310357Y-53259765D01*
X81449890Y-53050939D01*
X81546002Y-52818904D01*
X81595000Y-52572577D01*
X81595000Y-52321423D01*
X81546002Y-52075096D01*
X81449890Y-51843061D01*
X81310357Y-51634235D01*
X81132765Y-51456643D01*
X80923939Y-51317110D01*
X80766750Y-51252000D01*
X83011928Y-51252000D01*
X83015000Y-52216250D01*
X83173750Y-52375000D01*
X85273000Y-52375000D01*
X85273000Y-50775750D01*
X85527000Y-50775750D01*
X85527000Y-52375000D01*
X87626250Y-52375000D01*
X87785000Y-52216250D01*
X87788072Y-51252000D01*
X87775812Y-51127518D01*
X87739502Y-51007820D01*
X87680537Y-50897506D01*
X87601185Y-50800815D01*
X87504494Y-50721463D01*
X87394180Y-50662498D01*
X87274482Y-50626188D01*
X87150000Y-50613928D01*
X85685750Y-50617000D01*
X85527000Y-50775750D01*
X85273000Y-50775750D01*
X85114250Y-50617000D01*
X83650000Y-50613928D01*
X83525518Y-50626188D01*
X83405820Y-50662498D01*
X83295506Y-50721463D01*
X83198815Y-50800815D01*
X83119463Y-50897506D01*
X83060498Y-51007820D01*
X83024188Y-51127518D01*
X83011928Y-51252000D01*
X80766750Y-51252000D01*
X80691904Y-51220998D01*
X80470713Y-51177000D01*
X80691904Y-51133002D01*
X80923939Y-51036890D01*
X81132765Y-50897357D01*
X81310357Y-50719765D01*
X81449890Y-50510939D01*
X81546002Y-50278904D01*
X81595000Y-50032577D01*
X81595000Y-49781423D01*
X81553939Y-49575000D01*
X89246061Y-49575000D01*
X89205000Y-49781423D01*
G37*
G04 #@! TD.AperFunction*
D21*
X95927000Y-59573000D02*
X95947000Y-59573000D01*
X95947000Y-59827000D01*
X95927000Y-59827000D01*
X95927000Y-59847000D01*
X95673000Y-59847000D01*
X95673000Y-59827000D01*
X95653000Y-59827000D01*
X95653000Y-59573000D01*
X95673000Y-59573000D01*
X95673000Y-59553000D01*
X95927000Y-59553000D01*
X95927000Y-59573000D01*
G04 #@! TA.AperFunction,Conductor*
D22*
G36*
X95927000Y-59573000D02*
G01*
X95947000Y-59573000D01*
X95947000Y-59827000D01*
X95927000Y-59827000D01*
X95927000Y-59847000D01*
X95673000Y-59847000D01*
X95673000Y-59827000D01*
X95653000Y-59827000D01*
X95653000Y-59573000D01*
X95673000Y-59573000D01*
X95673000Y-59553000D01*
X95927000Y-59553000D01*
X95927000Y-59573000D01*
G37*
G04 #@! TD.AperFunction*
G04 #@! TD*
M02*
