G04 #@! TF.GenerationSoftware,KiCad,Pcbnew,5.1.7-a382d34a8~88~ubuntu18.04.1*
G04 #@! TF.CreationDate,2021-03-11T03:59:41+01:00*
G04 #@! TF.ProjectId,ZynAudioCon,5a796e41-7564-4696-9f43-6f6e2e6b6963,rev?*
G04 #@! TF.SameCoordinates,Original*
G04 #@! TF.FileFunction,Soldermask,Bot*
G04 #@! TF.FilePolarity,Negative*
%FSLAX46Y46*%
G04 Gerber Fmt 4.6, Leading zero omitted, Abs format (unit mm)*
G04 Created by KiCad (PCBNEW 5.1.7-a382d34a8~88~ubuntu18.04.1) date 2021-03-11 03:59:41*
%MOMM*%
%LPD*%
G01*
G04 APERTURE LIST*
%ADD10O,1.750000X3.500000*%
%ADD11R,3.500000X2.500000*%
%ADD12C,1.280000*%
%ADD13R,1.524000X1.524000*%
%ADD14R,1.350000X1.350000*%
%ADD15O,1.350000X1.350000*%
%ADD16C,4.700000*%
%ADD17O,1.700000X1.700000*%
%ADD18R,1.700000X1.700000*%
%ADD19C,3.000000*%
G04 APERTURE END LIST*
D10*
G04 #@! TO.C,PHONE1*
X87900000Y-57508000D03*
X82900000Y-57508000D03*
X80400000Y-57508000D03*
D11*
X85400000Y-52502000D03*
D10*
X90400000Y-57508000D03*
D12*
X90480000Y-49907000D03*
X90480000Y-52447000D03*
X80320000Y-49907000D03*
X80320000Y-52447000D03*
X85400000Y-57527000D03*
G04 #@! TD*
D13*
G04 #@! TO.C,RV1*
X104800000Y-49700000D03*
X94800000Y-49700000D03*
D14*
X95800000Y-59700000D03*
D15*
X97800000Y-59700000D03*
X99800000Y-59700000D03*
X101800000Y-59700000D03*
X103800000Y-59700000D03*
G04 #@! TD*
D16*
G04 #@! TO.C,REF\u002A\u002A*
X109160000Y-51890000D03*
G04 #@! TD*
G04 #@! TO.C,REF\u002A\u002A*
X109160000Y-119890000D03*
G04 #@! TD*
D17*
G04 #@! TO.C,J1*
X83500000Y-115030000D03*
X83500000Y-112490000D03*
X86040000Y-115030000D03*
X86040000Y-112490000D03*
X88580000Y-115030000D03*
X88580000Y-112490000D03*
X91120000Y-115030000D03*
X91120000Y-112490000D03*
X93660000Y-115030000D03*
X93660000Y-112490000D03*
X96200000Y-115030000D03*
X96200000Y-112490000D03*
X98740000Y-115030000D03*
X98740000Y-112490000D03*
X101280000Y-115030000D03*
X101280000Y-112490000D03*
X103820000Y-115030000D03*
X103820000Y-112490000D03*
X106360000Y-115030000D03*
D18*
X106360000Y-112490000D03*
G04 #@! TD*
D19*
G04 #@! TO.C,AudioIN-1*
X73660000Y-73890000D03*
X60960000Y-73890000D03*
X60960000Y-85320000D03*
X73660000Y-85320000D03*
X67310000Y-73890000D03*
X67310000Y-85320000D03*
G04 #@! TD*
G04 #@! TO.C,AudioIN-2*
X67310000Y-67820000D03*
X67310000Y-56390000D03*
X73660000Y-67820000D03*
X60960000Y-67820000D03*
X60960000Y-56390000D03*
X73660000Y-56390000D03*
G04 #@! TD*
G04 #@! TO.C,AudioOUT-1*
X67310000Y-120320000D03*
X67310000Y-108890000D03*
X73660000Y-120320000D03*
X60960000Y-120320000D03*
X60960000Y-108890000D03*
X73660000Y-108890000D03*
G04 #@! TD*
G04 #@! TO.C,AudioOUT-2*
X67310000Y-102820000D03*
X67310000Y-91390000D03*
X73660000Y-102820000D03*
X60960000Y-102820000D03*
X60960000Y-91390000D03*
X73660000Y-91390000D03*
G04 #@! TD*
M02*
