999
DXF file: C:\Users\ramon\Desktop\NETRUNNER MICRO GMB\3D_RENDERS\Z2_CASE ORIGINAL\pcb_buttons_v5_230111.dxf
999
Pro/ENGINEER 2013230 by Parametric Technology Corporation
  0
SECTION
  2
HEADER
  9
$ACADVER
  1
AC1021
  9
$DWGCODEPAGE
  3
ANSI_1252
  9
$EXTMAX
 10
8.2677165354
 20
11.6929133858
 30
0.0
  9
$EXTMIN
 10
-0.0
 20
0.0
 30
0.0
  9
$LIMMIN
 10
-0.0
 20
0.0
  9
$LIMMAX
 10
8.2677165354
 20
11.6929133858
  9
$VIEWCTR
 10
4.1338582677
 20
5.8464566929
  9
$VIEWSIZE
 40
11.6929133858
  9
$CLAYER
  8
0
  9
$LTSCALE
 40
0.7622047244
  9
$CELTYPE
  6
BYLAYER
  9
$DIMSCALE
 40
1.0
  9
$DIMASZ
 40
0.1875
  9
$DIMEXO
 40
0.0625
  9
$DIMDLI
 40
0.5266141732
  9
$DIMEXE
 40
0.125
  9
$DIMCEN
 40
0.1247244094
  9
$DIMLFAC
 40
1.0
  9
$DIMBLK
  1
_CLOSED
  9
$DIMTXT
 40
0.15625
  9
$DIMTOL
 70
0
  9
$DIMLIM
 70
0
  9
$DIMTFAC
 40
1.0
  9
$DIMGAP
 40
0.09
  9
$DIMDSEP
 70
46
  9
$PDMODE
 70
3
  9
$PDSIZE
 40
0.3125
  9
$HANDSEED
  5
2AC
  9
$TILEMODE
 70
1
  9
$MEASUREMENT
 70
0
  9
$INSUNITS
 70
1
  0
ENDSEC
  0
SECTION
  2
CLASSES
  0
CLASS
  1
ACDBDICTIONARYWDFLT
  2
AcDbDictionaryWithDefault
  3
AutoCAD 2000
 90
0
 91
1
280
0
281
0
  0
CLASS
  1
ACDBPLACEHOLDER
  2
AcDbPlaceHolder
  3
AutoCAD 2000
 90
0
 91
1
280
0
281
0
  0
CLASS
  1
LAYOUT
  2
AcDbLayout
  3
AutoCAD 2000
 90
0
 91
0
280
0
281
0
  0
ENDSEC
  0
SECTION
  2
TABLES
  0
TABLE
  2
VPORT
  5
8
100
AcDbSymbolTable
 70
2
  0
VPORT
  5
1F4
100
AcDbSymbolTableRecord
100
AcDbViewportTableRecord
  2
*ACTIVE
 70
0
 10
0.0
 20
0.0
 11
1.0
 21
1.0
 12
4.1338582677
 22
5.8464566929
 13
0.0
 23
0.0
 14
1.0
 24
1.0
 15
0.0
 25
0.0
 16
0.0
 26
0.0
 36
1.0
 17
0.0
 27
0.0
 37
0.0
 40
11.6929133858
 41
0.7070707071
 42
50.0
 43
0.0
 44
0.0
 50
0.0
 51
0.0
 71
0
 72
100
 73
1
 74
1
 75
0
 76
0
 77
0
 78
0
  0
ENDTAB
  0
TABLE
  2
LTYPE
  5
5
100
AcDbSymbolTable
 70
6
  0
LTYPE
  5
14
100
AcDbSymbolTableRecord
100
AcDbLinetypeTableRecord
  2
BYBLOCK
 70
0
  3

 72
65
 73
0
 40
0.0
  0
LTYPE
  5
15
100
AcDbSymbolTableRecord
100
AcDbLinetypeTableRecord
  2
BYLAYER
 70
0
  3

 72
65
 73
0
 40
0.0
  0
LTYPE
  5
16
100
AcDbSymbolTableRecord
100
AcDbLinetypeTableRecord
  2
CONTINUOUS
 70
64
  3
Solid line
 72
65
 73
0
 40
0.0
  0
LTYPE
  5
1F5
100
AcDbSymbolTableRecord
100
AcDbLinetypeTableRecord
  2
CENTER
 70
64
  3
____ _ ____ _ ____ _ ____ _ ____ _ ____ _ ____
 72
65
 73
4
 40
0.6
 49
0.375
 74
0
 49
-0.075
 74
0
 49
0.075
 74
0
 49
-0.075
 74
0
  0
LTYPE
  5
1F6
100
AcDbSymbolTableRecord
100
AcDbLinetypeTableRecord
  2
HIDDEN
 70
64
  3
- - - - - - - - - - - - - - - - - - - -
 72
65
 73
2
 40
0.2
 49
0.1
 74
0
 49
-0.1
 74
0
  0
LTYPE
  5
1F7
100
AcDbSymbolTableRecord
100
AcDbLinetypeTableRecord
  2
PHANTOM
 70
64
  3
_____ _ _ _____ _ _ _____ _ _ _____
 72
65
 73
6
 40
0.8
 49
0.45
 74
0
 49
-0.05
 74
0
 49
0.1
 74
0
 49
-0.05
 74
0
 49
0.1
 74
0
 49
-0.05
 74
0
  0
LTYPE
  5
1F8
100
AcDbSymbolTableRecord
100
AcDbLinetypeTableRecord
  2
DOT
 70
64
  3
. . . . . . . . . . . . . . . . . . . .
 72
65
 73
2
 40
0.2
 49
0.1
 74
0
 49
-0.1
 74
0
  0
LTYPE
  5
1F9
100
AcDbSymbolTableRecord
100
AcDbLinetypeTableRecord
  2
DASHED
 70
64
  3
- - - - - - - - - - - - - - - - - - - -
 72
65
 73
2
 40
0.2
 49
0.1
 74
0
 49
-0.1
 74
0
  0
ENDTAB
  0
TABLE
  2
LAYER
  5
2
100
AcDbSymbolTable
 70
36
  0
LAYER
  5
10
100
AcDbSymbolTableRecord
100
AcDbLayerTableRecord
  2
0
 70
0
 62
7
  6
CONTINUOUS
370
-3
390
F
  0
LAYER
  5
1FA
100
AcDbSymbolTableRecord
100
AcDbLayerTableRecord
  2
DEFAULT_1
 70
0
 62
7
  6
CENTER
370
-3
390
F
  0
LAYER
  5
1FB
100
AcDbSymbolTableRecord
100
AcDbLayerTableRecord
  2
DEFAULT_2
 70
0
 62
8
  6
HIDDEN
370
-3
390
F
  0
LAYER
  5
1FC
100
AcDbSymbolTableRecord
100
AcDbLayerTableRecord
  2
DEFAULT_3
 70
0
 62
7
  6
PHANTOM
370
-3
390
F
  0
LAYER
  5
1FD
100
AcDbSymbolTableRecord
100
AcDbLayerTableRecord
  2
01___PRT_ALL_DTM_PLN
 70
0
 62
7
  6
CONTINUOUS
370
-3
390
F
  0
LAYER
  5
1FE
100
AcDbSymbolTableRecord
100
AcDbLayerTableRecord
  2
01___PRT_DEF_DTM_PLN
 70
0
 62
7
  6
CONTINUOUS
370
-3
390
F
  0
LAYER
  5
1FF
100
AcDbSymbolTableRecord
100
AcDbLayerTableRecord
  2
02___PRT_ALL_AXES
 70
0
 62
7
  6
CONTINUOUS
370
-3
390
F
  0
LAYER
  5
200
100
AcDbSymbolTableRecord
100
AcDbLayerTableRecord
  2
03___PRT_ALL_CURVES
 70
0
 62
7
  6
CONTINUOUS
370
-3
390
F
  0
LAYER
  5
201
100
AcDbSymbolTableRecord
100
AcDbLayerTableRecord
  2
04___PRT_ALL_DTM_PNT
 70
0
 62
7
  6
CONTINUOUS
370
-3
390
F
  0
LAYER
  5
202
100
AcDbSymbolTableRecord
100
AcDbLayerTableRecord
  2
05___PRT_ALL_DTM_CSYS
 70
0
 62
7
  6
CONTINUOUS
370
-3
390
F
  0
LAYER
  5
203
100
AcDbSymbolTableRecord
100
AcDbLayerTableRecord
  2
05___PRT_DEF_DTM_CSYS
 70
0
 62
7
  6
CONTINUOUS
370
-3
390
F
  0
LAYER
  5
204
100
AcDbSymbolTableRecord
100
AcDbLayerTableRecord
  2
06___PRT_ALL_SURFS
 70
0
 62
7
  6
CONTINUOUS
370
-3
390
F
  0
ENDTAB
  0
TABLE
  2
STYLE
  5
3
100
AcDbSymbolTable
 70
1
  0
STYLE
  5
11
100
AcDbSymbolTableRecord
100
AcDbTextStyleTableRecord
  2
STANDARD
 70
0
 40
0.0
 41
0.8
 50
0.0
 71
0
 42
0.2
  3
txt
  4

  0
STYLE
  5
205
100
AcDbSymbolTableRecord
100
AcDbTextStyleTableRecord
  2
TEXTSTYLE_1
 70
0
 40
0.0
 41
0.8
 50
0.0
 71
0
 42
0.2
  3
gdt
  4

  0
ENDTAB
  0
TABLE
  2
VIEW
  5
6
100
AcDbSymbolTable
 70
0
  0
ENDTAB
  0
TABLE
  2
UCS
  5
7
100
AcDbSymbolTable
 70
0
  0
ENDTAB
  0
TABLE
  2
APPID
  5
9
100
AcDbSymbolTable
 70
1
  0
APPID
  5
206
100
AcDbSymbolTableRecord
100
AcDbRegAppTableRecord
  2
ACAD
 70
0
  0
ENDTAB
  0
TABLE
  2
BLOCK_RECORD
  5
1
100
AcDbSymbolTable
 70
0
  0
BLOCK_RECORD
  5
207
100
AcDbSymbolTableRecord
100
AcDbBlockTableRecord
  2
*Model_Space
  0
BLOCK_RECORD
  5
208
100
AcDbSymbolTableRecord
100
AcDbBlockTableRecord
  2
*Paper_Space
  0
BLOCK_RECORD
  5
209
100
AcDbSymbolTableRecord
100
AcDbBlockTableRecord
  2
_CLOSED
  0
BLOCK_RECORD
  5
20A
100
AcDbSymbolTableRecord
100
AcDbBlockTableRecord
  2
*D0
  0
BLOCK_RECORD
  5
20B
100
AcDbSymbolTableRecord
100
AcDbBlockTableRecord
  2
*D1
  0
ENDTAB
  0
TABLE
  2
DIMSTYLE
  5
A
100
AcDbSymbolTable
 70
1
100
AcDbDimStyleTable
 71
0
  0
DIMSTYLE
105
20C
100
AcDbSymbolTableRecord
100
AcDbDimStyleTableRecord
  2
STANDARD
 70
0
  3

  4

 40
1.0
 41
0.1875
 42
0.0625
 43
0.38
 44
0.125
 45
0.0
 46
0.0
 47
0.01
 48
0.01
140
0.15625
141
0.09
142
0.0
143
25.4
144
1.0
145
0.0
146
1.0
147
0.09
 71
0.0
 72
0.0
 73
1
 74
1
 75
0
 76
0
 77
0
 78
4
170
0
171
2
172
0
173
0
174
0
175
0
176
0
177
0
178
0
270
2
271
2
272
2
273
2
274
2
275
0
280
0
281
0
282
0
283
1
284
4
285
0
286
0
287
3
288
0
340
11
278
46
341
209
342
209
343
209
344
209
  0
DIMSTYLE
105
20D
100
AcDbSymbolTableRecord
100
AcDbDimStyleTableRecord
  2
DIMSTYLE_1
 70
0
  3

  4

 40
1.0
 41
0.1875
 42
0.0625
 43
0.38
 44
0.125
 45
0.0
 46
0.0
 47
0.0
 48
0.0
140
0.15625
141
0.09
142
0.0
143
25.4
144
1.0
145
0.0
146
1.0
147
0.078125
 71
0.0
 72
0.0
 73
1
 74
1
 75
0
 76
0
 77
0
 78
4
170
0
171
2
172
0
173
0
174
0
175
0
176
0
177
0
178
0
270
2
271
2
272
2
273
2
274
2
275
0
280
0
281
0
282
0
283
1
284
4
285
0
286
0
287
3
288
0
340
11
278
46
341
209
342
209
343
209
344
209
  0
ENDTAB
  0
ENDSEC
  0
SECTION
  2
BLOCKS
  0
BLOCK
  5
20
100
AcDbEntity
  8
0
100
AcDbBlockBegin
  2
*Model_Space
 70
0
 10
0.0
 20
0.0
 30
0.0
  3
*Model_Space
  1

  0
ENDBLK
  5
21
100
AcDbEntity
  8
0
100
AcDbBlockEnd
  0
BLOCK
  5
1C
100
AcDbEntity
  8
0
100
AcDbBlockBegin
  2
*Paper_Space
 70
0
 10
0.0
 20
0.0
 30
0.0
  3
*Paper_Space
  1

  0
ENDBLK
  5
1D
100
AcDbEntity
  8
0
100
AcDbBlockEnd
  0
BLOCK
  5
20E
100
AcDbEntity
  8
0
100
AcDbBlockBegin
  2
_CLOSED
 70
64
 10
0.0
 20
0.0
  3
_CLOSED
  1

  0
LINE
  5
20F
100
AcDbEntity
  8
0
  6
BYBLOCK
 62
0
100
AcDbLine
 10
0.0
 20
0.0
 11
-1.0
 21
0.1666666667
  0
LINE
  5
210
100
AcDbEntity
  8
0
  6
BYBLOCK
 62
0
100
AcDbLine
 10
-1.0
 20
0.1666666667
 11
-1.0
 21
-0.1666666667
  0
LINE
  5
211
100
AcDbEntity
  8
0
  6
BYBLOCK
 62
0
100
AcDbLine
 10
-1.0
 20
-0.1666666667
 11
0.0
 21
0.0
  0
LINE
  5
212
100
AcDbEntity
  8
0
  6
BYBLOCK
 62
0
100
AcDbLine
 10
-1.0
 20
0.0
 11
0.0
 21
0.0
  0
ENDBLK
  5
213
100
AcDbEntity
  8
0
  6
BYBLOCK
 62
0
100
AcDbBlockEnd
  0
BLOCK
  5
214
100
AcDbEntity
  8
0
100
AcDbBlockBegin
 62
2
  6
CONTINUOUS
  2
*D0
 70
65
 10
0.0
 20
0.0
  3
*D0
  1

  0
MTEXT
  5
215
100
AcDbEntity
  8
0
100
AcDbMText
 62
2
  6
CONTINUOUS
  7
STANDARD
 71
2
 72
1
 10
7.2021410283
 20
5.9944994552
 30
0.0
 11
1.0
 21
0.0
 31
0.0
 44
0.9
  1
238
 40
0.15625
 41
0.375
  0
LINE
  5
216
100
AcDbEntity
  8
0
100
AcDbLine
 62
2
  6
CONTINUOUS
 10
6.2784995875
 20
10.6014138253
 11
7.3271410283
 21
10.6014138253
  0
LINE
  5
217
100
AcDbEntity
  8
0
100
AcDbLine
 62
2
  6
CONTINUOUS
 10
6.2784995875
 20
1.2313350851
 11
7.3271410283
 21
1.2313350851
  0
LINE
  5
218
100
AcDbEntity
  8
0
100
AcDbLine
 62
2
  6
CONTINUOUS
 10
7.2021410283
 20
10.6014138253
 11
7.2021410283
 21
6.0726244552
  0
LINE
  5
219
100
AcDbEntity
  8
0
100
AcDbLine
 62
2
  6
CONTINUOUS
 10
7.2021410283
 20
1.2313350851
 11
7.2021410283
 21
5.7601244552
  0
INSERT
  5
21A
100
AcDbEntity
  8
0
100
AcDbBlockReference
 62
2
  6
CONTINUOUS
  2
_CLOSED
 10
7.2021410283
 20
10.6014138253
 41
0.1875
 42
0.1875
 43
0.1875
 50
90.0
  0
INSERT
  5
21B
100
AcDbEntity
  8
0
100
AcDbBlockReference
 62
2
  6
CONTINUOUS
  2
_CLOSED
 10
7.2021410283
 20
1.2313350851
 41
0.1875
 42
0.1875
 43
0.1875
 50
270.0
  0
ENDBLK
  5
21C
100
AcDbEntity
  8
0
  6
BYBLOCK
 62
0
100
AcDbBlockEnd
  0
BLOCK
  5
21D
100
AcDbEntity
  8
0
100
AcDbBlockBegin
 62
2
  6
CONTINUOUS
  2
*D1
 70
65
 10
0.0
 20
0.0
  3
*D1
  1

  0
MTEXT
  5
21E
100
AcDbEntity
  8
0
100
AcDbMText
 62
2
  6
CONTINUOUS
  7
STANDARD
 71
2
 72
1
 10
4.2770232095
 20
11.2159704411
 30
0.0
 11
1.0
 21
0.0
 31
0.0
 44
0.9
  1
104.5
 40
0.15625
 41
0.625
  0
LINE
  5
21F
100
AcDbEntity
  8
0
100
AcDbLine
 62
2
  6
CONTINUOUS
 10
6.3341098237
 20
10.545803589
 11
6.3341098237
 21
11.2628454411
  0
LINE
  5
220
100
AcDbEntity
  8
0
100
AcDbLine
 62
2
  6
CONTINUOUS
 10
2.2199365953
 20
10.545803589
 11
2.2199365953
 21
11.2628454411
  0
LINE
  5
221
100
AcDbEntity
  8
0
100
AcDbLine
 62
2
  6
CONTINUOUS
 10
6.3341098237
 20
11.1378454411
 11
4.6676482095
 21
11.1378454411
  0
LINE
  5
222
100
AcDbEntity
  8
0
100
AcDbLine
 62
2
  6
CONTINUOUS
 10
2.2199365953
 20
11.1378454411
 11
3.8863982095
 21
11.1378454411
  0
INSERT
  5
223
100
AcDbEntity
  8
0
100
AcDbBlockReference
 62
2
  6
CONTINUOUS
  2
_CLOSED
 10
6.3341098237
 20
11.1378454411
 41
0.1875
 42
0.1875
 43
0.1875
  0
INSERT
  5
224
100
AcDbEntity
  8
0
100
AcDbBlockReference
 62
2
  6
CONTINUOUS
  2
_CLOSED
 10
2.2199365953
 20
11.1378454411
 41
0.1875
 42
0.1875
 43
0.1875
 50
180.0
  0
ENDBLK
  5
225
100
AcDbEntity
  8
0
  6
BYBLOCK
 62
0
100
AcDbBlockEnd
  0
ENDSEC
  0
SECTION
  2
ENTITIES
  0
DIMENSION
  5
226
100
AcDbEntity
  8
0
100
AcDbDimension
 62
2
  6
CONTINUOUS
  2
*D0
 10
7.2021410283
 20
1.2313350851
 11
7.2021410283
 21
5.9163744552
 70
160
 71
2
 42
238.0
  3
DIMSTYLE_1
100
AcDbAlignedDimension
 13
6.2159995875
 23
10.6014138253
 14
6.2159995875
 24
1.2313350851
 50
270.0
100
AcDbRotatedDimension
  0
DIMENSION
  5
227
100
AcDbEntity
  8
0
100
AcDbDimension
 62
2
  6
CONTINUOUS
  2
*D1
 10
2.2199365953
 20
11.1378454411
 11
4.2770232095
 21
11.1378454411
 70
160
 71
2
 42
104.5
  3
DIMSTYLE_1
100
AcDbAlignedDimension
 13
6.3341098237
 23
10.483303589
 14
2.2199365953
 24
10.483303589
 50
180.0
100
AcDbRotatedDimension
  0
MTEXT
  5
228
100
AcDbEntity
  8
0
100
AcDbMText
 62
2
  6
CONTINUOUS
  7
STANDARD
 71
1
 72
1
 10
2.6006616236
 20
0.7215348838
 30
0.0
 11
1.0
 21
0.0
 31
0.0
 44
0.9
  1
PCB BUTTONS V5 _ 2023 01 11
 40
0.15625
 41
3.375
  0
MTEXT
  5
229
100
AcDbEntity
  8
0
100
AcDbMText
 62
2
  6
CONTINUOUS
  7
STANDARD
 71
3
 72
1
 10
2.1001919179
 20
0.7509770214
 30
0.0
 11
1.0
 21
0.0
 31
0.0
 44
0.9
  1
ESCALA 1.000
 40
0.15625
 41
1.5
  0
LINE
  5
22A
100
AcDbEntity
  8
0
100
AcDbLine
 62
7
  6
CONTINUOUS
 10
-0.0
 20
0.0
 11
8.2677165354
 21
0.0
  0
LINE
  5
22B
100
AcDbEntity
  8
0
100
AcDbLine
 62
7
  6
CONTINUOUS
 10
-0.0
 20
0.0
 11
-0.0
 21
11.6929133858
  0
LINE
  5
22C
100
AcDbEntity
  8
0
100
AcDbLine
 62
7
  6
CONTINUOUS
 10
8.2677165354
 20
0.0
 11
8.2677165354
 21
11.6929133858
  0
LINE
  5
22D
100
AcDbEntity
  8
0
100
AcDbLine
 62
7
  6
CONTINUOUS
 10
-0.0
 20
11.6929133858
 11
8.2677165354
 21
11.6929133858
  0
LINE
  5
22E
100
AcDbEntity
  8
0
100
AcDbLine
 62
7
  6
CONTINUOUS
 10
2.3380468316
 20
1.2313350851
 11
6.2159995875
 21
1.2313350851
  0
LINE
  5
22F
100
AcDbEntity
  8
0
100
AcDbLine
 62
7
  6
CONTINUOUS
 10
5.0447397449
 20
2.4124374473
 11
3.5093066741
 21
2.4124374473
  0
LINE
  5
230
100
AcDbEntity
  8
0
100
AcDbLine
 62
7
  6
CONTINUOUS
 10
3.5093066741
 20
3.1998390221
 11
5.0447397449
 21
3.1998390221
  0
LINE
  5
231
100
AcDbEntity
  8
0
100
AcDbLine
 62
7
  6
CONTINUOUS
 10
2.2199365953
 20
10.483303589
 11
2.2199365953
 21
1.3494453213
  0
LINE
  5
232
100
AcDbEntity
  8
03___PRT_ALL_CURVES
100
AcDbLine
 62
8
  6
HIDDEN
 10
2.7711176977
 20
10.3258232741
 11
2.7711176977
 21
9.7943272111
  0
LINE
  5
233
100
AcDbEntity
  8
03___PRT_ALL_CURVES
100
AcDbLine
 62
8
  6
HIDDEN
 10
2.7711176977
 20
7.8258232741
 11
2.7711176977
 21
8.3573193371
  0
LINE
  5
234
100
AcDbEntity
  8
03___PRT_ALL_CURVES
100
AcDbLine
 62
8
  6
HIDDEN
 10
2.7711176977
 20
8.4819912531
 11
2.7711176977
 21
9.0134873161
  0
LINE
  5
235
100
AcDbEntity
  8
03___PRT_ALL_CURVES
100
AcDbLine
 62
8
  6
HIDDEN
 10
2.7711176977
 20
9.1381592321
 11
2.7711176977
 21
9.6696552951
  0
LINE
  5
236
100
AcDbEntity
  8
03___PRT_ALL_CURVES
100
AcDbLine
 62
8
  6
HIDDEN
 10
3.2829287213
 20
9.6696552951
 11
3.2829287213
 21
9.1381592321
  0
LINE
  5
237
100
AcDbEntity
  8
03___PRT_ALL_CURVES
100
AcDbLine
 62
8
  6
HIDDEN
 10
3.2829287213
 20
9.0134873161
 11
3.2829287213
 21
8.4819912531
  0
LINE
  5
238
100
AcDbEntity
  8
03___PRT_ALL_CURVES
100
AcDbLine
 62
8
  6
HIDDEN
 10
3.2829287213
 20
8.3573193371
 11
3.2829287213
 21
7.8258232741
  0
LINE
  5
239
100
AcDbEntity
  8
03___PRT_ALL_CURVES
100
AcDbLine
 62
8
  6
HIDDEN
 10
3.2829287213
 20
9.7943272111
 11
3.2829287213
 21
10.3258232741
  0
LINE
  5
23A
100
AcDbEntity
  8
0
100
AcDbLine
 62
7
  6
CONTINUOUS
 10
3.3911964379
 20
2.5305476835
 11
3.3911964379
 21
3.0817287859
  0
LINE
  5
23B
100
AcDbEntity
  8
03___PRT_ALL_CURVES
100
AcDbLine
 62
8
  6
HIDDEN
 10
3.3961176977
 20
7.8258232741
 11
3.3961176977
 21
8.3573193371
  0
LINE
  5
23C
100
AcDbEntity
  8
03___PRT_ALL_CURVES
100
AcDbLine
 62
8
  6
HIDDEN
 10
3.3961176977
 20
8.4819912531
 11
3.3961176977
 21
9.0134873161
  0
LINE
  5
23D
100
AcDbEntity
  8
03___PRT_ALL_CURVES
100
AcDbLine
 62
8
  6
HIDDEN
 10
3.3961176977
 20
9.1381592321
 11
3.3961176977
 21
9.6696552951
  0
LINE
  5
23E
100
AcDbEntity
  8
03___PRT_ALL_CURVES
100
AcDbLine
 62
8
  6
HIDDEN
 10
3.3961176977
 20
9.7943272111
 11
3.3961176977
 21
10.3258232741
  0
LINE
  5
23F
100
AcDbEntity
  8
03___PRT_ALL_CURVES
100
AcDbLine
 62
8
  6
HIDDEN
 10
3.9079287213
 20
10.3258232741
 11
3.9079287213
 21
9.7943272111
  0
LINE
  5
240
100
AcDbEntity
  8
03___PRT_ALL_CURVES
100
AcDbLine
 62
8
  6
HIDDEN
 10
3.9079287213
 20
9.6696552951
 11
3.9079287213
 21
9.1381592321
  0
LINE
  5
241
100
AcDbEntity
  8
03___PRT_ALL_CURVES
100
AcDbLine
 62
8
  6
HIDDEN
 10
3.9079287213
 20
9.0134873161
 11
3.9079287213
 21
8.4819912531
  0
LINE
  5
242
100
AcDbEntity
  8
03___PRT_ALL_CURVES
100
AcDbLine
 62
8
  6
HIDDEN
 10
3.9079287213
 20
8.3573193371
 11
3.9079287213
 21
7.8258232741
  0
LINE
  5
243
100
AcDbEntity
  8
03___PRT_ALL_CURVES
100
AcDbLine
 62
8
  6
HIDDEN
 10
4.0211176977
 20
10.3258232741
 11
4.0211176977
 21
9.7943272111
  0
LINE
  5
244
100
AcDbEntity
  8
03___PRT_ALL_CURVES
100
AcDbLine
 62
8
  6
HIDDEN
 10
4.0211176977
 20
7.8258232741
 11
4.0211176977
 21
8.3573193371
  0
LINE
  5
245
100
AcDbEntity
  8
03___PRT_ALL_CURVES
100
AcDbLine
 62
8
  6
HIDDEN
 10
4.0211176977
 20
8.4819912531
 11
4.0211176977
 21
9.0134873161
  0
LINE
  5
246
100
AcDbEntity
  8
03___PRT_ALL_CURVES
100
AcDbLine
 62
8
  6
HIDDEN
 10
4.0211176977
 20
9.1381592321
 11
4.0211176977
 21
9.6696552951
  0
LINE
  5
247
100
AcDbEntity
  8
03___PRT_ALL_CURVES
100
AcDbLine
 62
8
  6
HIDDEN
 10
4.5329287213
 20
9.6696552951
 11
4.5329287213
 21
9.1381592321
  0
LINE
  5
248
100
AcDbEntity
  8
03___PRT_ALL_CURVES
100
AcDbLine
 62
8
  6
HIDDEN
 10
4.5329287213
 20
9.0134873161
 11
4.5329287213
 21
8.4819912531
  0
LINE
  5
249
100
AcDbEntity
  8
03___PRT_ALL_CURVES
100
AcDbLine
 62
8
  6
HIDDEN
 10
4.5329287213
 20
8.3573193371
 11
4.5329287213
 21
7.8258232741
  0
LINE
  5
24A
100
AcDbEntity
  8
03___PRT_ALL_CURVES
100
AcDbLine
 62
8
  6
HIDDEN
 10
4.5329287213
 20
9.7943272111
 11
4.5329287213
 21
10.3258232741
  0
LINE
  5
24B
100
AcDbEntity
  8
03___PRT_ALL_CURVES
100
AcDbLine
 62
8
  6
HIDDEN
 10
4.6461176977
 20
9.6696552951
 11
4.6461176977
 21
9.1381592321
  0
LINE
  5
24C
100
AcDbEntity
  8
03___PRT_ALL_CURVES
100
AcDbLine
 62
8
  6
HIDDEN
 10
4.6461176977
 20
9.0134873161
 11
4.6461176977
 21
8.4819912531
  0
LINE
  5
24D
100
AcDbEntity
  8
03___PRT_ALL_CURVES
100
AcDbLine
 62
8
  6
HIDDEN
 10
4.6461176977
 20
8.3573193371
 11
4.6461176977
 21
7.8258232741
  0
LINE
  5
24E
100
AcDbEntity
  8
03___PRT_ALL_CURVES
100
AcDbLine
 62
8
  6
HIDDEN
 10
4.6461176977
 20
9.7943272111
 11
4.6461176977
 21
10.3258232741
  0
LINE
  5
24F
100
AcDbEntity
  8
03___PRT_ALL_CURVES
100
AcDbLine
 62
8
  6
HIDDEN
 10
5.1579287213
 20
10.3258232741
 11
5.1579287213
 21
9.7943272111
  0
LINE
  5
250
100
AcDbEntity
  8
03___PRT_ALL_CURVES
100
AcDbLine
 62
8
  6
HIDDEN
 10
5.1579287213
 20
7.8258232741
 11
5.1579287213
 21
8.3573193371
  0
LINE
  5
251
100
AcDbEntity
  8
03___PRT_ALL_CURVES
100
AcDbLine
 62
8
  6
HIDDEN
 10
5.1579287213
 20
8.4819912531
 11
5.1579287213
 21
9.0134873161
  0
LINE
  5
252
100
AcDbEntity
  8
03___PRT_ALL_CURVES
100
AcDbLine
 62
8
  6
HIDDEN
 10
5.1579287213
 20
9.1381592321
 11
5.1579287213
 21
9.6696552951
  0
LINE
  5
253
100
AcDbEntity
  8
0
100
AcDbLine
 62
7
  6
CONTINUOUS
 10
5.1628499812
 20
3.0817287859
 11
5.1628499812
 21
2.5305476835
  0
LINE
  5
254
100
AcDbEntity
  8
03___PRT_ALL_CURVES
100
AcDbLine
 62
8
  6
HIDDEN
 10
5.2711176977
 20
9.0134873161
 11
5.2711176977
 21
8.4819912531
  0
LINE
  5
255
100
AcDbEntity
  8
03___PRT_ALL_CURVES
100
AcDbLine
 62
8
  6
HIDDEN
 10
5.2711176977
 20
8.3573193371
 11
5.2711176977
 21
7.8258232741
  0
LINE
  5
256
100
AcDbEntity
  8
03___PRT_ALL_CURVES
100
AcDbLine
 62
8
  6
HIDDEN
 10
5.2711176977
 20
9.1381592321
 11
5.2711176977
 21
9.6696552951
  0
LINE
  5
257
100
AcDbEntity
  8
03___PRT_ALL_CURVES
100
AcDbLine
 62
8
  6
HIDDEN
 10
5.2711176977
 20
9.7943272111
 11
5.2711176977
 21
10.3258232741
  0
LINE
  5
258
100
AcDbEntity
  8
03___PRT_ALL_CURVES
100
AcDbLine
 62
8
  6
HIDDEN
 10
5.7829287213
 20
10.3258232741
 11
5.7829287213
 21
9.7943272111
  0
LINE
  5
259
100
AcDbEntity
  8
03___PRT_ALL_CURVES
100
AcDbLine
 62
8
  6
HIDDEN
 10
5.7829287213
 20
9.6696552951
 11
5.7829287213
 21
9.1381592321
  0
LINE
  5
25A
100
AcDbEntity
  8
03___PRT_ALL_CURVES
100
AcDbLine
 62
8
  6
HIDDEN
 10
5.7829287213
 20
7.8258232741
 11
5.7829287213
 21
8.3573193371
  0
LINE
  5
25B
100
AcDbEntity
  8
03___PRT_ALL_CURVES
100
AcDbLine
 62
8
  6
HIDDEN
 10
5.7829287213
 20
8.4819912531
 11
5.7829287213
 21
9.0134873161
  0
LINE
  5
25C
100
AcDbEntity
  8
0
100
AcDbLine
 62
7
  6
CONTINUOUS
 10
6.3341098237
 20
1.3494453213
 11
6.3341098237
 21
10.483303589
  0
LINE
  5
25D
100
AcDbEntity
  8
03___PRT_ALL_CURVES
100
AcDbLine
 62
8
  6
HIDDEN
 10
4.5329287213
 20
7.8258232741
 11
4.0211176977
 21
7.8258232741
  0
LINE
  5
25E
100
AcDbEntity
  8
03___PRT_ALL_CURVES
100
AcDbLine
 62
8
  6
HIDDEN
 10
3.9079287213
 20
7.8258232741
 11
3.3961176977
 21
7.8258232741
  0
LINE
  5
25F
100
AcDbEntity
  8
03___PRT_ALL_CURVES
100
AcDbLine
 62
8
  6
HIDDEN
 10
3.2829287213
 20
7.8258232741
 11
2.7711176977
 21
7.8258232741
  0
LINE
  5
260
100
AcDbEntity
  8
03___PRT_ALL_CURVES
100
AcDbLine
 62
8
  6
HIDDEN
 10
4.6461176977
 20
7.8258232741
 11
5.1579287213
 21
7.8258232741
  0
LINE
  5
261
100
AcDbEntity
  8
03___PRT_ALL_CURVES
100
AcDbLine
 62
8
  6
HIDDEN
 10
5.2711176977
 20
7.8258232741
 11
5.7829287213
 21
7.8258232741
  0
LINE
  5
262
100
AcDbEntity
  8
03___PRT_ALL_CURVES
100
AcDbLine
 62
8
  6
HIDDEN
 10
5.7829287213
 20
8.3573193371
 11
5.2711176977
 21
8.3573193371
  0
LINE
  5
263
100
AcDbEntity
  8
03___PRT_ALL_CURVES
100
AcDbLine
 62
8
  6
HIDDEN
 10
5.1579287213
 20
8.3573193371
 11
4.6461176977
 21
8.3573193371
  0
LINE
  5
264
100
AcDbEntity
  8
03___PRT_ALL_CURVES
100
AcDbLine
 62
8
  6
HIDDEN
 10
2.7711176977
 20
8.3573193371
 11
3.2829287213
 21
8.3573193371
  0
LINE
  5
265
100
AcDbEntity
  8
03___PRT_ALL_CURVES
100
AcDbLine
 62
8
  6
HIDDEN
 10
3.3961176977
 20
8.3573193371
 11
3.9079287213
 21
8.3573193371
  0
LINE
  5
266
100
AcDbEntity
  8
03___PRT_ALL_CURVES
100
AcDbLine
 62
8
  6
HIDDEN
 10
4.0211176977
 20
8.3573193371
 11
4.5329287213
 21
8.3573193371
  0
LINE
  5
267
100
AcDbEntity
  8
03___PRT_ALL_CURVES
100
AcDbLine
 62
8
  6
HIDDEN
 10
4.5329287213
 20
8.4819912531
 11
4.0211176977
 21
8.4819912531
  0
LINE
  5
268
100
AcDbEntity
  8
03___PRT_ALL_CURVES
100
AcDbLine
 62
8
  6
HIDDEN
 10
3.9079287213
 20
8.4819912531
 11
3.3961176977
 21
8.4819912531
  0
LINE
  5
269
100
AcDbEntity
  8
03___PRT_ALL_CURVES
100
AcDbLine
 62
8
  6
HIDDEN
 10
3.2829287213
 20
8.4819912531
 11
2.7711176977
 21
8.4819912531
  0
LINE
  5
26A
100
AcDbEntity
  8
03___PRT_ALL_CURVES
100
AcDbLine
 62
8
  6
HIDDEN
 10
4.6461176977
 20
8.4819912531
 11
5.1579287213
 21
8.4819912531
  0
LINE
  5
26B
100
AcDbEntity
  8
03___PRT_ALL_CURVES
100
AcDbLine
 62
8
  6
HIDDEN
 10
5.2711176977
 20
8.4819912531
 11
5.7829287213
 21
8.4819912531
  0
LINE
  5
26C
100
AcDbEntity
  8
03___PRT_ALL_CURVES
100
AcDbLine
 62
8
  6
HIDDEN
 10
5.7829287213
 20
9.0134873161
 11
5.2711176977
 21
9.0134873161
  0
LINE
  5
26D
100
AcDbEntity
  8
03___PRT_ALL_CURVES
100
AcDbLine
 62
8
  6
HIDDEN
 10
5.1579287213
 20
9.0134873161
 11
4.6461176977
 21
9.0134873161
  0
LINE
  5
26E
100
AcDbEntity
  8
03___PRT_ALL_CURVES
100
AcDbLine
 62
8
  6
HIDDEN
 10
2.7711176977
 20
9.0134873161
 11
3.2829287213
 21
9.0134873161
  0
LINE
  5
26F
100
AcDbEntity
  8
03___PRT_ALL_CURVES
100
AcDbLine
 62
8
  6
HIDDEN
 10
3.3961176977
 20
9.0134873161
 11
3.9079287213
 21
9.0134873161
  0
LINE
  5
270
100
AcDbEntity
  8
03___PRT_ALL_CURVES
100
AcDbLine
 62
8
  6
HIDDEN
 10
4.0211176977
 20
9.0134873161
 11
4.5329287213
 21
9.0134873161
  0
LINE
  5
271
100
AcDbEntity
  8
03___PRT_ALL_CURVES
100
AcDbLine
 62
8
  6
HIDDEN
 10
5.7829287213
 20
9.1381592321
 11
5.2711176977
 21
9.1381592321
  0
LINE
  5
272
100
AcDbEntity
  8
03___PRT_ALL_CURVES
100
AcDbLine
 62
8
  6
HIDDEN
 10
4.5329287213
 20
9.1381592321
 11
4.0211176977
 21
9.1381592321
  0
LINE
  5
273
100
AcDbEntity
  8
03___PRT_ALL_CURVES
100
AcDbLine
 62
8
  6
HIDDEN
 10
3.9079287213
 20
9.1381592321
 11
3.3961176977
 21
9.1381592321
  0
LINE
  5
274
100
AcDbEntity
  8
03___PRT_ALL_CURVES
100
AcDbLine
 62
8
  6
HIDDEN
 10
3.2829287213
 20
9.1381592321
 11
2.7711176977
 21
9.1381592321
  0
LINE
  5
275
100
AcDbEntity
  8
03___PRT_ALL_CURVES
100
AcDbLine
 62
8
  6
HIDDEN
 10
4.6461176977
 20
9.1381592321
 11
5.1579287213
 21
9.1381592321
  0
LINE
  5
276
100
AcDbEntity
  8
03___PRT_ALL_CURVES
100
AcDbLine
 62
8
  6
HIDDEN
 10
5.1579287213
 20
9.6696552951
 11
4.6461176977
 21
9.6696552951
  0
LINE
  5
277
100
AcDbEntity
  8
03___PRT_ALL_CURVES
100
AcDbLine
 62
8
  6
HIDDEN
 10
2.7711176977
 20
9.6696552951
 11
3.2829287213
 21
9.6696552951
  0
LINE
  5
278
100
AcDbEntity
  8
03___PRT_ALL_CURVES
100
AcDbLine
 62
8
  6
HIDDEN
 10
3.3961176977
 20
9.6696552951
 11
3.9079287213
 21
9.6696552951
  0
LINE
  5
279
100
AcDbEntity
  8
03___PRT_ALL_CURVES
100
AcDbLine
 62
8
  6
HIDDEN
 10
4.0211176977
 20
9.6696552951
 11
4.5329287213
 21
9.6696552951
  0
LINE
  5
27A
100
AcDbEntity
  8
03___PRT_ALL_CURVES
100
AcDbLine
 62
8
  6
HIDDEN
 10
5.2711176977
 20
9.6696552951
 11
5.7829287213
 21
9.6696552951
  0
LINE
  5
27B
100
AcDbEntity
  8
03___PRT_ALL_CURVES
100
AcDbLine
 62
8
  6
HIDDEN
 10
5.7829287213
 20
9.7943272111
 11
5.2711176977
 21
9.7943272111
  0
LINE
  5
27C
100
AcDbEntity
  8
03___PRT_ALL_CURVES
100
AcDbLine
 62
8
  6
HIDDEN
 10
5.1579287213
 20
9.7943272111
 11
4.6461176977
 21
9.7943272111
  0
LINE
  5
27D
100
AcDbEntity
  8
03___PRT_ALL_CURVES
100
AcDbLine
 62
8
  6
HIDDEN
 10
3.9079287213
 20
9.7943272111
 11
3.3961176977
 21
9.7943272111
  0
LINE
  5
27E
100
AcDbEntity
  8
03___PRT_ALL_CURVES
100
AcDbLine
 62
8
  6
HIDDEN
 10
2.7711176977
 20
9.7943272111
 11
3.2829287213
 21
9.7943272111
  0
LINE
  5
27F
100
AcDbEntity
  8
03___PRT_ALL_CURVES
100
AcDbLine
 62
8
  6
HIDDEN
 10
4.0211176977
 20
9.7943272111
 11
4.5329287213
 21
9.7943272111
  0
LINE
  5
280
100
AcDbEntity
  8
03___PRT_ALL_CURVES
100
AcDbLine
 62
8
  6
HIDDEN
 10
4.5329287213
 20
10.3258232741
 11
4.0211176977
 21
10.3258232741
  0
LINE
  5
281
100
AcDbEntity
  8
03___PRT_ALL_CURVES
100
AcDbLine
 62
8
  6
HIDDEN
 10
3.2829287213
 20
10.3258232741
 11
2.7711176977
 21
10.3258232741
  0
LINE
  5
282
100
AcDbEntity
  8
03___PRT_ALL_CURVES
100
AcDbLine
 62
8
  6
HIDDEN
 10
3.3961176977
 20
10.3258232741
 11
3.9079287213
 21
10.3258232741
  0
LINE
  5
283
100
AcDbEntity
  8
03___PRT_ALL_CURVES
100
AcDbLine
 62
8
  6
HIDDEN
 10
4.6461176977
 20
10.3258232741
 11
5.1579287213
 21
10.3258232741
  0
LINE
  5
284
100
AcDbEntity
  8
03___PRT_ALL_CURVES
100
AcDbLine
 62
8
  6
HIDDEN
 10
5.2711176977
 20
10.3258232741
 11
5.7829287213
 21
10.3258232741
  0
LINE
  5
285
100
AcDbEntity
  8
0
100
AcDbLine
 62
7
  6
CONTINUOUS
 10
6.2159995875
 20
10.6014138253
 11
2.3380468316
 21
10.6014138253
  0
CIRCLE
  5
286
100
AcDbEntity
  8
03___PRT_ALL_CURVES
100
AcDbCircle
 62
8
  6
HIDDEN
 10
2.6234799024
 20
1.861256345
 40
0.1181102362
  0
CIRCLE
  5
287
100
AcDbEntity
  8
03___PRT_ALL_CURVES
100
AcDbCircle
 62
8
  6
HIDDEN
 10
3.7258421072
 20
1.861256345
 40
0.1181102362
  0
ARC
  5
288
100
AcDbEntity
  8
0
100
AcDbCircle
 62
7
  6
CONTINUOUS
 10
2.3380468316
 20
1.3494453213
 40
0.1181102362
100
AcDbArc
 50
180.0
 51
270.0
  0
ARC
  5
289
100
AcDbEntity
  8
0
100
AcDbCircle
 62
7
  6
CONTINUOUS
 10
3.5093066741
 20
2.5305476835
 40
0.1181102362
100
AcDbArc
 50
180.0
 51
270.0
  0
ARC
  5
28A
100
AcDbEntity
  8
0
100
AcDbCircle
 62
7
  6
CONTINUOUS
 10
3.5093066741
 20
3.0817287859
 40
0.1181102362
100
AcDbArc
 50
90.0
 51
180.0
  0
CIRCLE
  5
28B
100
AcDbEntity
  8
0
100
AcDbCircle
 62
7
  6
CONTINUOUS
 10
2.416786989
 20
2.4124374473
 40
0.0688976378
  0
CIRCLE
  5
28C
100
AcDbEntity
  8
0
100
AcDbCircle
 62
7
  6
CONTINUOUS
 10
2.416786989
 20
1.3888154001
 40
0.0688976378
  0
CIRCLE
  5
28D
100
AcDbEntity
  8
02___PRT_ALL_AXES
100
AcDbCircle
 62
7
  6
CONTINUOUS
 10
3.3439523434
 20
3.8986579198
 40
0.0688976378
  0
CIRCLE
  5
28E
100
AcDbEntity
  8
02___PRT_ALL_AXES
100
AcDbCircle
 62
7
  6
CONTINUOUS
 10
2.948283052
 20
2.8159807544
 40
0.0688976378
  0
ARC
  5
28F
100
AcDbEntity
  8
0
100
AcDbCircle
 62
7
  6
CONTINUOUS
 10
2.3380468316
 20
10.483303589
 40
0.1181102362
100
AcDbArc
 50
90.0
 51
180.0
  0
CIRCLE
  5
290
100
AcDbEntity
  8
0
100
AcDbCircle
 62
7
  6
CONTINUOUS
 10
2.416786989
 20
10.4439335103
 40
0.0688976378
  0
CIRCLE
  5
291
100
AcDbEntity
  8
0
100
AcDbCircle
 62
7
  6
CONTINUOUS
 10
2.416786989
 20
7.6683429591
 40
0.0688976378
  0
CIRCLE
  5
292
100
AcDbEntity
  8
02___PRT_ALL_AXES
100
AcDbCircle
 62
7
  6
CONTINUOUS
 10
2.948283052
 20
7.264799652
 40
0.0688976378
  0
CIRCLE
  5
293
100
AcDbEntity
  8
02___PRT_ALL_AXES
100
AcDbCircle
 62
7
  6
CONTINUOUS
 10
3.3439523434
 20
6.1821224867
 40
0.0688976378
  0
CIRCLE
  5
294
100
AcDbEntity
  8
02___PRT_ALL_AXES
100
AcDbCircle
 62
7
  6
CONTINUOUS
 10
3.9645232095
 20
9.7319912531
 40
0.0433070866
  0
CIRCLE
  5
295
100
AcDbEntity
  8
02___PRT_ALL_AXES
100
AcDbCircle
 62
7
  6
CONTINUOUS
 10
3.9645232095
 20
8.4196552951
 40
0.0433070866
  0
CIRCLE
  5
296
100
AcDbEntity
  8
02___PRT_ALL_AXES
100
AcDbCircle
 62
7
  6
CONTINUOUS
 10
2.7144543143
 20
7.7794849901
 40
0.0433070866
  0
CIRCLE
  5
297
100
AcDbEntity
  8
02___PRT_ALL_AXES
100
AcDbCircle
 62
7
  6
CONTINUOUS
 10
2.7144543143
 20
10.3721615581
 40
0.0433070866
  0
CIRCLE
  5
298
100
AcDbEntity
  8
03___PRT_ALL_CURVES
100
AcDbCircle
 62
8
  6
HIDDEN
 10
4.8282043119
 20
1.861256345
 40
0.1181102362
  0
CIRCLE
  5
299
100
AcDbEntity
  8
03___PRT_ALL_CURVES
100
AcDbCircle
 62
8
  6
HIDDEN
 10
5.9305665166
 20
1.861256345
 40
0.1181102362
  0
ARC
  5
29A
100
AcDbEntity
  8
0
100
AcDbCircle
 62
7
  6
CONTINUOUS
 10
6.2159995875
 20
1.3494453213
 40
0.1181102362
100
AcDbArc
 50
270.0
 51
360.0
  0
ARC
  5
29B
100
AcDbEntity
  8
0
100
AcDbCircle
 62
7
  6
CONTINUOUS
 10
5.0447397449
 20
3.0817287859
 40
0.1181102362
100
AcDbArc
 50
0.0
 51
90.0
  0
ARC
  5
29C
100
AcDbEntity
  8
0
100
AcDbCircle
 62
7
  6
CONTINUOUS
 10
5.0447397449
 20
2.5305476835
 40
0.1181102362
100
AcDbArc
 50
270.0
 51
360.0
  0
CIRCLE
  5
29D
100
AcDbEntity
  8
0
100
AcDbCircle
 62
7
  6
CONTINUOUS
 10
6.13725943
 20
2.4124374473
 40
0.0688976378
  0
CIRCLE
  5
29E
100
AcDbEntity
  8
0
100
AcDbCircle
 62
7
  6
CONTINUOUS
 10
6.13725943
 20
1.3888154001
 40
0.0688976378
  0
CIRCLE
  5
29F
100
AcDbEntity
  8
02___PRT_ALL_AXES
100
AcDbCircle
 62
7
  6
CONTINUOUS
 10
5.605763367
 20
2.8159807544
 40
0.0688976378
  0
CIRCLE
  5
2A0
100
AcDbEntity
  8
02___PRT_ALL_AXES
100
AcDbCircle
 62
7
  6
CONTINUOUS
 10
5.2730862016
 20
3.8986579198
 40
0.0688976378
  0
ARC
  5
2A1
100
AcDbEntity
  8
0
100
AcDbCircle
 62
7
  6
CONTINUOUS
 10
6.2159995875
 20
10.483303589
 40
0.1181102362
100
AcDbArc
 50
0.0
 51
90.0
  0
CIRCLE
  5
2A2
100
AcDbEntity
  8
0
100
AcDbCircle
 62
7
  6
CONTINUOUS
 10
6.13725943
 20
10.4439335103
 40
0.0688976378
  0
CIRCLE
  5
2A3
100
AcDbEntity
  8
0
100
AcDbCircle
 62
7
  6
CONTINUOUS
 10
6.13725943
 20
7.6683429591
 40
0.0688976378
  0
CIRCLE
  5
2A4
100
AcDbEntity
  8
02___PRT_ALL_AXES
100
AcDbCircle
 62
7
  6
CONTINUOUS
 10
5.2730862016
 20
6.1821224867
 40
0.0688976378
  0
CIRCLE
  5
2A5
100
AcDbEntity
  8
02___PRT_ALL_AXES
100
AcDbCircle
 62
7
  6
CONTINUOUS
 10
5.605763367
 20
7.264799652
 40
0.0688976378
  0
CIRCLE
  5
2A6
100
AcDbEntity
  8
02___PRT_ALL_AXES
100
AcDbCircle
 62
7
  6
CONTINUOUS
 10
5.8395921048
 20
7.7794849901
 40
0.0433070866
  0
CIRCLE
  5
2A7
100
AcDbEntity
  8
02___PRT_ALL_AXES
100
AcDbCircle
 62
7
  6
CONTINUOUS
 10
5.8395921048
 20
10.3721615581
 40
0.0433070866
  0
CIRCLE
  5
2A8
100
AcDbEntity
  8
02___PRT_ALL_AXES
100
AcDbCircle
 62
7
  6
CONTINUOUS
 10
4.5895232095
 20
8.4196552951
 40
0.0433070866
  0
CIRCLE
  5
2A9
100
AcDbEntity
  8
02___PRT_ALL_AXES
100
AcDbCircle
 62
7
  6
CONTINUOUS
 10
4.5895232095
 20
9.7319912531
 40
0.0433070866
  0
ENDSEC
  0
SECTION
  2
OBJECTS
  0
DICTIONARY
  5
C
100
AcDbDictionary
280
0
281
1
  3
ACAD_GROUP
350
D
  3
ACAD_MLINESTYLE
350
17
  3
ACAD_LAYOUT
350
1A
  3
ACAD_PLOTSETTINGS
350
19
  3
ACAD_PLOTSTYLENAME
350
E
  0
DICTIONARY
  5
D
102
{ACAD_REACTORS
330
C
102
}
100
AcDbDictionary
280
0
281
1
  0
ACDBDICTIONARYWDFLT
  5
E
102
{ACAD_REACTORS
330
C
102
}
100
AcDbDictionary
281
1
  3
Normal
350
F
100
AcDbDictionaryWithDefault
340
F
  0
DICTIONARY
  5
17
102
{ACAD_REACTORS
330
C
102
}
100
AcDbDictionary
280
0
281
1
  3
Standard
350
18
  0
DICTIONARY
  5
19
102
{ACAD_REACTORS
330
C
102
}
100
AcDbDictionary
281
1
  0
DICTIONARY
  5
1A
102
{ACAD_REACTORS
330
C
102
}
100
AcDbDictionary
281
1
  3
Model
350
2AA
  3
Layout1
350
2AB
  0
ACDBPLACEHOLDER
  5
F
102
{ACAD_REACTORS
330
E
102
}
  0
MLINESTYLE
  5
18
102
{ACAD_REACTORS
330
17
102
}
100
AcDbMlineStyle
  2
STANDARD
 70
0
  3

 62
256
 51
90.0
 52
90.0
 71
2
 49
0.5
 62
256
  6
BYLAYER
 49
-0.5
 62
256
  6
BYLAYER
  0
LAYOUT
  5
2AA
102
{ACAD_REACTORS
330
1A
102
}
100
AcDbPlotSettings
  1

  2
none_device
  4

  6

 40
0.0
 41
0.0
 42
0.0
 43
0.0
 44
210.0
 45
297.0
 46
0.0
 47
0.0
 48
0.0
 49
0.0
140
0.0
141
0.0
142
1.0
143
1.0
 70
1024
 72
0
 73
0
 74
0
  7

 75
0
147
1.0
148
0.0
149
0.0
100
AcDbLayout
  1
Model
 70
0
 71
0
 10
0.0
 20
0.0
 11
8.2677165354
 21
11.6929133858
 12
0.0
 22
0.0
 32
0.0
 14
0.0
 24
0.0
 34
0.0
 15
0.0
 25
0.0
 35
0.0
146
0.0
 13
0.0
 23
0.0
 33
0.0
 16
1.0
 26
0.0
 36
0.0
 17
0.0
 27
1.0
 37
0.0
 76
0
330
207
345
0
346
0
  0
LAYOUT
  5
2AB
102
{ACAD_REACTORS
330
1A
102
}
100
AcDbPlotSettings
  1

  2
none_device
  4

  6

 40
0.0
 41
0.0
 42
0.0
 43
0.0
 44
210.0
 45
297.0
 46
0.0
 47
0.0
 48
0.0
 49
0.0
140
0.0
141
0.0
142
1.0
143
1.0
 70
0
 72
0
 73
0
 74
0
  7

 75
0
147
1.0
148
0.0
149
0.0
100
AcDbLayout
  1
Layout1
 70
0
 71
1
 10
0.0
 20
0.0
 11
8.2677165354
 21
11.6929133858
 12
0.0
 22
0.0
 32
0.0
 14
0.0
 24
0.0
 34
0.0
 15
0.0
 25
0.0
 35
0.0
146
0.0
 13
0.0
 23
0.0
 33
0.0
 16
1.0
 26
0.0
 36
0.0
 17
0.0
 27
1.0
 37
0.0
 76
0
330
208
345
0
346
0
  0
ENDSEC
  0
EOF
