G04 #@! TF.GenerationSoftware,KiCad,Pcbnew,5.1.6-c6e7f7d~87~ubuntu18.04.1*
G04 #@! TF.CreationDate,2020-12-02T03:09:43+01:00*
G04 #@! TF.ProjectId,zynthian_zynaptik,7a796e74-6869-4616-9e5f-7a796e617074,1.0*
G04 #@! TF.SameCoordinates,Original*
G04 #@! TF.FileFunction,Soldermask,Bot*
G04 #@! TF.FilePolarity,Negative*
%FSLAX46Y46*%
G04 Gerber Fmt 4.6, Leading zero omitted, Abs format (unit mm)*
G04 Created by KiCad (PCBNEW 5.1.6-c6e7f7d~87~ubuntu18.04.1) date 2020-12-02 03:09:43*
%MOMM*%
%LPD*%
G01*
G04 APERTURE LIST*
%ADD10C,0.100000*%
G04 APERTURE END LIST*
D10*
G36*
X118992935Y-128087664D02*
G01*
X119147624Y-128151739D01*
X119147626Y-128151740D01*
X119286844Y-128244762D01*
X119405238Y-128363156D01*
X119493716Y-128495574D01*
X119498261Y-128502376D01*
X119562336Y-128657065D01*
X119595000Y-128821281D01*
X119595000Y-128988719D01*
X119562336Y-129152935D01*
X119498261Y-129307624D01*
X119498260Y-129307626D01*
X119405238Y-129446844D01*
X119286844Y-129565238D01*
X119147626Y-129658260D01*
X119147625Y-129658261D01*
X119147624Y-129658261D01*
X118992935Y-129722336D01*
X118828719Y-129755000D01*
X118661281Y-129755000D01*
X118497065Y-129722336D01*
X118342376Y-129658261D01*
X118342375Y-129658261D01*
X118342374Y-129658260D01*
X118203156Y-129565238D01*
X118084762Y-129446844D01*
X117991740Y-129307626D01*
X117991739Y-129307624D01*
X117927664Y-129152935D01*
X117895000Y-128988719D01*
X117895000Y-128821281D01*
X117927664Y-128657065D01*
X117991739Y-128502376D01*
X117996284Y-128495574D01*
X118084762Y-128363156D01*
X118203156Y-128244762D01*
X118342374Y-128151740D01*
X118342376Y-128151739D01*
X118497065Y-128087664D01*
X118661281Y-128055000D01*
X118828719Y-128055000D01*
X118992935Y-128087664D01*
G37*
G36*
X93592935Y-128087664D02*
G01*
X93747624Y-128151739D01*
X93747626Y-128151740D01*
X93886844Y-128244762D01*
X94005238Y-128363156D01*
X94093716Y-128495574D01*
X94098261Y-128502376D01*
X94162336Y-128657065D01*
X94195000Y-128821281D01*
X94195000Y-128988719D01*
X94162336Y-129152935D01*
X94098261Y-129307624D01*
X94098260Y-129307626D01*
X94005238Y-129446844D01*
X93886844Y-129565238D01*
X93747626Y-129658260D01*
X93747625Y-129658261D01*
X93747624Y-129658261D01*
X93592935Y-129722336D01*
X93428719Y-129755000D01*
X93261281Y-129755000D01*
X93097065Y-129722336D01*
X92942376Y-129658261D01*
X92942375Y-129658261D01*
X92942374Y-129658260D01*
X92803156Y-129565238D01*
X92684762Y-129446844D01*
X92591740Y-129307626D01*
X92591739Y-129307624D01*
X92527664Y-129152935D01*
X92495000Y-128988719D01*
X92495000Y-128821281D01*
X92527664Y-128657065D01*
X92591739Y-128502376D01*
X92596284Y-128495574D01*
X92684762Y-128363156D01*
X92803156Y-128244762D01*
X92942374Y-128151740D01*
X92942376Y-128151739D01*
X93097065Y-128087664D01*
X93261281Y-128055000D01*
X93428719Y-128055000D01*
X93592935Y-128087664D01*
G37*
G36*
X70732935Y-128087664D02*
G01*
X70887624Y-128151739D01*
X70887626Y-128151740D01*
X71026844Y-128244762D01*
X71145238Y-128363156D01*
X71233716Y-128495574D01*
X71238261Y-128502376D01*
X71302336Y-128657065D01*
X71335000Y-128821281D01*
X71335000Y-128988719D01*
X71302336Y-129152935D01*
X71238261Y-129307624D01*
X71238260Y-129307626D01*
X71145238Y-129446844D01*
X71026844Y-129565238D01*
X70887626Y-129658260D01*
X70887625Y-129658261D01*
X70887624Y-129658261D01*
X70732935Y-129722336D01*
X70568719Y-129755000D01*
X70401281Y-129755000D01*
X70237065Y-129722336D01*
X70082376Y-129658261D01*
X70082375Y-129658261D01*
X70082374Y-129658260D01*
X69943156Y-129565238D01*
X69824762Y-129446844D01*
X69731740Y-129307626D01*
X69731739Y-129307624D01*
X69667664Y-129152935D01*
X69635000Y-128988719D01*
X69635000Y-128821281D01*
X69667664Y-128657065D01*
X69731739Y-128502376D01*
X69736284Y-128495574D01*
X69824762Y-128363156D01*
X69943156Y-128244762D01*
X70082374Y-128151740D01*
X70082376Y-128151739D01*
X70237065Y-128087664D01*
X70401281Y-128055000D01*
X70568719Y-128055000D01*
X70732935Y-128087664D01*
G37*
G36*
X73272935Y-128087664D02*
G01*
X73427624Y-128151739D01*
X73427626Y-128151740D01*
X73566844Y-128244762D01*
X73685238Y-128363156D01*
X73773716Y-128495574D01*
X73778261Y-128502376D01*
X73842336Y-128657065D01*
X73875000Y-128821281D01*
X73875000Y-128988719D01*
X73842336Y-129152935D01*
X73778261Y-129307624D01*
X73778260Y-129307626D01*
X73685238Y-129446844D01*
X73566844Y-129565238D01*
X73427626Y-129658260D01*
X73427625Y-129658261D01*
X73427624Y-129658261D01*
X73272935Y-129722336D01*
X73108719Y-129755000D01*
X72941281Y-129755000D01*
X72777065Y-129722336D01*
X72622376Y-129658261D01*
X72622375Y-129658261D01*
X72622374Y-129658260D01*
X72483156Y-129565238D01*
X72364762Y-129446844D01*
X72271740Y-129307626D01*
X72271739Y-129307624D01*
X72207664Y-129152935D01*
X72175000Y-128988719D01*
X72175000Y-128821281D01*
X72207664Y-128657065D01*
X72271739Y-128502376D01*
X72276284Y-128495574D01*
X72364762Y-128363156D01*
X72483156Y-128244762D01*
X72622374Y-128151740D01*
X72622376Y-128151739D01*
X72777065Y-128087664D01*
X72941281Y-128055000D01*
X73108719Y-128055000D01*
X73272935Y-128087664D01*
G37*
G36*
X75812935Y-128087664D02*
G01*
X75967624Y-128151739D01*
X75967626Y-128151740D01*
X76106844Y-128244762D01*
X76225238Y-128363156D01*
X76313716Y-128495574D01*
X76318261Y-128502376D01*
X76382336Y-128657065D01*
X76415000Y-128821281D01*
X76415000Y-128988719D01*
X76382336Y-129152935D01*
X76318261Y-129307624D01*
X76318260Y-129307626D01*
X76225238Y-129446844D01*
X76106844Y-129565238D01*
X75967626Y-129658260D01*
X75967625Y-129658261D01*
X75967624Y-129658261D01*
X75812935Y-129722336D01*
X75648719Y-129755000D01*
X75481281Y-129755000D01*
X75317065Y-129722336D01*
X75162376Y-129658261D01*
X75162375Y-129658261D01*
X75162374Y-129658260D01*
X75023156Y-129565238D01*
X74904762Y-129446844D01*
X74811740Y-129307626D01*
X74811739Y-129307624D01*
X74747664Y-129152935D01*
X74715000Y-128988719D01*
X74715000Y-128821281D01*
X74747664Y-128657065D01*
X74811739Y-128502376D01*
X74816284Y-128495574D01*
X74904762Y-128363156D01*
X75023156Y-128244762D01*
X75162374Y-128151740D01*
X75162376Y-128151739D01*
X75317065Y-128087664D01*
X75481281Y-128055000D01*
X75648719Y-128055000D01*
X75812935Y-128087664D01*
G37*
G36*
X78352935Y-128087664D02*
G01*
X78507624Y-128151739D01*
X78507626Y-128151740D01*
X78646844Y-128244762D01*
X78765238Y-128363156D01*
X78853716Y-128495574D01*
X78858261Y-128502376D01*
X78922336Y-128657065D01*
X78955000Y-128821281D01*
X78955000Y-128988719D01*
X78922336Y-129152935D01*
X78858261Y-129307624D01*
X78858260Y-129307626D01*
X78765238Y-129446844D01*
X78646844Y-129565238D01*
X78507626Y-129658260D01*
X78507625Y-129658261D01*
X78507624Y-129658261D01*
X78352935Y-129722336D01*
X78188719Y-129755000D01*
X78021281Y-129755000D01*
X77857065Y-129722336D01*
X77702376Y-129658261D01*
X77702375Y-129658261D01*
X77702374Y-129658260D01*
X77563156Y-129565238D01*
X77444762Y-129446844D01*
X77351740Y-129307626D01*
X77351739Y-129307624D01*
X77287664Y-129152935D01*
X77255000Y-128988719D01*
X77255000Y-128821281D01*
X77287664Y-128657065D01*
X77351739Y-128502376D01*
X77356284Y-128495574D01*
X77444762Y-128363156D01*
X77563156Y-128244762D01*
X77702374Y-128151740D01*
X77702376Y-128151739D01*
X77857065Y-128087664D01*
X78021281Y-128055000D01*
X78188719Y-128055000D01*
X78352935Y-128087664D01*
G37*
G36*
X80892935Y-128087664D02*
G01*
X81047624Y-128151739D01*
X81047626Y-128151740D01*
X81186844Y-128244762D01*
X81305238Y-128363156D01*
X81393716Y-128495574D01*
X81398261Y-128502376D01*
X81462336Y-128657065D01*
X81495000Y-128821281D01*
X81495000Y-128988719D01*
X81462336Y-129152935D01*
X81398261Y-129307624D01*
X81398260Y-129307626D01*
X81305238Y-129446844D01*
X81186844Y-129565238D01*
X81047626Y-129658260D01*
X81047625Y-129658261D01*
X81047624Y-129658261D01*
X80892935Y-129722336D01*
X80728719Y-129755000D01*
X80561281Y-129755000D01*
X80397065Y-129722336D01*
X80242376Y-129658261D01*
X80242375Y-129658261D01*
X80242374Y-129658260D01*
X80103156Y-129565238D01*
X79984762Y-129446844D01*
X79891740Y-129307626D01*
X79891739Y-129307624D01*
X79827664Y-129152935D01*
X79795000Y-128988719D01*
X79795000Y-128821281D01*
X79827664Y-128657065D01*
X79891739Y-128502376D01*
X79896284Y-128495574D01*
X79984762Y-128363156D01*
X80103156Y-128244762D01*
X80242374Y-128151740D01*
X80242376Y-128151739D01*
X80397065Y-128087664D01*
X80561281Y-128055000D01*
X80728719Y-128055000D01*
X80892935Y-128087664D01*
G37*
G36*
X83432935Y-128087664D02*
G01*
X83587624Y-128151739D01*
X83587626Y-128151740D01*
X83726844Y-128244762D01*
X83845238Y-128363156D01*
X83933716Y-128495574D01*
X83938261Y-128502376D01*
X84002336Y-128657065D01*
X84035000Y-128821281D01*
X84035000Y-128988719D01*
X84002336Y-129152935D01*
X83938261Y-129307624D01*
X83938260Y-129307626D01*
X83845238Y-129446844D01*
X83726844Y-129565238D01*
X83587626Y-129658260D01*
X83587625Y-129658261D01*
X83587624Y-129658261D01*
X83432935Y-129722336D01*
X83268719Y-129755000D01*
X83101281Y-129755000D01*
X82937065Y-129722336D01*
X82782376Y-129658261D01*
X82782375Y-129658261D01*
X82782374Y-129658260D01*
X82643156Y-129565238D01*
X82524762Y-129446844D01*
X82431740Y-129307626D01*
X82431739Y-129307624D01*
X82367664Y-129152935D01*
X82335000Y-128988719D01*
X82335000Y-128821281D01*
X82367664Y-128657065D01*
X82431739Y-128502376D01*
X82436284Y-128495574D01*
X82524762Y-128363156D01*
X82643156Y-128244762D01*
X82782374Y-128151740D01*
X82782376Y-128151739D01*
X82937065Y-128087664D01*
X83101281Y-128055000D01*
X83268719Y-128055000D01*
X83432935Y-128087664D01*
G37*
G36*
X85972935Y-128087664D02*
G01*
X86127624Y-128151739D01*
X86127626Y-128151740D01*
X86266844Y-128244762D01*
X86385238Y-128363156D01*
X86473716Y-128495574D01*
X86478261Y-128502376D01*
X86542336Y-128657065D01*
X86575000Y-128821281D01*
X86575000Y-128988719D01*
X86542336Y-129152935D01*
X86478261Y-129307624D01*
X86478260Y-129307626D01*
X86385238Y-129446844D01*
X86266844Y-129565238D01*
X86127626Y-129658260D01*
X86127625Y-129658261D01*
X86127624Y-129658261D01*
X85972935Y-129722336D01*
X85808719Y-129755000D01*
X85641281Y-129755000D01*
X85477065Y-129722336D01*
X85322376Y-129658261D01*
X85322375Y-129658261D01*
X85322374Y-129658260D01*
X85183156Y-129565238D01*
X85064762Y-129446844D01*
X84971740Y-129307626D01*
X84971739Y-129307624D01*
X84907664Y-129152935D01*
X84875000Y-128988719D01*
X84875000Y-128821281D01*
X84907664Y-128657065D01*
X84971739Y-128502376D01*
X84976284Y-128495574D01*
X85064762Y-128363156D01*
X85183156Y-128244762D01*
X85322374Y-128151740D01*
X85322376Y-128151739D01*
X85477065Y-128087664D01*
X85641281Y-128055000D01*
X85808719Y-128055000D01*
X85972935Y-128087664D01*
G37*
G36*
X88512935Y-128087664D02*
G01*
X88667624Y-128151739D01*
X88667626Y-128151740D01*
X88806844Y-128244762D01*
X88925238Y-128363156D01*
X89013716Y-128495574D01*
X89018261Y-128502376D01*
X89082336Y-128657065D01*
X89115000Y-128821281D01*
X89115000Y-128988719D01*
X89082336Y-129152935D01*
X89018261Y-129307624D01*
X89018260Y-129307626D01*
X88925238Y-129446844D01*
X88806844Y-129565238D01*
X88667626Y-129658260D01*
X88667625Y-129658261D01*
X88667624Y-129658261D01*
X88512935Y-129722336D01*
X88348719Y-129755000D01*
X88181281Y-129755000D01*
X88017065Y-129722336D01*
X87862376Y-129658261D01*
X87862375Y-129658261D01*
X87862374Y-129658260D01*
X87723156Y-129565238D01*
X87604762Y-129446844D01*
X87511740Y-129307626D01*
X87511739Y-129307624D01*
X87447664Y-129152935D01*
X87415000Y-128988719D01*
X87415000Y-128821281D01*
X87447664Y-128657065D01*
X87511739Y-128502376D01*
X87516284Y-128495574D01*
X87604762Y-128363156D01*
X87723156Y-128244762D01*
X87862374Y-128151740D01*
X87862376Y-128151739D01*
X88017065Y-128087664D01*
X88181281Y-128055000D01*
X88348719Y-128055000D01*
X88512935Y-128087664D01*
G37*
G36*
X91052935Y-128087664D02*
G01*
X91207624Y-128151739D01*
X91207626Y-128151740D01*
X91346844Y-128244762D01*
X91465238Y-128363156D01*
X91553716Y-128495574D01*
X91558261Y-128502376D01*
X91622336Y-128657065D01*
X91655000Y-128821281D01*
X91655000Y-128988719D01*
X91622336Y-129152935D01*
X91558261Y-129307624D01*
X91558260Y-129307626D01*
X91465238Y-129446844D01*
X91346844Y-129565238D01*
X91207626Y-129658260D01*
X91207625Y-129658261D01*
X91207624Y-129658261D01*
X91052935Y-129722336D01*
X90888719Y-129755000D01*
X90721281Y-129755000D01*
X90557065Y-129722336D01*
X90402376Y-129658261D01*
X90402375Y-129658261D01*
X90402374Y-129658260D01*
X90263156Y-129565238D01*
X90144762Y-129446844D01*
X90051740Y-129307626D01*
X90051739Y-129307624D01*
X89987664Y-129152935D01*
X89955000Y-128988719D01*
X89955000Y-128821281D01*
X89987664Y-128657065D01*
X90051739Y-128502376D01*
X90056284Y-128495574D01*
X90144762Y-128363156D01*
X90263156Y-128244762D01*
X90402374Y-128151740D01*
X90402376Y-128151739D01*
X90557065Y-128087664D01*
X90721281Y-128055000D01*
X90888719Y-128055000D01*
X91052935Y-128087664D01*
G37*
G36*
X98672935Y-128087664D02*
G01*
X98827624Y-128151739D01*
X98827626Y-128151740D01*
X98966844Y-128244762D01*
X99085238Y-128363156D01*
X99173716Y-128495574D01*
X99178261Y-128502376D01*
X99242336Y-128657065D01*
X99275000Y-128821281D01*
X99275000Y-128988719D01*
X99242336Y-129152935D01*
X99178261Y-129307624D01*
X99178260Y-129307626D01*
X99085238Y-129446844D01*
X98966844Y-129565238D01*
X98827626Y-129658260D01*
X98827625Y-129658261D01*
X98827624Y-129658261D01*
X98672935Y-129722336D01*
X98508719Y-129755000D01*
X98341281Y-129755000D01*
X98177065Y-129722336D01*
X98022376Y-129658261D01*
X98022375Y-129658261D01*
X98022374Y-129658260D01*
X97883156Y-129565238D01*
X97764762Y-129446844D01*
X97671740Y-129307626D01*
X97671739Y-129307624D01*
X97607664Y-129152935D01*
X97575000Y-128988719D01*
X97575000Y-128821281D01*
X97607664Y-128657065D01*
X97671739Y-128502376D01*
X97676284Y-128495574D01*
X97764762Y-128363156D01*
X97883156Y-128244762D01*
X98022374Y-128151740D01*
X98022376Y-128151739D01*
X98177065Y-128087664D01*
X98341281Y-128055000D01*
X98508719Y-128055000D01*
X98672935Y-128087664D01*
G37*
G36*
X101212935Y-128087664D02*
G01*
X101367624Y-128151739D01*
X101367626Y-128151740D01*
X101506844Y-128244762D01*
X101625238Y-128363156D01*
X101713716Y-128495574D01*
X101718261Y-128502376D01*
X101782336Y-128657065D01*
X101815000Y-128821281D01*
X101815000Y-128988719D01*
X101782336Y-129152935D01*
X101718261Y-129307624D01*
X101718260Y-129307626D01*
X101625238Y-129446844D01*
X101506844Y-129565238D01*
X101367626Y-129658260D01*
X101367625Y-129658261D01*
X101367624Y-129658261D01*
X101212935Y-129722336D01*
X101048719Y-129755000D01*
X100881281Y-129755000D01*
X100717065Y-129722336D01*
X100562376Y-129658261D01*
X100562375Y-129658261D01*
X100562374Y-129658260D01*
X100423156Y-129565238D01*
X100304762Y-129446844D01*
X100211740Y-129307626D01*
X100211739Y-129307624D01*
X100147664Y-129152935D01*
X100115000Y-128988719D01*
X100115000Y-128821281D01*
X100147664Y-128657065D01*
X100211739Y-128502376D01*
X100216284Y-128495574D01*
X100304762Y-128363156D01*
X100423156Y-128244762D01*
X100562374Y-128151740D01*
X100562376Y-128151739D01*
X100717065Y-128087664D01*
X100881281Y-128055000D01*
X101048719Y-128055000D01*
X101212935Y-128087664D01*
G37*
G36*
X103752935Y-128087664D02*
G01*
X103907624Y-128151739D01*
X103907626Y-128151740D01*
X104046844Y-128244762D01*
X104165238Y-128363156D01*
X104253716Y-128495574D01*
X104258261Y-128502376D01*
X104322336Y-128657065D01*
X104355000Y-128821281D01*
X104355000Y-128988719D01*
X104322336Y-129152935D01*
X104258261Y-129307624D01*
X104258260Y-129307626D01*
X104165238Y-129446844D01*
X104046844Y-129565238D01*
X103907626Y-129658260D01*
X103907625Y-129658261D01*
X103907624Y-129658261D01*
X103752935Y-129722336D01*
X103588719Y-129755000D01*
X103421281Y-129755000D01*
X103257065Y-129722336D01*
X103102376Y-129658261D01*
X103102375Y-129658261D01*
X103102374Y-129658260D01*
X102963156Y-129565238D01*
X102844762Y-129446844D01*
X102751740Y-129307626D01*
X102751739Y-129307624D01*
X102687664Y-129152935D01*
X102655000Y-128988719D01*
X102655000Y-128821281D01*
X102687664Y-128657065D01*
X102751739Y-128502376D01*
X102756284Y-128495574D01*
X102844762Y-128363156D01*
X102963156Y-128244762D01*
X103102374Y-128151740D01*
X103102376Y-128151739D01*
X103257065Y-128087664D01*
X103421281Y-128055000D01*
X103588719Y-128055000D01*
X103752935Y-128087664D01*
G37*
G36*
X106292935Y-128087664D02*
G01*
X106447624Y-128151739D01*
X106447626Y-128151740D01*
X106586844Y-128244762D01*
X106705238Y-128363156D01*
X106793716Y-128495574D01*
X106798261Y-128502376D01*
X106862336Y-128657065D01*
X106895000Y-128821281D01*
X106895000Y-128988719D01*
X106862336Y-129152935D01*
X106798261Y-129307624D01*
X106798260Y-129307626D01*
X106705238Y-129446844D01*
X106586844Y-129565238D01*
X106447626Y-129658260D01*
X106447625Y-129658261D01*
X106447624Y-129658261D01*
X106292935Y-129722336D01*
X106128719Y-129755000D01*
X105961281Y-129755000D01*
X105797065Y-129722336D01*
X105642376Y-129658261D01*
X105642375Y-129658261D01*
X105642374Y-129658260D01*
X105503156Y-129565238D01*
X105384762Y-129446844D01*
X105291740Y-129307626D01*
X105291739Y-129307624D01*
X105227664Y-129152935D01*
X105195000Y-128988719D01*
X105195000Y-128821281D01*
X105227664Y-128657065D01*
X105291739Y-128502376D01*
X105296284Y-128495574D01*
X105384762Y-128363156D01*
X105503156Y-128244762D01*
X105642374Y-128151740D01*
X105642376Y-128151739D01*
X105797065Y-128087664D01*
X105961281Y-128055000D01*
X106128719Y-128055000D01*
X106292935Y-128087664D01*
G37*
G36*
X108832935Y-128087664D02*
G01*
X108987624Y-128151739D01*
X108987626Y-128151740D01*
X109126844Y-128244762D01*
X109245238Y-128363156D01*
X109333716Y-128495574D01*
X109338261Y-128502376D01*
X109402336Y-128657065D01*
X109435000Y-128821281D01*
X109435000Y-128988719D01*
X109402336Y-129152935D01*
X109338261Y-129307624D01*
X109338260Y-129307626D01*
X109245238Y-129446844D01*
X109126844Y-129565238D01*
X108987626Y-129658260D01*
X108987625Y-129658261D01*
X108987624Y-129658261D01*
X108832935Y-129722336D01*
X108668719Y-129755000D01*
X108501281Y-129755000D01*
X108337065Y-129722336D01*
X108182376Y-129658261D01*
X108182375Y-129658261D01*
X108182374Y-129658260D01*
X108043156Y-129565238D01*
X107924762Y-129446844D01*
X107831740Y-129307626D01*
X107831739Y-129307624D01*
X107767664Y-129152935D01*
X107735000Y-128988719D01*
X107735000Y-128821281D01*
X107767664Y-128657065D01*
X107831739Y-128502376D01*
X107836284Y-128495574D01*
X107924762Y-128363156D01*
X108043156Y-128244762D01*
X108182374Y-128151740D01*
X108182376Y-128151739D01*
X108337065Y-128087664D01*
X108501281Y-128055000D01*
X108668719Y-128055000D01*
X108832935Y-128087664D01*
G37*
G36*
X111372935Y-128087664D02*
G01*
X111527624Y-128151739D01*
X111527626Y-128151740D01*
X111666844Y-128244762D01*
X111785238Y-128363156D01*
X111873716Y-128495574D01*
X111878261Y-128502376D01*
X111942336Y-128657065D01*
X111975000Y-128821281D01*
X111975000Y-128988719D01*
X111942336Y-129152935D01*
X111878261Y-129307624D01*
X111878260Y-129307626D01*
X111785238Y-129446844D01*
X111666844Y-129565238D01*
X111527626Y-129658260D01*
X111527625Y-129658261D01*
X111527624Y-129658261D01*
X111372935Y-129722336D01*
X111208719Y-129755000D01*
X111041281Y-129755000D01*
X110877065Y-129722336D01*
X110722376Y-129658261D01*
X110722375Y-129658261D01*
X110722374Y-129658260D01*
X110583156Y-129565238D01*
X110464762Y-129446844D01*
X110371740Y-129307626D01*
X110371739Y-129307624D01*
X110307664Y-129152935D01*
X110275000Y-128988719D01*
X110275000Y-128821281D01*
X110307664Y-128657065D01*
X110371739Y-128502376D01*
X110376284Y-128495574D01*
X110464762Y-128363156D01*
X110583156Y-128244762D01*
X110722374Y-128151740D01*
X110722376Y-128151739D01*
X110877065Y-128087664D01*
X111041281Y-128055000D01*
X111208719Y-128055000D01*
X111372935Y-128087664D01*
G37*
G36*
X113912935Y-128087664D02*
G01*
X114067624Y-128151739D01*
X114067626Y-128151740D01*
X114206844Y-128244762D01*
X114325238Y-128363156D01*
X114413716Y-128495574D01*
X114418261Y-128502376D01*
X114482336Y-128657065D01*
X114515000Y-128821281D01*
X114515000Y-128988719D01*
X114482336Y-129152935D01*
X114418261Y-129307624D01*
X114418260Y-129307626D01*
X114325238Y-129446844D01*
X114206844Y-129565238D01*
X114067626Y-129658260D01*
X114067625Y-129658261D01*
X114067624Y-129658261D01*
X113912935Y-129722336D01*
X113748719Y-129755000D01*
X113581281Y-129755000D01*
X113417065Y-129722336D01*
X113262376Y-129658261D01*
X113262375Y-129658261D01*
X113262374Y-129658260D01*
X113123156Y-129565238D01*
X113004762Y-129446844D01*
X112911740Y-129307626D01*
X112911739Y-129307624D01*
X112847664Y-129152935D01*
X112815000Y-128988719D01*
X112815000Y-128821281D01*
X112847664Y-128657065D01*
X112911739Y-128502376D01*
X112916284Y-128495574D01*
X113004762Y-128363156D01*
X113123156Y-128244762D01*
X113262374Y-128151740D01*
X113262376Y-128151739D01*
X113417065Y-128087664D01*
X113581281Y-128055000D01*
X113748719Y-128055000D01*
X113912935Y-128087664D01*
G37*
G36*
X116452935Y-128087664D02*
G01*
X116607624Y-128151739D01*
X116607626Y-128151740D01*
X116746844Y-128244762D01*
X116865238Y-128363156D01*
X116953716Y-128495574D01*
X116958261Y-128502376D01*
X117022336Y-128657065D01*
X117055000Y-128821281D01*
X117055000Y-128988719D01*
X117022336Y-129152935D01*
X116958261Y-129307624D01*
X116958260Y-129307626D01*
X116865238Y-129446844D01*
X116746844Y-129565238D01*
X116607626Y-129658260D01*
X116607625Y-129658261D01*
X116607624Y-129658261D01*
X116452935Y-129722336D01*
X116288719Y-129755000D01*
X116121281Y-129755000D01*
X115957065Y-129722336D01*
X115802376Y-129658261D01*
X115802375Y-129658261D01*
X115802374Y-129658260D01*
X115663156Y-129565238D01*
X115544762Y-129446844D01*
X115451740Y-129307626D01*
X115451739Y-129307624D01*
X115387664Y-129152935D01*
X115355000Y-128988719D01*
X115355000Y-128821281D01*
X115387664Y-128657065D01*
X115451739Y-128502376D01*
X115456284Y-128495574D01*
X115544762Y-128363156D01*
X115663156Y-128244762D01*
X115802374Y-128151740D01*
X115802376Y-128151739D01*
X115957065Y-128087664D01*
X116121281Y-128055000D01*
X116288719Y-128055000D01*
X116452935Y-128087664D01*
G37*
G36*
X96132935Y-128087664D02*
G01*
X96287624Y-128151739D01*
X96287626Y-128151740D01*
X96426844Y-128244762D01*
X96545238Y-128363156D01*
X96633716Y-128495574D01*
X96638261Y-128502376D01*
X96702336Y-128657065D01*
X96735000Y-128821281D01*
X96735000Y-128988719D01*
X96702336Y-129152935D01*
X96638261Y-129307624D01*
X96638260Y-129307626D01*
X96545238Y-129446844D01*
X96426844Y-129565238D01*
X96287626Y-129658260D01*
X96287625Y-129658261D01*
X96287624Y-129658261D01*
X96132935Y-129722336D01*
X95968719Y-129755000D01*
X95801281Y-129755000D01*
X95637065Y-129722336D01*
X95482376Y-129658261D01*
X95482375Y-129658261D01*
X95482374Y-129658260D01*
X95343156Y-129565238D01*
X95224762Y-129446844D01*
X95131740Y-129307626D01*
X95131739Y-129307624D01*
X95067664Y-129152935D01*
X95035000Y-128988719D01*
X95035000Y-128821281D01*
X95067664Y-128657065D01*
X95131739Y-128502376D01*
X95136284Y-128495574D01*
X95224762Y-128363156D01*
X95343156Y-128244762D01*
X95482374Y-128151740D01*
X95482376Y-128151739D01*
X95637065Y-128087664D01*
X95801281Y-128055000D01*
X95968719Y-128055000D01*
X96132935Y-128087664D01*
G37*
G36*
X173748779Y-126336879D02*
G01*
X173994463Y-126438645D01*
X173994465Y-126438646D01*
X174215575Y-126586387D01*
X174403613Y-126774425D01*
X174492093Y-126906844D01*
X174551355Y-126995537D01*
X174653121Y-127241221D01*
X174705000Y-127502035D01*
X174705000Y-127767965D01*
X174653121Y-128028779D01*
X174551355Y-128274463D01*
X174551354Y-128274465D01*
X174403613Y-128495575D01*
X174215575Y-128683613D01*
X173994465Y-128831354D01*
X173994464Y-128831355D01*
X173994463Y-128831355D01*
X173748779Y-128933121D01*
X173487965Y-128985000D01*
X173222035Y-128985000D01*
X172961221Y-128933121D01*
X172715537Y-128831355D01*
X172715536Y-128831355D01*
X172715535Y-128831354D01*
X172494425Y-128683613D01*
X172306387Y-128495575D01*
X172158646Y-128274465D01*
X172158645Y-128274463D01*
X172056879Y-128028779D01*
X172005000Y-127767965D01*
X172005000Y-127502035D01*
X172056879Y-127241221D01*
X172158645Y-126995537D01*
X172217908Y-126906844D01*
X172306387Y-126774425D01*
X172494425Y-126586387D01*
X172715535Y-126438646D01*
X172715537Y-126438645D01*
X172961221Y-126336879D01*
X173222035Y-126285000D01*
X173487965Y-126285000D01*
X173748779Y-126336879D01*
G37*
G36*
X61988779Y-126336879D02*
G01*
X62234463Y-126438645D01*
X62234465Y-126438646D01*
X62455575Y-126586387D01*
X62643613Y-126774425D01*
X62732093Y-126906844D01*
X62791355Y-126995537D01*
X62893121Y-127241221D01*
X62945000Y-127502035D01*
X62945000Y-127767965D01*
X62893121Y-128028779D01*
X62791355Y-128274463D01*
X62791354Y-128274465D01*
X62643613Y-128495575D01*
X62455575Y-128683613D01*
X62234465Y-128831354D01*
X62234464Y-128831355D01*
X62234463Y-128831355D01*
X61988779Y-128933121D01*
X61727965Y-128985000D01*
X61462035Y-128985000D01*
X61201221Y-128933121D01*
X60955537Y-128831355D01*
X60955536Y-128831355D01*
X60955535Y-128831354D01*
X60734425Y-128683613D01*
X60546387Y-128495575D01*
X60398646Y-128274465D01*
X60398645Y-128274463D01*
X60296879Y-128028779D01*
X60245000Y-127767965D01*
X60245000Y-127502035D01*
X60296879Y-127241221D01*
X60398645Y-126995537D01*
X60457908Y-126906844D01*
X60546387Y-126774425D01*
X60734425Y-126586387D01*
X60955535Y-126438646D01*
X60955537Y-126438645D01*
X61201221Y-126336879D01*
X61462035Y-126285000D01*
X61727965Y-126285000D01*
X61988779Y-126336879D01*
G37*
G36*
X73272935Y-125547664D02*
G01*
X73427624Y-125611739D01*
X73427626Y-125611740D01*
X73566844Y-125704762D01*
X73685238Y-125823156D01*
X73778260Y-125962374D01*
X73778261Y-125962376D01*
X73842336Y-126117065D01*
X73875000Y-126281281D01*
X73875000Y-126448719D01*
X73842336Y-126612935D01*
X73778261Y-126767624D01*
X73778260Y-126767626D01*
X73685238Y-126906844D01*
X73566844Y-127025238D01*
X73427626Y-127118260D01*
X73427625Y-127118261D01*
X73427624Y-127118261D01*
X73272935Y-127182336D01*
X73108719Y-127215000D01*
X72941281Y-127215000D01*
X72777065Y-127182336D01*
X72622376Y-127118261D01*
X72622375Y-127118261D01*
X72622374Y-127118260D01*
X72483156Y-127025238D01*
X72364762Y-126906844D01*
X72271740Y-126767626D01*
X72271739Y-126767624D01*
X72207664Y-126612935D01*
X72175000Y-126448719D01*
X72175000Y-126281281D01*
X72207664Y-126117065D01*
X72271739Y-125962376D01*
X72271740Y-125962374D01*
X72364762Y-125823156D01*
X72483156Y-125704762D01*
X72622374Y-125611740D01*
X72622376Y-125611739D01*
X72777065Y-125547664D01*
X72941281Y-125515000D01*
X73108719Y-125515000D01*
X73272935Y-125547664D01*
G37*
G36*
X96132935Y-125547664D02*
G01*
X96287624Y-125611739D01*
X96287626Y-125611740D01*
X96426844Y-125704762D01*
X96545238Y-125823156D01*
X96638260Y-125962374D01*
X96638261Y-125962376D01*
X96702336Y-126117065D01*
X96735000Y-126281281D01*
X96735000Y-126448719D01*
X96702336Y-126612935D01*
X96638261Y-126767624D01*
X96638260Y-126767626D01*
X96545238Y-126906844D01*
X96426844Y-127025238D01*
X96287626Y-127118260D01*
X96287625Y-127118261D01*
X96287624Y-127118261D01*
X96132935Y-127182336D01*
X95968719Y-127215000D01*
X95801281Y-127215000D01*
X95637065Y-127182336D01*
X95482376Y-127118261D01*
X95482375Y-127118261D01*
X95482374Y-127118260D01*
X95343156Y-127025238D01*
X95224762Y-126906844D01*
X95131740Y-126767626D01*
X95131739Y-126767624D01*
X95067664Y-126612935D01*
X95035000Y-126448719D01*
X95035000Y-126281281D01*
X95067664Y-126117065D01*
X95131739Y-125962376D01*
X95131740Y-125962374D01*
X95224762Y-125823156D01*
X95343156Y-125704762D01*
X95482374Y-125611740D01*
X95482376Y-125611739D01*
X95637065Y-125547664D01*
X95801281Y-125515000D01*
X95968719Y-125515000D01*
X96132935Y-125547664D01*
G37*
G36*
X91052935Y-125547664D02*
G01*
X91207624Y-125611739D01*
X91207626Y-125611740D01*
X91346844Y-125704762D01*
X91465238Y-125823156D01*
X91558260Y-125962374D01*
X91558261Y-125962376D01*
X91622336Y-126117065D01*
X91655000Y-126281281D01*
X91655000Y-126448719D01*
X91622336Y-126612935D01*
X91558261Y-126767624D01*
X91558260Y-126767626D01*
X91465238Y-126906844D01*
X91346844Y-127025238D01*
X91207626Y-127118260D01*
X91207625Y-127118261D01*
X91207624Y-127118261D01*
X91052935Y-127182336D01*
X90888719Y-127215000D01*
X90721281Y-127215000D01*
X90557065Y-127182336D01*
X90402376Y-127118261D01*
X90402375Y-127118261D01*
X90402374Y-127118260D01*
X90263156Y-127025238D01*
X90144762Y-126906844D01*
X90051740Y-126767626D01*
X90051739Y-126767624D01*
X89987664Y-126612935D01*
X89955000Y-126448719D01*
X89955000Y-126281281D01*
X89987664Y-126117065D01*
X90051739Y-125962376D01*
X90051740Y-125962374D01*
X90144762Y-125823156D01*
X90263156Y-125704762D01*
X90402374Y-125611740D01*
X90402376Y-125611739D01*
X90557065Y-125547664D01*
X90721281Y-125515000D01*
X90888719Y-125515000D01*
X91052935Y-125547664D01*
G37*
G36*
X98672935Y-125547664D02*
G01*
X98827624Y-125611739D01*
X98827626Y-125611740D01*
X98966844Y-125704762D01*
X99085238Y-125823156D01*
X99178260Y-125962374D01*
X99178261Y-125962376D01*
X99242336Y-126117065D01*
X99275000Y-126281281D01*
X99275000Y-126448719D01*
X99242336Y-126612935D01*
X99178261Y-126767624D01*
X99178260Y-126767626D01*
X99085238Y-126906844D01*
X98966844Y-127025238D01*
X98827626Y-127118260D01*
X98827625Y-127118261D01*
X98827624Y-127118261D01*
X98672935Y-127182336D01*
X98508719Y-127215000D01*
X98341281Y-127215000D01*
X98177065Y-127182336D01*
X98022376Y-127118261D01*
X98022375Y-127118261D01*
X98022374Y-127118260D01*
X97883156Y-127025238D01*
X97764762Y-126906844D01*
X97671740Y-126767626D01*
X97671739Y-126767624D01*
X97607664Y-126612935D01*
X97575000Y-126448719D01*
X97575000Y-126281281D01*
X97607664Y-126117065D01*
X97671739Y-125962376D01*
X97671740Y-125962374D01*
X97764762Y-125823156D01*
X97883156Y-125704762D01*
X98022374Y-125611740D01*
X98022376Y-125611739D01*
X98177065Y-125547664D01*
X98341281Y-125515000D01*
X98508719Y-125515000D01*
X98672935Y-125547664D01*
G37*
G36*
X88512935Y-125547664D02*
G01*
X88667624Y-125611739D01*
X88667626Y-125611740D01*
X88806844Y-125704762D01*
X88925238Y-125823156D01*
X89018260Y-125962374D01*
X89018261Y-125962376D01*
X89082336Y-126117065D01*
X89115000Y-126281281D01*
X89115000Y-126448719D01*
X89082336Y-126612935D01*
X89018261Y-126767624D01*
X89018260Y-126767626D01*
X88925238Y-126906844D01*
X88806844Y-127025238D01*
X88667626Y-127118260D01*
X88667625Y-127118261D01*
X88667624Y-127118261D01*
X88512935Y-127182336D01*
X88348719Y-127215000D01*
X88181281Y-127215000D01*
X88017065Y-127182336D01*
X87862376Y-127118261D01*
X87862375Y-127118261D01*
X87862374Y-127118260D01*
X87723156Y-127025238D01*
X87604762Y-126906844D01*
X87511740Y-126767626D01*
X87511739Y-126767624D01*
X87447664Y-126612935D01*
X87415000Y-126448719D01*
X87415000Y-126281281D01*
X87447664Y-126117065D01*
X87511739Y-125962376D01*
X87511740Y-125962374D01*
X87604762Y-125823156D01*
X87723156Y-125704762D01*
X87862374Y-125611740D01*
X87862376Y-125611739D01*
X88017065Y-125547664D01*
X88181281Y-125515000D01*
X88348719Y-125515000D01*
X88512935Y-125547664D01*
G37*
G36*
X101212935Y-125547664D02*
G01*
X101367624Y-125611739D01*
X101367626Y-125611740D01*
X101506844Y-125704762D01*
X101625238Y-125823156D01*
X101718260Y-125962374D01*
X101718261Y-125962376D01*
X101782336Y-126117065D01*
X101815000Y-126281281D01*
X101815000Y-126448719D01*
X101782336Y-126612935D01*
X101718261Y-126767624D01*
X101718260Y-126767626D01*
X101625238Y-126906844D01*
X101506844Y-127025238D01*
X101367626Y-127118260D01*
X101367625Y-127118261D01*
X101367624Y-127118261D01*
X101212935Y-127182336D01*
X101048719Y-127215000D01*
X100881281Y-127215000D01*
X100717065Y-127182336D01*
X100562376Y-127118261D01*
X100562375Y-127118261D01*
X100562374Y-127118260D01*
X100423156Y-127025238D01*
X100304762Y-126906844D01*
X100211740Y-126767626D01*
X100211739Y-126767624D01*
X100147664Y-126612935D01*
X100115000Y-126448719D01*
X100115000Y-126281281D01*
X100147664Y-126117065D01*
X100211739Y-125962376D01*
X100211740Y-125962374D01*
X100304762Y-125823156D01*
X100423156Y-125704762D01*
X100562374Y-125611740D01*
X100562376Y-125611739D01*
X100717065Y-125547664D01*
X100881281Y-125515000D01*
X101048719Y-125515000D01*
X101212935Y-125547664D01*
G37*
G36*
X85972935Y-125547664D02*
G01*
X86127624Y-125611739D01*
X86127626Y-125611740D01*
X86266844Y-125704762D01*
X86385238Y-125823156D01*
X86478260Y-125962374D01*
X86478261Y-125962376D01*
X86542336Y-126117065D01*
X86575000Y-126281281D01*
X86575000Y-126448719D01*
X86542336Y-126612935D01*
X86478261Y-126767624D01*
X86478260Y-126767626D01*
X86385238Y-126906844D01*
X86266844Y-127025238D01*
X86127626Y-127118260D01*
X86127625Y-127118261D01*
X86127624Y-127118261D01*
X85972935Y-127182336D01*
X85808719Y-127215000D01*
X85641281Y-127215000D01*
X85477065Y-127182336D01*
X85322376Y-127118261D01*
X85322375Y-127118261D01*
X85322374Y-127118260D01*
X85183156Y-127025238D01*
X85064762Y-126906844D01*
X84971740Y-126767626D01*
X84971739Y-126767624D01*
X84907664Y-126612935D01*
X84875000Y-126448719D01*
X84875000Y-126281281D01*
X84907664Y-126117065D01*
X84971739Y-125962376D01*
X84971740Y-125962374D01*
X85064762Y-125823156D01*
X85183156Y-125704762D01*
X85322374Y-125611740D01*
X85322376Y-125611739D01*
X85477065Y-125547664D01*
X85641281Y-125515000D01*
X85808719Y-125515000D01*
X85972935Y-125547664D01*
G37*
G36*
X103752935Y-125547664D02*
G01*
X103907624Y-125611739D01*
X103907626Y-125611740D01*
X104046844Y-125704762D01*
X104165238Y-125823156D01*
X104258260Y-125962374D01*
X104258261Y-125962376D01*
X104322336Y-126117065D01*
X104355000Y-126281281D01*
X104355000Y-126448719D01*
X104322336Y-126612935D01*
X104258261Y-126767624D01*
X104258260Y-126767626D01*
X104165238Y-126906844D01*
X104046844Y-127025238D01*
X103907626Y-127118260D01*
X103907625Y-127118261D01*
X103907624Y-127118261D01*
X103752935Y-127182336D01*
X103588719Y-127215000D01*
X103421281Y-127215000D01*
X103257065Y-127182336D01*
X103102376Y-127118261D01*
X103102375Y-127118261D01*
X103102374Y-127118260D01*
X102963156Y-127025238D01*
X102844762Y-126906844D01*
X102751740Y-126767626D01*
X102751739Y-126767624D01*
X102687664Y-126612935D01*
X102655000Y-126448719D01*
X102655000Y-126281281D01*
X102687664Y-126117065D01*
X102751739Y-125962376D01*
X102751740Y-125962374D01*
X102844762Y-125823156D01*
X102963156Y-125704762D01*
X103102374Y-125611740D01*
X103102376Y-125611739D01*
X103257065Y-125547664D01*
X103421281Y-125515000D01*
X103588719Y-125515000D01*
X103752935Y-125547664D01*
G37*
G36*
X83432935Y-125547664D02*
G01*
X83587624Y-125611739D01*
X83587626Y-125611740D01*
X83726844Y-125704762D01*
X83845238Y-125823156D01*
X83938260Y-125962374D01*
X83938261Y-125962376D01*
X84002336Y-126117065D01*
X84035000Y-126281281D01*
X84035000Y-126448719D01*
X84002336Y-126612935D01*
X83938261Y-126767624D01*
X83938260Y-126767626D01*
X83845238Y-126906844D01*
X83726844Y-127025238D01*
X83587626Y-127118260D01*
X83587625Y-127118261D01*
X83587624Y-127118261D01*
X83432935Y-127182336D01*
X83268719Y-127215000D01*
X83101281Y-127215000D01*
X82937065Y-127182336D01*
X82782376Y-127118261D01*
X82782375Y-127118261D01*
X82782374Y-127118260D01*
X82643156Y-127025238D01*
X82524762Y-126906844D01*
X82431740Y-126767626D01*
X82431739Y-126767624D01*
X82367664Y-126612935D01*
X82335000Y-126448719D01*
X82335000Y-126281281D01*
X82367664Y-126117065D01*
X82431739Y-125962376D01*
X82431740Y-125962374D01*
X82524762Y-125823156D01*
X82643156Y-125704762D01*
X82782374Y-125611740D01*
X82782376Y-125611739D01*
X82937065Y-125547664D01*
X83101281Y-125515000D01*
X83268719Y-125515000D01*
X83432935Y-125547664D01*
G37*
G36*
X106292935Y-125547664D02*
G01*
X106447624Y-125611739D01*
X106447626Y-125611740D01*
X106586844Y-125704762D01*
X106705238Y-125823156D01*
X106798260Y-125962374D01*
X106798261Y-125962376D01*
X106862336Y-126117065D01*
X106895000Y-126281281D01*
X106895000Y-126448719D01*
X106862336Y-126612935D01*
X106798261Y-126767624D01*
X106798260Y-126767626D01*
X106705238Y-126906844D01*
X106586844Y-127025238D01*
X106447626Y-127118260D01*
X106447625Y-127118261D01*
X106447624Y-127118261D01*
X106292935Y-127182336D01*
X106128719Y-127215000D01*
X105961281Y-127215000D01*
X105797065Y-127182336D01*
X105642376Y-127118261D01*
X105642375Y-127118261D01*
X105642374Y-127118260D01*
X105503156Y-127025238D01*
X105384762Y-126906844D01*
X105291740Y-126767626D01*
X105291739Y-126767624D01*
X105227664Y-126612935D01*
X105195000Y-126448719D01*
X105195000Y-126281281D01*
X105227664Y-126117065D01*
X105291739Y-125962376D01*
X105291740Y-125962374D01*
X105384762Y-125823156D01*
X105503156Y-125704762D01*
X105642374Y-125611740D01*
X105642376Y-125611739D01*
X105797065Y-125547664D01*
X105961281Y-125515000D01*
X106128719Y-125515000D01*
X106292935Y-125547664D01*
G37*
G36*
X93592935Y-125547664D02*
G01*
X93747624Y-125611739D01*
X93747626Y-125611740D01*
X93886844Y-125704762D01*
X94005238Y-125823156D01*
X94098260Y-125962374D01*
X94098261Y-125962376D01*
X94162336Y-126117065D01*
X94195000Y-126281281D01*
X94195000Y-126448719D01*
X94162336Y-126612935D01*
X94098261Y-126767624D01*
X94098260Y-126767626D01*
X94005238Y-126906844D01*
X93886844Y-127025238D01*
X93747626Y-127118260D01*
X93747625Y-127118261D01*
X93747624Y-127118261D01*
X93592935Y-127182336D01*
X93428719Y-127215000D01*
X93261281Y-127215000D01*
X93097065Y-127182336D01*
X92942376Y-127118261D01*
X92942375Y-127118261D01*
X92942374Y-127118260D01*
X92803156Y-127025238D01*
X92684762Y-126906844D01*
X92591740Y-126767626D01*
X92591739Y-126767624D01*
X92527664Y-126612935D01*
X92495000Y-126448719D01*
X92495000Y-126281281D01*
X92527664Y-126117065D01*
X92591739Y-125962376D01*
X92591740Y-125962374D01*
X92684762Y-125823156D01*
X92803156Y-125704762D01*
X92942374Y-125611740D01*
X92942376Y-125611739D01*
X93097065Y-125547664D01*
X93261281Y-125515000D01*
X93428719Y-125515000D01*
X93592935Y-125547664D01*
G37*
G36*
X108832935Y-125547664D02*
G01*
X108987624Y-125611739D01*
X108987626Y-125611740D01*
X109126844Y-125704762D01*
X109245238Y-125823156D01*
X109338260Y-125962374D01*
X109338261Y-125962376D01*
X109402336Y-126117065D01*
X109435000Y-126281281D01*
X109435000Y-126448719D01*
X109402336Y-126612935D01*
X109338261Y-126767624D01*
X109338260Y-126767626D01*
X109245238Y-126906844D01*
X109126844Y-127025238D01*
X108987626Y-127118260D01*
X108987625Y-127118261D01*
X108987624Y-127118261D01*
X108832935Y-127182336D01*
X108668719Y-127215000D01*
X108501281Y-127215000D01*
X108337065Y-127182336D01*
X108182376Y-127118261D01*
X108182375Y-127118261D01*
X108182374Y-127118260D01*
X108043156Y-127025238D01*
X107924762Y-126906844D01*
X107831740Y-126767626D01*
X107831739Y-126767624D01*
X107767664Y-126612935D01*
X107735000Y-126448719D01*
X107735000Y-126281281D01*
X107767664Y-126117065D01*
X107831739Y-125962376D01*
X107831740Y-125962374D01*
X107924762Y-125823156D01*
X108043156Y-125704762D01*
X108182374Y-125611740D01*
X108182376Y-125611739D01*
X108337065Y-125547664D01*
X108501281Y-125515000D01*
X108668719Y-125515000D01*
X108832935Y-125547664D01*
G37*
G36*
X119595000Y-127215000D02*
G01*
X117895000Y-127215000D01*
X117895000Y-125515000D01*
X119595000Y-125515000D01*
X119595000Y-127215000D01*
G37*
G36*
X70732935Y-125547664D02*
G01*
X70887624Y-125611739D01*
X70887626Y-125611740D01*
X71026844Y-125704762D01*
X71145238Y-125823156D01*
X71238260Y-125962374D01*
X71238261Y-125962376D01*
X71302336Y-126117065D01*
X71335000Y-126281281D01*
X71335000Y-126448719D01*
X71302336Y-126612935D01*
X71238261Y-126767624D01*
X71238260Y-126767626D01*
X71145238Y-126906844D01*
X71026844Y-127025238D01*
X70887626Y-127118260D01*
X70887625Y-127118261D01*
X70887624Y-127118261D01*
X70732935Y-127182336D01*
X70568719Y-127215000D01*
X70401281Y-127215000D01*
X70237065Y-127182336D01*
X70082376Y-127118261D01*
X70082375Y-127118261D01*
X70082374Y-127118260D01*
X69943156Y-127025238D01*
X69824762Y-126906844D01*
X69731740Y-126767626D01*
X69731739Y-126767624D01*
X69667664Y-126612935D01*
X69635000Y-126448719D01*
X69635000Y-126281281D01*
X69667664Y-126117065D01*
X69731739Y-125962376D01*
X69731740Y-125962374D01*
X69824762Y-125823156D01*
X69943156Y-125704762D01*
X70082374Y-125611740D01*
X70082376Y-125611739D01*
X70237065Y-125547664D01*
X70401281Y-125515000D01*
X70568719Y-125515000D01*
X70732935Y-125547664D01*
G37*
G36*
X116452935Y-125547664D02*
G01*
X116607624Y-125611739D01*
X116607626Y-125611740D01*
X116746844Y-125704762D01*
X116865238Y-125823156D01*
X116958260Y-125962374D01*
X116958261Y-125962376D01*
X117022336Y-126117065D01*
X117055000Y-126281281D01*
X117055000Y-126448719D01*
X117022336Y-126612935D01*
X116958261Y-126767624D01*
X116958260Y-126767626D01*
X116865238Y-126906844D01*
X116746844Y-127025238D01*
X116607626Y-127118260D01*
X116607625Y-127118261D01*
X116607624Y-127118261D01*
X116452935Y-127182336D01*
X116288719Y-127215000D01*
X116121281Y-127215000D01*
X115957065Y-127182336D01*
X115802376Y-127118261D01*
X115802375Y-127118261D01*
X115802374Y-127118260D01*
X115663156Y-127025238D01*
X115544762Y-126906844D01*
X115451740Y-126767626D01*
X115451739Y-126767624D01*
X115387664Y-126612935D01*
X115355000Y-126448719D01*
X115355000Y-126281281D01*
X115387664Y-126117065D01*
X115451739Y-125962376D01*
X115451740Y-125962374D01*
X115544762Y-125823156D01*
X115663156Y-125704762D01*
X115802374Y-125611740D01*
X115802376Y-125611739D01*
X115957065Y-125547664D01*
X116121281Y-125515000D01*
X116288719Y-125515000D01*
X116452935Y-125547664D01*
G37*
G36*
X113912935Y-125547664D02*
G01*
X114067624Y-125611739D01*
X114067626Y-125611740D01*
X114206844Y-125704762D01*
X114325238Y-125823156D01*
X114418260Y-125962374D01*
X114418261Y-125962376D01*
X114482336Y-126117065D01*
X114515000Y-126281281D01*
X114515000Y-126448719D01*
X114482336Y-126612935D01*
X114418261Y-126767624D01*
X114418260Y-126767626D01*
X114325238Y-126906844D01*
X114206844Y-127025238D01*
X114067626Y-127118260D01*
X114067625Y-127118261D01*
X114067624Y-127118261D01*
X113912935Y-127182336D01*
X113748719Y-127215000D01*
X113581281Y-127215000D01*
X113417065Y-127182336D01*
X113262376Y-127118261D01*
X113262375Y-127118261D01*
X113262374Y-127118260D01*
X113123156Y-127025238D01*
X113004762Y-126906844D01*
X112911740Y-126767626D01*
X112911739Y-126767624D01*
X112847664Y-126612935D01*
X112815000Y-126448719D01*
X112815000Y-126281281D01*
X112847664Y-126117065D01*
X112911739Y-125962376D01*
X112911740Y-125962374D01*
X113004762Y-125823156D01*
X113123156Y-125704762D01*
X113262374Y-125611740D01*
X113262376Y-125611739D01*
X113417065Y-125547664D01*
X113581281Y-125515000D01*
X113748719Y-125515000D01*
X113912935Y-125547664D01*
G37*
G36*
X75812935Y-125547664D02*
G01*
X75967624Y-125611739D01*
X75967626Y-125611740D01*
X76106844Y-125704762D01*
X76225238Y-125823156D01*
X76318260Y-125962374D01*
X76318261Y-125962376D01*
X76382336Y-126117065D01*
X76415000Y-126281281D01*
X76415000Y-126448719D01*
X76382336Y-126612935D01*
X76318261Y-126767624D01*
X76318260Y-126767626D01*
X76225238Y-126906844D01*
X76106844Y-127025238D01*
X75967626Y-127118260D01*
X75967625Y-127118261D01*
X75967624Y-127118261D01*
X75812935Y-127182336D01*
X75648719Y-127215000D01*
X75481281Y-127215000D01*
X75317065Y-127182336D01*
X75162376Y-127118261D01*
X75162375Y-127118261D01*
X75162374Y-127118260D01*
X75023156Y-127025238D01*
X74904762Y-126906844D01*
X74811740Y-126767626D01*
X74811739Y-126767624D01*
X74747664Y-126612935D01*
X74715000Y-126448719D01*
X74715000Y-126281281D01*
X74747664Y-126117065D01*
X74811739Y-125962376D01*
X74811740Y-125962374D01*
X74904762Y-125823156D01*
X75023156Y-125704762D01*
X75162374Y-125611740D01*
X75162376Y-125611739D01*
X75317065Y-125547664D01*
X75481281Y-125515000D01*
X75648719Y-125515000D01*
X75812935Y-125547664D01*
G37*
G36*
X111372935Y-125547664D02*
G01*
X111527624Y-125611739D01*
X111527626Y-125611740D01*
X111666844Y-125704762D01*
X111785238Y-125823156D01*
X111878260Y-125962374D01*
X111878261Y-125962376D01*
X111942336Y-126117065D01*
X111975000Y-126281281D01*
X111975000Y-126448719D01*
X111942336Y-126612935D01*
X111878261Y-126767624D01*
X111878260Y-126767626D01*
X111785238Y-126906844D01*
X111666844Y-127025238D01*
X111527626Y-127118260D01*
X111527625Y-127118261D01*
X111527624Y-127118261D01*
X111372935Y-127182336D01*
X111208719Y-127215000D01*
X111041281Y-127215000D01*
X110877065Y-127182336D01*
X110722376Y-127118261D01*
X110722375Y-127118261D01*
X110722374Y-127118260D01*
X110583156Y-127025238D01*
X110464762Y-126906844D01*
X110371740Y-126767626D01*
X110371739Y-126767624D01*
X110307664Y-126612935D01*
X110275000Y-126448719D01*
X110275000Y-126281281D01*
X110307664Y-126117065D01*
X110371739Y-125962376D01*
X110371740Y-125962374D01*
X110464762Y-125823156D01*
X110583156Y-125704762D01*
X110722374Y-125611740D01*
X110722376Y-125611739D01*
X110877065Y-125547664D01*
X111041281Y-125515000D01*
X111208719Y-125515000D01*
X111372935Y-125547664D01*
G37*
G36*
X78352935Y-125547664D02*
G01*
X78507624Y-125611739D01*
X78507626Y-125611740D01*
X78646844Y-125704762D01*
X78765238Y-125823156D01*
X78858260Y-125962374D01*
X78858261Y-125962376D01*
X78922336Y-126117065D01*
X78955000Y-126281281D01*
X78955000Y-126448719D01*
X78922336Y-126612935D01*
X78858261Y-126767624D01*
X78858260Y-126767626D01*
X78765238Y-126906844D01*
X78646844Y-127025238D01*
X78507626Y-127118260D01*
X78507625Y-127118261D01*
X78507624Y-127118261D01*
X78352935Y-127182336D01*
X78188719Y-127215000D01*
X78021281Y-127215000D01*
X77857065Y-127182336D01*
X77702376Y-127118261D01*
X77702375Y-127118261D01*
X77702374Y-127118260D01*
X77563156Y-127025238D01*
X77444762Y-126906844D01*
X77351740Y-126767626D01*
X77351739Y-126767624D01*
X77287664Y-126612935D01*
X77255000Y-126448719D01*
X77255000Y-126281281D01*
X77287664Y-126117065D01*
X77351739Y-125962376D01*
X77351740Y-125962374D01*
X77444762Y-125823156D01*
X77563156Y-125704762D01*
X77702374Y-125611740D01*
X77702376Y-125611739D01*
X77857065Y-125547664D01*
X78021281Y-125515000D01*
X78188719Y-125515000D01*
X78352935Y-125547664D01*
G37*
G36*
X80892935Y-125547664D02*
G01*
X81047624Y-125611739D01*
X81047626Y-125611740D01*
X81186844Y-125704762D01*
X81305238Y-125823156D01*
X81398260Y-125962374D01*
X81398261Y-125962376D01*
X81462336Y-126117065D01*
X81495000Y-126281281D01*
X81495000Y-126448719D01*
X81462336Y-126612935D01*
X81398261Y-126767624D01*
X81398260Y-126767626D01*
X81305238Y-126906844D01*
X81186844Y-127025238D01*
X81047626Y-127118260D01*
X81047625Y-127118261D01*
X81047624Y-127118261D01*
X80892935Y-127182336D01*
X80728719Y-127215000D01*
X80561281Y-127215000D01*
X80397065Y-127182336D01*
X80242376Y-127118261D01*
X80242375Y-127118261D01*
X80242374Y-127118260D01*
X80103156Y-127025238D01*
X79984762Y-126906844D01*
X79891740Y-126767626D01*
X79891739Y-126767624D01*
X79827664Y-126612935D01*
X79795000Y-126448719D01*
X79795000Y-126281281D01*
X79827664Y-126117065D01*
X79891739Y-125962376D01*
X79891740Y-125962374D01*
X79984762Y-125823156D01*
X80103156Y-125704762D01*
X80242374Y-125611740D01*
X80242376Y-125611739D01*
X80397065Y-125547664D01*
X80561281Y-125515000D01*
X80728719Y-125515000D01*
X80892935Y-125547664D01*
G37*
G36*
X83432935Y-105227664D02*
G01*
X83587624Y-105291739D01*
X83587626Y-105291740D01*
X83726844Y-105384762D01*
X83845238Y-105503156D01*
X83933716Y-105635574D01*
X83938261Y-105642376D01*
X84002336Y-105797065D01*
X84035000Y-105961281D01*
X84035000Y-106128719D01*
X84002336Y-106292935D01*
X83938261Y-106447624D01*
X83938260Y-106447626D01*
X83845238Y-106586844D01*
X83726844Y-106705238D01*
X83587626Y-106798260D01*
X83587625Y-106798261D01*
X83587624Y-106798261D01*
X83432935Y-106862336D01*
X83268719Y-106895000D01*
X83101281Y-106895000D01*
X82937065Y-106862336D01*
X82782376Y-106798261D01*
X82782375Y-106798261D01*
X82782374Y-106798260D01*
X82643156Y-106705238D01*
X82524762Y-106586844D01*
X82431740Y-106447626D01*
X82431739Y-106447624D01*
X82367664Y-106292935D01*
X82335000Y-106128719D01*
X82335000Y-105961281D01*
X82367664Y-105797065D01*
X82431739Y-105642376D01*
X82436284Y-105635574D01*
X82524762Y-105503156D01*
X82643156Y-105384762D01*
X82782374Y-105291740D01*
X82782376Y-105291739D01*
X82937065Y-105227664D01*
X83101281Y-105195000D01*
X83268719Y-105195000D01*
X83432935Y-105227664D01*
G37*
G36*
X98672935Y-105227664D02*
G01*
X98827624Y-105291739D01*
X98827626Y-105291740D01*
X98966844Y-105384762D01*
X99085238Y-105503156D01*
X99173716Y-105635574D01*
X99178261Y-105642376D01*
X99242336Y-105797065D01*
X99275000Y-105961281D01*
X99275000Y-106128719D01*
X99242336Y-106292935D01*
X99178261Y-106447624D01*
X99178260Y-106447626D01*
X99085238Y-106586844D01*
X98966844Y-106705238D01*
X98827626Y-106798260D01*
X98827625Y-106798261D01*
X98827624Y-106798261D01*
X98672935Y-106862336D01*
X98508719Y-106895000D01*
X98341281Y-106895000D01*
X98177065Y-106862336D01*
X98022376Y-106798261D01*
X98022375Y-106798261D01*
X98022374Y-106798260D01*
X97883156Y-106705238D01*
X97764762Y-106586844D01*
X97671740Y-106447626D01*
X97671739Y-106447624D01*
X97607664Y-106292935D01*
X97575000Y-106128719D01*
X97575000Y-105961281D01*
X97607664Y-105797065D01*
X97671739Y-105642376D01*
X97676284Y-105635574D01*
X97764762Y-105503156D01*
X97883156Y-105384762D01*
X98022374Y-105291740D01*
X98022376Y-105291739D01*
X98177065Y-105227664D01*
X98341281Y-105195000D01*
X98508719Y-105195000D01*
X98672935Y-105227664D01*
G37*
G36*
X96132935Y-105227664D02*
G01*
X96287624Y-105291739D01*
X96287626Y-105291740D01*
X96426844Y-105384762D01*
X96545238Y-105503156D01*
X96633716Y-105635574D01*
X96638261Y-105642376D01*
X96702336Y-105797065D01*
X96735000Y-105961281D01*
X96735000Y-106128719D01*
X96702336Y-106292935D01*
X96638261Y-106447624D01*
X96638260Y-106447626D01*
X96545238Y-106586844D01*
X96426844Y-106705238D01*
X96287626Y-106798260D01*
X96287625Y-106798261D01*
X96287624Y-106798261D01*
X96132935Y-106862336D01*
X95968719Y-106895000D01*
X95801281Y-106895000D01*
X95637065Y-106862336D01*
X95482376Y-106798261D01*
X95482375Y-106798261D01*
X95482374Y-106798260D01*
X95343156Y-106705238D01*
X95224762Y-106586844D01*
X95131740Y-106447626D01*
X95131739Y-106447624D01*
X95067664Y-106292935D01*
X95035000Y-106128719D01*
X95035000Y-105961281D01*
X95067664Y-105797065D01*
X95131739Y-105642376D01*
X95136284Y-105635574D01*
X95224762Y-105503156D01*
X95343156Y-105384762D01*
X95482374Y-105291740D01*
X95482376Y-105291739D01*
X95637065Y-105227664D01*
X95801281Y-105195000D01*
X95968719Y-105195000D01*
X96132935Y-105227664D01*
G37*
G36*
X93592935Y-105227664D02*
G01*
X93747624Y-105291739D01*
X93747626Y-105291740D01*
X93886844Y-105384762D01*
X94005238Y-105503156D01*
X94093716Y-105635574D01*
X94098261Y-105642376D01*
X94162336Y-105797065D01*
X94195000Y-105961281D01*
X94195000Y-106128719D01*
X94162336Y-106292935D01*
X94098261Y-106447624D01*
X94098260Y-106447626D01*
X94005238Y-106586844D01*
X93886844Y-106705238D01*
X93747626Y-106798260D01*
X93747625Y-106798261D01*
X93747624Y-106798261D01*
X93592935Y-106862336D01*
X93428719Y-106895000D01*
X93261281Y-106895000D01*
X93097065Y-106862336D01*
X92942376Y-106798261D01*
X92942375Y-106798261D01*
X92942374Y-106798260D01*
X92803156Y-106705238D01*
X92684762Y-106586844D01*
X92591740Y-106447626D01*
X92591739Y-106447624D01*
X92527664Y-106292935D01*
X92495000Y-106128719D01*
X92495000Y-105961281D01*
X92527664Y-105797065D01*
X92591739Y-105642376D01*
X92596284Y-105635574D01*
X92684762Y-105503156D01*
X92803156Y-105384762D01*
X92942374Y-105291740D01*
X92942376Y-105291739D01*
X93097065Y-105227664D01*
X93261281Y-105195000D01*
X93428719Y-105195000D01*
X93592935Y-105227664D01*
G37*
G36*
X91052935Y-105227664D02*
G01*
X91207624Y-105291739D01*
X91207626Y-105291740D01*
X91346844Y-105384762D01*
X91465238Y-105503156D01*
X91553716Y-105635574D01*
X91558261Y-105642376D01*
X91622336Y-105797065D01*
X91655000Y-105961281D01*
X91655000Y-106128719D01*
X91622336Y-106292935D01*
X91558261Y-106447624D01*
X91558260Y-106447626D01*
X91465238Y-106586844D01*
X91346844Y-106705238D01*
X91207626Y-106798260D01*
X91207625Y-106798261D01*
X91207624Y-106798261D01*
X91052935Y-106862336D01*
X90888719Y-106895000D01*
X90721281Y-106895000D01*
X90557065Y-106862336D01*
X90402376Y-106798261D01*
X90402375Y-106798261D01*
X90402374Y-106798260D01*
X90263156Y-106705238D01*
X90144762Y-106586844D01*
X90051740Y-106447626D01*
X90051739Y-106447624D01*
X89987664Y-106292935D01*
X89955000Y-106128719D01*
X89955000Y-105961281D01*
X89987664Y-105797065D01*
X90051739Y-105642376D01*
X90056284Y-105635574D01*
X90144762Y-105503156D01*
X90263156Y-105384762D01*
X90402374Y-105291740D01*
X90402376Y-105291739D01*
X90557065Y-105227664D01*
X90721281Y-105195000D01*
X90888719Y-105195000D01*
X91052935Y-105227664D01*
G37*
G36*
X88512935Y-105227664D02*
G01*
X88667624Y-105291739D01*
X88667626Y-105291740D01*
X88806844Y-105384762D01*
X88925238Y-105503156D01*
X89013716Y-105635574D01*
X89018261Y-105642376D01*
X89082336Y-105797065D01*
X89115000Y-105961281D01*
X89115000Y-106128719D01*
X89082336Y-106292935D01*
X89018261Y-106447624D01*
X89018260Y-106447626D01*
X88925238Y-106586844D01*
X88806844Y-106705238D01*
X88667626Y-106798260D01*
X88667625Y-106798261D01*
X88667624Y-106798261D01*
X88512935Y-106862336D01*
X88348719Y-106895000D01*
X88181281Y-106895000D01*
X88017065Y-106862336D01*
X87862376Y-106798261D01*
X87862375Y-106798261D01*
X87862374Y-106798260D01*
X87723156Y-106705238D01*
X87604762Y-106586844D01*
X87511740Y-106447626D01*
X87511739Y-106447624D01*
X87447664Y-106292935D01*
X87415000Y-106128719D01*
X87415000Y-105961281D01*
X87447664Y-105797065D01*
X87511739Y-105642376D01*
X87516284Y-105635574D01*
X87604762Y-105503156D01*
X87723156Y-105384762D01*
X87862374Y-105291740D01*
X87862376Y-105291739D01*
X88017065Y-105227664D01*
X88181281Y-105195000D01*
X88348719Y-105195000D01*
X88512935Y-105227664D01*
G37*
G36*
X85972935Y-105227664D02*
G01*
X86127624Y-105291739D01*
X86127626Y-105291740D01*
X86266844Y-105384762D01*
X86385238Y-105503156D01*
X86473716Y-105635574D01*
X86478261Y-105642376D01*
X86542336Y-105797065D01*
X86575000Y-105961281D01*
X86575000Y-106128719D01*
X86542336Y-106292935D01*
X86478261Y-106447624D01*
X86478260Y-106447626D01*
X86385238Y-106586844D01*
X86266844Y-106705238D01*
X86127626Y-106798260D01*
X86127625Y-106798261D01*
X86127624Y-106798261D01*
X85972935Y-106862336D01*
X85808719Y-106895000D01*
X85641281Y-106895000D01*
X85477065Y-106862336D01*
X85322376Y-106798261D01*
X85322375Y-106798261D01*
X85322374Y-106798260D01*
X85183156Y-106705238D01*
X85064762Y-106586844D01*
X84971740Y-106447626D01*
X84971739Y-106447624D01*
X84907664Y-106292935D01*
X84875000Y-106128719D01*
X84875000Y-105961281D01*
X84907664Y-105797065D01*
X84971739Y-105642376D01*
X84976284Y-105635574D01*
X85064762Y-105503156D01*
X85183156Y-105384762D01*
X85322374Y-105291740D01*
X85322376Y-105291739D01*
X85477065Y-105227664D01*
X85641281Y-105195000D01*
X85808719Y-105195000D01*
X85972935Y-105227664D01*
G37*
G36*
X101212935Y-105227664D02*
G01*
X101367624Y-105291739D01*
X101367626Y-105291740D01*
X101506844Y-105384762D01*
X101625238Y-105503156D01*
X101713716Y-105635574D01*
X101718261Y-105642376D01*
X101782336Y-105797065D01*
X101815000Y-105961281D01*
X101815000Y-106128719D01*
X101782336Y-106292935D01*
X101718261Y-106447624D01*
X101718260Y-106447626D01*
X101625238Y-106586844D01*
X101506844Y-106705238D01*
X101367626Y-106798260D01*
X101367625Y-106798261D01*
X101367624Y-106798261D01*
X101212935Y-106862336D01*
X101048719Y-106895000D01*
X100881281Y-106895000D01*
X100717065Y-106862336D01*
X100562376Y-106798261D01*
X100562375Y-106798261D01*
X100562374Y-106798260D01*
X100423156Y-106705238D01*
X100304762Y-106586844D01*
X100211740Y-106447626D01*
X100211739Y-106447624D01*
X100147664Y-106292935D01*
X100115000Y-106128719D01*
X100115000Y-105961281D01*
X100147664Y-105797065D01*
X100211739Y-105642376D01*
X100216284Y-105635574D01*
X100304762Y-105503156D01*
X100423156Y-105384762D01*
X100562374Y-105291740D01*
X100562376Y-105291739D01*
X100717065Y-105227664D01*
X100881281Y-105195000D01*
X101048719Y-105195000D01*
X101212935Y-105227664D01*
G37*
G36*
X106292935Y-105227664D02*
G01*
X106447624Y-105291739D01*
X106447626Y-105291740D01*
X106586844Y-105384762D01*
X106705238Y-105503156D01*
X106793716Y-105635574D01*
X106798261Y-105642376D01*
X106862336Y-105797065D01*
X106895000Y-105961281D01*
X106895000Y-106128719D01*
X106862336Y-106292935D01*
X106798261Y-106447624D01*
X106798260Y-106447626D01*
X106705238Y-106586844D01*
X106586844Y-106705238D01*
X106447626Y-106798260D01*
X106447625Y-106798261D01*
X106447624Y-106798261D01*
X106292935Y-106862336D01*
X106128719Y-106895000D01*
X105961281Y-106895000D01*
X105797065Y-106862336D01*
X105642376Y-106798261D01*
X105642375Y-106798261D01*
X105642374Y-106798260D01*
X105503156Y-106705238D01*
X105384762Y-106586844D01*
X105291740Y-106447626D01*
X105291739Y-106447624D01*
X105227664Y-106292935D01*
X105195000Y-106128719D01*
X105195000Y-105961281D01*
X105227664Y-105797065D01*
X105291739Y-105642376D01*
X105296284Y-105635574D01*
X105384762Y-105503156D01*
X105503156Y-105384762D01*
X105642374Y-105291740D01*
X105642376Y-105291739D01*
X105797065Y-105227664D01*
X105961281Y-105195000D01*
X106128719Y-105195000D01*
X106292935Y-105227664D01*
G37*
G36*
X103752935Y-105227664D02*
G01*
X103907624Y-105291739D01*
X103907626Y-105291740D01*
X104046844Y-105384762D01*
X104165238Y-105503156D01*
X104253716Y-105635574D01*
X104258261Y-105642376D01*
X104322336Y-105797065D01*
X104355000Y-105961281D01*
X104355000Y-106128719D01*
X104322336Y-106292935D01*
X104258261Y-106447624D01*
X104258260Y-106447626D01*
X104165238Y-106586844D01*
X104046844Y-106705238D01*
X103907626Y-106798260D01*
X103907625Y-106798261D01*
X103907624Y-106798261D01*
X103752935Y-106862336D01*
X103588719Y-106895000D01*
X103421281Y-106895000D01*
X103257065Y-106862336D01*
X103102376Y-106798261D01*
X103102375Y-106798261D01*
X103102374Y-106798260D01*
X102963156Y-106705238D01*
X102844762Y-106586844D01*
X102751740Y-106447626D01*
X102751739Y-106447624D01*
X102687664Y-106292935D01*
X102655000Y-106128719D01*
X102655000Y-105961281D01*
X102687664Y-105797065D01*
X102751739Y-105642376D01*
X102756284Y-105635574D01*
X102844762Y-105503156D01*
X102963156Y-105384762D01*
X103102374Y-105291740D01*
X103102376Y-105291739D01*
X103257065Y-105227664D01*
X103421281Y-105195000D01*
X103588719Y-105195000D01*
X103752935Y-105227664D01*
G37*
G36*
X111372935Y-105227664D02*
G01*
X111527624Y-105291739D01*
X111527626Y-105291740D01*
X111666844Y-105384762D01*
X111785238Y-105503156D01*
X111873716Y-105635574D01*
X111878261Y-105642376D01*
X111942336Y-105797065D01*
X111975000Y-105961281D01*
X111975000Y-106128719D01*
X111942336Y-106292935D01*
X111878261Y-106447624D01*
X111878260Y-106447626D01*
X111785238Y-106586844D01*
X111666844Y-106705238D01*
X111527626Y-106798260D01*
X111527625Y-106798261D01*
X111527624Y-106798261D01*
X111372935Y-106862336D01*
X111208719Y-106895000D01*
X111041281Y-106895000D01*
X110877065Y-106862336D01*
X110722376Y-106798261D01*
X110722375Y-106798261D01*
X110722374Y-106798260D01*
X110583156Y-106705238D01*
X110464762Y-106586844D01*
X110371740Y-106447626D01*
X110371739Y-106447624D01*
X110307664Y-106292935D01*
X110275000Y-106128719D01*
X110275000Y-105961281D01*
X110307664Y-105797065D01*
X110371739Y-105642376D01*
X110376284Y-105635574D01*
X110464762Y-105503156D01*
X110583156Y-105384762D01*
X110722374Y-105291740D01*
X110722376Y-105291739D01*
X110877065Y-105227664D01*
X111041281Y-105195000D01*
X111208719Y-105195000D01*
X111372935Y-105227664D01*
G37*
G36*
X113912935Y-105227664D02*
G01*
X114067624Y-105291739D01*
X114067626Y-105291740D01*
X114206844Y-105384762D01*
X114325238Y-105503156D01*
X114413716Y-105635574D01*
X114418261Y-105642376D01*
X114482336Y-105797065D01*
X114515000Y-105961281D01*
X114515000Y-106128719D01*
X114482336Y-106292935D01*
X114418261Y-106447624D01*
X114418260Y-106447626D01*
X114325238Y-106586844D01*
X114206844Y-106705238D01*
X114067626Y-106798260D01*
X114067625Y-106798261D01*
X114067624Y-106798261D01*
X113912935Y-106862336D01*
X113748719Y-106895000D01*
X113581281Y-106895000D01*
X113417065Y-106862336D01*
X113262376Y-106798261D01*
X113262375Y-106798261D01*
X113262374Y-106798260D01*
X113123156Y-106705238D01*
X113004762Y-106586844D01*
X112911740Y-106447626D01*
X112911739Y-106447624D01*
X112847664Y-106292935D01*
X112815000Y-106128719D01*
X112815000Y-105961281D01*
X112847664Y-105797065D01*
X112911739Y-105642376D01*
X112916284Y-105635574D01*
X113004762Y-105503156D01*
X113123156Y-105384762D01*
X113262374Y-105291740D01*
X113262376Y-105291739D01*
X113417065Y-105227664D01*
X113581281Y-105195000D01*
X113748719Y-105195000D01*
X113912935Y-105227664D01*
G37*
G36*
X116452935Y-105227664D02*
G01*
X116607624Y-105291739D01*
X116607626Y-105291740D01*
X116746844Y-105384762D01*
X116865238Y-105503156D01*
X116953716Y-105635574D01*
X116958261Y-105642376D01*
X117022336Y-105797065D01*
X117055000Y-105961281D01*
X117055000Y-106128719D01*
X117022336Y-106292935D01*
X116958261Y-106447624D01*
X116958260Y-106447626D01*
X116865238Y-106586844D01*
X116746844Y-106705238D01*
X116607626Y-106798260D01*
X116607625Y-106798261D01*
X116607624Y-106798261D01*
X116452935Y-106862336D01*
X116288719Y-106895000D01*
X116121281Y-106895000D01*
X115957065Y-106862336D01*
X115802376Y-106798261D01*
X115802375Y-106798261D01*
X115802374Y-106798260D01*
X115663156Y-106705238D01*
X115544762Y-106586844D01*
X115451740Y-106447626D01*
X115451739Y-106447624D01*
X115387664Y-106292935D01*
X115355000Y-106128719D01*
X115355000Y-105961281D01*
X115387664Y-105797065D01*
X115451739Y-105642376D01*
X115456284Y-105635574D01*
X115544762Y-105503156D01*
X115663156Y-105384762D01*
X115802374Y-105291740D01*
X115802376Y-105291739D01*
X115957065Y-105227664D01*
X116121281Y-105195000D01*
X116288719Y-105195000D01*
X116452935Y-105227664D01*
G37*
G36*
X118992935Y-105227664D02*
G01*
X119147624Y-105291739D01*
X119147626Y-105291740D01*
X119286844Y-105384762D01*
X119405238Y-105503156D01*
X119493716Y-105635574D01*
X119498261Y-105642376D01*
X119562336Y-105797065D01*
X119595000Y-105961281D01*
X119595000Y-106128719D01*
X119562336Y-106292935D01*
X119498261Y-106447624D01*
X119498260Y-106447626D01*
X119405238Y-106586844D01*
X119286844Y-106705238D01*
X119147626Y-106798260D01*
X119147625Y-106798261D01*
X119147624Y-106798261D01*
X118992935Y-106862336D01*
X118828719Y-106895000D01*
X118661281Y-106895000D01*
X118497065Y-106862336D01*
X118342376Y-106798261D01*
X118342375Y-106798261D01*
X118342374Y-106798260D01*
X118203156Y-106705238D01*
X118084762Y-106586844D01*
X117991740Y-106447626D01*
X117991739Y-106447624D01*
X117927664Y-106292935D01*
X117895000Y-106128719D01*
X117895000Y-105961281D01*
X117927664Y-105797065D01*
X117991739Y-105642376D01*
X117996284Y-105635574D01*
X118084762Y-105503156D01*
X118203156Y-105384762D01*
X118342374Y-105291740D01*
X118342376Y-105291739D01*
X118497065Y-105227664D01*
X118661281Y-105195000D01*
X118828719Y-105195000D01*
X118992935Y-105227664D01*
G37*
G36*
X70732935Y-105227664D02*
G01*
X70887624Y-105291739D01*
X70887626Y-105291740D01*
X71026844Y-105384762D01*
X71145238Y-105503156D01*
X71233716Y-105635574D01*
X71238261Y-105642376D01*
X71302336Y-105797065D01*
X71335000Y-105961281D01*
X71335000Y-106128719D01*
X71302336Y-106292935D01*
X71238261Y-106447624D01*
X71238260Y-106447626D01*
X71145238Y-106586844D01*
X71026844Y-106705238D01*
X70887626Y-106798260D01*
X70887625Y-106798261D01*
X70887624Y-106798261D01*
X70732935Y-106862336D01*
X70568719Y-106895000D01*
X70401281Y-106895000D01*
X70237065Y-106862336D01*
X70082376Y-106798261D01*
X70082375Y-106798261D01*
X70082374Y-106798260D01*
X69943156Y-106705238D01*
X69824762Y-106586844D01*
X69731740Y-106447626D01*
X69731739Y-106447624D01*
X69667664Y-106292935D01*
X69635000Y-106128719D01*
X69635000Y-105961281D01*
X69667664Y-105797065D01*
X69731739Y-105642376D01*
X69736284Y-105635574D01*
X69824762Y-105503156D01*
X69943156Y-105384762D01*
X70082374Y-105291740D01*
X70082376Y-105291739D01*
X70237065Y-105227664D01*
X70401281Y-105195000D01*
X70568719Y-105195000D01*
X70732935Y-105227664D01*
G37*
G36*
X73272935Y-105227664D02*
G01*
X73427624Y-105291739D01*
X73427626Y-105291740D01*
X73566844Y-105384762D01*
X73685238Y-105503156D01*
X73773716Y-105635574D01*
X73778261Y-105642376D01*
X73842336Y-105797065D01*
X73875000Y-105961281D01*
X73875000Y-106128719D01*
X73842336Y-106292935D01*
X73778261Y-106447624D01*
X73778260Y-106447626D01*
X73685238Y-106586844D01*
X73566844Y-106705238D01*
X73427626Y-106798260D01*
X73427625Y-106798261D01*
X73427624Y-106798261D01*
X73272935Y-106862336D01*
X73108719Y-106895000D01*
X72941281Y-106895000D01*
X72777065Y-106862336D01*
X72622376Y-106798261D01*
X72622375Y-106798261D01*
X72622374Y-106798260D01*
X72483156Y-106705238D01*
X72364762Y-106586844D01*
X72271740Y-106447626D01*
X72271739Y-106447624D01*
X72207664Y-106292935D01*
X72175000Y-106128719D01*
X72175000Y-105961281D01*
X72207664Y-105797065D01*
X72271739Y-105642376D01*
X72276284Y-105635574D01*
X72364762Y-105503156D01*
X72483156Y-105384762D01*
X72622374Y-105291740D01*
X72622376Y-105291739D01*
X72777065Y-105227664D01*
X72941281Y-105195000D01*
X73108719Y-105195000D01*
X73272935Y-105227664D01*
G37*
G36*
X75812935Y-105227664D02*
G01*
X75967624Y-105291739D01*
X75967626Y-105291740D01*
X76106844Y-105384762D01*
X76225238Y-105503156D01*
X76313716Y-105635574D01*
X76318261Y-105642376D01*
X76382336Y-105797065D01*
X76415000Y-105961281D01*
X76415000Y-106128719D01*
X76382336Y-106292935D01*
X76318261Y-106447624D01*
X76318260Y-106447626D01*
X76225238Y-106586844D01*
X76106844Y-106705238D01*
X75967626Y-106798260D01*
X75967625Y-106798261D01*
X75967624Y-106798261D01*
X75812935Y-106862336D01*
X75648719Y-106895000D01*
X75481281Y-106895000D01*
X75317065Y-106862336D01*
X75162376Y-106798261D01*
X75162375Y-106798261D01*
X75162374Y-106798260D01*
X75023156Y-106705238D01*
X74904762Y-106586844D01*
X74811740Y-106447626D01*
X74811739Y-106447624D01*
X74747664Y-106292935D01*
X74715000Y-106128719D01*
X74715000Y-105961281D01*
X74747664Y-105797065D01*
X74811739Y-105642376D01*
X74816284Y-105635574D01*
X74904762Y-105503156D01*
X75023156Y-105384762D01*
X75162374Y-105291740D01*
X75162376Y-105291739D01*
X75317065Y-105227664D01*
X75481281Y-105195000D01*
X75648719Y-105195000D01*
X75812935Y-105227664D01*
G37*
G36*
X78352935Y-105227664D02*
G01*
X78507624Y-105291739D01*
X78507626Y-105291740D01*
X78646844Y-105384762D01*
X78765238Y-105503156D01*
X78853716Y-105635574D01*
X78858261Y-105642376D01*
X78922336Y-105797065D01*
X78955000Y-105961281D01*
X78955000Y-106128719D01*
X78922336Y-106292935D01*
X78858261Y-106447624D01*
X78858260Y-106447626D01*
X78765238Y-106586844D01*
X78646844Y-106705238D01*
X78507626Y-106798260D01*
X78507625Y-106798261D01*
X78507624Y-106798261D01*
X78352935Y-106862336D01*
X78188719Y-106895000D01*
X78021281Y-106895000D01*
X77857065Y-106862336D01*
X77702376Y-106798261D01*
X77702375Y-106798261D01*
X77702374Y-106798260D01*
X77563156Y-106705238D01*
X77444762Y-106586844D01*
X77351740Y-106447626D01*
X77351739Y-106447624D01*
X77287664Y-106292935D01*
X77255000Y-106128719D01*
X77255000Y-105961281D01*
X77287664Y-105797065D01*
X77351739Y-105642376D01*
X77356284Y-105635574D01*
X77444762Y-105503156D01*
X77563156Y-105384762D01*
X77702374Y-105291740D01*
X77702376Y-105291739D01*
X77857065Y-105227664D01*
X78021281Y-105195000D01*
X78188719Y-105195000D01*
X78352935Y-105227664D01*
G37*
G36*
X80892935Y-105227664D02*
G01*
X81047624Y-105291739D01*
X81047626Y-105291740D01*
X81186844Y-105384762D01*
X81305238Y-105503156D01*
X81393716Y-105635574D01*
X81398261Y-105642376D01*
X81462336Y-105797065D01*
X81495000Y-105961281D01*
X81495000Y-106128719D01*
X81462336Y-106292935D01*
X81398261Y-106447624D01*
X81398260Y-106447626D01*
X81305238Y-106586844D01*
X81186844Y-106705238D01*
X81047626Y-106798260D01*
X81047625Y-106798261D01*
X81047624Y-106798261D01*
X80892935Y-106862336D01*
X80728719Y-106895000D01*
X80561281Y-106895000D01*
X80397065Y-106862336D01*
X80242376Y-106798261D01*
X80242375Y-106798261D01*
X80242374Y-106798260D01*
X80103156Y-106705238D01*
X79984762Y-106586844D01*
X79891740Y-106447626D01*
X79891739Y-106447624D01*
X79827664Y-106292935D01*
X79795000Y-106128719D01*
X79795000Y-105961281D01*
X79827664Y-105797065D01*
X79891739Y-105642376D01*
X79896284Y-105635574D01*
X79984762Y-105503156D01*
X80103156Y-105384762D01*
X80242374Y-105291740D01*
X80242376Y-105291739D01*
X80397065Y-105227664D01*
X80561281Y-105195000D01*
X80728719Y-105195000D01*
X80892935Y-105227664D01*
G37*
G36*
X108832935Y-105227664D02*
G01*
X108987624Y-105291739D01*
X108987626Y-105291740D01*
X109126844Y-105384762D01*
X109245238Y-105503156D01*
X109333716Y-105635574D01*
X109338261Y-105642376D01*
X109402336Y-105797065D01*
X109435000Y-105961281D01*
X109435000Y-106128719D01*
X109402336Y-106292935D01*
X109338261Y-106447624D01*
X109338260Y-106447626D01*
X109245238Y-106586844D01*
X109126844Y-106705238D01*
X108987626Y-106798260D01*
X108987625Y-106798261D01*
X108987624Y-106798261D01*
X108832935Y-106862336D01*
X108668719Y-106895000D01*
X108501281Y-106895000D01*
X108337065Y-106862336D01*
X108182376Y-106798261D01*
X108182375Y-106798261D01*
X108182374Y-106798260D01*
X108043156Y-106705238D01*
X107924762Y-106586844D01*
X107831740Y-106447626D01*
X107831739Y-106447624D01*
X107767664Y-106292935D01*
X107735000Y-106128719D01*
X107735000Y-105961281D01*
X107767664Y-105797065D01*
X107831739Y-105642376D01*
X107836284Y-105635574D01*
X107924762Y-105503156D01*
X108043156Y-105384762D01*
X108182374Y-105291740D01*
X108182376Y-105291739D01*
X108337065Y-105227664D01*
X108501281Y-105195000D01*
X108668719Y-105195000D01*
X108832935Y-105227664D01*
G37*
G36*
X173748779Y-103476879D02*
G01*
X173994463Y-103578645D01*
X173994465Y-103578646D01*
X174215575Y-103726387D01*
X174403613Y-103914425D01*
X174492093Y-104046844D01*
X174551355Y-104135537D01*
X174653121Y-104381221D01*
X174705000Y-104642035D01*
X174705000Y-104907965D01*
X174653121Y-105168779D01*
X174551355Y-105414463D01*
X174551354Y-105414465D01*
X174403613Y-105635575D01*
X174215575Y-105823613D01*
X173994465Y-105971354D01*
X173994464Y-105971355D01*
X173994463Y-105971355D01*
X173748779Y-106073121D01*
X173487965Y-106125000D01*
X173222035Y-106125000D01*
X172961221Y-106073121D01*
X172715537Y-105971355D01*
X172715536Y-105971355D01*
X172715535Y-105971354D01*
X172494425Y-105823613D01*
X172306387Y-105635575D01*
X172158646Y-105414465D01*
X172158645Y-105414463D01*
X172056879Y-105168779D01*
X172005000Y-104907965D01*
X172005000Y-104642035D01*
X172056879Y-104381221D01*
X172158645Y-104135537D01*
X172217908Y-104046844D01*
X172306387Y-103914425D01*
X172494425Y-103726387D01*
X172715535Y-103578646D01*
X172715537Y-103578645D01*
X172961221Y-103476879D01*
X173222035Y-103425000D01*
X173487965Y-103425000D01*
X173748779Y-103476879D01*
G37*
G36*
X61988779Y-103476879D02*
G01*
X62234463Y-103578645D01*
X62234465Y-103578646D01*
X62455575Y-103726387D01*
X62643613Y-103914425D01*
X62732093Y-104046844D01*
X62791355Y-104135537D01*
X62893121Y-104381221D01*
X62945000Y-104642035D01*
X62945000Y-104907965D01*
X62893121Y-105168779D01*
X62791355Y-105414463D01*
X62791354Y-105414465D01*
X62643613Y-105635575D01*
X62455575Y-105823613D01*
X62234465Y-105971354D01*
X62234464Y-105971355D01*
X62234463Y-105971355D01*
X61988779Y-106073121D01*
X61727965Y-106125000D01*
X61462035Y-106125000D01*
X61201221Y-106073121D01*
X60955537Y-105971355D01*
X60955536Y-105971355D01*
X60955535Y-105971354D01*
X60734425Y-105823613D01*
X60546387Y-105635575D01*
X60398646Y-105414465D01*
X60398645Y-105414463D01*
X60296879Y-105168779D01*
X60245000Y-104907965D01*
X60245000Y-104642035D01*
X60296879Y-104381221D01*
X60398645Y-104135537D01*
X60457908Y-104046844D01*
X60546387Y-103914425D01*
X60734425Y-103726387D01*
X60955535Y-103578646D01*
X60955537Y-103578645D01*
X61201221Y-103476879D01*
X61462035Y-103425000D01*
X61727965Y-103425000D01*
X61988779Y-103476879D01*
G37*
G36*
X116452935Y-102687664D02*
G01*
X116607624Y-102751739D01*
X116607626Y-102751740D01*
X116746844Y-102844762D01*
X116865238Y-102963156D01*
X116958260Y-103102374D01*
X116958261Y-103102376D01*
X117022336Y-103257065D01*
X117055000Y-103421281D01*
X117055000Y-103588719D01*
X117022336Y-103752935D01*
X116958261Y-103907624D01*
X116958260Y-103907626D01*
X116865238Y-104046844D01*
X116746844Y-104165238D01*
X116607626Y-104258260D01*
X116607625Y-104258261D01*
X116607624Y-104258261D01*
X116452935Y-104322336D01*
X116288719Y-104355000D01*
X116121281Y-104355000D01*
X115957065Y-104322336D01*
X115802376Y-104258261D01*
X115802375Y-104258261D01*
X115802374Y-104258260D01*
X115663156Y-104165238D01*
X115544762Y-104046844D01*
X115451740Y-103907626D01*
X115451739Y-103907624D01*
X115387664Y-103752935D01*
X115355000Y-103588719D01*
X115355000Y-103421281D01*
X115387664Y-103257065D01*
X115451739Y-103102376D01*
X115451740Y-103102374D01*
X115544762Y-102963156D01*
X115663156Y-102844762D01*
X115802374Y-102751740D01*
X115802376Y-102751739D01*
X115957065Y-102687664D01*
X116121281Y-102655000D01*
X116288719Y-102655000D01*
X116452935Y-102687664D01*
G37*
G36*
X113912935Y-102687664D02*
G01*
X114067624Y-102751739D01*
X114067626Y-102751740D01*
X114206844Y-102844762D01*
X114325238Y-102963156D01*
X114418260Y-103102374D01*
X114418261Y-103102376D01*
X114482336Y-103257065D01*
X114515000Y-103421281D01*
X114515000Y-103588719D01*
X114482336Y-103752935D01*
X114418261Y-103907624D01*
X114418260Y-103907626D01*
X114325238Y-104046844D01*
X114206844Y-104165238D01*
X114067626Y-104258260D01*
X114067625Y-104258261D01*
X114067624Y-104258261D01*
X113912935Y-104322336D01*
X113748719Y-104355000D01*
X113581281Y-104355000D01*
X113417065Y-104322336D01*
X113262376Y-104258261D01*
X113262375Y-104258261D01*
X113262374Y-104258260D01*
X113123156Y-104165238D01*
X113004762Y-104046844D01*
X112911740Y-103907626D01*
X112911739Y-103907624D01*
X112847664Y-103752935D01*
X112815000Y-103588719D01*
X112815000Y-103421281D01*
X112847664Y-103257065D01*
X112911739Y-103102376D01*
X112911740Y-103102374D01*
X113004762Y-102963156D01*
X113123156Y-102844762D01*
X113262374Y-102751740D01*
X113262376Y-102751739D01*
X113417065Y-102687664D01*
X113581281Y-102655000D01*
X113748719Y-102655000D01*
X113912935Y-102687664D01*
G37*
G36*
X111372935Y-102687664D02*
G01*
X111527624Y-102751739D01*
X111527626Y-102751740D01*
X111666844Y-102844762D01*
X111785238Y-102963156D01*
X111878260Y-103102374D01*
X111878261Y-103102376D01*
X111942336Y-103257065D01*
X111975000Y-103421281D01*
X111975000Y-103588719D01*
X111942336Y-103752935D01*
X111878261Y-103907624D01*
X111878260Y-103907626D01*
X111785238Y-104046844D01*
X111666844Y-104165238D01*
X111527626Y-104258260D01*
X111527625Y-104258261D01*
X111527624Y-104258261D01*
X111372935Y-104322336D01*
X111208719Y-104355000D01*
X111041281Y-104355000D01*
X110877065Y-104322336D01*
X110722376Y-104258261D01*
X110722375Y-104258261D01*
X110722374Y-104258260D01*
X110583156Y-104165238D01*
X110464762Y-104046844D01*
X110371740Y-103907626D01*
X110371739Y-103907624D01*
X110307664Y-103752935D01*
X110275000Y-103588719D01*
X110275000Y-103421281D01*
X110307664Y-103257065D01*
X110371739Y-103102376D01*
X110371740Y-103102374D01*
X110464762Y-102963156D01*
X110583156Y-102844762D01*
X110722374Y-102751740D01*
X110722376Y-102751739D01*
X110877065Y-102687664D01*
X111041281Y-102655000D01*
X111208719Y-102655000D01*
X111372935Y-102687664D01*
G37*
G36*
X108832935Y-102687664D02*
G01*
X108987624Y-102751739D01*
X108987626Y-102751740D01*
X109126844Y-102844762D01*
X109245238Y-102963156D01*
X109338260Y-103102374D01*
X109338261Y-103102376D01*
X109402336Y-103257065D01*
X109435000Y-103421281D01*
X109435000Y-103588719D01*
X109402336Y-103752935D01*
X109338261Y-103907624D01*
X109338260Y-103907626D01*
X109245238Y-104046844D01*
X109126844Y-104165238D01*
X108987626Y-104258260D01*
X108987625Y-104258261D01*
X108987624Y-104258261D01*
X108832935Y-104322336D01*
X108668719Y-104355000D01*
X108501281Y-104355000D01*
X108337065Y-104322336D01*
X108182376Y-104258261D01*
X108182375Y-104258261D01*
X108182374Y-104258260D01*
X108043156Y-104165238D01*
X107924762Y-104046844D01*
X107831740Y-103907626D01*
X107831739Y-103907624D01*
X107767664Y-103752935D01*
X107735000Y-103588719D01*
X107735000Y-103421281D01*
X107767664Y-103257065D01*
X107831739Y-103102376D01*
X107831740Y-103102374D01*
X107924762Y-102963156D01*
X108043156Y-102844762D01*
X108182374Y-102751740D01*
X108182376Y-102751739D01*
X108337065Y-102687664D01*
X108501281Y-102655000D01*
X108668719Y-102655000D01*
X108832935Y-102687664D01*
G37*
G36*
X106292935Y-102687664D02*
G01*
X106447624Y-102751739D01*
X106447626Y-102751740D01*
X106586844Y-102844762D01*
X106705238Y-102963156D01*
X106798260Y-103102374D01*
X106798261Y-103102376D01*
X106862336Y-103257065D01*
X106895000Y-103421281D01*
X106895000Y-103588719D01*
X106862336Y-103752935D01*
X106798261Y-103907624D01*
X106798260Y-103907626D01*
X106705238Y-104046844D01*
X106586844Y-104165238D01*
X106447626Y-104258260D01*
X106447625Y-104258261D01*
X106447624Y-104258261D01*
X106292935Y-104322336D01*
X106128719Y-104355000D01*
X105961281Y-104355000D01*
X105797065Y-104322336D01*
X105642376Y-104258261D01*
X105642375Y-104258261D01*
X105642374Y-104258260D01*
X105503156Y-104165238D01*
X105384762Y-104046844D01*
X105291740Y-103907626D01*
X105291739Y-103907624D01*
X105227664Y-103752935D01*
X105195000Y-103588719D01*
X105195000Y-103421281D01*
X105227664Y-103257065D01*
X105291739Y-103102376D01*
X105291740Y-103102374D01*
X105384762Y-102963156D01*
X105503156Y-102844762D01*
X105642374Y-102751740D01*
X105642376Y-102751739D01*
X105797065Y-102687664D01*
X105961281Y-102655000D01*
X106128719Y-102655000D01*
X106292935Y-102687664D01*
G37*
G36*
X103752935Y-102687664D02*
G01*
X103907624Y-102751739D01*
X103907626Y-102751740D01*
X104046844Y-102844762D01*
X104165238Y-102963156D01*
X104258260Y-103102374D01*
X104258261Y-103102376D01*
X104322336Y-103257065D01*
X104355000Y-103421281D01*
X104355000Y-103588719D01*
X104322336Y-103752935D01*
X104258261Y-103907624D01*
X104258260Y-103907626D01*
X104165238Y-104046844D01*
X104046844Y-104165238D01*
X103907626Y-104258260D01*
X103907625Y-104258261D01*
X103907624Y-104258261D01*
X103752935Y-104322336D01*
X103588719Y-104355000D01*
X103421281Y-104355000D01*
X103257065Y-104322336D01*
X103102376Y-104258261D01*
X103102375Y-104258261D01*
X103102374Y-104258260D01*
X102963156Y-104165238D01*
X102844762Y-104046844D01*
X102751740Y-103907626D01*
X102751739Y-103907624D01*
X102687664Y-103752935D01*
X102655000Y-103588719D01*
X102655000Y-103421281D01*
X102687664Y-103257065D01*
X102751739Y-103102376D01*
X102751740Y-103102374D01*
X102844762Y-102963156D01*
X102963156Y-102844762D01*
X103102374Y-102751740D01*
X103102376Y-102751739D01*
X103257065Y-102687664D01*
X103421281Y-102655000D01*
X103588719Y-102655000D01*
X103752935Y-102687664D01*
G37*
G36*
X101212935Y-102687664D02*
G01*
X101367624Y-102751739D01*
X101367626Y-102751740D01*
X101506844Y-102844762D01*
X101625238Y-102963156D01*
X101718260Y-103102374D01*
X101718261Y-103102376D01*
X101782336Y-103257065D01*
X101815000Y-103421281D01*
X101815000Y-103588719D01*
X101782336Y-103752935D01*
X101718261Y-103907624D01*
X101718260Y-103907626D01*
X101625238Y-104046844D01*
X101506844Y-104165238D01*
X101367626Y-104258260D01*
X101367625Y-104258261D01*
X101367624Y-104258261D01*
X101212935Y-104322336D01*
X101048719Y-104355000D01*
X100881281Y-104355000D01*
X100717065Y-104322336D01*
X100562376Y-104258261D01*
X100562375Y-104258261D01*
X100562374Y-104258260D01*
X100423156Y-104165238D01*
X100304762Y-104046844D01*
X100211740Y-103907626D01*
X100211739Y-103907624D01*
X100147664Y-103752935D01*
X100115000Y-103588719D01*
X100115000Y-103421281D01*
X100147664Y-103257065D01*
X100211739Y-103102376D01*
X100211740Y-103102374D01*
X100304762Y-102963156D01*
X100423156Y-102844762D01*
X100562374Y-102751740D01*
X100562376Y-102751739D01*
X100717065Y-102687664D01*
X100881281Y-102655000D01*
X101048719Y-102655000D01*
X101212935Y-102687664D01*
G37*
G36*
X98672935Y-102687664D02*
G01*
X98827624Y-102751739D01*
X98827626Y-102751740D01*
X98966844Y-102844762D01*
X99085238Y-102963156D01*
X99178260Y-103102374D01*
X99178261Y-103102376D01*
X99242336Y-103257065D01*
X99275000Y-103421281D01*
X99275000Y-103588719D01*
X99242336Y-103752935D01*
X99178261Y-103907624D01*
X99178260Y-103907626D01*
X99085238Y-104046844D01*
X98966844Y-104165238D01*
X98827626Y-104258260D01*
X98827625Y-104258261D01*
X98827624Y-104258261D01*
X98672935Y-104322336D01*
X98508719Y-104355000D01*
X98341281Y-104355000D01*
X98177065Y-104322336D01*
X98022376Y-104258261D01*
X98022375Y-104258261D01*
X98022374Y-104258260D01*
X97883156Y-104165238D01*
X97764762Y-104046844D01*
X97671740Y-103907626D01*
X97671739Y-103907624D01*
X97607664Y-103752935D01*
X97575000Y-103588719D01*
X97575000Y-103421281D01*
X97607664Y-103257065D01*
X97671739Y-103102376D01*
X97671740Y-103102374D01*
X97764762Y-102963156D01*
X97883156Y-102844762D01*
X98022374Y-102751740D01*
X98022376Y-102751739D01*
X98177065Y-102687664D01*
X98341281Y-102655000D01*
X98508719Y-102655000D01*
X98672935Y-102687664D01*
G37*
G36*
X96132935Y-102687664D02*
G01*
X96287624Y-102751739D01*
X96287626Y-102751740D01*
X96426844Y-102844762D01*
X96545238Y-102963156D01*
X96638260Y-103102374D01*
X96638261Y-103102376D01*
X96702336Y-103257065D01*
X96735000Y-103421281D01*
X96735000Y-103588719D01*
X96702336Y-103752935D01*
X96638261Y-103907624D01*
X96638260Y-103907626D01*
X96545238Y-104046844D01*
X96426844Y-104165238D01*
X96287626Y-104258260D01*
X96287625Y-104258261D01*
X96287624Y-104258261D01*
X96132935Y-104322336D01*
X95968719Y-104355000D01*
X95801281Y-104355000D01*
X95637065Y-104322336D01*
X95482376Y-104258261D01*
X95482375Y-104258261D01*
X95482374Y-104258260D01*
X95343156Y-104165238D01*
X95224762Y-104046844D01*
X95131740Y-103907626D01*
X95131739Y-103907624D01*
X95067664Y-103752935D01*
X95035000Y-103588719D01*
X95035000Y-103421281D01*
X95067664Y-103257065D01*
X95131739Y-103102376D01*
X95131740Y-103102374D01*
X95224762Y-102963156D01*
X95343156Y-102844762D01*
X95482374Y-102751740D01*
X95482376Y-102751739D01*
X95637065Y-102687664D01*
X95801281Y-102655000D01*
X95968719Y-102655000D01*
X96132935Y-102687664D01*
G37*
G36*
X93592935Y-102687664D02*
G01*
X93747624Y-102751739D01*
X93747626Y-102751740D01*
X93886844Y-102844762D01*
X94005238Y-102963156D01*
X94098260Y-103102374D01*
X94098261Y-103102376D01*
X94162336Y-103257065D01*
X94195000Y-103421281D01*
X94195000Y-103588719D01*
X94162336Y-103752935D01*
X94098261Y-103907624D01*
X94098260Y-103907626D01*
X94005238Y-104046844D01*
X93886844Y-104165238D01*
X93747626Y-104258260D01*
X93747625Y-104258261D01*
X93747624Y-104258261D01*
X93592935Y-104322336D01*
X93428719Y-104355000D01*
X93261281Y-104355000D01*
X93097065Y-104322336D01*
X92942376Y-104258261D01*
X92942375Y-104258261D01*
X92942374Y-104258260D01*
X92803156Y-104165238D01*
X92684762Y-104046844D01*
X92591740Y-103907626D01*
X92591739Y-103907624D01*
X92527664Y-103752935D01*
X92495000Y-103588719D01*
X92495000Y-103421281D01*
X92527664Y-103257065D01*
X92591739Y-103102376D01*
X92591740Y-103102374D01*
X92684762Y-102963156D01*
X92803156Y-102844762D01*
X92942374Y-102751740D01*
X92942376Y-102751739D01*
X93097065Y-102687664D01*
X93261281Y-102655000D01*
X93428719Y-102655000D01*
X93592935Y-102687664D01*
G37*
G36*
X91052935Y-102687664D02*
G01*
X91207624Y-102751739D01*
X91207626Y-102751740D01*
X91346844Y-102844762D01*
X91465238Y-102963156D01*
X91558260Y-103102374D01*
X91558261Y-103102376D01*
X91622336Y-103257065D01*
X91655000Y-103421281D01*
X91655000Y-103588719D01*
X91622336Y-103752935D01*
X91558261Y-103907624D01*
X91558260Y-103907626D01*
X91465238Y-104046844D01*
X91346844Y-104165238D01*
X91207626Y-104258260D01*
X91207625Y-104258261D01*
X91207624Y-104258261D01*
X91052935Y-104322336D01*
X90888719Y-104355000D01*
X90721281Y-104355000D01*
X90557065Y-104322336D01*
X90402376Y-104258261D01*
X90402375Y-104258261D01*
X90402374Y-104258260D01*
X90263156Y-104165238D01*
X90144762Y-104046844D01*
X90051740Y-103907626D01*
X90051739Y-103907624D01*
X89987664Y-103752935D01*
X89955000Y-103588719D01*
X89955000Y-103421281D01*
X89987664Y-103257065D01*
X90051739Y-103102376D01*
X90051740Y-103102374D01*
X90144762Y-102963156D01*
X90263156Y-102844762D01*
X90402374Y-102751740D01*
X90402376Y-102751739D01*
X90557065Y-102687664D01*
X90721281Y-102655000D01*
X90888719Y-102655000D01*
X91052935Y-102687664D01*
G37*
G36*
X88512935Y-102687664D02*
G01*
X88667624Y-102751739D01*
X88667626Y-102751740D01*
X88806844Y-102844762D01*
X88925238Y-102963156D01*
X89018260Y-103102374D01*
X89018261Y-103102376D01*
X89082336Y-103257065D01*
X89115000Y-103421281D01*
X89115000Y-103588719D01*
X89082336Y-103752935D01*
X89018261Y-103907624D01*
X89018260Y-103907626D01*
X88925238Y-104046844D01*
X88806844Y-104165238D01*
X88667626Y-104258260D01*
X88667625Y-104258261D01*
X88667624Y-104258261D01*
X88512935Y-104322336D01*
X88348719Y-104355000D01*
X88181281Y-104355000D01*
X88017065Y-104322336D01*
X87862376Y-104258261D01*
X87862375Y-104258261D01*
X87862374Y-104258260D01*
X87723156Y-104165238D01*
X87604762Y-104046844D01*
X87511740Y-103907626D01*
X87511739Y-103907624D01*
X87447664Y-103752935D01*
X87415000Y-103588719D01*
X87415000Y-103421281D01*
X87447664Y-103257065D01*
X87511739Y-103102376D01*
X87511740Y-103102374D01*
X87604762Y-102963156D01*
X87723156Y-102844762D01*
X87862374Y-102751740D01*
X87862376Y-102751739D01*
X88017065Y-102687664D01*
X88181281Y-102655000D01*
X88348719Y-102655000D01*
X88512935Y-102687664D01*
G37*
G36*
X85972935Y-102687664D02*
G01*
X86127624Y-102751739D01*
X86127626Y-102751740D01*
X86266844Y-102844762D01*
X86385238Y-102963156D01*
X86478260Y-103102374D01*
X86478261Y-103102376D01*
X86542336Y-103257065D01*
X86575000Y-103421281D01*
X86575000Y-103588719D01*
X86542336Y-103752935D01*
X86478261Y-103907624D01*
X86478260Y-103907626D01*
X86385238Y-104046844D01*
X86266844Y-104165238D01*
X86127626Y-104258260D01*
X86127625Y-104258261D01*
X86127624Y-104258261D01*
X85972935Y-104322336D01*
X85808719Y-104355000D01*
X85641281Y-104355000D01*
X85477065Y-104322336D01*
X85322376Y-104258261D01*
X85322375Y-104258261D01*
X85322374Y-104258260D01*
X85183156Y-104165238D01*
X85064762Y-104046844D01*
X84971740Y-103907626D01*
X84971739Y-103907624D01*
X84907664Y-103752935D01*
X84875000Y-103588719D01*
X84875000Y-103421281D01*
X84907664Y-103257065D01*
X84971739Y-103102376D01*
X84971740Y-103102374D01*
X85064762Y-102963156D01*
X85183156Y-102844762D01*
X85322374Y-102751740D01*
X85322376Y-102751739D01*
X85477065Y-102687664D01*
X85641281Y-102655000D01*
X85808719Y-102655000D01*
X85972935Y-102687664D01*
G37*
G36*
X80892935Y-102687664D02*
G01*
X81047624Y-102751739D01*
X81047626Y-102751740D01*
X81186844Y-102844762D01*
X81305238Y-102963156D01*
X81398260Y-103102374D01*
X81398261Y-103102376D01*
X81462336Y-103257065D01*
X81495000Y-103421281D01*
X81495000Y-103588719D01*
X81462336Y-103752935D01*
X81398261Y-103907624D01*
X81398260Y-103907626D01*
X81305238Y-104046844D01*
X81186844Y-104165238D01*
X81047626Y-104258260D01*
X81047625Y-104258261D01*
X81047624Y-104258261D01*
X80892935Y-104322336D01*
X80728719Y-104355000D01*
X80561281Y-104355000D01*
X80397065Y-104322336D01*
X80242376Y-104258261D01*
X80242375Y-104258261D01*
X80242374Y-104258260D01*
X80103156Y-104165238D01*
X79984762Y-104046844D01*
X79891740Y-103907626D01*
X79891739Y-103907624D01*
X79827664Y-103752935D01*
X79795000Y-103588719D01*
X79795000Y-103421281D01*
X79827664Y-103257065D01*
X79891739Y-103102376D01*
X79891740Y-103102374D01*
X79984762Y-102963156D01*
X80103156Y-102844762D01*
X80242374Y-102751740D01*
X80242376Y-102751739D01*
X80397065Y-102687664D01*
X80561281Y-102655000D01*
X80728719Y-102655000D01*
X80892935Y-102687664D01*
G37*
G36*
X78352935Y-102687664D02*
G01*
X78507624Y-102751739D01*
X78507626Y-102751740D01*
X78646844Y-102844762D01*
X78765238Y-102963156D01*
X78858260Y-103102374D01*
X78858261Y-103102376D01*
X78922336Y-103257065D01*
X78955000Y-103421281D01*
X78955000Y-103588719D01*
X78922336Y-103752935D01*
X78858261Y-103907624D01*
X78858260Y-103907626D01*
X78765238Y-104046844D01*
X78646844Y-104165238D01*
X78507626Y-104258260D01*
X78507625Y-104258261D01*
X78507624Y-104258261D01*
X78352935Y-104322336D01*
X78188719Y-104355000D01*
X78021281Y-104355000D01*
X77857065Y-104322336D01*
X77702376Y-104258261D01*
X77702375Y-104258261D01*
X77702374Y-104258260D01*
X77563156Y-104165238D01*
X77444762Y-104046844D01*
X77351740Y-103907626D01*
X77351739Y-103907624D01*
X77287664Y-103752935D01*
X77255000Y-103588719D01*
X77255000Y-103421281D01*
X77287664Y-103257065D01*
X77351739Y-103102376D01*
X77351740Y-103102374D01*
X77444762Y-102963156D01*
X77563156Y-102844762D01*
X77702374Y-102751740D01*
X77702376Y-102751739D01*
X77857065Y-102687664D01*
X78021281Y-102655000D01*
X78188719Y-102655000D01*
X78352935Y-102687664D01*
G37*
G36*
X75812935Y-102687664D02*
G01*
X75967624Y-102751739D01*
X75967626Y-102751740D01*
X76106844Y-102844762D01*
X76225238Y-102963156D01*
X76318260Y-103102374D01*
X76318261Y-103102376D01*
X76382336Y-103257065D01*
X76415000Y-103421281D01*
X76415000Y-103588719D01*
X76382336Y-103752935D01*
X76318261Y-103907624D01*
X76318260Y-103907626D01*
X76225238Y-104046844D01*
X76106844Y-104165238D01*
X75967626Y-104258260D01*
X75967625Y-104258261D01*
X75967624Y-104258261D01*
X75812935Y-104322336D01*
X75648719Y-104355000D01*
X75481281Y-104355000D01*
X75317065Y-104322336D01*
X75162376Y-104258261D01*
X75162375Y-104258261D01*
X75162374Y-104258260D01*
X75023156Y-104165238D01*
X74904762Y-104046844D01*
X74811740Y-103907626D01*
X74811739Y-103907624D01*
X74747664Y-103752935D01*
X74715000Y-103588719D01*
X74715000Y-103421281D01*
X74747664Y-103257065D01*
X74811739Y-103102376D01*
X74811740Y-103102374D01*
X74904762Y-102963156D01*
X75023156Y-102844762D01*
X75162374Y-102751740D01*
X75162376Y-102751739D01*
X75317065Y-102687664D01*
X75481281Y-102655000D01*
X75648719Y-102655000D01*
X75812935Y-102687664D01*
G37*
G36*
X119595000Y-104355000D02*
G01*
X117895000Y-104355000D01*
X117895000Y-102655000D01*
X119595000Y-102655000D01*
X119595000Y-104355000D01*
G37*
G36*
X73272935Y-102687664D02*
G01*
X73427624Y-102751739D01*
X73427626Y-102751740D01*
X73566844Y-102844762D01*
X73685238Y-102963156D01*
X73778260Y-103102374D01*
X73778261Y-103102376D01*
X73842336Y-103257065D01*
X73875000Y-103421281D01*
X73875000Y-103588719D01*
X73842336Y-103752935D01*
X73778261Y-103907624D01*
X73778260Y-103907626D01*
X73685238Y-104046844D01*
X73566844Y-104165238D01*
X73427626Y-104258260D01*
X73427625Y-104258261D01*
X73427624Y-104258261D01*
X73272935Y-104322336D01*
X73108719Y-104355000D01*
X72941281Y-104355000D01*
X72777065Y-104322336D01*
X72622376Y-104258261D01*
X72622375Y-104258261D01*
X72622374Y-104258260D01*
X72483156Y-104165238D01*
X72364762Y-104046844D01*
X72271740Y-103907626D01*
X72271739Y-103907624D01*
X72207664Y-103752935D01*
X72175000Y-103588719D01*
X72175000Y-103421281D01*
X72207664Y-103257065D01*
X72271739Y-103102376D01*
X72271740Y-103102374D01*
X72364762Y-102963156D01*
X72483156Y-102844762D01*
X72622374Y-102751740D01*
X72622376Y-102751739D01*
X72777065Y-102687664D01*
X72941281Y-102655000D01*
X73108719Y-102655000D01*
X73272935Y-102687664D01*
G37*
G36*
X83432935Y-102687664D02*
G01*
X83587624Y-102751739D01*
X83587626Y-102751740D01*
X83726844Y-102844762D01*
X83845238Y-102963156D01*
X83938260Y-103102374D01*
X83938261Y-103102376D01*
X84002336Y-103257065D01*
X84035000Y-103421281D01*
X84035000Y-103588719D01*
X84002336Y-103752935D01*
X83938261Y-103907624D01*
X83938260Y-103907626D01*
X83845238Y-104046844D01*
X83726844Y-104165238D01*
X83587626Y-104258260D01*
X83587625Y-104258261D01*
X83587624Y-104258261D01*
X83432935Y-104322336D01*
X83268719Y-104355000D01*
X83101281Y-104355000D01*
X82937065Y-104322336D01*
X82782376Y-104258261D01*
X82782375Y-104258261D01*
X82782374Y-104258260D01*
X82643156Y-104165238D01*
X82524762Y-104046844D01*
X82431740Y-103907626D01*
X82431739Y-103907624D01*
X82367664Y-103752935D01*
X82335000Y-103588719D01*
X82335000Y-103421281D01*
X82367664Y-103257065D01*
X82431739Y-103102376D01*
X82431740Y-103102374D01*
X82524762Y-102963156D01*
X82643156Y-102844762D01*
X82782374Y-102751740D01*
X82782376Y-102751739D01*
X82937065Y-102687664D01*
X83101281Y-102655000D01*
X83268719Y-102655000D01*
X83432935Y-102687664D01*
G37*
G36*
X70732935Y-102687664D02*
G01*
X70887624Y-102751739D01*
X70887626Y-102751740D01*
X71026844Y-102844762D01*
X71145238Y-102963156D01*
X71238260Y-103102374D01*
X71238261Y-103102376D01*
X71302336Y-103257065D01*
X71335000Y-103421281D01*
X71335000Y-103588719D01*
X71302336Y-103752935D01*
X71238261Y-103907624D01*
X71238260Y-103907626D01*
X71145238Y-104046844D01*
X71026844Y-104165238D01*
X70887626Y-104258260D01*
X70887625Y-104258261D01*
X70887624Y-104258261D01*
X70732935Y-104322336D01*
X70568719Y-104355000D01*
X70401281Y-104355000D01*
X70237065Y-104322336D01*
X70082376Y-104258261D01*
X70082375Y-104258261D01*
X70082374Y-104258260D01*
X69943156Y-104165238D01*
X69824762Y-104046844D01*
X69731740Y-103907626D01*
X69731739Y-103907624D01*
X69667664Y-103752935D01*
X69635000Y-103588719D01*
X69635000Y-103421281D01*
X69667664Y-103257065D01*
X69731739Y-103102376D01*
X69731740Y-103102374D01*
X69824762Y-102963156D01*
X69943156Y-102844762D01*
X70082374Y-102751740D01*
X70082376Y-102751739D01*
X70237065Y-102687664D01*
X70401281Y-102655000D01*
X70568719Y-102655000D01*
X70732935Y-102687664D01*
G37*
M02*
