M48
; DRILL file {KiCad 5.1.6-c6e7f7d~87~ubuntu18.04.1} date Wed Dec  2 03:09:40 2020
; FORMAT={-:-/ absolute / metric / decimal}
; #@! TF.CreationDate,2020-12-02T03:09:40+01:00
; #@! TF.GenerationSoftware,Kicad,Pcbnew,5.1.6-c6e7f7d~87~ubuntu18.04.1
; #@! TF.FileFunction,Plated,1,2,PTH
FMAT,2
METRIC
T1C0.400
T2C1.000
%
G90
G05
T1
X71.75Y-114.0
X72.3Y-115.5
X73.05Y-114.9
X73.1Y-122.3
X73.725Y-113.438
X74.3Y-114.0
X75.1Y-114.0
X75.6Y-108.5
X76.4Y-108.5
X76.511Y-121.695
X76.687Y-122.475
X90.525Y-115.463
X91.2Y-119.4
X91.325Y-118.61
X92.0Y-116.7
X98.592Y-109.892
X99.625Y-115.125
X100.8Y-112.8
X104.3Y-114.0
X104.5Y-112.7
X106.0Y-110.2
X110.0Y-110.4
X119.1Y-108.6
X138.5Y-120.7
X139.5Y-110.7
X141.1Y-116.7
X141.6Y-107.7
X141.9Y-125.6
X142.6Y-126.7
X145.4Y-124.0
X145.6Y-109.7
X146.4Y-127.8
X154.6Y-106.9
X156.9Y-108.6
X157.5Y-116.2
X163.1Y-108.6
X164.291Y-109.509
X164.6Y-107.1
X165.6Y-107.1
T2
X70.485Y-103.505
X70.485Y-106.045
X73.025Y-103.505
X73.025Y-106.045
X75.565Y-103.505
X75.565Y-106.045
X78.105Y-103.505
X78.105Y-106.045
X80.645Y-103.505
X80.645Y-106.045
X83.185Y-103.505
X83.185Y-106.045
X85.725Y-103.505
X85.725Y-106.045
X88.265Y-103.505
X88.265Y-106.045
X90.805Y-103.505
X90.805Y-106.045
X93.345Y-103.505
X93.345Y-106.045
X95.885Y-103.505
X95.885Y-106.045
X98.425Y-103.505
X98.425Y-106.045
X100.965Y-103.505
X100.965Y-106.045
X103.505Y-103.505
X103.505Y-106.045
X106.045Y-103.505
X106.045Y-106.045
X108.585Y-103.505
X108.585Y-106.045
X111.125Y-103.505
X111.125Y-106.045
X113.665Y-103.505
X113.665Y-106.045
X116.205Y-103.505
X116.205Y-106.045
X118.745Y-103.505
X118.745Y-106.045
X70.485Y-126.365
X70.485Y-128.905
X73.025Y-126.365
X73.025Y-128.905
X75.565Y-126.365
X75.565Y-128.905
X78.105Y-126.365
X78.105Y-128.905
X80.645Y-126.365
X80.645Y-128.905
X83.185Y-126.365
X83.185Y-128.905
X85.725Y-126.365
X85.725Y-128.905
X88.265Y-126.365
X88.265Y-128.905
X90.805Y-126.365
X90.805Y-128.905
X93.345Y-126.365
X93.345Y-128.905
X95.885Y-126.365
X95.885Y-128.905
X98.425Y-126.365
X98.425Y-128.905
X100.965Y-126.365
X100.965Y-128.905
X103.505Y-126.365
X103.505Y-128.905
X106.045Y-126.365
X106.045Y-128.905
X108.585Y-126.365
X108.585Y-128.905
X111.125Y-126.365
X111.125Y-128.905
X113.665Y-126.365
X113.665Y-128.905
X116.205Y-126.365
X116.205Y-128.905
X118.745Y-126.365
X118.745Y-128.905
T0
M30
