G04 #@! TF.GenerationSoftware,KiCad,Pcbnew,5.1.6-c6e7f7d~87~ubuntu18.04.1*
G04 #@! TF.CreationDate,2020-12-02T03:09:43+01:00*
G04 #@! TF.ProjectId,zynthian_zynaptik,7a796e74-6869-4616-9e5f-7a796e617074,1.0*
G04 #@! TF.SameCoordinates,Original*
G04 #@! TF.FileFunction,Legend,Top*
G04 #@! TF.FilePolarity,Positive*
%FSLAX46Y46*%
G04 Gerber Fmt 4.6, Leading zero omitted, Abs format (unit mm)*
G04 Created by KiCad (PCBNEW 5.1.6-c6e7f7d~87~ubuntu18.04.1) date 2020-12-02 03:09:43*
%MOMM*%
%LPD*%
G01*
G04 APERTURE LIST*
%ADD10C,0.150000*%
%ADD11C,0.120000*%
G04 APERTURE END LIST*
D10*
X152250000Y-122875000D02*
X152275000Y-122875000D01*
X152250000Y-118725000D02*
X152365000Y-118725000D01*
X161150000Y-118725000D02*
X161035000Y-118725000D01*
X161150000Y-122875000D02*
X161035000Y-122875000D01*
X152250000Y-122875000D02*
X152250000Y-118725000D01*
X161150000Y-122875000D02*
X161150000Y-118725000D01*
X152275000Y-122875000D02*
X152275000Y-124250000D01*
D11*
X138505000Y-127376422D02*
X138505000Y-127893578D01*
X137085000Y-127376422D02*
X137085000Y-127893578D01*
X79458578Y-109290000D02*
X78941422Y-109290000D01*
X79458578Y-110710000D02*
X78941422Y-110710000D01*
X133750000Y-110600000D02*
X133750000Y-108600000D01*
X133750000Y-108600000D02*
X129850000Y-108600000D01*
X133750000Y-110600000D02*
X129850000Y-110600000D01*
X137860000Y-104100000D02*
X137860000Y-105250000D01*
X137860000Y-105250000D02*
X138910000Y-105250000D01*
X138910000Y-105250000D02*
X138910000Y-106240000D01*
X144080000Y-104100000D02*
X144080000Y-105250000D01*
X144080000Y-105250000D02*
X143030000Y-105250000D01*
X139030000Y-102130000D02*
X142910000Y-102130000D01*
X151095000Y-102130000D02*
X154975000Y-102130000D01*
X156145000Y-105250000D02*
X155095000Y-105250000D01*
X156145000Y-104100000D02*
X156145000Y-105250000D01*
X150975000Y-105250000D02*
X150975000Y-106240000D01*
X149925000Y-105250000D02*
X150975000Y-105250000D01*
X149925000Y-104100000D02*
X149925000Y-105250000D01*
X161990000Y-104100000D02*
X161990000Y-105250000D01*
X161990000Y-105250000D02*
X163040000Y-105250000D01*
X163040000Y-105250000D02*
X163040000Y-106240000D01*
X168210000Y-104100000D02*
X168210000Y-105250000D01*
X168210000Y-105250000D02*
X167160000Y-105250000D01*
X163160000Y-102130000D02*
X167040000Y-102130000D01*
X144855000Y-127893578D02*
X144855000Y-127376422D01*
X143435000Y-127893578D02*
X143435000Y-127376422D01*
X144855000Y-110748578D02*
X144855000Y-110231422D01*
X143435000Y-110748578D02*
X143435000Y-110231422D01*
X137085000Y-110748578D02*
X137085000Y-110231422D01*
X138505000Y-110748578D02*
X138505000Y-110231422D01*
X120075000Y-102175000D02*
X120075000Y-103505000D01*
X118745000Y-102175000D02*
X120075000Y-102175000D01*
X120075000Y-104775000D02*
X120075000Y-107375000D01*
X117475000Y-104775000D02*
X120075000Y-104775000D01*
X117475000Y-102175000D02*
X117475000Y-104775000D01*
X120075000Y-107375000D02*
X69155000Y-107375000D01*
X117475000Y-102175000D02*
X69155000Y-102175000D01*
X69155000Y-102175000D02*
X69155000Y-107375000D01*
X69155000Y-125035000D02*
X69155000Y-130235000D01*
X117475000Y-125035000D02*
X69155000Y-125035000D01*
X120075000Y-130235000D02*
X69155000Y-130235000D01*
X117475000Y-125035000D02*
X117475000Y-127635000D01*
X117475000Y-127635000D02*
X120075000Y-127635000D01*
X120075000Y-127635000D02*
X120075000Y-130235000D01*
X118745000Y-125035000D02*
X120075000Y-125035000D01*
X120075000Y-125035000D02*
X120075000Y-126365000D01*
X152706000Y-110231422D02*
X152706000Y-110748578D01*
X154126000Y-110231422D02*
X154126000Y-110748578D01*
X149277000Y-110812078D02*
X149277000Y-110294922D01*
X150697000Y-110812078D02*
X150697000Y-110294922D01*
X156135000Y-110294922D02*
X156135000Y-110812078D01*
X157555000Y-110294922D02*
X157555000Y-110812078D01*
X166318000Y-110231422D02*
X166318000Y-110748578D01*
X164898000Y-110231422D02*
X164898000Y-110748578D01*
X162952500Y-110748578D02*
X162952500Y-110231422D01*
X161532500Y-110748578D02*
X161532500Y-110231422D01*
X169747000Y-110167922D02*
X169747000Y-110685078D01*
X168327000Y-110167922D02*
X168327000Y-110685078D01*
X149270500Y-115109500D02*
X149270500Y-113109500D01*
X152070500Y-115109500D02*
X149270500Y-115109500D01*
X152070500Y-113109500D02*
X152070500Y-115109500D01*
X149270500Y-113109500D02*
X152070500Y-113109500D01*
X161541000Y-113173000D02*
X164341000Y-113173000D01*
X164341000Y-113173000D02*
X164341000Y-115173000D01*
X164341000Y-115173000D02*
X161541000Y-115173000D01*
X161541000Y-115173000D02*
X161541000Y-113173000D01*
X114210000Y-115141422D02*
X114210000Y-115658578D01*
X112790000Y-115141422D02*
X112790000Y-115658578D01*
X89941422Y-121410000D02*
X90458578Y-121410000D01*
X89941422Y-119990000D02*
X90458578Y-119990000D01*
X104558578Y-117710000D02*
X104041422Y-117710000D01*
X104558578Y-116290000D02*
X104041422Y-116290000D01*
X140120000Y-129135000D02*
X141820000Y-129135000D01*
X141820000Y-129135000D02*
X141820000Y-126585000D01*
X140120000Y-129135000D02*
X140120000Y-126585000D01*
X113058578Y-111990000D02*
X112541422Y-111990000D01*
X113058578Y-113410000D02*
X112541422Y-113410000D01*
X112541422Y-117390000D02*
X113058578Y-117390000D01*
X112541422Y-118810000D02*
X113058578Y-118810000D01*
X86190000Y-118024721D02*
X86190000Y-118350279D01*
X87210000Y-118024721D02*
X87210000Y-118350279D01*
X86190000Y-114337221D02*
X86190000Y-114662779D01*
X87210000Y-114337221D02*
X87210000Y-114662779D01*
X106690000Y-111250279D02*
X106690000Y-110924721D01*
X107710000Y-111250279D02*
X107710000Y-110924721D01*
X108390000Y-111250279D02*
X108390000Y-110924721D01*
X109410000Y-111250279D02*
X109410000Y-110924721D01*
X100437221Y-110290000D02*
X100762779Y-110290000D01*
X100437221Y-111310000D02*
X100762779Y-111310000D01*
X91510000Y-115900000D02*
X91510000Y-114400000D01*
X91510000Y-115900000D02*
X91510000Y-117400000D01*
X88290000Y-115900000D02*
X88290000Y-114400000D01*
X88290000Y-115900000D02*
X88290000Y-118825000D01*
D10*
X100775000Y-114225000D02*
X100550000Y-114225000D01*
X100775000Y-117575000D02*
X100475000Y-117575000D01*
X97425000Y-117575000D02*
X97725000Y-117575000D01*
X97425000Y-114225000D02*
X97725000Y-114225000D01*
X100775000Y-114225000D02*
X100775000Y-117575000D01*
X97425000Y-114225000D02*
X97425000Y-117575000D01*
X100550000Y-114225000D02*
X100550000Y-113000000D01*
X69375000Y-118775000D02*
X69950000Y-118775000D01*
X69375000Y-113025000D02*
X70025000Y-113025000D01*
X80025000Y-113025000D02*
X79375000Y-113025000D01*
X80025000Y-118775000D02*
X79375000Y-118775000D01*
X69375000Y-118775000D02*
X69375000Y-113025000D01*
X80025000Y-118775000D02*
X80025000Y-113025000D01*
X69950000Y-118775000D02*
X69950000Y-120375000D01*
D11*
X102700000Y-115035000D02*
X106610000Y-115035000D01*
X106610000Y-115035000D02*
X106610000Y-113165000D01*
X106610000Y-113165000D02*
X102700000Y-113165000D01*
X123910000Y-104237221D02*
X123910000Y-104562779D01*
X122890000Y-104237221D02*
X122890000Y-104562779D01*
X144900000Y-124980000D02*
X144900000Y-112510000D01*
X137040000Y-124980000D02*
X144900000Y-124980000D01*
X137040000Y-112510000D02*
X137040000Y-124980000D01*
X144900000Y-112510000D02*
X137040000Y-112510000D01*
X144840000Y-121280000D02*
X144840000Y-119745000D01*
X137100000Y-121280000D02*
X144840000Y-121280000D01*
X137100000Y-116210000D02*
X137100000Y-121280000D01*
X144840000Y-116210000D02*
X137100000Y-116210000D01*
X144840000Y-117745000D02*
X144840000Y-116210000D01*
X144840000Y-119745000D02*
G75*
G02*
X144840000Y-117745000I0J1000000D01*
G01*
D10*
X154457142Y-125252380D02*
X155123809Y-125252380D01*
X154695238Y-126252380D01*
X155933333Y-125585714D02*
X155933333Y-126252380D01*
X155695238Y-125204761D02*
X155457142Y-125919047D01*
X156076190Y-125919047D01*
X156933333Y-126252380D02*
X156457142Y-126252380D01*
X156457142Y-125252380D01*
X157219047Y-126204761D02*
X157361904Y-126252380D01*
X157600000Y-126252380D01*
X157695238Y-126204761D01*
X157742857Y-126157142D01*
X157790476Y-126061904D01*
X157790476Y-125966666D01*
X157742857Y-125871428D01*
X157695238Y-125823809D01*
X157600000Y-125776190D01*
X157409523Y-125728571D01*
X157314285Y-125680952D01*
X157266666Y-125633333D01*
X157219047Y-125538095D01*
X157219047Y-125442857D01*
X157266666Y-125347619D01*
X157314285Y-125300000D01*
X157409523Y-125252380D01*
X157647619Y-125252380D01*
X157790476Y-125300000D01*
X158742857Y-126252380D02*
X158171428Y-126252380D01*
X158457142Y-126252380D02*
X158457142Y-125252380D01*
X158361904Y-125395238D01*
X158266666Y-125490476D01*
X158171428Y-125538095D01*
X159600000Y-125585714D02*
X159600000Y-126252380D01*
X159361904Y-125204761D02*
X159123809Y-125919047D01*
X159742857Y-125919047D01*
X137633333Y-130457142D02*
X137585714Y-130504761D01*
X137442857Y-130552380D01*
X137347619Y-130552380D01*
X137204761Y-130504761D01*
X137109523Y-130409523D01*
X137061904Y-130314285D01*
X137014285Y-130123809D01*
X137014285Y-129980952D01*
X137061904Y-129790476D01*
X137109523Y-129695238D01*
X137204761Y-129600000D01*
X137347619Y-129552380D01*
X137442857Y-129552380D01*
X137585714Y-129600000D01*
X137633333Y-129647619D01*
X138585714Y-130552380D02*
X138014285Y-130552380D01*
X138300000Y-130552380D02*
X138300000Y-129552380D01*
X138204761Y-129695238D01*
X138109523Y-129790476D01*
X138014285Y-129838095D01*
X76233333Y-110357142D02*
X76185714Y-110404761D01*
X76042857Y-110452380D01*
X75947619Y-110452380D01*
X75804761Y-110404761D01*
X75709523Y-110309523D01*
X75661904Y-110214285D01*
X75614285Y-110023809D01*
X75614285Y-109880952D01*
X75661904Y-109690476D01*
X75709523Y-109595238D01*
X75804761Y-109500000D01*
X75947619Y-109452380D01*
X76042857Y-109452380D01*
X76185714Y-109500000D01*
X76233333Y-109547619D01*
X77090476Y-109785714D02*
X77090476Y-110452380D01*
X76852380Y-109404761D02*
X76614285Y-110119047D01*
X77233333Y-110119047D01*
X130861904Y-112052380D02*
X130861904Y-111052380D01*
X131100000Y-111052380D01*
X131242857Y-111100000D01*
X131338095Y-111195238D01*
X131385714Y-111290476D01*
X131433333Y-111480952D01*
X131433333Y-111623809D01*
X131385714Y-111814285D01*
X131338095Y-111909523D01*
X131242857Y-112004761D01*
X131100000Y-112052380D01*
X130861904Y-112052380D01*
X131814285Y-111147619D02*
X131861904Y-111100000D01*
X131957142Y-111052380D01*
X132195238Y-111052380D01*
X132290476Y-111100000D01*
X132338095Y-111147619D01*
X132385714Y-111242857D01*
X132385714Y-111338095D01*
X132338095Y-111480952D01*
X131766666Y-112052380D01*
X132385714Y-112052380D01*
X138279523Y-107892380D02*
X138279523Y-106892380D01*
X138612857Y-107606666D01*
X138946190Y-106892380D01*
X138946190Y-107892380D01*
X139422380Y-107892380D02*
X139422380Y-106892380D01*
X139898571Y-107892380D02*
X139898571Y-106892380D01*
X140136666Y-106892380D01*
X140279523Y-106940000D01*
X140374761Y-107035238D01*
X140422380Y-107130476D01*
X140470000Y-107320952D01*
X140470000Y-107463809D01*
X140422380Y-107654285D01*
X140374761Y-107749523D01*
X140279523Y-107844761D01*
X140136666Y-107892380D01*
X139898571Y-107892380D01*
X140898571Y-107892380D02*
X140898571Y-106892380D01*
X141374761Y-107511428D02*
X142136666Y-107511428D01*
X142612857Y-107892380D02*
X142612857Y-106892380D01*
X143089047Y-107892380D02*
X143089047Y-106892380D01*
X143660476Y-107892380D01*
X143660476Y-106892380D01*
X149177857Y-107892380D02*
X149177857Y-106892380D01*
X149511190Y-107606666D01*
X149844523Y-106892380D01*
X149844523Y-107892380D01*
X150320714Y-107892380D02*
X150320714Y-106892380D01*
X150796904Y-107892380D02*
X150796904Y-106892380D01*
X151035000Y-106892380D01*
X151177857Y-106940000D01*
X151273095Y-107035238D01*
X151320714Y-107130476D01*
X151368333Y-107320952D01*
X151368333Y-107463809D01*
X151320714Y-107654285D01*
X151273095Y-107749523D01*
X151177857Y-107844761D01*
X151035000Y-107892380D01*
X150796904Y-107892380D01*
X151796904Y-107892380D02*
X151796904Y-106892380D01*
X152273095Y-107511428D02*
X153035000Y-107511428D01*
X153368333Y-106892380D02*
X153939761Y-106892380D01*
X153654047Y-107892380D02*
X153654047Y-106892380D01*
X154273095Y-107892380D02*
X154273095Y-106892380D01*
X154273095Y-107368571D02*
X154844523Y-107368571D01*
X154844523Y-107892380D02*
X154844523Y-106892380D01*
X155892142Y-107892380D02*
X155558809Y-107416190D01*
X155320714Y-107892380D02*
X155320714Y-106892380D01*
X155701666Y-106892380D01*
X155796904Y-106940000D01*
X155844523Y-106987619D01*
X155892142Y-107082857D01*
X155892142Y-107225714D01*
X155844523Y-107320952D01*
X155796904Y-107368571D01*
X155701666Y-107416190D01*
X155320714Y-107416190D01*
X156320714Y-106892380D02*
X156320714Y-107701904D01*
X156368333Y-107797142D01*
X156415952Y-107844761D01*
X156511190Y-107892380D01*
X156701666Y-107892380D01*
X156796904Y-107844761D01*
X156844523Y-107797142D01*
X156892142Y-107701904D01*
X156892142Y-106892380D01*
X161742857Y-107892380D02*
X161742857Y-106892380D01*
X162076190Y-107606666D01*
X162409523Y-106892380D01*
X162409523Y-107892380D01*
X162885714Y-107892380D02*
X162885714Y-106892380D01*
X163361904Y-107892380D02*
X163361904Y-106892380D01*
X163600000Y-106892380D01*
X163742857Y-106940000D01*
X163838095Y-107035238D01*
X163885714Y-107130476D01*
X163933333Y-107320952D01*
X163933333Y-107463809D01*
X163885714Y-107654285D01*
X163838095Y-107749523D01*
X163742857Y-107844761D01*
X163600000Y-107892380D01*
X163361904Y-107892380D01*
X164361904Y-107892380D02*
X164361904Y-106892380D01*
X164838095Y-107511428D02*
X165600000Y-107511428D01*
X166266666Y-106892380D02*
X166457142Y-106892380D01*
X166552380Y-106940000D01*
X166647619Y-107035238D01*
X166695238Y-107225714D01*
X166695238Y-107559047D01*
X166647619Y-107749523D01*
X166552380Y-107844761D01*
X166457142Y-107892380D01*
X166266666Y-107892380D01*
X166171428Y-107844761D01*
X166076190Y-107749523D01*
X166028571Y-107559047D01*
X166028571Y-107225714D01*
X166076190Y-107035238D01*
X166171428Y-106940000D01*
X166266666Y-106892380D01*
X167123809Y-106892380D02*
X167123809Y-107701904D01*
X167171428Y-107797142D01*
X167219047Y-107844761D01*
X167314285Y-107892380D01*
X167504761Y-107892380D01*
X167600000Y-107844761D01*
X167647619Y-107797142D01*
X167695238Y-107701904D01*
X167695238Y-106892380D01*
X168028571Y-106892380D02*
X168600000Y-106892380D01*
X168314285Y-107892380D02*
X168314285Y-106892380D01*
X144133333Y-130552380D02*
X143800000Y-130076190D01*
X143561904Y-130552380D02*
X143561904Y-129552380D01*
X143942857Y-129552380D01*
X144038095Y-129600000D01*
X144085714Y-129647619D01*
X144133333Y-129742857D01*
X144133333Y-129885714D01*
X144085714Y-129980952D01*
X144038095Y-130028571D01*
X143942857Y-130076190D01*
X143561904Y-130076190D01*
X145085714Y-130552380D02*
X144514285Y-130552380D01*
X144800000Y-130552380D02*
X144800000Y-129552380D01*
X144704761Y-129695238D01*
X144609523Y-129790476D01*
X144514285Y-129838095D01*
X142947380Y-110656666D02*
X142471190Y-110990000D01*
X142947380Y-111228095D02*
X141947380Y-111228095D01*
X141947380Y-110847142D01*
X141995000Y-110751904D01*
X142042619Y-110704285D01*
X142137857Y-110656666D01*
X142280714Y-110656666D01*
X142375952Y-110704285D01*
X142423571Y-110751904D01*
X142471190Y-110847142D01*
X142471190Y-111228095D01*
X142042619Y-110275714D02*
X141995000Y-110228095D01*
X141947380Y-110132857D01*
X141947380Y-109894761D01*
X141995000Y-109799523D01*
X142042619Y-109751904D01*
X142137857Y-109704285D01*
X142233095Y-109704285D01*
X142375952Y-109751904D01*
X142947380Y-110323333D01*
X142947380Y-109704285D01*
X136597380Y-110656666D02*
X136121190Y-110990000D01*
X136597380Y-111228095D02*
X135597380Y-111228095D01*
X135597380Y-110847142D01*
X135645000Y-110751904D01*
X135692619Y-110704285D01*
X135787857Y-110656666D01*
X135930714Y-110656666D01*
X136025952Y-110704285D01*
X136073571Y-110751904D01*
X136121190Y-110847142D01*
X136121190Y-111228095D01*
X135597380Y-110323333D02*
X135597380Y-109704285D01*
X135978333Y-110037619D01*
X135978333Y-109894761D01*
X136025952Y-109799523D01*
X136073571Y-109751904D01*
X136168809Y-109704285D01*
X136406904Y-109704285D01*
X136502142Y-109751904D01*
X136549761Y-109799523D01*
X136597380Y-109894761D01*
X136597380Y-110180476D01*
X136549761Y-110275714D01*
X136502142Y-110323333D01*
X118071428Y-109252380D02*
X117738095Y-108776190D01*
X117500000Y-109252380D02*
X117500000Y-108252380D01*
X117880952Y-108252380D01*
X117976190Y-108300000D01*
X118023809Y-108347619D01*
X118071428Y-108442857D01*
X118071428Y-108585714D01*
X118023809Y-108680952D01*
X117976190Y-108728571D01*
X117880952Y-108776190D01*
X117500000Y-108776190D01*
X118833333Y-108728571D02*
X118976190Y-108776190D01*
X119023809Y-108823809D01*
X119071428Y-108919047D01*
X119071428Y-109061904D01*
X119023809Y-109157142D01*
X118976190Y-109204761D01*
X118880952Y-109252380D01*
X118500000Y-109252380D01*
X118500000Y-108252380D01*
X118833333Y-108252380D01*
X118928571Y-108300000D01*
X118976190Y-108347619D01*
X119023809Y-108442857D01*
X119023809Y-108538095D01*
X118976190Y-108633333D01*
X118928571Y-108680952D01*
X118833333Y-108728571D01*
X118500000Y-108728571D01*
X119500000Y-109252380D02*
X119500000Y-108252380D01*
X119880952Y-108252380D01*
X119976190Y-108300000D01*
X120023809Y-108347619D01*
X120071428Y-108442857D01*
X120071428Y-108585714D01*
X120023809Y-108680952D01*
X119976190Y-108728571D01*
X119880952Y-108776190D01*
X119500000Y-108776190D01*
X120500000Y-109252380D02*
X120500000Y-108585714D01*
X120500000Y-108252380D02*
X120452380Y-108300000D01*
X120500000Y-108347619D01*
X120547619Y-108300000D01*
X120500000Y-108252380D01*
X120500000Y-108347619D01*
X114500000Y-122952380D02*
X115166666Y-122952380D01*
X114500000Y-123952380D01*
X115166666Y-123952380D01*
X115452380Y-123285714D02*
X115690476Y-123952380D01*
X115928571Y-123285714D02*
X115690476Y-123952380D01*
X115595238Y-124190476D01*
X115547619Y-124238095D01*
X115452380Y-124285714D01*
X116309523Y-123285714D02*
X116309523Y-123952380D01*
X116309523Y-123380952D02*
X116357142Y-123333333D01*
X116452380Y-123285714D01*
X116595238Y-123285714D01*
X116690476Y-123333333D01*
X116738095Y-123428571D01*
X116738095Y-123952380D01*
X117642857Y-123952380D02*
X117642857Y-123428571D01*
X117595238Y-123333333D01*
X117500000Y-123285714D01*
X117309523Y-123285714D01*
X117214285Y-123333333D01*
X117642857Y-123904761D02*
X117547619Y-123952380D01*
X117309523Y-123952380D01*
X117214285Y-123904761D01*
X117166666Y-123809523D01*
X117166666Y-123714285D01*
X117214285Y-123619047D01*
X117309523Y-123571428D01*
X117547619Y-123571428D01*
X117642857Y-123523809D01*
X118119047Y-123285714D02*
X118119047Y-124285714D01*
X118119047Y-123333333D02*
X118214285Y-123285714D01*
X118404761Y-123285714D01*
X118500000Y-123333333D01*
X118547619Y-123380952D01*
X118595238Y-123476190D01*
X118595238Y-123761904D01*
X118547619Y-123857142D01*
X118500000Y-123904761D01*
X118404761Y-123952380D01*
X118214285Y-123952380D01*
X118119047Y-123904761D01*
X118880952Y-123285714D02*
X119261904Y-123285714D01*
X119023809Y-122952380D02*
X119023809Y-123809523D01*
X119071428Y-123904761D01*
X119166666Y-123952380D01*
X119261904Y-123952380D01*
X119595238Y-123952380D02*
X119595238Y-123285714D01*
X119595238Y-122952380D02*
X119547619Y-123000000D01*
X119595238Y-123047619D01*
X119642857Y-123000000D01*
X119595238Y-122952380D01*
X119595238Y-123047619D01*
X120071428Y-123952380D02*
X120071428Y-122952380D01*
X120166666Y-123571428D02*
X120452380Y-123952380D01*
X120452380Y-123285714D02*
X120071428Y-123666666D01*
X152344380Y-110720166D02*
X151868190Y-111053500D01*
X152344380Y-111291595D02*
X151344380Y-111291595D01*
X151344380Y-110910642D01*
X151392000Y-110815404D01*
X151439619Y-110767785D01*
X151534857Y-110720166D01*
X151677714Y-110720166D01*
X151772952Y-110767785D01*
X151820571Y-110815404D01*
X151868190Y-110910642D01*
X151868190Y-111291595D01*
X151677714Y-109863023D02*
X152344380Y-109863023D01*
X151296761Y-110101119D02*
X152011047Y-110339214D01*
X152011047Y-109720166D01*
X148789380Y-110720166D02*
X148313190Y-111053500D01*
X148789380Y-111291595D02*
X147789380Y-111291595D01*
X147789380Y-110910642D01*
X147837000Y-110815404D01*
X147884619Y-110767785D01*
X147979857Y-110720166D01*
X148122714Y-110720166D01*
X148217952Y-110767785D01*
X148265571Y-110815404D01*
X148313190Y-110910642D01*
X148313190Y-111291595D01*
X147789380Y-109815404D02*
X147789380Y-110291595D01*
X148265571Y-110339214D01*
X148217952Y-110291595D01*
X148170333Y-110196357D01*
X148170333Y-109958261D01*
X148217952Y-109863023D01*
X148265571Y-109815404D01*
X148360809Y-109767785D01*
X148598904Y-109767785D01*
X148694142Y-109815404D01*
X148741761Y-109863023D01*
X148789380Y-109958261D01*
X148789380Y-110196357D01*
X148741761Y-110291595D01*
X148694142Y-110339214D01*
X155773380Y-110720166D02*
X155297190Y-111053500D01*
X155773380Y-111291595D02*
X154773380Y-111291595D01*
X154773380Y-110910642D01*
X154821000Y-110815404D01*
X154868619Y-110767785D01*
X154963857Y-110720166D01*
X155106714Y-110720166D01*
X155201952Y-110767785D01*
X155249571Y-110815404D01*
X155297190Y-110910642D01*
X155297190Y-111291595D01*
X154773380Y-109863023D02*
X154773380Y-110053500D01*
X154821000Y-110148738D01*
X154868619Y-110196357D01*
X155011476Y-110291595D01*
X155201952Y-110339214D01*
X155582904Y-110339214D01*
X155678142Y-110291595D01*
X155725761Y-110243976D01*
X155773380Y-110148738D01*
X155773380Y-109958261D01*
X155725761Y-109863023D01*
X155678142Y-109815404D01*
X155582904Y-109767785D01*
X155344809Y-109767785D01*
X155249571Y-109815404D01*
X155201952Y-109863023D01*
X155154333Y-109958261D01*
X155154333Y-110148738D01*
X155201952Y-110243976D01*
X155249571Y-110291595D01*
X155344809Y-110339214D01*
X164472880Y-110656666D02*
X163996690Y-110990000D01*
X164472880Y-111228095D02*
X163472880Y-111228095D01*
X163472880Y-110847142D01*
X163520500Y-110751904D01*
X163568119Y-110704285D01*
X163663357Y-110656666D01*
X163806214Y-110656666D01*
X163901452Y-110704285D01*
X163949071Y-110751904D01*
X163996690Y-110847142D01*
X163996690Y-111228095D01*
X163472880Y-110323333D02*
X163472880Y-109656666D01*
X164472880Y-110085238D01*
X161044880Y-110656666D02*
X160568690Y-110990000D01*
X161044880Y-111228095D02*
X160044880Y-111228095D01*
X160044880Y-110847142D01*
X160092500Y-110751904D01*
X160140119Y-110704285D01*
X160235357Y-110656666D01*
X160378214Y-110656666D01*
X160473452Y-110704285D01*
X160521071Y-110751904D01*
X160568690Y-110847142D01*
X160568690Y-111228095D01*
X160473452Y-110085238D02*
X160425833Y-110180476D01*
X160378214Y-110228095D01*
X160282976Y-110275714D01*
X160235357Y-110275714D01*
X160140119Y-110228095D01*
X160092500Y-110180476D01*
X160044880Y-110085238D01*
X160044880Y-109894761D01*
X160092500Y-109799523D01*
X160140119Y-109751904D01*
X160235357Y-109704285D01*
X160282976Y-109704285D01*
X160378214Y-109751904D01*
X160425833Y-109799523D01*
X160473452Y-109894761D01*
X160473452Y-110085238D01*
X160521071Y-110180476D01*
X160568690Y-110228095D01*
X160663928Y-110275714D01*
X160854404Y-110275714D01*
X160949642Y-110228095D01*
X160997261Y-110180476D01*
X161044880Y-110085238D01*
X161044880Y-109894761D01*
X160997261Y-109799523D01*
X160949642Y-109751904D01*
X160854404Y-109704285D01*
X160663928Y-109704285D01*
X160568690Y-109751904D01*
X160521071Y-109799523D01*
X160473452Y-109894761D01*
X167901880Y-110720166D02*
X167425690Y-111053500D01*
X167901880Y-111291595D02*
X166901880Y-111291595D01*
X166901880Y-110910642D01*
X166949500Y-110815404D01*
X166997119Y-110767785D01*
X167092357Y-110720166D01*
X167235214Y-110720166D01*
X167330452Y-110767785D01*
X167378071Y-110815404D01*
X167425690Y-110910642D01*
X167425690Y-111291595D01*
X167901880Y-110243976D02*
X167901880Y-110053500D01*
X167854261Y-109958261D01*
X167806642Y-109910642D01*
X167663785Y-109815404D01*
X167473309Y-109767785D01*
X167092357Y-109767785D01*
X166997119Y-109815404D01*
X166949500Y-109863023D01*
X166901880Y-109958261D01*
X166901880Y-110148738D01*
X166949500Y-110243976D01*
X166997119Y-110291595D01*
X167092357Y-110339214D01*
X167330452Y-110339214D01*
X167425690Y-110291595D01*
X167473309Y-110243976D01*
X167520928Y-110148738D01*
X167520928Y-109958261D01*
X167473309Y-109863023D01*
X167425690Y-109815404D01*
X167330452Y-109767785D01*
X149979166Y-115657380D02*
X149979166Y-116371666D01*
X149931547Y-116514523D01*
X149836309Y-116609761D01*
X149693452Y-116657380D01*
X149598214Y-116657380D01*
X150455357Y-116657380D02*
X150455357Y-115657380D01*
X150836309Y-115657380D01*
X150931547Y-115705000D01*
X150979166Y-115752619D01*
X151026785Y-115847857D01*
X151026785Y-115990714D01*
X150979166Y-116085952D01*
X150931547Y-116133571D01*
X150836309Y-116181190D01*
X150455357Y-116181190D01*
X151979166Y-116657380D02*
X151407738Y-116657380D01*
X151693452Y-116657380D02*
X151693452Y-115657380D01*
X151598214Y-115800238D01*
X151502976Y-115895476D01*
X151407738Y-115943095D01*
X162107666Y-115657380D02*
X162107666Y-116371666D01*
X162060047Y-116514523D01*
X161964809Y-116609761D01*
X161821952Y-116657380D01*
X161726714Y-116657380D01*
X162583857Y-116657380D02*
X162583857Y-115657380D01*
X162964809Y-115657380D01*
X163060047Y-115705000D01*
X163107666Y-115752619D01*
X163155285Y-115847857D01*
X163155285Y-115990714D01*
X163107666Y-116085952D01*
X163060047Y-116133571D01*
X162964809Y-116181190D01*
X162583857Y-116181190D01*
X163536238Y-115752619D02*
X163583857Y-115705000D01*
X163679095Y-115657380D01*
X163917190Y-115657380D01*
X164012428Y-115705000D01*
X164060047Y-115752619D01*
X164107666Y-115847857D01*
X164107666Y-115943095D01*
X164060047Y-116085952D01*
X163488619Y-116657380D01*
X164107666Y-116657380D01*
X115333333Y-115557142D02*
X115285714Y-115604761D01*
X115142857Y-115652380D01*
X115047619Y-115652380D01*
X114904761Y-115604761D01*
X114809523Y-115509523D01*
X114761904Y-115414285D01*
X114714285Y-115223809D01*
X114714285Y-115080952D01*
X114761904Y-114890476D01*
X114809523Y-114795238D01*
X114904761Y-114700000D01*
X115047619Y-114652380D01*
X115142857Y-114652380D01*
X115285714Y-114700000D01*
X115333333Y-114747619D01*
X115714285Y-114747619D02*
X115761904Y-114700000D01*
X115857142Y-114652380D01*
X116095238Y-114652380D01*
X116190476Y-114700000D01*
X116238095Y-114747619D01*
X116285714Y-114842857D01*
X116285714Y-114938095D01*
X116238095Y-115080952D01*
X115666666Y-115652380D01*
X116285714Y-115652380D01*
X87233333Y-121157142D02*
X87185714Y-121204761D01*
X87042857Y-121252380D01*
X86947619Y-121252380D01*
X86804761Y-121204761D01*
X86709523Y-121109523D01*
X86661904Y-121014285D01*
X86614285Y-120823809D01*
X86614285Y-120680952D01*
X86661904Y-120490476D01*
X86709523Y-120395238D01*
X86804761Y-120300000D01*
X86947619Y-120252380D01*
X87042857Y-120252380D01*
X87185714Y-120300000D01*
X87233333Y-120347619D01*
X87566666Y-120252380D02*
X88185714Y-120252380D01*
X87852380Y-120633333D01*
X87995238Y-120633333D01*
X88090476Y-120680952D01*
X88138095Y-120728571D01*
X88185714Y-120823809D01*
X88185714Y-121061904D01*
X88138095Y-121157142D01*
X88090476Y-121204761D01*
X87995238Y-121252380D01*
X87709523Y-121252380D01*
X87614285Y-121204761D01*
X87566666Y-121157142D01*
X106933333Y-117257142D02*
X106885714Y-117304761D01*
X106742857Y-117352380D01*
X106647619Y-117352380D01*
X106504761Y-117304761D01*
X106409523Y-117209523D01*
X106361904Y-117114285D01*
X106314285Y-116923809D01*
X106314285Y-116780952D01*
X106361904Y-116590476D01*
X106409523Y-116495238D01*
X106504761Y-116400000D01*
X106647619Y-116352380D01*
X106742857Y-116352380D01*
X106885714Y-116400000D01*
X106933333Y-116447619D01*
X107790476Y-116352380D02*
X107600000Y-116352380D01*
X107504761Y-116400000D01*
X107457142Y-116447619D01*
X107361904Y-116590476D01*
X107314285Y-116780952D01*
X107314285Y-117161904D01*
X107361904Y-117257142D01*
X107409523Y-117304761D01*
X107504761Y-117352380D01*
X107695238Y-117352380D01*
X107790476Y-117304761D01*
X107838095Y-117257142D01*
X107885714Y-117161904D01*
X107885714Y-116923809D01*
X107838095Y-116828571D01*
X107790476Y-116780952D01*
X107695238Y-116733333D01*
X107504761Y-116733333D01*
X107409523Y-116780952D01*
X107361904Y-116828571D01*
X107314285Y-116923809D01*
X140361904Y-130552380D02*
X140361904Y-129552380D01*
X140600000Y-129552380D01*
X140742857Y-129600000D01*
X140838095Y-129695238D01*
X140885714Y-129790476D01*
X140933333Y-129980952D01*
X140933333Y-130123809D01*
X140885714Y-130314285D01*
X140838095Y-130409523D01*
X140742857Y-130504761D01*
X140600000Y-130552380D01*
X140361904Y-130552380D01*
X141885714Y-130552380D02*
X141314285Y-130552380D01*
X141600000Y-130552380D02*
X141600000Y-129552380D01*
X141504761Y-129695238D01*
X141409523Y-129790476D01*
X141314285Y-129838095D01*
X115066666Y-112628571D02*
X114733333Y-112628571D01*
X114733333Y-113152380D02*
X114733333Y-112152380D01*
X115209523Y-112152380D01*
X115923809Y-112628571D02*
X116066666Y-112676190D01*
X116114285Y-112723809D01*
X116161904Y-112819047D01*
X116161904Y-112961904D01*
X116114285Y-113057142D01*
X116066666Y-113104761D01*
X115971428Y-113152380D01*
X115590476Y-113152380D01*
X115590476Y-112152380D01*
X115923809Y-112152380D01*
X116019047Y-112200000D01*
X116066666Y-112247619D01*
X116114285Y-112342857D01*
X116114285Y-112438095D01*
X116066666Y-112533333D01*
X116019047Y-112580952D01*
X115923809Y-112628571D01*
X115590476Y-112628571D01*
X117114285Y-113152380D02*
X116542857Y-113152380D01*
X116828571Y-113152380D02*
X116828571Y-112152380D01*
X116733333Y-112295238D01*
X116638095Y-112390476D01*
X116542857Y-112438095D01*
X115066666Y-118028571D02*
X114733333Y-118028571D01*
X114733333Y-118552380D02*
X114733333Y-117552380D01*
X115209523Y-117552380D01*
X115923809Y-118028571D02*
X116066666Y-118076190D01*
X116114285Y-118123809D01*
X116161904Y-118219047D01*
X116161904Y-118361904D01*
X116114285Y-118457142D01*
X116066666Y-118504761D01*
X115971428Y-118552380D01*
X115590476Y-118552380D01*
X115590476Y-117552380D01*
X115923809Y-117552380D01*
X116019047Y-117600000D01*
X116066666Y-117647619D01*
X116114285Y-117742857D01*
X116114285Y-117838095D01*
X116066666Y-117933333D01*
X116019047Y-117980952D01*
X115923809Y-118028571D01*
X115590476Y-118028571D01*
X116542857Y-117647619D02*
X116590476Y-117600000D01*
X116685714Y-117552380D01*
X116923809Y-117552380D01*
X117019047Y-117600000D01*
X117066666Y-117647619D01*
X117114285Y-117742857D01*
X117114285Y-117838095D01*
X117066666Y-117980952D01*
X116495238Y-118552380D01*
X117114285Y-118552380D01*
X83857142Y-118652380D02*
X83523809Y-118176190D01*
X83285714Y-118652380D02*
X83285714Y-117652380D01*
X83666666Y-117652380D01*
X83761904Y-117700000D01*
X83809523Y-117747619D01*
X83857142Y-117842857D01*
X83857142Y-117985714D01*
X83809523Y-118080952D01*
X83761904Y-118128571D01*
X83666666Y-118176190D01*
X83285714Y-118176190D01*
X84809523Y-118652380D02*
X84238095Y-118652380D01*
X84523809Y-118652380D02*
X84523809Y-117652380D01*
X84428571Y-117795238D01*
X84333333Y-117890476D01*
X84238095Y-117938095D01*
X85761904Y-118652380D02*
X85190476Y-118652380D01*
X85476190Y-118652380D02*
X85476190Y-117652380D01*
X85380952Y-117795238D01*
X85285714Y-117890476D01*
X85190476Y-117938095D01*
X83757142Y-114852380D02*
X83423809Y-114376190D01*
X83185714Y-114852380D02*
X83185714Y-113852380D01*
X83566666Y-113852380D01*
X83661904Y-113900000D01*
X83709523Y-113947619D01*
X83757142Y-114042857D01*
X83757142Y-114185714D01*
X83709523Y-114280952D01*
X83661904Y-114328571D01*
X83566666Y-114376190D01*
X83185714Y-114376190D01*
X84709523Y-114852380D02*
X84138095Y-114852380D01*
X84423809Y-114852380D02*
X84423809Y-113852380D01*
X84328571Y-113995238D01*
X84233333Y-114090476D01*
X84138095Y-114138095D01*
X85090476Y-113947619D02*
X85138095Y-113900000D01*
X85233333Y-113852380D01*
X85471428Y-113852380D01*
X85566666Y-113900000D01*
X85614285Y-113947619D01*
X85661904Y-114042857D01*
X85661904Y-114138095D01*
X85614285Y-114280952D01*
X85042857Y-114852380D01*
X85661904Y-114852380D01*
X104257142Y-111452380D02*
X103923809Y-110976190D01*
X103685714Y-111452380D02*
X103685714Y-110452380D01*
X104066666Y-110452380D01*
X104161904Y-110500000D01*
X104209523Y-110547619D01*
X104257142Y-110642857D01*
X104257142Y-110785714D01*
X104209523Y-110880952D01*
X104161904Y-110928571D01*
X104066666Y-110976190D01*
X103685714Y-110976190D01*
X105209523Y-111452380D02*
X104638095Y-111452380D01*
X104923809Y-111452380D02*
X104923809Y-110452380D01*
X104828571Y-110595238D01*
X104733333Y-110690476D01*
X104638095Y-110738095D01*
X105542857Y-110452380D02*
X106161904Y-110452380D01*
X105828571Y-110833333D01*
X105971428Y-110833333D01*
X106066666Y-110880952D01*
X106114285Y-110928571D01*
X106161904Y-111023809D01*
X106161904Y-111261904D01*
X106114285Y-111357142D01*
X106066666Y-111404761D01*
X105971428Y-111452380D01*
X105685714Y-111452380D01*
X105590476Y-111404761D01*
X105542857Y-111357142D01*
X110357142Y-111452380D02*
X110023809Y-110976190D01*
X109785714Y-111452380D02*
X109785714Y-110452380D01*
X110166666Y-110452380D01*
X110261904Y-110500000D01*
X110309523Y-110547619D01*
X110357142Y-110642857D01*
X110357142Y-110785714D01*
X110309523Y-110880952D01*
X110261904Y-110928571D01*
X110166666Y-110976190D01*
X109785714Y-110976190D01*
X111309523Y-111452380D02*
X110738095Y-111452380D01*
X111023809Y-111452380D02*
X111023809Y-110452380D01*
X110928571Y-110595238D01*
X110833333Y-110690476D01*
X110738095Y-110738095D01*
X112166666Y-110785714D02*
X112166666Y-111452380D01*
X111928571Y-110404761D02*
X111690476Y-111119047D01*
X112309523Y-111119047D01*
X99857142Y-109952380D02*
X99523809Y-109476190D01*
X99285714Y-109952380D02*
X99285714Y-108952380D01*
X99666666Y-108952380D01*
X99761904Y-109000000D01*
X99809523Y-109047619D01*
X99857142Y-109142857D01*
X99857142Y-109285714D01*
X99809523Y-109380952D01*
X99761904Y-109428571D01*
X99666666Y-109476190D01*
X99285714Y-109476190D01*
X100809523Y-109952380D02*
X100238095Y-109952380D01*
X100523809Y-109952380D02*
X100523809Y-108952380D01*
X100428571Y-109095238D01*
X100333333Y-109190476D01*
X100238095Y-109238095D01*
X101714285Y-108952380D02*
X101238095Y-108952380D01*
X101190476Y-109428571D01*
X101238095Y-109380952D01*
X101333333Y-109333333D01*
X101571428Y-109333333D01*
X101666666Y-109380952D01*
X101714285Y-109428571D01*
X101761904Y-109523809D01*
X101761904Y-109761904D01*
X101714285Y-109857142D01*
X101666666Y-109904761D01*
X101571428Y-109952380D01*
X101333333Y-109952380D01*
X101238095Y-109904761D01*
X101190476Y-109857142D01*
X86580952Y-111566666D02*
X87057142Y-111566666D01*
X86485714Y-111852380D02*
X86819047Y-110852380D01*
X87152380Y-111852380D01*
X87485714Y-111852380D02*
X87485714Y-110852380D01*
X87723809Y-110852380D01*
X87866666Y-110900000D01*
X87961904Y-110995238D01*
X88009523Y-111090476D01*
X88057142Y-111280952D01*
X88057142Y-111423809D01*
X88009523Y-111614285D01*
X87961904Y-111709523D01*
X87866666Y-111804761D01*
X87723809Y-111852380D01*
X87485714Y-111852380D01*
X88438095Y-111804761D02*
X88580952Y-111852380D01*
X88819047Y-111852380D01*
X88914285Y-111804761D01*
X88961904Y-111757142D01*
X89009523Y-111661904D01*
X89009523Y-111566666D01*
X88961904Y-111471428D01*
X88914285Y-111423809D01*
X88819047Y-111376190D01*
X88628571Y-111328571D01*
X88533333Y-111280952D01*
X88485714Y-111233333D01*
X88438095Y-111138095D01*
X88438095Y-111042857D01*
X88485714Y-110947619D01*
X88533333Y-110900000D01*
X88628571Y-110852380D01*
X88866666Y-110852380D01*
X89009523Y-110900000D01*
X89961904Y-111852380D02*
X89390476Y-111852380D01*
X89676190Y-111852380D02*
X89676190Y-110852380D01*
X89580952Y-110995238D01*
X89485714Y-111090476D01*
X89390476Y-111138095D01*
X90914285Y-111852380D02*
X90342857Y-111852380D01*
X90628571Y-111852380D02*
X90628571Y-110852380D01*
X90533333Y-110995238D01*
X90438095Y-111090476D01*
X90342857Y-111138095D01*
X91866666Y-111852380D02*
X91295238Y-111852380D01*
X91580952Y-111852380D02*
X91580952Y-110852380D01*
X91485714Y-110995238D01*
X91390476Y-111090476D01*
X91295238Y-111138095D01*
X92771428Y-110852380D02*
X92295238Y-110852380D01*
X92247619Y-111328571D01*
X92295238Y-111280952D01*
X92390476Y-111233333D01*
X92628571Y-111233333D01*
X92723809Y-111280952D01*
X92771428Y-111328571D01*
X92819047Y-111423809D01*
X92819047Y-111661904D01*
X92771428Y-111757142D01*
X92723809Y-111804761D01*
X92628571Y-111852380D01*
X92390476Y-111852380D01*
X92295238Y-111804761D01*
X92247619Y-111757142D01*
X96161904Y-121052380D02*
X96161904Y-120052380D01*
X96495238Y-120766666D01*
X96828571Y-120052380D01*
X96828571Y-121052380D01*
X97876190Y-120957142D02*
X97828571Y-121004761D01*
X97685714Y-121052380D01*
X97590476Y-121052380D01*
X97447619Y-121004761D01*
X97352380Y-120909523D01*
X97304761Y-120814285D01*
X97257142Y-120623809D01*
X97257142Y-120480952D01*
X97304761Y-120290476D01*
X97352380Y-120195238D01*
X97447619Y-120100000D01*
X97590476Y-120052380D01*
X97685714Y-120052380D01*
X97828571Y-120100000D01*
X97876190Y-120147619D01*
X98304761Y-121052380D02*
X98304761Y-120052380D01*
X98685714Y-120052380D01*
X98780952Y-120100000D01*
X98828571Y-120147619D01*
X98876190Y-120242857D01*
X98876190Y-120385714D01*
X98828571Y-120480952D01*
X98780952Y-120528571D01*
X98685714Y-120576190D01*
X98304761Y-120576190D01*
X99733333Y-120385714D02*
X99733333Y-121052380D01*
X99495238Y-120004761D02*
X99257142Y-120719047D01*
X99876190Y-120719047D01*
X100161904Y-120052380D02*
X100828571Y-120052380D01*
X100400000Y-121052380D01*
X101161904Y-120147619D02*
X101209523Y-120100000D01*
X101304761Y-120052380D01*
X101542857Y-120052380D01*
X101638095Y-120100000D01*
X101685714Y-120147619D01*
X101733333Y-120242857D01*
X101733333Y-120338095D01*
X101685714Y-120480952D01*
X101114285Y-121052380D01*
X101733333Y-121052380D01*
X102304761Y-120480952D02*
X102209523Y-120433333D01*
X102161904Y-120385714D01*
X102114285Y-120290476D01*
X102114285Y-120242857D01*
X102161904Y-120147619D01*
X102209523Y-120100000D01*
X102304761Y-120052380D01*
X102495238Y-120052380D01*
X102590476Y-120100000D01*
X102638095Y-120147619D01*
X102685714Y-120242857D01*
X102685714Y-120290476D01*
X102638095Y-120385714D01*
X102590476Y-120433333D01*
X102495238Y-120480952D01*
X102304761Y-120480952D01*
X102209523Y-120528571D01*
X102161904Y-120576190D01*
X102114285Y-120671428D01*
X102114285Y-120861904D01*
X102161904Y-120957142D01*
X102209523Y-121004761D01*
X102304761Y-121052380D01*
X102495238Y-121052380D01*
X102590476Y-121004761D01*
X102638095Y-120957142D01*
X102685714Y-120861904D01*
X102685714Y-120671428D01*
X102638095Y-120576190D01*
X102590476Y-120528571D01*
X102495238Y-120480952D01*
X71085714Y-122152380D02*
X71085714Y-121152380D01*
X71419047Y-121866666D01*
X71752380Y-121152380D01*
X71752380Y-122152380D01*
X72800000Y-122057142D02*
X72752380Y-122104761D01*
X72609523Y-122152380D01*
X72514285Y-122152380D01*
X72371428Y-122104761D01*
X72276190Y-122009523D01*
X72228571Y-121914285D01*
X72180952Y-121723809D01*
X72180952Y-121580952D01*
X72228571Y-121390476D01*
X72276190Y-121295238D01*
X72371428Y-121200000D01*
X72514285Y-121152380D01*
X72609523Y-121152380D01*
X72752380Y-121200000D01*
X72800000Y-121247619D01*
X73228571Y-122152380D02*
X73228571Y-121152380D01*
X73609523Y-121152380D01*
X73704761Y-121200000D01*
X73752380Y-121247619D01*
X73800000Y-121342857D01*
X73800000Y-121485714D01*
X73752380Y-121580952D01*
X73704761Y-121628571D01*
X73609523Y-121676190D01*
X73228571Y-121676190D01*
X74180952Y-121247619D02*
X74228571Y-121200000D01*
X74323809Y-121152380D01*
X74561904Y-121152380D01*
X74657142Y-121200000D01*
X74704761Y-121247619D01*
X74752380Y-121342857D01*
X74752380Y-121438095D01*
X74704761Y-121580952D01*
X74133333Y-122152380D01*
X74752380Y-122152380D01*
X75085714Y-121152380D02*
X75704761Y-121152380D01*
X75371428Y-121533333D01*
X75514285Y-121533333D01*
X75609523Y-121580952D01*
X75657142Y-121628571D01*
X75704761Y-121723809D01*
X75704761Y-121961904D01*
X75657142Y-122057142D01*
X75609523Y-122104761D01*
X75514285Y-122152380D01*
X75228571Y-122152380D01*
X75133333Y-122104761D01*
X75085714Y-122057142D01*
X76323809Y-121152380D02*
X76419047Y-121152380D01*
X76514285Y-121200000D01*
X76561904Y-121247619D01*
X76609523Y-121342857D01*
X76657142Y-121533333D01*
X76657142Y-121771428D01*
X76609523Y-121961904D01*
X76561904Y-122057142D01*
X76514285Y-122104761D01*
X76419047Y-122152380D01*
X76323809Y-122152380D01*
X76228571Y-122104761D01*
X76180952Y-122057142D01*
X76133333Y-121961904D01*
X76085714Y-121771428D01*
X76085714Y-121533333D01*
X76133333Y-121342857D01*
X76180952Y-121247619D01*
X76228571Y-121200000D01*
X76323809Y-121152380D01*
X77609523Y-122152380D02*
X77038095Y-122152380D01*
X77323809Y-122152380D02*
X77323809Y-121152380D01*
X77228571Y-121295238D01*
X77133333Y-121390476D01*
X77038095Y-121438095D01*
X77942857Y-121152380D02*
X78609523Y-121152380D01*
X78180952Y-122152380D01*
X107533333Y-114457142D02*
X107485714Y-114504761D01*
X107342857Y-114552380D01*
X107247619Y-114552380D01*
X107104761Y-114504761D01*
X107009523Y-114409523D01*
X106961904Y-114314285D01*
X106914285Y-114123809D01*
X106914285Y-113980952D01*
X106961904Y-113790476D01*
X107009523Y-113695238D01*
X107104761Y-113600000D01*
X107247619Y-113552380D01*
X107342857Y-113552380D01*
X107485714Y-113600000D01*
X107533333Y-113647619D01*
X108438095Y-113552380D02*
X107961904Y-113552380D01*
X107914285Y-114028571D01*
X107961904Y-113980952D01*
X108057142Y-113933333D01*
X108295238Y-113933333D01*
X108390476Y-113980952D01*
X108438095Y-114028571D01*
X108485714Y-114123809D01*
X108485714Y-114361904D01*
X108438095Y-114457142D01*
X108390476Y-114504761D01*
X108295238Y-114552380D01*
X108057142Y-114552380D01*
X107961904Y-114504761D01*
X107914285Y-114457142D01*
X125282380Y-105042857D02*
X124806190Y-105376190D01*
X125282380Y-105614285D02*
X124282380Y-105614285D01*
X124282380Y-105233333D01*
X124330000Y-105138095D01*
X124377619Y-105090476D01*
X124472857Y-105042857D01*
X124615714Y-105042857D01*
X124710952Y-105090476D01*
X124758571Y-105138095D01*
X124806190Y-105233333D01*
X124806190Y-105614285D01*
X125282380Y-104090476D02*
X125282380Y-104661904D01*
X125282380Y-104376190D02*
X124282380Y-104376190D01*
X124425238Y-104471428D01*
X124520476Y-104566666D01*
X124568095Y-104661904D01*
X124282380Y-103471428D02*
X124282380Y-103376190D01*
X124330000Y-103280952D01*
X124377619Y-103233333D01*
X124472857Y-103185714D01*
X124663333Y-103138095D01*
X124901428Y-103138095D01*
X125091904Y-103185714D01*
X125187142Y-103233333D01*
X125234761Y-103280952D01*
X125282380Y-103376190D01*
X125282380Y-103471428D01*
X125234761Y-103566666D01*
X125187142Y-103614285D01*
X125091904Y-103661904D01*
X124901428Y-103709523D01*
X124663333Y-103709523D01*
X124472857Y-103661904D01*
X124377619Y-103614285D01*
X124330000Y-103566666D01*
X124282380Y-103471428D01*
X145292380Y-119816428D02*
X145292380Y-119625952D01*
X145340000Y-119530714D01*
X145435238Y-119435476D01*
X145625714Y-119387857D01*
X145959047Y-119387857D01*
X146149523Y-119435476D01*
X146244761Y-119530714D01*
X146292380Y-119625952D01*
X146292380Y-119816428D01*
X146244761Y-119911666D01*
X146149523Y-120006904D01*
X145959047Y-120054523D01*
X145625714Y-120054523D01*
X145435238Y-120006904D01*
X145340000Y-119911666D01*
X145292380Y-119816428D01*
X146197142Y-118387857D02*
X146244761Y-118435476D01*
X146292380Y-118578333D01*
X146292380Y-118673571D01*
X146244761Y-118816428D01*
X146149523Y-118911666D01*
X146054285Y-118959285D01*
X145863809Y-119006904D01*
X145720952Y-119006904D01*
X145530476Y-118959285D01*
X145435238Y-118911666D01*
X145340000Y-118816428D01*
X145292380Y-118673571D01*
X145292380Y-118578333D01*
X145340000Y-118435476D01*
X145387619Y-118387857D01*
X146292380Y-117435476D02*
X146292380Y-118006904D01*
X146292380Y-117721190D02*
X145292380Y-117721190D01*
X145435238Y-117816428D01*
X145530476Y-117911666D01*
X145578095Y-118006904D01*
M02*
