G04 #@! TF.GenerationSoftware,KiCad,Pcbnew,5.1.6-c6e7f7d~87~ubuntu18.04.1*
G04 #@! TF.CreationDate,2020-12-02T03:09:43+01:00*
G04 #@! TF.ProjectId,zynthian_zynaptik,7a796e74-6869-4616-9e5f-7a796e617074,1.0*
G04 #@! TF.SameCoordinates,Original*
G04 #@! TF.FileFunction,Paste,Top*
G04 #@! TF.FilePolarity,Positive*
%FSLAX46Y46*%
G04 Gerber Fmt 4.6, Leading zero omitted, Abs format (unit mm)*
G04 Created by KiCad (PCBNEW 5.1.6-c6e7f7d~87~ubuntu18.04.1) date 2020-12-02 03:09:43*
%MOMM*%
%LPD*%
G01*
G04 APERTURE LIST*
%ADD10R,0.600000X1.500000*%
%ADD11R,0.900000X1.200000*%
%ADD12R,0.500000X0.500000*%
%ADD13R,0.300000X1.400000*%
%ADD14R,0.450000X1.750000*%
%ADD15R,1.600000X3.100000*%
G04 APERTURE END LIST*
D10*
X152890000Y-123500000D03*
X154160000Y-123500000D03*
X155430000Y-123500000D03*
X156700000Y-123500000D03*
X157970000Y-123500000D03*
X159240000Y-123500000D03*
X160510000Y-123500000D03*
X160510000Y-118100000D03*
X159240000Y-118100000D03*
X157970000Y-118100000D03*
X156700000Y-118100000D03*
X155430000Y-118100000D03*
X154160000Y-118100000D03*
X152890000Y-118100000D03*
G36*
G01*
X137338750Y-126210000D02*
X138251250Y-126210000D01*
G75*
G02*
X138495000Y-126453750I0J-243750D01*
G01*
X138495000Y-126941250D01*
G75*
G02*
X138251250Y-127185000I-243750J0D01*
G01*
X137338750Y-127185000D01*
G75*
G02*
X137095000Y-126941250I0J243750D01*
G01*
X137095000Y-126453750D01*
G75*
G02*
X137338750Y-126210000I243750J0D01*
G01*
G37*
G36*
G01*
X137338750Y-128085000D02*
X138251250Y-128085000D01*
G75*
G02*
X138495000Y-128328750I0J-243750D01*
G01*
X138495000Y-128816250D01*
G75*
G02*
X138251250Y-129060000I-243750J0D01*
G01*
X137338750Y-129060000D01*
G75*
G02*
X137095000Y-128816250I0J243750D01*
G01*
X137095000Y-128328750D01*
G75*
G02*
X137338750Y-128085000I243750J0D01*
G01*
G37*
G36*
G01*
X78750000Y-109543750D02*
X78750000Y-110456250D01*
G75*
G02*
X78506250Y-110700000I-243750J0D01*
G01*
X78018750Y-110700000D01*
G75*
G02*
X77775000Y-110456250I0J243750D01*
G01*
X77775000Y-109543750D01*
G75*
G02*
X78018750Y-109300000I243750J0D01*
G01*
X78506250Y-109300000D01*
G75*
G02*
X78750000Y-109543750I0J-243750D01*
G01*
G37*
G36*
G01*
X80625000Y-109543750D02*
X80625000Y-110456250D01*
G75*
G02*
X80381250Y-110700000I-243750J0D01*
G01*
X79893750Y-110700000D01*
G75*
G02*
X79650000Y-110456250I0J243750D01*
G01*
X79650000Y-109543750D01*
G75*
G02*
X79893750Y-109300000I243750J0D01*
G01*
X80381250Y-109300000D01*
G75*
G02*
X80625000Y-109543750I0J-243750D01*
G01*
G37*
D11*
X133150000Y-109600000D03*
X129850000Y-109600000D03*
G36*
G01*
X139170000Y-106090000D02*
X139170000Y-104840000D01*
G75*
G02*
X139320000Y-104690000I150000J0D01*
G01*
X139620000Y-104690000D01*
G75*
G02*
X139770000Y-104840000I0J-150000D01*
G01*
X139770000Y-106090000D01*
G75*
G02*
X139620000Y-106240000I-150000J0D01*
G01*
X139320000Y-106240000D01*
G75*
G02*
X139170000Y-106090000I0J150000D01*
G01*
G37*
G36*
G01*
X140170000Y-106090000D02*
X140170000Y-104840000D01*
G75*
G02*
X140320000Y-104690000I150000J0D01*
G01*
X140620000Y-104690000D01*
G75*
G02*
X140770000Y-104840000I0J-150000D01*
G01*
X140770000Y-106090000D01*
G75*
G02*
X140620000Y-106240000I-150000J0D01*
G01*
X140320000Y-106240000D01*
G75*
G02*
X140170000Y-106090000I0J150000D01*
G01*
G37*
G36*
G01*
X141170000Y-106090000D02*
X141170000Y-104840000D01*
G75*
G02*
X141320000Y-104690000I150000J0D01*
G01*
X141620000Y-104690000D01*
G75*
G02*
X141770000Y-104840000I0J-150000D01*
G01*
X141770000Y-106090000D01*
G75*
G02*
X141620000Y-106240000I-150000J0D01*
G01*
X141320000Y-106240000D01*
G75*
G02*
X141170000Y-106090000I0J150000D01*
G01*
G37*
G36*
G01*
X142170000Y-106090000D02*
X142170000Y-104840000D01*
G75*
G02*
X142320000Y-104690000I150000J0D01*
G01*
X142620000Y-104690000D01*
G75*
G02*
X142770000Y-104840000I0J-150000D01*
G01*
X142770000Y-106090000D01*
G75*
G02*
X142620000Y-106240000I-150000J0D01*
G01*
X142320000Y-106240000D01*
G75*
G02*
X142170000Y-106090000I0J150000D01*
G01*
G37*
G36*
G01*
X137570000Y-103590001D02*
X137570000Y-102289999D01*
G75*
G02*
X137819999Y-102040000I249999J0D01*
G01*
X138520001Y-102040000D01*
G75*
G02*
X138770000Y-102289999I0J-249999D01*
G01*
X138770000Y-103590001D01*
G75*
G02*
X138520001Y-103840000I-249999J0D01*
G01*
X137819999Y-103840000D01*
G75*
G02*
X137570000Y-103590001I0J249999D01*
G01*
G37*
G36*
G01*
X143170000Y-103590001D02*
X143170000Y-102289999D01*
G75*
G02*
X143419999Y-102040000I249999J0D01*
G01*
X144120001Y-102040000D01*
G75*
G02*
X144370000Y-102289999I0J-249999D01*
G01*
X144370000Y-103590001D01*
G75*
G02*
X144120001Y-103840000I-249999J0D01*
G01*
X143419999Y-103840000D01*
G75*
G02*
X143170000Y-103590001I0J249999D01*
G01*
G37*
G36*
G01*
X155235000Y-103590001D02*
X155235000Y-102289999D01*
G75*
G02*
X155484999Y-102040000I249999J0D01*
G01*
X156185001Y-102040000D01*
G75*
G02*
X156435000Y-102289999I0J-249999D01*
G01*
X156435000Y-103590001D01*
G75*
G02*
X156185001Y-103840000I-249999J0D01*
G01*
X155484999Y-103840000D01*
G75*
G02*
X155235000Y-103590001I0J249999D01*
G01*
G37*
G36*
G01*
X149635000Y-103590001D02*
X149635000Y-102289999D01*
G75*
G02*
X149884999Y-102040000I249999J0D01*
G01*
X150585001Y-102040000D01*
G75*
G02*
X150835000Y-102289999I0J-249999D01*
G01*
X150835000Y-103590001D01*
G75*
G02*
X150585001Y-103840000I-249999J0D01*
G01*
X149884999Y-103840000D01*
G75*
G02*
X149635000Y-103590001I0J249999D01*
G01*
G37*
G36*
G01*
X154235000Y-106090000D02*
X154235000Y-104840000D01*
G75*
G02*
X154385000Y-104690000I150000J0D01*
G01*
X154685000Y-104690000D01*
G75*
G02*
X154835000Y-104840000I0J-150000D01*
G01*
X154835000Y-106090000D01*
G75*
G02*
X154685000Y-106240000I-150000J0D01*
G01*
X154385000Y-106240000D01*
G75*
G02*
X154235000Y-106090000I0J150000D01*
G01*
G37*
G36*
G01*
X153235000Y-106090000D02*
X153235000Y-104840000D01*
G75*
G02*
X153385000Y-104690000I150000J0D01*
G01*
X153685000Y-104690000D01*
G75*
G02*
X153835000Y-104840000I0J-150000D01*
G01*
X153835000Y-106090000D01*
G75*
G02*
X153685000Y-106240000I-150000J0D01*
G01*
X153385000Y-106240000D01*
G75*
G02*
X153235000Y-106090000I0J150000D01*
G01*
G37*
G36*
G01*
X152235000Y-106090000D02*
X152235000Y-104840000D01*
G75*
G02*
X152385000Y-104690000I150000J0D01*
G01*
X152685000Y-104690000D01*
G75*
G02*
X152835000Y-104840000I0J-150000D01*
G01*
X152835000Y-106090000D01*
G75*
G02*
X152685000Y-106240000I-150000J0D01*
G01*
X152385000Y-106240000D01*
G75*
G02*
X152235000Y-106090000I0J150000D01*
G01*
G37*
G36*
G01*
X151235000Y-106090000D02*
X151235000Y-104840000D01*
G75*
G02*
X151385000Y-104690000I150000J0D01*
G01*
X151685000Y-104690000D01*
G75*
G02*
X151835000Y-104840000I0J-150000D01*
G01*
X151835000Y-106090000D01*
G75*
G02*
X151685000Y-106240000I-150000J0D01*
G01*
X151385000Y-106240000D01*
G75*
G02*
X151235000Y-106090000I0J150000D01*
G01*
G37*
G36*
G01*
X163300000Y-106090000D02*
X163300000Y-104840000D01*
G75*
G02*
X163450000Y-104690000I150000J0D01*
G01*
X163750000Y-104690000D01*
G75*
G02*
X163900000Y-104840000I0J-150000D01*
G01*
X163900000Y-106090000D01*
G75*
G02*
X163750000Y-106240000I-150000J0D01*
G01*
X163450000Y-106240000D01*
G75*
G02*
X163300000Y-106090000I0J150000D01*
G01*
G37*
G36*
G01*
X164300000Y-106090000D02*
X164300000Y-104840000D01*
G75*
G02*
X164450000Y-104690000I150000J0D01*
G01*
X164750000Y-104690000D01*
G75*
G02*
X164900000Y-104840000I0J-150000D01*
G01*
X164900000Y-106090000D01*
G75*
G02*
X164750000Y-106240000I-150000J0D01*
G01*
X164450000Y-106240000D01*
G75*
G02*
X164300000Y-106090000I0J150000D01*
G01*
G37*
G36*
G01*
X165300000Y-106090000D02*
X165300000Y-104840000D01*
G75*
G02*
X165450000Y-104690000I150000J0D01*
G01*
X165750000Y-104690000D01*
G75*
G02*
X165900000Y-104840000I0J-150000D01*
G01*
X165900000Y-106090000D01*
G75*
G02*
X165750000Y-106240000I-150000J0D01*
G01*
X165450000Y-106240000D01*
G75*
G02*
X165300000Y-106090000I0J150000D01*
G01*
G37*
G36*
G01*
X166300000Y-106090000D02*
X166300000Y-104840000D01*
G75*
G02*
X166450000Y-104690000I150000J0D01*
G01*
X166750000Y-104690000D01*
G75*
G02*
X166900000Y-104840000I0J-150000D01*
G01*
X166900000Y-106090000D01*
G75*
G02*
X166750000Y-106240000I-150000J0D01*
G01*
X166450000Y-106240000D01*
G75*
G02*
X166300000Y-106090000I0J150000D01*
G01*
G37*
G36*
G01*
X161700000Y-103590001D02*
X161700000Y-102289999D01*
G75*
G02*
X161949999Y-102040000I249999J0D01*
G01*
X162650001Y-102040000D01*
G75*
G02*
X162900000Y-102289999I0J-249999D01*
G01*
X162900000Y-103590001D01*
G75*
G02*
X162650001Y-103840000I-249999J0D01*
G01*
X161949999Y-103840000D01*
G75*
G02*
X161700000Y-103590001I0J249999D01*
G01*
G37*
G36*
G01*
X167300000Y-103590001D02*
X167300000Y-102289999D01*
G75*
G02*
X167549999Y-102040000I249999J0D01*
G01*
X168250001Y-102040000D01*
G75*
G02*
X168500000Y-102289999I0J-249999D01*
G01*
X168500000Y-103590001D01*
G75*
G02*
X168250001Y-103840000I-249999J0D01*
G01*
X167549999Y-103840000D01*
G75*
G02*
X167300000Y-103590001I0J249999D01*
G01*
G37*
G36*
G01*
X144601250Y-127185000D02*
X143688750Y-127185000D01*
G75*
G02*
X143445000Y-126941250I0J243750D01*
G01*
X143445000Y-126453750D01*
G75*
G02*
X143688750Y-126210000I243750J0D01*
G01*
X144601250Y-126210000D01*
G75*
G02*
X144845000Y-126453750I0J-243750D01*
G01*
X144845000Y-126941250D01*
G75*
G02*
X144601250Y-127185000I-243750J0D01*
G01*
G37*
G36*
G01*
X144601250Y-129060000D02*
X143688750Y-129060000D01*
G75*
G02*
X143445000Y-128816250I0J243750D01*
G01*
X143445000Y-128328750D01*
G75*
G02*
X143688750Y-128085000I243750J0D01*
G01*
X144601250Y-128085000D01*
G75*
G02*
X144845000Y-128328750I0J-243750D01*
G01*
X144845000Y-128816250D01*
G75*
G02*
X144601250Y-129060000I-243750J0D01*
G01*
G37*
G36*
G01*
X144601250Y-110040000D02*
X143688750Y-110040000D01*
G75*
G02*
X143445000Y-109796250I0J243750D01*
G01*
X143445000Y-109308750D01*
G75*
G02*
X143688750Y-109065000I243750J0D01*
G01*
X144601250Y-109065000D01*
G75*
G02*
X144845000Y-109308750I0J-243750D01*
G01*
X144845000Y-109796250D01*
G75*
G02*
X144601250Y-110040000I-243750J0D01*
G01*
G37*
G36*
G01*
X144601250Y-111915000D02*
X143688750Y-111915000D01*
G75*
G02*
X143445000Y-111671250I0J243750D01*
G01*
X143445000Y-111183750D01*
G75*
G02*
X143688750Y-110940000I243750J0D01*
G01*
X144601250Y-110940000D01*
G75*
G02*
X144845000Y-111183750I0J-243750D01*
G01*
X144845000Y-111671250D01*
G75*
G02*
X144601250Y-111915000I-243750J0D01*
G01*
G37*
G36*
G01*
X138251250Y-111915000D02*
X137338750Y-111915000D01*
G75*
G02*
X137095000Y-111671250I0J243750D01*
G01*
X137095000Y-111183750D01*
G75*
G02*
X137338750Y-110940000I243750J0D01*
G01*
X138251250Y-110940000D01*
G75*
G02*
X138495000Y-111183750I0J-243750D01*
G01*
X138495000Y-111671250D01*
G75*
G02*
X138251250Y-111915000I-243750J0D01*
G01*
G37*
G36*
G01*
X138251250Y-110040000D02*
X137338750Y-110040000D01*
G75*
G02*
X137095000Y-109796250I0J243750D01*
G01*
X137095000Y-109308750D01*
G75*
G02*
X137338750Y-109065000I243750J0D01*
G01*
X138251250Y-109065000D01*
G75*
G02*
X138495000Y-109308750I0J-243750D01*
G01*
X138495000Y-109796250D01*
G75*
G02*
X138251250Y-110040000I-243750J0D01*
G01*
G37*
G36*
G01*
X152959750Y-110940000D02*
X153872250Y-110940000D01*
G75*
G02*
X154116000Y-111183750I0J-243750D01*
G01*
X154116000Y-111671250D01*
G75*
G02*
X153872250Y-111915000I-243750J0D01*
G01*
X152959750Y-111915000D01*
G75*
G02*
X152716000Y-111671250I0J243750D01*
G01*
X152716000Y-111183750D01*
G75*
G02*
X152959750Y-110940000I243750J0D01*
G01*
G37*
G36*
G01*
X152959750Y-109065000D02*
X153872250Y-109065000D01*
G75*
G02*
X154116000Y-109308750I0J-243750D01*
G01*
X154116000Y-109796250D01*
G75*
G02*
X153872250Y-110040000I-243750J0D01*
G01*
X152959750Y-110040000D01*
G75*
G02*
X152716000Y-109796250I0J243750D01*
G01*
X152716000Y-109308750D01*
G75*
G02*
X152959750Y-109065000I243750J0D01*
G01*
G37*
G36*
G01*
X150443250Y-111978500D02*
X149530750Y-111978500D01*
G75*
G02*
X149287000Y-111734750I0J243750D01*
G01*
X149287000Y-111247250D01*
G75*
G02*
X149530750Y-111003500I243750J0D01*
G01*
X150443250Y-111003500D01*
G75*
G02*
X150687000Y-111247250I0J-243750D01*
G01*
X150687000Y-111734750D01*
G75*
G02*
X150443250Y-111978500I-243750J0D01*
G01*
G37*
G36*
G01*
X150443250Y-110103500D02*
X149530750Y-110103500D01*
G75*
G02*
X149287000Y-109859750I0J243750D01*
G01*
X149287000Y-109372250D01*
G75*
G02*
X149530750Y-109128500I243750J0D01*
G01*
X150443250Y-109128500D01*
G75*
G02*
X150687000Y-109372250I0J-243750D01*
G01*
X150687000Y-109859750D01*
G75*
G02*
X150443250Y-110103500I-243750J0D01*
G01*
G37*
G36*
G01*
X156388750Y-111003500D02*
X157301250Y-111003500D01*
G75*
G02*
X157545000Y-111247250I0J-243750D01*
G01*
X157545000Y-111734750D01*
G75*
G02*
X157301250Y-111978500I-243750J0D01*
G01*
X156388750Y-111978500D01*
G75*
G02*
X156145000Y-111734750I0J243750D01*
G01*
X156145000Y-111247250D01*
G75*
G02*
X156388750Y-111003500I243750J0D01*
G01*
G37*
G36*
G01*
X156388750Y-109128500D02*
X157301250Y-109128500D01*
G75*
G02*
X157545000Y-109372250I0J-243750D01*
G01*
X157545000Y-109859750D01*
G75*
G02*
X157301250Y-110103500I-243750J0D01*
G01*
X156388750Y-110103500D01*
G75*
G02*
X156145000Y-109859750I0J243750D01*
G01*
X156145000Y-109372250D01*
G75*
G02*
X156388750Y-109128500I243750J0D01*
G01*
G37*
G36*
G01*
X165151750Y-109065000D02*
X166064250Y-109065000D01*
G75*
G02*
X166308000Y-109308750I0J-243750D01*
G01*
X166308000Y-109796250D01*
G75*
G02*
X166064250Y-110040000I-243750J0D01*
G01*
X165151750Y-110040000D01*
G75*
G02*
X164908000Y-109796250I0J243750D01*
G01*
X164908000Y-109308750D01*
G75*
G02*
X165151750Y-109065000I243750J0D01*
G01*
G37*
G36*
G01*
X165151750Y-110940000D02*
X166064250Y-110940000D01*
G75*
G02*
X166308000Y-111183750I0J-243750D01*
G01*
X166308000Y-111671250D01*
G75*
G02*
X166064250Y-111915000I-243750J0D01*
G01*
X165151750Y-111915000D01*
G75*
G02*
X164908000Y-111671250I0J243750D01*
G01*
X164908000Y-111183750D01*
G75*
G02*
X165151750Y-110940000I243750J0D01*
G01*
G37*
G36*
G01*
X162698750Y-110040000D02*
X161786250Y-110040000D01*
G75*
G02*
X161542500Y-109796250I0J243750D01*
G01*
X161542500Y-109308750D01*
G75*
G02*
X161786250Y-109065000I243750J0D01*
G01*
X162698750Y-109065000D01*
G75*
G02*
X162942500Y-109308750I0J-243750D01*
G01*
X162942500Y-109796250D01*
G75*
G02*
X162698750Y-110040000I-243750J0D01*
G01*
G37*
G36*
G01*
X162698750Y-111915000D02*
X161786250Y-111915000D01*
G75*
G02*
X161542500Y-111671250I0J243750D01*
G01*
X161542500Y-111183750D01*
G75*
G02*
X161786250Y-110940000I243750J0D01*
G01*
X162698750Y-110940000D01*
G75*
G02*
X162942500Y-111183750I0J-243750D01*
G01*
X162942500Y-111671250D01*
G75*
G02*
X162698750Y-111915000I-243750J0D01*
G01*
G37*
G36*
G01*
X168580750Y-109001500D02*
X169493250Y-109001500D01*
G75*
G02*
X169737000Y-109245250I0J-243750D01*
G01*
X169737000Y-109732750D01*
G75*
G02*
X169493250Y-109976500I-243750J0D01*
G01*
X168580750Y-109976500D01*
G75*
G02*
X168337000Y-109732750I0J243750D01*
G01*
X168337000Y-109245250D01*
G75*
G02*
X168580750Y-109001500I243750J0D01*
G01*
G37*
G36*
G01*
X168580750Y-110876500D02*
X169493250Y-110876500D01*
G75*
G02*
X169737000Y-111120250I0J-243750D01*
G01*
X169737000Y-111607750D01*
G75*
G02*
X169493250Y-111851500I-243750J0D01*
G01*
X168580750Y-111851500D01*
G75*
G02*
X168337000Y-111607750I0J243750D01*
G01*
X168337000Y-111120250D01*
G75*
G02*
X168580750Y-110876500I243750J0D01*
G01*
G37*
G36*
G01*
X113043750Y-113975000D02*
X113956250Y-113975000D01*
G75*
G02*
X114200000Y-114218750I0J-243750D01*
G01*
X114200000Y-114706250D01*
G75*
G02*
X113956250Y-114950000I-243750J0D01*
G01*
X113043750Y-114950000D01*
G75*
G02*
X112800000Y-114706250I0J243750D01*
G01*
X112800000Y-114218750D01*
G75*
G02*
X113043750Y-113975000I243750J0D01*
G01*
G37*
G36*
G01*
X113043750Y-115850000D02*
X113956250Y-115850000D01*
G75*
G02*
X114200000Y-116093750I0J-243750D01*
G01*
X114200000Y-116581250D01*
G75*
G02*
X113956250Y-116825000I-243750J0D01*
G01*
X113043750Y-116825000D01*
G75*
G02*
X112800000Y-116581250I0J243750D01*
G01*
X112800000Y-116093750D01*
G75*
G02*
X113043750Y-115850000I243750J0D01*
G01*
G37*
G36*
G01*
X90650000Y-121156250D02*
X90650000Y-120243750D01*
G75*
G02*
X90893750Y-120000000I243750J0D01*
G01*
X91381250Y-120000000D01*
G75*
G02*
X91625000Y-120243750I0J-243750D01*
G01*
X91625000Y-121156250D01*
G75*
G02*
X91381250Y-121400000I-243750J0D01*
G01*
X90893750Y-121400000D01*
G75*
G02*
X90650000Y-121156250I0J243750D01*
G01*
G37*
G36*
G01*
X88775000Y-121156250D02*
X88775000Y-120243750D01*
G75*
G02*
X89018750Y-120000000I243750J0D01*
G01*
X89506250Y-120000000D01*
G75*
G02*
X89750000Y-120243750I0J-243750D01*
G01*
X89750000Y-121156250D01*
G75*
G02*
X89506250Y-121400000I-243750J0D01*
G01*
X89018750Y-121400000D01*
G75*
G02*
X88775000Y-121156250I0J243750D01*
G01*
G37*
G36*
G01*
X105725000Y-116543750D02*
X105725000Y-117456250D01*
G75*
G02*
X105481250Y-117700000I-243750J0D01*
G01*
X104993750Y-117700000D01*
G75*
G02*
X104750000Y-117456250I0J243750D01*
G01*
X104750000Y-116543750D01*
G75*
G02*
X104993750Y-116300000I243750J0D01*
G01*
X105481250Y-116300000D01*
G75*
G02*
X105725000Y-116543750I0J-243750D01*
G01*
G37*
G36*
G01*
X103850000Y-116543750D02*
X103850000Y-117456250D01*
G75*
G02*
X103606250Y-117700000I-243750J0D01*
G01*
X103118750Y-117700000D01*
G75*
G02*
X102875000Y-117456250I0J243750D01*
G01*
X102875000Y-116543750D01*
G75*
G02*
X103118750Y-116300000I243750J0D01*
G01*
X103606250Y-116300000D01*
G75*
G02*
X103850000Y-116543750I0J-243750D01*
G01*
G37*
D12*
X140970000Y-128735000D03*
X140970000Y-126535000D03*
G36*
G01*
X112350000Y-112243750D02*
X112350000Y-113156250D01*
G75*
G02*
X112106250Y-113400000I-243750J0D01*
G01*
X111618750Y-113400000D01*
G75*
G02*
X111375000Y-113156250I0J243750D01*
G01*
X111375000Y-112243750D01*
G75*
G02*
X111618750Y-112000000I243750J0D01*
G01*
X112106250Y-112000000D01*
G75*
G02*
X112350000Y-112243750I0J-243750D01*
G01*
G37*
G36*
G01*
X114225000Y-112243750D02*
X114225000Y-113156250D01*
G75*
G02*
X113981250Y-113400000I-243750J0D01*
G01*
X113493750Y-113400000D01*
G75*
G02*
X113250000Y-113156250I0J243750D01*
G01*
X113250000Y-112243750D01*
G75*
G02*
X113493750Y-112000000I243750J0D01*
G01*
X113981250Y-112000000D01*
G75*
G02*
X114225000Y-112243750I0J-243750D01*
G01*
G37*
G36*
G01*
X111375000Y-118556250D02*
X111375000Y-117643750D01*
G75*
G02*
X111618750Y-117400000I243750J0D01*
G01*
X112106250Y-117400000D01*
G75*
G02*
X112350000Y-117643750I0J-243750D01*
G01*
X112350000Y-118556250D01*
G75*
G02*
X112106250Y-118800000I-243750J0D01*
G01*
X111618750Y-118800000D01*
G75*
G02*
X111375000Y-118556250I0J243750D01*
G01*
G37*
G36*
G01*
X113250000Y-118556250D02*
X113250000Y-117643750D01*
G75*
G02*
X113493750Y-117400000I243750J0D01*
G01*
X113981250Y-117400000D01*
G75*
G02*
X114225000Y-117643750I0J-243750D01*
G01*
X114225000Y-118556250D01*
G75*
G02*
X113981250Y-118800000I-243750J0D01*
G01*
X113493750Y-118800000D01*
G75*
G02*
X113250000Y-118556250I0J243750D01*
G01*
G37*
G36*
G01*
X86443750Y-118537500D02*
X86956250Y-118537500D01*
G75*
G02*
X87175000Y-118756250I0J-218750D01*
G01*
X87175000Y-119193750D01*
G75*
G02*
X86956250Y-119412500I-218750J0D01*
G01*
X86443750Y-119412500D01*
G75*
G02*
X86225000Y-119193750I0J218750D01*
G01*
X86225000Y-118756250D01*
G75*
G02*
X86443750Y-118537500I218750J0D01*
G01*
G37*
G36*
G01*
X86443750Y-116962500D02*
X86956250Y-116962500D01*
G75*
G02*
X87175000Y-117181250I0J-218750D01*
G01*
X87175000Y-117618750D01*
G75*
G02*
X86956250Y-117837500I-218750J0D01*
G01*
X86443750Y-117837500D01*
G75*
G02*
X86225000Y-117618750I0J218750D01*
G01*
X86225000Y-117181250D01*
G75*
G02*
X86443750Y-116962500I218750J0D01*
G01*
G37*
G36*
G01*
X86443750Y-114850000D02*
X86956250Y-114850000D01*
G75*
G02*
X87175000Y-115068750I0J-218750D01*
G01*
X87175000Y-115506250D01*
G75*
G02*
X86956250Y-115725000I-218750J0D01*
G01*
X86443750Y-115725000D01*
G75*
G02*
X86225000Y-115506250I0J218750D01*
G01*
X86225000Y-115068750D01*
G75*
G02*
X86443750Y-114850000I218750J0D01*
G01*
G37*
G36*
G01*
X86443750Y-113275000D02*
X86956250Y-113275000D01*
G75*
G02*
X87175000Y-113493750I0J-218750D01*
G01*
X87175000Y-113931250D01*
G75*
G02*
X86956250Y-114150000I-218750J0D01*
G01*
X86443750Y-114150000D01*
G75*
G02*
X86225000Y-113931250I0J218750D01*
G01*
X86225000Y-113493750D01*
G75*
G02*
X86443750Y-113275000I218750J0D01*
G01*
G37*
G36*
G01*
X107456250Y-112312500D02*
X106943750Y-112312500D01*
G75*
G02*
X106725000Y-112093750I0J218750D01*
G01*
X106725000Y-111656250D01*
G75*
G02*
X106943750Y-111437500I218750J0D01*
G01*
X107456250Y-111437500D01*
G75*
G02*
X107675000Y-111656250I0J-218750D01*
G01*
X107675000Y-112093750D01*
G75*
G02*
X107456250Y-112312500I-218750J0D01*
G01*
G37*
G36*
G01*
X107456250Y-110737500D02*
X106943750Y-110737500D01*
G75*
G02*
X106725000Y-110518750I0J218750D01*
G01*
X106725000Y-110081250D01*
G75*
G02*
X106943750Y-109862500I218750J0D01*
G01*
X107456250Y-109862500D01*
G75*
G02*
X107675000Y-110081250I0J-218750D01*
G01*
X107675000Y-110518750D01*
G75*
G02*
X107456250Y-110737500I-218750J0D01*
G01*
G37*
G36*
G01*
X109156250Y-112312500D02*
X108643750Y-112312500D01*
G75*
G02*
X108425000Y-112093750I0J218750D01*
G01*
X108425000Y-111656250D01*
G75*
G02*
X108643750Y-111437500I218750J0D01*
G01*
X109156250Y-111437500D01*
G75*
G02*
X109375000Y-111656250I0J-218750D01*
G01*
X109375000Y-112093750D01*
G75*
G02*
X109156250Y-112312500I-218750J0D01*
G01*
G37*
G36*
G01*
X109156250Y-110737500D02*
X108643750Y-110737500D01*
G75*
G02*
X108425000Y-110518750I0J218750D01*
G01*
X108425000Y-110081250D01*
G75*
G02*
X108643750Y-109862500I218750J0D01*
G01*
X109156250Y-109862500D01*
G75*
G02*
X109375000Y-110081250I0J-218750D01*
G01*
X109375000Y-110518750D01*
G75*
G02*
X109156250Y-110737500I-218750J0D01*
G01*
G37*
G36*
G01*
X99375000Y-111056250D02*
X99375000Y-110543750D01*
G75*
G02*
X99593750Y-110325000I218750J0D01*
G01*
X100031250Y-110325000D01*
G75*
G02*
X100250000Y-110543750I0J-218750D01*
G01*
X100250000Y-111056250D01*
G75*
G02*
X100031250Y-111275000I-218750J0D01*
G01*
X99593750Y-111275000D01*
G75*
G02*
X99375000Y-111056250I0J218750D01*
G01*
G37*
G36*
G01*
X100950000Y-111056250D02*
X100950000Y-110543750D01*
G75*
G02*
X101168750Y-110325000I218750J0D01*
G01*
X101606250Y-110325000D01*
G75*
G02*
X101825000Y-110543750I0J-218750D01*
G01*
X101825000Y-111056250D01*
G75*
G02*
X101606250Y-111275000I-218750J0D01*
G01*
X101168750Y-111275000D01*
G75*
G02*
X100950000Y-111056250I0J218750D01*
G01*
G37*
G36*
G01*
X88975000Y-118825000D02*
X88825000Y-118825000D01*
G75*
G02*
X88750000Y-118750000I0J75000D01*
G01*
X88750000Y-117450000D01*
G75*
G02*
X88825000Y-117375000I75000J0D01*
G01*
X88975000Y-117375000D01*
G75*
G02*
X89050000Y-117450000I0J-75000D01*
G01*
X89050000Y-118750000D01*
G75*
G02*
X88975000Y-118825000I-75000J0D01*
G01*
G37*
G36*
G01*
X89475000Y-118825000D02*
X89325000Y-118825000D01*
G75*
G02*
X89250000Y-118750000I0J75000D01*
G01*
X89250000Y-117450000D01*
G75*
G02*
X89325000Y-117375000I75000J0D01*
G01*
X89475000Y-117375000D01*
G75*
G02*
X89550000Y-117450000I0J-75000D01*
G01*
X89550000Y-118750000D01*
G75*
G02*
X89475000Y-118825000I-75000J0D01*
G01*
G37*
G36*
G01*
X89975000Y-118825000D02*
X89825000Y-118825000D01*
G75*
G02*
X89750000Y-118750000I0J75000D01*
G01*
X89750000Y-117450000D01*
G75*
G02*
X89825000Y-117375000I75000J0D01*
G01*
X89975000Y-117375000D01*
G75*
G02*
X90050000Y-117450000I0J-75000D01*
G01*
X90050000Y-118750000D01*
G75*
G02*
X89975000Y-118825000I-75000J0D01*
G01*
G37*
G36*
G01*
X90475000Y-118825000D02*
X90325000Y-118825000D01*
G75*
G02*
X90250000Y-118750000I0J75000D01*
G01*
X90250000Y-117450000D01*
G75*
G02*
X90325000Y-117375000I75000J0D01*
G01*
X90475000Y-117375000D01*
G75*
G02*
X90550000Y-117450000I0J-75000D01*
G01*
X90550000Y-118750000D01*
G75*
G02*
X90475000Y-118825000I-75000J0D01*
G01*
G37*
G36*
G01*
X90975000Y-118825000D02*
X90825000Y-118825000D01*
G75*
G02*
X90750000Y-118750000I0J75000D01*
G01*
X90750000Y-117450000D01*
G75*
G02*
X90825000Y-117375000I75000J0D01*
G01*
X90975000Y-117375000D01*
G75*
G02*
X91050000Y-117450000I0J-75000D01*
G01*
X91050000Y-118750000D01*
G75*
G02*
X90975000Y-118825000I-75000J0D01*
G01*
G37*
G36*
G01*
X90975000Y-114425000D02*
X90825000Y-114425000D01*
G75*
G02*
X90750000Y-114350000I0J75000D01*
G01*
X90750000Y-113050000D01*
G75*
G02*
X90825000Y-112975000I75000J0D01*
G01*
X90975000Y-112975000D01*
G75*
G02*
X91050000Y-113050000I0J-75000D01*
G01*
X91050000Y-114350000D01*
G75*
G02*
X90975000Y-114425000I-75000J0D01*
G01*
G37*
G36*
G01*
X90475000Y-114425000D02*
X90325000Y-114425000D01*
G75*
G02*
X90250000Y-114350000I0J75000D01*
G01*
X90250000Y-113050000D01*
G75*
G02*
X90325000Y-112975000I75000J0D01*
G01*
X90475000Y-112975000D01*
G75*
G02*
X90550000Y-113050000I0J-75000D01*
G01*
X90550000Y-114350000D01*
G75*
G02*
X90475000Y-114425000I-75000J0D01*
G01*
G37*
G36*
G01*
X89975000Y-114425000D02*
X89825000Y-114425000D01*
G75*
G02*
X89750000Y-114350000I0J75000D01*
G01*
X89750000Y-113050000D01*
G75*
G02*
X89825000Y-112975000I75000J0D01*
G01*
X89975000Y-112975000D01*
G75*
G02*
X90050000Y-113050000I0J-75000D01*
G01*
X90050000Y-114350000D01*
G75*
G02*
X89975000Y-114425000I-75000J0D01*
G01*
G37*
G36*
G01*
X89475000Y-114425000D02*
X89325000Y-114425000D01*
G75*
G02*
X89250000Y-114350000I0J75000D01*
G01*
X89250000Y-113050000D01*
G75*
G02*
X89325000Y-112975000I75000J0D01*
G01*
X89475000Y-112975000D01*
G75*
G02*
X89550000Y-113050000I0J-75000D01*
G01*
X89550000Y-114350000D01*
G75*
G02*
X89475000Y-114425000I-75000J0D01*
G01*
G37*
G36*
G01*
X88975000Y-114425000D02*
X88825000Y-114425000D01*
G75*
G02*
X88750000Y-114350000I0J75000D01*
G01*
X88750000Y-113050000D01*
G75*
G02*
X88825000Y-112975000I75000J0D01*
G01*
X88975000Y-112975000D01*
G75*
G02*
X89050000Y-113050000I0J-75000D01*
G01*
X89050000Y-114350000D01*
G75*
G02*
X88975000Y-114425000I-75000J0D01*
G01*
G37*
D13*
X100100000Y-113700000D03*
X99600000Y-113700000D03*
X99100000Y-113700000D03*
X98600000Y-113700000D03*
X98100000Y-113700000D03*
X98100000Y-118100000D03*
X98600000Y-118100000D03*
X99100000Y-118100000D03*
X99600000Y-118100000D03*
X100100000Y-118100000D03*
D14*
X70475000Y-119500000D03*
X71125000Y-119500000D03*
X71775000Y-119500000D03*
X72425000Y-119500000D03*
X73075000Y-119500000D03*
X73725000Y-119500000D03*
X74375000Y-119500000D03*
X75025000Y-119500000D03*
X75675000Y-119500000D03*
X76325000Y-119500000D03*
X76975000Y-119500000D03*
X77625000Y-119500000D03*
X78275000Y-119500000D03*
X78925000Y-119500000D03*
X78925000Y-112300000D03*
X78275000Y-112300000D03*
X77625000Y-112300000D03*
X76975000Y-112300000D03*
X76325000Y-112300000D03*
X75675000Y-112300000D03*
X75025000Y-112300000D03*
X74375000Y-112300000D03*
X73725000Y-112300000D03*
X73075000Y-112300000D03*
X72425000Y-112300000D03*
X71775000Y-112300000D03*
X71125000Y-112300000D03*
X70475000Y-112300000D03*
G36*
G01*
X106350000Y-113674999D02*
X106350000Y-114525001D01*
G75*
G02*
X106100001Y-114775000I-249999J0D01*
G01*
X105199999Y-114775000D01*
G75*
G02*
X104950000Y-114525001I0J249999D01*
G01*
X104950000Y-113674999D01*
G75*
G02*
X105199999Y-113425000I249999J0D01*
G01*
X106100001Y-113425000D01*
G75*
G02*
X106350000Y-113674999I0J-249999D01*
G01*
G37*
G36*
G01*
X103650000Y-113674999D02*
X103650000Y-114525001D01*
G75*
G02*
X103400001Y-114775000I-249999J0D01*
G01*
X102499999Y-114775000D01*
G75*
G02*
X102250000Y-114525001I0J249999D01*
G01*
X102250000Y-113674999D01*
G75*
G02*
X102499999Y-113425000I249999J0D01*
G01*
X103400001Y-113425000D01*
G75*
G02*
X103650000Y-113674999I0J-249999D01*
G01*
G37*
G36*
G01*
X123143750Y-103175000D02*
X123656250Y-103175000D01*
G75*
G02*
X123875000Y-103393750I0J-218750D01*
G01*
X123875000Y-103831250D01*
G75*
G02*
X123656250Y-104050000I-218750J0D01*
G01*
X123143750Y-104050000D01*
G75*
G02*
X122925000Y-103831250I0J218750D01*
G01*
X122925000Y-103393750D01*
G75*
G02*
X123143750Y-103175000I218750J0D01*
G01*
G37*
G36*
G01*
X123143750Y-104750000D02*
X123656250Y-104750000D01*
G75*
G02*
X123875000Y-104968750I0J-218750D01*
G01*
X123875000Y-105406250D01*
G75*
G02*
X123656250Y-105625000I-218750J0D01*
G01*
X123143750Y-105625000D01*
G75*
G02*
X122925000Y-105406250I0J218750D01*
G01*
X122925000Y-104968750D01*
G75*
G02*
X123143750Y-104750000I218750J0D01*
G01*
G37*
D15*
X143510000Y-114300000D03*
X138430000Y-123190000D03*
X140970000Y-114300000D03*
X140970000Y-123190000D03*
X138430000Y-114300000D03*
X143510000Y-123190000D03*
M02*
